G75*
%MOIN*%
%OFA0B0*%
%FSLAX25Y25*%
%IPPOS*%
%LPD*%
%AMOC8*
5,1,8,0,0,1.08239X$1,22.5*
%
%ADD10C,0.00000*%
%ADD11C,0.07000*%
%ADD12C,0.13400*%
%ADD13R,0.07487X0.02762*%
%ADD14R,0.09061X0.02762*%
%ADD15C,0.09400*%
%ADD16C,0.08000*%
%ADD17R,0.05912X0.04337*%
%ADD18R,0.06306X0.02369*%
%ADD19R,0.02369X0.06306*%
%ADD20R,0.09200X0.05200*%
%ADD21R,0.09061X0.14573*%
%ADD22R,0.04731X0.04337*%
%ADD23R,0.04337X0.04731*%
%ADD24R,0.05124X0.04250*%
%ADD25R,0.04298X0.03117*%
%ADD26C,0.06900*%
%ADD27R,0.07000X0.07000*%
%ADD28R,0.05124X0.02565*%
%ADD29R,0.06200X0.06200*%
%ADD30C,0.06200*%
%ADD31R,0.10636X0.06699*%
%ADD32R,0.06069X0.04337*%
%ADD33R,0.06069X0.05124*%
%ADD34R,0.06306X0.05518*%
%ADD35R,0.02998X0.09061*%
%ADD36C,0.24022*%
D10*
X0001500Y0001500D02*
X0001500Y0394500D01*
X0394500Y0394500D01*
X0394500Y0001500D01*
X0001500Y0001500D01*
D11*
X0013500Y0036500D03*
X0013500Y0046500D03*
X0023500Y0046500D03*
X0023500Y0036500D03*
X0036500Y0036500D03*
X0036500Y0046500D03*
X0046500Y0046500D03*
X0046500Y0036500D03*
X0059500Y0036500D03*
X0059500Y0046500D03*
X0069500Y0046500D03*
X0069500Y0036500D03*
X0082500Y0036500D03*
X0082500Y0046500D03*
X0082500Y0056500D03*
X0082500Y0066500D03*
X0082500Y0076500D03*
X0092500Y0076500D03*
X0092500Y0086500D03*
X0105500Y0076500D03*
X0105500Y0066500D03*
X0105500Y0056500D03*
X0105500Y0046500D03*
X0105500Y0036500D03*
X0115500Y0036500D03*
X0115500Y0046500D03*
X0115500Y0056500D03*
X0115500Y0066500D03*
X0115500Y0076500D03*
X0115500Y0086500D03*
X0128500Y0076500D03*
X0138500Y0076500D03*
X0138500Y0086500D03*
X0151500Y0076500D03*
X0161500Y0076500D03*
X0161500Y0086500D03*
X0174500Y0076500D03*
X0184500Y0076500D03*
X0184500Y0086500D03*
X0184500Y0066500D03*
X0184500Y0056500D03*
X0174500Y0056500D03*
X0174500Y0066500D03*
X0161500Y0066500D03*
X0161500Y0056500D03*
X0151500Y0056500D03*
X0151500Y0066500D03*
X0138500Y0066500D03*
X0138500Y0056500D03*
X0128500Y0056500D03*
X0128500Y0066500D03*
X0128500Y0046500D03*
X0128500Y0036500D03*
X0138500Y0036500D03*
X0138500Y0046500D03*
X0151500Y0046500D03*
X0151500Y0036500D03*
X0161500Y0036500D03*
X0161500Y0046500D03*
X0174500Y0046500D03*
X0174500Y0036500D03*
X0184500Y0036500D03*
X0184500Y0046500D03*
X0158500Y0103500D03*
X0158500Y0113500D03*
X0158500Y0123500D03*
X0158500Y0133500D03*
X0158500Y0143500D03*
X0158500Y0153500D03*
X0158500Y0163500D03*
X0158500Y0173500D03*
X0148500Y0163500D03*
X0148500Y0153500D03*
X0148500Y0143500D03*
X0148500Y0133500D03*
X0148500Y0123500D03*
X0148500Y0113500D03*
X0148500Y0103500D03*
X0113500Y0103500D03*
X0113500Y0113500D03*
X0103500Y0113500D03*
X0103500Y0103500D03*
X0103500Y0123500D03*
X0103500Y0133500D03*
X0113500Y0133500D03*
X0113500Y0123500D03*
X0113500Y0143500D03*
X0113500Y0153500D03*
X0103500Y0153500D03*
X0103500Y0143500D03*
X0103500Y0163500D03*
X0113500Y0163500D03*
X0113500Y0173500D03*
X0113500Y0189500D03*
X0103500Y0189500D03*
X0103500Y0199500D03*
X0103500Y0209500D03*
X0113500Y0209500D03*
X0113500Y0199500D03*
X0113500Y0219500D03*
X0113500Y0229500D03*
X0103500Y0229500D03*
X0103500Y0219500D03*
X0103500Y0239500D03*
X0113500Y0239500D03*
X0113500Y0249500D03*
X0113500Y0259500D03*
X0103500Y0249500D03*
X0068500Y0249500D03*
X0068500Y0259500D03*
X0058500Y0249500D03*
X0058500Y0239500D03*
X0058500Y0229500D03*
X0058500Y0219500D03*
X0058500Y0209500D03*
X0058500Y0199500D03*
X0058500Y0189500D03*
X0068500Y0189500D03*
X0068500Y0199500D03*
X0068500Y0209500D03*
X0068500Y0219500D03*
X0068500Y0229500D03*
X0068500Y0239500D03*
X0023500Y0239500D03*
X0013500Y0239500D03*
X0013500Y0229500D03*
X0013500Y0219500D03*
X0023500Y0219500D03*
X0023500Y0229500D03*
X0023500Y0209500D03*
X0023500Y0199500D03*
X0013500Y0199500D03*
X0013500Y0209500D03*
X0013500Y0189500D03*
X0023500Y0189500D03*
X0023500Y0173500D03*
X0023500Y0163500D03*
X0013500Y0163500D03*
X0013500Y0153500D03*
X0013500Y0143500D03*
X0023500Y0143500D03*
X0023500Y0153500D03*
X0023500Y0133500D03*
X0023500Y0123500D03*
X0013500Y0123500D03*
X0013500Y0133500D03*
X0013500Y0113500D03*
X0013500Y0103500D03*
X0023500Y0103500D03*
X0023500Y0113500D03*
X0023500Y0086500D03*
X0023500Y0076500D03*
X0013500Y0076500D03*
X0013500Y0066500D03*
X0013500Y0056500D03*
X0023500Y0056500D03*
X0023500Y0066500D03*
X0036500Y0066500D03*
X0036500Y0056500D03*
X0046500Y0056500D03*
X0046500Y0066500D03*
X0046500Y0076500D03*
X0046500Y0086500D03*
X0036500Y0076500D03*
X0059500Y0076500D03*
X0069500Y0076500D03*
X0069500Y0086500D03*
X0068500Y0103500D03*
X0068500Y0113500D03*
X0068500Y0123500D03*
X0068500Y0133500D03*
X0068500Y0143500D03*
X0068500Y0153500D03*
X0068500Y0163500D03*
X0068500Y0173500D03*
X0058500Y0163500D03*
X0058500Y0153500D03*
X0058500Y0143500D03*
X0058500Y0133500D03*
X0058500Y0123500D03*
X0058500Y0113500D03*
X0058500Y0103500D03*
X0059500Y0066500D03*
X0059500Y0056500D03*
X0069500Y0056500D03*
X0069500Y0066500D03*
X0092500Y0066500D03*
X0092500Y0056500D03*
X0092500Y0046500D03*
X0092500Y0036500D03*
X0219500Y0132500D03*
X0219500Y0142500D03*
X0229500Y0142500D03*
X0229500Y0132500D03*
X0229500Y0152500D03*
X0158500Y0189500D03*
X0158500Y0199500D03*
X0158500Y0209500D03*
X0158500Y0219500D03*
X0158500Y0229500D03*
X0158500Y0239500D03*
X0158500Y0249500D03*
X0158500Y0259500D03*
X0148500Y0249500D03*
X0148500Y0239500D03*
X0148500Y0229500D03*
X0148500Y0219500D03*
X0148500Y0209500D03*
X0148500Y0199500D03*
X0148500Y0189500D03*
X0023500Y0249500D03*
X0023500Y0259500D03*
X0013500Y0249500D03*
X0008500Y0306500D03*
X0240579Y0333700D03*
X0240579Y0341500D03*
X0250421Y0341500D03*
X0250421Y0333700D03*
X0335500Y0249500D03*
X0335500Y0239500D03*
X0325500Y0239500D03*
X0325500Y0229500D03*
X0325500Y0219500D03*
X0335500Y0219500D03*
X0335500Y0229500D03*
X0335500Y0209500D03*
X0335500Y0199500D03*
X0325500Y0199500D03*
X0325500Y0209500D03*
X0325500Y0189500D03*
X0325500Y0179500D03*
X0335500Y0179500D03*
X0335500Y0189500D03*
X0367500Y0189500D03*
X0367500Y0179500D03*
X0377500Y0179500D03*
X0377500Y0189500D03*
X0377500Y0199500D03*
X0377500Y0209500D03*
X0377500Y0219500D03*
X0377500Y0229500D03*
X0377500Y0239500D03*
X0377500Y0249500D03*
X0367500Y0239500D03*
X0367500Y0229500D03*
X0367500Y0219500D03*
X0367500Y0209500D03*
X0367500Y0199500D03*
X0377500Y0156500D03*
X0377500Y0146500D03*
X0377500Y0136500D03*
X0377500Y0126500D03*
X0377500Y0116500D03*
X0377500Y0106500D03*
X0377500Y0096500D03*
X0377500Y0086500D03*
X0367500Y0086500D03*
X0367500Y0096500D03*
X0367500Y0106500D03*
X0367500Y0116500D03*
X0367500Y0126500D03*
X0367500Y0136500D03*
X0367500Y0146500D03*
X0335500Y0146500D03*
X0335500Y0136500D03*
X0325500Y0136500D03*
X0325500Y0146500D03*
X0335500Y0156500D03*
X0335500Y0126500D03*
X0335500Y0116500D03*
X0325500Y0116500D03*
X0325500Y0126500D03*
X0325500Y0106500D03*
X0325500Y0096500D03*
X0335500Y0096500D03*
X0335500Y0106500D03*
X0335500Y0086500D03*
X0325500Y0086500D03*
D12*
X0269200Y0352200D03*
X0221800Y0352200D03*
D13*
X0266882Y0234000D03*
X0266882Y0229000D03*
X0266882Y0224000D03*
X0266882Y0219000D03*
X0266882Y0214000D03*
X0266882Y0209000D03*
X0266882Y0204000D03*
X0266882Y0199000D03*
X0266882Y0194000D03*
X0266882Y0189000D03*
X0266882Y0184000D03*
X0266882Y0179000D03*
X0302118Y0179000D03*
X0302118Y0184000D03*
X0302118Y0189000D03*
X0302118Y0194000D03*
X0302118Y0199000D03*
X0302118Y0204000D03*
X0302118Y0209000D03*
X0302118Y0214000D03*
X0302118Y0219000D03*
X0302118Y0224000D03*
X0302118Y0229000D03*
X0302118Y0234000D03*
X0302118Y0141000D03*
X0302118Y0136000D03*
X0302118Y0131000D03*
X0302118Y0126000D03*
X0302118Y0121000D03*
X0302118Y0116000D03*
X0302118Y0111000D03*
X0302118Y0106000D03*
X0302118Y0101000D03*
X0302118Y0096000D03*
X0302118Y0091000D03*
X0302118Y0086000D03*
X0266882Y0086000D03*
X0266882Y0091000D03*
X0266882Y0096000D03*
X0266882Y0101000D03*
X0266882Y0106000D03*
X0266882Y0111000D03*
X0266882Y0116000D03*
X0266882Y0121000D03*
X0266882Y0126000D03*
X0266882Y0131000D03*
X0266882Y0136000D03*
X0266882Y0141000D03*
X0240618Y0049500D03*
X0240618Y0044500D03*
X0240618Y0039500D03*
X0240618Y0034500D03*
X0240618Y0029500D03*
X0240618Y0024500D03*
X0240618Y0019500D03*
X0240618Y0014500D03*
X0240618Y0009500D03*
X0205382Y0009500D03*
X0205382Y0014500D03*
X0205382Y0019500D03*
X0205382Y0024500D03*
X0205382Y0029500D03*
X0205382Y0034500D03*
X0205382Y0039500D03*
X0205382Y0044500D03*
X0205382Y0049500D03*
D14*
X0257264Y0051000D03*
X0257264Y0046000D03*
X0257264Y0041000D03*
X0257264Y0036000D03*
X0257264Y0031000D03*
X0257264Y0026000D03*
X0257264Y0021000D03*
X0257264Y0016000D03*
X0277736Y0016000D03*
X0277736Y0021000D03*
X0277736Y0026000D03*
X0277736Y0031000D03*
X0277736Y0036000D03*
X0277736Y0041000D03*
X0277736Y0046000D03*
X0277736Y0051000D03*
X0143736Y0273000D03*
X0143736Y0278000D03*
X0143736Y0283000D03*
X0143736Y0288000D03*
X0143736Y0293000D03*
X0143736Y0298000D03*
X0143736Y0303000D03*
X0143736Y0308000D03*
X0123264Y0308000D03*
X0123264Y0303000D03*
X0123264Y0298000D03*
X0123264Y0293000D03*
X0123264Y0288000D03*
X0123264Y0283000D03*
X0123264Y0278000D03*
X0123264Y0273000D03*
X0107736Y0273000D03*
X0107736Y0278000D03*
X0107736Y0283000D03*
X0107736Y0288000D03*
X0107736Y0293000D03*
X0107736Y0298000D03*
X0107736Y0303000D03*
X0107736Y0308000D03*
X0087264Y0308000D03*
X0087264Y0303000D03*
X0087264Y0298000D03*
X0087264Y0293000D03*
X0087264Y0288000D03*
X0087264Y0283000D03*
X0087264Y0278000D03*
X0087264Y0273000D03*
D15*
X0093135Y0332306D03*
X0103135Y0342227D03*
X0073489Y0342187D03*
X0053765Y0332266D03*
X0044040Y0342227D03*
X0135540Y0342227D03*
X0145265Y0332266D03*
X0164989Y0342187D03*
X0184635Y0332306D03*
X0194635Y0342227D03*
D16*
X0184635Y0382027D03*
X0174935Y0382027D03*
X0154835Y0382027D03*
X0145235Y0382027D03*
X0093135Y0382027D03*
X0083435Y0382027D03*
X0063335Y0382027D03*
X0053735Y0382027D03*
D17*
X0026169Y0319740D03*
X0026169Y0312260D03*
X0034831Y0316000D03*
X0037169Y0258240D03*
X0037169Y0250760D03*
X0045831Y0254500D03*
X0037169Y0238240D03*
X0037169Y0230760D03*
X0045831Y0234500D03*
X0037169Y0218240D03*
X0037169Y0210760D03*
X0045831Y0214500D03*
X0037169Y0198240D03*
X0037169Y0190760D03*
X0045831Y0194500D03*
X0037169Y0172240D03*
X0037169Y0164760D03*
X0045831Y0168500D03*
X0037169Y0152240D03*
X0037169Y0144760D03*
X0045831Y0148500D03*
X0037169Y0132240D03*
X0037169Y0124760D03*
X0045831Y0128500D03*
X0037169Y0112240D03*
X0037169Y0104760D03*
X0045831Y0108500D03*
X0082169Y0104760D03*
X0082169Y0112240D03*
X0090831Y0108500D03*
X0082169Y0124760D03*
X0082169Y0132240D03*
X0090831Y0128500D03*
X0082169Y0144760D03*
X0082169Y0152240D03*
X0090831Y0148500D03*
X0082169Y0164760D03*
X0082169Y0172240D03*
X0090831Y0168500D03*
X0082169Y0190760D03*
X0082169Y0198240D03*
X0090831Y0194500D03*
X0082169Y0210760D03*
X0082169Y0218240D03*
X0090831Y0214500D03*
X0082169Y0230760D03*
X0082169Y0238240D03*
X0090831Y0234500D03*
X0082169Y0250760D03*
X0082169Y0258240D03*
X0090831Y0254500D03*
X0127169Y0250760D03*
X0127169Y0258240D03*
X0135831Y0254500D03*
X0127169Y0238240D03*
X0127169Y0230760D03*
X0135831Y0234500D03*
X0127169Y0218240D03*
X0127169Y0210760D03*
X0135831Y0214500D03*
X0127169Y0198240D03*
X0127169Y0190760D03*
X0135831Y0194500D03*
X0127169Y0172240D03*
X0127169Y0164760D03*
X0135831Y0168500D03*
X0127169Y0152240D03*
X0127169Y0144760D03*
X0135831Y0148500D03*
X0127169Y0132240D03*
X0127169Y0124760D03*
X0135831Y0128500D03*
X0127169Y0112240D03*
X0127169Y0104760D03*
X0135831Y0108500D03*
X0173169Y0104760D03*
X0173169Y0112240D03*
X0181831Y0108500D03*
X0173169Y0124760D03*
X0173169Y0132240D03*
X0181831Y0128500D03*
X0173169Y0144760D03*
X0173169Y0152240D03*
X0181831Y0148500D03*
X0173169Y0164760D03*
X0173169Y0172240D03*
X0181831Y0168500D03*
X0173169Y0190760D03*
X0173169Y0198240D03*
X0181831Y0194500D03*
X0173169Y0210760D03*
X0173169Y0218240D03*
X0181831Y0214500D03*
X0173169Y0230760D03*
X0173169Y0238240D03*
X0181831Y0234500D03*
X0173169Y0250760D03*
X0173169Y0258240D03*
X0181831Y0254500D03*
D18*
X0311665Y0305752D03*
X0311665Y0308902D03*
X0311665Y0312051D03*
X0311665Y0315201D03*
X0311665Y0318350D03*
X0311665Y0321500D03*
X0311665Y0324650D03*
X0311665Y0327799D03*
X0311665Y0330949D03*
X0311665Y0334098D03*
X0311665Y0337248D03*
X0357335Y0337248D03*
X0357335Y0334098D03*
X0357335Y0330949D03*
X0357335Y0327799D03*
X0357335Y0324650D03*
X0357335Y0321500D03*
X0357335Y0318350D03*
X0357335Y0315201D03*
X0357335Y0312051D03*
X0357335Y0308902D03*
X0357335Y0305752D03*
D19*
X0350248Y0298665D03*
X0347098Y0298665D03*
X0343949Y0298665D03*
X0340799Y0298665D03*
X0337650Y0298665D03*
X0334500Y0298665D03*
X0331350Y0298665D03*
X0328201Y0298665D03*
X0325051Y0298665D03*
X0321902Y0298665D03*
X0318752Y0298665D03*
X0318752Y0344335D03*
X0321902Y0344335D03*
X0325051Y0344335D03*
X0328201Y0344335D03*
X0331350Y0344335D03*
X0334500Y0344335D03*
X0337650Y0344335D03*
X0340799Y0344335D03*
X0343949Y0344335D03*
X0347098Y0344335D03*
X0350248Y0344335D03*
D20*
X0217300Y0240600D03*
X0217300Y0231500D03*
X0217300Y0222400D03*
D21*
X0241701Y0231500D03*
D22*
X0217500Y0214846D03*
X0217500Y0208154D03*
X0211500Y0185846D03*
X0211500Y0179154D03*
X0195500Y0117846D03*
X0195500Y0111154D03*
X0229500Y0110154D03*
X0229500Y0116846D03*
X0295000Y0052846D03*
X0295000Y0046154D03*
X0295000Y0033346D03*
X0295000Y0026654D03*
X0309000Y0026654D03*
X0309000Y0033346D03*
X0309500Y0046154D03*
X0309500Y0052846D03*
X0323000Y0052846D03*
X0323000Y0046154D03*
X0323000Y0033346D03*
X0323000Y0026654D03*
X0335500Y0017846D03*
X0335500Y0011154D03*
X0348500Y0011154D03*
X0348500Y0017846D03*
X0361500Y0017846D03*
X0361500Y0011154D03*
X0356500Y0032154D03*
X0356500Y0038846D03*
X0372500Y0038846D03*
X0372500Y0032154D03*
X0340500Y0032154D03*
X0340500Y0038846D03*
X0312500Y0278154D03*
X0312500Y0284846D03*
X0295500Y0311154D03*
X0295500Y0317846D03*
X0295500Y0324154D03*
X0295500Y0330846D03*
X0310500Y0345154D03*
X0310500Y0351846D03*
X0319000Y0353654D03*
X0319000Y0360346D03*
X0292000Y0361154D03*
X0292000Y0367846D03*
X0292000Y0375154D03*
X0292000Y0381846D03*
X0239500Y0318846D03*
X0239500Y0312154D03*
X0233500Y0289846D03*
X0233500Y0283154D03*
X0221000Y0280154D03*
X0221000Y0286846D03*
X0212000Y0286846D03*
X0212000Y0280154D03*
X0203000Y0280154D03*
X0203000Y0286846D03*
X0194000Y0286846D03*
X0194000Y0280154D03*
X0185000Y0280154D03*
X0185000Y0286846D03*
X0176000Y0286846D03*
X0176000Y0280154D03*
X0167000Y0280154D03*
X0167000Y0286846D03*
X0158000Y0286846D03*
X0158000Y0280154D03*
X0027000Y0287154D03*
X0027000Y0293846D03*
X0016500Y0329154D03*
X0016500Y0335846D03*
X0016500Y0342154D03*
X0016500Y0348846D03*
X0016500Y0355154D03*
X0016500Y0361846D03*
X0357500Y0349346D03*
X0357500Y0342654D03*
X0367500Y0308346D03*
X0367500Y0301654D03*
D23*
X0355346Y0269500D03*
X0348654Y0269500D03*
X0341346Y0269500D03*
X0334654Y0269500D03*
X0301846Y0241500D03*
X0295154Y0241500D03*
X0220346Y0251000D03*
X0213654Y0251000D03*
X0143846Y0315500D03*
X0137154Y0315500D03*
X0114846Y0315500D03*
X0108154Y0315500D03*
X0079846Y0315500D03*
X0073154Y0315500D03*
X0295154Y0148500D03*
X0301846Y0148500D03*
X0217846Y0056500D03*
X0211154Y0056500D03*
X0264654Y0009500D03*
X0271346Y0009500D03*
X0311654Y0369000D03*
X0318346Y0369000D03*
X0318346Y0379000D03*
X0311654Y0379000D03*
X0311654Y0387500D03*
X0318346Y0387500D03*
D24*
X0333500Y0388626D03*
X0333500Y0379356D03*
X0346000Y0379356D03*
X0346000Y0388626D03*
X0358500Y0388626D03*
X0358500Y0379356D03*
D25*
X0356382Y0059240D03*
X0356382Y0055500D03*
X0356382Y0051760D03*
X0346118Y0051760D03*
X0346118Y0055500D03*
X0346118Y0059240D03*
X0335882Y0059240D03*
X0335882Y0055500D03*
X0335882Y0051760D03*
X0366618Y0051760D03*
X0366618Y0055500D03*
X0366618Y0059240D03*
X0376882Y0059240D03*
X0376882Y0055500D03*
X0376882Y0051760D03*
X0387118Y0051760D03*
X0387118Y0055500D03*
X0387118Y0059240D03*
D26*
X0355000Y0283500D03*
X0335000Y0283500D03*
D27*
X0325500Y0249500D03*
X0367500Y0249500D03*
X0367500Y0156500D03*
X0325500Y0156500D03*
X0219500Y0152500D03*
X0174500Y0086500D03*
X0151500Y0086500D03*
X0128500Y0086500D03*
X0105500Y0086500D03*
X0082500Y0086500D03*
X0059500Y0086500D03*
X0036500Y0086500D03*
X0013500Y0086500D03*
X0013500Y0173500D03*
X0058500Y0173500D03*
X0103500Y0173500D03*
X0148500Y0173500D03*
X0148500Y0259500D03*
X0103500Y0259500D03*
X0058500Y0259500D03*
X0013500Y0259500D03*
X0008500Y0296500D03*
D28*
X0208382Y0118240D03*
X0208382Y0114500D03*
X0208382Y0110760D03*
X0218618Y0110760D03*
X0218618Y0118240D03*
D29*
X0040500Y0309500D03*
D30*
X0040500Y0299500D03*
X0040500Y0289500D03*
X0040500Y0279500D03*
X0070500Y0279500D03*
X0070500Y0289500D03*
X0070500Y0299500D03*
X0070500Y0309500D03*
D31*
X0207413Y0313000D03*
X0221587Y0313000D03*
D32*
X0251169Y0313760D03*
X0251169Y0321240D03*
X0259831Y0321240D03*
D33*
X0259831Y0314547D03*
D34*
X0274500Y0331154D03*
X0274500Y0337846D03*
D35*
X0272500Y0290311D03*
X0267500Y0290311D03*
X0262500Y0290311D03*
X0257500Y0290311D03*
X0252500Y0290311D03*
X0247500Y0290311D03*
X0242500Y0290311D03*
X0242500Y0266689D03*
X0247500Y0266689D03*
X0252500Y0266689D03*
X0257500Y0266689D03*
X0262500Y0266689D03*
X0267500Y0266689D03*
X0272500Y0266689D03*
D36*
X0380500Y0380500D03*
X0380500Y0015500D03*
X0015500Y0015500D03*
X0015500Y0380500D03*
M02*
