G75*
%MOIN*%
%OFA0B0*%
%FSLAX25Y25*%
%IPPOS*%
%LPD*%
%AMOC8*
5,1,8,0,0,1.08239X$1,22.5*
%
%ADD10C,0.00000*%
%ADD11C,0.00800*%
%ADD12C,0.00900*%
%ADD13R,0.00200X0.00100*%
%ADD14R,0.00300X0.00100*%
%ADD15R,0.00400X0.00100*%
%ADD16R,0.00600X0.00100*%
%ADD17R,0.00700X0.00100*%
%ADD18R,0.00900X0.00100*%
%ADD19R,0.01000X0.00100*%
%ADD20R,0.01200X0.00100*%
%ADD21R,0.01100X0.00100*%
%ADD22R,0.01300X0.00100*%
%ADD23R,0.01800X0.00100*%
%ADD24R,0.02200X0.00100*%
%ADD25R,0.01500X0.00100*%
%ADD26R,0.02600X0.00100*%
%ADD27R,0.01900X0.00100*%
%ADD28R,0.02900X0.00100*%
%ADD29R,0.03200X0.00100*%
%ADD30R,0.02500X0.00100*%
%ADD31R,0.03500X0.00100*%
%ADD32R,0.02700X0.00100*%
%ADD33R,0.03700X0.00100*%
%ADD34R,0.03000X0.00100*%
%ADD35R,0.04000X0.00100*%
%ADD36R,0.03300X0.00100*%
%ADD37R,0.04200X0.00100*%
%ADD38R,0.04400X0.00100*%
%ADD39R,0.03600X0.00100*%
%ADD40R,0.04500X0.00100*%
%ADD41R,0.03800X0.00100*%
%ADD42R,0.03900X0.00100*%
%ADD43R,0.03400X0.00100*%
%ADD44R,0.03100X0.00100*%
%ADD45R,0.02800X0.00100*%
%ADD46R,0.02400X0.00100*%
%ADD47R,0.02300X0.00100*%
%ADD48R,0.01400X0.00100*%
%ADD49R,0.08900X0.00100*%
%ADD50R,0.01600X0.00100*%
%ADD51R,0.06000X0.00100*%
%ADD52R,0.02100X0.00100*%
%ADD53R,0.07400X0.00100*%
%ADD54R,0.09000X0.00100*%
%ADD55R,0.06100X0.00100*%
%ADD56R,0.07500X0.00100*%
%ADD57R,0.07600X0.00100*%
%ADD58R,0.01700X0.00100*%
%ADD59R,0.09100X0.00100*%
%ADD60R,0.06200X0.00100*%
%ADD61R,0.02000X0.00100*%
%ADD62R,0.07800X0.00100*%
%ADD63R,0.09200X0.00100*%
%ADD64R,0.06300X0.00100*%
%ADD65R,0.07700X0.00100*%
%ADD66R,0.08000X0.00100*%
%ADD67R,0.09300X0.00100*%
%ADD68R,0.06400X0.00100*%
%ADD69R,0.08200X0.00100*%
%ADD70R,0.09400X0.00100*%
%ADD71R,0.06500X0.00100*%
%ADD72R,0.07900X0.00100*%
%ADD73R,0.08400X0.00100*%
%ADD74R,0.09500X0.00100*%
%ADD75R,0.06600X0.00100*%
%ADD76R,0.08600X0.00100*%
%ADD77R,0.09600X0.00100*%
%ADD78R,0.06700X0.00100*%
%ADD79R,0.08100X0.00100*%
%ADD80R,0.08800X0.00100*%
%ADD81R,0.09700X0.00100*%
%ADD82R,0.06800X0.00100*%
%ADD83R,0.09800X0.00100*%
%ADD84R,0.06900X0.00100*%
%ADD85R,0.08300X0.00100*%
%ADD86R,0.09900X0.00100*%
%ADD87R,0.07000X0.00100*%
%ADD88R,0.10000X0.00100*%
%ADD89R,0.07100X0.00100*%
%ADD90R,0.08500X0.00100*%
%ADD91R,0.10100X0.00100*%
%ADD92R,0.07200X0.00100*%
%ADD93R,0.10200X0.00100*%
%ADD94R,0.07300X0.00100*%
%ADD95R,0.08700X0.00100*%
%ADD96R,0.10300X0.00100*%
%ADD97R,0.10400X0.00100*%
%ADD98R,0.04600X0.00100*%
%ADD99R,0.04900X0.00100*%
%ADD100R,0.05200X0.00100*%
%ADD101R,0.05400X0.00100*%
%ADD102R,0.05700X0.00100*%
%ADD103R,0.00800X0.00100*%
%ADD104R,0.05900X0.00100*%
%ADD105R,0.00100X0.00100*%
%ADD106R,0.05500X0.00100*%
%ADD107R,0.04100X0.00100*%
%ADD108R,0.04300X0.00100*%
%ADD109R,0.04700X0.00100*%
%ADD110R,0.05100X0.00100*%
%ADD111R,0.05300X0.00100*%
%ADD112R,0.04800X0.00100*%
%ADD113R,0.05000X0.00100*%
%ADD114R,0.05800X0.00100*%
%ADD115R,0.05600X0.00100*%
%ADD116R,0.11100X0.00100*%
%ADD117R,0.11000X0.00100*%
%ADD118R,0.10900X0.00100*%
%ADD119R,0.10800X0.00100*%
%ADD120R,0.10700X0.00100*%
%ADD121R,0.10500X0.00100*%
%ADD122R,0.00500X0.00100*%
D10*
X0001500Y0001500D02*
X0001500Y0394500D01*
X0394500Y0394500D01*
X0394500Y0001500D01*
X0001500Y0001500D01*
D11*
X0026320Y0356230D02*
X0026320Y0358332D01*
X0027021Y0359032D01*
X0027721Y0358332D01*
X0027721Y0356230D01*
X0029122Y0356230D02*
X0029122Y0359032D01*
X0028422Y0359032D01*
X0027721Y0358332D01*
X0030924Y0358332D02*
X0031625Y0359032D01*
X0033026Y0359032D01*
X0033726Y0358332D01*
X0033726Y0356931D01*
X0033026Y0356230D01*
X0031625Y0356230D01*
X0030924Y0356931D01*
X0030924Y0358332D01*
X0035528Y0359032D02*
X0037630Y0359032D01*
X0038330Y0358332D01*
X0038330Y0356931D01*
X0037630Y0356230D01*
X0035528Y0356230D01*
X0039932Y0356230D02*
X0040632Y0356230D01*
X0040632Y0356931D01*
X0039932Y0356931D01*
X0039932Y0356230D01*
X0042434Y0356931D02*
X0043134Y0356230D01*
X0045236Y0356230D01*
X0044536Y0357631D02*
X0043134Y0357631D01*
X0042434Y0356931D01*
X0042434Y0359032D02*
X0044536Y0359032D01*
X0045236Y0358332D01*
X0044536Y0357631D01*
X0046904Y0356230D02*
X0048305Y0356230D01*
X0047605Y0356230D02*
X0047605Y0360434D01*
X0048305Y0360434D01*
X0050107Y0358332D02*
X0050808Y0359032D01*
X0052209Y0359032D01*
X0052909Y0358332D01*
X0052909Y0356931D01*
X0052209Y0356230D01*
X0050808Y0356230D01*
X0050107Y0356931D01*
X0050107Y0358332D01*
X0054644Y0359032D02*
X0055345Y0359032D01*
X0056746Y0357631D01*
X0056746Y0356230D02*
X0056746Y0359032D01*
X0058414Y0359032D02*
X0059815Y0359032D01*
X0059115Y0359733D02*
X0059115Y0356931D01*
X0058414Y0356230D01*
X0061617Y0356230D02*
X0061617Y0358332D01*
X0062317Y0359032D01*
X0064419Y0359032D01*
X0064419Y0356230D01*
X0066221Y0356931D02*
X0066921Y0356230D01*
X0068323Y0356230D01*
X0069023Y0356931D01*
X0069023Y0358332D01*
X0068323Y0359032D01*
X0066921Y0359032D01*
X0066221Y0358332D01*
X0066221Y0356931D01*
X0070825Y0356230D02*
X0072926Y0356230D01*
X0073627Y0356931D01*
X0073627Y0358332D01*
X0072926Y0359032D01*
X0070825Y0359032D01*
X0075429Y0358332D02*
X0075429Y0356230D01*
X0077530Y0356230D01*
X0078231Y0356931D01*
X0077530Y0357631D01*
X0075429Y0357631D01*
X0075429Y0358332D02*
X0076129Y0359032D01*
X0077530Y0359032D01*
X0080032Y0358332D02*
X0080032Y0357631D01*
X0082835Y0357631D01*
X0082835Y0356931D02*
X0082835Y0358332D01*
X0082134Y0359032D01*
X0080733Y0359032D01*
X0080032Y0358332D01*
X0080733Y0356230D02*
X0082134Y0356230D01*
X0082835Y0356931D01*
X0084503Y0356230D02*
X0085204Y0356931D01*
X0085204Y0359733D01*
X0085904Y0359032D02*
X0084503Y0359032D01*
X0087706Y0358332D02*
X0087706Y0356230D01*
X0087706Y0358332D02*
X0088406Y0359032D01*
X0090508Y0359032D01*
X0090508Y0356230D01*
X0092310Y0356230D02*
X0092310Y0358332D01*
X0093010Y0359032D01*
X0094411Y0359032D01*
X0094411Y0357631D02*
X0092310Y0357631D01*
X0092310Y0356230D02*
X0094411Y0356230D01*
X0095112Y0356931D01*
X0094411Y0357631D01*
X0096914Y0358332D02*
X0096914Y0356230D01*
X0096914Y0358332D02*
X0097614Y0359032D01*
X0099015Y0359032D01*
X0099716Y0358332D01*
X0101517Y0359032D02*
X0103619Y0359032D01*
X0104320Y0358332D01*
X0103619Y0357631D01*
X0102218Y0357631D01*
X0101517Y0356931D01*
X0102218Y0356230D01*
X0104320Y0356230D01*
X0106121Y0360434D02*
X0108924Y0356230D01*
X0110725Y0360434D02*
X0113528Y0356230D01*
X0115129Y0356230D02*
X0115129Y0356931D01*
X0115830Y0356931D01*
X0115830Y0356230D01*
X0115129Y0356230D01*
X0115129Y0358332D02*
X0115830Y0358332D01*
X0115830Y0359032D01*
X0115129Y0359032D01*
X0115129Y0358332D01*
X0117631Y0359032D02*
X0119733Y0359032D01*
X0120434Y0358332D01*
X0119733Y0357631D01*
X0118332Y0357631D01*
X0117631Y0356931D01*
X0118332Y0356230D01*
X0120434Y0356230D01*
X0122235Y0356931D02*
X0122936Y0356230D01*
X0125038Y0356230D01*
X0125038Y0354829D02*
X0125038Y0359032D01*
X0122936Y0359032D01*
X0122235Y0358332D01*
X0122235Y0356931D01*
X0126706Y0356230D02*
X0127406Y0356931D01*
X0127406Y0359733D01*
X0126706Y0359032D02*
X0128107Y0359032D01*
X0129775Y0359032D02*
X0131176Y0359032D01*
X0130475Y0359733D02*
X0130475Y0356931D01*
X0129775Y0356230D01*
X0132978Y0356230D02*
X0132978Y0358332D01*
X0133678Y0359032D01*
X0135079Y0359032D01*
X0135780Y0358332D01*
X0135780Y0360434D02*
X0135780Y0356230D01*
X0099716Y0356230D02*
X0099716Y0360434D01*
D12*
X0317832Y0361667D02*
X0320337Y0361667D01*
X0321172Y0362502D01*
X0321172Y0364171D01*
X0320337Y0365006D01*
X0317832Y0365006D01*
X0317832Y0366676D02*
X0317832Y0361667D01*
X0323199Y0365006D02*
X0324034Y0365006D01*
X0325704Y0363336D01*
X0325704Y0361667D02*
X0325704Y0365006D01*
X0327802Y0364171D02*
X0328637Y0365006D01*
X0330307Y0365006D01*
X0330307Y0363336D02*
X0327802Y0363336D01*
X0327802Y0364171D02*
X0327802Y0361667D01*
X0330307Y0361667D01*
X0331141Y0362502D01*
X0330307Y0363336D01*
X0333239Y0362502D02*
X0333239Y0364171D01*
X0334074Y0365006D01*
X0335744Y0365006D01*
X0336579Y0364171D01*
X0336579Y0362502D01*
X0335744Y0361667D01*
X0334074Y0361667D01*
X0333239Y0362502D01*
X0333025Y0357818D02*
X0331355Y0357818D01*
X0330520Y0356983D01*
X0330520Y0356148D01*
X0333860Y0352808D01*
X0330520Y0352808D01*
X0328423Y0352808D02*
X0327588Y0352808D01*
X0327588Y0353643D01*
X0328423Y0353643D01*
X0328423Y0352808D01*
X0325704Y0352808D02*
X0322364Y0356148D01*
X0322364Y0356983D01*
X0323199Y0357818D01*
X0324869Y0357818D01*
X0325704Y0356983D01*
X0325704Y0352808D02*
X0322364Y0352808D01*
X0333025Y0357818D02*
X0333860Y0356983D01*
X0335744Y0353643D02*
X0335744Y0352808D01*
X0336579Y0352808D01*
X0336579Y0353643D01*
X0335744Y0353643D01*
X0338677Y0352808D02*
X0342017Y0352808D01*
X0340347Y0352808D02*
X0340347Y0357818D01*
X0342017Y0356148D01*
X0342017Y0361667D02*
X0339512Y0361667D01*
X0338677Y0362502D01*
X0338677Y0364171D01*
X0339512Y0365006D01*
X0342017Y0365006D01*
X0342017Y0366676D02*
X0342017Y0361667D01*
X0349481Y0361667D02*
X0351986Y0363336D01*
X0349481Y0365006D01*
X0351986Y0366676D02*
X0351986Y0361667D01*
X0354084Y0361667D02*
X0356589Y0361667D01*
X0357424Y0362502D01*
X0357424Y0364171D01*
X0356589Y0365006D01*
X0354084Y0365006D01*
X0359522Y0364171D02*
X0359522Y0363336D01*
X0362861Y0363336D01*
X0362861Y0362502D02*
X0362861Y0364171D01*
X0362026Y0365006D01*
X0360357Y0365006D01*
X0359522Y0364171D01*
X0360357Y0361667D02*
X0362026Y0361667D01*
X0362861Y0362502D01*
X0364959Y0362502D02*
X0364959Y0365841D01*
X0365794Y0366676D01*
X0368299Y0366676D01*
X0368299Y0361667D01*
X0365794Y0361667D01*
X0364959Y0362502D01*
X0363839Y0358653D02*
X0363839Y0357818D01*
X0363839Y0356148D02*
X0363839Y0352808D01*
X0364674Y0352808D02*
X0363004Y0352808D01*
X0361049Y0353643D02*
X0360214Y0352808D01*
X0358544Y0352808D01*
X0357709Y0353643D01*
X0357709Y0355313D01*
X0358544Y0356148D01*
X0360214Y0356148D01*
X0361049Y0355313D01*
X0361049Y0353643D01*
X0363839Y0356148D02*
X0364674Y0356148D01*
X0366772Y0356148D02*
X0369277Y0356148D01*
X0370112Y0355313D01*
X0369277Y0354478D01*
X0367607Y0354478D01*
X0366772Y0353643D01*
X0367607Y0352808D01*
X0370112Y0352808D01*
X0372067Y0352808D02*
X0373737Y0352808D01*
X0372902Y0352808D02*
X0372902Y0356148D01*
X0373737Y0356148D01*
X0372902Y0357818D02*
X0372902Y0358653D01*
X0373737Y0361667D02*
X0373737Y0365006D01*
X0371232Y0365006D01*
X0370397Y0364171D01*
X0370397Y0361667D01*
X0375835Y0363336D02*
X0379175Y0363336D01*
X0379175Y0362502D02*
X0379175Y0364171D01*
X0378340Y0365006D01*
X0376670Y0365006D01*
X0375835Y0364171D01*
X0375835Y0363336D01*
X0376670Y0361667D02*
X0378340Y0361667D01*
X0379175Y0362502D01*
X0381272Y0362502D02*
X0382107Y0361667D01*
X0384612Y0361667D01*
X0384612Y0359997D02*
X0384612Y0365006D01*
X0382107Y0365006D01*
X0381272Y0364171D01*
X0381272Y0362502D01*
X0386710Y0362502D02*
X0386710Y0365841D01*
X0387545Y0366676D01*
X0389215Y0366676D01*
X0390050Y0365841D01*
X0390050Y0362502D01*
X0389215Y0361667D01*
X0387545Y0361667D01*
X0386710Y0362502D01*
X0387545Y0357818D02*
X0386710Y0356983D01*
X0386710Y0355313D01*
X0387545Y0354478D01*
X0390050Y0354478D01*
X0390050Y0352808D02*
X0390050Y0357818D01*
X0387545Y0357818D01*
X0388380Y0354478D02*
X0386710Y0352808D01*
X0384612Y0353643D02*
X0384612Y0355313D01*
X0383777Y0356148D01*
X0382107Y0356148D01*
X0381272Y0355313D01*
X0381272Y0354478D01*
X0384612Y0354478D01*
X0384612Y0353643D02*
X0383777Y0352808D01*
X0382107Y0352808D01*
X0381272Y0348960D02*
X0382942Y0348125D01*
X0384612Y0346455D01*
X0382107Y0346455D01*
X0381272Y0345620D01*
X0381272Y0344785D01*
X0382107Y0343950D01*
X0383777Y0343950D01*
X0384612Y0344785D01*
X0384612Y0346455D01*
X0386710Y0348125D02*
X0390050Y0344785D01*
X0389215Y0343950D01*
X0387545Y0343950D01*
X0386710Y0344785D01*
X0386710Y0348125D01*
X0387545Y0348960D01*
X0389215Y0348960D01*
X0390050Y0348125D01*
X0390050Y0344785D01*
X0379175Y0343950D02*
X0375835Y0348960D01*
X0373737Y0348125D02*
X0372902Y0348960D01*
X0371232Y0348960D01*
X0370397Y0348125D01*
X0370397Y0347290D01*
X0373737Y0343950D01*
X0370397Y0343950D01*
X0368299Y0344785D02*
X0364959Y0348125D01*
X0364959Y0344785D01*
X0365794Y0343950D01*
X0367464Y0343950D01*
X0368299Y0344785D01*
X0368299Y0348125D01*
X0367464Y0348960D01*
X0365794Y0348960D01*
X0364959Y0348125D01*
X0362861Y0347290D02*
X0361192Y0348960D01*
X0361192Y0343950D01*
X0362861Y0343950D02*
X0359522Y0343950D01*
X0357424Y0344785D02*
X0356589Y0343950D01*
X0354919Y0343950D01*
X0354084Y0344785D01*
X0354084Y0345620D01*
X0354919Y0346455D01*
X0356589Y0346455D01*
X0357424Y0347290D01*
X0357424Y0348125D01*
X0356589Y0348960D01*
X0354919Y0348960D01*
X0354084Y0348125D01*
X0354084Y0347290D01*
X0354919Y0346455D01*
X0356589Y0346455D02*
X0357424Y0345620D01*
X0357424Y0344785D01*
X0355611Y0352808D02*
X0355611Y0356148D01*
X0353106Y0356148D01*
X0352271Y0355313D01*
X0352271Y0352808D01*
X0350173Y0352808D02*
X0350173Y0353643D01*
X0349339Y0353643D01*
X0349339Y0352808D01*
X0350173Y0352808D01*
X0350173Y0355313D02*
X0350173Y0356148D01*
X0349339Y0356148D01*
X0349339Y0355313D01*
X0350173Y0355313D01*
X0375835Y0356148D02*
X0377505Y0352808D01*
X0379175Y0356148D01*
D13*
X0134750Y0374000D03*
X0123050Y0361000D03*
X0120850Y0364300D03*
X0114550Y0384800D03*
D14*
X0119000Y0384400D03*
X0122600Y0384900D03*
X0130300Y0385100D03*
X0134600Y0373900D03*
X0123000Y0361100D03*
D15*
X0122950Y0361200D03*
X0134550Y0373800D03*
X0110250Y0377500D03*
D16*
X0110350Y0377400D03*
X0118850Y0384200D03*
X0122450Y0384800D03*
X0134450Y0373700D03*
X0123950Y0364300D03*
X0122850Y0361300D03*
D17*
X0122800Y0361400D03*
X0120600Y0364400D03*
X0128000Y0372400D03*
X0134400Y0373600D03*
X0130400Y0385200D03*
X0122400Y0384700D03*
D18*
X0122300Y0384600D03*
X0118800Y0383900D03*
X0113700Y0377600D03*
X0110500Y0377300D03*
X0122700Y0361500D03*
X0134200Y0373400D03*
D19*
X0120650Y0373800D03*
X0118750Y0383800D03*
X0122250Y0384500D03*
X0122650Y0361600D03*
D20*
X0122550Y0361700D03*
X0122550Y0361800D03*
X0122450Y0362600D03*
X0122450Y0362700D03*
X0122450Y0362800D03*
X0122450Y0362900D03*
X0122350Y0363500D03*
X0122350Y0363600D03*
X0122350Y0363700D03*
X0122350Y0363800D03*
X0122350Y0363900D03*
X0122350Y0364000D03*
X0122350Y0364100D03*
X0122250Y0364400D03*
X0122250Y0364500D03*
X0122250Y0364600D03*
X0122250Y0364700D03*
X0122250Y0364800D03*
X0122250Y0364900D03*
X0122250Y0365000D03*
X0122250Y0365100D03*
X0122250Y0365200D03*
X0122150Y0365600D03*
X0122150Y0365700D03*
X0122150Y0365800D03*
X0122150Y0365900D03*
X0122150Y0366000D03*
X0120550Y0374200D03*
X0120450Y0374600D03*
X0120350Y0374900D03*
X0120350Y0375000D03*
X0120350Y0375100D03*
X0120250Y0375200D03*
X0120250Y0375300D03*
X0120250Y0375400D03*
X0120150Y0375600D03*
X0120150Y0375700D03*
X0118750Y0383500D03*
X0118750Y0383600D03*
X0122150Y0384400D03*
X0120950Y0389100D03*
X0114350Y0385100D03*
X0110650Y0377200D03*
X0110650Y0377100D03*
X0110650Y0377000D03*
X0110650Y0376600D03*
X0110650Y0376500D03*
X0110650Y0376400D03*
X0110650Y0376300D03*
X0110650Y0376200D03*
X0110650Y0376100D03*
X0110750Y0375200D03*
X0110750Y0375100D03*
D21*
X0120400Y0374800D03*
X0120400Y0374700D03*
X0120500Y0374500D03*
X0120500Y0374400D03*
X0120500Y0374300D03*
X0120600Y0374100D03*
X0120600Y0374000D03*
X0120600Y0373900D03*
X0118800Y0383700D03*
X0130500Y0385300D03*
X0140800Y0385900D03*
X0134100Y0373300D03*
X0122300Y0364300D03*
X0122300Y0364200D03*
X0122400Y0363400D03*
X0122400Y0363300D03*
X0122400Y0363200D03*
X0122400Y0363100D03*
X0122400Y0363000D03*
X0122500Y0362500D03*
X0122500Y0362400D03*
X0122500Y0362300D03*
X0122500Y0362200D03*
X0122500Y0362100D03*
X0122500Y0362000D03*
X0122500Y0361900D03*
D22*
X0124300Y0364400D03*
X0122200Y0365300D03*
X0122200Y0365400D03*
X0122200Y0365500D03*
X0122100Y0366100D03*
X0122100Y0366200D03*
X0122100Y0366300D03*
X0122100Y0366400D03*
X0122100Y0366500D03*
X0122100Y0366600D03*
X0122100Y0366700D03*
X0122100Y0366800D03*
X0122000Y0367200D03*
X0122000Y0367300D03*
X0122000Y0367400D03*
X0122000Y0367500D03*
X0120300Y0364500D03*
X0120200Y0375500D03*
X0120100Y0375800D03*
X0120100Y0375900D03*
X0120000Y0376000D03*
X0120000Y0376100D03*
X0120000Y0376200D03*
X0119900Y0376400D03*
X0119800Y0376700D03*
X0122100Y0384300D03*
X0124200Y0389100D03*
X0110600Y0376900D03*
X0110600Y0376800D03*
X0110600Y0376700D03*
X0110700Y0376000D03*
X0110700Y0375900D03*
X0110700Y0375800D03*
X0110700Y0375700D03*
X0110700Y0375600D03*
X0110700Y0375500D03*
X0110700Y0375400D03*
X0110700Y0375300D03*
X0110800Y0375000D03*
X0110800Y0374900D03*
X0110800Y0374800D03*
X0110800Y0374700D03*
X0110800Y0374600D03*
X0110800Y0374500D03*
X0110900Y0374400D03*
X0110900Y0374300D03*
X0110900Y0374200D03*
X0110900Y0374100D03*
X0111000Y0374000D03*
X0111000Y0373900D03*
X0111000Y0373800D03*
X0111000Y0373700D03*
X0111100Y0373600D03*
X0111100Y0373500D03*
X0111100Y0373400D03*
X0111200Y0373200D03*
X0111200Y0373100D03*
X0111300Y0372900D03*
X0111300Y0372800D03*
X0111400Y0372600D03*
X0111400Y0372500D03*
X0111500Y0372300D03*
X0111700Y0371800D03*
X0133500Y0372000D03*
X0133600Y0372200D03*
X0133700Y0372500D03*
X0133800Y0372700D03*
X0133800Y0372800D03*
X0133900Y0373000D03*
X0133900Y0373100D03*
X0134000Y0373200D03*
D23*
X0131250Y0368600D03*
X0131150Y0368500D03*
X0131050Y0368400D03*
X0130950Y0368300D03*
X0130850Y0368200D03*
X0130750Y0368100D03*
X0130650Y0368000D03*
X0130550Y0367900D03*
X0124450Y0364500D03*
X0121850Y0369600D03*
X0114450Y0368000D03*
X0114350Y0368100D03*
X0114250Y0368200D03*
X0114150Y0368300D03*
X0114050Y0368400D03*
X0113950Y0368500D03*
X0119350Y0377800D03*
X0119350Y0377900D03*
X0121750Y0383800D03*
X0121850Y0383900D03*
X0114650Y0385600D03*
X0114550Y0385500D03*
X0114450Y0385400D03*
X0037650Y0367300D03*
D24*
X0037850Y0367700D03*
X0115750Y0367000D03*
X0119750Y0364800D03*
X0124650Y0364600D03*
X0129250Y0366900D03*
X0129350Y0367000D03*
X0121850Y0370700D03*
X0121550Y0383400D03*
X0115950Y0386600D03*
X0115650Y0386400D03*
X0129150Y0386600D03*
X0129350Y0386500D03*
X0129450Y0386400D03*
D25*
X0122000Y0384100D03*
X0118800Y0383100D03*
X0118800Y0383000D03*
X0119500Y0377500D03*
X0119600Y0377300D03*
X0119600Y0377200D03*
X0119700Y0377000D03*
X0121900Y0368400D03*
X0121900Y0368300D03*
X0120100Y0364600D03*
X0113100Y0369500D03*
X0112900Y0369800D03*
X0112800Y0369900D03*
X0112700Y0370000D03*
X0112700Y0370100D03*
X0112600Y0370200D03*
X0112500Y0370300D03*
X0112500Y0370400D03*
X0112400Y0370500D03*
X0112300Y0370700D03*
X0112100Y0371000D03*
X0112000Y0371200D03*
X0111900Y0371400D03*
X0094500Y0371400D03*
X0094500Y0371500D03*
X0094500Y0371600D03*
X0094500Y0371700D03*
X0094500Y0371800D03*
X0094500Y0371900D03*
X0094500Y0372000D03*
X0094500Y0372100D03*
X0094500Y0372200D03*
X0094500Y0372300D03*
X0094500Y0372400D03*
X0094500Y0372500D03*
X0094500Y0372600D03*
X0094500Y0372700D03*
X0094500Y0372800D03*
X0094500Y0371300D03*
X0094500Y0371200D03*
X0094500Y0371100D03*
X0094500Y0371000D03*
X0094500Y0370900D03*
X0094500Y0370800D03*
X0094500Y0370700D03*
X0094500Y0370600D03*
X0094500Y0370500D03*
X0094500Y0370400D03*
X0094500Y0370300D03*
X0094500Y0370200D03*
X0094500Y0370100D03*
X0094500Y0370000D03*
X0094500Y0369900D03*
X0094500Y0369800D03*
X0094500Y0369700D03*
X0094500Y0369600D03*
X0094500Y0369500D03*
X0094500Y0369400D03*
X0094500Y0369300D03*
X0094500Y0369200D03*
X0094500Y0369100D03*
X0094500Y0369000D03*
X0094500Y0368900D03*
X0094500Y0368800D03*
X0094500Y0368700D03*
X0094500Y0368600D03*
X0082800Y0368600D03*
X0082800Y0368700D03*
X0082800Y0368800D03*
X0082800Y0368900D03*
X0082800Y0369000D03*
X0082800Y0369100D03*
X0082800Y0369200D03*
X0082800Y0369300D03*
X0082800Y0369400D03*
X0082800Y0369500D03*
X0082800Y0369600D03*
X0082800Y0369700D03*
X0082800Y0369800D03*
X0082800Y0369900D03*
X0082800Y0370000D03*
X0082800Y0370100D03*
X0082800Y0370200D03*
X0082800Y0370300D03*
X0082800Y0370400D03*
X0082800Y0370500D03*
X0082800Y0370600D03*
X0082800Y0370700D03*
X0082800Y0370800D03*
X0082800Y0370900D03*
X0082800Y0371000D03*
X0082800Y0371100D03*
X0082800Y0371200D03*
X0082800Y0371300D03*
X0082800Y0371400D03*
X0082800Y0371500D03*
X0082800Y0371600D03*
X0082800Y0371700D03*
X0082800Y0371800D03*
X0082800Y0371900D03*
X0082800Y0372000D03*
X0082800Y0372100D03*
X0082800Y0372200D03*
X0082800Y0372300D03*
X0082800Y0372400D03*
X0082800Y0372500D03*
X0082800Y0372600D03*
X0082800Y0372700D03*
X0082800Y0372800D03*
X0082800Y0368500D03*
X0082800Y0368400D03*
X0082800Y0368300D03*
X0082800Y0368200D03*
X0082800Y0368100D03*
X0082800Y0368000D03*
X0082800Y0367900D03*
X0082800Y0367800D03*
X0082800Y0367700D03*
X0082800Y0367600D03*
X0082800Y0367500D03*
X0082800Y0367400D03*
X0082800Y0367300D03*
X0082800Y0367200D03*
X0082800Y0367100D03*
X0060900Y0367100D03*
X0060900Y0367200D03*
X0060900Y0367300D03*
X0060900Y0367400D03*
X0060900Y0367500D03*
X0060900Y0367600D03*
X0060900Y0367700D03*
X0060900Y0367800D03*
X0060900Y0367900D03*
X0060900Y0368000D03*
X0060900Y0368100D03*
X0060900Y0368200D03*
X0060900Y0368300D03*
X0060900Y0368400D03*
X0060900Y0368500D03*
X0060900Y0368600D03*
X0060900Y0368700D03*
X0060900Y0368800D03*
X0060900Y0368900D03*
X0060900Y0369000D03*
X0060900Y0369100D03*
X0060900Y0369200D03*
X0060900Y0369300D03*
X0060900Y0369400D03*
X0060900Y0369500D03*
X0060900Y0369600D03*
X0060900Y0369700D03*
X0060900Y0369800D03*
X0060900Y0369900D03*
X0060900Y0370000D03*
X0060900Y0370100D03*
X0060900Y0370200D03*
X0060900Y0370300D03*
X0060900Y0370400D03*
X0060900Y0370500D03*
X0060900Y0370600D03*
X0060900Y0370700D03*
X0060900Y0370800D03*
X0060900Y0370900D03*
X0060900Y0371000D03*
X0060900Y0371100D03*
X0060900Y0371200D03*
X0060900Y0371300D03*
X0060900Y0371400D03*
X0060900Y0371500D03*
X0060900Y0371600D03*
X0060900Y0371700D03*
X0060900Y0371800D03*
X0060900Y0371900D03*
X0060900Y0372000D03*
X0060900Y0372100D03*
X0060900Y0372200D03*
X0060900Y0372300D03*
X0060900Y0372400D03*
X0060900Y0372500D03*
X0060900Y0372600D03*
X0060900Y0372700D03*
X0060900Y0372800D03*
X0041900Y0372800D03*
X0041900Y0372700D03*
X0041900Y0372600D03*
X0041900Y0372500D03*
X0041900Y0372400D03*
X0041900Y0372300D03*
X0041900Y0372200D03*
X0041900Y0372100D03*
X0041900Y0372000D03*
X0041900Y0371900D03*
X0041900Y0371800D03*
X0041900Y0371700D03*
X0041900Y0371600D03*
X0041900Y0371500D03*
X0041900Y0371400D03*
X0041900Y0371300D03*
X0041900Y0371200D03*
X0041900Y0371100D03*
X0041900Y0371000D03*
X0041900Y0370900D03*
X0041900Y0370800D03*
X0041900Y0370700D03*
X0041900Y0370600D03*
X0041900Y0370500D03*
X0041900Y0370400D03*
X0041900Y0370300D03*
X0041900Y0370200D03*
X0041900Y0370100D03*
X0041900Y0370000D03*
X0041900Y0369900D03*
X0041900Y0369800D03*
X0041900Y0369700D03*
X0041900Y0369600D03*
X0041900Y0369500D03*
X0041900Y0369400D03*
X0041900Y0369300D03*
X0041900Y0369200D03*
X0041900Y0369100D03*
X0041900Y0369000D03*
X0041900Y0368900D03*
X0041900Y0368800D03*
X0041900Y0368700D03*
X0041900Y0368600D03*
X0025800Y0368600D03*
X0025800Y0368700D03*
X0025800Y0368800D03*
X0025800Y0368900D03*
X0025800Y0369000D03*
X0025800Y0369100D03*
X0025800Y0369200D03*
X0025800Y0369300D03*
X0025800Y0369400D03*
X0025800Y0369500D03*
X0025800Y0369600D03*
X0025800Y0369700D03*
X0025800Y0369800D03*
X0025800Y0369900D03*
X0132100Y0369600D03*
X0132300Y0369900D03*
X0132400Y0370000D03*
X0132500Y0370100D03*
X0132500Y0370200D03*
X0132600Y0370300D03*
X0132700Y0370500D03*
X0132800Y0370600D03*
X0132900Y0370800D03*
X0133000Y0371000D03*
X0150600Y0369900D03*
X0150600Y0369800D03*
X0150600Y0369700D03*
X0150600Y0369600D03*
X0150600Y0369500D03*
X0150600Y0369400D03*
X0150600Y0369300D03*
X0150600Y0369200D03*
X0150600Y0369100D03*
X0150600Y0369000D03*
X0150600Y0368900D03*
X0150600Y0368800D03*
X0150600Y0368700D03*
X0150600Y0368600D03*
X0162300Y0368600D03*
X0162300Y0368700D03*
X0162300Y0368800D03*
X0162300Y0368900D03*
X0162300Y0369000D03*
X0162300Y0369100D03*
X0162300Y0369200D03*
X0162300Y0369300D03*
X0162300Y0369400D03*
X0162300Y0369500D03*
X0162300Y0369600D03*
X0162300Y0369700D03*
X0162300Y0369800D03*
X0162300Y0369900D03*
X0162300Y0371600D03*
X0162300Y0371700D03*
X0162300Y0371800D03*
X0162300Y0371900D03*
X0162300Y0372000D03*
X0162300Y0372100D03*
X0162300Y0372200D03*
X0162300Y0372300D03*
X0162300Y0372400D03*
X0162300Y0372500D03*
X0162300Y0372600D03*
X0162300Y0372700D03*
X0162300Y0372800D03*
D26*
X0128350Y0387100D03*
X0121250Y0382800D03*
X0121150Y0382600D03*
X0119050Y0378700D03*
X0121950Y0371600D03*
X0121950Y0371500D03*
X0116750Y0366400D03*
X0124850Y0364700D03*
X0038050Y0368100D03*
D27*
X0037700Y0367400D03*
X0114600Y0367900D03*
X0114700Y0367800D03*
X0114800Y0367700D03*
X0119900Y0364700D03*
X0121900Y0369700D03*
X0121900Y0369800D03*
X0121900Y0369900D03*
X0121900Y0370000D03*
X0121900Y0370100D03*
X0119300Y0378000D03*
X0121700Y0383700D03*
X0115000Y0385900D03*
X0114900Y0385800D03*
X0114800Y0385700D03*
X0114300Y0385300D03*
X0130000Y0386000D03*
X0130400Y0385700D03*
X0130500Y0385600D03*
X0130600Y0385500D03*
X0130400Y0367800D03*
X0130300Y0367700D03*
X0130200Y0367600D03*
D28*
X0127800Y0366100D03*
X0125000Y0364800D03*
X0123000Y0374600D03*
X0123100Y0374800D03*
X0123200Y0375000D03*
X0123300Y0375200D03*
X0127700Y0387400D03*
X0117400Y0387400D03*
X0038200Y0368400D03*
D29*
X0113650Y0377800D03*
X0121950Y0372700D03*
X0121950Y0372600D03*
X0123750Y0376100D03*
X0123850Y0376200D03*
X0123850Y0376300D03*
X0123950Y0376400D03*
X0124050Y0376600D03*
X0127250Y0387600D03*
X0117850Y0387600D03*
X0117850Y0365900D03*
X0125150Y0364900D03*
D30*
X0128400Y0366400D03*
X0128600Y0366500D03*
X0121900Y0371200D03*
X0121900Y0371300D03*
X0121900Y0371400D03*
X0119600Y0364900D03*
X0119100Y0378600D03*
X0121300Y0382900D03*
X0116800Y0387100D03*
X0116600Y0387000D03*
X0120300Y0388800D03*
X0124800Y0388800D03*
X0128500Y0387000D03*
X0128700Y0386900D03*
X0038000Y0368000D03*
D31*
X0119100Y0365300D03*
X0125300Y0365000D03*
X0122000Y0373000D03*
X0122000Y0373100D03*
X0122000Y0373200D03*
X0124500Y0377300D03*
X0124600Y0377400D03*
X0124600Y0377500D03*
X0124700Y0377600D03*
D32*
X0121100Y0382500D03*
X0121200Y0382700D03*
X0117200Y0387300D03*
X0117000Y0387200D03*
X0128100Y0387200D03*
X0128300Y0372600D03*
X0128200Y0366300D03*
X0128000Y0366200D03*
X0121900Y0371700D03*
X0121900Y0371800D03*
X0119500Y0365000D03*
X0116900Y0366300D03*
X0038100Y0368200D03*
D33*
X0118400Y0365700D03*
X0125400Y0365100D03*
X0122000Y0373400D03*
X0124900Y0377900D03*
X0125000Y0378000D03*
X0125100Y0378200D03*
X0125200Y0378300D03*
X0126600Y0387800D03*
X0118500Y0387800D03*
D34*
X0117650Y0387500D03*
X0119050Y0379000D03*
X0123550Y0375700D03*
X0123450Y0375500D03*
X0123350Y0375300D03*
X0123250Y0375100D03*
X0123150Y0374900D03*
X0121950Y0372400D03*
X0121950Y0372300D03*
X0121950Y0372200D03*
X0119350Y0365100D03*
X0117550Y0366000D03*
X0127550Y0366000D03*
X0038250Y0368500D03*
D35*
X0118850Y0379600D03*
X0125750Y0379000D03*
X0125850Y0379100D03*
X0125950Y0379200D03*
X0126250Y0387900D03*
X0137050Y0382900D03*
X0125550Y0365200D03*
D36*
X0119200Y0365200D03*
X0118100Y0365800D03*
X0122000Y0372800D03*
X0122000Y0372900D03*
X0124000Y0376500D03*
X0124100Y0376700D03*
X0124200Y0376800D03*
X0124300Y0377000D03*
X0119000Y0379200D03*
X0128400Y0372700D03*
D37*
X0128650Y0372900D03*
X0126250Y0379500D03*
X0126350Y0379600D03*
X0118850Y0379700D03*
X0115150Y0382200D03*
X0114950Y0382300D03*
X0107650Y0383200D03*
X0125650Y0365300D03*
X0136850Y0382700D03*
D38*
X0136650Y0382500D03*
X0120150Y0382300D03*
X0120150Y0382200D03*
X0120150Y0382100D03*
X0120050Y0381900D03*
X0120050Y0381800D03*
X0118850Y0379800D03*
X0114650Y0382500D03*
X0114450Y0382600D03*
X0113550Y0378000D03*
X0107850Y0383100D03*
X0125750Y0365400D03*
D39*
X0126750Y0365700D03*
X0118950Y0365400D03*
X0122050Y0373300D03*
X0124750Y0377700D03*
X0124850Y0377800D03*
X0125050Y0378100D03*
X0118950Y0379400D03*
X0119750Y0388400D03*
X0125350Y0388400D03*
D40*
X0125800Y0388000D03*
X0119300Y0388000D03*
X0120200Y0382400D03*
X0118800Y0379900D03*
X0126800Y0380100D03*
X0126900Y0380200D03*
X0127000Y0380300D03*
X0125900Y0365500D03*
X0108000Y0383000D03*
D41*
X0118950Y0379500D03*
X0125250Y0378400D03*
X0125350Y0378500D03*
X0125450Y0378600D03*
X0122050Y0373600D03*
X0122050Y0373500D03*
X0128550Y0372800D03*
X0118850Y0365500D03*
D42*
X0118700Y0365600D03*
X0126400Y0365600D03*
X0122100Y0373700D03*
X0125500Y0378700D03*
X0125600Y0378800D03*
X0125700Y0378900D03*
X0115800Y0381800D03*
X0115600Y0381900D03*
X0115500Y0382000D03*
X0113600Y0377900D03*
X0109000Y0385000D03*
X0119600Y0388300D03*
X0125500Y0388300D03*
X0137200Y0383000D03*
X0139300Y0385700D03*
D43*
X0126950Y0387700D03*
X0125250Y0388500D03*
X0119850Y0388500D03*
X0118150Y0387700D03*
X0118950Y0379300D03*
X0124250Y0376900D03*
X0124350Y0377100D03*
X0124450Y0377200D03*
X0127050Y0365800D03*
D44*
X0127300Y0365900D03*
X0122000Y0372500D03*
X0123400Y0375400D03*
X0123500Y0375600D03*
X0123600Y0375800D03*
X0123700Y0375900D03*
X0123700Y0376000D03*
X0119000Y0379100D03*
X0127500Y0387500D03*
X0125100Y0388600D03*
X0120000Y0388600D03*
D45*
X0120150Y0388700D03*
X0124950Y0388700D03*
X0127950Y0387300D03*
X0119050Y0378900D03*
X0119050Y0378800D03*
X0123050Y0374700D03*
X0122950Y0374500D03*
X0122950Y0374400D03*
X0122850Y0374300D03*
X0122850Y0374200D03*
X0122750Y0374100D03*
X0122750Y0374000D03*
X0122750Y0373900D03*
X0122650Y0373800D03*
X0121950Y0372100D03*
X0121950Y0372000D03*
X0121950Y0371900D03*
X0117350Y0366100D03*
X0117150Y0366200D03*
X0139850Y0385800D03*
X0038150Y0368300D03*
D46*
X0037950Y0367900D03*
X0113650Y0377700D03*
X0119150Y0378500D03*
X0121350Y0383000D03*
X0116450Y0386900D03*
X0116250Y0386800D03*
X0128850Y0386800D03*
X0128750Y0366600D03*
X0116550Y0366500D03*
X0116350Y0366600D03*
D47*
X0116200Y0366700D03*
X0116100Y0366800D03*
X0115900Y0366900D03*
X0121900Y0370800D03*
X0121900Y0370900D03*
X0121900Y0371000D03*
X0121900Y0371100D03*
X0119200Y0378400D03*
X0121400Y0383100D03*
X0121500Y0383200D03*
X0121500Y0383300D03*
X0116100Y0386700D03*
X0129000Y0386700D03*
X0129100Y0366800D03*
X0128900Y0366700D03*
X0037900Y0367800D03*
D48*
X0111150Y0373300D03*
X0111250Y0373000D03*
X0111350Y0372700D03*
X0111450Y0372400D03*
X0111550Y0372200D03*
X0111550Y0372100D03*
X0111650Y0372000D03*
X0111650Y0371900D03*
X0111750Y0371700D03*
X0111850Y0371600D03*
X0111850Y0371500D03*
X0111950Y0371300D03*
X0112050Y0371100D03*
X0112150Y0370900D03*
X0112250Y0370800D03*
X0112350Y0370600D03*
X0119950Y0376300D03*
X0119850Y0376500D03*
X0119850Y0376600D03*
X0119750Y0376800D03*
X0119750Y0376900D03*
X0119650Y0377100D03*
X0118750Y0383200D03*
X0118750Y0383300D03*
X0118750Y0383400D03*
X0122050Y0384200D03*
X0133850Y0372900D03*
X0133750Y0372600D03*
X0133650Y0372400D03*
X0133650Y0372300D03*
X0133550Y0372100D03*
X0133450Y0371900D03*
X0133450Y0371800D03*
X0133350Y0371700D03*
X0133350Y0371600D03*
X0133250Y0371500D03*
X0133250Y0371400D03*
X0133150Y0371300D03*
X0133150Y0371200D03*
X0133050Y0371100D03*
X0132950Y0370900D03*
X0132850Y0370700D03*
X0132650Y0370400D03*
X0121950Y0368200D03*
X0121950Y0368100D03*
X0121950Y0368000D03*
X0121950Y0367900D03*
X0121950Y0367800D03*
X0121950Y0367700D03*
X0121950Y0367600D03*
X0122050Y0367100D03*
X0122050Y0367000D03*
X0122050Y0366900D03*
D49*
X0131800Y0376500D03*
X0131900Y0376600D03*
X0132000Y0376700D03*
X0132100Y0376900D03*
X0132200Y0377000D03*
X0132600Y0377600D03*
X0132700Y0377700D03*
X0132800Y0377900D03*
X0132900Y0378000D03*
X0133000Y0378100D03*
X0145500Y0371400D03*
X0145500Y0367100D03*
X0158600Y0370100D03*
X0180600Y0374400D03*
X0190800Y0371500D03*
X0190800Y0367100D03*
X0204000Y0374400D03*
X0214200Y0370000D03*
X0214300Y0370100D03*
X0214400Y0370200D03*
X0214500Y0370300D03*
X0214600Y0370400D03*
X0214700Y0370500D03*
X0214800Y0370600D03*
X0214900Y0370700D03*
X0215000Y0370800D03*
X0215100Y0370900D03*
X0215200Y0371000D03*
X0215300Y0371100D03*
X0215400Y0371200D03*
X0215500Y0371300D03*
X0215600Y0371400D03*
X0215700Y0371500D03*
X0215700Y0367100D03*
X0108600Y0384500D03*
X0101100Y0372900D03*
X0079100Y0374300D03*
X0030900Y0367100D03*
D50*
X0034550Y0371600D03*
X0034550Y0371700D03*
X0034550Y0371800D03*
X0034550Y0371900D03*
X0034550Y0372000D03*
X0034550Y0372100D03*
X0034550Y0372200D03*
X0034550Y0372300D03*
X0034550Y0372400D03*
X0034550Y0372500D03*
X0034550Y0372600D03*
X0034550Y0372700D03*
X0034550Y0372800D03*
X0038950Y0372800D03*
X0038950Y0372900D03*
X0038950Y0373000D03*
X0038950Y0373100D03*
X0038950Y0373200D03*
X0038950Y0373300D03*
X0038950Y0373400D03*
X0038950Y0373500D03*
X0038950Y0373600D03*
X0038950Y0373700D03*
X0038950Y0373800D03*
X0038950Y0373900D03*
X0038950Y0374000D03*
X0038950Y0374100D03*
X0038950Y0374200D03*
X0038950Y0374300D03*
X0038950Y0374400D03*
X0038950Y0374500D03*
X0038950Y0374600D03*
X0038950Y0374700D03*
X0038950Y0374800D03*
X0038950Y0374900D03*
X0038950Y0375000D03*
X0038950Y0375100D03*
X0038950Y0375200D03*
X0038950Y0375300D03*
X0038950Y0375400D03*
X0038950Y0375500D03*
X0038950Y0375600D03*
X0038950Y0375700D03*
X0038950Y0375800D03*
X0038950Y0375900D03*
X0038950Y0376000D03*
X0038950Y0376100D03*
X0038950Y0376200D03*
X0038950Y0376300D03*
X0038950Y0376400D03*
X0038950Y0376500D03*
X0038950Y0376600D03*
X0038950Y0376700D03*
X0038950Y0376800D03*
X0038950Y0376900D03*
X0038950Y0377000D03*
X0038950Y0377100D03*
X0038950Y0377200D03*
X0038950Y0377300D03*
X0038950Y0372700D03*
X0038950Y0372600D03*
X0038950Y0372500D03*
X0038950Y0372400D03*
X0038950Y0372300D03*
X0038950Y0372200D03*
X0038950Y0372100D03*
X0038950Y0372000D03*
X0038950Y0371900D03*
X0038950Y0371800D03*
X0038950Y0371700D03*
X0038950Y0371600D03*
X0038950Y0371500D03*
X0038950Y0371400D03*
X0038950Y0371300D03*
X0038950Y0371200D03*
X0038950Y0371100D03*
X0038950Y0371000D03*
X0038950Y0370900D03*
X0038950Y0370800D03*
X0038950Y0370700D03*
X0038950Y0370600D03*
X0038950Y0370500D03*
X0038950Y0370400D03*
X0038950Y0370300D03*
X0038950Y0370200D03*
X0038950Y0370100D03*
X0038950Y0370000D03*
X0038950Y0369900D03*
X0038950Y0369800D03*
X0038950Y0369700D03*
X0038950Y0369600D03*
X0038950Y0369500D03*
X0038950Y0369400D03*
X0038950Y0369300D03*
X0038950Y0369200D03*
X0038950Y0369100D03*
X0038950Y0369000D03*
X0038950Y0368900D03*
X0038950Y0368800D03*
X0038950Y0368700D03*
X0038950Y0368600D03*
X0037550Y0367100D03*
X0050650Y0368600D03*
X0050650Y0368700D03*
X0050650Y0368800D03*
X0050650Y0368900D03*
X0050650Y0369000D03*
X0050650Y0369100D03*
X0050650Y0369200D03*
X0050650Y0369300D03*
X0050650Y0369400D03*
X0050650Y0369500D03*
X0050650Y0369600D03*
X0050650Y0369700D03*
X0050650Y0369800D03*
X0050650Y0369900D03*
X0050650Y0370000D03*
X0050650Y0370100D03*
X0050650Y0370200D03*
X0050650Y0370300D03*
X0050650Y0370400D03*
X0050650Y0370500D03*
X0050650Y0370600D03*
X0050650Y0370700D03*
X0050650Y0370800D03*
X0050650Y0370900D03*
X0050650Y0371000D03*
X0050650Y0371100D03*
X0050650Y0371200D03*
X0050650Y0371300D03*
X0050650Y0371400D03*
X0050650Y0371500D03*
X0050650Y0371600D03*
X0050650Y0371700D03*
X0050650Y0371800D03*
X0050650Y0371900D03*
X0050650Y0372000D03*
X0050650Y0372100D03*
X0050650Y0372200D03*
X0050650Y0372300D03*
X0050650Y0372400D03*
X0050650Y0372500D03*
X0050650Y0372600D03*
X0050650Y0372700D03*
X0050650Y0372800D03*
X0069650Y0372800D03*
X0069650Y0372700D03*
X0069650Y0372600D03*
X0069650Y0372500D03*
X0069650Y0372400D03*
X0069650Y0372300D03*
X0069650Y0372200D03*
X0069650Y0372100D03*
X0069650Y0372000D03*
X0069650Y0371900D03*
X0069650Y0371800D03*
X0069650Y0371700D03*
X0069650Y0371600D03*
X0069650Y0371500D03*
X0069650Y0371400D03*
X0069650Y0371300D03*
X0069650Y0371200D03*
X0069650Y0371100D03*
X0069650Y0371000D03*
X0069650Y0370900D03*
X0069650Y0370800D03*
X0069650Y0370700D03*
X0069650Y0370600D03*
X0069650Y0370500D03*
X0069650Y0370400D03*
X0069650Y0370300D03*
X0069650Y0370200D03*
X0069650Y0370100D03*
X0069650Y0370000D03*
X0069650Y0369900D03*
X0069650Y0369800D03*
X0069650Y0369700D03*
X0069650Y0369600D03*
X0069650Y0369500D03*
X0069650Y0369400D03*
X0069650Y0369300D03*
X0069650Y0369200D03*
X0069650Y0369100D03*
X0069650Y0369000D03*
X0069650Y0368900D03*
X0069650Y0368800D03*
X0069650Y0368700D03*
X0069650Y0368600D03*
X0074050Y0368600D03*
X0074050Y0368700D03*
X0074050Y0368800D03*
X0074050Y0368900D03*
X0074050Y0369000D03*
X0074050Y0369100D03*
X0074050Y0369200D03*
X0074050Y0369300D03*
X0074050Y0369400D03*
X0074050Y0369500D03*
X0074050Y0369600D03*
X0074050Y0369700D03*
X0074050Y0369800D03*
X0074050Y0369900D03*
X0074050Y0370000D03*
X0074050Y0370100D03*
X0074050Y0370200D03*
X0074050Y0370300D03*
X0074050Y0370400D03*
X0074050Y0370500D03*
X0074050Y0370600D03*
X0074050Y0370700D03*
X0074050Y0370800D03*
X0074050Y0370900D03*
X0074050Y0371000D03*
X0074050Y0371100D03*
X0074050Y0371200D03*
X0074050Y0371300D03*
X0074050Y0371400D03*
X0074050Y0371500D03*
X0074050Y0371600D03*
X0074050Y0371700D03*
X0074050Y0371800D03*
X0074050Y0371900D03*
X0074050Y0372000D03*
X0074050Y0372100D03*
X0074050Y0372200D03*
X0074050Y0372300D03*
X0074050Y0372400D03*
X0074050Y0372500D03*
X0074050Y0372600D03*
X0074050Y0372700D03*
X0074050Y0372800D03*
X0074050Y0368500D03*
X0074050Y0368400D03*
X0074050Y0368300D03*
X0074050Y0368200D03*
X0074050Y0368100D03*
X0074050Y0368000D03*
X0074050Y0367900D03*
X0074050Y0367800D03*
X0074050Y0367700D03*
X0074050Y0367600D03*
X0074050Y0367500D03*
X0074050Y0367400D03*
X0074050Y0367300D03*
X0074050Y0367200D03*
X0074050Y0367100D03*
X0069650Y0374500D03*
X0069650Y0374600D03*
X0069650Y0374700D03*
X0069650Y0374800D03*
X0069650Y0374900D03*
X0069650Y0375000D03*
X0069650Y0375100D03*
X0069650Y0375200D03*
X0069650Y0375300D03*
X0069650Y0375400D03*
X0069650Y0375500D03*
X0069650Y0375600D03*
X0069650Y0375700D03*
X0069650Y0375800D03*
X0085750Y0372800D03*
X0085750Y0372700D03*
X0085750Y0372600D03*
X0085750Y0372500D03*
X0085750Y0372400D03*
X0085750Y0372300D03*
X0085750Y0372200D03*
X0085750Y0372100D03*
X0085750Y0372000D03*
X0085750Y0371900D03*
X0085750Y0371800D03*
X0085750Y0371700D03*
X0085750Y0371600D03*
X0085750Y0371500D03*
X0085750Y0371400D03*
X0085750Y0371300D03*
X0085750Y0371200D03*
X0085750Y0371100D03*
X0085750Y0371000D03*
X0085750Y0370900D03*
X0085750Y0370800D03*
X0085750Y0370700D03*
X0085750Y0370600D03*
X0085750Y0370500D03*
X0085750Y0370400D03*
X0085750Y0370300D03*
X0085750Y0370200D03*
X0085750Y0370100D03*
X0085750Y0370000D03*
X0085750Y0369900D03*
X0085750Y0369800D03*
X0085750Y0369700D03*
X0085750Y0369600D03*
X0085750Y0369500D03*
X0085750Y0369400D03*
X0085750Y0369300D03*
X0085750Y0369200D03*
X0085750Y0369100D03*
X0085750Y0369000D03*
X0085750Y0368900D03*
X0085750Y0368800D03*
X0085750Y0368700D03*
X0085750Y0368600D03*
X0104750Y0368600D03*
X0104750Y0368700D03*
X0104750Y0368800D03*
X0104750Y0368900D03*
X0104750Y0369000D03*
X0104750Y0369100D03*
X0104750Y0369200D03*
X0104750Y0369300D03*
X0104750Y0369400D03*
X0104750Y0369500D03*
X0104750Y0369600D03*
X0104750Y0369700D03*
X0104750Y0369800D03*
X0104750Y0369900D03*
X0104750Y0370000D03*
X0104750Y0370100D03*
X0104750Y0370200D03*
X0104750Y0370300D03*
X0104750Y0370400D03*
X0104750Y0370500D03*
X0104750Y0370600D03*
X0104750Y0370700D03*
X0104750Y0370800D03*
X0104750Y0370900D03*
X0104750Y0371000D03*
X0104750Y0371100D03*
X0104750Y0371200D03*
X0104750Y0371300D03*
X0104750Y0371400D03*
X0104750Y0371500D03*
X0104750Y0371600D03*
X0104750Y0371700D03*
X0104750Y0371800D03*
X0104750Y0371900D03*
X0104750Y0372000D03*
X0104750Y0372100D03*
X0104750Y0372200D03*
X0104750Y0372300D03*
X0104750Y0372400D03*
X0104750Y0372500D03*
X0104750Y0372600D03*
X0104750Y0372700D03*
X0104750Y0372800D03*
X0112950Y0369700D03*
X0113050Y0369600D03*
X0113150Y0369400D03*
X0113250Y0369300D03*
X0113350Y0369200D03*
X0113450Y0369100D03*
X0121950Y0368800D03*
X0121950Y0368700D03*
X0121950Y0368600D03*
X0121950Y0368500D03*
X0119550Y0377400D03*
X0119450Y0377600D03*
X0118750Y0382900D03*
X0114250Y0385200D03*
X0130550Y0385400D03*
X0141850Y0372800D03*
X0141850Y0372700D03*
X0141850Y0372600D03*
X0141850Y0372500D03*
X0141850Y0372400D03*
X0141850Y0372300D03*
X0141850Y0372200D03*
X0141850Y0372100D03*
X0141850Y0372000D03*
X0141850Y0371900D03*
X0141850Y0371800D03*
X0141850Y0371700D03*
X0141850Y0371600D03*
X0141850Y0369900D03*
X0141850Y0369800D03*
X0141850Y0369700D03*
X0141850Y0369600D03*
X0141850Y0369500D03*
X0141850Y0369400D03*
X0141850Y0369300D03*
X0141850Y0369200D03*
X0141850Y0369100D03*
X0141850Y0369000D03*
X0141850Y0368900D03*
X0141850Y0368800D03*
X0141850Y0368700D03*
X0141850Y0368600D03*
X0132250Y0369800D03*
X0132150Y0369700D03*
X0132050Y0369500D03*
X0131950Y0369400D03*
X0131850Y0369300D03*
X0131750Y0369200D03*
X0131550Y0368900D03*
X0131450Y0368800D03*
X0131350Y0368700D03*
X0153550Y0371600D03*
X0153550Y0371700D03*
X0153550Y0371800D03*
X0153550Y0371900D03*
X0153550Y0372000D03*
X0153550Y0372100D03*
X0153550Y0372200D03*
X0153550Y0372300D03*
X0153550Y0372400D03*
X0153550Y0372500D03*
X0153550Y0372600D03*
X0153550Y0372700D03*
X0153550Y0372800D03*
X0171050Y0372800D03*
X0171050Y0372700D03*
X0171050Y0372600D03*
X0171050Y0372500D03*
X0171050Y0372400D03*
X0171050Y0372300D03*
X0171050Y0372200D03*
X0171050Y0372100D03*
X0171050Y0372000D03*
X0171050Y0371900D03*
X0171050Y0371800D03*
X0171050Y0371700D03*
X0171050Y0371600D03*
X0171050Y0371500D03*
X0171050Y0371400D03*
X0171050Y0371300D03*
X0171050Y0371200D03*
X0171050Y0371100D03*
X0171050Y0371000D03*
X0171050Y0370900D03*
X0171050Y0370800D03*
X0171050Y0370700D03*
X0171050Y0370600D03*
X0171050Y0370500D03*
X0171050Y0370400D03*
X0171050Y0370300D03*
X0171050Y0370200D03*
X0171050Y0370100D03*
X0171050Y0370000D03*
X0171050Y0369900D03*
X0171050Y0369800D03*
X0171050Y0369700D03*
X0171050Y0369600D03*
X0171050Y0369500D03*
X0171050Y0369400D03*
X0171050Y0369300D03*
X0171050Y0369200D03*
X0171050Y0369100D03*
X0171050Y0369000D03*
X0171050Y0368900D03*
X0171050Y0368800D03*
X0171050Y0368700D03*
X0171050Y0368600D03*
X0175450Y0368600D03*
X0175450Y0368700D03*
X0175450Y0368800D03*
X0175450Y0368900D03*
X0175450Y0369000D03*
X0175450Y0369100D03*
X0175450Y0369200D03*
X0175450Y0369300D03*
X0175450Y0369400D03*
X0175450Y0369500D03*
X0175450Y0369600D03*
X0175450Y0369700D03*
X0175450Y0369800D03*
X0175450Y0369900D03*
X0175450Y0370000D03*
X0175450Y0370100D03*
X0175450Y0370200D03*
X0175450Y0370300D03*
X0175450Y0370400D03*
X0175450Y0370500D03*
X0175450Y0370600D03*
X0175450Y0370700D03*
X0175450Y0370800D03*
X0175450Y0370900D03*
X0175450Y0371000D03*
X0175450Y0371100D03*
X0175450Y0371200D03*
X0175450Y0371300D03*
X0175450Y0371400D03*
X0175450Y0371500D03*
X0175450Y0371600D03*
X0175450Y0371700D03*
X0175450Y0371800D03*
X0175450Y0371900D03*
X0175450Y0372000D03*
X0175450Y0372100D03*
X0175450Y0372200D03*
X0175450Y0372300D03*
X0175450Y0372400D03*
X0175450Y0372500D03*
X0175450Y0372600D03*
X0175450Y0372700D03*
X0175450Y0372800D03*
X0175450Y0368500D03*
X0175450Y0368400D03*
X0175450Y0368300D03*
X0175450Y0368200D03*
X0175450Y0368100D03*
X0175450Y0368000D03*
X0175450Y0367900D03*
X0175450Y0367800D03*
X0175450Y0367700D03*
X0175450Y0367600D03*
X0175450Y0367500D03*
X0175450Y0367400D03*
X0175450Y0367300D03*
X0175450Y0367200D03*
X0175450Y0367100D03*
X0171050Y0374500D03*
X0171050Y0374600D03*
X0171050Y0374700D03*
X0171050Y0374800D03*
X0171050Y0374900D03*
X0171050Y0375000D03*
X0171050Y0375100D03*
X0171050Y0375200D03*
X0171050Y0375300D03*
X0171050Y0375400D03*
X0171050Y0375500D03*
X0171050Y0375600D03*
X0171050Y0375700D03*
X0171050Y0375800D03*
X0184250Y0372800D03*
X0184250Y0372700D03*
X0184250Y0372600D03*
X0184250Y0372500D03*
X0184250Y0372400D03*
X0184250Y0372300D03*
X0184250Y0372200D03*
X0184250Y0372100D03*
X0184250Y0372000D03*
X0184250Y0371900D03*
X0184250Y0371800D03*
X0184250Y0371700D03*
X0184250Y0371600D03*
X0184250Y0371500D03*
X0184250Y0371400D03*
X0184250Y0371300D03*
X0184250Y0371200D03*
X0184250Y0371100D03*
X0184250Y0371000D03*
X0184250Y0370900D03*
X0184250Y0370800D03*
X0184250Y0370700D03*
X0184250Y0370600D03*
X0184250Y0370500D03*
X0184250Y0370400D03*
X0184250Y0370300D03*
X0184250Y0370200D03*
X0184250Y0370100D03*
X0184250Y0370000D03*
X0184250Y0369900D03*
X0184250Y0369800D03*
X0184250Y0369700D03*
X0184250Y0369600D03*
X0184250Y0369500D03*
X0184250Y0369400D03*
X0184250Y0369300D03*
X0184250Y0369200D03*
X0184250Y0369100D03*
X0184250Y0369000D03*
X0184250Y0368900D03*
X0184250Y0368800D03*
X0184250Y0368700D03*
X0184250Y0368600D03*
X0184250Y0368500D03*
X0184250Y0368400D03*
X0184250Y0368300D03*
X0184250Y0368200D03*
X0184250Y0368100D03*
X0184250Y0368000D03*
X0184250Y0367900D03*
X0184250Y0367800D03*
X0184250Y0367700D03*
X0184250Y0367600D03*
X0184250Y0367500D03*
X0184250Y0367400D03*
X0184250Y0367300D03*
X0184250Y0367200D03*
X0184250Y0367100D03*
X0187150Y0368600D03*
X0187150Y0368700D03*
X0187150Y0368800D03*
X0187150Y0368900D03*
X0187150Y0369000D03*
X0187150Y0369100D03*
X0187150Y0369200D03*
X0187150Y0369300D03*
X0187150Y0369400D03*
X0187150Y0369500D03*
X0187150Y0369600D03*
X0187150Y0369700D03*
X0187150Y0369800D03*
X0187150Y0369900D03*
X0187150Y0371600D03*
X0187150Y0371700D03*
X0187150Y0371800D03*
X0187150Y0371900D03*
X0187150Y0372000D03*
X0187150Y0372100D03*
X0187150Y0372200D03*
X0187150Y0372300D03*
X0187150Y0372400D03*
X0187150Y0372500D03*
X0187150Y0372600D03*
X0187150Y0372700D03*
X0187150Y0372800D03*
X0195950Y0369900D03*
X0195950Y0369800D03*
X0195950Y0369700D03*
X0195950Y0369600D03*
X0195950Y0369500D03*
X0195950Y0369400D03*
X0195950Y0369300D03*
X0195950Y0369200D03*
X0195950Y0369100D03*
X0195950Y0369000D03*
X0195950Y0368900D03*
X0195950Y0368800D03*
X0195950Y0368700D03*
X0195950Y0368600D03*
X0198850Y0368600D03*
X0198850Y0368700D03*
X0198850Y0368800D03*
X0198850Y0368900D03*
X0198850Y0369000D03*
X0198850Y0369100D03*
X0198850Y0369200D03*
X0198850Y0369300D03*
X0198850Y0369400D03*
X0198850Y0369500D03*
X0198850Y0369600D03*
X0198850Y0369700D03*
X0198850Y0369800D03*
X0198850Y0369900D03*
X0198850Y0370000D03*
X0198850Y0370100D03*
X0198850Y0370200D03*
X0198850Y0370300D03*
X0198850Y0370400D03*
X0198850Y0370500D03*
X0198850Y0370600D03*
X0198850Y0370700D03*
X0198850Y0370800D03*
X0198850Y0370900D03*
X0198850Y0371000D03*
X0198850Y0371100D03*
X0198850Y0371200D03*
X0198850Y0371300D03*
X0198850Y0371400D03*
X0198850Y0371500D03*
X0198850Y0371600D03*
X0198850Y0371700D03*
X0198850Y0371800D03*
X0198850Y0371900D03*
X0198850Y0372000D03*
X0198850Y0372100D03*
X0198850Y0372200D03*
X0198850Y0372300D03*
X0198850Y0372400D03*
X0198850Y0372500D03*
X0198850Y0372600D03*
X0198850Y0372700D03*
X0198850Y0372800D03*
X0198850Y0368500D03*
X0198850Y0368400D03*
X0198850Y0368300D03*
X0198850Y0368200D03*
X0198850Y0368100D03*
X0198850Y0368000D03*
X0198850Y0367900D03*
X0198850Y0367800D03*
X0198850Y0367700D03*
X0198850Y0367600D03*
X0198850Y0367500D03*
X0198850Y0367400D03*
X0198850Y0367300D03*
X0198850Y0367200D03*
X0198850Y0367100D03*
X0207650Y0367100D03*
X0207650Y0367200D03*
X0207650Y0367300D03*
X0207650Y0367400D03*
X0207650Y0367500D03*
X0207650Y0367600D03*
X0207650Y0367700D03*
X0207650Y0367800D03*
X0207650Y0367900D03*
X0207650Y0368000D03*
X0207650Y0368100D03*
X0207650Y0368200D03*
X0207650Y0368300D03*
X0207650Y0368400D03*
X0207650Y0368500D03*
X0207650Y0368600D03*
X0207650Y0368700D03*
X0207650Y0368800D03*
X0207650Y0368900D03*
X0207650Y0369000D03*
X0207650Y0369100D03*
X0207650Y0369200D03*
X0207650Y0369300D03*
X0207650Y0369400D03*
X0207650Y0369500D03*
X0207650Y0369600D03*
X0207650Y0369700D03*
X0207650Y0369800D03*
X0207650Y0369900D03*
X0207650Y0370000D03*
X0207650Y0370100D03*
X0207650Y0370200D03*
X0207650Y0370300D03*
X0207650Y0370400D03*
X0207650Y0370500D03*
X0207650Y0370600D03*
X0207650Y0370700D03*
X0207650Y0370800D03*
X0207650Y0370900D03*
X0207650Y0371000D03*
X0207650Y0371100D03*
X0207650Y0371200D03*
X0207650Y0371300D03*
X0207650Y0371400D03*
X0207650Y0371500D03*
X0207650Y0371600D03*
X0207650Y0371700D03*
X0207650Y0371800D03*
X0207650Y0371900D03*
X0207650Y0372000D03*
X0207650Y0372100D03*
X0207650Y0372200D03*
X0207650Y0372300D03*
X0207650Y0372400D03*
X0207650Y0372500D03*
X0207650Y0372600D03*
X0207650Y0372700D03*
X0207650Y0372800D03*
X0207650Y0374500D03*
X0207650Y0374600D03*
X0207650Y0374700D03*
X0207650Y0374800D03*
X0207650Y0374900D03*
X0207650Y0375000D03*
X0207650Y0375100D03*
X0207650Y0375200D03*
X0207650Y0375300D03*
X0207650Y0375400D03*
X0207650Y0375500D03*
X0207650Y0375600D03*
X0207650Y0375700D03*
X0207650Y0375800D03*
X0207650Y0375900D03*
X0207650Y0376000D03*
X0207650Y0376100D03*
X0207650Y0376200D03*
X0207650Y0376300D03*
X0207650Y0376400D03*
X0207650Y0376500D03*
X0207650Y0376600D03*
X0207650Y0376700D03*
X0207650Y0376800D03*
X0207650Y0376900D03*
X0207650Y0377000D03*
X0207650Y0377100D03*
X0207650Y0377200D03*
X0207650Y0377300D03*
X0210550Y0369900D03*
X0210550Y0369800D03*
X0210550Y0369700D03*
X0210550Y0369600D03*
X0210550Y0369500D03*
X0210550Y0369400D03*
X0210550Y0369300D03*
X0210550Y0369200D03*
X0210550Y0369100D03*
X0210550Y0369000D03*
X0210550Y0368900D03*
X0210550Y0368800D03*
X0210550Y0368700D03*
X0210550Y0368600D03*
X0219350Y0371600D03*
X0219350Y0371700D03*
X0219350Y0371800D03*
X0219350Y0371900D03*
X0219350Y0372000D03*
X0219350Y0372100D03*
X0219350Y0372200D03*
X0219350Y0372300D03*
X0219350Y0372400D03*
X0219350Y0372500D03*
X0219350Y0372600D03*
X0219350Y0372700D03*
X0219350Y0372800D03*
D51*
X0215650Y0374400D03*
X0190750Y0374300D03*
X0167450Y0367100D03*
X0158650Y0367100D03*
X0145450Y0374300D03*
X0137950Y0385400D03*
X0130150Y0382500D03*
X0129950Y0382400D03*
X0066050Y0367100D03*
X0030950Y0374300D03*
D52*
X0037800Y0367600D03*
X0115200Y0367400D03*
X0115500Y0367200D03*
X0115600Y0367100D03*
X0121900Y0370200D03*
X0121900Y0370300D03*
X0121900Y0370400D03*
X0121900Y0370500D03*
X0121900Y0370600D03*
X0119200Y0378300D03*
X0121600Y0383500D03*
X0115800Y0386500D03*
X0115500Y0386300D03*
X0115400Y0386200D03*
X0120500Y0388900D03*
X0124600Y0388900D03*
X0129600Y0386300D03*
X0129800Y0367300D03*
X0129700Y0367200D03*
X0129500Y0367100D03*
D53*
X0130150Y0374400D03*
X0134450Y0380200D03*
X0144750Y0372900D03*
X0157950Y0374400D03*
X0159350Y0368500D03*
X0168150Y0368500D03*
X0169650Y0372900D03*
X0169650Y0373000D03*
X0169650Y0373100D03*
X0169650Y0373200D03*
X0169650Y0373300D03*
X0169650Y0373400D03*
X0169650Y0373500D03*
X0169650Y0373600D03*
X0169650Y0373700D03*
X0169650Y0373800D03*
X0169650Y0373900D03*
X0169650Y0374000D03*
X0169650Y0374100D03*
X0169650Y0374200D03*
X0169650Y0374300D03*
X0169650Y0374400D03*
X0190050Y0372900D03*
X0216350Y0373000D03*
X0111750Y0379900D03*
X0111350Y0380400D03*
X0111250Y0380500D03*
X0108750Y0384700D03*
X0100350Y0374400D03*
X0100350Y0367100D03*
X0090150Y0367100D03*
X0090150Y0374400D03*
X0066750Y0368500D03*
X0056550Y0374300D03*
X0046250Y0374400D03*
X0046250Y0367100D03*
X0031650Y0372900D03*
D54*
X0030850Y0367200D03*
X0046250Y0367900D03*
X0046250Y0373600D03*
X0079050Y0374200D03*
X0090150Y0373600D03*
X0090150Y0367900D03*
X0132050Y0376800D03*
X0132250Y0377100D03*
X0132350Y0377200D03*
X0132450Y0377300D03*
X0132450Y0377400D03*
X0132550Y0377500D03*
X0132750Y0377800D03*
X0135650Y0384500D03*
X0145550Y0371300D03*
X0145550Y0367200D03*
X0157950Y0373600D03*
X0158550Y0370200D03*
X0180550Y0374300D03*
X0190850Y0371400D03*
X0190850Y0367200D03*
X0203950Y0374300D03*
X0215650Y0367200D03*
D55*
X0215700Y0374300D03*
X0190700Y0374200D03*
X0167500Y0367200D03*
X0158700Y0367200D03*
X0145400Y0374200D03*
X0135400Y0381300D03*
X0129400Y0373600D03*
X0118600Y0380700D03*
X0113000Y0378600D03*
X0109600Y0381900D03*
X0066100Y0367200D03*
X0031000Y0374200D03*
D56*
X0056600Y0374200D03*
X0068200Y0374200D03*
X0068200Y0374300D03*
X0068200Y0374400D03*
X0068200Y0374100D03*
X0068200Y0374000D03*
X0068200Y0373900D03*
X0068200Y0373800D03*
X0068200Y0373700D03*
X0068200Y0373600D03*
X0068200Y0373500D03*
X0068200Y0373400D03*
X0068200Y0373300D03*
X0068200Y0373200D03*
X0068200Y0373100D03*
X0068200Y0373000D03*
X0068200Y0372900D03*
X0100400Y0374300D03*
X0100400Y0367200D03*
X0111700Y0380000D03*
X0111600Y0380100D03*
X0111500Y0380200D03*
X0111400Y0380300D03*
X0118300Y0381400D03*
X0130200Y0374500D03*
X0134400Y0380100D03*
X0216400Y0372900D03*
D57*
X0157950Y0374300D03*
X0100450Y0374200D03*
X0100450Y0367300D03*
X0090150Y0367200D03*
X0090150Y0374300D03*
X0056650Y0374100D03*
X0046250Y0374300D03*
X0046250Y0367200D03*
D58*
X0037600Y0367200D03*
X0109100Y0385100D03*
X0118800Y0382800D03*
X0118800Y0382700D03*
X0118800Y0382600D03*
X0118800Y0382500D03*
X0121900Y0384000D03*
X0119400Y0377700D03*
X0121900Y0369500D03*
X0121900Y0369400D03*
X0121900Y0369300D03*
X0121900Y0369200D03*
X0121900Y0369100D03*
X0121900Y0369000D03*
X0121900Y0368900D03*
X0113900Y0368600D03*
X0113800Y0368700D03*
X0113700Y0368800D03*
X0113600Y0368900D03*
X0113500Y0369000D03*
X0131600Y0369000D03*
X0131700Y0369100D03*
X0124400Y0389000D03*
X0120700Y0389000D03*
D59*
X0145600Y0371200D03*
X0145600Y0367300D03*
X0158500Y0370300D03*
X0180500Y0374200D03*
X0190900Y0371300D03*
X0190900Y0367300D03*
X0203900Y0374200D03*
X0215600Y0367300D03*
X0079000Y0374100D03*
X0030800Y0367300D03*
D60*
X0031050Y0374100D03*
X0066150Y0367300D03*
X0109750Y0381800D03*
X0145350Y0374100D03*
X0158750Y0367300D03*
X0167550Y0367300D03*
X0190650Y0374100D03*
X0215750Y0374200D03*
D61*
X0130050Y0367500D03*
X0129950Y0367400D03*
X0128150Y0372500D03*
X0119250Y0378100D03*
X0119250Y0378200D03*
X0121650Y0383600D03*
X0115250Y0386100D03*
X0115150Y0386000D03*
X0129750Y0386200D03*
X0129850Y0386100D03*
X0130150Y0385900D03*
X0130250Y0385800D03*
X0115350Y0367300D03*
X0115050Y0367500D03*
X0114950Y0367600D03*
X0037750Y0367500D03*
D62*
X0046250Y0367300D03*
X0046250Y0374200D03*
X0056750Y0373900D03*
X0090150Y0374200D03*
X0090150Y0367300D03*
X0100550Y0367500D03*
X0100550Y0374000D03*
X0130450Y0374800D03*
X0134150Y0379800D03*
X0157950Y0374200D03*
D63*
X0157950Y0373500D03*
X0158450Y0370400D03*
X0145650Y0371100D03*
X0145650Y0367400D03*
X0135450Y0384400D03*
X0180450Y0374100D03*
X0190950Y0371200D03*
X0190950Y0367400D03*
X0203850Y0374100D03*
X0215550Y0367400D03*
X0090150Y0368000D03*
X0090150Y0373500D03*
X0078950Y0374000D03*
X0046250Y0373500D03*
X0046250Y0368000D03*
X0030750Y0367400D03*
D64*
X0031100Y0374000D03*
X0066200Y0367400D03*
X0112900Y0378700D03*
X0118600Y0380800D03*
X0130400Y0382600D03*
X0135200Y0381100D03*
X0135300Y0381200D03*
X0145300Y0374000D03*
X0158800Y0367400D03*
X0167600Y0367400D03*
X0190600Y0374000D03*
X0215800Y0374100D03*
D65*
X0136800Y0385000D03*
X0134300Y0380000D03*
X0134200Y0379900D03*
X0130400Y0374700D03*
X0130300Y0374600D03*
X0118200Y0381500D03*
X0100500Y0374100D03*
X0100500Y0367400D03*
X0056700Y0374000D03*
D66*
X0056850Y0373700D03*
X0046250Y0374100D03*
X0046250Y0367400D03*
X0090150Y0367400D03*
X0090150Y0374100D03*
X0100650Y0373800D03*
X0100650Y0367700D03*
X0118150Y0381600D03*
X0130550Y0374900D03*
X0130650Y0375000D03*
X0134050Y0379600D03*
X0136550Y0384900D03*
X0157950Y0374100D03*
D67*
X0158400Y0370500D03*
X0145700Y0371000D03*
X0145700Y0367500D03*
X0180400Y0374000D03*
X0191000Y0371100D03*
X0191000Y0367500D03*
X0203800Y0374000D03*
X0215500Y0367500D03*
X0078900Y0373900D03*
X0030700Y0367500D03*
D68*
X0031150Y0373900D03*
X0066250Y0367500D03*
X0109950Y0381700D03*
X0108850Y0384800D03*
X0130650Y0382700D03*
X0129450Y0373700D03*
X0145250Y0373900D03*
X0158850Y0367500D03*
X0167650Y0367500D03*
X0190550Y0373900D03*
X0215850Y0374000D03*
D69*
X0157950Y0374000D03*
X0133850Y0379400D03*
X0130850Y0375200D03*
X0100750Y0373600D03*
X0100750Y0367900D03*
X0090150Y0367500D03*
X0090150Y0374000D03*
X0056950Y0373500D03*
X0046250Y0374000D03*
X0046250Y0367500D03*
D70*
X0046250Y0368100D03*
X0046250Y0373400D03*
X0030650Y0367600D03*
X0078850Y0373800D03*
X0090150Y0373400D03*
X0090150Y0368100D03*
X0135250Y0384300D03*
X0145750Y0370900D03*
X0145750Y0367600D03*
X0158350Y0370600D03*
X0157950Y0373400D03*
X0180350Y0373900D03*
X0191050Y0371000D03*
X0191050Y0367600D03*
X0203750Y0373900D03*
X0215450Y0367600D03*
D71*
X0215900Y0373900D03*
X0190500Y0373800D03*
X0167700Y0367600D03*
X0158900Y0367600D03*
X0145200Y0373800D03*
X0135100Y0381000D03*
X0137600Y0385300D03*
X0129600Y0373800D03*
X0118500Y0380900D03*
X0112800Y0378800D03*
X0110000Y0381600D03*
X0066300Y0367600D03*
X0031200Y0373800D03*
D72*
X0056800Y0373800D03*
X0100600Y0373900D03*
X0100600Y0367600D03*
X0134100Y0379700D03*
D73*
X0133650Y0379100D03*
X0131050Y0375500D03*
X0130950Y0375400D03*
X0136250Y0384800D03*
X0157950Y0373900D03*
X0100850Y0373400D03*
X0100850Y0368100D03*
X0090150Y0367600D03*
X0090150Y0373900D03*
X0057050Y0373300D03*
X0046250Y0373900D03*
X0046250Y0367600D03*
D74*
X0030600Y0367700D03*
X0078800Y0373700D03*
X0145800Y0370800D03*
X0145800Y0367700D03*
X0158300Y0370700D03*
X0180300Y0373800D03*
X0191100Y0370900D03*
X0191100Y0367700D03*
X0203700Y0373800D03*
X0215400Y0367700D03*
D75*
X0215950Y0373800D03*
X0190450Y0373700D03*
X0167750Y0367700D03*
X0158950Y0367700D03*
X0145150Y0373700D03*
X0135050Y0380900D03*
X0130850Y0382800D03*
X0129650Y0373900D03*
X0110150Y0381500D03*
X0066350Y0367700D03*
X0031250Y0373700D03*
D76*
X0046250Y0373800D03*
X0046250Y0367700D03*
X0057150Y0373100D03*
X0090150Y0373800D03*
X0090150Y0367700D03*
X0100950Y0368300D03*
X0100950Y0373200D03*
X0131250Y0375800D03*
X0131350Y0375900D03*
X0131450Y0376000D03*
X0133350Y0378700D03*
X0133450Y0378800D03*
X0136050Y0384700D03*
X0157950Y0373800D03*
D77*
X0157950Y0373300D03*
X0158250Y0370800D03*
X0145850Y0370700D03*
X0145850Y0367800D03*
X0135150Y0384200D03*
X0108550Y0384400D03*
X0090150Y0373300D03*
X0090150Y0368200D03*
X0078750Y0373600D03*
X0046250Y0373300D03*
X0046250Y0368200D03*
X0030550Y0367800D03*
X0180250Y0373700D03*
X0191150Y0370800D03*
X0191150Y0367800D03*
X0203650Y0373700D03*
X0215350Y0367800D03*
D78*
X0216000Y0373700D03*
X0190400Y0373600D03*
X0167800Y0367800D03*
X0159000Y0367800D03*
X0145100Y0373600D03*
X0118500Y0381000D03*
X0112700Y0378900D03*
X0112600Y0379000D03*
X0110300Y0381400D03*
X0066400Y0367800D03*
X0031300Y0373600D03*
D79*
X0056900Y0373600D03*
X0100700Y0373700D03*
X0100700Y0367800D03*
X0118100Y0381700D03*
X0108700Y0384600D03*
X0130700Y0375100D03*
X0133900Y0379500D03*
D80*
X0133050Y0378200D03*
X0131750Y0376400D03*
X0131650Y0376300D03*
X0135850Y0384600D03*
X0145450Y0371500D03*
X0157950Y0373700D03*
X0158650Y0370000D03*
X0101050Y0368500D03*
X0101050Y0373000D03*
X0090150Y0373700D03*
X0090150Y0367800D03*
X0079150Y0374400D03*
X0057250Y0372900D03*
X0046250Y0373700D03*
X0046250Y0367800D03*
X0030950Y0371500D03*
X0030850Y0371400D03*
X0030750Y0371300D03*
X0030650Y0371200D03*
X0030550Y0371100D03*
X0030450Y0371000D03*
X0030350Y0370900D03*
X0030250Y0370800D03*
X0030150Y0370700D03*
X0030050Y0370600D03*
X0029950Y0370500D03*
X0029850Y0370400D03*
X0029750Y0370300D03*
X0029650Y0370200D03*
X0029550Y0370100D03*
X0029450Y0370000D03*
D81*
X0030500Y0367900D03*
X0078700Y0373500D03*
X0145900Y0370600D03*
X0145900Y0367900D03*
X0158200Y0370900D03*
X0180200Y0373600D03*
X0191200Y0370700D03*
X0191200Y0367900D03*
X0203600Y0373600D03*
X0215300Y0367900D03*
D82*
X0216050Y0373600D03*
X0190350Y0373500D03*
X0167850Y0367900D03*
X0159050Y0367900D03*
X0145050Y0373500D03*
X0134950Y0380800D03*
X0134850Y0380700D03*
X0131150Y0382900D03*
X0129750Y0374000D03*
X0110350Y0381300D03*
X0066450Y0367900D03*
X0031350Y0373500D03*
D83*
X0030450Y0368000D03*
X0046250Y0368300D03*
X0046250Y0373200D03*
X0078650Y0373400D03*
X0090150Y0373200D03*
X0090150Y0368300D03*
X0108750Y0384300D03*
X0108950Y0384200D03*
X0134950Y0384100D03*
X0145950Y0370500D03*
X0145950Y0368000D03*
X0158150Y0371000D03*
X0157950Y0373200D03*
X0180150Y0373500D03*
X0191250Y0370600D03*
X0191250Y0368000D03*
X0203550Y0373500D03*
X0215250Y0368000D03*
D84*
X0216100Y0373500D03*
X0190300Y0373400D03*
X0167900Y0368000D03*
X0159100Y0368000D03*
X0145000Y0373400D03*
X0137300Y0385200D03*
X0118400Y0381100D03*
X0112500Y0379100D03*
X0110500Y0381200D03*
X0066500Y0368000D03*
X0031400Y0373400D03*
D85*
X0057000Y0373400D03*
X0100800Y0373500D03*
X0100800Y0368000D03*
X0130900Y0375300D03*
X0133700Y0379200D03*
X0133800Y0379300D03*
D86*
X0134800Y0384000D03*
X0146000Y0370400D03*
X0146000Y0368100D03*
X0158100Y0371100D03*
X0180100Y0373400D03*
X0191300Y0370500D03*
X0191300Y0368100D03*
X0203500Y0373400D03*
X0215200Y0368100D03*
X0078600Y0373300D03*
X0030400Y0368100D03*
D87*
X0031450Y0373300D03*
X0066550Y0368100D03*
X0112350Y0379300D03*
X0112450Y0379200D03*
X0129850Y0374100D03*
X0134750Y0380600D03*
X0144950Y0373300D03*
X0159150Y0368100D03*
X0167950Y0368100D03*
X0190250Y0373300D03*
X0216150Y0373400D03*
D88*
X0215150Y0368200D03*
X0203450Y0373300D03*
X0191350Y0370400D03*
X0191350Y0368200D03*
X0180050Y0373300D03*
X0158050Y0371200D03*
X0157950Y0373100D03*
X0146050Y0370300D03*
X0146050Y0368200D03*
X0109150Y0384100D03*
X0090150Y0373100D03*
X0090150Y0368400D03*
X0078550Y0373200D03*
X0046250Y0373100D03*
X0046250Y0368400D03*
X0030350Y0368200D03*
D89*
X0031500Y0373200D03*
X0066600Y0368200D03*
X0110600Y0381100D03*
X0110700Y0381000D03*
X0110800Y0380900D03*
X0118400Y0381200D03*
X0134700Y0380500D03*
X0144900Y0373200D03*
X0159200Y0368200D03*
X0168000Y0368200D03*
X0190200Y0373200D03*
X0216200Y0373300D03*
D90*
X0133600Y0379000D03*
X0133500Y0378900D03*
X0131200Y0375700D03*
X0131100Y0375600D03*
X0100900Y0373300D03*
X0100900Y0368200D03*
X0057100Y0373200D03*
D91*
X0078500Y0373100D03*
X0109300Y0384000D03*
X0109500Y0383900D03*
X0146100Y0370200D03*
X0146100Y0368300D03*
X0158000Y0371300D03*
X0180000Y0373200D03*
X0191400Y0370300D03*
X0191400Y0368300D03*
X0203400Y0373200D03*
X0215100Y0368300D03*
X0030300Y0368300D03*
D92*
X0031550Y0373100D03*
X0066650Y0368300D03*
X0112150Y0379500D03*
X0112250Y0379400D03*
X0129950Y0374200D03*
X0144850Y0373100D03*
X0159250Y0368300D03*
X0168050Y0368300D03*
X0190150Y0373100D03*
X0216250Y0373200D03*
D93*
X0215050Y0368400D03*
X0203350Y0373100D03*
X0191450Y0370200D03*
X0191450Y0368400D03*
X0179950Y0373100D03*
X0157950Y0373000D03*
X0157950Y0371400D03*
X0146150Y0370100D03*
X0146150Y0368400D03*
X0134650Y0383900D03*
X0110350Y0383400D03*
X0110150Y0383500D03*
X0110050Y0383600D03*
X0109850Y0383700D03*
X0109650Y0383800D03*
X0090150Y0373000D03*
X0090150Y0368500D03*
X0078450Y0373000D03*
X0046250Y0373000D03*
X0046250Y0368500D03*
X0030250Y0368400D03*
D94*
X0031600Y0373000D03*
X0056500Y0374400D03*
X0066700Y0368400D03*
X0110900Y0380800D03*
X0111000Y0380700D03*
X0111100Y0380600D03*
X0111900Y0379800D03*
X0112000Y0379700D03*
X0112100Y0379600D03*
X0118300Y0381300D03*
X0130000Y0374300D03*
X0134500Y0380300D03*
X0134600Y0380400D03*
X0131500Y0383000D03*
X0137000Y0385100D03*
X0144800Y0373000D03*
X0159300Y0368400D03*
X0168100Y0368400D03*
X0190100Y0373000D03*
X0216300Y0373100D03*
D95*
X0133300Y0378600D03*
X0133200Y0378500D03*
X0133200Y0378400D03*
X0133100Y0378300D03*
X0131600Y0376200D03*
X0131500Y0376100D03*
X0101000Y0373100D03*
X0101000Y0368400D03*
X0057200Y0373000D03*
D96*
X0046300Y0372900D03*
X0030200Y0368500D03*
X0078400Y0372900D03*
X0090100Y0372900D03*
X0134500Y0383800D03*
X0146200Y0370000D03*
X0146200Y0368500D03*
X0157900Y0371500D03*
X0157900Y0372900D03*
X0179900Y0373000D03*
X0191500Y0370100D03*
X0191500Y0368500D03*
X0203300Y0373000D03*
X0215000Y0368500D03*
D97*
X0203250Y0372900D03*
X0191550Y0370000D03*
X0179850Y0372900D03*
X0134350Y0383700D03*
D98*
X0136450Y0382300D03*
X0136550Y0382400D03*
X0127350Y0380600D03*
X0127250Y0380500D03*
X0127150Y0380400D03*
X0128750Y0373000D03*
X0114250Y0382700D03*
X0108150Y0382900D03*
D99*
X0108500Y0382700D03*
X0113500Y0378100D03*
X0118800Y0380100D03*
X0127800Y0381000D03*
X0128900Y0373100D03*
X0138700Y0385600D03*
D100*
X0136050Y0381900D03*
X0128650Y0381600D03*
X0128950Y0373200D03*
X0113350Y0383100D03*
X0108750Y0382500D03*
D101*
X0109050Y0382300D03*
X0113450Y0378200D03*
X0128950Y0381800D03*
X0129050Y0373300D03*
X0138350Y0385500D03*
D102*
X0135700Y0381600D03*
X0129600Y0382200D03*
X0129200Y0373400D03*
X0118700Y0380500D03*
X0113200Y0378400D03*
D103*
X0114450Y0385000D03*
X0118850Y0384100D03*
X0118850Y0384000D03*
X0134250Y0373500D03*
D104*
X0129300Y0373500D03*
X0129800Y0382300D03*
X0135500Y0381400D03*
X0145500Y0374400D03*
X0118600Y0380600D03*
X0113100Y0378500D03*
X0109500Y0382000D03*
X0030900Y0374400D03*
X0190800Y0374400D03*
D105*
X0134800Y0374100D03*
X0122700Y0385000D03*
X0119000Y0384500D03*
X0110100Y0377600D03*
D106*
X0113300Y0378300D03*
X0113100Y0383200D03*
X0118700Y0380400D03*
X0129100Y0381900D03*
X0135800Y0381700D03*
D107*
X0137000Y0382800D03*
X0126100Y0379400D03*
X0126000Y0379300D03*
X0115300Y0382100D03*
X0118900Y0387900D03*
X0119500Y0388200D03*
X0125600Y0388200D03*
X0107500Y0383300D03*
D108*
X0114800Y0382400D03*
X0120100Y0382000D03*
X0126400Y0379700D03*
X0126500Y0379800D03*
X0126600Y0379900D03*
X0126700Y0380000D03*
X0125700Y0388100D03*
X0119400Y0388100D03*
X0136800Y0382600D03*
D109*
X0127600Y0380800D03*
X0127500Y0380700D03*
X0118800Y0380000D03*
X0114100Y0382800D03*
X0108300Y0382800D03*
D110*
X0118800Y0380200D03*
X0128200Y0381300D03*
X0128500Y0381500D03*
X0136100Y0382000D03*
D111*
X0135900Y0381800D03*
X0128800Y0381700D03*
X0118700Y0380300D03*
X0108900Y0382400D03*
X0108900Y0384900D03*
D112*
X0113850Y0382900D03*
X0127650Y0380900D03*
X0136350Y0382200D03*
D113*
X0136250Y0382100D03*
X0128350Y0381400D03*
X0128050Y0381200D03*
X0127950Y0381100D03*
X0113650Y0383000D03*
X0108650Y0382600D03*
D114*
X0109350Y0382100D03*
X0112750Y0383300D03*
X0135650Y0381500D03*
D115*
X0129450Y0382100D03*
X0129250Y0382000D03*
X0109250Y0382200D03*
D116*
X0133600Y0383100D03*
D117*
X0133750Y0383200D03*
D118*
X0133800Y0383300D03*
D119*
X0133950Y0383400D03*
D120*
X0134100Y0383500D03*
D121*
X0134200Y0383600D03*
D122*
X0123800Y0389200D03*
X0121300Y0389200D03*
X0118900Y0384300D03*
X0114500Y0384900D03*
M02*
