%
M48
M72
T01C0.01575
T02C0.02756
T03C0.03200
T04C0.03600
T05C0.04000
T06C0.05000
T07C0.05512
T08C0.09000
T09C0.12598
%
T01
X171500Y291000
X171500Y275000
X180500Y291000
X180500Y275000
X131500Y278500
X189500Y275000
X131500Y284500
X198500Y275000
X131500Y289500
X207500Y275000
X131500Y295500
X216500Y275000
X276500Y186500
X282500Y165500
X277500Y194500
X279500Y204500
X287500Y194500
X288500Y170500
X273500Y213500
X300500Y251500
X273500Y218500
X273500Y223500
X273500Y228500
X285500Y249500
X301500Y37000
X278500Y297500
X267500Y19500
X181500Y160500
X132500Y160500
X195500Y57500
X195500Y87500
X283500Y297500
X267500Y25500
X182500Y185500
X134500Y180500
X120500Y264500
X134500Y262500
X200500Y57500
X195500Y92500
X305000Y303000
X267500Y31500
X185500Y223500
X186500Y262500
X205500Y57500
X195500Y97500
X243500Y254500
X332000Y26000
X316000Y40500
X346500Y47500
X227500Y61500
X227500Y56500
X368500Y317500
X361500Y52500
X289000Y20500
X368500Y331000
X379500Y46500
X299500Y11500
X348500Y323000
X339500Y46000
X369051Y322949
X363500Y28500
X369000Y47000
X317500Y11500
X364500Y314500
X352500Y43500
X348500Y25500
X276500Y101500
X275500Y80500
X274500Y107500
X281500Y111500
X293500Y95500
X299500Y80500
X273500Y120500
X298500Y158500
X273500Y125500
X273500Y130500
X273500Y135500
X282500Y156500
X375500Y288500
X292500Y279500
X273500Y141500
X379500Y268500
X370500Y288500
X298500Y279500
X380500Y288500
X291500Y272500
X273500Y234500
X387500Y268500
X379500Y274500
X285500Y272500
X311000Y362500
X366500Y340500
X28500Y364000
X28500Y336500
X350500Y331000
X99000Y313500
X150500Y316500
X192500Y318500
X343500Y323000
X155500Y318500
X184500Y318500
X78000Y306500
X342000Y330000
X62500Y318500
X329500Y329500
X131500Y272500
X161500Y318500
X174500Y318500
X321500Y326500
X162500Y329500
X51500Y279500
X321500Y321500
X132500Y303000
X321500Y316500
X158500Y304500
X321500Y311500
X383500Y39500
X309000Y21000
X364000Y47000
X323000Y21000
X387500Y45500
X295000Y20500
X52500Y316500
X13500Y313500
X148500Y351500
X211500Y173500
X261500Y249500
X188500Y172500
X187500Y153500
X260500Y363000
X234500Y362500
X62500Y278500
X83500Y341500
X162500Y380500
X373000Y336500
X291000Y337500
X307000Y358500
X208500Y229500
X253500Y231500
X289500Y101500
X230500Y31500
X229500Y323500
X218000Y104500
X218000Y73500
X345000Y283500
X327000Y381500
X86500Y318000
X120500Y345500
X33000Y294500
X240000Y383000
X293500Y121500
X385500Y72000
X267500Y41500
X7500Y279500
X352500Y184500
X354500Y87500
X234500Y97500
X38500Y7500
X211500Y191500
X316500Y173500
X307500Y247500
X352500Y240500
X223500Y42500
X174500Y353500
X6500Y365500
X275500Y380500
X363000Y283500
X327000Y283500
X212500Y164500
X292500Y214500
X291500Y80500
X257500Y123500
X265500Y170500
X217500Y202500
X280000Y265500
X245000Y279500
X262500Y297500
X269500Y253500
X241500Y211500
X243500Y191500
X237000Y269500
X218500Y298500
X252500Y274500
X100500Y388500
X56500Y300500
X115500Y297500
X99500Y307000
X77500Y278500
X26500Y269500
X43500Y21500
X66500Y21500
X89500Y21500
X112500Y21500
X135500Y21500
X78500Y290500
X295500Y40500
X252500Y140500
X252500Y150500
X236500Y186500
X246500Y140500
X246500Y150500
X230500Y167500
X231500Y296500
X232500Y277500
X258500Y150500
X274500Y90500
X241500Y167500
X266500Y157500
X253500Y84500
X241500Y176500
X236500Y294500
X236500Y274500
T02
X335000Y283500
X355000Y283500
T03
X40500Y309500
X40500Y299500
X70500Y299500
X70500Y309500
X40500Y289500
X40500Y279500
X70500Y289500
X70500Y279500
T04
X240579Y333700
X250421Y333700
X250421Y341500
X240579Y341500
T05
X219500Y152500
X229500Y152500
X219500Y142500
X229500Y142500
X219500Y132500
X229500Y132500
X13500Y259500
X23500Y259500
X13500Y249500
X23500Y249500
X13500Y239500
X23500Y239500
X13500Y229500
X23500Y229500
X13500Y219500
X23500Y219500
X13500Y209500
X23500Y209500
X13500Y199500
X23500Y199500
X13500Y189500
X23500Y189500
X58500Y259500
X68500Y259500
X58500Y249500
X68500Y249500
X58500Y239500
X68500Y239500
X58500Y229500
X68500Y229500
X58500Y219500
X68500Y219500
X58500Y209500
X68500Y209500
X58500Y199500
X68500Y199500
X58500Y189500
X68500Y189500
X103500Y259500
X113500Y259500
X103500Y249500
X113500Y249500
X103500Y239500
X113500Y239500
X103500Y229500
X113500Y229500
X103500Y219500
X113500Y219500
X103500Y209500
X113500Y209500
X103500Y199500
X113500Y199500
X103500Y189500
X113500Y189500
X148500Y259500
X158500Y259500
X148500Y249500
X158500Y249500
X148500Y239500
X158500Y239500
X148500Y229500
X158500Y229500
X148500Y219500
X158500Y219500
X148500Y209500
X158500Y209500
X148500Y199500
X158500Y199500
X148500Y189500
X158500Y189500
X13500Y173500
X23500Y173500
X13500Y163500
X23500Y163500
X13500Y153500
X23500Y153500
X13500Y143500
X23500Y143500
X13500Y133500
X23500Y133500
X13500Y123500
X23500Y123500
X13500Y113500
X23500Y113500
X13500Y103500
X23500Y103500
X58500Y173500
X68500Y173500
X58500Y163500
X68500Y163500
X58500Y153500
X68500Y153500
X58500Y143500
X68500Y143500
X58500Y133500
X68500Y133500
X58500Y123500
X68500Y123500
X58500Y113500
X68500Y113500
X58500Y103500
X68500Y103500
X103500Y173500
X113500Y173500
X103500Y163500
X113500Y163500
X103500Y153500
X113500Y153500
X103500Y143500
X113500Y143500
X103500Y133500
X113500Y133500
X103500Y123500
X113500Y123500
X103500Y113500
X113500Y113500
X103500Y103500
X113500Y103500
X148500Y173500
X158500Y173500
X148500Y163500
X158500Y163500
X148500Y153500
X158500Y153500
X148500Y143500
X158500Y143500
X148500Y133500
X158500Y133500
X148500Y123500
X158500Y123500
X148500Y113500
X158500Y113500
X148500Y103500
X158500Y103500
X325500Y249500
X335500Y249500
X325500Y239500
X335500Y239500
X325500Y229500
X335500Y229500
X325500Y219500
X335500Y219500
X325500Y209500
X335500Y209500
X325500Y199500
X335500Y199500
X325500Y189500
X335500Y189500
X325500Y179500
X335500Y179500
X367500Y249500
X377500Y249500
X367500Y239500
X377500Y239500
X367500Y229500
X377500Y229500
X367500Y219500
X377500Y219500
X367500Y209500
X377500Y209500
X367500Y199500
X377500Y199500
X367500Y189500
X377500Y189500
X367500Y179500
X377500Y179500
X325500Y156500
X335500Y156500
X325500Y146500
X335500Y146500
X325500Y136500
X335500Y136500
X325500Y126500
X335500Y126500
X325500Y116500
X335500Y116500
X325500Y106500
X335500Y106500
X325500Y96500
X335500Y96500
X325500Y86500
X335500Y86500
X367500Y156500
X377500Y156500
X367500Y146500
X377500Y146500
X367500Y136500
X377500Y136500
X367500Y126500
X377500Y126500
X367500Y116500
X377500Y116500
X367500Y106500
X377500Y106500
X367500Y96500
X377500Y96500
X367500Y86500
X377500Y86500
X13500Y86500
X23500Y86500
X13500Y76500
X23500Y76500
X13500Y66500
X23500Y66500
X13500Y56500
X23500Y56500
X13500Y46500
X23500Y46500
X13500Y36500
X23500Y36500
X36500Y86500
X46500Y86500
X36500Y76500
X46500Y76500
X36500Y66500
X46500Y66500
X36500Y56500
X46500Y56500
X36500Y46500
X46500Y46500
X36500Y36500
X46500Y36500
X59500Y86500
X69500Y86500
X59500Y76500
X69500Y76500
X59500Y66500
X69500Y66500
X59500Y56500
X69500Y56500
X59500Y46500
X69500Y46500
X59500Y36500
X69500Y36500
X82500Y86500
X92500Y86500
X82500Y76500
X92500Y76500
X82500Y66500
X92500Y66500
X82500Y56500
X92500Y56500
X82500Y46500
X92500Y46500
X82500Y36500
X92500Y36500
X105500Y86500
X115500Y86500
X105500Y76500
X115500Y76500
X105500Y66500
X115500Y66500
X105500Y56500
X115500Y56500
X105500Y46500
X115500Y46500
X105500Y36500
X115500Y36500
X128500Y86500
X138500Y86500
X128500Y76500
X138500Y76500
X128500Y66500
X138500Y66500
X128500Y56500
X138500Y56500
X128500Y46500
X138500Y46500
X128500Y36500
X138500Y36500
X151500Y86500
X161500Y86500
X151500Y76500
X161500Y76500
X151500Y66500
X161500Y66500
X151500Y56500
X161500Y56500
X151500Y46500
X161500Y46500
X151500Y36500
X161500Y36500
X174500Y86500
X184500Y86500
X174500Y76500
X184500Y76500
X174500Y66500
X184500Y66500
X174500Y56500
X184500Y56500
X174500Y46500
X184500Y46500
X174500Y36500
X184500Y36500
X8500Y296500
X8500Y306500
T06
X184635Y382027
X145235Y382027
X154835Y382027
X174935Y382027
X93135Y382027
X53735Y382027
X63335Y382027
X83435Y382027
T07
X164989Y342187
X135540Y342227
X194635Y342227
X184635Y332306
X145265Y332266
X73489Y342187
X44040Y342227
X103135Y342227
X93135Y332306
X53765Y332266
T08
X221800Y352200
X269200Y352200
T09
X15500Y380500
X380500Y380500
X380500Y15500
X15500Y15500
M30
