<?xml version="1.0" encoding="UTF-8"?>
<!DOCTYPE svg PUBLIC "-//W3C//DTD SVG 1.1//EN" "http://www.w3.org/Graphics/SVG/1.1/DTD/svg11.dtd">
<!-- Creator: CorelDRAW X7 -->
<svg xmlns="http://www.w3.org/2000/svg" xml:space="preserve" width="0.694441in" height="0.694441in" version="1.1" style="shape-rendering:geometricPrecision; text-rendering:geometricPrecision; image-rendering:optimizeQuality; fill-rule:evenodd; clip-rule:evenodd"
viewBox="0 0 694 694"
 xmlns:xlink="http://www.w3.org/1999/xlink">
 <defs>
  <style type="text/css">
   <![CDATA[
    .fil0 {fill:#A2A1A1}
   ]]>
  </style>
 </defs>
 <g id="Layer_x0020_1">
  <metadata id="CorelCorpID_0Corel-Layer"/>
  <path class="fil0" d="M587 600c68,-66 108,-158 108,-253 0,-192 -155,-347 -348,-347 -191,0 -346,155 -346,347 0,97 38,187 109,253l12 -15 12 -12c-63,-60 -98,-141 -98,-226 0,-172 139,-312 311,-312 173,0 312,139 312,312 0,85 -35,166 -96,226l24 27z"/>
  <path class="fil0" d="M319 175l0 94c0,14 11,27 27,28 0,0 1,0 1,0l0 0 1 0 0 0c15,0 28,-13 28,-28l0 -94 5 1c80,16 137,86 137,168 0,94 -77,170 -171,170 -94,0 -171,-76 -171,-170 0,-82 58,-152 137,-168l6 -1 0 0zm29 -44l-2 0c-117,0 -211,96 -211,213 0,117 94,212 212,212 118,0 212,-94 212,-212 0,-117 -94,-213 -211,-213z"/>
 </g>
</svg>
