<?xml version="1.0" encoding="UTF-8"?>
<!DOCTYPE svg PUBLIC "-//W3C//DTD SVG 1.1//EN" "http://www.w3.org/Graphics/SVG/1.1/DTD/svg11.dtd">
<!-- Creator: CorelDRAW X7 -->
<svg xmlns="http://www.w3.org/2000/svg" xml:space="preserve" width="0.694441in" height="0.694441in" version="1.1" style="shape-rendering:geometricPrecision; text-rendering:geometricPrecision; image-rendering:optimizeQuality; fill-rule:evenodd; clip-rule:evenodd"
viewBox="0 0 694 694"
 xmlns:xlink="http://www.w3.org/1999/xlink">
 <defs>
  <style type="text/css">
   <![CDATA[
    .fil0 {fill:#056AEE}
   ]]>
  </style>
 </defs>
 <g id="Layer_x0020_1">
  <metadata id="CorelCorpID_0Corel-Layer"/>
  <path class="fil0" d="M393 138l0 144c0,26 -20,45 -46,45 -25,0 -45,-20 -45,-45l0 -144c-97,20 -167,106 -167,206 0,118 94,212 212,212 118,0 212,-93 212,-212 0,-100 -70,-186 -166,-206z"/>
  <path class="fil0" d="M587 602c68,-66 108,-156 108,-253 0,-192 -155,-347 -348,-347 -191,0 -347,155 -347,347 0,97 40,187 110,253l12 -15 12 -12c-62,-59 -98,-140 -98,-226 0,-172 139,-311 311,-311 173,0 312,139 312,311 0,86 -35,167 -96,226l24 27z"/>
 </g>
</svg>
