<?xml version="1.0" encoding="UTF-8"?>
<!DOCTYPE svg PUBLIC "-//W3C//DTD SVG 1.1//EN" "http://www.w3.org/Graphics/SVG/1.1/DTD/svg11.dtd">
<!-- Creator: CorelDRAW X7 -->
<svg xmlns="http://www.w3.org/2000/svg" xml:space="preserve" width="0.694441in" height="0.694441in" version="1.1" style="shape-rendering:geometricPrecision; text-rendering:geometricPrecision; image-rendering:optimizeQuality; fill-rule:evenodd; clip-rule:evenodd"
viewBox="0 0 694 694"
 xmlns:xlink="http://www.w3.org/1999/xlink">
 <defs>
  <style type="text/css">
   <![CDATA[
    .fil0 {fill:#056AEE}
   ]]>
  </style>
 </defs>
 <g id="Layer_x0020_1">
  <metadata id="CorelCorpID_0Corel-Layer"/>
  <path class="fil0" d="M145 102l30 30c12,12 12,31 0,43l0 0c-12,12 -31,12 -43,0l-30 -30c-12,-12 -12,-31 0,-43l0 0c12,-12 31,-12 43,0z"/>
  <path class="fil0" d="M562 519l31 31c12,11 12,31 0,43l0 0c-12,12 -32,12 -43,0l-31 -31c-12,-12 -12,-31 0,-43l0 0c12,-12 31,-12 43,0z"/>
  <path class="fil0" d="M317 664l0 -43c0,-17 13,-31 30,-31l0 0c17,0 31,14 31,31l0 43c0,17 -14,30 -31,30l0 0c-17,0 -30,-13 -30,-30z"/>
  <path class="fil0" d="M317 74l0 -44c0,-16 13,-30 30,-30l0 0c17,0 31,14 31,30l0 44c0,16 -14,30 -31,30l0 0c-17,0 -30,-14 -30,-30z"/>
  <path class="fil0" d="M102 550l30 -31c12,-12 31,-12 43,0l0 0c12,12 12,31 0,43l-30 31c-12,12 -31,12 -43,0l0 0c-12,-12 -12,-32 0,-43z"/>
  <path class="fil0" d="M519 132l31 -30c11,-12 31,-12 43,0l0 0c12,12 12,31 0,43l-31 30c-12,12 -31,12 -43,0l0 0c-12,-12 -12,-31 0,-43z"/>
  <path class="fil0" d="M30 317l44 0c16,0 30,13 30,30l0 0c0,17 -14,31 -30,31l-44 0c-16,0 -30,-14 -30,-31l0 0c0,-17 14,-30 30,-30z"/>
  <path class="fil0" d="M621 317l43 0c17,0 30,13 30,30l0 0c0,17 -13,31 -30,31l-43 0c-17,0 -31,-14 -31,-31l0 0c0,-17 14,-30 31,-30z"/>
  <path class="fil0" d="M348 146c113,0 204,91 204,204 0,113 -91,204 -204,204 -113,0 -204,-91 -204,-204 0,-113 91,-204 204,-204z"/>
 </g>
</svg>
