<?xml version="1.0" encoding="UTF-8"?>
<!DOCTYPE svg PUBLIC "-//W3C//DTD SVG 1.1//EN" "http://www.w3.org/Graphics/SVG/1.1/DTD/svg11.dtd">
<!-- Creator: CorelDRAW X7 -->
<svg xmlns="http://www.w3.org/2000/svg" xml:space="preserve" width="100%" height="100%" version="1.1" style="shape-rendering:geometricPrecision; text-rendering:geometricPrecision; image-rendering:optimizeQuality; fill-rule:evenodd; clip-rule:evenodd"
viewBox="0 0 3171 2392"
 xmlns:xlink="http://www.w3.org/1999/xlink">
 <defs>
  <style type="text/css">
   <![CDATA[
    .fil0 {fill:#2B2A29;fill-rule:nonzero}
   ]]>
  </style>
 </defs>
 <g id="Print">
  <metadata id="CorelCorpID_0Corel-Layer"/>
  <g id="_3265913662048">
   <path class="fil0" d="M2314 430c0,0 0,0 0,0 -116,49 -225,121 -336,215 -10,-121 1,-183 -93,-249l-55 182c-63,-80 -147,-181 -257,-221 4,476 291,411 191,708 -29,85 -41,171 -64,264 -171,-496 -406,-777 -823,-921 -16,-5 -32,-11 -48,-16 -2,0 -4,-1 -6,-2 -16,-4 -32,-9 -49,-14 -211,-58 -465,-87 -774,-96 4,7 10,8 13,19l108 125c165,210 112,336 216,524 44,79 113,158 196,227 35,30 74,58 114,84 90,58 190,104 291,132 78,21 139,30 186,30 281,0 74,-328 -36,-466 -199,-251 -449,-332 -602,-440 510,61 1085,637 1095,1281 1,79 -31,487 -44,596l93 -64c39,-360 101,-1025 279,-1338 103,-181 480,-479 811,-501 -83,57 -603,193 -583,444 61,34 129,48 198,48 70,0 141,-15 207,-38 15,-5 31,-11 46,-17 0,0 1,-1 2,-1 15,-6 29,-13 44,-20 55,-27 104,-58 141,-89 99,-81 101,-110 177,-226 77,-119 129,-104 219,-182 -165,-39 -310,-59 -442,-59 -114,0 -218,16 -316,45 0,0 0,0 0,1 -34,10 -67,22 -99,35z"/>
   <path class="fil0" d="M2588 926c-15,6 -31,12 -46,17 15,-5 31,-11 46,-17z"/>
   <path class="fil0" d="M2546 1056c0,477 -349,873 -805,948 -4,35 -8,69 -12,102 517,-70 916,-514 916,-1050 0,-25 0,-49 -2,-73 -31,14 -64,27 -98,37 1,12 1,24 1,36z"/>
   <path class="fil0" d="M2634 905c-15,7 -29,14 -44,20 15,-6 29,-13 44,-20z"/>
   <path class="fil0" d="M1576 2016c-1,0 -1,0 -2,0 -2,32 -4,65 -7,99 1,0 2,0 3,0 2,-33 4,-67 6,-99z"/>
   <path class="fil0" d="M533 1175c35,30 74,58 114,84 -40,-26 -79,-54 -114,-84z"/>
   <path class="fil0" d="M676 1362c-44,-24 -86,-50 -125,-79 97,446 477,788 942,828 3,-34 5,-66 7,-99 -385,-34 -705,-296 -824,-650z"/>
   <path class="fil0" d="M2314 430c32,-13 65,-25 99,-35 0,-1 0,-1 0,-1 -34,11 -67,23 -99,36 0,0 0,0 0,0z"/>
   <path class="fil0" d="M877 408c-16,-5 -32,-11 -48,-16 16,5 32,11 48,16z"/>
   <path class="fil0" d="M774 376c17,5 33,10 49,14 -16,-4 -32,-9 -49,-14z"/>
   <path class="fil0" d="M1496 0c-260,22 -493,138 -666,315 37,11 72,22 106,35 150,-139 345,-230 560,-250l0 -100zm179 100c227,21 431,121 585,273 33,-15 66,-28 100,-40 -175,-186 -415,-310 -685,-333l0 100z"/>
   <path class="fil0" d="M823 390c2,1 4,2 6,2 -2,0 -4,-1 -6,-2z"/>
   <path class="fil0" d="M2590 925c-1,0 -2,1 -2,1 0,0 1,-1 2,-1z"/>
  </g>
 </g>
</svg>
