<?xml version="1.0" encoding="UTF-8"?>
<!DOCTYPE svg PUBLIC "-//W3C//DTD SVG 1.1//EN" "http://www.w3.org/Graphics/SVG/1.1/DTD/svg11.dtd">
<!-- Creator: CorelDRAW X7 -->
<svg xmlns="http://www.w3.org/2000/svg" xml:space="preserve" width="10.8668in" height="14.1308in" version="1.1" style="shape-rendering:geometricPrecision; text-rendering:geometricPrecision; image-rendering:optimizeQuality; fill-rule:evenodd; clip-rule:evenodd"
viewBox="0 0 60548 78735"
 xmlns:xlink="http://www.w3.org/1999/xlink">
 <defs>
  <style type="text/css">
   <![CDATA[
    .fil0 {fill:#2B2B33;fill-rule:nonzero}
   ]]>
  </style>
 </defs>
 <g id="Layer_x0020_1">
  <metadata id="CorelCorpID_0Corel-Layer"/>
  <path class="fil0" d="M46742 39173l-2537 3979c-194,319 -402,610 -623,956 -2606,4048 -4575,6820 -7486,10715l-5184 6225c-374,360 -499,471 -832,900l-5877 5684c-402,346 -527,457 -971,748 0,-1525 -1524,-5115 -651,-11408 235,-1760 748,-3452 1345,-4907 609,-1525 1316,-2814 2148,-4214 1012,-1691 4186,-5489 5628,-6986l7111 -7098c1636,-1372 1899,-1815 3174,-3202 680,-721 1816,-1691 2385,-2398 291,-360 332,-443 679,-776l7555 -9842c2647,-4228 3964,-6889 5877,-11644l471 -1123c0,12642 -1053,28071 -5863,39950 -291,735 -582,1525 -915,2273 -291,652 -624,1400 -970,2080 -361,720 -638,1344 -1040,2010 -208,332 -319,623 -513,942l-1788 2856c-1289,1774 -2606,3493 -4075,5087 -1165,1262 -3646,3188 -5074,4228l-3881 2232c-2315,1109 -6557,2467 -9870,2467l4810 -4741c361,-360 444,-471 749,-845l5059 -6224c2024,-2828 4741,-6820 6488,-9717 416,-693 748,-1303 1178,-2010 416,-721 762,-1276 1192,-1996 319,-541 2162,-3632 2301,-4201 319,-235 277,-180 402,-665l125 -263 138 -264c278,-208 167,-27 264,-402l125 -263 138 -277 139 -264 124 -124 139 -264 153 -263 -153 263 -139 264 -124 124 -139 264 -138 277 -125 263c-291,194 -180,14 -264,402l-138 264 -125 263c-333,236 -291,180 -402,665zm3715 -6778l42 -42c0,14 -56,28 -42,42zm-263 541l41 -42c-14,0 -55,28 -41,42zm124 -278l42 -27c0,0 -55,14 -42,27zm-50318 46077c3368,0 10230,-1691 13280,-2911 2010,-804 3645,-1608 5489,-2620 443,-249 804,-471 1234,-762l2453 -1650c582,-443 582,-637 1317,-291 -14,-610 -263,-748 333,-970 1344,-513 6639,1192 14804,-3660 638,-388 1442,-873 2010,-1317 4089,-3216 6779,-6320 9482,-10701 471,-762 859,-1414 1247,-2204 374,-762 721,-1414 1137,-2176l1039 -2412c194,-458 333,-638 500,-1109 152,-416 291,-762 457,-1262l901 -2411c554,-1789 1081,-3480 1525,-5254 1123,-4547 2509,-12254 2814,-17244 55,-901 152,-2218 235,-3064l291 -16717c-360,263 -1885,4158 -2176,4741 -222,443 -305,720 -527,1192 -208,457 -388,735 -609,1109l-3106 5531c-249,429 -416,637 -665,1067 -1261,2135 -6487,9066 -8151,10826l-4921 5448c-319,319 -540,540 -859,859l-3424 3480c-651,498 -1151,1095 -1746,1691 -4658,4657 -9482,9564 -11949,15691 -2177,5406 -2010,10729 -804,16385 124,554 291,1026 305,1552l-2288 1581c-845,624 -1497,970 -2439,1538 -513,292 -721,444 -1289,693 -2717,1206 -3826,2024 -7250,2579 -3410,568 -2565,402 -5462,235 -637,-41 -319,-152 -637,56 -70,41 -416,430 -527,527 -375,374 -652,512 -1067,928 -347,361 -694,624 -957,1026z"/>
 </g>
</svg>
