<?xml version="1.0" encoding="UTF-8"?>
<!DOCTYPE svg PUBLIC "-//W3C//DTD SVG 1.1//EN" "http://www.w3.org/Graphics/SVG/1.1/DTD/svg11.dtd">
<!-- Creator: CorelDRAW X7 -->
<svg xmlns="http://www.w3.org/2000/svg" xml:space="preserve" width="8.33231in" height="1.06393in" version="1.1" style="shape-rendering:geometricPrecision; text-rendering:geometricPrecision; image-rendering:optimizeQuality; fill-rule:evenodd; clip-rule:evenodd"
viewBox="0 0 8332 1064"
 xmlns:xlink="http://www.w3.org/1999/xlink">
 <defs>
  <style type="text/css">
   <![CDATA[
    .fil0 {fill:black;fill-rule:nonzero}
   ]]>
  </style>
 </defs>
 <g id="Layer_x0020_1">
  <metadata id="CorelCorpID_0Corel-Layer"/>
  <path class="fil0" d="M0 1064l0 -69 410 0 0 -68 -342 0 -68 -69 0 -68 68 -68 274 0 0 68 -274 0 0 68 342 0 69 69 0 68 -69 69 -410 0zm547 0l0 -479 68 0 0 137 342 0 68 68 0 274 -68 0 0 -274 -342 0 0 274 -68 0zm957 -69l0 -68 -342 0 0 68 342 0zm-342 69l-68 -69 0 -68 68 -69 342 0 0 -68 -273 0 0 -68 273 0 68 68 0 274 -410 0 0 0zm479 0l0 -342 410 0 68 68 0 274 -68 0 0 -274 -342 0 0 274 -68 0 0 0zm683 0l-68 -69 0 -205 -68 0 0 -68 68 0 0 -69 68 0 0 69 206 0 0 68 -206 0 0 205 274 0 0 69 -274 0zm753 -206l0 -68 -342 0 0 68 342 0zm-342 206l-69 -69 0 -205 69 -68 342 0 68 68 0 68 -68 69 -342 0 0 68 273 0 0 69 -273 0 0 0zm888 -69l0 -68 -341 0 0 68 341 0zm-341 69l-69 -69 0 -68 69 -69 341 0 0 -68 -273 0 0 -68 273 0 69 68 0 274 -410 0 0 0zm894 0l-69 -69 0 -205 69 -68 341 0 0 68 -341 0 0 205 341 0 0 69 -341 0zm820 -69l0 -205 -342 0 0 205 342 0zm-342 69l-68 -69 0 -205 68 -68 342 0 68 68 0 205 -68 69 -342 0zm479 0l0 -342 410 0 68 68 0 274 -68 0 0 -274 -342 0 0 274 -68 0 0 0zm683 0l-68 -69 0 -205 -68 0 0 -68 68 0 0 -69 68 0 0 69 206 0 0 68 -206 0 0 205 273 0 0 69 -273 0zm341 0l0 -274 69 -68 342 0 0 68 -342 0 0 274 -69 0zm889 -69l0 -205 -342 0 0 205 342 0zm-342 69l-68 -69 0 -205 68 -68 342 0 68 68 0 205 -68 69 -342 0zm547 0l-68 -69 0 -410 68 0 0 410 68 0 0 69 -68 0zm137 0l0 -69 410 0 0 -68 -342 0 -68 -69 0 -68 68 -68 274 0 0 68 -274 0 0 68 342 0 68 69 0 68 -68 69 -410 0zm814 -693l-24 38c-2,3 -4,5 -6,9 -25,38 -44,64 -71,101l-49 59c-4,4 -5,5 -8,9l-56 53c-4,4 -5,5 -9,8 0,-15 -14,-49 -6,-108 2,-17 7,-33 13,-47 5,-14 12,-27 20,-40 10,-16 40,-52 53,-66l68 -67c15,-13 18,-17 30,-30 6,-7 17,-16 22,-23 3,-4 3,-4 7,-8l71 -93c25,-40 38,-65 56,-110l4 -11c0,120 -10,266 -55,379 -3,7 -6,14 -9,21 -3,6 -6,13 -9,20 -4,7 -6,13 -10,19 -2,3 -3,6 -5,9l-17 27c-12,17 -24,33 -38,48 -11,12 -35,30 -48,40l-37 21c-22,11 -62,24 -94,24l46 -45c3,-4 4,-5 7,-8l48 -59c19,-27 45,-65 61,-92 4,-7 7,-13 12,-19 3,-7 7,-12 11,-19 3,-5 20,-35 22,-40 3,-2 2,-2 3,-6l2 -3 1 -2c3,-2 1,-1 2,-4l2 -3 1 -2 1 -3 1 -1 2 -2 1 -3 -1 3 -2 2 -1 1 -1 3 -1 2 -2 3c-2,2 -1,0 -2,4l-1 2 -2 3c-3,2 -2,1 -3,6l0 0zm35 -64l0 -1c0,1 0,1 0,1zm-3 5l1 0c0,0 -1,0 -1,0zm1 -3l1 0c0,0 -1,0 -1,0zm-476 437c32,0 97,-16 126,-28 19,-8 34,-15 52,-25 4,-2 7,-4 11,-7l24 -16c5,-4 5,-6 12,-2 0,-6 -2,-7 3,-10 13,-4 63,12 140,-34 7,-4 14,-8 20,-13 38,-30 64,-60 89,-101 5,-7 8,-13 12,-21 4,-7 7,-13 11,-20l10 -23c2,-5 3,-6 4,-11 2,-4 3,-7 5,-12l8 -23c6,-17 11,-33 15,-49 10,-43 23,-116 26,-164 1,-8 2,-21 3,-29l2 -158c-3,3 -18,40 -20,45 -2,4 -3,7 -5,11 -2,5 -4,7 -6,11l-29 52c-3,4 -4,6 -7,10 -12,20 -61,86 -77,103l-46 51c-4,3 -6,5 -9,8l-32 33c-6,5 -11,11 -17,16 -44,45 -89,91 -113,149 -20,51 -19,102 -7,155 1,5 2,10 3,15l-22 15c-8,6 -14,9 -23,14 -5,3 -7,5 -12,7 -26,11 -37,19 -69,24 -32,6 -24,4 -52,3 -6,-1 -3,-2 -6,0 0,0 -4,4 -5,5 -3,4 -6,5 -10,9 -3,3 -6,6 -9,10l0 0z"/>
 </g>
</svg>
