M48
; DRILL file {KiCad 6.0.9} date Tue Dec 27 21:22:09 2022
; FORMAT={-:-/ absolute / metric / decimal}
; #@! TF.CreationDate,2022-12-27T21:22:09+01:00
; #@! TF.GenerationSoftware,Kicad,Pcbnew,6.0.9
; #@! TF.FileFunction,Plated,1,2,PTH
FMAT,2
METRIC
; #@! TA.AperFunction,Plated,PTH,ViaDrill
T1C0.400
; #@! TA.AperFunction,Plated,PTH,ComponentDrill
T2C0.650
; #@! TA.AperFunction,Plated,PTH,ComponentDrill
T3C1.000
; #@! TA.AperFunction,Plated,PTH,ComponentDrill
T4C1.500
; #@! TA.AperFunction,Plated,PTH,ComponentDrill
T5C3.200
%
G90
G05
T1
X99.86Y-62.459
X101.13Y-83.541
X102.4Y-70.1
X109.7Y-62.2
X111.6Y-79.4
X112.052Y-84.303
X113.5Y-77.8
X114.0Y-61.8
X114.965Y-73.635
X116.116Y-71.857
X116.2Y-84.0
X116.878Y-58.141
X119.164Y-81.509
X119.2Y-85.5
X119.418Y-68.555
X121.45Y-75.667
X122.72Y-75.667
X123.99Y-75.667
X124.4Y-151.8
X128.054Y-78.715
X128.308Y-75.921
X128.6Y-57.7
X128.6Y-65.2
X129.578Y-79.985
X129.6Y-87.1
X131.102Y-79.985
X131.4Y-60.0
X131.9Y-64.9
X132.626Y-79.985
X134.15Y-79.985
X135.674Y-79.985
X137.198Y-79.985
X138.722Y-79.985
X140.246Y-58.141
X140.246Y-79.985
X140.8Y-62.947
X140.8Y-63.873
X140.8Y-64.8
X141.3Y-151.6
X143.2Y-78.8
X143.8Y-111.506
X143.8Y-114.046
X143.8Y-116.586
X143.8Y-119.126
X143.8Y-121.666
X143.8Y-124.206
X143.8Y-126.746
X146.841Y-96.983
X146.865Y-97.909
X146.868Y-95.13
X146.868Y-96.057
X146.886Y-98.835
X146.9Y-99.761
X146.9Y-100.688
X147.6Y-61.4
X147.866Y-71.603
X147.866Y-72.873
X147.866Y-74.143
X149.6Y-68.3
X151.0Y-87.6
X151.6Y-77.5
X152.3Y-60.1
X152.6Y-67.6
X152.9Y-134.5
X153.454Y-97.765
X153.454Y-109.195
X153.454Y-120.879
X153.7Y-91.8
X153.708Y-143.231
X154.2Y-69.4
X154.216Y-86.081
X155.232Y-143.231
X155.486Y-86.081
X156.1Y-63.5
X156.502Y-139.421
X156.502Y-143.231
X156.502Y-152.883
X156.756Y-86.081
X157.772Y-143.231
X158.4Y-63.0
X158.986Y-78.78
X159.0Y-90.1
X160.2Y-86.2
X161.582Y-143.231
X162.852Y-143.231
X163.0Y-60.2
X163.106Y-119.609
X163.7Y-88.173
X163.7Y-89.1
X163.868Y-133.579
X164.3Y-145.5
X164.5Y-94.1
X164.6Y-114.9
X165.15Y-77.75
X166.154Y-113.259
X166.4Y-86.6
X167.2Y-77.8
X167.678Y-109.195
X167.9Y-89.3
X167.9Y-90.3
X167.932Y-91.415
X168.1Y-65.542
X168.1Y-87.5
X168.121Y-60.542
X168.186Y-149.581
X168.4Y-133.1
X169.5Y-72.4
X169.6Y-120.4
X169.8Y-135.2
X169.964Y-145.009
X169.964Y-151.867
X170.1Y-115.5
X170.371Y-79.071
X170.6Y-124.7
X170.607Y-150.731
X170.973Y-86.5
X171.1Y-97.7
X171.3Y-60.9
X171.488Y-147.803
X171.5Y-68.8
X171.9Y-63.6
X171.9Y-86.5
X172.0Y-108.6
X172.0Y-109.8
X172.0Y-122.911
X172.2Y-91.4
X172.758Y-141.453
X172.8Y-150.7
X172.926Y-122.9
X173.266Y-127.991
X173.266Y-129.515
X173.266Y-131.039
X173.266Y-132.309
X173.3Y-88.5
X173.52Y-146.279
X174.79Y-134.595
X175.044Y-57.6
X175.044Y-115.545
X175.1Y-77.547
X175.1Y-78.473
X175.1Y-79.4
X175.1Y-80.327
X175.1Y-81.253
X175.1Y-82.18
X175.1Y-83.106
X175.1Y-84.033
X175.706Y-67.006
X176.06Y-134.595
X176.1Y-63.2
X176.314Y-92.431
X176.568Y-110.973
X176.9Y-69.5
X177.0Y-58.3
X177.7Y-60.1
X178.6Y-145.1
X179.2Y-73.4
X179.4Y-86.1
X180.626Y-66.373
X180.626Y-68.5
X180.7Y-87.3
X180.786Y-70.377
X180.973Y-67.5
X181.3Y-78.5
X181.5Y-76.2
X181.5Y-80.1
X182.0Y-59.1
X182.0Y-66.8
X182.0Y-69.0
X182.8Y-62.9
X183.9Y-150.0
X184.2Y-66.8
X184.2Y-69.0
X184.569Y-65.426
X185.2Y-62.4
X185.2Y-75.3
X185.496Y-65.422
X185.8Y-63.2
X186.2Y-106.655
X186.474Y-123.927
X186.474Y-126.467
X186.474Y-129.007
X186.474Y-131.547
X186.474Y-134.087
X186.727Y-63.2
X186.8Y-86.0
X186.9Y-94.8
X188.0Y-69.1
X188.6Y-61.5
X188.8Y-147.0
X189.7Y-61.5
X190.2Y-84.1
X190.8Y-59.2
X192.7Y-67.8
X193.6Y-72.8
X194.9Y-72.8
X196.3Y-72.8
X196.4Y-112.6
X196.634Y-96.495
X196.634Y-104.115
X196.888Y-117.577
X197.142Y-130.277
X197.142Y-135.484
T3
X101.6Y-89.662
X101.6Y-92.202
X101.6Y-94.742
X101.6Y-97.282
X101.6Y-99.822
X101.6Y-102.362
X101.6Y-104.902
X101.6Y-107.442
X101.6Y-111.506
X101.6Y-114.046
X101.6Y-116.586
X101.6Y-119.126
X101.6Y-121.666
X101.6Y-124.206
X101.6Y-126.746
X101.6Y-129.286
X101.6Y-133.4
X101.6Y-135.94
X101.6Y-138.48
X101.6Y-141.02
X101.6Y-143.56
X101.6Y-146.1
X104.14Y-89.662
X104.14Y-92.202
X104.14Y-94.742
X104.14Y-97.282
X104.14Y-99.822
X104.14Y-102.362
X104.14Y-104.902
X104.14Y-107.442
X104.14Y-111.506
X104.14Y-114.046
X104.14Y-116.586
X104.14Y-119.126
X104.14Y-121.666
X104.14Y-124.206
X104.14Y-126.746
X104.14Y-129.286
X104.14Y-133.4
X104.14Y-135.94
X104.14Y-138.48
X104.14Y-141.02
X104.14Y-143.56
X104.14Y-146.1
X107.95Y-133.4
X107.95Y-135.94
X107.95Y-138.48
X107.95Y-141.02
X107.95Y-143.56
X107.95Y-146.1
X110.49Y-133.4
X110.49Y-135.94
X110.49Y-138.48
X110.49Y-141.02
X110.49Y-143.56
X110.49Y-146.1
X113.025Y-89.662
X113.025Y-92.202
X113.025Y-94.742
X113.025Y-97.282
X113.025Y-99.822
X113.025Y-102.362
X113.025Y-104.902
X113.025Y-107.442
X113.025Y-111.506
X113.025Y-114.046
X113.025Y-116.586
X113.025Y-119.126
X113.025Y-121.666
X113.025Y-124.206
X113.025Y-126.746
X113.025Y-129.286
X114.3Y-133.4
X114.3Y-135.94
X114.3Y-138.48
X114.3Y-141.02
X114.3Y-143.56
X114.3Y-146.1
X115.565Y-89.662
X115.565Y-92.202
X115.565Y-94.742
X115.565Y-97.282
X115.565Y-99.822
X115.565Y-102.362
X115.565Y-104.902
X115.565Y-107.442
X115.565Y-111.506
X115.565Y-114.046
X115.565Y-116.586
X115.565Y-119.126
X115.565Y-121.666
X115.565Y-124.206
X115.565Y-126.746
X115.565Y-129.286
X116.84Y-133.4
X116.84Y-135.94
X116.84Y-138.48
X116.84Y-141.02
X116.84Y-143.56
X116.84Y-146.1
X120.65Y-133.4
X120.65Y-135.94
X120.65Y-138.48
X120.65Y-141.02
X120.65Y-143.56
X120.65Y-146.1
X123.19Y-133.4
X123.19Y-135.94
X123.19Y-138.48
X123.19Y-141.02
X123.19Y-143.56
X123.19Y-146.1
X124.46Y-89.662
X124.46Y-92.202
X124.46Y-94.742
X124.46Y-97.282
X124.46Y-99.822
X124.46Y-102.362
X124.46Y-104.902
X124.46Y-107.442
X124.46Y-111.506
X124.46Y-114.046
X124.46Y-116.586
X124.46Y-119.126
X124.46Y-121.666
X124.46Y-124.206
X124.46Y-126.746
X124.46Y-129.286
X127.0Y-89.662
X127.0Y-92.202
X127.0Y-94.742
X127.0Y-97.282
X127.0Y-99.822
X127.0Y-102.362
X127.0Y-104.902
X127.0Y-107.442
X127.0Y-111.506
X127.0Y-114.046
X127.0Y-116.586
X127.0Y-119.126
X127.0Y-121.666
X127.0Y-124.206
X127.0Y-126.746
X127.0Y-129.286
X127.0Y-133.4
X127.0Y-135.94
X127.0Y-138.48
X127.0Y-141.02
X127.0Y-143.56
X127.0Y-146.1
X129.54Y-133.4
X129.54Y-135.94
X129.54Y-138.48
X129.54Y-141.02
X129.54Y-143.56
X129.54Y-146.1
X133.35Y-133.4
X133.35Y-135.94
X133.35Y-138.48
X133.35Y-141.02
X133.35Y-143.56
X133.35Y-146.1
X135.89Y-89.662
X135.89Y-92.202
X135.89Y-94.742
X135.89Y-97.282
X135.89Y-99.822
X135.89Y-102.362
X135.89Y-104.902
X135.89Y-107.442
X135.89Y-111.506
X135.89Y-114.046
X135.89Y-116.586
X135.89Y-119.126
X135.89Y-121.666
X135.89Y-124.206
X135.89Y-126.746
X135.89Y-129.286
X135.89Y-133.4
X135.89Y-135.94
X135.89Y-138.48
X135.89Y-141.02
X135.89Y-143.56
X135.89Y-146.1
X138.43Y-89.662
X138.43Y-92.202
X138.43Y-94.742
X138.43Y-97.282
X138.43Y-99.822
X138.43Y-102.362
X138.43Y-104.902
X138.43Y-107.442
X138.43Y-111.506
X138.43Y-114.046
X138.43Y-116.586
X138.43Y-119.126
X138.43Y-121.666
X138.43Y-124.206
X138.43Y-126.746
X138.43Y-129.286
X139.7Y-133.4
X139.7Y-135.94
X139.7Y-138.48
X139.7Y-141.02
X139.7Y-143.56
X139.7Y-146.1
X142.24Y-133.4
X142.24Y-135.94
X142.24Y-138.48
X142.24Y-141.02
X142.24Y-143.56
X142.24Y-146.1
X146.05Y-133.4
X146.05Y-135.94
X146.05Y-138.48
X146.05Y-141.02
X146.05Y-143.56
X146.05Y-146.1
X148.59Y-133.4
X148.59Y-135.94
X148.59Y-138.48
X148.59Y-141.02
X148.59Y-143.56
X148.59Y-146.1
X157.8Y-68.9
X157.8Y-71.44
X161.7Y-68.925
X161.7Y-71.465
X179.555Y-92.7
X179.555Y-95.24
X179.555Y-97.78
X179.555Y-100.32
X179.555Y-102.86
X179.555Y-105.4
X179.555Y-107.94
X179.555Y-110.48
X179.555Y-116.4
X179.555Y-118.94
X179.555Y-121.48
X179.555Y-124.02
X179.555Y-126.56
X179.555Y-129.1
X179.555Y-131.64
X179.555Y-134.18
X182.095Y-92.7
X182.095Y-95.24
X182.095Y-97.78
X182.095Y-100.32
X182.095Y-102.86
X182.095Y-105.4
X182.095Y-107.94
X182.095Y-110.48
X182.095Y-116.4
X182.095Y-118.94
X182.095Y-121.48
X182.095Y-124.02
X182.095Y-126.56
X182.095Y-129.1
X182.095Y-131.64
X182.095Y-134.18
X184.635Y-92.7
X184.635Y-95.24
X184.635Y-97.78
X184.635Y-100.32
X184.635Y-102.86
X184.635Y-105.4
X184.635Y-107.94
X184.635Y-110.48
X184.635Y-116.4
X184.635Y-118.94
X184.635Y-121.48
X184.635Y-124.02
X184.635Y-126.56
X184.635Y-129.1
X184.635Y-131.64
X184.635Y-134.18
X187.6Y-79.6
X187.6Y-82.14
X187.6Y-84.68
X187.6Y-87.22
X189.96Y-116.4
X189.96Y-118.94
X189.96Y-121.48
X189.96Y-124.02
X189.96Y-126.56
X189.96Y-129.1
X189.96Y-131.64
X189.96Y-134.18
X190.0Y-92.7
X190.0Y-95.24
X190.0Y-97.78
X190.0Y-100.32
X190.0Y-102.86
X190.0Y-105.4
X190.0Y-107.94
X190.0Y-110.48
X190.4Y-63.9
X192.5Y-116.4
X192.5Y-118.94
X192.5Y-121.48
X192.5Y-124.02
X192.5Y-126.56
X192.5Y-129.1
X192.5Y-131.64
X192.5Y-134.18
X192.54Y-92.7
X192.54Y-95.24
X192.54Y-97.78
X192.54Y-100.32
X192.54Y-102.86
X192.54Y-105.4
X192.54Y-107.94
X192.54Y-110.48
X192.94Y-63.9
X194.4Y-79.6
X194.4Y-82.14
X194.4Y-84.68
X194.4Y-87.22
X195.04Y-116.4
X195.04Y-118.94
X195.04Y-121.48
X195.04Y-124.02
X195.04Y-126.56
X195.04Y-129.1
X195.04Y-131.64
X195.04Y-134.18
X195.08Y-92.7
X195.08Y-95.24
X195.08Y-97.78
X195.08Y-100.32
X195.08Y-102.86
X195.08Y-105.4
X195.08Y-107.94
X195.08Y-110.48
X195.48Y-63.9
T4
X109.4Y-68.6
X111.85Y-58.65
X111.85Y-70.8
X114.35Y-58.65
X116.85Y-68.6
X119.35Y-58.65
X121.85Y-58.65
X121.85Y-70.8
X124.3Y-68.6
X132.7Y-68.6
X135.15Y-58.65
X135.15Y-70.8
X137.65Y-58.65
X140.15Y-68.6
X142.65Y-58.65
X145.15Y-58.65
X145.15Y-70.8
X147.6Y-68.6
T5
X102.146Y-58.649
X102.146Y-151.359
X194.856Y-58.649
X194.856Y-151.359
T2
X160.575Y-58.4G85X160.575Y-57.6
G05
X160.575Y-62.72G85X160.575Y-61.62
G05
X169.225Y-58.4G85X169.225Y-57.6
G05
X169.225Y-62.72G85X169.225Y-61.62
G05
T0
M30
