%TF.GenerationSoftware,KiCad,Pcbnew,6.0.9*%
%TF.CreationDate,2022-12-27T21:22:10+01:00*%
%TF.ProjectId,OpenDeck-r2.2.1,4f70656e-4465-4636-9b2d-72322e322e30,rev?*%
%TF.SameCoordinates,Original*%
%TF.FileFunction,Drillmap*%
%TF.FilePolarity,Positive*%
%FSLAX45Y45*%
G04 Gerber Fmt 4.5, Leading zero omitted, Abs format (unit mm)*
G04 Created by KiCad (PCBNEW 6.0.9) date 2022-12-27 21:22:10*
%MOMM*%
%LPD*%
G01*
G04 APERTURE LIST*
%ADD10C,0.050000*%
%ADD11C,0.200000*%
%ADD12C,0.040000*%
%ADD13C,0.065000*%
%ADD14C,0.100000*%
%ADD15C,0.150000*%
%ADD16C,0.320000*%
G04 APERTURE END LIST*
D10*
X9859010Y-15491460D02*
X9859010Y-5509260D01*
X19841210Y-15491460D02*
X9859010Y-15491460D01*
X9859010Y-5509260D02*
X19841210Y-5509260D01*
X19841210Y-5509260D02*
X19841210Y-15491460D01*
D11*
D12*
X9966010Y-6225860D02*
X10006010Y-6265860D01*
X10006010Y-6225860D02*
X9966010Y-6265860D01*
X10093010Y-8334060D02*
X10133010Y-8374060D01*
X10133010Y-8334060D02*
X10093010Y-8374060D01*
X10220000Y-6990000D02*
X10260000Y-7030000D01*
X10260000Y-6990000D02*
X10220000Y-7030000D01*
X10950000Y-6200000D02*
X10990000Y-6240000D01*
X10990000Y-6200000D02*
X10950000Y-6240000D01*
X11140000Y-7920000D02*
X11180000Y-7960000D01*
X11180000Y-7920000D02*
X11140000Y-7960000D01*
X11185210Y-8410260D02*
X11225210Y-8450260D01*
X11225210Y-8410260D02*
X11185210Y-8450260D01*
X11330000Y-7760000D02*
X11370000Y-7800000D01*
X11370000Y-7760000D02*
X11330000Y-7800000D01*
X11380000Y-6160000D02*
X11420000Y-6200000D01*
X11420000Y-6160000D02*
X11380000Y-6200000D01*
X11476540Y-7343460D02*
X11516540Y-7383460D01*
X11516540Y-7343460D02*
X11476540Y-7383460D01*
X11591610Y-7165660D02*
X11631610Y-7205660D01*
X11631610Y-7165660D02*
X11591610Y-7205660D01*
X11600000Y-8380000D02*
X11640000Y-8420000D01*
X11640000Y-8380000D02*
X11600000Y-8420000D01*
X11667810Y-5794060D02*
X11707810Y-5834060D01*
X11707810Y-5794060D02*
X11667810Y-5834060D01*
X11896410Y-8130860D02*
X11936410Y-8170860D01*
X11936410Y-8130860D02*
X11896410Y-8170860D01*
X11900000Y-8530000D02*
X11940000Y-8570000D01*
X11940000Y-8530000D02*
X11900000Y-8570000D01*
X11921810Y-6835460D02*
X11961810Y-6875460D01*
X11961810Y-6835460D02*
X11921810Y-6875460D01*
X12125010Y-7546660D02*
X12165010Y-7586660D01*
X12165010Y-7546660D02*
X12125010Y-7586660D01*
X12252010Y-7546660D02*
X12292010Y-7586660D01*
X12292010Y-7546660D02*
X12252010Y-7586660D01*
X12379010Y-7546660D02*
X12419010Y-7586660D01*
X12419010Y-7546660D02*
X12379010Y-7586660D01*
X12420000Y-15160000D02*
X12460000Y-15200000D01*
X12460000Y-15160000D02*
X12420000Y-15200000D01*
X12785410Y-7851460D02*
X12825410Y-7891460D01*
X12825410Y-7851460D02*
X12785410Y-7891460D01*
X12810810Y-7572060D02*
X12850810Y-7612060D01*
X12850810Y-7572060D02*
X12810810Y-7612060D01*
X12840000Y-5750000D02*
X12880000Y-5790000D01*
X12880000Y-5750000D02*
X12840000Y-5790000D01*
X12840000Y-6500000D02*
X12880000Y-6540000D01*
X12880000Y-6500000D02*
X12840000Y-6540000D01*
X12937810Y-7978460D02*
X12977810Y-8018460D01*
X12977810Y-7978460D02*
X12937810Y-8018460D01*
X12940000Y-8690000D02*
X12980000Y-8730000D01*
X12980000Y-8690000D02*
X12940000Y-8730000D01*
X13090210Y-7978460D02*
X13130210Y-8018460D01*
X13130210Y-7978460D02*
X13090210Y-8018460D01*
X13120000Y-5980000D02*
X13160000Y-6020000D01*
X13160000Y-5980000D02*
X13120000Y-6020000D01*
X13170000Y-6470000D02*
X13210000Y-6510000D01*
X13210000Y-6470000D02*
X13170000Y-6510000D01*
X13242610Y-7978460D02*
X13282610Y-8018460D01*
X13282610Y-7978460D02*
X13242610Y-8018460D01*
X13395010Y-7978460D02*
X13435010Y-8018460D01*
X13435010Y-7978460D02*
X13395010Y-8018460D01*
X13547410Y-7978460D02*
X13587410Y-8018460D01*
X13587410Y-7978460D02*
X13547410Y-8018460D01*
X13699810Y-7978460D02*
X13739810Y-8018460D01*
X13739810Y-7978460D02*
X13699810Y-8018460D01*
X13852210Y-7978460D02*
X13892210Y-8018460D01*
X13892210Y-7978460D02*
X13852210Y-8018460D01*
X14004610Y-5794060D02*
X14044610Y-5834060D01*
X14044610Y-5794060D02*
X14004610Y-5834060D01*
X14004610Y-7978460D02*
X14044610Y-8018460D01*
X14044610Y-7978460D02*
X14004610Y-8018460D01*
X14060000Y-6274699D02*
X14100000Y-6314699D01*
X14100000Y-6274699D02*
X14060000Y-6314699D01*
X14060000Y-6367350D02*
X14100000Y-6407350D01*
X14100000Y-6367350D02*
X14060000Y-6407350D01*
X14060000Y-6460000D02*
X14100000Y-6500000D01*
X14100000Y-6460000D02*
X14060000Y-6500000D01*
X14110000Y-15140000D02*
X14150000Y-15180000D01*
X14150000Y-15140000D02*
X14110000Y-15180000D01*
X14300000Y-7860000D02*
X14340000Y-7900000D01*
X14340000Y-7860000D02*
X14300000Y-7900000D01*
X14360000Y-11130600D02*
X14400000Y-11170600D01*
X14400000Y-11130600D02*
X14360000Y-11170600D01*
X14360000Y-11384600D02*
X14400000Y-11424600D01*
X14400000Y-11384600D02*
X14360000Y-11424600D01*
X14360000Y-11638600D02*
X14400000Y-11678600D01*
X14400000Y-11638600D02*
X14360000Y-11678600D01*
X14360000Y-11892600D02*
X14400000Y-11932600D01*
X14400000Y-11892600D02*
X14360000Y-11932600D01*
X14360000Y-12146600D02*
X14400000Y-12186600D01*
X14400000Y-12146600D02*
X14360000Y-12186600D01*
X14360000Y-12400600D02*
X14400000Y-12440600D01*
X14400000Y-12400600D02*
X14360000Y-12440600D01*
X14360000Y-12654600D02*
X14400000Y-12694600D01*
X14400000Y-12654600D02*
X14360000Y-12694600D01*
X14664124Y-9678264D02*
X14704124Y-9718264D01*
X14704124Y-9678264D02*
X14664124Y-9718264D01*
X14666501Y-9770883D02*
X14706501Y-9810883D01*
X14706501Y-9770883D02*
X14666501Y-9810883D01*
X14666813Y-9493002D02*
X14706813Y-9533002D01*
X14706813Y-9493002D02*
X14666813Y-9533002D01*
X14666813Y-9585652D02*
X14706813Y-9625652D01*
X14706813Y-9585652D02*
X14666813Y-9625652D01*
X14668576Y-9863510D02*
X14708576Y-9903510D01*
X14708576Y-9863510D02*
X14668576Y-9903510D01*
X14669986Y-9956150D02*
X14709986Y-9996150D01*
X14709986Y-9956150D02*
X14669986Y-9996150D01*
X14670000Y-10048800D02*
X14710000Y-10088800D01*
X14710000Y-10048800D02*
X14670000Y-10088800D01*
X14740000Y-6120000D02*
X14780000Y-6160000D01*
X14780000Y-6120000D02*
X14740000Y-6160000D01*
X14766610Y-7140260D02*
X14806610Y-7180260D01*
X14806610Y-7140260D02*
X14766610Y-7180260D01*
X14766610Y-7267260D02*
X14806610Y-7307260D01*
X14806610Y-7267260D02*
X14766610Y-7307260D01*
X14766610Y-7394260D02*
X14806610Y-7434260D01*
X14806610Y-7394260D02*
X14766610Y-7434260D01*
X14940000Y-6810000D02*
X14980000Y-6850000D01*
X14980000Y-6810000D02*
X14940000Y-6850000D01*
X15080000Y-8740000D02*
X15120000Y-8780000D01*
X15120000Y-8740000D02*
X15080000Y-8780000D01*
X15140000Y-7730000D02*
X15180000Y-7770000D01*
X15180000Y-7730000D02*
X15140000Y-7770000D01*
X15210000Y-5990000D02*
X15250000Y-6030000D01*
X15250000Y-5990000D02*
X15210000Y-6030000D01*
X15240000Y-6740000D02*
X15280000Y-6780000D01*
X15280000Y-6740000D02*
X15240000Y-6780000D01*
X15270000Y-13430000D02*
X15310000Y-13470000D01*
X15310000Y-13430000D02*
X15270000Y-13470000D01*
X15325410Y-9756460D02*
X15365410Y-9796460D01*
X15365410Y-9756460D02*
X15325410Y-9796460D01*
X15325410Y-10899460D02*
X15365410Y-10939460D01*
X15365410Y-10899460D02*
X15325410Y-10939460D01*
X15325410Y-12067860D02*
X15365410Y-12107860D01*
X15365410Y-12067860D02*
X15325410Y-12107860D01*
X15350000Y-9160000D02*
X15390000Y-9200000D01*
X15390000Y-9160000D02*
X15350000Y-9200000D01*
X15350810Y-14303060D02*
X15390810Y-14343060D01*
X15390810Y-14303060D02*
X15350810Y-14343060D01*
X15400000Y-6920000D02*
X15440000Y-6960000D01*
X15440000Y-6920000D02*
X15400000Y-6960000D01*
X15401610Y-8588060D02*
X15441610Y-8628060D01*
X15441610Y-8588060D02*
X15401610Y-8628060D01*
X15503210Y-14303060D02*
X15543210Y-14343060D01*
X15543210Y-14303060D02*
X15503210Y-14343060D01*
X15528610Y-8588060D02*
X15568610Y-8628060D01*
X15568610Y-8588060D02*
X15528610Y-8628060D01*
X15590000Y-6330000D02*
X15630000Y-6370000D01*
X15630000Y-6330000D02*
X15590000Y-6370000D01*
X15630210Y-13922060D02*
X15670210Y-13962060D01*
X15670210Y-13922060D02*
X15630210Y-13962060D01*
X15630210Y-14303060D02*
X15670210Y-14343060D01*
X15670210Y-14303060D02*
X15630210Y-14343060D01*
X15630210Y-15268260D02*
X15670210Y-15308260D01*
X15670210Y-15268260D02*
X15630210Y-15308260D01*
X15655610Y-8588060D02*
X15695610Y-8628060D01*
X15695610Y-8588060D02*
X15655610Y-8628060D01*
X15757210Y-14303060D02*
X15797210Y-14343060D01*
X15797210Y-14303060D02*
X15757210Y-14343060D01*
X15820000Y-6280000D02*
X15860000Y-6320000D01*
X15860000Y-6280000D02*
X15820000Y-6320000D01*
X15878637Y-7858009D02*
X15918637Y-7898009D01*
X15918637Y-7858009D02*
X15878637Y-7898009D01*
X15880000Y-8990000D02*
X15920000Y-9030000D01*
X15920000Y-8990000D02*
X15880000Y-9030000D01*
X16000000Y-8600000D02*
X16040000Y-8640000D01*
X16040000Y-8600000D02*
X16000000Y-8640000D01*
X16138210Y-14303060D02*
X16178210Y-14343060D01*
X16178210Y-14303060D02*
X16138210Y-14343060D01*
X16265210Y-14303060D02*
X16305210Y-14343060D01*
X16305210Y-14303060D02*
X16265210Y-14343060D01*
X16280000Y-6000000D02*
X16320000Y-6040000D01*
X16320000Y-6000000D02*
X16280000Y-6040000D01*
X16290610Y-11940860D02*
X16330610Y-11980860D01*
X16330610Y-11940860D02*
X16290610Y-11980860D01*
X16350000Y-8797350D02*
X16390000Y-8837350D01*
X16390000Y-8797350D02*
X16350000Y-8837350D01*
X16350000Y-8890000D02*
X16390000Y-8930000D01*
X16390000Y-8890000D02*
X16350000Y-8930000D01*
X16366810Y-13337860D02*
X16406810Y-13377860D01*
X16406810Y-13337860D02*
X16366810Y-13377860D01*
X16410000Y-14530000D02*
X16450000Y-14570000D01*
X16450000Y-14530000D02*
X16410000Y-14570000D01*
X16430000Y-9390000D02*
X16470000Y-9430000D01*
X16470000Y-9390000D02*
X16430000Y-9430000D01*
X16440000Y-11470000D02*
X16480000Y-11510000D01*
X16480000Y-11470000D02*
X16440000Y-11510000D01*
X16495000Y-7755000D02*
X16535000Y-7795000D01*
X16535000Y-7755000D02*
X16495000Y-7795000D01*
X16595410Y-11305860D02*
X16635410Y-11345860D01*
X16635410Y-11305860D02*
X16595410Y-11345860D01*
X16620000Y-8640000D02*
X16660000Y-8680000D01*
X16660000Y-8640000D02*
X16620000Y-8680000D01*
X16700000Y-7760000D02*
X16740000Y-7800000D01*
X16740000Y-7760000D02*
X16700000Y-7800000D01*
X16747810Y-10899460D02*
X16787810Y-10939460D01*
X16787810Y-10899460D02*
X16747810Y-10939460D01*
X16770000Y-8910000D02*
X16810000Y-8950000D01*
X16810000Y-8910000D02*
X16770000Y-8950000D01*
X16770000Y-9010000D02*
X16810000Y-9050000D01*
X16810000Y-9010000D02*
X16770000Y-9050000D01*
X16773210Y-9121460D02*
X16813210Y-9161460D01*
X16813210Y-9121460D02*
X16773210Y-9161460D01*
X16790000Y-6534170D02*
X16830000Y-6574170D01*
X16830000Y-6534170D02*
X16790000Y-6574170D01*
X16790000Y-8730000D02*
X16830000Y-8770000D01*
X16830000Y-8730000D02*
X16790000Y-8770000D01*
X16792112Y-6034223D02*
X16832112Y-6074223D01*
X16832112Y-6034223D02*
X16792112Y-6074223D01*
X16798610Y-14938060D02*
X16838610Y-14978060D01*
X16838610Y-14938060D02*
X16798610Y-14978060D01*
X16820000Y-13290000D02*
X16860000Y-13330000D01*
X16860000Y-13290000D02*
X16820000Y-13330000D01*
X16930000Y-7220000D02*
X16970000Y-7260000D01*
X16970000Y-7220000D02*
X16930000Y-7260000D01*
X16940000Y-12020000D02*
X16980000Y-12060000D01*
X16980000Y-12020000D02*
X16940000Y-12060000D01*
X16960000Y-13500000D02*
X17000000Y-13540000D01*
X17000000Y-13500000D02*
X16960000Y-13540000D01*
X16976410Y-14480860D02*
X17016410Y-14520860D01*
X17016410Y-14480860D02*
X16976410Y-14520860D01*
X16976410Y-15166660D02*
X17016410Y-15206660D01*
X17016410Y-15166660D02*
X16976410Y-15206660D01*
X16990000Y-11530000D02*
X17030000Y-11570000D01*
X17030000Y-11530000D02*
X16990000Y-11570000D01*
X17017140Y-7887140D02*
X17057140Y-7927140D01*
X17057140Y-7887140D02*
X17017140Y-7927140D01*
X17040000Y-12450000D02*
X17080000Y-12490000D01*
X17080000Y-12450000D02*
X17040000Y-12490000D01*
X17040663Y-15053112D02*
X17080663Y-15093112D01*
X17080663Y-15053112D02*
X17040663Y-15093112D01*
X17077350Y-8630000D02*
X17117350Y-8670000D01*
X17117350Y-8630000D02*
X17077350Y-8670000D01*
X17090000Y-9750000D02*
X17130000Y-9790000D01*
X17130000Y-9750000D02*
X17090000Y-9790000D01*
X17110000Y-6070000D02*
X17150000Y-6110000D01*
X17150000Y-6070000D02*
X17110000Y-6110000D01*
X17128810Y-14760260D02*
X17168810Y-14800260D01*
X17168810Y-14760260D02*
X17128810Y-14800260D01*
X17130000Y-6860000D02*
X17170000Y-6900000D01*
X17170000Y-6860000D02*
X17130000Y-6900000D01*
X17170000Y-6340000D02*
X17210000Y-6380000D01*
X17210000Y-6340000D02*
X17170000Y-6380000D01*
X17170000Y-8630000D02*
X17210000Y-8670000D01*
X17210000Y-8630000D02*
X17170000Y-8670000D01*
X17180000Y-10840000D02*
X17220000Y-10880000D01*
X17220000Y-10840000D02*
X17180000Y-10880000D01*
X17180000Y-10960000D02*
X17220000Y-11000000D01*
X17220000Y-10960000D02*
X17180000Y-11000000D01*
X17180000Y-12271060D02*
X17220000Y-12311060D01*
X17220000Y-12271060D02*
X17180000Y-12311060D01*
X17200000Y-9120000D02*
X17240000Y-9160000D01*
X17240000Y-9120000D02*
X17200000Y-9160000D01*
X17255810Y-14125260D02*
X17295810Y-14165260D01*
X17295810Y-14125260D02*
X17255810Y-14165260D01*
X17260000Y-15050000D02*
X17300000Y-15090000D01*
X17300000Y-15050000D02*
X17260000Y-15090000D01*
X17272644Y-12269969D02*
X17312644Y-12309969D01*
X17312644Y-12269969D02*
X17272644Y-12309969D01*
X17306610Y-12779060D02*
X17346610Y-12819060D01*
X17346610Y-12779060D02*
X17306610Y-12819060D01*
X17306610Y-12931460D02*
X17346610Y-12971460D01*
X17346610Y-12931460D02*
X17306610Y-12971460D01*
X17306610Y-13083860D02*
X17346610Y-13123860D01*
X17346610Y-13083860D02*
X17306610Y-13123860D01*
X17306610Y-13210860D02*
X17346610Y-13250860D01*
X17346610Y-13210860D02*
X17306610Y-13250860D01*
X17310000Y-8830000D02*
X17350000Y-8870000D01*
X17350000Y-8830000D02*
X17310000Y-8870000D01*
X17332010Y-14607860D02*
X17372010Y-14647860D01*
X17372010Y-14607860D02*
X17332010Y-14647860D01*
X17459010Y-13439460D02*
X17499010Y-13479460D01*
X17499010Y-13439460D02*
X17459010Y-13479460D01*
X17484410Y-5740000D02*
X17524410Y-5780000D01*
X17524410Y-5740000D02*
X17484410Y-5780000D01*
X17484410Y-11534460D02*
X17524410Y-11574460D01*
X17524410Y-11534460D02*
X17484410Y-11574460D01*
X17490000Y-7734699D02*
X17530000Y-7774699D01*
X17530000Y-7734699D02*
X17490000Y-7774699D01*
X17490000Y-7827350D02*
X17530000Y-7867350D01*
X17530000Y-7827350D02*
X17490000Y-7867350D01*
X17490000Y-7920000D02*
X17530000Y-7960000D01*
X17530000Y-7920000D02*
X17490000Y-7960000D01*
X17490000Y-8012650D02*
X17530000Y-8052650D01*
X17530000Y-8012650D02*
X17490000Y-8052650D01*
X17490000Y-8105301D02*
X17530000Y-8145301D01*
X17530000Y-8105301D02*
X17490000Y-8145301D01*
X17490000Y-8197951D02*
X17530000Y-8237951D01*
X17530000Y-8197951D02*
X17490000Y-8237951D01*
X17490000Y-8290601D02*
X17530000Y-8330601D01*
X17530000Y-8290601D02*
X17490000Y-8330601D01*
X17490000Y-8383251D02*
X17530000Y-8423252D01*
X17530000Y-8383251D02*
X17490000Y-8423252D01*
X17550587Y-6680587D02*
X17590587Y-6720587D01*
X17590587Y-6680587D02*
X17550587Y-6720587D01*
X17586010Y-13439460D02*
X17626010Y-13479460D01*
X17626010Y-13439460D02*
X17586010Y-13479460D01*
X17590000Y-6300000D02*
X17630000Y-6340000D01*
X17630000Y-6300000D02*
X17590000Y-6340000D01*
X17611410Y-9223060D02*
X17651410Y-9263060D01*
X17651410Y-9223060D02*
X17611410Y-9263060D01*
X17636810Y-11077260D02*
X17676810Y-11117260D01*
X17676810Y-11077260D02*
X17636810Y-11117260D01*
X17670000Y-6930000D02*
X17710000Y-6970000D01*
X17710000Y-6930000D02*
X17670000Y-6970000D01*
X17680000Y-5810000D02*
X17720000Y-5850000D01*
X17720000Y-5810000D02*
X17680000Y-5850000D01*
X17750000Y-5990000D02*
X17790000Y-6030000D01*
X17790000Y-5990000D02*
X17750000Y-6030000D01*
X17840000Y-14490000D02*
X17880000Y-14530000D01*
X17880000Y-14490000D02*
X17840000Y-14530000D01*
X17900000Y-7320000D02*
X17940000Y-7360000D01*
X17940000Y-7320000D02*
X17900000Y-7360000D01*
X17920000Y-8590000D02*
X17960000Y-8630000D01*
X17960000Y-8590000D02*
X17920000Y-8630000D01*
X18042650Y-6617350D02*
X18082650Y-6657350D01*
X18082650Y-6617350D02*
X18042650Y-6657350D01*
X18042650Y-6830000D02*
X18082650Y-6870000D01*
X18082650Y-6830000D02*
X18042650Y-6870000D01*
X18050000Y-8710000D02*
X18090000Y-8750000D01*
X18090000Y-8710000D02*
X18050000Y-8750000D01*
X18058634Y-7017703D02*
X18098634Y-7057703D01*
X18098634Y-7017703D02*
X18058634Y-7057703D01*
X18077350Y-6730000D02*
X18117350Y-6770000D01*
X18117350Y-6730000D02*
X18077350Y-6770000D01*
X18110000Y-7830000D02*
X18150000Y-7870000D01*
X18150000Y-7830000D02*
X18110000Y-7870000D01*
X18130000Y-7600000D02*
X18170000Y-7640000D01*
X18170000Y-7600000D02*
X18130000Y-7640000D01*
X18130000Y-7990000D02*
X18170000Y-8030000D01*
X18170000Y-7990000D02*
X18130000Y-8030000D01*
X18180000Y-5890000D02*
X18220000Y-5930000D01*
X18220000Y-5890000D02*
X18180000Y-5930000D01*
X18180000Y-6660000D02*
X18220000Y-6700000D01*
X18220000Y-6660000D02*
X18180000Y-6700000D01*
X18180000Y-6880000D02*
X18220000Y-6920000D01*
X18220000Y-6880000D02*
X18180000Y-6920000D01*
X18260000Y-6270000D02*
X18300000Y-6310000D01*
X18300000Y-6270000D02*
X18260000Y-6310000D01*
X18370000Y-14980000D02*
X18410000Y-15020000D01*
X18410000Y-14980000D02*
X18370000Y-15020000D01*
X18400000Y-6660000D02*
X18440000Y-6700000D01*
X18440000Y-6660000D02*
X18400000Y-6700000D01*
X18400000Y-6880000D02*
X18440000Y-6920000D01*
X18440000Y-6880000D02*
X18400000Y-6920000D01*
X18436935Y-6522618D02*
X18476935Y-6562618D01*
X18476935Y-6522618D02*
X18436935Y-6562618D01*
X18500000Y-6220000D02*
X18540000Y-6260000D01*
X18540000Y-6220000D02*
X18500000Y-6260000D01*
X18500000Y-7510000D02*
X18540000Y-7550000D01*
X18540000Y-7510000D02*
X18500000Y-7550000D01*
X18529584Y-6522189D02*
X18569584Y-6562189D01*
X18569584Y-6522189D02*
X18529584Y-6562189D01*
X18560000Y-6300000D02*
X18600000Y-6340000D01*
X18600000Y-6300000D02*
X18560000Y-6340000D01*
X18600000Y-10645460D02*
X18640000Y-10685460D01*
X18640000Y-10645460D02*
X18600000Y-10685460D01*
X18627410Y-12372660D02*
X18667410Y-12412660D01*
X18667410Y-12372660D02*
X18627410Y-12412660D01*
X18627410Y-12626660D02*
X18667410Y-12666660D01*
X18667410Y-12626660D02*
X18627410Y-12666660D01*
X18627410Y-12880660D02*
X18667410Y-12920660D01*
X18667410Y-12880660D02*
X18627410Y-12920660D01*
X18627410Y-13134660D02*
X18667410Y-13174660D01*
X18667410Y-13134660D02*
X18627410Y-13174660D01*
X18627410Y-13388660D02*
X18667410Y-13428660D01*
X18667410Y-13388660D02*
X18627410Y-13428660D01*
X18652650Y-6300000D02*
X18692650Y-6340000D01*
X18692650Y-6300000D02*
X18652650Y-6340000D01*
X18660000Y-8580000D02*
X18700000Y-8620000D01*
X18700000Y-8580000D02*
X18660000Y-8620000D01*
X18670000Y-9460000D02*
X18710000Y-9500000D01*
X18710000Y-9460000D02*
X18670000Y-9500000D01*
X18780000Y-6890000D02*
X18820000Y-6930000D01*
X18820000Y-6890000D02*
X18780000Y-6930000D01*
X18840000Y-6130000D02*
X18880000Y-6170000D01*
X18880000Y-6130000D02*
X18840000Y-6170000D01*
X18860000Y-14680000D02*
X18900000Y-14720000D01*
X18900000Y-14680000D02*
X18860000Y-14720000D01*
X18950000Y-6130000D02*
X18990000Y-6170000D01*
X18990000Y-6130000D02*
X18950000Y-6170000D01*
X19000000Y-8390000D02*
X19040000Y-8430000D01*
X19040000Y-8390000D02*
X19000000Y-8430000D01*
X19060000Y-5900000D02*
X19100000Y-5940000D01*
X19100000Y-5900000D02*
X19060000Y-5940000D01*
X19250000Y-6760000D02*
X19290000Y-6800000D01*
X19290000Y-6760000D02*
X19250000Y-6800000D01*
X19340000Y-7260000D02*
X19380000Y-7300000D01*
X19380000Y-7260000D02*
X19340000Y-7300000D01*
X19470000Y-7260000D02*
X19510000Y-7300000D01*
X19510000Y-7260000D02*
X19470000Y-7300000D01*
X19610000Y-7260000D02*
X19650000Y-7300000D01*
X19650000Y-7260000D02*
X19610000Y-7300000D01*
X19620000Y-11240000D02*
X19660000Y-11280000D01*
X19660000Y-11240000D02*
X19620000Y-11280000D01*
X19643410Y-9629460D02*
X19683410Y-9669460D01*
X19683410Y-9629460D02*
X19643410Y-9669460D01*
X19643410Y-10391460D02*
X19683410Y-10431460D01*
X19683410Y-10391460D02*
X19643410Y-10431460D01*
X19668810Y-11737660D02*
X19708810Y-11777660D01*
X19708810Y-11737660D02*
X19668810Y-11777660D01*
X19694210Y-13007660D02*
X19734210Y-13047660D01*
X19734210Y-13007660D02*
X19694210Y-13047660D01*
X19694210Y-13528360D02*
X19734210Y-13568360D01*
X19734210Y-13528360D02*
X19694210Y-13568360D01*
D13*
X16090000Y-5800000D02*
G75*
G03*
X16090000Y-5800000I-32500J0D01*
G01*
D11*
X16090000Y-5840000D02*
X16090000Y-5760000D01*
X16025000Y-5840000D02*
X16025000Y-5760000D01*
X16090000Y-5760000D02*
G75*
G03*
X16025000Y-5760000I-32500J0D01*
G01*
X16025000Y-5840000D02*
G75*
G03*
X16090000Y-5840000I32500J0D01*
G01*
D13*
X16090000Y-6217000D02*
G75*
G03*
X16090000Y-6217000I-32500J0D01*
G01*
D11*
X16090000Y-6272000D02*
X16090000Y-6162000D01*
X16025000Y-6272000D02*
X16025000Y-6162000D01*
X16090000Y-6162000D02*
G75*
G03*
X16025000Y-6162000I-32500J0D01*
G01*
X16025000Y-6272000D02*
G75*
G03*
X16090000Y-6272000I32500J0D01*
G01*
D13*
X16955000Y-5800000D02*
G75*
G03*
X16955000Y-5800000I-32500J0D01*
G01*
D11*
X16955000Y-5840000D02*
X16955000Y-5760000D01*
X16890000Y-5840000D02*
X16890000Y-5760000D01*
X16955000Y-5760000D02*
G75*
G03*
X16890000Y-5760000I-32500J0D01*
G01*
X16890000Y-5840000D02*
G75*
G03*
X16955000Y-5840000I32500J0D01*
G01*
D13*
X16955000Y-6217000D02*
G75*
G03*
X16955000Y-6217000I-32500J0D01*
G01*
D11*
X16955000Y-6272000D02*
X16955000Y-6162000D01*
X16890000Y-6272000D02*
X16890000Y-6162000D01*
X16955000Y-6162000D02*
G75*
G03*
X16890000Y-6162000I-32500J0D01*
G01*
X16890000Y-6272000D02*
G75*
G03*
X16955000Y-6272000I32500J0D01*
G01*
D14*
X10160000Y-8916200D02*
X10160000Y-9016200D01*
X10110000Y-8966200D02*
X10210000Y-8966200D01*
X10160000Y-9170200D02*
X10160000Y-9270200D01*
X10110000Y-9220200D02*
X10210000Y-9220200D01*
X10160000Y-9424200D02*
X10160000Y-9524200D01*
X10110000Y-9474200D02*
X10210000Y-9474200D01*
X10160000Y-9678200D02*
X10160000Y-9778200D01*
X10110000Y-9728200D02*
X10210000Y-9728200D01*
X10160000Y-9932200D02*
X10160000Y-10032200D01*
X10110000Y-9982200D02*
X10210000Y-9982200D01*
X10160000Y-10186200D02*
X10160000Y-10286200D01*
X10110000Y-10236200D02*
X10210000Y-10236200D01*
X10160000Y-10440200D02*
X10160000Y-10540200D01*
X10110000Y-10490200D02*
X10210000Y-10490200D01*
X10160000Y-10694200D02*
X10160000Y-10794200D01*
X10110000Y-10744200D02*
X10210000Y-10744200D01*
X10160000Y-11100600D02*
X10160000Y-11200600D01*
X10110000Y-11150600D02*
X10210000Y-11150600D01*
X10160000Y-11354600D02*
X10160000Y-11454600D01*
X10110000Y-11404600D02*
X10210000Y-11404600D01*
X10160000Y-11608600D02*
X10160000Y-11708600D01*
X10110000Y-11658600D02*
X10210000Y-11658600D01*
X10160000Y-11862600D02*
X10160000Y-11962600D01*
X10110000Y-11912600D02*
X10210000Y-11912600D01*
X10160000Y-12116600D02*
X10160000Y-12216600D01*
X10110000Y-12166600D02*
X10210000Y-12166600D01*
X10160000Y-12370600D02*
X10160000Y-12470600D01*
X10110000Y-12420600D02*
X10210000Y-12420600D01*
X10160000Y-12624600D02*
X10160000Y-12724600D01*
X10110000Y-12674600D02*
X10210000Y-12674600D01*
X10160000Y-12878600D02*
X10160000Y-12978600D01*
X10110000Y-12928600D02*
X10210000Y-12928600D01*
X10160000Y-13290000D02*
X10160000Y-13390000D01*
X10110000Y-13340000D02*
X10210000Y-13340000D01*
X10160000Y-13544000D02*
X10160000Y-13644000D01*
X10110000Y-13594000D02*
X10210000Y-13594000D01*
X10160000Y-13798000D02*
X10160000Y-13898000D01*
X10110000Y-13848000D02*
X10210000Y-13848000D01*
X10160000Y-14052000D02*
X10160000Y-14152000D01*
X10110000Y-14102000D02*
X10210000Y-14102000D01*
X10160000Y-14306000D02*
X10160000Y-14406000D01*
X10110000Y-14356000D02*
X10210000Y-14356000D01*
X10160000Y-14560000D02*
X10160000Y-14660000D01*
X10110000Y-14610000D02*
X10210000Y-14610000D01*
X10414000Y-8916200D02*
X10414000Y-9016200D01*
X10364000Y-8966200D02*
X10464000Y-8966200D01*
X10414000Y-9170200D02*
X10414000Y-9270200D01*
X10364000Y-9220200D02*
X10464000Y-9220200D01*
X10414000Y-9424200D02*
X10414000Y-9524200D01*
X10364000Y-9474200D02*
X10464000Y-9474200D01*
X10414000Y-9678200D02*
X10414000Y-9778200D01*
X10364000Y-9728200D02*
X10464000Y-9728200D01*
X10414000Y-9932200D02*
X10414000Y-10032200D01*
X10364000Y-9982200D02*
X10464000Y-9982200D01*
X10414000Y-10186200D02*
X10414000Y-10286200D01*
X10364000Y-10236200D02*
X10464000Y-10236200D01*
X10414000Y-10440200D02*
X10414000Y-10540200D01*
X10364000Y-10490200D02*
X10464000Y-10490200D01*
X10414000Y-10694200D02*
X10414000Y-10794200D01*
X10364000Y-10744200D02*
X10464000Y-10744200D01*
X10414000Y-11100600D02*
X10414000Y-11200600D01*
X10364000Y-11150600D02*
X10464000Y-11150600D01*
X10414000Y-11354600D02*
X10414000Y-11454600D01*
X10364000Y-11404600D02*
X10464000Y-11404600D01*
X10414000Y-11608600D02*
X10414000Y-11708600D01*
X10364000Y-11658600D02*
X10464000Y-11658600D01*
X10414000Y-11862600D02*
X10414000Y-11962600D01*
X10364000Y-11912600D02*
X10464000Y-11912600D01*
X10414000Y-12116600D02*
X10414000Y-12216600D01*
X10364000Y-12166600D02*
X10464000Y-12166600D01*
X10414000Y-12370600D02*
X10414000Y-12470600D01*
X10364000Y-12420600D02*
X10464000Y-12420600D01*
X10414000Y-12624600D02*
X10414000Y-12724600D01*
X10364000Y-12674600D02*
X10464000Y-12674600D01*
X10414000Y-12878600D02*
X10414000Y-12978600D01*
X10364000Y-12928600D02*
X10464000Y-12928600D01*
X10414000Y-13290000D02*
X10414000Y-13390000D01*
X10364000Y-13340000D02*
X10464000Y-13340000D01*
X10414000Y-13544000D02*
X10414000Y-13644000D01*
X10364000Y-13594000D02*
X10464000Y-13594000D01*
X10414000Y-13798000D02*
X10414000Y-13898000D01*
X10364000Y-13848000D02*
X10464000Y-13848000D01*
X10414000Y-14052000D02*
X10414000Y-14152000D01*
X10364000Y-14102000D02*
X10464000Y-14102000D01*
X10414000Y-14306000D02*
X10414000Y-14406000D01*
X10364000Y-14356000D02*
X10464000Y-14356000D01*
X10414000Y-14560000D02*
X10414000Y-14660000D01*
X10364000Y-14610000D02*
X10464000Y-14610000D01*
X10795000Y-13290000D02*
X10795000Y-13390000D01*
X10745000Y-13340000D02*
X10845000Y-13340000D01*
X10795000Y-13544000D02*
X10795000Y-13644000D01*
X10745000Y-13594000D02*
X10845000Y-13594000D01*
X10795000Y-13798000D02*
X10795000Y-13898000D01*
X10745000Y-13848000D02*
X10845000Y-13848000D01*
X10795000Y-14052000D02*
X10795000Y-14152000D01*
X10745000Y-14102000D02*
X10845000Y-14102000D01*
X10795000Y-14306000D02*
X10795000Y-14406000D01*
X10745000Y-14356000D02*
X10845000Y-14356000D01*
X10795000Y-14560000D02*
X10795000Y-14660000D01*
X10745000Y-14610000D02*
X10845000Y-14610000D01*
X11049000Y-13290000D02*
X11049000Y-13390000D01*
X10999000Y-13340000D02*
X11099000Y-13340000D01*
X11049000Y-13544000D02*
X11049000Y-13644000D01*
X10999000Y-13594000D02*
X11099000Y-13594000D01*
X11049000Y-13798000D02*
X11049000Y-13898000D01*
X10999000Y-13848000D02*
X11099000Y-13848000D01*
X11049000Y-14052000D02*
X11049000Y-14152000D01*
X10999000Y-14102000D02*
X11099000Y-14102000D01*
X11049000Y-14306000D02*
X11049000Y-14406000D01*
X10999000Y-14356000D02*
X11099000Y-14356000D01*
X11049000Y-14560000D02*
X11049000Y-14660000D01*
X10999000Y-14610000D02*
X11099000Y-14610000D01*
X11302500Y-8916200D02*
X11302500Y-9016200D01*
X11252500Y-8966200D02*
X11352500Y-8966200D01*
X11302500Y-9170200D02*
X11302500Y-9270200D01*
X11252500Y-9220200D02*
X11352500Y-9220200D01*
X11302500Y-9424200D02*
X11302500Y-9524200D01*
X11252500Y-9474200D02*
X11352500Y-9474200D01*
X11302500Y-9678200D02*
X11302500Y-9778200D01*
X11252500Y-9728200D02*
X11352500Y-9728200D01*
X11302500Y-9932200D02*
X11302500Y-10032200D01*
X11252500Y-9982200D02*
X11352500Y-9982200D01*
X11302500Y-10186200D02*
X11302500Y-10286200D01*
X11252500Y-10236200D02*
X11352500Y-10236200D01*
X11302500Y-10440200D02*
X11302500Y-10540200D01*
X11252500Y-10490200D02*
X11352500Y-10490200D01*
X11302500Y-10694200D02*
X11302500Y-10794200D01*
X11252500Y-10744200D02*
X11352500Y-10744200D01*
X11302500Y-11100600D02*
X11302500Y-11200600D01*
X11252500Y-11150600D02*
X11352500Y-11150600D01*
X11302500Y-11354600D02*
X11302500Y-11454600D01*
X11252500Y-11404600D02*
X11352500Y-11404600D01*
X11302500Y-11608600D02*
X11302500Y-11708600D01*
X11252500Y-11658600D02*
X11352500Y-11658600D01*
X11302500Y-11862600D02*
X11302500Y-11962600D01*
X11252500Y-11912600D02*
X11352500Y-11912600D01*
X11302500Y-12116600D02*
X11302500Y-12216600D01*
X11252500Y-12166600D02*
X11352500Y-12166600D01*
X11302500Y-12370600D02*
X11302500Y-12470600D01*
X11252500Y-12420600D02*
X11352500Y-12420600D01*
X11302500Y-12624600D02*
X11302500Y-12724600D01*
X11252500Y-12674600D02*
X11352500Y-12674600D01*
X11302500Y-12878600D02*
X11302500Y-12978600D01*
X11252500Y-12928600D02*
X11352500Y-12928600D01*
X11430000Y-13290000D02*
X11430000Y-13390000D01*
X11380000Y-13340000D02*
X11480000Y-13340000D01*
X11430000Y-13544000D02*
X11430000Y-13644000D01*
X11380000Y-13594000D02*
X11480000Y-13594000D01*
X11430000Y-13798000D02*
X11430000Y-13898000D01*
X11380000Y-13848000D02*
X11480000Y-13848000D01*
X11430000Y-14052000D02*
X11430000Y-14152000D01*
X11380000Y-14102000D02*
X11480000Y-14102000D01*
X11430000Y-14306000D02*
X11430000Y-14406000D01*
X11380000Y-14356000D02*
X11480000Y-14356000D01*
X11430000Y-14560000D02*
X11430000Y-14660000D01*
X11380000Y-14610000D02*
X11480000Y-14610000D01*
X11556500Y-8916200D02*
X11556500Y-9016200D01*
X11506500Y-8966200D02*
X11606500Y-8966200D01*
X11556500Y-9170200D02*
X11556500Y-9270200D01*
X11506500Y-9220200D02*
X11606500Y-9220200D01*
X11556500Y-9424200D02*
X11556500Y-9524200D01*
X11506500Y-9474200D02*
X11606500Y-9474200D01*
X11556500Y-9678200D02*
X11556500Y-9778200D01*
X11506500Y-9728200D02*
X11606500Y-9728200D01*
X11556500Y-9932200D02*
X11556500Y-10032200D01*
X11506500Y-9982200D02*
X11606500Y-9982200D01*
X11556500Y-10186200D02*
X11556500Y-10286200D01*
X11506500Y-10236200D02*
X11606500Y-10236200D01*
X11556500Y-10440200D02*
X11556500Y-10540200D01*
X11506500Y-10490200D02*
X11606500Y-10490200D01*
X11556500Y-10694200D02*
X11556500Y-10794200D01*
X11506500Y-10744200D02*
X11606500Y-10744200D01*
X11556500Y-11100600D02*
X11556500Y-11200600D01*
X11506500Y-11150600D02*
X11606500Y-11150600D01*
X11556500Y-11354600D02*
X11556500Y-11454600D01*
X11506500Y-11404600D02*
X11606500Y-11404600D01*
X11556500Y-11608600D02*
X11556500Y-11708600D01*
X11506500Y-11658600D02*
X11606500Y-11658600D01*
X11556500Y-11862600D02*
X11556500Y-11962600D01*
X11506500Y-11912600D02*
X11606500Y-11912600D01*
X11556500Y-12116600D02*
X11556500Y-12216600D01*
X11506500Y-12166600D02*
X11606500Y-12166600D01*
X11556500Y-12370600D02*
X11556500Y-12470600D01*
X11506500Y-12420600D02*
X11606500Y-12420600D01*
X11556500Y-12624600D02*
X11556500Y-12724600D01*
X11506500Y-12674600D02*
X11606500Y-12674600D01*
X11556500Y-12878600D02*
X11556500Y-12978600D01*
X11506500Y-12928600D02*
X11606500Y-12928600D01*
X11684000Y-13290000D02*
X11684000Y-13390000D01*
X11634000Y-13340000D02*
X11734000Y-13340000D01*
X11684000Y-13544000D02*
X11684000Y-13644000D01*
X11634000Y-13594000D02*
X11734000Y-13594000D01*
X11684000Y-13798000D02*
X11684000Y-13898000D01*
X11634000Y-13848000D02*
X11734000Y-13848000D01*
X11684000Y-14052000D02*
X11684000Y-14152000D01*
X11634000Y-14102000D02*
X11734000Y-14102000D01*
X11684000Y-14306000D02*
X11684000Y-14406000D01*
X11634000Y-14356000D02*
X11734000Y-14356000D01*
X11684000Y-14560000D02*
X11684000Y-14660000D01*
X11634000Y-14610000D02*
X11734000Y-14610000D01*
X12065000Y-13290000D02*
X12065000Y-13390000D01*
X12015000Y-13340000D02*
X12115000Y-13340000D01*
X12065000Y-13544000D02*
X12065000Y-13644000D01*
X12015000Y-13594000D02*
X12115000Y-13594000D01*
X12065000Y-13798000D02*
X12065000Y-13898000D01*
X12015000Y-13848000D02*
X12115000Y-13848000D01*
X12065000Y-14052000D02*
X12065000Y-14152000D01*
X12015000Y-14102000D02*
X12115000Y-14102000D01*
X12065000Y-14306000D02*
X12065000Y-14406000D01*
X12015000Y-14356000D02*
X12115000Y-14356000D01*
X12065000Y-14560000D02*
X12065000Y-14660000D01*
X12015000Y-14610000D02*
X12115000Y-14610000D01*
X12319000Y-13290000D02*
X12319000Y-13390000D01*
X12269000Y-13340000D02*
X12369000Y-13340000D01*
X12319000Y-13544000D02*
X12319000Y-13644000D01*
X12269000Y-13594000D02*
X12369000Y-13594000D01*
X12319000Y-13798000D02*
X12319000Y-13898000D01*
X12269000Y-13848000D02*
X12369000Y-13848000D01*
X12319000Y-14052000D02*
X12319000Y-14152000D01*
X12269000Y-14102000D02*
X12369000Y-14102000D01*
X12319000Y-14306000D02*
X12319000Y-14406000D01*
X12269000Y-14356000D02*
X12369000Y-14356000D01*
X12319000Y-14560000D02*
X12319000Y-14660000D01*
X12269000Y-14610000D02*
X12369000Y-14610000D01*
X12446000Y-8916200D02*
X12446000Y-9016200D01*
X12396000Y-8966200D02*
X12496000Y-8966200D01*
X12446000Y-9170200D02*
X12446000Y-9270200D01*
X12396000Y-9220200D02*
X12496000Y-9220200D01*
X12446000Y-9424200D02*
X12446000Y-9524200D01*
X12396000Y-9474200D02*
X12496000Y-9474200D01*
X12446000Y-9678200D02*
X12446000Y-9778200D01*
X12396000Y-9728200D02*
X12496000Y-9728200D01*
X12446000Y-9932200D02*
X12446000Y-10032200D01*
X12396000Y-9982200D02*
X12496000Y-9982200D01*
X12446000Y-10186200D02*
X12446000Y-10286200D01*
X12396000Y-10236200D02*
X12496000Y-10236200D01*
X12446000Y-10440200D02*
X12446000Y-10540200D01*
X12396000Y-10490200D02*
X12496000Y-10490200D01*
X12446000Y-10694200D02*
X12446000Y-10794200D01*
X12396000Y-10744200D02*
X12496000Y-10744200D01*
X12446000Y-11100600D02*
X12446000Y-11200600D01*
X12396000Y-11150600D02*
X12496000Y-11150600D01*
X12446000Y-11354600D02*
X12446000Y-11454600D01*
X12396000Y-11404600D02*
X12496000Y-11404600D01*
X12446000Y-11608600D02*
X12446000Y-11708600D01*
X12396000Y-11658600D02*
X12496000Y-11658600D01*
X12446000Y-11862600D02*
X12446000Y-11962600D01*
X12396000Y-11912600D02*
X12496000Y-11912600D01*
X12446000Y-12116600D02*
X12446000Y-12216600D01*
X12396000Y-12166600D02*
X12496000Y-12166600D01*
X12446000Y-12370600D02*
X12446000Y-12470600D01*
X12396000Y-12420600D02*
X12496000Y-12420600D01*
X12446000Y-12624600D02*
X12446000Y-12724600D01*
X12396000Y-12674600D02*
X12496000Y-12674600D01*
X12446000Y-12878600D02*
X12446000Y-12978600D01*
X12396000Y-12928600D02*
X12496000Y-12928600D01*
X12700000Y-8916200D02*
X12700000Y-9016200D01*
X12650000Y-8966200D02*
X12750000Y-8966200D01*
X12700000Y-9170200D02*
X12700000Y-9270200D01*
X12650000Y-9220200D02*
X12750000Y-9220200D01*
X12700000Y-9424200D02*
X12700000Y-9524200D01*
X12650000Y-9474200D02*
X12750000Y-9474200D01*
X12700000Y-9678200D02*
X12700000Y-9778200D01*
X12650000Y-9728200D02*
X12750000Y-9728200D01*
X12700000Y-9932200D02*
X12700000Y-10032200D01*
X12650000Y-9982200D02*
X12750000Y-9982200D01*
X12700000Y-10186200D02*
X12700000Y-10286200D01*
X12650000Y-10236200D02*
X12750000Y-10236200D01*
X12700000Y-10440200D02*
X12700000Y-10540200D01*
X12650000Y-10490200D02*
X12750000Y-10490200D01*
X12700000Y-10694200D02*
X12700000Y-10794200D01*
X12650000Y-10744200D02*
X12750000Y-10744200D01*
X12700000Y-11100600D02*
X12700000Y-11200600D01*
X12650000Y-11150600D02*
X12750000Y-11150600D01*
X12700000Y-11354600D02*
X12700000Y-11454600D01*
X12650000Y-11404600D02*
X12750000Y-11404600D01*
X12700000Y-11608600D02*
X12700000Y-11708600D01*
X12650000Y-11658600D02*
X12750000Y-11658600D01*
X12700000Y-11862600D02*
X12700000Y-11962600D01*
X12650000Y-11912600D02*
X12750000Y-11912600D01*
X12700000Y-12116600D02*
X12700000Y-12216600D01*
X12650000Y-12166600D02*
X12750000Y-12166600D01*
X12700000Y-12370600D02*
X12700000Y-12470600D01*
X12650000Y-12420600D02*
X12750000Y-12420600D01*
X12700000Y-12624600D02*
X12700000Y-12724600D01*
X12650000Y-12674600D02*
X12750000Y-12674600D01*
X12700000Y-12878600D02*
X12700000Y-12978600D01*
X12650000Y-12928600D02*
X12750000Y-12928600D01*
X12700000Y-13290000D02*
X12700000Y-13390000D01*
X12650000Y-13340000D02*
X12750000Y-13340000D01*
X12700000Y-13544000D02*
X12700000Y-13644000D01*
X12650000Y-13594000D02*
X12750000Y-13594000D01*
X12700000Y-13798000D02*
X12700000Y-13898000D01*
X12650000Y-13848000D02*
X12750000Y-13848000D01*
X12700000Y-14052000D02*
X12700000Y-14152000D01*
X12650000Y-14102000D02*
X12750000Y-14102000D01*
X12700000Y-14306000D02*
X12700000Y-14406000D01*
X12650000Y-14356000D02*
X12750000Y-14356000D01*
X12700000Y-14560000D02*
X12700000Y-14660000D01*
X12650000Y-14610000D02*
X12750000Y-14610000D01*
X12954000Y-13290000D02*
X12954000Y-13390000D01*
X12904000Y-13340000D02*
X13004000Y-13340000D01*
X12954000Y-13544000D02*
X12954000Y-13644000D01*
X12904000Y-13594000D02*
X13004000Y-13594000D01*
X12954000Y-13798000D02*
X12954000Y-13898000D01*
X12904000Y-13848000D02*
X13004000Y-13848000D01*
X12954000Y-14052000D02*
X12954000Y-14152000D01*
X12904000Y-14102000D02*
X13004000Y-14102000D01*
X12954000Y-14306000D02*
X12954000Y-14406000D01*
X12904000Y-14356000D02*
X13004000Y-14356000D01*
X12954000Y-14560000D02*
X12954000Y-14660000D01*
X12904000Y-14610000D02*
X13004000Y-14610000D01*
X13335000Y-13290000D02*
X13335000Y-13390000D01*
X13285000Y-13340000D02*
X13385000Y-13340000D01*
X13335000Y-13544000D02*
X13335000Y-13644000D01*
X13285000Y-13594000D02*
X13385000Y-13594000D01*
X13335000Y-13798000D02*
X13335000Y-13898000D01*
X13285000Y-13848000D02*
X13385000Y-13848000D01*
X13335000Y-14052000D02*
X13335000Y-14152000D01*
X13285000Y-14102000D02*
X13385000Y-14102000D01*
X13335000Y-14306000D02*
X13335000Y-14406000D01*
X13285000Y-14356000D02*
X13385000Y-14356000D01*
X13335000Y-14560000D02*
X13335000Y-14660000D01*
X13285000Y-14610000D02*
X13385000Y-14610000D01*
X13589000Y-8916200D02*
X13589000Y-9016200D01*
X13539000Y-8966200D02*
X13639000Y-8966200D01*
X13589000Y-9170200D02*
X13589000Y-9270200D01*
X13539000Y-9220200D02*
X13639000Y-9220200D01*
X13589000Y-9424200D02*
X13589000Y-9524200D01*
X13539000Y-9474200D02*
X13639000Y-9474200D01*
X13589000Y-9678200D02*
X13589000Y-9778200D01*
X13539000Y-9728200D02*
X13639000Y-9728200D01*
X13589000Y-9932200D02*
X13589000Y-10032200D01*
X13539000Y-9982200D02*
X13639000Y-9982200D01*
X13589000Y-10186200D02*
X13589000Y-10286200D01*
X13539000Y-10236200D02*
X13639000Y-10236200D01*
X13589000Y-10440200D02*
X13589000Y-10540200D01*
X13539000Y-10490200D02*
X13639000Y-10490200D01*
X13589000Y-10694200D02*
X13589000Y-10794200D01*
X13539000Y-10744200D02*
X13639000Y-10744200D01*
X13589000Y-11100600D02*
X13589000Y-11200600D01*
X13539000Y-11150600D02*
X13639000Y-11150600D01*
X13589000Y-11354600D02*
X13589000Y-11454600D01*
X13539000Y-11404600D02*
X13639000Y-11404600D01*
X13589000Y-11608600D02*
X13589000Y-11708600D01*
X13539000Y-11658600D02*
X13639000Y-11658600D01*
X13589000Y-11862600D02*
X13589000Y-11962600D01*
X13539000Y-11912600D02*
X13639000Y-11912600D01*
X13589000Y-12116600D02*
X13589000Y-12216600D01*
X13539000Y-12166600D02*
X13639000Y-12166600D01*
X13589000Y-12370600D02*
X13589000Y-12470600D01*
X13539000Y-12420600D02*
X13639000Y-12420600D01*
X13589000Y-12624600D02*
X13589000Y-12724600D01*
X13539000Y-12674600D02*
X13639000Y-12674600D01*
X13589000Y-12878600D02*
X13589000Y-12978600D01*
X13539000Y-12928600D02*
X13639000Y-12928600D01*
X13589000Y-13290000D02*
X13589000Y-13390000D01*
X13539000Y-13340000D02*
X13639000Y-13340000D01*
X13589000Y-13544000D02*
X13589000Y-13644000D01*
X13539000Y-13594000D02*
X13639000Y-13594000D01*
X13589000Y-13798000D02*
X13589000Y-13898000D01*
X13539000Y-13848000D02*
X13639000Y-13848000D01*
X13589000Y-14052000D02*
X13589000Y-14152000D01*
X13539000Y-14102000D02*
X13639000Y-14102000D01*
X13589000Y-14306000D02*
X13589000Y-14406000D01*
X13539000Y-14356000D02*
X13639000Y-14356000D01*
X13589000Y-14560000D02*
X13589000Y-14660000D01*
X13539000Y-14610000D02*
X13639000Y-14610000D01*
X13843000Y-8916200D02*
X13843000Y-9016200D01*
X13793000Y-8966200D02*
X13893000Y-8966200D01*
X13843000Y-9170200D02*
X13843000Y-9270200D01*
X13793000Y-9220200D02*
X13893000Y-9220200D01*
X13843000Y-9424200D02*
X13843000Y-9524200D01*
X13793000Y-9474200D02*
X13893000Y-9474200D01*
X13843000Y-9678200D02*
X13843000Y-9778200D01*
X13793000Y-9728200D02*
X13893000Y-9728200D01*
X13843000Y-9932200D02*
X13843000Y-10032200D01*
X13793000Y-9982200D02*
X13893000Y-9982200D01*
X13843000Y-10186200D02*
X13843000Y-10286200D01*
X13793000Y-10236200D02*
X13893000Y-10236200D01*
X13843000Y-10440200D02*
X13843000Y-10540200D01*
X13793000Y-10490200D02*
X13893000Y-10490200D01*
X13843000Y-10694200D02*
X13843000Y-10794200D01*
X13793000Y-10744200D02*
X13893000Y-10744200D01*
X13843000Y-11100600D02*
X13843000Y-11200600D01*
X13793000Y-11150600D02*
X13893000Y-11150600D01*
X13843000Y-11354600D02*
X13843000Y-11454600D01*
X13793000Y-11404600D02*
X13893000Y-11404600D01*
X13843000Y-11608600D02*
X13843000Y-11708600D01*
X13793000Y-11658600D02*
X13893000Y-11658600D01*
X13843000Y-11862600D02*
X13843000Y-11962600D01*
X13793000Y-11912600D02*
X13893000Y-11912600D01*
X13843000Y-12116600D02*
X13843000Y-12216600D01*
X13793000Y-12166600D02*
X13893000Y-12166600D01*
X13843000Y-12370600D02*
X13843000Y-12470600D01*
X13793000Y-12420600D02*
X13893000Y-12420600D01*
X13843000Y-12624600D02*
X13843000Y-12724600D01*
X13793000Y-12674600D02*
X13893000Y-12674600D01*
X13843000Y-12878600D02*
X13843000Y-12978600D01*
X13793000Y-12928600D02*
X13893000Y-12928600D01*
X13970000Y-13290000D02*
X13970000Y-13390000D01*
X13920000Y-13340000D02*
X14020000Y-13340000D01*
X13970000Y-13544000D02*
X13970000Y-13644000D01*
X13920000Y-13594000D02*
X14020000Y-13594000D01*
X13970000Y-13798000D02*
X13970000Y-13898000D01*
X13920000Y-13848000D02*
X14020000Y-13848000D01*
X13970000Y-14052000D02*
X13970000Y-14152000D01*
X13920000Y-14102000D02*
X14020000Y-14102000D01*
X13970000Y-14306000D02*
X13970000Y-14406000D01*
X13920000Y-14356000D02*
X14020000Y-14356000D01*
X13970000Y-14560000D02*
X13970000Y-14660000D01*
X13920000Y-14610000D02*
X14020000Y-14610000D01*
X14224000Y-13290000D02*
X14224000Y-13390000D01*
X14174000Y-13340000D02*
X14274000Y-13340000D01*
X14224000Y-13544000D02*
X14224000Y-13644000D01*
X14174000Y-13594000D02*
X14274000Y-13594000D01*
X14224000Y-13798000D02*
X14224000Y-13898000D01*
X14174000Y-13848000D02*
X14274000Y-13848000D01*
X14224000Y-14052000D02*
X14224000Y-14152000D01*
X14174000Y-14102000D02*
X14274000Y-14102000D01*
X14224000Y-14306000D02*
X14224000Y-14406000D01*
X14174000Y-14356000D02*
X14274000Y-14356000D01*
X14224000Y-14560000D02*
X14224000Y-14660000D01*
X14174000Y-14610000D02*
X14274000Y-14610000D01*
X14605000Y-13290000D02*
X14605000Y-13390000D01*
X14555000Y-13340000D02*
X14655000Y-13340000D01*
X14605000Y-13544000D02*
X14605000Y-13644000D01*
X14555000Y-13594000D02*
X14655000Y-13594000D01*
X14605000Y-13798000D02*
X14605000Y-13898000D01*
X14555000Y-13848000D02*
X14655000Y-13848000D01*
X14605000Y-14052000D02*
X14605000Y-14152000D01*
X14555000Y-14102000D02*
X14655000Y-14102000D01*
X14605000Y-14306000D02*
X14605000Y-14406000D01*
X14555000Y-14356000D02*
X14655000Y-14356000D01*
X14605000Y-14560000D02*
X14605000Y-14660000D01*
X14555000Y-14610000D02*
X14655000Y-14610000D01*
X14859000Y-13290000D02*
X14859000Y-13390000D01*
X14809000Y-13340000D02*
X14909000Y-13340000D01*
X14859000Y-13544000D02*
X14859000Y-13644000D01*
X14809000Y-13594000D02*
X14909000Y-13594000D01*
X14859000Y-13798000D02*
X14859000Y-13898000D01*
X14809000Y-13848000D02*
X14909000Y-13848000D01*
X14859000Y-14052000D02*
X14859000Y-14152000D01*
X14809000Y-14102000D02*
X14909000Y-14102000D01*
X14859000Y-14306000D02*
X14859000Y-14406000D01*
X14809000Y-14356000D02*
X14909000Y-14356000D01*
X14859000Y-14560000D02*
X14859000Y-14660000D01*
X14809000Y-14610000D02*
X14909000Y-14610000D01*
X15780000Y-6840000D02*
X15780000Y-6940000D01*
X15730000Y-6890000D02*
X15830000Y-6890000D01*
X15780000Y-7094000D02*
X15780000Y-7194000D01*
X15730000Y-7144000D02*
X15830000Y-7144000D01*
X16170000Y-6842500D02*
X16170000Y-6942500D01*
X16120000Y-6892500D02*
X16220000Y-6892500D01*
X16170000Y-7096500D02*
X16170000Y-7196500D01*
X16120000Y-7146500D02*
X16220000Y-7146500D01*
X17955500Y-9220000D02*
X17955500Y-9320000D01*
X17905500Y-9270000D02*
X18005500Y-9270000D01*
X17955500Y-9474000D02*
X17955500Y-9574000D01*
X17905500Y-9524000D02*
X18005500Y-9524000D01*
X17955500Y-9728000D02*
X17955500Y-9828000D01*
X17905500Y-9778000D02*
X18005500Y-9778000D01*
X17955500Y-9982000D02*
X17955500Y-10082000D01*
X17905500Y-10032000D02*
X18005500Y-10032000D01*
X17955500Y-10236000D02*
X17955500Y-10336000D01*
X17905500Y-10286000D02*
X18005500Y-10286000D01*
X17955500Y-10490000D02*
X17955500Y-10590000D01*
X17905500Y-10540000D02*
X18005500Y-10540000D01*
X17955500Y-10744000D02*
X17955500Y-10844000D01*
X17905500Y-10794000D02*
X18005500Y-10794000D01*
X17955500Y-10998000D02*
X17955500Y-11098000D01*
X17905500Y-11048000D02*
X18005500Y-11048000D01*
X17955500Y-11590000D02*
X17955500Y-11690000D01*
X17905500Y-11640000D02*
X18005500Y-11640000D01*
X17955500Y-11844000D02*
X17955500Y-11944000D01*
X17905500Y-11894000D02*
X18005500Y-11894000D01*
X17955500Y-12098000D02*
X17955500Y-12198000D01*
X17905500Y-12148000D02*
X18005500Y-12148000D01*
X17955500Y-12352000D02*
X17955500Y-12452000D01*
X17905500Y-12402000D02*
X18005500Y-12402000D01*
X17955500Y-12606000D02*
X17955500Y-12706000D01*
X17905500Y-12656000D02*
X18005500Y-12656000D01*
X17955500Y-12860000D02*
X17955500Y-12960000D01*
X17905500Y-12910000D02*
X18005500Y-12910000D01*
X17955500Y-13114000D02*
X17955500Y-13214000D01*
X17905500Y-13164000D02*
X18005500Y-13164000D01*
X17955500Y-13368000D02*
X17955500Y-13468000D01*
X17905500Y-13418000D02*
X18005500Y-13418000D01*
X18209500Y-9220000D02*
X18209500Y-9320000D01*
X18159500Y-9270000D02*
X18259500Y-9270000D01*
X18209500Y-9474000D02*
X18209500Y-9574000D01*
X18159500Y-9524000D02*
X18259500Y-9524000D01*
X18209500Y-9728000D02*
X18209500Y-9828000D01*
X18159500Y-9778000D02*
X18259500Y-9778000D01*
X18209500Y-9982000D02*
X18209500Y-10082000D01*
X18159500Y-10032000D02*
X18259500Y-10032000D01*
X18209500Y-10236000D02*
X18209500Y-10336000D01*
X18159500Y-10286000D02*
X18259500Y-10286000D01*
X18209500Y-10490000D02*
X18209500Y-10590000D01*
X18159500Y-10540000D02*
X18259500Y-10540000D01*
X18209500Y-10744000D02*
X18209500Y-10844000D01*
X18159500Y-10794000D02*
X18259500Y-10794000D01*
X18209500Y-10998000D02*
X18209500Y-11098000D01*
X18159500Y-11048000D02*
X18259500Y-11048000D01*
X18209500Y-11590000D02*
X18209500Y-11690000D01*
X18159500Y-11640000D02*
X18259500Y-11640000D01*
X18209500Y-11844000D02*
X18209500Y-11944000D01*
X18159500Y-11894000D02*
X18259500Y-11894000D01*
X18209500Y-12098000D02*
X18209500Y-12198000D01*
X18159500Y-12148000D02*
X18259500Y-12148000D01*
X18209500Y-12352000D02*
X18209500Y-12452000D01*
X18159500Y-12402000D02*
X18259500Y-12402000D01*
X18209500Y-12606000D02*
X18209500Y-12706000D01*
X18159500Y-12656000D02*
X18259500Y-12656000D01*
X18209500Y-12860000D02*
X18209500Y-12960000D01*
X18159500Y-12910000D02*
X18259500Y-12910000D01*
X18209500Y-13114000D02*
X18209500Y-13214000D01*
X18159500Y-13164000D02*
X18259500Y-13164000D01*
X18209500Y-13368000D02*
X18209500Y-13468000D01*
X18159500Y-13418000D02*
X18259500Y-13418000D01*
X18463500Y-9220000D02*
X18463500Y-9320000D01*
X18413500Y-9270000D02*
X18513500Y-9270000D01*
X18463500Y-9474000D02*
X18463500Y-9574000D01*
X18413500Y-9524000D02*
X18513500Y-9524000D01*
X18463500Y-9728000D02*
X18463500Y-9828000D01*
X18413500Y-9778000D02*
X18513500Y-9778000D01*
X18463500Y-9982000D02*
X18463500Y-10082000D01*
X18413500Y-10032000D02*
X18513500Y-10032000D01*
X18463500Y-10236000D02*
X18463500Y-10336000D01*
X18413500Y-10286000D02*
X18513500Y-10286000D01*
X18463500Y-10490000D02*
X18463500Y-10590000D01*
X18413500Y-10540000D02*
X18513500Y-10540000D01*
X18463500Y-10744000D02*
X18463500Y-10844000D01*
X18413500Y-10794000D02*
X18513500Y-10794000D01*
X18463500Y-10998000D02*
X18463500Y-11098000D01*
X18413500Y-11048000D02*
X18513500Y-11048000D01*
X18463500Y-11590000D02*
X18463500Y-11690000D01*
X18413500Y-11640000D02*
X18513500Y-11640000D01*
X18463500Y-11844000D02*
X18463500Y-11944000D01*
X18413500Y-11894000D02*
X18513500Y-11894000D01*
X18463500Y-12098000D02*
X18463500Y-12198000D01*
X18413500Y-12148000D02*
X18513500Y-12148000D01*
X18463500Y-12352000D02*
X18463500Y-12452000D01*
X18413500Y-12402000D02*
X18513500Y-12402000D01*
X18463500Y-12606000D02*
X18463500Y-12706000D01*
X18413500Y-12656000D02*
X18513500Y-12656000D01*
X18463500Y-12860000D02*
X18463500Y-12960000D01*
X18413500Y-12910000D02*
X18513500Y-12910000D01*
X18463500Y-13114000D02*
X18463500Y-13214000D01*
X18413500Y-13164000D02*
X18513500Y-13164000D01*
X18463500Y-13368000D02*
X18463500Y-13468000D01*
X18413500Y-13418000D02*
X18513500Y-13418000D01*
X18760000Y-7910000D02*
X18760000Y-8010000D01*
X18710000Y-7960000D02*
X18810000Y-7960000D01*
X18760000Y-8164000D02*
X18760000Y-8264000D01*
X18710000Y-8214000D02*
X18810000Y-8214000D01*
X18760000Y-8418000D02*
X18760000Y-8518000D01*
X18710000Y-8468000D02*
X18810000Y-8468000D01*
X18760000Y-8672000D02*
X18760000Y-8772000D01*
X18710000Y-8722000D02*
X18810000Y-8722000D01*
X18996000Y-11590000D02*
X18996000Y-11690000D01*
X18946000Y-11640000D02*
X19046000Y-11640000D01*
X18996000Y-11844000D02*
X18996000Y-11944000D01*
X18946000Y-11894000D02*
X19046000Y-11894000D01*
X18996000Y-12098000D02*
X18996000Y-12198000D01*
X18946000Y-12148000D02*
X19046000Y-12148000D01*
X18996000Y-12352000D02*
X18996000Y-12452000D01*
X18946000Y-12402000D02*
X19046000Y-12402000D01*
X18996000Y-12606000D02*
X18996000Y-12706000D01*
X18946000Y-12656000D02*
X19046000Y-12656000D01*
X18996000Y-12860000D02*
X18996000Y-12960000D01*
X18946000Y-12910000D02*
X19046000Y-12910000D01*
X18996000Y-13114000D02*
X18996000Y-13214000D01*
X18946000Y-13164000D02*
X19046000Y-13164000D01*
X18996000Y-13368000D02*
X18996000Y-13468000D01*
X18946000Y-13418000D02*
X19046000Y-13418000D01*
X19000000Y-9220000D02*
X19000000Y-9320000D01*
X18950000Y-9270000D02*
X19050000Y-9270000D01*
X19000000Y-9474000D02*
X19000000Y-9574000D01*
X18950000Y-9524000D02*
X19050000Y-9524000D01*
X19000000Y-9728000D02*
X19000000Y-9828000D01*
X18950000Y-9778000D02*
X19050000Y-9778000D01*
X19000000Y-9982000D02*
X19000000Y-10082000D01*
X18950000Y-10032000D02*
X19050000Y-10032000D01*
X19000000Y-10236000D02*
X19000000Y-10336000D01*
X18950000Y-10286000D02*
X19050000Y-10286000D01*
X19000000Y-10490000D02*
X19000000Y-10590000D01*
X18950000Y-10540000D02*
X19050000Y-10540000D01*
X19000000Y-10744000D02*
X19000000Y-10844000D01*
X18950000Y-10794000D02*
X19050000Y-10794000D01*
X19000000Y-10998000D02*
X19000000Y-11098000D01*
X18950000Y-11048000D02*
X19050000Y-11048000D01*
X19040000Y-6340000D02*
X19040000Y-6440000D01*
X18990000Y-6390000D02*
X19090000Y-6390000D01*
X19250000Y-11590000D02*
X19250000Y-11690000D01*
X19200000Y-11640000D02*
X19300000Y-11640000D01*
X19250000Y-11844000D02*
X19250000Y-11944000D01*
X19200000Y-11894000D02*
X19300000Y-11894000D01*
X19250000Y-12098000D02*
X19250000Y-12198000D01*
X19200000Y-12148000D02*
X19300000Y-12148000D01*
X19250000Y-12352000D02*
X19250000Y-12452000D01*
X19200000Y-12402000D02*
X19300000Y-12402000D01*
X19250000Y-12606000D02*
X19250000Y-12706000D01*
X19200000Y-12656000D02*
X19300000Y-12656000D01*
X19250000Y-12860000D02*
X19250000Y-12960000D01*
X19200000Y-12910000D02*
X19300000Y-12910000D01*
X19250000Y-13114000D02*
X19250000Y-13214000D01*
X19200000Y-13164000D02*
X19300000Y-13164000D01*
X19250000Y-13368000D02*
X19250000Y-13468000D01*
X19200000Y-13418000D02*
X19300000Y-13418000D01*
X19254000Y-9220000D02*
X19254000Y-9320000D01*
X19204000Y-9270000D02*
X19304000Y-9270000D01*
X19254000Y-9474000D02*
X19254000Y-9574000D01*
X19204000Y-9524000D02*
X19304000Y-9524000D01*
X19254000Y-9728000D02*
X19254000Y-9828000D01*
X19204000Y-9778000D02*
X19304000Y-9778000D01*
X19254000Y-9982000D02*
X19254000Y-10082000D01*
X19204000Y-10032000D02*
X19304000Y-10032000D01*
X19254000Y-10236000D02*
X19254000Y-10336000D01*
X19204000Y-10286000D02*
X19304000Y-10286000D01*
X19254000Y-10490000D02*
X19254000Y-10590000D01*
X19204000Y-10540000D02*
X19304000Y-10540000D01*
X19254000Y-10744000D02*
X19254000Y-10844000D01*
X19204000Y-10794000D02*
X19304000Y-10794000D01*
X19254000Y-10998000D02*
X19254000Y-11098000D01*
X19204000Y-11048000D02*
X19304000Y-11048000D01*
X19294000Y-6340000D02*
X19294000Y-6440000D01*
X19244000Y-6390000D02*
X19344000Y-6390000D01*
X19440000Y-7910000D02*
X19440000Y-8010000D01*
X19390000Y-7960000D02*
X19490000Y-7960000D01*
X19440000Y-8164000D02*
X19440000Y-8264000D01*
X19390000Y-8214000D02*
X19490000Y-8214000D01*
X19440000Y-8418000D02*
X19440000Y-8518000D01*
X19390000Y-8468000D02*
X19490000Y-8468000D01*
X19440000Y-8672000D02*
X19440000Y-8772000D01*
X19390000Y-8722000D02*
X19490000Y-8722000D01*
X19504000Y-11590000D02*
X19504000Y-11690000D01*
X19454000Y-11640000D02*
X19554000Y-11640000D01*
X19504000Y-11844000D02*
X19504000Y-11944000D01*
X19454000Y-11894000D02*
X19554000Y-11894000D01*
X19504000Y-12098000D02*
X19504000Y-12198000D01*
X19454000Y-12148000D02*
X19554000Y-12148000D01*
X19504000Y-12352000D02*
X19504000Y-12452000D01*
X19454000Y-12402000D02*
X19554000Y-12402000D01*
X19504000Y-12606000D02*
X19504000Y-12706000D01*
X19454000Y-12656000D02*
X19554000Y-12656000D01*
X19504000Y-12860000D02*
X19504000Y-12960000D01*
X19454000Y-12910000D02*
X19554000Y-12910000D01*
X19504000Y-13114000D02*
X19504000Y-13214000D01*
X19454000Y-13164000D02*
X19554000Y-13164000D01*
X19504000Y-13368000D02*
X19504000Y-13468000D01*
X19454000Y-13418000D02*
X19554000Y-13418000D01*
X19508000Y-9220000D02*
X19508000Y-9320000D01*
X19458000Y-9270000D02*
X19558000Y-9270000D01*
X19508000Y-9474000D02*
X19508000Y-9574000D01*
X19458000Y-9524000D02*
X19558000Y-9524000D01*
X19508000Y-9728000D02*
X19508000Y-9828000D01*
X19458000Y-9778000D02*
X19558000Y-9778000D01*
X19508000Y-9982000D02*
X19508000Y-10082000D01*
X19458000Y-10032000D02*
X19558000Y-10032000D01*
X19508000Y-10236000D02*
X19508000Y-10336000D01*
X19458000Y-10286000D02*
X19558000Y-10286000D01*
X19508000Y-10490000D02*
X19508000Y-10590000D01*
X19458000Y-10540000D02*
X19558000Y-10540000D01*
X19508000Y-10744000D02*
X19508000Y-10844000D01*
X19458000Y-10794000D02*
X19558000Y-10794000D01*
X19508000Y-10998000D02*
X19508000Y-11098000D01*
X19458000Y-11048000D02*
X19558000Y-11048000D01*
X19548000Y-6340000D02*
X19548000Y-6440000D01*
X19498000Y-6390000D02*
X19598000Y-6390000D01*
D15*
X10993034Y-6913033D02*
X10993034Y-6806966D01*
X10886967Y-6806966D01*
X10886967Y-6913033D01*
X10993034Y-6913033D01*
X11238033Y-5918033D02*
X11238033Y-5811966D01*
X11131967Y-5811966D01*
X11131967Y-5918033D01*
X11238033Y-5918033D01*
X11238033Y-7133033D02*
X11238033Y-7026966D01*
X11131967Y-7026966D01*
X11131967Y-7133033D01*
X11238033Y-7133033D01*
X11488033Y-5918033D02*
X11488033Y-5811966D01*
X11381966Y-5811966D01*
X11381966Y-5918033D01*
X11488033Y-5918033D01*
X11738033Y-6913033D02*
X11738033Y-6806966D01*
X11631966Y-6806966D01*
X11631966Y-6913033D01*
X11738033Y-6913033D01*
X11988033Y-5918033D02*
X11988033Y-5811966D01*
X11881966Y-5811966D01*
X11881966Y-5918033D01*
X11988033Y-5918033D01*
X12238033Y-5918033D02*
X12238033Y-5811966D01*
X12131966Y-5811966D01*
X12131966Y-5918033D01*
X12238033Y-5918033D01*
X12238033Y-7133033D02*
X12238033Y-7026966D01*
X12131966Y-7026966D01*
X12131966Y-7133033D01*
X12238033Y-7133033D01*
X12483033Y-6913033D02*
X12483033Y-6806966D01*
X12376966Y-6806966D01*
X12376966Y-6913033D01*
X12483033Y-6913033D01*
X13323033Y-6913033D02*
X13323033Y-6806966D01*
X13216966Y-6806966D01*
X13216966Y-6913033D01*
X13323033Y-6913033D01*
X13568033Y-5918033D02*
X13568033Y-5811966D01*
X13461966Y-5811966D01*
X13461966Y-5918033D01*
X13568033Y-5918033D01*
X13568033Y-7133033D02*
X13568033Y-7026966D01*
X13461966Y-7026966D01*
X13461966Y-7133033D01*
X13568033Y-7133033D01*
X13818033Y-5918033D02*
X13818033Y-5811966D01*
X13711966Y-5811966D01*
X13711966Y-5918033D01*
X13818033Y-5918033D01*
X14068033Y-6913033D02*
X14068033Y-6806966D01*
X13961966Y-6806966D01*
X13961966Y-6913033D01*
X14068033Y-6913033D01*
X14318033Y-5918033D02*
X14318033Y-5811966D01*
X14211966Y-5811966D01*
X14211966Y-5918033D01*
X14318033Y-5918033D01*
X14568033Y-5918033D02*
X14568033Y-5811966D01*
X14461966Y-5811966D01*
X14461966Y-5918033D01*
X14568033Y-5918033D01*
X14568033Y-7133033D02*
X14568033Y-7026966D01*
X14461966Y-7026966D01*
X14461966Y-7133033D01*
X14568033Y-7133033D01*
X14813033Y-6913033D02*
X14813033Y-6806966D01*
X14706966Y-6806966D01*
X14706966Y-6913033D01*
X14813033Y-6913033D01*
D16*
X10214610Y-6024860D02*
X10374610Y-5864860D01*
X10214610Y-5704860D01*
X10054610Y-5864860D01*
X10214610Y-6024860D01*
X10214610Y-15295860D02*
X10374610Y-15135860D01*
X10214610Y-14975860D01*
X10054610Y-15135860D01*
X10214610Y-15295860D01*
X19485610Y-6024860D02*
X19645610Y-5864860D01*
X19485610Y-5704860D01*
X19325610Y-5864860D01*
X19485610Y-6024860D01*
X19485610Y-15295860D02*
X19645610Y-15135860D01*
X19485610Y-14975860D01*
X19325610Y-15135860D01*
X19485610Y-15295860D01*
D11*
X10114129Y-15804436D02*
X10114129Y-15604436D01*
X10161748Y-15604436D01*
X10190320Y-15613960D01*
X10209367Y-15633008D01*
X10218891Y-15652055D01*
X10228415Y-15690150D01*
X10228415Y-15718722D01*
X10218891Y-15756817D01*
X10209367Y-15775865D01*
X10190320Y-15794912D01*
X10161748Y-15804436D01*
X10114129Y-15804436D01*
X10314129Y-15804436D02*
X10314129Y-15671103D01*
X10314129Y-15709198D02*
X10323653Y-15690150D01*
X10333177Y-15680627D01*
X10352224Y-15671103D01*
X10371272Y-15671103D01*
X10437939Y-15804436D02*
X10437939Y-15671103D01*
X10437939Y-15604436D02*
X10428415Y-15613960D01*
X10437939Y-15623484D01*
X10447462Y-15613960D01*
X10437939Y-15604436D01*
X10437939Y-15623484D01*
X10561748Y-15804436D02*
X10542700Y-15794912D01*
X10533177Y-15775865D01*
X10533177Y-15604436D01*
X10666510Y-15804436D02*
X10647462Y-15794912D01*
X10637939Y-15775865D01*
X10637939Y-15604436D01*
X10895081Y-15804436D02*
X10895081Y-15604436D01*
X10961748Y-15747293D01*
X11028415Y-15604436D01*
X11028415Y-15804436D01*
X11209367Y-15804436D02*
X11209367Y-15699674D01*
X11199843Y-15680627D01*
X11180796Y-15671103D01*
X11142700Y-15671103D01*
X11123653Y-15680627D01*
X11209367Y-15794912D02*
X11190319Y-15804436D01*
X11142700Y-15804436D01*
X11123653Y-15794912D01*
X11114129Y-15775865D01*
X11114129Y-15756817D01*
X11123653Y-15737769D01*
X11142700Y-15728246D01*
X11190319Y-15728246D01*
X11209367Y-15718722D01*
X11304605Y-15671103D02*
X11304605Y-15871103D01*
X11304605Y-15680627D02*
X11323653Y-15671103D01*
X11361748Y-15671103D01*
X11380796Y-15680627D01*
X11390319Y-15690150D01*
X11399843Y-15709198D01*
X11399843Y-15766341D01*
X11390319Y-15785388D01*
X11380796Y-15794912D01*
X11361748Y-15804436D01*
X11323653Y-15804436D01*
X11304605Y-15794912D01*
X11485558Y-15785388D02*
X11495081Y-15794912D01*
X11485558Y-15804436D01*
X11476034Y-15794912D01*
X11485558Y-15785388D01*
X11485558Y-15804436D01*
X11485558Y-15680627D02*
X11495081Y-15690150D01*
X11485558Y-15699674D01*
X11476034Y-15690150D01*
X11485558Y-15680627D01*
X11485558Y-15699674D01*
D12*
X9816510Y-16113960D02*
X9856510Y-16153960D01*
X9856510Y-16113960D02*
X9816510Y-16153960D01*
D11*
X10152224Y-16024436D02*
X10171272Y-16024436D01*
X10190320Y-16033960D01*
X10199843Y-16043484D01*
X10209367Y-16062531D01*
X10218891Y-16100627D01*
X10218891Y-16148246D01*
X10209367Y-16186341D01*
X10199843Y-16205388D01*
X10190320Y-16214912D01*
X10171272Y-16224436D01*
X10152224Y-16224436D01*
X10133177Y-16214912D01*
X10123653Y-16205388D01*
X10114129Y-16186341D01*
X10104605Y-16148246D01*
X10104605Y-16100627D01*
X10114129Y-16062531D01*
X10123653Y-16043484D01*
X10133177Y-16033960D01*
X10152224Y-16024436D01*
X10304605Y-16205388D02*
X10314129Y-16214912D01*
X10304605Y-16224436D01*
X10295081Y-16214912D01*
X10304605Y-16205388D01*
X10304605Y-16224436D01*
X10485558Y-16091103D02*
X10485558Y-16224436D01*
X10437939Y-16014912D02*
X10390320Y-16157769D01*
X10514129Y-16157769D01*
X10628415Y-16024436D02*
X10647462Y-16024436D01*
X10666510Y-16033960D01*
X10676034Y-16043484D01*
X10685558Y-16062531D01*
X10695081Y-16100627D01*
X10695081Y-16148246D01*
X10685558Y-16186341D01*
X10676034Y-16205388D01*
X10666510Y-16214912D01*
X10647462Y-16224436D01*
X10628415Y-16224436D01*
X10609367Y-16214912D01*
X10599843Y-16205388D01*
X10590320Y-16186341D01*
X10580796Y-16148246D01*
X10580796Y-16100627D01*
X10590320Y-16062531D01*
X10599843Y-16043484D01*
X10609367Y-16033960D01*
X10628415Y-16024436D01*
X10818891Y-16024436D02*
X10837939Y-16024436D01*
X10856986Y-16033960D01*
X10866510Y-16043484D01*
X10876034Y-16062531D01*
X10885558Y-16100627D01*
X10885558Y-16148246D01*
X10876034Y-16186341D01*
X10866510Y-16205388D01*
X10856986Y-16214912D01*
X10837939Y-16224436D01*
X10818891Y-16224436D01*
X10799843Y-16214912D01*
X10790320Y-16205388D01*
X10780796Y-16186341D01*
X10771272Y-16148246D01*
X10771272Y-16100627D01*
X10780796Y-16062531D01*
X10790320Y-16043484D01*
X10799843Y-16033960D01*
X10818891Y-16024436D01*
X10971272Y-16224436D02*
X10971272Y-16091103D01*
X10971272Y-16110150D02*
X10980796Y-16100627D01*
X10999843Y-16091103D01*
X11028415Y-16091103D01*
X11047462Y-16100627D01*
X11056986Y-16119674D01*
X11056986Y-16224436D01*
X11056986Y-16119674D02*
X11066510Y-16100627D01*
X11085558Y-16091103D01*
X11114129Y-16091103D01*
X11133177Y-16100627D01*
X11142700Y-16119674D01*
X11142700Y-16224436D01*
X11237938Y-16224436D02*
X11237938Y-16091103D01*
X11237938Y-16110150D02*
X11247462Y-16100627D01*
X11266510Y-16091103D01*
X11295081Y-16091103D01*
X11314129Y-16100627D01*
X11323653Y-16119674D01*
X11323653Y-16224436D01*
X11323653Y-16119674D02*
X11333177Y-16100627D01*
X11352224Y-16091103D01*
X11380796Y-16091103D01*
X11399843Y-16100627D01*
X11409367Y-16119674D01*
X11409367Y-16224436D01*
X11799843Y-16014912D02*
X11628415Y-16272055D01*
X12056986Y-16024436D02*
X12076034Y-16024436D01*
X12095081Y-16033960D01*
X12104605Y-16043484D01*
X12114129Y-16062531D01*
X12123653Y-16100627D01*
X12123653Y-16148246D01*
X12114129Y-16186341D01*
X12104605Y-16205388D01*
X12095081Y-16214912D01*
X12076034Y-16224436D01*
X12056986Y-16224436D01*
X12037938Y-16214912D01*
X12028415Y-16205388D01*
X12018891Y-16186341D01*
X12009367Y-16148246D01*
X12009367Y-16100627D01*
X12018891Y-16062531D01*
X12028415Y-16043484D01*
X12037938Y-16033960D01*
X12056986Y-16024436D01*
X12209367Y-16205388D02*
X12218891Y-16214912D01*
X12209367Y-16224436D01*
X12199843Y-16214912D01*
X12209367Y-16205388D01*
X12209367Y-16224436D01*
X12342700Y-16024436D02*
X12361748Y-16024436D01*
X12380796Y-16033960D01*
X12390319Y-16043484D01*
X12399843Y-16062531D01*
X12409367Y-16100627D01*
X12409367Y-16148246D01*
X12399843Y-16186341D01*
X12390319Y-16205388D01*
X12380796Y-16214912D01*
X12361748Y-16224436D01*
X12342700Y-16224436D01*
X12323653Y-16214912D01*
X12314129Y-16205388D01*
X12304605Y-16186341D01*
X12295081Y-16148246D01*
X12295081Y-16100627D01*
X12304605Y-16062531D01*
X12314129Y-16043484D01*
X12323653Y-16033960D01*
X12342700Y-16024436D01*
X12599843Y-16224436D02*
X12485558Y-16224436D01*
X12542700Y-16224436D02*
X12542700Y-16024436D01*
X12523653Y-16053008D01*
X12504605Y-16072055D01*
X12485558Y-16081579D01*
X12780796Y-16024436D02*
X12685558Y-16024436D01*
X12676034Y-16119674D01*
X12685558Y-16110150D01*
X12704605Y-16100627D01*
X12752224Y-16100627D01*
X12771272Y-16110150D01*
X12780796Y-16119674D01*
X12790319Y-16138722D01*
X12790319Y-16186341D01*
X12780796Y-16205388D01*
X12771272Y-16214912D01*
X12752224Y-16224436D01*
X12704605Y-16224436D01*
X12685558Y-16214912D01*
X12676034Y-16205388D01*
X12856986Y-16024436D02*
X12990319Y-16024436D01*
X12904605Y-16224436D01*
X13056986Y-16024436D02*
X13056986Y-16062531D01*
X13133177Y-16024436D02*
X13133177Y-16062531D01*
X13428415Y-16300627D02*
X13418891Y-16291103D01*
X13399843Y-16262531D01*
X13390319Y-16243484D01*
X13380796Y-16214912D01*
X13371272Y-16167293D01*
X13371272Y-16129198D01*
X13380796Y-16081579D01*
X13390319Y-16053008D01*
X13399843Y-16033960D01*
X13418891Y-16005388D01*
X13428415Y-15995865D01*
X13495081Y-16043484D02*
X13504605Y-16033960D01*
X13523653Y-16024436D01*
X13571272Y-16024436D01*
X13590319Y-16033960D01*
X13599843Y-16043484D01*
X13609367Y-16062531D01*
X13609367Y-16081579D01*
X13599843Y-16110150D01*
X13485558Y-16224436D01*
X13609367Y-16224436D01*
X13733177Y-16024436D02*
X13752224Y-16024436D01*
X13771272Y-16033960D01*
X13780796Y-16043484D01*
X13790319Y-16062531D01*
X13799843Y-16100627D01*
X13799843Y-16148246D01*
X13790319Y-16186341D01*
X13780796Y-16205388D01*
X13771272Y-16214912D01*
X13752224Y-16224436D01*
X13733177Y-16224436D01*
X13714129Y-16214912D01*
X13704605Y-16205388D01*
X13695081Y-16186341D01*
X13685558Y-16148246D01*
X13685558Y-16100627D01*
X13695081Y-16062531D01*
X13704605Y-16043484D01*
X13714129Y-16033960D01*
X13733177Y-16024436D01*
X13876034Y-16043484D02*
X13885558Y-16033960D01*
X13904605Y-16024436D01*
X13952224Y-16024436D01*
X13971272Y-16033960D01*
X13980796Y-16043484D01*
X13990319Y-16062531D01*
X13990319Y-16081579D01*
X13980796Y-16110150D01*
X13866510Y-16224436D01*
X13990319Y-16224436D01*
X14228415Y-16224436D02*
X14228415Y-16024436D01*
X14314129Y-16224436D02*
X14314129Y-16119674D01*
X14304605Y-16100627D01*
X14285558Y-16091103D01*
X14256986Y-16091103D01*
X14237938Y-16100627D01*
X14228415Y-16110150D01*
X14437938Y-16224436D02*
X14418891Y-16214912D01*
X14409367Y-16205388D01*
X14399843Y-16186341D01*
X14399843Y-16129198D01*
X14409367Y-16110150D01*
X14418891Y-16100627D01*
X14437938Y-16091103D01*
X14466510Y-16091103D01*
X14485558Y-16100627D01*
X14495081Y-16110150D01*
X14504605Y-16129198D01*
X14504605Y-16186341D01*
X14495081Y-16205388D01*
X14485558Y-16214912D01*
X14466510Y-16224436D01*
X14437938Y-16224436D01*
X14618891Y-16224436D02*
X14599843Y-16214912D01*
X14590319Y-16195865D01*
X14590319Y-16024436D01*
X14771272Y-16214912D02*
X14752224Y-16224436D01*
X14714129Y-16224436D01*
X14695081Y-16214912D01*
X14685558Y-16195865D01*
X14685558Y-16119674D01*
X14695081Y-16100627D01*
X14714129Y-16091103D01*
X14752224Y-16091103D01*
X14771272Y-16100627D01*
X14780796Y-16119674D01*
X14780796Y-16138722D01*
X14685558Y-16157769D01*
X14856986Y-16214912D02*
X14876034Y-16224436D01*
X14914129Y-16224436D01*
X14933177Y-16214912D01*
X14942700Y-16195865D01*
X14942700Y-16186341D01*
X14933177Y-16167293D01*
X14914129Y-16157769D01*
X14885558Y-16157769D01*
X14866510Y-16148246D01*
X14856986Y-16129198D01*
X14856986Y-16119674D01*
X14866510Y-16100627D01*
X14885558Y-16091103D01*
X14914129Y-16091103D01*
X14933177Y-16100627D01*
X15009367Y-16300627D02*
X15018891Y-16291103D01*
X15037938Y-16262531D01*
X15047462Y-16243484D01*
X15056986Y-16214912D01*
X15066510Y-16167293D01*
X15066510Y-16129198D01*
X15056986Y-16081579D01*
X15047462Y-16053008D01*
X15037938Y-16033960D01*
X15018891Y-16005388D01*
X15009367Y-15995865D01*
D13*
X9856510Y-16397960D02*
G75*
G03*
X9856510Y-16397960I-32500J0D01*
G01*
D11*
X10152224Y-16288436D02*
X10171272Y-16288436D01*
X10190320Y-16297960D01*
X10199843Y-16307484D01*
X10209367Y-16326531D01*
X10218891Y-16364627D01*
X10218891Y-16412246D01*
X10209367Y-16450341D01*
X10199843Y-16469388D01*
X10190320Y-16478912D01*
X10171272Y-16488436D01*
X10152224Y-16488436D01*
X10133177Y-16478912D01*
X10123653Y-16469388D01*
X10114129Y-16450341D01*
X10104605Y-16412246D01*
X10104605Y-16364627D01*
X10114129Y-16326531D01*
X10123653Y-16307484D01*
X10133177Y-16297960D01*
X10152224Y-16288436D01*
X10304605Y-16469388D02*
X10314129Y-16478912D01*
X10304605Y-16488436D01*
X10295081Y-16478912D01*
X10304605Y-16469388D01*
X10304605Y-16488436D01*
X10485558Y-16288436D02*
X10447462Y-16288436D01*
X10428415Y-16297960D01*
X10418891Y-16307484D01*
X10399843Y-16336055D01*
X10390320Y-16374150D01*
X10390320Y-16450341D01*
X10399843Y-16469388D01*
X10409367Y-16478912D01*
X10428415Y-16488436D01*
X10466510Y-16488436D01*
X10485558Y-16478912D01*
X10495081Y-16469388D01*
X10504605Y-16450341D01*
X10504605Y-16402722D01*
X10495081Y-16383674D01*
X10485558Y-16374150D01*
X10466510Y-16364627D01*
X10428415Y-16364627D01*
X10409367Y-16374150D01*
X10399843Y-16383674D01*
X10390320Y-16402722D01*
X10685558Y-16288436D02*
X10590320Y-16288436D01*
X10580796Y-16383674D01*
X10590320Y-16374150D01*
X10609367Y-16364627D01*
X10656986Y-16364627D01*
X10676034Y-16374150D01*
X10685558Y-16383674D01*
X10695081Y-16402722D01*
X10695081Y-16450341D01*
X10685558Y-16469388D01*
X10676034Y-16478912D01*
X10656986Y-16488436D01*
X10609367Y-16488436D01*
X10590320Y-16478912D01*
X10580796Y-16469388D01*
X10818891Y-16288436D02*
X10837939Y-16288436D01*
X10856986Y-16297960D01*
X10866510Y-16307484D01*
X10876034Y-16326531D01*
X10885558Y-16364627D01*
X10885558Y-16412246D01*
X10876034Y-16450341D01*
X10866510Y-16469388D01*
X10856986Y-16478912D01*
X10837939Y-16488436D01*
X10818891Y-16488436D01*
X10799843Y-16478912D01*
X10790320Y-16469388D01*
X10780796Y-16450341D01*
X10771272Y-16412246D01*
X10771272Y-16364627D01*
X10780796Y-16326531D01*
X10790320Y-16307484D01*
X10799843Y-16297960D01*
X10818891Y-16288436D01*
X10971272Y-16488436D02*
X10971272Y-16355103D01*
X10971272Y-16374150D02*
X10980796Y-16364627D01*
X10999843Y-16355103D01*
X11028415Y-16355103D01*
X11047462Y-16364627D01*
X11056986Y-16383674D01*
X11056986Y-16488436D01*
X11056986Y-16383674D02*
X11066510Y-16364627D01*
X11085558Y-16355103D01*
X11114129Y-16355103D01*
X11133177Y-16364627D01*
X11142700Y-16383674D01*
X11142700Y-16488436D01*
X11237938Y-16488436D02*
X11237938Y-16355103D01*
X11237938Y-16374150D02*
X11247462Y-16364627D01*
X11266510Y-16355103D01*
X11295081Y-16355103D01*
X11314129Y-16364627D01*
X11323653Y-16383674D01*
X11323653Y-16488436D01*
X11323653Y-16383674D02*
X11333177Y-16364627D01*
X11352224Y-16355103D01*
X11380796Y-16355103D01*
X11399843Y-16364627D01*
X11409367Y-16383674D01*
X11409367Y-16488436D01*
X11799843Y-16278912D02*
X11628415Y-16536055D01*
X12056986Y-16288436D02*
X12076034Y-16288436D01*
X12095081Y-16297960D01*
X12104605Y-16307484D01*
X12114129Y-16326531D01*
X12123653Y-16364627D01*
X12123653Y-16412246D01*
X12114129Y-16450341D01*
X12104605Y-16469388D01*
X12095081Y-16478912D01*
X12076034Y-16488436D01*
X12056986Y-16488436D01*
X12037938Y-16478912D01*
X12028415Y-16469388D01*
X12018891Y-16450341D01*
X12009367Y-16412246D01*
X12009367Y-16364627D01*
X12018891Y-16326531D01*
X12028415Y-16307484D01*
X12037938Y-16297960D01*
X12056986Y-16288436D01*
X12209367Y-16469388D02*
X12218891Y-16478912D01*
X12209367Y-16488436D01*
X12199843Y-16478912D01*
X12209367Y-16469388D01*
X12209367Y-16488436D01*
X12342700Y-16288436D02*
X12361748Y-16288436D01*
X12380796Y-16297960D01*
X12390319Y-16307484D01*
X12399843Y-16326531D01*
X12409367Y-16364627D01*
X12409367Y-16412246D01*
X12399843Y-16450341D01*
X12390319Y-16469388D01*
X12380796Y-16478912D01*
X12361748Y-16488436D01*
X12342700Y-16488436D01*
X12323653Y-16478912D01*
X12314129Y-16469388D01*
X12304605Y-16450341D01*
X12295081Y-16412246D01*
X12295081Y-16364627D01*
X12304605Y-16326531D01*
X12314129Y-16307484D01*
X12323653Y-16297960D01*
X12342700Y-16288436D01*
X12485558Y-16307484D02*
X12495081Y-16297960D01*
X12514129Y-16288436D01*
X12561748Y-16288436D01*
X12580796Y-16297960D01*
X12590319Y-16307484D01*
X12599843Y-16326531D01*
X12599843Y-16345579D01*
X12590319Y-16374150D01*
X12476034Y-16488436D01*
X12599843Y-16488436D01*
X12780796Y-16288436D02*
X12685558Y-16288436D01*
X12676034Y-16383674D01*
X12685558Y-16374150D01*
X12704605Y-16364627D01*
X12752224Y-16364627D01*
X12771272Y-16374150D01*
X12780796Y-16383674D01*
X12790319Y-16402722D01*
X12790319Y-16450341D01*
X12780796Y-16469388D01*
X12771272Y-16478912D01*
X12752224Y-16488436D01*
X12704605Y-16488436D01*
X12685558Y-16478912D01*
X12676034Y-16469388D01*
X12961748Y-16288436D02*
X12923653Y-16288436D01*
X12904605Y-16297960D01*
X12895081Y-16307484D01*
X12876034Y-16336055D01*
X12866510Y-16374150D01*
X12866510Y-16450341D01*
X12876034Y-16469388D01*
X12885558Y-16478912D01*
X12904605Y-16488436D01*
X12942700Y-16488436D01*
X12961748Y-16478912D01*
X12971272Y-16469388D01*
X12980796Y-16450341D01*
X12980796Y-16402722D01*
X12971272Y-16383674D01*
X12961748Y-16374150D01*
X12942700Y-16364627D01*
X12904605Y-16364627D01*
X12885558Y-16374150D01*
X12876034Y-16383674D01*
X12866510Y-16402722D01*
X13056986Y-16288436D02*
X13056986Y-16326531D01*
X13133177Y-16288436D02*
X13133177Y-16326531D01*
X13428415Y-16564627D02*
X13418891Y-16555103D01*
X13399843Y-16526531D01*
X13390319Y-16507484D01*
X13380796Y-16478912D01*
X13371272Y-16431293D01*
X13371272Y-16393198D01*
X13380796Y-16345579D01*
X13390319Y-16317008D01*
X13399843Y-16297960D01*
X13418891Y-16269388D01*
X13428415Y-16259865D01*
X13542700Y-16288436D02*
X13561748Y-16288436D01*
X13580796Y-16297960D01*
X13590319Y-16307484D01*
X13599843Y-16326531D01*
X13609367Y-16364627D01*
X13609367Y-16412246D01*
X13599843Y-16450341D01*
X13590319Y-16469388D01*
X13580796Y-16478912D01*
X13561748Y-16488436D01*
X13542700Y-16488436D01*
X13523653Y-16478912D01*
X13514129Y-16469388D01*
X13504605Y-16450341D01*
X13495081Y-16412246D01*
X13495081Y-16364627D01*
X13504605Y-16326531D01*
X13514129Y-16307484D01*
X13523653Y-16297960D01*
X13542700Y-16288436D01*
X13847462Y-16488436D02*
X13847462Y-16288436D01*
X13933177Y-16488436D02*
X13933177Y-16383674D01*
X13923653Y-16364627D01*
X13904605Y-16355103D01*
X13876034Y-16355103D01*
X13856986Y-16364627D01*
X13847462Y-16374150D01*
X14056986Y-16488436D02*
X14037938Y-16478912D01*
X14028415Y-16469388D01*
X14018891Y-16450341D01*
X14018891Y-16393198D01*
X14028415Y-16374150D01*
X14037938Y-16364627D01*
X14056986Y-16355103D01*
X14085558Y-16355103D01*
X14104605Y-16364627D01*
X14114129Y-16374150D01*
X14123653Y-16393198D01*
X14123653Y-16450341D01*
X14114129Y-16469388D01*
X14104605Y-16478912D01*
X14085558Y-16488436D01*
X14056986Y-16488436D01*
X14237938Y-16488436D02*
X14218891Y-16478912D01*
X14209367Y-16459865D01*
X14209367Y-16288436D01*
X14390319Y-16478912D02*
X14371272Y-16488436D01*
X14333177Y-16488436D01*
X14314129Y-16478912D01*
X14304605Y-16459865D01*
X14304605Y-16383674D01*
X14314129Y-16364627D01*
X14333177Y-16355103D01*
X14371272Y-16355103D01*
X14390319Y-16364627D01*
X14399843Y-16383674D01*
X14399843Y-16402722D01*
X14304605Y-16421769D01*
X14476034Y-16478912D02*
X14495081Y-16488436D01*
X14533177Y-16488436D01*
X14552224Y-16478912D01*
X14561748Y-16459865D01*
X14561748Y-16450341D01*
X14552224Y-16431293D01*
X14533177Y-16421769D01*
X14504605Y-16421769D01*
X14485558Y-16412246D01*
X14476034Y-16393198D01*
X14476034Y-16383674D01*
X14485558Y-16364627D01*
X14504605Y-16355103D01*
X14533177Y-16355103D01*
X14552224Y-16364627D01*
X14799843Y-16412246D02*
X14952224Y-16412246D01*
X14876034Y-16488436D02*
X14876034Y-16336055D01*
X15285558Y-16355103D02*
X15285558Y-16488436D01*
X15237938Y-16278912D02*
X15190319Y-16421769D01*
X15314129Y-16421769D01*
X15533177Y-16478912D02*
X15552224Y-16488436D01*
X15590319Y-16488436D01*
X15609367Y-16478912D01*
X15618891Y-16459865D01*
X15618891Y-16450341D01*
X15609367Y-16431293D01*
X15590319Y-16421769D01*
X15561748Y-16421769D01*
X15542700Y-16412246D01*
X15533177Y-16393198D01*
X15533177Y-16383674D01*
X15542700Y-16364627D01*
X15561748Y-16355103D01*
X15590319Y-16355103D01*
X15609367Y-16364627D01*
X15733177Y-16488436D02*
X15714129Y-16478912D01*
X15704605Y-16459865D01*
X15704605Y-16288436D01*
X15837938Y-16488436D02*
X15818891Y-16478912D01*
X15809367Y-16469388D01*
X15799843Y-16450341D01*
X15799843Y-16393198D01*
X15809367Y-16374150D01*
X15818891Y-16364627D01*
X15837938Y-16355103D01*
X15866510Y-16355103D01*
X15885558Y-16364627D01*
X15895081Y-16374150D01*
X15904605Y-16393198D01*
X15904605Y-16450341D01*
X15895081Y-16469388D01*
X15885558Y-16478912D01*
X15866510Y-16488436D01*
X15837938Y-16488436D01*
X15961748Y-16355103D02*
X16037938Y-16355103D01*
X15990319Y-16288436D02*
X15990319Y-16459865D01*
X15999843Y-16478912D01*
X16018891Y-16488436D01*
X16037938Y-16488436D01*
X16095081Y-16478912D02*
X16114129Y-16488436D01*
X16152224Y-16488436D01*
X16171272Y-16478912D01*
X16180796Y-16459865D01*
X16180796Y-16450341D01*
X16171272Y-16431293D01*
X16152224Y-16421769D01*
X16123653Y-16421769D01*
X16104605Y-16412246D01*
X16095081Y-16393198D01*
X16095081Y-16383674D01*
X16104605Y-16364627D01*
X16123653Y-16355103D01*
X16152224Y-16355103D01*
X16171272Y-16364627D01*
X16247462Y-16564627D02*
X16256986Y-16555103D01*
X16276034Y-16526531D01*
X16285558Y-16507484D01*
X16295081Y-16478912D01*
X16304605Y-16431293D01*
X16304605Y-16393198D01*
X16295081Y-16345579D01*
X16285558Y-16317008D01*
X16276034Y-16297960D01*
X16256986Y-16269388D01*
X16247462Y-16259865D01*
D14*
X9806510Y-16611960D02*
X9806510Y-16711960D01*
X9756510Y-16661960D02*
X9856510Y-16661960D01*
D11*
X10218891Y-16752436D02*
X10104605Y-16752436D01*
X10161748Y-16752436D02*
X10161748Y-16552436D01*
X10142700Y-16581008D01*
X10123653Y-16600055D01*
X10104605Y-16609579D01*
X10304605Y-16733388D02*
X10314129Y-16742912D01*
X10304605Y-16752436D01*
X10295081Y-16742912D01*
X10304605Y-16733388D01*
X10304605Y-16752436D01*
X10437939Y-16552436D02*
X10456986Y-16552436D01*
X10476034Y-16561960D01*
X10485558Y-16571484D01*
X10495081Y-16590531D01*
X10504605Y-16628627D01*
X10504605Y-16676246D01*
X10495081Y-16714341D01*
X10485558Y-16733388D01*
X10476034Y-16742912D01*
X10456986Y-16752436D01*
X10437939Y-16752436D01*
X10418891Y-16742912D01*
X10409367Y-16733388D01*
X10399843Y-16714341D01*
X10390320Y-16676246D01*
X10390320Y-16628627D01*
X10399843Y-16590531D01*
X10409367Y-16571484D01*
X10418891Y-16561960D01*
X10437939Y-16552436D01*
X10628415Y-16552436D02*
X10647462Y-16552436D01*
X10666510Y-16561960D01*
X10676034Y-16571484D01*
X10685558Y-16590531D01*
X10695081Y-16628627D01*
X10695081Y-16676246D01*
X10685558Y-16714341D01*
X10676034Y-16733388D01*
X10666510Y-16742912D01*
X10647462Y-16752436D01*
X10628415Y-16752436D01*
X10609367Y-16742912D01*
X10599843Y-16733388D01*
X10590320Y-16714341D01*
X10580796Y-16676246D01*
X10580796Y-16628627D01*
X10590320Y-16590531D01*
X10599843Y-16571484D01*
X10609367Y-16561960D01*
X10628415Y-16552436D01*
X10818891Y-16552436D02*
X10837939Y-16552436D01*
X10856986Y-16561960D01*
X10866510Y-16571484D01*
X10876034Y-16590531D01*
X10885558Y-16628627D01*
X10885558Y-16676246D01*
X10876034Y-16714341D01*
X10866510Y-16733388D01*
X10856986Y-16742912D01*
X10837939Y-16752436D01*
X10818891Y-16752436D01*
X10799843Y-16742912D01*
X10790320Y-16733388D01*
X10780796Y-16714341D01*
X10771272Y-16676246D01*
X10771272Y-16628627D01*
X10780796Y-16590531D01*
X10790320Y-16571484D01*
X10799843Y-16561960D01*
X10818891Y-16552436D01*
X10971272Y-16752436D02*
X10971272Y-16619103D01*
X10971272Y-16638150D02*
X10980796Y-16628627D01*
X10999843Y-16619103D01*
X11028415Y-16619103D01*
X11047462Y-16628627D01*
X11056986Y-16647674D01*
X11056986Y-16752436D01*
X11056986Y-16647674D02*
X11066510Y-16628627D01*
X11085558Y-16619103D01*
X11114129Y-16619103D01*
X11133177Y-16628627D01*
X11142700Y-16647674D01*
X11142700Y-16752436D01*
X11237938Y-16752436D02*
X11237938Y-16619103D01*
X11237938Y-16638150D02*
X11247462Y-16628627D01*
X11266510Y-16619103D01*
X11295081Y-16619103D01*
X11314129Y-16628627D01*
X11323653Y-16647674D01*
X11323653Y-16752436D01*
X11323653Y-16647674D02*
X11333177Y-16628627D01*
X11352224Y-16619103D01*
X11380796Y-16619103D01*
X11399843Y-16628627D01*
X11409367Y-16647674D01*
X11409367Y-16752436D01*
X11799843Y-16542912D02*
X11628415Y-16800055D01*
X12056986Y-16552436D02*
X12076034Y-16552436D01*
X12095081Y-16561960D01*
X12104605Y-16571484D01*
X12114129Y-16590531D01*
X12123653Y-16628627D01*
X12123653Y-16676246D01*
X12114129Y-16714341D01*
X12104605Y-16733388D01*
X12095081Y-16742912D01*
X12076034Y-16752436D01*
X12056986Y-16752436D01*
X12037938Y-16742912D01*
X12028415Y-16733388D01*
X12018891Y-16714341D01*
X12009367Y-16676246D01*
X12009367Y-16628627D01*
X12018891Y-16590531D01*
X12028415Y-16571484D01*
X12037938Y-16561960D01*
X12056986Y-16552436D01*
X12209367Y-16733388D02*
X12218891Y-16742912D01*
X12209367Y-16752436D01*
X12199843Y-16742912D01*
X12209367Y-16733388D01*
X12209367Y-16752436D01*
X12342700Y-16552436D02*
X12361748Y-16552436D01*
X12380796Y-16561960D01*
X12390319Y-16571484D01*
X12399843Y-16590531D01*
X12409367Y-16628627D01*
X12409367Y-16676246D01*
X12399843Y-16714341D01*
X12390319Y-16733388D01*
X12380796Y-16742912D01*
X12361748Y-16752436D01*
X12342700Y-16752436D01*
X12323653Y-16742912D01*
X12314129Y-16733388D01*
X12304605Y-16714341D01*
X12295081Y-16676246D01*
X12295081Y-16628627D01*
X12304605Y-16590531D01*
X12314129Y-16571484D01*
X12323653Y-16561960D01*
X12342700Y-16552436D01*
X12476034Y-16552436D02*
X12599843Y-16552436D01*
X12533177Y-16628627D01*
X12561748Y-16628627D01*
X12580796Y-16638150D01*
X12590319Y-16647674D01*
X12599843Y-16666722D01*
X12599843Y-16714341D01*
X12590319Y-16733388D01*
X12580796Y-16742912D01*
X12561748Y-16752436D01*
X12504605Y-16752436D01*
X12485558Y-16742912D01*
X12476034Y-16733388D01*
X12695081Y-16752436D02*
X12733177Y-16752436D01*
X12752224Y-16742912D01*
X12761748Y-16733388D01*
X12780796Y-16704817D01*
X12790319Y-16666722D01*
X12790319Y-16590531D01*
X12780796Y-16571484D01*
X12771272Y-16561960D01*
X12752224Y-16552436D01*
X12714129Y-16552436D01*
X12695081Y-16561960D01*
X12685558Y-16571484D01*
X12676034Y-16590531D01*
X12676034Y-16638150D01*
X12685558Y-16657198D01*
X12695081Y-16666722D01*
X12714129Y-16676246D01*
X12752224Y-16676246D01*
X12771272Y-16666722D01*
X12780796Y-16657198D01*
X12790319Y-16638150D01*
X12961748Y-16619103D02*
X12961748Y-16752436D01*
X12914129Y-16542912D02*
X12866510Y-16685769D01*
X12990319Y-16685769D01*
X13056986Y-16552436D02*
X13056986Y-16590531D01*
X13133177Y-16552436D02*
X13133177Y-16590531D01*
X13428415Y-16828627D02*
X13418891Y-16819103D01*
X13399843Y-16790531D01*
X13390319Y-16771484D01*
X13380796Y-16742912D01*
X13371272Y-16695293D01*
X13371272Y-16657198D01*
X13380796Y-16609579D01*
X13390319Y-16581008D01*
X13399843Y-16561960D01*
X13418891Y-16533388D01*
X13428415Y-16523865D01*
X13485558Y-16552436D02*
X13609367Y-16552436D01*
X13542700Y-16628627D01*
X13571272Y-16628627D01*
X13590319Y-16638150D01*
X13599843Y-16647674D01*
X13609367Y-16666722D01*
X13609367Y-16714341D01*
X13599843Y-16733388D01*
X13590319Y-16742912D01*
X13571272Y-16752436D01*
X13514129Y-16752436D01*
X13495081Y-16742912D01*
X13485558Y-16733388D01*
X13676034Y-16552436D02*
X13799843Y-16552436D01*
X13733177Y-16628627D01*
X13761748Y-16628627D01*
X13780796Y-16638150D01*
X13790319Y-16647674D01*
X13799843Y-16666722D01*
X13799843Y-16714341D01*
X13790319Y-16733388D01*
X13780796Y-16742912D01*
X13761748Y-16752436D01*
X13704605Y-16752436D01*
X13685558Y-16742912D01*
X13676034Y-16733388D01*
X13980796Y-16552436D02*
X13885558Y-16552436D01*
X13876034Y-16647674D01*
X13885558Y-16638150D01*
X13904605Y-16628627D01*
X13952224Y-16628627D01*
X13971272Y-16638150D01*
X13980796Y-16647674D01*
X13990319Y-16666722D01*
X13990319Y-16714341D01*
X13980796Y-16733388D01*
X13971272Y-16742912D01*
X13952224Y-16752436D01*
X13904605Y-16752436D01*
X13885558Y-16742912D01*
X13876034Y-16733388D01*
X14228415Y-16752436D02*
X14228415Y-16552436D01*
X14314129Y-16752436D02*
X14314129Y-16647674D01*
X14304605Y-16628627D01*
X14285558Y-16619103D01*
X14256986Y-16619103D01*
X14237938Y-16628627D01*
X14228415Y-16638150D01*
X14437938Y-16752436D02*
X14418891Y-16742912D01*
X14409367Y-16733388D01*
X14399843Y-16714341D01*
X14399843Y-16657198D01*
X14409367Y-16638150D01*
X14418891Y-16628627D01*
X14437938Y-16619103D01*
X14466510Y-16619103D01*
X14485558Y-16628627D01*
X14495081Y-16638150D01*
X14504605Y-16657198D01*
X14504605Y-16714341D01*
X14495081Y-16733388D01*
X14485558Y-16742912D01*
X14466510Y-16752436D01*
X14437938Y-16752436D01*
X14618891Y-16752436D02*
X14599843Y-16742912D01*
X14590319Y-16723865D01*
X14590319Y-16552436D01*
X14771272Y-16742912D02*
X14752224Y-16752436D01*
X14714129Y-16752436D01*
X14695081Y-16742912D01*
X14685558Y-16723865D01*
X14685558Y-16647674D01*
X14695081Y-16628627D01*
X14714129Y-16619103D01*
X14752224Y-16619103D01*
X14771272Y-16628627D01*
X14780796Y-16647674D01*
X14780796Y-16666722D01*
X14685558Y-16685769D01*
X14856986Y-16742912D02*
X14876034Y-16752436D01*
X14914129Y-16752436D01*
X14933177Y-16742912D01*
X14942700Y-16723865D01*
X14942700Y-16714341D01*
X14933177Y-16695293D01*
X14914129Y-16685769D01*
X14885558Y-16685769D01*
X14866510Y-16676246D01*
X14856986Y-16657198D01*
X14856986Y-16647674D01*
X14866510Y-16628627D01*
X14885558Y-16619103D01*
X14914129Y-16619103D01*
X14933177Y-16628627D01*
X15009367Y-16828627D02*
X15018891Y-16819103D01*
X15037938Y-16790531D01*
X15047462Y-16771484D01*
X15056986Y-16742912D01*
X15066510Y-16695293D01*
X15066510Y-16657198D01*
X15056986Y-16609579D01*
X15047462Y-16581008D01*
X15037938Y-16561960D01*
X15018891Y-16533388D01*
X15009367Y-16523865D01*
D15*
X9834544Y-16978994D02*
X9834544Y-16872927D01*
X9728477Y-16872927D01*
X9728477Y-16978994D01*
X9834544Y-16978994D01*
D11*
X10218891Y-17016436D02*
X10104605Y-17016436D01*
X10161748Y-17016436D02*
X10161748Y-16816436D01*
X10142700Y-16845008D01*
X10123653Y-16864055D01*
X10104605Y-16873579D01*
X10304605Y-16997389D02*
X10314129Y-17006912D01*
X10304605Y-17016436D01*
X10295081Y-17006912D01*
X10304605Y-16997389D01*
X10304605Y-17016436D01*
X10495081Y-16816436D02*
X10399843Y-16816436D01*
X10390320Y-16911674D01*
X10399843Y-16902150D01*
X10418891Y-16892627D01*
X10466510Y-16892627D01*
X10485558Y-16902150D01*
X10495081Y-16911674D01*
X10504605Y-16930722D01*
X10504605Y-16978341D01*
X10495081Y-16997389D01*
X10485558Y-17006912D01*
X10466510Y-17016436D01*
X10418891Y-17016436D01*
X10399843Y-17006912D01*
X10390320Y-16997389D01*
X10628415Y-16816436D02*
X10647462Y-16816436D01*
X10666510Y-16825960D01*
X10676034Y-16835484D01*
X10685558Y-16854531D01*
X10695081Y-16892627D01*
X10695081Y-16940246D01*
X10685558Y-16978341D01*
X10676034Y-16997389D01*
X10666510Y-17006912D01*
X10647462Y-17016436D01*
X10628415Y-17016436D01*
X10609367Y-17006912D01*
X10599843Y-16997389D01*
X10590320Y-16978341D01*
X10580796Y-16940246D01*
X10580796Y-16892627D01*
X10590320Y-16854531D01*
X10599843Y-16835484D01*
X10609367Y-16825960D01*
X10628415Y-16816436D01*
X10818891Y-16816436D02*
X10837939Y-16816436D01*
X10856986Y-16825960D01*
X10866510Y-16835484D01*
X10876034Y-16854531D01*
X10885558Y-16892627D01*
X10885558Y-16940246D01*
X10876034Y-16978341D01*
X10866510Y-16997389D01*
X10856986Y-17006912D01*
X10837939Y-17016436D01*
X10818891Y-17016436D01*
X10799843Y-17006912D01*
X10790320Y-16997389D01*
X10780796Y-16978341D01*
X10771272Y-16940246D01*
X10771272Y-16892627D01*
X10780796Y-16854531D01*
X10790320Y-16835484D01*
X10799843Y-16825960D01*
X10818891Y-16816436D01*
X10971272Y-17016436D02*
X10971272Y-16883103D01*
X10971272Y-16902150D02*
X10980796Y-16892627D01*
X10999843Y-16883103D01*
X11028415Y-16883103D01*
X11047462Y-16892627D01*
X11056986Y-16911674D01*
X11056986Y-17016436D01*
X11056986Y-16911674D02*
X11066510Y-16892627D01*
X11085558Y-16883103D01*
X11114129Y-16883103D01*
X11133177Y-16892627D01*
X11142700Y-16911674D01*
X11142700Y-17016436D01*
X11237938Y-17016436D02*
X11237938Y-16883103D01*
X11237938Y-16902150D02*
X11247462Y-16892627D01*
X11266510Y-16883103D01*
X11295081Y-16883103D01*
X11314129Y-16892627D01*
X11323653Y-16911674D01*
X11323653Y-17016436D01*
X11323653Y-16911674D02*
X11333177Y-16892627D01*
X11352224Y-16883103D01*
X11380796Y-16883103D01*
X11399843Y-16892627D01*
X11409367Y-16911674D01*
X11409367Y-17016436D01*
X11799843Y-16806912D02*
X11628415Y-17064055D01*
X12056986Y-16816436D02*
X12076034Y-16816436D01*
X12095081Y-16825960D01*
X12104605Y-16835484D01*
X12114129Y-16854531D01*
X12123653Y-16892627D01*
X12123653Y-16940246D01*
X12114129Y-16978341D01*
X12104605Y-16997389D01*
X12095081Y-17006912D01*
X12076034Y-17016436D01*
X12056986Y-17016436D01*
X12037938Y-17006912D01*
X12028415Y-16997389D01*
X12018891Y-16978341D01*
X12009367Y-16940246D01*
X12009367Y-16892627D01*
X12018891Y-16854531D01*
X12028415Y-16835484D01*
X12037938Y-16825960D01*
X12056986Y-16816436D01*
X12209367Y-16997389D02*
X12218891Y-17006912D01*
X12209367Y-17016436D01*
X12199843Y-17006912D01*
X12209367Y-16997389D01*
X12209367Y-17016436D01*
X12342700Y-16816436D02*
X12361748Y-16816436D01*
X12380796Y-16825960D01*
X12390319Y-16835484D01*
X12399843Y-16854531D01*
X12409367Y-16892627D01*
X12409367Y-16940246D01*
X12399843Y-16978341D01*
X12390319Y-16997389D01*
X12380796Y-17006912D01*
X12361748Y-17016436D01*
X12342700Y-17016436D01*
X12323653Y-17006912D01*
X12314129Y-16997389D01*
X12304605Y-16978341D01*
X12295081Y-16940246D01*
X12295081Y-16892627D01*
X12304605Y-16854531D01*
X12314129Y-16835484D01*
X12323653Y-16825960D01*
X12342700Y-16816436D01*
X12590319Y-16816436D02*
X12495081Y-16816436D01*
X12485558Y-16911674D01*
X12495081Y-16902150D01*
X12514129Y-16892627D01*
X12561748Y-16892627D01*
X12580796Y-16902150D01*
X12590319Y-16911674D01*
X12599843Y-16930722D01*
X12599843Y-16978341D01*
X12590319Y-16997389D01*
X12580796Y-17006912D01*
X12561748Y-17016436D01*
X12514129Y-17016436D01*
X12495081Y-17006912D01*
X12485558Y-16997389D01*
X12695081Y-17016436D02*
X12733177Y-17016436D01*
X12752224Y-17006912D01*
X12761748Y-16997389D01*
X12780796Y-16968817D01*
X12790319Y-16930722D01*
X12790319Y-16854531D01*
X12780796Y-16835484D01*
X12771272Y-16825960D01*
X12752224Y-16816436D01*
X12714129Y-16816436D01*
X12695081Y-16825960D01*
X12685558Y-16835484D01*
X12676034Y-16854531D01*
X12676034Y-16902150D01*
X12685558Y-16921198D01*
X12695081Y-16930722D01*
X12714129Y-16940246D01*
X12752224Y-16940246D01*
X12771272Y-16930722D01*
X12780796Y-16921198D01*
X12790319Y-16902150D01*
X12980796Y-17016436D02*
X12866510Y-17016436D01*
X12923653Y-17016436D02*
X12923653Y-16816436D01*
X12904605Y-16845008D01*
X12885558Y-16864055D01*
X12866510Y-16873579D01*
X13056986Y-16816436D02*
X13056986Y-16854531D01*
X13133177Y-16816436D02*
X13133177Y-16854531D01*
X13428415Y-17092627D02*
X13418891Y-17083103D01*
X13399843Y-17054531D01*
X13390319Y-17035484D01*
X13380796Y-17006912D01*
X13371272Y-16959293D01*
X13371272Y-16921198D01*
X13380796Y-16873579D01*
X13390319Y-16845008D01*
X13399843Y-16825960D01*
X13418891Y-16797389D01*
X13428415Y-16787865D01*
X13609367Y-17016436D02*
X13495081Y-17016436D01*
X13552224Y-17016436D02*
X13552224Y-16816436D01*
X13533177Y-16845008D01*
X13514129Y-16864055D01*
X13495081Y-16873579D01*
X13723653Y-16902150D02*
X13704605Y-16892627D01*
X13695081Y-16883103D01*
X13685558Y-16864055D01*
X13685558Y-16854531D01*
X13695081Y-16835484D01*
X13704605Y-16825960D01*
X13723653Y-16816436D01*
X13761748Y-16816436D01*
X13780796Y-16825960D01*
X13790319Y-16835484D01*
X13799843Y-16854531D01*
X13799843Y-16864055D01*
X13790319Y-16883103D01*
X13780796Y-16892627D01*
X13761748Y-16902150D01*
X13723653Y-16902150D01*
X13704605Y-16911674D01*
X13695081Y-16921198D01*
X13685558Y-16940246D01*
X13685558Y-16978341D01*
X13695081Y-16997389D01*
X13704605Y-17006912D01*
X13723653Y-17016436D01*
X13761748Y-17016436D01*
X13780796Y-17006912D01*
X13790319Y-16997389D01*
X13799843Y-16978341D01*
X13799843Y-16940246D01*
X13790319Y-16921198D01*
X13780796Y-16911674D01*
X13761748Y-16902150D01*
X14037938Y-17016436D02*
X14037938Y-16816436D01*
X14123653Y-17016436D02*
X14123653Y-16911674D01*
X14114129Y-16892627D01*
X14095081Y-16883103D01*
X14066510Y-16883103D01*
X14047462Y-16892627D01*
X14037938Y-16902150D01*
X14247462Y-17016436D02*
X14228415Y-17006912D01*
X14218891Y-16997389D01*
X14209367Y-16978341D01*
X14209367Y-16921198D01*
X14218891Y-16902150D01*
X14228415Y-16892627D01*
X14247462Y-16883103D01*
X14276034Y-16883103D01*
X14295081Y-16892627D01*
X14304605Y-16902150D01*
X14314129Y-16921198D01*
X14314129Y-16978341D01*
X14304605Y-16997389D01*
X14295081Y-17006912D01*
X14276034Y-17016436D01*
X14247462Y-17016436D01*
X14428415Y-17016436D02*
X14409367Y-17006912D01*
X14399843Y-16987865D01*
X14399843Y-16816436D01*
X14580796Y-17006912D02*
X14561748Y-17016436D01*
X14523653Y-17016436D01*
X14504605Y-17006912D01*
X14495081Y-16987865D01*
X14495081Y-16911674D01*
X14504605Y-16892627D01*
X14523653Y-16883103D01*
X14561748Y-16883103D01*
X14580796Y-16892627D01*
X14590319Y-16911674D01*
X14590319Y-16930722D01*
X14495081Y-16949770D01*
X14666510Y-17006912D02*
X14685558Y-17016436D01*
X14723653Y-17016436D01*
X14742700Y-17006912D01*
X14752224Y-16987865D01*
X14752224Y-16978341D01*
X14742700Y-16959293D01*
X14723653Y-16949770D01*
X14695081Y-16949770D01*
X14676034Y-16940246D01*
X14666510Y-16921198D01*
X14666510Y-16911674D01*
X14676034Y-16892627D01*
X14695081Y-16883103D01*
X14723653Y-16883103D01*
X14742700Y-16892627D01*
X14818891Y-17092627D02*
X14828415Y-17083103D01*
X14847462Y-17054531D01*
X14856986Y-17035484D01*
X14866510Y-17006912D01*
X14876034Y-16959293D01*
X14876034Y-16921198D01*
X14866510Y-16873579D01*
X14856986Y-16845008D01*
X14847462Y-16825960D01*
X14828415Y-16797389D01*
X14818891Y-16787865D01*
X9756510Y-17295960D02*
X9856510Y-17195960D01*
X9756510Y-17095960D01*
X9656510Y-17195960D01*
X9756510Y-17295960D01*
X10095081Y-17086436D02*
X10218891Y-17086436D01*
X10152224Y-17162627D01*
X10180796Y-17162627D01*
X10199843Y-17172150D01*
X10209367Y-17181674D01*
X10218891Y-17200722D01*
X10218891Y-17248341D01*
X10209367Y-17267389D01*
X10199843Y-17276912D01*
X10180796Y-17286436D01*
X10123653Y-17286436D01*
X10104605Y-17276912D01*
X10095081Y-17267389D01*
X10304605Y-17267389D02*
X10314129Y-17276912D01*
X10304605Y-17286436D01*
X10295081Y-17276912D01*
X10304605Y-17267389D01*
X10304605Y-17286436D01*
X10390320Y-17105484D02*
X10399843Y-17095960D01*
X10418891Y-17086436D01*
X10466510Y-17086436D01*
X10485558Y-17095960D01*
X10495081Y-17105484D01*
X10504605Y-17124531D01*
X10504605Y-17143579D01*
X10495081Y-17172150D01*
X10380796Y-17286436D01*
X10504605Y-17286436D01*
X10628415Y-17086436D02*
X10647462Y-17086436D01*
X10666510Y-17095960D01*
X10676034Y-17105484D01*
X10685558Y-17124531D01*
X10695081Y-17162627D01*
X10695081Y-17210246D01*
X10685558Y-17248341D01*
X10676034Y-17267389D01*
X10666510Y-17276912D01*
X10647462Y-17286436D01*
X10628415Y-17286436D01*
X10609367Y-17276912D01*
X10599843Y-17267389D01*
X10590320Y-17248341D01*
X10580796Y-17210246D01*
X10580796Y-17162627D01*
X10590320Y-17124531D01*
X10599843Y-17105484D01*
X10609367Y-17095960D01*
X10628415Y-17086436D01*
X10818891Y-17086436D02*
X10837939Y-17086436D01*
X10856986Y-17095960D01*
X10866510Y-17105484D01*
X10876034Y-17124531D01*
X10885558Y-17162627D01*
X10885558Y-17210246D01*
X10876034Y-17248341D01*
X10866510Y-17267389D01*
X10856986Y-17276912D01*
X10837939Y-17286436D01*
X10818891Y-17286436D01*
X10799843Y-17276912D01*
X10790320Y-17267389D01*
X10780796Y-17248341D01*
X10771272Y-17210246D01*
X10771272Y-17162627D01*
X10780796Y-17124531D01*
X10790320Y-17105484D01*
X10799843Y-17095960D01*
X10818891Y-17086436D01*
X10971272Y-17286436D02*
X10971272Y-17153103D01*
X10971272Y-17172150D02*
X10980796Y-17162627D01*
X10999843Y-17153103D01*
X11028415Y-17153103D01*
X11047462Y-17162627D01*
X11056986Y-17181674D01*
X11056986Y-17286436D01*
X11056986Y-17181674D02*
X11066510Y-17162627D01*
X11085558Y-17153103D01*
X11114129Y-17153103D01*
X11133177Y-17162627D01*
X11142700Y-17181674D01*
X11142700Y-17286436D01*
X11237938Y-17286436D02*
X11237938Y-17153103D01*
X11237938Y-17172150D02*
X11247462Y-17162627D01*
X11266510Y-17153103D01*
X11295081Y-17153103D01*
X11314129Y-17162627D01*
X11323653Y-17181674D01*
X11323653Y-17286436D01*
X11323653Y-17181674D02*
X11333177Y-17162627D01*
X11352224Y-17153103D01*
X11380796Y-17153103D01*
X11399843Y-17162627D01*
X11409367Y-17181674D01*
X11409367Y-17286436D01*
X11799843Y-17076912D02*
X11628415Y-17334055D01*
X12056986Y-17086436D02*
X12076034Y-17086436D01*
X12095081Y-17095960D01*
X12104605Y-17105484D01*
X12114129Y-17124531D01*
X12123653Y-17162627D01*
X12123653Y-17210246D01*
X12114129Y-17248341D01*
X12104605Y-17267389D01*
X12095081Y-17276912D01*
X12076034Y-17286436D01*
X12056986Y-17286436D01*
X12037938Y-17276912D01*
X12028415Y-17267389D01*
X12018891Y-17248341D01*
X12009367Y-17210246D01*
X12009367Y-17162627D01*
X12018891Y-17124531D01*
X12028415Y-17105484D01*
X12037938Y-17095960D01*
X12056986Y-17086436D01*
X12209367Y-17267389D02*
X12218891Y-17276912D01*
X12209367Y-17286436D01*
X12199843Y-17276912D01*
X12209367Y-17267389D01*
X12209367Y-17286436D01*
X12409367Y-17286436D02*
X12295081Y-17286436D01*
X12352224Y-17286436D02*
X12352224Y-17086436D01*
X12333177Y-17115008D01*
X12314129Y-17134055D01*
X12295081Y-17143579D01*
X12485558Y-17105484D02*
X12495081Y-17095960D01*
X12514129Y-17086436D01*
X12561748Y-17086436D01*
X12580796Y-17095960D01*
X12590319Y-17105484D01*
X12599843Y-17124531D01*
X12599843Y-17143579D01*
X12590319Y-17172150D01*
X12476034Y-17286436D01*
X12599843Y-17286436D01*
X12771272Y-17086436D02*
X12733177Y-17086436D01*
X12714129Y-17095960D01*
X12704605Y-17105484D01*
X12685558Y-17134055D01*
X12676034Y-17172150D01*
X12676034Y-17248341D01*
X12685558Y-17267389D01*
X12695081Y-17276912D01*
X12714129Y-17286436D01*
X12752224Y-17286436D01*
X12771272Y-17276912D01*
X12780796Y-17267389D01*
X12790319Y-17248341D01*
X12790319Y-17200722D01*
X12780796Y-17181674D01*
X12771272Y-17172150D01*
X12752224Y-17162627D01*
X12714129Y-17162627D01*
X12695081Y-17172150D01*
X12685558Y-17181674D01*
X12676034Y-17200722D01*
X12914129Y-17086436D02*
X12933177Y-17086436D01*
X12952224Y-17095960D01*
X12961748Y-17105484D01*
X12971272Y-17124531D01*
X12980796Y-17162627D01*
X12980796Y-17210246D01*
X12971272Y-17248341D01*
X12961748Y-17267389D01*
X12952224Y-17276912D01*
X12933177Y-17286436D01*
X12914129Y-17286436D01*
X12895081Y-17276912D01*
X12885558Y-17267389D01*
X12876034Y-17248341D01*
X12866510Y-17210246D01*
X12866510Y-17162627D01*
X12876034Y-17124531D01*
X12885558Y-17105484D01*
X12895081Y-17095960D01*
X12914129Y-17086436D01*
X13056986Y-17086436D02*
X13056986Y-17124531D01*
X13133177Y-17086436D02*
X13133177Y-17124531D01*
X13428415Y-17362627D02*
X13418891Y-17353103D01*
X13399843Y-17324531D01*
X13390319Y-17305484D01*
X13380796Y-17276912D01*
X13371272Y-17229293D01*
X13371272Y-17191198D01*
X13380796Y-17143579D01*
X13390319Y-17115008D01*
X13399843Y-17095960D01*
X13418891Y-17067389D01*
X13428415Y-17057865D01*
X13590319Y-17153103D02*
X13590319Y-17286436D01*
X13542700Y-17076912D02*
X13495081Y-17219770D01*
X13618891Y-17219770D01*
X13847462Y-17286436D02*
X13847462Y-17086436D01*
X13933177Y-17286436D02*
X13933177Y-17181674D01*
X13923653Y-17162627D01*
X13904605Y-17153103D01*
X13876034Y-17153103D01*
X13856986Y-17162627D01*
X13847462Y-17172150D01*
X14056986Y-17286436D02*
X14037938Y-17276912D01*
X14028415Y-17267389D01*
X14018891Y-17248341D01*
X14018891Y-17191198D01*
X14028415Y-17172150D01*
X14037938Y-17162627D01*
X14056986Y-17153103D01*
X14085558Y-17153103D01*
X14104605Y-17162627D01*
X14114129Y-17172150D01*
X14123653Y-17191198D01*
X14123653Y-17248341D01*
X14114129Y-17267389D01*
X14104605Y-17276912D01*
X14085558Y-17286436D01*
X14056986Y-17286436D01*
X14237938Y-17286436D02*
X14218891Y-17276912D01*
X14209367Y-17257865D01*
X14209367Y-17086436D01*
X14390319Y-17276912D02*
X14371272Y-17286436D01*
X14333177Y-17286436D01*
X14314129Y-17276912D01*
X14304605Y-17257865D01*
X14304605Y-17181674D01*
X14314129Y-17162627D01*
X14333177Y-17153103D01*
X14371272Y-17153103D01*
X14390319Y-17162627D01*
X14399843Y-17181674D01*
X14399843Y-17200722D01*
X14304605Y-17219770D01*
X14476034Y-17276912D02*
X14495081Y-17286436D01*
X14533177Y-17286436D01*
X14552224Y-17276912D01*
X14561748Y-17257865D01*
X14561748Y-17248341D01*
X14552224Y-17229293D01*
X14533177Y-17219770D01*
X14504605Y-17219770D01*
X14485558Y-17210246D01*
X14476034Y-17191198D01*
X14476034Y-17181674D01*
X14485558Y-17162627D01*
X14504605Y-17153103D01*
X14533177Y-17153103D01*
X14552224Y-17162627D01*
X14628415Y-17362627D02*
X14637938Y-17353103D01*
X14656986Y-17324531D01*
X14666510Y-17305484D01*
X14676034Y-17276912D01*
X14685558Y-17229293D01*
X14685558Y-17191198D01*
X14676034Y-17143579D01*
X14666510Y-17115008D01*
X14656986Y-17095960D01*
X14637938Y-17067389D01*
X14628415Y-17057865D01*
M02*
