G04 #@! TF.GenerationSoftware,KiCad,Pcbnew,9.0.7*
G04 #@! TF.CreationDate,2026-01-31T16:40:03+01:00*
G04 #@! TF.ProjectId,MBO,4d424f2e-6b69-4636-9164-5f7063625858,rev?*
G04 #@! TF.SameCoordinates,Original*
G04 #@! TF.FileFunction,Paste,Bot*
G04 #@! TF.FilePolarity,Positive*
%FSLAX46Y46*%
G04 Gerber Fmt 4.6, Leading zero omitted, Abs format (unit mm)*
G04 Created by KiCad (PCBNEW 9.0.7) date 2026-01-31 16:40:03*
%MOMM*%
%LPD*%
G01*
G04 APERTURE LIST*
G04 Aperture macros list*
%AMRoundRect*
0 Rectangle with rounded corners*
0 $1 Rounding radius*
0 $2 $3 $4 $5 $6 $7 $8 $9 X,Y pos of 4 corners*
0 Add a 4 corners polygon primitive as box body*
4,1,4,$2,$3,$4,$5,$6,$7,$8,$9,$2,$3,0*
0 Add four circle primitives for the rounded corners*
1,1,$1+$1,$2,$3*
1,1,$1+$1,$4,$5*
1,1,$1+$1,$6,$7*
1,1,$1+$1,$8,$9*
0 Add four rect primitives between the rounded corners*
20,1,$1+$1,$2,$3,$4,$5,0*
20,1,$1+$1,$4,$5,$6,$7,0*
20,1,$1+$1,$6,$7,$8,$9,0*
20,1,$1+$1,$8,$9,$2,$3,0*%
G04 Aperture macros list end*
%ADD10C,0.010000*%
%ADD11RoundRect,0.140000X-0.170000X0.140000X-0.170000X-0.140000X0.170000X-0.140000X0.170000X0.140000X0*%
%ADD12RoundRect,0.140000X0.140000X0.170000X-0.140000X0.170000X-0.140000X-0.170000X0.140000X-0.170000X0*%
%ADD13RoundRect,0.140000X0.170000X-0.140000X0.170000X0.140000X-0.170000X0.140000X-0.170000X-0.140000X0*%
%ADD14RoundRect,0.250000X0.450000X-0.262500X0.450000X0.262500X-0.450000X0.262500X-0.450000X-0.262500X0*%
%ADD15RoundRect,0.135000X0.185000X-0.135000X0.185000X0.135000X-0.185000X0.135000X-0.185000X-0.135000X0*%
%ADD16R,0.660400X1.549400*%
%ADD17R,1.295400X1.905000*%
%ADD18RoundRect,0.075000X-0.700000X-0.075000X0.700000X-0.075000X0.700000X0.075000X-0.700000X0.075000X0*%
%ADD19RoundRect,0.075000X-0.075000X-0.700000X0.075000X-0.700000X0.075000X0.700000X-0.075000X0.700000X0*%
%ADD20RoundRect,0.140000X-0.140000X-0.170000X0.140000X-0.170000X0.140000X0.170000X-0.140000X0.170000X0*%
%ADD21RoundRect,0.250000X0.262500X0.450000X-0.262500X0.450000X-0.262500X-0.450000X0.262500X-0.450000X0*%
%ADD22R,0.740000X2.790000*%
%ADD23RoundRect,0.150000X0.875000X0.150000X-0.875000X0.150000X-0.875000X-0.150000X0.875000X-0.150000X0*%
%ADD24RoundRect,0.250000X0.400000X-0.550000X0.400000X0.550000X-0.400000X0.550000X-0.400000X-0.550000X0*%
%ADD25R,1.549400X0.660400*%
%ADD26R,1.905000X1.295400*%
%ADD27RoundRect,0.500000X1.400000X-0.500000X1.400000X0.500000X-1.400000X0.500000X-1.400000X-0.500000X0*%
%ADD28RoundRect,0.375000X0.375000X-0.625000X0.375000X0.625000X-0.375000X0.625000X-0.375000X-0.625000X0*%
G04 APERTURE END LIST*
D10*
X518790000Y-206877000D02*
X518050000Y-206877000D01*
X518050000Y-204087000D01*
X518790000Y-204087000D01*
X518790000Y-206877000D01*
G36*
X518790000Y-206877000D02*
G01*
X518050000Y-206877000D01*
X518050000Y-204087000D01*
X518790000Y-204087000D01*
X518790000Y-206877000D01*
G37*
X518790000Y-202813000D02*
X518050000Y-202813000D01*
X518050000Y-200023000D01*
X518790000Y-200023000D01*
X518790000Y-202813000D01*
G36*
X518790000Y-202813000D02*
G01*
X518050000Y-202813000D01*
X518050000Y-200023000D01*
X518790000Y-200023000D01*
X518790000Y-202813000D01*
G37*
X517520000Y-206877000D02*
X516780000Y-206877000D01*
X516780000Y-204087000D01*
X517520000Y-204087000D01*
X517520000Y-206877000D01*
G36*
X517520000Y-206877000D02*
G01*
X516780000Y-206877000D01*
X516780000Y-204087000D01*
X517520000Y-204087000D01*
X517520000Y-206877000D01*
G37*
X517520000Y-202813000D02*
X516780000Y-202813000D01*
X516780000Y-200023000D01*
X517520000Y-200023000D01*
X517520000Y-202813000D01*
G36*
X517520000Y-202813000D02*
G01*
X516780000Y-202813000D01*
X516780000Y-200023000D01*
X517520000Y-200023000D01*
X517520000Y-202813000D01*
G37*
X516250000Y-206877000D02*
X515510000Y-206877000D01*
X515510000Y-204087000D01*
X516250000Y-204087000D01*
X516250000Y-206877000D01*
G36*
X516250000Y-206877000D02*
G01*
X515510000Y-206877000D01*
X515510000Y-204087000D01*
X516250000Y-204087000D01*
X516250000Y-206877000D01*
G37*
X516250000Y-202813000D02*
X515510000Y-202813000D01*
X515510000Y-200023000D01*
X516250000Y-200023000D01*
X516250000Y-202813000D01*
G36*
X516250000Y-202813000D02*
G01*
X515510000Y-202813000D01*
X515510000Y-200023000D01*
X516250000Y-200023000D01*
X516250000Y-202813000D01*
G37*
X514980000Y-206877000D02*
X514240000Y-206877000D01*
X514240000Y-204087000D01*
X514980000Y-204087000D01*
X514980000Y-206877000D01*
G36*
X514980000Y-206877000D02*
G01*
X514240000Y-206877000D01*
X514240000Y-204087000D01*
X514980000Y-204087000D01*
X514980000Y-206877000D01*
G37*
X514980000Y-202813000D02*
X514240000Y-202813000D01*
X514240000Y-200023000D01*
X514980000Y-200023000D01*
X514980000Y-202813000D01*
G36*
X514980000Y-202813000D02*
G01*
X514240000Y-202813000D01*
X514240000Y-200023000D01*
X514980000Y-200023000D01*
X514980000Y-202813000D01*
G37*
X513710000Y-206877000D02*
X512970000Y-206877000D01*
X512970000Y-204087000D01*
X513710000Y-204087000D01*
X513710000Y-206877000D01*
G36*
X513710000Y-206877000D02*
G01*
X512970000Y-206877000D01*
X512970000Y-204087000D01*
X513710000Y-204087000D01*
X513710000Y-206877000D01*
G37*
X513710000Y-202813000D02*
X512970000Y-202813000D01*
X512970000Y-200023000D01*
X513710000Y-200023000D01*
X513710000Y-202813000D01*
G36*
X513710000Y-202813000D02*
G01*
X512970000Y-202813000D01*
X512970000Y-200023000D01*
X513710000Y-200023000D01*
X513710000Y-202813000D01*
G37*
D11*
X504150000Y-184620000D03*
X504150000Y-185580000D03*
D12*
X524780000Y-187800000D03*
X523820000Y-187800000D03*
D13*
X512800000Y-192930000D03*
X512800000Y-191970000D03*
D14*
X512525000Y-164962500D03*
X512525000Y-163137500D03*
D15*
X514800000Y-192960000D03*
X514800000Y-191940000D03*
D13*
X521800000Y-169730000D03*
X521800000Y-168770000D03*
D12*
X509200000Y-182950000D03*
X508240000Y-182950000D03*
D16*
X487400000Y-202600000D03*
X488400000Y-202600000D03*
X489400000Y-202600000D03*
X490400000Y-202600000D03*
X491400000Y-202600000D03*
X492400000Y-202600000D03*
X493400000Y-202598500D03*
X494400000Y-202598500D03*
X495400000Y-202598500D03*
X496400000Y-202598500D03*
D17*
X497700000Y-198723500D03*
X486100000Y-198725000D03*
D11*
X520300000Y-176470000D03*
X520300000Y-177430000D03*
D18*
X510875000Y-188450000D03*
X510875000Y-187950000D03*
X510875000Y-187450000D03*
X510875000Y-186950000D03*
X510875000Y-186450000D03*
X510875000Y-185950000D03*
X510875000Y-185450000D03*
X510875000Y-184950000D03*
X510875000Y-184450000D03*
X510875000Y-183950000D03*
X510875000Y-183450000D03*
X510875000Y-182950000D03*
X510875000Y-182450000D03*
X510875000Y-181950000D03*
X510875000Y-181450000D03*
X510875000Y-180950000D03*
D19*
X512800000Y-179025000D03*
X513300000Y-179025000D03*
X513800000Y-179025000D03*
X514300000Y-179025000D03*
X514800000Y-179025000D03*
X515300000Y-179025000D03*
X515800000Y-179025000D03*
X516300000Y-179025000D03*
X516800000Y-179025000D03*
X517300000Y-179025000D03*
X517800000Y-179025000D03*
X518300000Y-179025000D03*
X518800000Y-179025000D03*
X519300000Y-179025000D03*
X519800000Y-179025000D03*
X520300000Y-179025000D03*
D18*
X522225000Y-180950000D03*
X522225000Y-181450000D03*
X522225000Y-181950000D03*
X522225000Y-182450000D03*
X522225000Y-182950000D03*
X522225000Y-183450000D03*
X522225000Y-183950000D03*
X522225000Y-184450000D03*
X522225000Y-184950000D03*
X522225000Y-185450000D03*
X522225000Y-185950000D03*
X522225000Y-186450000D03*
X522225000Y-186950000D03*
X522225000Y-187450000D03*
X522225000Y-187950000D03*
X522225000Y-188450000D03*
D19*
X520300000Y-190375000D03*
X519800000Y-190375000D03*
X519300000Y-190375000D03*
X518800000Y-190375000D03*
X518300000Y-190375000D03*
X517800000Y-190375000D03*
X517300000Y-190375000D03*
X516800000Y-190375000D03*
X516300000Y-190375000D03*
X515800000Y-190375000D03*
X515300000Y-190375000D03*
X514800000Y-190375000D03*
X514300000Y-190375000D03*
X513800000Y-190375000D03*
X513300000Y-190375000D03*
X512800000Y-190375000D03*
D13*
X510150000Y-190830000D03*
X510150000Y-189870000D03*
D20*
X505820000Y-190300000D03*
X506780000Y-190300000D03*
X503970000Y-183050000D03*
X504930000Y-183050000D03*
D12*
X509200000Y-181550000D03*
X508240000Y-181550000D03*
D21*
X484962500Y-189600000D03*
X483137500Y-189600000D03*
D22*
X513340000Y-201415000D03*
X513340000Y-205485000D03*
X514610000Y-201415000D03*
X514610000Y-205485000D03*
X515880000Y-201415000D03*
X515880000Y-205485000D03*
X517150000Y-201415000D03*
X517150000Y-205485000D03*
X518420000Y-201415000D03*
X518420000Y-205485000D03*
X519690000Y-201415000D03*
X519690000Y-205485000D03*
X520960000Y-201415000D03*
X520960000Y-205485000D03*
D13*
X513125000Y-170730000D03*
X513125000Y-169770000D03*
D23*
X346150000Y-206615000D03*
X346150000Y-207885000D03*
X346150000Y-209155000D03*
X346150000Y-210425000D03*
X346150000Y-211695000D03*
X346150000Y-212965000D03*
X346150000Y-214235000D03*
X346150000Y-215505000D03*
X346150000Y-216775000D03*
X346150000Y-218045000D03*
X346150000Y-219315000D03*
X346150000Y-220585000D03*
X336850000Y-220585000D03*
X336850000Y-219315000D03*
X336850000Y-218045000D03*
X336850000Y-216775000D03*
X336850000Y-215505000D03*
X336850000Y-214235000D03*
X336850000Y-212965000D03*
X336850000Y-211695000D03*
X336850000Y-210425000D03*
X336850000Y-209155000D03*
X336850000Y-207885000D03*
X336850000Y-206615000D03*
D11*
X519250000Y-176470000D03*
X519250000Y-177430000D03*
D15*
X516825000Y-173885000D03*
X516825000Y-172865000D03*
D12*
X524780000Y-188850000D03*
X523820000Y-188850000D03*
D24*
X505850000Y-188400000D03*
X505850000Y-185100000D03*
X507850000Y-185100000D03*
X507850000Y-188400000D03*
D16*
X487400000Y-187600000D03*
X488400000Y-187600000D03*
X489400000Y-187600000D03*
X490400000Y-187600000D03*
X491400000Y-187600000D03*
X492400000Y-187600000D03*
X493400000Y-187598500D03*
X494400000Y-187598500D03*
X495400000Y-187598500D03*
X496400000Y-187598500D03*
D17*
X497700000Y-183723500D03*
X486100000Y-183725000D03*
D12*
X336980000Y-205350000D03*
X336020000Y-205350000D03*
D11*
X513650000Y-176470000D03*
X513650000Y-177430000D03*
D15*
X508100000Y-193860000D03*
X508100000Y-192840000D03*
D25*
X528751500Y-176350000D03*
X528751500Y-177350000D03*
X528751500Y-178350000D03*
X528751500Y-179350000D03*
D26*
X532626500Y-180650000D03*
X532626500Y-175050000D03*
D27*
X517287500Y-163875000D03*
D28*
X514987500Y-170175000D03*
X517287500Y-170175000D03*
X519587500Y-170175000D03*
M02*
