G04 #@! TF.GenerationSoftware,KiCad,Pcbnew,9.0.6*
G04 #@! TF.CreationDate,2025-12-16T13:32:32+01:00*
G04 #@! TF.ProjectId,USB,5553422e-6b69-4636-9164-5f7063625858,rev?*
G04 #@! TF.SameCoordinates,Original*
G04 #@! TF.FileFunction,Copper,L2,Bot*
G04 #@! TF.FilePolarity,Positive*
%FSLAX46Y46*%
G04 Gerber Fmt 4.6, Leading zero omitted, Abs format (unit mm)*
G04 Created by KiCad (PCBNEW 9.0.6) date 2025-12-16 13:32:32*
%MOMM*%
%LPD*%
G01*
G04 APERTURE LIST*
G04 Aperture macros list*
%AMRoundRect*
0 Rectangle with rounded corners*
0 $1 Rounding radius*
0 $2 $3 $4 $5 $6 $7 $8 $9 X,Y pos of 4 corners*
0 Add a 4 corners polygon primitive as box body*
4,1,4,$2,$3,$4,$5,$6,$7,$8,$9,$2,$3,0*
0 Add four circle primitives for the rounded corners*
1,1,$1+$1,$2,$3*
1,1,$1+$1,$4,$5*
1,1,$1+$1,$6,$7*
1,1,$1+$1,$8,$9*
0 Add four rect primitives between the rounded corners*
20,1,$1+$1,$2,$3,$4,$5,0*
20,1,$1+$1,$4,$5,$6,$7,0*
20,1,$1+$1,$6,$7,$8,$9,0*
20,1,$1+$1,$8,$9,$2,$3,0*%
G04 Aperture macros list end*
G04 #@! TA.AperFunction,HeatsinkPad*
%ADD10C,1.100000*%
G04 #@! TD*
G04 #@! TA.AperFunction,ComponentPad*
%ADD11C,4.000000*%
G04 #@! TD*
G04 #@! TA.AperFunction,SMDPad,CuDef*
%ADD12RoundRect,0.175000X-0.175000X-0.325000X0.175000X-0.325000X0.175000X0.325000X-0.175000X0.325000X0*%
G04 #@! TD*
G04 #@! TA.AperFunction,SMDPad,CuDef*
%ADD13RoundRect,0.150000X-0.200000X-0.150000X0.200000X-0.150000X0.200000X0.150000X-0.200000X0.150000X0*%
G04 #@! TD*
G04 #@! TA.AperFunction,SMDPad,CuDef*
%ADD14RoundRect,0.135000X0.135000X0.185000X-0.135000X0.185000X-0.135000X-0.185000X0.135000X-0.185000X0*%
G04 #@! TD*
G04 #@! TA.AperFunction,SMDPad,CuDef*
%ADD15R,1.549400X0.660400*%
G04 #@! TD*
G04 #@! TA.AperFunction,SMDPad,CuDef*
%ADD16R,1.905000X1.295400*%
G04 #@! TD*
G04 #@! TA.AperFunction,SMDPad,CuDef*
%ADD17RoundRect,0.135000X-0.135000X-0.185000X0.135000X-0.185000X0.135000X0.185000X-0.135000X0.185000X0*%
G04 #@! TD*
G04 #@! TA.AperFunction,SMDPad,CuDef*
%ADD18RoundRect,0.250000X-0.450000X0.262500X-0.450000X-0.262500X0.450000X-0.262500X0.450000X0.262500X0*%
G04 #@! TD*
G04 #@! TA.AperFunction,ViaPad*
%ADD19C,0.800000*%
G04 #@! TD*
G04 #@! TA.AperFunction,Conductor*
%ADD20C,0.200000*%
G04 #@! TD*
G04 #@! TA.AperFunction,Conductor*
%ADD21C,0.300000*%
G04 #@! TD*
G04 APERTURE END LIST*
D10*
X254600000Y-115650000D03*
X254600000Y-119950000D03*
X259400000Y-115650000D03*
X259400000Y-119950000D03*
D11*
X235000000Y-117800000D03*
X279000000Y-117800000D03*
D12*
X256075000Y-118775000D03*
D13*
X256075000Y-117075000D03*
X258075000Y-117075000D03*
X258075000Y-118975000D03*
D14*
X254535000Y-121550000D03*
X253515000Y-121550000D03*
D15*
X263526500Y-116425000D03*
X263526500Y-117425000D03*
X263526500Y-118425000D03*
X263526500Y-119425000D03*
D16*
X267401500Y-120725000D03*
X267401500Y-115125000D03*
D17*
X252590000Y-114075000D03*
X253610000Y-114075000D03*
D18*
X250950000Y-115612500D03*
X250950000Y-117437500D03*
D19*
X256900000Y-113975000D03*
X257800000Y-113975000D03*
X252625000Y-121550000D03*
X263500000Y-115475000D03*
X262900000Y-121750000D03*
X253650000Y-113175000D03*
X249450000Y-119550000D03*
X265150000Y-120450000D03*
X269225000Y-117950000D03*
X266550000Y-117300000D03*
X258350000Y-121675000D03*
X257175000Y-121525000D03*
X251775000Y-113425000D03*
D20*
X264125000Y-113150000D02*
X264125000Y-115375000D01*
X256450000Y-113975000D02*
X256075000Y-114350000D01*
X264175000Y-118350000D02*
X263601500Y-118350000D01*
X256900000Y-113975000D02*
X258525000Y-112350000D01*
X256075000Y-114350000D02*
X256075000Y-117075000D01*
X263601500Y-118350000D02*
X263526500Y-118425000D01*
X258525000Y-112350000D02*
X263325000Y-112350000D01*
X264125000Y-115375000D02*
X264750000Y-116000000D01*
X256900000Y-113975000D02*
X256450000Y-113975000D01*
X263325000Y-112350000D02*
X264125000Y-113150000D01*
X264750000Y-116000000D02*
X264750000Y-117775000D01*
X264750000Y-117775000D02*
X264175000Y-118350000D01*
X260010000Y-114125000D02*
X259710000Y-114125000D01*
X259560000Y-113975000D02*
X259560000Y-113825000D01*
X258600000Y-113825000D02*
X258200000Y-113825000D01*
X262300800Y-115200000D02*
X262300800Y-114675800D01*
X257800000Y-113975000D02*
X257950000Y-114125000D01*
X259560000Y-113825000D02*
X259560000Y-113585000D01*
X259560000Y-113585000D02*
X259560000Y-113065000D01*
X259320000Y-112825000D02*
X259200000Y-112825000D01*
X258960000Y-113065000D02*
X258960000Y-113585000D01*
X260160000Y-113825000D02*
X260160000Y-113975000D01*
X262300800Y-114342045D02*
X263055990Y-113586854D01*
X261450000Y-113825000D02*
X261000000Y-113825000D01*
X258720000Y-113825000D02*
X258600000Y-113825000D01*
X260520000Y-112825000D02*
X260400000Y-112825000D01*
X257950000Y-114125000D02*
X257950000Y-116950000D01*
X261466413Y-113841413D02*
X261450000Y-113825000D01*
X260760000Y-113585000D02*
X260760000Y-113065000D01*
X262638796Y-113169661D02*
X261883605Y-113924851D01*
X257950000Y-116950000D02*
X258075000Y-117075000D01*
X261549851Y-113924851D02*
X261466413Y-113841413D01*
X260160000Y-113585000D02*
X260160000Y-113825000D01*
X263526500Y-117425000D02*
X262700000Y-117425000D01*
X257800000Y-113975000D02*
X258050000Y-113975000D01*
X263055990Y-113253100D02*
X262972551Y-113169661D01*
X258050000Y-113975000D02*
X258200000Y-113825000D01*
X262300800Y-117025800D02*
X262300800Y-115200000D01*
X262700000Y-117425000D02*
X262300800Y-117025800D01*
X260160000Y-113065000D02*
X260160000Y-113585000D01*
X259200000Y-112825000D02*
G75*
G03*
X258960000Y-113065000I0J-240000D01*
G01*
X260760000Y-113065000D02*
G75*
G03*
X260520000Y-112825000I-240000J0D01*
G01*
X261000000Y-113825000D02*
G75*
G02*
X260760000Y-113585000I0J240000D01*
G01*
X259560000Y-113065000D02*
G75*
G03*
X259320000Y-112825000I-240000J0D01*
G01*
X260160000Y-113975000D02*
G75*
G02*
X260010000Y-114125000I-150000J0D01*
G01*
X260400000Y-112825000D02*
G75*
G03*
X260160000Y-113065000I0J-240000D01*
G01*
X261883605Y-113924851D02*
G75*
G02*
X261549851Y-113924851I-166877J166876D01*
G01*
X259710000Y-114125000D02*
G75*
G02*
X259560000Y-113975000I0J150000D01*
G01*
X263055990Y-113586854D02*
G75*
G03*
X263055967Y-113253123I-166890J166854D01*
G01*
X262300800Y-114675800D02*
G75*
G02*
X262300777Y-114342023I166900J166900D01*
G01*
X258960000Y-113585000D02*
G75*
G02*
X258720000Y-113825000I-240000J0D01*
G01*
X262972551Y-113169661D02*
G75*
G03*
X262638797Y-113169661I-166877J-166877D01*
G01*
X263500000Y-115475000D02*
X263500000Y-116398500D01*
X256075000Y-120525000D02*
X256075000Y-118775000D01*
X255725000Y-120875000D02*
X256075000Y-120525000D01*
X263500000Y-116398500D02*
X263526500Y-116425000D01*
X253515000Y-121550000D02*
X254190000Y-120875000D01*
X254190000Y-120875000D02*
X255725000Y-120875000D01*
X252625000Y-121550000D02*
X253515000Y-121550000D01*
D21*
X258400000Y-115949207D02*
X258400000Y-115100000D01*
X258776000Y-118274000D02*
X258776000Y-116325207D01*
X258075000Y-118975000D02*
X258350000Y-119250000D01*
X258350000Y-119250000D02*
X258350000Y-121675000D01*
X258776000Y-116325207D02*
X258400000Y-115949207D01*
X258075000Y-118975000D02*
X258776000Y-118274000D01*
X263451500Y-119350000D02*
X263526500Y-119425000D01*
X258400000Y-115100000D02*
X258887922Y-114612078D01*
X261700000Y-115125000D02*
X261700000Y-118580400D01*
X261187078Y-114612078D02*
X261700000Y-115125000D01*
X261700000Y-118580400D02*
X262469600Y-119350000D01*
X258887922Y-114612078D02*
X261187078Y-114612078D01*
X262469600Y-119350000D02*
X263451500Y-119350000D01*
D20*
X255000000Y-121225000D02*
X254675000Y-121550000D01*
X254675000Y-121550000D02*
X254535000Y-121550000D01*
X256825000Y-121225000D02*
X255000000Y-121225000D01*
X257175000Y-121525000D02*
X257125000Y-121525000D01*
X257125000Y-121525000D02*
X256825000Y-121225000D01*
X252550000Y-114025000D02*
X252550000Y-114035000D01*
X251775000Y-113425000D02*
X251950000Y-113425000D01*
X252550000Y-114035000D02*
X252590000Y-114075000D01*
X251950000Y-113425000D02*
X252550000Y-114025000D01*
D21*
X252100000Y-119975000D02*
X254665000Y-119975000D01*
X259465000Y-122110000D02*
X258850000Y-122725000D01*
X251850000Y-120225000D02*
X252100000Y-119975000D01*
X258850000Y-122725000D02*
X252275000Y-122725000D01*
X254665000Y-115675000D02*
X252712500Y-115675000D01*
X252275000Y-122725000D02*
X251850000Y-122300000D01*
X251850000Y-122300000D02*
X251850000Y-120225000D01*
X259465000Y-119975000D02*
X259465000Y-115675000D01*
X254665000Y-119975000D02*
X254665000Y-115675000D01*
X259465000Y-119975000D02*
X259465000Y-122110000D01*
X252712500Y-115675000D02*
X250950000Y-117437500D01*
G04 #@! TA.AperFunction,Conductor*
G36*
X258092941Y-111720185D02*
G01*
X258138696Y-111772989D01*
X258148640Y-111842147D01*
X258119615Y-111905703D01*
X258113583Y-111912181D01*
X258044480Y-111981284D01*
X258044478Y-111981286D01*
X257501265Y-112524500D01*
X256987584Y-113038181D01*
X256926261Y-113071666D01*
X256899903Y-113074500D01*
X256811306Y-113074500D01*
X256637341Y-113109103D01*
X256637332Y-113109106D01*
X256473459Y-113176983D01*
X256473446Y-113176990D01*
X256325966Y-113275534D01*
X256200535Y-113400966D01*
X256200531Y-113400971D01*
X256189763Y-113417086D01*
X256148664Y-113455578D01*
X256081287Y-113494477D01*
X256081282Y-113494481D01*
X255594481Y-113981282D01*
X255594479Y-113981285D01*
X255550891Y-114056784D01*
X255550889Y-114056786D01*
X255515425Y-114118209D01*
X255515423Y-114118212D01*
X255499066Y-114179259D01*
X255474499Y-114270943D01*
X255474499Y-114270945D01*
X255474499Y-114439046D01*
X255474500Y-114439059D01*
X255474500Y-114739958D01*
X255454815Y-114806997D01*
X255402011Y-114852752D01*
X255332853Y-114862696D01*
X255274887Y-114837158D01*
X255274721Y-114837408D01*
X255273301Y-114836459D01*
X255271841Y-114835816D01*
X255269660Y-114834026D01*
X255155393Y-114757676D01*
X255097598Y-114719059D01*
X255081338Y-114712324D01*
X254906420Y-114639870D01*
X254906412Y-114639868D01*
X254703469Y-114599500D01*
X254703465Y-114599500D01*
X254496535Y-114599500D01*
X254496534Y-114599500D01*
X254496523Y-114599501D01*
X254496242Y-114599557D01*
X254496091Y-114599543D01*
X254490472Y-114600097D01*
X254490366Y-114599030D01*
X254426651Y-114593321D01*
X254371479Y-114550451D01*
X254348243Y-114484559D01*
X254352990Y-114443342D01*
X254377166Y-114360128D01*
X254377167Y-114360122D01*
X254379931Y-114325000D01*
X253734000Y-114325000D01*
X253666961Y-114305315D01*
X253621206Y-114252511D01*
X253610000Y-114201000D01*
X253610000Y-114075000D01*
X253484499Y-114075000D01*
X253476032Y-114072513D01*
X253467301Y-114073802D01*
X253443021Y-114062820D01*
X253417460Y-114055315D01*
X253411681Y-114048645D01*
X253403640Y-114045009D01*
X253389151Y-114022644D01*
X253371705Y-114002511D01*
X253369449Y-113992235D01*
X253365650Y-113986370D01*
X253360693Y-113952335D01*
X253360500Y-113951454D01*
X253360499Y-113951249D01*
X253360499Y-113825820D01*
X253360017Y-113819705D01*
X253360001Y-113815061D01*
X253360015Y-113815009D01*
X253360000Y-113814607D01*
X253360000Y-113262154D01*
X253860000Y-113262154D01*
X253860000Y-113825000D01*
X254379931Y-113825000D01*
X254377167Y-113789877D01*
X254377166Y-113789871D01*
X254332407Y-113635811D01*
X254332406Y-113635808D01*
X254250738Y-113497714D01*
X254250731Y-113497705D01*
X254137294Y-113384268D01*
X254137285Y-113384261D01*
X253999191Y-113302593D01*
X253999188Y-113302591D01*
X253860001Y-113262153D01*
X253860000Y-113262154D01*
X253360000Y-113262154D01*
X253359998Y-113262153D01*
X253220811Y-113302591D01*
X253220810Y-113302592D01*
X253163611Y-113336419D01*
X253095886Y-113353600D01*
X253037371Y-113336419D01*
X252980174Y-113302593D01*
X252979393Y-113302131D01*
X252979392Y-113302130D01*
X252979391Y-113302130D01*
X252979388Y-113302129D01*
X252825208Y-113257335D01*
X252825202Y-113257334D01*
X252789188Y-113254500D01*
X252789181Y-113254500D01*
X252760817Y-113254500D01*
X252693778Y-113234815D01*
X252648023Y-113182011D01*
X252642158Y-113166501D01*
X252640893Y-113162332D01*
X252573016Y-112998459D01*
X252573009Y-112998446D01*
X252474464Y-112850964D01*
X252349038Y-112725538D01*
X252349034Y-112725535D01*
X252201553Y-112626990D01*
X252201540Y-112626983D01*
X252037667Y-112559106D01*
X252037658Y-112559103D01*
X251863694Y-112524500D01*
X251863691Y-112524500D01*
X251686309Y-112524500D01*
X251686306Y-112524500D01*
X251512341Y-112559103D01*
X251512332Y-112559106D01*
X251348459Y-112626983D01*
X251348446Y-112626990D01*
X251200965Y-112725535D01*
X251200961Y-112725538D01*
X251075538Y-112850961D01*
X251075536Y-112850964D01*
X250976990Y-112998446D01*
X250976983Y-112998459D01*
X250909106Y-113162332D01*
X250909103Y-113162341D01*
X250874500Y-113336304D01*
X250874500Y-113513695D01*
X250909103Y-113687658D01*
X250909106Y-113687667D01*
X250976983Y-113851540D01*
X250976990Y-113851553D01*
X251075535Y-113999034D01*
X251075538Y-113999038D01*
X251200961Y-114124461D01*
X251200965Y-114124464D01*
X251348446Y-114223009D01*
X251348459Y-114223016D01*
X251464172Y-114270945D01*
X251512334Y-114290894D01*
X251512336Y-114290894D01*
X251512341Y-114290896D01*
X251686304Y-114325499D01*
X251686307Y-114325500D01*
X251686309Y-114325500D01*
X251719151Y-114325500D01*
X251744670Y-114332993D01*
X251770985Y-114336854D01*
X251777675Y-114342684D01*
X251786190Y-114345185D01*
X251803606Y-114365284D01*
X251823658Y-114382760D01*
X251829041Y-114394638D01*
X251831945Y-114397989D01*
X251838225Y-114414898D01*
X251846489Y-114443342D01*
X251865720Y-114509537D01*
X251865520Y-114579406D01*
X251827577Y-114638076D01*
X251763938Y-114666919D01*
X251707639Y-114661837D01*
X251552697Y-114610494D01*
X251552690Y-114610493D01*
X251449986Y-114600000D01*
X251200000Y-114600000D01*
X251200000Y-115488500D01*
X251180315Y-115555539D01*
X251127511Y-115601294D01*
X251076000Y-115612500D01*
X250950000Y-115612500D01*
X250950000Y-115738500D01*
X250930315Y-115805539D01*
X250877511Y-115851294D01*
X250826000Y-115862500D01*
X249750001Y-115862500D01*
X249750001Y-115924986D01*
X249760494Y-116027697D01*
X249815641Y-116194119D01*
X249815643Y-116194124D01*
X249907684Y-116343345D01*
X250001304Y-116436965D01*
X250034789Y-116498288D01*
X250029805Y-116567980D01*
X250001305Y-116612327D01*
X249907287Y-116706345D01*
X249815187Y-116855663D01*
X249815185Y-116855668D01*
X249787349Y-116939670D01*
X249760001Y-117022203D01*
X249760001Y-117022204D01*
X249760000Y-117022204D01*
X249749500Y-117124983D01*
X249749500Y-117750001D01*
X249749501Y-117750019D01*
X249760000Y-117852796D01*
X249760001Y-117852799D01*
X249798807Y-117969906D01*
X249815186Y-118019334D01*
X249907288Y-118168656D01*
X250031344Y-118292712D01*
X250180666Y-118384814D01*
X250347203Y-118439999D01*
X250449991Y-118450500D01*
X251450008Y-118450499D01*
X251450016Y-118450498D01*
X251450019Y-118450498D01*
X251506302Y-118444748D01*
X251552797Y-118439999D01*
X251719334Y-118384814D01*
X251868656Y-118292712D01*
X251992712Y-118168656D01*
X252084814Y-118019334D01*
X252139999Y-117852797D01*
X252150500Y-117750009D01*
X252150499Y-117208306D01*
X252170183Y-117141268D01*
X252186813Y-117120631D01*
X252945627Y-116361819D01*
X253006950Y-116328334D01*
X253033308Y-116325500D01*
X253738506Y-116325500D01*
X253765387Y-116333393D01*
X253793013Y-116338122D01*
X253801055Y-116343866D01*
X253805545Y-116345185D01*
X253822184Y-116357990D01*
X253824217Y-116359849D01*
X253930345Y-116465977D01*
X253967229Y-116490622D01*
X253974178Y-116496976D01*
X253987590Y-116519127D01*
X254004195Y-116538995D01*
X254006592Y-116550507D01*
X254010368Y-116556743D01*
X254010086Y-116567287D01*
X254014500Y-116588486D01*
X254014500Y-117661585D01*
X253994815Y-117728624D01*
X253942011Y-117774379D01*
X253872853Y-117784323D01*
X253809297Y-117755298D01*
X253771523Y-117696520D01*
X253770725Y-117693678D01*
X253752824Y-117626870D01*
X253744348Y-117595235D01*
X253674506Y-117474265D01*
X253575735Y-117375494D01*
X253454765Y-117305652D01*
X253319842Y-117269500D01*
X253180158Y-117269500D01*
X253045235Y-117305652D01*
X253045232Y-117305653D01*
X252924263Y-117375495D01*
X252825495Y-117474263D01*
X252755653Y-117595232D01*
X252755652Y-117595235D01*
X252719500Y-117730158D01*
X252719500Y-117869842D01*
X252755596Y-118004554D01*
X252755652Y-118004764D01*
X252755653Y-118004767D01*
X252770601Y-118030657D01*
X252825494Y-118125735D01*
X252924265Y-118224506D01*
X253045235Y-118294348D01*
X253180158Y-118330500D01*
X253180160Y-118330500D01*
X253319840Y-118330500D01*
X253319842Y-118330500D01*
X253454765Y-118294348D01*
X253575735Y-118224506D01*
X253674506Y-118125735D01*
X253744348Y-118004765D01*
X253770726Y-117906319D01*
X253807090Y-117846661D01*
X253869936Y-117816131D01*
X253939312Y-117824425D01*
X253993190Y-117868910D01*
X254014465Y-117935462D01*
X254014500Y-117938414D01*
X254014500Y-119011512D01*
X253994815Y-119078551D01*
X253959392Y-119114613D01*
X253930347Y-119134020D01*
X253930341Y-119134025D01*
X253779715Y-119284652D01*
X253778588Y-119283525D01*
X253727249Y-119318498D01*
X253689138Y-119324500D01*
X252035929Y-119324500D01*
X251910261Y-119349497D01*
X251910255Y-119349499D01*
X251791870Y-119398535D01*
X251685331Y-119469722D01*
X251685324Y-119469728D01*
X251344727Y-119810325D01*
X251344721Y-119810332D01*
X251284474Y-119900498D01*
X251284475Y-119900499D01*
X251273535Y-119916871D01*
X251224499Y-120035255D01*
X251224497Y-120035261D01*
X251199500Y-120160928D01*
X251199500Y-122364070D01*
X251211720Y-122425499D01*
X251211720Y-122425501D01*
X251224497Y-122489736D01*
X251224499Y-122489744D01*
X251273534Y-122608125D01*
X251344726Y-122714673D01*
X251860326Y-123230273D01*
X251860329Y-123230275D01*
X251860331Y-123230277D01*
X251966873Y-123301465D01*
X252085256Y-123350501D01*
X252085260Y-123350501D01*
X252085261Y-123350502D01*
X252210928Y-123375500D01*
X252210931Y-123375500D01*
X258914071Y-123375500D01*
X258998615Y-123358682D01*
X259039744Y-123350501D01*
X259158127Y-123301465D01*
X259264669Y-123230277D01*
X259970276Y-122524670D01*
X260036539Y-122425500D01*
X260041464Y-122418129D01*
X260063856Y-122364070D01*
X260090501Y-122299744D01*
X260115500Y-122174069D01*
X260115500Y-121420544D01*
X265949000Y-121420544D01*
X265955401Y-121480072D01*
X265955403Y-121480079D01*
X266005645Y-121614786D01*
X266005649Y-121614793D01*
X266091809Y-121729887D01*
X266091812Y-121729890D01*
X266206906Y-121816050D01*
X266206913Y-121816054D01*
X266341620Y-121866296D01*
X266341627Y-121866298D01*
X266401155Y-121872699D01*
X266401172Y-121872700D01*
X267151500Y-121872700D01*
X267651500Y-121872700D01*
X268401828Y-121872700D01*
X268401844Y-121872699D01*
X268461372Y-121866298D01*
X268461379Y-121866296D01*
X268596086Y-121816054D01*
X268596093Y-121816050D01*
X268711187Y-121729890D01*
X268711190Y-121729887D01*
X268797350Y-121614793D01*
X268797354Y-121614786D01*
X268847596Y-121480079D01*
X268847598Y-121480072D01*
X268853999Y-121420544D01*
X268854000Y-121420527D01*
X268854000Y-120975000D01*
X267651500Y-120975000D01*
X267651500Y-121872700D01*
X267151500Y-121872700D01*
X267151500Y-120975000D01*
X265949000Y-120975000D01*
X265949000Y-121420544D01*
X260115500Y-121420544D01*
X260115500Y-120771494D01*
X260135185Y-120704455D01*
X260151814Y-120683817D01*
X260215977Y-120619655D01*
X260330941Y-120447598D01*
X260410130Y-120256420D01*
X260450500Y-120053465D01*
X260450500Y-119846535D01*
X260410130Y-119643580D01*
X260330941Y-119452402D01*
X260215977Y-119280345D01*
X260215975Y-119280342D01*
X260151819Y-119216186D01*
X260118334Y-119154863D01*
X260115500Y-119128505D01*
X260115500Y-118336070D01*
X260135185Y-118269031D01*
X260187989Y-118223276D01*
X260257147Y-118213332D01*
X260301501Y-118228684D01*
X260350668Y-118257071D01*
X260350670Y-118257072D01*
X260350671Y-118257072D01*
X260350674Y-118257074D01*
X260475424Y-118290500D01*
X260475426Y-118290500D01*
X260925500Y-118290500D01*
X260992539Y-118310185D01*
X261038294Y-118362989D01*
X261049500Y-118414500D01*
X261049500Y-118644471D01*
X261067956Y-118737251D01*
X261067956Y-118737252D01*
X261074497Y-118770137D01*
X261074498Y-118770141D01*
X261074499Y-118770144D01*
X261081152Y-118786206D01*
X261112832Y-118862689D01*
X261123535Y-118888527D01*
X261194723Y-118995069D01*
X261194726Y-118995073D01*
X262054926Y-119855273D01*
X262054929Y-119855275D01*
X262054931Y-119855277D01*
X262161473Y-119926465D01*
X262265323Y-119969481D01*
X262317136Y-120009731D01*
X262394252Y-120112744D01*
X262394255Y-120112747D01*
X262509464Y-120198993D01*
X262509471Y-120198997D01*
X262644317Y-120249291D01*
X262644316Y-120249291D01*
X262651244Y-120250035D01*
X262703927Y-120255700D01*
X264349072Y-120255699D01*
X264408683Y-120249291D01*
X264543531Y-120198996D01*
X264658746Y-120112746D01*
X264721098Y-120029455D01*
X265949000Y-120029455D01*
X265949000Y-120475000D01*
X267151500Y-120475000D01*
X267651500Y-120475000D01*
X268854000Y-120475000D01*
X268854000Y-120029472D01*
X268853999Y-120029455D01*
X268847598Y-119969927D01*
X268847596Y-119969920D01*
X268797354Y-119835213D01*
X268797350Y-119835206D01*
X268711190Y-119720112D01*
X268711187Y-119720109D01*
X268596093Y-119633949D01*
X268596086Y-119633945D01*
X268461379Y-119583703D01*
X268461372Y-119583701D01*
X268401844Y-119577300D01*
X267651500Y-119577300D01*
X267651500Y-120475000D01*
X267151500Y-120475000D01*
X267151500Y-119577300D01*
X266401155Y-119577300D01*
X266341627Y-119583701D01*
X266341620Y-119583703D01*
X266206913Y-119633945D01*
X266206906Y-119633949D01*
X266091812Y-119720109D01*
X266091809Y-119720112D01*
X266005649Y-119835206D01*
X266005645Y-119835213D01*
X265955403Y-119969920D01*
X265955401Y-119969927D01*
X265949000Y-120029455D01*
X264721098Y-120029455D01*
X264744996Y-119997531D01*
X264795291Y-119862683D01*
X264801700Y-119803073D01*
X264801699Y-119046928D01*
X264795291Y-118987317D01*
X264788210Y-118968334D01*
X264783225Y-118898644D01*
X264788212Y-118881663D01*
X264795289Y-118862689D01*
X264795289Y-118862688D01*
X264795288Y-118862688D01*
X264795291Y-118862683D01*
X264801700Y-118803073D01*
X264801699Y-118623896D01*
X264821383Y-118556857D01*
X264838008Y-118536225D01*
X265230520Y-118143716D01*
X265309577Y-118006785D01*
X265350501Y-117854057D01*
X265350501Y-117695942D01*
X265350501Y-117688347D01*
X265350500Y-117688329D01*
X265350500Y-115920942D01*
X265344374Y-115898082D01*
X265339534Y-115880019D01*
X265323598Y-115820544D01*
X265949000Y-115820544D01*
X265955401Y-115880072D01*
X265955403Y-115880079D01*
X266005645Y-116014786D01*
X266005649Y-116014793D01*
X266091809Y-116129887D01*
X266091812Y-116129890D01*
X266206906Y-116216050D01*
X266206913Y-116216054D01*
X266341620Y-116266296D01*
X266341627Y-116266298D01*
X266401155Y-116272699D01*
X266401172Y-116272700D01*
X267151500Y-116272700D01*
X267651500Y-116272700D01*
X268401828Y-116272700D01*
X268401844Y-116272699D01*
X268461372Y-116266298D01*
X268461379Y-116266296D01*
X268596086Y-116216054D01*
X268596093Y-116216050D01*
X268711187Y-116129890D01*
X268711190Y-116129887D01*
X268797350Y-116014793D01*
X268797354Y-116014786D01*
X268847596Y-115880079D01*
X268847598Y-115880072D01*
X268853999Y-115820544D01*
X268854000Y-115820527D01*
X268854000Y-115375000D01*
X267651500Y-115375000D01*
X267651500Y-116272700D01*
X267151500Y-116272700D01*
X267151500Y-115375000D01*
X265949000Y-115375000D01*
X265949000Y-115820544D01*
X265323598Y-115820544D01*
X265309577Y-115768216D01*
X265245312Y-115656904D01*
X265230524Y-115631290D01*
X265230521Y-115631286D01*
X265230520Y-115631284D01*
X265118716Y-115519480D01*
X265118715Y-115519479D01*
X265114385Y-115515149D01*
X265114374Y-115515139D01*
X264761819Y-115162584D01*
X264728334Y-115101261D01*
X264725500Y-115074903D01*
X264725500Y-114429455D01*
X265949000Y-114429455D01*
X265949000Y-114875000D01*
X267151500Y-114875000D01*
X267651500Y-114875000D01*
X268854000Y-114875000D01*
X268854000Y-114429472D01*
X268853999Y-114429455D01*
X268847598Y-114369927D01*
X268847596Y-114369920D01*
X268797354Y-114235213D01*
X268797350Y-114235206D01*
X268711190Y-114120112D01*
X268711187Y-114120109D01*
X268596093Y-114033949D01*
X268596086Y-114033945D01*
X268461379Y-113983703D01*
X268461372Y-113983701D01*
X268401844Y-113977300D01*
X267651500Y-113977300D01*
X267651500Y-114875000D01*
X267151500Y-114875000D01*
X267151500Y-113977300D01*
X266401155Y-113977300D01*
X266341627Y-113983701D01*
X266341620Y-113983703D01*
X266206913Y-114033945D01*
X266206906Y-114033949D01*
X266091812Y-114120109D01*
X266091809Y-114120112D01*
X266005649Y-114235206D01*
X266005645Y-114235213D01*
X265955403Y-114369920D01*
X265955401Y-114369927D01*
X265949000Y-114429455D01*
X264725500Y-114429455D01*
X264725500Y-113239059D01*
X264725501Y-113239046D01*
X264725501Y-113070945D01*
X264725501Y-113070943D01*
X264684577Y-112918215D01*
X264645750Y-112850965D01*
X264605520Y-112781284D01*
X264493716Y-112669480D01*
X264493715Y-112669479D01*
X264489385Y-112665149D01*
X264489374Y-112665139D01*
X263812590Y-111988355D01*
X263805521Y-111981286D01*
X263805520Y-111981284D01*
X263736414Y-111912178D01*
X263714758Y-111872515D01*
X263702932Y-111850858D01*
X263707916Y-111781166D01*
X263731862Y-111749178D01*
X263749788Y-111725232D01*
X263797468Y-111707448D01*
X263815252Y-111700816D01*
X263824098Y-111700500D01*
X282675500Y-111700500D01*
X282742539Y-111720185D01*
X282788294Y-111772989D01*
X282799500Y-111824500D01*
X282799500Y-123775500D01*
X282779815Y-123842539D01*
X282727011Y-123888294D01*
X282675500Y-123899500D01*
X231324500Y-123899500D01*
X231257461Y-123879815D01*
X231211706Y-123827011D01*
X231200500Y-123775500D01*
X231200500Y-115300013D01*
X249750000Y-115300013D01*
X249750000Y-115362500D01*
X250700000Y-115362500D01*
X250700000Y-114600000D01*
X250450029Y-114600000D01*
X250450012Y-114600001D01*
X250347302Y-114610494D01*
X250180880Y-114665641D01*
X250180875Y-114665643D01*
X250031654Y-114757684D01*
X249907684Y-114881654D01*
X249815643Y-115030875D01*
X249815641Y-115030880D01*
X249760494Y-115197302D01*
X249760493Y-115197309D01*
X249750000Y-115300013D01*
X231200500Y-115300013D01*
X231200500Y-111824500D01*
X231220185Y-111757461D01*
X231272989Y-111711706D01*
X231324500Y-111700500D01*
X258025902Y-111700500D01*
X258092941Y-111720185D01*
G37*
G04 #@! TD.AperFunction*
G04 #@! TA.AperFunction,Conductor*
G36*
X252996755Y-120645185D02*
G01*
X253042510Y-120697989D01*
X253052454Y-120767147D01*
X253023429Y-120830703D01*
X252992839Y-120856231D01*
X252987713Y-120859262D01*
X252987705Y-120859268D01*
X252874268Y-120972705D01*
X252874261Y-120972714D01*
X252792593Y-121110808D01*
X252792592Y-121110811D01*
X252747833Y-121264870D01*
X252746694Y-121271111D01*
X252744512Y-121270712D01*
X252723232Y-121326542D01*
X252667001Y-121368012D01*
X252597275Y-121372497D01*
X252536193Y-121338574D01*
X252503148Y-121277013D01*
X252500500Y-121251523D01*
X252500500Y-120749500D01*
X252520185Y-120682461D01*
X252572989Y-120636706D01*
X252624500Y-120625500D01*
X252929716Y-120625500D01*
X252996755Y-120645185D01*
G37*
G04 #@! TD.AperFunction*
G04 #@! TA.AperFunction,Conductor*
G36*
X257309994Y-114858327D02*
G01*
X257345648Y-114918415D01*
X257349500Y-114949083D01*
X257349500Y-116501756D01*
X257332233Y-116564876D01*
X257273254Y-116664605D01*
X257273254Y-116664606D01*
X257227402Y-116822426D01*
X257227401Y-116822432D01*
X257224500Y-116859298D01*
X257224500Y-117290701D01*
X257227401Y-117327567D01*
X257227402Y-117327573D01*
X257273254Y-117485393D01*
X257273255Y-117485396D01*
X257356917Y-117626862D01*
X257356923Y-117626870D01*
X257473129Y-117743076D01*
X257473133Y-117743079D01*
X257473135Y-117743081D01*
X257614602Y-117826744D01*
X257656224Y-117838836D01*
X257772426Y-117872597D01*
X257772429Y-117872597D01*
X257772431Y-117872598D01*
X257809306Y-117875500D01*
X257955192Y-117875500D01*
X257976437Y-117881738D01*
X257998526Y-117883318D01*
X258009309Y-117891390D01*
X258022231Y-117895185D01*
X258036730Y-117911918D01*
X258054459Y-117925190D01*
X258059166Y-117937810D01*
X258067986Y-117947989D01*
X258071137Y-117969906D01*
X258078876Y-117990654D01*
X258076013Y-118003814D01*
X258077930Y-118017147D01*
X258068730Y-118037290D01*
X258064024Y-118058927D01*
X258050755Y-118076652D01*
X258048905Y-118080703D01*
X258042873Y-118087181D01*
X257991873Y-118138181D01*
X257930550Y-118171666D01*
X257904192Y-118174500D01*
X257809298Y-118174500D01*
X257772432Y-118177401D01*
X257772426Y-118177402D01*
X257614606Y-118223254D01*
X257614603Y-118223255D01*
X257473137Y-118306917D01*
X257473129Y-118306923D01*
X257356923Y-118423129D01*
X257356917Y-118423137D01*
X257273255Y-118564603D01*
X257273254Y-118564606D01*
X257227402Y-118722426D01*
X257227401Y-118722432D01*
X257224500Y-118759298D01*
X257224500Y-119190701D01*
X257227401Y-119227567D01*
X257227402Y-119227573D01*
X257273254Y-119385393D01*
X257273255Y-119385396D01*
X257356917Y-119526862D01*
X257356923Y-119526870D01*
X257473129Y-119643076D01*
X257473133Y-119643079D01*
X257473135Y-119643081D01*
X257473137Y-119643082D01*
X257614600Y-119726743D01*
X257621764Y-119729843D01*
X257620729Y-119732233D01*
X257668957Y-119763013D01*
X257698182Y-119826477D01*
X257699500Y-119844510D01*
X257699500Y-120581982D01*
X257679815Y-120649021D01*
X257627011Y-120694776D01*
X257557853Y-120704720D01*
X257528048Y-120696543D01*
X257437667Y-120659106D01*
X257437658Y-120659103D01*
X257263694Y-120624500D01*
X257263691Y-120624500D01*
X257086309Y-120624500D01*
X257086305Y-120624500D01*
X257010067Y-120639665D01*
X256977108Y-120641738D01*
X256965258Y-120640897D01*
X256904057Y-120624499D01*
X256745943Y-120624499D01*
X256745939Y-120624500D01*
X255643245Y-120624500D01*
X255576206Y-120604815D01*
X255530451Y-120552011D01*
X255520507Y-120482853D01*
X255528684Y-120453047D01*
X255533537Y-120441329D01*
X255610130Y-120256420D01*
X255650500Y-120053465D01*
X255650500Y-119893064D01*
X255670185Y-119826025D01*
X255722989Y-119780270D01*
X255785721Y-119769573D01*
X255825000Y-119773142D01*
X255825000Y-119773141D01*
X256325000Y-119773141D01*
X256372561Y-119768821D01*
X256372570Y-119768819D01*
X256529060Y-119720055D01*
X256529064Y-119720053D01*
X256669337Y-119635256D01*
X256669342Y-119635252D01*
X256785252Y-119519342D01*
X256785256Y-119519337D01*
X256870052Y-119379065D01*
X256918820Y-119222562D01*
X256925000Y-119154556D01*
X256925000Y-119025000D01*
X256325000Y-119025000D01*
X256325000Y-119773141D01*
X255825000Y-119773141D01*
X255825000Y-118899000D01*
X255844685Y-118831961D01*
X255897489Y-118786206D01*
X255949000Y-118775000D01*
X256075000Y-118775000D01*
X256075000Y-118649000D01*
X256094685Y-118581961D01*
X256147489Y-118536206D01*
X256199000Y-118525000D01*
X256924999Y-118525000D01*
X256924999Y-118395433D01*
X256918821Y-118327438D01*
X256918818Y-118327427D01*
X256870055Y-118170939D01*
X256870053Y-118170935D01*
X256785256Y-118030662D01*
X256785252Y-118030657D01*
X256674952Y-117920357D01*
X256641467Y-117859034D01*
X256646451Y-117789342D01*
X256674952Y-117744995D01*
X256793076Y-117626870D01*
X256793081Y-117626865D01*
X256876744Y-117485398D01*
X256922598Y-117327569D01*
X256925500Y-117290694D01*
X256925500Y-116859306D01*
X256922598Y-116822431D01*
X256876744Y-116664602D01*
X256793081Y-116523135D01*
X256793079Y-116523133D01*
X256793076Y-116523129D01*
X256711819Y-116441872D01*
X256678334Y-116380549D01*
X256675500Y-116354191D01*
X256675500Y-114998937D01*
X256695185Y-114931898D01*
X256747989Y-114886143D01*
X256805217Y-114876606D01*
X256805217Y-114875500D01*
X256988693Y-114875500D01*
X256988694Y-114875499D01*
X257075025Y-114858327D01*
X257162658Y-114840896D01*
X257162661Y-114840894D01*
X257162666Y-114840894D01*
X257178047Y-114834522D01*
X257247515Y-114827053D01*
X257309994Y-114858327D01*
G37*
G04 #@! TD.AperFunction*
G04 #@! TA.AperFunction,Conductor*
G36*
X263443834Y-114150758D02*
G01*
X263499767Y-114192630D01*
X263524184Y-114258094D01*
X263524500Y-114266940D01*
X263524500Y-115295939D01*
X263524499Y-115295943D01*
X263524499Y-115454057D01*
X263525556Y-115458002D01*
X263525631Y-115470030D01*
X263518044Y-115496474D01*
X263513805Y-115523652D01*
X263508547Y-115529575D01*
X263506363Y-115537190D01*
X263485683Y-115555334D01*
X263467424Y-115575907D01*
X263459714Y-115578120D01*
X263453844Y-115583272D01*
X263428557Y-115587068D01*
X263401633Y-115594800D01*
X263025300Y-115594800D01*
X262958261Y-115575115D01*
X262912506Y-115522311D01*
X262901300Y-115470800D01*
X262901300Y-114741633D01*
X262903331Y-114719281D01*
X262903372Y-114719058D01*
X262904606Y-114712324D01*
X262901526Y-114661399D01*
X262901300Y-114653913D01*
X262901300Y-114642140D01*
X262920985Y-114575101D01*
X262937619Y-114554459D01*
X263312819Y-114179259D01*
X263374142Y-114145774D01*
X263443834Y-114150758D01*
G37*
G04 #@! TD.AperFunction*
M02*
