G04 #@! TF.GenerationSoftware,KiCad,Pcbnew,6.0.4*
G04 #@! TF.CreationDate,2022-06-03T16:07:39+02:00*
G04 #@! TF.ProjectId,OpenDeck-r3.0.1,4f70656e-4465-4636-9b2d-72332e302e31,rev?*
G04 #@! TF.SameCoordinates,Original*
G04 #@! TF.FileFunction,Paste,Top*
G04 #@! TF.FilePolarity,Positive*
%FSLAX46Y46*%
G04 Gerber Fmt 4.6, Leading zero omitted, Abs format (unit mm)*
G04 Created by KiCad (PCBNEW 6.0.4) date 2022-06-03 16:07:39*
%MOMM*%
%LPD*%
G01*
G04 APERTURE LIST*
G04 Aperture macros list*
%AMRoundRect*
0 Rectangle with rounded corners*
0 $1 Rounding radius*
0 $2 $3 $4 $5 $6 $7 $8 $9 X,Y pos of 4 corners*
0 Add a 4 corners polygon primitive as box body*
4,1,4,$2,$3,$4,$5,$6,$7,$8,$9,$2,$3,0*
0 Add four circle primitives for the rounded corners*
1,1,$1+$1,$2,$3*
1,1,$1+$1,$4,$5*
1,1,$1+$1,$6,$7*
1,1,$1+$1,$8,$9*
0 Add four rect primitives between the rounded corners*
20,1,$1+$1,$2,$3,$4,$5,0*
20,1,$1+$1,$4,$5,$6,$7,0*
20,1,$1+$1,$6,$7,$8,$9,0*
20,1,$1+$1,$8,$9,$2,$3,0*%
G04 Aperture macros list end*
%ADD10R,0.600000X0.700000*%
%ADD11RoundRect,0.243750X0.243750X0.456250X-0.243750X0.456250X-0.243750X-0.456250X0.243750X-0.456250X0*%
%ADD12RoundRect,0.135000X-0.135000X-0.185000X0.135000X-0.185000X0.135000X0.185000X-0.135000X0.185000X0*%
%ADD13RoundRect,0.135000X-0.185000X0.135000X-0.185000X-0.135000X0.185000X-0.135000X0.185000X0.135000X0*%
%ADD14RoundRect,0.140000X0.170000X-0.140000X0.170000X0.140000X-0.170000X0.140000X-0.170000X-0.140000X0*%
%ADD15RoundRect,0.150000X-0.725000X-0.150000X0.725000X-0.150000X0.725000X0.150000X-0.725000X0.150000X0*%
%ADD16RoundRect,0.140000X0.140000X0.170000X-0.140000X0.170000X-0.140000X-0.170000X0.140000X-0.170000X0*%
%ADD17R,1.520000X1.780000*%
%ADD18R,1.520000X1.750000*%
%ADD19RoundRect,0.140000X-0.170000X0.140000X-0.170000X-0.140000X0.170000X-0.140000X0.170000X0.140000X0*%
%ADD20RoundRect,0.150000X-0.150000X0.512500X-0.150000X-0.512500X0.150000X-0.512500X0.150000X0.512500X0*%
%ADD21R,0.700000X0.600000*%
%ADD22RoundRect,0.100000X0.100000X-0.637500X0.100000X0.637500X-0.100000X0.637500X-0.100000X-0.637500X0*%
%ADD23RoundRect,0.150000X0.150000X-0.875000X0.150000X0.875000X-0.150000X0.875000X-0.150000X-0.875000X0*%
%ADD24RoundRect,0.135000X0.185000X-0.135000X0.185000X0.135000X-0.185000X0.135000X-0.185000X-0.135000X0*%
%ADD25RoundRect,0.150000X0.725000X0.150000X-0.725000X0.150000X-0.725000X-0.150000X0.725000X-0.150000X0*%
%ADD26RoundRect,0.135000X0.135000X0.185000X-0.135000X0.185000X-0.135000X-0.185000X0.135000X-0.185000X0*%
%ADD27RoundRect,0.140000X-0.140000X-0.170000X0.140000X-0.170000X0.140000X0.170000X-0.140000X0.170000X0*%
G04 APERTURE END LIST*
D10*
X141540000Y-36322000D03*
X142940000Y-36322000D03*
X132650000Y-36322000D03*
X134050000Y-36322000D03*
X123760000Y-46482000D03*
X125160000Y-46482000D03*
X114870000Y-46482000D03*
X116270000Y-46482000D03*
X132650000Y-65913000D03*
X134050000Y-65913000D03*
D11*
X259382500Y-43180000D03*
X257507500Y-43180000D03*
D12*
X171194000Y-68834000D03*
X172214000Y-68834000D03*
D10*
X141540000Y-31242000D03*
X142940000Y-31242000D03*
X105980000Y-46482000D03*
X107380000Y-46482000D03*
X159320000Y-33782000D03*
X160720000Y-33782000D03*
D13*
X185166000Y-50544000D03*
X185166000Y-51564000D03*
D12*
X171194000Y-67564000D03*
X172214000Y-67564000D03*
X171067000Y-59065640D03*
X172087000Y-59065640D03*
D10*
X159320000Y-38862000D03*
X160720000Y-38862000D03*
X123760000Y-36322000D03*
X125160000Y-36322000D03*
D12*
X171067000Y-57795640D03*
X172087000Y-57795640D03*
D10*
X97090000Y-73533000D03*
X98490000Y-73533000D03*
D13*
X208534000Y-48398000D03*
X208534000Y-49418000D03*
D10*
X105980000Y-31242000D03*
X107380000Y-31242000D03*
X105980000Y-70993000D03*
X107380000Y-70993000D03*
X97090000Y-70993000D03*
X98490000Y-70993000D03*
X159320000Y-65913000D03*
X160720000Y-65913000D03*
X105980000Y-43942000D03*
X107380000Y-43942000D03*
X105980000Y-36322000D03*
X107380000Y-36322000D03*
D14*
X243586000Y-28674000D03*
X243586000Y-27714000D03*
D10*
X132650000Y-41402000D03*
X134050000Y-41402000D03*
D12*
X171067000Y-53985640D03*
X172087000Y-53985640D03*
D10*
X123760000Y-33782000D03*
X125160000Y-33782000D03*
D15*
X178019000Y-47625000D03*
X178019000Y-48895000D03*
X178019000Y-50165000D03*
X178019000Y-51435000D03*
X183169000Y-51435000D03*
X183169000Y-50165000D03*
X183169000Y-48895000D03*
X183169000Y-47625000D03*
D10*
X150430000Y-68453000D03*
X151830000Y-68453000D03*
D16*
X173073000Y-49159640D03*
X172113000Y-49159640D03*
D10*
X132650000Y-58293000D03*
X134050000Y-58293000D03*
D12*
X171067000Y-55255640D03*
X172087000Y-55255640D03*
D10*
X132650000Y-55753000D03*
X134050000Y-55753000D03*
D12*
X171067000Y-52715640D03*
X172087000Y-52715640D03*
D10*
X150430000Y-36322000D03*
X151830000Y-36322000D03*
X97090000Y-49022000D03*
X98490000Y-49022000D03*
X97090000Y-31242000D03*
X98490000Y-31242000D03*
D17*
X188340989Y-62103000D03*
D18*
X188340989Y-59563000D03*
D17*
X188340989Y-57023000D03*
X188340989Y-54483000D03*
X178820989Y-54483000D03*
X178820989Y-57023000D03*
X178820989Y-59563000D03*
X178820989Y-62103000D03*
D10*
X114870000Y-70993000D03*
X116270000Y-70993000D03*
D12*
X171194000Y-70104000D03*
X172214000Y-70104000D03*
D19*
X176911000Y-61496000D03*
X176911000Y-62456000D03*
D10*
X97090000Y-41402000D03*
X98490000Y-41402000D03*
X159320000Y-63373000D03*
X160720000Y-63373000D03*
D11*
X259382500Y-49784000D03*
X257507500Y-49784000D03*
D10*
X105980000Y-73533000D03*
X107380000Y-73533000D03*
X114870000Y-73533000D03*
X116270000Y-73533000D03*
X123760000Y-60833000D03*
X125160000Y-60833000D03*
X159320000Y-60833000D03*
X160720000Y-60833000D03*
D15*
X164176000Y-64389000D03*
X164176000Y-65659000D03*
X164176000Y-66929000D03*
X164176000Y-68199000D03*
X164176000Y-69469000D03*
X164176000Y-70739000D03*
X164176000Y-72009000D03*
X164176000Y-73279000D03*
X169326000Y-73279000D03*
X169326000Y-72009000D03*
X169326000Y-70739000D03*
X169326000Y-69469000D03*
X169326000Y-68199000D03*
X169326000Y-66929000D03*
X169326000Y-65659000D03*
X169326000Y-64389000D03*
D12*
X171067000Y-51445640D03*
X172087000Y-51445640D03*
D10*
X150430000Y-41402000D03*
X151830000Y-41402000D03*
X123760000Y-55753000D03*
X125160000Y-55753000D03*
D20*
X255699000Y-67564000D03*
X254749000Y-67564000D03*
X253799000Y-67564000D03*
X253799000Y-69839000D03*
X255699000Y-69839000D03*
D16*
X182598000Y-76454000D03*
X181638000Y-76454000D03*
D10*
X105980000Y-33782000D03*
X107380000Y-33782000D03*
D16*
X157676000Y-82765916D03*
X156716000Y-82765916D03*
D10*
X123760000Y-41402000D03*
X125160000Y-41402000D03*
D12*
X171194000Y-66294000D03*
X172214000Y-66294000D03*
D10*
X132650000Y-73533000D03*
X134050000Y-73533000D03*
D12*
X171194000Y-73914000D03*
X172214000Y-73914000D03*
D11*
X259382500Y-46482000D03*
X257507500Y-46482000D03*
D10*
X114870000Y-65913000D03*
X116270000Y-65913000D03*
X159320000Y-41402000D03*
X160720000Y-41402000D03*
D21*
X193929000Y-47687000D03*
X193929000Y-49087000D03*
D12*
X171194000Y-71374000D03*
X172214000Y-71374000D03*
D22*
X156262000Y-90327416D03*
X156912000Y-90327416D03*
X157562000Y-90327416D03*
X158212000Y-90327416D03*
X158862000Y-90327416D03*
X159512000Y-90327416D03*
X160162000Y-90327416D03*
X160162000Y-84602416D03*
X159512000Y-84602416D03*
X158862000Y-84602416D03*
X158212000Y-84602416D03*
X157562000Y-84602416D03*
X156912000Y-84602416D03*
X156262000Y-84602416D03*
D10*
X97090000Y-63373000D03*
X98490000Y-63373000D03*
X150430000Y-60833000D03*
X151830000Y-60833000D03*
X105980000Y-38862000D03*
X107380000Y-38862000D03*
X150430000Y-58293000D03*
X151830000Y-58293000D03*
X159320000Y-58293000D03*
X160720000Y-58293000D03*
X114870000Y-33782000D03*
X116270000Y-33782000D03*
X159320000Y-36322000D03*
X160720000Y-36322000D03*
X123760000Y-43942000D03*
X125160000Y-43942000D03*
X105980000Y-63373000D03*
X107380000Y-63373000D03*
D14*
X185166000Y-48867000D03*
X185166000Y-47907000D03*
D10*
X132650000Y-43942000D03*
X134050000Y-43942000D03*
X159320000Y-55753000D03*
X160720000Y-55753000D03*
D23*
X242062000Y-93330000D03*
X243332000Y-93330000D03*
X244602000Y-93330000D03*
X245872000Y-93330000D03*
X247142000Y-93330000D03*
X248412000Y-93330000D03*
X249682000Y-93330000D03*
X250952000Y-93330000D03*
X252222000Y-93330000D03*
X253492000Y-93330000D03*
X254762000Y-93330000D03*
X256032000Y-93330000D03*
X256032000Y-84030000D03*
X254762000Y-84030000D03*
X253492000Y-84030000D03*
X252222000Y-84030000D03*
X250952000Y-84030000D03*
X249682000Y-84030000D03*
X248412000Y-84030000D03*
X247142000Y-84030000D03*
X245872000Y-84030000D03*
X244602000Y-84030000D03*
X243332000Y-84030000D03*
X242062000Y-84030000D03*
X139035000Y-92495916D03*
X140305000Y-92495916D03*
X141575000Y-92495916D03*
X142845000Y-92495916D03*
X144115000Y-92495916D03*
X145385000Y-92495916D03*
X146655000Y-92495916D03*
X147925000Y-92495916D03*
X149195000Y-92495916D03*
X150465000Y-92495916D03*
X151735000Y-92495916D03*
X153005000Y-92495916D03*
X153005000Y-83195916D03*
X151735000Y-83195916D03*
X150465000Y-83195916D03*
X149195000Y-83195916D03*
X147925000Y-83195916D03*
X146655000Y-83195916D03*
X145385000Y-83195916D03*
X144115000Y-83195916D03*
X142845000Y-83195916D03*
X141575000Y-83195916D03*
X140305000Y-83195916D03*
X139035000Y-83195916D03*
D10*
X141540000Y-38862000D03*
X142940000Y-38862000D03*
X114870000Y-68453000D03*
X116270000Y-68453000D03*
D12*
X221352000Y-43520000D03*
X222372000Y-43520000D03*
D14*
X240157000Y-84715000D03*
X240157000Y-83755000D03*
D10*
X114870000Y-31242000D03*
X116270000Y-31242000D03*
X150430000Y-31242000D03*
X151830000Y-31242000D03*
X114870000Y-55753000D03*
X116270000Y-55753000D03*
X105980000Y-55753000D03*
X107380000Y-55753000D03*
X132650000Y-70993000D03*
X134050000Y-70993000D03*
D23*
X196347000Y-93330000D03*
X197617000Y-93330000D03*
X198887000Y-93330000D03*
X200157000Y-93330000D03*
X201427000Y-93330000D03*
X202697000Y-93330000D03*
X203967000Y-93330000D03*
X205237000Y-93330000D03*
X206507000Y-93330000D03*
X207777000Y-93330000D03*
X209047000Y-93330000D03*
X210317000Y-93330000D03*
X210317000Y-84030000D03*
X209047000Y-84030000D03*
X207777000Y-84030000D03*
X206507000Y-84030000D03*
X205237000Y-84030000D03*
X203967000Y-84030000D03*
X202697000Y-84030000D03*
X201427000Y-84030000D03*
X200157000Y-84030000D03*
X198887000Y-84030000D03*
X197617000Y-84030000D03*
X196347000Y-84030000D03*
D10*
X150430000Y-38862000D03*
X151830000Y-38862000D03*
X114870000Y-38862000D03*
X116270000Y-38862000D03*
X141540000Y-49022000D03*
X142940000Y-49022000D03*
X141540000Y-41402000D03*
X142940000Y-41402000D03*
X132650000Y-60833000D03*
X134050000Y-60833000D03*
X150430000Y-73533000D03*
X151830000Y-73533000D03*
X123760000Y-31242000D03*
X125160000Y-31242000D03*
D23*
X219207000Y-93330000D03*
X220477000Y-93330000D03*
X221747000Y-93330000D03*
X223017000Y-93330000D03*
X224287000Y-93330000D03*
X225557000Y-93330000D03*
X226827000Y-93330000D03*
X228097000Y-93330000D03*
X229367000Y-93330000D03*
X230637000Y-93330000D03*
X231907000Y-93330000D03*
X233177000Y-93330000D03*
X233177000Y-84030000D03*
X231907000Y-84030000D03*
X230637000Y-84030000D03*
X229367000Y-84030000D03*
X228097000Y-84030000D03*
X226827000Y-84030000D03*
X225557000Y-84030000D03*
X224287000Y-84030000D03*
X223017000Y-84030000D03*
X221747000Y-84030000D03*
X220477000Y-84030000D03*
X219207000Y-84030000D03*
D10*
X159320000Y-46482000D03*
X160720000Y-46482000D03*
X141540000Y-70993000D03*
X142940000Y-70993000D03*
X114870000Y-49022000D03*
X116270000Y-49022000D03*
X97090000Y-46482000D03*
X98490000Y-46482000D03*
D14*
X208534000Y-44943000D03*
X208534000Y-43983000D03*
D24*
X176850000Y-58041000D03*
X176850000Y-57021000D03*
D15*
X164176000Y-48905640D03*
X164176000Y-50175640D03*
X164176000Y-51445640D03*
X164176000Y-52715640D03*
X164176000Y-53985640D03*
X164176000Y-55255640D03*
X164176000Y-56525640D03*
X164176000Y-57795640D03*
X169326000Y-57795640D03*
X169326000Y-56525640D03*
X169326000Y-55255640D03*
X169326000Y-53985640D03*
X169326000Y-52715640D03*
X169326000Y-51445640D03*
X169326000Y-50175640D03*
X169326000Y-48905640D03*
D10*
X132650000Y-68453000D03*
X134050000Y-68453000D03*
X97090000Y-60833000D03*
X98490000Y-60833000D03*
D13*
X190312000Y-56386000D03*
X190312000Y-57406000D03*
D10*
X132650000Y-38862000D03*
X134050000Y-38862000D03*
X141540000Y-33782000D03*
X142940000Y-33782000D03*
X123760000Y-49022000D03*
X125160000Y-49022000D03*
X141540000Y-46482000D03*
X142940000Y-46482000D03*
D23*
X173355000Y-93345000D03*
X174625000Y-93345000D03*
X175895000Y-93345000D03*
X177165000Y-93345000D03*
X178435000Y-93345000D03*
X179705000Y-93345000D03*
X180975000Y-93345000D03*
X182245000Y-93345000D03*
X183515000Y-93345000D03*
X184785000Y-93345000D03*
X186055000Y-93345000D03*
X187325000Y-93345000D03*
X187325000Y-84045000D03*
X186055000Y-84045000D03*
X184785000Y-84045000D03*
X183515000Y-84045000D03*
X182245000Y-84045000D03*
X180975000Y-84045000D03*
X179705000Y-84045000D03*
X178435000Y-84045000D03*
X177165000Y-84045000D03*
X175895000Y-84045000D03*
X174625000Y-84045000D03*
X173355000Y-84045000D03*
D10*
X150430000Y-49022000D03*
X151830000Y-49022000D03*
D12*
X142464000Y-81353916D03*
X143484000Y-81353916D03*
D10*
X141540000Y-68453000D03*
X142940000Y-68453000D03*
D12*
X255141000Y-49784000D03*
X256161000Y-49784000D03*
D10*
X123760000Y-70993000D03*
X125160000Y-70993000D03*
X97090000Y-33782000D03*
X98490000Y-33782000D03*
X132650000Y-33782000D03*
X134050000Y-33782000D03*
X150430000Y-33782000D03*
X151830000Y-33782000D03*
D12*
X255141000Y-46482000D03*
X256161000Y-46482000D03*
D10*
X150430000Y-65913000D03*
X151830000Y-65913000D03*
X105980000Y-60833000D03*
X107380000Y-60833000D03*
X114870000Y-60833000D03*
X116270000Y-60833000D03*
X97090000Y-38862000D03*
X98490000Y-38862000D03*
D12*
X255141000Y-43180000D03*
X256161000Y-43180000D03*
D25*
X185582000Y-74803000D03*
X185582000Y-73533000D03*
X185582000Y-72263000D03*
X185582000Y-70993000D03*
X185582000Y-69723000D03*
X185582000Y-68453000D03*
X185582000Y-67183000D03*
X185582000Y-65913000D03*
X180432000Y-65913000D03*
X180432000Y-67183000D03*
X180432000Y-68453000D03*
X180432000Y-69723000D03*
X180432000Y-70993000D03*
X180432000Y-72263000D03*
X180432000Y-73533000D03*
X180432000Y-74803000D03*
D10*
X132650000Y-31242000D03*
X134050000Y-31242000D03*
X150430000Y-46482000D03*
X151830000Y-46482000D03*
X141540000Y-63373000D03*
X142940000Y-63373000D03*
X159320000Y-70993000D03*
X160720000Y-70993000D03*
X150430000Y-63373000D03*
X151830000Y-63373000D03*
X141540000Y-43942000D03*
X142940000Y-43942000D03*
D12*
X171194000Y-72644000D03*
X172214000Y-72644000D03*
D10*
X141540000Y-65913000D03*
X142940000Y-65913000D03*
X132650000Y-49022000D03*
X134050000Y-49022000D03*
X123760000Y-73533000D03*
X125160000Y-73533000D03*
X123760000Y-38862000D03*
X125160000Y-38862000D03*
X150430000Y-43942000D03*
X151830000Y-43942000D03*
X97090000Y-58293000D03*
X98490000Y-58293000D03*
X105980000Y-58293000D03*
X107380000Y-58293000D03*
X97090000Y-43942000D03*
X98490000Y-43942000D03*
X150430000Y-55753000D03*
X151830000Y-55753000D03*
D12*
X171067000Y-56525640D03*
X172087000Y-56525640D03*
D10*
X159320000Y-43942000D03*
X160720000Y-43942000D03*
X150430000Y-70993000D03*
X151830000Y-70993000D03*
X114870000Y-41402000D03*
X116270000Y-41402000D03*
D13*
X194056000Y-42810000D03*
X194056000Y-43830000D03*
D12*
X171067000Y-60335640D03*
X172087000Y-60335640D03*
D10*
X123760000Y-63373000D03*
X125160000Y-63373000D03*
X141540000Y-73533000D03*
X142940000Y-73533000D03*
D14*
X217302000Y-84715000D03*
X217302000Y-83755000D03*
D19*
X181229000Y-40922000D03*
X181229000Y-41882000D03*
D10*
X105980000Y-49022000D03*
X107380000Y-49022000D03*
D14*
X245364000Y-28674000D03*
X245364000Y-27714000D03*
D10*
X123760000Y-65913000D03*
X125160000Y-65913000D03*
X132650000Y-46482000D03*
X134050000Y-46482000D03*
X123760000Y-58293000D03*
X125160000Y-58293000D03*
D14*
X194442000Y-84715000D03*
X194442000Y-83755000D03*
D10*
X105980000Y-41402000D03*
X107380000Y-41402000D03*
X141540000Y-55753000D03*
X142940000Y-55753000D03*
D16*
X170660000Y-62738000D03*
X169700000Y-62738000D03*
D10*
X97090000Y-65913000D03*
X98490000Y-65913000D03*
X114870000Y-58293000D03*
X116270000Y-58293000D03*
X132650000Y-63373000D03*
X134050000Y-63373000D03*
X114870000Y-43942000D03*
X116270000Y-43942000D03*
D14*
X171450000Y-84730000D03*
X171450000Y-83770000D03*
D16*
X147135000Y-80337916D03*
X146175000Y-80337916D03*
D10*
X159320000Y-73533000D03*
X160720000Y-73533000D03*
X114870000Y-63373000D03*
X116270000Y-63373000D03*
D26*
X211838000Y-43434000D03*
X210818000Y-43434000D03*
D10*
X105980000Y-68453000D03*
X107380000Y-68453000D03*
X97090000Y-36322000D03*
X98490000Y-36322000D03*
X114870000Y-36322000D03*
X116270000Y-36322000D03*
X97090000Y-55753000D03*
X98490000Y-55753000D03*
X105980000Y-65913000D03*
X107380000Y-65913000D03*
X141540000Y-60833000D03*
X142940000Y-60833000D03*
X141540000Y-58293000D03*
X142940000Y-58293000D03*
X97090000Y-68453000D03*
X98490000Y-68453000D03*
D27*
X254409000Y-71755000D03*
X255369000Y-71755000D03*
D12*
X171194000Y-65024000D03*
X172214000Y-65024000D03*
D10*
X159320000Y-49022000D03*
X160720000Y-49022000D03*
D17*
X196662000Y-44336000D03*
D18*
X196662000Y-46876000D03*
D17*
X196662000Y-49416000D03*
X196662000Y-51956000D03*
X206182000Y-51956000D03*
X206182000Y-49416000D03*
X206182000Y-46876000D03*
X206182000Y-44336000D03*
D10*
X159320000Y-31242000D03*
X160720000Y-31242000D03*
X123760000Y-68453000D03*
X125160000Y-68453000D03*
X159320000Y-68453000D03*
X160720000Y-68453000D03*
M02*
