M48
; DRILL file {KiCad 9.0.6} date 2025-12-16T13:31:56+0100
; FORMAT={-:-/ absolute / metric / decimal}
; #@! TF.CreationDate,2025-12-16T13:31:56+01:00
; #@! TF.GenerationSoftware,Kicad,Pcbnew,9.0.6
; #@! TF.FileFunction,Plated,1,2,PTH
FMAT,2
METRIC
; #@! TA.AperFunction,Plated,PTH,ViaDrill
T1C0.400
; #@! TA.AperFunction,Plated,PTH,ComponentDrill
T2C1.200
; #@! TA.AperFunction,Plated,PTH,ComponentDrill
T3C2.100
; #@! TA.AperFunction,Plated,PTH,ComponentDrill
T4C2.500
%
G90
G05
T1
X165.155Y-207.79
X167.905Y-227.99
X169.855Y-184.39
X181.305Y-216.09
X186.705Y-222.34
X188.605Y-208.59
X190.005Y-208.39
X192.455Y-172.24
X197.896Y-209.214
X198.205Y-208.34
X210.955Y-174.84
X219.955Y-225.49
X230.605Y-236.74
X241.105Y-201.39
X242.755Y-222.74
X253.205Y-236.64
X260.355Y-224.59
X268.955Y-241.09
X271.405Y-176.29
X272.155Y-205.89
X281.605Y-217.49
X286.805Y-224.49
X287.433Y-212.518
X288.605Y-212.49
X290.005Y-196.74
X292.805Y-188.99
X293.705Y-207.54
X297.505Y-210.717
X298.205Y-209.29
X312.305Y-224.69
X315.005Y-205.49
X316.555Y-180.79
X318.505Y-185.04
X328.605Y-199.44
X338.455Y-226.59
X342.005Y-179.04
X345.605Y-203.04
X355.205Y-200.34
X364.805Y-175.19
X365.005Y-193.69
X367.055Y-225.94
X367.105Y-205.99
X389.005Y-213.09
X389.705Y-212.39
X390.855Y-198.44
X392.755Y-185.89
X393.155Y-206.24
X397.705Y-210.717
X398.405Y-209.49
X409.505Y-223.19
X419.855Y-226.39
X428.655Y-202.04
X430.155Y-215.39
X440.905Y-226.14
X443.005Y-200.44
X444.705Y-176.19
X456.705Y-199.54
X461.055Y-225.99
X466.405Y-177.39
X470.205Y-194.69
X481.255Y-216.64
X481.305Y-186.29
X486.355Y-223.24
X489.005Y-212.69
X490.255Y-197.54
X490.518Y-212.103
X491.505Y-212.09
X491.505Y-226.59
X491.705Y-206.79
X491.805Y-218.99
X492.055Y-175.04
X492.505Y-210.962
X494.205Y-207.39
X498.205Y-209.39
X506.755Y-216.64
X510.405Y-227.24
X517.305Y-209.29
X517.505Y-180.44
X527.205Y-235.14
X527.455Y-210.89
T2
X151.5Y-157.0
X151.5Y-182.0
X151.5Y-207.0
X151.5Y-232.0
X154.0Y-157.0
X154.0Y-182.0
X154.0Y-207.0
X154.0Y-232.0
X156.5Y-157.0
X156.5Y-182.0
X156.5Y-207.0
X156.5Y-232.0
X176.5Y-157.0
X176.5Y-182.0
X176.5Y-207.0
X176.5Y-232.0
X179.0Y-157.0
X179.0Y-182.0
X179.0Y-207.0
X179.0Y-232.0
X181.5Y-157.0
X181.5Y-182.0
X181.5Y-207.0
X181.5Y-232.0
X201.5Y-157.0
X201.5Y-182.0
X201.5Y-207.0
X201.5Y-232.0
X204.0Y-157.0
X204.0Y-182.0
X204.0Y-207.0
X204.0Y-232.0
X206.5Y-157.0
X206.5Y-182.0
X206.5Y-207.0
X206.5Y-232.0
X226.5Y-157.0
X226.5Y-182.0
X226.5Y-207.0
X226.5Y-232.0
X229.0Y-157.0
X229.0Y-182.0
X229.0Y-207.0
X229.0Y-232.0
X231.5Y-157.0
X231.5Y-182.0
X231.5Y-207.0
X231.5Y-232.0
X251.5Y-157.0
X251.5Y-182.0
X251.5Y-207.0
X251.5Y-232.0
X254.0Y-157.0
X254.0Y-182.0
X254.0Y-207.0
X254.0Y-232.0
X256.5Y-157.0
X256.5Y-182.0
X256.5Y-207.0
X256.5Y-232.0
X276.5Y-157.0
X276.5Y-182.0
X276.5Y-207.0
X276.5Y-232.0
X279.0Y-157.0
X279.0Y-182.0
X279.0Y-207.0
X279.0Y-232.0
X281.5Y-157.0
X281.5Y-182.0
X281.5Y-207.0
X281.5Y-232.0
X301.5Y-157.0
X301.5Y-182.0
X301.5Y-207.0
X301.5Y-232.0
X304.0Y-157.0
X304.0Y-182.0
X304.0Y-207.0
X304.0Y-232.0
X306.5Y-157.0
X306.5Y-182.0
X306.5Y-207.0
X306.5Y-232.0
X326.5Y-157.0
X326.5Y-182.0
X326.5Y-207.0
X326.5Y-232.0
X329.0Y-157.0
X329.0Y-182.0
X329.0Y-207.0
X329.0Y-232.0
X331.5Y-157.0
X331.5Y-182.0
X331.5Y-207.0
X331.5Y-232.0
X351.5Y-157.0
X351.5Y-182.0
X351.5Y-207.0
X351.5Y-232.0
X354.0Y-157.0
X354.0Y-182.0
X354.0Y-207.0
X354.0Y-232.0
X356.5Y-157.0
X356.5Y-182.0
X356.5Y-207.0
X356.5Y-232.0
X376.5Y-157.0
X376.5Y-182.0
X376.5Y-207.0
X376.5Y-232.0
X379.0Y-157.0
X379.0Y-182.0
X379.0Y-207.0
X379.0Y-232.0
X381.5Y-157.0
X381.5Y-182.0
X381.5Y-207.0
X381.5Y-232.0
X401.5Y-157.0
X401.5Y-182.0
X401.5Y-207.0
X401.5Y-232.0
X404.0Y-157.0
X404.0Y-182.0
X404.0Y-207.0
X404.0Y-232.0
X406.5Y-157.0
X406.5Y-182.0
X406.5Y-207.0
X406.5Y-232.0
X426.5Y-157.0
X426.5Y-182.0
X426.5Y-207.0
X426.5Y-232.0
X429.0Y-157.0
X429.0Y-182.0
X429.0Y-207.0
X429.0Y-232.0
X431.5Y-157.0
X431.5Y-182.0
X431.5Y-207.0
X431.5Y-232.0
X451.5Y-157.0
X451.5Y-182.0
X451.5Y-207.0
X451.5Y-232.0
X454.0Y-157.0
X454.0Y-182.0
X454.0Y-207.0
X454.0Y-232.0
X456.5Y-157.0
X456.5Y-182.0
X456.5Y-207.0
X456.5Y-232.0
X476.5Y-157.0
X476.5Y-182.0
X476.5Y-207.0
X476.5Y-232.0
X479.0Y-157.0
X479.0Y-182.0
X479.0Y-207.0
X479.0Y-232.0
X481.5Y-157.0
X481.5Y-182.0
X481.5Y-207.0
X481.5Y-232.0
X501.5Y-157.0
X501.5Y-182.0
X501.5Y-207.0
X501.5Y-232.0
X504.0Y-157.0
X504.0Y-182.0
X504.0Y-207.0
X504.0Y-232.0
X506.5Y-157.0
X506.5Y-182.0
X506.5Y-207.0
X506.5Y-232.0
X526.5Y-157.0
X526.5Y-182.0
X526.5Y-207.0
X526.5Y-232.0
X529.0Y-157.0
X529.0Y-182.0
X529.0Y-207.0
X529.0Y-232.0
X531.5Y-157.0
X531.5Y-182.0
X531.5Y-207.0
X531.5Y-232.0
T3
X149.0Y-164.0
X149.0Y-189.0
X149.0Y-214.0
X149.0Y-239.0
X159.0Y-164.0
X159.0Y-189.0
X159.0Y-214.0
X159.0Y-239.0
X174.0Y-164.0
X174.0Y-189.0
X174.0Y-214.0
X174.0Y-239.0
X184.0Y-164.0
X184.0Y-189.0
X184.0Y-214.0
X184.0Y-239.0
X199.0Y-164.0
X199.0Y-189.0
X199.0Y-214.0
X199.0Y-239.0
X209.0Y-164.0
X209.0Y-189.0
X209.0Y-214.0
X209.0Y-239.0
X224.0Y-164.0
X224.0Y-189.0
X224.0Y-214.0
X224.0Y-239.0
X234.0Y-164.0
X234.0Y-189.0
X234.0Y-214.0
X234.0Y-239.0
X249.0Y-164.0
X249.0Y-189.0
X249.0Y-214.0
X249.0Y-239.0
X259.0Y-164.0
X259.0Y-189.0
X259.0Y-214.0
X259.0Y-239.0
X274.0Y-164.0
X274.0Y-189.0
X274.0Y-214.0
X274.0Y-239.0
X284.0Y-164.0
X284.0Y-189.0
X284.0Y-214.0
X284.0Y-239.0
X299.0Y-164.0
X299.0Y-189.0
X299.0Y-214.0
X299.0Y-239.0
X309.0Y-164.0
X309.0Y-189.0
X309.0Y-214.0
X309.0Y-239.0
X324.0Y-164.0
X324.0Y-189.0
X324.0Y-214.0
X324.0Y-239.0
X334.0Y-164.0
X334.0Y-189.0
X334.0Y-214.0
X334.0Y-239.0
X349.0Y-164.0
X349.0Y-189.0
X349.0Y-214.0
X349.0Y-239.0
X359.0Y-164.0
X359.0Y-189.0
X359.0Y-214.0
X359.0Y-239.0
X374.0Y-164.0
X374.0Y-189.0
X374.0Y-214.0
X374.0Y-239.0
X384.0Y-164.0
X384.0Y-189.0
X384.0Y-214.0
X384.0Y-239.0
X399.0Y-164.0
X399.0Y-189.0
X399.0Y-214.0
X399.0Y-239.0
X409.0Y-164.0
X409.0Y-189.0
X409.0Y-214.0
X409.0Y-239.0
X424.0Y-164.0
X424.0Y-189.0
X424.0Y-214.0
X424.0Y-239.0
X434.0Y-164.0
X434.0Y-189.0
X434.0Y-214.0
X434.0Y-239.0
X449.0Y-164.0
X449.0Y-189.0
X449.0Y-214.0
X449.0Y-239.0
X459.0Y-164.0
X459.0Y-189.0
X459.0Y-214.0
X459.0Y-239.0
X474.0Y-164.0
X474.0Y-189.0
X474.0Y-214.0
X474.0Y-239.0
X484.0Y-164.0
X484.0Y-189.0
X484.0Y-214.0
X484.0Y-239.0
X499.0Y-164.0
X499.0Y-189.0
X499.0Y-214.0
X499.0Y-239.0
X509.0Y-164.0
X509.0Y-189.0
X509.0Y-214.0
X509.0Y-239.0
X524.0Y-164.0
X524.0Y-189.0
X524.0Y-214.0
X524.0Y-239.0
X534.0Y-164.0
X534.0Y-189.0
X534.0Y-214.0
X534.0Y-239.0
T4
X166.5Y-164.0
X166.5Y-239.0
X216.5Y-189.0
X216.5Y-214.0
X266.5Y-189.0
X266.5Y-214.0
X316.5Y-164.0
X316.5Y-239.0
X341.5Y-189.0
X341.5Y-214.0
X366.5Y-164.0
X366.5Y-239.0
X416.5Y-189.0
X416.5Y-214.0
X466.5Y-189.0
X466.5Y-214.0
X516.5Y-164.0
X516.5Y-239.0
M30
