G04 #@! TF.GenerationSoftware,KiCad,Pcbnew,9.0.6*
G04 #@! TF.CreationDate,2025-12-16T13:31:53+01:00*
G04 #@! TF.ProjectId,Pots,506f7473-2e6b-4696-9361-645f70636258,rev?*
G04 #@! TF.SameCoordinates,Original*
G04 #@! TF.FileFunction,Soldermask,Top*
G04 #@! TF.FilePolarity,Negative*
%FSLAX46Y46*%
G04 Gerber Fmt 4.6, Leading zero omitted, Abs format (unit mm)*
G04 Created by KiCad (PCBNEW 9.0.6) date 2025-12-16 13:31:53*
%MOMM*%
%LPD*%
G01*
G04 APERTURE LIST*
G04 Aperture macros list*
%AMRoundRect*
0 Rectangle with rounded corners*
0 $1 Rounding radius*
0 $2 $3 $4 $5 $6 $7 $8 $9 X,Y pos of 4 corners*
0 Add a 4 corners polygon primitive as box body*
4,1,4,$2,$3,$4,$5,$6,$7,$8,$9,$2,$3,0*
0 Add four circle primitives for the rounded corners*
1,1,$1+$1,$2,$3*
1,1,$1+$1,$4,$5*
1,1,$1+$1,$6,$7*
1,1,$1+$1,$8,$9*
0 Add four rect primitives between the rounded corners*
20,1,$1+$1,$2,$3,$4,$5,0*
20,1,$1+$1,$4,$5,$6,$7,0*
20,1,$1+$1,$6,$7,$8,$9,0*
20,1,$1+$1,$8,$9,$2,$3,0*%
G04 Aperture macros list end*
%ADD10C,4.000000*%
%ADD11RoundRect,0.050800X0.930200X0.930200X-0.930200X0.930200X-0.930200X-0.930200X0.930200X-0.930200X0*%
%ADD12C,1.962000*%
%ADD13C,3.217600*%
G04 APERTURE END LIST*
D10*
X316500000Y-164000000D03*
D11*
X231500000Y-157000000D03*
D12*
X229000000Y-157000000D03*
X226500000Y-157000000D03*
D13*
X234000000Y-164000000D03*
X224000000Y-164000000D03*
D10*
X516500000Y-164000000D03*
D11*
X331500000Y-157000000D03*
D12*
X329000000Y-157000000D03*
X326500000Y-157000000D03*
D13*
X334000000Y-164000000D03*
X324000000Y-164000000D03*
D11*
X281500000Y-182000000D03*
D12*
X279000000Y-182000000D03*
X276500000Y-182000000D03*
D13*
X284000000Y-189000000D03*
X274000000Y-189000000D03*
D10*
X366500000Y-239000000D03*
X516500000Y-239000000D03*
D11*
X406500000Y-157000000D03*
D12*
X404000000Y-157000000D03*
X401500000Y-157000000D03*
D13*
X409000000Y-164000000D03*
X399000000Y-164000000D03*
D11*
X531500000Y-157000000D03*
D12*
X529000000Y-157000000D03*
X526500000Y-157000000D03*
D13*
X534000000Y-164000000D03*
X524000000Y-164000000D03*
D10*
X216500000Y-214000000D03*
D11*
X431500000Y-232000000D03*
D12*
X429000000Y-232000000D03*
X426500000Y-232000000D03*
D13*
X434000000Y-239000000D03*
X424000000Y-239000000D03*
D11*
X306500000Y-157000000D03*
D12*
X304000000Y-157000000D03*
X301500000Y-157000000D03*
D13*
X309000000Y-164000000D03*
X299000000Y-164000000D03*
D11*
X181500000Y-182000000D03*
D12*
X179000000Y-182000000D03*
X176500000Y-182000000D03*
D13*
X184000000Y-189000000D03*
X174000000Y-189000000D03*
D10*
X266500000Y-214000000D03*
D11*
X156500000Y-182000000D03*
D12*
X154000000Y-182000000D03*
X151500000Y-182000000D03*
D13*
X159000000Y-189000000D03*
X149000000Y-189000000D03*
D10*
X416500000Y-214000000D03*
D11*
X481500000Y-232000000D03*
D12*
X479000000Y-232000000D03*
X476500000Y-232000000D03*
D13*
X484000000Y-239000000D03*
X474000000Y-239000000D03*
D11*
X206500000Y-207000000D03*
D12*
X204000000Y-207000000D03*
X201500000Y-207000000D03*
D13*
X209000000Y-214000000D03*
X199000000Y-214000000D03*
D11*
X356500000Y-157000000D03*
D12*
X354000000Y-157000000D03*
X351500000Y-157000000D03*
D13*
X359000000Y-164000000D03*
X349000000Y-164000000D03*
D11*
X506500000Y-232000000D03*
D12*
X504000000Y-232000000D03*
X501500000Y-232000000D03*
D13*
X509000000Y-239000000D03*
X499000000Y-239000000D03*
D11*
X531500000Y-232000000D03*
D12*
X529000000Y-232000000D03*
X526500000Y-232000000D03*
D13*
X534000000Y-239000000D03*
X524000000Y-239000000D03*
D11*
X381500000Y-207000000D03*
D12*
X379000000Y-207000000D03*
X376500000Y-207000000D03*
D13*
X384000000Y-214000000D03*
X374000000Y-214000000D03*
D11*
X481500000Y-207000000D03*
D12*
X479000000Y-207000000D03*
X476500000Y-207000000D03*
D13*
X484000000Y-214000000D03*
X474000000Y-214000000D03*
D11*
X456500000Y-182000000D03*
D12*
X454000000Y-182000000D03*
X451500000Y-182000000D03*
D13*
X459000000Y-189000000D03*
X449000000Y-189000000D03*
D11*
X181500000Y-232000000D03*
D12*
X179000000Y-232000000D03*
X176500000Y-232000000D03*
D13*
X184000000Y-239000000D03*
X174000000Y-239000000D03*
D11*
X181500000Y-207000000D03*
D12*
X179000000Y-207000000D03*
X176500000Y-207000000D03*
D13*
X184000000Y-214000000D03*
X174000000Y-214000000D03*
D11*
X281500000Y-232000000D03*
D12*
X279000000Y-232000000D03*
X276500000Y-232000000D03*
D13*
X284000000Y-239000000D03*
X274000000Y-239000000D03*
D11*
X381500000Y-157000000D03*
D12*
X379000000Y-157000000D03*
X376500000Y-157000000D03*
D13*
X384000000Y-164000000D03*
X374000000Y-164000000D03*
D11*
X256500000Y-157000000D03*
D12*
X254000000Y-157000000D03*
X251500000Y-157000000D03*
D13*
X259000000Y-164000000D03*
X249000000Y-164000000D03*
D11*
X231500000Y-207000000D03*
D12*
X229000000Y-207000000D03*
X226500000Y-207000000D03*
D13*
X234000000Y-214000000D03*
X224000000Y-214000000D03*
D10*
X466500000Y-189000000D03*
X341500000Y-189000000D03*
D11*
X156500000Y-157000000D03*
D12*
X154000000Y-157000000D03*
X151500000Y-157000000D03*
D13*
X159000000Y-164000000D03*
X149000000Y-164000000D03*
D11*
X281500000Y-157000000D03*
D12*
X279000000Y-157000000D03*
X276500000Y-157000000D03*
D13*
X284000000Y-164000000D03*
X274000000Y-164000000D03*
D11*
X381500000Y-182000000D03*
D12*
X379000000Y-182000000D03*
X376500000Y-182000000D03*
D13*
X384000000Y-189000000D03*
X374000000Y-189000000D03*
D11*
X356500000Y-182000000D03*
D12*
X354000000Y-182000000D03*
X351500000Y-182000000D03*
D13*
X359000000Y-189000000D03*
X349000000Y-189000000D03*
D11*
X406500000Y-207000000D03*
D12*
X404000000Y-207000000D03*
X401500000Y-207000000D03*
D13*
X409000000Y-214000000D03*
X399000000Y-214000000D03*
D10*
X166500000Y-164000000D03*
X266500000Y-189000000D03*
D11*
X231500000Y-182000000D03*
D12*
X229000000Y-182000000D03*
X226500000Y-182000000D03*
D13*
X234000000Y-189000000D03*
X224000000Y-189000000D03*
D11*
X531500000Y-182000000D03*
D12*
X529000000Y-182000000D03*
X526500000Y-182000000D03*
D13*
X534000000Y-189000000D03*
X524000000Y-189000000D03*
D10*
X166500000Y-239000000D03*
D11*
X206500000Y-157000000D03*
D12*
X204000000Y-157000000D03*
X201500000Y-157000000D03*
D13*
X209000000Y-164000000D03*
X199000000Y-164000000D03*
D11*
X481500000Y-157000000D03*
D12*
X479000000Y-157000000D03*
X476500000Y-157000000D03*
D13*
X484000000Y-164000000D03*
X474000000Y-164000000D03*
D11*
X231500000Y-232000000D03*
D12*
X229000000Y-232000000D03*
X226500000Y-232000000D03*
D13*
X234000000Y-239000000D03*
X224000000Y-239000000D03*
D11*
X381500000Y-232000000D03*
D12*
X379000000Y-232000000D03*
X376500000Y-232000000D03*
D13*
X384000000Y-239000000D03*
X374000000Y-239000000D03*
D11*
X456500000Y-232000000D03*
D12*
X454000000Y-232000000D03*
X451500000Y-232000000D03*
D13*
X459000000Y-239000000D03*
X449000000Y-239000000D03*
D11*
X506500000Y-207000000D03*
D12*
X504000000Y-207000000D03*
X501500000Y-207000000D03*
D13*
X509000000Y-214000000D03*
X499000000Y-214000000D03*
D11*
X306500000Y-207000000D03*
D12*
X304000000Y-207000000D03*
X301500000Y-207000000D03*
D13*
X309000000Y-214000000D03*
X299000000Y-214000000D03*
D11*
X456500000Y-157000000D03*
D12*
X454000000Y-157000000D03*
X451500000Y-157000000D03*
D13*
X459000000Y-164000000D03*
X449000000Y-164000000D03*
D11*
X506500000Y-157000000D03*
D12*
X504000000Y-157000000D03*
X501500000Y-157000000D03*
D13*
X509000000Y-164000000D03*
X499000000Y-164000000D03*
D10*
X216500000Y-189000000D03*
D11*
X306500000Y-182000000D03*
D12*
X304000000Y-182000000D03*
X301500000Y-182000000D03*
D13*
X309000000Y-189000000D03*
X299000000Y-189000000D03*
D11*
X356500000Y-232000000D03*
D12*
X354000000Y-232000000D03*
X351500000Y-232000000D03*
D13*
X359000000Y-239000000D03*
X349000000Y-239000000D03*
D11*
X256500000Y-232000000D03*
D12*
X254000000Y-232000000D03*
X251500000Y-232000000D03*
D13*
X259000000Y-239000000D03*
X249000000Y-239000000D03*
D11*
X406500000Y-232000000D03*
D12*
X404000000Y-232000000D03*
X401500000Y-232000000D03*
D13*
X409000000Y-239000000D03*
X399000000Y-239000000D03*
D11*
X331500000Y-182000000D03*
D12*
X329000000Y-182000000D03*
X326500000Y-182000000D03*
D13*
X334000000Y-189000000D03*
X324000000Y-189000000D03*
D11*
X256500000Y-182000000D03*
D12*
X254000000Y-182000000D03*
X251500000Y-182000000D03*
D13*
X259000000Y-189000000D03*
X249000000Y-189000000D03*
D11*
X481500000Y-182000000D03*
D12*
X479000000Y-182000000D03*
X476500000Y-182000000D03*
D13*
X484000000Y-189000000D03*
X474000000Y-189000000D03*
D11*
X506500000Y-182000000D03*
D12*
X504000000Y-182000000D03*
X501500000Y-182000000D03*
D13*
X509000000Y-189000000D03*
X499000000Y-189000000D03*
D11*
X281500000Y-207000000D03*
D12*
X279000000Y-207000000D03*
X276500000Y-207000000D03*
D13*
X284000000Y-214000000D03*
X274000000Y-214000000D03*
D11*
X156500000Y-207000000D03*
D12*
X154000000Y-207000000D03*
X151500000Y-207000000D03*
D13*
X159000000Y-214000000D03*
X149000000Y-214000000D03*
D10*
X466500000Y-214000000D03*
D11*
X331500000Y-232000000D03*
D12*
X329000000Y-232000000D03*
X326500000Y-232000000D03*
D13*
X334000000Y-239000000D03*
X324000000Y-239000000D03*
D11*
X406500000Y-182000000D03*
D12*
X404000000Y-182000000D03*
X401500000Y-182000000D03*
D13*
X409000000Y-189000000D03*
X399000000Y-189000000D03*
D11*
X206500000Y-232000000D03*
D12*
X204000000Y-232000000D03*
X201500000Y-232000000D03*
D13*
X209000000Y-239000000D03*
X199000000Y-239000000D03*
D11*
X306500000Y-232000000D03*
D12*
X304000000Y-232000000D03*
X301500000Y-232000000D03*
D13*
X309000000Y-239000000D03*
X299000000Y-239000000D03*
D11*
X256500000Y-207000000D03*
D12*
X254000000Y-207000000D03*
X251500000Y-207000000D03*
D13*
X259000000Y-214000000D03*
X249000000Y-214000000D03*
D10*
X366500000Y-164000000D03*
D11*
X431500000Y-182000000D03*
D12*
X429000000Y-182000000D03*
X426500000Y-182000000D03*
D13*
X434000000Y-189000000D03*
X424000000Y-189000000D03*
D11*
X531500000Y-207000000D03*
D12*
X529000000Y-207000000D03*
X526500000Y-207000000D03*
D13*
X534000000Y-214000000D03*
X524000000Y-214000000D03*
D11*
X356500000Y-207000000D03*
D12*
X354000000Y-207000000D03*
X351500000Y-207000000D03*
D13*
X359000000Y-214000000D03*
X349000000Y-214000000D03*
D11*
X206500000Y-182000000D03*
D12*
X204000000Y-182000000D03*
X201500000Y-182000000D03*
D13*
X209000000Y-189000000D03*
X199000000Y-189000000D03*
D10*
X316500000Y-239000000D03*
D11*
X156500000Y-232000000D03*
D12*
X154000000Y-232000000D03*
X151500000Y-232000000D03*
D13*
X159000000Y-239000000D03*
X149000000Y-239000000D03*
D11*
X331500000Y-207000000D03*
D12*
X329000000Y-207000000D03*
X326500000Y-207000000D03*
D13*
X334000000Y-214000000D03*
X324000000Y-214000000D03*
D11*
X431500000Y-207000000D03*
D12*
X429000000Y-207000000D03*
X426500000Y-207000000D03*
D13*
X434000000Y-214000000D03*
X424000000Y-214000000D03*
D10*
X416500000Y-189000000D03*
D11*
X181500000Y-157000000D03*
D12*
X179000000Y-157000000D03*
X176500000Y-157000000D03*
D13*
X184000000Y-164000000D03*
X174000000Y-164000000D03*
D11*
X456500000Y-207000000D03*
D12*
X454000000Y-207000000D03*
X451500000Y-207000000D03*
D13*
X459000000Y-214000000D03*
X449000000Y-214000000D03*
D11*
X431500000Y-157000000D03*
D12*
X429000000Y-157000000D03*
X426500000Y-157000000D03*
D13*
X434000000Y-164000000D03*
X424000000Y-164000000D03*
D10*
X341500000Y-214000000D03*
M02*
