G04 #@! TF.GenerationSoftware,KiCad,Pcbnew,9.0.6*
G04 #@! TF.CreationDate,2025-12-16T13:31:53+01:00*
G04 #@! TF.ProjectId,Pots,506f7473-2e6b-4696-9361-645f70636258,rev?*
G04 #@! TF.SameCoordinates,Original*
G04 #@! TF.FileFunction,Legend,Bot*
G04 #@! TF.FilePolarity,Positive*
%FSLAX46Y46*%
G04 Gerber Fmt 4.6, Leading zero omitted, Abs format (unit mm)*
G04 Created by KiCad (PCBNEW 9.0.6) date 2025-12-16 13:31:53*
%MOMM*%
%LPD*%
G01*
G04 APERTURE LIST*
G04 Aperture macros list*
%AMRoundRect*
0 Rectangle with rounded corners*
0 $1 Rounding radius*
0 $2 $3 $4 $5 $6 $7 $8 $9 X,Y pos of 4 corners*
0 Add a 4 corners polygon primitive as box body*
4,1,4,$2,$3,$4,$5,$6,$7,$8,$9,$2,$3,0*
0 Add four circle primitives for the rounded corners*
1,1,$1+$1,$2,$3*
1,1,$1+$1,$4,$5*
1,1,$1+$1,$6,$7*
1,1,$1+$1,$8,$9*
0 Add four rect primitives between the rounded corners*
20,1,$1+$1,$2,$3,$4,$5,0*
20,1,$1+$1,$4,$5,$6,$7,0*
20,1,$1+$1,$6,$7,$8,$9,0*
20,1,$1+$1,$8,$9,$2,$3,0*%
G04 Aperture macros list end*
%ADD10C,0.060000*%
%ADD11C,0.150000*%
%ADD12C,0.120000*%
%ADD13C,0.152400*%
%ADD14C,4.000000*%
%ADD15RoundRect,0.050800X0.930200X0.930200X-0.930200X0.930200X-0.930200X-0.930200X0.930200X-0.930200X0*%
%ADD16C,1.962000*%
%ADD17C,3.217600*%
%ADD18RoundRect,0.150000X0.875000X0.150000X-0.875000X0.150000X-0.875000X-0.150000X0.875000X-0.150000X0*%
%ADD19RoundRect,0.140000X-0.140000X-0.170000X0.140000X-0.170000X0.140000X0.170000X-0.140000X0.170000X0*%
%ADD20RoundRect,0.250000X1.050000X0.550000X-1.050000X0.550000X-1.050000X-0.550000X1.050000X-0.550000X0*%
%ADD21RoundRect,0.140000X-0.170000X0.140000X-0.170000X-0.140000X0.170000X-0.140000X0.170000X0.140000X0*%
%ADD22RoundRect,0.102000X-0.330200X-0.774700X0.330200X-0.774700X0.330200X0.774700X-0.330200X0.774700X0*%
%ADD23RoundRect,0.102000X-0.647700X-0.952500X0.647700X-0.952500X0.647700X0.952500X-0.647700X0.952500X0*%
G04 APERTURE END LIST*
D10*
X264620208Y-220150589D02*
X264626236Y-220148710D01*
X264632293Y-220146865D01*
X264644378Y-220143197D01*
X264620208Y-220150589D01*
G36*
X264620208Y-220150589D02*
G01*
X264626236Y-220148710D01*
X264632293Y-220146865D01*
X264644378Y-220143197D01*
X264620208Y-220150589D01*
G37*
X260650447Y-218782126D02*
X260452214Y-218804975D01*
X260256682Y-218836345D01*
X260064042Y-218876043D01*
X259874483Y-218923873D01*
X259688195Y-218979640D01*
X259505369Y-219043148D01*
X259326193Y-219114204D01*
X259150859Y-219192611D01*
X258979556Y-219278175D01*
X258812473Y-219370701D01*
X258649802Y-219469994D01*
X258491731Y-219575859D01*
X258338452Y-219688101D01*
X258190153Y-219806524D01*
X258047025Y-219930934D01*
X257909257Y-220061136D01*
X257851411Y-220035361D01*
X257793420Y-220010346D01*
X257735280Y-219986095D01*
X257676986Y-219962609D01*
X257618535Y-219939894D01*
X257559922Y-219917953D01*
X257501143Y-219896788D01*
X257442192Y-219876404D01*
X257599082Y-219716106D01*
X257762996Y-219562944D01*
X257933676Y-219417183D01*
X258110863Y-219279088D01*
X258294298Y-219148926D01*
X258483722Y-219026960D01*
X258678877Y-218913456D01*
X258879504Y-218808680D01*
X259085344Y-218712897D01*
X259296138Y-218626371D01*
X259511627Y-218549369D01*
X259731553Y-218482155D01*
X259955657Y-218424995D01*
X260183680Y-218378154D01*
X260415363Y-218341896D01*
X260650447Y-218316488D01*
X260650447Y-218782126D01*
G36*
X260650447Y-218782126D02*
G01*
X260452214Y-218804975D01*
X260256682Y-218836345D01*
X260064042Y-218876043D01*
X259874483Y-218923873D01*
X259688195Y-218979640D01*
X259505369Y-219043148D01*
X259326193Y-219114204D01*
X259150859Y-219192611D01*
X258979556Y-219278175D01*
X258812473Y-219370701D01*
X258649802Y-219469994D01*
X258491731Y-219575859D01*
X258338452Y-219688101D01*
X258190153Y-219806524D01*
X258047025Y-219930934D01*
X257909257Y-220061136D01*
X257851411Y-220035361D01*
X257793420Y-220010346D01*
X257735280Y-219986095D01*
X257676986Y-219962609D01*
X257618535Y-219939894D01*
X257559922Y-219917953D01*
X257501143Y-219896788D01*
X257442192Y-219876404D01*
X257599082Y-219716106D01*
X257762996Y-219562944D01*
X257933676Y-219417183D01*
X258110863Y-219279088D01*
X258294298Y-219148926D01*
X258483722Y-219026960D01*
X258678877Y-218913456D01*
X258879504Y-218808680D01*
X259085344Y-218712897D01*
X259296138Y-218626371D01*
X259511627Y-218549369D01*
X259731553Y-218482155D01*
X259955657Y-218424995D01*
X260183680Y-218378154D01*
X260415363Y-218341896D01*
X260650447Y-218316488D01*
X260650447Y-218782126D01*
G37*
X249647003Y-227081165D02*
X246745756Y-227081165D01*
X246165550Y-226502179D01*
X246165550Y-224765000D01*
X246745756Y-224765000D01*
X246745756Y-226502179D01*
X249647003Y-226502179D01*
X249647003Y-224765000D01*
X246745756Y-224765000D01*
X246165550Y-224765000D01*
X246745756Y-224186014D01*
X249647003Y-224186014D01*
X250227283Y-224765000D01*
X250227283Y-226502179D01*
X249647003Y-227081165D01*
G36*
X249647003Y-227081165D02*
G01*
X246745756Y-227081165D01*
X246165550Y-226502179D01*
X246165550Y-224765000D01*
X246745756Y-224765000D01*
X246745756Y-226502179D01*
X249647003Y-226502179D01*
X249647003Y-224765000D01*
X246745756Y-224765000D01*
X246165550Y-224765000D01*
X246745756Y-224186014D01*
X249647003Y-224186014D01*
X250227283Y-224765000D01*
X250227283Y-226502179D01*
X249647003Y-227081165D01*
G37*
X277136419Y-226502179D02*
X276556139Y-227081165D01*
X276556139Y-227081164D01*
X274235250Y-227081164D01*
X274235250Y-226502179D01*
X276556139Y-226502179D01*
X276556139Y-225923044D01*
X273654970Y-225923044D01*
X273074691Y-225344059D01*
X273074691Y-224765000D01*
X273654970Y-224765000D01*
X273654970Y-225344059D01*
X276556139Y-225344059D01*
X276556139Y-224765000D01*
X273654970Y-224765000D01*
X273074691Y-224765000D01*
X273654970Y-224186014D01*
X276556139Y-224186014D01*
X277136419Y-224765000D01*
X277136419Y-225344059D01*
X277136419Y-226502179D01*
G36*
X277136419Y-226502179D02*
G01*
X276556139Y-227081165D01*
X276556139Y-227081164D01*
X274235250Y-227081164D01*
X274235250Y-226502179D01*
X276556139Y-226502179D01*
X276556139Y-225923044D01*
X273654970Y-225923044D01*
X273074691Y-225344059D01*
X273074691Y-224765000D01*
X273654970Y-224765000D01*
X273654970Y-225344059D01*
X276556139Y-225344059D01*
X276556139Y-224765000D01*
X273654970Y-224765000D01*
X273074691Y-224765000D01*
X273654970Y-224186014D01*
X276556139Y-224186014D01*
X277136419Y-224765000D01*
X277136419Y-225344059D01*
X277136419Y-226502179D01*
G37*
X254289006Y-224765000D02*
X254289006Y-226502179D01*
X253708726Y-227081165D01*
X250807484Y-227081165D01*
X250807484Y-226502179D01*
X253708726Y-226502179D01*
X253708726Y-224765000D01*
X250807484Y-224765000D01*
X250807484Y-224186014D01*
X253708726Y-224186014D01*
X254289006Y-224765000D01*
G36*
X254289006Y-224765000D02*
G01*
X254289006Y-226502179D01*
X253708726Y-227081165D01*
X250807484Y-227081165D01*
X250807484Y-226502179D01*
X253708726Y-226502179D01*
X253708726Y-224765000D01*
X250807484Y-224765000D01*
X250807484Y-224186014D01*
X253708726Y-224186014D01*
X254289006Y-224765000D01*
G37*
X256169614Y-222939026D02*
X256225420Y-222962714D01*
X256281858Y-222985724D01*
X256338895Y-223008023D01*
X256396500Y-223029576D01*
X256454642Y-223050350D01*
X256513288Y-223070309D01*
X256572409Y-223089421D01*
X256568945Y-223172743D01*
X256567670Y-223214512D01*
X256567301Y-223235458D01*
X256567168Y-223256456D01*
X256571930Y-223464454D01*
X256586080Y-223670042D01*
X256609407Y-223873016D01*
X256641705Y-224073167D01*
X256682766Y-224270288D01*
X256732380Y-224464172D01*
X256790341Y-224654613D01*
X256856439Y-224841402D01*
X256930467Y-225024333D01*
X257012217Y-225203199D01*
X257101480Y-225377792D01*
X257198049Y-225547906D01*
X257301715Y-225713333D01*
X257412270Y-225873866D01*
X257529507Y-226029298D01*
X257653216Y-226179422D01*
X257783190Y-226324030D01*
X257919221Y-226462916D01*
X258061100Y-226595872D01*
X258208620Y-226722692D01*
X258361572Y-226843168D01*
X258519748Y-226957093D01*
X258682941Y-227064259D01*
X258850941Y-227164461D01*
X259023542Y-227257490D01*
X259200534Y-227343139D01*
X259381709Y-227421202D01*
X259566861Y-227491471D01*
X259755779Y-227553739D01*
X259948257Y-227607799D01*
X260144087Y-227653444D01*
X260343059Y-227690466D01*
X260371846Y-227932319D01*
X260398952Y-228167901D01*
X260173456Y-228132039D01*
X259951420Y-228086174D01*
X259733086Y-228030548D01*
X259518697Y-227965401D01*
X259308496Y-227890976D01*
X259102725Y-227807514D01*
X258901627Y-227715256D01*
X258705443Y-227614443D01*
X258514418Y-227505318D01*
X258328793Y-227388122D01*
X258148810Y-227263095D01*
X257974714Y-227130481D01*
X257806745Y-226990519D01*
X257645147Y-226843452D01*
X257490161Y-226689521D01*
X257342032Y-226528967D01*
X257201001Y-226362032D01*
X257067311Y-226188957D01*
X256941204Y-226009984D01*
X256822923Y-225825354D01*
X256712711Y-225635309D01*
X256610810Y-225440090D01*
X256517462Y-225239939D01*
X256432911Y-225035097D01*
X256357398Y-224825805D01*
X256291167Y-224612305D01*
X256234460Y-224394838D01*
X256187519Y-224173646D01*
X256150587Y-223948971D01*
X256123907Y-223721053D01*
X256107721Y-223490134D01*
X256102272Y-223256456D01*
X256103062Y-223170484D01*
X256105397Y-223084848D01*
X256109218Y-222999576D01*
X256114471Y-222914695D01*
X256169614Y-222939026D01*
G36*
X256169614Y-222939026D02*
G01*
X256225420Y-222962714D01*
X256281858Y-222985724D01*
X256338895Y-223008023D01*
X256396500Y-223029576D01*
X256454642Y-223050350D01*
X256513288Y-223070309D01*
X256572409Y-223089421D01*
X256568945Y-223172743D01*
X256567670Y-223214512D01*
X256567301Y-223235458D01*
X256567168Y-223256456D01*
X256571930Y-223464454D01*
X256586080Y-223670042D01*
X256609407Y-223873016D01*
X256641705Y-224073167D01*
X256682766Y-224270288D01*
X256732380Y-224464172D01*
X256790341Y-224654613D01*
X256856439Y-224841402D01*
X256930467Y-225024333D01*
X257012217Y-225203199D01*
X257101480Y-225377792D01*
X257198049Y-225547906D01*
X257301715Y-225713333D01*
X257412270Y-225873866D01*
X257529507Y-226029298D01*
X257653216Y-226179422D01*
X257783190Y-226324030D01*
X257919221Y-226462916D01*
X258061100Y-226595872D01*
X258208620Y-226722692D01*
X258361572Y-226843168D01*
X258519748Y-226957093D01*
X258682941Y-227064259D01*
X258850941Y-227164461D01*
X259023542Y-227257490D01*
X259200534Y-227343139D01*
X259381709Y-227421202D01*
X259566861Y-227491471D01*
X259755779Y-227553739D01*
X259948257Y-227607799D01*
X260144087Y-227653444D01*
X260343059Y-227690466D01*
X260371846Y-227932319D01*
X260398952Y-228167901D01*
X260173456Y-228132039D01*
X259951420Y-228086174D01*
X259733086Y-228030548D01*
X259518697Y-227965401D01*
X259308496Y-227890976D01*
X259102725Y-227807514D01*
X258901627Y-227715256D01*
X258705443Y-227614443D01*
X258514418Y-227505318D01*
X258328793Y-227388122D01*
X258148810Y-227263095D01*
X257974714Y-227130481D01*
X257806745Y-226990519D01*
X257645147Y-226843452D01*
X257490161Y-226689521D01*
X257342032Y-226528967D01*
X257201001Y-226362032D01*
X257067311Y-226188957D01*
X256941204Y-226009984D01*
X256822923Y-225825354D01*
X256712711Y-225635309D01*
X256610810Y-225440090D01*
X256517462Y-225239939D01*
X256432911Y-225035097D01*
X256357398Y-224825805D01*
X256291167Y-224612305D01*
X256234460Y-224394838D01*
X256187519Y-224173646D01*
X256150587Y-223948971D01*
X256123907Y-223721053D01*
X256107721Y-223490134D01*
X256102272Y-223256456D01*
X256103062Y-223170484D01*
X256105397Y-223084848D01*
X256109218Y-222999576D01*
X256114471Y-222914695D01*
X256169614Y-222939026D01*
G37*
X271914210Y-227081165D02*
X268432688Y-227081165D01*
X268432688Y-225923045D01*
X269012965Y-225923045D01*
X269012965Y-226502179D01*
X271914210Y-226502179D01*
X271914210Y-225923045D01*
X269012965Y-225923045D01*
X268432688Y-225923045D01*
X268432688Y-224765000D01*
X269012965Y-224186015D01*
X271333932Y-224186015D01*
X271333932Y-224765000D01*
X269012965Y-224765000D01*
X269012965Y-225344060D01*
X271914210Y-225344060D01*
X272494414Y-225923045D01*
X272494414Y-226502179D01*
X271914210Y-227081165D01*
G36*
X271914210Y-227081165D02*
G01*
X268432688Y-227081165D01*
X268432688Y-225923045D01*
X269012965Y-225923045D01*
X269012965Y-226502179D01*
X271914210Y-226502179D01*
X271914210Y-225923045D01*
X269012965Y-225923045D01*
X268432688Y-225923045D01*
X268432688Y-224765000D01*
X269012965Y-224186015D01*
X271333932Y-224186015D01*
X271333932Y-224765000D01*
X269012965Y-224765000D01*
X269012965Y-225344060D01*
X271914210Y-225344060D01*
X272494414Y-225923045D01*
X272494414Y-226502179D01*
X271914210Y-227081165D01*
G37*
X240363066Y-224186014D02*
X240943346Y-224186014D01*
X240943346Y-224765000D01*
X240363066Y-224765000D01*
X240363066Y-226502179D01*
X239782791Y-227081165D01*
X237461824Y-227081165D01*
X237461824Y-226502179D01*
X239782791Y-226502179D01*
X239782791Y-224765000D01*
X238042103Y-224765000D01*
X238042103Y-224186014D01*
X239782791Y-224186014D01*
X239782791Y-223607029D01*
X240363066Y-223607029D01*
X240363066Y-224186014D01*
G36*
X240363066Y-224186014D02*
G01*
X240943346Y-224186014D01*
X240943346Y-224765000D01*
X240363066Y-224765000D01*
X240363066Y-226502179D01*
X239782791Y-227081165D01*
X237461824Y-227081165D01*
X237461824Y-226502179D01*
X239782791Y-226502179D01*
X239782791Y-224765000D01*
X238042103Y-224765000D01*
X238042103Y-224186014D01*
X239782791Y-224186014D01*
X239782791Y-223607029D01*
X240363066Y-223607029D01*
X240363066Y-224186014D01*
G37*
X295124084Y-227081164D02*
X294543805Y-227081164D01*
X294543805Y-224764999D01*
X291642637Y-224764999D01*
X291642637Y-227081164D01*
X291062358Y-227081164D01*
X291062358Y-224764999D01*
X291642637Y-224186014D01*
X294543805Y-224186014D01*
X294543805Y-223027969D01*
X295124084Y-223027969D01*
X295124084Y-227081164D01*
G36*
X295124084Y-227081164D02*
G01*
X294543805Y-227081164D01*
X294543805Y-224764999D01*
X291642637Y-224764999D01*
X291642637Y-227081164D01*
X291062358Y-227081164D01*
X291062358Y-224764999D01*
X291642637Y-224186014D01*
X294543805Y-224186014D01*
X294543805Y-223027969D01*
X295124084Y-223027969D01*
X295124084Y-227081164D01*
G37*
X245585280Y-227081165D02*
X245005000Y-227081165D01*
X245005000Y-224765000D01*
X242103831Y-224765000D01*
X242103831Y-227081165D01*
X241523552Y-227081165D01*
X241523552Y-224765000D01*
X242103831Y-224186014D01*
X245585280Y-224186014D01*
X245585280Y-227081165D01*
G36*
X245585280Y-227081165D02*
G01*
X245005000Y-227081165D01*
X245005000Y-224765000D01*
X242103831Y-224765000D01*
X242103831Y-227081165D01*
X241523552Y-227081165D01*
X241523552Y-224765000D01*
X242103831Y-224186014D01*
X245585280Y-224186014D01*
X245585280Y-227081165D01*
G37*
X299766014Y-224765000D02*
X299766014Y-225344060D01*
X299185810Y-225923045D01*
X296284567Y-225923045D01*
X296284567Y-226502179D01*
X299766014Y-226502179D01*
X299766014Y-227081165D01*
X296284567Y-227081165D01*
X295704288Y-226502179D01*
X295704288Y-225923045D01*
X296284567Y-225344060D01*
X299185810Y-225344060D01*
X299185810Y-224765000D01*
X296864770Y-224765000D01*
X296864770Y-224186015D01*
X299185810Y-224186015D01*
X299766014Y-224765000D01*
G36*
X299766014Y-224765000D02*
G01*
X299766014Y-225344060D01*
X299185810Y-225923045D01*
X296284567Y-225923045D01*
X296284567Y-226502179D01*
X299766014Y-226502179D01*
X299766014Y-227081165D01*
X296284567Y-227081165D01*
X295704288Y-226502179D01*
X295704288Y-225923045D01*
X296284567Y-225344060D01*
X299185810Y-225344060D01*
X299185810Y-224765000D01*
X296864770Y-224765000D01*
X296864770Y-224186015D01*
X299185810Y-224186015D01*
X299766014Y-224765000D01*
G37*
X232239615Y-227081165D02*
X229338446Y-227081165D01*
X228758166Y-226502179D01*
X228758166Y-224765000D01*
X229338446Y-224765000D01*
X229338446Y-226502179D01*
X232239615Y-226502179D01*
X232239615Y-224765000D01*
X229338446Y-224765000D01*
X228758166Y-224765000D01*
X229338446Y-224186014D01*
X232239615Y-224186014D01*
X232819821Y-224765000D01*
X232819821Y-226502179D01*
X232239615Y-227081165D01*
G36*
X232239615Y-227081165D02*
G01*
X229338446Y-227081165D01*
X228758166Y-226502179D01*
X228758166Y-224765000D01*
X229338446Y-224765000D01*
X229338446Y-226502179D01*
X232239615Y-226502179D01*
X232239615Y-224765000D01*
X229338446Y-224765000D01*
X228758166Y-224765000D01*
X229338446Y-224186014D01*
X232239615Y-224186014D01*
X232819821Y-224765000D01*
X232819821Y-226502179D01*
X232239615Y-227081165D01*
G37*
X265875705Y-224511526D02*
X265821351Y-224702732D01*
X265759594Y-224890734D01*
X265690603Y-225075362D01*
X265614545Y-225256449D01*
X265531589Y-225433826D01*
X265441905Y-225607326D01*
X265345661Y-225776780D01*
X265243025Y-225942021D01*
X265134167Y-226102879D01*
X265019255Y-226259188D01*
X264898458Y-226410778D01*
X264771945Y-226557482D01*
X264639883Y-226699131D01*
X264502443Y-226835558D01*
X264359793Y-226966594D01*
X264212101Y-227092071D01*
X264059536Y-227211821D01*
X263902267Y-227325677D01*
X263740462Y-227433469D01*
X263574291Y-227535029D01*
X263403922Y-227630190D01*
X263229523Y-227718784D01*
X263051264Y-227800641D01*
X262869314Y-227875595D01*
X262683840Y-227943477D01*
X262495011Y-228004119D01*
X262302997Y-228057352D01*
X262107966Y-228103009D01*
X261910087Y-228140921D01*
X261709528Y-228170921D01*
X261506458Y-228192840D01*
X261496551Y-228075151D01*
X261487470Y-227959191D01*
X261479204Y-227844617D01*
X261471739Y-227731086D01*
X261806426Y-227688785D01*
X262133058Y-227622426D01*
X262450704Y-227532941D01*
X262758429Y-227421262D01*
X263055299Y-227288324D01*
X263340381Y-227135057D01*
X263612743Y-226962394D01*
X263871449Y-226771269D01*
X264115566Y-226562613D01*
X264344162Y-226337360D01*
X264556302Y-226096441D01*
X264751053Y-225840790D01*
X264927481Y-225571338D01*
X265084653Y-225289019D01*
X265221635Y-224994765D01*
X265337494Y-224689509D01*
X265413205Y-224646836D01*
X265488235Y-224602966D01*
X265562555Y-224557946D01*
X265636135Y-224511824D01*
X265708948Y-224464649D01*
X265780963Y-224416468D01*
X265852152Y-224367330D01*
X265922486Y-224317283D01*
X265875705Y-224511526D01*
G36*
X265875705Y-224511526D02*
G01*
X265821351Y-224702732D01*
X265759594Y-224890734D01*
X265690603Y-225075362D01*
X265614545Y-225256449D01*
X265531589Y-225433826D01*
X265441905Y-225607326D01*
X265345661Y-225776780D01*
X265243025Y-225942021D01*
X265134167Y-226102879D01*
X265019255Y-226259188D01*
X264898458Y-226410778D01*
X264771945Y-226557482D01*
X264639883Y-226699131D01*
X264502443Y-226835558D01*
X264359793Y-226966594D01*
X264212101Y-227092071D01*
X264059536Y-227211821D01*
X263902267Y-227325677D01*
X263740462Y-227433469D01*
X263574291Y-227535029D01*
X263403922Y-227630190D01*
X263229523Y-227718784D01*
X263051264Y-227800641D01*
X262869314Y-227875595D01*
X262683840Y-227943477D01*
X262495011Y-228004119D01*
X262302997Y-228057352D01*
X262107966Y-228103009D01*
X261910087Y-228140921D01*
X261709528Y-228170921D01*
X261506458Y-228192840D01*
X261496551Y-228075151D01*
X261487470Y-227959191D01*
X261479204Y-227844617D01*
X261471739Y-227731086D01*
X261806426Y-227688785D01*
X262133058Y-227622426D01*
X262450704Y-227532941D01*
X262758429Y-227421262D01*
X263055299Y-227288324D01*
X263340381Y-227135057D01*
X263612743Y-226962394D01*
X263871449Y-226771269D01*
X264115566Y-226562613D01*
X264344162Y-226337360D01*
X264556302Y-226096441D01*
X264751053Y-225840790D01*
X264927481Y-225571338D01*
X265084653Y-225289019D01*
X265221635Y-224994765D01*
X265337494Y-224689509D01*
X265413205Y-224646836D01*
X265488235Y-224602966D01*
X265562555Y-224557946D01*
X265636135Y-224511824D01*
X265708948Y-224464649D01*
X265780963Y-224416468D01*
X265852152Y-224367330D01*
X265922486Y-224317283D01*
X265875705Y-224511526D01*
G37*
X228177887Y-226502179D02*
X227597612Y-227081165D01*
X227017406Y-227081165D01*
X227017406Y-226502179D01*
X227597612Y-226502179D01*
X227597612Y-223027969D01*
X228177887Y-223027969D01*
X228177887Y-226502179D01*
G36*
X228177887Y-226502179D02*
G01*
X227597612Y-227081165D01*
X227017406Y-227081165D01*
X227017406Y-226502179D01*
X227597612Y-226502179D01*
X227597612Y-223027969D01*
X228177887Y-223027969D01*
X228177887Y-226502179D01*
G37*
X236881622Y-224765000D02*
X236881622Y-227081165D01*
X236301343Y-227081165D01*
X236301343Y-224765000D01*
X233400101Y-224765000D01*
X233400101Y-224186014D01*
X236301343Y-224186014D01*
X236881622Y-224765000D01*
G36*
X236881622Y-224765000D02*
G01*
X236881622Y-227081165D01*
X236301343Y-227081165D01*
X236301343Y-224765000D01*
X233400101Y-224765000D01*
X233400101Y-224186014D01*
X236301343Y-224186014D01*
X236881622Y-224765000D01*
G37*
X226437135Y-224765000D02*
X226437135Y-225344060D01*
X225856929Y-225923045D01*
X222955687Y-225923045D01*
X222955687Y-226502179D01*
X226437131Y-226502179D01*
X226437131Y-227081165D01*
X222955687Y-227081165D01*
X222375407Y-226502179D01*
X222375407Y-225923045D01*
X222955687Y-225344060D01*
X225856929Y-225344060D01*
X225856929Y-224765000D01*
X223535889Y-224765000D01*
X223535889Y-224186015D01*
X225856929Y-224186015D01*
X226437135Y-224765000D01*
G36*
X226437135Y-224765000D02*
G01*
X226437135Y-225344060D01*
X225856929Y-225923045D01*
X222955687Y-225923045D01*
X222955687Y-226502179D01*
X226437131Y-226502179D01*
X226437131Y-227081165D01*
X222955687Y-227081165D01*
X222375407Y-226502179D01*
X222375407Y-225923045D01*
X222955687Y-225344060D01*
X225856929Y-225344060D01*
X225856929Y-224765000D01*
X223535889Y-224765000D01*
X223535889Y-224186015D01*
X225856929Y-224186015D01*
X226437135Y-224765000D01*
G37*
X289901801Y-227081165D02*
X286420352Y-227081165D01*
X286420352Y-225923045D01*
X287000632Y-225923045D01*
X287000632Y-226502179D01*
X289901801Y-226502179D01*
X289901801Y-225923045D01*
X287000632Y-225923045D01*
X286420352Y-225923045D01*
X286420352Y-224765000D01*
X287000632Y-224186015D01*
X289321597Y-224186015D01*
X289321597Y-224765000D01*
X287000632Y-224765000D01*
X287000632Y-225344060D01*
X289901801Y-225344060D01*
X290482154Y-225923045D01*
X290482154Y-226502179D01*
X289901801Y-227081165D01*
G36*
X289901801Y-227081165D02*
G01*
X286420352Y-227081165D01*
X286420352Y-225923045D01*
X287000632Y-225923045D01*
X287000632Y-226502179D01*
X289901801Y-226502179D01*
X289901801Y-225923045D01*
X287000632Y-225923045D01*
X286420352Y-225923045D01*
X286420352Y-224765000D01*
X287000632Y-224186015D01*
X289321597Y-224186015D01*
X289321597Y-224765000D01*
X287000632Y-224765000D01*
X287000632Y-225344060D01*
X289901801Y-225344060D01*
X290482154Y-225923045D01*
X290482154Y-226502179D01*
X289901801Y-227081165D01*
G37*
X264562282Y-220168854D02*
X264504797Y-220187392D01*
X264447776Y-220206252D01*
X264391239Y-220225483D01*
X264447766Y-220206231D01*
X264504770Y-220187336D01*
X264562251Y-220168791D01*
X264620207Y-220150589D01*
X264562282Y-220168854D01*
G36*
X264562282Y-220168854D02*
G01*
X264504797Y-220187392D01*
X264447776Y-220206252D01*
X264391239Y-220225483D01*
X264447766Y-220206231D01*
X264504770Y-220187336D01*
X264562251Y-220168791D01*
X264620207Y-220150589D01*
X264562282Y-220168854D01*
G37*
X257758233Y-220373665D02*
X257859082Y-220420436D01*
X257959314Y-220469664D01*
X258058982Y-220521357D01*
X258158138Y-220575520D01*
X258256835Y-220632160D01*
X258355126Y-220691281D01*
X258453063Y-220752890D01*
X258550700Y-220816993D01*
X258648089Y-220883596D01*
X258745282Y-220952705D01*
X258842333Y-221024325D01*
X259036219Y-221175123D01*
X259230167Y-221336039D01*
X259255728Y-220957945D01*
X259262942Y-220876340D01*
X259272197Y-220799041D01*
X259284351Y-220725619D01*
X259300259Y-220655643D01*
X259320778Y-220588684D01*
X259346764Y-220524310D01*
X259362074Y-220492959D01*
X259379072Y-220462093D01*
X259397866Y-220431658D01*
X259418561Y-220401601D01*
X259441264Y-220371868D01*
X259466084Y-220342404D01*
X259493127Y-220313158D01*
X259522500Y-220284073D01*
X259554310Y-220255098D01*
X259588663Y-220226177D01*
X259665431Y-220168286D01*
X259925152Y-221018769D01*
X260039928Y-220874903D01*
X260164526Y-220726366D01*
X260230579Y-220651750D01*
X260299173Y-220577651D01*
X260370335Y-220504631D01*
X260444094Y-220433250D01*
X260520478Y-220364071D01*
X260599517Y-220297655D01*
X260681237Y-220234564D01*
X260765667Y-220175359D01*
X260852836Y-220120601D01*
X260942772Y-220070854D01*
X261035503Y-220026677D01*
X261082926Y-220006853D01*
X261131058Y-219988632D01*
X261125385Y-220190047D01*
X261112523Y-220377410D01*
X261093047Y-220551496D01*
X261067531Y-220713075D01*
X261036550Y-220862923D01*
X261000678Y-221001811D01*
X260960490Y-221130512D01*
X260916560Y-221249800D01*
X260869463Y-221360448D01*
X260819773Y-221463228D01*
X260714914Y-221648277D01*
X260606579Y-221811132D01*
X260499364Y-221957977D01*
X260397866Y-222094995D01*
X260306680Y-222228371D01*
X260230402Y-222364287D01*
X260199291Y-222435131D01*
X260173630Y-222508929D01*
X260153995Y-222586454D01*
X260140959Y-222668479D01*
X260135098Y-222755777D01*
X260136985Y-222849122D01*
X260147197Y-222949286D01*
X260166306Y-223057041D01*
X260194887Y-223173162D01*
X260233516Y-223298421D01*
X260280704Y-223448425D01*
X260322144Y-223598836D01*
X260359340Y-223750092D01*
X260393796Y-223902626D01*
X260460509Y-224213276D01*
X260495776Y-224372263D01*
X260534321Y-224534272D01*
X260688024Y-224110597D01*
X260849598Y-223710064D01*
X261019852Y-223332125D01*
X261199596Y-222976232D01*
X261389638Y-222641835D01*
X261590789Y-222328388D01*
X261803857Y-222035342D01*
X262029651Y-221762148D01*
X262268980Y-221508258D01*
X262522654Y-221273124D01*
X262791482Y-221056197D01*
X263076272Y-220856929D01*
X263377834Y-220674772D01*
X263696977Y-220509178D01*
X264034511Y-220359597D01*
X264391244Y-220225483D01*
X264447781Y-220206252D01*
X264504802Y-220187392D01*
X264562286Y-220168854D01*
X264620212Y-220150589D01*
X264644382Y-220143197D01*
X264701547Y-220125846D01*
X264759139Y-220108775D01*
X264817193Y-220092039D01*
X264875745Y-220075696D01*
X265256363Y-219979965D01*
X265656397Y-219896435D01*
X266076560Y-219824668D01*
X266517567Y-219764223D01*
X266980131Y-219714659D01*
X267464965Y-219675538D01*
X267972785Y-219646418D01*
X268504303Y-219626859D01*
X268502665Y-219629659D01*
X268500955Y-219632338D01*
X268499177Y-219634909D01*
X268497339Y-219637383D01*
X268493502Y-219642088D01*
X268489490Y-219646548D01*
X268472623Y-219663793D01*
X268468432Y-219668424D01*
X268464346Y-219673369D01*
X268462355Y-219675990D01*
X268460408Y-219678724D01*
X268458511Y-219681583D01*
X268456667Y-219684580D01*
X268454885Y-219687725D01*
X268453169Y-219691032D01*
X268451525Y-219694510D01*
X268449959Y-219698172D01*
X268448477Y-219702030D01*
X268447085Y-219706095D01*
X268445788Y-219710380D01*
X268444592Y-219714894D01*
X267936145Y-220299405D01*
X267866580Y-220390624D01*
X267802683Y-220479627D01*
X267690607Y-220651496D01*
X267597338Y-220816030D01*
X267520299Y-220974249D01*
X267456911Y-221127168D01*
X267404597Y-221275807D01*
X267360778Y-221421182D01*
X267322878Y-221564312D01*
X267254519Y-221847906D01*
X267218905Y-221990407D01*
X267178897Y-222134732D01*
X267131917Y-222281902D01*
X267075388Y-222432932D01*
X267006732Y-222588841D01*
X266923370Y-222750647D01*
X266883499Y-222820044D01*
X266840983Y-222889310D01*
X266795892Y-222958391D01*
X266748295Y-223027231D01*
X266698260Y-223095772D01*
X266645856Y-223163959D01*
X266591152Y-223231736D01*
X266534216Y-223299046D01*
X266475119Y-223365835D01*
X266413928Y-223432044D01*
X266350712Y-223497620D01*
X266285540Y-223562504D01*
X266218481Y-223626642D01*
X266149604Y-223689976D01*
X266078978Y-223752452D01*
X266006671Y-223814012D01*
X265943599Y-223865823D01*
X265879386Y-223916852D01*
X265814069Y-223967073D01*
X265747687Y-224016459D01*
X265680278Y-224064984D01*
X265611878Y-224112621D01*
X265542527Y-224159345D01*
X265472262Y-224205129D01*
X265311693Y-224304164D01*
X265147301Y-224397810D01*
X264979530Y-224485640D01*
X264808823Y-224567229D01*
X264722506Y-224605549D01*
X264635621Y-224642149D01*
X264548224Y-224676976D01*
X264460369Y-224709977D01*
X264372112Y-224741097D01*
X264283508Y-224770284D01*
X264194613Y-224797484D01*
X264105482Y-224822645D01*
X263972386Y-224857045D01*
X263846462Y-224886417D01*
X263727553Y-224910895D01*
X263615502Y-224930616D01*
X263510149Y-224945717D01*
X263411338Y-224956335D01*
X263318910Y-224962605D01*
X263232708Y-224964665D01*
X263115947Y-224960245D01*
X263012087Y-224947279D01*
X262920626Y-224926210D01*
X262841062Y-224897483D01*
X262772893Y-224861540D01*
X262715616Y-224818824D01*
X262668728Y-224769780D01*
X262631727Y-224714849D01*
X262604112Y-224654475D01*
X262585379Y-224589102D01*
X262575026Y-224519172D01*
X262572552Y-224445130D01*
X262577452Y-224367417D01*
X262589226Y-224286478D01*
X262607371Y-224202756D01*
X262631383Y-224116693D01*
X262660762Y-224028734D01*
X262695005Y-223939321D01*
X262733609Y-223848898D01*
X262776072Y-223757907D01*
X262870565Y-223575998D01*
X262974465Y-223397140D01*
X263083754Y-223224877D01*
X263194412Y-223062758D01*
X263302420Y-222914326D01*
X263403760Y-222783129D01*
X263581639Y-222572094D01*
X263763971Y-222378374D01*
X263949760Y-222200615D01*
X264138006Y-222037462D01*
X264327712Y-221887559D01*
X264517879Y-221749553D01*
X264707509Y-221622088D01*
X264895604Y-221503811D01*
X265263196Y-221289399D01*
X265612669Y-221095479D01*
X265936037Y-220911214D01*
X266085436Y-220819316D01*
X266225315Y-220725767D01*
X266000348Y-220759407D01*
X265774135Y-220806799D01*
X265547216Y-220867561D01*
X265320132Y-220941307D01*
X265093425Y-221027654D01*
X264867636Y-221126219D01*
X264643304Y-221236618D01*
X264420973Y-221358468D01*
X264201181Y-221491383D01*
X263984471Y-221634982D01*
X263771384Y-221788880D01*
X263562460Y-221952693D01*
X263358240Y-222126037D01*
X263159265Y-222308530D01*
X262966077Y-222499787D01*
X262779216Y-222699425D01*
X262599223Y-222907059D01*
X262426640Y-223122307D01*
X262262007Y-223344784D01*
X262105865Y-223574107D01*
X261958756Y-223809892D01*
X261821220Y-224051756D01*
X261693797Y-224299314D01*
X261577031Y-224552183D01*
X261471460Y-224809980D01*
X261377626Y-225072320D01*
X261296071Y-225338820D01*
X261227335Y-225609096D01*
X261171959Y-225882765D01*
X261130484Y-226159442D01*
X261103451Y-226438745D01*
X261091402Y-226720289D01*
X261096134Y-226924151D01*
X261112624Y-227238373D01*
X261169371Y-228059827D01*
X261181792Y-228212031D01*
X261238632Y-228908512D01*
X261297400Y-229508289D01*
X260863183Y-229206551D01*
X260701166Y-227749306D01*
X261118185Y-227749306D01*
X261129793Y-227977906D01*
X261143701Y-228212554D01*
X261158066Y-228212031D01*
X261148073Y-228093442D01*
X261138957Y-227977010D01*
X261130696Y-227862369D01*
X261123271Y-227749156D01*
X261118185Y-227749306D01*
X260701166Y-227749306D01*
X260698354Y-227724014D01*
X260588170Y-226872107D01*
X260452677Y-225994522D01*
X260286778Y-225127319D01*
X260190833Y-224708879D01*
X260085375Y-224306556D01*
X259969766Y-223924859D01*
X259843371Y-223568295D01*
X259705550Y-223241372D01*
X259555669Y-222948596D01*
X259506681Y-222867538D01*
X259450439Y-222783634D01*
X259317287Y-222608623D01*
X259158407Y-222426239D01*
X258975994Y-222239159D01*
X258772246Y-222050056D01*
X258549357Y-221861609D01*
X258309522Y-221676491D01*
X258054938Y-221497380D01*
X257787799Y-221326951D01*
X257510303Y-221167880D01*
X257224643Y-221022843D01*
X257079438Y-220956423D01*
X256933016Y-220894515D01*
X256785651Y-220837453D01*
X256637617Y-220785572D01*
X256489189Y-220739207D01*
X256340642Y-220698691D01*
X256192250Y-220664360D01*
X256044287Y-220636547D01*
X255897027Y-220615588D01*
X255750746Y-220601816D01*
X257301083Y-221302073D01*
X257539541Y-221434715D01*
X257765615Y-221578162D01*
X257972610Y-221732650D01*
X258066861Y-221814106D01*
X258153833Y-221898411D01*
X258232689Y-221985593D01*
X258302592Y-222075682D01*
X258362706Y-222168706D01*
X258412193Y-222264695D01*
X258450217Y-222363679D01*
X258475942Y-222465687D01*
X258488531Y-222570747D01*
X258487147Y-222678890D01*
X258432663Y-222707674D01*
X258377516Y-222734300D01*
X258321746Y-222758809D01*
X258265390Y-222781243D01*
X258208486Y-222801644D01*
X258151073Y-222820052D01*
X258093188Y-222836510D01*
X258034870Y-222851059D01*
X257976156Y-222863741D01*
X257917085Y-222874597D01*
X257857695Y-222883669D01*
X257798023Y-222890998D01*
X257738108Y-222896626D01*
X257677987Y-222900595D01*
X257617700Y-222902945D01*
X257557283Y-222903720D01*
X257495656Y-222902923D01*
X257433986Y-222900564D01*
X257372313Y-222896690D01*
X257310675Y-222891345D01*
X257249112Y-222884577D01*
X257187664Y-222876432D01*
X257065268Y-222856193D01*
X256943801Y-222830997D01*
X256823579Y-222801215D01*
X256704917Y-222767215D01*
X256588129Y-222729367D01*
X256533488Y-222710199D01*
X256479375Y-222690324D01*
X256425839Y-222669735D01*
X256372929Y-222648426D01*
X256370696Y-222647517D01*
X256368477Y-222646587D01*
X256364021Y-222644692D01*
X256311251Y-222622323D01*
X256259153Y-222599359D01*
X256207785Y-222575820D01*
X256157204Y-222551729D01*
X256061053Y-222503348D01*
X255968190Y-222453372D01*
X255878888Y-222402082D01*
X255793417Y-222349758D01*
X255712050Y-222296682D01*
X255635059Y-222243134D01*
X255562716Y-222189395D01*
X255495291Y-222135747D01*
X255413352Y-222066747D01*
X255340869Y-222002661D01*
X255276677Y-221942518D01*
X255219610Y-221885346D01*
X255168503Y-221830173D01*
X255122189Y-221776028D01*
X255079503Y-221721940D01*
X255039278Y-221666936D01*
X255000350Y-221610046D01*
X254961552Y-221550298D01*
X254879683Y-221418341D01*
X254784345Y-221263294D01*
X254728711Y-221174683D01*
X254666212Y-221077385D01*
X254632568Y-221026970D01*
X254599561Y-220980028D01*
X254567135Y-220936365D01*
X254535238Y-220895787D01*
X254503815Y-220858102D01*
X254472812Y-220823115D01*
X254442176Y-220790633D01*
X254411851Y-220760464D01*
X254381783Y-220732413D01*
X254351920Y-220706288D01*
X254292588Y-220659041D01*
X254233421Y-220617176D01*
X254173988Y-220579145D01*
X253924928Y-220434437D01*
X253857668Y-220392380D01*
X253787545Y-220344878D01*
X253714125Y-220290383D01*
X253636977Y-220227350D01*
X253923374Y-220162775D01*
X254201294Y-220106768D01*
X254471100Y-220059340D01*
X254733153Y-220020507D01*
X254987816Y-219990280D01*
X255235451Y-219968674D01*
X255476420Y-219955700D01*
X255711085Y-219951373D01*
X255909510Y-219954664D01*
X256103685Y-219964530D01*
X256293853Y-219980956D01*
X256480254Y-220003931D01*
X256663131Y-220033440D01*
X256842723Y-220069470D01*
X257019273Y-220112009D01*
X257193022Y-220161044D01*
X257251934Y-220179359D01*
X257310558Y-220198461D01*
X257368901Y-220218345D01*
X257426971Y-220239007D01*
X257484778Y-220260443D01*
X257542332Y-220282648D01*
X257599642Y-220305617D01*
X257656718Y-220329348D01*
X257656717Y-220329349D01*
X257656714Y-220329348D01*
X257655964Y-220330094D01*
X257598890Y-220306421D01*
X257541572Y-220283505D01*
X257484005Y-220261351D01*
X257426180Y-220239960D01*
X257368088Y-220219336D01*
X257309721Y-220199481D01*
X257251070Y-220180398D01*
X257192125Y-220162089D01*
X257192236Y-220161974D01*
X257192348Y-220161853D01*
X257192460Y-220161726D01*
X257192572Y-220161595D01*
X257192796Y-220161323D01*
X257193022Y-220161044D01*
X257193017Y-220161043D01*
X257192792Y-220161322D01*
X257192679Y-220161459D01*
X257192567Y-220161594D01*
X257192455Y-220161725D01*
X257192343Y-220161852D01*
X257192232Y-220161973D01*
X257192120Y-220162088D01*
X257251064Y-220180397D01*
X257309714Y-220199480D01*
X257368081Y-220219335D01*
X257426172Y-220239959D01*
X257483997Y-220261350D01*
X257541565Y-220283504D01*
X257598884Y-220306420D01*
X257655963Y-220330094D01*
X257655968Y-220330095D01*
X257655966Y-220330094D01*
X257655968Y-220330094D01*
X257656717Y-220329349D01*
X257658426Y-220330095D01*
X257758233Y-220373665D01*
G36*
X257758233Y-220373665D02*
G01*
X257859082Y-220420436D01*
X257959314Y-220469664D01*
X258058982Y-220521357D01*
X258158138Y-220575520D01*
X258256835Y-220632160D01*
X258355126Y-220691281D01*
X258453063Y-220752890D01*
X258550700Y-220816993D01*
X258648089Y-220883596D01*
X258745282Y-220952705D01*
X258842333Y-221024325D01*
X259036219Y-221175123D01*
X259230167Y-221336039D01*
X259255728Y-220957945D01*
X259262942Y-220876340D01*
X259272197Y-220799041D01*
X259284351Y-220725619D01*
X259300259Y-220655643D01*
X259320778Y-220588684D01*
X259346764Y-220524310D01*
X259362074Y-220492959D01*
X259379072Y-220462093D01*
X259397866Y-220431658D01*
X259418561Y-220401601D01*
X259441264Y-220371868D01*
X259466084Y-220342404D01*
X259493127Y-220313158D01*
X259522500Y-220284073D01*
X259554310Y-220255098D01*
X259588663Y-220226177D01*
X259665431Y-220168286D01*
X259925152Y-221018769D01*
X260039928Y-220874903D01*
X260164526Y-220726366D01*
X260230579Y-220651750D01*
X260299173Y-220577651D01*
X260370335Y-220504631D01*
X260444094Y-220433250D01*
X260520478Y-220364071D01*
X260599517Y-220297655D01*
X260681237Y-220234564D01*
X260765667Y-220175359D01*
X260852836Y-220120601D01*
X260942772Y-220070854D01*
X261035503Y-220026677D01*
X261082926Y-220006853D01*
X261131058Y-219988632D01*
X261125385Y-220190047D01*
X261112523Y-220377410D01*
X261093047Y-220551496D01*
X261067531Y-220713075D01*
X261036550Y-220862923D01*
X261000678Y-221001811D01*
X260960490Y-221130512D01*
X260916560Y-221249800D01*
X260869463Y-221360448D01*
X260819773Y-221463228D01*
X260714914Y-221648277D01*
X260606579Y-221811132D01*
X260499364Y-221957977D01*
X260397866Y-222094995D01*
X260306680Y-222228371D01*
X260230402Y-222364287D01*
X260199291Y-222435131D01*
X260173630Y-222508929D01*
X260153995Y-222586454D01*
X260140959Y-222668479D01*
X260135098Y-222755777D01*
X260136985Y-222849122D01*
X260147197Y-222949286D01*
X260166306Y-223057041D01*
X260194887Y-223173162D01*
X260233516Y-223298421D01*
X260280704Y-223448425D01*
X260322144Y-223598836D01*
X260359340Y-223750092D01*
X260393796Y-223902626D01*
X260460509Y-224213276D01*
X260495776Y-224372263D01*
X260534321Y-224534272D01*
X260688024Y-224110597D01*
X260849598Y-223710064D01*
X261019852Y-223332125D01*
X261199596Y-222976232D01*
X261389638Y-222641835D01*
X261590789Y-222328388D01*
X261803857Y-222035342D01*
X262029651Y-221762148D01*
X262268980Y-221508258D01*
X262522654Y-221273124D01*
X262791482Y-221056197D01*
X263076272Y-220856929D01*
X263377834Y-220674772D01*
X263696977Y-220509178D01*
X264034511Y-220359597D01*
X264391244Y-220225483D01*
X264447781Y-220206252D01*
X264504802Y-220187392D01*
X264562286Y-220168854D01*
X264620212Y-220150589D01*
X264644382Y-220143197D01*
X264701547Y-220125846D01*
X264759139Y-220108775D01*
X264817193Y-220092039D01*
X264875745Y-220075696D01*
X265256363Y-219979965D01*
X265656397Y-219896435D01*
X266076560Y-219824668D01*
X266517567Y-219764223D01*
X266980131Y-219714659D01*
X267464965Y-219675538D01*
X267972785Y-219646418D01*
X268504303Y-219626859D01*
X268502665Y-219629659D01*
X268500955Y-219632338D01*
X268499177Y-219634909D01*
X268497339Y-219637383D01*
X268493502Y-219642088D01*
X268489490Y-219646548D01*
X268472623Y-219663793D01*
X268468432Y-219668424D01*
X268464346Y-219673369D01*
X268462355Y-219675990D01*
X268460408Y-219678724D01*
X268458511Y-219681583D01*
X268456667Y-219684580D01*
X268454885Y-219687725D01*
X268453169Y-219691032D01*
X268451525Y-219694510D01*
X268449959Y-219698172D01*
X268448477Y-219702030D01*
X268447085Y-219706095D01*
X268445788Y-219710380D01*
X268444592Y-219714894D01*
X267936145Y-220299405D01*
X267866580Y-220390624D01*
X267802683Y-220479627D01*
X267690607Y-220651496D01*
X267597338Y-220816030D01*
X267520299Y-220974249D01*
X267456911Y-221127168D01*
X267404597Y-221275807D01*
X267360778Y-221421182D01*
X267322878Y-221564312D01*
X267254519Y-221847906D01*
X267218905Y-221990407D01*
X267178897Y-222134732D01*
X267131917Y-222281902D01*
X267075388Y-222432932D01*
X267006732Y-222588841D01*
X266923370Y-222750647D01*
X266883499Y-222820044D01*
X266840983Y-222889310D01*
X266795892Y-222958391D01*
X266748295Y-223027231D01*
X266698260Y-223095772D01*
X266645856Y-223163959D01*
X266591152Y-223231736D01*
X266534216Y-223299046D01*
X266475119Y-223365835D01*
X266413928Y-223432044D01*
X266350712Y-223497620D01*
X266285540Y-223562504D01*
X266218481Y-223626642D01*
X266149604Y-223689976D01*
X266078978Y-223752452D01*
X266006671Y-223814012D01*
X265943599Y-223865823D01*
X265879386Y-223916852D01*
X265814069Y-223967073D01*
X265747687Y-224016459D01*
X265680278Y-224064984D01*
X265611878Y-224112621D01*
X265542527Y-224159345D01*
X265472262Y-224205129D01*
X265311693Y-224304164D01*
X265147301Y-224397810D01*
X264979530Y-224485640D01*
X264808823Y-224567229D01*
X264722506Y-224605549D01*
X264635621Y-224642149D01*
X264548224Y-224676976D01*
X264460369Y-224709977D01*
X264372112Y-224741097D01*
X264283508Y-224770284D01*
X264194613Y-224797484D01*
X264105482Y-224822645D01*
X263972386Y-224857045D01*
X263846462Y-224886417D01*
X263727553Y-224910895D01*
X263615502Y-224930616D01*
X263510149Y-224945717D01*
X263411338Y-224956335D01*
X263318910Y-224962605D01*
X263232708Y-224964665D01*
X263115947Y-224960245D01*
X263012087Y-224947279D01*
X262920626Y-224926210D01*
X262841062Y-224897483D01*
X262772893Y-224861540D01*
X262715616Y-224818824D01*
X262668728Y-224769780D01*
X262631727Y-224714849D01*
X262604112Y-224654475D01*
X262585379Y-224589102D01*
X262575026Y-224519172D01*
X262572552Y-224445130D01*
X262577452Y-224367417D01*
X262589226Y-224286478D01*
X262607371Y-224202756D01*
X262631383Y-224116693D01*
X262660762Y-224028734D01*
X262695005Y-223939321D01*
X262733609Y-223848898D01*
X262776072Y-223757907D01*
X262870565Y-223575998D01*
X262974465Y-223397140D01*
X263083754Y-223224877D01*
X263194412Y-223062758D01*
X263302420Y-222914326D01*
X263403760Y-222783129D01*
X263581639Y-222572094D01*
X263763971Y-222378374D01*
X263949760Y-222200615D01*
X264138006Y-222037462D01*
X264327712Y-221887559D01*
X264517879Y-221749553D01*
X264707509Y-221622088D01*
X264895604Y-221503811D01*
X265263196Y-221289399D01*
X265612669Y-221095479D01*
X265936037Y-220911214D01*
X266085436Y-220819316D01*
X266225315Y-220725767D01*
X266000348Y-220759407D01*
X265774135Y-220806799D01*
X265547216Y-220867561D01*
X265320132Y-220941307D01*
X265093425Y-221027654D01*
X264867636Y-221126219D01*
X264643304Y-221236618D01*
X264420973Y-221358468D01*
X264201181Y-221491383D01*
X263984471Y-221634982D01*
X263771384Y-221788880D01*
X263562460Y-221952693D01*
X263358240Y-222126037D01*
X263159265Y-222308530D01*
X262966077Y-222499787D01*
X262779216Y-222699425D01*
X262599223Y-222907059D01*
X262426640Y-223122307D01*
X262262007Y-223344784D01*
X262105865Y-223574107D01*
X261958756Y-223809892D01*
X261821220Y-224051756D01*
X261693797Y-224299314D01*
X261577031Y-224552183D01*
X261471460Y-224809980D01*
X261377626Y-225072320D01*
X261296071Y-225338820D01*
X261227335Y-225609096D01*
X261171959Y-225882765D01*
X261130484Y-226159442D01*
X261103451Y-226438745D01*
X261091402Y-226720289D01*
X261096134Y-226924151D01*
X261112624Y-227238373D01*
X261169371Y-228059827D01*
X261181792Y-228212031D01*
X261238632Y-228908512D01*
X261297400Y-229508289D01*
X260863183Y-229206551D01*
X260701166Y-227749306D01*
X261118185Y-227749306D01*
X261129793Y-227977906D01*
X261143701Y-228212554D01*
X261158066Y-228212031D01*
X261148073Y-228093442D01*
X261138957Y-227977010D01*
X261130696Y-227862369D01*
X261123271Y-227749156D01*
X261118185Y-227749306D01*
X260701166Y-227749306D01*
X260698354Y-227724014D01*
X260588170Y-226872107D01*
X260452677Y-225994522D01*
X260286778Y-225127319D01*
X260190833Y-224708879D01*
X260085375Y-224306556D01*
X259969766Y-223924859D01*
X259843371Y-223568295D01*
X259705550Y-223241372D01*
X259555669Y-222948596D01*
X259506681Y-222867538D01*
X259450439Y-222783634D01*
X259317287Y-222608623D01*
X259158407Y-222426239D01*
X258975994Y-222239159D01*
X258772246Y-222050056D01*
X258549357Y-221861609D01*
X258309522Y-221676491D01*
X258054938Y-221497380D01*
X257787799Y-221326951D01*
X257510303Y-221167880D01*
X257224643Y-221022843D01*
X257079438Y-220956423D01*
X256933016Y-220894515D01*
X256785651Y-220837453D01*
X256637617Y-220785572D01*
X256489189Y-220739207D01*
X256340642Y-220698691D01*
X256192250Y-220664360D01*
X256044287Y-220636547D01*
X255897027Y-220615588D01*
X255750746Y-220601816D01*
X257301083Y-221302073D01*
X257539541Y-221434715D01*
X257765615Y-221578162D01*
X257972610Y-221732650D01*
X258066861Y-221814106D01*
X258153833Y-221898411D01*
X258232689Y-221985593D01*
X258302592Y-222075682D01*
X258362706Y-222168706D01*
X258412193Y-222264695D01*
X258450217Y-222363679D01*
X258475942Y-222465687D01*
X258488531Y-222570747D01*
X258487147Y-222678890D01*
X258432663Y-222707674D01*
X258377516Y-222734300D01*
X258321746Y-222758809D01*
X258265390Y-222781243D01*
X258208486Y-222801644D01*
X258151073Y-222820052D01*
X258093188Y-222836510D01*
X258034870Y-222851059D01*
X257976156Y-222863741D01*
X257917085Y-222874597D01*
X257857695Y-222883669D01*
X257798023Y-222890998D01*
X257738108Y-222896626D01*
X257677987Y-222900595D01*
X257617700Y-222902945D01*
X257557283Y-222903720D01*
X257495656Y-222902923D01*
X257433986Y-222900564D01*
X257372313Y-222896690D01*
X257310675Y-222891345D01*
X257249112Y-222884577D01*
X257187664Y-222876432D01*
X257065268Y-222856193D01*
X256943801Y-222830997D01*
X256823579Y-222801215D01*
X256704917Y-222767215D01*
X256588129Y-222729367D01*
X256533488Y-222710199D01*
X256479375Y-222690324D01*
X256425839Y-222669735D01*
X256372929Y-222648426D01*
X256370696Y-222647517D01*
X256368477Y-222646587D01*
X256364021Y-222644692D01*
X256311251Y-222622323D01*
X256259153Y-222599359D01*
X256207785Y-222575820D01*
X256157204Y-222551729D01*
X256061053Y-222503348D01*
X255968190Y-222453372D01*
X255878888Y-222402082D01*
X255793417Y-222349758D01*
X255712050Y-222296682D01*
X255635059Y-222243134D01*
X255562716Y-222189395D01*
X255495291Y-222135747D01*
X255413352Y-222066747D01*
X255340869Y-222002661D01*
X255276677Y-221942518D01*
X255219610Y-221885346D01*
X255168503Y-221830173D01*
X255122189Y-221776028D01*
X255079503Y-221721940D01*
X255039278Y-221666936D01*
X255000350Y-221610046D01*
X254961552Y-221550298D01*
X254879683Y-221418341D01*
X254784345Y-221263294D01*
X254728711Y-221174683D01*
X254666212Y-221077385D01*
X254632568Y-221026970D01*
X254599561Y-220980028D01*
X254567135Y-220936365D01*
X254535238Y-220895787D01*
X254503815Y-220858102D01*
X254472812Y-220823115D01*
X254442176Y-220790633D01*
X254411851Y-220760464D01*
X254381783Y-220732413D01*
X254351920Y-220706288D01*
X254292588Y-220659041D01*
X254233421Y-220617176D01*
X254173988Y-220579145D01*
X253924928Y-220434437D01*
X253857668Y-220392380D01*
X253787545Y-220344878D01*
X253714125Y-220290383D01*
X253636977Y-220227350D01*
X253923374Y-220162775D01*
X254201294Y-220106768D01*
X254471100Y-220059340D01*
X254733153Y-220020507D01*
X254987816Y-219990280D01*
X255235451Y-219968674D01*
X255476420Y-219955700D01*
X255711085Y-219951373D01*
X255909510Y-219954664D01*
X256103685Y-219964530D01*
X256293853Y-219980956D01*
X256480254Y-220003931D01*
X256663131Y-220033440D01*
X256842723Y-220069470D01*
X257019273Y-220112009D01*
X257193022Y-220161044D01*
X257251934Y-220179359D01*
X257310558Y-220198461D01*
X257368901Y-220218345D01*
X257426971Y-220239007D01*
X257484778Y-220260443D01*
X257542332Y-220282648D01*
X257599642Y-220305617D01*
X257656718Y-220329348D01*
X257656717Y-220329349D01*
X257656714Y-220329348D01*
X257655964Y-220330094D01*
X257598890Y-220306421D01*
X257541572Y-220283505D01*
X257484005Y-220261351D01*
X257426180Y-220239960D01*
X257368088Y-220219336D01*
X257309721Y-220199481D01*
X257251070Y-220180398D01*
X257192125Y-220162089D01*
X257192236Y-220161974D01*
X257192348Y-220161853D01*
X257192460Y-220161726D01*
X257192572Y-220161595D01*
X257192796Y-220161323D01*
X257193022Y-220161044D01*
X257193017Y-220161043D01*
X257192792Y-220161322D01*
X257192679Y-220161459D01*
X257192567Y-220161594D01*
X257192455Y-220161725D01*
X257192343Y-220161852D01*
X257192232Y-220161973D01*
X257192120Y-220162088D01*
X257251064Y-220180397D01*
X257309714Y-220199480D01*
X257368081Y-220219335D01*
X257426172Y-220239959D01*
X257483997Y-220261350D01*
X257541565Y-220283504D01*
X257598884Y-220306420D01*
X257655963Y-220330094D01*
X257655968Y-220330095D01*
X257655966Y-220330094D01*
X257655968Y-220330094D01*
X257656717Y-220329349D01*
X257658426Y-220330095D01*
X257758233Y-220373665D01*
G37*
X285840148Y-227081165D02*
X285259870Y-227081165D01*
X285259870Y-224765000D01*
X282358701Y-224765000D01*
X282358701Y-227081165D01*
X281778347Y-227081165D01*
X281778347Y-224765000D01*
X282358701Y-224186014D01*
X285840148Y-224186014D01*
X285840148Y-227081165D01*
G36*
X285840148Y-227081165D02*
G01*
X285259870Y-227081165D01*
X285259870Y-224765000D01*
X282358701Y-224765000D01*
X282358701Y-227081165D01*
X281778347Y-227081165D01*
X281778347Y-224765000D01*
X282358701Y-224186014D01*
X285840148Y-224186014D01*
X285840148Y-227081165D01*
G37*
X256372920Y-222648425D02*
X256370684Y-222647516D01*
X256370687Y-222647516D01*
X256372920Y-222648425D01*
G36*
X256372920Y-222648425D02*
G01*
X256370684Y-222647516D01*
X256370687Y-222647516D01*
X256372920Y-222648425D01*
G37*
X256368468Y-222646586D02*
X256368464Y-222646586D01*
X256364013Y-222644692D01*
X256368468Y-222646586D01*
G36*
X256368468Y-222646586D02*
G01*
X256368464Y-222646586D01*
X256364013Y-222644692D01*
X256368468Y-222646586D01*
G37*
X261717942Y-218340786D02*
X261941887Y-218375295D01*
X262162424Y-218419702D01*
X262379322Y-218473767D01*
X262592349Y-218537249D01*
X262801273Y-218609908D01*
X263005864Y-218691505D01*
X263205888Y-218781799D01*
X263401115Y-218880551D01*
X263591313Y-218987519D01*
X263776251Y-219102465D01*
X263955697Y-219225147D01*
X264129418Y-219355326D01*
X264297185Y-219492762D01*
X264458764Y-219637215D01*
X264613925Y-219788444D01*
X264486408Y-219827430D01*
X264361507Y-219868041D01*
X264238977Y-219910164D01*
X264118574Y-219953687D01*
X263983846Y-219834542D01*
X263844430Y-219720744D01*
X263700488Y-219612459D01*
X263552181Y-219509854D01*
X263399671Y-219413094D01*
X263243119Y-219322346D01*
X263082687Y-219237776D01*
X262918536Y-219159551D01*
X262750827Y-219087837D01*
X262579723Y-219022801D01*
X262405384Y-218964608D01*
X262227971Y-218913426D01*
X262047648Y-218869420D01*
X261864574Y-218832758D01*
X261678911Y-218803604D01*
X261490821Y-218782126D01*
X261490821Y-218316414D01*
X261717942Y-218340786D01*
G36*
X261717942Y-218340786D02*
G01*
X261941887Y-218375295D01*
X262162424Y-218419702D01*
X262379322Y-218473767D01*
X262592349Y-218537249D01*
X262801273Y-218609908D01*
X263005864Y-218691505D01*
X263205888Y-218781799D01*
X263401115Y-218880551D01*
X263591313Y-218987519D01*
X263776251Y-219102465D01*
X263955697Y-219225147D01*
X264129418Y-219355326D01*
X264297185Y-219492762D01*
X264458764Y-219637215D01*
X264613925Y-219788444D01*
X264486408Y-219827430D01*
X264361507Y-219868041D01*
X264238977Y-219910164D01*
X264118574Y-219953687D01*
X263983846Y-219834542D01*
X263844430Y-219720744D01*
X263700488Y-219612459D01*
X263552181Y-219509854D01*
X263399671Y-219413094D01*
X263243119Y-219322346D01*
X263082687Y-219237776D01*
X262918536Y-219159551D01*
X262750827Y-219087837D01*
X262579723Y-219022801D01*
X262405384Y-218964608D01*
X262227971Y-218913426D01*
X262047648Y-218869420D01*
X261864574Y-218832758D01*
X261678911Y-218803604D01*
X261490821Y-218782126D01*
X261490821Y-218316414D01*
X261717942Y-218340786D01*
G37*
X256425832Y-222669735D02*
X256479370Y-222690324D01*
X256533482Y-222710199D01*
X256588119Y-222729367D01*
X256533479Y-222710209D01*
X256479366Y-222690352D01*
X256425830Y-222669766D01*
X256372921Y-222648426D01*
X256425832Y-222669735D01*
G36*
X256425832Y-222669735D02*
G01*
X256479370Y-222690324D01*
X256533482Y-222710199D01*
X256588119Y-222729367D01*
X256533479Y-222710209D01*
X256479366Y-222690352D01*
X256425830Y-222669766D01*
X256372921Y-222648426D01*
X256425832Y-222669735D01*
G37*
X280617866Y-224186014D02*
X281198146Y-224186014D01*
X281198146Y-224765000D01*
X280617866Y-224765000D01*
X280617866Y-226502179D01*
X280037663Y-227081165D01*
X277716621Y-227081165D01*
X277716621Y-226502179D01*
X280037663Y-226502179D01*
X280037663Y-224765000D01*
X278296900Y-224765000D01*
X278296900Y-224186014D01*
X280037663Y-224186014D01*
X280037663Y-223607029D01*
X280617866Y-223607029D01*
X280617866Y-224186014D01*
G36*
X280617866Y-224186014D02*
G01*
X281198146Y-224186014D01*
X281198146Y-224765000D01*
X280617866Y-224765000D01*
X280617866Y-226502179D01*
X280037663Y-227081165D01*
X277716621Y-227081165D01*
X277716621Y-226502179D01*
X280037663Y-226502179D01*
X280037663Y-224765000D01*
X278296900Y-224765000D01*
X278296900Y-224186014D01*
X280037663Y-224186014D01*
X280037663Y-223607029D01*
X280617866Y-223607029D01*
X280617866Y-224186014D01*
G37*
D11*
X495663220Y-237039903D02*
X495663220Y-236039903D01*
X495663220Y-236039903D02*
X495425125Y-236039903D01*
X495425125Y-236039903D02*
X495282268Y-236087522D01*
X495282268Y-236087522D02*
X495187030Y-236182760D01*
X495187030Y-236182760D02*
X495139411Y-236277998D01*
X495139411Y-236277998D02*
X495091792Y-236468474D01*
X495091792Y-236468474D02*
X495091792Y-236611331D01*
X495091792Y-236611331D02*
X495139411Y-236801807D01*
X495139411Y-236801807D02*
X495187030Y-236897045D01*
X495187030Y-236897045D02*
X495282268Y-236992284D01*
X495282268Y-236992284D02*
X495425125Y-237039903D01*
X495425125Y-237039903D02*
X495663220Y-237039903D01*
X494234649Y-236373236D02*
X494234649Y-237039903D01*
X494663220Y-236373236D02*
X494663220Y-236897045D01*
X494663220Y-236897045D02*
X494615601Y-236992284D01*
X494615601Y-236992284D02*
X494520363Y-237039903D01*
X494520363Y-237039903D02*
X494377506Y-237039903D01*
X494377506Y-237039903D02*
X494282268Y-236992284D01*
X494282268Y-236992284D02*
X494234649Y-236944664D01*
X493758458Y-237039903D02*
X493758458Y-236039903D01*
X493758458Y-236420855D02*
X493663220Y-236373236D01*
X493663220Y-236373236D02*
X493472744Y-236373236D01*
X493472744Y-236373236D02*
X493377506Y-236420855D01*
X493377506Y-236420855D02*
X493329887Y-236468474D01*
X493329887Y-236468474D02*
X493282268Y-236563712D01*
X493282268Y-236563712D02*
X493282268Y-236849426D01*
X493282268Y-236849426D02*
X493329887Y-236944664D01*
X493329887Y-236944664D02*
X493377506Y-236992284D01*
X493377506Y-236992284D02*
X493472744Y-237039903D01*
X493472744Y-237039903D02*
X493663220Y-237039903D01*
X493663220Y-237039903D02*
X493758458Y-236992284D01*
X492520363Y-236516093D02*
X492853696Y-236516093D01*
X492853696Y-237039903D02*
X492853696Y-236039903D01*
X492853696Y-236039903D02*
X492377506Y-236039903D01*
X491853696Y-237039903D02*
X491948934Y-236992284D01*
X491948934Y-236992284D02*
X491996553Y-236944664D01*
X491996553Y-236944664D02*
X492044172Y-236849426D01*
X492044172Y-236849426D02*
X492044172Y-236563712D01*
X492044172Y-236563712D02*
X491996553Y-236468474D01*
X491996553Y-236468474D02*
X491948934Y-236420855D01*
X491948934Y-236420855D02*
X491853696Y-236373236D01*
X491853696Y-236373236D02*
X491710839Y-236373236D01*
X491710839Y-236373236D02*
X491615601Y-236420855D01*
X491615601Y-236420855D02*
X491567982Y-236468474D01*
X491567982Y-236468474D02*
X491520363Y-236563712D01*
X491520363Y-236563712D02*
X491520363Y-236849426D01*
X491520363Y-236849426D02*
X491567982Y-236944664D01*
X491567982Y-236944664D02*
X491615601Y-236992284D01*
X491615601Y-236992284D02*
X491710839Y-237039903D01*
X491710839Y-237039903D02*
X491853696Y-237039903D01*
X490663220Y-236992284D02*
X490758458Y-237039903D01*
X490758458Y-237039903D02*
X490948934Y-237039903D01*
X490948934Y-237039903D02*
X491044172Y-236992284D01*
X491044172Y-236992284D02*
X491091791Y-236944664D01*
X491091791Y-236944664D02*
X491139410Y-236849426D01*
X491139410Y-236849426D02*
X491139410Y-236563712D01*
X491139410Y-236563712D02*
X491091791Y-236468474D01*
X491091791Y-236468474D02*
X491044172Y-236420855D01*
X491044172Y-236420855D02*
X490948934Y-236373236D01*
X490948934Y-236373236D02*
X490758458Y-236373236D01*
X490758458Y-236373236D02*
X490663220Y-236420855D01*
X489806077Y-236373236D02*
X489806077Y-237039903D01*
X490234648Y-236373236D02*
X490234648Y-236897045D01*
X490234648Y-236897045D02*
X490187029Y-236992284D01*
X490187029Y-236992284D02*
X490091791Y-237039903D01*
X490091791Y-237039903D02*
X489948934Y-237039903D01*
X489948934Y-237039903D02*
X489853696Y-236992284D01*
X489853696Y-236992284D02*
X489806077Y-236944664D01*
X489377505Y-236992284D02*
X489282267Y-237039903D01*
X489282267Y-237039903D02*
X489091791Y-237039903D01*
X489091791Y-237039903D02*
X488996553Y-236992284D01*
X488996553Y-236992284D02*
X488948934Y-236897045D01*
X488948934Y-236897045D02*
X488948934Y-236849426D01*
X488948934Y-236849426D02*
X488996553Y-236754188D01*
X488996553Y-236754188D02*
X489091791Y-236706569D01*
X489091791Y-236706569D02*
X489234648Y-236706569D01*
X489234648Y-236706569D02*
X489329886Y-236658950D01*
X489329886Y-236658950D02*
X489377505Y-236563712D01*
X489377505Y-236563712D02*
X489377505Y-236516093D01*
X489377505Y-236516093D02*
X489329886Y-236420855D01*
X489329886Y-236420855D02*
X489234648Y-236373236D01*
X489234648Y-236373236D02*
X489091791Y-236373236D01*
X489091791Y-236373236D02*
X488996553Y-236420855D01*
X487234648Y-237039903D02*
X487806076Y-237039903D01*
X487520362Y-237039903D02*
X487520362Y-236039903D01*
X487520362Y-236039903D02*
X487615600Y-236182760D01*
X487615600Y-236182760D02*
X487710838Y-236277998D01*
X487710838Y-236277998D02*
X487806076Y-236325617D01*
X486377505Y-236039903D02*
X486567981Y-236039903D01*
X486567981Y-236039903D02*
X486663219Y-236087522D01*
X486663219Y-236087522D02*
X486710838Y-236135141D01*
X486710838Y-236135141D02*
X486806076Y-236277998D01*
X486806076Y-236277998D02*
X486853695Y-236468474D01*
X486853695Y-236468474D02*
X486853695Y-236849426D01*
X486853695Y-236849426D02*
X486806076Y-236944664D01*
X486806076Y-236944664D02*
X486758457Y-236992284D01*
X486758457Y-236992284D02*
X486663219Y-237039903D01*
X486663219Y-237039903D02*
X486472743Y-237039903D01*
X486472743Y-237039903D02*
X486377505Y-236992284D01*
X486377505Y-236992284D02*
X486329886Y-236944664D01*
X486329886Y-236944664D02*
X486282267Y-236849426D01*
X486282267Y-236849426D02*
X486282267Y-236611331D01*
X486282267Y-236611331D02*
X486329886Y-236516093D01*
X486329886Y-236516093D02*
X486377505Y-236468474D01*
X486377505Y-236468474D02*
X486472743Y-236420855D01*
X486472743Y-236420855D02*
X486663219Y-236420855D01*
X486663219Y-236420855D02*
X486758457Y-236468474D01*
X486758457Y-236468474D02*
X486806076Y-236516093D01*
X486806076Y-236516093D02*
X486853695Y-236611331D01*
X485996552Y-236039903D02*
X485425124Y-236039903D01*
X485710838Y-237039903D02*
X485710838Y-236039903D01*
X495663220Y-238649847D02*
X495663220Y-237649847D01*
X495663220Y-237649847D02*
X495282268Y-237649847D01*
X495282268Y-237649847D02*
X495187030Y-237697466D01*
X495187030Y-237697466D02*
X495139411Y-237745085D01*
X495139411Y-237745085D02*
X495091792Y-237840323D01*
X495091792Y-237840323D02*
X495091792Y-237983180D01*
X495091792Y-237983180D02*
X495139411Y-238078418D01*
X495139411Y-238078418D02*
X495187030Y-238126037D01*
X495187030Y-238126037D02*
X495282268Y-238173656D01*
X495282268Y-238173656D02*
X495663220Y-238173656D01*
X494520363Y-238649847D02*
X494615601Y-238602228D01*
X494615601Y-238602228D02*
X494663220Y-238554608D01*
X494663220Y-238554608D02*
X494710839Y-238459370D01*
X494710839Y-238459370D02*
X494710839Y-238173656D01*
X494710839Y-238173656D02*
X494663220Y-238078418D01*
X494663220Y-238078418D02*
X494615601Y-238030799D01*
X494615601Y-238030799D02*
X494520363Y-237983180D01*
X494520363Y-237983180D02*
X494377506Y-237983180D01*
X494377506Y-237983180D02*
X494282268Y-238030799D01*
X494282268Y-238030799D02*
X494234649Y-238078418D01*
X494234649Y-238078418D02*
X494187030Y-238173656D01*
X494187030Y-238173656D02*
X494187030Y-238459370D01*
X494187030Y-238459370D02*
X494234649Y-238554608D01*
X494234649Y-238554608D02*
X494282268Y-238602228D01*
X494282268Y-238602228D02*
X494377506Y-238649847D01*
X494377506Y-238649847D02*
X494520363Y-238649847D01*
X493901315Y-237983180D02*
X493520363Y-237983180D01*
X493758458Y-237649847D02*
X493758458Y-238506989D01*
X493758458Y-238506989D02*
X493710839Y-238602228D01*
X493710839Y-238602228D02*
X493615601Y-238649847D01*
X493615601Y-238649847D02*
X493520363Y-238649847D01*
X493234648Y-238602228D02*
X493139410Y-238649847D01*
X493139410Y-238649847D02*
X492948934Y-238649847D01*
X492948934Y-238649847D02*
X492853696Y-238602228D01*
X492853696Y-238602228D02*
X492806077Y-238506989D01*
X492806077Y-238506989D02*
X492806077Y-238459370D01*
X492806077Y-238459370D02*
X492853696Y-238364132D01*
X492853696Y-238364132D02*
X492948934Y-238316513D01*
X492948934Y-238316513D02*
X493091791Y-238316513D01*
X493091791Y-238316513D02*
X493187029Y-238268894D01*
X493187029Y-238268894D02*
X493234648Y-238173656D01*
X493234648Y-238173656D02*
X493234648Y-238126037D01*
X493234648Y-238126037D02*
X493187029Y-238030799D01*
X493187029Y-238030799D02*
X493091791Y-237983180D01*
X493091791Y-237983180D02*
X492948934Y-237983180D01*
X492948934Y-237983180D02*
X492853696Y-238030799D01*
X495091792Y-240259791D02*
X495425125Y-239783600D01*
X495663220Y-240259791D02*
X495663220Y-239259791D01*
X495663220Y-239259791D02*
X495282268Y-239259791D01*
X495282268Y-239259791D02*
X495187030Y-239307410D01*
X495187030Y-239307410D02*
X495139411Y-239355029D01*
X495139411Y-239355029D02*
X495091792Y-239450267D01*
X495091792Y-239450267D02*
X495091792Y-239593124D01*
X495091792Y-239593124D02*
X495139411Y-239688362D01*
X495139411Y-239688362D02*
X495187030Y-239735981D01*
X495187030Y-239735981D02*
X495282268Y-239783600D01*
X495282268Y-239783600D02*
X495663220Y-239783600D01*
X494139411Y-240259791D02*
X494710839Y-240259791D01*
X494425125Y-240259791D02*
X494425125Y-239259791D01*
X494425125Y-239259791D02*
X494520363Y-239402648D01*
X494520363Y-239402648D02*
X494615601Y-239497886D01*
X494615601Y-239497886D02*
X494710839Y-239545505D01*
X495710839Y-240964973D02*
X495663220Y-240917354D01*
X495663220Y-240917354D02*
X495567982Y-240869735D01*
X495567982Y-240869735D02*
X495329887Y-240869735D01*
X495329887Y-240869735D02*
X495234649Y-240917354D01*
X495234649Y-240917354D02*
X495187030Y-240964973D01*
X495187030Y-240964973D02*
X495139411Y-241060211D01*
X495139411Y-241060211D02*
X495139411Y-241155449D01*
X495139411Y-241155449D02*
X495187030Y-241298306D01*
X495187030Y-241298306D02*
X495758458Y-241869735D01*
X495758458Y-241869735D02*
X495139411Y-241869735D01*
X494520363Y-240869735D02*
X494425125Y-240869735D01*
X494425125Y-240869735D02*
X494329887Y-240917354D01*
X494329887Y-240917354D02*
X494282268Y-240964973D01*
X494282268Y-240964973D02*
X494234649Y-241060211D01*
X494234649Y-241060211D02*
X494187030Y-241250687D01*
X494187030Y-241250687D02*
X494187030Y-241488782D01*
X494187030Y-241488782D02*
X494234649Y-241679258D01*
X494234649Y-241679258D02*
X494282268Y-241774496D01*
X494282268Y-241774496D02*
X494329887Y-241822116D01*
X494329887Y-241822116D02*
X494425125Y-241869735D01*
X494425125Y-241869735D02*
X494520363Y-241869735D01*
X494520363Y-241869735D02*
X494615601Y-241822116D01*
X494615601Y-241822116D02*
X494663220Y-241774496D01*
X494663220Y-241774496D02*
X494710839Y-241679258D01*
X494710839Y-241679258D02*
X494758458Y-241488782D01*
X494758458Y-241488782D02*
X494758458Y-241250687D01*
X494758458Y-241250687D02*
X494710839Y-241060211D01*
X494710839Y-241060211D02*
X494663220Y-240964973D01*
X494663220Y-240964973D02*
X494615601Y-240917354D01*
X494615601Y-240917354D02*
X494520363Y-240869735D01*
X493806077Y-240964973D02*
X493758458Y-240917354D01*
X493758458Y-240917354D02*
X493663220Y-240869735D01*
X493663220Y-240869735D02*
X493425125Y-240869735D01*
X493425125Y-240869735D02*
X493329887Y-240917354D01*
X493329887Y-240917354D02*
X493282268Y-240964973D01*
X493282268Y-240964973D02*
X493234649Y-241060211D01*
X493234649Y-241060211D02*
X493234649Y-241155449D01*
X493234649Y-241155449D02*
X493282268Y-241298306D01*
X493282268Y-241298306D02*
X493853696Y-241869735D01*
X493853696Y-241869735D02*
X493234649Y-241869735D01*
X492329887Y-240869735D02*
X492806077Y-240869735D01*
X492806077Y-240869735D02*
X492853696Y-241345925D01*
X492853696Y-241345925D02*
X492806077Y-241298306D01*
X492806077Y-241298306D02*
X492710839Y-241250687D01*
X492710839Y-241250687D02*
X492472744Y-241250687D01*
X492472744Y-241250687D02*
X492377506Y-241298306D01*
X492377506Y-241298306D02*
X492329887Y-241345925D01*
X492329887Y-241345925D02*
X492282268Y-241441163D01*
X492282268Y-241441163D02*
X492282268Y-241679258D01*
X492282268Y-241679258D02*
X492329887Y-241774496D01*
X492329887Y-241774496D02*
X492377506Y-241822116D01*
X492377506Y-241822116D02*
X492472744Y-241869735D01*
X492472744Y-241869735D02*
X492710839Y-241869735D01*
X492710839Y-241869735D02*
X492806077Y-241822116D01*
X492806077Y-241822116D02*
X492853696Y-241774496D01*
X491853696Y-241774496D02*
X491806077Y-241822116D01*
X491806077Y-241822116D02*
X491853696Y-241869735D01*
X491853696Y-241869735D02*
X491901315Y-241822116D01*
X491901315Y-241822116D02*
X491853696Y-241774496D01*
X491853696Y-241774496D02*
X491853696Y-241869735D01*
X490853697Y-241869735D02*
X491425125Y-241869735D01*
X491139411Y-241869735D02*
X491139411Y-240869735D01*
X491139411Y-240869735D02*
X491234649Y-241012592D01*
X491234649Y-241012592D02*
X491329887Y-241107830D01*
X491329887Y-241107830D02*
X491425125Y-241155449D01*
X490472744Y-240964973D02*
X490425125Y-240917354D01*
X490425125Y-240917354D02*
X490329887Y-240869735D01*
X490329887Y-240869735D02*
X490091792Y-240869735D01*
X490091792Y-240869735D02*
X489996554Y-240917354D01*
X489996554Y-240917354D02*
X489948935Y-240964973D01*
X489948935Y-240964973D02*
X489901316Y-241060211D01*
X489901316Y-241060211D02*
X489901316Y-241155449D01*
X489901316Y-241155449D02*
X489948935Y-241298306D01*
X489948935Y-241298306D02*
X490520363Y-241869735D01*
X490520363Y-241869735D02*
X489901316Y-241869735D01*
X392084521Y-192572294D02*
X392084521Y-193219913D01*
X392084521Y-193219913D02*
X392046426Y-193296103D01*
X392046426Y-193296103D02*
X392008331Y-193334199D01*
X392008331Y-193334199D02*
X391932140Y-193372294D01*
X391932140Y-193372294D02*
X391779759Y-193372294D01*
X391779759Y-193372294D02*
X391703569Y-193334199D01*
X391703569Y-193334199D02*
X391665474Y-193296103D01*
X391665474Y-193296103D02*
X391627378Y-193219913D01*
X391627378Y-193219913D02*
X391627378Y-192572294D01*
X391322617Y-192572294D02*
X390827379Y-192572294D01*
X390827379Y-192572294D02*
X391094045Y-192877056D01*
X391094045Y-192877056D02*
X390979760Y-192877056D01*
X390979760Y-192877056D02*
X390903569Y-192915151D01*
X390903569Y-192915151D02*
X390865474Y-192953246D01*
X390865474Y-192953246D02*
X390827379Y-193029437D01*
X390827379Y-193029437D02*
X390827379Y-193219913D01*
X390827379Y-193219913D02*
X390865474Y-193296103D01*
X390865474Y-193296103D02*
X390903569Y-193334199D01*
X390903569Y-193334199D02*
X390979760Y-193372294D01*
X390979760Y-193372294D02*
X391208331Y-193372294D01*
X391208331Y-193372294D02*
X391284522Y-193334199D01*
X391284522Y-193334199D02*
X391322617Y-193296103D01*
X486258329Y-192146102D02*
X486296425Y-192184198D01*
X486296425Y-192184198D02*
X486410710Y-192222293D01*
X486410710Y-192222293D02*
X486486901Y-192222293D01*
X486486901Y-192222293D02*
X486601187Y-192184198D01*
X486601187Y-192184198D02*
X486677377Y-192108007D01*
X486677377Y-192108007D02*
X486715472Y-192031817D01*
X486715472Y-192031817D02*
X486753568Y-191879436D01*
X486753568Y-191879436D02*
X486753568Y-191765150D01*
X486753568Y-191765150D02*
X486715472Y-191612769D01*
X486715472Y-191612769D02*
X486677377Y-191536578D01*
X486677377Y-191536578D02*
X486601187Y-191460388D01*
X486601187Y-191460388D02*
X486486901Y-191422293D01*
X486486901Y-191422293D02*
X486410710Y-191422293D01*
X486410710Y-191422293D02*
X486296425Y-191460388D01*
X486296425Y-191460388D02*
X486258329Y-191498483D01*
X485572615Y-191422293D02*
X485724996Y-191422293D01*
X485724996Y-191422293D02*
X485801187Y-191460388D01*
X485801187Y-191460388D02*
X485839282Y-191498483D01*
X485839282Y-191498483D02*
X485915472Y-191612769D01*
X485915472Y-191612769D02*
X485953568Y-191765150D01*
X485953568Y-191765150D02*
X485953568Y-192069912D01*
X485953568Y-192069912D02*
X485915472Y-192146102D01*
X485915472Y-192146102D02*
X485877377Y-192184198D01*
X485877377Y-192184198D02*
X485801187Y-192222293D01*
X485801187Y-192222293D02*
X485648806Y-192222293D01*
X485648806Y-192222293D02*
X485572615Y-192184198D01*
X485572615Y-192184198D02*
X485534520Y-192146102D01*
X485534520Y-192146102D02*
X485496425Y-192069912D01*
X485496425Y-192069912D02*
X485496425Y-191879436D01*
X485496425Y-191879436D02*
X485534520Y-191803245D01*
X485534520Y-191803245D02*
X485572615Y-191765150D01*
X485572615Y-191765150D02*
X485648806Y-191727055D01*
X485648806Y-191727055D02*
X485801187Y-191727055D01*
X485801187Y-191727055D02*
X485877377Y-191765150D01*
X485877377Y-191765150D02*
X485915472Y-191803245D01*
X485915472Y-191803245D02*
X485953568Y-191879436D01*
X492084520Y-192572293D02*
X492084520Y-193219912D01*
X492084520Y-193219912D02*
X492046425Y-193296102D01*
X492046425Y-193296102D02*
X492008330Y-193334198D01*
X492008330Y-193334198D02*
X491932139Y-193372293D01*
X491932139Y-193372293D02*
X491779758Y-193372293D01*
X491779758Y-193372293D02*
X491703568Y-193334198D01*
X491703568Y-193334198D02*
X491665473Y-193296102D01*
X491665473Y-193296102D02*
X491627377Y-193219912D01*
X491627377Y-193219912D02*
X491627377Y-192572293D01*
X490903568Y-192838959D02*
X490903568Y-193372293D01*
X491094044Y-192534198D02*
X491284521Y-193105626D01*
X491284521Y-193105626D02*
X490789282Y-193105626D01*
X386258330Y-192146103D02*
X386296426Y-192184199D01*
X386296426Y-192184199D02*
X386410711Y-192222294D01*
X386410711Y-192222294D02*
X386486902Y-192222294D01*
X386486902Y-192222294D02*
X386601188Y-192184199D01*
X386601188Y-192184199D02*
X386677378Y-192108008D01*
X386677378Y-192108008D02*
X386715473Y-192031818D01*
X386715473Y-192031818D02*
X386753569Y-191879437D01*
X386753569Y-191879437D02*
X386753569Y-191765151D01*
X386753569Y-191765151D02*
X386715473Y-191612770D01*
X386715473Y-191612770D02*
X386677378Y-191536579D01*
X386677378Y-191536579D02*
X386601188Y-191460389D01*
X386601188Y-191460389D02*
X386486902Y-191422294D01*
X386486902Y-191422294D02*
X386410711Y-191422294D01*
X386410711Y-191422294D02*
X386296426Y-191460389D01*
X386296426Y-191460389D02*
X386258330Y-191498484D01*
X385534521Y-191422294D02*
X385915473Y-191422294D01*
X385915473Y-191422294D02*
X385953569Y-191803246D01*
X385953569Y-191803246D02*
X385915473Y-191765151D01*
X385915473Y-191765151D02*
X385839283Y-191727056D01*
X385839283Y-191727056D02*
X385648807Y-191727056D01*
X385648807Y-191727056D02*
X385572616Y-191765151D01*
X385572616Y-191765151D02*
X385534521Y-191803246D01*
X385534521Y-191803246D02*
X385496426Y-191879437D01*
X385496426Y-191879437D02*
X385496426Y-192069913D01*
X385496426Y-192069913D02*
X385534521Y-192146103D01*
X385534521Y-192146103D02*
X385572616Y-192184199D01*
X385572616Y-192184199D02*
X385648807Y-192222294D01*
X385648807Y-192222294D02*
X385839283Y-192222294D01*
X385839283Y-192222294D02*
X385915473Y-192184199D01*
X385915473Y-192184199D02*
X385953569Y-192146103D01*
X478588332Y-221226104D02*
X478626428Y-221264200D01*
X478626428Y-221264200D02*
X478740713Y-221302295D01*
X478740713Y-221302295D02*
X478816904Y-221302295D01*
X478816904Y-221302295D02*
X478931190Y-221264200D01*
X478931190Y-221264200D02*
X479007380Y-221188009D01*
X479007380Y-221188009D02*
X479045475Y-221111819D01*
X479045475Y-221111819D02*
X479083571Y-220959438D01*
X479083571Y-220959438D02*
X479083571Y-220845152D01*
X479083571Y-220845152D02*
X479045475Y-220692771D01*
X479045475Y-220692771D02*
X479007380Y-220616580D01*
X479007380Y-220616580D02*
X478931190Y-220540390D01*
X478931190Y-220540390D02*
X478816904Y-220502295D01*
X478816904Y-220502295D02*
X478740713Y-220502295D01*
X478740713Y-220502295D02*
X478626428Y-220540390D01*
X478626428Y-220540390D02*
X478588332Y-220578485D01*
X477826428Y-221302295D02*
X478283571Y-221302295D01*
X478054999Y-221302295D02*
X478054999Y-220502295D01*
X478054999Y-220502295D02*
X478131190Y-220616580D01*
X478131190Y-220616580D02*
X478207380Y-220692771D01*
X478207380Y-220692771D02*
X478283571Y-220730866D01*
X286258331Y-192146104D02*
X286296427Y-192184200D01*
X286296427Y-192184200D02*
X286410712Y-192222295D01*
X286410712Y-192222295D02*
X286486903Y-192222295D01*
X286486903Y-192222295D02*
X286601189Y-192184200D01*
X286601189Y-192184200D02*
X286677379Y-192108009D01*
X286677379Y-192108009D02*
X286715474Y-192031819D01*
X286715474Y-192031819D02*
X286753570Y-191879438D01*
X286753570Y-191879438D02*
X286753570Y-191765152D01*
X286753570Y-191765152D02*
X286715474Y-191612771D01*
X286715474Y-191612771D02*
X286677379Y-191536580D01*
X286677379Y-191536580D02*
X286601189Y-191460390D01*
X286601189Y-191460390D02*
X286486903Y-191422295D01*
X286486903Y-191422295D02*
X286410712Y-191422295D01*
X286410712Y-191422295D02*
X286296427Y-191460390D01*
X286296427Y-191460390D02*
X286258331Y-191498485D01*
X285572617Y-191688961D02*
X285572617Y-192222295D01*
X285763093Y-191384200D02*
X285953570Y-191955628D01*
X285953570Y-191955628D02*
X285458331Y-191955628D01*
X186258332Y-192146104D02*
X186296428Y-192184200D01*
X186296428Y-192184200D02*
X186410713Y-192222295D01*
X186410713Y-192222295D02*
X186486904Y-192222295D01*
X186486904Y-192222295D02*
X186601190Y-192184200D01*
X186601190Y-192184200D02*
X186677380Y-192108009D01*
X186677380Y-192108009D02*
X186715475Y-192031819D01*
X186715475Y-192031819D02*
X186753571Y-191879438D01*
X186753571Y-191879438D02*
X186753571Y-191765152D01*
X186753571Y-191765152D02*
X186715475Y-191612771D01*
X186715475Y-191612771D02*
X186677380Y-191536580D01*
X186677380Y-191536580D02*
X186601190Y-191460390D01*
X186601190Y-191460390D02*
X186486904Y-191422295D01*
X186486904Y-191422295D02*
X186410713Y-191422295D01*
X186410713Y-191422295D02*
X186296428Y-191460390D01*
X186296428Y-191460390D02*
X186258332Y-191498485D01*
X185991666Y-191422295D02*
X185496428Y-191422295D01*
X185496428Y-191422295D02*
X185763094Y-191727057D01*
X185763094Y-191727057D02*
X185648809Y-191727057D01*
X185648809Y-191727057D02*
X185572618Y-191765152D01*
X185572618Y-191765152D02*
X185534523Y-191803247D01*
X185534523Y-191803247D02*
X185496428Y-191879438D01*
X185496428Y-191879438D02*
X185496428Y-192069914D01*
X185496428Y-192069914D02*
X185534523Y-192146104D01*
X185534523Y-192146104D02*
X185572618Y-192184200D01*
X185572618Y-192184200D02*
X185648809Y-192222295D01*
X185648809Y-192222295D02*
X185877380Y-192222295D01*
X185877380Y-192222295D02*
X185953571Y-192184200D01*
X185953571Y-192184200D02*
X185991666Y-192146104D01*
X481691104Y-227906667D02*
X481729200Y-227868571D01*
X481729200Y-227868571D02*
X481767295Y-227754286D01*
X481767295Y-227754286D02*
X481767295Y-227678095D01*
X481767295Y-227678095D02*
X481729200Y-227563809D01*
X481729200Y-227563809D02*
X481653009Y-227487619D01*
X481653009Y-227487619D02*
X481576819Y-227449524D01*
X481576819Y-227449524D02*
X481424438Y-227411428D01*
X481424438Y-227411428D02*
X481310152Y-227411428D01*
X481310152Y-227411428D02*
X481157771Y-227449524D01*
X481157771Y-227449524D02*
X481081580Y-227487619D01*
X481081580Y-227487619D02*
X481005390Y-227563809D01*
X481005390Y-227563809D02*
X480967295Y-227678095D01*
X480967295Y-227678095D02*
X480967295Y-227754286D01*
X480967295Y-227754286D02*
X481005390Y-227868571D01*
X481005390Y-227868571D02*
X481043485Y-227906667D01*
X481043485Y-228211428D02*
X481005390Y-228249524D01*
X481005390Y-228249524D02*
X480967295Y-228325714D01*
X480967295Y-228325714D02*
X480967295Y-228516190D01*
X480967295Y-228516190D02*
X481005390Y-228592381D01*
X481005390Y-228592381D02*
X481043485Y-228630476D01*
X481043485Y-228630476D02*
X481119676Y-228668571D01*
X481119676Y-228668571D02*
X481195866Y-228668571D01*
X481195866Y-228668571D02*
X481310152Y-228630476D01*
X481310152Y-228630476D02*
X481767295Y-228173333D01*
X481767295Y-228173333D02*
X481767295Y-228668571D01*
X497590475Y-221586104D02*
X497628571Y-221624200D01*
X497628571Y-221624200D02*
X497742856Y-221662295D01*
X497742856Y-221662295D02*
X497819047Y-221662295D01*
X497819047Y-221662295D02*
X497933333Y-221624200D01*
X497933333Y-221624200D02*
X498009523Y-221548009D01*
X498009523Y-221548009D02*
X498047618Y-221471819D01*
X498047618Y-221471819D02*
X498085714Y-221319438D01*
X498085714Y-221319438D02*
X498085714Y-221205152D01*
X498085714Y-221205152D02*
X498047618Y-221052771D01*
X498047618Y-221052771D02*
X498009523Y-220976580D01*
X498009523Y-220976580D02*
X497933333Y-220900390D01*
X497933333Y-220900390D02*
X497819047Y-220862295D01*
X497819047Y-220862295D02*
X497742856Y-220862295D01*
X497742856Y-220862295D02*
X497628571Y-220900390D01*
X497628571Y-220900390D02*
X497590475Y-220938485D01*
X497095237Y-220862295D02*
X496942856Y-220862295D01*
X496942856Y-220862295D02*
X496866666Y-220900390D01*
X496866666Y-220900390D02*
X496790475Y-220976580D01*
X496790475Y-220976580D02*
X496752380Y-221128961D01*
X496752380Y-221128961D02*
X496752380Y-221395628D01*
X496752380Y-221395628D02*
X496790475Y-221548009D01*
X496790475Y-221548009D02*
X496866666Y-221624200D01*
X496866666Y-221624200D02*
X496942856Y-221662295D01*
X496942856Y-221662295D02*
X497095237Y-221662295D01*
X497095237Y-221662295D02*
X497171428Y-221624200D01*
X497171428Y-221624200D02*
X497247618Y-221548009D01*
X497247618Y-221548009D02*
X497285714Y-221395628D01*
X497285714Y-221395628D02*
X497285714Y-221128961D01*
X497285714Y-221128961D02*
X497247618Y-220976580D01*
X497247618Y-220976580D02*
X497171428Y-220900390D01*
X497171428Y-220900390D02*
X497095237Y-220862295D01*
X496409523Y-221662295D02*
X496409523Y-220862295D01*
X496409523Y-220862295D02*
X495952380Y-221662295D01*
X495952380Y-221662295D02*
X495952380Y-220862295D01*
X495571428Y-221662295D02*
X495571428Y-220862295D01*
X495571428Y-220862295D02*
X495114285Y-221662295D01*
X495114285Y-221662295D02*
X495114285Y-220862295D01*
X494314286Y-221662295D02*
X494771429Y-221662295D01*
X494542857Y-221662295D02*
X494542857Y-220862295D01*
X494542857Y-220862295D02*
X494619048Y-220976580D01*
X494619048Y-220976580D02*
X494695238Y-221052771D01*
X494695238Y-221052771D02*
X494771429Y-221090866D01*
X292084522Y-192572295D02*
X292084522Y-193219914D01*
X292084522Y-193219914D02*
X292046427Y-193296104D01*
X292046427Y-193296104D02*
X292008332Y-193334200D01*
X292008332Y-193334200D02*
X291932141Y-193372295D01*
X291932141Y-193372295D02*
X291779760Y-193372295D01*
X291779760Y-193372295D02*
X291703570Y-193334200D01*
X291703570Y-193334200D02*
X291665475Y-193296104D01*
X291665475Y-193296104D02*
X291627379Y-193219914D01*
X291627379Y-193219914D02*
X291627379Y-192572295D01*
X291284523Y-192648485D02*
X291246427Y-192610390D01*
X291246427Y-192610390D02*
X291170237Y-192572295D01*
X291170237Y-192572295D02*
X290979761Y-192572295D01*
X290979761Y-192572295D02*
X290903570Y-192610390D01*
X290903570Y-192610390D02*
X290865475Y-192648485D01*
X290865475Y-192648485D02*
X290827380Y-192724676D01*
X290827380Y-192724676D02*
X290827380Y-192800866D01*
X290827380Y-192800866D02*
X290865475Y-192915152D01*
X290865475Y-192915152D02*
X291322618Y-193372295D01*
X291322618Y-193372295D02*
X290827380Y-193372295D01*
X192084523Y-192572295D02*
X192084523Y-193219914D01*
X192084523Y-193219914D02*
X192046428Y-193296104D01*
X192046428Y-193296104D02*
X192008333Y-193334200D01*
X192008333Y-193334200D02*
X191932142Y-193372295D01*
X191932142Y-193372295D02*
X191779761Y-193372295D01*
X191779761Y-193372295D02*
X191703571Y-193334200D01*
X191703571Y-193334200D02*
X191665476Y-193296104D01*
X191665476Y-193296104D02*
X191627380Y-193219914D01*
X191627380Y-193219914D02*
X191627380Y-192572295D01*
X190827381Y-193372295D02*
X191284524Y-193372295D01*
X191055952Y-193372295D02*
X191055952Y-192572295D01*
X191055952Y-192572295D02*
X191132143Y-192686580D01*
X191132143Y-192686580D02*
X191208333Y-192762771D01*
X191208333Y-192762771D02*
X191284524Y-192800866D01*
D12*
X387614998Y-193849999D02*
X387614998Y-194114999D01*
X387614998Y-209204999D02*
X387614998Y-209469999D01*
X387614998Y-209469999D02*
X395334998Y-209469999D01*
X395334998Y-193849999D02*
X387614998Y-193849999D01*
X395334998Y-194114999D02*
X395334998Y-193849999D01*
X395334998Y-209469999D02*
X395334998Y-209204999D01*
X396124998Y-194109999D02*
X395784998Y-193639999D01*
X396464998Y-193639999D01*
X396124998Y-194109999D01*
G36*
X396124998Y-194109999D02*
G01*
X395784998Y-193639999D01*
X396464998Y-193639999D01*
X396124998Y-194109999D01*
G37*
X486017161Y-192499998D02*
X486232833Y-192499998D01*
X486017161Y-193219998D02*
X486232833Y-193219998D01*
X487614997Y-193849998D02*
X487614997Y-194114998D01*
X487614997Y-209204998D02*
X487614997Y-209469998D01*
X487614997Y-209469998D02*
X495334997Y-209469998D01*
X495334997Y-193849998D02*
X487614997Y-193849998D01*
X495334997Y-194114998D02*
X495334997Y-193849998D01*
X495334997Y-209469998D02*
X495334997Y-209204998D01*
X496124997Y-194109998D02*
X495784997Y-193639998D01*
X496464997Y-193639998D01*
X496124997Y-194109998D01*
G36*
X496124997Y-194109998D02*
G01*
X495784997Y-193639998D01*
X496464997Y-193639998D01*
X496124997Y-194109998D01*
G37*
X386017162Y-192499999D02*
X386232834Y-192499999D01*
X386017162Y-193219999D02*
X386232834Y-193219999D01*
X476195000Y-221880000D02*
X476195000Y-223080000D01*
X476195000Y-226400000D02*
X476195000Y-225200000D01*
X479650563Y-221880000D02*
X476195000Y-221880000D01*
X479650563Y-226400000D02*
X476195000Y-226400000D01*
X480715000Y-222944437D02*
X479650563Y-221880000D01*
X480715000Y-222944437D02*
X480715000Y-223080000D01*
X480715000Y-225335563D02*
X479650563Y-226400000D01*
X480715000Y-225335563D02*
X480715000Y-225200000D01*
X481205000Y-222330000D02*
X481205000Y-222830000D01*
X481455000Y-222580000D02*
X480955000Y-222580000D01*
X286017163Y-192500000D02*
X286232835Y-192500000D01*
X286017163Y-193220000D02*
X286232835Y-193220000D01*
X186017164Y-192500000D02*
X186232836Y-192500000D01*
X186017164Y-193220000D02*
X186232836Y-193220000D01*
X481095000Y-226182164D02*
X481095000Y-226397836D01*
X481815000Y-226182164D02*
X481815000Y-226397836D01*
D13*
X485775800Y-222183800D02*
X486741000Y-222183800D01*
X485775800Y-225282600D02*
X485775800Y-222183800D01*
X496728800Y-227389300D02*
X487000000Y-227389300D01*
X497059000Y-222182300D02*
X498024200Y-222182300D01*
X498024200Y-222182300D02*
X498024200Y-225281100D01*
D12*
X287614999Y-193850000D02*
X287614999Y-194115000D01*
X287614999Y-209205000D02*
X287614999Y-209470000D01*
X287614999Y-209470000D02*
X295334999Y-209470000D01*
X295334999Y-193850000D02*
X287614999Y-193850000D01*
X295334999Y-194115000D02*
X295334999Y-193850000D01*
X295334999Y-209470000D02*
X295334999Y-209205000D01*
X296124999Y-194110000D02*
X295784999Y-193640000D01*
X296464999Y-193640000D01*
X296124999Y-194110000D01*
G36*
X296124999Y-194110000D02*
G01*
X295784999Y-193640000D01*
X296464999Y-193640000D01*
X296124999Y-194110000D01*
G37*
X187615000Y-193850000D02*
X187615000Y-194115000D01*
X187615000Y-209205000D02*
X187615000Y-209470000D01*
X187615000Y-209470000D02*
X195335000Y-209470000D01*
X195335000Y-193850000D02*
X187615000Y-193850000D01*
X195335000Y-194115000D02*
X195335000Y-193850000D01*
X195335000Y-209470000D02*
X195335000Y-209205000D01*
X196125000Y-194110000D02*
X195785000Y-193640000D01*
X196465000Y-193640000D01*
X196125000Y-194110000D01*
G36*
X196125000Y-194110000D02*
G01*
X195785000Y-193640000D01*
X196465000Y-193640000D01*
X196125000Y-194110000D01*
G37*
%LPC*%
D14*
X316500000Y-164000000D03*
D15*
X231500000Y-157000000D03*
D16*
X229000000Y-157000000D03*
X226500000Y-157000000D03*
D17*
X234000000Y-164000000D03*
X224000000Y-164000000D03*
D14*
X516500000Y-164000000D03*
D15*
X331500000Y-157000000D03*
D16*
X329000000Y-157000000D03*
X326500000Y-157000000D03*
D17*
X334000000Y-164000000D03*
X324000000Y-164000000D03*
D15*
X281500000Y-182000000D03*
D16*
X279000000Y-182000000D03*
X276500000Y-182000000D03*
D17*
X284000000Y-189000000D03*
X274000000Y-189000000D03*
D14*
X366500000Y-239000000D03*
X516500000Y-239000000D03*
D15*
X406500000Y-157000000D03*
D16*
X404000000Y-157000000D03*
X401500000Y-157000000D03*
D17*
X409000000Y-164000000D03*
X399000000Y-164000000D03*
D15*
X531500000Y-157000000D03*
D16*
X529000000Y-157000000D03*
X526500000Y-157000000D03*
D17*
X534000000Y-164000000D03*
X524000000Y-164000000D03*
D14*
X216500000Y-214000000D03*
D15*
X431500000Y-232000000D03*
D16*
X429000000Y-232000000D03*
X426500000Y-232000000D03*
D17*
X434000000Y-239000000D03*
X424000000Y-239000000D03*
D15*
X306500000Y-157000000D03*
D16*
X304000000Y-157000000D03*
X301500000Y-157000000D03*
D17*
X309000000Y-164000000D03*
X299000000Y-164000000D03*
D15*
X181500000Y-182000000D03*
D16*
X179000000Y-182000000D03*
X176500000Y-182000000D03*
D17*
X184000000Y-189000000D03*
X174000000Y-189000000D03*
D14*
X266500000Y-214000000D03*
D15*
X156500000Y-182000000D03*
D16*
X154000000Y-182000000D03*
X151500000Y-182000000D03*
D17*
X159000000Y-189000000D03*
X149000000Y-189000000D03*
D14*
X416500000Y-214000000D03*
D15*
X481500000Y-232000000D03*
D16*
X479000000Y-232000000D03*
X476500000Y-232000000D03*
D17*
X484000000Y-239000000D03*
X474000000Y-239000000D03*
D15*
X206500000Y-207000000D03*
D16*
X204000000Y-207000000D03*
X201500000Y-207000000D03*
D17*
X209000000Y-214000000D03*
X199000000Y-214000000D03*
D15*
X356500000Y-157000000D03*
D16*
X354000000Y-157000000D03*
X351500000Y-157000000D03*
D17*
X359000000Y-164000000D03*
X349000000Y-164000000D03*
D15*
X506500000Y-232000000D03*
D16*
X504000000Y-232000000D03*
X501500000Y-232000000D03*
D17*
X509000000Y-239000000D03*
X499000000Y-239000000D03*
D15*
X531500000Y-232000000D03*
D16*
X529000000Y-232000000D03*
X526500000Y-232000000D03*
D17*
X534000000Y-239000000D03*
X524000000Y-239000000D03*
D15*
X381500000Y-207000000D03*
D16*
X379000000Y-207000000D03*
X376500000Y-207000000D03*
D17*
X384000000Y-214000000D03*
X374000000Y-214000000D03*
D15*
X481500000Y-207000000D03*
D16*
X479000000Y-207000000D03*
X476500000Y-207000000D03*
D17*
X484000000Y-214000000D03*
X474000000Y-214000000D03*
D15*
X456500000Y-182000000D03*
D16*
X454000000Y-182000000D03*
X451500000Y-182000000D03*
D17*
X459000000Y-189000000D03*
X449000000Y-189000000D03*
D15*
X181500000Y-232000000D03*
D16*
X179000000Y-232000000D03*
X176500000Y-232000000D03*
D17*
X184000000Y-239000000D03*
X174000000Y-239000000D03*
D15*
X181500000Y-207000000D03*
D16*
X179000000Y-207000000D03*
X176500000Y-207000000D03*
D17*
X184000000Y-214000000D03*
X174000000Y-214000000D03*
D15*
X281500000Y-232000000D03*
D16*
X279000000Y-232000000D03*
X276500000Y-232000000D03*
D17*
X284000000Y-239000000D03*
X274000000Y-239000000D03*
D15*
X381500000Y-157000000D03*
D16*
X379000000Y-157000000D03*
X376500000Y-157000000D03*
D17*
X384000000Y-164000000D03*
X374000000Y-164000000D03*
D15*
X256500000Y-157000000D03*
D16*
X254000000Y-157000000D03*
X251500000Y-157000000D03*
D17*
X259000000Y-164000000D03*
X249000000Y-164000000D03*
D15*
X231500000Y-207000000D03*
D16*
X229000000Y-207000000D03*
X226500000Y-207000000D03*
D17*
X234000000Y-214000000D03*
X224000000Y-214000000D03*
D14*
X466500000Y-189000000D03*
X341500000Y-189000000D03*
D15*
X156500000Y-157000000D03*
D16*
X154000000Y-157000000D03*
X151500000Y-157000000D03*
D17*
X159000000Y-164000000D03*
X149000000Y-164000000D03*
D15*
X281500000Y-157000000D03*
D16*
X279000000Y-157000000D03*
X276500000Y-157000000D03*
D17*
X284000000Y-164000000D03*
X274000000Y-164000000D03*
D15*
X381500000Y-182000000D03*
D16*
X379000000Y-182000000D03*
X376500000Y-182000000D03*
D17*
X384000000Y-189000000D03*
X374000000Y-189000000D03*
D15*
X356500000Y-182000000D03*
D16*
X354000000Y-182000000D03*
X351500000Y-182000000D03*
D17*
X359000000Y-189000000D03*
X349000000Y-189000000D03*
D15*
X406500000Y-207000000D03*
D16*
X404000000Y-207000000D03*
X401500000Y-207000000D03*
D17*
X409000000Y-214000000D03*
X399000000Y-214000000D03*
D14*
X166500000Y-164000000D03*
X266500000Y-189000000D03*
D15*
X231500000Y-182000000D03*
D16*
X229000000Y-182000000D03*
X226500000Y-182000000D03*
D17*
X234000000Y-189000000D03*
X224000000Y-189000000D03*
D15*
X531500000Y-182000000D03*
D16*
X529000000Y-182000000D03*
X526500000Y-182000000D03*
D17*
X534000000Y-189000000D03*
X524000000Y-189000000D03*
D14*
X166500000Y-239000000D03*
D15*
X206500000Y-157000000D03*
D16*
X204000000Y-157000000D03*
X201500000Y-157000000D03*
D17*
X209000000Y-164000000D03*
X199000000Y-164000000D03*
D15*
X481500000Y-157000000D03*
D16*
X479000000Y-157000000D03*
X476500000Y-157000000D03*
D17*
X484000000Y-164000000D03*
X474000000Y-164000000D03*
D15*
X231500000Y-232000000D03*
D16*
X229000000Y-232000000D03*
X226500000Y-232000000D03*
D17*
X234000000Y-239000000D03*
X224000000Y-239000000D03*
D15*
X381500000Y-232000000D03*
D16*
X379000000Y-232000000D03*
X376500000Y-232000000D03*
D17*
X384000000Y-239000000D03*
X374000000Y-239000000D03*
D15*
X456500000Y-232000000D03*
D16*
X454000000Y-232000000D03*
X451500000Y-232000000D03*
D17*
X459000000Y-239000000D03*
X449000000Y-239000000D03*
D15*
X506500000Y-207000000D03*
D16*
X504000000Y-207000000D03*
X501500000Y-207000000D03*
D17*
X509000000Y-214000000D03*
X499000000Y-214000000D03*
D15*
X306500000Y-207000000D03*
D16*
X304000000Y-207000000D03*
X301500000Y-207000000D03*
D17*
X309000000Y-214000000D03*
X299000000Y-214000000D03*
D15*
X456500000Y-157000000D03*
D16*
X454000000Y-157000000D03*
X451500000Y-157000000D03*
D17*
X459000000Y-164000000D03*
X449000000Y-164000000D03*
D15*
X506500000Y-157000000D03*
D16*
X504000000Y-157000000D03*
X501500000Y-157000000D03*
D17*
X509000000Y-164000000D03*
X499000000Y-164000000D03*
D14*
X216500000Y-189000000D03*
D15*
X306500000Y-182000000D03*
D16*
X304000000Y-182000000D03*
X301500000Y-182000000D03*
D17*
X309000000Y-189000000D03*
X299000000Y-189000000D03*
D15*
X356500000Y-232000000D03*
D16*
X354000000Y-232000000D03*
X351500000Y-232000000D03*
D17*
X359000000Y-239000000D03*
X349000000Y-239000000D03*
D15*
X256500000Y-232000000D03*
D16*
X254000000Y-232000000D03*
X251500000Y-232000000D03*
D17*
X259000000Y-239000000D03*
X249000000Y-239000000D03*
D15*
X406500000Y-232000000D03*
D16*
X404000000Y-232000000D03*
X401500000Y-232000000D03*
D17*
X409000000Y-239000000D03*
X399000000Y-239000000D03*
D15*
X331500000Y-182000000D03*
D16*
X329000000Y-182000000D03*
X326500000Y-182000000D03*
D17*
X334000000Y-189000000D03*
X324000000Y-189000000D03*
D15*
X256500000Y-182000000D03*
D16*
X254000000Y-182000000D03*
X251500000Y-182000000D03*
D17*
X259000000Y-189000000D03*
X249000000Y-189000000D03*
D15*
X481500000Y-182000000D03*
D16*
X479000000Y-182000000D03*
X476500000Y-182000000D03*
D17*
X484000000Y-189000000D03*
X474000000Y-189000000D03*
D15*
X506500000Y-182000000D03*
D16*
X504000000Y-182000000D03*
X501500000Y-182000000D03*
D17*
X509000000Y-189000000D03*
X499000000Y-189000000D03*
D15*
X281500000Y-207000000D03*
D16*
X279000000Y-207000000D03*
X276500000Y-207000000D03*
D17*
X284000000Y-214000000D03*
X274000000Y-214000000D03*
D15*
X156500000Y-207000000D03*
D16*
X154000000Y-207000000D03*
X151500000Y-207000000D03*
D17*
X159000000Y-214000000D03*
X149000000Y-214000000D03*
D14*
X466500000Y-214000000D03*
D15*
X331500000Y-232000000D03*
D16*
X329000000Y-232000000D03*
X326500000Y-232000000D03*
D17*
X334000000Y-239000000D03*
X324000000Y-239000000D03*
D15*
X406500000Y-182000000D03*
D16*
X404000000Y-182000000D03*
X401500000Y-182000000D03*
D17*
X409000000Y-189000000D03*
X399000000Y-189000000D03*
D15*
X206500000Y-232000000D03*
D16*
X204000000Y-232000000D03*
X201500000Y-232000000D03*
D17*
X209000000Y-239000000D03*
X199000000Y-239000000D03*
D15*
X306500000Y-232000000D03*
D16*
X304000000Y-232000000D03*
X301500000Y-232000000D03*
D17*
X309000000Y-239000000D03*
X299000000Y-239000000D03*
D15*
X256500000Y-207000000D03*
D16*
X254000000Y-207000000D03*
X251500000Y-207000000D03*
D17*
X259000000Y-214000000D03*
X249000000Y-214000000D03*
D14*
X366500000Y-164000000D03*
D15*
X431500000Y-182000000D03*
D16*
X429000000Y-182000000D03*
X426500000Y-182000000D03*
D17*
X434000000Y-189000000D03*
X424000000Y-189000000D03*
D15*
X531500000Y-207000000D03*
D16*
X529000000Y-207000000D03*
X526500000Y-207000000D03*
D17*
X534000000Y-214000000D03*
X524000000Y-214000000D03*
D15*
X356500000Y-207000000D03*
D16*
X354000000Y-207000000D03*
X351500000Y-207000000D03*
D17*
X359000000Y-214000000D03*
X349000000Y-214000000D03*
D15*
X206500000Y-182000000D03*
D16*
X204000000Y-182000000D03*
X201500000Y-182000000D03*
D17*
X209000000Y-189000000D03*
X199000000Y-189000000D03*
D14*
X316500000Y-239000000D03*
D15*
X156500000Y-232000000D03*
D16*
X154000000Y-232000000D03*
X151500000Y-232000000D03*
D17*
X159000000Y-239000000D03*
X149000000Y-239000000D03*
D15*
X331500000Y-207000000D03*
D16*
X329000000Y-207000000D03*
X326500000Y-207000000D03*
D17*
X334000000Y-214000000D03*
X324000000Y-214000000D03*
D15*
X431500000Y-207000000D03*
D16*
X429000000Y-207000000D03*
X426500000Y-207000000D03*
D17*
X434000000Y-214000000D03*
X424000000Y-214000000D03*
D14*
X416500000Y-189000000D03*
D15*
X181500000Y-157000000D03*
D16*
X179000000Y-157000000D03*
X176500000Y-157000000D03*
D17*
X184000000Y-164000000D03*
X174000000Y-164000000D03*
D15*
X456500000Y-207000000D03*
D16*
X454000000Y-207000000D03*
X451500000Y-207000000D03*
D17*
X459000000Y-214000000D03*
X449000000Y-214000000D03*
D15*
X431500000Y-157000000D03*
D16*
X429000000Y-157000000D03*
X426500000Y-157000000D03*
D17*
X434000000Y-164000000D03*
X424000000Y-164000000D03*
D14*
X341500000Y-214000000D03*
D18*
X396124998Y-194674999D03*
X396124998Y-195944999D03*
X396124998Y-197214999D03*
X396124998Y-198484999D03*
X396124998Y-199754999D03*
X396124998Y-201024999D03*
X396124998Y-202294999D03*
X396124998Y-203564999D03*
X396124998Y-204834999D03*
X396124998Y-206104999D03*
X396124998Y-207374999D03*
X396124998Y-208644999D03*
X386824998Y-208644999D03*
X386824998Y-207374999D03*
X386824998Y-206104999D03*
X386824998Y-204834999D03*
X386824998Y-203564999D03*
X386824998Y-202294999D03*
X386824998Y-201024999D03*
X386824998Y-199754999D03*
X386824998Y-198484999D03*
X386824998Y-197214999D03*
X386824998Y-195944999D03*
X386824998Y-194674999D03*
D19*
X485644997Y-192859998D03*
X486604997Y-192859998D03*
D18*
X496124997Y-194674998D03*
X496124997Y-195944998D03*
X496124997Y-197214998D03*
X496124997Y-198484998D03*
X496124997Y-199754998D03*
X496124997Y-201024998D03*
X496124997Y-202294998D03*
X496124997Y-203564998D03*
X496124997Y-204834998D03*
X496124997Y-206104998D03*
X496124997Y-207374998D03*
X496124997Y-208644998D03*
X486824997Y-208644998D03*
X486824997Y-207374998D03*
X486824997Y-206104998D03*
X486824997Y-204834998D03*
X486824997Y-203564998D03*
X486824997Y-202294998D03*
X486824997Y-201024998D03*
X486824997Y-199754998D03*
X486824997Y-198484998D03*
X486824997Y-197214998D03*
X486824997Y-195944998D03*
X486824997Y-194674998D03*
D19*
X385644998Y-192859999D03*
X386604998Y-192859999D03*
D20*
X480255000Y-224140000D03*
X476655000Y-224140000D03*
D19*
X285644999Y-192860000D03*
X286604999Y-192860000D03*
X185645000Y-192860000D03*
X186605000Y-192860000D03*
D21*
X481455000Y-225810000D03*
X481455000Y-226770000D03*
D22*
X496400000Y-222700000D03*
X495400000Y-222700000D03*
X494400000Y-222700000D03*
X493400000Y-222700000D03*
X492400000Y-222700000D03*
X491400000Y-222700000D03*
X490400000Y-222701500D03*
X489400000Y-222701500D03*
X488400000Y-222701500D03*
X487400000Y-222701500D03*
D23*
X486100000Y-226576500D03*
X497700000Y-226575000D03*
D18*
X296124999Y-194675000D03*
X296124999Y-195945000D03*
X296124999Y-197215000D03*
X296124999Y-198485000D03*
X296124999Y-199755000D03*
X296124999Y-201025000D03*
X296124999Y-202295000D03*
X296124999Y-203565000D03*
X296124999Y-204835000D03*
X296124999Y-206105000D03*
X296124999Y-207375000D03*
X296124999Y-208645000D03*
X286824999Y-208645000D03*
X286824999Y-207375000D03*
X286824999Y-206105000D03*
X286824999Y-204835000D03*
X286824999Y-203565000D03*
X286824999Y-202295000D03*
X286824999Y-201025000D03*
X286824999Y-199755000D03*
X286824999Y-198485000D03*
X286824999Y-197215000D03*
X286824999Y-195945000D03*
X286824999Y-194675000D03*
X196125000Y-194675000D03*
X196125000Y-195945000D03*
X196125000Y-197215000D03*
X196125000Y-198485000D03*
X196125000Y-199755000D03*
X196125000Y-201025000D03*
X196125000Y-202295000D03*
X196125000Y-203565000D03*
X196125000Y-204835000D03*
X196125000Y-206105000D03*
X196125000Y-207375000D03*
X196125000Y-208645000D03*
X186825000Y-208645000D03*
X186825000Y-207375000D03*
X186825000Y-206105000D03*
X186825000Y-204835000D03*
X186825000Y-203565000D03*
X186825000Y-202295000D03*
X186825000Y-201025000D03*
X186825000Y-199755000D03*
X186825000Y-198485000D03*
X186825000Y-197215000D03*
X186825000Y-195945000D03*
X186825000Y-194675000D03*
%LPD*%
M02*
