G04 #@! TF.GenerationSoftware,KiCad,Pcbnew,9.0.6*
G04 #@! TF.CreationDate,2025-12-16T13:32:32+01:00*
G04 #@! TF.ProjectId,USB,5553422e-6b69-4636-9164-5f7063625858,rev?*
G04 #@! TF.SameCoordinates,Original*
G04 #@! TF.FileFunction,Copper,L1,Top*
G04 #@! TF.FilePolarity,Positive*
%FSLAX46Y46*%
G04 Gerber Fmt 4.6, Leading zero omitted, Abs format (unit mm)*
G04 Created by KiCad (PCBNEW 9.0.6) date 2025-12-16 13:32:32*
%MOMM*%
%LPD*%
G01*
G04 APERTURE LIST*
G04 Aperture macros list*
%AMRoundRect*
0 Rectangle with rounded corners*
0 $1 Rounding radius*
0 $2 $3 $4 $5 $6 $7 $8 $9 X,Y pos of 4 corners*
0 Add a 4 corners polygon primitive as box body*
4,1,4,$2,$3,$4,$5,$6,$7,$8,$9,$2,$3,0*
0 Add four circle primitives for the rounded corners*
1,1,$1+$1,$2,$3*
1,1,$1+$1,$4,$5*
1,1,$1+$1,$6,$7*
1,1,$1+$1,$8,$9*
0 Add four rect primitives between the rounded corners*
20,1,$1+$1,$2,$3,$4,$5,0*
20,1,$1+$1,$4,$5,$6,$7,0*
20,1,$1+$1,$6,$7,$8,$9,0*
20,1,$1+$1,$8,$9,$2,$3,0*%
G04 Aperture macros list end*
G04 #@! TA.AperFunction,SMDPad,CuDef*
%ADD10RoundRect,0.075000X-0.075000X-0.425000X0.075000X-0.425000X0.075000X0.425000X-0.075000X0.425000X0*%
G04 #@! TD*
G04 #@! TA.AperFunction,HeatsinkPad*
%ADD11C,1.100000*%
G04 #@! TD*
G04 #@! TA.AperFunction,ComponentPad*
%ADD12C,4.000000*%
G04 #@! TD*
G04 #@! TA.AperFunction,ViaPad*
%ADD13C,0.800000*%
G04 #@! TD*
G04 #@! TA.AperFunction,Conductor*
%ADD14C,0.200000*%
G04 #@! TD*
G04 #@! TA.AperFunction,Conductor*
%ADD15C,0.300000*%
G04 #@! TD*
G04 APERTURE END LIST*
D10*
X254220000Y-117040000D03*
X255010000Y-117040000D03*
X255800000Y-117040000D03*
X256590000Y-117040000D03*
X257380000Y-117040000D03*
X258170000Y-117040000D03*
X258960000Y-117040000D03*
X259750000Y-117040000D03*
X259750000Y-118560000D03*
X258960000Y-118560000D03*
X258170000Y-118560000D03*
X257380000Y-118560000D03*
X256590000Y-118560000D03*
X255800000Y-118560000D03*
X255010000Y-118560000D03*
X254220000Y-118560000D03*
D11*
X254600000Y-115650000D03*
X254600000Y-119950000D03*
X259400000Y-115650000D03*
X259400000Y-119950000D03*
D12*
X235000000Y-117800000D03*
X279000000Y-117800000D03*
D13*
X256900000Y-113975000D03*
X257800000Y-113975000D03*
X252625000Y-121550000D03*
X263500000Y-115475000D03*
X262900000Y-121750000D03*
X253650000Y-113175000D03*
X249450000Y-119550000D03*
X265150000Y-120450000D03*
X269225000Y-117950000D03*
X266550000Y-117300000D03*
X258350000Y-121675000D03*
X257175000Y-121525000D03*
X251775000Y-113425000D03*
D14*
X256590000Y-116557836D02*
X256590000Y-117295001D01*
X257380000Y-118085001D02*
X257380000Y-118585000D01*
X256900000Y-113975000D02*
X256450000Y-113975000D01*
X256450000Y-113975000D02*
X256099000Y-114326000D01*
X256099000Y-114326000D02*
X256099000Y-116066836D01*
X256590000Y-117295001D02*
X257380000Y-118085001D01*
X256099000Y-116066836D02*
X256590000Y-116557836D01*
X257900000Y-114075000D02*
X257900000Y-116125000D01*
X257455000Y-117265000D02*
X257806000Y-117616000D01*
X257806000Y-119069000D02*
X257550000Y-119325000D01*
X257800000Y-113975000D02*
X257900000Y-114075000D01*
X256590000Y-119209999D02*
X256590000Y-118560000D01*
X257900000Y-116125000D02*
X257380000Y-116645000D01*
X256705001Y-119325000D02*
X256590000Y-119209999D01*
X257806000Y-117616000D02*
X257806000Y-119069000D01*
X257550000Y-119325000D02*
X256705001Y-119325000D01*
X257380000Y-116645000D02*
X257380000Y-117065000D01*
D15*
X255010000Y-118585000D02*
X255010000Y-119035000D01*
X255010000Y-119035000D02*
X256049000Y-120074000D01*
X258350000Y-120555646D02*
X258350000Y-121675000D01*
X258350000Y-122000000D02*
X258075000Y-122275000D01*
X258960000Y-119115793D02*
X258352000Y-119723793D01*
X258352000Y-119723793D02*
X258352000Y-120553646D01*
X256049000Y-121949000D02*
X256375000Y-122275000D01*
X258960000Y-118560000D02*
X258960000Y-119115793D01*
X256049000Y-120074000D02*
X256049000Y-121949000D01*
X258350000Y-121675000D02*
X258350000Y-122000000D01*
X256375000Y-122275000D02*
X258075000Y-122275000D01*
X255010000Y-118560000D02*
X255010000Y-117040000D01*
X258352000Y-120553646D02*
X258350000Y-120555646D01*
X258960000Y-117065000D02*
X258960000Y-118585000D01*
D14*
X257901000Y-119536983D02*
X258170000Y-119267983D01*
X257175000Y-121525000D02*
X257175000Y-121092836D01*
X257901000Y-120366836D02*
X257901000Y-119536983D01*
X258170000Y-119267983D02*
X258170000Y-118560000D01*
X257175000Y-121092836D02*
X257901000Y-120366836D01*
X255775000Y-115275000D02*
X255775000Y-116975000D01*
X254550000Y-114050000D02*
X255775000Y-115275000D01*
X252850000Y-113425000D02*
X253475000Y-114050000D01*
X251775000Y-113425000D02*
X252850000Y-113425000D01*
X255775000Y-116975000D02*
X255865000Y-117065000D01*
X253475000Y-114050000D02*
X254550000Y-114050000D01*
G04 #@! TA.AperFunction,Conductor*
G36*
X282742539Y-111720185D02*
G01*
X282788294Y-111772989D01*
X282799500Y-111824500D01*
X282799500Y-123775500D01*
X282779815Y-123842539D01*
X282727011Y-123888294D01*
X282675500Y-123899500D01*
X231324500Y-123899500D01*
X231257461Y-123879815D01*
X231211706Y-123827011D01*
X231200500Y-123775500D01*
X231200500Y-117730158D01*
X252719500Y-117730158D01*
X252719500Y-117869842D01*
X252755652Y-118004765D01*
X252825494Y-118125735D01*
X252924265Y-118224506D01*
X253045235Y-118294348D01*
X253180158Y-118330500D01*
X253180160Y-118330500D01*
X253319839Y-118330500D01*
X253319842Y-118330500D01*
X253413909Y-118305295D01*
X253483756Y-118306958D01*
X253541619Y-118346120D01*
X253568204Y-118408204D01*
X253570000Y-118410000D01*
X254070000Y-118410000D01*
X254070000Y-117190000D01*
X253570000Y-117190000D01*
X253563735Y-117196264D01*
X253550315Y-117241968D01*
X253497511Y-117287723D01*
X253428353Y-117297667D01*
X253413908Y-117294704D01*
X253319843Y-117269500D01*
X253319842Y-117269500D01*
X253180158Y-117269500D01*
X253045235Y-117305652D01*
X253045232Y-117305653D01*
X252924263Y-117375495D01*
X252825495Y-117474263D01*
X252755653Y-117595232D01*
X252755652Y-117595235D01*
X252719500Y-117730158D01*
X231200500Y-117730158D01*
X231200500Y-113336304D01*
X250874500Y-113336304D01*
X250874500Y-113513695D01*
X250909103Y-113687658D01*
X250909106Y-113687667D01*
X250976983Y-113851540D01*
X250976990Y-113851553D01*
X251075535Y-113999034D01*
X251075538Y-113999038D01*
X251200961Y-114124461D01*
X251200965Y-114124464D01*
X251348446Y-114223009D01*
X251348459Y-114223016D01*
X251471363Y-114273923D01*
X251512334Y-114290894D01*
X251512336Y-114290894D01*
X251512341Y-114290896D01*
X251686304Y-114325499D01*
X251686307Y-114325500D01*
X251686309Y-114325500D01*
X251863693Y-114325500D01*
X251863694Y-114325499D01*
X251921682Y-114313964D01*
X252037658Y-114290896D01*
X252037661Y-114290894D01*
X252037666Y-114290894D01*
X252201547Y-114223013D01*
X252349035Y-114124464D01*
X252411681Y-114061817D01*
X252438612Y-114047111D01*
X252464426Y-114030523D01*
X252470625Y-114029631D01*
X252473002Y-114028334D01*
X252499361Y-114025500D01*
X252549903Y-114025500D01*
X252616942Y-114045185D01*
X252637584Y-114061819D01*
X252990139Y-114414374D01*
X252990149Y-114414385D01*
X252994479Y-114418715D01*
X252994480Y-114418716D01*
X253106284Y-114530520D01*
X253106286Y-114530521D01*
X253106290Y-114530524D01*
X253200818Y-114585099D01*
X253243216Y-114609577D01*
X253336514Y-114634576D01*
X253395942Y-114650500D01*
X253395943Y-114650500D01*
X253814505Y-114650500D01*
X253881544Y-114670185D01*
X253927299Y-114722989D01*
X253937243Y-114792147D01*
X253908218Y-114855703D01*
X253902186Y-114862181D01*
X253784025Y-114980341D01*
X253784024Y-114980342D01*
X253669058Y-115152403D01*
X253589870Y-115343579D01*
X253589868Y-115343587D01*
X253549500Y-115546530D01*
X253549500Y-115753469D01*
X253589868Y-115956412D01*
X253589870Y-115956420D01*
X253669058Y-116147597D01*
X253670809Y-116150217D01*
X253671304Y-116151800D01*
X253671929Y-116152968D01*
X253671707Y-116153086D01*
X253691687Y-116216894D01*
X253673203Y-116284274D01*
X253666084Y-116294593D01*
X253642737Y-116325019D01*
X253584801Y-116464891D01*
X253584800Y-116464895D01*
X253570000Y-116577302D01*
X253570000Y-116890000D01*
X254096000Y-116890000D01*
X254104685Y-116892550D01*
X254113647Y-116891262D01*
X254137687Y-116902240D01*
X254163039Y-116909685D01*
X254168966Y-116916525D01*
X254177203Y-116920287D01*
X254191492Y-116942521D01*
X254208794Y-116962489D01*
X254211081Y-116973003D01*
X254214977Y-116979065D01*
X254220000Y-117014000D01*
X254220000Y-117040000D01*
X254235500Y-117040000D01*
X254302539Y-117059685D01*
X254348294Y-117112489D01*
X254359500Y-117164000D01*
X254359500Y-118436000D01*
X254356949Y-118444685D01*
X254358238Y-118453647D01*
X254347259Y-118477687D01*
X254339815Y-118503039D01*
X254332974Y-118508966D01*
X254329213Y-118517203D01*
X254306978Y-118531492D01*
X254287011Y-118548794D01*
X254276496Y-118551081D01*
X254270435Y-118554977D01*
X254235500Y-118560000D01*
X254220000Y-118560000D01*
X254220000Y-118586000D01*
X254200315Y-118653039D01*
X254147511Y-118698794D01*
X254096000Y-118710000D01*
X253570000Y-118710000D01*
X253570000Y-119022697D01*
X253584800Y-119135104D01*
X253584801Y-119135108D01*
X253642736Y-119274978D01*
X253666083Y-119305404D01*
X253691277Y-119370574D01*
X253677239Y-119439018D01*
X253670817Y-119449770D01*
X253669059Y-119452400D01*
X253669058Y-119452403D01*
X253589870Y-119643579D01*
X253589868Y-119643587D01*
X253549500Y-119846530D01*
X253549500Y-120053469D01*
X253589868Y-120256412D01*
X253589870Y-120256420D01*
X253669058Y-120447596D01*
X253784024Y-120619657D01*
X253930342Y-120765975D01*
X253930345Y-120765977D01*
X254102402Y-120880941D01*
X254293580Y-120960130D01*
X254427786Y-120986825D01*
X254496530Y-121000499D01*
X254496534Y-121000500D01*
X254496535Y-121000500D01*
X254703466Y-121000500D01*
X254703467Y-121000499D01*
X254906420Y-120960130D01*
X255097598Y-120880941D01*
X255097599Y-120880940D01*
X255097600Y-120880940D01*
X255205610Y-120808771D01*
X255272287Y-120787893D01*
X255339667Y-120806378D01*
X255386357Y-120858357D01*
X255398500Y-120911873D01*
X255398500Y-122013071D01*
X255413737Y-122089669D01*
X255413737Y-122089670D01*
X255423496Y-122138737D01*
X255423498Y-122138742D01*
X255472534Y-122257125D01*
X255543726Y-122363673D01*
X255960325Y-122780272D01*
X255960331Y-122780277D01*
X256066874Y-122851466D01*
X256136221Y-122880189D01*
X256185256Y-122900501D01*
X256185259Y-122900501D01*
X256185260Y-122900502D01*
X256310928Y-122925500D01*
X256310931Y-122925500D01*
X258139071Y-122925500D01*
X258223615Y-122908682D01*
X258264744Y-122900501D01*
X258383127Y-122851465D01*
X258489669Y-122780277D01*
X258829358Y-122440586D01*
X258848133Y-122425179D01*
X258924035Y-122374464D01*
X259049464Y-122249035D01*
X259148013Y-122101547D01*
X259215894Y-121937666D01*
X259250500Y-121763691D01*
X259250500Y-121586309D01*
X259250500Y-121586306D01*
X259250499Y-121586304D01*
X259215896Y-121412341D01*
X259215893Y-121412332D01*
X259148016Y-121248459D01*
X259148014Y-121248455D01*
X259148013Y-121248453D01*
X259100492Y-121177333D01*
X259079614Y-121110656D01*
X259098098Y-121043276D01*
X259150077Y-120996585D01*
X259219047Y-120985409D01*
X259227784Y-120986824D01*
X259296533Y-121000499D01*
X259296534Y-121000500D01*
X259296535Y-121000500D01*
X259503466Y-121000500D01*
X259503467Y-121000499D01*
X259706420Y-120960130D01*
X259897598Y-120880941D01*
X260069655Y-120765977D01*
X260215977Y-120619655D01*
X260330941Y-120447598D01*
X260410130Y-120256420D01*
X260450500Y-120053465D01*
X260450500Y-119846535D01*
X260410130Y-119643580D01*
X260330941Y-119452402D01*
X260315226Y-119428883D01*
X260294348Y-119362208D01*
X260312831Y-119294827D01*
X260319956Y-119284501D01*
X260327262Y-119274979D01*
X260327263Y-119274979D01*
X260385198Y-119135108D01*
X260385199Y-119135104D01*
X260399999Y-119022697D01*
X260400000Y-119022683D01*
X260400000Y-118710000D01*
X259874000Y-118710000D01*
X259865314Y-118707449D01*
X259856353Y-118708738D01*
X259832312Y-118697759D01*
X259806961Y-118690315D01*
X259801033Y-118683474D01*
X259792797Y-118679713D01*
X259778507Y-118657478D01*
X259761206Y-118637511D01*
X259758918Y-118626996D01*
X259755023Y-118620935D01*
X259750000Y-118586000D01*
X259750000Y-118560000D01*
X259734500Y-118560000D01*
X259667461Y-118540315D01*
X259621706Y-118487511D01*
X259610500Y-118436000D01*
X259610500Y-118410000D01*
X259900000Y-118410000D01*
X260400000Y-118410000D01*
X260401870Y-118408129D01*
X260419685Y-118347461D01*
X260472489Y-118301706D01*
X260524000Y-118290500D01*
X261024574Y-118290500D01*
X261024576Y-118290500D01*
X261149326Y-118257074D01*
X261261174Y-118192498D01*
X261352498Y-118101174D01*
X261417074Y-117989326D01*
X261450500Y-117864576D01*
X261450500Y-117735424D01*
X261417074Y-117610674D01*
X261352498Y-117498826D01*
X261261174Y-117407502D01*
X261205250Y-117375214D01*
X261149327Y-117342926D01*
X261086951Y-117326213D01*
X261024576Y-117309500D01*
X260524000Y-117309500D01*
X260456961Y-117289815D01*
X260411206Y-117237011D01*
X260401251Y-117191251D01*
X260400000Y-117190000D01*
X259900000Y-117190000D01*
X259900000Y-118410000D01*
X259610500Y-118410000D01*
X259610500Y-117164000D01*
X259630185Y-117096961D01*
X259682989Y-117051206D01*
X259734500Y-117040000D01*
X259750000Y-117040000D01*
X259750000Y-117014000D01*
X259769685Y-116946961D01*
X259822489Y-116901206D01*
X259874000Y-116890000D01*
X260400000Y-116890000D01*
X260400000Y-116577316D01*
X260399999Y-116577302D01*
X260385199Y-116464895D01*
X260385198Y-116464891D01*
X260327262Y-116325018D01*
X260319952Y-116315492D01*
X260294758Y-116250323D01*
X260308796Y-116181878D01*
X260315220Y-116171125D01*
X260330941Y-116147598D01*
X260410130Y-115956420D01*
X260450500Y-115753465D01*
X260450500Y-115546535D01*
X260410130Y-115343580D01*
X260330941Y-115152402D01*
X260215977Y-114980345D01*
X260215975Y-114980342D01*
X260069657Y-114834024D01*
X259965613Y-114764505D01*
X259897598Y-114719059D01*
X259779606Y-114670185D01*
X259706420Y-114639870D01*
X259706412Y-114639868D01*
X259503469Y-114599500D01*
X259503465Y-114599500D01*
X259296535Y-114599500D01*
X259296530Y-114599500D01*
X259093587Y-114639868D01*
X259093579Y-114639870D01*
X258902403Y-114719058D01*
X258730342Y-114834024D01*
X258730341Y-114834025D01*
X258712181Y-114852186D01*
X258692744Y-114862798D01*
X258676011Y-114877299D01*
X258662679Y-114879215D01*
X258650858Y-114885671D01*
X258628771Y-114884091D01*
X258606853Y-114887243D01*
X258594601Y-114881647D01*
X258581166Y-114880687D01*
X258563439Y-114867416D01*
X258543297Y-114858218D01*
X258536014Y-114846886D01*
X258525233Y-114838815D01*
X258517495Y-114818069D01*
X258505523Y-114799440D01*
X258502371Y-114777521D01*
X258500816Y-114773351D01*
X258500500Y-114764505D01*
X258500500Y-114585099D01*
X258520185Y-114518060D01*
X258521398Y-114516208D01*
X258598013Y-114401547D01*
X258665894Y-114237666D01*
X258668810Y-114223009D01*
X258700499Y-114063695D01*
X258700500Y-114063693D01*
X258700500Y-113886306D01*
X258700499Y-113886304D01*
X258665896Y-113712341D01*
X258665893Y-113712332D01*
X258598016Y-113548459D01*
X258598009Y-113548446D01*
X258499464Y-113400965D01*
X258499461Y-113400961D01*
X258374038Y-113275538D01*
X258374034Y-113275535D01*
X258226553Y-113176990D01*
X258226540Y-113176983D01*
X258062667Y-113109106D01*
X258062658Y-113109103D01*
X257888694Y-113074500D01*
X257888691Y-113074500D01*
X257711309Y-113074500D01*
X257711306Y-113074500D01*
X257537341Y-113109103D01*
X257537332Y-113109106D01*
X257397452Y-113167046D01*
X257327983Y-113174515D01*
X257302548Y-113167046D01*
X257162667Y-113109106D01*
X257162658Y-113109103D01*
X256988694Y-113074500D01*
X256988691Y-113074500D01*
X256811309Y-113074500D01*
X256811306Y-113074500D01*
X256637341Y-113109103D01*
X256637332Y-113109106D01*
X256473459Y-113176983D01*
X256473446Y-113176990D01*
X256325966Y-113275534D01*
X256200535Y-113400966D01*
X256200534Y-113400967D01*
X256189764Y-113417085D01*
X256148667Y-113455575D01*
X256081287Y-113494478D01*
X256081281Y-113494482D01*
X255618481Y-113957282D01*
X255618477Y-113957287D01*
X255585094Y-114015109D01*
X255534527Y-114063325D01*
X255465920Y-114076547D01*
X255401055Y-114050579D01*
X255390026Y-114040790D01*
X255037590Y-113688355D01*
X255037588Y-113688352D01*
X254918717Y-113569481D01*
X254918709Y-113569475D01*
X254822087Y-113513691D01*
X254822085Y-113513690D01*
X254781790Y-113490425D01*
X254781789Y-113490424D01*
X254769263Y-113487067D01*
X254629057Y-113449499D01*
X254470943Y-113449499D01*
X254463347Y-113449499D01*
X254463331Y-113449500D01*
X253775097Y-113449500D01*
X253708058Y-113429815D01*
X253687416Y-113413181D01*
X253337590Y-113063355D01*
X253337588Y-113063352D01*
X253218717Y-112944481D01*
X253218716Y-112944480D01*
X253108568Y-112880886D01*
X253108566Y-112880885D01*
X253081785Y-112865423D01*
X253081784Y-112865422D01*
X253081783Y-112865422D01*
X253025881Y-112850443D01*
X252929057Y-112824499D01*
X252770943Y-112824499D01*
X252763347Y-112824499D01*
X252763331Y-112824500D01*
X252499361Y-112824500D01*
X252432322Y-112804815D01*
X252411684Y-112788185D01*
X252349035Y-112725536D01*
X252349034Y-112725535D01*
X252349033Y-112725534D01*
X252201553Y-112626990D01*
X252201540Y-112626983D01*
X252037667Y-112559106D01*
X252037658Y-112559103D01*
X251863694Y-112524500D01*
X251863691Y-112524500D01*
X251686309Y-112524500D01*
X251686306Y-112524500D01*
X251512341Y-112559103D01*
X251512332Y-112559106D01*
X251348459Y-112626983D01*
X251348446Y-112626990D01*
X251200965Y-112725535D01*
X251200961Y-112725538D01*
X251075538Y-112850961D01*
X251075535Y-112850965D01*
X250976990Y-112998446D01*
X250976983Y-112998459D01*
X250909106Y-113162332D01*
X250909103Y-113162341D01*
X250874500Y-113336304D01*
X231200500Y-113336304D01*
X231200500Y-111824500D01*
X231220185Y-111757461D01*
X231272989Y-111711706D01*
X231324500Y-111700500D01*
X282675500Y-111700500D01*
X282742539Y-111720185D01*
G37*
G04 #@! TD.AperFunction*
M02*
