G04 #@! TF.GenerationSoftware,KiCad,Pcbnew,6.0.9*
G04 #@! TF.CreationDate,2022-12-27T21:22:08+01:00*
G04 #@! TF.ProjectId,OpenDeck-r2.2.1,4f70656e-4465-4636-9b2d-72322e322e30,rev?*
G04 #@! TF.SameCoordinates,Original*
G04 #@! TF.FileFunction,Legend,Bot*
G04 #@! TF.FilePolarity,Positive*
%FSLAX46Y46*%
G04 Gerber Fmt 4.6, Leading zero omitted, Abs format (unit mm)*
G04 Created by KiCad (PCBNEW 6.0.9) date 2022-12-27 21:22:08*
%MOMM*%
%LPD*%
G01*
G04 APERTURE LIST*
%ADD10C,0.000000*%
%ADD11C,0.190500*%
%ADD12C,0.228600*%
%ADD13R,1.700000X1.700000*%
%ADD14O,1.700000X1.700000*%
%ADD15C,0.600000*%
%ADD16O,0.950000X2.050000*%
%ADD17O,0.950000X1.750000*%
%ADD18C,5.600000*%
%ADD19C,2.300000*%
G04 APERTURE END LIST*
D10*
G36*
X110245803Y-63188017D02*
G01*
X110535943Y-63188017D01*
X110535943Y-63477510D01*
X110245803Y-63477510D01*
X110245803Y-64346100D01*
X109955666Y-64635592D01*
X108795182Y-64635592D01*
X108795182Y-64346100D01*
X109955666Y-64346100D01*
X109955666Y-63477510D01*
X109085322Y-63477510D01*
X109085322Y-63188017D01*
X109955666Y-63188017D01*
X109955666Y-62898525D01*
X110245803Y-62898525D01*
X110245803Y-63188017D01*
G37*
G36*
X112856910Y-64635592D02*
G01*
X112566770Y-64635592D01*
X112566770Y-63477510D01*
X111116186Y-63477510D01*
X111116186Y-64635592D01*
X110826046Y-64635592D01*
X110826046Y-63477510D01*
X111116186Y-63188017D01*
X112856910Y-63188017D01*
X112856910Y-64635592D01*
G37*
G36*
X120389494Y-60486073D02*
G01*
X120290377Y-60497497D01*
X120192611Y-60513183D01*
X120096291Y-60533032D01*
X120001512Y-60556946D01*
X119908368Y-60584830D01*
X119816954Y-60616584D01*
X119727367Y-60652112D01*
X119639699Y-60691315D01*
X119554048Y-60734098D01*
X119470507Y-60780361D01*
X119389171Y-60830007D01*
X119310136Y-60882939D01*
X119233496Y-60939060D01*
X119159346Y-60998272D01*
X119087782Y-61060477D01*
X119018899Y-61125578D01*
X118989975Y-61112691D01*
X118960980Y-61100183D01*
X118931910Y-61088057D01*
X118902763Y-61076315D01*
X118873538Y-61064957D01*
X118844231Y-61053986D01*
X118814841Y-61043404D01*
X118785366Y-61033212D01*
X118863811Y-60953063D01*
X118945768Y-60876482D01*
X119031108Y-60803601D01*
X119119701Y-60734554D01*
X119211419Y-60669473D01*
X119306131Y-60608490D01*
X119403709Y-60551738D01*
X119504022Y-60499350D01*
X119606942Y-60451458D01*
X119712339Y-60408196D01*
X119820084Y-60369695D01*
X119930047Y-60336088D01*
X120042099Y-60307507D01*
X120156110Y-60284087D01*
X120271951Y-60265958D01*
X120389494Y-60253254D01*
X120389494Y-60486073D01*
G37*
G36*
X120712970Y-65849155D02*
G01*
X120495862Y-65698286D01*
X120414853Y-64969663D01*
X120623363Y-64969663D01*
X120629167Y-65083963D01*
X120636121Y-65201287D01*
X120643303Y-65201025D01*
X120638307Y-65141731D01*
X120633748Y-65083515D01*
X120629618Y-65026194D01*
X120625906Y-64969588D01*
X120623363Y-64969663D01*
X120414853Y-64969663D01*
X120413447Y-64957017D01*
X120358355Y-64531064D01*
X120290609Y-64092271D01*
X120207659Y-63658669D01*
X120159686Y-63449449D01*
X120106957Y-63248288D01*
X120049153Y-63057440D01*
X119985955Y-62879158D01*
X119917045Y-62715696D01*
X119842104Y-62569308D01*
X119817611Y-62528779D01*
X119789490Y-62486827D01*
X119722913Y-62399322D01*
X119643473Y-62308130D01*
X119552267Y-62214589D01*
X119450393Y-62120038D01*
X119338948Y-62025814D01*
X119219031Y-61933256D01*
X119091739Y-61843700D01*
X118958170Y-61758486D01*
X118819421Y-61678950D01*
X118676591Y-61606431D01*
X118603989Y-61573221D01*
X118530778Y-61542267D01*
X118457095Y-61513737D01*
X118383079Y-61487796D01*
X118308865Y-61464613D01*
X118234591Y-61444356D01*
X118160395Y-61427190D01*
X118086413Y-61413284D01*
X118012784Y-61402804D01*
X117939643Y-61395918D01*
X118714811Y-61746047D01*
X118834041Y-61812367D01*
X118947077Y-61884091D01*
X119050575Y-61961335D01*
X119097701Y-62002063D01*
X119141187Y-62044216D01*
X119180615Y-62087807D01*
X119215566Y-62132851D01*
X119245623Y-62179363D01*
X119270366Y-62227358D01*
X119289379Y-62276850D01*
X119302241Y-62327853D01*
X119308536Y-62380384D01*
X119307844Y-62434455D01*
X119280601Y-62448847D01*
X119253028Y-62462160D01*
X119225143Y-62474415D01*
X119196965Y-62485632D01*
X119168513Y-62495832D01*
X119139807Y-62505036D01*
X119110864Y-62513265D01*
X119081705Y-62520540D01*
X119052348Y-62526880D01*
X119022813Y-62532308D01*
X118993117Y-62536844D01*
X118963281Y-62540509D01*
X118933324Y-62543323D01*
X118903264Y-62545307D01*
X118873120Y-62546483D01*
X118842911Y-62546870D01*
X118812098Y-62546472D01*
X118781263Y-62545292D01*
X118750426Y-62543355D01*
X118719608Y-62540683D01*
X118688826Y-62537299D01*
X118658102Y-62533226D01*
X118596904Y-62523106D01*
X118536171Y-62510509D01*
X118476060Y-62495618D01*
X118416728Y-62478618D01*
X118358334Y-62459694D01*
X118331014Y-62450110D01*
X118303958Y-62440172D01*
X118277190Y-62429878D01*
X118250735Y-62419223D01*
X118249618Y-62418768D01*
X118248508Y-62418303D01*
X118246281Y-62417356D01*
X118219895Y-62406171D01*
X118193847Y-62394689D01*
X118168163Y-62382920D01*
X118142872Y-62370875D01*
X118094796Y-62346684D01*
X118048365Y-62321696D01*
X118003714Y-62296051D01*
X117960979Y-62269889D01*
X117920295Y-62243351D01*
X117881800Y-62216577D01*
X117845628Y-62189708D01*
X117811916Y-62162883D01*
X117770946Y-62128384D01*
X117734704Y-62096341D01*
X117702609Y-62066269D01*
X117674075Y-62037683D01*
X117648522Y-62010096D01*
X117625365Y-61983024D01*
X117604021Y-61955980D01*
X117583909Y-61928478D01*
X117564445Y-61900033D01*
X117545046Y-61870159D01*
X117504111Y-61804180D01*
X117456443Y-61726657D01*
X117428626Y-61682351D01*
X117397376Y-61633702D01*
X117380554Y-61608495D01*
X117364050Y-61585024D01*
X117347838Y-61563193D01*
X117331889Y-61542904D01*
X117316178Y-61524061D01*
X117300676Y-61506567D01*
X117285358Y-61490327D01*
X117270195Y-61475242D01*
X117255162Y-61461217D01*
X117240230Y-61448154D01*
X117210564Y-61424531D01*
X117180981Y-61403598D01*
X117151264Y-61384582D01*
X117026734Y-61312229D01*
X116993104Y-61291200D01*
X116958042Y-61267449D01*
X116921333Y-61240202D01*
X116882758Y-61208685D01*
X117015747Y-61178700D01*
X118668849Y-61178700D01*
X118689802Y-61185209D01*
X118719127Y-61194750D01*
X118748310Y-61204678D01*
X118777356Y-61214990D01*
X118806269Y-61225685D01*
X118835052Y-61236762D01*
X118863712Y-61248220D01*
X118892252Y-61260057D01*
X118863715Y-61248220D01*
X118835056Y-61236763D01*
X118806272Y-61225685D01*
X118777360Y-61214990D01*
X118748314Y-61204678D01*
X118719131Y-61194751D01*
X118689805Y-61185209D01*
X118668849Y-61178700D01*
X117015747Y-61178700D01*
X117025957Y-61176398D01*
X117027664Y-61176054D01*
X118660330Y-61176054D01*
X118660332Y-61176055D01*
X118660388Y-61175997D01*
X118660444Y-61175936D01*
X118660500Y-61175873D01*
X118660556Y-61175807D01*
X118660668Y-61175671D01*
X118660781Y-61175532D01*
X118660779Y-61175532D01*
X118660666Y-61175671D01*
X118660610Y-61175740D01*
X118660554Y-61175807D01*
X118660498Y-61175872D01*
X118660442Y-61175936D01*
X118660386Y-61175997D01*
X118660330Y-61176054D01*
X117027664Y-61176054D01*
X117164917Y-61148394D01*
X117299820Y-61124680D01*
X117430846Y-61105264D01*
X117558178Y-61090150D01*
X117681995Y-61079347D01*
X117802480Y-61072860D01*
X117919813Y-61070696D01*
X118019025Y-61072342D01*
X118116113Y-61077275D01*
X118211196Y-61085488D01*
X118304397Y-61096975D01*
X118395835Y-61111730D01*
X118485632Y-61129745D01*
X118573907Y-61151015D01*
X118660781Y-61175532D01*
X118690237Y-61184689D01*
X118719549Y-61194240D01*
X118748720Y-61204182D01*
X118777755Y-61214514D01*
X118806659Y-61225231D01*
X118835436Y-61236334D01*
X118864091Y-61247819D01*
X118892629Y-61259684D01*
X118892628Y-61259685D01*
X118892627Y-61259684D01*
X118892252Y-61260057D01*
X118892254Y-61260058D01*
X118892253Y-61260057D01*
X118892252Y-61260057D01*
X118892254Y-61260057D01*
X118892628Y-61259685D01*
X118893483Y-61260058D01*
X118943386Y-61281843D01*
X118993811Y-61305228D01*
X119043927Y-61329842D01*
X119093761Y-61355689D01*
X119143339Y-61382770D01*
X119192688Y-61411090D01*
X119241833Y-61440651D01*
X119290802Y-61471455D01*
X119339620Y-61503507D01*
X119388314Y-61536808D01*
X119436911Y-61571362D01*
X119485437Y-61607172D01*
X119582379Y-61682572D01*
X119679353Y-61763029D01*
X119692134Y-61573983D01*
X119695741Y-61533180D01*
X119700369Y-61494530D01*
X119706446Y-61457819D01*
X119714400Y-61422832D01*
X119724659Y-61389352D01*
X119737652Y-61357165D01*
X119745307Y-61341489D01*
X119753806Y-61326056D01*
X119763203Y-61310839D01*
X119773550Y-61295810D01*
X119784902Y-61280944D01*
X119797312Y-61266212D01*
X119810833Y-61251589D01*
X119825520Y-61237047D01*
X119841425Y-61222559D01*
X119858602Y-61208099D01*
X119896986Y-61179153D01*
X120026846Y-61604394D01*
X120084234Y-61532462D01*
X120146533Y-61458193D01*
X120179560Y-61420885D01*
X120213856Y-61383836D01*
X120249437Y-61347325D01*
X120286317Y-61311635D01*
X120324509Y-61277045D01*
X120364028Y-61243838D01*
X120404888Y-61212292D01*
X120447104Y-61182689D01*
X120490688Y-61155311D01*
X120535656Y-61130437D01*
X120582022Y-61108348D01*
X120605733Y-61098436D01*
X120629799Y-61089326D01*
X120626962Y-61190033D01*
X120620531Y-61283715D01*
X120610793Y-61370758D01*
X120598035Y-61451548D01*
X120582545Y-61526471D01*
X120564609Y-61595915D01*
X120544515Y-61660266D01*
X120522550Y-61719910D01*
X120499001Y-61775234D01*
X120474157Y-61826624D01*
X120421727Y-61919149D01*
X120367560Y-62000576D01*
X120313952Y-62073999D01*
X120263203Y-62142508D01*
X120217610Y-62209195D01*
X120179471Y-62277154D01*
X120163915Y-62312576D01*
X120151085Y-62349474D01*
X120141267Y-62388237D01*
X120134750Y-62429250D01*
X120131819Y-62472899D01*
X120132763Y-62519571D01*
X120137868Y-62569653D01*
X120147423Y-62623531D01*
X120161714Y-62681591D01*
X120181028Y-62744220D01*
X120204622Y-62819222D01*
X120225342Y-62894428D01*
X120243940Y-62970056D01*
X120261168Y-63046323D01*
X120294525Y-63201648D01*
X120312158Y-63281141D01*
X120331431Y-63362146D01*
X120408282Y-63150308D01*
X120489069Y-62950042D01*
X120574196Y-62761072D01*
X120664068Y-62583126D01*
X120759089Y-62415928D01*
X120859665Y-62259204D01*
X120966198Y-62112681D01*
X121079095Y-61976084D01*
X121198760Y-61849139D01*
X121325597Y-61731572D01*
X121460011Y-61623108D01*
X121602406Y-61523475D01*
X121753187Y-61432396D01*
X121912759Y-61349599D01*
X122081525Y-61274809D01*
X122259892Y-61207751D01*
X122288160Y-61198136D01*
X122316671Y-61188706D01*
X122345413Y-61179437D01*
X122374376Y-61170305D01*
X122386461Y-61166609D01*
X122415043Y-61157933D01*
X122443839Y-61149397D01*
X122472867Y-61141030D01*
X122502143Y-61132858D01*
X122692452Y-61084992D01*
X122892469Y-61043228D01*
X123102550Y-61007344D01*
X123323054Y-60977121D01*
X123554335Y-60952340D01*
X123796753Y-60932779D01*
X124050662Y-60918219D01*
X124316421Y-60908440D01*
X124315603Y-60909839D01*
X124314747Y-60911179D01*
X124313859Y-60912464D01*
X124312940Y-60913701D01*
X124311021Y-60916054D01*
X124309015Y-60918284D01*
X124300581Y-60926906D01*
X124298486Y-60929222D01*
X124296443Y-60931695D01*
X124295448Y-60933005D01*
X124294474Y-60934372D01*
X124293525Y-60935802D01*
X124292604Y-60937300D01*
X124291713Y-60938873D01*
X124290855Y-60940526D01*
X124290033Y-60942265D01*
X124289250Y-60944096D01*
X124288509Y-60946025D01*
X124287812Y-60948058D01*
X124287164Y-60950200D01*
X124286566Y-60952457D01*
X124032342Y-61244713D01*
X123997560Y-61290322D01*
X123965612Y-61334823D01*
X123909574Y-61420758D01*
X123862939Y-61503025D01*
X123824419Y-61582134D01*
X123792725Y-61658594D01*
X123766568Y-61732913D01*
X123744659Y-61805601D01*
X123725709Y-61877166D01*
X123691529Y-62018963D01*
X123673722Y-62090213D01*
X123653718Y-62162376D01*
X123630229Y-62235961D01*
X123601964Y-62311476D01*
X123567636Y-62389431D01*
X123525955Y-62470334D01*
X123506019Y-62505032D01*
X123484762Y-62539665D01*
X123462216Y-62574206D01*
X123438417Y-62608625D01*
X123413400Y-62642896D01*
X123387198Y-62676989D01*
X123359846Y-62710878D01*
X123331378Y-62744533D01*
X123301829Y-62777927D01*
X123271234Y-62811032D01*
X123239626Y-62843820D01*
X123207040Y-62876262D01*
X123173511Y-62908331D01*
X123139072Y-62939998D01*
X123103759Y-62971236D01*
X123067606Y-63002016D01*
X123036069Y-63027922D01*
X123003963Y-63053436D01*
X122971305Y-63078547D01*
X122938114Y-63103239D01*
X122904409Y-63127502D01*
X122870209Y-63151321D01*
X122835534Y-63174683D01*
X122800401Y-63197575D01*
X122720116Y-63247092D01*
X122637921Y-63293915D01*
X122554035Y-63337830D01*
X122468681Y-63378624D01*
X122425523Y-63397785D01*
X122382081Y-63416085D01*
X122338382Y-63433498D01*
X122294454Y-63449998D01*
X122250326Y-63465558D01*
X122206024Y-63480152D01*
X122161577Y-63493752D01*
X122117011Y-63506332D01*
X122050463Y-63523533D01*
X121987501Y-63538218D01*
X121928047Y-63550457D01*
X121872021Y-63560318D01*
X121819344Y-63567869D01*
X121769939Y-63573177D01*
X121723725Y-63576313D01*
X121680624Y-63577343D01*
X121622243Y-63575132D01*
X121570313Y-63568649D01*
X121524583Y-63558115D01*
X121484801Y-63543752D01*
X121450716Y-63525780D01*
X121422078Y-63504422D01*
X121398634Y-63479900D01*
X121380134Y-63452434D01*
X121366326Y-63422248D01*
X121356960Y-63389561D01*
X121351783Y-63354596D01*
X121350546Y-63317575D01*
X121352996Y-63278719D01*
X121358883Y-63238249D01*
X121367955Y-63196388D01*
X121379962Y-63153357D01*
X121394651Y-63109377D01*
X121411773Y-63064671D01*
X121431074Y-63019459D01*
X121452306Y-62973964D01*
X121499552Y-62883009D01*
X121551502Y-62793580D01*
X121606147Y-62707449D01*
X121661476Y-62626389D01*
X121715480Y-62552173D01*
X121766150Y-62486574D01*
X121855089Y-62381057D01*
X121946256Y-62284197D01*
X122039150Y-62195318D01*
X122133273Y-62113741D01*
X122228126Y-62038790D01*
X122323209Y-61969786D01*
X122418024Y-61906054D01*
X122512072Y-61846915D01*
X122695868Y-61739709D01*
X122870604Y-61642749D01*
X123032288Y-61550617D01*
X123106988Y-61504668D01*
X123176928Y-61457894D01*
X123064444Y-61474713D01*
X122951337Y-61498410D01*
X122837878Y-61528790D01*
X122724336Y-61565663D01*
X122610983Y-61608837D01*
X122498088Y-61658120D01*
X122385922Y-61713319D01*
X122274756Y-61774244D01*
X122164861Y-61840702D01*
X122056506Y-61912501D01*
X121949962Y-61989450D01*
X121845500Y-62071356D01*
X121743390Y-62158029D01*
X121643903Y-62249275D01*
X121547308Y-62344904D01*
X121453878Y-62444722D01*
X121363882Y-62548540D01*
X121277590Y-62656163D01*
X121195274Y-62767402D01*
X121117203Y-62882064D01*
X121043648Y-62999956D01*
X120974880Y-63120888D01*
X120911169Y-63244667D01*
X120852785Y-63371102D01*
X120800000Y-63500000D01*
X120753083Y-63631170D01*
X120712306Y-63764420D01*
X120677937Y-63899558D01*
X120650249Y-64036392D01*
X120629512Y-64174731D01*
X120615996Y-64314382D01*
X120609971Y-64455155D01*
X120612337Y-64557086D01*
X120620582Y-64714197D01*
X120648955Y-65124924D01*
X120655166Y-65201025D01*
X120683586Y-65549266D01*
X120712970Y-65849155D01*
G37*
G36*
X108505081Y-63477510D02*
G01*
X108505081Y-64635592D01*
X108214941Y-64635592D01*
X108214941Y-63477510D01*
X106764320Y-63477510D01*
X106764320Y-63188017D01*
X108214941Y-63188017D01*
X108505081Y-63477510D01*
G37*
G36*
X130373203Y-63188017D02*
G01*
X130663343Y-63188017D01*
X130663343Y-63477510D01*
X130373203Y-63477510D01*
X130373203Y-64346100D01*
X130083102Y-64635592D01*
X128922580Y-64635592D01*
X128922580Y-64346100D01*
X130083102Y-64346100D01*
X130083102Y-63477510D01*
X129212720Y-63477510D01*
X129212720Y-63188017D01*
X130083102Y-63188017D01*
X130083102Y-62898525D01*
X130373203Y-62898525D01*
X130373203Y-63188017D01*
G37*
G36*
X113437148Y-64635592D02*
G01*
X113147045Y-64346100D01*
X113437148Y-64346100D01*
X114887772Y-64346100D01*
X114887772Y-63477510D01*
X113437148Y-63477510D01*
X113437148Y-64346100D01*
X113147045Y-64346100D01*
X113147045Y-63477510D01*
X113437148Y-63188017D01*
X114887772Y-63188017D01*
X115177911Y-63477510D01*
X115177911Y-64346100D01*
X114887772Y-64635592D01*
X113437148Y-64635592D01*
G37*
G36*
X103282838Y-63477510D02*
G01*
X103282838Y-63767040D01*
X102992734Y-64056532D01*
X101542113Y-64056532D01*
X101542113Y-64346100D01*
X103282835Y-64346100D01*
X103282835Y-64635592D01*
X101542113Y-64635592D01*
X101251974Y-64346100D01*
X101251974Y-64056532D01*
X101542113Y-63767040D01*
X102992734Y-63767040D01*
X102992734Y-63477510D01*
X101832214Y-63477510D01*
X101832214Y-63188017D01*
X102992734Y-63188017D01*
X103282838Y-63477510D01*
G37*
G36*
X118248504Y-62418303D02*
G01*
X118249613Y-62418768D01*
X118250730Y-62419223D01*
X118249612Y-62418768D01*
X118248502Y-62418303D01*
X118246277Y-62417356D01*
X118248504Y-62418303D01*
G37*
G36*
X139947277Y-63477510D02*
G01*
X139947277Y-63767040D01*
X139657175Y-64056532D01*
X138206553Y-64056532D01*
X138206553Y-64346100D01*
X139947277Y-64346100D01*
X139947277Y-64635592D01*
X138206553Y-64635592D01*
X137916414Y-64346100D01*
X137916414Y-64056532D01*
X138206553Y-63767040D01*
X139657175Y-63767040D01*
X139657175Y-63477510D01*
X138496655Y-63477510D01*
X138496655Y-63188017D01*
X139657175Y-63188017D01*
X139947277Y-63477510D01*
G37*
G36*
X104153213Y-64346100D02*
G01*
X103863076Y-64635592D01*
X103572973Y-64635592D01*
X103572973Y-64346100D01*
X103863076Y-64346100D01*
X103863076Y-62608994D01*
X104153213Y-62608994D01*
X104153213Y-64346100D01*
G37*
G36*
X122374374Y-61170305D02*
G01*
X122377388Y-61169365D01*
X122380416Y-61168443D01*
X122386459Y-61166609D01*
X122374374Y-61170305D01*
G37*
G36*
X120923241Y-60265403D02*
G01*
X121035213Y-60282657D01*
X121145482Y-60304861D01*
X121253931Y-60331893D01*
X121360444Y-60363634D01*
X121464907Y-60399964D01*
X121567202Y-60440763D01*
X121667214Y-60485910D01*
X121764828Y-60535285D01*
X121859927Y-60588770D01*
X121952396Y-60646242D01*
X122042118Y-60707583D01*
X122128979Y-60772673D01*
X122212862Y-60841391D01*
X122293652Y-60913617D01*
X122371233Y-60989232D01*
X122307474Y-61008725D01*
X122245023Y-61029030D01*
X122183759Y-61050092D01*
X122123557Y-61071853D01*
X122056193Y-61012281D01*
X121986485Y-60955382D01*
X121914514Y-60901240D01*
X121840361Y-60849937D01*
X121764105Y-60801557D01*
X121685830Y-60756183D01*
X121605613Y-60713898D01*
X121523538Y-60674786D01*
X121439684Y-60638929D01*
X121354131Y-60606411D01*
X121266962Y-60577314D01*
X121178256Y-60551723D01*
X121088094Y-60529720D01*
X120996557Y-60511389D01*
X120903725Y-60496812D01*
X120809680Y-60486073D01*
X120809680Y-60253217D01*
X120923241Y-60265403D01*
G37*
G36*
X118149077Y-62564523D02*
G01*
X118176980Y-62576367D01*
X118205199Y-62587872D01*
X118233717Y-62599021D01*
X118262520Y-62609798D01*
X118291591Y-62620185D01*
X118320914Y-62630165D01*
X118350474Y-62639721D01*
X118348743Y-62681382D01*
X118348105Y-62702266D01*
X118347920Y-62712739D01*
X118347854Y-62723238D01*
X118350235Y-62827237D01*
X118357310Y-62930031D01*
X118368974Y-63031518D01*
X118385123Y-63131593D01*
X118405653Y-63230154D01*
X118430460Y-63327096D01*
X118459440Y-63422316D01*
X118492490Y-63515711D01*
X118529504Y-63607177D01*
X118570379Y-63696610D01*
X118615010Y-63783906D01*
X118663295Y-63868963D01*
X118715128Y-63951676D01*
X118770405Y-64031943D01*
X118829023Y-64109659D01*
X118890878Y-64184721D01*
X118955865Y-64257025D01*
X119023880Y-64326468D01*
X119094820Y-64392946D01*
X119168580Y-64456356D01*
X119245056Y-64516594D01*
X119324144Y-64573556D01*
X119405740Y-64627140D01*
X119489741Y-64677240D01*
X119576041Y-64723755D01*
X119664537Y-64766580D01*
X119755125Y-64805611D01*
X119847700Y-64840745D01*
X119942160Y-64871879D01*
X120038399Y-64898909D01*
X120136313Y-64921732D01*
X120235799Y-64940243D01*
X120250193Y-65061170D01*
X120263746Y-65178961D01*
X120150998Y-65161030D01*
X120039980Y-65138097D01*
X119930813Y-65110284D01*
X119823619Y-65077711D01*
X119718518Y-65040498D01*
X119615633Y-64998767D01*
X119515083Y-64952638D01*
X119416992Y-64902232D01*
X119321479Y-64847669D01*
X119228666Y-64789071D01*
X119138675Y-64726558D01*
X119051627Y-64660250D01*
X118967642Y-64590270D01*
X118886843Y-64516736D01*
X118809351Y-64439770D01*
X118735286Y-64359493D01*
X118664771Y-64276026D01*
X118597925Y-64189489D01*
X118534872Y-64100002D01*
X118475732Y-64007687D01*
X118420625Y-63912665D01*
X118369675Y-63815055D01*
X118323001Y-63714980D01*
X118280725Y-63612558D01*
X118242969Y-63507912D01*
X118209854Y-63401162D01*
X118181500Y-63292429D01*
X118158030Y-63181833D01*
X118139564Y-63069495D01*
X118126224Y-62955537D01*
X118118131Y-62840077D01*
X118115406Y-62723238D01*
X118115801Y-62680252D01*
X118116968Y-62637434D01*
X118118879Y-62594798D01*
X118121506Y-62552358D01*
X118149077Y-62564523D01*
G37*
G36*
X123002122Y-63350773D02*
G01*
X122974946Y-63446376D01*
X122944067Y-63540377D01*
X122909571Y-63632691D01*
X122871542Y-63723234D01*
X122830065Y-63811923D01*
X122785222Y-63898673D01*
X122737100Y-63983400D01*
X122685783Y-64066020D01*
X122631354Y-64146450D01*
X122573898Y-64224604D01*
X122513499Y-64300399D01*
X122450242Y-64373751D01*
X122384212Y-64444576D01*
X122315492Y-64512789D01*
X122244166Y-64578307D01*
X122170320Y-64641046D01*
X122094038Y-64700921D01*
X122015403Y-64757848D01*
X121934501Y-64811744D01*
X121851416Y-64862525D01*
X121766231Y-64910105D01*
X121679032Y-64954402D01*
X121589902Y-64995331D01*
X121498927Y-65032808D01*
X121406190Y-65066748D01*
X121311776Y-65097069D01*
X121215769Y-65123686D01*
X121118253Y-65146514D01*
X121019313Y-65165471D01*
X120919034Y-65180471D01*
X120817499Y-65191430D01*
X120812545Y-65132586D01*
X120808005Y-65074606D01*
X120803872Y-65017318D01*
X120800140Y-64960553D01*
X120967483Y-64939403D01*
X121130799Y-64906223D01*
X121289622Y-64861480D01*
X121443484Y-64805641D01*
X121591919Y-64739172D01*
X121734461Y-64662538D01*
X121870641Y-64576207D01*
X121999994Y-64480644D01*
X122122053Y-64376317D01*
X122236351Y-64263690D01*
X122342421Y-64143230D01*
X122439796Y-64015405D01*
X122528010Y-63880679D01*
X122606596Y-63739520D01*
X122675088Y-63592393D01*
X122733017Y-63439764D01*
X122770873Y-63418428D01*
X122808388Y-63396493D01*
X122845547Y-63373983D01*
X122882338Y-63350922D01*
X122918744Y-63327334D01*
X122954751Y-63303244D01*
X122990346Y-63278675D01*
X123025513Y-63253651D01*
X123002122Y-63350773D01*
G37*
G36*
X104733493Y-64635592D02*
G01*
X104443353Y-64346100D01*
X104733493Y-64346100D01*
X106184077Y-64346100D01*
X106184077Y-63477510D01*
X104733493Y-63477510D01*
X104733493Y-64346100D01*
X104443353Y-64346100D01*
X104443353Y-63477510D01*
X104733493Y-63188017D01*
X106184077Y-63188017D01*
X106474181Y-63477510D01*
X106474181Y-64346100D01*
X106184077Y-64635592D01*
X104733493Y-64635592D01*
G37*
G36*
X132984344Y-64635592D02*
G01*
X132694205Y-64635592D01*
X132694205Y-63477510D01*
X131243621Y-63477510D01*
X131243621Y-64635592D01*
X130953444Y-64635592D01*
X130953444Y-63477510D01*
X131243621Y-63188017D01*
X132984344Y-63188017D01*
X132984344Y-64635592D01*
G37*
G36*
X122345411Y-61179437D02*
G01*
X122316669Y-61188706D01*
X122288158Y-61198136D01*
X122259890Y-61207751D01*
X122288153Y-61198125D01*
X122316655Y-61188678D01*
X122345395Y-61179406D01*
X122374374Y-61170305D01*
X122345411Y-61179437D01*
G37*
G36*
X117208773Y-63477510D02*
G01*
X117208773Y-64346100D01*
X116918633Y-64635592D01*
X115468012Y-64635592D01*
X115468012Y-64346100D01*
X116918633Y-64346100D01*
X116918633Y-63477510D01*
X115468012Y-63477510D01*
X115468012Y-63188017D01*
X116918633Y-63188017D01*
X117208773Y-63477510D01*
G37*
G36*
X137626312Y-64635592D02*
G01*
X137336173Y-64635592D01*
X137336173Y-63477509D01*
X135885588Y-63477509D01*
X135885588Y-64635592D01*
X135595449Y-64635592D01*
X135595449Y-63477509D01*
X135885588Y-63188017D01*
X137336173Y-63188017D01*
X137336173Y-62608994D01*
X137626312Y-62608994D01*
X137626312Y-64635592D01*
G37*
G36*
X128342340Y-64635592D02*
G01*
X127181895Y-64635592D01*
X127181895Y-64346099D01*
X128342340Y-64346099D01*
X128342340Y-64056532D01*
X126891755Y-64056532D01*
X126601615Y-63767040D01*
X126891755Y-63767040D01*
X128342340Y-63767040D01*
X128342340Y-63477510D01*
X126891755Y-63477510D01*
X126891755Y-63767040D01*
X126601615Y-63767040D01*
X126601615Y-63477510D01*
X126891755Y-63188017D01*
X128342340Y-63188017D01*
X128632479Y-63477510D01*
X128632479Y-64346100D01*
X128342340Y-64635592D01*
G37*
G36*
X126021375Y-64635593D02*
G01*
X124280614Y-64635593D01*
X124280614Y-64346100D01*
X124570753Y-64346100D01*
X126021375Y-64346100D01*
X126021375Y-64056532D01*
X124570753Y-64056532D01*
X124570753Y-64346100D01*
X124280614Y-64346100D01*
X124280614Y-63477510D01*
X124570753Y-63188017D01*
X125731236Y-63188017D01*
X125731236Y-63477510D01*
X124570753Y-63477510D01*
X124570753Y-63767040D01*
X126021375Y-63767040D01*
X126311477Y-64056532D01*
X126311477Y-64346100D01*
X126021375Y-64635592D01*
X126021375Y-64635593D01*
G37*
G36*
X135015170Y-64635593D02*
G01*
X133274446Y-64635593D01*
X133274446Y-64346100D01*
X133564586Y-64346100D01*
X135015170Y-64346100D01*
X135015170Y-64056532D01*
X133564586Y-64056532D01*
X133564586Y-64346100D01*
X133274446Y-64346100D01*
X133274446Y-63477510D01*
X133564586Y-63188017D01*
X134725068Y-63188017D01*
X134725068Y-63477510D01*
X133564586Y-63477510D01*
X133564586Y-63767040D01*
X135015170Y-63767040D01*
X135305347Y-64056532D01*
X135305347Y-64346100D01*
X135015170Y-64635592D01*
X135015170Y-64635593D01*
G37*
G36*
X118277186Y-62429877D02*
G01*
X118303955Y-62440172D01*
X118331011Y-62450109D01*
X118358330Y-62459693D01*
X118331010Y-62450115D01*
X118303953Y-62440186D01*
X118277185Y-62429893D01*
X118250731Y-62419223D01*
X118277186Y-62429877D01*
G37*
D11*
X139819151Y-66748595D02*
X139819151Y-65669095D01*
X139356508Y-66748595D02*
X139356508Y-66183142D01*
X139407913Y-66080333D01*
X139510722Y-66028928D01*
X139664936Y-66028928D01*
X139767746Y-66080333D01*
X139819151Y-66131738D01*
X138996675Y-66028928D02*
X138585436Y-66028928D01*
X138842460Y-65669095D02*
X138842460Y-66594380D01*
X138791055Y-66697190D01*
X138688246Y-66748595D01*
X138585436Y-66748595D01*
X138379817Y-66028928D02*
X137968579Y-66028928D01*
X138225603Y-65669095D02*
X138225603Y-66594380D01*
X138174198Y-66697190D01*
X138071389Y-66748595D01*
X137968579Y-66748595D01*
X137608746Y-66028928D02*
X137608746Y-67108428D01*
X137608746Y-66080333D02*
X137505936Y-66028928D01*
X137300317Y-66028928D01*
X137197508Y-66080333D01*
X137146103Y-66131738D01*
X137094698Y-66234547D01*
X137094698Y-66542976D01*
X137146103Y-66645785D01*
X137197508Y-66697190D01*
X137300317Y-66748595D01*
X137505936Y-66748595D01*
X137608746Y-66697190D01*
X136683460Y-66697190D02*
X136580651Y-66748595D01*
X136375032Y-66748595D01*
X136272222Y-66697190D01*
X136220817Y-66594380D01*
X136220817Y-66542976D01*
X136272222Y-66440166D01*
X136375032Y-66388761D01*
X136529246Y-66388761D01*
X136632055Y-66337357D01*
X136683460Y-66234547D01*
X136683460Y-66183142D01*
X136632055Y-66080333D01*
X136529246Y-66028928D01*
X136375032Y-66028928D01*
X136272222Y-66080333D01*
X135758175Y-66645785D02*
X135706770Y-66697190D01*
X135758175Y-66748595D01*
X135809579Y-66697190D01*
X135758175Y-66645785D01*
X135758175Y-66748595D01*
X135758175Y-66080333D02*
X135706770Y-66131738D01*
X135758175Y-66183142D01*
X135809579Y-66131738D01*
X135758175Y-66080333D01*
X135758175Y-66183142D01*
X134473055Y-65617690D02*
X135398341Y-67005619D01*
X133342151Y-65617690D02*
X134267436Y-67005619D01*
X133033722Y-66697190D02*
X132930913Y-66748595D01*
X132725294Y-66748595D01*
X132622484Y-66697190D01*
X132571079Y-66594380D01*
X132571079Y-66542976D01*
X132622484Y-66440166D01*
X132725294Y-66388761D01*
X132879508Y-66388761D01*
X132982317Y-66337357D01*
X133033722Y-66234547D01*
X133033722Y-66183142D01*
X132982317Y-66080333D01*
X132879508Y-66028928D01*
X132725294Y-66028928D01*
X132622484Y-66080333D01*
X132108436Y-66748595D02*
X132108436Y-65669095D01*
X131645794Y-66748595D02*
X131645794Y-66183142D01*
X131697198Y-66080333D01*
X131800008Y-66028928D01*
X131954222Y-66028928D01*
X132057032Y-66080333D01*
X132108436Y-66131738D01*
X130669103Y-66748595D02*
X130669103Y-66183142D01*
X130720508Y-66080333D01*
X130823317Y-66028928D01*
X131028936Y-66028928D01*
X131131746Y-66080333D01*
X130669103Y-66697190D02*
X130771913Y-66748595D01*
X131028936Y-66748595D01*
X131131746Y-66697190D01*
X131183151Y-66594380D01*
X131183151Y-66491571D01*
X131131746Y-66388761D01*
X131028936Y-66337357D01*
X130771913Y-66337357D01*
X130669103Y-66285952D01*
X130155055Y-66028928D02*
X130155055Y-66748595D01*
X130155055Y-66131738D02*
X130103651Y-66080333D01*
X130000841Y-66028928D01*
X129846627Y-66028928D01*
X129743817Y-66080333D01*
X129692413Y-66183142D01*
X129692413Y-66748595D01*
X129332579Y-66028928D02*
X128921341Y-66028928D01*
X129178365Y-65669095D02*
X129178365Y-66594380D01*
X129126960Y-66697190D01*
X129024151Y-66748595D01*
X128921341Y-66748595D01*
X128150270Y-66697190D02*
X128253079Y-66748595D01*
X128458698Y-66748595D01*
X128561508Y-66697190D01*
X128612913Y-66594380D01*
X128612913Y-66183142D01*
X128561508Y-66080333D01*
X128458698Y-66028928D01*
X128253079Y-66028928D01*
X128150270Y-66080333D01*
X128098865Y-66183142D01*
X128098865Y-66285952D01*
X128612913Y-66388761D01*
X127173579Y-66748595D02*
X127173579Y-66183142D01*
X127224984Y-66080333D01*
X127327794Y-66028928D01*
X127533413Y-66028928D01*
X127636222Y-66080333D01*
X127173579Y-66697190D02*
X127276389Y-66748595D01*
X127533413Y-66748595D01*
X127636222Y-66697190D01*
X127687627Y-66594380D01*
X127687627Y-66491571D01*
X127636222Y-66388761D01*
X127533413Y-66337357D01*
X127276389Y-66337357D01*
X127173579Y-66285952D01*
X126196889Y-66697190D02*
X126299698Y-66748595D01*
X126505317Y-66748595D01*
X126608127Y-66697190D01*
X126659532Y-66645785D01*
X126710936Y-66542976D01*
X126710936Y-66234547D01*
X126659532Y-66131738D01*
X126608127Y-66080333D01*
X126505317Y-66028928D01*
X126299698Y-66028928D01*
X126196889Y-66080333D01*
X125580032Y-66748595D02*
X125682841Y-66697190D01*
X125734246Y-66645785D01*
X125785651Y-66542976D01*
X125785651Y-66234547D01*
X125734246Y-66131738D01*
X125682841Y-66080333D01*
X125580032Y-66028928D01*
X125425817Y-66028928D01*
X125323008Y-66080333D01*
X125271603Y-66131738D01*
X125220198Y-66234547D01*
X125220198Y-66542976D01*
X125271603Y-66645785D01*
X125323008Y-66697190D01*
X125425817Y-66748595D01*
X125580032Y-66748595D01*
X124757555Y-66028928D02*
X124757555Y-66748595D01*
X124757555Y-66131738D02*
X124706151Y-66080333D01*
X124603341Y-66028928D01*
X124449127Y-66028928D01*
X124346317Y-66080333D01*
X124294913Y-66183142D01*
X124294913Y-66748595D01*
X123935079Y-66028928D02*
X123523841Y-66028928D01*
X123780865Y-65669095D02*
X123780865Y-66594380D01*
X123729460Y-66697190D01*
X123626651Y-66748595D01*
X123523841Y-66748595D01*
X123164008Y-66748595D02*
X123164008Y-66028928D01*
X123164008Y-66234547D02*
X123112603Y-66131738D01*
X123061198Y-66080333D01*
X122958389Y-66028928D01*
X122855579Y-66028928D01*
X122341532Y-66748595D02*
X122444341Y-66697190D01*
X122495746Y-66645785D01*
X122547151Y-66542976D01*
X122547151Y-66234547D01*
X122495746Y-66131738D01*
X122444341Y-66080333D01*
X122341532Y-66028928D01*
X122187317Y-66028928D01*
X122084508Y-66080333D01*
X122033103Y-66131738D01*
X121981698Y-66234547D01*
X121981698Y-66542976D01*
X122033103Y-66645785D01*
X122084508Y-66697190D01*
X122187317Y-66748595D01*
X122341532Y-66748595D01*
X121364841Y-66748595D02*
X121467651Y-66697190D01*
X121519055Y-66594380D01*
X121519055Y-65669095D01*
X121005008Y-66697190D02*
X120902198Y-66748595D01*
X120696579Y-66748595D01*
X120593770Y-66697190D01*
X120542365Y-66594380D01*
X120542365Y-66542976D01*
X120593770Y-66440166D01*
X120696579Y-66388761D01*
X120850794Y-66388761D01*
X120953603Y-66337357D01*
X121005008Y-66234547D01*
X121005008Y-66183142D01*
X120953603Y-66080333D01*
X120850794Y-66028928D01*
X120696579Y-66028928D01*
X120593770Y-66080333D01*
X120079722Y-66645785D02*
X120028317Y-66697190D01*
X120079722Y-66748595D01*
X120131127Y-66697190D01*
X120079722Y-66645785D01*
X120079722Y-66748595D01*
X119103032Y-66697190D02*
X119205841Y-66748595D01*
X119411460Y-66748595D01*
X119514270Y-66697190D01*
X119565675Y-66645785D01*
X119617079Y-66542976D01*
X119617079Y-66234547D01*
X119565675Y-66131738D01*
X119514270Y-66080333D01*
X119411460Y-66028928D01*
X119205841Y-66028928D01*
X119103032Y-66080333D01*
X118486175Y-66748595D02*
X118588984Y-66697190D01*
X118640389Y-66645785D01*
X118691794Y-66542976D01*
X118691794Y-66234547D01*
X118640389Y-66131738D01*
X118588984Y-66080333D01*
X118486175Y-66028928D01*
X118331960Y-66028928D01*
X118229151Y-66080333D01*
X118177746Y-66131738D01*
X118126341Y-66234547D01*
X118126341Y-66542976D01*
X118177746Y-66645785D01*
X118229151Y-66697190D01*
X118331960Y-66748595D01*
X118486175Y-66748595D01*
X117663698Y-66748595D02*
X117663698Y-66028928D01*
X117663698Y-66131738D02*
X117612294Y-66080333D01*
X117509484Y-66028928D01*
X117355270Y-66028928D01*
X117252460Y-66080333D01*
X117201055Y-66183142D01*
X117201055Y-66748595D01*
X117201055Y-66183142D02*
X117149651Y-66080333D01*
X117046841Y-66028928D01*
X116892627Y-66028928D01*
X116789817Y-66080333D01*
X116738413Y-66183142D01*
X116738413Y-66748595D01*
D12*
X194914338Y-136686326D02*
X194667595Y-136686326D01*
X194544224Y-136748012D01*
X194420852Y-136871383D01*
X194359167Y-137118126D01*
X194359167Y-137549926D01*
X194420852Y-137796669D01*
X194544224Y-137920040D01*
X194667595Y-137981726D01*
X194914338Y-137981726D01*
X195037710Y-137920040D01*
X195161081Y-137796669D01*
X195222767Y-137549926D01*
X195222767Y-137118126D01*
X195161081Y-136871383D01*
X195037710Y-136748012D01*
X194914338Y-136686326D01*
X193803995Y-137118126D02*
X193803995Y-138413526D01*
X193803995Y-137179812D02*
X193680624Y-137118126D01*
X193433881Y-137118126D01*
X193310510Y-137179812D01*
X193248824Y-137241497D01*
X193187138Y-137364869D01*
X193187138Y-137734983D01*
X193248824Y-137858354D01*
X193310510Y-137920040D01*
X193433881Y-137981726D01*
X193680624Y-137981726D01*
X193803995Y-137920040D01*
X192138481Y-137920040D02*
X192261852Y-137981726D01*
X192508595Y-137981726D01*
X192631967Y-137920040D01*
X192693652Y-137796669D01*
X192693652Y-137303183D01*
X192631967Y-137179812D01*
X192508595Y-137118126D01*
X192261852Y-137118126D01*
X192138481Y-137179812D01*
X192076795Y-137303183D01*
X192076795Y-137426554D01*
X192693652Y-137549926D01*
X191521624Y-137118126D02*
X191521624Y-137981726D01*
X191521624Y-137241497D02*
X191459938Y-137179812D01*
X191336567Y-137118126D01*
X191151510Y-137118126D01*
X191028138Y-137179812D01*
X190966452Y-137303183D01*
X190966452Y-137981726D01*
X190349595Y-137981726D02*
X190349595Y-136686326D01*
X190041167Y-136686326D01*
X189856110Y-136748012D01*
X189732738Y-136871383D01*
X189671052Y-136994754D01*
X189609367Y-137241497D01*
X189609367Y-137426554D01*
X189671052Y-137673297D01*
X189732738Y-137796669D01*
X189856110Y-137920040D01*
X190041167Y-137981726D01*
X190349595Y-137981726D01*
X188560710Y-137920040D02*
X188684081Y-137981726D01*
X188930824Y-137981726D01*
X189054195Y-137920040D01*
X189115881Y-137796669D01*
X189115881Y-137303183D01*
X189054195Y-137179812D01*
X188930824Y-137118126D01*
X188684081Y-137118126D01*
X188560710Y-137179812D01*
X188499024Y-137303183D01*
X188499024Y-137426554D01*
X189115881Y-137549926D01*
X187388681Y-137920040D02*
X187512052Y-137981726D01*
X187758795Y-137981726D01*
X187882167Y-137920040D01*
X187943852Y-137858354D01*
X188005538Y-137734983D01*
X188005538Y-137364869D01*
X187943852Y-137241497D01*
X187882167Y-137179812D01*
X187758795Y-137118126D01*
X187512052Y-137118126D01*
X187388681Y-137179812D01*
X186833510Y-137981726D02*
X186833510Y-136686326D01*
X186710138Y-137488240D02*
X186340024Y-137981726D01*
X186340024Y-137118126D02*
X186833510Y-137611612D01*
X184797881Y-137981726D02*
X184797881Y-136686326D01*
X184797881Y-137179812D02*
X184674510Y-137118126D01*
X184427767Y-137118126D01*
X184304395Y-137179812D01*
X184242710Y-137241497D01*
X184181024Y-137364869D01*
X184181024Y-137734983D01*
X184242710Y-137858354D01*
X184304395Y-137920040D01*
X184427767Y-137981726D01*
X184674510Y-137981726D01*
X184797881Y-137920040D01*
X183440795Y-137981726D02*
X183564167Y-137920040D01*
X183625852Y-137858354D01*
X183687538Y-137734983D01*
X183687538Y-137364869D01*
X183625852Y-137241497D01*
X183564167Y-137179812D01*
X183440795Y-137118126D01*
X183255738Y-137118126D01*
X183132367Y-137179812D01*
X183070681Y-137241497D01*
X183008995Y-137364869D01*
X183008995Y-137734983D01*
X183070681Y-137858354D01*
X183132367Y-137920040D01*
X183255738Y-137981726D01*
X183440795Y-137981726D01*
X181898652Y-137981726D02*
X181898652Y-137303183D01*
X181960338Y-137179812D01*
X182083710Y-137118126D01*
X182330452Y-137118126D01*
X182453824Y-137179812D01*
X181898652Y-137920040D02*
X182022024Y-137981726D01*
X182330452Y-137981726D01*
X182453824Y-137920040D01*
X182515510Y-137796669D01*
X182515510Y-137673297D01*
X182453824Y-137549926D01*
X182330452Y-137488240D01*
X182022024Y-137488240D01*
X181898652Y-137426554D01*
X181281795Y-137981726D02*
X181281795Y-137118126D01*
X181281795Y-137364869D02*
X181220110Y-137241497D01*
X181158424Y-137179812D01*
X181035052Y-137118126D01*
X180911681Y-137118126D01*
X179924710Y-137981726D02*
X179924710Y-136686326D01*
X179924710Y-137920040D02*
X180048081Y-137981726D01*
X180294824Y-137981726D01*
X180418195Y-137920040D01*
X180479881Y-137858354D01*
X180541567Y-137734983D01*
X180541567Y-137364869D01*
X180479881Y-137241497D01*
X180418195Y-137179812D01*
X180294824Y-137118126D01*
X180048081Y-137118126D01*
X179924710Y-137179812D01*
X194420852Y-140067320D02*
X194852652Y-139450463D01*
X195161081Y-140067320D02*
X195161081Y-138771920D01*
X194667595Y-138771920D01*
X194544224Y-138833606D01*
X194482538Y-138895291D01*
X194420852Y-139018663D01*
X194420852Y-139203720D01*
X194482538Y-139327091D01*
X194544224Y-139388777D01*
X194667595Y-139450463D01*
X195161081Y-139450463D01*
X193372195Y-140005634D02*
X193495567Y-140067320D01*
X193742310Y-140067320D01*
X193865681Y-140005634D01*
X193927367Y-139882263D01*
X193927367Y-139388777D01*
X193865681Y-139265406D01*
X193742310Y-139203720D01*
X193495567Y-139203720D01*
X193372195Y-139265406D01*
X193310510Y-139388777D01*
X193310510Y-139512148D01*
X193927367Y-139635520D01*
X192878710Y-139203720D02*
X192570281Y-140067320D01*
X192261852Y-139203720D01*
X191768367Y-140067320D02*
X191768367Y-139203720D01*
X191768367Y-138771920D02*
X191830052Y-138833606D01*
X191768367Y-138895291D01*
X191706681Y-138833606D01*
X191768367Y-138771920D01*
X191768367Y-138895291D01*
X191213195Y-140005634D02*
X191089824Y-140067320D01*
X190843081Y-140067320D01*
X190719710Y-140005634D01*
X190658024Y-139882263D01*
X190658024Y-139820577D01*
X190719710Y-139697206D01*
X190843081Y-139635520D01*
X191028138Y-139635520D01*
X191151510Y-139573834D01*
X191213195Y-139450463D01*
X191213195Y-139388777D01*
X191151510Y-139265406D01*
X191028138Y-139203720D01*
X190843081Y-139203720D01*
X190719710Y-139265406D01*
X190102852Y-140067320D02*
X190102852Y-139203720D01*
X190102852Y-138771920D02*
X190164538Y-138833606D01*
X190102852Y-138895291D01*
X190041167Y-138833606D01*
X190102852Y-138771920D01*
X190102852Y-138895291D01*
X189300938Y-140067320D02*
X189424310Y-140005634D01*
X189485995Y-139943948D01*
X189547681Y-139820577D01*
X189547681Y-139450463D01*
X189485995Y-139327091D01*
X189424310Y-139265406D01*
X189300938Y-139203720D01*
X189115881Y-139203720D01*
X188992510Y-139265406D01*
X188930824Y-139327091D01*
X188869138Y-139450463D01*
X188869138Y-139820577D01*
X188930824Y-139943948D01*
X188992510Y-140005634D01*
X189115881Y-140067320D01*
X189300938Y-140067320D01*
X188313967Y-139203720D02*
X188313967Y-140067320D01*
X188313967Y-139327091D02*
X188252281Y-139265406D01*
X188128910Y-139203720D01*
X187943852Y-139203720D01*
X187820481Y-139265406D01*
X187758795Y-139388777D01*
X187758795Y-140067320D01*
X187141938Y-139943948D02*
X187080252Y-140005634D01*
X187141938Y-140067320D01*
X187203624Y-140005634D01*
X187141938Y-139943948D01*
X187141938Y-140067320D01*
X187141938Y-139265406D02*
X187080252Y-139327091D01*
X187141938Y-139388777D01*
X187203624Y-139327091D01*
X187141938Y-139265406D01*
X187141938Y-139388777D01*
X185599795Y-138895291D02*
X185538110Y-138833606D01*
X185414738Y-138771920D01*
X185106310Y-138771920D01*
X184982938Y-138833606D01*
X184921252Y-138895291D01*
X184859567Y-139018663D01*
X184859567Y-139142034D01*
X184921252Y-139327091D01*
X185661481Y-140067320D01*
X184859567Y-140067320D01*
X184304395Y-139943948D02*
X184242710Y-140005634D01*
X184304395Y-140067320D01*
X184366081Y-140005634D01*
X184304395Y-139943948D01*
X184304395Y-140067320D01*
X183749224Y-138895291D02*
X183687538Y-138833606D01*
X183564167Y-138771920D01*
X183255738Y-138771920D01*
X183132367Y-138833606D01*
X183070681Y-138895291D01*
X183008995Y-139018663D01*
X183008995Y-139142034D01*
X183070681Y-139327091D01*
X183810910Y-140067320D01*
X183008995Y-140067320D01*
X182453824Y-139943948D02*
X182392138Y-140005634D01*
X182453824Y-140067320D01*
X182515510Y-140005634D01*
X182453824Y-139943948D01*
X182453824Y-140067320D01*
X181158424Y-140067320D02*
X181898652Y-140067320D01*
X181528538Y-140067320D02*
X181528538Y-138771920D01*
X181651910Y-138956977D01*
X181775281Y-139080348D01*
X181898652Y-139142034D01*
X195222767Y-140980885D02*
X195161081Y-140919200D01*
X195037710Y-140857514D01*
X194729281Y-140857514D01*
X194605910Y-140919200D01*
X194544224Y-140980885D01*
X194482538Y-141104257D01*
X194482538Y-141227628D01*
X194544224Y-141412685D01*
X195284452Y-142152914D01*
X194482538Y-142152914D01*
X193680624Y-140857514D02*
X193557252Y-140857514D01*
X193433881Y-140919200D01*
X193372195Y-140980885D01*
X193310510Y-141104257D01*
X193248824Y-141351000D01*
X193248824Y-141659428D01*
X193310510Y-141906171D01*
X193372195Y-142029542D01*
X193433881Y-142091228D01*
X193557252Y-142152914D01*
X193680624Y-142152914D01*
X193803995Y-142091228D01*
X193865681Y-142029542D01*
X193927367Y-141906171D01*
X193989052Y-141659428D01*
X193989052Y-141351000D01*
X193927367Y-141104257D01*
X193865681Y-140980885D01*
X193803995Y-140919200D01*
X193680624Y-140857514D01*
X192755338Y-140980885D02*
X192693652Y-140919200D01*
X192570281Y-140857514D01*
X192261852Y-140857514D01*
X192138481Y-140919200D01*
X192076795Y-140980885D01*
X192015110Y-141104257D01*
X192015110Y-141227628D01*
X192076795Y-141412685D01*
X192817024Y-142152914D01*
X192015110Y-142152914D01*
X191521624Y-140980885D02*
X191459938Y-140919200D01*
X191336567Y-140857514D01*
X191028138Y-140857514D01*
X190904767Y-140919200D01*
X190843081Y-140980885D01*
X190781395Y-141104257D01*
X190781395Y-141227628D01*
X190843081Y-141412685D01*
X191583310Y-142152914D01*
X190781395Y-142152914D01*
X190226224Y-142029542D02*
X190164538Y-142091228D01*
X190226224Y-142152914D01*
X190287910Y-142091228D01*
X190226224Y-142029542D01*
X190226224Y-142152914D01*
X188930824Y-142152914D02*
X189671052Y-142152914D01*
X189300938Y-142152914D02*
X189300938Y-140857514D01*
X189424310Y-141042571D01*
X189547681Y-141165942D01*
X189671052Y-141227628D01*
X188437338Y-140980885D02*
X188375652Y-140919200D01*
X188252281Y-140857514D01*
X187943852Y-140857514D01*
X187820481Y-140919200D01*
X187758795Y-140980885D01*
X187697110Y-141104257D01*
X187697110Y-141227628D01*
X187758795Y-141412685D01*
X188499024Y-142152914D01*
X187697110Y-142152914D01*
%LPC*%
D13*
X127000000Y-133400000D03*
D14*
X129540000Y-133400000D03*
X127000000Y-135940000D03*
X129540000Y-135940000D03*
X127000000Y-138480000D03*
X129540000Y-138480000D03*
X127000000Y-141020000D03*
X129540000Y-141020000D03*
X127000000Y-143560000D03*
X129540000Y-143560000D03*
X127000000Y-146100000D03*
X129540000Y-146100000D03*
D15*
X167790000Y-61680000D03*
X162010000Y-61680000D03*
D16*
X169225000Y-62170000D03*
X160575000Y-62170000D03*
D17*
X169225000Y-58000000D03*
X160575000Y-58000000D03*
D13*
X146050000Y-133400000D03*
D14*
X148590000Y-133400000D03*
X146050000Y-135940000D03*
X148590000Y-135940000D03*
X146050000Y-138480000D03*
X148590000Y-138480000D03*
X146050000Y-141020000D03*
X148590000Y-141020000D03*
X146050000Y-143560000D03*
X148590000Y-143560000D03*
X146050000Y-146100000D03*
X148590000Y-146100000D03*
D18*
X102146100Y-58648600D03*
D13*
X113025000Y-111506000D03*
D14*
X115565000Y-111506000D03*
X113025000Y-114046000D03*
X115565000Y-114046000D03*
X113025000Y-116586000D03*
X115565000Y-116586000D03*
X113025000Y-119126000D03*
X115565000Y-119126000D03*
X113025000Y-121666000D03*
X115565000Y-121666000D03*
X113025000Y-124206000D03*
X115565000Y-124206000D03*
X113025000Y-126746000D03*
X115565000Y-126746000D03*
X113025000Y-129286000D03*
X115565000Y-129286000D03*
D13*
X187600000Y-79600000D03*
D14*
X187600000Y-82140000D03*
X187600000Y-84680000D03*
X187600000Y-87220000D03*
D13*
X157800000Y-68900000D03*
D14*
X157800000Y-71440000D03*
D13*
X120650000Y-133400000D03*
D14*
X123190000Y-133400000D03*
X120650000Y-135940000D03*
X123190000Y-135940000D03*
X120650000Y-138480000D03*
X123190000Y-138480000D03*
X120650000Y-141020000D03*
X123190000Y-141020000D03*
X120650000Y-143560000D03*
X123190000Y-143560000D03*
X120650000Y-146100000D03*
X123190000Y-146100000D03*
D13*
X161700000Y-68925000D03*
D14*
X161700000Y-71465000D03*
D13*
X179555000Y-92700000D03*
D14*
X179555000Y-95240000D03*
X179555000Y-97780000D03*
X179555000Y-100320000D03*
X179555000Y-102860000D03*
X179555000Y-105400000D03*
X179555000Y-107940000D03*
X179555000Y-110480000D03*
X182095000Y-92700000D03*
X182095000Y-95240000D03*
X182095000Y-97780000D03*
X182095000Y-100320000D03*
X182095000Y-102860000D03*
X182095000Y-105400000D03*
X182095000Y-107940000D03*
X182095000Y-110480000D03*
X184635000Y-92700000D03*
X184635000Y-95240000D03*
X184635000Y-97780000D03*
X184635000Y-100320000D03*
X184635000Y-102860000D03*
X184635000Y-105400000D03*
X184635000Y-107940000D03*
X184635000Y-110480000D03*
D18*
X194856100Y-151358600D03*
D13*
X139700000Y-133400000D03*
D14*
X142240000Y-133400000D03*
X139700000Y-135940000D03*
X142240000Y-135940000D03*
X139700000Y-138480000D03*
X142240000Y-138480000D03*
X139700000Y-141020000D03*
X142240000Y-141020000D03*
X139700000Y-143560000D03*
X142240000Y-143560000D03*
X139700000Y-146100000D03*
X142240000Y-146100000D03*
D18*
X194856100Y-58648600D03*
D13*
X101600000Y-89662000D03*
D14*
X104140000Y-89662000D03*
X101600000Y-92202000D03*
X104140000Y-92202000D03*
X101600000Y-94742000D03*
X104140000Y-94742000D03*
X101600000Y-97282000D03*
X104140000Y-97282000D03*
X101600000Y-99822000D03*
X104140000Y-99822000D03*
X101600000Y-102362000D03*
X104140000Y-102362000D03*
X101600000Y-104902000D03*
X104140000Y-104902000D03*
X101600000Y-107442000D03*
X104140000Y-107442000D03*
D13*
X190000000Y-92700000D03*
D14*
X190000000Y-95240000D03*
X190000000Y-97780000D03*
X190000000Y-100320000D03*
X190000000Y-102860000D03*
X190000000Y-105400000D03*
X190000000Y-107940000D03*
X190000000Y-110480000D03*
X192540000Y-92700000D03*
X192540000Y-95240000D03*
X192540000Y-97780000D03*
X192540000Y-100320000D03*
X192540000Y-102860000D03*
X192540000Y-105400000D03*
X192540000Y-107940000D03*
X192540000Y-110480000D03*
X195080000Y-92700000D03*
X195080000Y-95240000D03*
X195080000Y-97780000D03*
X195080000Y-100320000D03*
X195080000Y-102860000D03*
X195080000Y-105400000D03*
X195080000Y-107940000D03*
X195080000Y-110480000D03*
D13*
X179555000Y-116400000D03*
D14*
X179555000Y-118940000D03*
X179555000Y-121480000D03*
X179555000Y-124020000D03*
X179555000Y-126560000D03*
X179555000Y-129100000D03*
X179555000Y-131640000D03*
X179555000Y-134180000D03*
X182095000Y-116400000D03*
X182095000Y-118940000D03*
X182095000Y-121480000D03*
X182095000Y-124020000D03*
X182095000Y-126560000D03*
X182095000Y-129100000D03*
X182095000Y-131640000D03*
X182095000Y-134180000D03*
X184635000Y-116400000D03*
X184635000Y-118940000D03*
X184635000Y-121480000D03*
X184635000Y-124020000D03*
X184635000Y-126560000D03*
X184635000Y-129100000D03*
X184635000Y-131640000D03*
X184635000Y-134180000D03*
D13*
X189960000Y-116400000D03*
D14*
X189960000Y-118940000D03*
X189960000Y-121480000D03*
X189960000Y-124020000D03*
X189960000Y-126560000D03*
X189960000Y-129100000D03*
X189960000Y-131640000D03*
X189960000Y-134180000D03*
X192500000Y-116400000D03*
X192500000Y-118940000D03*
X192500000Y-121480000D03*
X192500000Y-124020000D03*
X192500000Y-126560000D03*
X192500000Y-129100000D03*
X192500000Y-131640000D03*
X192500000Y-134180000D03*
X195040000Y-116400000D03*
X195040000Y-118940000D03*
X195040000Y-121480000D03*
X195040000Y-124020000D03*
X195040000Y-126560000D03*
X195040000Y-129100000D03*
X195040000Y-131640000D03*
X195040000Y-134180000D03*
D13*
X107950000Y-133400000D03*
D14*
X110490000Y-133400000D03*
X107950000Y-135940000D03*
X110490000Y-135940000D03*
X107950000Y-138480000D03*
X110490000Y-138480000D03*
X107950000Y-141020000D03*
X110490000Y-141020000D03*
X107950000Y-143560000D03*
X110490000Y-143560000D03*
X107950000Y-146100000D03*
X110490000Y-146100000D03*
D13*
X114300000Y-133400000D03*
D14*
X116840000Y-133400000D03*
X114300000Y-135940000D03*
X116840000Y-135940000D03*
X114300000Y-138480000D03*
X116840000Y-138480000D03*
X114300000Y-141020000D03*
X116840000Y-141020000D03*
X114300000Y-143560000D03*
X116840000Y-143560000D03*
X114300000Y-146100000D03*
X116840000Y-146100000D03*
D13*
X113025000Y-89662000D03*
D14*
X115565000Y-89662000D03*
X113025000Y-92202000D03*
X115565000Y-92202000D03*
X113025000Y-94742000D03*
X115565000Y-94742000D03*
X113025000Y-97282000D03*
X115565000Y-97282000D03*
X113025000Y-99822000D03*
X115565000Y-99822000D03*
X113025000Y-102362000D03*
X115565000Y-102362000D03*
X113025000Y-104902000D03*
X115565000Y-104902000D03*
X113025000Y-107442000D03*
X115565000Y-107442000D03*
D13*
X124460000Y-111506000D03*
D14*
X127000000Y-111506000D03*
X124460000Y-114046000D03*
X127000000Y-114046000D03*
X124460000Y-116586000D03*
X127000000Y-116586000D03*
X124460000Y-119126000D03*
X127000000Y-119126000D03*
X124460000Y-121666000D03*
X127000000Y-121666000D03*
X124460000Y-124206000D03*
X127000000Y-124206000D03*
X124460000Y-126746000D03*
X127000000Y-126746000D03*
X124460000Y-129286000D03*
X127000000Y-129286000D03*
D13*
X101600000Y-133400000D03*
D14*
X104140000Y-133400000D03*
X101600000Y-135940000D03*
X104140000Y-135940000D03*
X101600000Y-138480000D03*
X104140000Y-138480000D03*
X101600000Y-141020000D03*
X104140000Y-141020000D03*
X101600000Y-143560000D03*
X104140000Y-143560000D03*
X101600000Y-146100000D03*
X104140000Y-146100000D03*
D13*
X101600000Y-111506000D03*
D14*
X104140000Y-111506000D03*
X101600000Y-114046000D03*
X104140000Y-114046000D03*
X101600000Y-116586000D03*
X104140000Y-116586000D03*
X101600000Y-119126000D03*
X104140000Y-119126000D03*
X101600000Y-121666000D03*
X104140000Y-121666000D03*
X101600000Y-124206000D03*
X104140000Y-124206000D03*
X101600000Y-126746000D03*
X104140000Y-126746000D03*
X101600000Y-129286000D03*
X104140000Y-129286000D03*
D18*
X102146100Y-151358600D03*
D19*
X109400000Y-68600000D03*
X116850000Y-68600000D03*
X124300000Y-68600000D03*
X111850000Y-70800000D03*
X121850000Y-70800000D03*
X121850000Y-58650000D03*
X111850000Y-58650000D03*
X114350000Y-58650000D03*
X119350000Y-58650000D03*
X132700000Y-68600000D03*
X140150000Y-68600000D03*
X147600000Y-68600000D03*
X135150000Y-70800000D03*
X145150000Y-70800000D03*
X145150000Y-58650000D03*
X135150000Y-58650000D03*
X137650000Y-58650000D03*
X142650000Y-58650000D03*
D13*
X124460000Y-89662000D03*
D14*
X127000000Y-89662000D03*
X124460000Y-92202000D03*
X127000000Y-92202000D03*
X124460000Y-94742000D03*
X127000000Y-94742000D03*
X124460000Y-97282000D03*
X127000000Y-97282000D03*
X124460000Y-99822000D03*
X127000000Y-99822000D03*
X124460000Y-102362000D03*
X127000000Y-102362000D03*
X124460000Y-104902000D03*
X127000000Y-104902000D03*
X124460000Y-107442000D03*
X127000000Y-107442000D03*
D13*
X135890000Y-111506000D03*
D14*
X138430000Y-111506000D03*
X135890000Y-114046000D03*
X138430000Y-114046000D03*
X135890000Y-116586000D03*
X138430000Y-116586000D03*
X135890000Y-119126000D03*
X138430000Y-119126000D03*
X135890000Y-121666000D03*
X138430000Y-121666000D03*
X135890000Y-124206000D03*
X138430000Y-124206000D03*
X135890000Y-126746000D03*
X138430000Y-126746000D03*
X135890000Y-129286000D03*
X138430000Y-129286000D03*
D13*
X133350000Y-133400000D03*
D14*
X135890000Y-133400000D03*
X133350000Y-135940000D03*
X135890000Y-135940000D03*
X133350000Y-138480000D03*
X135890000Y-138480000D03*
X133350000Y-141020000D03*
X135890000Y-141020000D03*
X133350000Y-143560000D03*
X135890000Y-143560000D03*
X133350000Y-146100000D03*
X135890000Y-146100000D03*
D13*
X190400000Y-63900000D03*
D14*
X192940000Y-63900000D03*
X195480000Y-63900000D03*
D13*
X194400000Y-79600000D03*
D14*
X194400000Y-82140000D03*
X194400000Y-84680000D03*
X194400000Y-87220000D03*
D13*
X135890000Y-89662000D03*
D14*
X138430000Y-89662000D03*
X135890000Y-92202000D03*
X138430000Y-92202000D03*
X135890000Y-94742000D03*
X138430000Y-94742000D03*
X135890000Y-97282000D03*
X138430000Y-97282000D03*
X135890000Y-99822000D03*
X138430000Y-99822000D03*
X135890000Y-102362000D03*
X138430000Y-102362000D03*
X135890000Y-104902000D03*
X138430000Y-104902000D03*
X135890000Y-107442000D03*
X138430000Y-107442000D03*
M02*
