G04 #@! TF.GenerationSoftware,KiCad,Pcbnew,6.0.9*
G04 #@! TF.CreationDate,2022-12-27T21:22:08+01:00*
G04 #@! TF.ProjectId,OpenDeck-r2.2.1,4f70656e-4465-4636-9b2d-72322e322e30,rev?*
G04 #@! TF.SameCoordinates,Original*
G04 #@! TF.FileFunction,Soldermask,Top*
G04 #@! TF.FilePolarity,Negative*
%FSLAX46Y46*%
G04 Gerber Fmt 4.6, Leading zero omitted, Abs format (unit mm)*
G04 Created by KiCad (PCBNEW 6.0.9) date 2022-12-27 21:22:08*
%MOMM*%
%LPD*%
G01*
G04 APERTURE LIST*
G04 Aperture macros list*
%AMRoundRect*
0 Rectangle with rounded corners*
0 $1 Rounding radius*
0 $2 $3 $4 $5 $6 $7 $8 $9 X,Y pos of 4 corners*
0 Add a 4 corners polygon primitive as box body*
4,1,4,$2,$3,$4,$5,$6,$7,$8,$9,$2,$3,0*
0 Add four circle primitives for the rounded corners*
1,1,$1+$1,$2,$3*
1,1,$1+$1,$4,$5*
1,1,$1+$1,$6,$7*
1,1,$1+$1,$8,$9*
0 Add four rect primitives between the rounded corners*
20,1,$1+$1,$2,$3,$4,$5,0*
20,1,$1+$1,$4,$5,$6,$7,0*
20,1,$1+$1,$6,$7,$8,$9,0*
20,1,$1+$1,$8,$9,$2,$3,0*%
G04 Aperture macros list end*
%ADD10C,0.010000*%
%ADD11R,0.600000X0.700000*%
%ADD12RoundRect,0.140000X-0.140000X-0.170000X0.140000X-0.170000X0.140000X0.170000X-0.140000X0.170000X0*%
%ADD13RoundRect,0.135000X0.185000X-0.135000X0.185000X0.135000X-0.185000X0.135000X-0.185000X-0.135000X0*%
%ADD14R,1.700000X1.700000*%
%ADD15O,1.700000X1.700000*%
%ADD16C,0.600000*%
%ADD17O,0.950000X2.050000*%
%ADD18O,0.950000X1.750000*%
%ADD19RoundRect,0.135000X-0.135000X-0.185000X0.135000X-0.185000X0.135000X0.185000X-0.135000X0.185000X0*%
%ADD20RoundRect,0.150000X-0.875000X-0.150000X0.875000X-0.150000X0.875000X0.150000X-0.875000X0.150000X0*%
%ADD21RoundRect,0.140000X-0.170000X0.140000X-0.170000X-0.140000X0.170000X-0.140000X0.170000X0.140000X0*%
%ADD22RoundRect,0.140000X0.140000X0.170000X-0.140000X0.170000X-0.140000X-0.170000X0.140000X-0.170000X0*%
%ADD23RoundRect,0.150000X0.150000X-0.875000X0.150000X0.875000X-0.150000X0.875000X-0.150000X-0.875000X0*%
%ADD24C,5.600000*%
%ADD25RoundRect,0.135000X-0.185000X0.135000X-0.185000X-0.135000X0.185000X-0.135000X0.185000X0.135000X0*%
%ADD26RoundRect,0.150000X-0.725000X-0.150000X0.725000X-0.150000X0.725000X0.150000X-0.725000X0.150000X0*%
%ADD27RoundRect,0.243750X0.456250X-0.243750X0.456250X0.243750X-0.456250X0.243750X-0.456250X-0.243750X0*%
%ADD28RoundRect,0.150000X-0.150000X0.512500X-0.150000X-0.512500X0.150000X-0.512500X0.150000X0.512500X0*%
%ADD29R,0.700000X0.600000*%
%ADD30R,0.700000X1.000000*%
%ADD31RoundRect,0.140000X0.170000X-0.140000X0.170000X0.140000X-0.170000X0.140000X-0.170000X-0.140000X0*%
%ADD32RoundRect,0.135000X0.135000X0.185000X-0.135000X0.185000X-0.135000X-0.185000X0.135000X-0.185000X0*%
%ADD33RoundRect,0.050000X0.050000X-0.387500X0.050000X0.387500X-0.050000X0.387500X-0.050000X-0.387500X0*%
%ADD34RoundRect,0.050000X0.387500X-0.050000X0.387500X0.050000X-0.387500X0.050000X-0.387500X-0.050000X0*%
%ADD35R,3.200000X3.200000*%
%ADD36RoundRect,0.150000X-0.650000X-0.150000X0.650000X-0.150000X0.650000X0.150000X-0.650000X0.150000X0*%
%ADD37RoundRect,0.250000X0.450000X-0.262500X0.450000X0.262500X-0.450000X0.262500X-0.450000X-0.262500X0*%
%ADD38R,1.150000X1.000000*%
%ADD39C,2.300000*%
%ADD40RoundRect,0.100000X-0.100000X0.637500X-0.100000X-0.637500X0.100000X-0.637500X0.100000X0.637500X0*%
%ADD41RoundRect,0.100000X0.100000X-0.637500X0.100000X0.637500X-0.100000X0.637500X-0.100000X-0.637500X0*%
%ADD42R,2.000000X0.640000*%
G04 APERTURE END LIST*
G36*
X166350000Y-63370000D02*
G01*
X165950000Y-63370000D01*
X165950000Y-62130000D01*
X166350000Y-62130000D01*
X166350000Y-63370000D01*
G37*
D10*
X166350000Y-63370000D02*
X165950000Y-63370000D01*
X165950000Y-62130000D01*
X166350000Y-62130000D01*
X166350000Y-63370000D01*
G36*
X166850000Y-63370000D02*
G01*
X166450000Y-63370000D01*
X166450000Y-62130000D01*
X166850000Y-62130000D01*
X166850000Y-63370000D01*
G37*
X166850000Y-63370000D02*
X166450000Y-63370000D01*
X166450000Y-62130000D01*
X166850000Y-62130000D01*
X166850000Y-63370000D01*
G36*
X164850000Y-63370000D02*
G01*
X164450000Y-63370000D01*
X164450000Y-62130000D01*
X164850000Y-62130000D01*
X164850000Y-63370000D01*
G37*
X164850000Y-63370000D02*
X164450000Y-63370000D01*
X164450000Y-62130000D01*
X164850000Y-62130000D01*
X164850000Y-63370000D01*
G36*
X168450000Y-63370000D02*
G01*
X167750000Y-63370000D01*
X167750000Y-62130000D01*
X168450000Y-62130000D01*
X168450000Y-63370000D01*
G37*
X168450000Y-63370000D02*
X167750000Y-63370000D01*
X167750000Y-62130000D01*
X168450000Y-62130000D01*
X168450000Y-63370000D01*
G36*
X163850000Y-63370000D02*
G01*
X163450000Y-63370000D01*
X163450000Y-62130000D01*
X163850000Y-62130000D01*
X163850000Y-63370000D01*
G37*
X163850000Y-63370000D02*
X163450000Y-63370000D01*
X163450000Y-62130000D01*
X163850000Y-62130000D01*
X163850000Y-63370000D01*
G36*
X165350000Y-63370000D02*
G01*
X164950000Y-63370000D01*
X164950000Y-62130000D01*
X165350000Y-62130000D01*
X165350000Y-63370000D01*
G37*
X165350000Y-63370000D02*
X164950000Y-63370000D01*
X164950000Y-62130000D01*
X165350000Y-62130000D01*
X165350000Y-63370000D01*
G36*
X163350000Y-63370000D02*
G01*
X162950000Y-63370000D01*
X162950000Y-62130000D01*
X163350000Y-62130000D01*
X163350000Y-63370000D01*
G37*
X163350000Y-63370000D02*
X162950000Y-63370000D01*
X162950000Y-62130000D01*
X163350000Y-62130000D01*
X163350000Y-63370000D01*
G36*
X162050000Y-63370000D02*
G01*
X161350000Y-63370000D01*
X161350000Y-62130000D01*
X162050000Y-62130000D01*
X162050000Y-63370000D01*
G37*
X162050000Y-63370000D02*
X161350000Y-63370000D01*
X161350000Y-62130000D01*
X162050000Y-62130000D01*
X162050000Y-63370000D01*
G36*
X165850000Y-63370000D02*
G01*
X165450000Y-63370000D01*
X165450000Y-62130000D01*
X165850000Y-62130000D01*
X165850000Y-63370000D01*
G37*
X165850000Y-63370000D02*
X165450000Y-63370000D01*
X165450000Y-62130000D01*
X165850000Y-62130000D01*
X165850000Y-63370000D01*
G36*
X167650000Y-63370000D02*
G01*
X166950000Y-63370000D01*
X166950000Y-62130000D01*
X167650000Y-62130000D01*
X167650000Y-63370000D01*
G37*
X167650000Y-63370000D02*
X166950000Y-63370000D01*
X166950000Y-62130000D01*
X167650000Y-62130000D01*
X167650000Y-63370000D01*
G36*
X164350000Y-63370000D02*
G01*
X163950000Y-63370000D01*
X163950000Y-62130000D01*
X164350000Y-62130000D01*
X164350000Y-63370000D01*
G37*
X164350000Y-63370000D02*
X163950000Y-63370000D01*
X163950000Y-62130000D01*
X164350000Y-62130000D01*
X164350000Y-63370000D01*
G36*
X162850000Y-63370000D02*
G01*
X162150000Y-63370000D01*
X162150000Y-62130000D01*
X162850000Y-62130000D01*
X162850000Y-63370000D01*
G37*
X162850000Y-63370000D02*
X162150000Y-63370000D01*
X162150000Y-62130000D01*
X162850000Y-62130000D01*
X162850000Y-63370000D01*
D11*
X141286000Y-126746000D03*
X142686000Y-126746000D03*
X106996000Y-121666000D03*
X108396000Y-121666000D03*
X118426000Y-92202000D03*
X119826000Y-92202000D03*
X141286000Y-97282000D03*
X142686000Y-97282000D03*
D12*
X158220000Y-139400000D03*
X159180000Y-139400000D03*
D13*
X135600000Y-78310000D03*
X135600000Y-77290000D03*
D11*
X106996000Y-97282000D03*
X108396000Y-97282000D03*
X129856000Y-126746000D03*
X131256000Y-126746000D03*
D14*
X127000000Y-133400000D03*
D15*
X129540000Y-133400000D03*
X127000000Y-135940000D03*
X129540000Y-135940000D03*
X127000000Y-138480000D03*
X129540000Y-138480000D03*
X127000000Y-141020000D03*
X129540000Y-141020000D03*
X127000000Y-143560000D03*
X129540000Y-143560000D03*
X127000000Y-146100000D03*
X129540000Y-146100000D03*
D16*
X167790000Y-61680000D03*
X162010000Y-61680000D03*
D17*
X169225000Y-62170000D03*
X160575000Y-62170000D03*
D18*
X169225000Y-58000000D03*
X160575000Y-58000000D03*
D11*
X129856000Y-97282000D03*
X131256000Y-97282000D03*
D19*
X179790000Y-56200000D03*
X180810000Y-56200000D03*
D11*
X141286000Y-121666000D03*
X142686000Y-121666000D03*
D14*
X146050000Y-133400000D03*
D15*
X148590000Y-133400000D03*
X146050000Y-135940000D03*
X148590000Y-135940000D03*
X146050000Y-138480000D03*
X148590000Y-138480000D03*
X146050000Y-141020000D03*
X148590000Y-141020000D03*
X146050000Y-143560000D03*
X148590000Y-143560000D03*
X146050000Y-146100000D03*
X148590000Y-146100000D03*
D20*
X165822100Y-119481600D03*
X165822100Y-120751600D03*
X165822100Y-122021600D03*
X165822100Y-123291600D03*
X165822100Y-124561600D03*
X165822100Y-125831600D03*
X165822100Y-127101600D03*
X165822100Y-128371600D03*
X165822100Y-129641600D03*
X165822100Y-130911600D03*
X165822100Y-132181600D03*
X165822100Y-133451600D03*
X175122100Y-133451600D03*
X175122100Y-132181600D03*
X175122100Y-130911600D03*
X175122100Y-129641600D03*
X175122100Y-128371600D03*
X175122100Y-127101600D03*
X175122100Y-125831600D03*
X175122100Y-124561600D03*
X175122100Y-123291600D03*
X175122100Y-122021600D03*
X175122100Y-120751600D03*
X175122100Y-119481600D03*
D11*
X106996000Y-102362000D03*
X108396000Y-102362000D03*
D21*
X184000000Y-72820000D03*
X184000000Y-73780000D03*
D11*
X118426000Y-104902000D03*
X119826000Y-104902000D03*
D22*
X189480000Y-66500000D03*
X188520000Y-66500000D03*
D23*
X152819100Y-150928600D03*
X154089100Y-150928600D03*
X155359100Y-150928600D03*
X156629100Y-150928600D03*
X157899100Y-150928600D03*
X159169100Y-150928600D03*
X160439100Y-150928600D03*
X161709100Y-150928600D03*
X162979100Y-150928600D03*
X164249100Y-150928600D03*
X165519100Y-150928600D03*
X166789100Y-150928600D03*
X166789100Y-141628600D03*
X165519100Y-141628600D03*
X164249100Y-141628600D03*
X162979100Y-141628600D03*
X161709100Y-141628600D03*
X160439100Y-141628600D03*
X159169100Y-141628600D03*
X157899100Y-141628600D03*
X156629100Y-141628600D03*
X155359100Y-141628600D03*
X154089100Y-141628600D03*
X152819100Y-141628600D03*
D24*
X102146100Y-58648600D03*
D11*
X129856000Y-124206000D03*
X131256000Y-124206000D03*
X106996000Y-126746000D03*
X108396000Y-126746000D03*
X106996000Y-114046000D03*
X108396000Y-114046000D03*
D25*
X128600000Y-62990000D03*
X128600000Y-64010000D03*
D11*
X129856000Y-102362000D03*
X131256000Y-102362000D03*
X141286000Y-116586000D03*
X142686000Y-116586000D03*
X129856000Y-114046000D03*
X131256000Y-114046000D03*
D22*
X126780000Y-75700000D03*
X125820000Y-75700000D03*
D26*
X120907100Y-77063600D03*
X120907100Y-78333600D03*
X120907100Y-79603600D03*
X120907100Y-80873600D03*
X120907100Y-82143600D03*
X120907100Y-83413600D03*
X120907100Y-84683600D03*
X120907100Y-85953600D03*
X126057100Y-85953600D03*
X126057100Y-84683600D03*
X126057100Y-83413600D03*
X126057100Y-82143600D03*
X126057100Y-80873600D03*
X126057100Y-79603600D03*
X126057100Y-78333600D03*
X126057100Y-77063600D03*
D27*
X186300000Y-59137500D03*
X186300000Y-57262500D03*
D28*
X173650000Y-57062500D03*
X172700000Y-57062500D03*
X171750000Y-57062500D03*
X171750000Y-59337500D03*
X173650000Y-59337500D03*
D29*
X105900000Y-79600000D03*
X105900000Y-81000000D03*
D14*
X113025000Y-111506000D03*
D15*
X115565000Y-111506000D03*
X113025000Y-114046000D03*
X115565000Y-114046000D03*
X113025000Y-116586000D03*
X115565000Y-116586000D03*
X113025000Y-119126000D03*
X115565000Y-119126000D03*
X113025000Y-121666000D03*
X115565000Y-121666000D03*
X113025000Y-124206000D03*
X115565000Y-124206000D03*
X113025000Y-126746000D03*
X115565000Y-126746000D03*
X113025000Y-129286000D03*
X115565000Y-129286000D03*
D12*
X177020000Y-68600000D03*
X177980000Y-68600000D03*
D11*
X141286000Y-89662000D03*
X142686000Y-89662000D03*
D12*
X173920000Y-117800000D03*
X174880000Y-117800000D03*
D13*
X175200000Y-66110000D03*
X175200000Y-65090000D03*
D30*
X170900000Y-63550000D03*
D29*
X170900000Y-65250000D03*
X172900000Y-65250000D03*
X172900000Y-63350000D03*
D11*
X106996000Y-129286000D03*
X108396000Y-129286000D03*
D14*
X187600000Y-79600000D03*
D15*
X187600000Y-82140000D03*
X187600000Y-84680000D03*
X187600000Y-87220000D03*
D11*
X118426000Y-121666000D03*
X119826000Y-121666000D03*
D14*
X157800000Y-68900000D03*
D15*
X157800000Y-71440000D03*
D11*
X118426000Y-97282000D03*
X119826000Y-97282000D03*
X118426000Y-99822000D03*
X119826000Y-99822000D03*
X129856000Y-89662000D03*
X131256000Y-89662000D03*
D14*
X120650000Y-133400000D03*
D15*
X123190000Y-133400000D03*
X120650000Y-135940000D03*
X123190000Y-135940000D03*
X120650000Y-138480000D03*
X123190000Y-138480000D03*
X120650000Y-141020000D03*
X123190000Y-141020000D03*
X120650000Y-143560000D03*
X123190000Y-143560000D03*
X120650000Y-146100000D03*
X123190000Y-146100000D03*
D31*
X179400000Y-63180000D03*
X179400000Y-62220000D03*
D14*
X161700000Y-68925000D03*
D15*
X161700000Y-71465000D03*
D14*
X179555000Y-92700000D03*
D15*
X179555000Y-95240000D03*
X179555000Y-97780000D03*
X179555000Y-100320000D03*
X179555000Y-102860000D03*
X179555000Y-105400000D03*
X179555000Y-107940000D03*
X179555000Y-110480000D03*
X182095000Y-92700000D03*
X182095000Y-95240000D03*
X182095000Y-97780000D03*
X182095000Y-100320000D03*
X182095000Y-102860000D03*
X182095000Y-105400000D03*
X182095000Y-107940000D03*
X182095000Y-110480000D03*
X184635000Y-92700000D03*
X184635000Y-95240000D03*
X184635000Y-97780000D03*
X184635000Y-100320000D03*
X184635000Y-102860000D03*
X184635000Y-105400000D03*
X184635000Y-107940000D03*
X184635000Y-110480000D03*
D11*
X141286000Y-107442000D03*
X142686000Y-107442000D03*
X141286000Y-104902000D03*
X142686000Y-104902000D03*
X141286000Y-114046000D03*
X142686000Y-114046000D03*
D24*
X194856100Y-151358600D03*
D12*
X189220000Y-73000000D03*
X190180000Y-73000000D03*
D14*
X139700000Y-133400000D03*
D15*
X142240000Y-133400000D03*
X139700000Y-135940000D03*
X142240000Y-135940000D03*
X139700000Y-138480000D03*
X142240000Y-138480000D03*
X139700000Y-141020000D03*
X142240000Y-141020000D03*
X139700000Y-143560000D03*
X142240000Y-143560000D03*
X139700000Y-146100000D03*
X142240000Y-146100000D03*
D11*
X129856000Y-119126000D03*
X131256000Y-119126000D03*
D13*
X137200000Y-78310000D03*
X137200000Y-77290000D03*
D11*
X141286000Y-119126000D03*
X142686000Y-119126000D03*
D24*
X194856100Y-58648600D03*
D11*
X118426000Y-114046000D03*
X119826000Y-114046000D03*
D14*
X101600000Y-89662000D03*
D15*
X104140000Y-89662000D03*
X101600000Y-92202000D03*
X104140000Y-92202000D03*
X101600000Y-94742000D03*
X104140000Y-94742000D03*
X101600000Y-97282000D03*
X104140000Y-97282000D03*
X101600000Y-99822000D03*
X104140000Y-99822000D03*
X101600000Y-102362000D03*
X104140000Y-102362000D03*
X101600000Y-104902000D03*
X104140000Y-104902000D03*
X101600000Y-107442000D03*
X104140000Y-107442000D03*
D14*
X190000000Y-92700000D03*
D15*
X190000000Y-95240000D03*
X190000000Y-97780000D03*
X190000000Y-100320000D03*
X190000000Y-102860000D03*
X190000000Y-105400000D03*
X190000000Y-107940000D03*
X190000000Y-110480000D03*
X192540000Y-92700000D03*
X192540000Y-95240000D03*
X192540000Y-97780000D03*
X192540000Y-100320000D03*
X192540000Y-102860000D03*
X192540000Y-105400000D03*
X192540000Y-107940000D03*
X192540000Y-110480000D03*
X195080000Y-92700000D03*
X195080000Y-95240000D03*
X195080000Y-97780000D03*
X195080000Y-100320000D03*
X195080000Y-102860000D03*
X195080000Y-105400000D03*
X195080000Y-107940000D03*
X195080000Y-110480000D03*
D11*
X106996000Y-111506000D03*
X108396000Y-111506000D03*
D22*
X177980000Y-67500000D03*
X177020000Y-67500000D03*
D11*
X106996000Y-99822000D03*
X108396000Y-99822000D03*
X129856000Y-104902000D03*
X131256000Y-104902000D03*
D12*
X182400000Y-76800000D03*
X183360000Y-76800000D03*
D20*
X165822100Y-95859600D03*
X165822100Y-97129600D03*
X165822100Y-98399600D03*
X165822100Y-99669600D03*
X165822100Y-100939600D03*
X165822100Y-102209600D03*
X165822100Y-103479600D03*
X165822100Y-104749600D03*
X165822100Y-106019600D03*
X165822100Y-107289600D03*
X165822100Y-108559600D03*
X165822100Y-109829600D03*
X175122100Y-109829600D03*
X175122100Y-108559600D03*
X175122100Y-107289600D03*
X175122100Y-106019600D03*
X175122100Y-104749600D03*
X175122100Y-103479600D03*
X175122100Y-102209600D03*
X175122100Y-100939600D03*
X175122100Y-99669600D03*
X175122100Y-98399600D03*
X175122100Y-97129600D03*
X175122100Y-95859600D03*
D31*
X168400000Y-144380000D03*
X168400000Y-143420000D03*
D11*
X141286000Y-92202000D03*
X142686000Y-92202000D03*
D12*
X173802100Y-94208600D03*
X174762100Y-94208600D03*
D11*
X129856000Y-121666000D03*
X131256000Y-121666000D03*
D13*
X140300000Y-78310000D03*
X140300000Y-77290000D03*
D22*
X177480000Y-66300000D03*
X176520000Y-66300000D03*
D21*
X175900000Y-68520000D03*
X175900000Y-69480000D03*
D11*
X118426000Y-116586000D03*
X119826000Y-116586000D03*
X129856000Y-92202000D03*
X131256000Y-92202000D03*
X141286000Y-99822000D03*
X142686000Y-99822000D03*
D27*
X183500000Y-59137500D03*
X183500000Y-57262500D03*
D11*
X106996000Y-94742000D03*
X108396000Y-94742000D03*
D21*
X180200000Y-72520000D03*
X180200000Y-73480000D03*
D13*
X132700000Y-78310000D03*
X132700000Y-77290000D03*
D14*
X179555000Y-116400000D03*
D15*
X179555000Y-118940000D03*
X179555000Y-121480000D03*
X179555000Y-124020000D03*
X179555000Y-126560000D03*
X179555000Y-129100000D03*
X179555000Y-131640000D03*
X179555000Y-134180000D03*
X182095000Y-116400000D03*
X182095000Y-118940000D03*
X182095000Y-121480000D03*
X182095000Y-124020000D03*
X182095000Y-126560000D03*
X182095000Y-129100000D03*
X182095000Y-131640000D03*
X182095000Y-134180000D03*
X184635000Y-116400000D03*
X184635000Y-118940000D03*
X184635000Y-121480000D03*
X184635000Y-124020000D03*
X184635000Y-126560000D03*
X184635000Y-129100000D03*
X184635000Y-131640000D03*
X184635000Y-134180000D03*
D11*
X106996000Y-119126000D03*
X108396000Y-119126000D03*
D14*
X189960000Y-116400000D03*
D15*
X189960000Y-118940000D03*
X189960000Y-121480000D03*
X189960000Y-124020000D03*
X189960000Y-126560000D03*
X189960000Y-129100000D03*
X189960000Y-131640000D03*
X189960000Y-134180000D03*
X192500000Y-116400000D03*
X192500000Y-118940000D03*
X192500000Y-121480000D03*
X192500000Y-124020000D03*
X192500000Y-126560000D03*
X192500000Y-129100000D03*
X192500000Y-131640000D03*
X192500000Y-134180000D03*
X195040000Y-116400000D03*
X195040000Y-118940000D03*
X195040000Y-121480000D03*
X195040000Y-124020000D03*
X195040000Y-126560000D03*
X195040000Y-129100000D03*
X195040000Y-131640000D03*
X195040000Y-134180000D03*
D31*
X183900000Y-63080000D03*
X183900000Y-62120000D03*
D14*
X107950000Y-133400000D03*
D15*
X110490000Y-133400000D03*
X107950000Y-135940000D03*
X110490000Y-135940000D03*
X107950000Y-138480000D03*
X110490000Y-138480000D03*
X107950000Y-141020000D03*
X110490000Y-141020000D03*
X107950000Y-143560000D03*
X110490000Y-143560000D03*
X107950000Y-146100000D03*
X110490000Y-146100000D03*
D13*
X131100000Y-78310000D03*
X131100000Y-77290000D03*
D11*
X118426000Y-89662000D03*
X119826000Y-89662000D03*
D32*
X162910000Y-64600000D03*
X161890000Y-64600000D03*
D31*
X178400000Y-64480000D03*
X178400000Y-63520000D03*
D33*
X180500000Y-71337500D03*
X180900000Y-71337500D03*
X181300000Y-71337500D03*
X181700000Y-71337500D03*
X182100000Y-71337500D03*
X182500000Y-71337500D03*
X182900000Y-71337500D03*
X183300000Y-71337500D03*
X183700000Y-71337500D03*
X184100000Y-71337500D03*
X184500000Y-71337500D03*
X184900000Y-71337500D03*
X185300000Y-71337500D03*
X185700000Y-71337500D03*
D34*
X186537500Y-70500000D03*
X186537500Y-70100000D03*
X186537500Y-69700000D03*
X186537500Y-69300000D03*
X186537500Y-68900000D03*
X186537500Y-68500000D03*
X186537500Y-68100000D03*
X186537500Y-67700000D03*
X186537500Y-67300000D03*
X186537500Y-66900000D03*
X186537500Y-66500000D03*
X186537500Y-66100000D03*
X186537500Y-65700000D03*
X186537500Y-65300000D03*
D33*
X185700000Y-64462500D03*
X185300000Y-64462500D03*
X184900000Y-64462500D03*
X184500000Y-64462500D03*
X184100000Y-64462500D03*
X183700000Y-64462500D03*
X183300000Y-64462500D03*
X182900000Y-64462500D03*
X182500000Y-64462500D03*
X182100000Y-64462500D03*
X181700000Y-64462500D03*
X181300000Y-64462500D03*
X180900000Y-64462500D03*
X180500000Y-64462500D03*
D34*
X179662500Y-65300000D03*
X179662500Y-65700000D03*
X179662500Y-66100000D03*
X179662500Y-66500000D03*
X179662500Y-66900000D03*
X179662500Y-67300000D03*
X179662500Y-67700000D03*
X179662500Y-68100000D03*
X179662500Y-68500000D03*
X179662500Y-68900000D03*
X179662500Y-69300000D03*
X179662500Y-69700000D03*
X179662500Y-70100000D03*
X179662500Y-70500000D03*
D35*
X183100000Y-67900000D03*
D14*
X114300000Y-133400000D03*
D15*
X116840000Y-133400000D03*
X114300000Y-135940000D03*
X116840000Y-135940000D03*
X114300000Y-138480000D03*
X116840000Y-138480000D03*
X114300000Y-141020000D03*
X116840000Y-141020000D03*
X114300000Y-143560000D03*
X116840000Y-143560000D03*
X114300000Y-146100000D03*
X116840000Y-146100000D03*
D11*
X129856000Y-107442000D03*
X131256000Y-107442000D03*
D19*
X179790000Y-58400000D03*
X180810000Y-58400000D03*
D11*
X118426000Y-111506000D03*
X119826000Y-111506000D03*
X118426000Y-129286000D03*
X119826000Y-129286000D03*
X106996000Y-92202000D03*
X108396000Y-92202000D03*
D19*
X166190000Y-64900000D03*
X167210000Y-64900000D03*
D11*
X141286000Y-102362000D03*
X142686000Y-102362000D03*
X129856000Y-99822000D03*
X131256000Y-99822000D03*
D14*
X113025000Y-89662000D03*
D15*
X115565000Y-89662000D03*
X113025000Y-92202000D03*
X115565000Y-92202000D03*
X113025000Y-94742000D03*
X115565000Y-94742000D03*
X113025000Y-97282000D03*
X115565000Y-97282000D03*
X113025000Y-99822000D03*
X115565000Y-99822000D03*
X113025000Y-102362000D03*
X115565000Y-102362000D03*
X113025000Y-104902000D03*
X115565000Y-104902000D03*
X113025000Y-107442000D03*
X115565000Y-107442000D03*
D11*
X141286000Y-124206000D03*
X142686000Y-124206000D03*
D25*
X165400000Y-67490000D03*
X165400000Y-68510000D03*
D11*
X118426000Y-124206000D03*
X119826000Y-124206000D03*
D14*
X124460000Y-111506000D03*
D15*
X127000000Y-111506000D03*
X124460000Y-114046000D03*
X127000000Y-114046000D03*
X124460000Y-116586000D03*
X127000000Y-116586000D03*
X124460000Y-119126000D03*
X127000000Y-119126000D03*
X124460000Y-121666000D03*
X127000000Y-121666000D03*
X124460000Y-124206000D03*
X127000000Y-124206000D03*
X124460000Y-126746000D03*
X127000000Y-126746000D03*
X124460000Y-129286000D03*
X127000000Y-129286000D03*
D25*
X105900000Y-77390000D03*
X105900000Y-78410000D03*
D14*
X101600000Y-133400000D03*
D15*
X104140000Y-133400000D03*
X101600000Y-135940000D03*
X104140000Y-135940000D03*
X101600000Y-138480000D03*
X104140000Y-138480000D03*
X101600000Y-141020000D03*
X104140000Y-141020000D03*
X101600000Y-143560000D03*
X104140000Y-143560000D03*
X101600000Y-146100000D03*
X104140000Y-146100000D03*
D26*
X177625000Y-78255000D03*
X177625000Y-79525000D03*
X177625000Y-80795000D03*
X177625000Y-82065000D03*
X177625000Y-83335000D03*
X177625000Y-84605000D03*
X177625000Y-85875000D03*
X177625000Y-87145000D03*
X182775000Y-87145000D03*
X182775000Y-85875000D03*
X182775000Y-84605000D03*
X182775000Y-83335000D03*
X182775000Y-82065000D03*
X182775000Y-80795000D03*
X182775000Y-79525000D03*
X182775000Y-78255000D03*
D13*
X164300000Y-68510000D03*
X164300000Y-67490000D03*
D19*
X179790000Y-57300000D03*
X180810000Y-57300000D03*
D14*
X101600000Y-111506000D03*
D15*
X104140000Y-111506000D03*
X101600000Y-114046000D03*
X104140000Y-114046000D03*
X101600000Y-116586000D03*
X104140000Y-116586000D03*
X101600000Y-119126000D03*
X104140000Y-119126000D03*
X101600000Y-121666000D03*
X104140000Y-121666000D03*
X101600000Y-124206000D03*
X104140000Y-124206000D03*
X101600000Y-126746000D03*
X104140000Y-126746000D03*
X101600000Y-129286000D03*
X104140000Y-129286000D03*
D11*
X106996000Y-107442000D03*
X108396000Y-107442000D03*
X141286000Y-94742000D03*
X142686000Y-94742000D03*
D36*
X167100000Y-68495000D03*
X167100000Y-69765000D03*
X167100000Y-71035000D03*
X167100000Y-72305000D03*
X174300000Y-72305000D03*
X174300000Y-71035000D03*
X174300000Y-69765000D03*
X174300000Y-68495000D03*
D11*
X129856000Y-111506000D03*
X131256000Y-111506000D03*
X141286000Y-111506000D03*
X142686000Y-111506000D03*
X118426000Y-102362000D03*
X119826000Y-102362000D03*
D37*
X158600000Y-60912500D03*
X158600000Y-59087500D03*
D11*
X118426000Y-94742000D03*
X119826000Y-94742000D03*
D38*
X189625000Y-71600000D03*
X191375000Y-71600000D03*
X191375000Y-70200000D03*
X189625000Y-70200000D03*
D21*
X177200000Y-63420000D03*
X177200000Y-64380000D03*
D24*
X102146100Y-151358600D03*
D39*
X109400000Y-68600000D03*
X116850000Y-68600000D03*
X124300000Y-68600000D03*
X111850000Y-70800000D03*
X121850000Y-70800000D03*
X121850000Y-58650000D03*
X111850000Y-58650000D03*
X114350000Y-58650000D03*
X119350000Y-58650000D03*
D13*
X134200000Y-78310000D03*
X134200000Y-77290000D03*
D11*
X118426000Y-119126000D03*
X119826000Y-119126000D03*
D22*
X175480000Y-60800000D03*
X174520000Y-60800000D03*
D25*
X188000000Y-64090000D03*
X188000000Y-65110000D03*
D11*
X129856000Y-94742000D03*
X131256000Y-94742000D03*
D32*
X190310000Y-68800000D03*
X189290000Y-68800000D03*
D11*
X106996000Y-116586000D03*
X108396000Y-116586000D03*
D13*
X128600000Y-69010000D03*
X128600000Y-67990000D03*
D39*
X132700000Y-68600000D03*
X140150000Y-68600000D03*
X147600000Y-68600000D03*
X135150000Y-70800000D03*
X145150000Y-70800000D03*
X145150000Y-58650000D03*
X135150000Y-58650000D03*
X137650000Y-58650000D03*
X142650000Y-58650000D03*
D11*
X106996000Y-104902000D03*
X108396000Y-104902000D03*
D40*
X169050000Y-79237500D03*
X168400000Y-79237500D03*
X167750000Y-79237500D03*
X167100000Y-79237500D03*
X166450000Y-79237500D03*
X165800000Y-79237500D03*
X165150000Y-79237500D03*
X165150000Y-84962500D03*
X165800000Y-84962500D03*
X166450000Y-84962500D03*
X167100000Y-84962500D03*
X167750000Y-84962500D03*
X168400000Y-84962500D03*
X169050000Y-84962500D03*
D11*
X118426000Y-126746000D03*
X119826000Y-126746000D03*
D12*
X114520000Y-77800000D03*
X115480000Y-77800000D03*
D14*
X124460000Y-89662000D03*
D15*
X127000000Y-89662000D03*
X124460000Y-92202000D03*
X127000000Y-92202000D03*
X124460000Y-94742000D03*
X127000000Y-94742000D03*
X124460000Y-97282000D03*
X127000000Y-97282000D03*
X124460000Y-99822000D03*
X127000000Y-99822000D03*
X124460000Y-102362000D03*
X127000000Y-102362000D03*
X124460000Y-104902000D03*
X127000000Y-104902000D03*
X124460000Y-107442000D03*
X127000000Y-107442000D03*
D22*
X175460000Y-61800000D03*
X174500000Y-61800000D03*
D11*
X106996000Y-89662000D03*
X108396000Y-89662000D03*
D21*
X175000000Y-58720000D03*
X175000000Y-59680000D03*
D12*
X168120000Y-86500000D03*
X169080000Y-86500000D03*
D31*
X180400000Y-63180000D03*
X180400000Y-62220000D03*
D11*
X129856000Y-116586000D03*
X131256000Y-116586000D03*
D12*
X188520000Y-67500000D03*
X189480000Y-67500000D03*
D11*
X106996000Y-124206000D03*
X108396000Y-124206000D03*
D13*
X138700000Y-78310000D03*
X138700000Y-77290000D03*
D14*
X135890000Y-111506000D03*
D15*
X138430000Y-111506000D03*
X135890000Y-114046000D03*
X138430000Y-114046000D03*
X135890000Y-116586000D03*
X138430000Y-116586000D03*
X135890000Y-119126000D03*
X138430000Y-119126000D03*
X135890000Y-121666000D03*
X138430000Y-121666000D03*
X135890000Y-124206000D03*
X138430000Y-124206000D03*
X135890000Y-126746000D03*
X138430000Y-126746000D03*
X135890000Y-129286000D03*
X138430000Y-129286000D03*
D41*
X169792100Y-149141100D03*
X170442100Y-149141100D03*
X171092100Y-149141100D03*
X171742100Y-149141100D03*
X172392100Y-149141100D03*
X173042100Y-149141100D03*
X173692100Y-149141100D03*
X173692100Y-143416100D03*
X173042100Y-143416100D03*
X172392100Y-143416100D03*
X171742100Y-143416100D03*
X171092100Y-143416100D03*
X170442100Y-143416100D03*
X169792100Y-143416100D03*
D32*
X162092100Y-139420600D03*
X161072100Y-139420600D03*
D13*
X129600000Y-78310000D03*
X129600000Y-77290000D03*
D11*
X141286000Y-129286000D03*
X142686000Y-129286000D03*
D32*
X114810000Y-74900000D03*
X113790000Y-74900000D03*
D14*
X133350000Y-133400000D03*
D15*
X135890000Y-133400000D03*
X133350000Y-135940000D03*
X135890000Y-135940000D03*
X133350000Y-138480000D03*
X135890000Y-138480000D03*
X133350000Y-141020000D03*
X135890000Y-141020000D03*
X133350000Y-143560000D03*
X135890000Y-143560000D03*
X133350000Y-146100000D03*
X135890000Y-146100000D03*
D14*
X190400000Y-63900000D03*
D15*
X192940000Y-63900000D03*
X195480000Y-63900000D03*
D11*
X129856000Y-129286000D03*
X131256000Y-129286000D03*
D14*
X194400000Y-79600000D03*
D15*
X194400000Y-82140000D03*
X194400000Y-84680000D03*
X194400000Y-87220000D03*
D27*
X189100000Y-59137500D03*
X189100000Y-57262500D03*
D13*
X174100000Y-66110000D03*
X174100000Y-65090000D03*
D42*
X108394100Y-79222600D03*
X108394100Y-81762600D03*
X114694100Y-81762600D03*
X114694100Y-80492600D03*
X114694100Y-79222600D03*
D31*
X192800000Y-70780000D03*
X192800000Y-69820000D03*
D14*
X135890000Y-89662000D03*
D15*
X138430000Y-89662000D03*
X135890000Y-92202000D03*
X138430000Y-92202000D03*
X135890000Y-94742000D03*
X138430000Y-94742000D03*
X135890000Y-97282000D03*
X138430000Y-97282000D03*
X135890000Y-99822000D03*
X138430000Y-99822000D03*
X135890000Y-102362000D03*
X138430000Y-102362000D03*
X135890000Y-104902000D03*
X138430000Y-104902000D03*
X135890000Y-107442000D03*
X138430000Y-107442000D03*
D11*
X118426000Y-107442000D03*
X119826000Y-107442000D03*
M02*
