G04 #@! TF.GenerationSoftware,KiCad,Pcbnew,6.0.9*
G04 #@! TF.CreationDate,2022-12-27T21:22:08+01:00*
G04 #@! TF.ProjectId,OpenDeck-r2.2.1,4f70656e-4465-4636-9b2d-72322e322e30,rev?*
G04 #@! TF.SameCoordinates,Original*
G04 #@! TF.FileFunction,Soldermask,Bot*
G04 #@! TF.FilePolarity,Negative*
%FSLAX46Y46*%
G04 Gerber Fmt 4.6, Leading zero omitted, Abs format (unit mm)*
G04 Created by KiCad (PCBNEW 6.0.9) date 2022-12-27 21:22:08*
%MOMM*%
%LPD*%
G01*
G04 APERTURE LIST*
%ADD10R,1.700000X1.700000*%
%ADD11O,1.700000X1.700000*%
%ADD12C,0.600000*%
%ADD13O,0.950000X2.050000*%
%ADD14O,0.950000X1.750000*%
%ADD15C,5.600000*%
%ADD16C,2.300000*%
G04 APERTURE END LIST*
D10*
X127000000Y-133400000D03*
D11*
X129540000Y-133400000D03*
X127000000Y-135940000D03*
X129540000Y-135940000D03*
X127000000Y-138480000D03*
X129540000Y-138480000D03*
X127000000Y-141020000D03*
X129540000Y-141020000D03*
X127000000Y-143560000D03*
X129540000Y-143560000D03*
X127000000Y-146100000D03*
X129540000Y-146100000D03*
D12*
X167790000Y-61680000D03*
X162010000Y-61680000D03*
D13*
X169225000Y-62170000D03*
X160575000Y-62170000D03*
D14*
X169225000Y-58000000D03*
X160575000Y-58000000D03*
D10*
X146050000Y-133400000D03*
D11*
X148590000Y-133400000D03*
X146050000Y-135940000D03*
X148590000Y-135940000D03*
X146050000Y-138480000D03*
X148590000Y-138480000D03*
X146050000Y-141020000D03*
X148590000Y-141020000D03*
X146050000Y-143560000D03*
X148590000Y-143560000D03*
X146050000Y-146100000D03*
X148590000Y-146100000D03*
D15*
X102146100Y-58648600D03*
D10*
X113025000Y-111506000D03*
D11*
X115565000Y-111506000D03*
X113025000Y-114046000D03*
X115565000Y-114046000D03*
X113025000Y-116586000D03*
X115565000Y-116586000D03*
X113025000Y-119126000D03*
X115565000Y-119126000D03*
X113025000Y-121666000D03*
X115565000Y-121666000D03*
X113025000Y-124206000D03*
X115565000Y-124206000D03*
X113025000Y-126746000D03*
X115565000Y-126746000D03*
X113025000Y-129286000D03*
X115565000Y-129286000D03*
D10*
X187600000Y-79600000D03*
D11*
X187600000Y-82140000D03*
X187600000Y-84680000D03*
X187600000Y-87220000D03*
D10*
X157800000Y-68900000D03*
D11*
X157800000Y-71440000D03*
D10*
X120650000Y-133400000D03*
D11*
X123190000Y-133400000D03*
X120650000Y-135940000D03*
X123190000Y-135940000D03*
X120650000Y-138480000D03*
X123190000Y-138480000D03*
X120650000Y-141020000D03*
X123190000Y-141020000D03*
X120650000Y-143560000D03*
X123190000Y-143560000D03*
X120650000Y-146100000D03*
X123190000Y-146100000D03*
D10*
X161700000Y-68925000D03*
D11*
X161700000Y-71465000D03*
D10*
X179555000Y-92700000D03*
D11*
X179555000Y-95240000D03*
X179555000Y-97780000D03*
X179555000Y-100320000D03*
X179555000Y-102860000D03*
X179555000Y-105400000D03*
X179555000Y-107940000D03*
X179555000Y-110480000D03*
X182095000Y-92700000D03*
X182095000Y-95240000D03*
X182095000Y-97780000D03*
X182095000Y-100320000D03*
X182095000Y-102860000D03*
X182095000Y-105400000D03*
X182095000Y-107940000D03*
X182095000Y-110480000D03*
X184635000Y-92700000D03*
X184635000Y-95240000D03*
X184635000Y-97780000D03*
X184635000Y-100320000D03*
X184635000Y-102860000D03*
X184635000Y-105400000D03*
X184635000Y-107940000D03*
X184635000Y-110480000D03*
D15*
X194856100Y-151358600D03*
D10*
X139700000Y-133400000D03*
D11*
X142240000Y-133400000D03*
X139700000Y-135940000D03*
X142240000Y-135940000D03*
X139700000Y-138480000D03*
X142240000Y-138480000D03*
X139700000Y-141020000D03*
X142240000Y-141020000D03*
X139700000Y-143560000D03*
X142240000Y-143560000D03*
X139700000Y-146100000D03*
X142240000Y-146100000D03*
D15*
X194856100Y-58648600D03*
D10*
X101600000Y-89662000D03*
D11*
X104140000Y-89662000D03*
X101600000Y-92202000D03*
X104140000Y-92202000D03*
X101600000Y-94742000D03*
X104140000Y-94742000D03*
X101600000Y-97282000D03*
X104140000Y-97282000D03*
X101600000Y-99822000D03*
X104140000Y-99822000D03*
X101600000Y-102362000D03*
X104140000Y-102362000D03*
X101600000Y-104902000D03*
X104140000Y-104902000D03*
X101600000Y-107442000D03*
X104140000Y-107442000D03*
D10*
X190000000Y-92700000D03*
D11*
X190000000Y-95240000D03*
X190000000Y-97780000D03*
X190000000Y-100320000D03*
X190000000Y-102860000D03*
X190000000Y-105400000D03*
X190000000Y-107940000D03*
X190000000Y-110480000D03*
X192540000Y-92700000D03*
X192540000Y-95240000D03*
X192540000Y-97780000D03*
X192540000Y-100320000D03*
X192540000Y-102860000D03*
X192540000Y-105400000D03*
X192540000Y-107940000D03*
X192540000Y-110480000D03*
X195080000Y-92700000D03*
X195080000Y-95240000D03*
X195080000Y-97780000D03*
X195080000Y-100320000D03*
X195080000Y-102860000D03*
X195080000Y-105400000D03*
X195080000Y-107940000D03*
X195080000Y-110480000D03*
D10*
X179555000Y-116400000D03*
D11*
X179555000Y-118940000D03*
X179555000Y-121480000D03*
X179555000Y-124020000D03*
X179555000Y-126560000D03*
X179555000Y-129100000D03*
X179555000Y-131640000D03*
X179555000Y-134180000D03*
X182095000Y-116400000D03*
X182095000Y-118940000D03*
X182095000Y-121480000D03*
X182095000Y-124020000D03*
X182095000Y-126560000D03*
X182095000Y-129100000D03*
X182095000Y-131640000D03*
X182095000Y-134180000D03*
X184635000Y-116400000D03*
X184635000Y-118940000D03*
X184635000Y-121480000D03*
X184635000Y-124020000D03*
X184635000Y-126560000D03*
X184635000Y-129100000D03*
X184635000Y-131640000D03*
X184635000Y-134180000D03*
D10*
X189960000Y-116400000D03*
D11*
X189960000Y-118940000D03*
X189960000Y-121480000D03*
X189960000Y-124020000D03*
X189960000Y-126560000D03*
X189960000Y-129100000D03*
X189960000Y-131640000D03*
X189960000Y-134180000D03*
X192500000Y-116400000D03*
X192500000Y-118940000D03*
X192500000Y-121480000D03*
X192500000Y-124020000D03*
X192500000Y-126560000D03*
X192500000Y-129100000D03*
X192500000Y-131640000D03*
X192500000Y-134180000D03*
X195040000Y-116400000D03*
X195040000Y-118940000D03*
X195040000Y-121480000D03*
X195040000Y-124020000D03*
X195040000Y-126560000D03*
X195040000Y-129100000D03*
X195040000Y-131640000D03*
X195040000Y-134180000D03*
D10*
X107950000Y-133400000D03*
D11*
X110490000Y-133400000D03*
X107950000Y-135940000D03*
X110490000Y-135940000D03*
X107950000Y-138480000D03*
X110490000Y-138480000D03*
X107950000Y-141020000D03*
X110490000Y-141020000D03*
X107950000Y-143560000D03*
X110490000Y-143560000D03*
X107950000Y-146100000D03*
X110490000Y-146100000D03*
D10*
X114300000Y-133400000D03*
D11*
X116840000Y-133400000D03*
X114300000Y-135940000D03*
X116840000Y-135940000D03*
X114300000Y-138480000D03*
X116840000Y-138480000D03*
X114300000Y-141020000D03*
X116840000Y-141020000D03*
X114300000Y-143560000D03*
X116840000Y-143560000D03*
X114300000Y-146100000D03*
X116840000Y-146100000D03*
D10*
X113025000Y-89662000D03*
D11*
X115565000Y-89662000D03*
X113025000Y-92202000D03*
X115565000Y-92202000D03*
X113025000Y-94742000D03*
X115565000Y-94742000D03*
X113025000Y-97282000D03*
X115565000Y-97282000D03*
X113025000Y-99822000D03*
X115565000Y-99822000D03*
X113025000Y-102362000D03*
X115565000Y-102362000D03*
X113025000Y-104902000D03*
X115565000Y-104902000D03*
X113025000Y-107442000D03*
X115565000Y-107442000D03*
D10*
X124460000Y-111506000D03*
D11*
X127000000Y-111506000D03*
X124460000Y-114046000D03*
X127000000Y-114046000D03*
X124460000Y-116586000D03*
X127000000Y-116586000D03*
X124460000Y-119126000D03*
X127000000Y-119126000D03*
X124460000Y-121666000D03*
X127000000Y-121666000D03*
X124460000Y-124206000D03*
X127000000Y-124206000D03*
X124460000Y-126746000D03*
X127000000Y-126746000D03*
X124460000Y-129286000D03*
X127000000Y-129286000D03*
D10*
X101600000Y-133400000D03*
D11*
X104140000Y-133400000D03*
X101600000Y-135940000D03*
X104140000Y-135940000D03*
X101600000Y-138480000D03*
X104140000Y-138480000D03*
X101600000Y-141020000D03*
X104140000Y-141020000D03*
X101600000Y-143560000D03*
X104140000Y-143560000D03*
X101600000Y-146100000D03*
X104140000Y-146100000D03*
D10*
X101600000Y-111506000D03*
D11*
X104140000Y-111506000D03*
X101600000Y-114046000D03*
X104140000Y-114046000D03*
X101600000Y-116586000D03*
X104140000Y-116586000D03*
X101600000Y-119126000D03*
X104140000Y-119126000D03*
X101600000Y-121666000D03*
X104140000Y-121666000D03*
X101600000Y-124206000D03*
X104140000Y-124206000D03*
X101600000Y-126746000D03*
X104140000Y-126746000D03*
X101600000Y-129286000D03*
X104140000Y-129286000D03*
D15*
X102146100Y-151358600D03*
D16*
X109400000Y-68600000D03*
X116850000Y-68600000D03*
X124300000Y-68600000D03*
X111850000Y-70800000D03*
X121850000Y-70800000D03*
X121850000Y-58650000D03*
X111850000Y-58650000D03*
X114350000Y-58650000D03*
X119350000Y-58650000D03*
X132700000Y-68600000D03*
X140150000Y-68600000D03*
X147600000Y-68600000D03*
X135150000Y-70800000D03*
X145150000Y-70800000D03*
X145150000Y-58650000D03*
X135150000Y-58650000D03*
X137650000Y-58650000D03*
X142650000Y-58650000D03*
D10*
X124460000Y-89662000D03*
D11*
X127000000Y-89662000D03*
X124460000Y-92202000D03*
X127000000Y-92202000D03*
X124460000Y-94742000D03*
X127000000Y-94742000D03*
X124460000Y-97282000D03*
X127000000Y-97282000D03*
X124460000Y-99822000D03*
X127000000Y-99822000D03*
X124460000Y-102362000D03*
X127000000Y-102362000D03*
X124460000Y-104902000D03*
X127000000Y-104902000D03*
X124460000Y-107442000D03*
X127000000Y-107442000D03*
D10*
X135890000Y-111506000D03*
D11*
X138430000Y-111506000D03*
X135890000Y-114046000D03*
X138430000Y-114046000D03*
X135890000Y-116586000D03*
X138430000Y-116586000D03*
X135890000Y-119126000D03*
X138430000Y-119126000D03*
X135890000Y-121666000D03*
X138430000Y-121666000D03*
X135890000Y-124206000D03*
X138430000Y-124206000D03*
X135890000Y-126746000D03*
X138430000Y-126746000D03*
X135890000Y-129286000D03*
X138430000Y-129286000D03*
D10*
X133350000Y-133400000D03*
D11*
X135890000Y-133400000D03*
X133350000Y-135940000D03*
X135890000Y-135940000D03*
X133350000Y-138480000D03*
X135890000Y-138480000D03*
X133350000Y-141020000D03*
X135890000Y-141020000D03*
X133350000Y-143560000D03*
X135890000Y-143560000D03*
X133350000Y-146100000D03*
X135890000Y-146100000D03*
D10*
X190400000Y-63900000D03*
D11*
X192940000Y-63900000D03*
X195480000Y-63900000D03*
D10*
X194400000Y-79600000D03*
D11*
X194400000Y-82140000D03*
X194400000Y-84680000D03*
X194400000Y-87220000D03*
D10*
X135890000Y-89662000D03*
D11*
X138430000Y-89662000D03*
X135890000Y-92202000D03*
X138430000Y-92202000D03*
X135890000Y-94742000D03*
X138430000Y-94742000D03*
X135890000Y-97282000D03*
X138430000Y-97282000D03*
X135890000Y-99822000D03*
X138430000Y-99822000D03*
X135890000Y-102362000D03*
X138430000Y-102362000D03*
X135890000Y-104902000D03*
X138430000Y-104902000D03*
X135890000Y-107442000D03*
X138430000Y-107442000D03*
M02*
