M48
; DRILL file {KiCad 9.0.6} date 2025-12-16T13:29:30+0100
; FORMAT={-:-/ absolute / metric / decimal}
; #@! TF.CreationDate,2025-12-16T13:29:30+01:00
; #@! TF.GenerationSoftware,Kicad,Pcbnew,9.0.6
; #@! TF.FileFunction,Plated,1,2,PTH
FMAT,2
METRIC
; #@! TA.AperFunction,Plated,PTH,ViaDrill
T1C0.400
; #@! TA.AperFunction,Plated,PTH,ComponentDrill
T2C1.000
; #@! TA.AperFunction,Plated,PTH,ComponentDrill
T3C1.200
; #@! TA.AperFunction,Plated,PTH,ComponentDrill
T4C2.500
%
G90
G05
T1
X162.65Y-159.8
X167.4Y-174.1
X167.5Y-165.55
X184.65Y-173.05
X189.4Y-187.2
X190.9Y-163.65
X205.9Y-172.0
X207.2Y-172.4
X211.15Y-162.85
X211.8Y-183.15
X212.5Y-173.627
X213.1Y-187.0
X214.05Y-158.3
X218.8Y-179.0
X238.3Y-176.6
X241.1Y-163.55
X264.15Y-163.3
X264.45Y-186.6
X265.55Y-176.3
X267.3Y-182.0
X267.8Y-163.25
X285.55Y-175.25
X290.05Y-171.85
X304.4Y-172.0
X306.372Y-172.628
X310.5Y-173.7
X312.5Y-173.7
X312.65Y-182.9
X314.8Y-187.6
X320.2Y-179.55
X323.05Y-172.0
X334.5Y-169.6
X335.15Y-180.2
X339.4Y-164.1
X339.4Y-165.3
X340.0Y-185.9
X340.95Y-164.7
X342.1Y-159.0
X342.1Y-160.0
X342.1Y-161.0
X342.1Y-161.927
X342.1Y-162.9
X342.7Y-165.5
X343.8Y-165.5
X345.0Y-170.3
X348.1Y-170.3
X350.3Y-176.2
X351.3Y-171.373
X352.4Y-171.373
X352.7Y-168.6
X353.0Y-174.327
X353.2Y-177.2
X354.7Y-177.2
X354.8Y-174.5
X363.55Y-180.6
X368.0Y-162.95
X372.3Y-178.75
X388.3Y-175.4
X388.35Y-164.1
X398.05Y-170.45
X404.5Y-172.0
X406.6Y-172.427
X410.5Y-173.8
X412.5Y-173.8
X412.6Y-182.65
X420.35Y-180.0
X424.85Y-173.25
X436.65Y-181.7
X445.6Y-172.15
X465.8Y-182.1
X466.2Y-163.3
X470.9Y-174.5
X470.9Y-175.5
X472.45Y-170.85
X472.525Y-172.8
X475.375Y-172.6
X475.375Y-174.75
X475.45Y-171.55
X476.75Y-173.55
X488.4Y-169.25
X489.05Y-172.6
X489.2Y-163.65
X490.05Y-168.75
X490.4Y-174.427
X491.4Y-174.7
X493.4Y-172.544
X503.9Y-172.0
X505.65Y-172.6
X510.123Y-172.077
X510.4Y-173.9
X511.8Y-183.2
X522.85Y-174.7
T2
X150.4Y-160.0
X154.0Y-163.6
X154.0Y-181.4
X157.6Y-185.0
X175.4Y-160.0
X179.0Y-163.6
X179.0Y-181.4
X182.6Y-185.0
X200.4Y-160.0
X204.0Y-163.6
X204.0Y-181.4
X207.6Y-185.0
X225.4Y-160.0
X229.0Y-163.6
X229.0Y-181.4
X232.6Y-185.0
X250.4Y-160.0
X254.0Y-163.6
X254.0Y-181.4
X257.6Y-185.0
X275.4Y-160.0
X279.0Y-163.6
X279.0Y-181.4
X282.6Y-185.0
X300.4Y-160.0
X304.0Y-163.6
X304.0Y-181.4
X307.6Y-185.0
X325.4Y-160.0
X329.0Y-163.6
X329.0Y-181.4
X332.6Y-185.0
X350.4Y-160.0
X354.0Y-163.6
X354.0Y-181.4
X357.6Y-185.0
X375.4Y-160.0
X379.0Y-163.6
X379.0Y-181.4
X382.6Y-185.0
X400.4Y-160.0
X404.0Y-163.6
X404.0Y-181.4
X407.6Y-185.0
X425.4Y-160.0
X429.0Y-163.6
X429.0Y-181.4
X432.6Y-185.0
X450.4Y-160.0
X454.0Y-163.6
X454.0Y-181.4
X457.6Y-185.0
X475.4Y-160.0
X479.0Y-163.6
X479.0Y-181.4
X482.6Y-185.0
X500.4Y-160.0
X504.0Y-163.6
X504.0Y-181.4
X507.6Y-185.0
X525.4Y-160.0
X529.0Y-163.6
X529.0Y-181.4
X532.6Y-185.0
T3
X150.75Y-157.75
X150.75Y-162.25
X150.75Y-182.75
X150.75Y-187.25
X157.25Y-157.75
X157.25Y-162.25
X157.25Y-182.75
X157.25Y-187.25
X175.75Y-157.75
X175.75Y-162.25
X175.75Y-182.75
X175.75Y-187.25
X182.25Y-157.75
X182.25Y-162.25
X182.25Y-182.75
X182.25Y-187.25
X200.75Y-157.75
X200.75Y-162.25
X200.75Y-182.75
X200.75Y-187.25
X207.25Y-157.75
X207.25Y-162.25
X207.25Y-182.75
X207.25Y-187.25
X225.75Y-157.75
X225.75Y-162.25
X225.75Y-182.75
X225.75Y-187.25
X232.25Y-157.75
X232.25Y-162.25
X232.25Y-182.75
X232.25Y-187.25
X250.75Y-157.75
X250.75Y-162.25
X250.75Y-182.75
X250.75Y-187.25
X257.25Y-157.75
X257.25Y-162.25
X257.25Y-182.75
X257.25Y-187.25
X275.75Y-157.75
X275.75Y-162.25
X275.75Y-182.75
X275.75Y-187.25
X282.25Y-157.75
X282.25Y-162.25
X282.25Y-182.75
X282.25Y-187.25
X300.75Y-157.75
X300.75Y-162.25
X300.75Y-182.75
X300.75Y-187.25
X307.25Y-157.75
X307.25Y-162.25
X307.25Y-182.75
X307.25Y-187.25
X325.75Y-157.75
X325.75Y-162.25
X325.75Y-182.75
X325.75Y-187.25
X332.25Y-157.75
X332.25Y-162.25
X332.25Y-182.75
X332.25Y-187.25
X350.75Y-157.75
X350.75Y-162.25
X350.75Y-182.75
X350.75Y-187.25
X357.25Y-157.75
X357.25Y-162.25
X357.25Y-182.75
X357.25Y-187.25
X375.75Y-157.75
X375.75Y-162.25
X375.75Y-182.75
X375.75Y-187.25
X382.25Y-157.75
X382.25Y-162.25
X382.25Y-182.75
X382.25Y-187.25
X400.75Y-157.75
X400.75Y-162.25
X400.75Y-182.75
X400.75Y-187.25
X407.25Y-157.75
X407.25Y-162.25
X407.25Y-182.75
X407.25Y-187.25
X425.75Y-157.75
X425.75Y-162.25
X425.75Y-182.75
X425.75Y-187.25
X432.25Y-157.75
X432.25Y-162.25
X432.25Y-182.75
X432.25Y-187.25
X450.75Y-157.75
X450.75Y-162.25
X450.75Y-182.75
X450.75Y-187.25
X457.25Y-157.75
X457.25Y-162.25
X457.25Y-182.75
X457.25Y-187.25
X475.75Y-157.75
X475.75Y-162.25
X475.75Y-182.75
X475.75Y-187.25
X482.25Y-157.75
X482.25Y-162.25
X482.25Y-182.75
X482.25Y-187.25
X500.75Y-157.75
X500.75Y-162.25
X500.75Y-182.75
X500.75Y-187.25
X507.25Y-157.75
X507.25Y-162.25
X507.25Y-182.75
X507.25Y-187.25
X525.75Y-157.75
X525.75Y-162.25
X525.75Y-182.75
X525.75Y-187.25
X532.25Y-157.75
X532.25Y-162.25
X532.25Y-182.75
X532.25Y-187.25
T4
X154.0Y-172.5
X166.2Y-185.1
X166.9Y-160.25
X216.5Y-172.5
X241.5Y-160.0
X241.5Y-185.0
X291.5Y-160.0
X291.5Y-185.0
X316.5Y-172.5
X366.5Y-172.5
X391.5Y-160.0
X391.5Y-185.0
X441.5Y-160.0
X441.5Y-185.0
X466.5Y-172.5
X515.95Y-185.4
X516.15Y-160.55
X529.0Y-172.5
M30
