%TF.GenerationSoftware,KiCad,Pcbnew,9.0.6*%
%TF.CreationDate,2025-12-16T13:29:30+01:00*%
%TF.ProjectId,ButtonsLEDs,42757474-6f6e-4734-9c45-44732e6b6963,rev?*%
%TF.SameCoordinates,Original*%
%TF.FileFunction,Drillmap*%
%TF.FilePolarity,Positive*%
%FSLAX45Y45*%
G04 Gerber Fmt 4.5, Leading zero omitted, Abs format (unit mm)*
G04 Created by KiCad (PCBNEW 9.0.6) date 2025-12-16 13:29:30*
%MOMM*%
%LPD*%
G01*
G04 APERTURE LIST*
%ADD10C,0.100000*%
%ADD11C,0.200000*%
G04 APERTURE END LIST*
D10*
X14650000Y-17655000D02*
X14650000Y-19150000D01*
X14650000Y-15450000D02*
X14650000Y-16840000D01*
X53650000Y-15450000D02*
X14650000Y-15450000D01*
X53200000Y-17655000D02*
X53650000Y-17655000D01*
X53200000Y-17655000D02*
X53200000Y-16840000D01*
X15095000Y-17655000D02*
X14650000Y-17655000D01*
X53650000Y-16840000D02*
X53650000Y-15450000D01*
X14650000Y-19150000D02*
X53650000Y-19150000D01*
X15095000Y-16840000D02*
X15095000Y-17655000D01*
X53650000Y-19150000D02*
X53650000Y-17655000D01*
X15095000Y-16840000D02*
X14650000Y-16840000D01*
X53200000Y-16840000D02*
X53650000Y-16840000D01*
D11*
X14905777Y-19466484D02*
X14905777Y-19266484D01*
X14905777Y-19266484D02*
X14953396Y-19266484D01*
X14953396Y-19266484D02*
X14981967Y-19276008D01*
X14981967Y-19276008D02*
X15001015Y-19295055D01*
X15001015Y-19295055D02*
X15010539Y-19314103D01*
X15010539Y-19314103D02*
X15020062Y-19352198D01*
X15020062Y-19352198D02*
X15020062Y-19380770D01*
X15020062Y-19380770D02*
X15010539Y-19418865D01*
X15010539Y-19418865D02*
X15001015Y-19437912D01*
X15001015Y-19437912D02*
X14981967Y-19456960D01*
X14981967Y-19456960D02*
X14953396Y-19466484D01*
X14953396Y-19466484D02*
X14905777Y-19466484D01*
X15105777Y-19466484D02*
X15105777Y-19333150D01*
X15105777Y-19371246D02*
X15115301Y-19352198D01*
X15115301Y-19352198D02*
X15124824Y-19342674D01*
X15124824Y-19342674D02*
X15143872Y-19333150D01*
X15143872Y-19333150D02*
X15162920Y-19333150D01*
X15229586Y-19466484D02*
X15229586Y-19333150D01*
X15229586Y-19266484D02*
X15220062Y-19276008D01*
X15220062Y-19276008D02*
X15229586Y-19285531D01*
X15229586Y-19285531D02*
X15239110Y-19276008D01*
X15239110Y-19276008D02*
X15229586Y-19266484D01*
X15229586Y-19266484D02*
X15229586Y-19285531D01*
X15353396Y-19466484D02*
X15334348Y-19456960D01*
X15334348Y-19456960D02*
X15324824Y-19437912D01*
X15324824Y-19437912D02*
X15324824Y-19266484D01*
X15458158Y-19466484D02*
X15439110Y-19456960D01*
X15439110Y-19456960D02*
X15429586Y-19437912D01*
X15429586Y-19437912D02*
X15429586Y-19266484D01*
X15686729Y-19466484D02*
X15686729Y-19266484D01*
X15686729Y-19266484D02*
X15753396Y-19409341D01*
X15753396Y-19409341D02*
X15820062Y-19266484D01*
X15820062Y-19266484D02*
X15820062Y-19466484D01*
X16001015Y-19466484D02*
X16001015Y-19361722D01*
X16001015Y-19361722D02*
X15991491Y-19342674D01*
X15991491Y-19342674D02*
X15972443Y-19333150D01*
X15972443Y-19333150D02*
X15934348Y-19333150D01*
X15934348Y-19333150D02*
X15915301Y-19342674D01*
X16001015Y-19456960D02*
X15981967Y-19466484D01*
X15981967Y-19466484D02*
X15934348Y-19466484D01*
X15934348Y-19466484D02*
X15915301Y-19456960D01*
X15915301Y-19456960D02*
X15905777Y-19437912D01*
X15905777Y-19437912D02*
X15905777Y-19418865D01*
X15905777Y-19418865D02*
X15915301Y-19399817D01*
X15915301Y-19399817D02*
X15934348Y-19390293D01*
X15934348Y-19390293D02*
X15981967Y-19390293D01*
X15981967Y-19390293D02*
X16001015Y-19380770D01*
X16096253Y-19333150D02*
X16096253Y-19533150D01*
X16096253Y-19342674D02*
X16115301Y-19333150D01*
X16115301Y-19333150D02*
X16153396Y-19333150D01*
X16153396Y-19333150D02*
X16172443Y-19342674D01*
X16172443Y-19342674D02*
X16181967Y-19352198D01*
X16181967Y-19352198D02*
X16191491Y-19371246D01*
X16191491Y-19371246D02*
X16191491Y-19428389D01*
X16191491Y-19428389D02*
X16181967Y-19447436D01*
X16181967Y-19447436D02*
X16172443Y-19456960D01*
X16172443Y-19456960D02*
X16153396Y-19466484D01*
X16153396Y-19466484D02*
X16115301Y-19466484D01*
X16115301Y-19466484D02*
X16096253Y-19456960D01*
X16277205Y-19447436D02*
X16286729Y-19456960D01*
X16286729Y-19456960D02*
X16277205Y-19466484D01*
X16277205Y-19466484D02*
X16267682Y-19456960D01*
X16267682Y-19456960D02*
X16277205Y-19447436D01*
X16277205Y-19447436D02*
X16277205Y-19466484D01*
X16277205Y-19342674D02*
X16286729Y-19352198D01*
X16286729Y-19352198D02*
X16277205Y-19361722D01*
X16277205Y-19361722D02*
X16267682Y-19352198D01*
X16267682Y-19352198D02*
X16277205Y-19342674D01*
X16277205Y-19342674D02*
X16277205Y-19361722D01*
M02*
