G04 #@! TF.GenerationSoftware,KiCad,Pcbnew,9.0.6*
G04 #@! TF.CreationDate,2025-12-16T13:29:28+01:00*
G04 #@! TF.ProjectId,ButtonsLEDs,42757474-6f6e-4734-9c45-44732e6b6963,rev?*
G04 #@! TF.SameCoordinates,Original*
G04 #@! TF.FileFunction,Soldermask,Top*
G04 #@! TF.FilePolarity,Negative*
%FSLAX46Y46*%
G04 Gerber Fmt 4.6, Leading zero omitted, Abs format (unit mm)*
G04 Created by KiCad (PCBNEW 9.0.6) date 2025-12-16 13:29:28*
%MOMM*%
%LPD*%
G01*
G04 APERTURE LIST*
%ADD10C,4.000000*%
%ADD11C,1.762000*%
%ADD12C,1.962000*%
G04 APERTURE END LIST*
D10*
X241500000Y-185000000D03*
D11*
X479000000Y-163600000D03*
X475400000Y-160000000D03*
D12*
X475750000Y-157750000D03*
X482250000Y-157750000D03*
X475750000Y-162250000D03*
X482250000Y-162250000D03*
D11*
X379000000Y-163600000D03*
X375400000Y-160000000D03*
D12*
X375750000Y-157750000D03*
X382250000Y-157750000D03*
X375750000Y-162250000D03*
X382250000Y-162250000D03*
D11*
X429000000Y-163600000D03*
X425400000Y-160000000D03*
D12*
X425750000Y-157750000D03*
X432250000Y-157750000D03*
X425750000Y-162250000D03*
X432250000Y-162250000D03*
D11*
X304000000Y-163600000D03*
X300400000Y-160000000D03*
D12*
X300750000Y-157750000D03*
X307250000Y-157750000D03*
X300750000Y-162250000D03*
X307250000Y-162250000D03*
D10*
X391500000Y-185000000D03*
D11*
X304000000Y-181400000D03*
X307600000Y-185000000D03*
D12*
X307250000Y-187250000D03*
X300750000Y-187250000D03*
X307250000Y-182750000D03*
X300750000Y-182750000D03*
D11*
X279000000Y-163600000D03*
X275400000Y-160000000D03*
D12*
X275750000Y-157750000D03*
X282250000Y-157750000D03*
X275750000Y-162250000D03*
X282250000Y-162250000D03*
D10*
X166200000Y-185100000D03*
D11*
X504000000Y-163600000D03*
X500400000Y-160000000D03*
D12*
X500750000Y-157750000D03*
X507250000Y-157750000D03*
X500750000Y-162250000D03*
X507250000Y-162250000D03*
D11*
X529000000Y-163600000D03*
X525400000Y-160000000D03*
D12*
X525750000Y-157750000D03*
X532250000Y-157750000D03*
X525750000Y-162250000D03*
X532250000Y-162250000D03*
D11*
X179000000Y-181400000D03*
X182600000Y-185000000D03*
D12*
X182250000Y-187250000D03*
X175750000Y-187250000D03*
X182250000Y-182750000D03*
X175750000Y-182750000D03*
D10*
X529000000Y-172500000D03*
D11*
X254000000Y-163600000D03*
X250400000Y-160000000D03*
D12*
X250750000Y-157750000D03*
X257250000Y-157750000D03*
X250750000Y-162250000D03*
X257250000Y-162250000D03*
D11*
X204000000Y-181400000D03*
X207600000Y-185000000D03*
D12*
X207250000Y-187250000D03*
X200750000Y-187250000D03*
X207250000Y-182750000D03*
X200750000Y-182750000D03*
D11*
X404000000Y-163600000D03*
X400400000Y-160000000D03*
D12*
X400750000Y-157750000D03*
X407250000Y-157750000D03*
X400750000Y-162250000D03*
X407250000Y-162250000D03*
D10*
X291500000Y-160000000D03*
D11*
X429000000Y-181400000D03*
X432600000Y-185000000D03*
D12*
X432250000Y-187250000D03*
X425750000Y-187250000D03*
X432250000Y-182750000D03*
X425750000Y-182750000D03*
D11*
X354000000Y-163600000D03*
X350400000Y-160000000D03*
D12*
X350750000Y-157750000D03*
X357250000Y-157750000D03*
X350750000Y-162250000D03*
X357250000Y-162250000D03*
D11*
X154000000Y-181400000D03*
X157600000Y-185000000D03*
D12*
X157250000Y-187250000D03*
X150750000Y-187250000D03*
X157250000Y-182750000D03*
X150750000Y-182750000D03*
D11*
X229000000Y-181400000D03*
X232600000Y-185000000D03*
D12*
X232250000Y-187250000D03*
X225750000Y-187250000D03*
X232250000Y-182750000D03*
X225750000Y-182750000D03*
D10*
X366500000Y-172500000D03*
D11*
X254000000Y-181400000D03*
X257600000Y-185000000D03*
D12*
X257250000Y-187250000D03*
X250750000Y-187250000D03*
X257250000Y-182750000D03*
X250750000Y-182750000D03*
D11*
X279000000Y-181400000D03*
X282600000Y-185000000D03*
D12*
X282250000Y-187250000D03*
X275750000Y-187250000D03*
X282250000Y-182750000D03*
X275750000Y-182750000D03*
D11*
X329000000Y-163600000D03*
X325400000Y-160000000D03*
D12*
X325750000Y-157750000D03*
X332250000Y-157750000D03*
X325750000Y-162250000D03*
X332250000Y-162250000D03*
D10*
X466500000Y-172500000D03*
D11*
X454000000Y-181400000D03*
X457600000Y-185000000D03*
D12*
X457250000Y-187250000D03*
X450750000Y-187250000D03*
X457250000Y-182750000D03*
X450750000Y-182750000D03*
D11*
X229000000Y-163600000D03*
X225400000Y-160000000D03*
D12*
X225750000Y-157750000D03*
X232250000Y-157750000D03*
X225750000Y-162250000D03*
X232250000Y-162250000D03*
D11*
X179000000Y-163600000D03*
X175400000Y-160000000D03*
D12*
X175750000Y-157750000D03*
X182250000Y-157750000D03*
X175750000Y-162250000D03*
X182250000Y-162250000D03*
D11*
X454000000Y-163600000D03*
X450400000Y-160000000D03*
D12*
X450750000Y-157750000D03*
X457250000Y-157750000D03*
X450750000Y-162250000D03*
X457250000Y-162250000D03*
D11*
X154000000Y-163600000D03*
X150400000Y-160000000D03*
D12*
X150750000Y-157750000D03*
X157250000Y-157750000D03*
X150750000Y-162250000D03*
X157250000Y-162250000D03*
D10*
X316500000Y-172500000D03*
X241500000Y-160000000D03*
X291500000Y-185000000D03*
X154000000Y-172500000D03*
D11*
X479000000Y-181400000D03*
X482600000Y-185000000D03*
D12*
X482250000Y-187250000D03*
X475750000Y-187250000D03*
X482250000Y-182750000D03*
X475750000Y-182750000D03*
D10*
X216500000Y-172500000D03*
D11*
X204000000Y-163600000D03*
X200400000Y-160000000D03*
D12*
X200750000Y-157750000D03*
X207250000Y-157750000D03*
X200750000Y-162250000D03*
X207250000Y-162250000D03*
D11*
X354000000Y-181400000D03*
X357600000Y-185000000D03*
D12*
X357250000Y-187250000D03*
X350750000Y-187250000D03*
X357250000Y-182750000D03*
X350750000Y-182750000D03*
D10*
X166900000Y-160250000D03*
D11*
X504000000Y-181400000D03*
X507600000Y-185000000D03*
D12*
X507250000Y-187250000D03*
X500750000Y-187250000D03*
X507250000Y-182750000D03*
X500750000Y-182750000D03*
D10*
X441500000Y-160000000D03*
D11*
X329000000Y-181400000D03*
X332600000Y-185000000D03*
D12*
X332250000Y-187250000D03*
X325750000Y-187250000D03*
X332250000Y-182750000D03*
X325750000Y-182750000D03*
D10*
X516150000Y-160550000D03*
D11*
X529000000Y-181400000D03*
X532600000Y-185000000D03*
D12*
X532250000Y-187250000D03*
X525750000Y-187250000D03*
X532250000Y-182750000D03*
X525750000Y-182750000D03*
D10*
X391500000Y-160000000D03*
D11*
X404000000Y-181400000D03*
X407600000Y-185000000D03*
D12*
X407250000Y-187250000D03*
X400750000Y-187250000D03*
X407250000Y-182750000D03*
X400750000Y-182750000D03*
D10*
X515950000Y-185400000D03*
X441500000Y-185000000D03*
D11*
X379000000Y-181400000D03*
X382600000Y-185000000D03*
D12*
X382250000Y-187250000D03*
X375750000Y-187250000D03*
X382250000Y-182750000D03*
X375750000Y-182750000D03*
M02*
