<?xml version="1.0" encoding="UTF-8" standalone="no"?>
<!DOCTYPE svg PUBLIC "-//W3C//DTD SVG 1.1//EN"
 "http://www.w3.org/Graphics/SVG/1.1/DTD/svg11.dtd">
<!-- Generated by graphviz version 2.38.0 (20140413.2041)
 -->
<!-- Title: core/src/adc/ADC.h Pages: 1 -->
<svg width="256pt" height="88pt"
 viewBox="0.00 0.00 256.00 88.00" xmlns="http://www.w3.org/2000/svg" xmlns:xlink="http://www.w3.org/1999/xlink">
<g id="graph0" class="graph" transform="scale(1 1) rotate(0) translate(4 84)">
<title>core/src/adc/ADC.h</title>
<polygon fill="white" stroke="none" points="-4,4 -4,-84 252,-84 252,4 -4,4"/>
<!-- Node1 -->
<g id="node1" class="node"><title>Node1</title>
<polygon fill="#bfbfbf" stroke="black" points="73,-58.5 73,-79.5 192,-79.5 192,-58.5 73,-58.5"/>
<text text-anchor="middle" x="132.5" y="-65.9" font-family="Helvetica,sans-Serif" font-size="12.00">core/src/adc/ADC.h</text>
</g>
<!-- Node2 -->
<g id="node2" class="node"><title>Node2</title>
<g id="a_node2"><a xlink:href="_a_d_c_8cpp.html" target="_top" xlink:title="core/src/adc/ADC.cpp">
<polygon fill="white" stroke="black" points="0,-0.5 0,-21.5 133,-21.5 133,-0.5 0,-0.5"/>
<text text-anchor="middle" x="66.5" y="-7.9" font-family="Helvetica,sans-Serif" font-size="12.00">core/src/adc/ADC.cpp</text>
</a>
</g>
</g>
<!-- Node1&#45;&gt;Node2 -->
<g id="edge1" class="edge"><title>Node1&#45;&gt;Node2</title>
<path fill="none" stroke="midnightblue" d="M113.224,-51.645C101.746,-41.9058 87.5723,-29.8795 77.8646,-21.6427"/>
<polygon fill="midnightblue" stroke="midnightblue" points="111.114,-54.4445 121.004,-58.2455 115.643,-49.1069 111.114,-54.4445"/>
</g>
<!-- Node3 -->
<g id="node3" class="node"><title>Node3</title>
<g id="a_node3"><a xlink:href="_core_8h.html" target="_top" xlink:title="core/src/Core.h">
<polygon fill="white" stroke="black" points="151,-0.5 151,-21.5 248,-21.5 248,-0.5 151,-0.5"/>
<text text-anchor="middle" x="199.5" y="-7.9" font-family="Helvetica,sans-Serif" font-size="12.00">core/src/Core.h</text>
</a>
</g>
</g>
<!-- Node1&#45;&gt;Node3 -->
<g id="edge2" class="edge"><title>Node1&#45;&gt;Node3</title>
<path fill="none" stroke="midnightblue" d="M152.068,-51.645C163.72,-41.9058 178.108,-29.8795 187.963,-21.6427"/>
<polygon fill="midnightblue" stroke="midnightblue" points="149.599,-49.1469 144.171,-58.2455 154.088,-54.5179 149.599,-49.1469"/>
</g>
</g>
</svg>
