<?xml version="1.0" encoding="UTF-8" standalone="no"?>
<!DOCTYPE svg PUBLIC "-//W3C//DTD SVG 1.1//EN"
 "http://www.w3.org/Graphics/SVG/1.1/DTD/svg11.dtd">
<!-- Generated by graphviz version 2.38.0 (20140413.2041)
 -->
<!-- Title: core/src/adc/ADC.cpp Pages: 1 -->
<svg width="142pt" height="88pt"
 viewBox="0.00 0.00 141.50 88.00" xmlns="http://www.w3.org/2000/svg" xmlns:xlink="http://www.w3.org/1999/xlink">
<g id="graph0" class="graph" transform="scale(1 1) rotate(0) translate(4 84)">
<title>core/src/adc/ADC.cpp</title>
<polygon fill="white" stroke="none" points="-4,4 -4,-84 137.5,-84 137.5,4 -4,4"/>
<!-- Node0 -->
<g id="node1" class="node"><title>Node0</title>
<polygon fill="#bfbfbf" stroke="black" points="0,-58.5 0,-79.5 133,-79.5 133,-58.5 0,-58.5"/>
<text text-anchor="middle" x="66.5" y="-65.9" font-family="Helvetica,sans-Serif" font-size="12.00">core/src/adc/ADC.cpp</text>
</g>
<!-- Node1 -->
<g id="node2" class="node"><title>Node1</title>
<g id="a_node2"><a xlink:href="_a_d_c_8h.html" target="_top" xlink:title="ADC.h">
<polygon fill="white" stroke="black" points="3.5,-0.5 3.5,-21.5 55.5,-21.5 55.5,-0.5 3.5,-0.5"/>
<text text-anchor="middle" x="29.5" y="-7.9" font-family="Helvetica,sans-Serif" font-size="12.00">ADC.h</text>
</a>
</g>
</g>
<!-- Node0&#45;&gt;Node1 -->
<g id="edge1" class="edge"><title>Node0&#45;&gt;Node1</title>
<path fill="none" stroke="midnightblue" d="M60.0551,-58.2455C54.9618,-50.5367 47.7092,-39.5598 41.548,-30.2348"/>
<polygon fill="midnightblue" stroke="midnightblue" points="44.3038,-28.0566 35.8711,-21.6427 38.4635,-31.9155 44.3038,-28.0566"/>
</g>
<!-- Node2 -->
<g id="node3" class="node"><title>Node2</title>
<g id="a_node3"><a xlink:href="core_2src_2adc_2_config_8h.html" target="_top" xlink:title="Config.h">
<polygon fill="white" stroke="black" points="73.5,-0.5 73.5,-21.5 133.5,-21.5 133.5,-0.5 73.5,-0.5"/>
<text text-anchor="middle" x="103.5" y="-7.9" font-family="Helvetica,sans-Serif" font-size="12.00">Config.h</text>
</a>
</g>
</g>
<!-- Node0&#45;&gt;Node2 -->
<g id="edge2" class="edge"><title>Node0&#45;&gt;Node2</title>
<path fill="none" stroke="midnightblue" d="M72.9449,-58.2455C78.0382,-50.5367 85.2908,-39.5598 91.452,-30.2348"/>
<polygon fill="midnightblue" stroke="midnightblue" points="94.5365,-31.9155 97.1289,-21.6427 88.6962,-28.0566 94.5365,-31.9155"/>
</g>
</g>
</svg>
