<?xml version="1.0" encoding="UTF-8" standalone="no"?>
<!DOCTYPE svg PUBLIC "-//W3C//DTD SVG 1.1//EN"
 "http://www.w3.org/Graphics/SVG/1.1/DTD/svg11.dtd">
<!-- Generated by graphviz version 2.38.0 (20140413.2041)
 -->
<!-- Title: database/blocks/Blocks.h Pages: 1 -->
<svg width="389pt" height="88pt"
 viewBox="0.00 0.00 388.50 88.00" xmlns="http://www.w3.org/2000/svg" xmlns:xlink="http://www.w3.org/1999/xlink">
<g id="graph0" class="graph" transform="scale(1 1) rotate(0) translate(4 84)">
<title>database/blocks/Blocks.h</title>
<polygon fill="white" stroke="none" points="-4,4 -4,-84 384.5,-84 384.5,4 -4,4"/>
<!-- Node0 -->
<g id="node1" class="node"><title>Node0</title>
<polygon fill="#bfbfbf" stroke="black" points="113.5,-58.5 113.5,-79.5 263.5,-79.5 263.5,-58.5 113.5,-58.5"/>
<text text-anchor="middle" x="188.5" y="-65.9" font-family="Helvetica,sans-Serif" font-size="12.00">database/blocks/Blocks.h</text>
</g>
<!-- Node1 -->
<g id="node2" class="node"><title>Node1</title>
<g id="a_node2"><a xlink:href="database_2blocks_2_m_i_d_i_8h.html" target="_top" xlink:title="MIDI.h">
<polygon fill="white" stroke="black" points="0,-0.5 0,-21.5 49,-21.5 49,-0.5 0,-0.5"/>
<text text-anchor="middle" x="24.5" y="-7.9" font-family="Helvetica,sans-Serif" font-size="12.00">MIDI.h</text>
</a>
</g>
</g>
<!-- Node0&#45;&gt;Node1 -->
<g id="edge1" class="edge"><title>Node0&#45;&gt;Node1</title>
<path fill="none" stroke="midnightblue" d="M160.307,-58.3733C132.167,-48.7645 88.891,-33.9872 58.7806,-23.7056"/>
<polygon fill="midnightblue" stroke="midnightblue" points="59.7094,-20.3243 49.1148,-20.4051 57.4473,-26.9488 59.7094,-20.3243"/>
</g>
<!-- Node2 -->
<g id="node3" class="node"><title>Node2</title>
<g id="a_node3"><a xlink:href="database_2blocks_2_buttons_8h.html" target="_top" xlink:title="Buttons.h">
<polygon fill="white" stroke="black" points="67,-0.5 67,-21.5 132,-21.5 132,-0.5 67,-0.5"/>
<text text-anchor="middle" x="99.5" y="-7.9" font-family="Helvetica,sans-Serif" font-size="12.00">Buttons.h</text>
</a>
</g>
</g>
<!-- Node0&#45;&gt;Node2 -->
<g id="edge2" class="edge"><title>Node0&#45;&gt;Node2</title>
<path fill="none" stroke="midnightblue" d="M172.997,-58.2455C159.342,-49.6534 139.234,-37.0014 123.501,-27.1018"/>
<polygon fill="midnightblue" stroke="midnightblue" points="125.153,-24.006 114.825,-21.6427 121.425,-29.9307 125.153,-24.006"/>
</g>
<!-- Node3 -->
<g id="node4" class="node"><title>Node3</title>
<g id="a_node4"><a xlink:href="database_2blocks_2_encoders_8h.html" target="_top" xlink:title="Encoders.h">
<polygon fill="white" stroke="black" points="150.5,-0.5 150.5,-21.5 226.5,-21.5 226.5,-0.5 150.5,-0.5"/>
<text text-anchor="middle" x="188.5" y="-7.9" font-family="Helvetica,sans-Serif" font-size="12.00">Encoders.h</text>
</a>
</g>
</g>
<!-- Node0&#45;&gt;Node3 -->
<g id="edge3" class="edge"><title>Node0&#45;&gt;Node3</title>
<path fill="none" stroke="midnightblue" d="M188.5,-58.2455C188.5,-50.9382 188.5,-40.6944 188.5,-31.7046"/>
<polygon fill="midnightblue" stroke="midnightblue" points="192,-31.6426 188.5,-21.6427 185,-31.6427 192,-31.6426"/>
</g>
<!-- Node4 -->
<g id="node5" class="node"><title>Node4</title>
<g id="a_node5"><a xlink:href="database_2blocks_2_analog_8h.html" target="_top" xlink:title="Analog.h">
<polygon fill="white" stroke="black" points="244.5,-0.5 244.5,-21.5 306.5,-21.5 306.5,-0.5 244.5,-0.5"/>
<text text-anchor="middle" x="275.5" y="-7.9" font-family="Helvetica,sans-Serif" font-size="12.00">Analog.h</text>
</a>
</g>
</g>
<!-- Node0&#45;&gt;Node4 -->
<g id="edge4" class="edge"><title>Node0&#45;&gt;Node4</title>
<path fill="none" stroke="midnightblue" d="M203.654,-58.2455C217.003,-49.6534 236.659,-37.0014 252.038,-27.1018"/>
<polygon fill="midnightblue" stroke="midnightblue" points="254.005,-29.9982 260.519,-21.6427 250.216,-24.1121 254.005,-29.9982"/>
</g>
<!-- Node5 -->
<g id="node6" class="node"><title>Node5</title>
<g id="a_node6"><a xlink:href="database_2blocks_2_l_e_ds_8h.html" target="_top" xlink:title="LEDs.h">
<polygon fill="white" stroke="black" points="324.5,-0.5 324.5,-21.5 380.5,-21.5 380.5,-0.5 324.5,-0.5"/>
<text text-anchor="middle" x="352.5" y="-7.9" font-family="Helvetica,sans-Serif" font-size="12.00">LEDs.h</text>
</a>
</g>
</g>
<!-- Node0&#45;&gt;Node5 -->
<g id="edge5" class="edge"><title>Node0&#45;&gt;Node5</title>
<path fill="none" stroke="midnightblue" d="M216.693,-58.3733C243.845,-49.1016 285.091,-35.0178 315.002,-24.804"/>
<polygon fill="midnightblue" stroke="midnightblue" points="316.343,-28.0449 324.675,-21.5011 314.081,-21.4204 316.343,-28.0449"/>
</g>
</g>
</svg>
