<?xml version="1.0" encoding="UTF-8" standalone="no"?>
<!DOCTYPE svg PUBLIC "-//W3C//DTD SVG 1.1//EN"
 "http://www.w3.org/Graphics/SVG/1.1/DTD/svg11.dtd">
<!-- Generated by graphviz version 2.38.0 (20140413.2041)
 -->
<!-- Title: database/blocks/Blocks.h Pages: 1 -->
<svg width="2315pt" height="520pt"
 viewBox="0.00 0.00 2315.00 520.00" xmlns="http://www.w3.org/2000/svg" xmlns:xlink="http://www.w3.org/1999/xlink">
<g id="graph0" class="graph" transform="scale(1 1) rotate(0) translate(4 516)">
<title>database/blocks/Blocks.h</title>
<polygon fill="white" stroke="none" points="-4,4 -4,-516 2311,-516 2311,4 -4,4"/>
<!-- Node6 -->
<g id="node1" class="node"><title>Node6</title>
<polygon fill="#bfbfbf" stroke="black" points="1512,-490.5 1512,-511.5 1662,-511.5 1662,-490.5 1512,-490.5"/>
<text text-anchor="middle" x="1587" y="-497.9" font-family="Helvetica,sans-Serif" font-size="12.00">database/blocks/Blocks.h</text>
</g>
<!-- Node7 -->
<g id="node2" class="node"><title>Node7</title>
<g id="a_node2"><a xlink:href="_database_8h.html" target="_top" xlink:title="database/Database.h">
<polygon fill="white" stroke="black" points="1522,-432.5 1522,-453.5 1652,-453.5 1652,-432.5 1522,-432.5"/>
<text text-anchor="middle" x="1587" y="-439.9" font-family="Helvetica,sans-Serif" font-size="12.00">database/Database.h</text>
</a>
</g>
</g>
<!-- Node6&#45;&gt;Node7 -->
<g id="edge1" class="edge"><title>Node6&#45;&gt;Node7</title>
<path fill="none" stroke="midnightblue" d="M1587,-480.158C1587,-471.155 1587,-460.92 1587,-453.643"/>
<polygon fill="midnightblue" stroke="midnightblue" points="1583.5,-480.246 1587,-490.246 1590.5,-480.246 1583.5,-480.246"/>
</g>
<!-- Node8 -->
<g id="node3" class="node"><title>Node8</title>
<g id="a_node3"><a xlink:href="interface_2leds_2_constants_8h.html" target="_top" xlink:title="interface/leds/Constants.h">
<polygon fill="white" stroke="black" points="1018.5,-374.5 1018.5,-395.5 1169.5,-395.5 1169.5,-374.5 1018.5,-374.5"/>
<text text-anchor="middle" x="1094" y="-381.9" font-family="Helvetica,sans-Serif" font-size="12.00">interface/leds/Constants.h</text>
</a>
</g>
</g>
<!-- Node7&#45;&gt;Node8 -->
<g id="edge2" class="edge"><title>Node7&#45;&gt;Node8</title>
<path fill="none" stroke="midnightblue" d="M1511.63,-433.439C1418.89,-422.904 1262.34,-405.122 1169.52,-394.579"/>
<polygon fill="midnightblue" stroke="midnightblue" points="1511.46,-436.941 1521.79,-434.593 1512.25,-429.986 1511.46,-436.941"/>
</g>
<!-- Node23 -->
<g id="node18" class="node"><title>Node23</title>
<g id="a_node18"><a xlink:href="_open_deck_8h.html" target="_top" xlink:title="OpenDeck.h">
<polygon fill="white" stroke="black" points="1546,-200.5 1546,-221.5 1628,-221.5 1628,-200.5 1546,-200.5"/>
<text text-anchor="middle" x="1587" y="-207.9" font-family="Helvetica,sans-Serif" font-size="12.00">OpenDeck.h</text>
</a>
</g>
</g>
<!-- Node7&#45;&gt;Node23 -->
<g id="edge41" class="edge"><title>Node7&#45;&gt;Node23</title>
<path fill="none" stroke="midnightblue" d="M1587,-422.234C1587,-374.871 1587,-256.256 1587,-221.631"/>
<polygon fill="midnightblue" stroke="midnightblue" points="1583.5,-422.41 1587,-432.41 1590.5,-422.41 1583.5,-422.41"/>
</g>
<!-- Node26 -->
<g id="node21" class="node"><title>Node26</title>
<g id="a_node21"><a xlink:href="interface_2analog_2_analog_8h.html" target="_top" xlink:title="interface/analog/Analog.h">
<polygon fill="white" stroke="black" points="1371.5,-65 1371.5,-86 1520.5,-86 1520.5,-65 1371.5,-65"/>
<text text-anchor="middle" x="1446" y="-72.4" font-family="Helvetica,sans-Serif" font-size="12.00">interface/analog/Analog.h</text>
</a>
</g>
</g>
<!-- Node7&#45;&gt;Node26 -->
<g id="edge42" class="edge"><title>Node7&#45;&gt;Node26</title>
<path fill="none" stroke="midnightblue" d="M1546.67,-428.895C1505,-412.52 1446,-380.13 1446,-328 1446,-328 1446,-328 1446,-210 1446,-163.646 1446,-108.238 1446,-86.2154"/>
<polygon fill="midnightblue" stroke="midnightblue" points="1545.47,-432.18 1556.06,-432.431 1547.93,-425.63 1545.47,-432.18"/>
</g>
<!-- Node30 -->
<g id="node25" class="node"><title>Node30</title>
<g id="a_node25"><a xlink:href="interface_2buttons_2_buttons_8cpp.html" target="_top" xlink:title="interface/buttons/Buttons.cpp">
<polygon fill="white" stroke="black" points="1168.5,-65 1168.5,-86 1335.5,-86 1335.5,-65 1168.5,-65"/>
<text text-anchor="middle" x="1252" y="-72.4" font-family="Helvetica,sans-Serif" font-size="12.00">interface/buttons/Buttons.cpp</text>
</a>
</g>
</g>
<!-- Node7&#45;&gt;Node30 -->
<g id="edge43" class="edge"><title>Node7&#45;&gt;Node30</title>
<path fill="none" stroke="midnightblue" d="M1511.9,-435.374C1398.84,-423.294 1198,-392.727 1198,-328 1198,-328 1198,-328 1198,-210 1198,-173.023 1202.29,-162.924 1217,-129 1223.97,-112.92 1235.9,-96.4322 1243.87,-86.3276"/>
<polygon fill="midnightblue" stroke="midnightblue" points="1511.58,-438.859 1521.89,-436.417 1512.31,-431.897 1511.58,-438.859"/>
</g>
<!-- Node32 -->
<g id="node27" class="node"><title>Node32</title>
<g id="a_node27"><a xlink:href="interface_2encoders_2_encoders_8cpp.html" target="_top" xlink:title="interface/encoders\l/Encoders.cpp">
<polygon fill="white" stroke="black" points="1849.5,-58.5 1849.5,-92.5 1962.5,-92.5 1962.5,-58.5 1849.5,-58.5"/>
<text text-anchor="start" x="1857.5" y="-78.9" font-family="Helvetica,sans-Serif" font-size="12.00">interface/encoders</text>
<text text-anchor="middle" x="1906" y="-65.9" font-family="Helvetica,sans-Serif" font-size="12.00">/Encoders.cpp</text>
</a>
</g>
</g>
<!-- Node7&#45;&gt;Node32 -->
<g id="edge44" class="edge"><title>Node7&#45;&gt;Node32</title>
<path fill="none" stroke="midnightblue" d="M1662.33,-436.176C1779.22,-425.038 1991,-395.539 1991,-328 1991,-328 1991,-328 1991,-210 1991,-172.919 1990.91,-160.284 1971,-129 1961.58,-114.192 1946.54,-101.653 1933.3,-92.5472"/>
<polygon fill="midnightblue" stroke="midnightblue" points="1661.99,-432.693 1652.36,-437.104 1662.64,-439.662 1661.99,-432.693"/>
</g>
<!-- Node35 -->
<g id="node30" class="node"><title>Node35</title>
<g id="a_node30"><a xlink:href="_database_8cpp.html" target="_top" xlink:title="database/Database.cpp">
<polygon fill="white" stroke="black" points="2019.5,-374.5 2019.5,-395.5 2162.5,-395.5 2162.5,-374.5 2019.5,-374.5"/>
<text text-anchor="middle" x="2091" y="-381.9" font-family="Helvetica,sans-Serif" font-size="12.00">database/Database.cpp</text>
</a>
</g>
</g>
<!-- Node7&#45;&gt;Node35 -->
<g id="edge39" class="edge"><title>Node7&#45;&gt;Node35</title>
<path fill="none" stroke="midnightblue" d="M1662.36,-433.848C1746.07,-424.76 1885.22,-409.555 2005,-396 2009.63,-395.476 2014.4,-394.932 2019.21,-394.381"/>
<polygon fill="midnightblue" stroke="midnightblue" points="1661.74,-430.394 1652.18,-434.953 1662.5,-437.354 1661.74,-430.394"/>
</g>
<!-- Node36 -->
<g id="node31" class="node"><title>Node36</title>
<g id="a_node31"><a xlink:href="_layout_8cpp.html" target="_top" xlink:title="database/Layout.cpp">
<polygon fill="white" stroke="black" points="2181,-374.5 2181,-395.5 2307,-395.5 2307,-374.5 2181,-374.5"/>
<text text-anchor="middle" x="2244" y="-381.9" font-family="Helvetica,sans-Serif" font-size="12.00">database/Layout.cpp</text>
</a>
</g>
</g>
<!-- Node7&#45;&gt;Node36 -->
<g id="edge40" class="edge"><title>Node7&#45;&gt;Node36</title>
<path fill="none" stroke="midnightblue" d="M1662.49,-437.447C1773.91,-430.411 1988.86,-415.632 2171,-396 2174.18,-395.657 2177.43,-395.286 2180.72,-394.895"/>
<polygon fill="midnightblue" stroke="midnightblue" points="1662.12,-433.963 1652.36,-438.083 1662.56,-440.949 1662.12,-433.963"/>
</g>
<!-- Node9 -->
<g id="node4" class="node"><title>Node9</title>
<g id="a_node4"><a xlink:href="_export_8h.html" target="_top" xlink:title="interface/Export.h">
<polygon fill="white" stroke="black" points="875.5,-316.5 875.5,-337.5 982.5,-337.5 982.5,-316.5 875.5,-316.5"/>
<text text-anchor="middle" x="929" y="-323.9" font-family="Helvetica,sans-Serif" font-size="12.00">interface/Export.h</text>
</a>
</g>
</g>
<!-- Node8&#45;&gt;Node9 -->
<g id="edge3" class="edge"><title>Node8&#45;&gt;Node9</title>
<path fill="none" stroke="midnightblue" d="M1055.86,-371.057C1025.67,-360.808 984.184,-346.729 956.994,-337.501"/>
<polygon fill="midnightblue" stroke="midnightblue" points="1055.04,-374.474 1065.64,-374.373 1057.29,-367.845 1055.04,-374.474"/>
</g>
<!-- Node21 -->
<g id="node16" class="node"><title>Node21</title>
<g id="a_node16"><a xlink:href="interface_2leds_2_l_e_ds_8h.html" target="_top" xlink:title="interface/leds/LEDs.h">
<polygon fill="white" stroke="black" points="1042,-316.5 1042,-337.5 1170,-337.5 1170,-316.5 1042,-316.5"/>
<text text-anchor="middle" x="1106" y="-323.9" font-family="Helvetica,sans-Serif" font-size="12.00">interface/leds/LEDs.h</text>
</a>
</g>
</g>
<!-- Node8&#45;&gt;Node21 -->
<g id="edge15" class="edge"><title>Node8&#45;&gt;Node21</title>
<path fill="none" stroke="midnightblue" d="M1098.19,-364.454C1100.13,-355.38 1102.36,-345 1103.93,-337.643"/>
<polygon fill="midnightblue" stroke="midnightblue" points="1094.76,-363.734 1096.09,-374.246 1101.61,-365.201 1094.76,-363.734"/>
</g>
<!-- Node10 -->
<g id="node5" class="node"><title>Node10</title>
<g id="a_node5"><a xlink:href="_import_8h.html" target="_top" xlink:title="board/Import.h">
<polygon fill="white" stroke="black" points="694,-258.5 694,-279.5 786,-279.5 786,-258.5 694,-258.5"/>
<text text-anchor="middle" x="740" y="-265.9" font-family="Helvetica,sans-Serif" font-size="12.00">board/Import.h</text>
</a>
</g>
</g>
<!-- Node9&#45;&gt;Node10 -->
<g id="edge4" class="edge"><title>Node9&#45;&gt;Node10</title>
<path fill="none" stroke="midnightblue" d="M886.664,-313.456C851.971,-303.176 803.617,-288.849 772.066,-279.501"/>
<polygon fill="midnightblue" stroke="midnightblue" points="885.927,-316.888 896.51,-316.373 887.916,-310.177 885.927,-316.888"/>
</g>
<!-- Node11 -->
<g id="node6" class="node"><title>Node11</title>
<g id="a_node6"><a xlink:href="_common_8h.html" target="_top" xlink:title="board/Common.h">
<polygon fill="white" stroke="black" points="612.5,-200.5 612.5,-221.5 719.5,-221.5 719.5,-200.5 612.5,-200.5"/>
<text text-anchor="middle" x="666" y="-207.9" font-family="Helvetica,sans-Serif" font-size="12.00">board/Common.h</text>
</a>
</g>
</g>
<!-- Node10&#45;&gt;Node11 -->
<g id="edge5" class="edge"><title>Node10&#45;&gt;Node11</title>
<path fill="none" stroke="midnightblue" d="M719.134,-252.21C706.137,-242.374 689.838,-230.039 678.742,-221.643"/>
<polygon fill="midnightblue" stroke="midnightblue" points="717.024,-255.002 727.11,-258.246 721.248,-249.42 717.024,-255.002"/>
</g>
<!-- Node12 -->
<g id="node7" class="node"><title>Node12</title>
<g id="a_node7"><a xlink:href="v1_2_board_8h.html" target="_top" xlink:title="board/v1/Board.h">
<polygon fill="white" stroke="black" points="537.5,-136 537.5,-157 644.5,-157 644.5,-136 537.5,-136"/>
<text text-anchor="middle" x="591" y="-143.4" font-family="Helvetica,sans-Serif" font-size="12.00">board/v1/Board.h</text>
</a>
</g>
</g>
<!-- Node11&#45;&gt;Node12 -->
<g id="edge6" class="edge"><title>Node11&#45;&gt;Node12</title>
<path fill="none" stroke="midnightblue" d="M646.328,-193.607C632.534,-182.111 614.544,-167.12 602.884,-157.403"/>
<polygon fill="midnightblue" stroke="midnightblue" points="644.358,-196.521 654.281,-200.234 648.84,-191.144 644.358,-196.521"/>
</g>
<!-- Node13 -->
<g id="node8" class="node"><title>Node13</title>
<g id="a_node8"><a xlink:href="board_2v1_2_analog_8cpp.html" target="_top" xlink:title="board/v1/Analog.cpp">
<polygon fill="white" stroke="black" points="528.5,-65 528.5,-86 653.5,-86 653.5,-65 528.5,-65"/>
<text text-anchor="middle" x="591" y="-72.4" font-family="Helvetica,sans-Serif" font-size="12.00">board/v1/Analog.cpp</text>
</a>
</g>
</g>
<!-- Node12&#45;&gt;Node13 -->
<g id="edge7" class="edge"><title>Node12&#45;&gt;Node13</title>
<path fill="none" stroke="midnightblue" d="M591,-125.588C591,-112.578 591,-96.1754 591,-86.0127"/>
<polygon fill="midnightblue" stroke="midnightblue" points="587.5,-125.906 591,-135.906 594.5,-125.906 587.5,-125.906"/>
</g>
<!-- Node14 -->
<g id="node9" class="node"><title>Node14</title>
<g id="a_node9"><a xlink:href="_board_8cpp.html" target="_top" xlink:title="board/v1/Board.cpp">
<polygon fill="white" stroke="black" points="672,-65 672,-86 792,-86 792,-65 672,-65"/>
<text text-anchor="middle" x="732" y="-72.4" font-family="Helvetica,sans-Serif" font-size="12.00">board/v1/Board.cpp</text>
</a>
</g>
</g>
<!-- Node12&#45;&gt;Node14 -->
<g id="edge8" class="edge"><title>Node12&#45;&gt;Node14</title>
<path fill="none" stroke="midnightblue" d="M619.787,-131.413C647.467,-117.867 688.542,-97.7665 712.561,-86.0127"/>
<polygon fill="midnightblue" stroke="midnightblue" points="618.049,-128.367 610.605,-135.906 621.126,-134.654 618.049,-128.367"/>
</g>
<!-- Node15 -->
<g id="node10" class="node"><title>Node15</title>
<g id="a_node10"><a xlink:href="board_2v1_2_buttons_8cpp.html" target="_top" xlink:title="board/v1/Buttons.cpp">
<polygon fill="white" stroke="black" points="810.5,-65 810.5,-86 937.5,-86 937.5,-65 810.5,-65"/>
<text text-anchor="middle" x="874" y="-72.4" font-family="Helvetica,sans-Serif" font-size="12.00">board/v1/Buttons.cpp</text>
</a>
</g>
</g>
<!-- Node12&#45;&gt;Node15 -->
<g id="edge9" class="edge"><title>Node12&#45;&gt;Node15</title>
<path fill="none" stroke="midnightblue" d="M639.966,-133.561C695.236,-120.086 784.05,-98.4313 834.894,-86.0347"/>
<polygon fill="midnightblue" stroke="midnightblue" points="638.939,-130.209 630.053,-135.978 640.597,-137.01 638.939,-130.209"/>
</g>
<!-- Node16 -->
<g id="node11" class="node"><title>Node16</title>
<g id="a_node11"><a xlink:href="board_2v1_2_encoders_8cpp.html" target="_top" xlink:title="board/v1/Encoders.cpp">
<polygon fill="white" stroke="black" points="956,-65 956,-86 1094,-86 1094,-65 956,-65"/>
<text text-anchor="middle" x="1025" y="-72.4" font-family="Helvetica,sans-Serif" font-size="12.00">board/v1/Encoders.cpp</text>
</a>
</g>
</g>
<!-- Node12&#45;&gt;Node16 -->
<g id="edge10" class="edge"><title>Node12&#45;&gt;Node16</title>
<path fill="none" stroke="midnightblue" d="M654.842,-137.215C726.05,-127.706 844.571,-111.076 946,-93 957.587,-90.9351 970.075,-88.4488 981.627,-86.0399"/>
<polygon fill="midnightblue" stroke="midnightblue" points="654.138,-133.778 644.687,-138.566 655.061,-140.717 654.138,-133.778"/>
</g>
<!-- Node17 -->
<g id="node12" class="node"><title>Node17</title>
<g id="a_node12"><a xlink:href="board_2v1_2_init_8cpp.html" target="_top" xlink:title="board/v1/Init.cpp">
<polygon fill="white" stroke="black" points="0,-65 0,-86 102,-86 102,-65 0,-65"/>
<text text-anchor="middle" x="51" y="-72.4" font-family="Helvetica,sans-Serif" font-size="12.00">board/v1/Init.cpp</text>
</a>
</g>
</g>
<!-- Node12&#45;&gt;Node17 -->
<g id="edge11" class="edge"><title>Node12&#45;&gt;Node17</title>
<path fill="none" stroke="midnightblue" d="M527.283,-141.775C434.891,-135.641 258.624,-121.185 111,-93 101.449,-91.1766 91.1984,-88.5959 81.9197,-86.0158"/>
<polygon fill="midnightblue" stroke="midnightblue" points="527.108,-145.271 537.315,-142.43 527.564,-138.285 527.108,-145.271"/>
</g>
<!-- Node18 -->
<g id="node13" class="node"><title>Node18</title>
<g id="a_node13"><a xlink:href="_in_matrix_8cpp.html" target="_top" xlink:title="board/v1/InMatrix.cpp">
<polygon fill="white" stroke="black" points="120,-65 120,-86 248,-86 248,-65 120,-65"/>
<text text-anchor="middle" x="184" y="-72.4" font-family="Helvetica,sans-Serif" font-size="12.00">board/v1/InMatrix.cpp</text>
</a>
</g>
</g>
<!-- Node12&#45;&gt;Node18 -->
<g id="edge12" class="edge"><title>Node12&#45;&gt;Node18</title>
<path fill="none" stroke="midnightblue" d="M527.265,-136.766C459.893,-127.233 350.634,-110.92 257,-93 246.28,-90.9484 234.736,-88.4666 224.062,-86.0579"/>
<polygon fill="midnightblue" stroke="midnightblue" points="526.911,-140.25 537.302,-138.179 527.888,-133.319 526.911,-140.25"/>
</g>
<!-- Node19 -->
<g id="node14" class="node"><title>Node19</title>
<g id="a_node14"><a xlink:href="_i_s_r_8cpp.html" target="_top" xlink:title="board/v1/ISR.cpp">
<polygon fill="white" stroke="black" points="266.5,-65 266.5,-86 373.5,-86 373.5,-65 266.5,-65"/>
<text text-anchor="middle" x="320" y="-72.4" font-family="Helvetica,sans-Serif" font-size="12.00">board/v1/ISR.cpp</text>
</a>
</g>
</g>
<!-- Node12&#45;&gt;Node19 -->
<g id="edge13" class="edge"><title>Node12&#45;&gt;Node19</title>
<path fill="none" stroke="midnightblue" d="M542.91,-133.491C500.732,-122.928 437.765,-107.083 383,-93 374.349,-90.7755 365.038,-88.3526 356.298,-86.0657"/>
<polygon fill="midnightblue" stroke="midnightblue" points="542.087,-136.893 552.638,-135.926 543.787,-130.102 542.087,-136.893"/>
</g>
<!-- Node20 -->
<g id="node15" class="node"><title>Node20</title>
<g id="a_node15"><a xlink:href="board_2v1_2_l_e_ds_8cpp.html" target="_top" xlink:title="board/v1/LEDs.cpp">
<polygon fill="white" stroke="black" points="392,-65 392,-86 510,-86 510,-65 392,-65"/>
<text text-anchor="middle" x="451" y="-72.4" font-family="Helvetica,sans-Serif" font-size="12.00">board/v1/LEDs.cpp</text>
</a>
</g>
</g>
<!-- Node12&#45;&gt;Node20 -->
<g id="edge14" class="edge"><title>Node12&#45;&gt;Node20</title>
<path fill="none" stroke="midnightblue" d="M562.417,-131.413C534.934,-117.867 494.149,-97.7665 470.301,-86.0127"/>
<polygon fill="midnightblue" stroke="midnightblue" points="561.017,-134.624 571.534,-135.906 564.111,-128.346 561.017,-134.624"/>
</g>
<!-- Node22 -->
<g id="node17" class="node"><title>Node22</title>
<g id="a_node17"><a xlink:href="_interface_8h.html" target="_top" xlink:title="interface/Interface.h">
<polygon fill="white" stroke="black" points="1300,-258.5 1300,-279.5 1418,-279.5 1418,-258.5 1300,-258.5"/>
<text text-anchor="middle" x="1359" y="-265.9" font-family="Helvetica,sans-Serif" font-size="12.00">interface/Interface.h</text>
</a>
</g>
</g>
<!-- Node21&#45;&gt;Node22 -->
<g id="edge16" class="edge"><title>Node21&#45;&gt;Node22</title>
<path fill="none" stroke="midnightblue" d="M1159.12,-314.242C1205.73,-303.926 1272.65,-289.113 1315.97,-279.524"/>
<polygon fill="midnightblue" stroke="midnightblue" points="1158.21,-310.858 1149.2,-316.437 1159.72,-317.693 1158.21,-310.858"/>
</g>
<!-- Node28 -->
<g id="node23" class="node"><title>Node28</title>
<g id="a_node23"><a xlink:href="_f_s_r_8cpp.html" target="_top" xlink:title="interface/analog/FSR.cpp">
<polygon fill="white" stroke="black" points="1407.5,-0.5 1407.5,-21.5 1556.5,-21.5 1556.5,-0.5 1407.5,-0.5"/>
<text text-anchor="middle" x="1482" y="-7.9" font-family="Helvetica,sans-Serif" font-size="12.00">interface/analog/FSR.cpp</text>
</a>
</g>
</g>
<!-- Node21&#45;&gt;Node28 -->
<g id="edge36" class="edge"><title>Node21&#45;&gt;Node28</title>
<path fill="none" stroke="midnightblue" d="M1110.47,-306.272C1115.21,-283.635 1122,-245.339 1122,-212 1122,-212 1122,-212 1122,-145.5 1122,-103.277 1125.54,-83.7573 1159,-58 1163.94,-54.1937 1315.18,-33.8245 1408.93,-21.5029"/>
<polygon fill="midnightblue" stroke="midnightblue" points="1107,-305.79 1108.29,-316.305 1113.84,-307.276 1107,-305.79"/>
</g>
<!-- Node21&#45;&gt;Node30 -->
<g id="edge37" class="edge"><title>Node21&#45;&gt;Node30</title>
<path fill="none" stroke="midnightblue" d="M1119.47,-307.844C1125.12,-299.64 1131.43,-289.639 1136,-280 1166.18,-216.373 1143.63,-186.698 1184,-129 1197.08,-110.303 1218.82,-95.2024 1234.19,-86.0775"/>
<polygon fill="midnightblue" stroke="midnightblue" points="1116.45,-306.055 1113.5,-316.23 1122.15,-310.117 1116.45,-306.055"/>
</g>
<!-- Node34 -->
<g id="node29" class="node"><title>Node34</title>
<g id="a_node29"><a xlink:href="interface_2leds_2_l_e_ds_8cpp.html" target="_top" xlink:title="interface/leds/LEDs.cpp">
<polygon fill="white" stroke="black" points="952,-258.5 952,-279.5 1094,-279.5 1094,-258.5 952,-258.5"/>
<text text-anchor="middle" x="1023" y="-265.9" font-family="Helvetica,sans-Serif" font-size="12.00">interface/leds/LEDs.cpp</text>
</a>
</g>
</g>
<!-- Node21&#45;&gt;Node34 -->
<g id="edge38" class="edge"><title>Node21&#45;&gt;Node34</title>
<path fill="none" stroke="midnightblue" d="M1083.01,-310.49C1068.37,-300.61 1049.86,-288.119 1037.29,-279.643"/>
<polygon fill="midnightblue" stroke="midnightblue" points="1081.3,-313.554 1091.54,-316.246 1085.21,-307.751 1081.3,-313.554"/>
</g>
<!-- Node22&#45;&gt;Node23 -->
<g id="edge17" class="edge"><title>Node22&#45;&gt;Node23</title>
<path fill="none" stroke="midnightblue" d="M1407.66,-256.047C1449.63,-245.74 1509.43,-231.053 1548.23,-221.524"/>
<polygon fill="midnightblue" stroke="midnightblue" points="1406.81,-252.653 1397.94,-258.437 1408.48,-259.451 1406.81,-252.653"/>
</g>
<!-- Node24 -->
<g id="node19" class="node"><title>Node24</title>
<g id="a_node19"><a xlink:href="_init_8cpp.html" target="_top" xlink:title="Init.cpp">
<polygon fill="white" stroke="black" points="1588.5,-136 1588.5,-157 1641.5,-157 1641.5,-136 1588.5,-136"/>
<text text-anchor="middle" x="1615" y="-143.4" font-family="Helvetica,sans-Serif" font-size="12.00">Init.cpp</text>
</a>
</g>
</g>
<!-- Node23&#45;&gt;Node24 -->
<g id="edge18" class="edge"><title>Node23&#45;&gt;Node24</title>
<path fill="none" stroke="midnightblue" d="M1595.54,-190.948C1600.49,-179.879 1606.54,-166.387 1610.56,-157.403"/>
<polygon fill="midnightblue" stroke="midnightblue" points="1592.27,-189.677 1591.38,-200.234 1598.66,-192.539 1592.27,-189.677"/>
</g>
<!-- Node25 -->
<g id="node20" class="node"><title>Node25</title>
<g id="a_node20"><a xlink:href="interface_2buttons_2_buttons_8h.html" target="_top" xlink:title="interface/buttons/Buttons.h">
<polygon fill="white" stroke="black" points="1226.5,-136 1226.5,-157 1379.5,-157 1379.5,-136 1226.5,-136"/>
<text text-anchor="middle" x="1303" y="-143.4" font-family="Helvetica,sans-Serif" font-size="12.00">interface/buttons/Buttons.h</text>
</a>
</g>
</g>
<!-- Node23&#45;&gt;Node25 -->
<g id="edge19" class="edge"><title>Node23&#45;&gt;Node25</title>
<path fill="none" stroke="midnightblue" d="M1535.62,-198.694C1481.46,-186.773 1397.07,-168.202 1346.21,-157.009"/>
<polygon fill="midnightblue" stroke="midnightblue" points="1535.19,-202.181 1545.7,-200.912 1536.69,-195.344 1535.19,-202.181"/>
</g>
<!-- Node23&#45;&gt;Node26 -->
<g id="edge27" class="edge"><title>Node23&#45;&gt;Node26</title>
<path fill="none" stroke="midnightblue" d="M1569.26,-193.201C1539.32,-164.858 1479.74,-108.441 1456.05,-86.014"/>
<polygon fill="midnightblue" stroke="midnightblue" points="1567.19,-196.065 1576.86,-200.399 1572,-190.982 1567.19,-196.065"/>
</g>
<!-- Node23&#45;&gt;Node28 -->
<g id="edge31" class="edge"><title>Node23&#45;&gt;Node28</title>
<path fill="none" stroke="midnightblue" d="M1582.41,-190.348C1574.74,-160.107 1557.29,-101.146 1529,-58 1519.61,-43.6777 1505.09,-30.3465 1494.67,-21.7621"/>
<polygon fill="midnightblue" stroke="midnightblue" points="1579.1,-191.555 1584.88,-200.438 1585.9,-189.893 1579.1,-191.555"/>
</g>
<!-- Node29 -->
<g id="node24" class="node"><title>Node29</title>
<g id="a_node24"><a xlink:href="_potentiometer_8cpp.html" target="_top" xlink:title="interface/analog/Potentiometer.cpp">
<polygon fill="white" stroke="black" points="1646.5,-0.5 1646.5,-21.5 1845.5,-21.5 1845.5,-0.5 1646.5,-0.5"/>
<text text-anchor="middle" x="1746" y="-7.9" font-family="Helvetica,sans-Serif" font-size="12.00">interface/analog/Potentiometer.cpp</text>
</a>
</g>
</g>
<!-- Node23&#45;&gt;Node29 -->
<g id="edge32" class="edge"><title>Node23&#45;&gt;Node29</title>
<path fill="none" stroke="midnightblue" d="M1638.13,-198.242C1688.68,-186.376 1759.06,-169.097 1763,-164 1796.59,-120.496 1764.75,-47.9649 1751.32,-21.7929"/>
<polygon fill="midnightblue" stroke="midnightblue" points="1637.25,-194.853 1628.31,-200.538 1638.85,-201.67 1637.25,-194.853"/>
</g>
<!-- Node23&#45;&gt;Node30 -->
<g id="edge33" class="edge"><title>Node23&#45;&gt;Node30</title>
<path fill="none" stroke="midnightblue" d="M1554.41,-196.524C1515.06,-180.299 1446.82,-152.321 1388,-129 1349.42,-113.701 1304.45,-96.458 1277.12,-86.0403"/>
<polygon fill="midnightblue" stroke="midnightblue" points="1553.19,-199.807 1563.77,-200.385 1555.86,-193.336 1553.19,-199.807"/>
</g>
<!-- Node31 -->
<g id="node26" class="node"><title>Node31</title>
<g id="a_node26"><a xlink:href="interface_2encoders_2_encoders_8h.html" target="_top" xlink:title="interface/encoders\l/Encoders.h">
<polygon fill="white" stroke="black" points="1849.5,-129.5 1849.5,-163.5 1962.5,-163.5 1962.5,-129.5 1849.5,-129.5"/>
<text text-anchor="start" x="1857.5" y="-149.9" font-family="Helvetica,sans-Serif" font-size="12.00">interface/encoders</text>
<text text-anchor="middle" x="1906" y="-136.9" font-family="Helvetica,sans-Serif" font-size="12.00">/Encoders.h</text>
</a>
</g>
</g>
<!-- Node23&#45;&gt;Node31 -->
<g id="edge28" class="edge"><title>Node23&#45;&gt;Node31</title>
<path fill="none" stroke="midnightblue" d="M1638.33,-201.174C1688.57,-192.37 1767.23,-178.153 1835,-164 1839.71,-163.017 1844.58,-161.962 1849.47,-160.879"/>
<polygon fill="midnightblue" stroke="midnightblue" points="1637.61,-197.746 1628.36,-202.914 1638.81,-204.642 1637.61,-197.746"/>
</g>
<!-- Node23&#45;&gt;Node32 -->
<g id="edge34" class="edge"><title>Node23&#45;&gt;Node32</title>
<path fill="none" stroke="midnightblue" d="M1638.47,-205.479C1682.38,-200.074 1746.27,-188.468 1797,-164 1819.19,-153.295 1820.8,-144.448 1840,-129 1855.29,-116.7 1872.65,-102.893 1885.73,-92.5255"/>
<polygon fill="midnightblue" stroke="midnightblue" points="1637.84,-202.028 1628.31,-206.663 1638.65,-208.981 1637.84,-202.028"/>
</g>
<!-- Node33 -->
<g id="node28" class="node"><title>Node33</title>
<g id="a_node28"><a xlink:href="_open_deck_8cpp.html" target="_top" xlink:title="OpenDeck.cpp">
<polygon fill="white" stroke="black" points="1659.5,-136 1659.5,-157 1754.5,-157 1754.5,-136 1659.5,-136"/>
<text text-anchor="middle" x="1707" y="-143.4" font-family="Helvetica,sans-Serif" font-size="12.00">OpenDeck.cpp</text>
</a>
</g>
</g>
<!-- Node23&#45;&gt;Node33 -->
<g id="edge35" class="edge"><title>Node23&#45;&gt;Node33</title>
<path fill="none" stroke="midnightblue" d="M1614.63,-195.609C1637.37,-183.764 1668.97,-167.307 1688.69,-157.037"/>
<polygon fill="midnightblue" stroke="midnightblue" points="1612.74,-192.648 1605.49,-200.371 1615.97,-198.856 1612.74,-192.648"/>
</g>
<!-- Node25&#45;&gt;Node22 -->
<g id="edge25" class="edge"><title>Node25&#45;&gt;Node22</title>
<path fill="none" stroke="midnightblue" d="M1311.75,-166.338C1323.81,-192.287 1345.1,-238.092 1354.42,-258.139"/>
<polygon fill="midnightblue" stroke="midnightblue" points="1314.88,-164.754 1307.49,-157.16 1308.53,-167.704 1314.88,-164.754"/>
</g>
<!-- Node25&#45;&gt;Node26 -->
<g id="edge20" class="edge"><title>Node25&#45;&gt;Node26</title>
<path fill="none" stroke="midnightblue" d="M1332.2,-131.413C1360.27,-117.867 1401.93,-97.7665 1426.29,-86.0127"/>
<polygon fill="midnightblue" stroke="midnightblue" points="1330.37,-128.408 1322.88,-135.906 1333.41,-134.712 1330.37,-128.408"/>
</g>
<!-- Node25&#45;&gt;Node30 -->
<g id="edge26" class="edge"><title>Node25&#45;&gt;Node30</title>
<path fill="none" stroke="midnightblue" d="M1289.72,-127.532C1279.9,-114.251 1266.92,-96.6887 1259.03,-86.0127"/>
<polygon fill="midnightblue" stroke="midnightblue" points="1287.15,-129.944 1295.91,-135.906 1292.78,-125.784 1287.15,-129.944"/>
</g>
<!-- Node26&#45;&gt;Node22 -->
<g id="edge21" class="edge"><title>Node26&#45;&gt;Node22</title>
<path fill="none" stroke="midnightblue" d="M1437.51,-95.1848C1419.34,-135.19 1377.19,-227.95 1363.43,-258.24"/>
<polygon fill="midnightblue" stroke="midnightblue" points="1440.73,-96.5651 1441.68,-86.0129 1434.36,-93.6697 1440.73,-96.5651"/>
</g>
<!-- Node27 -->
<g id="node22" class="node"><title>Node27</title>
<g id="a_node22"><a xlink:href="interface_2analog_2_analog_8cpp.html" target="_top" xlink:title="interface/analog/Analog.cpp">
<polygon fill="white" stroke="black" points="1227,-0.5 1227,-21.5 1389,-21.5 1389,-0.5 1227,-0.5"/>
<text text-anchor="middle" x="1308" y="-7.9" font-family="Helvetica,sans-Serif" font-size="12.00">interface/analog/Analog.cpp</text>
</a>
</g>
</g>
<!-- Node26&#45;&gt;Node27 -->
<g id="edge22" class="edge"><title>Node26&#45;&gt;Node27</title>
<path fill="none" stroke="midnightblue" d="M1415.62,-60.7389C1389.37,-48.8537 1352.14,-31.9905 1329.06,-21.537"/>
<polygon fill="midnightblue" stroke="midnightblue" points="1414.19,-63.934 1424.74,-64.8713 1417.07,-57.5574 1414.19,-63.934"/>
</g>
<!-- Node26&#45;&gt;Node28 -->
<g id="edge23" class="edge"><title>Node26&#45;&gt;Node28</title>
<path fill="none" stroke="midnightblue" d="M1456.78,-55.7863C1463.19,-44.6544 1471.07,-30.9785 1476.3,-21.9033"/>
<polygon fill="midnightblue" stroke="midnightblue" points="1453.58,-54.3221 1451.63,-64.7344 1459.65,-57.816 1453.58,-54.3221"/>
</g>
<!-- Node26&#45;&gt;Node29 -->
<g id="edge24" class="edge"><title>Node26&#45;&gt;Node29</title>
<path fill="none" stroke="midnightblue" d="M1501.84,-62.8658C1559.02,-50.9532 1646.85,-32.6559 1700.12,-21.5594"/>
<polygon fill="midnightblue" stroke="midnightblue" points="1500.97,-59.4735 1491.89,-64.9396 1502.39,-66.3264 1500.97,-59.4735"/>
</g>
<!-- Node31&#45;&gt;Node22 -->
<g id="edge29" class="edge"><title>Node31&#45;&gt;Node22</title>
<path fill="none" stroke="midnightblue" d="M1844.54,-166.529C1790.32,-182.835 1708.95,-206.132 1637,-222 1562.12,-238.516 1474.71,-252.052 1418.19,-260.066"/>
<polygon fill="midnightblue" stroke="midnightblue" points="1845.78,-169.811 1854.34,-163.57 1843.75,-163.11 1845.78,-169.811"/>
</g>
<!-- Node31&#45;&gt;Node32 -->
<g id="edge30" class="edge"><title>Node31&#45;&gt;Node32</title>
<path fill="none" stroke="midnightblue" d="M1906,-119.247C1906,-110.392 1906,-100.767 1906,-92.8958"/>
<polygon fill="midnightblue" stroke="midnightblue" points="1902.5,-119.497 1906,-129.497 1909.5,-119.497 1902.5,-119.497"/>
</g>
</g>
</svg>
