<?xml version="1.0" encoding="UTF-8" standalone="no"?>
<!DOCTYPE svg PUBLIC "-//W3C//DTD SVG 1.1//EN"
 "http://www.w3.org/Graphics/SVG/1.1/DTD/svg11.dtd">
<!-- Generated by graphviz version 2.38.0 (20140413.2041)
 -->
<!-- Title: board/Board.h Pages: 1 -->
<svg width="1382pt" height="443pt"
 viewBox="0.00 0.00 1382.00 443.00" xmlns="http://www.w3.org/2000/svg" xmlns:xlink="http://www.w3.org/1999/xlink">
<g id="graph0" class="graph" transform="scale(1 1) rotate(0) translate(4 439)">
<title>board/Board.h</title>
<polygon fill="white" stroke="none" points="-4,4 -4,-439 1378,-439 1378,4 -4,4"/>
<!-- Node1 -->
<g id="node1" class="node"><title>Node1</title>
<polygon fill="#bfbfbf" stroke="black" points="373.5,-413.5 373.5,-434.5 465.5,-434.5 465.5,-413.5 373.5,-413.5"/>
<text text-anchor="middle" x="419.5" y="-420.9" font-family="Helvetica,sans-Serif" font-size="12.00">board/Board.h</text>
</g>
<!-- Node2 -->
<g id="node2" class="node"><title>Node2</title>
<g id="a_node2"><a xlink:href="_board_8cpp.html" target="_top" xlink:title="board/Board.cpp">
<polygon fill="white" stroke="black" points="0,-349 0,-370 105,-370 105,-349 0,-349"/>
<text text-anchor="middle" x="52.5" y="-356.4" font-family="Helvetica,sans-Serif" font-size="12.00">board/Board.cpp</text>
</a>
</g>
</g>
<!-- Node1&#45;&gt;Node2 -->
<g id="edge1" class="edge"><title>Node1&#45;&gt;Node2</title>
<path fill="none" stroke="midnightblue" d="M363.034,-416.487C301.366,-408.916 199.859,-395.108 113.5,-377 104.159,-375.041 94.1212,-372.508 84.9399,-370.017"/>
<polygon fill="midnightblue" stroke="midnightblue" points="362.977,-420.006 373.326,-417.738 363.822,-413.057 362.977,-420.006"/>
</g>
<!-- Node3 -->
<g id="node3" class="node"><title>Node3</title>
<g id="a_node3"><a xlink:href="interface_2digital_2output_2leds_2_variables_8h.html" target="_top" xlink:title="interface/digital/output\l/leds/Variables.h">
<polygon fill="white" stroke="black" points="123,-342.5 123,-376.5 254,-376.5 254,-342.5 123,-342.5"/>
<text text-anchor="start" x="131" y="-362.9" font-family="Helvetica,sans-Serif" font-size="12.00">interface/digital/output</text>
<text text-anchor="middle" x="188.5" y="-349.9" font-family="Helvetica,sans-Serif" font-size="12.00">/leds/Variables.h</text>
</a>
</g>
</g>
<!-- Node1&#45;&gt;Node3 -->
<g id="edge2" class="edge"><title>Node1&#45;&gt;Node3</title>
<path fill="none" stroke="midnightblue" d="M374.409,-410.8C338.354,-401.045 287.496,-387.285 248.086,-376.622"/>
<polygon fill="midnightblue" stroke="midnightblue" points="373.598,-414.206 384.165,-413.44 375.426,-407.449 373.598,-414.206"/>
</g>
<!-- Node7 -->
<g id="node7" class="node"><title>Node7</title>
<g id="a_node7"><a xlink:href="database_2_database_8cpp.html" target="_top" xlink:title="database/Database.cpp">
<polygon fill="white" stroke="black" points="272,-349 272,-370 415,-370 415,-349 272,-349"/>
<text text-anchor="middle" x="343.5" y="-356.4" font-family="Helvetica,sans-Serif" font-size="12.00">database/Database.cpp</text>
</a>
</g>
</g>
<!-- Node1&#45;&gt;Node7 -->
<g id="edge6" class="edge"><title>Node1&#45;&gt;Node7</title>
<path fill="none" stroke="midnightblue" d="M399.566,-406.607C385.587,-395.111 367.358,-380.12 355.542,-370.403"/>
<polygon fill="midnightblue" stroke="midnightblue" points="397.678,-409.586 407.625,-413.234 402.124,-404.179 397.678,-409.586"/>
</g>
<!-- Node8 -->
<g id="node8" class="node"><title>Node8</title>
<g id="a_node8"><a xlink:href="database_2_layout_8cpp.html" target="_top" xlink:title="database/Layout.cpp">
<polygon fill="white" stroke="black" points="433.5,-349 433.5,-370 559.5,-370 559.5,-349 433.5,-349"/>
<text text-anchor="middle" x="496.5" y="-356.4" font-family="Helvetica,sans-Serif" font-size="12.00">database/Layout.cpp</text>
</a>
</g>
</g>
<!-- Node1&#45;&gt;Node8 -->
<g id="edge7" class="edge"><title>Node1&#45;&gt;Node8</title>
<path fill="none" stroke="midnightblue" d="M439.346,-406.891C453.653,-395.278 472.492,-379.987 484.553,-370.197"/>
<polygon fill="midnightblue" stroke="midnightblue" points="437.09,-404.215 431.531,-413.234 441.501,-409.65 437.09,-404.215"/>
</g>
<!-- Node9 -->
<g id="node9" class="node"><title>Node9</title>
<g id="a_node9"><a xlink:href="interface_2analog_2_analog_8h.html" target="_top" xlink:title="interface/analog/Analog.h">
<polygon fill="white" stroke="black" points="727,-349 727,-370 876,-370 876,-349 727,-349"/>
<text text-anchor="middle" x="801.5" y="-356.4" font-family="Helvetica,sans-Serif" font-size="12.00">interface/analog/Analog.h</text>
</a>
</g>
</g>
<!-- Node1&#45;&gt;Node9 -->
<g id="edge8" class="edge"><title>Node1&#45;&gt;Node9</title>
<path fill="none" stroke="midnightblue" d="M475.757,-415.092C535.946,-406.456 634.157,-391.864 718.5,-377 730.509,-374.884 743.456,-372.405 755.47,-370.022"/>
<polygon fill="midnightblue" stroke="midnightblue" points="475.106,-411.649 465.702,-416.529 476.097,-418.579 475.106,-411.649"/>
</g>
<!-- Node25 -->
<g id="node25" class="node"><title>Node25</title>
<g id="a_node25"><a xlink:href="interface_2digital_2output_2leds_2_l_e_ds_8h.html" target="_top" xlink:title="interface/digital/output\l/leds/LEDs.h">
<polygon fill="white" stroke="black" points="578,-342.5 578,-376.5 709,-376.5 709,-342.5 578,-342.5"/>
<text text-anchor="start" x="586" y="-362.9" font-family="Helvetica,sans-Serif" font-size="12.00">interface/digital/output</text>
<text text-anchor="middle" x="643.5" y="-349.9" font-family="Helvetica,sans-Serif" font-size="12.00">/leds/LEDs.h</text>
</a>
</g>
</g>
<!-- Node1&#45;&gt;Node25 -->
<g id="edge31" class="edge"><title>Node1&#45;&gt;Node25</title>
<path fill="none" stroke="midnightblue" d="M463.927,-410.604C498.886,-400.85 547.87,-387.183 585.849,-376.586"/>
<polygon fill="midnightblue" stroke="midnightblue" points="462.701,-407.313 454.009,-413.371 464.582,-414.055 462.701,-407.313"/>
</g>
<!-- Node4 -->
<g id="node4" class="node"><title>Node4</title>
<g id="a_node4"><a xlink:href="_export_8h.html" target="_top" xlink:title="interface/Export.h">
<polygon fill="white" stroke="black" points="135,-278 135,-299 242,-299 242,-278 135,-278"/>
<text text-anchor="middle" x="188.5" y="-285.4" font-family="Helvetica,sans-Serif" font-size="12.00">interface/Export.h</text>
</a>
</g>
</g>
<!-- Node3&#45;&gt;Node4 -->
<g id="edge3" class="edge"><title>Node3&#45;&gt;Node4</title>
<path fill="none" stroke="midnightblue" d="M188.5,-332.386C188.5,-320.788 188.5,-307.843 188.5,-299.24"/>
<polygon fill="midnightblue" stroke="midnightblue" points="185,-332.497 188.5,-342.497 192,-332.497 185,-332.497"/>
</g>
<!-- Node5 -->
<g id="node5" class="node"><title>Node5</title>
<g id="a_node5"><a xlink:href="_import_8h.html" target="_top" xlink:title="board/common/Import.h">
<polygon fill="white" stroke="black" points="118.5,-213.5 118.5,-234.5 258.5,-234.5 258.5,-213.5 118.5,-213.5"/>
<text text-anchor="middle" x="188.5" y="-220.9" font-family="Helvetica,sans-Serif" font-size="12.00">board/common/Import.h</text>
</a>
</g>
</g>
<!-- Node4&#45;&gt;Node5 -->
<g id="edge4" class="edge"><title>Node4&#45;&gt;Node5</title>
<path fill="none" stroke="midnightblue" d="M188.5,-267.425C188.5,-256.557 188.5,-243.612 188.5,-234.903"/>
<polygon fill="midnightblue" stroke="midnightblue" points="185,-267.734 188.5,-277.734 192,-267.734 185,-267.734"/>
</g>
<!-- Node6 -->
<g id="node6" class="node"><title>Node6</title>
<g id="a_node6"><a xlink:href="board_2common_2_common_8h.html" target="_top" xlink:title="board/common/Common.h">
<polygon fill="white" stroke="black" points="111,-149 111,-170 266,-170 266,-149 111,-149"/>
<text text-anchor="middle" x="188.5" y="-156.4" font-family="Helvetica,sans-Serif" font-size="12.00">board/common/Common.h</text>
</a>
</g>
</g>
<!-- Node5&#45;&gt;Node6 -->
<g id="edge5" class="edge"><title>Node5&#45;&gt;Node6</title>
<path fill="none" stroke="midnightblue" d="M188.5,-202.925C188.5,-192.057 188.5,-179.112 188.5,-170.403"/>
<polygon fill="midnightblue" stroke="midnightblue" points="185,-203.234 188.5,-213.234 192,-203.234 185,-203.234"/>
</g>
<!-- Node10 -->
<g id="node10" class="node"><title>Node10</title>
<g id="a_node10"><a xlink:href="_interface_8h.html" target="_top" xlink:title="interface/Interface.h">
<polygon fill="white" stroke="black" points="585.5,-278 585.5,-299 703.5,-299 703.5,-278 585.5,-278"/>
<text text-anchor="middle" x="644.5" y="-285.4" font-family="Helvetica,sans-Serif" font-size="12.00">interface/Interface.h</text>
</a>
</g>
</g>
<!-- Node9&#45;&gt;Node10 -->
<g id="edge9" class="edge"><title>Node9&#45;&gt;Node10</title>
<path fill="none" stroke="midnightblue" d="M770.25,-344.766C739.426,-331.219 693.123,-310.869 666.145,-299.013"/>
<polygon fill="midnightblue" stroke="midnightblue" points="769.107,-348.087 779.67,-348.906 771.923,-341.678 769.107,-348.087"/>
</g>
<!-- Node21 -->
<g id="node21" class="node"><title>Node21</title>
<g id="a_node21"><a xlink:href="_f_s_r_8cpp.html" target="_top" xlink:title="interface/analog/FSR.cpp">
<polygon fill="white" stroke="black" points="1008,-149 1008,-170 1157,-170 1157,-149 1008,-149"/>
<text text-anchor="middle" x="1082.5" y="-156.4" font-family="Helvetica,sans-Serif" font-size="12.00">interface/analog/FSR.cpp</text>
</a>
</g>
</g>
<!-- Node9&#45;&gt;Node21 -->
<g id="edge29" class="edge"><title>Node9&#45;&gt;Node21</title>
<path fill="none" stroke="midnightblue" d="M808.353,-339.28C820.512,-307.979 848.863,-246.162 893.5,-213 915.506,-196.651 984.586,-180.101 1032.83,-170.069"/>
<polygon fill="midnightblue" stroke="midnightblue" points="804.949,-338.39 804.727,-348.982 811.507,-340.84 804.949,-338.39"/>
</g>
<!-- Node22 -->
<g id="node22" class="node"><title>Node22</title>
<g id="a_node22"><a xlink:href="_potentiometer_8cpp.html" target="_top" xlink:title="interface/analog/Potentiometer.cpp">
<polygon fill="white" stroke="black" points="1175,-149 1175,-170 1374,-170 1374,-149 1175,-149"/>
<text text-anchor="middle" x="1274.5" y="-156.4" font-family="Helvetica,sans-Serif" font-size="12.00">interface/analog/Potentiometer.cpp</text>
</a>
</g>
</g>
<!-- Node9&#45;&gt;Node22 -->
<g id="edge30" class="edge"><title>Node9&#45;&gt;Node22</title>
<path fill="none" stroke="midnightblue" d="M820.629,-342.304C844.2,-323.035 886.104,-290.968 926.5,-271 1029.92,-219.876 1162.18,-185.594 1230,-170.046"/>
<polygon fill="midnightblue" stroke="midnightblue" points="818.281,-339.704 812.811,-348.778 822.745,-345.095 818.281,-339.704"/>
</g>
<!-- Node24 -->
<g id="node24" class="node"><title>Node24</title>
<g id="a_node24"><a xlink:href="interface_2analog_2_analog_8cpp.html" target="_top" xlink:title="interface/analog/Analog.cpp">
<polygon fill="white" stroke="black" points="935.5,-278 935.5,-299 1097.5,-299 1097.5,-278 935.5,-278"/>
<text text-anchor="middle" x="1016.5" y="-285.4" font-family="Helvetica,sans-Serif" font-size="12.00">interface/analog/Analog.cpp</text>
</a>
</g>
</g>
<!-- Node9&#45;&gt;Node24 -->
<g id="edge28" class="edge"><title>Node9&#45;&gt;Node24</title>
<path fill="none" stroke="midnightblue" d="M841.049,-345.807C883.194,-332.282 948.955,-311.177 986.859,-299.013"/>
<polygon fill="midnightblue" stroke="midnightblue" points="839.847,-342.517 831.395,-348.906 841.986,-349.183 839.847,-342.517"/>
</g>
<!-- Node11 -->
<g id="node11" class="node"><title>Node11</title>
<g id="a_node11"><a xlink:href="_open_deck_8h.html" target="_top" xlink:title="OpenDeck.h">
<polygon fill="white" stroke="black" points="759.5,-213.5 759.5,-234.5 841.5,-234.5 841.5,-213.5 759.5,-213.5"/>
<text text-anchor="middle" x="800.5" y="-220.9" font-family="Helvetica,sans-Serif" font-size="12.00">OpenDeck.h</text>
</a>
</g>
</g>
<!-- Node10&#45;&gt;Node11 -->
<g id="edge10" class="edge"><title>Node10&#45;&gt;Node11</title>
<path fill="none" stroke="midnightblue" d="M678.07,-274.051C707.773,-262.15 750.375,-245.082 776.696,-234.537"/>
<polygon fill="midnightblue" stroke="midnightblue" points="676.514,-270.903 668.533,-277.871 679.118,-277.401 676.514,-270.903"/>
</g>
<!-- Node11&#45;&gt;Node9 -->
<g id="edge21" class="edge"><title>Node11&#45;&gt;Node9</title>
<path fill="none" stroke="midnightblue" d="M800.647,-244.685C800.865,-273.778 801.265,-327.154 801.428,-348.899"/>
<polygon fill="midnightblue" stroke="midnightblue" points="804.146,-244.487 800.571,-234.514 797.146,-244.54 804.146,-244.487"/>
</g>
<!-- Node12 -->
<g id="node12" class="node"><title>Node12</title>
<g id="a_node12"><a xlink:href="_init_8cpp.html" target="_top" xlink:title="Init.cpp">
<polygon fill="white" stroke="black" points="824,-149 824,-170 877,-170 877,-149 824,-149"/>
<text text-anchor="middle" x="850.5" y="-156.4" font-family="Helvetica,sans-Serif" font-size="12.00">Init.cpp</text>
</a>
</g>
</g>
<!-- Node11&#45;&gt;Node12 -->
<g id="edge11" class="edge"><title>Node11&#45;&gt;Node12</title>
<path fill="none" stroke="midnightblue" d="M814.667,-205.291C823.71,-193.988 835.097,-179.753 842.577,-170.403"/>
<polygon fill="midnightblue" stroke="midnightblue" points="811.826,-203.239 808.313,-213.234 817.293,-207.612 811.826,-203.239"/>
</g>
<!-- Node13 -->
<g id="node13" class="node"><title>Node13</title>
<g id="a_node13"><a xlink:href="_sys_ex_8h.html" target="_top" xlink:title="sysex/src/SysEx.h">
<polygon fill="white" stroke="black" points="695.5,-149 695.5,-170 805.5,-170 805.5,-149 695.5,-149"/>
<text text-anchor="middle" x="750.5" y="-156.4" font-family="Helvetica,sans-Serif" font-size="12.00">sysex/src/SysEx.h</text>
</a>
</g>
</g>
<!-- Node11&#45;&gt;Node13 -->
<g id="edge12" class="edge"><title>Node11&#45;&gt;Node13</title>
<path fill="none" stroke="midnightblue" d="M780.478,-205.623C770.292,-194.267 759.098,-179.845 753.334,-170.403"/>
<polygon fill="midnightblue" stroke="midnightblue" points="778.228,-208.34 787.625,-213.234 783.331,-203.549 778.228,-208.34"/>
</g>
<!-- Node15 -->
<g id="node15" class="node"><title>Node15</title>
<g id="a_node15"><a xlink:href="interface_2digital_2input_2buttons_2_buttons_8h.html" target="_top" xlink:title="interface/digital/input\l/buttons/Buttons.h">
<polygon fill="white" stroke="black" points="403.5,-142.5 403.5,-176.5 527.5,-176.5 527.5,-142.5 403.5,-142.5"/>
<text text-anchor="start" x="411.5" y="-162.9" font-family="Helvetica,sans-Serif" font-size="12.00">interface/digital/input</text>
<text text-anchor="middle" x="465.5" y="-149.9" font-family="Helvetica,sans-Serif" font-size="12.00">/buttons/Buttons.h</text>
</a>
</g>
</g>
<!-- Node11&#45;&gt;Node15 -->
<g id="edge15" class="edge"><title>Node11&#45;&gt;Node15</title>
<path fill="none" stroke="midnightblue" d="M749.333,-213.682C748.043,-213.452 746.763,-213.224 745.5,-213 653.124,-196.608 629.48,-195.485 537.5,-177 534.231,-176.343 530.884,-175.649 527.507,-174.933"/>
<polygon fill="midnightblue" stroke="midnightblue" points="748.901,-217.16 759.361,-215.481 750.137,-210.27 748.901,-217.16"/>
</g>
<!-- Node19 -->
<g id="node19" class="node"><title>Node19</title>
<g id="a_node19"><a xlink:href="interface_2digital_2input_2encoders_2_encoders_8h.html" target="_top" xlink:title="interface/digital/input\l/encoders/Encoders.h">
<polygon fill="white" stroke="black" points="546,-142.5 546,-176.5 677,-176.5 677,-142.5 546,-142.5"/>
<text text-anchor="start" x="554" y="-162.9" font-family="Helvetica,sans-Serif" font-size="12.00">interface/digital/input</text>
<text text-anchor="middle" x="611.5" y="-149.9" font-family="Helvetica,sans-Serif" font-size="12.00">/encoders/Encoders.h</text>
</a>
</g>
</g>
<!-- Node11&#45;&gt;Node19 -->
<g id="edge22" class="edge"><title>Node11&#45;&gt;Node19</title>
<path fill="none" stroke="midnightblue" d="M761.869,-210.225C732.456,-200.499 691.775,-187.046 660.143,-176.586"/>
<polygon fill="midnightblue" stroke="midnightblue" points="760.79,-213.555 771.383,-213.371 762.988,-206.909 760.79,-213.555"/>
</g>
<!-- Node11&#45;&gt;Node21 -->
<g id="edge25" class="edge"><title>Node11&#45;&gt;Node21</title>
<path fill="none" stroke="midnightblue" d="M851.514,-211.694C905.298,-199.773 989.09,-181.202 1039.6,-170.009"/>
<polygon fill="midnightblue" stroke="midnightblue" points="850.511,-208.331 841.505,-213.912 852.026,-215.165 850.511,-208.331"/>
</g>
<!-- Node11&#45;&gt;Node22 -->
<g id="edge26" class="edge"><title>Node11&#45;&gt;Node22</title>
<path fill="none" stroke="midnightblue" d="M851.711,-216.999C922.535,-208.6 1054.35,-192.611 1166.5,-177 1181.9,-174.856 1198.52,-172.392 1213.99,-170.034"/>
<polygon fill="midnightblue" stroke="midnightblue" points="851.233,-213.531 841.713,-218.182 852.056,-220.483 851.233,-213.531"/>
</g>
<!-- Node23 -->
<g id="node23" class="node"><title>Node23</title>
<g id="a_node23"><a xlink:href="_open_deck_8cpp.html" target="_top" xlink:title="OpenDeck.cpp">
<polygon fill="white" stroke="black" points="895,-149 895,-170 990,-170 990,-149 895,-149"/>
<text text-anchor="middle" x="942.5" y="-156.4" font-family="Helvetica,sans-Serif" font-size="12.00">OpenDeck.cpp</text>
</a>
</g>
</g>
<!-- Node11&#45;&gt;Node23 -->
<g id="edge27" class="edge"><title>Node11&#45;&gt;Node23</title>
<path fill="none" stroke="midnightblue" d="M831.765,-209.239C858.768,-197.354 897.081,-180.491 920.832,-170.037"/>
<polygon fill="midnightblue" stroke="midnightblue" points="830.119,-206.139 822.376,-213.371 832.939,-212.546 830.119,-206.139"/>
</g>
<!-- Node13&#45;&gt;Node11 -->
<g id="edge13" class="edge"><title>Node13&#45;&gt;Node11</title>
<path fill="none" stroke="midnightblue" d="M770.374,-177.713C780.65,-189.149 791.984,-203.75 797.75,-213.234"/>
<polygon fill="midnightblue" stroke="midnightblue" points="772.908,-175.298 763.511,-170.403 767.805,-180.089 772.908,-175.298"/>
</g>
<!-- Node14 -->
<g id="node14" class="node"><title>Node14</title>
<g id="a_node14"><a xlink:href="_sys_ex_8cpp.html" target="_top" xlink:title="sysex/src/SysEx.cpp">
<polygon fill="white" stroke="black" points="705,-78 705,-99 828,-99 828,-78 705,-78"/>
<text text-anchor="middle" x="766.5" y="-85.4" font-family="Helvetica,sans-Serif" font-size="12.00">sysex/src/SysEx.cpp</text>
</a>
</g>
</g>
<!-- Node13&#45;&gt;Node14 -->
<g id="edge14" class="edge"><title>Node13&#45;&gt;Node14</title>
<path fill="none" stroke="midnightblue" d="M755.026,-138.981C758.057,-125.91 761.914,-109.278 764.294,-99.0127"/>
<polygon fill="midnightblue" stroke="midnightblue" points="751.574,-138.374 752.725,-148.906 758.393,-139.955 751.574,-138.374"/>
</g>
<!-- Node15&#45;&gt;Node9 -->
<g id="edge16" class="edge"><title>Node15&#45;&gt;Node9</title>
<path fill="none" stroke="midnightblue" d="M523.988,-179.93C576.048,-198.746 652.955,-230.369 712.5,-271 746.686,-294.327 779.402,-331.553 793.812,-348.953"/>
<polygon fill="midnightblue" stroke="midnightblue" points="525.16,-176.632 514.566,-176.566 522.807,-183.224 525.16,-176.632"/>
</g>
<!-- Node16 -->
<g id="node16" class="node"><title>Node16</title>
<g id="a_node16"><a xlink:href="_digital_input_8h.html" target="_top" xlink:title="interface/digital/input\l/DigitalInput.h">
<polygon fill="white" stroke="black" points="400.5,-71.5 400.5,-105.5 524.5,-105.5 524.5,-71.5 400.5,-71.5"/>
<text text-anchor="start" x="408.5" y="-91.9" font-family="Helvetica,sans-Serif" font-size="12.00">interface/digital/input</text>
<text text-anchor="middle" x="462.5" y="-78.9" font-family="Helvetica,sans-Serif" font-size="12.00">/DigitalInput.h</text>
</a>
</g>
</g>
<!-- Node15&#45;&gt;Node16 -->
<g id="edge17" class="edge"><title>Node15&#45;&gt;Node16</title>
<path fill="none" stroke="midnightblue" d="M464.359,-132.247C463.974,-123.392 463.555,-113.767 463.213,-105.896"/>
<polygon fill="midnightblue" stroke="midnightblue" points="460.873,-132.658 464.804,-142.497 467.866,-132.354 460.873,-132.658"/>
</g>
<!-- Node18 -->
<g id="node18" class="node"><title>Node18</title>
<g id="a_node18"><a xlink:href="interface_2digital_2input_2buttons_2_buttons_8cpp.html" target="_top" xlink:title="interface/digital/input\l/buttons/Buttons.cpp">
<polygon fill="white" stroke="black" points="258.5,-71.5 258.5,-105.5 382.5,-105.5 382.5,-71.5 258.5,-71.5"/>
<text text-anchor="start" x="266.5" y="-91.9" font-family="Helvetica,sans-Serif" font-size="12.00">interface/digital/input</text>
<text text-anchor="middle" x="320.5" y="-78.9" font-family="Helvetica,sans-Serif" font-size="12.00">/buttons/Buttons.cpp</text>
</a>
</g>
</g>
<!-- Node15&#45;&gt;Node18 -->
<g id="edge20" class="edge"><title>Node15&#45;&gt;Node18</title>
<path fill="none" stroke="midnightblue" d="M422.789,-138.175C400.904,-127.761 374.636,-115.261 354.199,-105.536"/>
<polygon fill="midnightblue" stroke="midnightblue" points="421.336,-141.36 431.87,-142.497 424.344,-135.039 421.336,-141.36"/>
</g>
<!-- Node16&#45;&gt;Node10 -->
<g id="edge18" class="edge"><title>Node16&#45;&gt;Node10</title>
<path fill="none" stroke="midnightblue" d="M421.856,-111.464C410.953,-119.521 400.527,-129.733 394.5,-142 387.641,-155.962 386.01,-163.965 394.5,-177 419.622,-215.57 550.238,-259.14 612.032,-277.982"/>
<polygon fill="midnightblue" stroke="midnightblue" points="423.955,-114.268 430.221,-105.725 419.995,-108.496 423.955,-114.268"/>
</g>
<!-- Node17 -->
<g id="node17" class="node"><title>Node17</title>
<g id="a_node17"><a xlink:href="_digital_input_8cpp.html" target="_top" xlink:title="interface/digital/input\l/DigitalInput.cpp">
<polygon fill="white" stroke="black" points="400.5,-0.5 400.5,-34.5 524.5,-34.5 524.5,-0.5 400.5,-0.5"/>
<text text-anchor="start" x="408.5" y="-20.9" font-family="Helvetica,sans-Serif" font-size="12.00">interface/digital/input</text>
<text text-anchor="middle" x="462.5" y="-7.9" font-family="Helvetica,sans-Serif" font-size="12.00">/DigitalInput.cpp</text>
</a>
</g>
</g>
<!-- Node16&#45;&gt;Node17 -->
<g id="edge19" class="edge"><title>Node16&#45;&gt;Node17</title>
<path fill="none" stroke="midnightblue" d="M462.5,-61.2468C462.5,-52.3917 462.5,-42.7667 462.5,-34.8958"/>
<polygon fill="midnightblue" stroke="midnightblue" points="459,-61.4965 462.5,-71.4966 466,-61.4966 459,-61.4965"/>
</g>
<!-- Node19&#45;&gt;Node16 -->
<g id="edge23" class="edge"><title>Node19&#45;&gt;Node16</title>
<path fill="none" stroke="midnightblue" d="M567.61,-138.175C545.122,-127.761 518.129,-115.261 497.128,-105.536"/>
<polygon fill="midnightblue" stroke="midnightblue" points="566.397,-141.47 576.942,-142.497 569.338,-135.118 566.397,-141.47"/>
</g>
<!-- Node20 -->
<g id="node20" class="node"><title>Node20</title>
<g id="a_node20"><a xlink:href="interface_2digital_2input_2encoders_2_encoders_8cpp.html" target="_top" xlink:title="interface/digital/input\l/encoders/Encoders.cpp">
<polygon fill="white" stroke="black" points="542.5,-71.5 542.5,-105.5 686.5,-105.5 686.5,-71.5 542.5,-71.5"/>
<text text-anchor="start" x="550.5" y="-91.9" font-family="Helvetica,sans-Serif" font-size="12.00">interface/digital/input</text>
<text text-anchor="middle" x="614.5" y="-78.9" font-family="Helvetica,sans-Serif" font-size="12.00">/encoders/Encoders.cpp</text>
</a>
</g>
</g>
<!-- Node19&#45;&gt;Node20 -->
<g id="edge24" class="edge"><title>Node19&#45;&gt;Node20</title>
<path fill="none" stroke="midnightblue" d="M612.641,-132.247C613.026,-123.392 613.445,-113.767 613.787,-105.896"/>
<polygon fill="midnightblue" stroke="midnightblue" points="609.134,-132.354 612.196,-142.497 616.127,-132.658 609.134,-132.354"/>
</g>
<!-- Node25&#45;&gt;Node10 -->
<g id="edge32" class="edge"><title>Node25&#45;&gt;Node10</title>
<path fill="none" stroke="midnightblue" d="M643.878,-332.386C644.047,-320.788 644.234,-307.843 644.359,-299.24"/>
<polygon fill="midnightblue" stroke="midnightblue" points="640.377,-332.447 643.732,-342.497 647.377,-332.548 640.377,-332.447"/>
</g>
<!-- Node26 -->
<g id="node26" class="node"><title>Node26</title>
<g id="a_node26"><a xlink:href="interface_2digital_2output_2leds_2_l_e_ds_8cpp.html" target="_top" xlink:title="interface/digital/output\l/leds/LEDs.cpp">
<polygon fill="white" stroke="black" points="436,-271.5 436,-305.5 567,-305.5 567,-271.5 436,-271.5"/>
<text text-anchor="start" x="444" y="-291.9" font-family="Helvetica,sans-Serif" font-size="12.00">interface/digital/output</text>
<text text-anchor="middle" x="501.5" y="-278.9" font-family="Helvetica,sans-Serif" font-size="12.00">/leds/LEDs.cpp</text>
</a>
</g>
</g>
<!-- Node25&#45;&gt;Node26 -->
<g id="edge33" class="edge"><title>Node25&#45;&gt;Node26</title>
<path fill="none" stroke="midnightblue" d="M601.419,-338.052C580.126,-327.706 554.647,-315.325 534.748,-305.656"/>
<polygon fill="midnightblue" stroke="midnightblue" points="600.041,-341.274 610.565,-342.497 603.101,-334.978 600.041,-341.274"/>
</g>
</g>
</svg>
