<?xml version="1.0" encoding="UTF-8" standalone="no"?>
<!DOCTYPE svg PUBLIC "-//W3C//DTD SVG 1.1//EN"
 "http://www.w3.org/Graphics/SVG/1.1/DTD/svg11.dtd">
<!-- Generated by graphviz version 2.38.0 (20140413.2041)
 -->
<!-- Title: board/Common.h Pages: 1 -->
<!--zoomable 436 -->
<svg id="main" version="1.1" xmlns="http://www.w3.org/2000/svg" xmlns:xlink="http://www.w3.org/1999/xlink" xml:space="preserve" onload="init(evt)">
<style type="text/css"><![CDATA[
.edge:hover path { stroke: red; }
.edge:hover polygon { stroke: red; fill: red; }
]]></style>
<script type="text/javascript"><![CDATA[
var edges = document.getElementsByTagName('g');
if (edges && edges.length) {
  for (var i=0;i<edges.length;i++) {
    if (edges[i].id.substr(0,4)=='edge') {
      edges[i].setAttribute('class','edge');
    }
  }
}
]]></script>
        <defs>
                <circle id="rim" cx="0" cy="0" r="7"/>
                <circle id="rim2" cx="0" cy="0" r="3.5"/>
                <g id="zoomPlus">
                        <use xlink:href="#rim" fill="#404040">
                                <set attributeName="fill" to="#808080" begin="zoomplus.mouseover" end="zoomplus.mouseout"/>
                        </use>
                        <path d="M-4,0h8M0,-4v8" fill="none" stroke="white" stroke-width="1.5" pointer-events="none"/>
                </g>
                <g id="zoomMin">
                        <use xlink:href="#rim" fill="#404040">
                                <set attributeName="fill" to="#808080" begin="zoomminus.mouseover" end="zoomminus.mouseout"/>
                        </use>
                        <path d="M-4,0h8" fill="none" stroke="white" stroke-width="1.5" pointer-events="none"/>
                </g>
                <g id="dirArrow">
                        <path fill="none" stroke="white" stroke-width="1.5" d="M0,-3.0v7 M-2.5,-0.5L0,-3.0L2.5,-0.5"/>
                </g>
               <g id="resetDef">
                       <use xlink:href="#rim2" fill="#404040">
                               <set attributeName="fill" to="#808080" begin="reset.mouseover" end="reset.mouseout"/>
                       </use>
               </g>
        </defs>

<script type="text/javascript">
var viewWidth = 545;
var viewHeight = 436;
var sectionId = 'dynsection-0';
</script>
<script xlink:href="svgpan.js"/>
<svg id="graph" class="graph">
<g id="viewport">
<title>board/Common.h</title>
<polygon fill="white" stroke="none" points="-4,4 -4,-432 541,-432 541,4 -4,4"/>
<!-- Node0 -->
<g id="node1" class="node"><title>Node0</title>
<polygon fill="#bfbfbf" stroke="black" points="139.5,-406.5 139.5,-427.5 246.5,-427.5 246.5,-406.5 139.5,-406.5"/>
<text text-anchor="middle" x="193" y="-413.9" font-family="Helvetica,sans-Serif" font-size="12.00">board/Common.h</text>
</g>
<!-- Node1 -->
<g id="node2" class="node"><title>Node1</title>
<g id="a_node2"><a xlink:href="board_2_data_types_8h.html" target="_top" xlink:title="DataTypes.h">
<polygon fill="white" stroke="black" points="107.5,-348.5 107.5,-369.5 190.5,-369.5 190.5,-348.5 107.5,-348.5"/>
<text text-anchor="middle" x="149" y="-355.9" font-family="Helvetica,sans-Serif" font-size="12.00">DataTypes.h</text>
</a>
</g>
</g>
<!-- Node0&#45;&gt;Node1 -->
<g id="edge1" class="edge"><title>Node0&#45;&gt;Node1</title>
<path fill="none" stroke="midnightblue" d="M185.336,-406.246C179.153,-398.376 170.294,-387.101 162.871,-377.654"/>
<polygon fill="midnightblue" stroke="midnightblue" points="165.507,-375.343 156.576,-369.643 160.003,-379.668 165.507,-375.343"/>
</g>
<!-- Node2 -->
<g id="node3" class="node"><title>Node2</title>
<g id="a_node3"><a xlink:href="_import_8h.html" target="_top" xlink:title="Import.h">
<polygon fill="white" stroke="black" points="209,-348.5 209,-369.5 267,-369.5 267,-348.5 209,-348.5"/>
<text text-anchor="middle" x="238" y="-355.9" font-family="Helvetica,sans-Serif" font-size="12.00">Import.h</text>
</a>
</g>
</g>
<!-- Node0&#45;&gt;Node2 -->
<g id="edge2" class="edge"><title>Node0&#45;&gt;Node2</title>
<path fill="none" stroke="midnightblue" d="M200.838,-406.246C207.162,-398.376 216.222,-387.101 223.814,-377.654"/>
<polygon fill="midnightblue" stroke="midnightblue" points="226.716,-379.63 230.251,-369.643 221.259,-375.245 226.716,-379.63"/>
</g>
<!-- Node3 -->
<g id="node4" class="node"><title>Node3</title>
<g id="a_node4"><a xlink:href="_export_8h.html" target="_top" xlink:title="../interface/Export.h">
<polygon fill="white" stroke="black" points="180,-290.5 180,-311.5 296,-311.5 296,-290.5 180,-290.5"/>
<text text-anchor="middle" x="238" y="-297.9" font-family="Helvetica,sans-Serif" font-size="12.00">../interface/Export.h</text>
</a>
</g>
</g>
<!-- Node2&#45;&gt;Node3 -->
<g id="edge3" class="edge"><title>Node2&#45;&gt;Node3</title>
<path fill="none" stroke="midnightblue" d="M238,-348.246C238,-340.938 238,-330.694 238,-321.705"/>
<polygon fill="midnightblue" stroke="midnightblue" points="241.5,-321.643 238,-311.643 234.5,-321.643 241.5,-321.643"/>
</g>
<!-- Node4 -->
<g id="node5" class="node"><title>Node4</title>
<g id="a_node5"><a xlink:href="interface_2leds_2_variables_8h.html" target="_top" xlink:title="leds/Variables.h">
<polygon fill="white" stroke="black" points="4.5,-232.5 4.5,-253.5 105.5,-253.5 105.5,-232.5 4.5,-232.5"/>
<text text-anchor="middle" x="55" y="-239.9" font-family="Helvetica,sans-Serif" font-size="12.00">leds/Variables.h</text>
</a>
</g>
</g>
<!-- Node3&#45;&gt;Node4 -->
<g id="edge4" class="edge"><title>Node3&#45;&gt;Node4</title>
<path fill="none" stroke="midnightblue" d="M206.541,-290.373C175.979,-281.021 129.417,-266.773 95.9739,-256.538"/>
<polygon fill="midnightblue" stroke="midnightblue" points="96.6348,-253.081 86.0483,-253.501 94.5864,-259.774 96.6348,-253.081"/>
</g>
<!-- Node6 -->
<g id="node7" class="node"><title>Node6</title>
<g id="a_node7"><a xlink:href="interface_2leds_2_data_types_8h.html" target="_top" xlink:title="leds/DataTypes.h">
<polygon fill="white" stroke="black" points="123.5,-232.5 123.5,-253.5 230.5,-253.5 230.5,-232.5 123.5,-232.5"/>
<text text-anchor="middle" x="177" y="-239.9" font-family="Helvetica,sans-Serif" font-size="12.00">leds/DataTypes.h</text>
</a>
</g>
</g>
<!-- Node3&#45;&gt;Node6 -->
<g id="edge6" class="edge"><title>Node3&#45;&gt;Node6</title>
<path fill="none" stroke="midnightblue" d="M227.375,-290.246C218.453,-282.055 205.512,-270.175 194.981,-260.507"/>
<polygon fill="midnightblue" stroke="midnightblue" points="197.237,-257.827 187.504,-253.643 192.503,-262.984 197.237,-257.827"/>
</g>
<!-- Node7 -->
<g id="node8" class="node"><title>Node7</title>
<g id="a_node8"><a xlink:href="interface_2leds_2_constants_8h.html" target="_top" xlink:title="leds/Constants.h">
<polygon fill="white" stroke="black" points="248.5,-232.5 248.5,-253.5 351.5,-253.5 351.5,-232.5 248.5,-232.5"/>
<text text-anchor="middle" x="300" y="-239.9" font-family="Helvetica,sans-Serif" font-size="12.00">leds/Constants.h</text>
</a>
</g>
</g>
<!-- Node3&#45;&gt;Node7 -->
<g id="edge7" class="edge"><title>Node3&#45;&gt;Node7</title>
<path fill="none" stroke="midnightblue" d="M248.8,-290.246C257.868,-282.055 271.021,-270.175 281.724,-260.507"/>
<polygon fill="midnightblue" stroke="midnightblue" points="284.249,-262.943 289.324,-253.643 279.557,-257.748 284.249,-262.943"/>
</g>
<!-- Node19 -->
<g id="node20" class="node"><title>Node19</title>
<g id="a_node20"><a xlink:href="midi_2src_2_m_i_d_i_8h.html" target="_top" xlink:title="../midi/src/MIDI.h">
<polygon fill="white" stroke="black" points="370,-232.5 370,-253.5 472,-253.5 472,-232.5 370,-232.5"/>
<text text-anchor="middle" x="421" y="-239.9" font-family="Helvetica,sans-Serif" font-size="12.00">../midi/src/MIDI.h</text>
</a>
</g>
</g>
<!-- Node3&#45;&gt;Node19 -->
<g id="edge19" class="edge"><title>Node3&#45;&gt;Node19</title>
<path fill="none" stroke="midnightblue" d="M269.459,-290.373C300.021,-281.021 346.583,-266.773 380.026,-256.538"/>
<polygon fill="midnightblue" stroke="midnightblue" points="381.414,-259.774 389.952,-253.501 379.365,-253.081 381.414,-259.774"/>
</g>
<!-- Node5 -->
<g id="node6" class="node"><title>Node5</title>
<g id="a_node6"><a xlink:href="_board_8h.html" target="_top" xlink:title="../../board/Board.h">
<polygon fill="white" stroke="black" points="0,-174.5 0,-195.5 110,-195.5 110,-174.5 0,-174.5"/>
<text text-anchor="middle" x="55" y="-181.9" font-family="Helvetica,sans-Serif" font-size="12.00">../../board/Board.h</text>
</a>
</g>
</g>
<!-- Node4&#45;&gt;Node5 -->
<g id="edge5" class="edge"><title>Node4&#45;&gt;Node5</title>
<path fill="none" stroke="midnightblue" d="M55,-232.246C55,-224.938 55,-214.694 55,-205.705"/>
<polygon fill="midnightblue" stroke="midnightblue" points="58.5001,-205.643 55,-195.643 51.5001,-205.643 58.5001,-205.643"/>
</g>
<!-- Node8 -->
<g id="node9" class="node"><title>Node8</title>
<g id="a_node9"><a xlink:href="_database_8h.html" target="_top" xlink:title="../../database/Database.h">
<polygon fill="white" stroke="black" points="226,-174.5 226,-195.5 374,-195.5 374,-174.5 226,-174.5"/>
<text text-anchor="middle" x="300" y="-181.9" font-family="Helvetica,sans-Serif" font-size="12.00">../../database/Database.h</text>
</a>
</g>
</g>
<!-- Node7&#45;&gt;Node8 -->
<g id="edge8" class="edge"><title>Node7&#45;&gt;Node8</title>
<path fill="none" stroke="midnightblue" d="M300,-232.246C300,-224.938 300,-214.694 300,-205.705"/>
<polygon fill="midnightblue" stroke="midnightblue" points="303.5,-205.643 300,-195.643 296.5,-205.643 303.5,-205.643"/>
</g>
<!-- Node9 -->
<g id="node10" class="node"><title>Node9</title>
<g id="a_node10"><a xlink:href="_d_b_m_s_8h.html" target="_top" xlink:title="../dbms/src/DBMS.h">
<polygon fill="white" stroke="black" points="51.5,-116.5 51.5,-137.5 172.5,-137.5 172.5,-116.5 51.5,-116.5"/>
<text text-anchor="middle" x="112" y="-123.9" font-family="Helvetica,sans-Serif" font-size="12.00">../dbms/src/DBMS.h</text>
</a>
</g>
</g>
<!-- Node8&#45;&gt;Node9 -->
<g id="edge9" class="edge"><title>Node8&#45;&gt;Node9</title>
<path fill="none" stroke="midnightblue" d="M267.682,-174.373C236.149,-164.981 188.038,-150.65 153.65,-140.406"/>
<polygon fill="midnightblue" stroke="midnightblue" points="154.48,-137.002 143.897,-137.501 152.481,-143.71 154.48,-137.002"/>
</g>
<!-- Node12 -->
<g id="node13" class="node"><title>Node12</title>
<g id="a_node13"><a xlink:href="_blocks_8h.html" target="_top" xlink:title="blocks/Blocks.h">
<polygon fill="white" stroke="black" points="251,-116.5 251,-137.5 349,-137.5 349,-116.5 251,-116.5"/>
<text text-anchor="middle" x="300" y="-123.9" font-family="Helvetica,sans-Serif" font-size="12.00">blocks/Blocks.h</text>
</a>
</g>
</g>
<!-- Node8&#45;&gt;Node12 -->
<g id="edge12" class="edge"><title>Node8&#45;&gt;Node12</title>
<path fill="none" stroke="midnightblue" d="M300,-174.246C300,-166.938 300,-156.694 300,-147.705"/>
<polygon fill="midnightblue" stroke="midnightblue" points="303.5,-147.643 300,-137.643 296.5,-147.643 303.5,-147.643"/>
</g>
<!-- Node18 -->
<g id="node19" class="node"><title>Node18</title>
<g id="a_node19"><a xlink:href="database_2_config_8h.html" target="_top" xlink:title="Config.h">
<polygon fill="white" stroke="black" points="367,-116.5 367,-137.5 427,-137.5 427,-116.5 367,-116.5"/>
<text text-anchor="middle" x="397" y="-123.9" font-family="Helvetica,sans-Serif" font-size="12.00">Config.h</text>
</a>
</g>
</g>
<!-- Node8&#45;&gt;Node18 -->
<g id="edge18" class="edge"><title>Node8&#45;&gt;Node18</title>
<path fill="none" stroke="midnightblue" d="M316.896,-174.246C331.918,-165.573 354.104,-152.765 371.321,-142.825"/>
<polygon fill="midnightblue" stroke="midnightblue" points="373.387,-145.674 380.298,-137.643 369.887,-139.611 373.387,-145.674"/>
</g>
<!-- Node10 -->
<g id="node11" class="node"><title>Node10</title>
<g id="a_node11"><a xlink:href="dbms_2src_2_data_types_8h.html" target="_top" xlink:title="DataTypes.h">
<polygon fill="white" stroke="black" points="55.5,-58.5 55.5,-79.5 138.5,-79.5 138.5,-58.5 55.5,-58.5"/>
<text text-anchor="middle" x="97" y="-65.9" font-family="Helvetica,sans-Serif" font-size="12.00">DataTypes.h</text>
</a>
</g>
</g>
<!-- Node9&#45;&gt;Node10 -->
<g id="edge10" class="edge"><title>Node9&#45;&gt;Node10</title>
<path fill="none" stroke="midnightblue" d="M109.387,-116.246C107.408,-108.858 104.626,-98.4689 102.199,-89.4087"/>
<polygon fill="midnightblue" stroke="midnightblue" points="105.551,-88.3966 99.5829,-79.6427 98.7895,-90.2078 105.551,-88.3966"/>
</g>
<!-- Node11 -->
<g id="node12" class="node"><title>Node11</title>
<g id="a_node12"><a xlink:href="dbms_2src_2_config_8h.html" target="_top" xlink:title="Config.h">
<polygon fill="white" stroke="black" points="67,-0.5 67,-21.5 127,-21.5 127,-0.5 67,-0.5"/>
<text text-anchor="middle" x="97" y="-7.9" font-family="Helvetica,sans-Serif" font-size="12.00">Config.h</text>
</a>
</g>
</g>
<!-- Node10&#45;&gt;Node11 -->
<g id="edge11" class="edge"><title>Node10&#45;&gt;Node11</title>
<path fill="none" stroke="midnightblue" d="M97,-58.2455C97,-50.9382 97,-40.6944 97,-31.7046"/>
<polygon fill="midnightblue" stroke="midnightblue" points="100.5,-31.6426 97,-21.6427 93.5001,-31.6427 100.5,-31.6426"/>
</g>
<!-- Node13 -->
<g id="node14" class="node"><title>Node13</title>
<g id="a_node14"><a xlink:href="database_2blocks_2_m_i_d_i_8h.html" target="_top" xlink:title="MIDI.h">
<polygon fill="white" stroke="black" points="156.5,-58.5 156.5,-79.5 205.5,-79.5 205.5,-58.5 156.5,-58.5"/>
<text text-anchor="middle" x="181" y="-65.9" font-family="Helvetica,sans-Serif" font-size="12.00">MIDI.h</text>
</a>
</g>
</g>
<!-- Node12&#45;&gt;Node13 -->
<g id="edge13" class="edge"><title>Node12&#45;&gt;Node13</title>
<path fill="none" stroke="midnightblue" d="M279.543,-116.373C260.526,-107.424 231.982,-93.9917 210.502,-83.8835"/>
<polygon fill="midnightblue" stroke="midnightblue" points="211.728,-80.5923 201.19,-79.5011 208.748,-86.926 211.728,-80.5923"/>
</g>
<!-- Node14 -->
<g id="node15" class="node"><title>Node14</title>
<g id="a_node15"><a xlink:href="database_2blocks_2_buttons_8h.html" target="_top" xlink:title="Buttons.h">
<polygon fill="white" stroke="black" points="223.5,-58.5 223.5,-79.5 288.5,-79.5 288.5,-58.5 223.5,-58.5"/>
<text text-anchor="middle" x="256" y="-65.9" font-family="Helvetica,sans-Serif" font-size="12.00">Buttons.h</text>
</a>
</g>
</g>
<!-- Node12&#45;&gt;Node14 -->
<g id="edge14" class="edge"><title>Node12&#45;&gt;Node14</title>
<path fill="none" stroke="midnightblue" d="M292.336,-116.246C286.153,-108.376 277.294,-97.101 269.871,-87.6542"/>
<polygon fill="midnightblue" stroke="midnightblue" points="272.507,-85.3435 263.576,-79.6427 267.003,-89.6683 272.507,-85.3435"/>
</g>
<!-- Node15 -->
<g id="node16" class="node"><title>Node15</title>
<g id="a_node16"><a xlink:href="database_2blocks_2_encoders_8h.html" target="_top" xlink:title="Encoders.h">
<polygon fill="white" stroke="black" points="307,-58.5 307,-79.5 383,-79.5 383,-58.5 307,-58.5"/>
<text text-anchor="middle" x="345" y="-65.9" font-family="Helvetica,sans-Serif" font-size="12.00">Encoders.h</text>
</a>
</g>
</g>
<!-- Node12&#45;&gt;Node15 -->
<g id="edge15" class="edge"><title>Node12&#45;&gt;Node15</title>
<path fill="none" stroke="midnightblue" d="M307.838,-116.246C314.162,-108.376 323.222,-97.101 330.814,-87.6542"/>
<polygon fill="midnightblue" stroke="midnightblue" points="333.716,-89.6302 337.251,-79.6427 328.259,-85.2454 333.716,-89.6302"/>
</g>
<!-- Node16 -->
<g id="node17" class="node"><title>Node16</title>
<g id="a_node17"><a xlink:href="database_2blocks_2_analog_8h.html" target="_top" xlink:title="Analog.h">
<polygon fill="white" stroke="black" points="401,-58.5 401,-79.5 463,-79.5 463,-58.5 401,-58.5"/>
<text text-anchor="middle" x="432" y="-65.9" font-family="Helvetica,sans-Serif" font-size="12.00">Analog.h</text>
</a>
</g>
</g>
<!-- Node12&#45;&gt;Node16 -->
<g id="edge16" class="edge"><title>Node12&#45;&gt;Node16</title>
<path fill="none" stroke="midnightblue" d="M322.692,-116.373C344.071,-107.303 376.306,-93.6279 400.236,-83.4755"/>
<polygon fill="midnightblue" stroke="midnightblue" points="401.766,-86.6287 409.604,-79.5011 399.032,-80.1846 401.766,-86.6287"/>
</g>
<!-- Node17 -->
<g id="node18" class="node"><title>Node17</title>
<g id="a_node18"><a xlink:href="database_2blocks_2_l_e_ds_8h.html" target="_top" xlink:title="LEDs.h">
<polygon fill="white" stroke="black" points="481,-58.5 481,-79.5 537,-79.5 537,-58.5 481,-58.5"/>
<text text-anchor="middle" x="509" y="-65.9" font-family="Helvetica,sans-Serif" font-size="12.00">LEDs.h</text>
</a>
</g>
</g>
<!-- Node12&#45;&gt;Node17 -->
<g id="edge17" class="edge"><title>Node12&#45;&gt;Node17</title>
<path fill="none" stroke="midnightblue" d="M335.915,-116.424C368.677,-107.683 418.693,-94.3213 470.942,-80.2801"/>
<polygon fill="midnightblue" stroke="midnightblue" points="471.972,-83.6276 480.72,-77.6514 470.155,-76.8676 471.972,-83.6276"/>
</g>
</g>
</svg>
        <g id="navigator" transform="translate(0 0)" fill="#404254">
                <rect fill="#f2f5e9" fill-opacity="0.5" stroke="#606060" stroke-width=".5" x="0" y="0" width="60" height="60"/>
                <use id="zoomplus" xlink:href="#zoomPlus" x="17" y="9" onmousedown="handleZoom(evt,'in')"/>
                <use id="zoomminus" xlink:href="#zoomMin" x="42" y="9" onmousedown="handleZoom(evt,'out')"/>
                <use id="reset" xlink:href="#resetDef" x="30" y="36" onmousedown="handleReset()"/>
                <g id="arrowUp" xlink:href="#dirArrow" transform="translate(30 24)" onmousedown="handlePan(0,-1)">
                  <use xlink:href="#rim" fill="#404040">
                        <set attributeName="fill" to="#808080" begin="arrowUp.mouseover" end="arrowUp.mouseout"/>
                  </use>
                  <path fill="none" stroke="white" stroke-width="1.5" d="M0,-3.0v7 M-2.5,-0.5L0,-3.0L2.5,-0.5"/>
                </g>
                <g id="arrowRight" xlink:href="#dirArrow" transform="rotate(90) translate(36 -43)" onmousedown="handlePan(1,0)">
                  <use xlink:href="#rim" fill="#404040">
                        <set attributeName="fill" to="#808080" begin="arrowRight.mouseover" end="arrowRight.mouseout"/>
                  </use>
                  <path fill="none" stroke="white" stroke-width="1.5" d="M0,-3.0v7 M-2.5,-0.5L0,-3.0L2.5,-0.5"/>
                </g>
                <g id="arrowDown" xlink:href="#dirArrow" transform="rotate(180) translate(-30 -48)" onmousedown="handlePan(0,1)">
                  <use xlink:href="#rim" fill="#404040">
                        <set attributeName="fill" to="#808080" begin="arrowDown.mouseover" end="arrowDown.mouseout"/>
                  </use>
                  <path fill="none" stroke="white" stroke-width="1.5" d="M0,-3.0v7 M-2.5,-0.5L0,-3.0L2.5,-0.5"/>
                </g>
                <g id="arrowLeft" xlink:href="#dirArrow" transform="rotate(270) translate(-36 17)" onmousedown="handlePan(-1,0)">
                  <use xlink:href="#rim" fill="#404040">
                        <set attributeName="fill" to="#808080" begin="arrowLeft.mouseover" end="arrowLeft.mouseout"/>
                  </use>
                  <path fill="none" stroke="white" stroke-width="1.5" d="M0,-3.0v7 M-2.5,-0.5L0,-3.0L2.5,-0.5"/>
                </g>
        </g>
        <svg viewBox="0 0 15 15" width="100%" height="30px" preserveAspectRatio="xMaxYMin meet">
         <g id="arrow_out" transform="scale(0.3 0.3)">
          <a xlink:href="_common_8h__incl_org.svg" target="_base">
           <rect id="button" ry="5" rx="5" y="6" x="6" height="38" width="38"
                fill="#f2f5e9" fill-opacity="0.5" stroke="#606060" stroke-width="1.0"/>
           <path id="arrow"
             d="M 11.500037,31.436501 C 11.940474,20.09759 22.043105,11.32322 32.158766,21.979434 L 37.068811,17.246167 C 37.068811,17.246167 37.088388,32 37.088388,32 L 22.160133,31.978069 C 22.160133,31.978069 26.997745,27.140456 26.997745,27.140456 C 18.528582,18.264221 13.291696,25.230495 11.500037,31.436501 z"
             style="fill:#404040;"/>
          </a>
         </g>
        </svg>
</svg>
