<?xml version="1.0" encoding="UTF-8" standalone="no"?>
<!DOCTYPE svg PUBLIC "-//W3C//DTD SVG 1.1//EN"
 "http://www.w3.org/Graphics/SVG/1.1/DTD/svg11.dtd">
<!-- Generated by graphviz version 2.38.0 (20140413.2041)
 -->
<!-- Title: core/src/Core.h Pages: 1 -->
<svg width="662pt" height="204pt"
 viewBox="0.00 0.00 662.00 204.00" xmlns="http://www.w3.org/2000/svg" xmlns:xlink="http://www.w3.org/1999/xlink">
<g id="graph0" class="graph" transform="scale(1 1) rotate(0) translate(4 200)">
<title>core/src/Core.h</title>
<polygon fill="white" stroke="none" points="-4,4 -4,-200 658,-200 658,4 -4,4"/>
<!-- Node0 -->
<g id="node1" class="node"><title>Node0</title>
<polygon fill="#bfbfbf" stroke="black" points="260.5,-174.5 260.5,-195.5 357.5,-195.5 357.5,-174.5 260.5,-174.5"/>
<text text-anchor="middle" x="309" y="-181.9" font-family="Helvetica,sans-Serif" font-size="12.00">core/src/Core.h</text>
</g>
<!-- Node1 -->
<g id="node2" class="node"><title>Node1</title>
<g id="a_node2"><a xlink:href="_bit_manipulation_8h.html" target="_top" xlink:title="general/BitManipulation.h">
<polygon fill="white" stroke="black" points="0,-116.5 0,-137.5 148,-137.5 148,-116.5 0,-116.5"/>
<text text-anchor="middle" x="74" y="-123.9" font-family="Helvetica,sans-Serif" font-size="12.00">general/BitManipulation.h</text>
</a>
</g>
</g>
<!-- Node0&#45;&gt;Node1 -->
<g id="edge1" class="edge"><title>Node0&#45;&gt;Node1</title>
<path fill="none" stroke="midnightblue" d="M268.869,-174.437C228.735,-164.873 166.922,-150.143 123.707,-139.845"/>
<polygon fill="midnightblue" stroke="midnightblue" points="124.504,-136.437 113.965,-137.524 122.882,-143.246 124.504,-136.437"/>
</g>
<!-- Node2 -->
<g id="node3" class="node"><title>Node2</title>
<g id="a_node3"><a xlink:href="_ring_buffer_8h.html" target="_top" xlink:title="general/RingBuffer.h">
<polygon fill="white" stroke="black" points="204,-116.5 204,-137.5 326,-137.5 326,-116.5 204,-116.5"/>
<text text-anchor="middle" x="265" y="-123.9" font-family="Helvetica,sans-Serif" font-size="12.00">general/RingBuffer.h</text>
</a>
</g>
</g>
<!-- Node0&#45;&gt;Node2 -->
<g id="edge2" class="edge"><title>Node0&#45;&gt;Node2</title>
<path fill="none" stroke="midnightblue" d="M301.336,-174.246C295.153,-166.376 286.294,-155.101 278.871,-145.654"/>
<polygon fill="midnightblue" stroke="midnightblue" points="281.507,-143.343 272.576,-137.643 276.003,-147.668 281.507,-143.343"/>
</g>
<!-- Node4 -->
<g id="node5" class="node"><title>Node4</title>
<g id="a_node5"><a xlink:href="_misc_8h.html" target="_top" xlink:title="Misc.h">
<polygon fill="white" stroke="black" points="196,-58.5 196,-79.5 246,-79.5 246,-58.5 196,-58.5"/>
<text text-anchor="middle" x="221" y="-65.9" font-family="Helvetica,sans-Serif" font-size="12.00">Misc.h</text>
</a>
</g>
</g>
<!-- Node0&#45;&gt;Node4 -->
<g id="edge14" class="edge"><title>Node0&#45;&gt;Node4</title>
<path fill="none" stroke="midnightblue" d="M260.26,-177.199C236.356,-171.135 209.624,-159.671 195,-138 184.578,-122.557 194.779,-102.353 205.308,-87.9904"/>
<polygon fill="midnightblue" stroke="midnightblue" points="208.254,-89.908 211.725,-79.8977 202.769,-85.5588 208.254,-89.908"/>
</g>
<!-- Node5 -->
<g id="node6" class="node"><title>Node5</title>
<g id="a_node6"><a xlink:href="_h_a_l_8h.html" target="_top" xlink:title="../HAL/HAL.h">
<polygon fill="white" stroke="black" points="312,-58.5 312,-79.5 396,-79.5 396,-58.5 312,-58.5"/>
<text text-anchor="middle" x="354" y="-65.9" font-family="Helvetica,sans-Serif" font-size="12.00">../HAL/HAL.h</text>
</a>
</g>
</g>
<!-- Node0&#45;&gt;Node5 -->
<g id="edge15" class="edge"><title>Node0&#45;&gt;Node5</title>
<path fill="none" stroke="midnightblue" d="M315.291,-174.477C321.059,-165.407 329.514,-151.217 335,-138 341.526,-122.278 346.563,-103.602 349.806,-89.8043"/>
<polygon fill="midnightblue" stroke="midnightblue" points="353.247,-90.4572 352.016,-79.934 346.416,-88.9275 353.247,-90.4572"/>
</g>
<!-- Node6 -->
<g id="node7" class="node"><title>Node6</title>
<g id="a_node7"><a xlink:href="_timing_8h.html" target="_top" xlink:title="general/Timing.h">
<polygon fill="white" stroke="black" points="382.5,-116.5 382.5,-137.5 485.5,-137.5 485.5,-116.5 382.5,-116.5"/>
<text text-anchor="middle" x="434" y="-123.9" font-family="Helvetica,sans-Serif" font-size="12.00">general/Timing.h</text>
</a>
</g>
</g>
<!-- Node0&#45;&gt;Node6 -->
<g id="edge7" class="edge"><title>Node0&#45;&gt;Node6</title>
<path fill="none" stroke="midnightblue" d="M330.488,-174.373C350.644,-165.343 380.988,-151.749 403.618,-141.611"/>
<polygon fill="midnightblue" stroke="midnightblue" points="405.097,-144.784 412.792,-137.501 402.235,-138.396 405.097,-144.784"/>
</g>
<!-- Node7 -->
<g id="node8" class="node"><title>Node7</title>
<g id="a_node8"><a xlink:href="_strings_8h.html" target="_top" xlink:title="general/Strings.h">
<polygon fill="white" stroke="black" points="504,-116.5 504,-137.5 608,-137.5 608,-116.5 504,-116.5"/>
<text text-anchor="middle" x="556" y="-123.9" font-family="Helvetica,sans-Serif" font-size="12.00">general/Strings.h</text>
</a>
</g>
</g>
<!-- Node0&#45;&gt;Node7 -->
<g id="edge10" class="edge"><title>Node0&#45;&gt;Node7</title>
<path fill="none" stroke="midnightblue" d="M351.18,-174.437C393.452,-164.853 458.606,-150.081 504.042,-139.78"/>
<polygon fill="midnightblue" stroke="midnightblue" points="505.015,-143.148 513.994,-137.524 503.467,-136.321 505.015,-143.148"/>
</g>
<!-- Node3 -->
<g id="node4" class="node"><title>Node3</title>
<polygon fill="white" stroke="#bfbfbf" points="241.5,-0.5 241.5,-21.5 306.5,-21.5 306.5,-0.5 241.5,-0.5"/>
<text text-anchor="middle" x="274" y="-7.9" font-family="Helvetica,sans-Serif" font-size="12.00">inttypes.h</text>
</g>
<!-- Node2&#45;&gt;Node3 -->
<g id="edge3" class="edge"><title>Node2&#45;&gt;Node3</title>
<path fill="none" stroke="midnightblue" d="M265.767,-116.28C267.242,-97.6031 270.497,-56.3692 272.444,-31.7152"/>
<polygon fill="midnightblue" stroke="midnightblue" points="275.937,-31.9394 273.235,-21.695 268.958,-31.3885 275.937,-31.9394"/>
</g>
<!-- Node2&#45;&gt;Node4 -->
<g id="edge4" class="edge"><title>Node2&#45;&gt;Node4</title>
<path fill="none" stroke="midnightblue" d="M257.336,-116.246C251.153,-108.376 242.294,-97.101 234.871,-87.6542"/>
<polygon fill="midnightblue" stroke="midnightblue" points="237.507,-85.3435 228.576,-79.6427 232.003,-89.6683 237.507,-85.3435"/>
</g>
<!-- Node2&#45;&gt;Node5 -->
<g id="edge6" class="edge"><title>Node2&#45;&gt;Node5</title>
<path fill="none" stroke="midnightblue" d="M280.503,-116.246C294.158,-107.653 314.266,-95.0014 329.999,-85.1018"/>
<polygon fill="midnightblue" stroke="midnightblue" points="332.075,-87.9307 338.675,-79.6427 328.347,-82.006 332.075,-87.9307"/>
</g>
<!-- Node4&#45;&gt;Node3 -->
<g id="edge5" class="edge"><title>Node4&#45;&gt;Node3</title>
<path fill="none" stroke="midnightblue" d="M230.232,-58.2455C237.832,-50.2155 248.788,-38.6394 257.837,-29.0781"/>
<polygon fill="midnightblue" stroke="midnightblue" points="260.542,-31.3115 264.874,-21.6427 255.458,-26.4998 260.542,-31.3115"/>
</g>
<!-- Node6&#45;&gt;Node3 -->
<g id="edge8" class="edge"><title>Node6&#45;&gt;Node3</title>
<path fill="none" stroke="midnightblue" d="M432.405,-116.242C429.514,-101.601 422.048,-73.9679 405,-58 380.792,-35.3262 344.76,-23.737 316.61,-17.8671"/>
<polygon fill="midnightblue" stroke="midnightblue" points="317.112,-14.3997 306.631,-15.9533 315.793,-21.2744 317.112,-14.3997"/>
</g>
<!-- Node6&#45;&gt;Node5 -->
<g id="edge9" class="edge"><title>Node6&#45;&gt;Node5</title>
<path fill="none" stroke="midnightblue" d="M420.065,-116.246C407.905,-107.734 390.054,-95.2375 375.972,-85.3801"/>
<polygon fill="midnightblue" stroke="midnightblue" points="377.975,-82.51 367.775,-79.6427 373.96,-88.2447 377.975,-82.51"/>
</g>
<!-- Node8 -->
<g id="node9" class="node"><title>Node8</title>
<polygon fill="white" stroke="#bfbfbf" points="459.5,-58.5 459.5,-79.5 512.5,-79.5 512.5,-58.5 459.5,-58.5"/>
<text text-anchor="middle" x="486" y="-65.9" font-family="Helvetica,sans-Serif" font-size="12.00">stdlib.h</text>
</g>
<!-- Node7&#45;&gt;Node8 -->
<g id="edge11" class="edge"><title>Node7&#45;&gt;Node8</title>
<path fill="none" stroke="midnightblue" d="M543.807,-116.246C533.368,-107.894 518.135,-95.7076 505.926,-85.9408"/>
<polygon fill="midnightblue" stroke="midnightblue" points="508.048,-83.1566 498.053,-79.6427 503.676,-88.6227 508.048,-83.1566"/>
</g>
<!-- Node9 -->
<g id="node10" class="node"><title>Node9</title>
<polygon fill="white" stroke="#bfbfbf" points="530.5,-58.5 530.5,-79.5 581.5,-79.5 581.5,-58.5 530.5,-58.5"/>
<text text-anchor="middle" x="556" y="-65.9" font-family="Helvetica,sans-Serif" font-size="12.00">stdio.h</text>
</g>
<!-- Node7&#45;&gt;Node9 -->
<g id="edge12" class="edge"><title>Node7&#45;&gt;Node9</title>
<path fill="none" stroke="midnightblue" d="M556,-116.246C556,-108.938 556,-98.6944 556,-89.7046"/>
<polygon fill="midnightblue" stroke="midnightblue" points="559.5,-89.6426 556,-79.6427 552.5,-89.6427 559.5,-89.6426"/>
</g>
<!-- Node10 -->
<g id="node11" class="node"><title>Node10</title>
<polygon fill="white" stroke="#bfbfbf" points="600,-58.5 600,-79.5 654,-79.5 654,-58.5 600,-58.5"/>
<text text-anchor="middle" x="627" y="-65.9" font-family="Helvetica,sans-Serif" font-size="12.00">string.h</text>
</g>
<!-- Node7&#45;&gt;Node10 -->
<g id="edge13" class="edge"><title>Node7&#45;&gt;Node10</title>
<path fill="none" stroke="midnightblue" d="M568.367,-116.246C578.955,-107.894 594.406,-95.7076 606.789,-85.9408"/>
<polygon fill="midnightblue" stroke="midnightblue" points="609.09,-88.5837 614.774,-79.6427 604.755,-83.0875 609.09,-88.5837"/>
</g>
</g>
</svg>
