<?xml version="1.0" encoding="UTF-8" standalone="no"?>
<!DOCTYPE svg PUBLIC "-//W3C//DTD SVG 1.1//EN"
 "http://www.w3.org/Graphics/SVG/1.1/DTD/svg11.dtd">
<!-- Generated by graphviz version 2.38.0 (20140413.2041)
 -->
<!-- Title: dbms/src/DBMS.h Pages: 1 -->
<svg width="120pt" height="146pt"
 viewBox="0.00 0.00 120.00 146.00" xmlns="http://www.w3.org/2000/svg" xmlns:xlink="http://www.w3.org/1999/xlink">
<g id="graph0" class="graph" transform="scale(1 1) rotate(0) translate(4 142)">
<title>dbms/src/DBMS.h</title>
<polygon fill="white" stroke="none" points="-4,4 -4,-142 116,-142 116,4 -4,4"/>
<!-- Node0 -->
<g id="node1" class="node"><title>Node0</title>
<polygon fill="#bfbfbf" stroke="black" points="0,-116.5 0,-137.5 112,-137.5 112,-116.5 0,-116.5"/>
<text text-anchor="middle" x="56" y="-123.9" font-family="Helvetica,sans-Serif" font-size="12.00">dbms/src/DBMS.h</text>
</g>
<!-- Node1 -->
<g id="node2" class="node"><title>Node1</title>
<g id="a_node2"><a xlink:href="dbms_2src_2_data_types_8h.html" target="_top" xlink:title="DataTypes.h">
<polygon fill="white" stroke="black" points="14.5,-58.5 14.5,-79.5 97.5,-79.5 97.5,-58.5 14.5,-58.5"/>
<text text-anchor="middle" x="56" y="-65.9" font-family="Helvetica,sans-Serif" font-size="12.00">DataTypes.h</text>
</a>
</g>
</g>
<!-- Node0&#45;&gt;Node1 -->
<g id="edge1" class="edge"><title>Node0&#45;&gt;Node1</title>
<path fill="none" stroke="midnightblue" d="M56,-116.246C56,-108.938 56,-98.6944 56,-89.7046"/>
<polygon fill="midnightblue" stroke="midnightblue" points="59.5001,-89.6426 56,-79.6427 52.5001,-89.6427 59.5001,-89.6426"/>
</g>
<!-- Node2 -->
<g id="node3" class="node"><title>Node2</title>
<polygon fill="white" stroke="#bfbfbf" points="23.5,-0.5 23.5,-21.5 88.5,-21.5 88.5,-0.5 23.5,-0.5"/>
<text text-anchor="middle" x="56" y="-7.9" font-family="Helvetica,sans-Serif" font-size="12.00">inttypes.h</text>
</g>
<!-- Node1&#45;&gt;Node2 -->
<g id="edge2" class="edge"><title>Node1&#45;&gt;Node2</title>
<path fill="none" stroke="midnightblue" d="M56,-58.2455C56,-50.9382 56,-40.6944 56,-31.7046"/>
<polygon fill="midnightblue" stroke="midnightblue" points="59.5001,-31.6426 56,-21.6427 52.5001,-31.6427 59.5001,-31.6426"/>
</g>
</g>
</svg>
