<?xml version="1.0" encoding="UTF-8" standalone="no"?>
<!DOCTYPE svg PUBLIC "-//W3C//DTD SVG 1.1//EN"
 "http://www.w3.org/Graphics/SVG/1.1/DTD/svg11.dtd">
<!-- Generated by graphviz version 2.38.0 (20140413.2041)
 -->
<!-- Title: dbms/src/DBMS.cpp Pages: 1 -->
<svg width="183pt" height="204pt"
 viewBox="0.00 0.00 183.00 204.00" xmlns="http://www.w3.org/2000/svg" xmlns:xlink="http://www.w3.org/1999/xlink">
<g id="graph0" class="graph" transform="scale(1 1) rotate(0) translate(4 200)">
<title>dbms/src/DBMS.cpp</title>
<polygon fill="white" stroke="none" points="-4,4 -4,-200 179,-200 179,4 -4,4"/>
<!-- Node0 -->
<g id="node1" class="node"><title>Node0</title>
<polygon fill="#bfbfbf" stroke="black" points="24,-174.5 24,-195.5 149,-195.5 149,-174.5 24,-174.5"/>
<text text-anchor="middle" x="86.5" y="-181.9" font-family="Helvetica,sans-Serif" font-size="12.00">dbms/src/DBMS.cpp</text>
</g>
<!-- Node1 -->
<g id="node2" class="node"><title>Node1</title>
<g id="a_node2"><a xlink:href="_d_b_m_s_8h.html" target="_top" xlink:title="DBMS.h">
<polygon fill="white" stroke="black" points="11,-116.5 11,-137.5 72,-137.5 72,-116.5 11,-116.5"/>
<text text-anchor="middle" x="41.5" y="-123.9" font-family="Helvetica,sans-Serif" font-size="12.00">DBMS.h</text>
</a>
</g>
</g>
<!-- Node0&#45;&gt;Node1 -->
<g id="edge1" class="edge"><title>Node0&#45;&gt;Node1</title>
<path fill="none" stroke="midnightblue" d="M78.6616,-174.246C72.338,-166.376 63.2776,-155.101 55.6864,-145.654"/>
<polygon fill="midnightblue" stroke="midnightblue" points="58.2408,-143.245 49.2486,-137.643 52.7842,-147.63 58.2408,-143.245"/>
</g>
<!-- Node4 -->
<g id="node5" class="node"><title>Node4</title>
<polygon fill="white" stroke="#bfbfbf" points="90,-116.5 90,-137.5 175,-137.5 175,-116.5 90,-116.5"/>
<text text-anchor="middle" x="132.5" y="-123.9" font-family="Helvetica,sans-Serif" font-size="12.00">avr/eeprom.h</text>
</g>
<!-- Node0&#45;&gt;Node4 -->
<g id="edge4" class="edge"><title>Node0&#45;&gt;Node4</title>
<path fill="none" stroke="midnightblue" d="M94.5126,-174.246C100.977,-166.376 110.238,-155.101 117.998,-145.654"/>
<polygon fill="midnightblue" stroke="midnightblue" points="120.936,-147.592 124.579,-137.643 115.527,-143.148 120.936,-147.592"/>
</g>
<!-- Node2 -->
<g id="node3" class="node"><title>Node2</title>
<g id="a_node3"><a xlink:href="dbms_2src_2_data_types_8h.html" target="_top" xlink:title="DataTypes.h">
<polygon fill="white" stroke="black" points="0,-58.5 0,-79.5 83,-79.5 83,-58.5 0,-58.5"/>
<text text-anchor="middle" x="41.5" y="-65.9" font-family="Helvetica,sans-Serif" font-size="12.00">DataTypes.h</text>
</a>
</g>
</g>
<!-- Node1&#45;&gt;Node2 -->
<g id="edge2" class="edge"><title>Node1&#45;&gt;Node2</title>
<path fill="none" stroke="midnightblue" d="M41.5,-116.246C41.5,-108.938 41.5,-98.6944 41.5,-89.7046"/>
<polygon fill="midnightblue" stroke="midnightblue" points="45.0001,-89.6426 41.5,-79.6427 38.0001,-89.6427 45.0001,-89.6426"/>
</g>
<!-- Node3 -->
<g id="node4" class="node"><title>Node3</title>
<polygon fill="white" stroke="#bfbfbf" points="9,-0.5 9,-21.5 74,-21.5 74,-0.5 9,-0.5"/>
<text text-anchor="middle" x="41.5" y="-7.9" font-family="Helvetica,sans-Serif" font-size="12.00">inttypes.h</text>
</g>
<!-- Node2&#45;&gt;Node3 -->
<g id="edge3" class="edge"><title>Node2&#45;&gt;Node3</title>
<path fill="none" stroke="midnightblue" d="M41.5,-58.2455C41.5,-50.9382 41.5,-40.6944 41.5,-31.7046"/>
<polygon fill="midnightblue" stroke="midnightblue" points="45.0001,-31.6426 41.5,-21.6427 38.0001,-31.6427 45.0001,-31.6426"/>
</g>
</g>
</svg>
