<?xml version="1.0" encoding="UTF-8" standalone="no"?>
<!DOCTYPE svg PUBLIC "-//W3C//DTD SVG 1.1//EN"
 "http://www.w3.org/Graphics/SVG/1.1/DTD/svg11.dtd">
<!-- Generated by graphviz version 2.38.0 (20140413.2041)
 -->
<!-- Title: database/Database.cpp Pages: 1 -->
<svg width="490pt" height="262pt"
 viewBox="0.00 0.00 489.50 262.00" xmlns="http://www.w3.org/2000/svg" xmlns:xlink="http://www.w3.org/1999/xlink">
<g id="graph0" class="graph" transform="scale(1 1) rotate(0) translate(4 258)">
<title>database/Database.cpp</title>
<polygon fill="white" stroke="none" points="-4,4 -4,-258 485.5,-258 485.5,4 -4,4"/>
<!-- Node0 -->
<g id="node1" class="node"><title>Node0</title>
<polygon fill="#bfbfbf" stroke="black" points="226,-232.5 226,-253.5 369,-253.5 369,-232.5 226,-232.5"/>
<text text-anchor="middle" x="297.5" y="-239.9" font-family="Helvetica,sans-Serif" font-size="12.00">database/Database.cpp</text>
</g>
<!-- Node1 -->
<g id="node2" class="node"><title>Node1</title>
<g id="a_node2"><a xlink:href="_database_8h.html" target="_top" xlink:title="Database.h">
<polygon fill="white" stroke="black" points="206,-174.5 206,-195.5 283,-195.5 283,-174.5 206,-174.5"/>
<text text-anchor="middle" x="244.5" y="-181.9" font-family="Helvetica,sans-Serif" font-size="12.00">Database.h</text>
</a>
</g>
</g>
<!-- Node0&#45;&gt;Node1 -->
<g id="edge1" class="edge"><title>Node0&#45;&gt;Node1</title>
<path fill="none" stroke="midnightblue" d="M288.268,-232.246C280.668,-224.216 269.712,-212.639 260.663,-203.078"/>
<polygon fill="midnightblue" stroke="midnightblue" points="263.042,-200.5 253.626,-195.643 257.958,-205.311 263.042,-200.5"/>
</g>
<!-- Node12 -->
<g id="node13" class="node"><title>Node12</title>
<g id="a_node13"><a xlink:href="_board_8h.html" target="_top" xlink:title="../board/Board.h">
<polygon fill="white" stroke="black" points="301,-174.5 301,-195.5 402,-195.5 402,-174.5 301,-174.5"/>
<text text-anchor="middle" x="351.5" y="-181.9" font-family="Helvetica,sans-Serif" font-size="12.00">../board/Board.h</text>
</a>
</g>
</g>
<!-- Node0&#45;&gt;Node12 -->
<g id="edge12" class="edge"><title>Node0&#45;&gt;Node12</title>
<path fill="none" stroke="midnightblue" d="M306.906,-232.246C314.649,-224.216 325.812,-212.639 335.032,-203.078"/>
<polygon fill="midnightblue" stroke="midnightblue" points="337.78,-205.271 342.202,-195.643 332.741,-200.412 337.78,-205.271"/>
</g>
<!-- Node2 -->
<g id="node3" class="node"><title>Node2</title>
<g id="a_node3"><a xlink:href="_d_b_m_s_8h.html" target="_top" xlink:title="../dbms/src/DBMS.h">
<polygon fill="white" stroke="black" points="41,-116.5 41,-137.5 162,-137.5 162,-116.5 41,-116.5"/>
<text text-anchor="middle" x="101.5" y="-123.9" font-family="Helvetica,sans-Serif" font-size="12.00">../dbms/src/DBMS.h</text>
</a>
</g>
</g>
<!-- Node1&#45;&gt;Node2 -->
<g id="edge2" class="edge"><title>Node1&#45;&gt;Node2</title>
<path fill="none" stroke="midnightblue" d="M219.917,-174.373C196.55,-165.223 161.214,-151.384 135.222,-141.206"/>
<polygon fill="midnightblue" stroke="midnightblue" points="136.35,-137.889 125.762,-137.501 133.797,-144.407 136.35,-137.889"/>
</g>
<!-- Node5 -->
<g id="node6" class="node"><title>Node5</title>
<g id="a_node6"><a xlink:href="_blocks_8h.html" target="_top" xlink:title="blocks/Blocks.h">
<polygon fill="white" stroke="black" points="195.5,-116.5 195.5,-137.5 293.5,-137.5 293.5,-116.5 195.5,-116.5"/>
<text text-anchor="middle" x="244.5" y="-123.9" font-family="Helvetica,sans-Serif" font-size="12.00">blocks/Blocks.h</text>
</a>
</g>
</g>
<!-- Node1&#45;&gt;Node5 -->
<g id="edge5" class="edge"><title>Node1&#45;&gt;Node5</title>
<path fill="none" stroke="midnightblue" d="M244.5,-174.246C244.5,-166.938 244.5,-156.694 244.5,-147.705"/>
<polygon fill="midnightblue" stroke="midnightblue" points="248,-147.643 244.5,-137.643 241,-147.643 248,-147.643"/>
</g>
<!-- Node11 -->
<g id="node12" class="node"><title>Node11</title>
<g id="a_node12"><a xlink:href="database_2_config_8h.html" target="_top" xlink:title="Config.h">
<polygon fill="white" stroke="black" points="311.5,-116.5 311.5,-137.5 371.5,-137.5 371.5,-116.5 311.5,-116.5"/>
<text text-anchor="middle" x="341.5" y="-123.9" font-family="Helvetica,sans-Serif" font-size="12.00">Config.h</text>
</a>
</g>
</g>
<!-- Node1&#45;&gt;Node11 -->
<g id="edge11" class="edge"><title>Node1&#45;&gt;Node11</title>
<path fill="none" stroke="midnightblue" d="M261.396,-174.246C276.418,-165.573 298.604,-152.765 315.821,-142.825"/>
<polygon fill="midnightblue" stroke="midnightblue" points="317.887,-145.674 324.798,-137.643 314.387,-139.611 317.887,-145.674"/>
</g>
<!-- Node3 -->
<g id="node4" class="node"><title>Node3</title>
<g id="a_node4"><a xlink:href="dbms_2src_2_data_types_8h.html" target="_top" xlink:title="DataTypes.h">
<polygon fill="white" stroke="black" points="0,-58.5 0,-79.5 83,-79.5 83,-58.5 0,-58.5"/>
<text text-anchor="middle" x="41.5" y="-65.9" font-family="Helvetica,sans-Serif" font-size="12.00">DataTypes.h</text>
</a>
</g>
</g>
<!-- Node2&#45;&gt;Node3 -->
<g id="edge3" class="edge"><title>Node2&#45;&gt;Node3</title>
<path fill="none" stroke="midnightblue" d="M91.0488,-116.246C82.2731,-108.055 69.5446,-96.1749 59.186,-86.5069"/>
<polygon fill="midnightblue" stroke="midnightblue" points="61.5301,-83.9072 51.8314,-79.6427 56.7539,-89.0246 61.5301,-83.9072"/>
</g>
<!-- Node4 -->
<g id="node5" class="node"><title>Node4</title>
<g id="a_node5"><a xlink:href="dbms_2src_2_config_8h.html" target="_top" xlink:title="Config.h">
<polygon fill="white" stroke="black" points="11.5,-0.5 11.5,-21.5 71.5,-21.5 71.5,-0.5 11.5,-0.5"/>
<text text-anchor="middle" x="41.5" y="-7.9" font-family="Helvetica,sans-Serif" font-size="12.00">Config.h</text>
</a>
</g>
</g>
<!-- Node3&#45;&gt;Node4 -->
<g id="edge4" class="edge"><title>Node3&#45;&gt;Node4</title>
<path fill="none" stroke="midnightblue" d="M41.5,-58.2455C41.5,-50.9382 41.5,-40.6944 41.5,-31.7046"/>
<polygon fill="midnightblue" stroke="midnightblue" points="45.0001,-31.6426 41.5,-21.6427 38.0001,-31.6427 45.0001,-31.6426"/>
</g>
<!-- Node6 -->
<g id="node7" class="node"><title>Node6</title>
<g id="a_node7"><a xlink:href="database_2blocks_2_m_i_d_i_8h.html" target="_top" xlink:title="MIDI.h">
<polygon fill="white" stroke="black" points="101,-58.5 101,-79.5 150,-79.5 150,-58.5 101,-58.5"/>
<text text-anchor="middle" x="125.5" y="-65.9" font-family="Helvetica,sans-Serif" font-size="12.00">MIDI.h</text>
</a>
</g>
</g>
<!-- Node5&#45;&gt;Node6 -->
<g id="edge6" class="edge"><title>Node5&#45;&gt;Node6</title>
<path fill="none" stroke="midnightblue" d="M224.043,-116.373C205.026,-107.424 176.482,-93.9917 155.002,-83.8835"/>
<polygon fill="midnightblue" stroke="midnightblue" points="156.228,-80.5923 145.69,-79.5011 153.248,-86.926 156.228,-80.5923"/>
</g>
<!-- Node7 -->
<g id="node8" class="node"><title>Node7</title>
<g id="a_node8"><a xlink:href="database_2blocks_2_buttons_8h.html" target="_top" xlink:title="Buttons.h">
<polygon fill="white" stroke="black" points="168,-58.5 168,-79.5 233,-79.5 233,-58.5 168,-58.5"/>
<text text-anchor="middle" x="200.5" y="-65.9" font-family="Helvetica,sans-Serif" font-size="12.00">Buttons.h</text>
</a>
</g>
</g>
<!-- Node5&#45;&gt;Node7 -->
<g id="edge7" class="edge"><title>Node5&#45;&gt;Node7</title>
<path fill="none" stroke="midnightblue" d="M236.836,-116.246C230.653,-108.376 221.794,-97.101 214.371,-87.6542"/>
<polygon fill="midnightblue" stroke="midnightblue" points="217.007,-85.3435 208.076,-79.6427 211.503,-89.6683 217.007,-85.3435"/>
</g>
<!-- Node8 -->
<g id="node9" class="node"><title>Node8</title>
<g id="a_node9"><a xlink:href="database_2blocks_2_encoders_8h.html" target="_top" xlink:title="Encoders.h">
<polygon fill="white" stroke="black" points="251.5,-58.5 251.5,-79.5 327.5,-79.5 327.5,-58.5 251.5,-58.5"/>
<text text-anchor="middle" x="289.5" y="-65.9" font-family="Helvetica,sans-Serif" font-size="12.00">Encoders.h</text>
</a>
</g>
</g>
<!-- Node5&#45;&gt;Node8 -->
<g id="edge8" class="edge"><title>Node5&#45;&gt;Node8</title>
<path fill="none" stroke="midnightblue" d="M252.338,-116.246C258.662,-108.376 267.722,-97.101 275.314,-87.6542"/>
<polygon fill="midnightblue" stroke="midnightblue" points="278.216,-89.6302 281.751,-79.6427 272.759,-85.2454 278.216,-89.6302"/>
</g>
<!-- Node9 -->
<g id="node10" class="node"><title>Node9</title>
<g id="a_node10"><a xlink:href="database_2blocks_2_analog_8h.html" target="_top" xlink:title="Analog.h">
<polygon fill="white" stroke="black" points="345.5,-58.5 345.5,-79.5 407.5,-79.5 407.5,-58.5 345.5,-58.5"/>
<text text-anchor="middle" x="376.5" y="-65.9" font-family="Helvetica,sans-Serif" font-size="12.00">Analog.h</text>
</a>
</g>
</g>
<!-- Node5&#45;&gt;Node9 -->
<g id="edge9" class="edge"><title>Node5&#45;&gt;Node9</title>
<path fill="none" stroke="midnightblue" d="M267.192,-116.373C288.571,-107.303 320.806,-93.6279 344.736,-83.4755"/>
<polygon fill="midnightblue" stroke="midnightblue" points="346.266,-86.6287 354.104,-79.5011 343.532,-80.1846 346.266,-86.6287"/>
</g>
<!-- Node10 -->
<g id="node11" class="node"><title>Node10</title>
<g id="a_node11"><a xlink:href="database_2blocks_2_l_e_ds_8h.html" target="_top" xlink:title="LEDs.h">
<polygon fill="white" stroke="black" points="425.5,-58.5 425.5,-79.5 481.5,-79.5 481.5,-58.5 425.5,-58.5"/>
<text text-anchor="middle" x="453.5" y="-65.9" font-family="Helvetica,sans-Serif" font-size="12.00">LEDs.h</text>
</a>
</g>
</g>
<!-- Node5&#45;&gt;Node10 -->
<g id="edge10" class="edge"><title>Node5&#45;&gt;Node10</title>
<path fill="none" stroke="midnightblue" d="M280.415,-116.424C313.177,-107.683 363.193,-94.3213 415.442,-80.2801"/>
<polygon fill="midnightblue" stroke="midnightblue" points="416.472,-83.6276 425.22,-77.6514 414.655,-76.8676 416.472,-83.6276"/>
</g>
</g>
</svg>
