<?xml version="1.0" encoding="UTF-8" standalone="no"?>
<!DOCTYPE svg PUBLIC "-//W3C//DTD SVG 1.1//EN"
 "http://www.w3.org/Graphics/SVG/1.1/DTD/svg11.dtd">
<!-- Generated by graphviz version 2.38.0 (20140413.2041)
 -->
<!-- Title: board/usb/Descriptors.h Pages: 1 -->
<svg width="254pt" height="101pt"
 viewBox="0.00 0.00 253.50 101.00" xmlns="http://www.w3.org/2000/svg" xmlns:xlink="http://www.w3.org/1999/xlink">
<g id="graph0" class="graph" transform="scale(1 1) rotate(0) translate(4 97)">
<title>board/usb/Descriptors.h</title>
<polygon fill="white" stroke="none" points="-4,4 -4,-97 249.5,-97 249.5,4 -4,4"/>
<!-- Node0 -->
<g id="node1" class="node"><title>Node0</title>
<polygon fill="#bfbfbf" stroke="black" points="58.5,-71.5 58.5,-92.5 200.5,-92.5 200.5,-71.5 58.5,-71.5"/>
<text text-anchor="middle" x="129.5" y="-78.9" font-family="Helvetica,sans-Serif" font-size="12.00">board/usb/Descriptors.h</text>
</g>
<!-- Node1 -->
<g id="node2" class="node"><title>Node1</title>
<polygon fill="white" stroke="#bfbfbf" points="0,-0.5 0,-34.5 127,-34.5 127,-0.5 0,-0.5"/>
<text text-anchor="start" x="8" y="-20.9" font-family="Helvetica,sans-Serif" font-size="12.00">../../lufa/LUFA/Drivers</text>
<text text-anchor="middle" x="63.5" y="-7.9" font-family="Helvetica,sans-Serif" font-size="12.00">/USB/USB.h</text>
</g>
<!-- Node0&#45;&gt;Node1 -->
<g id="edge1" class="edge"><title>Node0&#45;&gt;Node1</title>
<path fill="none" stroke="midnightblue" d="M119.188,-71.2344C110.844,-63.3331 98.7496,-51.8803 87.9624,-41.6651"/>
<polygon fill="midnightblue" stroke="midnightblue" points="90.0785,-38.8487 80.4109,-34.5141 85.2654,-43.9314 90.0785,-38.8487"/>
</g>
<!-- Node2 -->
<g id="node3" class="node"><title>Node2</title>
<polygon fill="white" stroke="#bfbfbf" points="145.5,-7 145.5,-28 245.5,-28 245.5,-7 145.5,-7"/>
<text text-anchor="middle" x="195.5" y="-14.4" font-family="Helvetica,sans-Serif" font-size="12.00">avr/pgmspace.h</text>
</g>
<!-- Node0&#45;&gt;Node2 -->
<g id="edge2" class="edge"><title>Node0&#45;&gt;Node2</title>
<path fill="none" stroke="midnightblue" d="M139.813,-71.2344C149.924,-61.6589 165.544,-46.8673 177.671,-35.3838"/>
<polygon fill="midnightblue" stroke="midnightblue" points="180.188,-37.8206 185.042,-28.4033 175.375,-32.7379 180.188,-37.8206"/>
</g>
</g>
</svg>
