<?xml version="1.0" encoding="UTF-8" standalone="no"?>
<!DOCTYPE svg PUBLIC "-//W3C//DTD SVG 1.1//EN"
 "http://www.w3.org/Graphics/SVG/1.1/DTD/svg11.dtd">
<!-- Generated by graphviz version 2.38.0 (20140413.2041)
 -->
<!-- Title: board/usb/Descriptors.c Pages: 1 -->
<svg width="6380pt" height="211pt"
 viewBox="0.00 0.00 6380.00 211.00" xmlns="http://www.w3.org/2000/svg" xmlns:xlink="http://www.w3.org/1999/xlink">
<g id="graph0" class="graph" transform="scale(1 1) rotate(0) translate(4 207)">
<title>board/usb/Descriptors.c</title>
<polygon fill="white" stroke="none" points="-4,4 -4,-207 6376,-207 6376,4 -4,4"/>
<!-- Node0 -->
<g id="node1" class="node"><title>Node0</title>
<polygon fill="#bfbfbf" stroke="black" points="2619.5,-181.5 2619.5,-202.5 2761.5,-202.5 2761.5,-181.5 2619.5,-181.5"/>
<text text-anchor="middle" x="2690.5" y="-188.9" font-family="Helvetica,sans-Serif" font-size="12.00">board/usb/Descriptors.c</text>
</g>
<!-- Node1 -->
<g id="node2" class="node"><title>Node1</title>
<g id="a_node2"><a xlink:href="_descriptors_8h.html" target="_top" xlink:title="Descriptors.h">
<polygon fill="white" stroke="black" points="81.5,-97.5 81.5,-118.5 167.5,-118.5 167.5,-97.5 81.5,-97.5"/>
<text text-anchor="middle" x="124.5" y="-104.9" font-family="Helvetica,sans-Serif" font-size="12.00">Descriptors.h</text>
</a>
</g>
</g>
<!-- Node0&#45;&gt;Node1 -->
<g id="edge1" class="edge"><title>Node0&#45;&gt;Node1</title>
<path fill="none" stroke="midnightblue" d="M2619.26,-190.775C2222.73,-189.389 301.233,-180.837 181.5,-145 167.834,-140.91 154.262,-132.555 143.791,-124.923"/>
<polygon fill="midnightblue" stroke="midnightblue" points="145.857,-122.096 135.79,-118.791 141.598,-127.652 145.857,-122.096"/>
</g>
<!-- Node3 -->
<g id="node4" class="node"><title>Node3</title>
<polygon fill="white" stroke="#bfbfbf" points="145.5,-7 145.5,-28 245.5,-28 245.5,-7 145.5,-7"/>
<text text-anchor="middle" x="195.5" y="-14.4" font-family="Helvetica,sans-Serif" font-size="12.00">avr/pgmspace.h</text>
</g>
<!-- Node0&#45;&gt;Node3 -->
<g id="edge16" class="edge"><title>Node0&#45;&gt;Node3</title>
<path fill="none" stroke="midnightblue" d="M2619.2,-190.932C2218.28,-190.4 260.908,-185.714 214.5,-145 184.435,-118.623 187.268,-66.7533 191.591,-38.3125"/>
<polygon fill="midnightblue" stroke="midnightblue" points="195.06,-38.79 193.318,-28.3394 188.163,-37.5956 195.06,-38.79"/>
</g>
<!-- Node4 -->
<g id="node5" class="node"><title>Node4</title>
<polygon fill="white" stroke="#bfbfbf" points="223.5,-78 223.5,-138 405.5,-138 405.5,-78 223.5,-78"/>
<text text-anchor="start" x="231.5" y="-124.4" font-family="Helvetica,sans-Serif" font-size="12.00">D:/Dropbox/Documents</text>
<text text-anchor="start" x="231.5" y="-111.4" font-family="Helvetica,sans-Serif" font-size="12.00">/Atmel Studio/Projects</text>
<text text-anchor="start" x="231.5" y="-98.4" font-family="Helvetica,sans-Serif" font-size="12.00">/OpenDeck/src/Firmware</text>
<text text-anchor="middle" x="314.5" y="-85.4" font-family="Helvetica,sans-Serif" font-size="12.00">/lufa/LUFA/Common/Common.h</text>
</g>
<!-- Node0&#45;&gt;Node4 -->
<g id="edge4" class="edge"><title>Node0&#45;&gt;Node4</title>
<path fill="none" stroke="midnightblue" d="M2619.22,-190.921C2257.79,-190.338 636.257,-185.469 415.5,-145 409.432,-143.888 403.242,-142.46 397.064,-140.817"/>
<polygon fill="midnightblue" stroke="midnightblue" points="397.96,-137.433 387.385,-138.073 396.051,-144.168 397.96,-137.433"/>
</g>
<!-- Node5 -->
<g id="node6" class="node"><title>Node5</title>
<polygon fill="white" stroke="#bfbfbf" points="424,-97.5 424,-118.5 477,-118.5 477,-97.5 424,-97.5"/>
<text text-anchor="middle" x="450.5" y="-104.9" font-family="Helvetica,sans-Serif" font-size="12.00">stdint.h</text>
</g>
<!-- Node0&#45;&gt;Node5 -->
<g id="edge5" class="edge"><title>Node0&#45;&gt;Node5</title>
<path fill="none" stroke="midnightblue" d="M2619.27,-191.005C2252.11,-190.84 586.694,-187.732 486.5,-145 477.384,-141.112 469.347,-133.724 463.193,-126.647"/>
<polygon fill="midnightblue" stroke="midnightblue" points="465.846,-124.36 456.882,-118.712 460.367,-128.717 465.846,-124.36"/>
</g>
<!-- Node6 -->
<g id="node7" class="node"><title>Node6</title>
<polygon fill="white" stroke="#bfbfbf" points="495.5,-97.5 495.5,-118.5 559.5,-118.5 559.5,-97.5 495.5,-97.5"/>
<text text-anchor="middle" x="527.5" y="-104.9" font-family="Helvetica,sans-Serif" font-size="12.00">stdbool.h</text>
</g>
<!-- Node0&#45;&gt;Node6 -->
<g id="edge6" class="edge"><title>Node0&#45;&gt;Node6</title>
<path fill="none" stroke="midnightblue" d="M2619.32,-190.824C2260.8,-189.767 665.995,-182.94 568.5,-145 558.387,-141.064 549.114,-133.442 541.955,-126.22"/>
<polygon fill="midnightblue" stroke="midnightblue" points="544.42,-123.73 535.077,-118.735 539.266,-128.466 544.42,-123.73"/>
</g>
<!-- Node7 -->
<g id="node8" class="node"><title>Node7</title>
<polygon fill="white" stroke="#bfbfbf" points="577.5,-97.5 577.5,-118.5 631.5,-118.5 631.5,-97.5 577.5,-97.5"/>
<text text-anchor="middle" x="604.5" y="-104.9" font-family="Helvetica,sans-Serif" font-size="12.00">string.h</text>
</g>
<!-- Node0&#45;&gt;Node7 -->
<g id="edge7" class="edge"><title>Node0&#45;&gt;Node7</title>
<path fill="none" stroke="midnightblue" d="M2619.38,-190.888C2268.31,-190.145 733.231,-184.635 640.5,-145 631.387,-141.105 623.351,-133.716 617.196,-126.641"/>
<polygon fill="midnightblue" stroke="midnightblue" points="619.849,-124.353 610.884,-118.707 614.371,-128.712 619.849,-124.353"/>
</g>
<!-- Node8 -->
<g id="node9" class="node"><title>Node8</title>
<polygon fill="white" stroke="#bfbfbf" points="649.5,-97.5 649.5,-118.5 707.5,-118.5 707.5,-97.5 649.5,-97.5"/>
<text text-anchor="middle" x="678.5" y="-104.9" font-family="Helvetica,sans-Serif" font-size="12.00">stddef.h</text>
</g>
<!-- Node0&#45;&gt;Node8 -->
<g id="edge8" class="edge"><title>Node0&#45;&gt;Node8</title>
<path fill="none" stroke="midnightblue" d="M2619.26,-190.748C2276.2,-189.357 807.23,-181.294 717.5,-145 707.922,-141.126 699.253,-133.739 692.533,-126.66"/>
<polygon fill="midnightblue" stroke="midnightblue" points="694.816,-123.953 685.604,-118.721 689.542,-128.556 694.816,-123.953"/>
</g>
<!-- Node9 -->
<g id="node10" class="node"><title>Node9</title>
<polygon fill="white" stroke="#bfbfbf" points="726,-78 726,-138 929,-138 929,-78 726,-78"/>
<text text-anchor="start" x="734" y="-124.4" font-family="Helvetica,sans-Serif" font-size="12.00">D:/Dropbox/Documents</text>
<text text-anchor="start" x="734" y="-111.4" font-family="Helvetica,sans-Serif" font-size="12.00">/Atmel Studio/Projects</text>
<text text-anchor="start" x="734" y="-98.4" font-family="Helvetica,sans-Serif" font-size="12.00">/OpenDeck/src/Firmware</text>
<text text-anchor="middle" x="827.5" y="-85.4" font-family="Helvetica,sans-Serif" font-size="12.00">/lufa/LUFA/Common/Architectures.h</text>
</g>
<!-- Node0&#45;&gt;Node9 -->
<g id="edge9" class="edge"><title>Node0&#45;&gt;Node9</title>
<path fill="none" stroke="midnightblue" d="M2619.26,-190.337C2311.7,-187.309 1105.73,-173.696 938.5,-145 931.725,-143.838 924.796,-142.351 917.873,-140.646"/>
<polygon fill="midnightblue" stroke="midnightblue" points="918.313,-137.144 907.753,-138.005 916.545,-143.917 918.313,-137.144"/>
</g>
<!-- Node10 -->
<g id="node11" class="node"><title>Node10</title>
<polygon fill="white" stroke="#bfbfbf" points="947.5,-78 947.5,-138 1145.5,-138 1145.5,-78 947.5,-78"/>
<text text-anchor="start" x="955.5" y="-124.4" font-family="Helvetica,sans-Serif" font-size="12.00">D:/Dropbox/Documents</text>
<text text-anchor="start" x="955.5" y="-111.4" font-family="Helvetica,sans-Serif" font-size="12.00">/Atmel Studio/Projects</text>
<text text-anchor="start" x="955.5" y="-98.4" font-family="Helvetica,sans-Serif" font-size="12.00">/OpenDeck/src/Firmware</text>
<text text-anchor="middle" x="1046.5" y="-85.4" font-family="Helvetica,sans-Serif" font-size="12.00">/lufa/LUFA/Common/BoardTypes.h</text>
</g>
<!-- Node0&#45;&gt;Node10 -->
<g id="edge10" class="edge"><title>Node0&#45;&gt;Node10</title>
<path fill="none" stroke="midnightblue" d="M2619.45,-190.077C2336.78,-186.238 1300.4,-170.542 1155.5,-145 1148.91,-143.838 1142.17,-142.361 1135.43,-140.671"/>
<polygon fill="midnightblue" stroke="midnightblue" points="1136.15,-137.241 1125.59,-138.056 1134.35,-144.006 1136.15,-137.241"/>
</g>
<!-- Node11 -->
<g id="node12" class="node"><title>Node11</title>
<polygon fill="white" stroke="#bfbfbf" points="1164,-78 1164,-138 1403,-138 1403,-78 1164,-78"/>
<text text-anchor="start" x="1172" y="-124.4" font-family="Helvetica,sans-Serif" font-size="12.00">D:/Dropbox/Documents</text>
<text text-anchor="start" x="1172" y="-111.4" font-family="Helvetica,sans-Serif" font-size="12.00">/Atmel Studio/Projects</text>
<text text-anchor="start" x="1172" y="-98.4" font-family="Helvetica,sans-Serif" font-size="12.00">/OpenDeck/src/Firmware</text>
<text text-anchor="middle" x="1283.5" y="-85.4" font-family="Helvetica,sans-Serif" font-size="12.00">/lufa/LUFA/Common/ArchitectureSpecific.h</text>
</g>
<!-- Node0&#45;&gt;Node11 -->
<g id="edge11" class="edge"><title>Node0&#45;&gt;Node11</title>
<path fill="none" stroke="midnightblue" d="M2619.18,-190.646C2386.02,-189.142 1647.79,-181.54 1412.5,-145 1404.33,-143.731 1395.93,-142.119 1387.54,-140.284"/>
<polygon fill="midnightblue" stroke="midnightblue" points="1388.22,-136.851 1377.7,-138.035 1386.66,-143.675 1388.22,-136.851"/>
</g>
<!-- Node12 -->
<g id="node13" class="node"><title>Node12</title>
<polygon fill="white" stroke="#bfbfbf" points="1421,-78 1421,-138 1646,-138 1646,-78 1421,-78"/>
<text text-anchor="start" x="1429" y="-124.4" font-family="Helvetica,sans-Serif" font-size="12.00">D:/Dropbox/Documents</text>
<text text-anchor="start" x="1429" y="-111.4" font-family="Helvetica,sans-Serif" font-size="12.00">/Atmel Studio/Projects</text>
<text text-anchor="start" x="1429" y="-98.4" font-family="Helvetica,sans-Serif" font-size="12.00">/OpenDeck/src/Firmware</text>
<text text-anchor="middle" x="1533.5" y="-85.4" font-family="Helvetica,sans-Serif" font-size="12.00">/lufa/LUFA/Common/CompilerSpecific.h</text>
</g>
<!-- Node0&#45;&gt;Node12 -->
<g id="edge12" class="edge"><title>Node0&#45;&gt;Node12</title>
<path fill="none" stroke="midnightblue" d="M2619.22,-190.079C2416.85,-187.108 1841.44,-176.091 1655.5,-145 1648,-143.745 1640.3,-142.176 1632.6,-140.4"/>
<polygon fill="midnightblue" stroke="midnightblue" points="1633.41,-136.994 1622.87,-138.048 1631.77,-143.798 1633.41,-136.994"/>
</g>
<!-- Node13 -->
<g id="node14" class="node"><title>Node13</title>
<polygon fill="white" stroke="#bfbfbf" points="1664.5,-78 1664.5,-138 1848.5,-138 1848.5,-78 1664.5,-78"/>
<text text-anchor="start" x="1672.5" y="-124.4" font-family="Helvetica,sans-Serif" font-size="12.00">D:/Dropbox/Documents</text>
<text text-anchor="start" x="1672.5" y="-111.4" font-family="Helvetica,sans-Serif" font-size="12.00">/Atmel Studio/Projects</text>
<text text-anchor="start" x="1672.5" y="-98.4" font-family="Helvetica,sans-Serif" font-size="12.00">/OpenDeck/src/Firmware</text>
<text text-anchor="middle" x="1756.5" y="-85.4" font-family="Helvetica,sans-Serif" font-size="12.00">/lufa/LUFA/Common/Attributes.h</text>
</g>
<!-- Node0&#45;&gt;Node13 -->
<g id="edge13" class="edge"><title>Node0&#45;&gt;Node13</title>
<path fill="none" stroke="midnightblue" d="M2619.28,-189.688C2445.3,-186.062 2002.33,-174.174 1857.5,-145 1851.77,-143.846 1845.93,-142.434 1840.09,-140.844"/>
<polygon fill="midnightblue" stroke="midnightblue" points="1840.85,-137.423 1830.28,-138.015 1838.92,-144.149 1840.85,-137.423"/>
</g>
<!-- Node14 -->
<g id="node15" class="node"><title>Node14</title>
<polygon fill="white" stroke="#bfbfbf" points="1866.5,-97.5 1866.5,-118.5 1920.5,-118.5 1920.5,-97.5 1866.5,-97.5"/>
<text text-anchor="middle" x="1893.5" y="-104.9" font-family="Helvetica,sans-Serif" font-size="12.00">avr/io.h</text>
</g>
<!-- Node0&#45;&gt;Node14 -->
<g id="edge14" class="edge"><title>Node0&#45;&gt;Node14</title>
<path fill="none" stroke="midnightblue" d="M2619.29,-189.565C2442.14,-185.59 1991.36,-172.839 1929.5,-145 1920.46,-140.933 1912.44,-133.522 1906.27,-126.477"/>
<polygon fill="midnightblue" stroke="midnightblue" points="1908.93,-124.198 1899.93,-118.598 1903.47,-128.584 1908.93,-124.198"/>
</g>
<!-- Node15 -->
<g id="node16" class="node"><title>Node15</title>
<polygon fill="white" stroke="#bfbfbf" points="1938.5,-97.5 1938.5,-118.5 2024.5,-118.5 2024.5,-97.5 1938.5,-97.5"/>
<text text-anchor="middle" x="1981.5" y="-104.9" font-family="Helvetica,sans-Serif" font-size="12.00">avr/interrupt.h</text>
</g>
<!-- Node0&#45;&gt;Node15 -->
<g id="edge15" class="edge"><title>Node0&#45;&gt;Node15</title>
<path fill="none" stroke="midnightblue" d="M2619.24,-190.662C2472.37,-189.21 2140.83,-181.818 2034.5,-145 2021.95,-140.653 2009.57,-132.526 1999.94,-125.093"/>
<polygon fill="midnightblue" stroke="midnightblue" points="2001.9,-122.181 1991.94,-118.589 1997.49,-127.613 2001.9,-122.181"/>
</g>
<!-- Node16 -->
<g id="node17" class="node"><title>Node16</title>
<polygon fill="white" stroke="#bfbfbf" points="2043,-97.5 2043,-118.5 2128,-118.5 2128,-97.5 2043,-97.5"/>
<text text-anchor="middle" x="2085.5" y="-104.9" font-family="Helvetica,sans-Serif" font-size="12.00">avr/eeprom.h</text>
</g>
<!-- Node0&#45;&gt;Node16 -->
<g id="edge17" class="edge"><title>Node0&#45;&gt;Node16</title>
<path fill="none" stroke="midnightblue" d="M2619.41,-189.64C2490.7,-186.429 2224.33,-176.133 2137.5,-145 2125.16,-140.574 2113.01,-132.442 2103.57,-125.025"/>
<polygon fill="midnightblue" stroke="midnightblue" points="2105.66,-122.216 2095.72,-118.542 2101.2,-127.611 2105.66,-122.216"/>
</g>
<!-- Node17 -->
<g id="node18" class="node"><title>Node17</title>
<polygon fill="white" stroke="#bfbfbf" points="2146.5,-97.5 2146.5,-118.5 2214.5,-118.5 2214.5,-97.5 2146.5,-97.5"/>
<text text-anchor="middle" x="2180.5" y="-104.9" font-family="Helvetica,sans-Serif" font-size="12.00">avr/boot.h</text>
</g>
<!-- Node0&#45;&gt;Node17 -->
<g id="edge18" class="edge"><title>Node0&#45;&gt;Node17</title>
<path fill="none" stroke="midnightblue" d="M2619.34,-188.994C2506.98,-184.991 2294.09,-173.772 2224.5,-145 2214.18,-140.735 2204.4,-133.212 2196.68,-126.143"/>
<polygon fill="midnightblue" stroke="midnightblue" points="2198.8,-123.314 2189.2,-118.825 2193.9,-128.319 2198.8,-123.314"/>
</g>
<!-- Node18 -->
<g id="node19" class="node"><title>Node18</title>
<polygon fill="white" stroke="#bfbfbf" points="2233,-97.5 2233,-118.5 2284,-118.5 2284,-97.5 2233,-97.5"/>
<text text-anchor="middle" x="2258.5" y="-104.9" font-family="Helvetica,sans-Serif" font-size="12.00">math.h</text>
</g>
<!-- Node0&#45;&gt;Node18 -->
<g id="edge19" class="edge"><title>Node0&#45;&gt;Node18</title>
<path fill="none" stroke="midnightblue" d="M2619.48,-188.462C2521.11,-183.988 2349.22,-172.425 2293.5,-145 2285.03,-140.832 2277.47,-133.749 2271.55,-126.963"/>
<polygon fill="midnightblue" stroke="midnightblue" points="2273.98,-124.395 2265.01,-118.768 2268.51,-128.765 2273.98,-124.395"/>
</g>
<!-- Node19 -->
<g id="node20" class="node"><title>Node19</title>
<polygon fill="white" stroke="#bfbfbf" points="2302,-97.5 2302,-118.5 2373,-118.5 2373,-97.5 2302,-97.5"/>
<text text-anchor="middle" x="2337.5" y="-104.9" font-family="Helvetica,sans-Serif" font-size="12.00">util/delay.h</text>
</g>
<!-- Node0&#45;&gt;Node19 -->
<g id="edge20" class="edge"><title>Node0&#45;&gt;Node19</title>
<path fill="none" stroke="midnightblue" d="M2619.43,-190.785C2555.08,-188.217 2458.93,-178.357 2382.5,-145 2372.02,-140.426 2361.93,-132.76 2353.97,-125.675"/>
<polygon fill="midnightblue" stroke="midnightblue" points="2356.19,-122.965 2346.51,-118.656 2351.39,-128.06 2356.19,-122.965"/>
</g>
<!-- Node20 -->
<g id="node21" class="node"><title>Node20</title>
<polygon fill="white" stroke="#bfbfbf" points="2391.5,-78 2391.5,-138 2587.5,-138 2587.5,-78 2391.5,-78"/>
<text text-anchor="start" x="2399.5" y="-124.4" font-family="Helvetica,sans-Serif" font-size="12.00">D:/Dropbox/Documents</text>
<text text-anchor="start" x="2399.5" y="-111.4" font-family="Helvetica,sans-Serif" font-size="12.00">/Atmel Studio/Projects</text>
<text text-anchor="start" x="2399.5" y="-98.4" font-family="Helvetica,sans-Serif" font-size="12.00">/OpenDeck/src/Firmware</text>
<text text-anchor="middle" x="2489.5" y="-85.4" font-family="Helvetica,sans-Serif" font-size="12.00">/lufa/LUFA/Common/Endianness.h</text>
</g>
<!-- Node0&#45;&gt;Node20 -->
<g id="edge21" class="edge"><title>Node0&#45;&gt;Node20</title>
<path fill="none" stroke="midnightblue" d="M2667.05,-181.433C2643.19,-171.699 2604.85,-156.057 2569.89,-141.796"/>
<polygon fill="midnightblue" stroke="midnightblue" points="2571.19,-138.547 2560.61,-138.011 2568.55,-145.029 2571.19,-138.547"/>
</g>
<!-- Node21 -->
<g id="node22" class="node"><title>Node21</title>
<polygon fill="white" stroke="#bfbfbf" points="2606,-71.5 2606,-144.5 2775,-144.5 2775,-71.5 2606,-71.5"/>
<text text-anchor="start" x="2614" y="-130.9" font-family="Helvetica,sans-Serif" font-size="12.00">D:/Dropbox/Documents</text>
<text text-anchor="start" x="2614" y="-117.9" font-family="Helvetica,sans-Serif" font-size="12.00">/Atmel Studio/Projects</text>
<text text-anchor="start" x="2614" y="-104.9" font-family="Helvetica,sans-Serif" font-size="12.00">/OpenDeck/src/Firmware</text>
<text text-anchor="start" x="2614" y="-91.9" font-family="Helvetica,sans-Serif" font-size="12.00">/lufa/LUFA/Drivers/USB/Core</text>
<text text-anchor="middle" x="2690.5" y="-78.9" font-family="Helvetica,sans-Serif" font-size="12.00">/USBMode.h</text>
</g>
<!-- Node0&#45;&gt;Node21 -->
<g id="edge22" class="edge"><title>Node0&#45;&gt;Node21</title>
<path fill="none" stroke="midnightblue" d="M2690.5,-181.272C2690.5,-174.463 2690.5,-164.82 2690.5,-154.791"/>
<polygon fill="midnightblue" stroke="midnightblue" points="2694,-154.722 2690.5,-144.722 2687,-154.722 2694,-154.722"/>
</g>
<!-- Node22 -->
<g id="node23" class="node"><title>Node22</title>
<polygon fill="white" stroke="#bfbfbf" points="2793,-71.5 2793,-144.5 2962,-144.5 2962,-71.5 2793,-71.5"/>
<text text-anchor="start" x="2801" y="-130.9" font-family="Helvetica,sans-Serif" font-size="12.00">D:/Dropbox/Documents</text>
<text text-anchor="start" x="2801" y="-117.9" font-family="Helvetica,sans-Serif" font-size="12.00">/Atmel Studio/Projects</text>
<text text-anchor="start" x="2801" y="-104.9" font-family="Helvetica,sans-Serif" font-size="12.00">/OpenDeck/src/Firmware</text>
<text text-anchor="start" x="2801" y="-91.9" font-family="Helvetica,sans-Serif" font-size="12.00">/lufa/LUFA/Drivers/USB/Core</text>
<text text-anchor="middle" x="2877.5" y="-78.9" font-family="Helvetica,sans-Serif" font-size="12.00">/USBTask.h</text>
</g>
<!-- Node0&#45;&gt;Node22 -->
<g id="edge23" class="edge"><title>Node0&#45;&gt;Node22</title>
<path fill="none" stroke="midnightblue" d="M2712.32,-181.433C2730.93,-173.272 2759.01,-160.96 2786.76,-148.789"/>
<polygon fill="midnightblue" stroke="midnightblue" points="2788.39,-151.895 2796.15,-144.673 2785.58,-145.484 2788.39,-151.895"/>
</g>
<!-- Node23 -->
<g id="node24" class="node"><title>Node23</title>
<polygon fill="white" stroke="#bfbfbf" points="2980,-71.5 2980,-144.5 3149,-144.5 3149,-71.5 2980,-71.5"/>
<text text-anchor="start" x="2988" y="-130.9" font-family="Helvetica,sans-Serif" font-size="12.00">D:/Dropbox/Documents</text>
<text text-anchor="start" x="2988" y="-117.9" font-family="Helvetica,sans-Serif" font-size="12.00">/Atmel Studio/Projects</text>
<text text-anchor="start" x="2988" y="-104.9" font-family="Helvetica,sans-Serif" font-size="12.00">/OpenDeck/src/Firmware</text>
<text text-anchor="start" x="2988" y="-91.9" font-family="Helvetica,sans-Serif" font-size="12.00">/lufa/LUFA/Drivers/USB/Core</text>
<text text-anchor="middle" x="3064.5" y="-78.9" font-family="Helvetica,sans-Serif" font-size="12.00">/USBController.h</text>
</g>
<!-- Node0&#45;&gt;Node23 -->
<g id="edge24" class="edge"><title>Node0&#45;&gt;Node23</title>
<path fill="none" stroke="midnightblue" d="M2761.52,-183.501C2816.51,-176.753 2894.55,-165.124 2970.16,-145.202"/>
<polygon fill="midnightblue" stroke="midnightblue" points="2971.1,-148.575 2979.85,-142.6 2969.28,-141.814 2971.1,-148.575"/>
</g>
<!-- Node24 -->
<g id="node25" class="node"><title>Node24</title>
<polygon fill="white" stroke="#bfbfbf" points="3167.5,-71.5 3167.5,-144.5 3343.5,-144.5 3343.5,-71.5 3167.5,-71.5"/>
<text text-anchor="start" x="3175.5" y="-130.9" font-family="Helvetica,sans-Serif" font-size="12.00">D:/Dropbox/Documents</text>
<text text-anchor="start" x="3175.5" y="-117.9" font-family="Helvetica,sans-Serif" font-size="12.00">/Atmel Studio/Projects</text>
<text text-anchor="start" x="3175.5" y="-104.9" font-family="Helvetica,sans-Serif" font-size="12.00">/OpenDeck/src/Firmware</text>
<text text-anchor="start" x="3175.5" y="-91.9" font-family="Helvetica,sans-Serif" font-size="12.00">/lufa/LUFA/Drivers/USB/Core</text>
<text text-anchor="middle" x="3255.5" y="-78.9" font-family="Helvetica,sans-Serif" font-size="12.00">/AVR8/USBController_AVR8.h</text>
</g>
<!-- Node0&#45;&gt;Node24 -->
<g id="edge25" class="edge"><title>Node0&#45;&gt;Node24</title>
<path fill="none" stroke="midnightblue" d="M2761.58,-189.679C2852.02,-186.743 3012.85,-177.316 3157.31,-145.08"/>
<polygon fill="midnightblue" stroke="midnightblue" points="3158.27,-148.452 3167.24,-142.822 3156.71,-141.626 3158.27,-148.452"/>
</g>
<!-- Node25 -->
<g id="node26" class="node"><title>Node25</title>
<polygon fill="white" stroke="#bfbfbf" points="3362,-71.5 3362,-144.5 3531,-144.5 3531,-71.5 3362,-71.5"/>
<text text-anchor="start" x="3370" y="-130.9" font-family="Helvetica,sans-Serif" font-size="12.00">D:/Dropbox/Documents</text>
<text text-anchor="start" x="3370" y="-117.9" font-family="Helvetica,sans-Serif" font-size="12.00">/Atmel Studio/Projects</text>
<text text-anchor="start" x="3370" y="-104.9" font-family="Helvetica,sans-Serif" font-size="12.00">/OpenDeck/src/Firmware</text>
<text text-anchor="start" x="3370" y="-91.9" font-family="Helvetica,sans-Serif" font-size="12.00">/lufa/LUFA/Drivers/USB/Core</text>
<text text-anchor="middle" x="3446.5" y="-78.9" font-family="Helvetica,sans-Serif" font-size="12.00">/Events.h</text>
</g>
<!-- Node0&#45;&gt;Node25 -->
<g id="edge26" class="edge"><title>Node0&#45;&gt;Node25</title>
<path fill="none" stroke="midnightblue" d="M2761.56,-188.719C2904.68,-183.702 3224.12,-170.26 3351.85,-144.824"/>
<polygon fill="midnightblue" stroke="midnightblue" points="3352.73,-148.215 3361.79,-142.731 3351.29,-141.365 3352.73,-148.215"/>
</g>
<!-- Node26 -->
<g id="node27" class="node"><title>Node26</title>
<polygon fill="white" stroke="#bfbfbf" points="3549,-71.5 3549,-144.5 3718,-144.5 3718,-71.5 3549,-71.5"/>
<text text-anchor="start" x="3557" y="-130.9" font-family="Helvetica,sans-Serif" font-size="12.00">D:/Dropbox/Documents</text>
<text text-anchor="start" x="3557" y="-117.9" font-family="Helvetica,sans-Serif" font-size="12.00">/Atmel Studio/Projects</text>
<text text-anchor="start" x="3557" y="-104.9" font-family="Helvetica,sans-Serif" font-size="12.00">/OpenDeck/src/Firmware</text>
<text text-anchor="start" x="3557" y="-91.9" font-family="Helvetica,sans-Serif" font-size="12.00">/lufa/LUFA/Drivers/USB/Core</text>
<text text-anchor="middle" x="3633.5" y="-78.9" font-family="Helvetica,sans-Serif" font-size="12.00">/USBInterrupt.h</text>
</g>
<!-- Node0&#45;&gt;Node26 -->
<g id="edge27" class="edge"><title>Node0&#45;&gt;Node26</title>
<path fill="none" stroke="midnightblue" d="M2761.6,-190.024C2934.48,-187.201 3374.14,-177.193 3538.96,-145.043"/>
<polygon fill="midnightblue" stroke="midnightblue" points="3539.85,-148.433 3548.94,-142.995 3538.44,-141.576 3539.85,-148.433"/>
</g>
<!-- Node27 -->
<g id="node28" class="node"><title>Node27</title>
<polygon fill="white" stroke="#bfbfbf" points="3736,-71.5 3736,-144.5 3905,-144.5 3905,-71.5 3736,-71.5"/>
<text text-anchor="start" x="3744" y="-130.9" font-family="Helvetica,sans-Serif" font-size="12.00">D:/Dropbox/Documents</text>
<text text-anchor="start" x="3744" y="-117.9" font-family="Helvetica,sans-Serif" font-size="12.00">/Atmel Studio/Projects</text>
<text text-anchor="start" x="3744" y="-104.9" font-family="Helvetica,sans-Serif" font-size="12.00">/OpenDeck/src/Firmware</text>
<text text-anchor="start" x="3744" y="-91.9" font-family="Helvetica,sans-Serif" font-size="12.00">/lufa/LUFA/Drivers/USB/Core</text>
<text text-anchor="middle" x="3820.5" y="-78.9" font-family="Helvetica,sans-Serif" font-size="12.00">/AVR8/USBInterrupt_AVR8.h</text>
</g>
<!-- Node0&#45;&gt;Node27 -->
<g id="edge28" class="edge"><title>Node0&#45;&gt;Node27</title>
<path fill="none" stroke="midnightblue" d="M2761.7,-190.839C2961.15,-189.92 3523.44,-184.013 3726,-145.033"/>
<polygon fill="midnightblue" stroke="midnightblue" points="3726.84,-148.435 3735.95,-143.03 3725.46,-141.573 3726.84,-148.435"/>
</g>
<!-- Node28 -->
<g id="node29" class="node"><title>Node28</title>
<polygon fill="white" stroke="#bfbfbf" points="3923,-71.5 3923,-144.5 4092,-144.5 4092,-71.5 3923,-71.5"/>
<text text-anchor="start" x="3931" y="-130.9" font-family="Helvetica,sans-Serif" font-size="12.00">D:/Dropbox/Documents</text>
<text text-anchor="start" x="3931" y="-117.9" font-family="Helvetica,sans-Serif" font-size="12.00">/Atmel Studio/Projects</text>
<text text-anchor="start" x="3931" y="-104.9" font-family="Helvetica,sans-Serif" font-size="12.00">/OpenDeck/src/Firmware</text>
<text text-anchor="start" x="3931" y="-91.9" font-family="Helvetica,sans-Serif" font-size="12.00">/lufa/LUFA/Drivers/USB/Core</text>
<text text-anchor="middle" x="4007.5" y="-78.9" font-family="Helvetica,sans-Serif" font-size="12.00">/StdRequestType.h</text>
</g>
<!-- Node0&#45;&gt;Node28 -->
<g id="edge29" class="edge"><title>Node0&#45;&gt;Node28</title>
<path fill="none" stroke="midnightblue" d="M2761.72,-191.408C2985.32,-192.213 3672.22,-190.93 3912.86,-145.059"/>
<polygon fill="midnightblue" stroke="midnightblue" points="3913.83,-148.436 3922.96,-143.055 3912.47,-141.57 3913.83,-148.436"/>
</g>
<!-- Node29 -->
<g id="node30" class="node"><title>Node29</title>
<polygon fill="white" stroke="#bfbfbf" points="4110,-71.5 4110,-144.5 4279,-144.5 4279,-71.5 4110,-71.5"/>
<text text-anchor="start" x="4118" y="-130.9" font-family="Helvetica,sans-Serif" font-size="12.00">D:/Dropbox/Documents</text>
<text text-anchor="start" x="4118" y="-117.9" font-family="Helvetica,sans-Serif" font-size="12.00">/Atmel Studio/Projects</text>
<text text-anchor="start" x="4118" y="-104.9" font-family="Helvetica,sans-Serif" font-size="12.00">/OpenDeck/src/Firmware</text>
<text text-anchor="start" x="4118" y="-91.9" font-family="Helvetica,sans-Serif" font-size="12.00">/lufa/LUFA/Drivers/USB/Core</text>
<text text-anchor="middle" x="4194.5" y="-78.9" font-family="Helvetica,sans-Serif" font-size="12.00">/StdDescriptors.h</text>
</g>
<!-- Node0&#45;&gt;Node29 -->
<g id="edge30" class="edge"><title>Node0&#45;&gt;Node29</title>
<path fill="none" stroke="midnightblue" d="M2761.7,-190.08C3024.18,-186.5 3930.75,-172.41 4100.09,-144.864"/>
<polygon fill="midnightblue" stroke="midnightblue" points="4100.75,-148.303 4109.96,-143.073 4099.49,-141.416 4100.75,-148.303"/>
</g>
<!-- Node30 -->
<g id="node31" class="node"><title>Node30</title>
<polygon fill="white" stroke="#bfbfbf" points="4297,-71.5 4297,-144.5 4466,-144.5 4466,-71.5 4297,-71.5"/>
<text text-anchor="start" x="4305" y="-130.9" font-family="Helvetica,sans-Serif" font-size="12.00">D:/Dropbox/Documents</text>
<text text-anchor="start" x="4305" y="-117.9" font-family="Helvetica,sans-Serif" font-size="12.00">/Atmel Studio/Projects</text>
<text text-anchor="start" x="4305" y="-104.9" font-family="Helvetica,sans-Serif" font-size="12.00">/OpenDeck/src/Firmware</text>
<text text-anchor="start" x="4305" y="-91.9" font-family="Helvetica,sans-Serif" font-size="12.00">/lufa/LUFA/Drivers/USB/Core</text>
<text text-anchor="middle" x="4381.5" y="-78.9" font-family="Helvetica,sans-Serif" font-size="12.00">/ConfigDescriptors.h</text>
</g>
<!-- Node0&#45;&gt;Node30 -->
<g id="edge31" class="edge"><title>Node0&#45;&gt;Node30</title>
<path fill="none" stroke="midnightblue" d="M2761.54,-190.375C3046.06,-187.681 4096.76,-175.854 4286.88,-144.911"/>
<polygon fill="midnightblue" stroke="midnightblue" points="4287.74,-148.311 4296.96,-143.087 4286.5,-141.422 4287.74,-148.311"/>
</g>
<!-- Node31 -->
<g id="node32" class="node"><title>Node31</title>
<polygon fill="white" stroke="#bfbfbf" points="4484,-71.5 4484,-144.5 4653,-144.5 4653,-71.5 4484,-71.5"/>
<text text-anchor="start" x="4492" y="-130.9" font-family="Helvetica,sans-Serif" font-size="12.00">D:/Dropbox/Documents</text>
<text text-anchor="start" x="4492" y="-117.9" font-family="Helvetica,sans-Serif" font-size="12.00">/Atmel Studio/Projects</text>
<text text-anchor="start" x="4492" y="-104.9" font-family="Helvetica,sans-Serif" font-size="12.00">/OpenDeck/src/Firmware</text>
<text text-anchor="start" x="4492" y="-91.9" font-family="Helvetica,sans-Serif" font-size="12.00">/lufa/LUFA/Drivers/USB/Core</text>
<text text-anchor="middle" x="4568.5" y="-78.9" font-family="Helvetica,sans-Serif" font-size="12.00">/HostStandardReq.h</text>
</g>
<!-- Node0&#45;&gt;Node31 -->
<g id="edge32" class="edge"><title>Node0&#45;&gt;Node31</title>
<path fill="none" stroke="midnightblue" d="M2761.55,-190.606C3067.21,-188.721 4263.82,-179.316 4473.91,-144.916"/>
<polygon fill="midnightblue" stroke="midnightblue" points="4474.75,-148.321 4483.96,-143.098 4473.5,-141.433 4474.75,-148.321"/>
</g>
<!-- Node32 -->
<g id="node33" class="node"><title>Node32</title>
<polygon fill="white" stroke="#bfbfbf" points="4671,-71.5 4671,-144.5 4844,-144.5 4844,-71.5 4671,-71.5"/>
<text text-anchor="start" x="4679" y="-130.9" font-family="Helvetica,sans-Serif" font-size="12.00">D:/Dropbox/Documents</text>
<text text-anchor="start" x="4679" y="-117.9" font-family="Helvetica,sans-Serif" font-size="12.00">/Atmel Studio/Projects</text>
<text text-anchor="start" x="4679" y="-104.9" font-family="Helvetica,sans-Serif" font-size="12.00">/OpenDeck/src/Firmware</text>
<text text-anchor="start" x="4679" y="-91.9" font-family="Helvetica,sans-Serif" font-size="12.00">/lufa/LUFA/Drivers/USB/Class</text>
<text text-anchor="middle" x="4757.5" y="-78.9" font-family="Helvetica,sans-Serif" font-size="12.00">/AndroidAccessoryClass.h</text>
</g>
<!-- Node0&#45;&gt;Node32 -->
<g id="edge33" class="edge"><title>Node0&#45;&gt;Node32</title>
<path fill="none" stroke="midnightblue" d="M2761.65,-190.764C3087.45,-189.496 4430.49,-182.15 4660.75,-144.964"/>
<polygon fill="midnightblue" stroke="midnightblue" points="4661.63,-148.362 4670.87,-143.17 4660.41,-141.47 4661.63,-148.362"/>
</g>
<!-- Node33 -->
<g id="node34" class="node"><title>Node33</title>
<polygon fill="white" stroke="#bfbfbf" points="4862,-71.5 4862,-144.5 5035,-144.5 5035,-71.5 4862,-71.5"/>
<text text-anchor="start" x="4870" y="-130.9" font-family="Helvetica,sans-Serif" font-size="12.00">D:/Dropbox/Documents</text>
<text text-anchor="start" x="4870" y="-117.9" font-family="Helvetica,sans-Serif" font-size="12.00">/Atmel Studio/Projects</text>
<text text-anchor="start" x="4870" y="-104.9" font-family="Helvetica,sans-Serif" font-size="12.00">/OpenDeck/src/Firmware</text>
<text text-anchor="start" x="4870" y="-91.9" font-family="Helvetica,sans-Serif" font-size="12.00">/lufa/LUFA/Drivers/USB/Class</text>
<text text-anchor="middle" x="4948.5" y="-78.9" font-family="Helvetica,sans-Serif" font-size="12.00">/AudioClass.h</text>
</g>
<!-- Node0&#45;&gt;Node33 -->
<g id="edge34" class="edge"><title>Node0&#45;&gt;Node33</title>
<path fill="none" stroke="midnightblue" d="M2761.73,-190.923C3107.2,-190.359 4601.55,-185.668 4851.86,-144.954"/>
<polygon fill="midnightblue" stroke="midnightblue" points="4852.64,-148.372 4861.87,-143.178 4851.41,-141.479 4852.64,-148.372"/>
</g>
<!-- Node34 -->
<g id="node35" class="node"><title>Node34</title>
<polygon fill="white" stroke="#bfbfbf" points="5053,-71.5 5053,-144.5 5226,-144.5 5226,-71.5 5053,-71.5"/>
<text text-anchor="start" x="5061" y="-130.9" font-family="Helvetica,sans-Serif" font-size="12.00">D:/Dropbox/Documents</text>
<text text-anchor="start" x="5061" y="-117.9" font-family="Helvetica,sans-Serif" font-size="12.00">/Atmel Studio/Projects</text>
<text text-anchor="start" x="5061" y="-104.9" font-family="Helvetica,sans-Serif" font-size="12.00">/OpenDeck/src/Firmware</text>
<text text-anchor="start" x="5061" y="-91.9" font-family="Helvetica,sans-Serif" font-size="12.00">/lufa/LUFA/Drivers/USB/Class</text>
<text text-anchor="middle" x="5139.5" y="-78.9" font-family="Helvetica,sans-Serif" font-size="12.00">/CDCClass.h</text>
</g>
<!-- Node0&#45;&gt;Node34 -->
<g id="edge35" class="edge"><title>Node0&#45;&gt;Node34</title>
<path fill="none" stroke="midnightblue" d="M2761.52,-191.056C3125.15,-191.153 4771.7,-189.22 5042.75,-144.98"/>
<polygon fill="midnightblue" stroke="midnightblue" points="5043.64,-148.377 5052.87,-143.184 5042.41,-141.485 5043.64,-148.377"/>
</g>
<!-- Node35 -->
<g id="node36" class="node"><title>Node35</title>
<polygon fill="white" stroke="#bfbfbf" points="5244,-71.5 5244,-144.5 5417,-144.5 5417,-71.5 5244,-71.5"/>
<text text-anchor="start" x="5252" y="-130.9" font-family="Helvetica,sans-Serif" font-size="12.00">D:/Dropbox/Documents</text>
<text text-anchor="start" x="5252" y="-117.9" font-family="Helvetica,sans-Serif" font-size="12.00">/Atmel Studio/Projects</text>
<text text-anchor="start" x="5252" y="-104.9" font-family="Helvetica,sans-Serif" font-size="12.00">/OpenDeck/src/Firmware</text>
<text text-anchor="start" x="5252" y="-91.9" font-family="Helvetica,sans-Serif" font-size="12.00">/lufa/LUFA/Drivers/USB/Class</text>
<text text-anchor="middle" x="5330.5" y="-78.9" font-family="Helvetica,sans-Serif" font-size="12.00">/HIDClass.h</text>
</g>
<!-- Node0&#45;&gt;Node35 -->
<g id="edge36" class="edge"><title>Node0&#45;&gt;Node35</title>
<path fill="none" stroke="midnightblue" d="M2761.8,-191.17C3143.91,-191.887 4942.53,-192.77 5233.77,-144.983"/>
<polygon fill="midnightblue" stroke="midnightblue" points="5234.64,-148.384 5243.87,-143.189 5233.42,-141.492 5234.64,-148.384"/>
</g>
<!-- Node36 -->
<g id="node37" class="node"><title>Node36</title>
<polygon fill="white" stroke="#bfbfbf" points="5435,-71.5 5435,-144.5 5608,-144.5 5608,-71.5 5435,-71.5"/>
<text text-anchor="start" x="5443" y="-130.9" font-family="Helvetica,sans-Serif" font-size="12.00">D:/Dropbox/Documents</text>
<text text-anchor="start" x="5443" y="-117.9" font-family="Helvetica,sans-Serif" font-size="12.00">/Atmel Studio/Projects</text>
<text text-anchor="start" x="5443" y="-104.9" font-family="Helvetica,sans-Serif" font-size="12.00">/OpenDeck/src/Firmware</text>
<text text-anchor="start" x="5443" y="-91.9" font-family="Helvetica,sans-Serif" font-size="12.00">/lufa/LUFA/Drivers/USB/Class</text>
<text text-anchor="middle" x="5521.5" y="-78.9" font-family="Helvetica,sans-Serif" font-size="12.00">/MassStorageClass.h</text>
</g>
<!-- Node0&#45;&gt;Node36 -->
<g id="edge37" class="edge"><title>Node0&#45;&gt;Node36</title>
<path fill="none" stroke="midnightblue" d="M2761.79,-191.268C3161.17,-192.573 5113.82,-196.346 5424.91,-144.966"/>
<polygon fill="midnightblue" stroke="midnightblue" points="5425.64,-148.392 5434.87,-143.194 5424.42,-141.5 5425.64,-148.392"/>
</g>
<!-- Node37 -->
<g id="node38" class="node"><title>Node37</title>
<polygon fill="white" stroke="#bfbfbf" points="5626,-71.5 5626,-144.5 5799,-144.5 5799,-71.5 5626,-71.5"/>
<text text-anchor="start" x="5634" y="-130.9" font-family="Helvetica,sans-Serif" font-size="12.00">D:/Dropbox/Documents</text>
<text text-anchor="start" x="5634" y="-117.9" font-family="Helvetica,sans-Serif" font-size="12.00">/Atmel Studio/Projects</text>
<text text-anchor="start" x="5634" y="-104.9" font-family="Helvetica,sans-Serif" font-size="12.00">/OpenDeck/src/Firmware</text>
<text text-anchor="start" x="5634" y="-91.9" font-family="Helvetica,sans-Serif" font-size="12.00">/lufa/LUFA/Drivers/USB/Class</text>
<text text-anchor="middle" x="5712.5" y="-78.9" font-family="Helvetica,sans-Serif" font-size="12.00">/MIDIClass.h</text>
</g>
<!-- Node0&#45;&gt;Node37 -->
<g id="edge38" class="edge"><title>Node0&#45;&gt;Node37</title>
<path fill="none" stroke="midnightblue" d="M2761.83,-190.576C3188.65,-187.951 5393.58,-173.159 5615.87,-144.737"/>
<polygon fill="midnightblue" stroke="midnightblue" points="5616.52,-148.177 5625.88,-143.198 5615.46,-141.259 5616.52,-148.177"/>
</g>
<!-- Node38 -->
<g id="node39" class="node"><title>Node38</title>
<polygon fill="white" stroke="#bfbfbf" points="5817,-71.5 5817,-144.5 5990,-144.5 5990,-71.5 5817,-71.5"/>
<text text-anchor="start" x="5825" y="-130.9" font-family="Helvetica,sans-Serif" font-size="12.00">D:/Dropbox/Documents</text>
<text text-anchor="start" x="5825" y="-117.9" font-family="Helvetica,sans-Serif" font-size="12.00">/Atmel Studio/Projects</text>
<text text-anchor="start" x="5825" y="-104.9" font-family="Helvetica,sans-Serif" font-size="12.00">/OpenDeck/src/Firmware</text>
<text text-anchor="start" x="5825" y="-91.9" font-family="Helvetica,sans-Serif" font-size="12.00">/lufa/LUFA/Drivers/USB/Class</text>
<text text-anchor="middle" x="5903.5" y="-78.9" font-family="Helvetica,sans-Serif" font-size="12.00">/PrinterClass.h</text>
</g>
<!-- Node0&#45;&gt;Node38 -->
<g id="edge39" class="edge"><title>Node0&#45;&gt;Node38</title>
<path fill="none" stroke="midnightblue" d="M2761.68,-190.648C3204.76,-188.371 5573.55,-174.915 5806.9,-144.744"/>
<polygon fill="midnightblue" stroke="midnightblue" points="5807.53,-148.189 5816.88,-143.201 5806.46,-141.271 5807.53,-148.189"/>
</g>
<!-- Node39 -->
<g id="node40" class="node"><title>Node39</title>
<polygon fill="white" stroke="#bfbfbf" points="6008,-71.5 6008,-144.5 6181,-144.5 6181,-71.5 6008,-71.5"/>
<text text-anchor="start" x="6016" y="-130.9" font-family="Helvetica,sans-Serif" font-size="12.00">D:/Dropbox/Documents</text>
<text text-anchor="start" x="6016" y="-117.9" font-family="Helvetica,sans-Serif" font-size="12.00">/Atmel Studio/Projects</text>
<text text-anchor="start" x="6016" y="-104.9" font-family="Helvetica,sans-Serif" font-size="12.00">/OpenDeck/src/Firmware</text>
<text text-anchor="start" x="6016" y="-91.9" font-family="Helvetica,sans-Serif" font-size="12.00">/lufa/LUFA/Drivers/USB/Class</text>
<text text-anchor="middle" x="6094.5" y="-78.9" font-family="Helvetica,sans-Serif" font-size="12.00">/RNDISClass.h</text>
</g>
<!-- Node0&#45;&gt;Node39 -->
<g id="edge40" class="edge"><title>Node0&#45;&gt;Node39</title>
<path fill="none" stroke="midnightblue" d="M2761.85,-190.71C3221.31,-188.759 5751.68,-176.682 5997.65,-144.788"/>
<polygon fill="midnightblue" stroke="midnightblue" points="5998.53,-148.193 6007.88,-143.205 5997.46,-141.275 5998.53,-148.193"/>
</g>
<!-- Node40 -->
<g id="node41" class="node"><title>Node40</title>
<polygon fill="white" stroke="#bfbfbf" points="6199,-71.5 6199,-144.5 6372,-144.5 6372,-71.5 6199,-71.5"/>
<text text-anchor="start" x="6207" y="-130.9" font-family="Helvetica,sans-Serif" font-size="12.00">D:/Dropbox/Documents</text>
<text text-anchor="start" x="6207" y="-117.9" font-family="Helvetica,sans-Serif" font-size="12.00">/Atmel Studio/Projects</text>
<text text-anchor="start" x="6207" y="-104.9" font-family="Helvetica,sans-Serif" font-size="12.00">/OpenDeck/src/Firmware</text>
<text text-anchor="start" x="6207" y="-91.9" font-family="Helvetica,sans-Serif" font-size="12.00">/lufa/LUFA/Drivers/USB/Class</text>
<text text-anchor="middle" x="6285.5" y="-78.9" font-family="Helvetica,sans-Serif" font-size="12.00">/StillImageClass.h</text>
</g>
<!-- Node0&#45;&gt;Node40 -->
<g id="edge41" class="edge"><title>Node0&#45;&gt;Node40</title>
<path fill="none" stroke="midnightblue" d="M2761.65,-190.767C3236.32,-189.13 5932.7,-178.451 6188.81,-144.776"/>
<polygon fill="midnightblue" stroke="midnightblue" points="6189.54,-148.206 6198.88,-143.207 6188.46,-141.29 6189.54,-148.206"/>
</g>
<!-- Node2 -->
<g id="node3" class="node"><title>Node2</title>
<polygon fill="white" stroke="#bfbfbf" points="0,-0.5 0,-34.5 127,-34.5 127,-0.5 0,-0.5"/>
<text text-anchor="start" x="8" y="-20.9" font-family="Helvetica,sans-Serif" font-size="12.00">../../lufa/LUFA/Drivers</text>
<text text-anchor="middle" x="63.5" y="-7.9" font-family="Helvetica,sans-Serif" font-size="12.00">/USB/USB.h</text>
</g>
<!-- Node1&#45;&gt;Node2 -->
<g id="edge2" class="edge"><title>Node1&#45;&gt;Node2</title>
<path fill="none" stroke="midnightblue" d="M117.739,-97.1908C108.782,-84.1959 92.6768,-60.8302 80.3349,-42.9244"/>
<polygon fill="midnightblue" stroke="midnightblue" points="83.1832,-40.8895 74.6263,-34.6422 77.4197,-44.8622 83.1832,-40.8895"/>
</g>
<!-- Node1&#45;&gt;Node3 -->
<g id="edge3" class="edge"><title>Node1&#45;&gt;Node3</title>
<path fill="none" stroke="midnightblue" d="M132.37,-97.1908C144.16,-82.4942 166.592,-54.5328 181.295,-36.2064"/>
<polygon fill="midnightblue" stroke="midnightblue" points="184.283,-38.0744 187.811,-28.0841 178.823,-33.694 184.283,-38.0744"/>
</g>
</g>
</svg>
