<?xml version="1.0" encoding="UTF-8" standalone="no"?>
<!DOCTYPE svg PUBLIC "-//W3C//DTD SVG 1.1//EN"
 "http://www.w3.org/Graphics/SVG/1.1/DTD/svg11.dtd">
<!-- Generated by graphviz version 2.38.0 (20140413.2041)
 -->
<!-- Title: interface/digital/input/DigitalInput.h Pages: 1 -->
<!--zoomable 372 -->
<svg id="main" version="1.1" xmlns="http://www.w3.org/2000/svg" xmlns:xlink="http://www.w3.org/1999/xlink" xml:space="preserve" onload="init(evt)">
<style type="text/css"><![CDATA[
.edge:hover path { stroke: red; }
.edge:hover polygon { stroke: red; fill: red; }
]]></style>
<script type="text/javascript"><![CDATA[
var edges = document.getElementsByTagName('g');
if (edges && edges.length) {
  for (var i=0;i<edges.length;i++) {
    if (edges[i].id.substr(0,4)=='edge') {
      edges[i].setAttribute('class','edge');
    }
  }
}
]]></script>
        <defs>
                <circle id="rim" cx="0" cy="0" r="7"/>
                <circle id="rim2" cx="0" cy="0" r="3.5"/>
                <g id="zoomPlus">
                        <use xlink:href="#rim" fill="#404040">
                                <set attributeName="fill" to="#808080" begin="zoomplus.mouseover" end="zoomplus.mouseout"/>
                        </use>
                        <path d="M-4,0h8M0,-4v8" fill="none" stroke="white" stroke-width="1.5" pointer-events="none"/>
                </g>
                <g id="zoomMin">
                        <use xlink:href="#rim" fill="#404040">
                                <set attributeName="fill" to="#808080" begin="zoomminus.mouseover" end="zoomminus.mouseout"/>
                        </use>
                        <path d="M-4,0h8" fill="none" stroke="white" stroke-width="1.5" pointer-events="none"/>
                </g>
                <g id="dirArrow">
                        <path fill="none" stroke="white" stroke-width="1.5" d="M0,-3.0v7 M-2.5,-0.5L0,-3.0L2.5,-0.5"/>
                </g>
               <g id="resetDef">
                       <use xlink:href="#rim2" fill="#404040">
                               <set attributeName="fill" to="#808080" begin="reset.mouseover" end="reset.mouseout"/>
                       </use>
               </g>
        </defs>

<script type="text/javascript">
var viewWidth = 840;
var viewHeight = 372;
var sectionId = 'dynsection-1';
</script>
<script xlink:href="svgpan.js"/>
<svg id="graph" class="graph">
<g id="viewport">
<title>interface/digital/input/DigitalInput.h</title>
<polygon fill="white" stroke="none" points="-4,4 -4,-368 835.5,-368 835.5,4 -4,4"/>
<!-- Node35 -->
<g id="node1" class="node"><title>Node35</title>
<polygon fill="#bfbfbf" stroke="black" points="551.5,-329.5 551.5,-363.5 675.5,-363.5 675.5,-329.5 551.5,-329.5"/>
<text text-anchor="start" x="559.5" y="-349.9" font-family="Helvetica,sans-Serif" font-size="12.00">interface/digital/input</text>
<text text-anchor="middle" x="613.5" y="-336.9" font-family="Helvetica,sans-Serif" font-size="12.00">/DigitalInput.h</text>
</g>
<!-- Node36 -->
<g id="node2" class="node"><title>Node36</title>
<g id="a_node2"><a xlink:href="_interface_8h.html" target="_top" xlink:title="interface/Interface.h">
<polygon fill="white" stroke="black" points="445.5,-265 445.5,-286 563.5,-286 563.5,-265 445.5,-265"/>
<text text-anchor="middle" x="504.5" y="-272.4" font-family="Helvetica,sans-Serif" font-size="12.00">interface/Interface.h</text>
</a>
</g>
</g>
<!-- Node35&#45;&gt;Node36 -->
<g id="edge1" class="edge"><title>Node35&#45;&gt;Node36</title>
<path fill="none" stroke="midnightblue" d="M579.623,-324.055C559.51,-311.323 535.002,-295.809 519.57,-286.04"/>
<polygon fill="midnightblue" stroke="midnightblue" points="577.898,-327.105 588.219,-329.497 581.642,-321.191 577.898,-327.105"/>
</g>
<!-- Node50 -->
<g id="node16" class="node"><title>Node50</title>
<g id="a_node16"><a xlink:href="_digital_input_8cpp.html" target="_top" xlink:title="interface/digital/input\l/DigitalInput.cpp">
<polygon fill="white" stroke="black" points="660.5,-258.5 660.5,-292.5 784.5,-292.5 784.5,-258.5 660.5,-258.5"/>
<text text-anchor="start" x="668.5" y="-278.9" font-family="Helvetica,sans-Serif" font-size="12.00">interface/digital/input</text>
<text text-anchor="middle" x="722.5" y="-265.9" font-family="Helvetica,sans-Serif" font-size="12.00">/DigitalInput.cpp</text>
</a>
</g>
</g>
<!-- Node35&#45;&gt;Node50 -->
<g id="edge22" class="edge"><title>Node35&#45;&gt;Node50</title>
<path fill="none" stroke="midnightblue" d="M647.35,-324.072C663.37,-313.931 682.183,-302.022 696.979,-292.656"/>
<polygon fill="midnightblue" stroke="midnightblue" points="645.358,-321.191 638.781,-329.497 649.102,-327.105 645.358,-321.191"/>
</g>
<!-- Node37 -->
<g id="node3" class="node"><title>Node37</title>
<g id="a_node3"><a xlink:href="_open_deck_8h.html" target="_top" xlink:title="OpenDeck.h">
<polygon fill="white" stroke="black" points="311.5,-200.5 311.5,-221.5 393.5,-221.5 393.5,-200.5 311.5,-200.5"/>
<text text-anchor="middle" x="352.5" y="-207.9" font-family="Helvetica,sans-Serif" font-size="12.00">OpenDeck.h</text>
</a>
</g>
</g>
<!-- Node36&#45;&gt;Node37 -->
<g id="edge2" class="edge"><title>Node36&#45;&gt;Node37</title>
<path fill="none" stroke="midnightblue" d="M471.791,-261.051C442.849,-249.15 401.34,-232.082 375.694,-221.537"/>
<polygon fill="midnightblue" stroke="midnightblue" points="470.503,-264.305 481.083,-264.871 473.165,-257.831 470.503,-264.305"/>
</g>
<!-- Node38 -->
<g id="node4" class="node"><title>Node38</title>
<g id="a_node4"><a xlink:href="_init_8cpp.html" target="_top" xlink:title="Init.cpp">
<polygon fill="white" stroke="black" points="105,-136 105,-157 158,-157 158,-136 105,-136"/>
<text text-anchor="middle" x="131.5" y="-143.4" font-family="Helvetica,sans-Serif" font-size="12.00">Init.cpp</text>
</a>
</g>
</g>
<!-- Node37&#45;&gt;Node38 -->
<g id="edge3" class="edge"><title>Node37&#45;&gt;Node38</title>
<path fill="none" stroke="midnightblue" d="M301.249,-199.942C263.691,-191.927 211.757,-179.493 167.5,-164 161.919,-162.046 156.026,-159.543 150.659,-157.08"/>
<polygon fill="midnightblue" stroke="midnightblue" points="300.937,-203.453 311.443,-202.084 302.377,-196.602 300.937,-203.453"/>
</g>
<!-- Node39 -->
<g id="node5" class="node"><title>Node39</title>
<g id="a_node5"><a xlink:href="_sys_ex_8h.html" target="_top" xlink:title="sysex/src/SysEx.h">
<polygon fill="white" stroke="black" points="176.5,-136 176.5,-157 286.5,-157 286.5,-136 176.5,-136"/>
<text text-anchor="middle" x="231.5" y="-143.4" font-family="Helvetica,sans-Serif" font-size="12.00">sysex/src/SysEx.h</text>
</a>
</g>
</g>
<!-- Node37&#45;&gt;Node39 -->
<g id="edge4" class="edge"><title>Node37&#45;&gt;Node39</title>
<path fill="none" stroke="midnightblue" d="M319.504,-195.925C294.983,-184.058 262.973,-167.399 244.946,-157.037"/>
<polygon fill="midnightblue" stroke="midnightblue" points="318.29,-199.224 328.823,-200.371 321.305,-192.906 318.29,-199.224"/>
</g>
<!-- Node41 -->
<g id="node7" class="node"><title>Node41</title>
<g id="a_node7"><a xlink:href="interface_2digital_2input_2buttons_2_buttons_8h.html" target="_top" xlink:title="interface/digital/input\l/buttons/Buttons.h">
<polygon fill="white" stroke="black" points="532.5,-129.5 532.5,-163.5 656.5,-163.5 656.5,-129.5 532.5,-129.5"/>
<text text-anchor="start" x="540.5" y="-149.9" font-family="Helvetica,sans-Serif" font-size="12.00">interface/digital/input</text>
<text text-anchor="middle" x="594.5" y="-136.9" font-family="Helvetica,sans-Serif" font-size="12.00">/buttons/Buttons.h</text>
</a>
</g>
</g>
<!-- Node37&#45;&gt;Node41 -->
<g id="edge7" class="edge"><title>Node37&#45;&gt;Node41</title>
<path fill="none" stroke="midnightblue" d="M399.254,-197.925C437.055,-188.163 490.613,-174.33 532.077,-163.622"/>
<polygon fill="midnightblue" stroke="midnightblue" points="398.325,-194.55 389.518,-200.44 400.076,-201.328 398.325,-194.55"/>
</g>
<!-- Node42 -->
<g id="node8" class="node"><title>Node42</title>
<g id="a_node8"><a xlink:href="interface_2analog_2_analog_8h.html" target="_top" xlink:title="interface/analog/Analog.h">
<polygon fill="white" stroke="black" points="378,-65 378,-86 527,-86 527,-65 378,-65"/>
<text text-anchor="middle" x="452.5" y="-72.4" font-family="Helvetica,sans-Serif" font-size="12.00">interface/analog/Analog.h</text>
</a>
</g>
</g>
<!-- Node37&#45;&gt;Node42 -->
<g id="edge15" class="edge"><title>Node37&#45;&gt;Node42</title>
<path fill="none" stroke="midnightblue" d="M402.814,-196.607C419.418,-189.629 436.244,-179.249 446.5,-164 462.646,-139.994 458.13,-103.423 454.729,-86.162"/>
<polygon fill="midnightblue" stroke="midnightblue" points="401.195,-193.48 393.116,-200.334 403.706,-200.014 401.195,-193.48"/>
</g>
<!-- Node44 -->
<g id="node10" class="node"><title>Node44</title>
<g id="a_node10"><a xlink:href="_f_s_r_8cpp.html" target="_top" xlink:title="interface/analog/FSR.cpp">
<polygon fill="white" stroke="black" points="240,-0.5 240,-21.5 389,-21.5 389,-0.5 240,-0.5"/>
<text text-anchor="middle" x="314.5" y="-7.9" font-family="Helvetica,sans-Serif" font-size="12.00">interface/analog/FSR.cpp</text>
</a>
</g>
</g>
<!-- Node37&#45;&gt;Node44 -->
<g id="edge19" class="edge"><title>Node37&#45;&gt;Node44</title>
<path fill="none" stroke="midnightblue" d="M343.345,-191.078C339.753,-182.92 335.918,-173.164 333.5,-164 319.656,-111.544 315.811,-46.1682 314.82,-21.7737"/>
<polygon fill="midnightblue" stroke="midnightblue" points="340.275,-192.778 347.642,-200.393 346.631,-189.846 340.275,-192.778"/>
</g>
<!-- Node45 -->
<g id="node11" class="node"><title>Node45</title>
<g id="a_node11"><a xlink:href="_potentiometer_8cpp.html" target="_top" xlink:title="interface/analog/Potentiometer.cpp">
<polygon fill="white" stroke="black" points="0,-0.5 0,-21.5 199,-21.5 199,-0.5 0,-0.5"/>
<text text-anchor="middle" x="99.5" y="-7.9" font-family="Helvetica,sans-Serif" font-size="12.00">interface/analog/Potentiometer.cpp</text>
</a>
</g>
</g>
<!-- Node37&#45;&gt;Node45 -->
<g id="edge20" class="edge"><title>Node37&#45;&gt;Node45</title>
<path fill="none" stroke="midnightblue" d="M301.029,-208.325C233.679,-204.925 121.181,-194.685 95.5,-164 60.2602,-121.893 84.9257,-47.866 95.4142,-21.5863"/>
<polygon fill="midnightblue" stroke="midnightblue" points="301.277,-211.84 311.431,-208.814 301.606,-204.848 301.277,-211.84"/>
</g>
<!-- Node47 -->
<g id="node13" class="node"><title>Node47</title>
<g id="a_node13"><a xlink:href="interface_2digital_2input_2encoders_2_encoders_8h.html" target="_top" xlink:title="interface/digital/input\l/encoders/Encoders.h">
<polygon fill="white" stroke="black" points="675,-129.5 675,-163.5 806,-163.5 806,-129.5 675,-129.5"/>
<text text-anchor="start" x="683" y="-149.9" font-family="Helvetica,sans-Serif" font-size="12.00">interface/digital/input</text>
<text text-anchor="middle" x="740.5" y="-136.9" font-family="Helvetica,sans-Serif" font-size="12.00">/encoders/Encoders.h</text>
</a>
</g>
</g>
<!-- Node37&#45;&gt;Node47 -->
<g id="edge16" class="edge"><title>Node37&#45;&gt;Node47</title>
<path fill="none" stroke="midnightblue" d="M403.606,-203.617C465.724,-195.598 573.64,-180.833 665.5,-164 668.516,-163.447 671.596,-162.861 674.703,-162.251"/>
<polygon fill="midnightblue" stroke="midnightblue" points="403.141,-200.148 393.668,-204.892 404.032,-207.091 403.141,-200.148"/>
</g>
<!-- Node49 -->
<g id="node15" class="node"><title>Node49</title>
<g id="a_node15"><a xlink:href="_open_deck_8cpp.html" target="_top" xlink:title="OpenDeck.cpp">
<polygon fill="white" stroke="black" points="343,-136 343,-157 438,-157 438,-136 343,-136"/>
<text text-anchor="middle" x="390.5" y="-143.4" font-family="Helvetica,sans-Serif" font-size="12.00">OpenDeck.cpp</text>
</a>
</g>
</g>
<!-- Node37&#45;&gt;Node49 -->
<g id="edge21" class="edge"><title>Node37&#45;&gt;Node49</title>
<path fill="none" stroke="midnightblue" d="M363.673,-191.623C370.478,-180.431 378.905,-166.57 384.479,-157.403"/>
<polygon fill="midnightblue" stroke="midnightblue" points="360.642,-189.871 358.438,-200.234 366.623,-193.508 360.642,-189.871"/>
</g>
<!-- Node39&#45;&gt;Node37 -->
<g id="edge5" class="edge"><title>Node39&#45;&gt;Node37</title>
<path fill="none" stroke="midnightblue" d="M264.575,-161.613C288.907,-173.391 320.579,-189.869 338.656,-200.234"/>
<polygon fill="midnightblue" stroke="midnightblue" points="265.855,-158.346 255.323,-157.197 262.84,-164.663 265.855,-158.346"/>
</g>
<!-- Node40 -->
<g id="node6" class="node"><title>Node40</title>
<g id="a_node6"><a xlink:href="_sys_ex_8cpp.html" target="_top" xlink:title="sysex/src/SysEx.cpp">
<polygon fill="white" stroke="black" points="163,-65 163,-86 286,-86 286,-65 163,-65"/>
<text text-anchor="middle" x="224.5" y="-72.4" font-family="Helvetica,sans-Serif" font-size="12.00">sysex/src/SysEx.cpp</text>
</a>
</g>
</g>
<!-- Node39&#45;&gt;Node40 -->
<g id="edge6" class="edge"><title>Node39&#45;&gt;Node40</title>
<path fill="none" stroke="midnightblue" d="M229.48,-125.588C228.16,-112.578 226.496,-96.1754 225.465,-86.0127"/>
<polygon fill="midnightblue" stroke="midnightblue" points="226.035,-126.31 230.527,-135.906 232.999,-125.604 226.035,-126.31"/>
</g>
<!-- Node41&#45;&gt;Node35 -->
<g id="edge13" class="edge"><title>Node41&#45;&gt;Node35</title>
<path fill="none" stroke="midnightblue" d="M597.026,-173.829C601.018,-215.427 608.666,-295.129 611.945,-329.297"/>
<polygon fill="midnightblue" stroke="midnightblue" points="600.489,-173.269 596.05,-163.649 593.521,-173.938 600.489,-173.269"/>
</g>
<!-- Node41&#45;&gt;Node42 -->
<g id="edge8" class="edge"><title>Node41&#45;&gt;Node42</title>
<path fill="none" stroke="midnightblue" d="M552.468,-125.076C525.891,-112.162 492.778,-96.0716 472.133,-86.0398"/>
<polygon fill="midnightblue" stroke="midnightblue" points="551.041,-128.274 561.565,-129.497 554.101,-121.978 551.041,-128.274"/>
</g>
<!-- Node46 -->
<g id="node12" class="node"><title>Node46</title>
<g id="a_node12"><a xlink:href="interface_2digital_2input_2buttons_2_buttons_8cpp.html" target="_top" xlink:title="interface/digital/input\l/buttons/Buttons.cpp">
<polygon fill="white" stroke="black" points="545.5,-58.5 545.5,-92.5 669.5,-92.5 669.5,-58.5 545.5,-58.5"/>
<text text-anchor="start" x="553.5" y="-78.9" font-family="Helvetica,sans-Serif" font-size="12.00">interface/digital/input</text>
<text text-anchor="middle" x="607.5" y="-65.9" font-family="Helvetica,sans-Serif" font-size="12.00">/buttons/Buttons.cpp</text>
</a>
</g>
</g>
<!-- Node41&#45;&gt;Node46 -->
<g id="edge14" class="edge"><title>Node41&#45;&gt;Node46</title>
<path fill="none" stroke="midnightblue" d="M599.391,-119.538C601.075,-110.603 602.912,-100.853 604.411,-92.8958"/>
<polygon fill="midnightblue" stroke="midnightblue" points="595.927,-119.021 597.515,-129.497 602.806,-120.318 595.927,-119.021"/>
</g>
<!-- Node42&#45;&gt;Node36 -->
<g id="edge9" class="edge"><title>Node42&#45;&gt;Node36</title>
<path fill="none" stroke="midnightblue" d="M457.681,-95.8327C460.331,-105.746 463.601,-118.015 466.5,-129 480.024,-180.244 495.994,-241.709 502.027,-264.962"/>
<polygon fill="midnightblue" stroke="midnightblue" points="461.062,-94.9273 455.095,-86.1722 454.3,-96.7372 461.062,-94.9273"/>
</g>
<!-- Node43 -->
<g id="node9" class="node"><title>Node43</title>
<g id="a_node9"><a xlink:href="interface_2analog_2_analog_8cpp.html" target="_top" xlink:title="interface/analog/Analog.cpp">
<polygon fill="white" stroke="black" points="407.5,-0.5 407.5,-21.5 569.5,-21.5 569.5,-0.5 407.5,-0.5"/>
<text text-anchor="middle" x="488.5" y="-7.9" font-family="Helvetica,sans-Serif" font-size="12.00">interface/analog/Analog.cpp</text>
</a>
</g>
</g>
<!-- Node42&#45;&gt;Node43 -->
<g id="edge10" class="edge"><title>Node42&#45;&gt;Node43</title>
<path fill="none" stroke="midnightblue" d="M463.279,-55.7863C469.691,-44.6544 477.568,-30.9785 482.796,-21.9033"/>
<polygon fill="midnightblue" stroke="midnightblue" points="460.083,-54.3221 458.125,-64.7344 466.149,-57.816 460.083,-54.3221"/>
</g>
<!-- Node42&#45;&gt;Node44 -->
<g id="edge11" class="edge"><title>Node42&#45;&gt;Node44</title>
<path fill="none" stroke="midnightblue" d="M422.116,-60.7389C395.873,-48.8537 358.639,-31.9905 335.558,-21.537"/>
<polygon fill="midnightblue" stroke="midnightblue" points="420.687,-63.934 431.24,-64.8713 423.575,-57.5574 420.687,-63.934"/>
</g>
<!-- Node42&#45;&gt;Node45 -->
<g id="edge12" class="edge"><title>Node42&#45;&gt;Node45</title>
<path fill="none" stroke="midnightblue" d="M388.439,-63.1578C321.104,-51.2358 216.359,-32.6904 153.202,-21.5081"/>
<polygon fill="midnightblue" stroke="midnightblue" points="388.046,-66.6425 398.503,-64.9396 389.266,-59.7497 388.046,-66.6425"/>
</g>
<!-- Node47&#45;&gt;Node35 -->
<g id="edge17" class="edge"><title>Node47&#45;&gt;Node35</title>
<path fill="none" stroke="midnightblue" d="M718.158,-171.312C698.806,-192.789 670.94,-225.852 651.5,-258 637.274,-281.525 625.519,-311.333 619.013,-329.383"/>
<polygon fill="midnightblue" stroke="midnightblue" points="720.971,-173.421 725.123,-163.674 715.799,-168.705 720.971,-173.421"/>
</g>
<!-- Node48 -->
<g id="node14" class="node"><title>Node48</title>
<g id="a_node14"><a xlink:href="interface_2digital_2input_2encoders_2_encoders_8cpp.html" target="_top" xlink:title="interface/digital/input\l/encoders/Encoders.cpp">
<polygon fill="white" stroke="black" points="687.5,-58.5 687.5,-92.5 831.5,-92.5 831.5,-58.5 687.5,-58.5"/>
<text text-anchor="start" x="695.5" y="-78.9" font-family="Helvetica,sans-Serif" font-size="12.00">interface/digital/input</text>
<text text-anchor="middle" x="759.5" y="-65.9" font-family="Helvetica,sans-Serif" font-size="12.00">/encoders/Encoders.cpp</text>
</a>
</g>
</g>
<!-- Node47&#45;&gt;Node48 -->
<g id="edge18" class="edge"><title>Node47&#45;&gt;Node48</title>
<path fill="none" stroke="midnightblue" d="M747.569,-119.83C750.051,-110.816 752.77,-100.94 754.985,-92.8958"/>
<polygon fill="midnightblue" stroke="midnightblue" points="744.187,-118.926 744.907,-129.497 750.936,-120.785 744.187,-118.926"/>
</g>
</g>
</svg>
        <g id="navigator" transform="translate(0 0)" fill="#404254">
                <rect fill="#f2f5e9" fill-opacity="0.5" stroke="#606060" stroke-width=".5" x="0" y="0" width="60" height="60"/>
                <use id="zoomplus" xlink:href="#zoomPlus" x="17" y="9" onmousedown="handleZoom(evt,'in')"/>
                <use id="zoomminus" xlink:href="#zoomMin" x="42" y="9" onmousedown="handleZoom(evt,'out')"/>
                <use id="reset" xlink:href="#resetDef" x="30" y="36" onmousedown="handleReset()"/>
                <g id="arrowUp" xlink:href="#dirArrow" transform="translate(30 24)" onmousedown="handlePan(0,-1)">
                  <use xlink:href="#rim" fill="#404040">
                        <set attributeName="fill" to="#808080" begin="arrowUp.mouseover" end="arrowUp.mouseout"/>
                  </use>
                  <path fill="none" stroke="white" stroke-width="1.5" d="M0,-3.0v7 M-2.5,-0.5L0,-3.0L2.5,-0.5"/>
                </g>
                <g id="arrowRight" xlink:href="#dirArrow" transform="rotate(90) translate(36 -43)" onmousedown="handlePan(1,0)">
                  <use xlink:href="#rim" fill="#404040">
                        <set attributeName="fill" to="#808080" begin="arrowRight.mouseover" end="arrowRight.mouseout"/>
                  </use>
                  <path fill="none" stroke="white" stroke-width="1.5" d="M0,-3.0v7 M-2.5,-0.5L0,-3.0L2.5,-0.5"/>
                </g>
                <g id="arrowDown" xlink:href="#dirArrow" transform="rotate(180) translate(-30 -48)" onmousedown="handlePan(0,1)">
                  <use xlink:href="#rim" fill="#404040">
                        <set attributeName="fill" to="#808080" begin="arrowDown.mouseover" end="arrowDown.mouseout"/>
                  </use>
                  <path fill="none" stroke="white" stroke-width="1.5" d="M0,-3.0v7 M-2.5,-0.5L0,-3.0L2.5,-0.5"/>
                </g>
                <g id="arrowLeft" xlink:href="#dirArrow" transform="rotate(270) translate(-36 17)" onmousedown="handlePan(-1,0)">
                  <use xlink:href="#rim" fill="#404040">
                        <set attributeName="fill" to="#808080" begin="arrowLeft.mouseover" end="arrowLeft.mouseout"/>
                  </use>
                  <path fill="none" stroke="white" stroke-width="1.5" d="M0,-3.0v7 M-2.5,-0.5L0,-3.0L2.5,-0.5"/>
                </g>
        </g>
        <svg viewBox="0 0 15 15" width="100%" height="30px" preserveAspectRatio="xMaxYMin meet">
         <g id="arrow_out" transform="scale(0.3 0.3)">
          <a xlink:href="_digital_input_8h__dep__incl_org.svg" target="_base">
           <rect id="button" ry="5" rx="5" y="6" x="6" height="38" width="38"
                fill="#f2f5e9" fill-opacity="0.5" stroke="#606060" stroke-width="1.0"/>
           <path id="arrow"
             d="M 11.500037,31.436501 C 11.940474,20.09759 22.043105,11.32322 32.158766,21.979434 L 37.068811,17.246167 C 37.068811,17.246167 37.088388,32 37.088388,32 L 22.160133,31.978069 C 22.160133,31.978069 26.997745,27.140456 26.997745,27.140456 C 18.528582,18.264221 13.291696,25.230495 11.500037,31.436501 z"
             style="fill:#404040;"/>
          </a>
         </g>
        </svg>
</svg>
