<?xml version="1.0" encoding="UTF-8" standalone="no"?>
<!DOCTYPE svg PUBLIC "-//W3C//DTD SVG 1.1//EN"
 "http://www.w3.org/Graphics/SVG/1.1/DTD/svg11.dtd">
<!-- Generated by graphviz version 2.38.0 (20140413.2041)
 -->
<!-- Title: interface/digital/input/DigitalInput.cpp Pages: 1 -->
<svg width="849pt" height="649pt"
 viewBox="0.00 0.00 848.50 649.00" xmlns="http://www.w3.org/2000/svg" xmlns:xlink="http://www.w3.org/1999/xlink">
<g id="graph0" class="graph" transform="scale(1 1) rotate(0) translate(4 645)">
<title>interface/digital/input/DigitalInput.cpp</title>
<polygon fill="white" stroke="none" points="-4,4 -4,-645 844.5,-645 844.5,4 -4,4"/>
<!-- Node0 -->
<g id="node1" class="node"><title>Node0</title>
<polygon fill="#bfbfbf" stroke="black" points="221,-606.5 221,-640.5 345,-640.5 345,-606.5 221,-606.5"/>
<text text-anchor="start" x="229" y="-626.9" font-family="Helvetica,sans-Serif" font-size="12.00">interface/digital/input</text>
<text text-anchor="middle" x="283" y="-613.9" font-family="Helvetica,sans-Serif" font-size="12.00">/DigitalInput.cpp</text>
</g>
<!-- Node1 -->
<g id="node2" class="node"><title>Node1</title>
<g id="a_node2"><a xlink:href="_digital_input_8h.html" target="_top" xlink:title="DigitalInput.h">
<polygon fill="white" stroke="black" points="241.5,-548.5 241.5,-569.5 324.5,-569.5 324.5,-548.5 241.5,-548.5"/>
<text text-anchor="middle" x="283" y="-555.9" font-family="Helvetica,sans-Serif" font-size="12.00">DigitalInput.h</text>
</a>
</g>
</g>
<!-- Node0&#45;&gt;Node1 -->
<g id="edge1" class="edge"><title>Node0&#45;&gt;Node1</title>
<path fill="none" stroke="midnightblue" d="M283,-606.405C283,-598.357 283,-588.541 283,-580.012"/>
<polygon fill="midnightblue" stroke="midnightblue" points="286.5,-579.8 283,-569.8 279.5,-579.8 286.5,-579.8"/>
</g>
<!-- Node2 -->
<g id="node3" class="node"><title>Node2</title>
<g id="a_node3"><a xlink:href="interface_2digital_2input_2buttons_2_buttons_8h.html" target="_top" xlink:title="buttons/Buttons.h">
<polygon fill="white" stroke="black" points="146.5,-490.5 146.5,-511.5 251.5,-511.5 251.5,-490.5 146.5,-490.5"/>
<text text-anchor="middle" x="199" y="-497.9" font-family="Helvetica,sans-Serif" font-size="12.00">buttons/Buttons.h</text>
</a>
</g>
</g>
<!-- Node1&#45;&gt;Node2 -->
<g id="edge2" class="edge"><title>Node1&#45;&gt;Node2</title>
<path fill="none" stroke="midnightblue" d="M268.368,-548.246C255.601,-539.734 236.856,-527.237 222.07,-517.38"/>
<polygon fill="midnightblue" stroke="midnightblue" points="223.726,-514.278 213.464,-511.643 219.843,-520.102 223.726,-514.278"/>
</g>
<!-- Node34 -->
<g id="node35" class="node"><title>Node34</title>
<g id="a_node35"><a xlink:href="interface_2digital_2input_2encoders_2_encoders_8h.html" target="_top" xlink:title="encoders/Encoders.h">
<polygon fill="white" stroke="black" points="388,-490.5 388,-511.5 516,-511.5 516,-490.5 388,-490.5"/>
<text text-anchor="middle" x="452" y="-497.9" font-family="Helvetica,sans-Serif" font-size="12.00">encoders/Encoders.h</text>
</a>
</g>
</g>
<!-- Node1&#45;&gt;Node34 -->
<g id="edge46" class="edge"><title>Node1&#45;&gt;Node34</title>
<path fill="none" stroke="midnightblue" d="M312.052,-548.373C340.154,-539.061 382.905,-524.895 413.761,-514.671"/>
<polygon fill="midnightblue" stroke="midnightblue" points="414.935,-517.969 423.327,-511.501 412.734,-511.324 414.935,-517.969"/>
</g>
<!-- Node3 -->
<g id="node4" class="node"><title>Node3</title>
<g id="a_node4"><a xlink:href="interface_2digital_2input_2buttons_2_data_types_8h.html" target="_top" xlink:title="DataTypes.h">
<polygon fill="white" stroke="black" points="84.5,-432.5 84.5,-453.5 167.5,-453.5 167.5,-432.5 84.5,-432.5"/>
<text text-anchor="middle" x="126" y="-439.9" font-family="Helvetica,sans-Serif" font-size="12.00">DataTypes.h</text>
</a>
</g>
</g>
<!-- Node2&#45;&gt;Node3 -->
<g id="edge3" class="edge"><title>Node2&#45;&gt;Node3</title>
<path fill="none" stroke="midnightblue" d="M186.284,-490.246C175.398,-481.894 159.512,-469.708 146.78,-459.941"/>
<polygon fill="midnightblue" stroke="midnightblue" points="148.635,-456.952 138.57,-453.643 144.374,-462.506 148.635,-456.952"/>
</g>
<!-- Node4 -->
<g id="node5" class="node"><title>Node4</title>
<g id="a_node5"><a xlink:href="_open_deck_8h.html" target="_top" xlink:title="../../../../OpenDeck.h">
<polygon fill="white" stroke="black" points="393,-432.5 393,-453.5 511,-453.5 511,-432.5 393,-432.5"/>
<text text-anchor="middle" x="452" y="-439.9" font-family="Helvetica,sans-Serif" font-size="12.00">../../../../OpenDeck.h</text>
</a>
</g>
</g>
<!-- Node2&#45;&gt;Node4 -->
<g id="edge4" class="edge"><title>Node2&#45;&gt;Node4</title>
<path fill="none" stroke="midnightblue" d="M242.205,-490.437C285.595,-480.833 352.521,-466.019 399.073,-455.715"/>
<polygon fill="midnightblue" stroke="midnightblue" points="399.966,-459.102 408.973,-453.524 398.453,-452.268 399.966,-459.102"/>
</g>
<!-- Node5 -->
<g id="node6" class="node"><title>Node5</title>
<g id="a_node6"><a xlink:href="database_2_database_8h.html" target="_top" xlink:title="database/Database.h">
<polygon fill="white" stroke="black" points="311,-174.5 311,-195.5 441,-195.5 441,-174.5 311,-174.5"/>
<text text-anchor="middle" x="376" y="-181.9" font-family="Helvetica,sans-Serif" font-size="12.00">database/Database.h</text>
</a>
</g>
</g>
<!-- Node4&#45;&gt;Node5 -->
<g id="edge5" class="edge"><title>Node4&#45;&gt;Node5</title>
<path fill="none" stroke="midnightblue" d="M473.766,-432.386C488.066,-424.773 505.625,-412.642 514,-396 524.385,-375.364 504.773,-299.39 502,-290 494.049,-263.079 496.645,-252.05 477,-232 462.187,-216.882 441.489,-206.268 422.685,-199.077"/>
<polygon fill="midnightblue" stroke="midnightblue" points="423.659,-195.708 413.065,-195.622 421.294,-202.296 423.659,-195.708"/>
</g>
<!-- Node16 -->
<g id="node17" class="node"><title>Node16</title>
<g id="a_node17"><a xlink:href="_sys_ex_8h.html" target="_top" xlink:title="sysex/src/SysEx.h">
<polygon fill="white" stroke="black" points="562,-368 562,-389 672,-389 672,-368 562,-368"/>
<text text-anchor="middle" x="617" y="-375.4" font-family="Helvetica,sans-Serif" font-size="12.00">sysex/src/SysEx.h</text>
</a>
</g>
</g>
<!-- Node4&#45;&gt;Node16 -->
<g id="edge16" class="edge"><title>Node4&#45;&gt;Node16</title>
<path fill="none" stroke="midnightblue" d="M472.384,-432.371C498.489,-421.696 543.91,-404.42 576.975,-392.538"/>
<polygon fill="midnightblue" stroke="midnightblue" points="578.558,-395.689 586.804,-389.037 576.209,-389.095 578.558,-395.689"/>
</g>
<!-- Node19 -->
<g id="node20" class="node"><title>Node19</title>
<g id="a_node20"><a xlink:href="_version_8h.html" target="_top" xlink:title="versioning/src/avr\l/Version.h">
<polygon fill="white" stroke="black" points="398.5,-361.5 398.5,-395.5 505.5,-395.5 505.5,-361.5 398.5,-361.5"/>
<text text-anchor="start" x="406.5" y="-381.9" font-family="Helvetica,sans-Serif" font-size="12.00">versioning/src/avr</text>
<text text-anchor="middle" x="452" y="-368.9" font-family="Helvetica,sans-Serif" font-size="12.00">/Version.h</text>
</a>
</g>
</g>
<!-- Node4&#45;&gt;Node19 -->
<g id="edge21" class="edge"><title>Node4&#45;&gt;Node19</title>
<path fill="none" stroke="midnightblue" d="M452,-432.234C452,-425.15 452,-415.211 452,-405.868"/>
<polygon fill="midnightblue" stroke="midnightblue" points="455.5,-405.758 452,-395.758 448.5,-405.758 455.5,-405.758"/>
</g>
<!-- Node21 -->
<g id="node22" class="node"><title>Node21</title>
<g id="a_node22"><a xlink:href="_interface_8h.html" target="_top" xlink:title="interface/Interface.h">
<polygon fill="white" stroke="black" points="224,-368 224,-389 342,-389 342,-368 224,-368"/>
<text text-anchor="middle" x="283" y="-375.4" font-family="Helvetica,sans-Serif" font-size="12.00">interface/Interface.h</text>
</a>
</g>
</g>
<!-- Node4&#45;&gt;Node21 -->
<g id="edge23" class="edge"><title>Node4&#45;&gt;Node21</title>
<path fill="none" stroke="midnightblue" d="M425.964,-432.371C397.099,-421.696 350.382,-404.42 318.255,-392.538"/>
<polygon fill="midnightblue" stroke="midnightblue" points="319.381,-389.223 308.788,-389.037 316.953,-395.788 319.381,-389.223"/>
</g>
<!-- Node30 -->
<g id="node31" class="node"><title>Node30</title>
<g id="a_node31"><a xlink:href="midi_2src_2_m_i_d_i_8h.html" target="_top" xlink:title="midi/src/MIDI.h">
<polygon fill="white" stroke="black" points="690.5,-368 690.5,-389 783.5,-389 783.5,-368 690.5,-368"/>
<text text-anchor="middle" x="737" y="-375.4" font-family="Helvetica,sans-Serif" font-size="12.00">midi/src/MIDI.h</text>
</a>
</g>
</g>
<!-- Node4&#45;&gt;Node30 -->
<g id="edge40" class="edge"><title>Node4&#45;&gt;Node30</title>
<path fill="none" stroke="midnightblue" d="M506.435,-432.465C553.023,-423.972 621.755,-410.648 681,-396 686.036,-394.755 691.298,-393.348 696.492,-391.894"/>
<polygon fill="midnightblue" stroke="midnightblue" points="697.679,-395.194 706.324,-389.069 695.746,-388.467 697.679,-395.194"/>
</g>
<!-- Node6 -->
<g id="node7" class="node"><title>Node6</title>
<g id="a_node7"><a xlink:href="_d_b_m_s_8h.html" target="_top" xlink:title="../dbms/src/DBMS.h">
<polygon fill="white" stroke="black" points="124.5,-116.5 124.5,-137.5 245.5,-137.5 245.5,-116.5 124.5,-116.5"/>
<text text-anchor="middle" x="185" y="-123.9" font-family="Helvetica,sans-Serif" font-size="12.00">../dbms/src/DBMS.h</text>
</a>
</g>
</g>
<!-- Node5&#45;&gt;Node6 -->
<g id="edge6" class="edge"><title>Node5&#45;&gt;Node6</title>
<path fill="none" stroke="midnightblue" d="M343.166,-174.373C311.131,-164.981 262.251,-150.65 227.315,-140.406"/>
<polygon fill="midnightblue" stroke="midnightblue" points="227.986,-136.956 217.406,-137.501 226.017,-143.673 227.986,-136.956"/>
</g>
<!-- Node9 -->
<g id="node10" class="node"><title>Node9</title>
<g id="a_node10"><a xlink:href="database_2blocks_2_blocks_8h.html" target="_top" xlink:title="blocks/Blocks.h">
<polygon fill="white" stroke="black" points="327,-116.5 327,-137.5 425,-137.5 425,-116.5 327,-116.5"/>
<text text-anchor="middle" x="376" y="-123.9" font-family="Helvetica,sans-Serif" font-size="12.00">blocks/Blocks.h</text>
</a>
</g>
</g>
<!-- Node5&#45;&gt;Node9 -->
<g id="edge9" class="edge"><title>Node5&#45;&gt;Node9</title>
<path fill="none" stroke="midnightblue" d="M376,-174.246C376,-166.938 376,-156.694 376,-147.705"/>
<polygon fill="midnightblue" stroke="midnightblue" points="379.5,-147.643 376,-137.643 372.5,-147.643 379.5,-147.643"/>
</g>
<!-- Node7 -->
<g id="node8" class="node"><title>Node7</title>
<g id="a_node8"><a xlink:href="dbms_2src_2_data_types_8h.html" target="_top" xlink:title="DataTypes.h">
<polygon fill="white" stroke="black" points="91.5,-58.5 91.5,-79.5 174.5,-79.5 174.5,-58.5 91.5,-58.5"/>
<text text-anchor="middle" x="133" y="-65.9" font-family="Helvetica,sans-Serif" font-size="12.00">DataTypes.h</text>
</a>
</g>
</g>
<!-- Node6&#45;&gt;Node7 -->
<g id="edge7" class="edge"><title>Node6&#45;&gt;Node7</title>
<path fill="none" stroke="midnightblue" d="M175.942,-116.246C168.486,-108.216 157.737,-96.6394 148.858,-87.0781"/>
<polygon fill="midnightblue" stroke="midnightblue" points="151.323,-84.589 141.954,-79.6427 146.194,-89.3522 151.323,-84.589"/>
</g>
<!-- Node8 -->
<g id="node9" class="node"><title>Node8</title>
<polygon fill="white" stroke="#bfbfbf" points="624.5,-0.5 624.5,-21.5 689.5,-21.5 689.5,-0.5 624.5,-0.5"/>
<text text-anchor="middle" x="657" y="-7.9" font-family="Helvetica,sans-Serif" font-size="12.00">inttypes.h</text>
</g>
<!-- Node7&#45;&gt;Node8 -->
<g id="edge8" class="edge"><title>Node7&#45;&gt;Node8</title>
<path fill="none" stroke="midnightblue" d="M174.692,-59.4843C177.836,-58.9467 180.965,-58.4441 184,-58 341.946,-34.8901 531.319,-20.4373 614.402,-14.756"/>
<polygon fill="midnightblue" stroke="midnightblue" points="614.727,-18.2421 624.468,-14.0751 614.254,-11.258 614.727,-18.2421"/>
</g>
<!-- Node10 -->
<g id="node11" class="node"><title>Node10</title>
<g id="a_node11"><a xlink:href="database_2blocks_2_m_i_d_i_8h.html" target="_top" xlink:title="MIDI.h">
<polygon fill="white" stroke="black" points="402.5,-58.5 402.5,-79.5 451.5,-79.5 451.5,-58.5 402.5,-58.5"/>
<text text-anchor="middle" x="427" y="-65.9" font-family="Helvetica,sans-Serif" font-size="12.00">MIDI.h</text>
</a>
</g>
</g>
<!-- Node9&#45;&gt;Node10 -->
<g id="edge10" class="edge"><title>Node9&#45;&gt;Node10</title>
<path fill="none" stroke="midnightblue" d="M384.884,-116.246C392.197,-108.216 402.739,-96.6394 411.447,-87.0781"/>
<polygon fill="midnightblue" stroke="midnightblue" points="414.073,-89.3928 418.218,-79.6427 408.897,-84.6795 414.073,-89.3928"/>
</g>
<!-- Node11 -->
<g id="node12" class="node"><title>Node11</title>
<g id="a_node12"><a xlink:href="database_2blocks_2_buttons_8h.html" target="_top" xlink:title="Buttons.h">
<polygon fill="white" stroke="black" points="469.5,-58.5 469.5,-79.5 534.5,-79.5 534.5,-58.5 469.5,-58.5"/>
<text text-anchor="middle" x="502" y="-65.9" font-family="Helvetica,sans-Serif" font-size="12.00">Buttons.h</text>
</a>
</g>
</g>
<!-- Node9&#45;&gt;Node11 -->
<g id="edge11" class="edge"><title>Node9&#45;&gt;Node11</title>
<path fill="none" stroke="midnightblue" d="M397.66,-116.373C417.977,-107.343 448.564,-93.7494 471.375,-83.6111"/>
<polygon fill="midnightblue" stroke="midnightblue" points="472.906,-86.7609 480.622,-79.5011 470.063,-80.3642 472.906,-86.7609"/>
</g>
<!-- Node12 -->
<g id="node13" class="node"><title>Node12</title>
<g id="a_node13"><a xlink:href="database_2blocks_2_encoders_8h.html" target="_top" xlink:title="Encoders.h">
<polygon fill="white" stroke="black" points="553,-58.5 553,-79.5 629,-79.5 629,-58.5 553,-58.5"/>
<text text-anchor="middle" x="591" y="-65.9" font-family="Helvetica,sans-Serif" font-size="12.00">Encoders.h</text>
</a>
</g>
</g>
<!-- Node9&#45;&gt;Node12 -->
<g id="edge12" class="edge"><title>Node9&#45;&gt;Node12</title>
<path fill="none" stroke="midnightblue" d="M412.96,-116.373C449.408,-106.88 505.225,-92.3415 544.629,-82.0781"/>
<polygon fill="midnightblue" stroke="midnightblue" points="545.728,-85.4087 554.522,-79.5011 543.963,-78.6348 545.728,-85.4087"/>
</g>
<!-- Node13 -->
<g id="node14" class="node"><title>Node13</title>
<g id="a_node14"><a xlink:href="database_2blocks_2_analog_8h.html" target="_top" xlink:title="Analog.h">
<polygon fill="white" stroke="black" points="193,-58.5 193,-79.5 255,-79.5 255,-58.5 193,-58.5"/>
<text text-anchor="middle" x="224" y="-65.9" font-family="Helvetica,sans-Serif" font-size="12.00">Analog.h</text>
</a>
</g>
</g>
<!-- Node9&#45;&gt;Node13 -->
<g id="edge13" class="edge"><title>Node9&#45;&gt;Node13</title>
<path fill="none" stroke="midnightblue" d="M349.87,-116.373C324.923,-107.182 287.141,-93.2624 259.479,-83.0713"/>
<polygon fill="midnightblue" stroke="midnightblue" points="260.382,-79.674 249.789,-79.5011 257.962,-86.2424 260.382,-79.674"/>
</g>
<!-- Node14 -->
<g id="node15" class="node"><title>Node14</title>
<g id="a_node15"><a xlink:href="database_2blocks_2_l_e_ds_8h.html" target="_top" xlink:title="LEDs.h">
<polygon fill="white" stroke="black" points="273,-58.5 273,-79.5 329,-79.5 329,-58.5 273,-58.5"/>
<text text-anchor="middle" x="301" y="-65.9" font-family="Helvetica,sans-Serif" font-size="12.00">LEDs.h</text>
</a>
</g>
</g>
<!-- Node9&#45;&gt;Node14 -->
<g id="edge14" class="edge"><title>Node9&#45;&gt;Node14</title>
<path fill="none" stroke="midnightblue" d="M362.936,-116.246C351.644,-107.814 335.116,-95.4729 321.973,-85.6598"/>
<polygon fill="midnightblue" stroke="midnightblue" points="324.021,-82.8211 313.914,-79.6427 319.833,-88.4301 324.021,-82.8211"/>
</g>
<!-- Node15 -->
<g id="node16" class="node"><title>Node15</title>
<g id="a_node16"><a xlink:href="database_2blocks_2_i_d_8h.html" target="_top" xlink:title="ID.h">
<polygon fill="white" stroke="black" points="347.5,-58.5 347.5,-79.5 384.5,-79.5 384.5,-58.5 347.5,-58.5"/>
<text text-anchor="middle" x="366" y="-65.9" font-family="Helvetica,sans-Serif" font-size="12.00">ID.h</text>
</a>
</g>
</g>
<!-- Node9&#45;&gt;Node15 -->
<g id="edge15" class="edge"><title>Node9&#45;&gt;Node15</title>
<path fill="none" stroke="midnightblue" d="M374.258,-116.246C372.953,-108.938 371.124,-98.6944 369.519,-89.7046"/>
<polygon fill="midnightblue" stroke="midnightblue" points="372.925,-88.8717 367.722,-79.6427 366.034,-90.1022 372.925,-88.8717"/>
</g>
<!-- Node16&#45;&gt;Node4 -->
<g id="edge18" class="edge"><title>Node16&#45;&gt;Node4</title>
<path fill="none" stroke="midnightblue" d="M596.84,-389.037C570.734,-399.72 525.053,-417.096 491.882,-429.014"/>
<polygon fill="midnightblue" stroke="midnightblue" points="490.701,-425.719 482.456,-432.371 493.05,-432.313 490.701,-425.719"/>
</g>
<!-- Node17 -->
<g id="node18" class="node"><title>Node17</title>
<g id="a_node18"><a xlink:href="sysex_2src_2_config_8h.html" target="_top" xlink:title="Config.h">
<polygon fill="white" stroke="black" points="592,-232.5 592,-253.5 652,-253.5 652,-232.5 592,-232.5"/>
<text text-anchor="middle" x="622" y="-239.9" font-family="Helvetica,sans-Serif" font-size="12.00">Config.h</text>
</a>
</g>
</g>
<!-- Node16&#45;&gt;Node17 -->
<g id="edge17" class="edge"><title>Node16&#45;&gt;Node17</title>
<path fill="none" stroke="midnightblue" d="M613.183,-367.747C607.345,-351.54 597.432,-318.068 603,-290 604.865,-280.6 608.68,-270.711 612.405,-262.521"/>
<polygon fill="midnightblue" stroke="midnightblue" points="615.556,-264.046 616.768,-253.521 609.257,-260.993 615.556,-264.046"/>
</g>
<!-- Node18 -->
<g id="node19" class="node"><title>Node18</title>
<g id="a_node19"><a xlink:href="sysex_2src_2_data_types_8h.html" target="_top" xlink:title="DataTypes.h">
<polygon fill="white" stroke="black" points="612.5,-297 612.5,-318 695.5,-318 695.5,-297 612.5,-297"/>
<text text-anchor="middle" x="654" y="-304.4" font-family="Helvetica,sans-Serif" font-size="12.00">DataTypes.h</text>
</a>
</g>
</g>
<!-- Node16&#45;&gt;Node18 -->
<g id="edge19" class="edge"><title>Node16&#45;&gt;Node18</title>
<path fill="none" stroke="midnightblue" d="M622.145,-367.906C627.778,-357.401 636.948,-340.299 644.007,-327.136"/>
<polygon fill="midnightblue" stroke="midnightblue" points="647.258,-328.48 648.899,-318.013 641.089,-325.172 647.258,-328.48"/>
</g>
<!-- Node18&#45;&gt;Node17 -->
<g id="edge20" class="edge"><title>Node18&#45;&gt;Node17</title>
<path fill="none" stroke="midnightblue" d="M649,-296.734C644.378,-287.706 637.381,-274.041 631.668,-262.883"/>
<polygon fill="midnightblue" stroke="midnightblue" points="634.743,-261.209 627.07,-253.903 628.513,-264.4 634.743,-261.209"/>
</g>
<!-- Node20 -->
<g id="node21" class="node"><title>Node20</title>
<g id="a_node21"><a xlink:href="versioning_2src_2avr_2_data_types_8h.html" target="_top" xlink:title="DataTypes.h">
<polygon fill="white" stroke="black" points="410.5,-297 410.5,-318 493.5,-318 493.5,-297 410.5,-297"/>
<text text-anchor="middle" x="452" y="-304.4" font-family="Helvetica,sans-Serif" font-size="12.00">DataTypes.h</text>
</a>
</g>
</g>
<!-- Node19&#45;&gt;Node20 -->
<g id="edge22" class="edge"><title>Node19&#45;&gt;Node20</title>
<path fill="none" stroke="midnightblue" d="M452,-361.497C452,-351.673 452,-339.009 452,-328.524"/>
<polygon fill="midnightblue" stroke="midnightblue" points="455.5,-328.24 452,-318.24 448.5,-328.24 455.5,-328.24"/>
</g>
<!-- Node21&#45;&gt;Node1 -->
<g id="edge33" class="edge"><title>Node21&#45;&gt;Node1</title>
<path fill="none" stroke="midnightblue" d="M283,-389.144C283,-417.293 283,-499.765 283,-538.049"/>
<polygon fill="midnightblue" stroke="midnightblue" points="279.5,-538.403 283,-548.403 286.5,-538.403 279.5,-538.403"/>
</g>
<!-- Node22 -->
<g id="node23" class="node"><title>Node22</title>
<g id="a_node23"><a xlink:href="interface_2analog_2_analog_8h.html" target="_top" xlink:title="analog/Analog.h">
<polygon fill="white" stroke="black" points="155.5,-297 155.5,-318 256.5,-318 256.5,-297 155.5,-297"/>
<text text-anchor="middle" x="206" y="-304.4" font-family="Helvetica,sans-Serif" font-size="12.00">analog/Analog.h</text>
</a>
</g>
</g>
<!-- Node21&#45;&gt;Node22 -->
<g id="edge24" class="edge"><title>Node21&#45;&gt;Node22</title>
<path fill="none" stroke="midnightblue" d="M272.293,-367.906C259.881,-356.783 239.216,-338.265 224.253,-324.856"/>
<polygon fill="midnightblue" stroke="midnightblue" points="226.399,-322.08 216.616,-318.013 221.727,-327.293 226.399,-322.08"/>
</g>
<!-- Node27 -->
<g id="node28" class="node"><title>Node27</title>
<g id="a_node28"><a xlink:href="interface_2digital_2output_2leds_2_l_e_ds_8h.html" target="_top" xlink:title="digital/output/leds\l/LEDs.h">
<polygon fill="white" stroke="black" points="279.5,-290.5 279.5,-324.5 386.5,-324.5 386.5,-290.5 279.5,-290.5"/>
<text text-anchor="start" x="287.5" y="-310.9" font-family="Helvetica,sans-Serif" font-size="12.00">digital/output/leds</text>
<text text-anchor="middle" x="333" y="-297.9" font-family="Helvetica,sans-Serif" font-size="12.00">/LEDs.h</text>
</a>
</g>
</g>
<!-- Node21&#45;&gt;Node27 -->
<g id="edge34" class="edge"><title>Node21&#45;&gt;Node27</title>
<path fill="none" stroke="midnightblue" d="M289.952,-367.906C296.473,-358.907 306.502,-345.067 315.239,-333.01"/>
<polygon fill="midnightblue" stroke="midnightblue" points="318.271,-334.791 321.305,-324.639 312.603,-330.683 318.271,-334.791"/>
</g>
<!-- Node22&#45;&gt;Node2 -->
<g id="edge26" class="edge"><title>Node22&#45;&gt;Node2</title>
<path fill="none" stroke="midnightblue" d="M205.652,-318.013C204.565,-347.77 201.211,-439.515 199.723,-480.21"/>
<polygon fill="midnightblue" stroke="midnightblue" points="196.224,-480.119 199.357,-490.24 203.22,-480.375 196.224,-480.119"/>
</g>
<!-- Node22&#45;&gt;Node4 -->
<g id="edge32" class="edge"><title>Node22&#45;&gt;Node4</title>
<path fill="none" stroke="midnightblue" d="M244.803,-318.009C275.128,-326.485 317.592,-340.707 351,-361 370.624,-372.92 371.255,-381.429 389,-396 402.054,-406.719 417.343,-417.913 429.59,-426.574"/>
<polygon fill="midnightblue" stroke="midnightblue" points="427.696,-429.52 437.894,-432.39 431.711,-423.787 427.696,-429.52"/>
</g>
<!-- Node22&#45;&gt;Node5 -->
<g id="edge27" class="edge"><title>Node22&#45;&gt;Node5</title>
<path fill="none" stroke="midnightblue" d="M209.671,-296.862C216.122,-281.145 230.935,-249.951 253,-232 272.411,-216.209 297.787,-205.502 320.446,-198.424"/>
<polygon fill="midnightblue" stroke="midnightblue" points="321.698,-201.703 330.298,-195.515 319.716,-194.99 321.698,-201.703"/>
</g>
<!-- Node23 -->
<g id="node24" class="node"><title>Node23</title>
<g id="a_node24"><a xlink:href="_board_8h.html" target="_top" xlink:title="../../board/Board.h">
<polygon fill="white" stroke="black" points="262,-232.5 262,-253.5 372,-253.5 372,-232.5 262,-232.5"/>
<text text-anchor="middle" x="317" y="-239.9" font-family="Helvetica,sans-Serif" font-size="12.00">../../board/Board.h</text>
</a>
</g>
</g>
<!-- Node22&#45;&gt;Node23 -->
<g id="edge25" class="edge"><title>Node22&#45;&gt;Node23</title>
<path fill="none" stroke="midnightblue" d="M223.344,-296.734C241.427,-286.552 269.986,-270.472 290.816,-258.743"/>
<polygon fill="midnightblue" stroke="midnightblue" points="292.782,-261.653 299.778,-253.697 289.347,-255.554 292.782,-261.653"/>
</g>
<!-- Node24 -->
<g id="node25" class="node"><title>Node24</title>
<g id="a_node25"><a xlink:href="interface_2analog_2_data_types_8h.html" target="_top" xlink:title="DataTypes.h">
<polygon fill="white" stroke="black" points="84.5,-232.5 84.5,-253.5 167.5,-253.5 167.5,-232.5 84.5,-232.5"/>
<text text-anchor="middle" x="126" y="-239.9" font-family="Helvetica,sans-Serif" font-size="12.00">DataTypes.h</text>
</a>
</g>
</g>
<!-- Node22&#45;&gt;Node24 -->
<g id="edge28" class="edge"><title>Node22&#45;&gt;Node24</title>
<path fill="none" stroke="midnightblue" d="M193.5,-296.734C180.936,-286.919 161.358,-271.623 146.515,-260.027"/>
<polygon fill="midnightblue" stroke="midnightblue" points="148.447,-257.095 138.412,-253.697 144.138,-262.612 148.447,-257.095"/>
</g>
<!-- Node25 -->
<g id="node26" class="node"><title>Node25</title>
<g id="a_node26"><a xlink:href="interface_2analog_2_config_8h.html" target="_top" xlink:title="Config.h">
<polygon fill="white" stroke="black" points="85,-174.5 85,-195.5 145,-195.5 145,-174.5 85,-174.5"/>
<text text-anchor="middle" x="115" y="-181.9" font-family="Helvetica,sans-Serif" font-size="12.00">Config.h</text>
</a>
</g>
</g>
<!-- Node22&#45;&gt;Node25 -->
<g id="edge29" class="edge"><title>Node22&#45;&gt;Node25</title>
<path fill="none" stroke="midnightblue" d="M203.918,-296.969C200.275,-281.943 191.603,-252.366 176,-232 166.615,-219.75 153.161,-209.134 141.276,-201.196"/>
<polygon fill="midnightblue" stroke="midnightblue" points="142.901,-198.082 132.585,-195.666 139.143,-203.988 142.901,-198.082"/>
</g>
<!-- Node26 -->
<g id="node27" class="node"><title>Node26</title>
<g id="a_node27"><a xlink:href="interface_2analog_2_helpers_8h.html" target="_top" xlink:title="Helpers.h">
<polygon fill="white" stroke="black" points="0,-232.5 0,-253.5 66,-253.5 66,-232.5 0,-232.5"/>
<text text-anchor="middle" x="33" y="-239.9" font-family="Helvetica,sans-Serif" font-size="12.00">Helpers.h</text>
</a>
</g>
</g>
<!-- Node22&#45;&gt;Node26 -->
<g id="edge30" class="edge"><title>Node22&#45;&gt;Node26</title>
<path fill="none" stroke="midnightblue" d="M179.348,-296.871C149.8,-286.196 101.977,-268.92 69.089,-257.038"/>
<polygon fill="midnightblue" stroke="midnightblue" points="69.9928,-253.643 59.3985,-253.537 67.6143,-260.227 69.9928,-253.643"/>
</g>
<!-- Node26&#45;&gt;Node25 -->
<g id="edge31" class="edge"><title>Node26&#45;&gt;Node25</title>
<path fill="none" stroke="midnightblue" d="M47.2833,-232.246C59.747,-223.734 78.0451,-211.237 92.4792,-201.38"/>
<polygon fill="midnightblue" stroke="midnightblue" points="94.5962,-204.173 100.88,-195.643 90.6485,-198.392 94.5962,-204.173"/>
</g>
<!-- Node27&#45;&gt;Node23 -->
<g id="edge39" class="edge"><title>Node27&#45;&gt;Node23</title>
<path fill="none" stroke="midnightblue" d="M328.88,-290.405C326.796,-282.267 324.25,-272.32 322.05,-263.725"/>
<polygon fill="midnightblue" stroke="midnightblue" points="325.38,-262.62 319.509,-253.8 318.598,-264.356 325.38,-262.62"/>
</g>
<!-- Node28 -->
<g id="node29" class="node"><title>Node28</title>
<g id="a_node29"><a xlink:href="interface_2digital_2output_2leds_2_data_types_8h.html" target="_top" xlink:title="DataTypes.h">
<polygon fill="white" stroke="black" points="518.5,-116.5 518.5,-137.5 601.5,-137.5 601.5,-116.5 518.5,-116.5"/>
<text text-anchor="middle" x="560" y="-123.9" font-family="Helvetica,sans-Serif" font-size="12.00">DataTypes.h</text>
</a>
</g>
</g>
<!-- Node27&#45;&gt;Node28 -->
<g id="edge35" class="edge"><title>Node27&#45;&gt;Node28</title>
<path fill="none" stroke="midnightblue" d="M386.651,-290.812C421.286,-279.961 462.492,-265.469 477,-254 513.989,-224.758 539.997,-174.343 552.178,-146.988"/>
<polygon fill="midnightblue" stroke="midnightblue" points="555.427,-148.294 556.164,-137.725 548.997,-145.527 555.427,-148.294"/>
</g>
<!-- Node29 -->
<g id="node30" class="node"><title>Node29</title>
<g id="a_node30"><a xlink:href="interface_2digital_2output_2leds_2_constants_8h.html" target="_top" xlink:title="Constants.h">
<polygon fill="white" stroke="black" points="390,-232.5 390,-253.5 468,-253.5 468,-232.5 390,-232.5"/>
<text text-anchor="middle" x="429" y="-239.9" font-family="Helvetica,sans-Serif" font-size="12.00">Constants.h</text>
</a>
</g>
</g>
<!-- Node27&#45;&gt;Node29 -->
<g id="edge37" class="edge"><title>Node27&#45;&gt;Node29</title>
<path fill="none" stroke="midnightblue" d="M357.722,-290.405C372.536,-280.76 391.254,-268.574 405.79,-259.111"/>
<polygon fill="midnightblue" stroke="midnightblue" points="407.758,-262.006 414.228,-253.617 403.938,-256.14 407.758,-262.006"/>
</g>
<!-- Node28&#45;&gt;Node8 -->
<g id="edge36" class="edge"><title>Node28&#45;&gt;Node8</title>
<path fill="none" stroke="midnightblue" d="M586.386,-116.492C603.461,-109.051 624.876,-97.0779 638,-80 648.713,-66.0587 653.386,-46.3922 655.424,-31.793"/>
<polygon fill="midnightblue" stroke="midnightblue" points="658.909,-32.1184 656.525,-21.7953 651.951,-31.3519 658.909,-32.1184"/>
</g>
<!-- Node29&#45;&gt;Node5 -->
<g id="edge38" class="edge"><title>Node29&#45;&gt;Node5</title>
<path fill="none" stroke="midnightblue" d="M419.768,-232.246C412.168,-224.216 401.212,-212.639 392.163,-203.078"/>
<polygon fill="midnightblue" stroke="midnightblue" points="394.542,-200.5 385.126,-195.643 389.458,-205.311 394.542,-200.5"/>
</g>
<!-- Node31 -->
<g id="node32" class="node"><title>Node31</title>
<g id="a_node32"><a xlink:href="midi_2src_2_data_types_8h.html" target="_top" xlink:title="DataTypes.h">
<polygon fill="white" stroke="black" points="757.5,-297 757.5,-318 840.5,-318 840.5,-297 757.5,-297"/>
<text text-anchor="middle" x="799" y="-304.4" font-family="Helvetica,sans-Serif" font-size="12.00">DataTypes.h</text>
</a>
</g>
</g>
<!-- Node30&#45;&gt;Node31 -->
<g id="edge41" class="edge"><title>Node30&#45;&gt;Node31</title>
<path fill="none" stroke="midnightblue" d="M745.621,-367.906C755.43,-356.989 771.641,-338.948 783.629,-325.607"/>
<polygon fill="midnightblue" stroke="midnightblue" points="786.372,-327.79 790.452,-318.013 781.165,-323.112 786.372,-327.79"/>
</g>
<!-- Node32 -->
<g id="node33" class="node"><title>Node32</title>
<g id="a_node33"><a xlink:href="midi_2src_2_helpers_8h.html" target="_top" xlink:title="Helpers.h">
<polygon fill="white" stroke="black" points="699,-232.5 699,-253.5 765,-253.5 765,-232.5 699,-232.5"/>
<text text-anchor="middle" x="732" y="-239.9" font-family="Helvetica,sans-Serif" font-size="12.00">Helpers.h</text>
</a>
</g>
</g>
<!-- Node30&#45;&gt;Node32 -->
<g id="edge45" class="edge"><title>Node30&#45;&gt;Node32</title>
<path fill="none" stroke="midnightblue" d="M736.64,-367.899C735.826,-346.154 733.827,-292.778 732.737,-263.685"/>
<polygon fill="midnightblue" stroke="midnightblue" points="736.228,-263.376 732.356,-253.514 729.233,-263.638 736.228,-263.376"/>
</g>
<!-- Node31&#45;&gt;Node32 -->
<g id="edge42" class="edge"><title>Node31&#45;&gt;Node32</title>
<path fill="none" stroke="midnightblue" d="M788.531,-296.734C778.266,-287.159 762.41,-272.367 750.099,-260.884"/>
<polygon fill="midnightblue" stroke="midnightblue" points="752.316,-258.165 742.616,-253.903 747.541,-263.284 752.316,-258.165"/>
</g>
<!-- Node32&#45;&gt;Node8 -->
<g id="edge44" class="edge"><title>Node32&#45;&gt;Node8</title>
<path fill="none" stroke="midnightblue" d="M727.929,-232.207C724.137,-222.946 718.42,-208.627 714,-196 693.254,-136.73 672.276,-65.4148 662.567,-31.6118"/>
<polygon fill="midnightblue" stroke="midnightblue" points="665.836,-30.3117 659.723,-21.6579 659.105,-32.2347 665.836,-30.3117"/>
</g>
<!-- Node33 -->
<g id="node34" class="node"><title>Node33</title>
<polygon fill="white" stroke="#bfbfbf" points="723,-174.5 723,-195.5 781,-195.5 781,-174.5 723,-174.5"/>
<text text-anchor="middle" x="752" y="-181.9" font-family="Helvetica,sans-Serif" font-size="12.00">stddef.h</text>
</g>
<!-- Node32&#45;&gt;Node33 -->
<g id="edge43" class="edge"><title>Node32&#45;&gt;Node33</title>
<path fill="none" stroke="midnightblue" d="M735.484,-232.246C738.151,-224.778 741.913,-214.243 745.174,-205.114"/>
<polygon fill="midnightblue" stroke="midnightblue" points="748.489,-206.237 748.556,-195.643 741.897,-203.883 748.489,-206.237"/>
</g>
<!-- Node34&#45;&gt;Node4 -->
<g id="edge48" class="edge"><title>Node34&#45;&gt;Node4</title>
<path fill="none" stroke="midnightblue" d="M452,-490.246C452,-482.938 452,-472.694 452,-463.705"/>
<polygon fill="midnightblue" stroke="midnightblue" points="455.5,-463.643 452,-453.643 448.5,-463.643 455.5,-463.643"/>
</g>
<!-- Node35 -->
<g id="node36" class="node"><title>Node35</title>
<g id="a_node36"><a xlink:href="interface_2digital_2input_2encoders_2_data_types_8h.html" target="_top" xlink:title="DataTypes.h">
<polygon fill="white" stroke="black" points="529.5,-432.5 529.5,-453.5 612.5,-453.5 612.5,-432.5 529.5,-432.5"/>
<text text-anchor="middle" x="571" y="-439.9" font-family="Helvetica,sans-Serif" font-size="12.00">DataTypes.h</text>
</a>
</g>
</g>
<!-- Node34&#45;&gt;Node35 -->
<g id="edge47" class="edge"><title>Node34&#45;&gt;Node35</title>
<path fill="none" stroke="midnightblue" d="M472.457,-490.373C491.474,-481.424 520.018,-467.992 541.498,-457.883"/>
<polygon fill="midnightblue" stroke="midnightblue" points="543.252,-460.926 550.81,-453.501 540.272,-454.592 543.252,-460.926"/>
</g>
</g>
</svg>
