<?xml version="1.0" encoding="UTF-8" standalone="no"?>
<!DOCTYPE svg PUBLIC "-//W3C//DTD SVG 1.1//EN"
 "http://www.w3.org/Graphics/SVG/1.1/DTD/svg11.dtd">
<!-- Generated by graphviz version 2.38.0 (20140413.2041)
 -->
<!-- Title: interface/Export.h Pages: 1 -->
<svg width="163pt" height="146pt"
 viewBox="0.00 0.00 163.00 146.00" xmlns="http://www.w3.org/2000/svg" xmlns:xlink="http://www.w3.org/1999/xlink">
<g id="graph0" class="graph" transform="scale(1 1) rotate(0) translate(4 142)">
<title>interface/Export.h</title>
<polygon fill="white" stroke="none" points="-4,4 -4,-142 159,-142 159,4 -4,4"/>
<!-- Node20 -->
<g id="node1" class="node"><title>Node20</title>
<polygon fill="#bfbfbf" stroke="black" points="24,-116.5 24,-137.5 131,-137.5 131,-116.5 24,-116.5"/>
<text text-anchor="middle" x="77.5" y="-123.9" font-family="Helvetica,sans-Serif" font-size="12.00">interface/Export.h</text>
</g>
<!-- Node21 -->
<g id="node2" class="node"><title>Node21</title>
<g id="a_node2"><a xlink:href="_import_8h.html" target="_top" xlink:title="board/common/Import.h">
<polygon fill="white" stroke="black" points="7.5,-58.5 7.5,-79.5 147.5,-79.5 147.5,-58.5 7.5,-58.5"/>
<text text-anchor="middle" x="77.5" y="-65.9" font-family="Helvetica,sans-Serif" font-size="12.00">board/common/Import.h</text>
</a>
</g>
</g>
<!-- Node20&#45;&gt;Node21 -->
<g id="edge1" class="edge"><title>Node20&#45;&gt;Node21</title>
<path fill="none" stroke="midnightblue" d="M77.5,-106.158C77.5,-97.155 77.5,-86.9199 77.5,-79.6427"/>
<polygon fill="midnightblue" stroke="midnightblue" points="74.0001,-106.246 77.5,-116.246 81.0001,-106.246 74.0001,-106.246"/>
</g>
<!-- Node22 -->
<g id="node3" class="node"><title>Node22</title>
<g id="a_node3"><a xlink:href="board_2common_2_common_8h.html" target="_top" xlink:title="board/common/Common.h">
<polygon fill="white" stroke="black" points="0,-0.5 0,-21.5 155,-21.5 155,-0.5 0,-0.5"/>
<text text-anchor="middle" x="77.5" y="-7.9" font-family="Helvetica,sans-Serif" font-size="12.00">board/common/Common.h</text>
</a>
</g>
</g>
<!-- Node21&#45;&gt;Node22 -->
<g id="edge2" class="edge"><title>Node21&#45;&gt;Node22</title>
<path fill="none" stroke="midnightblue" d="M77.5,-48.1575C77.5,-39.155 77.5,-28.9199 77.5,-21.6427"/>
<polygon fill="midnightblue" stroke="midnightblue" points="74.0001,-48.2455 77.5,-58.2455 81.0001,-48.2456 74.0001,-48.2455"/>
</g>
</g>
</svg>
