<?xml version="1.0" encoding="UTF-8" standalone="no"?>
<!DOCTYPE svg PUBLIC "-//W3C//DTD SVG 1.1//EN"
 "http://www.w3.org/Graphics/SVG/1.1/DTD/svg11.dtd">
<!-- Generated by graphviz version 2.38.0 (20140413.2041)
 -->
<!-- Title: interface/analog/FSR.cpp Pages: 1 -->
<!--zoomable 649 -->
<svg id="main" version="1.1" xmlns="http://www.w3.org/2000/svg" xmlns:xlink="http://www.w3.org/1999/xlink" xml:space="preserve" onload="init(evt)">
<style type="text/css"><![CDATA[
.edge:hover path { stroke: red; }
.edge:hover polygon { stroke: red; fill: red; }
]]></style>
<script type="text/javascript"><![CDATA[
var edges = document.getElementsByTagName('g');
if (edges && edges.length) {
  for (var i=0;i<edges.length;i++) {
    if (edges[i].id.substr(0,4)=='edge') {
      edges[i].setAttribute('class','edge');
    }
  }
}
]]></script>
        <defs>
                <circle id="rim" cx="0" cy="0" r="7"/>
                <circle id="rim2" cx="0" cy="0" r="3.5"/>
                <g id="zoomPlus">
                        <use xlink:href="#rim" fill="#404040">
                                <set attributeName="fill" to="#808080" begin="zoomplus.mouseover" end="zoomplus.mouseout"/>
                        </use>
                        <path d="M-4,0h8M0,-4v8" fill="none" stroke="white" stroke-width="1.5" pointer-events="none"/>
                </g>
                <g id="zoomMin">
                        <use xlink:href="#rim" fill="#404040">
                                <set attributeName="fill" to="#808080" begin="zoomminus.mouseover" end="zoomminus.mouseout"/>
                        </use>
                        <path d="M-4,0h8" fill="none" stroke="white" stroke-width="1.5" pointer-events="none"/>
                </g>
                <g id="dirArrow">
                        <path fill="none" stroke="white" stroke-width="1.5" d="M0,-3.0v7 M-2.5,-0.5L0,-3.0L2.5,-0.5"/>
                </g>
               <g id="resetDef">
                       <use xlink:href="#rim2" fill="#404040">
                               <set attributeName="fill" to="#808080" begin="reset.mouseover" end="reset.mouseout"/>
                       </use>
               </g>
        </defs>

<script type="text/javascript">
var viewWidth = 938;
var viewHeight = 649;
var sectionId = 'dynsection-0';
</script>
<script xlink:href="svgpan.js"/>
<svg id="graph" class="graph">
<g id="viewport">
<title>interface/analog/FSR.cpp</title>
<polygon fill="white" stroke="none" points="-4,4 -4,-645 934,-645 934,4 -4,4"/>
<!-- Node0 -->
<g id="node1" class="node"><title>Node0</title>
<polygon fill="#bfbfbf" stroke="black" points="361,-619.5 361,-640.5 510,-640.5 510,-619.5 361,-619.5"/>
<text text-anchor="middle" x="435.5" y="-626.9" font-family="Helvetica,sans-Serif" font-size="12.00">interface/analog/FSR.cpp</text>
</g>
<!-- Node1 -->
<g id="node2" class="node"><title>Node1</title>
<g id="a_node2"><a xlink:href="interface_2analog_2_analog_8h.html" target="_top" xlink:title="Analog.h">
<polygon fill="white" stroke="black" points="565.5,-561.5 565.5,-582.5 627.5,-582.5 627.5,-561.5 565.5,-561.5"/>
<text text-anchor="middle" x="596.5" y="-568.9" font-family="Helvetica,sans-Serif" font-size="12.00">Analog.h</text>
</a>
</g>
</g>
<!-- Node0&#45;&gt;Node1 -->
<g id="edge1" class="edge"><title>Node0&#45;&gt;Node1</title>
<path fill="none" stroke="midnightblue" d="M463.177,-619.373C489.833,-610.102 530.324,-596.018 559.688,-585.804"/>
<polygon fill="midnightblue" stroke="midnightblue" points="560.889,-589.092 569.184,-582.501 558.589,-582.481 560.889,-589.092"/>
</g>
<!-- Node5 -->
<g id="node6" class="node"><title>Node5</title>
<g id="a_node6"><a xlink:href="_open_deck_8h.html" target="_top" xlink:title="../../../../OpenDeck.h">
<polygon fill="white" stroke="black" points="251.5,-432.5 251.5,-453.5 369.5,-453.5 369.5,-432.5 251.5,-432.5"/>
<text text-anchor="middle" x="310.5" y="-439.9" font-family="Helvetica,sans-Serif" font-size="12.00">../../../../OpenDeck.h</text>
</a>
</g>
</g>
<!-- Node0&#45;&gt;Node5 -->
<g id="edge49" class="edge"><title>Node0&#45;&gt;Node5</title>
<path fill="none" stroke="midnightblue" d="M415.185,-619.364C385.696,-604.097 332.191,-571.264 310.5,-525 301.392,-505.573 303.141,-480.53 306.04,-463.466"/>
<polygon fill="midnightblue" stroke="midnightblue" points="309.496,-464.035 308.009,-453.545 302.63,-462.672 309.496,-464.035"/>
</g>
<!-- Node2 -->
<g id="node3" class="node"><title>Node2</title>
<g id="a_node3"><a xlink:href="_board_8h.html" target="_top" xlink:title="../../board/Board.h">
<polygon fill="white" stroke="black" points="656.5,-232.5 656.5,-253.5 766.5,-253.5 766.5,-232.5 656.5,-232.5"/>
<text text-anchor="middle" x="711.5" y="-239.9" font-family="Helvetica,sans-Serif" font-size="12.00">../../board/Board.h</text>
</a>
</g>
</g>
<!-- Node1&#45;&gt;Node2 -->
<g id="edge2" class="edge"><title>Node1&#45;&gt;Node2</title>
<path fill="none" stroke="midnightblue" d="M627.62,-565.459C653.755,-559.413 690.701,-547.442 715.5,-525 745.418,-497.926 756.5,-484.349 756.5,-444 756.5,-444 756.5,-444 756.5,-377.5 756.5,-337.608 750.6,-327.317 736.5,-290 732.898,-280.466 727.655,-270.46 722.9,-262.223"/>
<polygon fill="midnightblue" stroke="midnightblue" points="725.815,-260.278 717.67,-253.502 719.811,-263.878 725.815,-260.278"/>
</g>
<!-- Node3 -->
<g id="node4" class="node"><title>Node3</title>
<g id="a_node4"><a xlink:href="interface_2digital_2input_2buttons_2_buttons_8h.html" target="_top" xlink:title="../digital/input/buttons\l/Buttons.h">
<polygon fill="white" stroke="black" points="443,-490.5 443,-524.5 568,-524.5 568,-490.5 443,-490.5"/>
<text text-anchor="start" x="451" y="-510.9" font-family="Helvetica,sans-Serif" font-size="12.00">../digital/input/buttons</text>
<text text-anchor="middle" x="505.5" y="-497.9" font-family="Helvetica,sans-Serif" font-size="12.00">/Buttons.h</text>
</a>
</g>
</g>
<!-- Node1&#45;&gt;Node3 -->
<g id="edge3" class="edge"><title>Node1&#45;&gt;Node3</title>
<path fill="none" stroke="midnightblue" d="M582.281,-561.234C570.219,-552.95 552.471,-540.76 537.076,-530.187"/>
<polygon fill="midnightblue" stroke="midnightblue" points="539.041,-527.291 528.817,-524.514 535.078,-533.061 539.041,-527.291"/>
</g>
<!-- Node1&#45;&gt;Node5 -->
<g id="edge48" class="edge"><title>Node1&#45;&gt;Node5</title>
<path fill="none" stroke="midnightblue" d="M565.345,-569.665C503.048,-566.36 366.198,-555.711 332.5,-525 315.474,-509.483 311.086,-482.242 310.221,-463.674"/>
<polygon fill="midnightblue" stroke="midnightblue" points="313.72,-463.596 310.052,-453.657 306.721,-463.714 313.72,-463.596"/>
</g>
<!-- Node6 -->
<g id="node7" class="node"><title>Node6</title>
<g id="a_node7"><a xlink:href="database_2_database_8h.html" target="_top" xlink:title="database/Database.h">
<polygon fill="white" stroke="black" points="534.5,-174.5 534.5,-195.5 664.5,-195.5 664.5,-174.5 534.5,-174.5"/>
<text text-anchor="middle" x="599.5" y="-181.9" font-family="Helvetica,sans-Serif" font-size="12.00">database/Database.h</text>
</a>
</g>
</g>
<!-- Node1&#45;&gt;Node6 -->
<g id="edge43" class="edge"><title>Node1&#45;&gt;Node6</title>
<path fill="none" stroke="midnightblue" d="M627.734,-567.911C660.138,-563.316 710.829,-552.081 745.5,-525 778.659,-499.101 794.5,-486.075 794.5,-444 794.5,-444 794.5,-444 794.5,-306.5 794.5,-272.329 799.591,-256.234 775.5,-232 749.257,-205.601 709.871,-193.759 675.007,-188.667"/>
<polygon fill="midnightblue" stroke="midnightblue" points="675.199,-185.163 664.832,-187.349 674.299,-192.104 675.199,-185.163"/>
</g>
<!-- Node33 -->
<g id="node34" class="node"><title>Node33</title>
<g id="a_node34"><a xlink:href="interface_2analog_2_data_types_8h.html" target="_top" xlink:title="DataTypes.h">
<polygon fill="white" stroke="black" points="342,-497 342,-518 425,-518 425,-497 342,-497"/>
<text text-anchor="middle" x="383.5" y="-504.4" font-family="Helvetica,sans-Serif" font-size="12.00">DataTypes.h</text>
</a>
</g>
</g>
<!-- Node1&#45;&gt;Node33 -->
<g id="edge44" class="edge"><title>Node1&#45;&gt;Node33</title>
<path fill="none" stroke="midnightblue" d="M565.437,-562.668C532.553,-553.746 479.191,-538.979 433.5,-525 429.517,-523.782 425.369,-522.474 421.239,-521.148"/>
<polygon fill="midnightblue" stroke="midnightblue" points="422.317,-517.818 411.725,-518.053 420.152,-524.475 422.317,-517.818"/>
</g>
<!-- Node34 -->
<g id="node35" class="node"><title>Node34</title>
<g id="a_node35"><a xlink:href="interface_2analog_2_config_8h.html" target="_top" xlink:title="Config.h">
<polygon fill="white" stroke="black" points="627.5,-432.5 627.5,-453.5 687.5,-453.5 687.5,-432.5 627.5,-432.5"/>
<text text-anchor="middle" x="657.5" y="-439.9" font-family="Helvetica,sans-Serif" font-size="12.00">Config.h</text>
</a>
</g>
</g>
<!-- Node1&#45;&gt;Node34 -->
<g id="edge45" class="edge"><title>Node1&#45;&gt;Node34</title>
<path fill="none" stroke="midnightblue" d="M597.174,-561.474C598.618,-545.756 602.97,-513.765 615.5,-490 621.233,-479.126 630.156,-468.839 638.305,-460.762"/>
<polygon fill="midnightblue" stroke="midnightblue" points="640.872,-463.152 645.752,-453.748 636.073,-458.057 640.872,-463.152"/>
</g>
<!-- Node35 -->
<g id="node36" class="node"><title>Node35</title>
<g id="a_node36"><a xlink:href="interface_2analog_2_helpers_8h.html" target="_top" xlink:title="Helpers.h">
<polygon fill="white" stroke="black" points="624.5,-497 624.5,-518 690.5,-518 690.5,-497 624.5,-497"/>
<text text-anchor="middle" x="657.5" y="-504.4" font-family="Helvetica,sans-Serif" font-size="12.00">Helpers.h</text>
</a>
</g>
</g>
<!-- Node1&#45;&gt;Node35 -->
<g id="edge46" class="edge"><title>Node1&#45;&gt;Node35</title>
<path fill="none" stroke="midnightblue" d="M606.031,-561.234C615.288,-551.75 629.539,-537.149 640.7,-525.713"/>
<polygon fill="midnightblue" stroke="midnightblue" points="643.354,-528.004 647.834,-518.403 638.345,-523.115 643.354,-528.004"/>
</g>
<!-- Node4 -->
<g id="node5" class="node"><title>Node4</title>
<g id="a_node5"><a xlink:href="interface_2digital_2input_2buttons_2_data_types_8h.html" target="_top" xlink:title="DataTypes.h">
<polygon fill="white" stroke="black" points="526,-432.5 526,-453.5 609,-453.5 609,-432.5 526,-432.5"/>
<text text-anchor="middle" x="567.5" y="-439.9" font-family="Helvetica,sans-Serif" font-size="12.00">DataTypes.h</text>
</a>
</g>
</g>
<!-- Node3&#45;&gt;Node4 -->
<g id="edge4" class="edge"><title>Node3&#45;&gt;Node4</title>
<path fill="none" stroke="midnightblue" d="M521.467,-490.405C530.436,-481.363 541.622,-470.087 550.721,-460.915"/>
<polygon fill="midnightblue" stroke="midnightblue" points="553.221,-463.364 557.778,-453.8 548.251,-458.434 553.221,-463.364"/>
</g>
<!-- Node3&#45;&gt;Node5 -->
<g id="edge5" class="edge"><title>Node3&#45;&gt;Node5</title>
<path fill="none" stroke="midnightblue" d="M455.536,-490.486C422.789,-479.99 380.571,-466.459 350.137,-456.704"/>
<polygon fill="midnightblue" stroke="midnightblue" points="350.89,-453.27 340.299,-453.551 348.754,-459.936 350.89,-453.27"/>
</g>
<!-- Node5&#45;&gt;Node6 -->
<g id="edge6" class="edge"><title>Node5&#45;&gt;Node6</title>
<path fill="none" stroke="midnightblue" d="M335.24,-432.401C352.664,-424.66 375.624,-412.367 391.5,-396 428.598,-357.755 412.032,-329.761 447.5,-290 483.242,-249.932 537.495,-217.681 570.596,-200.232"/>
<polygon fill="midnightblue" stroke="midnightblue" points="572.466,-203.205 579.742,-195.504 569.252,-196.987 572.466,-203.205"/>
</g>
<!-- Node17 -->
<g id="node18" class="node"><title>Node17</title>
<g id="a_node18"><a xlink:href="_sys_ex_8h.html" target="_top" xlink:title="sysex/src/SysEx.h">
<polygon fill="white" stroke="black" points="252.5,-368 252.5,-389 362.5,-389 362.5,-368 252.5,-368"/>
<text text-anchor="middle" x="307.5" y="-375.4" font-family="Helvetica,sans-Serif" font-size="12.00">sysex/src/SysEx.h</text>
</a>
</g>
</g>
<!-- Node5&#45;&gt;Node17 -->
<g id="edge17" class="edge"><title>Node5&#45;&gt;Node17</title>
<path fill="none" stroke="midnightblue" d="M304.969,-432.234C302.868,-423.48 301.813,-410.365 302.117,-399.404"/>
<polygon fill="midnightblue" stroke="midnightblue" points="305.609,-399.642 302.887,-389.403 298.63,-399.105 305.609,-399.642"/>
</g>
<!-- Node20 -->
<g id="node21" class="node"><title>Node20</title>
<g id="a_node21"><a xlink:href="_version_8h.html" target="_top" xlink:title="versioning/src/avr\l/Version.h">
<polygon fill="white" stroke="black" points="2,-361.5 2,-395.5 109,-395.5 109,-361.5 2,-361.5"/>
<text text-anchor="start" x="10" y="-381.9" font-family="Helvetica,sans-Serif" font-size="12.00">versioning/src/avr</text>
<text text-anchor="middle" x="55.5" y="-368.9" font-family="Helvetica,sans-Serif" font-size="12.00">/Version.h</text>
</a>
</g>
</g>
<!-- Node5&#45;&gt;Node20 -->
<g id="edge22" class="edge"><title>Node5&#45;&gt;Node20</title>
<path fill="none" stroke="midnightblue" d="M271.493,-432.44C230.985,-422.511 166.959,-406.818 119.116,-395.092"/>
<polygon fill="midnightblue" stroke="midnightblue" points="119.713,-391.635 109.167,-392.654 118.046,-398.434 119.713,-391.635"/>
</g>
<!-- Node22 -->
<g id="node23" class="node"><title>Node22</title>
<g id="a_node23"><a xlink:href="_interface_8h.html" target="_top" xlink:title="interface/Interface.h">
<polygon fill="white" stroke="black" points="568.5,-368 568.5,-389 686.5,-389 686.5,-368 568.5,-368"/>
<text text-anchor="middle" x="627.5" y="-375.4" font-family="Helvetica,sans-Serif" font-size="12.00">interface/Interface.h</text>
</a>
</g>
</g>
<!-- Node5&#45;&gt;Node22 -->
<g id="edge24" class="edge"><title>Node5&#45;&gt;Node22</title>
<path fill="none" stroke="midnightblue" d="M358.991,-432.44C415.473,-421.303 508.733,-402.916 569.135,-391.007"/>
<polygon fill="midnightblue" stroke="midnightblue" points="570.141,-394.376 579.275,-389.008 568.787,-387.509 570.141,-394.376"/>
</g>
<!-- Node29 -->
<g id="node30" class="node"><title>Node29</title>
<g id="a_node30"><a xlink:href="midi_2src_2_m_i_d_i_8h.html" target="_top" xlink:title="midi/src/MIDI.h">
<polygon fill="white" stroke="black" points="141,-368 141,-389 234,-389 234,-368 141,-368"/>
<text text-anchor="middle" x="187.5" y="-375.4" font-family="Helvetica,sans-Serif" font-size="12.00">midi/src/MIDI.h</text>
</a>
</g>
</g>
<!-- Node5&#45;&gt;Node29 -->
<g id="edge37" class="edge"><title>Node5&#45;&gt;Node29</title>
<path fill="none" stroke="midnightblue" d="M291.551,-432.371C271.177,-422.019 238.582,-405.456 215.304,-393.628"/>
<polygon fill="midnightblue" stroke="midnightblue" points="216.77,-390.447 206.269,-389.037 213.598,-396.687 216.77,-390.447"/>
</g>
<!-- Node7 -->
<g id="node8" class="node"><title>Node7</title>
<g id="a_node8"><a xlink:href="_d_b_m_s_8h.html" target="_top" xlink:title="../dbms/src/DBMS.h">
<polygon fill="white" stroke="black" points="485,-116.5 485,-137.5 606,-137.5 606,-116.5 485,-116.5"/>
<text text-anchor="middle" x="545.5" y="-123.9" font-family="Helvetica,sans-Serif" font-size="12.00">../dbms/src/DBMS.h</text>
</a>
</g>
</g>
<!-- Node6&#45;&gt;Node7 -->
<g id="edge7" class="edge"><title>Node6&#45;&gt;Node7</title>
<path fill="none" stroke="midnightblue" d="M590.094,-174.246C582.351,-166.216 571.188,-154.639 561.968,-145.078"/>
<polygon fill="midnightblue" stroke="midnightblue" points="564.259,-142.412 554.798,-137.643 559.22,-147.271 564.259,-142.412"/>
</g>
<!-- Node10 -->
<g id="node11" class="node"><title>Node10</title>
<g id="a_node11"><a xlink:href="database_2blocks_2_blocks_8h.html" target="_top" xlink:title="blocks/Blocks.h">
<polygon fill="white" stroke="black" points="633.5,-116.5 633.5,-137.5 731.5,-137.5 731.5,-116.5 633.5,-116.5"/>
<text text-anchor="middle" x="682.5" y="-123.9" font-family="Helvetica,sans-Serif" font-size="12.00">blocks/Blocks.h</text>
</a>
</g>
</g>
<!-- Node6&#45;&gt;Node10 -->
<g id="edge10" class="edge"><title>Node6&#45;&gt;Node10</title>
<path fill="none" stroke="midnightblue" d="M613.957,-174.246C626.573,-165.734 645.094,-153.237 659.705,-143.38"/>
<polygon fill="midnightblue" stroke="midnightblue" points="661.876,-146.137 668.208,-137.643 657.961,-140.334 661.876,-146.137"/>
</g>
<!-- Node8 -->
<g id="node9" class="node"><title>Node8</title>
<g id="a_node9"><a xlink:href="dbms_2src_2_data_types_8h.html" target="_top" xlink:title="DataTypes.h">
<polygon fill="white" stroke="black" points="393,-58.5 393,-79.5 476,-79.5 476,-58.5 393,-58.5"/>
<text text-anchor="middle" x="434.5" y="-65.9" font-family="Helvetica,sans-Serif" font-size="12.00">DataTypes.h</text>
</a>
</g>
</g>
<!-- Node7&#45;&gt;Node8 -->
<g id="edge8" class="edge"><title>Node7&#45;&gt;Node8</title>
<path fill="none" stroke="midnightblue" d="M526.418,-116.373C508.76,-107.464 482.295,-94.1127 462.29,-84.0203"/>
<polygon fill="midnightblue" stroke="midnightblue" points="463.837,-80.8806 453.333,-79.5011 460.684,-87.1303 463.837,-80.8806"/>
</g>
<!-- Node9 -->
<g id="node10" class="node"><title>Node9</title>
<polygon fill="white" stroke="#bfbfbf" points="332,-0.5 332,-21.5 397,-21.5 397,-0.5 332,-0.5"/>
<text text-anchor="middle" x="364.5" y="-7.9" font-family="Helvetica,sans-Serif" font-size="12.00">inttypes.h</text>
</g>
<!-- Node8&#45;&gt;Node9 -->
<g id="edge9" class="edge"><title>Node8&#45;&gt;Node9</title>
<path fill="none" stroke="midnightblue" d="M422.307,-58.2455C411.868,-49.8943 396.635,-37.7076 384.426,-27.9408"/>
<polygon fill="midnightblue" stroke="midnightblue" points="386.548,-25.1566 376.553,-21.6427 382.176,-30.6227 386.548,-25.1566"/>
</g>
<!-- Node11 -->
<g id="node12" class="node"><title>Node11</title>
<g id="a_node12"><a xlink:href="database_2blocks_2_m_i_d_i_8h.html" target="_top" xlink:title="MIDI.h">
<polygon fill="white" stroke="black" points="494,-58.5 494,-79.5 543,-79.5 543,-58.5 494,-58.5"/>
<text text-anchor="middle" x="518.5" y="-65.9" font-family="Helvetica,sans-Serif" font-size="12.00">MIDI.h</text>
</a>
</g>
</g>
<!-- Node10&#45;&gt;Node11 -->
<g id="edge11" class="edge"><title>Node10&#45;&gt;Node11</title>
<path fill="none" stroke="midnightblue" d="M654.307,-116.373C626.167,-106.764 582.891,-91.9872 552.781,-81.7056"/>
<polygon fill="midnightblue" stroke="midnightblue" points="553.709,-78.3243 543.115,-78.4051 551.447,-84.9488 553.709,-78.3243"/>
</g>
<!-- Node12 -->
<g id="node13" class="node"><title>Node12</title>
<g id="a_node13"><a xlink:href="database_2blocks_2_buttons_8h.html" target="_top" xlink:title="Buttons.h">
<polygon fill="white" stroke="black" points="561,-58.5 561,-79.5 626,-79.5 626,-58.5 561,-58.5"/>
<text text-anchor="middle" x="593.5" y="-65.9" font-family="Helvetica,sans-Serif" font-size="12.00">Buttons.h</text>
</a>
</g>
</g>
<!-- Node10&#45;&gt;Node12 -->
<g id="edge12" class="edge"><title>Node10&#45;&gt;Node12</title>
<path fill="none" stroke="midnightblue" d="M666.997,-116.246C653.342,-107.653 633.234,-95.0014 617.501,-85.1018"/>
<polygon fill="midnightblue" stroke="midnightblue" points="619.153,-82.006 608.825,-79.6427 615.425,-87.9307 619.153,-82.006"/>
</g>
<!-- Node13 -->
<g id="node14" class="node"><title>Node13</title>
<g id="a_node14"><a xlink:href="database_2blocks_2_encoders_8h.html" target="_top" xlink:title="Encoders.h">
<polygon fill="white" stroke="black" points="644.5,-58.5 644.5,-79.5 720.5,-79.5 720.5,-58.5 644.5,-58.5"/>
<text text-anchor="middle" x="682.5" y="-65.9" font-family="Helvetica,sans-Serif" font-size="12.00">Encoders.h</text>
</a>
</g>
</g>
<!-- Node10&#45;&gt;Node13 -->
<g id="edge13" class="edge"><title>Node10&#45;&gt;Node13</title>
<path fill="none" stroke="midnightblue" d="M682.5,-116.246C682.5,-108.938 682.5,-98.6944 682.5,-89.7046"/>
<polygon fill="midnightblue" stroke="midnightblue" points="686,-89.6426 682.5,-79.6427 679,-89.6427 686,-89.6426"/>
</g>
<!-- Node14 -->
<g id="node15" class="node"><title>Node14</title>
<g id="a_node15"><a xlink:href="database_2blocks_2_analog_8h.html" target="_top" xlink:title="Analog.h">
<polygon fill="white" stroke="black" points="738.5,-58.5 738.5,-79.5 800.5,-79.5 800.5,-58.5 738.5,-58.5"/>
<text text-anchor="middle" x="769.5" y="-65.9" font-family="Helvetica,sans-Serif" font-size="12.00">Analog.h</text>
</a>
</g>
</g>
<!-- Node10&#45;&gt;Node14 -->
<g id="edge14" class="edge"><title>Node10&#45;&gt;Node14</title>
<path fill="none" stroke="midnightblue" d="M697.654,-116.246C711.003,-107.653 730.659,-95.0014 746.038,-85.1018"/>
<polygon fill="midnightblue" stroke="midnightblue" points="748.005,-87.9982 754.519,-79.6427 744.216,-82.1121 748.005,-87.9982"/>
</g>
<!-- Node15 -->
<g id="node16" class="node"><title>Node15</title>
<g id="a_node16"><a xlink:href="database_2blocks_2_l_e_ds_8h.html" target="_top" xlink:title="LEDs.h">
<polygon fill="white" stroke="black" points="818.5,-58.5 818.5,-79.5 874.5,-79.5 874.5,-58.5 818.5,-58.5"/>
<text text-anchor="middle" x="846.5" y="-65.9" font-family="Helvetica,sans-Serif" font-size="12.00">LEDs.h</text>
</a>
</g>
</g>
<!-- Node10&#45;&gt;Node15 -->
<g id="edge15" class="edge"><title>Node10&#45;&gt;Node15</title>
<path fill="none" stroke="midnightblue" d="M710.693,-116.373C737.845,-107.102 779.091,-93.0178 809.002,-82.804"/>
<polygon fill="midnightblue" stroke="midnightblue" points="810.343,-86.0449 818.675,-79.5011 808.081,-79.4204 810.343,-86.0449"/>
</g>
<!-- Node16 -->
<g id="node17" class="node"><title>Node16</title>
<g id="a_node17"><a xlink:href="database_2blocks_2_i_d_8h.html" target="_top" xlink:title="ID.h">
<polygon fill="white" stroke="black" points="893,-58.5 893,-79.5 930,-79.5 930,-58.5 893,-58.5"/>
<text text-anchor="middle" x="911.5" y="-65.9" font-family="Helvetica,sans-Serif" font-size="12.00">ID.h</text>
</a>
</g>
</g>
<!-- Node10&#45;&gt;Node16 -->
<g id="edge16" class="edge"><title>Node10&#45;&gt;Node16</title>
<path fill="none" stroke="midnightblue" d="M731.655,-116.442C770.368,-108.534 825.825,-96.3676 882.989,-79.8837"/>
<polygon fill="midnightblue" stroke="midnightblue" points="884.308,-83.1447 892.924,-76.9795 882.344,-76.4259 884.308,-83.1447"/>
</g>
<!-- Node17&#45;&gt;Node5 -->
<g id="edge19" class="edge"><title>Node17&#45;&gt;Node5</title>
<path fill="none" stroke="midnightblue" d="M313.064,-389.403C315.133,-398.112 316.175,-411.057 315.887,-421.925"/>
<polygon fill="midnightblue" stroke="midnightblue" points="312.372,-421.995 315.094,-432.234 319.351,-422.532 312.372,-421.995"/>
</g>
<!-- Node18 -->
<g id="node19" class="node"><title>Node18</title>
<g id="a_node19"><a xlink:href="sysex_2src_2_config_8h.html" target="_top" xlink:title="Config.h">
<polygon fill="white" stroke="black" points="234.5,-232.5 234.5,-253.5 294.5,-253.5 294.5,-232.5 234.5,-232.5"/>
<text text-anchor="middle" x="264.5" y="-239.9" font-family="Helvetica,sans-Serif" font-size="12.00">Config.h</text>
</a>
</g>
</g>
<!-- Node17&#45;&gt;Node18 -->
<g id="edge18" class="edge"><title>Node17&#45;&gt;Node18</title>
<path fill="none" stroke="midnightblue" d="M297.694,-367.667C288.566,-357.811 275.497,-341.735 269.5,-325 262.394,-305.171 261.883,-280.878 262.687,-264.097"/>
<polygon fill="midnightblue" stroke="midnightblue" points="266.199,-264.042 263.389,-253.826 259.215,-263.564 266.199,-264.042"/>
</g>
<!-- Node19 -->
<g id="node20" class="node"><title>Node19</title>
<g id="a_node20"><a xlink:href="sysex_2src_2_data_types_8h.html" target="_top" xlink:title="DataTypes.h">
<polygon fill="white" stroke="black" points="279,-297 279,-318 362,-318 362,-297 279,-297"/>
<text text-anchor="middle" x="320.5" y="-304.4" font-family="Helvetica,sans-Serif" font-size="12.00">DataTypes.h</text>
</a>
</g>
</g>
<!-- Node17&#45;&gt;Node19 -->
<g id="edge20" class="edge"><title>Node17&#45;&gt;Node19</title>
<path fill="none" stroke="midnightblue" d="M309.308,-367.906C311.248,-357.607 314.383,-340.968 316.842,-327.915"/>
<polygon fill="midnightblue" stroke="midnightblue" points="320.296,-328.488 318.708,-318.013 313.417,-327.192 320.296,-328.488"/>
</g>
<!-- Node19&#45;&gt;Node18 -->
<g id="edge21" class="edge"><title>Node19&#45;&gt;Node18</title>
<path fill="none" stroke="midnightblue" d="M311.75,-296.734C303.334,-287.341 290.42,-272.929 280.219,-261.544"/>
<polygon fill="midnightblue" stroke="midnightblue" points="282.653,-259.015 273.373,-253.903 277.44,-263.687 282.653,-259.015"/>
</g>
<!-- Node21 -->
<g id="node22" class="node"><title>Node21</title>
<g id="a_node22"><a xlink:href="versioning_2src_2avr_2_data_types_8h.html" target="_top" xlink:title="DataTypes.h">
<polygon fill="white" stroke="black" points="0,-297 0,-318 83,-318 83,-297 0,-297"/>
<text text-anchor="middle" x="41.5" y="-304.4" font-family="Helvetica,sans-Serif" font-size="12.00">DataTypes.h</text>
</a>
</g>
</g>
<!-- Node20&#45;&gt;Node21 -->
<g id="edge23" class="edge"><title>Node20&#45;&gt;Node21</title>
<path fill="none" stroke="midnightblue" d="M52.2529,-361.497C50.2386,-351.569 47.6355,-338.739 45.4952,-328.19"/>
<polygon fill="midnightblue" stroke="midnightblue" points="48.8948,-327.344 43.4762,-318.24 42.0346,-328.736 48.8948,-327.344"/>
</g>
<!-- Node22&#45;&gt;Node1 -->
<g id="edge25" class="edge"><title>Node22&#45;&gt;Node1</title>
<path fill="none" stroke="midnightblue" d="M648.424,-389.13C664.658,-397.833 686.094,-412.302 696.5,-432 702.321,-443.019 705.903,-515.128 699.5,-525 685.823,-546.088 659.971,-557.593 637.589,-563.824"/>
<polygon fill="midnightblue" stroke="midnightblue" points="636.453,-560.5 627.607,-566.331 638.158,-567.29 636.453,-560.5"/>
</g>
<!-- Node23 -->
<g id="node24" class="node"><title>Node23</title>
<g id="a_node24"><a xlink:href="_digital_input_8h.html" target="_top" xlink:title="digital/input/DigitalInput.h">
<polygon fill="white" stroke="black" points="456.5,-297 456.5,-318 602.5,-318 602.5,-297 456.5,-297"/>
<text text-anchor="middle" x="529.5" y="-304.4" font-family="Helvetica,sans-Serif" font-size="12.00">digital/input/DigitalInput.h</text>
</a>
</g>
</g>
<!-- Node22&#45;&gt;Node23 -->
<g id="edge26" class="edge"><title>Node22&#45;&gt;Node23</title>
<path fill="none" stroke="midnightblue" d="M613.874,-367.906C597.71,-356.526 570.551,-337.403 551.42,-323.934"/>
<polygon fill="midnightblue" stroke="midnightblue" points="553.202,-320.908 543.011,-318.013 549.172,-326.632 553.202,-320.908"/>
</g>
<!-- Node26 -->
<g id="node27" class="node"><title>Node26</title>
<g id="a_node27"><a xlink:href="interface_2digital_2output_2leds_2_l_e_ds_8h.html" target="_top" xlink:title="digital/output/leds\l/LEDs.h">
<polygon fill="white" stroke="black" points="621,-290.5 621,-324.5 728,-324.5 728,-290.5 621,-290.5"/>
<text text-anchor="start" x="629" y="-310.9" font-family="Helvetica,sans-Serif" font-size="12.00">digital/output/leds</text>
<text text-anchor="middle" x="674.5" y="-297.9" font-family="Helvetica,sans-Serif" font-size="12.00">/LEDs.h</text>
</a>
</g>
</g>
<!-- Node22&#45;&gt;Node26 -->
<g id="edge31" class="edge"><title>Node22&#45;&gt;Node26</title>
<path fill="none" stroke="midnightblue" d="M634.035,-367.906C640.165,-358.907 649.592,-345.067 657.805,-333.01"/>
<polygon fill="midnightblue" stroke="midnightblue" points="660.77,-334.875 663.507,-324.639 654.984,-330.934 660.77,-334.875"/>
</g>
<!-- Node23&#45;&gt;Node3 -->
<g id="edge27" class="edge"><title>Node23&#45;&gt;Node3</title>
<path fill="none" stroke="midnightblue" d="M528.302,-318.382C524.729,-347.858 514.063,-435.857 508.681,-480.26"/>
<polygon fill="midnightblue" stroke="midnightblue" points="505.193,-479.948 507.464,-490.297 512.142,-480.791 505.193,-479.948"/>
</g>
<!-- Node24 -->
<g id="node25" class="node"><title>Node24</title>
<g id="a_node25"><a xlink:href="interface_2digital_2input_2encoders_2_encoders_8h.html" target="_top" xlink:title="encoders/Encoders.h">
<polygon fill="white" stroke="black" points="312.5,-232.5 312.5,-253.5 440.5,-253.5 440.5,-232.5 312.5,-232.5"/>
<text text-anchor="middle" x="376.5" y="-239.9" font-family="Helvetica,sans-Serif" font-size="12.00">encoders/Encoders.h</text>
</a>
</g>
</g>
<!-- Node23&#45;&gt;Node24 -->
<g id="edge28" class="edge"><title>Node23&#45;&gt;Node24</title>
<path fill="none" stroke="midnightblue" d="M505.929,-296.871C480.022,-286.289 438.231,-269.217 409.172,-257.346"/>
<polygon fill="midnightblue" stroke="midnightblue" points="410.428,-254.079 399.847,-253.537 407.78,-260.559 410.428,-254.079"/>
</g>
<!-- Node24&#45;&gt;Node5 -->
<g id="edge30" class="edge"><title>Node24&#45;&gt;Node5</title>
<path fill="none" stroke="midnightblue" d="M378.87,-253.605C384.526,-278.719 396.558,-347.725 371.5,-396 364.683,-409.134 352.223,-419.556 340.332,-427.137"/>
<polygon fill="midnightblue" stroke="midnightblue" points="338.287,-424.28 331.454,-432.377 341.845,-430.308 338.287,-424.28"/>
</g>
<!-- Node25 -->
<g id="node26" class="node"><title>Node25</title>
<g id="a_node26"><a xlink:href="interface_2digital_2input_2encoders_2_data_types_8h.html" target="_top" xlink:title="DataTypes.h">
<polygon fill="white" stroke="black" points="335,-174.5 335,-195.5 418,-195.5 418,-174.5 335,-174.5"/>
<text text-anchor="middle" x="376.5" y="-181.9" font-family="Helvetica,sans-Serif" font-size="12.00">DataTypes.h</text>
</a>
</g>
</g>
<!-- Node24&#45;&gt;Node25 -->
<g id="edge29" class="edge"><title>Node24&#45;&gt;Node25</title>
<path fill="none" stroke="midnightblue" d="M376.5,-232.246C376.5,-224.938 376.5,-214.694 376.5,-205.705"/>
<polygon fill="midnightblue" stroke="midnightblue" points="380,-205.643 376.5,-195.643 373,-205.643 380,-205.643"/>
</g>
<!-- Node26&#45;&gt;Node2 -->
<g id="edge36" class="edge"><title>Node26&#45;&gt;Node2</title>
<path fill="none" stroke="midnightblue" d="M684.028,-290.405C689.06,-281.905 695.26,-271.432 700.496,-262.587"/>
<polygon fill="midnightblue" stroke="midnightblue" points="703.616,-264.188 705.698,-253.8 697.592,-260.622 703.616,-264.188"/>
</g>
<!-- Node27 -->
<g id="node28" class="node"><title>Node27</title>
<g id="a_node28"><a xlink:href="interface_2digital_2output_2leds_2_data_types_8h.html" target="_top" xlink:title="DataTypes.h">
<polygon fill="white" stroke="black" points="365,-116.5 365,-137.5 448,-137.5 448,-116.5 365,-116.5"/>
<text text-anchor="middle" x="406.5" y="-123.9" font-family="Helvetica,sans-Serif" font-size="12.00">DataTypes.h</text>
</a>
</g>
</g>
<!-- Node26&#45;&gt;Node27 -->
<g id="edge32" class="edge"><title>Node26&#45;&gt;Node27</title>
<path fill="none" stroke="midnightblue" d="M627.531,-290.424C603.854,-281.349 575.213,-268.847 551.5,-254 499.755,-221.601 447.868,-171.108 422.503,-144.966"/>
<polygon fill="midnightblue" stroke="midnightblue" points="424.961,-142.473 415.512,-137.682 419.911,-147.32 424.961,-142.473"/>
</g>
<!-- Node28 -->
<g id="node29" class="node"><title>Node28</title>
<g id="a_node29"><a xlink:href="interface_2digital_2output_2leds_2_constants_8h.html" target="_top" xlink:title="Constants.h">
<polygon fill="white" stroke="black" points="560.5,-232.5 560.5,-253.5 638.5,-253.5 638.5,-232.5 560.5,-232.5"/>
<text text-anchor="middle" x="599.5" y="-239.9" font-family="Helvetica,sans-Serif" font-size="12.00">Constants.h</text>
</a>
</g>
</g>
<!-- Node26&#45;&gt;Node28 -->
<g id="edge34" class="edge"><title>Node26&#45;&gt;Node28</title>
<path fill="none" stroke="midnightblue" d="M655.186,-290.405C644.118,-281.182 630.262,-269.635 619.14,-260.367"/>
<polygon fill="midnightblue" stroke="midnightblue" points="621.183,-257.513 611.26,-253.8 616.702,-262.891 621.183,-257.513"/>
</g>
<!-- Node27&#45;&gt;Node9 -->
<g id="edge33" class="edge"><title>Node27&#45;&gt;Node9</title>
<path fill="none" stroke="midnightblue" d="M401.007,-116.376C395.956,-107.235 388.512,-92.996 383.5,-80 377.375,-64.1171 372.304,-45.4552 368.946,-31.7034"/>
<polygon fill="midnightblue" stroke="midnightblue" points="372.331,-30.8066 366.633,-21.8744 365.517,-32.4103 372.331,-30.8066"/>
</g>
<!-- Node28&#45;&gt;Node6 -->
<g id="edge35" class="edge"><title>Node28&#45;&gt;Node6</title>
<path fill="none" stroke="midnightblue" d="M599.5,-232.246C599.5,-224.938 599.5,-214.694 599.5,-205.705"/>
<polygon fill="midnightblue" stroke="midnightblue" points="603,-205.643 599.5,-195.643 596,-205.643 603,-205.643"/>
</g>
<!-- Node30 -->
<g id="node31" class="node"><title>Node30</title>
<g id="a_node31"><a xlink:href="midi_2src_2_data_types_8h.html" target="_top" xlink:title="DataTypes.h">
<polygon fill="white" stroke="black" points="101,-297 101,-318 184,-318 184,-297 101,-297"/>
<text text-anchor="middle" x="142.5" y="-304.4" font-family="Helvetica,sans-Serif" font-size="12.00">DataTypes.h</text>
</a>
</g>
</g>
<!-- Node29&#45;&gt;Node30 -->
<g id="edge38" class="edge"><title>Node29&#45;&gt;Node30</title>
<path fill="none" stroke="midnightblue" d="M181.243,-367.906C174.325,-357.298 163.02,-339.963 154.402,-326.75"/>
<polygon fill="midnightblue" stroke="midnightblue" points="157.098,-324.477 148.704,-318.013 151.235,-328.301 157.098,-324.477"/>
</g>
<!-- Node31 -->
<g id="node32" class="node"><title>Node31</title>
<g id="a_node32"><a xlink:href="midi_2src_2_helpers_8h.html" target="_top" xlink:title="Helpers.h">
<polygon fill="white" stroke="black" points="150.5,-232.5 150.5,-253.5 216.5,-253.5 216.5,-232.5 150.5,-232.5"/>
<text text-anchor="middle" x="183.5" y="-239.9" font-family="Helvetica,sans-Serif" font-size="12.00">Helpers.h</text>
</a>
</g>
</g>
<!-- Node29&#45;&gt;Node31 -->
<g id="edge42" class="edge"><title>Node29&#45;&gt;Node31</title>
<path fill="none" stroke="midnightblue" d="M189.029,-367.77C191.353,-351.596 195.23,-318.169 192.5,-290 191.658,-281.313 189.942,-271.831 188.232,-263.745"/>
<polygon fill="midnightblue" stroke="midnightblue" points="191.601,-262.774 185.986,-253.789 184.773,-264.315 191.601,-262.774"/>
</g>
<!-- Node30&#45;&gt;Node31 -->
<g id="edge39" class="edge"><title>Node30&#45;&gt;Node31</title>
<path fill="none" stroke="midnightblue" d="M148.906,-296.734C154.889,-287.615 163.975,-273.764 171.334,-262.546"/>
<polygon fill="midnightblue" stroke="midnightblue" points="174.445,-264.185 177.003,-253.903 168.592,-260.345 174.445,-264.185"/>
</g>
<!-- Node31&#45;&gt;Node9 -->
<g id="edge41" class="edge"><title>Node31&#45;&gt;Node9</title>
<path fill="none" stroke="midnightblue" d="M191.739,-232.199C199.495,-222.933 211.395,-208.61 221.5,-196 269.831,-135.687 325.663,-62.9239 350.886,-29.88"/>
<polygon fill="midnightblue" stroke="midnightblue" points="353.876,-31.7307 357.156,-21.6565 348.31,-27.4861 353.876,-31.7307"/>
</g>
<!-- Node32 -->
<g id="node33" class="node"><title>Node32</title>
<polygon fill="white" stroke="#bfbfbf" points="154.5,-174.5 154.5,-195.5 212.5,-195.5 212.5,-174.5 154.5,-174.5"/>
<text text-anchor="middle" x="183.5" y="-181.9" font-family="Helvetica,sans-Serif" font-size="12.00">stddef.h</text>
</g>
<!-- Node31&#45;&gt;Node32 -->
<g id="edge40" class="edge"><title>Node31&#45;&gt;Node32</title>
<path fill="none" stroke="midnightblue" d="M183.5,-232.246C183.5,-224.938 183.5,-214.694 183.5,-205.705"/>
<polygon fill="midnightblue" stroke="midnightblue" points="187,-205.643 183.5,-195.643 180,-205.643 187,-205.643"/>
</g>
<!-- Node35&#45;&gt;Node34 -->
<g id="edge47" class="edge"><title>Node35&#45;&gt;Node34</title>
<path fill="none" stroke="midnightblue" d="M657.5,-496.734C657.5,-487.98 657.5,-474.865 657.5,-463.904"/>
<polygon fill="midnightblue" stroke="midnightblue" points="661,-463.903 657.5,-453.903 654,-463.903 661,-463.903"/>
</g>
</g>
</svg>
        <g id="navigator" transform="translate(0 0)" fill="#404254">
                <rect fill="#f2f5e9" fill-opacity="0.5" stroke="#606060" stroke-width=".5" x="0" y="0" width="60" height="60"/>
                <use id="zoomplus" xlink:href="#zoomPlus" x="17" y="9" onmousedown="handleZoom(evt,'in')"/>
                <use id="zoomminus" xlink:href="#zoomMin" x="42" y="9" onmousedown="handleZoom(evt,'out')"/>
                <use id="reset" xlink:href="#resetDef" x="30" y="36" onmousedown="handleReset()"/>
                <g id="arrowUp" xlink:href="#dirArrow" transform="translate(30 24)" onmousedown="handlePan(0,-1)">
                  <use xlink:href="#rim" fill="#404040">
                        <set attributeName="fill" to="#808080" begin="arrowUp.mouseover" end="arrowUp.mouseout"/>
                  </use>
                  <path fill="none" stroke="white" stroke-width="1.5" d="M0,-3.0v7 M-2.5,-0.5L0,-3.0L2.5,-0.5"/>
                </g>
                <g id="arrowRight" xlink:href="#dirArrow" transform="rotate(90) translate(36 -43)" onmousedown="handlePan(1,0)">
                  <use xlink:href="#rim" fill="#404040">
                        <set attributeName="fill" to="#808080" begin="arrowRight.mouseover" end="arrowRight.mouseout"/>
                  </use>
                  <path fill="none" stroke="white" stroke-width="1.5" d="M0,-3.0v7 M-2.5,-0.5L0,-3.0L2.5,-0.5"/>
                </g>
                <g id="arrowDown" xlink:href="#dirArrow" transform="rotate(180) translate(-30 -48)" onmousedown="handlePan(0,1)">
                  <use xlink:href="#rim" fill="#404040">
                        <set attributeName="fill" to="#808080" begin="arrowDown.mouseover" end="arrowDown.mouseout"/>
                  </use>
                  <path fill="none" stroke="white" stroke-width="1.5" d="M0,-3.0v7 M-2.5,-0.5L0,-3.0L2.5,-0.5"/>
                </g>
                <g id="arrowLeft" xlink:href="#dirArrow" transform="rotate(270) translate(-36 17)" onmousedown="handlePan(-1,0)">
                  <use xlink:href="#rim" fill="#404040">
                        <set attributeName="fill" to="#808080" begin="arrowLeft.mouseover" end="arrowLeft.mouseout"/>
                  </use>
                  <path fill="none" stroke="white" stroke-width="1.5" d="M0,-3.0v7 M-2.5,-0.5L0,-3.0L2.5,-0.5"/>
                </g>
        </g>
        <svg viewBox="0 0 15 15" width="100%" height="30px" preserveAspectRatio="xMaxYMin meet">
         <g id="arrow_out" transform="scale(0.3 0.3)">
          <a xlink:href="_f_s_r_8cpp__incl_org.svg" target="_base">
           <rect id="button" ry="5" rx="5" y="6" x="6" height="38" width="38"
                fill="#f2f5e9" fill-opacity="0.5" stroke="#606060" stroke-width="1.0"/>
           <path id="arrow"
             d="M 11.500037,31.436501 C 11.940474,20.09759 22.043105,11.32322 32.158766,21.979434 L 37.068811,17.246167 C 37.068811,17.246167 37.088388,32 37.088388,32 L 22.160133,31.978069 C 22.160133,31.978069 26.997745,27.140456 26.997745,27.140456 C 18.528582,18.264221 13.291696,25.230495 11.500037,31.436501 z"
             style="fill:#404040;"/>
          </a>
         </g>
        </svg>
</svg>
