<?xml version="1.0" encoding="UTF-8" standalone="no"?>
<!DOCTYPE svg PUBLIC "-//W3C//DTD SVG 1.1//EN"
 "http://www.w3.org/Graphics/SVG/1.1/DTD/svg11.dtd">
<!-- Generated by graphviz version 2.38.0 (20140413.2041)
 -->
<!-- Title: core/src/HAL/HAL.h Pages: 1 -->
<svg width="380pt" height="146pt"
 viewBox="0.00 0.00 379.50 146.00" xmlns="http://www.w3.org/2000/svg" xmlns:xlink="http://www.w3.org/1999/xlink">
<g id="graph0" class="graph" transform="scale(1 1) rotate(0) translate(4 142)">
<title>core/src/HAL/HAL.h</title>
<polygon fill="white" stroke="none" points="-4,4 -4,-142 375.5,-142 375.5,4 -4,4"/>
<!-- Node1 -->
<g id="node1" class="node"><title>Node1</title>
<polygon fill="#bfbfbf" stroke="black" points="135.5,-116.5 135.5,-137.5 255.5,-137.5 255.5,-116.5 135.5,-116.5"/>
<text text-anchor="middle" x="195.5" y="-123.9" font-family="Helvetica,sans-Serif" font-size="12.00">core/src/HAL/HAL.h</text>
</g>
<!-- Node2 -->
<g id="node2" class="node"><title>Node2</title>
<g id="a_node2"><a xlink:href="_ring_buffer_8h.html" target="_top" xlink:title="core/src/general/RingBuffer.h">
<polygon fill="white" stroke="black" points="0,-58.5 0,-79.5 167,-79.5 167,-58.5 0,-58.5"/>
<text text-anchor="middle" x="83.5" y="-65.9" font-family="Helvetica,sans-Serif" font-size="12.00">core/src/general/RingBuffer.h</text>
</a>
</g>
</g>
<!-- Node1&#45;&gt;Node2 -->
<g id="edge1" class="edge"><title>Node1&#45;&gt;Node2</title>
<path fill="none" stroke="midnightblue" d="M167.174,-111.837C146.928,-101.714 120.236,-88.3679 102.502,-79.5011"/>
<polygon fill="midnightblue" stroke="midnightblue" points="165.737,-115.032 176.247,-116.373 168.867,-108.771 165.737,-115.032"/>
</g>
<!-- Node3 -->
<g id="node3" class="node"><title>Node3</title>
<g id="a_node3"><a xlink:href="_core_8h.html" target="_top" xlink:title="core/src/Core.h">
<polygon fill="white" stroke="black" points="147,-0.5 147,-21.5 244,-21.5 244,-0.5 147,-0.5"/>
<text text-anchor="middle" x="195.5" y="-7.9" font-family="Helvetica,sans-Serif" font-size="12.00">core/src/Core.h</text>
</a>
</g>
</g>
<!-- Node1&#45;&gt;Node3 -->
<g id="edge5" class="edge"><title>Node1&#45;&gt;Node3</title>
<path fill="none" stroke="midnightblue" d="M195.5,-106.252C195.5,-81.5837 195.5,-40.3525 195.5,-21.695"/>
<polygon fill="midnightblue" stroke="midnightblue" points="192,-106.28 195.5,-116.28 199,-106.28 192,-106.28"/>
</g>
<!-- Node4 -->
<g id="node4" class="node"><title>Node4</title>
<g id="a_node4"><a xlink:href="_timing_8h.html" target="_top" xlink:title="core/src/general/Timing.h">
<polygon fill="white" stroke="black" points="223.5,-58.5 223.5,-79.5 371.5,-79.5 371.5,-58.5 223.5,-58.5"/>
<text text-anchor="middle" x="297.5" y="-65.9" font-family="Helvetica,sans-Serif" font-size="12.00">core/src/general/Timing.h</text>
</a>
</g>
</g>
<!-- Node1&#45;&gt;Node4 -->
<g id="edge3" class="edge"><title>Node1&#45;&gt;Node4</title>
<path fill="none" stroke="midnightblue" d="M222.234,-111.323C240.453,-101.32 264.06,-88.3593 279.937,-79.6427"/>
<polygon fill="midnightblue" stroke="midnightblue" points="220.348,-108.365 213.267,-116.246 223.717,-114.501 220.348,-108.365"/>
</g>
<!-- Node2&#45;&gt;Node3 -->
<g id="edge2" class="edge"><title>Node2&#45;&gt;Node3</title>
<path fill="none" stroke="midnightblue" d="M111.826,-53.8368C132.072,-43.7139 158.764,-30.3679 176.498,-21.5011"/>
<polygon fill="midnightblue" stroke="midnightblue" points="110.133,-50.7706 102.753,-58.3733 113.263,-57.0316 110.133,-50.7706"/>
</g>
<!-- Node4&#45;&gt;Node3 -->
<g id="edge4" class="edge"><title>Node4&#45;&gt;Node3</title>
<path fill="none" stroke="midnightblue" d="M270.766,-53.3225C252.547,-43.3198 228.94,-30.3593 213.063,-21.6427"/>
<polygon fill="midnightblue" stroke="midnightblue" points="269.283,-56.5009 279.733,-58.2455 272.652,-50.3649 269.283,-56.5009"/>
</g>
</g>
</svg>
