<?xml version="1.0" encoding="UTF-8" standalone="no"?>
<!DOCTYPE svg PUBLIC "-//W3C//DTD SVG 1.1//EN"
 "http://www.w3.org/Graphics/SVG/1.1/DTD/svg11.dtd">
<!-- Generated by graphviz version 2.38.0 (20140413.2041)
 -->
<!-- Title: board/common/Import.h Pages: 1 -->
<svg width="782pt" height="404pt"
 viewBox="0.00 0.00 782.00 404.00" xmlns="http://www.w3.org/2000/svg" xmlns:xlink="http://www.w3.org/1999/xlink">
<g id="graph0" class="graph" transform="scale(1 1) rotate(0) translate(4 400)">
<title>board/common/Import.h</title>
<polygon fill="white" stroke="none" points="-4,4 -4,-400 778,-400 778,4 -4,4"/>
<!-- Node0 -->
<g id="node1" class="node"><title>Node0</title>
<polygon fill="#bfbfbf" stroke="black" points="186,-374.5 186,-395.5 326,-395.5 326,-374.5 186,-374.5"/>
<text text-anchor="middle" x="256" y="-381.9" font-family="Helvetica,sans-Serif" font-size="12.00">board/common/Import.h</text>
</g>
<!-- Node1 -->
<g id="node2" class="node"><title>Node1</title>
<g id="a_node2"><a xlink:href="_export_8h.html" target="_top" xlink:title="../../interface/Export.h">
<polygon fill="white" stroke="black" points="193.5,-316.5 193.5,-337.5 318.5,-337.5 318.5,-316.5 193.5,-316.5"/>
<text text-anchor="middle" x="256" y="-323.9" font-family="Helvetica,sans-Serif" font-size="12.00">../../interface/Export.h</text>
</a>
</g>
</g>
<!-- Node0&#45;&gt;Node1 -->
<g id="edge1" class="edge"><title>Node0&#45;&gt;Node1</title>
<path fill="none" stroke="midnightblue" d="M256,-374.246C256,-366.938 256,-356.694 256,-347.705"/>
<polygon fill="midnightblue" stroke="midnightblue" points="259.5,-347.643 256,-337.643 252.5,-347.643 259.5,-347.643"/>
</g>
<!-- Node2 -->
<g id="node3" class="node"><title>Node2</title>
<g id="a_node3"><a xlink:href="interface_2digital_2output_2leds_2_variables_8h.html" target="_top" xlink:title="digital/output/leds\l/Variables.h">
<polygon fill="white" stroke="black" points="47.5,-245.5 47.5,-279.5 154.5,-279.5 154.5,-245.5 47.5,-245.5"/>
<text text-anchor="start" x="55.5" y="-265.9" font-family="Helvetica,sans-Serif" font-size="12.00">digital/output/leds</text>
<text text-anchor="middle" x="101" y="-252.9" font-family="Helvetica,sans-Serif" font-size="12.00">/Variables.h</text>
</a>
</g>
</g>
<!-- Node1&#45;&gt;Node2 -->
<g id="edge2" class="edge"><title>Node1&#45;&gt;Node2</title>
<path fill="none" stroke="midnightblue" d="M232.121,-316.371C210.395,-307.611 177.643,-294.405 150.309,-283.382"/>
<polygon fill="midnightblue" stroke="midnightblue" points="151.476,-280.079 140.893,-279.586 148.858,-286.572 151.476,-280.079"/>
</g>
<!-- Node4 -->
<g id="node5" class="node"><title>Node4</title>
<g id="a_node5"><a xlink:href="interface_2digital_2output_2leds_2_data_types_8h.html" target="_top" xlink:title="digital/output/leds\l/DataTypes.h">
<polygon fill="white" stroke="black" points="146.5,-174.5 146.5,-208.5 253.5,-208.5 253.5,-174.5 146.5,-174.5"/>
<text text-anchor="start" x="154.5" y="-194.9" font-family="Helvetica,sans-Serif" font-size="12.00">digital/output/leds</text>
<text text-anchor="middle" x="200" y="-181.9" font-family="Helvetica,sans-Serif" font-size="12.00">/DataTypes.h</text>
</a>
</g>
</g>
<!-- Node1&#45;&gt;Node4 -->
<g id="edge4" class="edge"><title>Node1&#45;&gt;Node4</title>
<path fill="none" stroke="midnightblue" d="M251.973,-316.399C243.456,-296.095 223.371,-248.215 210.812,-218.274"/>
<polygon fill="midnightblue" stroke="midnightblue" points="213.964,-216.742 206.868,-208.874 207.509,-219.449 213.964,-216.742"/>
</g>
<!-- Node6 -->
<g id="node7" class="node"><title>Node6</title>
<g id="a_node7"><a xlink:href="interface_2digital_2output_2leds_2_constants_8h.html" target="_top" xlink:title="digital/output/leds\l/Constants.h">
<polygon fill="white" stroke="black" points="249.5,-245.5 249.5,-279.5 356.5,-279.5 356.5,-245.5 249.5,-245.5"/>
<text text-anchor="start" x="257.5" y="-265.9" font-family="Helvetica,sans-Serif" font-size="12.00">digital/output/leds</text>
<text text-anchor="middle" x="303" y="-252.9" font-family="Helvetica,sans-Serif" font-size="12.00">/Constants.h</text>
</a>
</g>
</g>
<!-- Node1&#45;&gt;Node6 -->
<g id="edge6" class="edge"><title>Node1&#45;&gt;Node6</title>
<path fill="none" stroke="midnightblue" d="M263.344,-316.234C269.072,-308.617 277.283,-297.698 284.749,-287.77"/>
<polygon fill="midnightblue" stroke="midnightblue" points="287.561,-289.854 290.774,-279.758 281.966,-285.647 287.561,-289.854"/>
</g>
<!-- Node17 -->
<g id="node18" class="node"><title>Node17</title>
<g id="a_node18"><a xlink:href="midi_2src_2_m_i_d_i_8h.html" target="_top" xlink:title="../midi/src/MIDI.h">
<polygon fill="white" stroke="black" points="567,-252 567,-273 669,-273 669,-252 567,-252"/>
<text text-anchor="middle" x="618" y="-259.4" font-family="Helvetica,sans-Serif" font-size="12.00">../midi/src/MIDI.h</text>
</a>
</g>
</g>
<!-- Node1&#45;&gt;Node17 -->
<g id="edge18" class="edge"><title>Node1&#45;&gt;Node17</title>
<path fill="none" stroke="midnightblue" d="M311.374,-316.44C377.499,-305.023 487.764,-285.985 556.488,-274.12"/>
<polygon fill="midnightblue" stroke="midnightblue" points="557.473,-277.502 566.732,-272.351 556.282,-270.604 557.473,-277.502"/>
</g>
<!-- Node3 -->
<g id="node4" class="node"><title>Node3</title>
<g id="a_node4"><a xlink:href="_board_8h.html" target="_top" xlink:title="../../../../board/Board.h">
<polygon fill="white" stroke="black" points="0,-181 0,-202 128,-202 128,-181 0,-181"/>
<text text-anchor="middle" x="64" y="-188.4" font-family="Helvetica,sans-Serif" font-size="12.00">../../../../board/Board.h</text>
</a>
</g>
</g>
<!-- Node2&#45;&gt;Node3 -->
<g id="edge3" class="edge"><title>Node2&#45;&gt;Node3</title>
<path fill="none" stroke="midnightblue" d="M92.4185,-245.497C86.9267,-235.255 79.7793,-221.926 74.0265,-211.198"/>
<polygon fill="midnightblue" stroke="midnightblue" points="77.0331,-209.399 69.2227,-202.24 70.864,-212.707 77.0331,-209.399"/>
</g>
<!-- Node5 -->
<g id="node6" class="node"><title>Node5</title>
<polygon fill="white" stroke="#bfbfbf" points="131.5,-0.5 131.5,-21.5 196.5,-21.5 196.5,-0.5 131.5,-0.5"/>
<text text-anchor="middle" x="164" y="-7.9" font-family="Helvetica,sans-Serif" font-size="12.00">inttypes.h</text>
</g>
<!-- Node4&#45;&gt;Node5 -->
<g id="edge5" class="edge"><title>Node4&#45;&gt;Node5</title>
<path fill="none" stroke="midnightblue" d="M181.366,-174.397C160.096,-154.658 126.507,-118.99 113,-80 109.799,-70.7609 109.027,-66.9342 113,-58 118.451,-45.7432 128.96,-35.3755 139.029,-27.6036"/>
<polygon fill="midnightblue" stroke="midnightblue" points="141.174,-30.3721 147.263,-21.7012 137.096,-24.6828 141.174,-30.3721"/>
</g>
<!-- Node7 -->
<g id="node8" class="node"><title>Node7</title>
<g id="a_node8"><a xlink:href="database_2_database_8h.html" target="_top" xlink:title="../../../../database\l/Database.h">
<polygon fill="white" stroke="black" points="272,-174.5 272,-208.5 374,-208.5 374,-174.5 272,-174.5"/>
<text text-anchor="start" x="280" y="-194.9" font-family="Helvetica,sans-Serif" font-size="12.00">../../../../database</text>
<text text-anchor="middle" x="323" y="-181.9" font-family="Helvetica,sans-Serif" font-size="12.00">/Database.h</text>
</a>
</g>
</g>
<!-- Node6&#45;&gt;Node7 -->
<g id="edge7" class="edge"><title>Node6&#45;&gt;Node7</title>
<path fill="none" stroke="midnightblue" d="M307.639,-245.497C309.953,-237.513 312.811,-227.654 315.431,-218.612"/>
<polygon fill="midnightblue" stroke="midnightblue" points="318.825,-219.475 318.248,-208.896 312.102,-217.526 318.825,-219.475"/>
</g>
<!-- Node8 -->
<g id="node9" class="node"><title>Node8</title>
<g id="a_node9"><a xlink:href="_d_b_m_s_8h.html" target="_top" xlink:title="../dbms/src/DBMS.h">
<polygon fill="white" stroke="black" points="172.5,-116.5 172.5,-137.5 293.5,-137.5 293.5,-116.5 172.5,-116.5"/>
<text text-anchor="middle" x="233" y="-123.9" font-family="Helvetica,sans-Serif" font-size="12.00">../dbms/src/DBMS.h</text>
</a>
</g>
</g>
<!-- Node7&#45;&gt;Node8 -->
<g id="edge8" class="edge"><title>Node7&#45;&gt;Node8</title>
<path fill="none" stroke="midnightblue" d="M299.823,-174.405C286.066,-164.851 268.718,-152.804 255.146,-143.379"/>
<polygon fill="midnightblue" stroke="midnightblue" points="257.058,-140.446 246.848,-137.617 253.066,-146.196 257.058,-140.446"/>
</g>
<!-- Node10 -->
<g id="node11" class="node"><title>Node10</title>
<g id="a_node11"><a xlink:href="database_2blocks_2_blocks_8h.html" target="_top" xlink:title="blocks/Blocks.h">
<polygon fill="white" stroke="black" points="363,-116.5 363,-137.5 461,-137.5 461,-116.5 363,-116.5"/>
<text text-anchor="middle" x="412" y="-123.9" font-family="Helvetica,sans-Serif" font-size="12.00">blocks/Blocks.h</text>
</a>
</g>
</g>
<!-- Node7&#45;&gt;Node10 -->
<g id="edge11" class="edge"><title>Node7&#45;&gt;Node10</title>
<path fill="none" stroke="midnightblue" d="M345.92,-174.405C359.524,-164.851 376.679,-152.804 390.1,-143.379"/>
<polygon fill="midnightblue" stroke="midnightblue" points="392.133,-146.228 398.306,-137.617 388.11,-140.5 392.133,-146.228"/>
</g>
<!-- Node9 -->
<g id="node10" class="node"><title>Node9</title>
<g id="a_node10"><a xlink:href="dbms_2src_2_data_types_8h.html" target="_top" xlink:title="DataTypes.h">
<polygon fill="white" stroke="black" points="122.5,-58.5 122.5,-79.5 205.5,-79.5 205.5,-58.5 122.5,-58.5"/>
<text text-anchor="middle" x="164" y="-65.9" font-family="Helvetica,sans-Serif" font-size="12.00">DataTypes.h</text>
</a>
</g>
</g>
<!-- Node8&#45;&gt;Node9 -->
<g id="edge9" class="edge"><title>Node8&#45;&gt;Node9</title>
<path fill="none" stroke="midnightblue" d="M220.981,-116.246C210.79,-107.975 195.964,-95.9416 183.989,-86.2232"/>
<polygon fill="midnightblue" stroke="midnightblue" points="185.851,-83.2268 175.881,-79.6427 181.44,-88.662 185.851,-83.2268"/>
</g>
<!-- Node9&#45;&gt;Node5 -->
<g id="edge10" class="edge"><title>Node9&#45;&gt;Node5</title>
<path fill="none" stroke="midnightblue" d="M164,-58.2455C164,-50.9382 164,-40.6944 164,-31.7046"/>
<polygon fill="midnightblue" stroke="midnightblue" points="167.5,-31.6426 164,-21.6427 160.5,-31.6427 167.5,-31.6426"/>
</g>
<!-- Node11 -->
<g id="node12" class="node"><title>Node11</title>
<g id="a_node12"><a xlink:href="database_2blocks_2_m_i_d_i_8h.html" target="_top" xlink:title="MIDI.h">
<polygon fill="white" stroke="black" points="223.5,-58.5 223.5,-79.5 272.5,-79.5 272.5,-58.5 223.5,-58.5"/>
<text text-anchor="middle" x="248" y="-65.9" font-family="Helvetica,sans-Serif" font-size="12.00">MIDI.h</text>
</a>
</g>
</g>
<!-- Node10&#45;&gt;Node11 -->
<g id="edge12" class="edge"><title>Node10&#45;&gt;Node11</title>
<path fill="none" stroke="midnightblue" d="M383.807,-116.373C355.667,-106.764 312.391,-91.9872 282.281,-81.7056"/>
<polygon fill="midnightblue" stroke="midnightblue" points="283.209,-78.3243 272.615,-78.4051 280.947,-84.9488 283.209,-78.3243"/>
</g>
<!-- Node12 -->
<g id="node13" class="node"><title>Node12</title>
<g id="a_node13"><a xlink:href="database_2blocks_2_buttons_8h.html" target="_top" xlink:title="Buttons.h">
<polygon fill="white" stroke="black" points="290.5,-58.5 290.5,-79.5 355.5,-79.5 355.5,-58.5 290.5,-58.5"/>
<text text-anchor="middle" x="323" y="-65.9" font-family="Helvetica,sans-Serif" font-size="12.00">Buttons.h</text>
</a>
</g>
</g>
<!-- Node10&#45;&gt;Node12 -->
<g id="edge13" class="edge"><title>Node10&#45;&gt;Node12</title>
<path fill="none" stroke="midnightblue" d="M396.497,-116.246C382.842,-107.653 362.734,-95.0014 347.001,-85.1018"/>
<polygon fill="midnightblue" stroke="midnightblue" points="348.653,-82.006 338.325,-79.6427 344.925,-87.9307 348.653,-82.006"/>
</g>
<!-- Node13 -->
<g id="node14" class="node"><title>Node13</title>
<g id="a_node14"><a xlink:href="database_2blocks_2_encoders_8h.html" target="_top" xlink:title="Encoders.h">
<polygon fill="white" stroke="black" points="374,-58.5 374,-79.5 450,-79.5 450,-58.5 374,-58.5"/>
<text text-anchor="middle" x="412" y="-65.9" font-family="Helvetica,sans-Serif" font-size="12.00">Encoders.h</text>
</a>
</g>
</g>
<!-- Node10&#45;&gt;Node13 -->
<g id="edge14" class="edge"><title>Node10&#45;&gt;Node13</title>
<path fill="none" stroke="midnightblue" d="M412,-116.246C412,-108.938 412,-98.6944 412,-89.7046"/>
<polygon fill="midnightblue" stroke="midnightblue" points="415.5,-89.6426 412,-79.6427 408.5,-89.6427 415.5,-89.6426"/>
</g>
<!-- Node14 -->
<g id="node15" class="node"><title>Node14</title>
<g id="a_node15"><a xlink:href="database_2blocks_2_analog_8h.html" target="_top" xlink:title="Analog.h">
<polygon fill="white" stroke="black" points="468,-58.5 468,-79.5 530,-79.5 530,-58.5 468,-58.5"/>
<text text-anchor="middle" x="499" y="-65.9" font-family="Helvetica,sans-Serif" font-size="12.00">Analog.h</text>
</a>
</g>
</g>
<!-- Node10&#45;&gt;Node14 -->
<g id="edge15" class="edge"><title>Node10&#45;&gt;Node14</title>
<path fill="none" stroke="midnightblue" d="M427.154,-116.246C440.503,-107.653 460.159,-95.0014 475.538,-85.1018"/>
<polygon fill="midnightblue" stroke="midnightblue" points="477.505,-87.9982 484.019,-79.6427 473.716,-82.1121 477.505,-87.9982"/>
</g>
<!-- Node15 -->
<g id="node16" class="node"><title>Node15</title>
<g id="a_node16"><a xlink:href="database_2blocks_2_l_e_ds_8h.html" target="_top" xlink:title="LEDs.h">
<polygon fill="white" stroke="black" points="548,-58.5 548,-79.5 604,-79.5 604,-58.5 548,-58.5"/>
<text text-anchor="middle" x="576" y="-65.9" font-family="Helvetica,sans-Serif" font-size="12.00">LEDs.h</text>
</a>
</g>
</g>
<!-- Node10&#45;&gt;Node15 -->
<g id="edge16" class="edge"><title>Node10&#45;&gt;Node15</title>
<path fill="none" stroke="midnightblue" d="M440.193,-116.373C467.345,-107.102 508.591,-93.0178 538.502,-82.804"/>
<polygon fill="midnightblue" stroke="midnightblue" points="539.843,-86.0449 548.175,-79.5011 537.581,-79.4204 539.843,-86.0449"/>
</g>
<!-- Node16 -->
<g id="node17" class="node"><title>Node16</title>
<g id="a_node17"><a xlink:href="database_2blocks_2_i_d_8h.html" target="_top" xlink:title="ID.h">
<polygon fill="white" stroke="black" points="622.5,-58.5 622.5,-79.5 659.5,-79.5 659.5,-58.5 622.5,-58.5"/>
<text text-anchor="middle" x="641" y="-65.9" font-family="Helvetica,sans-Serif" font-size="12.00">ID.h</text>
</a>
</g>
</g>
<!-- Node10&#45;&gt;Node16 -->
<g id="edge17" class="edge"><title>Node10&#45;&gt;Node16</title>
<path fill="none" stroke="midnightblue" d="M461.155,-116.442C499.868,-108.534 555.325,-96.3676 612.489,-79.8837"/>
<polygon fill="midnightblue" stroke="midnightblue" points="613.808,-83.1447 622.424,-76.9795 611.844,-76.4259 613.808,-83.1447"/>
</g>
<!-- Node18 -->
<g id="node19" class="node"><title>Node18</title>
<g id="a_node19"><a xlink:href="midi_2src_2_data_types_8h.html" target="_top" xlink:title="DataTypes.h">
<polygon fill="white" stroke="black" points="576.5,-181 576.5,-202 659.5,-202 659.5,-181 576.5,-181"/>
<text text-anchor="middle" x="618" y="-188.4" font-family="Helvetica,sans-Serif" font-size="12.00">DataTypes.h</text>
</a>
</g>
</g>
<!-- Node17&#45;&gt;Node18 -->
<g id="edge19" class="edge"><title>Node17&#45;&gt;Node18</title>
<path fill="none" stroke="midnightblue" d="M618,-251.906C618,-241.71 618,-225.3 618,-212.308"/>
<polygon fill="midnightblue" stroke="midnightblue" points="621.5,-212.013 618,-202.013 614.5,-212.013 621.5,-212.013"/>
</g>
<!-- Node19 -->
<g id="node20" class="node"><title>Node19</title>
<g id="a_node20"><a xlink:href="midi_2src_2_helpers_8h.html" target="_top" xlink:title="Helpers.h">
<polygon fill="white" stroke="black" points="655,-116.5 655,-137.5 721,-137.5 721,-116.5 655,-116.5"/>
<text text-anchor="middle" x="688" y="-123.9" font-family="Helvetica,sans-Serif" font-size="12.00">Helpers.h</text>
</a>
</g>
</g>
<!-- Node17&#45;&gt;Node19 -->
<g id="edge23" class="edge"><title>Node17&#45;&gt;Node19</title>
<path fill="none" stroke="midnightblue" d="M630.911,-251.687C642.628,-242.081 659.485,-226.39 669,-209 679.478,-189.85 684.206,-165.082 686.322,-148.003"/>
<polygon fill="midnightblue" stroke="midnightblue" points="689.854,-147.879 687.408,-137.57 682.891,-147.154 689.854,-147.879"/>
</g>
<!-- Node18&#45;&gt;Node19 -->
<g id="edge20" class="edge"><title>Node18&#45;&gt;Node19</title>
<path fill="none" stroke="midnightblue" d="M628.938,-180.734C639.662,-171.159 656.229,-156.367 669.09,-144.884"/>
<polygon fill="midnightblue" stroke="midnightblue" points="671.78,-147.174 676.908,-137.903 667.118,-141.953 671.78,-147.174"/>
</g>
<!-- Node19&#45;&gt;Node5 -->
<g id="edge22" class="edge"><title>Node19&#45;&gt;Node5</title>
<path fill="none" stroke="midnightblue" d="M688.449,-116.315C688.563,-101.249 686.329,-72.4362 669,-58 633.826,-28.6975 322.412,-16.644 206.884,-13.1544"/>
<polygon fill="midnightblue" stroke="midnightblue" points="206.75,-9.64901 196.651,-12.8523 206.543,-16.646 206.75,-9.64901"/>
</g>
<!-- Node20 -->
<g id="node21" class="node"><title>Node20</title>
<polygon fill="white" stroke="#bfbfbf" points="716,-58.5 716,-79.5 774,-79.5 774,-58.5 716,-58.5"/>
<text text-anchor="middle" x="745" y="-65.9" font-family="Helvetica,sans-Serif" font-size="12.00">stddef.h</text>
</g>
<!-- Node19&#45;&gt;Node20 -->
<g id="edge21" class="edge"><title>Node19&#45;&gt;Node20</title>
<path fill="none" stroke="midnightblue" d="M697.929,-116.246C706.184,-108.135 718.121,-96.4075 727.908,-86.7919"/>
<polygon fill="midnightblue" stroke="midnightblue" points="730.505,-89.1476 735.185,-79.6427 725.599,-84.1542 730.505,-89.1476"/>
</g>
</g>
</svg>
