<?xml version="1.0" encoding="UTF-8" standalone="no"?>
<!DOCTYPE svg PUBLIC "-//W3C//DTD SVG 1.1//EN"
 "http://www.w3.org/Graphics/SVG/1.1/DTD/svg11.dtd">
<!-- Generated by graphviz version 2.38.0 (20140413.2041)
 -->
<!-- Title: interface/Interface.h Pages: 1 -->
<svg width="1004pt" height="301pt"
 viewBox="0.00 0.00 1004.00 301.00" xmlns="http://www.w3.org/2000/svg" xmlns:xlink="http://www.w3.org/1999/xlink">
<g id="graph0" class="graph" transform="scale(1 1) rotate(0) translate(4 297)">
<title>interface/Interface.h</title>
<polygon fill="white" stroke="none" points="-4,4 -4,-297 1000,-297 1000,4 -4,4"/>
<!-- Node35 -->
<g id="node1" class="node"><title>Node35</title>
<polygon fill="#bfbfbf" stroke="black" points="391.5,-271.5 391.5,-292.5 509.5,-292.5 509.5,-271.5 391.5,-271.5"/>
<text text-anchor="middle" x="450.5" y="-278.9" font-family="Helvetica,sans-Serif" font-size="12.00">interface/Interface.h</text>
</g>
<!-- Node36 -->
<g id="node2" class="node"><title>Node36</title>
<g id="a_node2"><a xlink:href="_open_deck_8h.html" target="_top" xlink:title="OpenDeck.h">
<polygon fill="white" stroke="black" points="409.5,-213.5 409.5,-234.5 491.5,-234.5 491.5,-213.5 409.5,-213.5"/>
<text text-anchor="middle" x="450.5" y="-220.9" font-family="Helvetica,sans-Serif" font-size="12.00">OpenDeck.h</text>
</a>
</g>
</g>
<!-- Node35&#45;&gt;Node36 -->
<g id="edge1" class="edge"><title>Node35&#45;&gt;Node36</title>
<path fill="none" stroke="midnightblue" d="M450.5,-261.158C450.5,-252.155 450.5,-241.92 450.5,-234.643"/>
<polygon fill="midnightblue" stroke="midnightblue" points="447,-261.246 450.5,-271.246 454,-261.246 447,-261.246"/>
</g>
<!-- Node37 -->
<g id="node3" class="node"><title>Node37</title>
<g id="a_node3"><a xlink:href="_init_8cpp.html" target="_top" xlink:title="Init.cpp">
<polygon fill="white" stroke="black" points="204,-149 204,-170 257,-170 257,-149 204,-149"/>
<text text-anchor="middle" x="230.5" y="-156.4" font-family="Helvetica,sans-Serif" font-size="12.00">Init.cpp</text>
</a>
</g>
</g>
<!-- Node36&#45;&gt;Node37 -->
<g id="edge2" class="edge"><title>Node36&#45;&gt;Node37</title>
<path fill="none" stroke="midnightblue" d="M399.199,-213.084C361.616,-205.139 309.673,-192.731 265.5,-177 260.058,-175.062 254.322,-172.564 249.104,-170.101"/>
<polygon fill="midnightblue" stroke="midnightblue" points="398.897,-216.596 409.4,-215.206 400.322,-209.743 398.897,-216.596"/>
</g>
<!-- Node38 -->
<g id="node4" class="node"><title>Node38</title>
<g id="a_node4"><a xlink:href="_sys_ex_8h.html" target="_top" xlink:title="sysex/src/SysEx.h">
<polygon fill="white" stroke="black" points="718.5,-149 718.5,-170 828.5,-170 828.5,-149 718.5,-149"/>
<text text-anchor="middle" x="773.5" y="-156.4" font-family="Helvetica,sans-Serif" font-size="12.00">sysex/src/SysEx.h</text>
</a>
</g>
</g>
<!-- Node36&#45;&gt;Node38 -->
<g id="edge3" class="edge"><title>Node36&#45;&gt;Node38</title>
<path fill="none" stroke="midnightblue" d="M501.638,-213.855C552.145,-205.322 631.263,-191.724 699.5,-177 709.06,-174.937 719.344,-172.452 729.167,-170.043"/>
<polygon fill="midnightblue" stroke="midnightblue" points="500.898,-210.43 491.619,-215.545 502.062,-217.333 500.898,-210.43"/>
</g>
<!-- Node40 -->
<g id="node6" class="node"><title>Node40</title>
<g id="a_node6"><a xlink:href="interface_2digital_2input_2buttons_2_buttons_8h.html" target="_top" xlink:title="interface/digital/input\l/buttons/Buttons.h">
<polygon fill="white" stroke="black" points="388.5,-142.5 388.5,-176.5 512.5,-176.5 512.5,-142.5 388.5,-142.5"/>
<text text-anchor="start" x="396.5" y="-162.9" font-family="Helvetica,sans-Serif" font-size="12.00">interface/digital/input</text>
<text text-anchor="middle" x="450.5" y="-149.9" font-family="Helvetica,sans-Serif" font-size="12.00">/buttons/Buttons.h</text>
</a>
</g>
</g>
<!-- Node36&#45;&gt;Node40 -->
<g id="edge6" class="edge"><title>Node36&#45;&gt;Node40</title>
<path fill="none" stroke="midnightblue" d="M450.5,-203.07C450.5,-194.58 450.5,-184.801 450.5,-176.758"/>
<polygon fill="midnightblue" stroke="midnightblue" points="447,-203.234 450.5,-213.234 454,-203.234 447,-203.234"/>
</g>
<!-- Node41 -->
<g id="node7" class="node"><title>Node41</title>
<g id="a_node7"><a xlink:href="interface_2analog_2_analog_8h.html" target="_top" xlink:title="interface/analog/Analog.h">
<polygon fill="white" stroke="black" points="175,-78 175,-99 324,-99 324,-78 175,-78"/>
<text text-anchor="middle" x="249.5" y="-85.4" font-family="Helvetica,sans-Serif" font-size="12.00">interface/analog/Analog.h</text>
</a>
</g>
</g>
<!-- Node36&#45;&gt;Node41 -->
<g id="edge16" class="edge"><title>Node36&#45;&gt;Node41</title>
<path fill="none" stroke="midnightblue" d="M398.957,-221.28C331.835,-217.831 220.039,-207.537 194.5,-177 172.859,-151.124 212.665,-116.064 235.339,-99.2642"/>
<polygon fill="midnightblue" stroke="midnightblue" points="399.169,-224.794 409.326,-221.777 399.505,-217.802 399.169,-224.794"/>
</g>
<!-- Node43 -->
<g id="node9" class="node"><title>Node43</title>
<g id="a_node9"><a xlink:href="_f_s_r_8cpp.html" target="_top" xlink:title="interface/analog/FSR.cpp">
<polygon fill="white" stroke="black" points="400,-7 400,-28 549,-28 549,-7 400,-7"/>
<text text-anchor="middle" x="474.5" y="-14.4" font-family="Helvetica,sans-Serif" font-size="12.00">interface/analog/FSR.cpp</text>
</a>
</g>
</g>
<!-- Node36&#45;&gt;Node43 -->
<g id="edge20" class="edge"><title>Node36&#45;&gt;Node43</title>
<path fill="none" stroke="midnightblue" d="M486.329,-208.804C499.879,-201.468 513.862,-191.049 521.5,-177 544.002,-135.61 538.32,-115.006 521.5,-71 514.686,-53.1737 498.724,-37.5779 487.293,-28.1139"/>
<polygon fill="midnightblue" stroke="midnightblue" points="484.494,-205.808 477.101,-213.397 487.613,-212.075 484.494,-205.808"/>
</g>
<!-- Node44 -->
<g id="node10" class="node"><title>Node44</title>
<g id="a_node10"><a xlink:href="_potentiometer_8cpp.html" target="_top" xlink:title="interface/analog/Potentiometer.cpp">
<polygon fill="white" stroke="black" points="0,-7 0,-28 199,-28 199,-7 0,-7"/>
<text text-anchor="middle" x="99.5" y="-14.4" font-family="Helvetica,sans-Serif" font-size="12.00">interface/analog/Potentiometer.cpp</text>
</a>
</g>
</g>
<!-- Node36&#45;&gt;Node44 -->
<g id="edge21" class="edge"><title>Node36&#45;&gt;Node44</title>
<path fill="none" stroke="midnightblue" d="M399.385,-219.464C332.008,-213.92 218.078,-201.22 184.5,-177 131.32,-138.64 108.191,-56.5577 101.596,-28.298"/>
<polygon fill="midnightblue" stroke="midnightblue" points="399.129,-222.955 409.376,-220.262 399.687,-215.977 399.129,-222.955"/>
</g>
<!-- Node48 -->
<g id="node14" class="node"><title>Node48</title>
<g id="a_node14"><a xlink:href="interface_2digital_2input_2encoders_2_encoders_8h.html" target="_top" xlink:title="interface/digital/input\l/encoders/Encoders.h">
<polygon fill="white" stroke="black" points="569,-142.5 569,-176.5 700,-176.5 700,-142.5 569,-142.5"/>
<text text-anchor="start" x="577" y="-162.9" font-family="Helvetica,sans-Serif" font-size="12.00">interface/digital/input</text>
<text text-anchor="middle" x="634.5" y="-149.9" font-family="Helvetica,sans-Serif" font-size="12.00">/encoders/Encoders.h</text>
</a>
</g>
</g>
<!-- Node36&#45;&gt;Node48 -->
<g id="edge17" class="edge"><title>Node36&#45;&gt;Node48</title>
<path fill="none" stroke="midnightblue" d="M488.483,-210.098C517.088,-200.382 556.482,-187.001 587.143,-176.586"/>
<polygon fill="midnightblue" stroke="midnightblue" points="487.19,-206.841 478.847,-213.371 489.441,-213.469 487.19,-206.841"/>
</g>
<!-- Node50 -->
<g id="node16" class="node"><title>Node50</title>
<g id="a_node16"><a xlink:href="_open_deck_8cpp.html" target="_top" xlink:title="OpenDeck.cpp">
<polygon fill="white" stroke="black" points="275,-149 275,-170 370,-170 370,-149 275,-149"/>
<text text-anchor="middle" x="322.5" y="-156.4" font-family="Helvetica,sans-Serif" font-size="12.00">OpenDeck.cpp</text>
</a>
</g>
</g>
<!-- Node36&#45;&gt;Node50 -->
<g id="edge22" class="edge"><title>Node36&#45;&gt;Node50</title>
<path fill="none" stroke="midnightblue" d="M421.674,-208.925C397.372,-197.058 363.253,-180.399 342.032,-170.037"/>
<polygon fill="midnightblue" stroke="midnightblue" points="420.259,-212.129 430.781,-213.371 423.33,-205.838 420.259,-212.129"/>
</g>
<!-- Node38&#45;&gt;Node36 -->
<g id="edge4" class="edge"><title>Node38&#45;&gt;Node36</title>
<path fill="none" stroke="midnightblue" d="M736.742,-172.534C730.359,-174.111 723.774,-175.646 717.5,-177 638.335,-194.082 544.527,-209.648 491.686,-217.548"/>
<polygon fill="midnightblue" stroke="midnightblue" points="737.703,-175.901 746.531,-170.043 735.976,-169.117 737.703,-175.901"/>
</g>
<!-- Node39 -->
<g id="node5" class="node"><title>Node39</title>
<g id="a_node5"><a xlink:href="_sys_ex_8cpp.html" target="_top" xlink:title="sysex/src/SysEx.cpp">
<polygon fill="white" stroke="black" points="873,-78 873,-99 996,-99 996,-78 873,-78"/>
<text text-anchor="middle" x="934.5" y="-85.4" font-family="Helvetica,sans-Serif" font-size="12.00">sysex/src/SysEx.cpp</text>
</a>
</g>
</g>
<!-- Node38&#45;&gt;Node39 -->
<g id="edge5" class="edge"><title>Node38&#45;&gt;Node39</title>
<path fill="none" stroke="midnightblue" d="M805.137,-144.941C836.744,-131.395 884.519,-110.921 912.304,-99.0127"/>
<polygon fill="midnightblue" stroke="midnightblue" points="803.699,-141.75 795.886,-148.906 806.457,-148.184 803.699,-141.75"/>
</g>
<!-- Node40&#45;&gt;Node41 -->
<g id="edge7" class="edge"><title>Node40&#45;&gt;Node41</title>
<path fill="none" stroke="midnightblue" d="M393.942,-139.085C355.853,-126.009 307.278,-109.334 277.29,-99.0398"/>
<polygon fill="midnightblue" stroke="midnightblue" points="393.287,-142.56 403.881,-142.497 395.56,-135.939 393.287,-142.56"/>
</g>
<!-- Node45 -->
<g id="node11" class="node"><title>Node45</title>
<g id="a_node11"><a xlink:href="_digital_input_8h.html" target="_top" xlink:title="interface/digital/input\l/DigitalInput.h">
<polygon fill="white" stroke="black" points="568.5,-71.5 568.5,-105.5 692.5,-105.5 692.5,-71.5 568.5,-71.5"/>
<text text-anchor="start" x="576.5" y="-91.9" font-family="Helvetica,sans-Serif" font-size="12.00">interface/digital/input</text>
<text text-anchor="middle" x="630.5" y="-78.9" font-family="Helvetica,sans-Serif" font-size="12.00">/DigitalInput.h</text>
</a>
</g>
</g>
<!-- Node40&#45;&gt;Node45 -->
<g id="edge12" class="edge"><title>Node40&#45;&gt;Node45</title>
<path fill="none" stroke="midnightblue" d="M501.71,-138.869C529.229,-128.321 562.731,-115.478 588.667,-105.536"/>
<polygon fill="midnightblue" stroke="midnightblue" points="500.333,-135.649 492.248,-142.497 502.838,-142.185 500.333,-135.649"/>
</g>
<!-- Node47 -->
<g id="node13" class="node"><title>Node47</title>
<g id="a_node13"><a xlink:href="interface_2digital_2input_2buttons_2_buttons_8cpp.html" target="_top" xlink:title="interface/digital/input\l/buttons/Buttons.cpp">
<polygon fill="white" stroke="black" points="388.5,-71.5 388.5,-105.5 512.5,-105.5 512.5,-71.5 388.5,-71.5"/>
<text text-anchor="start" x="396.5" y="-91.9" font-family="Helvetica,sans-Serif" font-size="12.00">interface/digital/input</text>
<text text-anchor="middle" x="450.5" y="-78.9" font-family="Helvetica,sans-Serif" font-size="12.00">/buttons/Buttons.cpp</text>
</a>
</g>
</g>
<!-- Node40&#45;&gt;Node47 -->
<g id="edge15" class="edge"><title>Node40&#45;&gt;Node47</title>
<path fill="none" stroke="midnightblue" d="M450.5,-132.247C450.5,-123.392 450.5,-113.767 450.5,-105.896"/>
<polygon fill="midnightblue" stroke="midnightblue" points="447,-132.497 450.5,-142.497 454,-132.497 447,-132.497"/>
</g>
<!-- Node41&#45;&gt;Node35 -->
<g id="edge8" class="edge"><title>Node41&#45;&gt;Node35</title>
<path fill="none" stroke="midnightblue" d="M221.064,-104.419C207.305,-113.313 192.143,-126.002 184.5,-142 177.794,-156.036 175.729,-164.153 184.5,-177 230.702,-244.671 328.093,-268.313 391.336,-276.57"/>
<polygon fill="midnightblue" stroke="midnightblue" points="223.066,-107.299 229.809,-99.1269 219.442,-101.31 223.066,-107.299"/>
</g>
<!-- Node42 -->
<g id="node8" class="node"><title>Node42</title>
<g id="a_node8"><a xlink:href="interface_2analog_2_analog_8cpp.html" target="_top" xlink:title="interface/analog/Analog.cpp">
<polygon fill="white" stroke="black" points="217.5,-7 217.5,-28 379.5,-28 379.5,-7 217.5,-7"/>
<text text-anchor="middle" x="298.5" y="-14.4" font-family="Helvetica,sans-Serif" font-size="12.00">interface/analog/Analog.cpp</text>
</a>
</g>
</g>
<!-- Node41&#45;&gt;Node42 -->
<g id="edge9" class="edge"><title>Node41&#45;&gt;Node42</title>
<path fill="none" stroke="midnightblue" d="M262.26,-69.5322C271.691,-56.2509 284.163,-38.6887 291.745,-28.0127"/>
<polygon fill="midnightblue" stroke="midnightblue" points="259.25,-67.726 256.313,-77.9058 264.957,-71.7791 259.25,-67.726"/>
</g>
<!-- Node41&#45;&gt;Node43 -->
<g id="edge10" class="edge"><title>Node41&#45;&gt;Node43</title>
<path fill="none" stroke="midnightblue" d="M290.61,-74.893C334.703,-61.3709 403.73,-40.2028 443.48,-28.0127"/>
<polygon fill="midnightblue" stroke="midnightblue" points="289.32,-71.6277 280.785,-77.9058 291.372,-78.3201 289.32,-71.6277"/>
</g>
<!-- Node41&#45;&gt;Node44 -->
<g id="edge11" class="edge"><title>Node41&#45;&gt;Node44</title>
<path fill="none" stroke="midnightblue" d="M219.26,-73.5896C189.811,-60.043 145.843,-39.8179 120.18,-28.0127"/>
<polygon fill="midnightblue" stroke="midnightblue" points="218.096,-76.9065 228.643,-77.9058 221.021,-70.547 218.096,-76.9065"/>
</g>
<!-- Node45&#45;&gt;Node35 -->
<g id="edge13" class="edge"><title>Node45&#45;&gt;Node35</title>
<path fill="none" stroke="midnightblue" d="M702.572,-106.694C761.447,-120.906 835.318,-139.195 837.5,-142 847.052,-154.277 846.965,-164.655 837.5,-177 797.761,-228.828 608.154,-260.574 509.88,-273.817"/>
<polygon fill="midnightblue" stroke="midnightblue" points="703.063,-103.212 692.521,-104.272 701.423,-110.017 703.063,-103.212"/>
</g>
<!-- Node46 -->
<g id="node12" class="node"><title>Node46</title>
<g id="a_node12"><a xlink:href="_digital_input_8cpp.html" target="_top" xlink:title="interface/digital/input\l/DigitalInput.cpp">
<polygon fill="white" stroke="black" points="568.5,-0.5 568.5,-34.5 692.5,-34.5 692.5,-0.5 568.5,-0.5"/>
<text text-anchor="start" x="576.5" y="-20.9" font-family="Helvetica,sans-Serif" font-size="12.00">interface/digital/input</text>
<text text-anchor="middle" x="630.5" y="-7.9" font-family="Helvetica,sans-Serif" font-size="12.00">/DigitalInput.cpp</text>
</a>
</g>
</g>
<!-- Node45&#45;&gt;Node46 -->
<g id="edge14" class="edge"><title>Node45&#45;&gt;Node46</title>
<path fill="none" stroke="midnightblue" d="M630.5,-61.2468C630.5,-52.3917 630.5,-42.7667 630.5,-34.8958"/>
<polygon fill="midnightblue" stroke="midnightblue" points="627,-61.4965 630.5,-71.4966 634,-61.4966 627,-61.4965"/>
</g>
<!-- Node48&#45;&gt;Node45 -->
<g id="edge18" class="edge"><title>Node48&#45;&gt;Node45</title>
<path fill="none" stroke="midnightblue" d="M632.978,-132.247C632.465,-123.392 631.907,-113.767 631.45,-105.896"/>
<polygon fill="midnightblue" stroke="midnightblue" points="629.499,-132.716 633.572,-142.497 636.488,-132.311 629.499,-132.716"/>
</g>
<!-- Node49 -->
<g id="node15" class="node"><title>Node49</title>
<g id="a_node15"><a xlink:href="interface_2digital_2input_2encoders_2_encoders_8cpp.html" target="_top" xlink:title="interface/digital/input\l/encoders/Encoders.cpp">
<polygon fill="white" stroke="black" points="710.5,-71.5 710.5,-105.5 854.5,-105.5 854.5,-71.5 710.5,-71.5"/>
<text text-anchor="start" x="718.5" y="-91.9" font-family="Helvetica,sans-Serif" font-size="12.00">interface/digital/input</text>
<text text-anchor="middle" x="782.5" y="-78.9" font-family="Helvetica,sans-Serif" font-size="12.00">/encoders/Encoders.cpp</text>
</a>
</g>
</g>
<!-- Node48&#45;&gt;Node49 -->
<g id="edge19" class="edge"><title>Node48&#45;&gt;Node49</title>
<path fill="none" stroke="midnightblue" d="M678.095,-138.175C700.433,-127.761 727.244,-115.261 748.104,-105.536"/>
<polygon fill="midnightblue" stroke="midnightblue" points="676.411,-135.099 668.826,-142.497 679.369,-141.443 676.411,-135.099"/>
</g>
</g>
</svg>
