<?xml version="1.0" encoding="UTF-8" standalone="no"?>
<!DOCTYPE svg PUBLIC "-//W3C//DTD SVG 1.1//EN"
 "http://www.w3.org/Graphics/SVG/1.1/DTD/svg11.dtd">
<!-- Generated by graphviz version 2.38.0 (20140413.2041)
 -->
<!-- Title: interface/Interface.h Pages: 1 -->
<!--zoomable 475 -->
<svg id="main" version="1.1" xmlns="http://www.w3.org/2000/svg" xmlns:xlink="http://www.w3.org/1999/xlink" xml:space="preserve" onload="init(evt)">
<style type="text/css"><![CDATA[
.edge:hover path { stroke: red; }
.edge:hover polygon { stroke: red; fill: red; }
]]></style>
<script type="text/javascript"><![CDATA[
var edges = document.getElementsByTagName('g');
if (edges && edges.length) {
  for (var i=0;i<edges.length;i++) {
    if (edges[i].id.substr(0,4)=='edge') {
      edges[i].setAttribute('class','edge');
    }
  }
}
]]></script>
        <defs>
                <circle id="rim" cx="0" cy="0" r="7"/>
                <circle id="rim2" cx="0" cy="0" r="3.5"/>
                <g id="zoomPlus">
                        <use xlink:href="#rim" fill="#404040">
                                <set attributeName="fill" to="#808080" begin="zoomplus.mouseover" end="zoomplus.mouseout"/>
                        </use>
                        <path d="M-4,0h8M0,-4v8" fill="none" stroke="white" stroke-width="1.5" pointer-events="none"/>
                </g>
                <g id="zoomMin">
                        <use xlink:href="#rim" fill="#404040">
                                <set attributeName="fill" to="#808080" begin="zoomminus.mouseover" end="zoomminus.mouseout"/>
                        </use>
                        <path d="M-4,0h8" fill="none" stroke="white" stroke-width="1.5" pointer-events="none"/>
                </g>
                <g id="dirArrow">
                        <path fill="none" stroke="white" stroke-width="1.5" d="M0,-3.0v7 M-2.5,-0.5L0,-3.0L2.5,-0.5"/>
                </g>
               <g id="resetDef">
                       <use xlink:href="#rim2" fill="#404040">
                               <set attributeName="fill" to="#808080" begin="reset.mouseover" end="reset.mouseout"/>
                       </use>
               </g>
        </defs>

<script type="text/javascript">
var viewWidth = 916;
var viewHeight = 475;
var sectionId = 'dynsection-0';
</script>
<script xlink:href="svgpan.js"/>
<svg id="graph" class="graph">
<g id="viewport">
<title>interface/Interface.h</title>
<polygon fill="white" stroke="none" points="-4,4 -4,-471 912,-471 912,4 -4,4"/>
<!-- Node0 -->
<g id="node1" class="node"><title>Node0</title>
<polygon fill="#bfbfbf" stroke="black" points="521.5,-445.5 521.5,-466.5 639.5,-466.5 639.5,-445.5 521.5,-445.5"/>
<text text-anchor="middle" x="580.5" y="-452.9" font-family="Helvetica,sans-Serif" font-size="12.00">interface/Interface.h</text>
</g>
<!-- Node1 -->
<g id="node2" class="node"><title>Node1</title>
<g id="a_node2"><a xlink:href="interface_2analog_2_analog_8h.html" target="_top" xlink:title="analog/Analog.h">
<polygon fill="white" stroke="black" points="381,-381 381,-402 482,-402 482,-381 381,-381"/>
<text text-anchor="middle" x="431.5" y="-388.4" font-family="Helvetica,sans-Serif" font-size="12.00">analog/Analog.h</text>
</a>
</g>
</g>
<!-- Node0&#45;&gt;Node1 -->
<g id="edge1" class="edge"><title>Node0&#45;&gt;Node1</title>
<path fill="none" stroke="midnightblue" d="M557.545,-445.371C532.426,-434.835 491.971,-417.865 463.688,-406.002"/>
<polygon fill="midnightblue" stroke="midnightblue" points="464.812,-402.678 454.236,-402.037 462.104,-409.133 464.812,-402.678"/>
</g>
<!-- Node29 -->
<g id="node30" class="node"><title>Node29</title>
<g id="a_node30"><a xlink:href="_digital_input_8h.html" target="_top" xlink:title="digital/input/DigitalInput.h">
<polygon fill="white" stroke="black" points="758.5,-381 758.5,-402 904.5,-402 904.5,-381 758.5,-381"/>
<text text-anchor="middle" x="831.5" y="-388.4" font-family="Helvetica,sans-Serif" font-size="12.00">digital/input/DigitalInput.h</text>
</a>
</g>
</g>
<!-- Node0&#45;&gt;Node29 -->
<g id="edge37" class="edge"><title>Node0&#45;&gt;Node29</title>
<path fill="none" stroke="midnightblue" d="M618.895,-445.44C662.999,-434.457 735.424,-416.423 783.288,-404.505"/>
<polygon fill="midnightblue" stroke="midnightblue" points="784.252,-407.872 793.11,-402.059 782.56,-401.079 784.252,-407.872"/>
</g>
<!-- Node32 -->
<g id="node33" class="node"><title>Node32</title>
<g id="a_node33"><a xlink:href="interface_2digital_2output_2leds_2_l_e_ds_8h.html" target="_top" xlink:title="digital/output/leds\l/LEDs.h">
<polygon fill="white" stroke="black" points="109,-374.5 109,-408.5 216,-408.5 216,-374.5 109,-374.5"/>
<text text-anchor="start" x="117" y="-394.9" font-family="Helvetica,sans-Serif" font-size="12.00">digital/output/leds</text>
<text text-anchor="middle" x="162.5" y="-381.9" font-family="Helvetica,sans-Serif" font-size="12.00">/LEDs.h</text>
</a>
</g>
</g>
<!-- Node0&#45;&gt;Node32 -->
<g id="edge42" class="edge"><title>Node0&#45;&gt;Node32</title>
<path fill="none" stroke="midnightblue" d="M521.497,-446.178C443.481,-434.513 306.528,-414.035 226.218,-402.027"/>
<polygon fill="midnightblue" stroke="midnightblue" points="226.641,-398.552 216.233,-400.534 225.605,-405.475 226.641,-398.552"/>
</g>
<!-- Node2 -->
<g id="node3" class="node"><title>Node2</title>
<g id="a_node3"><a xlink:href="_board_8h.html" target="_top" xlink:title="../../board/Board.h">
<polygon fill="white" stroke="black" points="148.5,-310 148.5,-331 258.5,-331 258.5,-310 148.5,-310"/>
<text text-anchor="middle" x="203.5" y="-317.4" font-family="Helvetica,sans-Serif" font-size="12.00">../../board/Board.h</text>
</a>
</g>
</g>
<!-- Node1&#45;&gt;Node2 -->
<g id="edge2" class="edge"><title>Node1&#45;&gt;Node2</title>
<path fill="none" stroke="midnightblue" d="M399.798,-380.906C359.3,-368.65 289.134,-347.416 244.579,-333.932"/>
<polygon fill="midnightblue" stroke="midnightblue" points="245.518,-330.559 234.933,-331.013 243.491,-337.259 245.518,-330.559"/>
</g>
<!-- Node3 -->
<g id="node4" class="node"><title>Node3</title>
<g id="a_node4"><a xlink:href="interface_2digital_2input_2buttons_2_buttons_8h.html" target="_top" xlink:title="../digital/input/buttons\l/Buttons.h">
<polygon fill="white" stroke="black" points="577,-303.5 577,-337.5 702,-337.5 702,-303.5 577,-303.5"/>
<text text-anchor="start" x="585" y="-323.9" font-family="Helvetica,sans-Serif" font-size="12.00">../digital/input/buttons</text>
<text text-anchor="middle" x="639.5" y="-310.9" font-family="Helvetica,sans-Serif" font-size="12.00">/Buttons.h</text>
</a>
</g>
</g>
<!-- Node1&#45;&gt;Node3 -->
<g id="edge3" class="edge"><title>Node1&#45;&gt;Node3</title>
<path fill="none" stroke="midnightblue" d="M460.422,-380.906C491.602,-370.562 542.061,-353.823 581.483,-340.746"/>
<polygon fill="midnightblue" stroke="midnightblue" points="582.86,-343.977 591.25,-337.506 580.656,-337.333 582.86,-343.977"/>
</g>
<!-- Node5 -->
<g id="node6" class="node"><title>Node5</title>
<g id="a_node6"><a xlink:href="_open_deck_8h.html" target="_top" xlink:title="../../../../OpenDeck.h">
<polygon fill="white" stroke="black" points="662.5,-245.5 662.5,-266.5 780.5,-266.5 780.5,-245.5 662.5,-245.5"/>
<text text-anchor="middle" x="721.5" y="-252.9" font-family="Helvetica,sans-Serif" font-size="12.00">../../../../OpenDeck.h</text>
</a>
</g>
</g>
<!-- Node1&#45;&gt;Node5 -->
<g id="edge36" class="edge"><title>Node1&#45;&gt;Node5</title>
<path fill="none" stroke="midnightblue" d="M452.388,-380.97C472.614,-371.339 503.767,-355.425 528.5,-338 547.539,-324.587 547.183,-314.386 567.5,-303 595.806,-287.136 630.173,-276.192 659.254,-268.973"/>
<polygon fill="midnightblue" stroke="midnightblue" points="660.388,-272.3 669.301,-266.572 658.762,-265.492 660.388,-272.3"/>
</g>
<!-- Node6 -->
<g id="node7" class="node"><title>Node6</title>
<g id="a_node7"><a xlink:href="database_2_database_8h.html" target="_top" xlink:title="database/Database.h">
<polygon fill="white" stroke="black" points="221.5,-181 221.5,-202 351.5,-202 351.5,-181 221.5,-181"/>
<text text-anchor="middle" x="286.5" y="-188.4" font-family="Helvetica,sans-Serif" font-size="12.00">database/Database.h</text>
</a>
</g>
</g>
<!-- Node1&#45;&gt;Node6 -->
<g id="edge31" class="edge"><title>Node1&#45;&gt;Node6</title>
<path fill="none" stroke="midnightblue" d="M401.652,-380.838C380.47,-372.565 352.828,-358.673 335.5,-338 304.224,-300.686 292.634,-242.543 288.56,-212.294"/>
<polygon fill="midnightblue" stroke="midnightblue" points="292.011,-211.677 287.341,-202.167 285.061,-212.514 292.011,-211.677"/>
</g>
<!-- Node26 -->
<g id="node27" class="node"><title>Node26</title>
<g id="a_node27"><a xlink:href="interface_2analog_2_data_types_8h.html" target="_top" xlink:title="DataTypes.h">
<polygon fill="white" stroke="black" points="437,-310 437,-331 520,-331 520,-310 437,-310"/>
<text text-anchor="middle" x="478.5" y="-317.4" font-family="Helvetica,sans-Serif" font-size="12.00">DataTypes.h</text>
</a>
</g>
</g>
<!-- Node1&#45;&gt;Node26 -->
<g id="edge32" class="edge"><title>Node1&#45;&gt;Node26</title>
<path fill="none" stroke="midnightblue" d="M438.035,-380.906C445.331,-370.195 457.298,-352.626 466.33,-339.367"/>
<polygon fill="midnightblue" stroke="midnightblue" points="469.283,-341.248 472.02,-331.013 463.498,-337.307 469.283,-341.248"/>
</g>
<!-- Node27 -->
<g id="node28" class="node"><title>Node27</title>
<g id="a_node28"><a xlink:href="interface_2analog_2_config_8h.html" target="_top" xlink:title="Config.h">
<polygon fill="white" stroke="black" points="334.5,-245.5 334.5,-266.5 394.5,-266.5 394.5,-245.5 334.5,-245.5"/>
<text text-anchor="middle" x="364.5" y="-252.9" font-family="Helvetica,sans-Serif" font-size="12.00">Config.h</text>
</a>
</g>
</g>
<!-- Node1&#45;&gt;Node27 -->
<g id="edge33" class="edge"><title>Node1&#45;&gt;Node27</title>
<path fill="none" stroke="midnightblue" d="M400.373,-380.927C380.247,-372.936 355.623,-359.348 343.5,-338 332.346,-318.358 342.488,-292.696 352.171,-275.572"/>
<polygon fill="midnightblue" stroke="midnightblue" points="355.433,-276.945 357.655,-266.586 349.458,-273.299 355.433,-276.945"/>
</g>
<!-- Node28 -->
<g id="node29" class="node"><title>Node28</title>
<g id="a_node29"><a xlink:href="interface_2analog_2_helpers_8h.html" target="_top" xlink:title="Helpers.h">
<polygon fill="white" stroke="black" points="352.5,-310 352.5,-331 418.5,-331 418.5,-310 352.5,-310"/>
<text text-anchor="middle" x="385.5" y="-317.4" font-family="Helvetica,sans-Serif" font-size="12.00">Helpers.h</text>
</a>
</g>
</g>
<!-- Node1&#45;&gt;Node28 -->
<g id="edge34" class="edge"><title>Node1&#45;&gt;Node28</title>
<path fill="none" stroke="midnightblue" d="M425.104,-380.906C417.963,-370.195 406.251,-352.626 397.411,-339.367"/>
<polygon fill="midnightblue" stroke="midnightblue" points="400.301,-337.392 391.842,-331.013 394.477,-341.275 400.301,-337.392"/>
</g>
<!-- Node4 -->
<g id="node5" class="node"><title>Node4</title>
<g id="a_node5"><a xlink:href="interface_2digital_2input_2buttons_2_data_types_8h.html" target="_top" xlink:title="DataTypes.h">
<polygon fill="white" stroke="black" points="561,-245.5 561,-266.5 644,-266.5 644,-245.5 561,-245.5"/>
<text text-anchor="middle" x="602.5" y="-252.9" font-family="Helvetica,sans-Serif" font-size="12.00">DataTypes.h</text>
</a>
</g>
</g>
<!-- Node3&#45;&gt;Node4 -->
<g id="edge4" class="edge"><title>Node3&#45;&gt;Node4</title>
<path fill="none" stroke="midnightblue" d="M629.972,-303.405C624.94,-294.905 618.74,-284.432 613.504,-275.587"/>
<polygon fill="midnightblue" stroke="midnightblue" points="616.408,-273.622 608.302,-266.8 610.384,-277.188 616.408,-273.622"/>
</g>
<!-- Node3&#45;&gt;Node5 -->
<g id="edge5" class="edge"><title>Node3&#45;&gt;Node5</title>
<path fill="none" stroke="midnightblue" d="M660.617,-303.405C672.836,-294.091 688.164,-282.408 700.383,-273.095"/>
<polygon fill="midnightblue" stroke="midnightblue" points="702.811,-275.646 708.642,-266.8 698.568,-270.078 702.811,-275.646"/>
</g>
<!-- Node5&#45;&gt;Node0 -->
<g id="edge24" class="edge"><title>Node5&#45;&gt;Node0</title>
<path fill="none" stroke="midnightblue" d="M722.408,-266.62C723.464,-282.472 723.724,-314.652 711.5,-338 687.403,-384.026 637.357,-420.612 606.575,-439.936"/>
<polygon fill="midnightblue" stroke="midnightblue" points="604.395,-437.167 597.69,-445.37 608.047,-443.138 604.395,-437.167"/>
</g>
<!-- Node5&#45;&gt;Node6 -->
<g id="edge6" class="edge"><title>Node5&#45;&gt;Node6</title>
<path fill="none" stroke="midnightblue" d="M662.406,-246.43C659.055,-245.946 655.735,-245.466 652.5,-245 551.921,-230.498 435.779,-213.856 361.782,-203.266"/>
<polygon fill="midnightblue" stroke="midnightblue" points="362.021,-199.765 351.626,-201.813 361.03,-206.694 362.021,-199.765"/>
</g>
<!-- Node17 -->
<g id="node18" class="node"><title>Node17</title>
<g id="a_node18"><a xlink:href="_sys_ex_8h.html" target="_top" xlink:title="sysex/src/SysEx.h">
<polygon fill="white" stroke="black" points="666.5,-181 666.5,-202 776.5,-202 776.5,-181 666.5,-181"/>
<text text-anchor="middle" x="721.5" y="-188.4" font-family="Helvetica,sans-Serif" font-size="12.00">sysex/src/SysEx.h</text>
</a>
</g>
</g>
<!-- Node5&#45;&gt;Node17 -->
<g id="edge17" class="edge"><title>Node5&#45;&gt;Node17</title>
<path fill="none" stroke="midnightblue" d="M716.438,-245.234C714.757,-236.48 714.331,-223.365 715.162,-212.404"/>
<polygon fill="midnightblue" stroke="midnightblue" points="718.645,-212.76 716.411,-202.403 711.699,-211.892 718.645,-212.76"/>
</g>
<!-- Node20 -->
<g id="node21" class="node"><title>Node20</title>
<g id="a_node21"><a xlink:href="_version_8h.html" target="_top" xlink:title="versioning/src/avr\l/Version.h">
<polygon fill="white" stroke="black" points="801,-174.5 801,-208.5 908,-208.5 908,-174.5 801,-174.5"/>
<text text-anchor="start" x="809" y="-194.9" font-family="Helvetica,sans-Serif" font-size="12.00">versioning/src/avr</text>
<text text-anchor="middle" x="854.5" y="-181.9" font-family="Helvetica,sans-Serif" font-size="12.00">/Version.h</text>
</a>
</g>
</g>
<!-- Node5&#45;&gt;Node20 -->
<g id="edge22" class="edge"><title>Node5&#45;&gt;Node20</title>
<path fill="none" stroke="midnightblue" d="M741.99,-245.371C760.306,-236.764 787.756,-223.865 810.957,-212.962"/>
<polygon fill="midnightblue" stroke="midnightblue" points="812.708,-216.007 820.269,-208.586 809.73,-209.671 812.708,-216.007"/>
</g>
<!-- Node22 -->
<g id="node23" class="node"><title>Node22</title>
<g id="a_node23"><a xlink:href="midi_2src_2_m_i_d_i_8h.html" target="_top" xlink:title="midi/src/MIDI.h">
<polygon fill="white" stroke="black" points="555,-181 555,-202 648,-202 648,-181 555,-181"/>
<text text-anchor="middle" x="601.5" y="-188.4" font-family="Helvetica,sans-Serif" font-size="12.00">midi/src/MIDI.h</text>
</a>
</g>
</g>
<!-- Node5&#45;&gt;Node22 -->
<g id="edge25" class="edge"><title>Node5&#45;&gt;Node22</title>
<path fill="none" stroke="midnightblue" d="M703.013,-245.371C683.224,-235.065 651.618,-218.603 628.929,-206.786"/>
<polygon fill="midnightblue" stroke="midnightblue" points="630.297,-203.552 619.811,-202.037 627.063,-209.761 630.297,-203.552"/>
</g>
<!-- Node7 -->
<g id="node8" class="node"><title>Node7</title>
<g id="a_node8"><a xlink:href="_d_b_m_s_8h.html" target="_top" xlink:title="../dbms/src/DBMS.h">
<polygon fill="white" stroke="black" points="95,-116.5 95,-137.5 216,-137.5 216,-116.5 95,-116.5"/>
<text text-anchor="middle" x="155.5" y="-123.9" font-family="Helvetica,sans-Serif" font-size="12.00">../dbms/src/DBMS.h</text>
</a>
</g>
</g>
<!-- Node6&#45;&gt;Node7 -->
<g id="edge7" class="edge"><title>Node6&#45;&gt;Node7</title>
<path fill="none" stroke="midnightblue" d="M266.318,-180.871C244.523,-170.473 209.595,-153.809 184.782,-141.97"/>
<polygon fill="midnightblue" stroke="midnightblue" points="186.022,-138.684 175.49,-137.537 183.008,-145.002 186.022,-138.684"/>
</g>
<!-- Node10 -->
<g id="node11" class="node"><title>Node10</title>
<g id="a_node11"><a xlink:href="database_2blocks_2_blocks_8h.html" target="_top" xlink:title="blocks/Blocks.h">
<polygon fill="white" stroke="black" points="267.5,-116.5 267.5,-137.5 365.5,-137.5 365.5,-116.5 267.5,-116.5"/>
<text text-anchor="middle" x="316.5" y="-123.9" font-family="Helvetica,sans-Serif" font-size="12.00">blocks/Blocks.h</text>
</a>
</g>
</g>
<!-- Node6&#45;&gt;Node10 -->
<g id="edge10" class="edge"><title>Node6&#45;&gt;Node10</title>
<path fill="none" stroke="midnightblue" d="M291.188,-180.734C295.477,-171.797 301.948,-158.316 307.273,-147.222"/>
<polygon fill="midnightblue" stroke="midnightblue" points="310.574,-148.433 311.746,-137.903 304.264,-145.404 310.574,-148.433"/>
</g>
<!-- Node8 -->
<g id="node9" class="node"><title>Node8</title>
<g id="a_node9"><a xlink:href="dbms_2src_2_data_types_8h.html" target="_top" xlink:title="DataTypes.h">
<polygon fill="white" stroke="black" points="61,-58.5 61,-79.5 144,-79.5 144,-58.5 61,-58.5"/>
<text text-anchor="middle" x="102.5" y="-65.9" font-family="Helvetica,sans-Serif" font-size="12.00">DataTypes.h</text>
</a>
</g>
</g>
<!-- Node7&#45;&gt;Node8 -->
<g id="edge8" class="edge"><title>Node7&#45;&gt;Node8</title>
<path fill="none" stroke="midnightblue" d="M146.268,-116.246C138.668,-108.216 127.712,-96.6394 118.663,-87.0781"/>
<polygon fill="midnightblue" stroke="midnightblue" points="121.042,-84.4998 111.626,-79.6427 115.958,-89.3115 121.042,-84.4998"/>
</g>
<!-- Node9 -->
<g id="node10" class="node"><title>Node9</title>
<polygon fill="white" stroke="#bfbfbf" points="70,-0.5 70,-21.5 135,-21.5 135,-0.5 70,-0.5"/>
<text text-anchor="middle" x="102.5" y="-7.9" font-family="Helvetica,sans-Serif" font-size="12.00">inttypes.h</text>
</g>
<!-- Node8&#45;&gt;Node9 -->
<g id="edge9" class="edge"><title>Node8&#45;&gt;Node9</title>
<path fill="none" stroke="midnightblue" d="M102.5,-58.2455C102.5,-50.9382 102.5,-40.6944 102.5,-31.7046"/>
<polygon fill="midnightblue" stroke="midnightblue" points="106,-31.6426 102.5,-21.6427 99.0001,-31.6427 106,-31.6426"/>
</g>
<!-- Node11 -->
<g id="node12" class="node"><title>Node11</title>
<g id="a_node12"><a xlink:href="database_2blocks_2_m_i_d_i_8h.html" target="_top" xlink:title="MIDI.h">
<polygon fill="white" stroke="black" points="217,-58.5 217,-79.5 266,-79.5 266,-58.5 217,-58.5"/>
<text text-anchor="middle" x="241.5" y="-65.9" font-family="Helvetica,sans-Serif" font-size="12.00">MIDI.h</text>
</a>
</g>
</g>
<!-- Node10&#45;&gt;Node11 -->
<g id="edge11" class="edge"><title>Node10&#45;&gt;Node11</title>
<path fill="none" stroke="midnightblue" d="M303.436,-116.246C292.144,-107.814 275.616,-95.4729 262.473,-85.6598"/>
<polygon fill="midnightblue" stroke="midnightblue" points="264.521,-82.8211 254.414,-79.6427 260.333,-88.4301 264.521,-82.8211"/>
</g>
<!-- Node12 -->
<g id="node13" class="node"><title>Node12</title>
<g id="a_node13"><a xlink:href="database_2blocks_2_buttons_8h.html" target="_top" xlink:title="Buttons.h">
<polygon fill="white" stroke="black" points="284,-58.5 284,-79.5 349,-79.5 349,-58.5 284,-58.5"/>
<text text-anchor="middle" x="316.5" y="-65.9" font-family="Helvetica,sans-Serif" font-size="12.00">Buttons.h</text>
</a>
</g>
</g>
<!-- Node10&#45;&gt;Node12 -->
<g id="edge12" class="edge"><title>Node10&#45;&gt;Node12</title>
<path fill="none" stroke="midnightblue" d="M316.5,-116.246C316.5,-108.938 316.5,-98.6944 316.5,-89.7046"/>
<polygon fill="midnightblue" stroke="midnightblue" points="320,-89.6426 316.5,-79.6427 313,-89.6427 320,-89.6426"/>
</g>
<!-- Node13 -->
<g id="node14" class="node"><title>Node13</title>
<g id="a_node14"><a xlink:href="database_2blocks_2_encoders_8h.html" target="_top" xlink:title="Encoders.h">
<polygon fill="white" stroke="black" points="367.5,-58.5 367.5,-79.5 443.5,-79.5 443.5,-58.5 367.5,-58.5"/>
<text text-anchor="middle" x="405.5" y="-65.9" font-family="Helvetica,sans-Serif" font-size="12.00">Encoders.h</text>
</a>
</g>
</g>
<!-- Node10&#45;&gt;Node13 -->
<g id="edge13" class="edge"><title>Node10&#45;&gt;Node13</title>
<path fill="none" stroke="midnightblue" d="M332.003,-116.246C345.658,-107.653 365.766,-95.0014 381.499,-85.1018"/>
<polygon fill="midnightblue" stroke="midnightblue" points="383.575,-87.9307 390.175,-79.6427 379.847,-82.006 383.575,-87.9307"/>
</g>
<!-- Node14 -->
<g id="node15" class="node"><title>Node14</title>
<g id="a_node15"><a xlink:href="database_2blocks_2_analog_8h.html" target="_top" xlink:title="Analog.h">
<polygon fill="white" stroke="black" points="461.5,-58.5 461.5,-79.5 523.5,-79.5 523.5,-58.5 461.5,-58.5"/>
<text text-anchor="middle" x="492.5" y="-65.9" font-family="Helvetica,sans-Serif" font-size="12.00">Analog.h</text>
</a>
</g>
</g>
<!-- Node10&#45;&gt;Node14 -->
<g id="edge14" class="edge"><title>Node10&#45;&gt;Node14</title>
<path fill="none" stroke="midnightblue" d="M346.755,-116.373C376.148,-107.021 420.929,-92.7725 453.093,-82.5385"/>
<polygon fill="midnightblue" stroke="midnightblue" points="454.171,-85.8685 462.639,-79.5011 452.049,-79.198 454.171,-85.8685"/>
</g>
<!-- Node15 -->
<g id="node16" class="node"><title>Node15</title>
<g id="a_node16"><a xlink:href="database_2blocks_2_l_e_ds_8h.html" target="_top" xlink:title="LEDs.h">
<polygon fill="white" stroke="black" points="541.5,-58.5 541.5,-79.5 597.5,-79.5 597.5,-58.5 541.5,-58.5"/>
<text text-anchor="middle" x="569.5" y="-65.9" font-family="Helvetica,sans-Serif" font-size="12.00">LEDs.h</text>
</a>
</g>
</g>
<!-- Node10&#45;&gt;Node15 -->
<g id="edge15" class="edge"><title>Node10&#45;&gt;Node15</title>
<path fill="none" stroke="midnightblue" d="M365.139,-116.425C406.8,-108.047 468.618,-95.1995 531.21,-80.2232"/>
<polygon fill="midnightblue" stroke="midnightblue" points="532.357,-83.547 541.259,-77.8017 530.717,-76.7418 532.357,-83.547"/>
</g>
<!-- Node16 -->
<g id="node17" class="node"><title>Node16</title>
<g id="a_node17"><a xlink:href="database_2blocks_2_i_d_8h.html" target="_top" xlink:title="ID.h">
<polygon fill="white" stroke="black" points="162,-58.5 162,-79.5 199,-79.5 199,-58.5 162,-58.5"/>
<text text-anchor="middle" x="180.5" y="-65.9" font-family="Helvetica,sans-Serif" font-size="12.00">ID.h</text>
</a>
</g>
</g>
<!-- Node10&#45;&gt;Node16 -->
<g id="edge16" class="edge"><title>Node10&#45;&gt;Node16</title>
<path fill="none" stroke="midnightblue" d="M293.121,-116.373C269.655,-106.711 233.496,-91.8217 208.51,-81.5335"/>
<polygon fill="midnightblue" stroke="midnightblue" points="209.786,-78.2737 199.206,-77.7026 207.12,-84.7465 209.786,-78.2737"/>
</g>
<!-- Node17&#45;&gt;Node5 -->
<g id="edge19" class="edge"><title>Node17&#45;&gt;Node5</title>
<path fill="none" stroke="midnightblue" d="M726.589,-202.403C728.257,-211.203 728.669,-224.33 727.825,-235.268"/>
<polygon fill="midnightblue" stroke="midnightblue" points="724.347,-234.874 726.563,-245.234 731.291,-235.753 724.347,-234.874"/>
</g>
<!-- Node18 -->
<g id="node19" class="node"><title>Node18</title>
<g id="a_node19"><a xlink:href="sysex_2src_2_config_8h.html" target="_top" xlink:title="Config.h">
<polygon fill="white" stroke="black" points="728.5,-58.5 728.5,-79.5 788.5,-79.5 788.5,-58.5 728.5,-58.5"/>
<text text-anchor="middle" x="758.5" y="-65.9" font-family="Helvetica,sans-Serif" font-size="12.00">Config.h</text>
</a>
</g>
</g>
<!-- Node17&#45;&gt;Node18 -->
<g id="edge18" class="edge"><title>Node17&#45;&gt;Node18</title>
<path fill="none" stroke="midnightblue" d="M734.559,-180.947C746.228,-171.526 762.527,-155.96 769.5,-138 775.639,-122.187 771.598,-103.021 766.774,-89.0724"/>
<polygon fill="midnightblue" stroke="midnightblue" points="769.966,-87.623 763.087,-79.5648 763.439,-90.1538 769.966,-87.623"/>
</g>
<!-- Node19 -->
<g id="node20" class="node"><title>Node19</title>
<g id="a_node20"><a xlink:href="sysex_2src_2_data_types_8h.html" target="_top" xlink:title="DataTypes.h">
<polygon fill="white" stroke="black" points="677,-116.5 677,-137.5 760,-137.5 760,-116.5 677,-116.5"/>
<text text-anchor="middle" x="718.5" y="-123.9" font-family="Helvetica,sans-Serif" font-size="12.00">DataTypes.h</text>
</a>
</g>
</g>
<!-- Node17&#45;&gt;Node19 -->
<g id="edge20" class="edge"><title>Node17&#45;&gt;Node19</title>
<path fill="none" stroke="midnightblue" d="M721.031,-180.734C720.611,-171.98 719.982,-158.865 719.455,-147.904"/>
<polygon fill="midnightblue" stroke="midnightblue" points="722.951,-147.724 718.975,-137.903 715.959,-148.06 722.951,-147.724"/>
</g>
<!-- Node19&#45;&gt;Node18 -->
<g id="edge21" class="edge"><title>Node19&#45;&gt;Node18</title>
<path fill="none" stroke="midnightblue" d="M725.467,-116.246C731.031,-108.456 738.978,-97.3308 745.683,-87.9439"/>
<polygon fill="midnightblue" stroke="midnightblue" points="748.648,-89.8144 751.612,-79.6427 742.952,-85.7457 748.648,-89.8144"/>
</g>
<!-- Node21 -->
<g id="node22" class="node"><title>Node21</title>
<g id="a_node22"><a xlink:href="versioning_2src_2avr_2_data_types_8h.html" target="_top" xlink:title="DataTypes.h">
<polygon fill="white" stroke="black" points="817,-116.5 817,-137.5 900,-137.5 900,-116.5 817,-116.5"/>
<text text-anchor="middle" x="858.5" y="-123.9" font-family="Helvetica,sans-Serif" font-size="12.00">DataTypes.h</text>
</a>
</g>
</g>
<!-- Node20&#45;&gt;Node21 -->
<g id="edge23" class="edge"><title>Node20&#45;&gt;Node21</title>
<path fill="none" stroke="midnightblue" d="M855.53,-174.405C856.045,-166.357 856.673,-156.541 857.219,-148.012"/>
<polygon fill="midnightblue" stroke="midnightblue" points="860.727,-148.003 857.873,-137.8 853.741,-147.556 860.727,-148.003"/>
</g>
<!-- Node23 -->
<g id="node24" class="node"><title>Node23</title>
<g id="a_node24"><a xlink:href="midi_2src_2_data_types_8h.html" target="_top" xlink:title="DataTypes.h">
<polygon fill="white" stroke="black" points="537,-116.5 537,-137.5 620,-137.5 620,-116.5 537,-116.5"/>
<text text-anchor="middle" x="578.5" y="-123.9" font-family="Helvetica,sans-Serif" font-size="12.00">DataTypes.h</text>
</a>
</g>
</g>
<!-- Node22&#45;&gt;Node23 -->
<g id="edge26" class="edge"><title>Node22&#45;&gt;Node23</title>
<path fill="none" stroke="midnightblue" d="M597.906,-180.734C594.651,-171.888 589.757,-158.591 585.699,-147.562"/>
<polygon fill="midnightblue" stroke="midnightblue" points="588.883,-146.079 582.144,-137.903 582.313,-148.497 588.883,-146.079"/>
</g>
<!-- Node24 -->
<g id="node25" class="node"><title>Node24</title>
<g id="a_node25"><a xlink:href="midi_2src_2_helpers_8h.html" target="_top" xlink:title="Helpers.h">
<polygon fill="white" stroke="black" points="615.5,-58.5 615.5,-79.5 681.5,-79.5 681.5,-58.5 615.5,-58.5"/>
<text text-anchor="middle" x="648.5" y="-65.9" font-family="Helvetica,sans-Serif" font-size="12.00">Helpers.h</text>
</a>
</g>
</g>
<!-- Node22&#45;&gt;Node24 -->
<g id="edge30" class="edge"><title>Node22&#45;&gt;Node24</title>
<path fill="none" stroke="midnightblue" d="M607.253,-180.699C613.159,-170.345 622.333,-153.416 628.5,-138 634.847,-122.133 640.194,-103.47 643.757,-89.7134"/>
<polygon fill="midnightblue" stroke="midnightblue" points="647.186,-90.4309 646.218,-79.8803 640.395,-88.7315 647.186,-90.4309"/>
</g>
<!-- Node23&#45;&gt;Node24 -->
<g id="edge27" class="edge"><title>Node23&#45;&gt;Node24</title>
<path fill="none" stroke="midnightblue" d="M590.693,-116.246C601.132,-107.894 616.365,-95.7076 628.574,-85.9408"/>
<polygon fill="midnightblue" stroke="midnightblue" points="630.824,-88.6227 636.447,-79.6427 626.452,-83.1566 630.824,-88.6227"/>
</g>
<!-- Node24&#45;&gt;Node9 -->
<g id="edge29" class="edge"><title>Node24&#45;&gt;Node9</title>
<path fill="none" stroke="midnightblue" d="M615.116,-59.5974C612.213,-59.0046 609.311,-58.4605 606.5,-58 436.942,-30.2225 232.342,-18.0409 145.171,-13.8369"/>
<polygon fill="midnightblue" stroke="midnightblue" points="145.287,-10.3385 135.133,-13.3632 144.957,-17.3307 145.287,-10.3385"/>
</g>
<!-- Node25 -->
<g id="node26" class="node"><title>Node25</title>
<polygon fill="white" stroke="#bfbfbf" points="619.5,-0.5 619.5,-21.5 677.5,-21.5 677.5,-0.5 619.5,-0.5"/>
<text text-anchor="middle" x="648.5" y="-7.9" font-family="Helvetica,sans-Serif" font-size="12.00">stddef.h</text>
</g>
<!-- Node24&#45;&gt;Node25 -->
<g id="edge28" class="edge"><title>Node24&#45;&gt;Node25</title>
<path fill="none" stroke="midnightblue" d="M648.5,-58.2455C648.5,-50.9382 648.5,-40.6944 648.5,-31.7046"/>
<polygon fill="midnightblue" stroke="midnightblue" points="652,-31.6426 648.5,-21.6427 645,-31.6427 652,-31.6426"/>
</g>
<!-- Node28&#45;&gt;Node27 -->
<g id="edge35" class="edge"><title>Node28&#45;&gt;Node27</title>
<path fill="none" stroke="midnightblue" d="M382.219,-309.734C379.247,-300.888 374.779,-287.591 371.073,-276.562"/>
<polygon fill="midnightblue" stroke="midnightblue" points="374.33,-275.268 367.828,-266.903 367.695,-277.497 374.33,-275.268"/>
</g>
<!-- Node29&#45;&gt;Node3 -->
<g id="edge38" class="edge"><title>Node29&#45;&gt;Node3</title>
<path fill="none" stroke="midnightblue" d="M804.803,-380.906C776.143,-370.606 729.838,-353.965 693.517,-340.912"/>
<polygon fill="midnightblue" stroke="midnightblue" points="694.633,-337.594 684.039,-337.506 692.266,-344.182 694.633,-337.594"/>
</g>
<!-- Node30 -->
<g id="node31" class="node"><title>Node30</title>
<g id="a_node31"><a xlink:href="interface_2digital_2input_2encoders_2_encoders_8h.html" target="_top" xlink:title="encoders/Encoders.h">
<polygon fill="white" stroke="black" points="767.5,-310 767.5,-331 895.5,-331 895.5,-310 767.5,-310"/>
<text text-anchor="middle" x="831.5" y="-317.4" font-family="Helvetica,sans-Serif" font-size="12.00">encoders/Encoders.h</text>
</a>
</g>
</g>
<!-- Node29&#45;&gt;Node30 -->
<g id="edge39" class="edge"><title>Node29&#45;&gt;Node30</title>
<path fill="none" stroke="midnightblue" d="M831.5,-380.906C831.5,-370.71 831.5,-354.3 831.5,-341.308"/>
<polygon fill="midnightblue" stroke="midnightblue" points="835,-341.013 831.5,-331.013 828,-341.013 835,-341.013"/>
</g>
<!-- Node30&#45;&gt;Node5 -->
<g id="edge41" class="edge"><title>Node30&#45;&gt;Node5</title>
<path fill="none" stroke="midnightblue" d="M814.313,-309.734C796.392,-299.552 768.091,-283.472 747.448,-271.743"/>
<polygon fill="midnightblue" stroke="midnightblue" points="748.99,-268.594 738.567,-266.697 745.532,-274.68 748.99,-268.594"/>
</g>
<!-- Node31 -->
<g id="node32" class="node"><title>Node31</title>
<g id="a_node32"><a xlink:href="interface_2digital_2input_2encoders_2_data_types_8h.html" target="_top" xlink:title="DataTypes.h">
<polygon fill="white" stroke="black" points="799,-245.5 799,-266.5 882,-266.5 882,-245.5 799,-245.5"/>
<text text-anchor="middle" x="840.5" y="-252.9" font-family="Helvetica,sans-Serif" font-size="12.00">DataTypes.h</text>
</a>
</g>
</g>
<!-- Node30&#45;&gt;Node31 -->
<g id="edge40" class="edge"><title>Node30&#45;&gt;Node31</title>
<path fill="none" stroke="midnightblue" d="M832.906,-309.734C834.167,-300.98 836.055,-287.865 837.634,-276.904"/>
<polygon fill="midnightblue" stroke="midnightblue" points="841.113,-277.3 839.074,-266.903 834.184,-276.302 841.113,-277.3"/>
</g>
<!-- Node32&#45;&gt;Node2 -->
<g id="edge47" class="edge"><title>Node32&#45;&gt;Node2</title>
<path fill="none" stroke="midnightblue" d="M172.009,-374.497C178.157,-364.151 186.177,-350.654 192.584,-339.87"/>
<polygon fill="midnightblue" stroke="midnightblue" points="195.613,-341.624 197.713,-331.24 189.595,-338.049 195.613,-341.624"/>
</g>
<!-- Node33 -->
<g id="node34" class="node"><title>Node33</title>
<g id="a_node34"><a xlink:href="interface_2digital_2output_2leds_2_data_types_8h.html" target="_top" xlink:title="DataTypes.h">
<polygon fill="white" stroke="black" points="0,-245.5 0,-266.5 83,-266.5 83,-245.5 0,-245.5"/>
<text text-anchor="middle" x="41.5" y="-252.9" font-family="Helvetica,sans-Serif" font-size="12.00">DataTypes.h</text>
</a>
</g>
</g>
<!-- Node32&#45;&gt;Node33 -->
<g id="edge43" class="edge"><title>Node32&#45;&gt;Node33</title>
<path fill="none" stroke="midnightblue" d="M147.905,-374.397C124.991,-349.116 80.7644,-300.321 57.1911,-274.312"/>
<polygon fill="midnightblue" stroke="midnightblue" points="59.6253,-271.786 50.3163,-266.727 54.4387,-276.487 59.6253,-271.786"/>
</g>
<!-- Node34 -->
<g id="node35" class="node"><title>Node34</title>
<g id="a_node35"><a xlink:href="interface_2digital_2output_2leds_2_constants_8h.html" target="_top" xlink:title="Constants.h">
<polygon fill="white" stroke="black" points="148.5,-245.5 148.5,-266.5 226.5,-266.5 226.5,-245.5 148.5,-245.5"/>
<text text-anchor="middle" x="187.5" y="-252.9" font-family="Helvetica,sans-Serif" font-size="12.00">Constants.h</text>
</a>
</g>
</g>
<!-- Node32&#45;&gt;Node34 -->
<g id="edge45" class="edge"><title>Node32&#45;&gt;Node34</title>
<path fill="none" stroke="midnightblue" d="M151.992,-374.227C141.823,-356.296 129.328,-326.837 139.5,-303 144.616,-291.012 154.558,-280.65 164.073,-272.811"/>
<polygon fill="midnightblue" stroke="midnightblue" points="166.38,-275.453 172.193,-266.595 162.125,-269.895 166.38,-275.453"/>
</g>
<!-- Node33&#45;&gt;Node9 -->
<g id="edge44" class="edge"><title>Node33&#45;&gt;Node9</title>
<path fill="none" stroke="midnightblue" d="M39.522,-245.352C33.9263,-215.639 20.3267,-123.567 51.5,-58 57.2598,-45.8854 67.8063,-35.5349 77.8202,-27.7376"/>
<polygon fill="midnightblue" stroke="midnightblue" points="79.9543,-30.5134 85.9898,-21.8057 75.8415,-24.8491 79.9543,-30.5134"/>
</g>
<!-- Node34&#45;&gt;Node6 -->
<g id="edge46" class="edge"><title>Node34&#45;&gt;Node6</title>
<path fill="none" stroke="midnightblue" d="M202.969,-245.234C218.952,-235.144 244.11,-219.261 262.643,-207.561"/>
<polygon fill="midnightblue" stroke="midnightblue" points="264.552,-210.495 271.14,-202.197 260.816,-204.576 264.552,-210.495"/>
</g>
</g>
</svg>
        <g id="navigator" transform="translate(0 0)" fill="#404254">
                <rect fill="#f2f5e9" fill-opacity="0.5" stroke="#606060" stroke-width=".5" x="0" y="0" width="60" height="60"/>
                <use id="zoomplus" xlink:href="#zoomPlus" x="17" y="9" onmousedown="handleZoom(evt,'in')"/>
                <use id="zoomminus" xlink:href="#zoomMin" x="42" y="9" onmousedown="handleZoom(evt,'out')"/>
                <use id="reset" xlink:href="#resetDef" x="30" y="36" onmousedown="handleReset()"/>
                <g id="arrowUp" xlink:href="#dirArrow" transform="translate(30 24)" onmousedown="handlePan(0,-1)">
                  <use xlink:href="#rim" fill="#404040">
                        <set attributeName="fill" to="#808080" begin="arrowUp.mouseover" end="arrowUp.mouseout"/>
                  </use>
                  <path fill="none" stroke="white" stroke-width="1.5" d="M0,-3.0v7 M-2.5,-0.5L0,-3.0L2.5,-0.5"/>
                </g>
                <g id="arrowRight" xlink:href="#dirArrow" transform="rotate(90) translate(36 -43)" onmousedown="handlePan(1,0)">
                  <use xlink:href="#rim" fill="#404040">
                        <set attributeName="fill" to="#808080" begin="arrowRight.mouseover" end="arrowRight.mouseout"/>
                  </use>
                  <path fill="none" stroke="white" stroke-width="1.5" d="M0,-3.0v7 M-2.5,-0.5L0,-3.0L2.5,-0.5"/>
                </g>
                <g id="arrowDown" xlink:href="#dirArrow" transform="rotate(180) translate(-30 -48)" onmousedown="handlePan(0,1)">
                  <use xlink:href="#rim" fill="#404040">
                        <set attributeName="fill" to="#808080" begin="arrowDown.mouseover" end="arrowDown.mouseout"/>
                  </use>
                  <path fill="none" stroke="white" stroke-width="1.5" d="M0,-3.0v7 M-2.5,-0.5L0,-3.0L2.5,-0.5"/>
                </g>
                <g id="arrowLeft" xlink:href="#dirArrow" transform="rotate(270) translate(-36 17)" onmousedown="handlePan(-1,0)">
                  <use xlink:href="#rim" fill="#404040">
                        <set attributeName="fill" to="#808080" begin="arrowLeft.mouseover" end="arrowLeft.mouseout"/>
                  </use>
                  <path fill="none" stroke="white" stroke-width="1.5" d="M0,-3.0v7 M-2.5,-0.5L0,-3.0L2.5,-0.5"/>
                </g>
        </g>
        <svg viewBox="0 0 15 15" width="100%" height="30px" preserveAspectRatio="xMaxYMin meet">
         <g id="arrow_out" transform="scale(0.3 0.3)">
          <a xlink:href="_interface_8h__incl_org.svg" target="_base">
           <rect id="button" ry="5" rx="5" y="6" x="6" height="38" width="38"
                fill="#f2f5e9" fill-opacity="0.5" stroke="#606060" stroke-width="1.0"/>
           <path id="arrow"
             d="M 11.500037,31.436501 C 11.940474,20.09759 22.043105,11.32322 32.158766,21.979434 L 37.068811,17.246167 C 37.068811,17.246167 37.088388,32 37.088388,32 L 22.160133,31.978069 C 22.160133,31.978069 26.997745,27.140456 26.997745,27.140456 C 18.528582,18.264221 13.291696,25.230495 11.500037,31.436501 z"
             style="fill:#404040;"/>
          </a>
         </g>
        </svg>
</svg>
