<?xml version="1.0" encoding="UTF-8" standalone="no"?>
<!DOCTYPE svg PUBLIC "-//W3C//DTD SVG 1.1//EN"
 "http://www.w3.org/Graphics/SVG/1.1/DTD/svg11.dtd">
<!-- Generated by graphviz version 2.38.0 (20140413.2041)
 -->
<!-- Title: midi/src/MIDI.cpp Pages: 1 -->
<svg width="157pt" height="262pt"
 viewBox="0.00 0.00 157.00 262.00" xmlns="http://www.w3.org/2000/svg" xmlns:xlink="http://www.w3.org/1999/xlink">
<g id="graph0" class="graph" transform="scale(1 1) rotate(0) translate(4 258)">
<title>midi/src/MIDI.cpp</title>
<polygon fill="white" stroke="none" points="-4,4 -4,-258 153,-258 153,4 -4,4"/>
<!-- Node0 -->
<g id="node1" class="node"><title>Node0</title>
<polygon fill="#bfbfbf" stroke="black" points="23,-232.5 23,-253.5 130,-253.5 130,-232.5 23,-232.5"/>
<text text-anchor="middle" x="76.5" y="-239.9" font-family="Helvetica,sans-Serif" font-size="12.00">midi/src/MIDI.cpp</text>
</g>
<!-- Node1 -->
<g id="node2" class="node"><title>Node1</title>
<g id="a_node2"><a xlink:href="midi_2src_2_m_i_d_i_8h.html" target="_top" xlink:title="MIDI.h">
<polygon fill="white" stroke="black" points="52,-174.5 52,-195.5 101,-195.5 101,-174.5 52,-174.5"/>
<text text-anchor="middle" x="76.5" y="-181.9" font-family="Helvetica,sans-Serif" font-size="12.00">MIDI.h</text>
</a>
</g>
</g>
<!-- Node0&#45;&gt;Node1 -->
<g id="edge1" class="edge"><title>Node0&#45;&gt;Node1</title>
<path fill="none" stroke="midnightblue" d="M76.5,-232.246C76.5,-224.938 76.5,-214.694 76.5,-205.705"/>
<polygon fill="midnightblue" stroke="midnightblue" points="80.0001,-205.643 76.5,-195.643 73.0001,-205.643 80.0001,-205.643"/>
</g>
<!-- Node2 -->
<g id="node3" class="node"><title>Node2</title>
<g id="a_node3"><a xlink:href="midi_2src_2_data_types_8h.html" target="_top" xlink:title="DataTypes.h">
<polygon fill="white" stroke="black" points="0,-116.5 0,-137.5 83,-137.5 83,-116.5 0,-116.5"/>
<text text-anchor="middle" x="41.5" y="-123.9" font-family="Helvetica,sans-Serif" font-size="12.00">DataTypes.h</text>
</a>
</g>
</g>
<!-- Node1&#45;&gt;Node2 -->
<g id="edge2" class="edge"><title>Node1&#45;&gt;Node2</title>
<path fill="none" stroke="midnightblue" d="M70.4035,-174.246C65.5855,-166.537 58.7249,-155.56 52.8968,-146.235"/>
<polygon fill="midnightblue" stroke="midnightblue" points="55.7947,-144.268 47.5267,-137.643 49.8587,-147.978 55.7947,-144.268"/>
</g>
<!-- Node3 -->
<g id="node4" class="node"><title>Node3</title>
<g id="a_node4"><a xlink:href="midi_2src_2_helpers_8h.html" target="_top" xlink:title="Helpers.h">
<polygon fill="white" stroke="black" points="43.5,-58.5 43.5,-79.5 109.5,-79.5 109.5,-58.5 43.5,-58.5"/>
<text text-anchor="middle" x="76.5" y="-65.9" font-family="Helvetica,sans-Serif" font-size="12.00">Helpers.h</text>
</a>
</g>
</g>
<!-- Node1&#45;&gt;Node3 -->
<g id="edge6" class="edge"><title>Node1&#45;&gt;Node3</title>
<path fill="none" stroke="midnightblue" d="M80.911,-174.38C84.8419,-165.243 90.3026,-151.006 92.5,-138 94.1289,-128.359 94.1289,-125.641 92.5,-116 90.955,-106.855 87.7966,-97.1019 84.691,-88.9405"/>
<polygon fill="midnightblue" stroke="midnightblue" points="87.9127,-87.5713 80.911,-79.6198 81.4258,-90.2021 87.9127,-87.5713"/>
</g>
<!-- Node2&#45;&gt;Node3 -->
<g id="edge3" class="edge"><title>Node2&#45;&gt;Node3</title>
<path fill="none" stroke="midnightblue" d="M47.5965,-116.246C52.4145,-108.537 59.2751,-97.5598 65.1032,-88.2348"/>
<polygon fill="midnightblue" stroke="midnightblue" points="68.1413,-89.9777 70.4733,-79.6427 62.2053,-86.2677 68.1413,-89.9777"/>
</g>
<!-- Node4 -->
<g id="node5" class="node"><title>Node4</title>
<polygon fill="white" stroke="#bfbfbf" points="7.5,-0.5 7.5,-21.5 65.5,-21.5 65.5,-0.5 7.5,-0.5"/>
<text text-anchor="middle" x="36.5" y="-7.9" font-family="Helvetica,sans-Serif" font-size="12.00">stddef.h</text>
</g>
<!-- Node3&#45;&gt;Node4 -->
<g id="edge4" class="edge"><title>Node3&#45;&gt;Node4</title>
<path fill="none" stroke="midnightblue" d="M69.5325,-58.2455C63.9689,-50.4564 56.022,-39.3308 49.3171,-29.9439"/>
<polygon fill="midnightblue" stroke="midnightblue" points="52.0481,-27.7457 43.3876,-21.6427 46.352,-31.8144 52.0481,-27.7457"/>
</g>
<!-- Node5 -->
<g id="node6" class="node"><title>Node5</title>
<polygon fill="white" stroke="#bfbfbf" points="84,-0.5 84,-21.5 149,-21.5 149,-0.5 84,-0.5"/>
<text text-anchor="middle" x="116.5" y="-7.9" font-family="Helvetica,sans-Serif" font-size="12.00">inttypes.h</text>
</g>
<!-- Node3&#45;&gt;Node5 -->
<g id="edge5" class="edge"><title>Node3&#45;&gt;Node5</title>
<path fill="none" stroke="midnightblue" d="M83.4675,-58.2455C89.0311,-50.4564 96.978,-39.3308 103.683,-29.9439"/>
<polygon fill="midnightblue" stroke="midnightblue" points="106.648,-31.8144 109.612,-21.6427 100.952,-27.7457 106.648,-31.8144"/>
</g>
</g>
</svg>
