<?xml version="1.0" encoding="UTF-8" standalone="no"?>
<!DOCTYPE svg PUBLIC "-//W3C//DTD SVG 1.1//EN"
 "http://www.w3.org/Graphics/SVG/1.1/DTD/svg11.dtd">
<!-- Generated by graphviz version 2.38.0 (20140413.2041)
 -->
<!-- Title: board/v1/pins/Map.h Pages: 1 -->
<svg width="210pt" height="146pt"
 viewBox="0.00 0.00 209.50 146.00" xmlns="http://www.w3.org/2000/svg" xmlns:xlink="http://www.w3.org/1999/xlink">
<g id="graph0" class="graph" transform="scale(1 1) rotate(0) translate(4 142)">
<title>board/v1/pins/Map.h</title>
<polygon fill="white" stroke="none" points="-4,4 -4,-142 205.5,-142 205.5,4 -4,4"/>
<!-- Node0 -->
<g id="node1" class="node"><title>Node0</title>
<polygon fill="#bfbfbf" stroke="black" points="18.5,-116.5 18.5,-137.5 140.5,-137.5 140.5,-116.5 18.5,-116.5"/>
<text text-anchor="middle" x="79.5" y="-123.9" font-family="Helvetica,sans-Serif" font-size="12.00">board/v1/pins/Map.h</text>
</g>
<!-- Node1 -->
<g id="node2" class="node"><title>Node1</title>
<g id="a_node2"><a xlink:href="_pins_8h.html" target="_top" xlink:title="Pins.h">
<polygon fill="white" stroke="black" points="0,-58.5 0,-79.5 49,-79.5 49,-58.5 0,-58.5"/>
<text text-anchor="middle" x="24.5" y="-65.9" font-family="Helvetica,sans-Serif" font-size="12.00">Pins.h</text>
</a>
</g>
</g>
<!-- Node0&#45;&gt;Node1 -->
<g id="edge1" class="edge"><title>Node0&#45;&gt;Node1</title>
<path fill="none" stroke="midnightblue" d="M69.9197,-116.246C61.9542,-108.135 50.4359,-96.4075 40.9921,-86.7919"/>
<polygon fill="midnightblue" stroke="midnightblue" points="43.4747,-84.3247 33.9705,-79.6427 38.4805,-89.2297 43.4747,-84.3247"/>
</g>
<!-- Node2 -->
<g id="node3" class="node"><title>Node2</title>
<g id="a_node3"><a xlink:href="_version_8h.html" target="_top" xlink:title="../../../version/Version.h">
<polygon fill="white" stroke="black" points="67.5,-58.5 67.5,-79.5 201.5,-79.5 201.5,-58.5 67.5,-58.5"/>
<text text-anchor="middle" x="134.5" y="-65.9" font-family="Helvetica,sans-Serif" font-size="12.00">../../../version/Version.h</text>
</a>
</g>
</g>
<!-- Node0&#45;&gt;Node2 -->
<g id="edge2" class="edge"><title>Node0&#45;&gt;Node2</title>
<path fill="none" stroke="midnightblue" d="M89.0803,-116.246C97.0458,-108.135 108.564,-96.4075 118.008,-86.7919"/>
<polygon fill="midnightblue" stroke="midnightblue" points="120.519,-89.2297 125.03,-79.6427 115.525,-84.3247 120.519,-89.2297"/>
</g>
<!-- Node3 -->
<g id="node4" class="node"><title>Node3</title>
<g id="a_node4"><a xlink:href="version_2_data_types_8h.html" target="_top" xlink:title="DataTypes.h">
<polygon fill="white" stroke="black" points="93,-0.5 93,-21.5 176,-21.5 176,-0.5 93,-0.5"/>
<text text-anchor="middle" x="134.5" y="-7.9" font-family="Helvetica,sans-Serif" font-size="12.00">DataTypes.h</text>
</a>
</g>
</g>
<!-- Node2&#45;&gt;Node3 -->
<g id="edge3" class="edge"><title>Node2&#45;&gt;Node3</title>
<path fill="none" stroke="midnightblue" d="M134.5,-58.2455C134.5,-50.9382 134.5,-40.6944 134.5,-31.7046"/>
<polygon fill="midnightblue" stroke="midnightblue" points="138,-31.6426 134.5,-21.6427 131,-31.6427 138,-31.6426"/>
</g>
</g>
</svg>
