<?xml version="1.0" encoding="UTF-8" standalone="no"?>
<!DOCTYPE svg PUBLIC "-//W3C//DTD SVG 1.1//EN"
 "http://www.w3.org/Graphics/SVG/1.1/DTD/svg11.dtd">
<!-- Generated by graphviz version 2.38.0 (20140413.2041)
 -->
<!-- Title: core/src/general/Misc.h Pages: 1 -->
<svg width="216pt" height="146pt"
 viewBox="0.00 0.00 216.00 146.00" xmlns="http://www.w3.org/2000/svg" xmlns:xlink="http://www.w3.org/1999/xlink">
<g id="graph0" class="graph" transform="scale(1 1) rotate(0) translate(4 142)">
<title>core/src/general/Misc.h</title>
<polygon fill="white" stroke="none" points="-4,4 -4,-142 212,-142 212,4 -4,4"/>
<!-- Node2 -->
<g id="node1" class="node"><title>Node2</title>
<polygon fill="#bfbfbf" stroke="black" points="71,-116.5 71,-137.5 208,-137.5 208,-116.5 71,-116.5"/>
<text text-anchor="middle" x="139.5" y="-123.9" font-family="Helvetica,sans-Serif" font-size="12.00">core/src/general/Misc.h</text>
</g>
<!-- Node3 -->
<g id="node2" class="node"><title>Node3</title>
<g id="a_node2"><a xlink:href="_ring_buffer_8h.html" target="_top" xlink:title="core/src/general/RingBuffer.h">
<polygon fill="white" stroke="black" points="0,-58.5 0,-79.5 167,-79.5 167,-58.5 0,-58.5"/>
<text text-anchor="middle" x="83.5" y="-65.9" font-family="Helvetica,sans-Serif" font-size="12.00">core/src/general/RingBuffer.h</text>
</a>
</g>
</g>
<!-- Node2&#45;&gt;Node3 -->
<g id="edge1" class="edge"><title>Node2&#45;&gt;Node3</title>
<path fill="none" stroke="midnightblue" d="M122.575,-109.075C112.94,-99.4402 101.22,-87.7196 93.1427,-79.6427"/>
<polygon fill="midnightblue" stroke="midnightblue" points="120.2,-111.649 129.746,-116.246 125.149,-106.7 120.2,-111.649"/>
</g>
<!-- Node4 -->
<g id="node3" class="node"><title>Node4</title>
<g id="a_node3"><a xlink:href="_core_8h.html" target="_top" xlink:title="core/src/Core.h">
<polygon fill="white" stroke="black" points="91,-0.5 91,-21.5 188,-21.5 188,-0.5 91,-0.5"/>
<text text-anchor="middle" x="139.5" y="-7.9" font-family="Helvetica,sans-Serif" font-size="12.00">core/src/Core.h</text>
</a>
</g>
</g>
<!-- Node2&#45;&gt;Node4 -->
<g id="edge3" class="edge"><title>Node2&#45;&gt;Node4</title>
<path fill="none" stroke="midnightblue" d="M157.733,-109.094C165.06,-101.075 172.669,-90.875 176.5,-80 179.749,-70.7777 179.749,-67.2223 176.5,-58 171.392,-43.5 159.567,-30.1993 150.65,-21.6707"/>
<polygon fill="midnightblue" stroke="midnightblue" points="155.144,-106.735 150.65,-116.329 160.147,-111.631 155.144,-106.735"/>
</g>
<!-- Node3&#45;&gt;Node4 -->
<g id="edge2" class="edge"><title>Node3&#45;&gt;Node4</title>
<path fill="none" stroke="midnightblue" d="M100.425,-51.0751C110.06,-41.4402 121.78,-29.7196 129.857,-21.6427"/>
<polygon fill="midnightblue" stroke="midnightblue" points="97.8507,-48.6996 93.2545,-58.2455 102.8,-53.6493 97.8507,-48.6996"/>
</g>
</g>
</svg>
