<?xml version="1.0" encoding="UTF-8" standalone="no"?>
<!DOCTYPE svg PUBLIC "-//W3C//DTD SVG 1.1//EN"
 "http://www.w3.org/Graphics/SVG/1.1/DTD/svg11.dtd">
<!-- Generated by graphviz version 2.38.0 (20140413.2041)
 -->
<!-- Title: OpenDeck.h Pages: 1 -->
<svg width="1087pt" height="243pt"
 viewBox="0.00 0.00 1087.00 243.00" xmlns="http://www.w3.org/2000/svg" xmlns:xlink="http://www.w3.org/1999/xlink">
<g id="graph0" class="graph" transform="scale(1 1) rotate(0) translate(4 239)">
<title>OpenDeck.h</title>
<polygon fill="white" stroke="none" points="-4,4 -4,-239 1083,-239 1083,4 -4,4"/>
<!-- Node35 -->
<g id="node1" class="node"><title>Node35</title>
<polygon fill="#bfbfbf" stroke="black" points="459.5,-213.5 459.5,-234.5 541.5,-234.5 541.5,-213.5 459.5,-213.5"/>
<text text-anchor="middle" x="500.5" y="-220.9" font-family="Helvetica,sans-Serif" font-size="12.00">OpenDeck.h</text>
</g>
<!-- Node36 -->
<g id="node2" class="node"><title>Node36</title>
<g id="a_node2"><a xlink:href="_init_8cpp.html" target="_top" xlink:title="Init.cpp">
<polygon fill="white" stroke="black" points="96,-149 96,-170 149,-170 149,-149 96,-149"/>
<text text-anchor="middle" x="122.5" y="-156.4" font-family="Helvetica,sans-Serif" font-size="12.00">Init.cpp</text>
</a>
</g>
</g>
<!-- Node35&#45;&gt;Node36 -->
<g id="edge1" class="edge"><title>Node35&#45;&gt;Node36</title>
<path fill="none" stroke="midnightblue" d="M449.022,-220.814C381.231,-216.869 258.874,-206.051 158.5,-177 152.556,-175.28 146.342,-172.73 140.783,-170.146"/>
<polygon fill="midnightblue" stroke="midnightblue" points="449.243,-224.331 459.422,-221.39 449.63,-217.342 449.243,-224.331"/>
</g>
<!-- Node37 -->
<g id="node3" class="node"><title>Node37</title>
<g id="a_node3"><a xlink:href="_sys_ex_8h.html" target="_top" xlink:title="sysex/src/SysEx.h">
<polygon fill="white" stroke="black" points="167.5,-149 167.5,-170 277.5,-170 277.5,-149 167.5,-149"/>
<text text-anchor="middle" x="222.5" y="-156.4" font-family="Helvetica,sans-Serif" font-size="12.00">sysex/src/SysEx.h</text>
</a>
</g>
</g>
<!-- Node35&#45;&gt;Node37 -->
<g id="edge2" class="edge"><title>Node35&#45;&gt;Node37</title>
<path fill="none" stroke="midnightblue" d="M449.274,-214.016C403.795,-205.102 335.951,-190.811 277.5,-177 268.343,-174.836 258.486,-172.366 249.612,-170.007"/>
<polygon fill="midnightblue" stroke="midnightblue" points="448.711,-217.472 459.195,-215.943 450.047,-210.6 448.711,-217.472"/>
</g>
<!-- Node39 -->
<g id="node5" class="node"><title>Node39</title>
<g id="a_node5"><a xlink:href="interface_2digital_2input_2buttons_2_buttons_8h.html" target="_top" xlink:title="interface/digital/input\l/buttons/Buttons.h">
<polygon fill="white" stroke="black" points="483.5,-142.5 483.5,-176.5 607.5,-176.5 607.5,-142.5 483.5,-142.5"/>
<text text-anchor="start" x="491.5" y="-162.9" font-family="Helvetica,sans-Serif" font-size="12.00">interface/digital/input</text>
<text text-anchor="middle" x="545.5" y="-149.9" font-family="Helvetica,sans-Serif" font-size="12.00">/buttons/Buttons.h</text>
</a>
</g>
</g>
<!-- Node35&#45;&gt;Node39 -->
<g id="edge5" class="edge"><title>Node35&#45;&gt;Node39</title>
<path fill="none" stroke="midnightblue" d="M513.425,-205.048C519.847,-196.129 527.548,-185.433 533.794,-176.758"/>
<polygon fill="midnightblue" stroke="midnightblue" points="510.534,-203.074 507.531,-213.234 516.215,-207.164 510.534,-203.074"/>
</g>
<!-- Node40 -->
<g id="node6" class="node"><title>Node40</title>
<g id="a_node6"><a xlink:href="interface_2analog_2_analog_8h.html" target="_top" xlink:title="interface/analog/Analog.h">
<polygon fill="white" stroke="black" points="626,-78 626,-99 775,-99 775,-78 626,-78"/>
<text text-anchor="middle" x="700.5" y="-85.4" font-family="Helvetica,sans-Serif" font-size="12.00">interface/analog/Analog.h</text>
</a>
</g>
</g>
<!-- Node35&#45;&gt;Node40 -->
<g id="edge16" class="edge"><title>Node35&#45;&gt;Node40</title>
<path fill="none" stroke="midnightblue" d="M545.055,-210.328C567.6,-202.712 594.727,-191.631 616.5,-177 649.884,-154.567 680.212,-116.901 693.461,-99.2197"/>
<polygon fill="midnightblue" stroke="midnightblue" points="543.802,-207.055 535.379,-213.482 545.972,-213.711 543.802,-207.055"/>
</g>
<!-- Node43 -->
<g id="node9" class="node"><title>Node43</title>
<g id="a_node9"><a xlink:href="_f_s_r_8cpp.html" target="_top" xlink:title="interface/analog/FSR.cpp">
<polygon fill="white" stroke="black" points="713,-7 713,-28 862,-28 862,-7 713,-7"/>
<text text-anchor="middle" x="787.5" y="-14.4" font-family="Helvetica,sans-Serif" font-size="12.00">interface/analog/FSR.cpp</text>
</a>
</g>
</g>
<!-- Node35&#45;&gt;Node43 -->
<g id="edge20" class="edge"><title>Node35&#45;&gt;Node43</title>
<path fill="none" stroke="midnightblue" d="M551.59,-219.227C618.97,-211.14 734.799,-185.742 784.5,-106 799.776,-81.491 794.029,-45.1639 790.051,-28.0617"/>
<polygon fill="midnightblue" stroke="midnightblue" points="551.162,-215.753 541.612,-220.34 551.939,-222.709 551.162,-215.753"/>
</g>
<!-- Node44 -->
<g id="node10" class="node"><title>Node44</title>
<g id="a_node10"><a xlink:href="_potentiometer_8cpp.html" target="_top" xlink:title="interface/analog/Potentiometer.cpp">
<polygon fill="white" stroke="black" points="880,-7 880,-28 1079,-28 1079,-7 880,-7"/>
<text text-anchor="middle" x="979.5" y="-14.4" font-family="Helvetica,sans-Serif" font-size="12.00">interface/analog/Potentiometer.cpp</text>
</a>
</g>
</g>
<!-- Node35&#45;&gt;Node44 -->
<g id="edge21" class="edge"><title>Node35&#45;&gt;Node44</title>
<path fill="none" stroke="midnightblue" d="M551.924,-219.311C602.315,-214.317 680.506,-202.839 743.5,-177 839.392,-137.667 936.769,-56.208 968.667,-28.2037"/>
<polygon fill="midnightblue" stroke="midnightblue" points="551.547,-215.831 541.919,-220.253 552.203,-222.8 551.547,-215.831"/>
</g>
<!-- Node48 -->
<g id="node14" class="node"><title>Node48</title>
<g id="a_node14"><a xlink:href="interface_2digital_2input_2encoders_2_encoders_8h.html" target="_top" xlink:title="interface/digital/input\l/encoders/Encoders.h">
<polygon fill="white" stroke="black" points="296,-142.5 296,-176.5 427,-176.5 427,-142.5 296,-142.5"/>
<text text-anchor="start" x="304" y="-162.9" font-family="Helvetica,sans-Serif" font-size="12.00">interface/digital/input</text>
<text text-anchor="middle" x="361.5" y="-149.9" font-family="Helvetica,sans-Serif" font-size="12.00">/encoders/Encoders.h</text>
</a>
</g>
</g>
<!-- Node35&#45;&gt;Node48 -->
<g id="edge17" class="edge"><title>Node35&#45;&gt;Node48</title>
<path fill="none" stroke="midnightblue" d="M469.802,-209.197C448.384,-199.566 419.729,-186.682 397.275,-176.586"/>
<polygon fill="midnightblue" stroke="midnightblue" points="468.53,-212.463 479.086,-213.371 471.401,-206.078 468.53,-212.463"/>
</g>
<!-- Node50 -->
<g id="node16" class="node"><title>Node50</title>
<g id="a_node16"><a xlink:href="_open_deck_8cpp.html" target="_top" xlink:title="OpenDeck.cpp">
<polygon fill="white" stroke="black" points="870,-149 870,-170 965,-170 965,-149 870,-149"/>
<text text-anchor="middle" x="917.5" y="-156.4" font-family="Helvetica,sans-Serif" font-size="12.00">OpenDeck.cpp</text>
</a>
</g>
</g>
<!-- Node35&#45;&gt;Node50 -->
<g id="edge22" class="edge"><title>Node35&#45;&gt;Node50</title>
<path fill="none" stroke="midnightblue" d="M551.716,-218.493C621.027,-211.911 748.348,-198.106 855.5,-177 865.117,-175.106 875.449,-172.564 884.867,-170.044"/>
<polygon fill="midnightblue" stroke="midnightblue" points="551.141,-215.032 541.511,-219.45 551.794,-222.001 551.141,-215.032"/>
</g>
<!-- Node37&#45;&gt;Node35 -->
<g id="edge3" class="edge"><title>Node37&#45;&gt;Node35</title>
<path fill="none" stroke="midnightblue" d="M276.876,-172.462C283.18,-174.028 289.491,-175.58 295.5,-177 352.824,-190.544 419.183,-204.551 460.624,-213.494"/>
<polygon fill="midnightblue" stroke="midnightblue" points="277.57,-169.028 267.021,-170.007 275.878,-175.821 277.57,-169.028"/>
</g>
<!-- Node38 -->
<g id="node4" class="node"><title>Node38</title>
<g id="a_node4"><a xlink:href="_sys_ex_8cpp.html" target="_top" xlink:title="sysex/src/SysEx.cpp">
<polygon fill="white" stroke="black" points="0,-78 0,-99 123,-99 123,-78 0,-78"/>
<text text-anchor="middle" x="61.5" y="-85.4" font-family="Helvetica,sans-Serif" font-size="12.00">sysex/src/SysEx.cpp</text>
</a>
</g>
</g>
<!-- Node37&#45;&gt;Node38 -->
<g id="edge4" class="edge"><title>Node37&#45;&gt;Node38</title>
<path fill="none" stroke="midnightblue" d="M190.863,-144.941C159.256,-131.395 111.481,-110.921 83.6962,-99.0127"/>
<polygon fill="midnightblue" stroke="midnightblue" points="189.543,-148.184 200.114,-148.906 192.301,-141.75 189.543,-148.184"/>
</g>
<!-- Node39&#45;&gt;Node40 -->
<g id="edge6" class="edge"><title>Node39&#45;&gt;Node40</title>
<path fill="none" stroke="midnightblue" d="M590.621,-138.414C619.757,-125.443 656.338,-109.159 679.07,-99.0398"/>
<polygon fill="midnightblue" stroke="midnightblue" points="589.162,-135.232 581.45,-142.497 592.009,-141.627 589.162,-135.232"/>
</g>
<!-- Node45 -->
<g id="node11" class="node"><title>Node45</title>
<g id="a_node11"><a xlink:href="_digital_input_8h.html" target="_top" xlink:title="interface/digital/input\l/DigitalInput.h">
<polygon fill="white" stroke="black" points="303.5,-71.5 303.5,-105.5 427.5,-105.5 427.5,-71.5 303.5,-71.5"/>
<text text-anchor="start" x="311.5" y="-91.9" font-family="Helvetica,sans-Serif" font-size="12.00">interface/digital/input</text>
<text text-anchor="middle" x="365.5" y="-78.9" font-family="Helvetica,sans-Serif" font-size="12.00">/DigitalInput.h</text>
</a>
</g>
</g>
<!-- Node39&#45;&gt;Node45 -->
<g id="edge12" class="edge"><title>Node39&#45;&gt;Node45</title>
<path fill="none" stroke="midnightblue" d="M494.29,-138.869C466.771,-128.321 433.269,-115.478 407.333,-105.536"/>
<polygon fill="midnightblue" stroke="midnightblue" points="493.162,-142.185 503.752,-142.497 495.667,-135.649 493.162,-142.185"/>
</g>
<!-- Node47 -->
<g id="node13" class="node"><title>Node47</title>
<g id="a_node13"><a xlink:href="interface_2digital_2input_2buttons_2_buttons_8cpp.html" target="_top" xlink:title="interface/digital/input\l/buttons/Buttons.cpp">
<polygon fill="white" stroke="black" points="483.5,-71.5 483.5,-105.5 607.5,-105.5 607.5,-71.5 483.5,-71.5"/>
<text text-anchor="start" x="491.5" y="-91.9" font-family="Helvetica,sans-Serif" font-size="12.00">interface/digital/input</text>
<text text-anchor="middle" x="545.5" y="-78.9" font-family="Helvetica,sans-Serif" font-size="12.00">/buttons/Buttons.cpp</text>
</a>
</g>
</g>
<!-- Node39&#45;&gt;Node47 -->
<g id="edge15" class="edge"><title>Node39&#45;&gt;Node47</title>
<path fill="none" stroke="midnightblue" d="M545.5,-132.247C545.5,-123.392 545.5,-113.767 545.5,-105.896"/>
<polygon fill="midnightblue" stroke="midnightblue" points="542,-132.497 545.5,-142.497 549,-132.497 542,-132.497"/>
</g>
<!-- Node41 -->
<g id="node7" class="node"><title>Node41</title>
<g id="a_node7"><a xlink:href="_interface_8h.html" target="_top" xlink:title="interface/Interface.h">
<polygon fill="white" stroke="black" points="396.5,-7 396.5,-28 514.5,-28 514.5,-7 396.5,-7"/>
<text text-anchor="middle" x="455.5" y="-14.4" font-family="Helvetica,sans-Serif" font-size="12.00">interface/Interface.h</text>
</a>
</g>
</g>
<!-- Node40&#45;&gt;Node41 -->
<g id="edge7" class="edge"><title>Node40&#45;&gt;Node41</title>
<path fill="none" stroke="midnightblue" d="M656.912,-75.2242C608.987,-61.7269 533.007,-40.3284 489.355,-28.0347"/>
<polygon fill="midnightblue" stroke="midnightblue" points="656.117,-78.6363 666.691,-77.9783 658.014,-71.8984 656.117,-78.6363"/>
</g>
<!-- Node42 -->
<g id="node8" class="node"><title>Node42</title>
<g id="a_node8"><a xlink:href="interface_2analog_2_analog_8cpp.html" target="_top" xlink:title="interface/analog/Analog.cpp">
<polygon fill="white" stroke="black" points="532.5,-7 532.5,-28 694.5,-28 694.5,-7 532.5,-7"/>
<text text-anchor="middle" x="613.5" y="-14.4" font-family="Helvetica,sans-Serif" font-size="12.00">interface/analog/Analog.cpp</text>
</a>
</g>
</g>
<!-- Node40&#45;&gt;Node42 -->
<g id="edge9" class="edge"><title>Node40&#45;&gt;Node42</title>
<path fill="none" stroke="midnightblue" d="M680.221,-71.4169C663.248,-57.9554 639.602,-39.2019 625.494,-28.0127"/>
<polygon fill="midnightblue" stroke="midnightblue" points="678.393,-74.4341 688.403,-77.9058 682.743,-68.9496 678.393,-74.4341"/>
</g>
<!-- Node40&#45;&gt;Node43 -->
<g id="edge10" class="edge"><title>Node40&#45;&gt;Node43</title>
<path fill="none" stroke="midnightblue" d="M720.779,-71.4169C737.752,-57.9554 761.398,-39.2019 775.506,-28.0127"/>
<polygon fill="midnightblue" stroke="midnightblue" points="718.257,-68.9496 712.597,-77.9058 722.607,-74.4341 718.257,-68.9496"/>
</g>
<!-- Node40&#45;&gt;Node44 -->
<g id="edge11" class="edge"><title>Node40&#45;&gt;Node44</title>
<path fill="none" stroke="midnightblue" d="M748.774,-75.5613C803.262,-62.0856 890.821,-40.4313 940.947,-28.0347"/>
<polygon fill="midnightblue" stroke="midnightblue" points="747.868,-72.1798 739.001,-77.9783 749.549,-78.9751 747.868,-72.1798"/>
</g>
<!-- Node41&#45;&gt;Node35 -->
<g id="edge8" class="edge"><title>Node41&#45;&gt;Node35</title>
<path fill="none" stroke="midnightblue" d="M455.401,-38.2264C455.789,-68.7429 458.725,-128.896 474.5,-177 478.902,-190.424 487.417,-204.343 493.503,-213.305"/>
<polygon fill="midnightblue" stroke="midnightblue" points="458.9,-38.053 455.355,-28.0687 451.9,-38.0843 458.9,-38.053"/>
</g>
<!-- Node45&#45;&gt;Node41 -->
<g id="edge13" class="edge"><title>Node45&#45;&gt;Node41</title>
<path fill="none" stroke="midnightblue" d="M394.594,-65.1943C410.982,-52.6301 430.6,-37.5897 443.057,-28.0398"/>
<polygon fill="midnightblue" stroke="midnightblue" points="392.181,-62.6346 386.374,-71.4966 396.44,-68.1899 392.181,-62.6346"/>
</g>
<!-- Node46 -->
<g id="node12" class="node"><title>Node46</title>
<g id="a_node12"><a xlink:href="_digital_input_8cpp.html" target="_top" xlink:title="interface/digital/input\l/DigitalInput.cpp">
<polygon fill="white" stroke="black" points="254.5,-0.5 254.5,-34.5 378.5,-34.5 378.5,-0.5 254.5,-0.5"/>
<text text-anchor="start" x="262.5" y="-20.9" font-family="Helvetica,sans-Serif" font-size="12.00">interface/digital/input</text>
<text text-anchor="middle" x="316.5" y="-7.9" font-family="Helvetica,sans-Serif" font-size="12.00">/DigitalInput.cpp</text>
</a>
</g>
</g>
<!-- Node45&#45;&gt;Node46 -->
<g id="edge14" class="edge"><title>Node45&#45;&gt;Node46</title>
<path fill="none" stroke="midnightblue" d="M348.297,-63.2755C341.627,-53.8829 334.163,-43.3721 328.143,-34.8958"/>
<polygon fill="midnightblue" stroke="midnightblue" points="345.492,-65.3698 354.135,-71.4966 351.199,-61.3168 345.492,-65.3698"/>
</g>
<!-- Node48&#45;&gt;Node45 -->
<g id="edge18" class="edge"><title>Node48&#45;&gt;Node45</title>
<path fill="none" stroke="midnightblue" d="M363.022,-132.247C363.535,-123.392 364.093,-113.767 364.55,-105.896"/>
<polygon fill="midnightblue" stroke="midnightblue" points="359.512,-132.311 362.428,-142.497 366.501,-132.716 359.512,-132.311"/>
</g>
<!-- Node49 -->
<g id="node15" class="node"><title>Node49</title>
<g id="a_node15"><a xlink:href="interface_2digital_2input_2encoders_2_encoders_8cpp.html" target="_top" xlink:title="interface/digital/input\l/encoders/Encoders.cpp">
<polygon fill="white" stroke="black" points="141.5,-71.5 141.5,-105.5 285.5,-105.5 285.5,-71.5 141.5,-71.5"/>
<text text-anchor="start" x="149.5" y="-91.9" font-family="Helvetica,sans-Serif" font-size="12.00">interface/digital/input</text>
<text text-anchor="middle" x="213.5" y="-78.9" font-family="Helvetica,sans-Serif" font-size="12.00">/encoders/Encoders.cpp</text>
</a>
</g>
</g>
<!-- Node48&#45;&gt;Node49 -->
<g id="edge19" class="edge"><title>Node48&#45;&gt;Node49</title>
<path fill="none" stroke="midnightblue" d="M317.905,-138.175C295.567,-127.761 268.756,-115.261 247.896,-105.536"/>
<polygon fill="midnightblue" stroke="midnightblue" points="316.631,-141.443 327.174,-142.497 319.589,-135.099 316.631,-141.443"/>
</g>
</g>
</svg>
