<?xml version="1.0" encoding="UTF-8" standalone="no"?>
<!DOCTYPE svg PUBLIC "-//W3C//DTD SVG 1.1//EN"
 "http://www.w3.org/Graphics/SVG/1.1/DTD/svg11.dtd">
<!-- Generated by graphviz version 2.38.0 (20140413.2041)
 -->
<!-- Title: OpenDeck.h Pages: 1 -->
<svg width="1078pt" height="475pt"
 viewBox="0.00 0.00 1077.50 475.00" xmlns="http://www.w3.org/2000/svg" xmlns:xlink="http://www.w3.org/1999/xlink">
<g id="graph0" class="graph" transform="scale(1 1) rotate(0) translate(4 471)">
<title>OpenDeck.h</title>
<polygon fill="white" stroke="none" points="-4,4 -4,-471 1073.5,-471 1073.5,4 -4,4"/>
<!-- Node0 -->
<g id="node1" class="node"><title>Node0</title>
<polygon fill="#bfbfbf" stroke="black" points="359.5,-445.5 359.5,-466.5 441.5,-466.5 441.5,-445.5 359.5,-445.5"/>
<text text-anchor="middle" x="400.5" y="-452.9" font-family="Helvetica,sans-Serif" font-size="12.00">OpenDeck.h</text>
</g>
<!-- Node1 -->
<g id="node2" class="node"><title>Node1</title>
<g id="a_node2"><a xlink:href="database_2_database_8h.html" target="_top" xlink:title="database/Database.h">
<polygon fill="white" stroke="black" points="132.5,-174.5 132.5,-195.5 262.5,-195.5 262.5,-174.5 132.5,-174.5"/>
<text text-anchor="middle" x="197.5" y="-181.9" font-family="Helvetica,sans-Serif" font-size="12.00">database/Database.h</text>
</a>
</g>
</g>
<!-- Node0&#45;&gt;Node1 -->
<g id="edge1" class="edge"><title>Node0&#45;&gt;Node1</title>
<path fill="none" stroke="midnightblue" d="M359.282,-453.559C323.625,-450.13 272.979,-439.694 241.5,-409 185.218,-354.123 189.884,-249.627 194.725,-205.958"/>
<polygon fill="midnightblue" stroke="midnightblue" points="198.229,-206.142 195.984,-195.787 191.282,-205.282 198.229,-206.142"/>
</g>
<!-- Node12 -->
<g id="node13" class="node"><title>Node12</title>
<g id="a_node13"><a xlink:href="_sys_ex_8h.html" target="_top" xlink:title="sysex/src/SysEx.h">
<polygon fill="white" stroke="black" points="21.5,-381 21.5,-402 131.5,-402 131.5,-381 21.5,-381"/>
<text text-anchor="middle" x="76.5" y="-388.4" font-family="Helvetica,sans-Serif" font-size="12.00">sysex/src/SysEx.h</text>
</a>
</g>
</g>
<!-- Node0&#45;&gt;Node12 -->
<g id="edge12" class="edge"><title>Node0&#45;&gt;Node12</title>
<path fill="none" stroke="midnightblue" d="M359.318,-449.297C307.019,-441.16 214.651,-425.38 136.5,-409 129.777,-407.591 122.71,-406.013 115.859,-404.406"/>
<polygon fill="midnightblue" stroke="midnightblue" points="116.583,-400.981 106.042,-402.048 114.948,-407.787 116.583,-400.981"/>
</g>
<!-- Node15 -->
<g id="node16" class="node"><title>Node15</title>
<g id="a_node16"><a xlink:href="_version_8h.html" target="_top" xlink:title="versioning/src/avr\l/Version.h">
<polygon fill="white" stroke="black" points="251,-374.5 251,-408.5 358,-408.5 358,-374.5 251,-374.5"/>
<text text-anchor="start" x="259" y="-394.9" font-family="Helvetica,sans-Serif" font-size="12.00">versioning/src/avr</text>
<text text-anchor="middle" x="304.5" y="-381.9" font-family="Helvetica,sans-Serif" font-size="12.00">/Version.h</text>
</a>
</g>
</g>
<!-- Node0&#45;&gt;Node15 -->
<g id="edge17" class="edge"><title>Node0&#45;&gt;Node15</title>
<path fill="none" stroke="midnightblue" d="M385.5,-445.234C372.775,-436.95 354.051,-424.76 337.811,-414.187"/>
<polygon fill="midnightblue" stroke="midnightblue" points="339.388,-411.037 329.098,-408.514 335.569,-416.903 339.388,-411.037"/>
</g>
<!-- Node17 -->
<g id="node18" class="node"><title>Node17</title>
<g id="a_node18"><a xlink:href="_interface_8h.html" target="_top" xlink:title="interface/Interface.h">
<polygon fill="white" stroke="black" points="444.5,-381 444.5,-402 562.5,-402 562.5,-381 444.5,-381"/>
<text text-anchor="middle" x="503.5" y="-388.4" font-family="Helvetica,sans-Serif" font-size="12.00">interface/Interface.h</text>
</a>
</g>
</g>
<!-- Node0&#45;&gt;Node17 -->
<g id="edge19" class="edge"><title>Node0&#45;&gt;Node17</title>
<path fill="none" stroke="midnightblue" d="M416.594,-445.234C433.298,-435.098 459.636,-419.117 478.942,-407.402"/>
<polygon fill="midnightblue" stroke="midnightblue" points="480.786,-410.377 487.519,-402.197 477.154,-404.392 480.786,-410.377"/>
</g>
<!-- Node31 -->
<g id="node32" class="node"><title>Node31</title>
<g id="a_node32"><a xlink:href="midi_2src_2_m_i_d_i_8h.html" target="_top" xlink:title="midi/src/MIDI.h">
<polygon fill="white" stroke="black" points="918,-381 918,-402 1011,-402 1011,-381 918,-381"/>
<text text-anchor="middle" x="964.5" y="-388.4" font-family="Helvetica,sans-Serif" font-size="12.00">midi/src/MIDI.h</text>
</a>
</g>
</g>
<!-- Node0&#45;&gt;Node31 -->
<g id="edge42" class="edge"><title>Node0&#45;&gt;Node31</title>
<path fill="none" stroke="midnightblue" d="M441.568,-451.827C522.62,-445.366 708.805,-429.541 864.5,-409 878.538,-407.148 893.631,-404.83 907.729,-402.522"/>
<polygon fill="midnightblue" stroke="midnightblue" points="908.498,-405.942 917.789,-400.85 907.351,-399.037 908.498,-405.942"/>
</g>
<!-- Node2 -->
<g id="node3" class="node"><title>Node2</title>
<g id="a_node3"><a xlink:href="_d_b_m_s_8h.html" target="_top" xlink:title="../dbms/src/DBMS.h">
<polygon fill="white" stroke="black" points="118,-116.5 118,-137.5 239,-137.5 239,-116.5 118,-116.5"/>
<text text-anchor="middle" x="178.5" y="-123.9" font-family="Helvetica,sans-Serif" font-size="12.00">../dbms/src/DBMS.h</text>
</a>
</g>
</g>
<!-- Node1&#45;&gt;Node2 -->
<g id="edge2" class="edge"><title>Node1&#45;&gt;Node2</title>
<path fill="none" stroke="midnightblue" d="M194.19,-174.246C191.657,-166.778 188.082,-156.243 184.985,-147.114"/>
<polygon fill="midnightblue" stroke="midnightblue" points="188.299,-145.988 181.772,-137.643 181.67,-148.237 188.299,-145.988"/>
</g>
<!-- Node5 -->
<g id="node6" class="node"><title>Node5</title>
<g id="a_node6"><a xlink:href="database_2blocks_2_blocks_8h.html" target="_top" xlink:title="blocks/Blocks.h">
<polygon fill="white" stroke="black" points="353.5,-116.5 353.5,-137.5 451.5,-137.5 451.5,-116.5 353.5,-116.5"/>
<text text-anchor="middle" x="402.5" y="-123.9" font-family="Helvetica,sans-Serif" font-size="12.00">blocks/Blocks.h</text>
</a>
</g>
</g>
<!-- Node1&#45;&gt;Node5 -->
<g id="edge5" class="edge"><title>Node1&#45;&gt;Node5</title>
<path fill="none" stroke="midnightblue" d="M232.741,-174.373C267.419,-164.9 320.488,-150.403 358.046,-140.143"/>
<polygon fill="midnightblue" stroke="midnightblue" points="358.995,-143.513 367.719,-137.501 357.15,-136.76 358.995,-143.513"/>
</g>
<!-- Node3 -->
<g id="node4" class="node"><title>Node3</title>
<g id="a_node4"><a xlink:href="dbms_2src_2_data_types_8h.html" target="_top" xlink:title="DataTypes.h">
<polygon fill="white" stroke="black" points="128,-58.5 128,-79.5 211,-79.5 211,-58.5 128,-58.5"/>
<text text-anchor="middle" x="169.5" y="-65.9" font-family="Helvetica,sans-Serif" font-size="12.00">DataTypes.h</text>
</a>
</g>
</g>
<!-- Node2&#45;&gt;Node3 -->
<g id="edge3" class="edge"><title>Node2&#45;&gt;Node3</title>
<path fill="none" stroke="midnightblue" d="M176.932,-116.246C175.758,-108.938 174.112,-98.6944 172.667,-89.7046"/>
<polygon fill="midnightblue" stroke="midnightblue" points="176.092,-88.9606 171.05,-79.6427 169.181,-90.0714 176.092,-88.9606"/>
</g>
<!-- Node4 -->
<g id="node5" class="node"><title>Node4</title>
<polygon fill="white" stroke="#bfbfbf" points="661,-0.5 661,-21.5 726,-21.5 726,-0.5 661,-0.5"/>
<text text-anchor="middle" x="693.5" y="-7.9" font-family="Helvetica,sans-Serif" font-size="12.00">inttypes.h</text>
</g>
<!-- Node3&#45;&gt;Node4 -->
<g id="edge4" class="edge"><title>Node3&#45;&gt;Node4</title>
<path fill="none" stroke="midnightblue" d="M211.192,-59.4843C214.336,-58.9467 217.465,-58.4441 220.5,-58 378.446,-34.8901 567.819,-20.4373 650.902,-14.756"/>
<polygon fill="midnightblue" stroke="midnightblue" points="651.227,-18.2421 660.968,-14.0751 650.754,-11.258 651.227,-18.2421"/>
</g>
<!-- Node6 -->
<g id="node7" class="node"><title>Node6</title>
<g id="a_node7"><a xlink:href="database_2blocks_2_m_i_d_i_8h.html" target="_top" xlink:title="MIDI.h">
<polygon fill="white" stroke="black" points="439,-58.5 439,-79.5 488,-79.5 488,-58.5 439,-58.5"/>
<text text-anchor="middle" x="463.5" y="-65.9" font-family="Helvetica,sans-Serif" font-size="12.00">MIDI.h</text>
</a>
</g>
</g>
<!-- Node5&#45;&gt;Node6 -->
<g id="edge6" class="edge"><title>Node5&#45;&gt;Node6</title>
<path fill="none" stroke="midnightblue" d="M413.125,-116.246C422.047,-108.055 434.988,-96.1749 445.519,-86.5069"/>
<polygon fill="midnightblue" stroke="midnightblue" points="447.997,-88.9837 452.996,-79.6427 443.263,-83.8271 447.997,-88.9837"/>
</g>
<!-- Node7 -->
<g id="node8" class="node"><title>Node7</title>
<g id="a_node8"><a xlink:href="database_2blocks_2_buttons_8h.html" target="_top" xlink:title="Buttons.h">
<polygon fill="white" stroke="black" points="506,-58.5 506,-79.5 571,-79.5 571,-58.5 506,-58.5"/>
<text text-anchor="middle" x="538.5" y="-65.9" font-family="Helvetica,sans-Serif" font-size="12.00">Buttons.h</text>
</a>
</g>
</g>
<!-- Node5&#45;&gt;Node7 -->
<g id="edge7" class="edge"><title>Node5&#45;&gt;Node7</title>
<path fill="none" stroke="midnightblue" d="M425.879,-116.373C448.004,-107.263 481.413,-93.5062 506.102,-83.3404"/>
<polygon fill="midnightblue" stroke="midnightblue" points="507.512,-86.5451 515.426,-79.5011 504.846,-80.0723 507.512,-86.5451"/>
</g>
<!-- Node8 -->
<g id="node9" class="node"><title>Node8</title>
<g id="a_node9"><a xlink:href="database_2blocks_2_encoders_8h.html" target="_top" xlink:title="Encoders.h">
<polygon fill="white" stroke="black" points="589.5,-58.5 589.5,-79.5 665.5,-79.5 665.5,-58.5 589.5,-58.5"/>
<text text-anchor="middle" x="627.5" y="-65.9" font-family="Helvetica,sans-Serif" font-size="12.00">Encoders.h</text>
</a>
</g>
</g>
<!-- Node5&#45;&gt;Node8 -->
<g id="edge8" class="edge"><title>Node5&#45;&gt;Node8</title>
<path fill="none" stroke="midnightblue" d="M440.923,-116.437C479.188,-106.913 538.034,-92.2672 579.385,-81.9753"/>
<polygon fill="midnightblue" stroke="midnightblue" points="580.377,-85.3353 589.235,-79.5237 578.686,-78.5426 580.377,-85.3353"/>
</g>
<!-- Node9 -->
<g id="node10" class="node"><title>Node9</title>
<g id="a_node10"><a xlink:href="database_2blocks_2_analog_8h.html" target="_top" xlink:title="Analog.h">
<polygon fill="white" stroke="black" points="229.5,-58.5 229.5,-79.5 291.5,-79.5 291.5,-58.5 229.5,-58.5"/>
<text text-anchor="middle" x="260.5" y="-65.9" font-family="Helvetica,sans-Serif" font-size="12.00">Analog.h</text>
</a>
</g>
</g>
<!-- Node5&#45;&gt;Node9 -->
<g id="edge9" class="edge"><title>Node5&#45;&gt;Node9</title>
<path fill="none" stroke="midnightblue" d="M378.089,-116.373C354.886,-107.223 319.796,-93.3844 293.986,-83.2057"/>
<polygon fill="midnightblue" stroke="midnightblue" points="295.179,-79.9139 284.592,-79.5011 292.611,-86.4258 295.179,-79.9139"/>
</g>
<!-- Node10 -->
<g id="node11" class="node"><title>Node10</title>
<g id="a_node11"><a xlink:href="database_2blocks_2_l_e_ds_8h.html" target="_top" xlink:title="LEDs.h">
<polygon fill="white" stroke="black" points="309.5,-58.5 309.5,-79.5 365.5,-79.5 365.5,-58.5 309.5,-58.5"/>
<text text-anchor="middle" x="337.5" y="-65.9" font-family="Helvetica,sans-Serif" font-size="12.00">LEDs.h</text>
</a>
</g>
</g>
<!-- Node5&#45;&gt;Node10 -->
<g id="edge10" class="edge"><title>Node5&#45;&gt;Node10</title>
<path fill="none" stroke="midnightblue" d="M391.178,-116.246C381.578,-107.975 367.611,-95.9416 356.331,-86.2232"/>
<polygon fill="midnightblue" stroke="midnightblue" points="358.553,-83.5182 348.692,-79.6427 353.984,-88.8214 358.553,-83.5182"/>
</g>
<!-- Node11 -->
<g id="node12" class="node"><title>Node11</title>
<g id="a_node12"><a xlink:href="database_2blocks_2_i_d_8h.html" target="_top" xlink:title="ID.h">
<polygon fill="white" stroke="black" points="384,-58.5 384,-79.5 421,-79.5 421,-58.5 384,-58.5"/>
<text text-anchor="middle" x="402.5" y="-65.9" font-family="Helvetica,sans-Serif" font-size="12.00">ID.h</text>
</a>
</g>
</g>
<!-- Node5&#45;&gt;Node11 -->
<g id="edge11" class="edge"><title>Node5&#45;&gt;Node11</title>
<path fill="none" stroke="midnightblue" d="M402.5,-116.246C402.5,-108.938 402.5,-98.6944 402.5,-89.7046"/>
<polygon fill="midnightblue" stroke="midnightblue" points="406,-89.6426 402.5,-79.6427 399,-89.6427 406,-89.6426"/>
</g>
<!-- Node12&#45;&gt;Node0 -->
<g id="edge14" class="edge"><title>Node12&#45;&gt;Node0</title>
<path fill="none" stroke="midnightblue" d="M123.429,-402.048C133.724,-404.431 144.494,-406.903 154.5,-409 221.641,-423.072 299.276,-436.702 349.176,-445.423"/>
<polygon fill="midnightblue" stroke="midnightblue" points="348.629,-448.88 359.082,-447.154 349.834,-441.984 348.629,-448.88"/>
</g>
<!-- Node13 -->
<g id="node14" class="node"><title>Node13</title>
<g id="a_node14"><a xlink:href="sysex_2src_2_config_8h.html" target="_top" xlink:title="Config.h">
<polygon fill="white" stroke="black" points="41.5,-239 41.5,-260 101.5,-260 101.5,-239 41.5,-239"/>
<text text-anchor="middle" x="71.5" y="-246.4" font-family="Helvetica,sans-Serif" font-size="12.00">Config.h</text>
</a>
</g>
</g>
<!-- Node12&#45;&gt;Node13 -->
<g id="edge13" class="edge"><title>Node12&#45;&gt;Node13</title>
<path fill="none" stroke="midnightblue" d="M80.415,-380.775C86.419,-364.609 96.6884,-331.194 91.5,-303 89.3775,-291.467 84.8371,-279.186 80.6181,-269.404"/>
<polygon fill="midnightblue" stroke="midnightblue" points="83.7805,-267.903 76.4526,-260.251 77.4092,-270.803 83.7805,-267.903"/>
</g>
<!-- Node14 -->
<g id="node15" class="node"><title>Node14</title>
<g id="a_node15"><a xlink:href="sysex_2src_2_data_types_8h.html" target="_top" xlink:title="DataTypes.h">
<polygon fill="white" stroke="black" points="0,-310 0,-331 83,-331 83,-310 0,-310"/>
<text text-anchor="middle" x="41.5" y="-317.4" font-family="Helvetica,sans-Serif" font-size="12.00">DataTypes.h</text>
</a>
</g>
</g>
<!-- Node12&#45;&gt;Node14 -->
<g id="edge15" class="edge"><title>Node12&#45;&gt;Node14</title>
<path fill="none" stroke="midnightblue" d="M71.6334,-380.906C66.3048,-370.401 57.6301,-353.299 50.9532,-340.136"/>
<polygon fill="midnightblue" stroke="midnightblue" points="53.9705,-338.348 46.3253,-331.013 47.7277,-341.514 53.9705,-338.348"/>
</g>
<!-- Node14&#45;&gt;Node13 -->
<g id="edge16" class="edge"><title>Node14&#45;&gt;Node13</title>
<path fill="none" stroke="midnightblue" d="M45.6714,-309.906C50.194,-299.504 57.5287,-282.634 63.2284,-269.525"/>
<polygon fill="midnightblue" stroke="midnightblue" points="66.5865,-270.579 67.3641,-260.013 60.167,-267.788 66.5865,-270.579"/>
</g>
<!-- Node16 -->
<g id="node17" class="node"><title>Node16</title>
<g id="a_node17"><a xlink:href="versioning_2src_2avr_2_data_types_8h.html" target="_top" xlink:title="DataTypes.h">
<polygon fill="white" stroke="black" points="249,-310 249,-331 332,-331 332,-310 249,-310"/>
<text text-anchor="middle" x="290.5" y="-317.4" font-family="Helvetica,sans-Serif" font-size="12.00">DataTypes.h</text>
</a>
</g>
</g>
<!-- Node15&#45;&gt;Node16 -->
<g id="edge18" class="edge"><title>Node15&#45;&gt;Node16</title>
<path fill="none" stroke="midnightblue" d="M301.253,-374.497C299.239,-364.569 296.636,-351.739 294.495,-341.19"/>
<polygon fill="midnightblue" stroke="midnightblue" points="297.895,-340.344 292.476,-331.24 291.035,-341.736 297.895,-340.344"/>
</g>
<!-- Node18 -->
<g id="node19" class="node"><title>Node18</title>
<g id="a_node19"><a xlink:href="interface_2analog_2_analog_8h.html" target="_top" xlink:title="analog/Analog.h">
<polygon fill="white" stroke="black" points="350,-310 350,-331 451,-331 451,-310 350,-310"/>
<text text-anchor="middle" x="400.5" y="-317.4" font-family="Helvetica,sans-Serif" font-size="12.00">analog/Analog.h</text>
</a>
</g>
</g>
<!-- Node17&#45;&gt;Node18 -->
<g id="edge20" class="edge"><title>Node17&#45;&gt;Node18</title>
<path fill="none" stroke="midnightblue" d="M489.178,-380.906C472.113,-369.474 443.387,-350.23 423.266,-336.751"/>
<polygon fill="midnightblue" stroke="midnightblue" points="424.956,-333.67 414.7,-331.013 421.06,-339.486 424.956,-333.67"/>
</g>
<!-- Node25 -->
<g id="node26" class="node"><title>Node25</title>
<g id="a_node26"><a xlink:href="_digital_input_8h.html" target="_top" xlink:title="digital/input/DigitalInput.h">
<polygon fill="white" stroke="black" points="600.5,-310 600.5,-331 746.5,-331 746.5,-310 600.5,-310"/>
<text text-anchor="middle" x="673.5" y="-317.4" font-family="Helvetica,sans-Serif" font-size="12.00">digital/input/DigitalInput.h</text>
</a>
</g>
</g>
<!-- Node17&#45;&gt;Node25 -->
<g id="edge31" class="edge"><title>Node17&#45;&gt;Node25</title>
<path fill="none" stroke="midnightblue" d="M527.138,-380.906C556.699,-368.908 607.461,-348.304 640.752,-334.792"/>
<polygon fill="midnightblue" stroke="midnightblue" points="642.113,-338.017 650.063,-331.013 639.481,-331.531 642.113,-338.017"/>
</g>
<!-- Node28 -->
<g id="node29" class="node"><title>Node28</title>
<g id="a_node29"><a xlink:href="interface_2digital_2output_2leds_2_l_e_ds_8h.html" target="_top" xlink:title="digital/output/leds\l/LEDs.h">
<polygon fill="white" stroke="black" points="471,-303.5 471,-337.5 578,-337.5 578,-303.5 471,-303.5"/>
<text text-anchor="start" x="479" y="-323.9" font-family="Helvetica,sans-Serif" font-size="12.00">digital/output/leds</text>
<text text-anchor="middle" x="524.5" y="-310.9" font-family="Helvetica,sans-Serif" font-size="12.00">/LEDs.h</text>
</a>
</g>
</g>
<!-- Node17&#45;&gt;Node28 -->
<g id="edge36" class="edge"><title>Node17&#45;&gt;Node28</title>
<path fill="none" stroke="midnightblue" d="M506.42,-380.906C509.052,-372.256 513.046,-359.135 516.611,-347.422"/>
<polygon fill="midnightblue" stroke="midnightblue" points="520.025,-348.225 519.588,-337.639 513.328,-346.187 520.025,-348.225"/>
</g>
<!-- Node18&#45;&gt;Node0 -->
<g id="edge30" class="edge"><title>Node18&#45;&gt;Node0</title>
<path fill="none" stroke="midnightblue" d="M400.5,-331.014C400.5,-352.675 400.5,-406.041 400.5,-435.198"/>
<polygon fill="midnightblue" stroke="midnightblue" points="397,-435.399 400.5,-445.399 404,-435.399 397,-435.399"/>
</g>
<!-- Node18&#45;&gt;Node1 -->
<g id="edge25" class="edge"><title>Node18&#45;&gt;Node1</title>
<path fill="none" stroke="midnightblue" d="M366.197,-309.946C313.326,-295.188 217.825,-268.39 216.5,-267 200.899,-250.639 197.272,-224.006 196.81,-205.778"/>
<polygon fill="midnightblue" stroke="midnightblue" points="200.31,-205.695 196.852,-195.681 193.31,-205.666 200.31,-205.695"/>
</g>
<!-- Node19 -->
<g id="node20" class="node"><title>Node19</title>
<g id="a_node20"><a xlink:href="_board_8h.html" target="_top" xlink:title="../../board/Board.h">
<polygon fill="white" stroke="black" points="449.5,-239 449.5,-260 559.5,-260 559.5,-239 449.5,-239"/>
<text text-anchor="middle" x="504.5" y="-246.4" font-family="Helvetica,sans-Serif" font-size="12.00">../../board/Board.h</text>
</a>
</g>
</g>
<!-- Node18&#45;&gt;Node19 -->
<g id="edge21" class="edge"><title>Node18&#45;&gt;Node19</title>
<path fill="none" stroke="midnightblue" d="M414.961,-309.906C432.269,-298.423 461.458,-279.057 481.787,-265.569"/>
<polygon fill="midnightblue" stroke="midnightblue" points="483.764,-268.458 490.162,-260.013 479.894,-262.625 483.764,-268.458"/>
</g>
<!-- Node20 -->
<g id="node21" class="node"><title>Node20</title>
<g id="a_node21"><a xlink:href="interface_2digital_2input_2buttons_2_buttons_8h.html" target="_top" xlink:title="../digital/input/buttons\l/Buttons.h">
<polygon fill="white" stroke="black" points="712,-232.5 712,-266.5 837,-266.5 837,-232.5 712,-232.5"/>
<text text-anchor="start" x="720" y="-252.9" font-family="Helvetica,sans-Serif" font-size="12.00">../digital/input/buttons</text>
<text text-anchor="middle" x="774.5" y="-239.9" font-family="Helvetica,sans-Serif" font-size="12.00">/Buttons.h</text>
</a>
</g>
</g>
<!-- Node18&#45;&gt;Node20 -->
<g id="edge22" class="edge"><title>Node18&#45;&gt;Node20</title>
<path fill="none" stroke="midnightblue" d="M433.597,-309.914C442.604,-307.479 452.39,-304.991 461.5,-303 506.061,-293.261 623.904,-274.159 701.6,-261.88"/>
<polygon fill="midnightblue" stroke="midnightblue" points="702.48,-265.284 711.813,-260.268 701.389,-258.37 702.48,-265.284"/>
</g>
<!-- Node22 -->
<g id="node23" class="node"><title>Node22</title>
<g id="a_node23"><a xlink:href="interface_2analog_2_data_types_8h.html" target="_top" xlink:title="DataTypes.h">
<polygon fill="white" stroke="black" points="226,-239 226,-260 309,-260 309,-239 226,-239"/>
<text text-anchor="middle" x="267.5" y="-246.4" font-family="Helvetica,sans-Serif" font-size="12.00">DataTypes.h</text>
</a>
</g>
</g>
<!-- Node18&#45;&gt;Node22 -->
<g id="edge26" class="edge"><title>Node18&#45;&gt;Node22</title>
<path fill="none" stroke="midnightblue" d="M382.007,-309.906C359.376,-298.165 320.862,-278.184 294.816,-264.671"/>
<polygon fill="midnightblue" stroke="midnightblue" points="296.324,-261.511 285.836,-260.013 293.101,-267.725 296.324,-261.511"/>
</g>
<!-- Node23 -->
<g id="node24" class="node"><title>Node23</title>
<g id="a_node24"><a xlink:href="interface_2analog_2_config_8h.html" target="_top" xlink:title="Config.h">
<polygon fill="white" stroke="black" points="337.5,-174.5 337.5,-195.5 397.5,-195.5 397.5,-174.5 337.5,-174.5"/>
<text text-anchor="middle" x="367.5" y="-181.9" font-family="Helvetica,sans-Serif" font-size="12.00">Config.h</text>
</a>
</g>
</g>
<!-- Node18&#45;&gt;Node23 -->
<g id="edge27" class="edge"><title>Node18&#45;&gt;Node23</title>
<path fill="none" stroke="midnightblue" d="M388.506,-309.707C377.792,-300.116 362.84,-284.435 356.5,-267 349.18,-246.869 354.315,-222.319 359.764,-205.558"/>
<polygon fill="midnightblue" stroke="midnightblue" points="363.184,-206.389 363.261,-195.794 356.594,-204.028 363.184,-206.389"/>
</g>
<!-- Node24 -->
<g id="node25" class="node"><title>Node24</title>
<g id="a_node25"><a xlink:href="interface_2analog_2_helpers_8h.html" target="_top" xlink:title="Helpers.h">
<polygon fill="white" stroke="black" points="365.5,-239 365.5,-260 431.5,-260 431.5,-239 365.5,-239"/>
<text text-anchor="middle" x="398.5" y="-246.4" font-family="Helvetica,sans-Serif" font-size="12.00">Helpers.h</text>
</a>
</g>
</g>
<!-- Node18&#45;&gt;Node24 -->
<g id="edge28" class="edge"><title>Node18&#45;&gt;Node24</title>
<path fill="none" stroke="midnightblue" d="M400.222,-309.906C399.926,-299.71 399.451,-283.3 399.074,-270.308"/>
<polygon fill="midnightblue" stroke="midnightblue" points="402.564,-269.907 398.776,-260.013 395.567,-270.11 402.564,-269.907"/>
</g>
<!-- Node20&#45;&gt;Node0 -->
<g id="edge24" class="edge"><title>Node20&#45;&gt;Node0</title>
<path fill="none" stroke="midnightblue" d="M775.328,-266.694C775.428,-285.928 772.689,-317.928 755.5,-338 678.243,-428.215 529.989,-449.237 451.752,-453.891"/>
<polygon fill="midnightblue" stroke="midnightblue" points="451.452,-450.401 441.65,-454.423 451.821,-457.392 451.452,-450.401"/>
</g>
<!-- Node21 -->
<g id="node22" class="node"><title>Node21</title>
<g id="a_node22"><a xlink:href="interface_2digital_2input_2buttons_2_data_types_8h.html" target="_top" xlink:title="DataTypes.h">
<polygon fill="white" stroke="black" points="733,-174.5 733,-195.5 816,-195.5 816,-174.5 733,-174.5"/>
<text text-anchor="middle" x="774.5" y="-181.9" font-family="Helvetica,sans-Serif" font-size="12.00">DataTypes.h</text>
</a>
</g>
</g>
<!-- Node20&#45;&gt;Node21 -->
<g id="edge23" class="edge"><title>Node20&#45;&gt;Node21</title>
<path fill="none" stroke="midnightblue" d="M774.5,-232.405C774.5,-224.357 774.5,-214.541 774.5,-206.012"/>
<polygon fill="midnightblue" stroke="midnightblue" points="778,-205.8 774.5,-195.8 771,-205.8 778,-205.8"/>
</g>
<!-- Node24&#45;&gt;Node23 -->
<g id="edge29" class="edge"><title>Node24&#45;&gt;Node23</title>
<path fill="none" stroke="midnightblue" d="M393.656,-238.734C389.178,-229.706 382.4,-216.041 376.866,-204.883"/>
<polygon fill="midnightblue" stroke="midnightblue" points="379.991,-203.307 372.412,-195.903 373.72,-206.417 379.991,-203.307"/>
</g>
<!-- Node25&#45;&gt;Node20 -->
<g id="edge32" class="edge"><title>Node25&#45;&gt;Node20</title>
<path fill="none" stroke="midnightblue" d="M687.544,-309.906C701.675,-300.252 723.961,-285.026 742.434,-272.407"/>
<polygon fill="midnightblue" stroke="midnightblue" points="744.593,-275.17 750.876,-266.639 740.644,-269.39 744.593,-275.17"/>
</g>
<!-- Node26 -->
<g id="node27" class="node"><title>Node26</title>
<g id="a_node27"><a xlink:href="interface_2digital_2input_2encoders_2_encoders_8h.html" target="_top" xlink:title="encoders/Encoders.h">
<polygon fill="white" stroke="black" points="855.5,-239 855.5,-260 983.5,-260 983.5,-239 855.5,-239"/>
<text text-anchor="middle" x="919.5" y="-246.4" font-family="Helvetica,sans-Serif" font-size="12.00">encoders/Encoders.h</text>
</a>
</g>
</g>
<!-- Node25&#45;&gt;Node26 -->
<g id="edge33" class="edge"><title>Node25&#45;&gt;Node26</title>
<path fill="none" stroke="midnightblue" d="M707.447,-309.978C751.254,-297.691 827.542,-276.293 875.683,-262.79"/>
<polygon fill="midnightblue" stroke="midnightblue" points="876.824,-266.105 885.507,-260.035 874.933,-259.365 876.824,-266.105"/>
</g>
<!-- Node26&#45;&gt;Node0 -->
<g id="edge35" class="edge"><title>Node26&#45;&gt;Node0</title>
<path fill="none" stroke="midnightblue" d="M909.661,-260.39C880.638,-288.899 791.686,-371.591 700.5,-409 618.011,-442.841 513.501,-452.043 452.12,-454.392"/>
<polygon fill="midnightblue" stroke="midnightblue" points="451.789,-450.902 441.912,-454.735 452.024,-457.898 451.789,-450.902"/>
</g>
<!-- Node27 -->
<g id="node28" class="node"><title>Node27</title>
<g id="a_node28"><a xlink:href="interface_2digital_2input_2encoders_2_data_types_8h.html" target="_top" xlink:title="DataTypes.h">
<polygon fill="white" stroke="black" points="872,-174.5 872,-195.5 955,-195.5 955,-174.5 872,-174.5"/>
<text text-anchor="middle" x="913.5" y="-181.9" font-family="Helvetica,sans-Serif" font-size="12.00">DataTypes.h</text>
</a>
</g>
</g>
<!-- Node26&#45;&gt;Node27 -->
<g id="edge34" class="edge"><title>Node26&#45;&gt;Node27</title>
<path fill="none" stroke="midnightblue" d="M918.563,-238.734C917.722,-229.98 916.463,-216.865 915.411,-205.904"/>
<polygon fill="midnightblue" stroke="midnightblue" points="918.89,-205.523 914.451,-195.903 911.922,-206.192 918.89,-205.523"/>
</g>
<!-- Node28&#45;&gt;Node19 -->
<g id="edge41" class="edge"><title>Node28&#45;&gt;Node19</title>
<path fill="none" stroke="midnightblue" d="M519.861,-303.497C516.953,-293.464 513.187,-280.469 510.111,-269.858"/>
<polygon fill="midnightblue" stroke="midnightblue" points="513.469,-268.87 507.323,-260.24 506.745,-270.819 513.469,-268.87"/>
</g>
<!-- Node29 -->
<g id="node30" class="node"><title>Node29</title>
<g id="a_node30"><a xlink:href="interface_2digital_2output_2leds_2_data_types_8h.html" target="_top" xlink:title="DataTypes.h">
<polygon fill="white" stroke="black" points="647,-116.5 647,-137.5 730,-137.5 730,-116.5 647,-116.5"/>
<text text-anchor="middle" x="688.5" y="-123.9" font-family="Helvetica,sans-Serif" font-size="12.00">DataTypes.h</text>
</a>
</g>
</g>
<!-- Node28&#45;&gt;Node29 -->
<g id="edge37" class="edge"><title>Node28&#45;&gt;Node29</title>
<path fill="none" stroke="midnightblue" d="M578.29,-305.334C612.71,-295.18 652.995,-280.897 664.5,-267 692.762,-232.861 693.059,-177.523 690.806,-148.021"/>
<polygon fill="midnightblue" stroke="midnightblue" points="694.261,-147.373 689.834,-137.748 687.292,-148.033 694.261,-147.373"/>
</g>
<!-- Node30 -->
<g id="node31" class="node"><title>Node30</title>
<g id="a_node31"><a xlink:href="interface_2digital_2output_2leds_2_constants_8h.html" target="_top" xlink:title="Constants.h">
<polygon fill="white" stroke="black" points="577.5,-239 577.5,-260 655.5,-260 655.5,-239 577.5,-239"/>
<text text-anchor="middle" x="616.5" y="-246.4" font-family="Helvetica,sans-Serif" font-size="12.00">Constants.h</text>
</a>
</g>
</g>
<!-- Node28&#45;&gt;Node30 -->
<g id="edge39" class="edge"><title>Node28&#45;&gt;Node30</title>
<path fill="none" stroke="midnightblue" d="M545.838,-303.497C560.836,-292.248 580.8,-277.275 595.681,-266.114"/>
<polygon fill="midnightblue" stroke="midnightblue" points="597.88,-268.84 603.78,-260.04 593.68,-263.24 597.88,-268.84"/>
</g>
<!-- Node29&#45;&gt;Node4 -->
<g id="edge38" class="edge"><title>Node29&#45;&gt;Node4</title>
<path fill="none" stroke="midnightblue" d="M688.926,-116.28C689.745,-97.6031 691.554,-56.3692 692.635,-31.7152"/>
<polygon fill="midnightblue" stroke="midnightblue" points="696.133,-31.8388 693.075,-21.695 689.14,-31.532 696.133,-31.8388"/>
</g>
<!-- Node30&#45;&gt;Node1 -->
<g id="edge40" class="edge"><title>Node30&#45;&gt;Node1</title>
<path fill="none" stroke="midnightblue" d="M591.873,-238.938C584.453,-236.356 576.227,-233.787 568.5,-232 513.95,-219.387 364.415,-202.881 272.703,-193.459"/>
<polygon fill="midnightblue" stroke="midnightblue" points="272.945,-189.965 262.641,-192.43 272.233,-196.929 272.945,-189.965"/>
</g>
<!-- Node32 -->
<g id="node33" class="node"><title>Node32</title>
<g id="a_node33"><a xlink:href="midi_2src_2_data_types_8h.html" target="_top" xlink:title="DataTypes.h">
<polygon fill="white" stroke="black" points="923,-310 923,-331 1006,-331 1006,-310 923,-310"/>
<text text-anchor="middle" x="964.5" y="-317.4" font-family="Helvetica,sans-Serif" font-size="12.00">DataTypes.h</text>
</a>
</g>
</g>
<!-- Node31&#45;&gt;Node32 -->
<g id="edge43" class="edge"><title>Node31&#45;&gt;Node32</title>
<path fill="none" stroke="midnightblue" d="M964.5,-380.906C964.5,-370.71 964.5,-354.3 964.5,-341.308"/>
<polygon fill="midnightblue" stroke="midnightblue" points="968,-341.013 964.5,-331.013 961,-341.013 968,-341.013"/>
</g>
<!-- Node33 -->
<g id="node34" class="node"><title>Node33</title>
<g id="a_node34"><a xlink:href="midi_2src_2_helpers_8h.html" target="_top" xlink:title="Helpers.h">
<polygon fill="white" stroke="black" points="1001.5,-239 1001.5,-260 1067.5,-260 1067.5,-239 1001.5,-239"/>
<text text-anchor="middle" x="1034.5" y="-246.4" font-family="Helvetica,sans-Serif" font-size="12.00">Helpers.h</text>
</a>
</g>
</g>
<!-- Node31&#45;&gt;Node33 -->
<g id="edge47" class="edge"><title>Node31&#45;&gt;Node33</title>
<path fill="none" stroke="midnightblue" d="M977.477,-380.722C989.241,-371.143 1006.13,-355.469 1015.5,-338 1027,-316.56 1031.54,-288.629 1033.33,-270.158"/>
<polygon fill="midnightblue" stroke="midnightblue" points="1036.83,-270.267 1034.13,-260.023 1029.86,-269.717 1036.83,-270.267"/>
</g>
<!-- Node32&#45;&gt;Node33 -->
<g id="edge44" class="edge"><title>Node32&#45;&gt;Node33</title>
<path fill="none" stroke="midnightblue" d="M974.233,-309.906C985.413,-298.886 1003.96,-280.607 1017.53,-267.23"/>
<polygon fill="midnightblue" stroke="midnightblue" points="1020.18,-269.525 1024.85,-260.013 1015.27,-264.54 1020.18,-269.525"/>
</g>
<!-- Node33&#45;&gt;Node4 -->
<g id="edge46" class="edge"><title>Node33&#45;&gt;Node4</title>
<path fill="none" stroke="midnightblue" d="M1027.04,-238.994C1014.97,-224.004 989.94,-194.474 964.5,-174 883.865,-109.105 774.74,-51.8045 723.026,-26.2028"/>
<polygon fill="midnightblue" stroke="midnightblue" points="724.285,-22.9216 713.766,-21.6543 721.199,-29.2046 724.285,-22.9216"/>
</g>
<!-- Node34 -->
<g id="node35" class="node"><title>Node34</title>
<polygon fill="white" stroke="#bfbfbf" points="1011.5,-174.5 1011.5,-195.5 1069.5,-195.5 1069.5,-174.5 1011.5,-174.5"/>
<text text-anchor="middle" x="1040.5" y="-181.9" font-family="Helvetica,sans-Serif" font-size="12.00">stddef.h</text>
</g>
<!-- Node33&#45;&gt;Node34 -->
<g id="edge45" class="edge"><title>Node33&#45;&gt;Node34</title>
<path fill="none" stroke="midnightblue" d="M1035.44,-238.734C1036.28,-229.98 1037.54,-216.865 1038.59,-205.904"/>
<polygon fill="midnightblue" stroke="midnightblue" points="1042.08,-206.192 1039.55,-195.903 1035.11,-205.523 1042.08,-206.192"/>
</g>
</g>
</svg>
