<?xml version="1.0" encoding="UTF-8" standalone="no"?>
<!DOCTYPE svg PUBLIC "-//W3C//DTD SVG 1.1//EN"
 "http://www.w3.org/Graphics/SVG/1.1/DTD/svg11.dtd">
<!-- Generated by graphviz version 2.38.0 (20140413.2041)
 -->
<!-- Title: core/src/helpers/PinManipulation.h Pages: 1 -->
<svg width="203pt" height="146pt"
 viewBox="0.00 0.00 203.00 146.00" xmlns="http://www.w3.org/2000/svg" xmlns:xlink="http://www.w3.org/1999/xlink">
<g id="graph0" class="graph" transform="scale(1 1) rotate(0) translate(4 142)">
<title>core/src/helpers/PinManipulation.h</title>
<polygon fill="white" stroke="none" points="-4,4 -4,-142 199,-142 199,4 -4,4"/>
<!-- Node1 -->
<g id="node1" class="node"><title>Node1</title>
<polygon fill="#bfbfbf" stroke="black" points="0,-116.5 0,-137.5 195,-137.5 195,-116.5 0,-116.5"/>
<text text-anchor="middle" x="97.5" y="-123.9" font-family="Helvetica,sans-Serif" font-size="12.00">core/src/helpers/PinManipulation.h</text>
</g>
<!-- Node2 -->
<g id="node2" class="node"><title>Node2</title>
<g id="a_node2"><a xlink:href="core_2src_2helpers_2_helpers_8h.html" target="_top" xlink:title="core/src/helpers/Helpers.h">
<polygon fill="white" stroke="black" points="21.5,-58.5 21.5,-79.5 173.5,-79.5 173.5,-58.5 21.5,-58.5"/>
<text text-anchor="middle" x="97.5" y="-65.9" font-family="Helvetica,sans-Serif" font-size="12.00">core/src/helpers/Helpers.h</text>
</a>
</g>
</g>
<!-- Node1&#45;&gt;Node2 -->
<g id="edge1" class="edge"><title>Node1&#45;&gt;Node2</title>
<path fill="none" stroke="midnightblue" d="M97.5,-106.158C97.5,-97.155 97.5,-86.9199 97.5,-79.6427"/>
<polygon fill="midnightblue" stroke="midnightblue" points="94.0001,-106.246 97.5,-116.246 101,-106.246 94.0001,-106.246"/>
</g>
<!-- Node3 -->
<g id="node3" class="node"><title>Node3</title>
<g id="a_node3"><a xlink:href="_core_8h.html" target="_top" xlink:title="core/src/Core.h">
<polygon fill="white" stroke="black" points="49,-0.5 49,-21.5 146,-21.5 146,-0.5 49,-0.5"/>
<text text-anchor="middle" x="97.5" y="-7.9" font-family="Helvetica,sans-Serif" font-size="12.00">core/src/Core.h</text>
</a>
</g>
</g>
<!-- Node2&#45;&gt;Node3 -->
<g id="edge2" class="edge"><title>Node2&#45;&gt;Node3</title>
<path fill="none" stroke="midnightblue" d="M97.5,-48.1575C97.5,-39.155 97.5,-28.9199 97.5,-21.6427"/>
<polygon fill="midnightblue" stroke="midnightblue" points="94.0001,-48.2455 97.5,-58.2455 101,-48.2456 94.0001,-48.2455"/>
</g>
</g>
</svg>
