<?xml version="1.0" encoding="UTF-8" standalone="no"?>
<!DOCTYPE svg PUBLIC "-//W3C//DTD SVG 1.1//EN"
 "http://www.w3.org/Graphics/SVG/1.1/DTD/svg11.dtd">
<!-- Generated by graphviz version 2.38.0 (20140413.2041)
 -->
<!-- Title: board/v1/constants/Reboot.h Pages: 1 -->
<svg width="1101pt" height="230pt"
 viewBox="0.00 0.00 1100.50 230.00" xmlns="http://www.w3.org/2000/svg" xmlns:xlink="http://www.w3.org/1999/xlink">
<g id="graph0" class="graph" transform="scale(1 1) rotate(0) translate(4 226)">
<title>board/v1/constants/Reboot.h</title>
<polygon fill="white" stroke="none" points="-4,4 -4,-226 1096.5,-226 1096.5,4 -4,4"/>
<!-- Node1 -->
<g id="node1" class="node"><title>Node1</title>
<polygon fill="#bfbfbf" stroke="black" points="383,-187.5 383,-221.5 498,-221.5 498,-187.5 383,-187.5"/>
<text text-anchor="start" x="391" y="-207.9" font-family="Helvetica,sans-Serif" font-size="12.00">board/v1/constants</text>
<text text-anchor="middle" x="440.5" y="-194.9" font-family="Helvetica,sans-Serif" font-size="12.00">/Reboot.h</text>
</g>
<!-- Node2 -->
<g id="node2" class="node"><title>Node2</title>
<g id="a_node2"><a xlink:href="board_2v1_2constants_2_constants_8h.html" target="_top" xlink:title="board/v1/constants\l/Constants.h">
<polygon fill="white" stroke="black" points="383,-116.5 383,-150.5 498,-150.5 498,-116.5 383,-116.5"/>
<text text-anchor="start" x="391" y="-136.9" font-family="Helvetica,sans-Serif" font-size="12.00">board/v1/constants</text>
<text text-anchor="middle" x="440.5" y="-123.9" font-family="Helvetica,sans-Serif" font-size="12.00">/Constants.h</text>
</a>
</g>
</g>
<!-- Node1&#45;&gt;Node2 -->
<g id="edge1" class="edge"><title>Node1&#45;&gt;Node2</title>
<path fill="none" stroke="midnightblue" d="M440.5,-177.247C440.5,-168.392 440.5,-158.767 440.5,-150.896"/>
<polygon fill="midnightblue" stroke="midnightblue" points="437,-177.497 440.5,-187.497 444,-177.497 437,-177.497"/>
</g>
<!-- Node3 -->
<g id="node3" class="node"><title>Node3</title>
<g id="a_node3"><a xlink:href="v1_2_board_8h.html" target="_top" xlink:title="board/v1/Board.h">
<polygon fill="white" stroke="black" points="455,-58.5 455,-79.5 562,-79.5 562,-58.5 455,-58.5"/>
<text text-anchor="middle" x="508.5" y="-65.9" font-family="Helvetica,sans-Serif" font-size="12.00">board/v1/Board.h</text>
</a>
</g>
</g>
<!-- Node2&#45;&gt;Node3 -->
<g id="edge2" class="edge"><title>Node2&#45;&gt;Node3</title>
<path fill="none" stroke="midnightblue" d="M465.45,-109.568C476.611,-99.3094 489.177,-87.7604 497.838,-79.8"/>
<polygon fill="midnightblue" stroke="midnightblue" points="463.006,-107.061 458.012,-116.405 467.743,-112.215 463.006,-107.061"/>
</g>
<!-- Node12 -->
<g id="node12" class="node"><title>Node12</title>
<g id="a_node12"><a xlink:href="board_2v1_2_variables_8h.html" target="_top" xlink:title="board/v1/Variables.h">
<polygon fill="white" stroke="black" points="303,-58.5 303,-79.5 428,-79.5 428,-58.5 303,-58.5"/>
<text text-anchor="middle" x="365.5" y="-65.9" font-family="Helvetica,sans-Serif" font-size="12.00">board/v1/Variables.h</text>
</a>
</g>
</g>
<!-- Node2&#45;&gt;Node12 -->
<g id="edge11" class="edge"><title>Node2&#45;&gt;Node12</title>
<path fill="none" stroke="midnightblue" d="M413.337,-109.864C400.938,-99.5318 386.904,-87.8369 377.26,-79.8"/>
<polygon fill="midnightblue" stroke="midnightblue" points="411.263,-112.692 421.186,-116.405 415.744,-107.314 411.263,-112.692"/>
</g>
<!-- Node4 -->
<g id="node4" class="node"><title>Node4</title>
<g id="a_node4"><a xlink:href="board_2v1_2_analog_8cpp.html" target="_top" xlink:title="board/v1/Analog.cpp">
<polygon fill="white" stroke="black" points="0,-0.5 0,-21.5 125,-21.5 125,-0.5 0,-0.5"/>
<text text-anchor="middle" x="62.5" y="-7.9" font-family="Helvetica,sans-Serif" font-size="12.00">board/v1/Analog.cpp</text>
</a>
</g>
</g>
<!-- Node3&#45;&gt;Node4 -->
<g id="edge3" class="edge"><title>Node3&#45;&gt;Node4</title>
<path fill="none" stroke="midnightblue" d="M444.634,-59.0621C441.886,-58.6989 439.166,-58.3434 436.5,-58 301.998,-40.6711 267.985,-39.458 133.5,-22 130.784,-21.6475 128.011,-21.2817 125.21,-20.9075"/>
<polygon fill="midnightblue" stroke="midnightblue" points="444.277,-62.5454 454.652,-60.4029 445.205,-55.6073 444.277,-62.5454"/>
</g>
<!-- Node5 -->
<g id="node5" class="node"><title>Node5</title>
<g id="a_node5"><a xlink:href="_board_8cpp.html" target="_top" xlink:title="board/v1/Board.cpp">
<polygon fill="white" stroke="black" points="716.5,-0.5 716.5,-21.5 836.5,-21.5 836.5,-0.5 716.5,-0.5"/>
<text text-anchor="middle" x="776.5" y="-7.9" font-family="Helvetica,sans-Serif" font-size="12.00">board/v1/Board.cpp</text>
</a>
</g>
</g>
<!-- Node3&#45;&gt;Node5 -->
<g id="edge4" class="edge"><title>Node3&#45;&gt;Node5</title>
<path fill="none" stroke="midnightblue" d="M564.148,-56.372C613.544,-46.0505 684.836,-31.1537 730.922,-21.5237"/>
<polygon fill="midnightblue" stroke="midnightblue" points="563.339,-52.9654 554.266,-58.4369 564.771,-59.8174 563.339,-52.9654"/>
</g>
<!-- Node6 -->
<g id="node6" class="node"><title>Node6</title>
<g id="a_node6"><a xlink:href="board_2v1_2_buttons_8cpp.html" target="_top" xlink:title="board/v1/Buttons.cpp">
<polygon fill="white" stroke="black" points="143,-0.5 143,-21.5 270,-21.5 270,-0.5 143,-0.5"/>
<text text-anchor="middle" x="206.5" y="-7.9" font-family="Helvetica,sans-Serif" font-size="12.00">board/v1/Buttons.cpp</text>
</a>
</g>
</g>
<!-- Node3&#45;&gt;Node6 -->
<g id="edge5" class="edge"><title>Node3&#45;&gt;Node6</title>
<path fill="none" stroke="midnightblue" d="M446.835,-56.5654C391.137,-46.2373 310.118,-31.214 257.86,-21.5237"/>
<polygon fill="midnightblue" stroke="midnightblue" points="446.457,-60.0549 456.927,-58.4369 447.733,-53.1722 446.457,-60.0549"/>
</g>
<!-- Node7 -->
<g id="node7" class="node"><title>Node7</title>
<g id="a_node7"><a xlink:href="board_2v1_2_encoders_8cpp.html" target="_top" xlink:title="board/v1/Encoders.cpp">
<polygon fill="white" stroke="black" points="288.5,-0.5 288.5,-21.5 426.5,-21.5 426.5,-0.5 288.5,-0.5"/>
<text text-anchor="middle" x="357.5" y="-7.9" font-family="Helvetica,sans-Serif" font-size="12.00">board/v1/Encoders.cpp</text>
</a>
</g>
</g>
<!-- Node3&#45;&gt;Node7 -->
<g id="edge6" class="edge"><title>Node3&#45;&gt;Node7</title>
<path fill="none" stroke="midnightblue" d="M472.877,-54.7888C445.306,-44.5639 407.785,-30.6488 383.119,-21.5011"/>
<polygon fill="midnightblue" stroke="midnightblue" points="471.949,-58.1776 482.542,-58.3733 474.383,-51.6144 471.949,-58.1776"/>
</g>
<!-- Node8 -->
<g id="node8" class="node"><title>Node8</title>
<g id="a_node8"><a xlink:href="board_2v1_2_init_8cpp.html" target="_top" xlink:title="board/v1/Init.cpp">
<polygon fill="white" stroke="black" points="854.5,-0.5 854.5,-21.5 956.5,-21.5 956.5,-0.5 854.5,-0.5"/>
<text text-anchor="middle" x="905.5" y="-7.9" font-family="Helvetica,sans-Serif" font-size="12.00">board/v1/Init.cpp</text>
</a>
</g>
</g>
<!-- Node3&#45;&gt;Node8 -->
<g id="edge7" class="edge"><title>Node3&#45;&gt;Node8</title>
<path fill="none" stroke="midnightblue" d="M572.371,-59.8519C640.208,-51.0643 750.54,-36.3911 845.5,-22 848.424,-21.5569 851.425,-21.0912 854.453,-20.613"/>
<polygon fill="midnightblue" stroke="midnightblue" points="571.736,-56.4047 562.267,-61.1578 572.633,-63.3469 571.736,-56.4047"/>
</g>
<!-- Node9 -->
<g id="node9" class="node"><title>Node9</title>
<g id="a_node9"><a xlink:href="_in_matrix_8cpp.html" target="_top" xlink:title="board/v1/InMatrix.cpp">
<polygon fill="white" stroke="black" points="444.5,-0.5 444.5,-21.5 572.5,-21.5 572.5,-0.5 444.5,-0.5"/>
<text text-anchor="middle" x="508.5" y="-7.9" font-family="Helvetica,sans-Serif" font-size="12.00">board/v1/InMatrix.cpp</text>
</a>
</g>
</g>
<!-- Node3&#45;&gt;Node9 -->
<g id="edge8" class="edge"><title>Node3&#45;&gt;Node9</title>
<path fill="none" stroke="midnightblue" d="M508.5,-48.1575C508.5,-39.155 508.5,-28.9199 508.5,-21.6427"/>
<polygon fill="midnightblue" stroke="midnightblue" points="505,-48.2455 508.5,-58.2455 512,-48.2456 505,-48.2455"/>
</g>
<!-- Node10 -->
<g id="node10" class="node"><title>Node10</title>
<g id="a_node10"><a xlink:href="_i_s_r_8cpp.html" target="_top" xlink:title="board/v1/ISR.cpp">
<polygon fill="white" stroke="black" points="591,-0.5 591,-21.5 698,-21.5 698,-0.5 591,-0.5"/>
<text text-anchor="middle" x="644.5" y="-7.9" font-family="Helvetica,sans-Serif" font-size="12.00">board/v1/ISR.cpp</text>
</a>
</g>
</g>
<!-- Node3&#45;&gt;Node10 -->
<g id="edge9" class="edge"><title>Node3&#45;&gt;Node10</title>
<path fill="none" stroke="midnightblue" d="M541.24,-54.5189C566.008,-44.3201 599.405,-30.5685 621.426,-21.5011"/>
<polygon fill="midnightblue" stroke="midnightblue" points="539.793,-51.3293 531.879,-58.3733 542.459,-57.8021 539.793,-51.3293"/>
</g>
<!-- Node11 -->
<g id="node11" class="node"><title>Node11</title>
<g id="a_node11"><a xlink:href="board_2v1_2_l_e_ds_8cpp.html" target="_top" xlink:title="board/v1/LEDs.cpp">
<polygon fill="white" stroke="black" points="974.5,-0.5 974.5,-21.5 1092.5,-21.5 1092.5,-0.5 974.5,-0.5"/>
<text text-anchor="middle" x="1033.5" y="-7.9" font-family="Helvetica,sans-Serif" font-size="12.00">board/v1/LEDs.cpp</text>
</a>
</g>
</g>
<!-- Node3&#45;&gt;Node11 -->
<g id="edge10" class="edge"><title>Node3&#45;&gt;Node11</title>
<path fill="none" stroke="midnightblue" d="M572.195,-62.5147C660.598,-54.6906 825.433,-39.3391 965.5,-22 968.342,-21.6482 971.249,-21.2744 974.183,-20.8859"/>
<polygon fill="midnightblue" stroke="midnightblue" points="571.714,-59.0434 562.06,-63.4083 572.329,-66.0164 571.714,-59.0434"/>
</g>
<!-- Node12&#45;&gt;Node4 -->
<g id="edge12" class="edge"><title>Node12&#45;&gt;Node4</title>
<path fill="none" stroke="midnightblue" d="M303.631,-56.5654C247.748,-46.2373 166.461,-31.214 114.03,-21.5237"/>
<polygon fill="midnightblue" stroke="midnightblue" points="303.287,-60.0611 313.757,-58.4369 304.559,-53.1777 303.287,-60.0611"/>
</g>
<!-- Node12&#45;&gt;Node6 -->
<g id="edge13" class="edge"><title>Node12&#45;&gt;Node6</title>
<path fill="none" stroke="midnightblue" d="M328.371,-54.9231C299.305,-44.686 259.563,-30.6889 233.476,-21.5011"/>
<polygon fill="midnightblue" stroke="midnightblue" points="327.572,-58.3524 338.167,-58.3733 329.898,-51.75 327.572,-58.3524"/>
</g>
<!-- Node12&#45;&gt;Node7 -->
<g id="edge14" class="edge"><title>Node12&#45;&gt;Node7</title>
<path fill="none" stroke="midnightblue" d="M362.665,-48.1575C361.379,-39.155 359.917,-28.9199 358.878,-21.6427"/>
<polygon fill="midnightblue" stroke="midnightblue" points="359.227,-48.8411 364.107,-58.2455 366.157,-47.851 359.227,-48.8411"/>
</g>
<!-- Node12&#45;&gt;Node9 -->
<g id="edge15" class="edge"><title>Node12&#45;&gt;Node9</title>
<path fill="none" stroke="midnightblue" d="M399.58,-54.6541C425.657,-44.4419 460.981,-30.6086 484.238,-21.5011"/>
<polygon fill="midnightblue" stroke="midnightblue" points="398.118,-51.4677 390.083,-58.3733 400.67,-57.9858 398.118,-51.4677"/>
</g>
<!-- Node12&#45;&gt;Node10 -->
<g id="edge16" class="edge"><title>Node12&#45;&gt;Node10</title>
<path fill="none" stroke="midnightblue" d="M423.111,-56.4366C474.546,-46.1127 548.973,-31.1738 597.052,-21.5237"/>
<polygon fill="midnightblue" stroke="midnightblue" points="422.26,-53.0373 413.145,-58.4369 423.638,-59.9004 422.26,-53.0373"/>
</g>
</g>
</svg>
