<?xml version="1.0" encoding="UTF-8" standalone="no"?>
<!DOCTYPE svg PUBLIC "-//W3C//DTD SVG 1.1//EN"
 "http://www.w3.org/Graphics/SVG/1.1/DTD/svg11.dtd">
<!-- Generated by graphviz version 2.38.0 (20140413.2041)
 -->
<!-- Title: core/src/reset/Reset.h Pages: 1 -->
<svg width="268pt" height="88pt"
 viewBox="0.00 0.00 267.50 88.00" xmlns="http://www.w3.org/2000/svg" xmlns:xlink="http://www.w3.org/1999/xlink">
<g id="graph0" class="graph" transform="scale(1 1) rotate(0) translate(4 84)">
<title>core/src/reset/Reset.h</title>
<polygon fill="white" stroke="none" points="-4,4 -4,-84 263.5,-84 263.5,4 -4,4"/>
<!-- Node1 -->
<g id="node1" class="node"><title>Node1</title>
<polygon fill="#bfbfbf" stroke="black" points="52,-58.5 52,-79.5 183,-79.5 183,-58.5 52,-58.5"/>
<text text-anchor="middle" x="117.5" y="-65.9" font-family="Helvetica,sans-Serif" font-size="12.00">core/src/reset/Reset.h</text>
</g>
<!-- Node2 -->
<g id="node2" class="node"><title>Node2</title>
<g id="a_node2"><a xlink:href="_core_8h.html" target="_top" xlink:title="core/src/Core.h">
<polygon fill="white" stroke="black" points="0,-0.5 0,-21.5 97,-21.5 97,-0.5 0,-0.5"/>
<text text-anchor="middle" x="48.5" y="-7.9" font-family="Helvetica,sans-Serif" font-size="12.00">core/src/Core.h</text>
</a>
</g>
</g>
<!-- Node1&#45;&gt;Node2 -->
<g id="edge1" class="edge"><title>Node1&#45;&gt;Node2</title>
<path fill="none" stroke="midnightblue" d="M97.697,-51.928C85.6364,-42.1397 70.6286,-29.9595 60.3812,-21.6427"/>
<polygon fill="midnightblue" stroke="midnightblue" points="95.5109,-54.6614 105.481,-58.2455 99.9221,-49.2262 95.5109,-54.6614"/>
</g>
<!-- Node3 -->
<g id="node3" class="node"><title>Node3</title>
<g id="a_node3"><a xlink:href="_reset_8cpp.html" target="_top" xlink:title="core/src/reset/Reset.cpp">
<polygon fill="white" stroke="black" points="115.5,-0.5 115.5,-21.5 259.5,-21.5 259.5,-0.5 115.5,-0.5"/>
<text text-anchor="middle" x="187.5" y="-7.9" font-family="Helvetica,sans-Serif" font-size="12.00">core/src/reset/Reset.cpp</text>
</a>
</g>
</g>
<!-- Node1&#45;&gt;Node3 -->
<g id="edge2" class="edge"><title>Node1&#45;&gt;Node3</title>
<path fill="none" stroke="midnightblue" d="M137.59,-51.928C149.825,-42.1397 165.051,-29.9595 175.447,-21.6427"/>
<polygon fill="midnightblue" stroke="midnightblue" points="135.315,-49.2655 129.693,-58.2455 139.688,-54.7316 135.315,-49.2655"/>
</g>
</g>
</svg>
