<?xml version="1.0" encoding="UTF-8" standalone="no"?>
<!DOCTYPE svg PUBLIC "-//W3C//DTD SVG 1.1//EN"
 "http://www.w3.org/Graphics/SVG/1.1/DTD/svg11.dtd">
<!-- Generated by graphviz version 2.38.0 (20140413.2041)
 -->
<!-- Title: core/src/general/RingBuffer.h Pages: 1 -->
<svg width="219pt" height="146pt"
 viewBox="0.00 0.00 218.50 146.00" xmlns="http://www.w3.org/2000/svg" xmlns:xlink="http://www.w3.org/1999/xlink">
<g id="graph0" class="graph" transform="scale(1 1) rotate(0) translate(4 142)">
<title>core/src/general/RingBuffer.h</title>
<polygon fill="white" stroke="none" points="-4,4 -4,-142 214.5,-142 214.5,4 -4,4"/>
<!-- Node0 -->
<g id="node1" class="node"><title>Node0</title>
<polygon fill="#bfbfbf" stroke="black" points="0,-116.5 0,-137.5 167,-137.5 167,-116.5 0,-116.5"/>
<text text-anchor="middle" x="83.5" y="-123.9" font-family="Helvetica,sans-Serif" font-size="12.00">core/src/general/RingBuffer.h</text>
</g>
<!-- Node1 -->
<g id="node2" class="node"><title>Node1</title>
<polygon fill="white" stroke="#bfbfbf" points="24,-0.5 24,-21.5 89,-21.5 89,-0.5 24,-0.5"/>
<text text-anchor="middle" x="56.5" y="-7.9" font-family="Helvetica,sans-Serif" font-size="12.00">inttypes.h</text>
</g>
<!-- Node0&#45;&gt;Node1 -->
<g id="edge1" class="edge"><title>Node0&#45;&gt;Node1</title>
<path fill="none" stroke="midnightblue" d="M73.5638,-116.491C65.324,-107.865 54.2233,-94.3368 49.5,-80 44.2842,-64.1682 46.8987,-45.2397 50.3214,-31.378"/>
<polygon fill="midnightblue" stroke="midnightblue" points="53.7604,-32.0781 53.1055,-21.5035 47.0231,-30.1784 53.7604,-32.0781"/>
</g>
<!-- Node2 -->
<g id="node3" class="node"><title>Node2</title>
<g id="a_node3"><a xlink:href="_misc_8h.html" target="_top" xlink:title="Misc.h">
<polygon fill="white" stroke="black" points="58.5,-58.5 58.5,-79.5 108.5,-79.5 108.5,-58.5 58.5,-58.5"/>
<text text-anchor="middle" x="83.5" y="-65.9" font-family="Helvetica,sans-Serif" font-size="12.00">Misc.h</text>
</a>
</g>
</g>
<!-- Node0&#45;&gt;Node2 -->
<g id="edge2" class="edge"><title>Node0&#45;&gt;Node2</title>
<path fill="none" stroke="midnightblue" d="M83.5,-116.246C83.5,-108.938 83.5,-98.6944 83.5,-89.7046"/>
<polygon fill="midnightblue" stroke="midnightblue" points="87.0001,-89.6426 83.5,-79.6427 80.0001,-89.6427 87.0001,-89.6426"/>
</g>
<!-- Node3 -->
<g id="node4" class="node"><title>Node3</title>
<g id="a_node4"><a xlink:href="_h_a_l_8h.html" target="_top" xlink:title="../HAL/HAL.h">
<polygon fill="white" stroke="black" points="126.5,-58.5 126.5,-79.5 210.5,-79.5 210.5,-58.5 126.5,-58.5"/>
<text text-anchor="middle" x="168.5" y="-65.9" font-family="Helvetica,sans-Serif" font-size="12.00">../HAL/HAL.h</text>
</a>
</g>
</g>
<!-- Node0&#45;&gt;Node3 -->
<g id="edge4" class="edge"><title>Node0&#45;&gt;Node3</title>
<path fill="none" stroke="midnightblue" d="M98.3059,-116.246C111.226,-107.734 130.193,-95.2375 145.155,-85.3801"/>
<polygon fill="midnightblue" stroke="midnightblue" points="147.439,-88.067 153.864,-79.6427 143.588,-82.2216 147.439,-88.067"/>
</g>
<!-- Node2&#45;&gt;Node1 -->
<g id="edge3" class="edge"><title>Node2&#45;&gt;Node1</title>
<path fill="none" stroke="midnightblue" d="M78.797,-58.2455C75.1576,-50.6973 70.0076,-40.0158 65.5738,-30.8197"/>
<polygon fill="midnightblue" stroke="midnightblue" points="68.6449,-29.1303 61.1491,-21.6427 62.3395,-32.1704 68.6449,-29.1303"/>
</g>
</g>
</svg>
