<?xml version="1.0" encoding="UTF-8" standalone="no"?>
<!DOCTYPE svg PUBLIC "-//W3C//DTD SVG 1.1//EN"
 "http://www.w3.org/Graphics/SVG/1.1/DTD/svg11.dtd">
<!-- Generated by graphviz version 2.38.0 (20140413.2041)
 -->
<!-- Title: core/src/spi/SPI.h Pages: 1 -->
<svg width="246pt" height="88pt"
 viewBox="0.00 0.00 245.50 88.00" xmlns="http://www.w3.org/2000/svg" xmlns:xlink="http://www.w3.org/1999/xlink">
<g id="graph0" class="graph" transform="scale(1 1) rotate(0) translate(4 84)">
<title>core/src/spi/SPI.h</title>
<polygon fill="white" stroke="none" points="-4,4 -4,-84 241.5,-84 241.5,4 -4,4"/>
<!-- Node1 -->
<g id="node1" class="node"><title>Node1</title>
<polygon fill="#bfbfbf" stroke="black" points="58.5,-58.5 58.5,-79.5 166.5,-79.5 166.5,-58.5 58.5,-58.5"/>
<text text-anchor="middle" x="112.5" y="-65.9" font-family="Helvetica,sans-Serif" font-size="12.00">core/src/spi/SPI.h</text>
</g>
<!-- Node2 -->
<g id="node2" class="node"><title>Node2</title>
<g id="a_node2"><a xlink:href="_core_8h.html" target="_top" xlink:title="core/src/Core.h">
<polygon fill="white" stroke="black" points="0,-0.5 0,-21.5 97,-21.5 97,-0.5 0,-0.5"/>
<text text-anchor="middle" x="48.5" y="-7.9" font-family="Helvetica,sans-Serif" font-size="12.00">core/src/Core.h</text>
</a>
</g>
</g>
<!-- Node1&#45;&gt;Node2 -->
<g id="edge1" class="edge"><title>Node1&#45;&gt;Node2</title>
<path fill="none" stroke="midnightblue" d="M93.8086,-51.645C82.6781,-41.9058 68.9337,-29.8795 59.5202,-21.6427"/>
<polygon fill="midnightblue" stroke="midnightblue" points="91.5215,-54.2945 101.352,-58.2455 96.131,-49.0264 91.5215,-54.2945"/>
</g>
<!-- Node3 -->
<g id="node3" class="node"><title>Node3</title>
<g id="a_node3"><a xlink:href="_s_p_i_8cpp.html" target="_top" xlink:title="core/src/spi/SPI.cpp">
<polygon fill="white" stroke="black" points="115.5,-0.5 115.5,-21.5 237.5,-21.5 237.5,-0.5 115.5,-0.5"/>
<text text-anchor="middle" x="176.5" y="-7.9" font-family="Helvetica,sans-Serif" font-size="12.00">core/src/spi/SPI.cpp</text>
</a>
</g>
</g>
<!-- Node1&#45;&gt;Node3 -->
<g id="edge2" class="edge"><title>Node1&#45;&gt;Node3</title>
<path fill="none" stroke="midnightblue" d="M131.191,-51.645C142.322,-41.9058 156.066,-29.8795 165.48,-21.6427"/>
<polygon fill="midnightblue" stroke="midnightblue" points="128.869,-49.0264 123.648,-58.2455 133.479,-54.2945 128.869,-49.0264"/>
</g>
</g>
</svg>
