<?xml version="1.0" encoding="UTF-8" standalone="no"?>
<!DOCTYPE svg PUBLIC "-//W3C//DTD SVG 1.1//EN"
 "http://www.w3.org/Graphics/SVG/1.1/DTD/svg11.dtd">
<!-- Generated by graphviz version 2.38.0 (20140413.2041)
 -->
<!-- Title: core/src/strings/Strings.cpp Pages: 1 -->
<svg width="166pt" height="146pt"
 viewBox="0.00 0.00 166.00 146.00" xmlns="http://www.w3.org/2000/svg" xmlns:xlink="http://www.w3.org/1999/xlink">
<g id="graph0" class="graph" transform="scale(1 1) rotate(0) translate(4 142)">
<title>core/src/strings/Strings.cpp</title>
<polygon fill="white" stroke="none" points="-4,4 -4,-142 162,-142 162,4 -4,4"/>
<!-- Node0 -->
<g id="node1" class="node"><title>Node0</title>
<polygon fill="#bfbfbf" stroke="black" points="0,-116.5 0,-137.5 158,-137.5 158,-116.5 0,-116.5"/>
<text text-anchor="middle" x="79" y="-123.9" font-family="Helvetica,sans-Serif" font-size="12.00">core/src/strings/Strings.cpp</text>
</g>
<!-- Node1 -->
<g id="node2" class="node"><title>Node1</title>
<g id="a_node2"><a xlink:href="_strings_8h.html" target="_top" xlink:title="Strings.h">
<polygon fill="white" stroke="black" points="48,-58.5 48,-79.5 110,-79.5 110,-58.5 48,-58.5"/>
<text text-anchor="middle" x="79" y="-65.9" font-family="Helvetica,sans-Serif" font-size="12.00">Strings.h</text>
</a>
</g>
</g>
<!-- Node0&#45;&gt;Node1 -->
<g id="edge1" class="edge"><title>Node0&#45;&gt;Node1</title>
<path fill="none" stroke="midnightblue" d="M79,-116.246C79,-108.938 79,-98.6944 79,-89.7046"/>
<polygon fill="midnightblue" stroke="midnightblue" points="82.5001,-89.6426 79,-79.6427 75.5001,-89.6427 82.5001,-89.6426"/>
</g>
<!-- Node2 -->
<g id="node3" class="node"><title>Node2</title>
<g id="a_node3"><a xlink:href="core_2src_2strings_2_config_8h.html" target="_top" xlink:title="Config.h">
<polygon fill="white" stroke="black" points="49,-0.5 49,-21.5 109,-21.5 109,-0.5 49,-0.5"/>
<text text-anchor="middle" x="79" y="-7.9" font-family="Helvetica,sans-Serif" font-size="12.00">Config.h</text>
</a>
</g>
</g>
<!-- Node1&#45;&gt;Node2 -->
<g id="edge2" class="edge"><title>Node1&#45;&gt;Node2</title>
<path fill="none" stroke="midnightblue" d="M79,-58.2455C79,-50.9382 79,-40.6944 79,-31.7046"/>
<polygon fill="midnightblue" stroke="midnightblue" points="82.5001,-31.6426 79,-21.6427 75.5001,-31.6427 82.5001,-31.6426"/>
</g>
</g>
</svg>
