<?xml version="1.0" encoding="UTF-8" standalone="no"?>
<!DOCTYPE svg PUBLIC "-//W3C//DTD SVG 1.1//EN"
 "http://www.w3.org/Graphics/SVG/1.1/DTD/svg11.dtd">
<!-- Generated by graphviz version 2.38.0 (20140413.2041)
 -->
<!-- Title: core/src/general/Strings.h Pages: 1 -->
<svg width="203pt" height="88pt"
 viewBox="0.00 0.00 202.50 88.00" xmlns="http://www.w3.org/2000/svg" xmlns:xlink="http://www.w3.org/1999/xlink">
<g id="graph0" class="graph" transform="scale(1 1) rotate(0) translate(4 84)">
<title>core/src/general/Strings.h</title>
<polygon fill="white" stroke="none" points="-4,4 -4,-84 198.5,-84 198.5,4 -4,4"/>
<!-- Node0 -->
<g id="node1" class="node"><title>Node0</title>
<polygon fill="#bfbfbf" stroke="black" points="22,-58.5 22,-79.5 171,-79.5 171,-58.5 22,-58.5"/>
<text text-anchor="middle" x="96.5" y="-65.9" font-family="Helvetica,sans-Serif" font-size="12.00">core/src/general/Strings.h</text>
</g>
<!-- Node1 -->
<g id="node2" class="node"><title>Node1</title>
<polygon fill="white" stroke="#bfbfbf" points="0,-0.5 0,-21.5 53,-21.5 53,-0.5 0,-0.5"/>
<text text-anchor="middle" x="26.5" y="-7.9" font-family="Helvetica,sans-Serif" font-size="12.00">stdlib.h</text>
</g>
<!-- Node0&#45;&gt;Node1 -->
<g id="edge1" class="edge"><title>Node0&#45;&gt;Node1</title>
<path fill="none" stroke="midnightblue" d="M84.3069,-58.2455C73.8679,-49.8943 58.6345,-37.7076 46.426,-27.9408"/>
<polygon fill="midnightblue" stroke="midnightblue" points="48.5485,-25.1566 38.5533,-21.6427 44.1756,-30.6227 48.5485,-25.1566"/>
</g>
<!-- Node2 -->
<g id="node3" class="node"><title>Node2</title>
<polygon fill="white" stroke="#bfbfbf" points="71,-0.5 71,-21.5 122,-21.5 122,-0.5 71,-0.5"/>
<text text-anchor="middle" x="96.5" y="-7.9" font-family="Helvetica,sans-Serif" font-size="12.00">stdio.h</text>
</g>
<!-- Node0&#45;&gt;Node2 -->
<g id="edge2" class="edge"><title>Node0&#45;&gt;Node2</title>
<path fill="none" stroke="midnightblue" d="M96.5,-58.2455C96.5,-50.9382 96.5,-40.6944 96.5,-31.7046"/>
<polygon fill="midnightblue" stroke="midnightblue" points="100,-31.6426 96.5,-21.6427 93.0001,-31.6427 100,-31.6426"/>
</g>
<!-- Node3 -->
<g id="node4" class="node"><title>Node3</title>
<polygon fill="white" stroke="#bfbfbf" points="140.5,-0.5 140.5,-21.5 194.5,-21.5 194.5,-0.5 140.5,-0.5"/>
<text text-anchor="middle" x="167.5" y="-7.9" font-family="Helvetica,sans-Serif" font-size="12.00">string.h</text>
</g>
<!-- Node0&#45;&gt;Node3 -->
<g id="edge3" class="edge"><title>Node0&#45;&gt;Node3</title>
<path fill="none" stroke="midnightblue" d="M108.867,-58.2455C119.455,-49.8943 134.906,-37.7076 147.289,-27.9408"/>
<polygon fill="midnightblue" stroke="midnightblue" points="149.59,-30.5837 155.274,-21.6427 145.255,-25.0875 149.59,-30.5837"/>
</g>
</g>
</svg>
