<?xml version="1.0" encoding="UTF-8" standalone="no"?>
<!DOCTYPE svg PUBLIC "-//W3C//DTD SVG 1.1//EN"
 "http://www.w3.org/Graphics/SVG/1.1/DTD/svg11.dtd">
<!-- Generated by graphviz version 2.38.0 (20140413.2041)
 -->
<!-- Title: sysex/src/SysEx.h Pages: 1 -->
<!--zoomable 301 -->
<svg id="main" version="1.1" xmlns="http://www.w3.org/2000/svg" xmlns:xlink="http://www.w3.org/1999/xlink" xml:space="preserve" onload="init(evt)">
<style type="text/css"><![CDATA[
.edge:hover path { stroke: red; }
.edge:hover polygon { stroke: red; fill: red; }
]]></style>
<script type="text/javascript"><![CDATA[
var edges = document.getElementsByTagName('g');
if (edges && edges.length) {
  for (var i=0;i<edges.length;i++) {
    if (edges[i].id.substr(0,4)=='edge') {
      edges[i].setAttribute('class','edge');
    }
  }
}
]]></script>
        <defs>
                <circle id="rim" cx="0" cy="0" r="7"/>
                <circle id="rim2" cx="0" cy="0" r="3.5"/>
                <g id="zoomPlus">
                        <use xlink:href="#rim" fill="#404040">
                                <set attributeName="fill" to="#808080" begin="zoomplus.mouseover" end="zoomplus.mouseout"/>
                        </use>
                        <path d="M-4,0h8M0,-4v8" fill="none" stroke="white" stroke-width="1.5" pointer-events="none"/>
                </g>
                <g id="zoomMin">
                        <use xlink:href="#rim" fill="#404040">
                                <set attributeName="fill" to="#808080" begin="zoomminus.mouseover" end="zoomminus.mouseout"/>
                        </use>
                        <path d="M-4,0h8" fill="none" stroke="white" stroke-width="1.5" pointer-events="none"/>
                </g>
                <g id="dirArrow">
                        <path fill="none" stroke="white" stroke-width="1.5" d="M0,-3.0v7 M-2.5,-0.5L0,-3.0L2.5,-0.5"/>
                </g>
               <g id="resetDef">
                       <use xlink:href="#rim2" fill="#404040">
                               <set attributeName="fill" to="#808080" begin="reset.mouseover" end="reset.mouseout"/>
                       </use>
               </g>
        </defs>

<script type="text/javascript">
var viewWidth = 946;
var viewHeight = 301;
var sectionId = 'dynsection-1';
</script>
<script xlink:href="svgpan.js"/>
<svg id="graph" class="graph">
<g id="viewport">
<title>sysex/src/SysEx.h</title>
<polygon fill="white" stroke="none" points="-4,4 -4,-297 941.5,-297 941.5,4 -4,4"/>
<!-- Node35 -->
<g id="node1" class="node"><title>Node35</title>
<polygon fill="#bfbfbf" stroke="black" points="426,-271.5 426,-292.5 536,-292.5 536,-271.5 426,-271.5"/>
<text text-anchor="middle" x="481" y="-278.9" font-family="Helvetica,sans-Serif" font-size="12.00">sysex/src/SysEx.h</text>
</g>
<!-- Node36 -->
<g id="node2" class="node"><title>Node36</title>
<g id="a_node2"><a xlink:href="_open_deck_8h.html" target="_top" xlink:title="OpenDeck.h">
<polygon fill="white" stroke="black" points="440,-213.5 440,-234.5 522,-234.5 522,-213.5 440,-213.5"/>
<text text-anchor="middle" x="481" y="-220.9" font-family="Helvetica,sans-Serif" font-size="12.00">OpenDeck.h</text>
</a>
</g>
</g>
<!-- Node35&#45;&gt;Node36 -->
<g id="edge1" class="edge"><title>Node35&#45;&gt;Node36</title>
<path fill="none" stroke="midnightblue" d="M474.511,-261.158C473.919,-252.155 474.334,-241.92 475.755,-234.643"/>
<polygon fill="midnightblue" stroke="midnightblue" points="471.056,-261.739 475.733,-271.246 478.005,-260.897 471.056,-261.739"/>
</g>
<!-- Node50 -->
<g id="node16" class="node"><title>Node50</title>
<g id="a_node16"><a xlink:href="_sys_ex_8cpp.html" target="_top" xlink:title="sysex/src/SysEx.cpp">
<polygon fill="white" stroke="black" points="540.5,-213.5 540.5,-234.5 663.5,-234.5 663.5,-213.5 540.5,-213.5"/>
<text text-anchor="middle" x="602" y="-220.9" font-family="Helvetica,sans-Serif" font-size="12.00">sysex/src/SysEx.cpp</text>
</a>
</g>
</g>
<!-- Node35&#45;&gt;Node50 -->
<g id="edge22" class="edge"><title>Node35&#45;&gt;Node50</title>
<path fill="none" stroke="midnightblue" d="M511.01,-267.111C532.953,-256.956 562.139,-243.448 581.471,-234.501"/>
<polygon fill="midnightblue" stroke="midnightblue" points="509.406,-263.997 501.801,-271.373 512.346,-270.349 509.406,-263.997"/>
</g>
<!-- Node36&#45;&gt;Node35 -->
<g id="edge3" class="edge"><title>Node36&#45;&gt;Node35</title>
<path fill="none" stroke="midnightblue" d="M487.48,-244.705C488.082,-253.694 487.678,-263.938 486.267,-271.246"/>
<polygon fill="midnightblue" stroke="midnightblue" points="490.937,-244.142 486.245,-234.643 483.989,-244.994 490.937,-244.142"/>
</g>
<!-- Node37 -->
<g id="node3" class="node"><title>Node37</title>
<g id="a_node3"><a xlink:href="_init_8cpp.html" target="_top" xlink:title="Init.cpp">
<polygon fill="white" stroke="black" points="83.5,-149 83.5,-170 136.5,-170 136.5,-149 83.5,-149"/>
<text text-anchor="middle" x="110" y="-156.4" font-family="Helvetica,sans-Serif" font-size="12.00">Init.cpp</text>
</a>
</g>
</g>
<!-- Node36&#45;&gt;Node37 -->
<g id="edge2" class="edge"><title>Node36&#45;&gt;Node37</title>
<path fill="none" stroke="midnightblue" d="M429.558,-220.81C362.741,-216.874 243.053,-206.078 145,-177 139.204,-175.281 133.157,-172.731 127.752,-170.148"/>
<polygon fill="midnightblue" stroke="midnightblue" points="429.636,-224.32 439.816,-221.385 430.028,-217.331 429.636,-224.32"/>
</g>
<!-- Node38 -->
<g id="node4" class="node"><title>Node38</title>
<g id="a_node4"><a xlink:href="interface_2digital_2input_2buttons_2_buttons_8h.html" target="_top" xlink:title="interface/digital/input\l/buttons/Buttons.h">
<polygon fill="white" stroke="black" points="358,-142.5 358,-176.5 482,-176.5 482,-142.5 358,-142.5"/>
<text text-anchor="start" x="366" y="-162.9" font-family="Helvetica,sans-Serif" font-size="12.00">interface/digital/input</text>
<text text-anchor="middle" x="420" y="-149.9" font-family="Helvetica,sans-Serif" font-size="12.00">/buttons/Buttons.h</text>
</a>
</g>
</g>
<!-- Node36&#45;&gt;Node38 -->
<g id="edge4" class="edge"><title>Node36&#45;&gt;Node38</title>
<path fill="none" stroke="midnightblue" d="M464.29,-205.879C455.428,-196.8 444.6,-185.705 435.868,-176.758"/>
<polygon fill="midnightblue" stroke="midnightblue" points="461.979,-208.523 471.469,-213.234 466.989,-203.633 461.979,-208.523"/>
</g>
<!-- Node39 -->
<g id="node5" class="node"><title>Node39</title>
<g id="a_node5"><a xlink:href="interface_2analog_2_analog_8h.html" target="_top" xlink:title="interface/analog/Analog.h">
<polygon fill="white" stroke="black" points="484.5,-78 484.5,-99 633.5,-99 633.5,-78 484.5,-78"/>
<text text-anchor="middle" x="559" y="-85.4" font-family="Helvetica,sans-Serif" font-size="12.00">interface/analog/Analog.h</text>
</a>
</g>
</g>
<!-- Node36&#45;&gt;Node39 -->
<g id="edge15" class="edge"><title>Node36&#45;&gt;Node39</title>
<path fill="none" stroke="midnightblue" d="M491.679,-204.723C508.496,-175.94 540.562,-121.058 553.441,-99.014"/>
<polygon fill="midnightblue" stroke="midnightblue" points="488.632,-202.999 486.61,-213.399 494.676,-206.53 488.632,-202.999"/>
</g>
<!-- Node42 -->
<g id="node8" class="node"><title>Node42</title>
<g id="a_node8"><a xlink:href="_f_s_r_8cpp.html" target="_top" xlink:title="interface/analog/FSR.cpp">
<polygon fill="white" stroke="black" points="571.5,-7 571.5,-28 720.5,-28 720.5,-7 571.5,-7"/>
<text text-anchor="middle" x="646" y="-14.4" font-family="Helvetica,sans-Serif" font-size="12.00">interface/analog/FSR.cpp</text>
</a>
</g>
</g>
<!-- Node36&#45;&gt;Node42 -->
<g id="edge19" class="edge"><title>Node36&#45;&gt;Node42</title>
<path fill="none" stroke="midnightblue" d="M514.754,-209.367C553.231,-191.812 614.36,-157.321 642,-106 655.628,-80.6956 651.314,-45.062 648.122,-28.1434"/>
<polygon fill="midnightblue" stroke="midnightblue" points="513.222,-206.217 505.494,-213.465 516.055,-212.618 513.222,-206.217"/>
</g>
<!-- Node43 -->
<g id="node9" class="node"><title>Node43</title>
<g id="a_node9"><a xlink:href="_potentiometer_8cpp.html" target="_top" xlink:title="interface/analog/Potentiometer.cpp">
<polygon fill="white" stroke="black" points="738.5,-7 738.5,-28 937.5,-28 937.5,-7 738.5,-7"/>
<text text-anchor="middle" x="838" y="-14.4" font-family="Helvetica,sans-Serif" font-size="12.00">interface/analog/Potentiometer.cpp</text>
</a>
</g>
</g>
<!-- Node36&#45;&gt;Node43 -->
<g id="edge20" class="edge"><title>Node36&#45;&gt;Node43</title>
<path fill="none" stroke="midnightblue" d="M524.577,-210.456C549.899,-202.41 582.029,-190.878 609,-177 698.426,-130.986 793.711,-55.11 826.298,-28.2742"/>
<polygon fill="midnightblue" stroke="midnightblue" points="523.389,-207.16 514.881,-213.474 525.469,-213.844 523.389,-207.16"/>
</g>
<!-- Node47 -->
<g id="node13" class="node"><title>Node47</title>
<g id="a_node13"><a xlink:href="interface_2digital_2input_2encoders_2_encoders_8h.html" target="_top" xlink:title="interface/digital/input\l/encoders/Encoders.h">
<polygon fill="white" stroke="black" points="154.5,-142.5 154.5,-176.5 285.5,-176.5 285.5,-142.5 154.5,-142.5"/>
<text text-anchor="start" x="162.5" y="-162.9" font-family="Helvetica,sans-Serif" font-size="12.00">interface/digital/input</text>
<text text-anchor="middle" x="220" y="-149.9" font-family="Helvetica,sans-Serif" font-size="12.00">/encoders/Encoders.h</text>
</a>
</g>
</g>
<!-- Node36&#45;&gt;Node47 -->
<g id="edge16" class="edge"><title>Node36&#45;&gt;Node47</title>
<path fill="none" stroke="midnightblue" d="M431.23,-211.082C389.886,-201.182 330.738,-187.018 285.543,-176.195"/>
<polygon fill="midnightblue" stroke="midnightblue" points="430.535,-214.514 441.076,-213.44 432.166,-207.707 430.535,-214.514"/>
</g>
<!-- Node49 -->
<g id="node15" class="node"><title>Node49</title>
<g id="a_node15"><a xlink:href="_open_deck_8cpp.html" target="_top" xlink:title="OpenDeck.cpp">
<polygon fill="white" stroke="black" points="728.5,-149 728.5,-170 823.5,-170 823.5,-149 728.5,-149"/>
<text text-anchor="middle" x="776" y="-156.4" font-family="Helvetica,sans-Serif" font-size="12.00">OpenDeck.cpp</text>
</a>
</g>
</g>
<!-- Node36&#45;&gt;Node49 -->
<g id="edge21" class="edge"><title>Node36&#45;&gt;Node49</title>
<path fill="none" stroke="midnightblue" d="M532.449,-212.729C614.034,-196.751 636.392,-194.94 714,-177 723.007,-174.918 732.691,-172.451 741.666,-170.069"/>
<polygon fill="midnightblue" stroke="midnightblue" points="531.333,-209.381 522.199,-214.75 532.687,-216.249 531.333,-209.381"/>
</g>
<!-- Node38&#45;&gt;Node39 -->
<g id="edge5" class="edge"><title>Node38&#45;&gt;Node39</title>
<path fill="none" stroke="midnightblue" d="M461.485,-137.907C487.442,-125.022 519.661,-109.028 539.782,-99.0398"/>
<polygon fill="midnightblue" stroke="midnightblue" points="459.64,-134.915 452.239,-142.497 462.752,-141.185 459.64,-134.915"/>
</g>
<!-- Node44 -->
<g id="node10" class="node"><title>Node44</title>
<g id="a_node10"><a xlink:href="_digital_input_8h.html" target="_top" xlink:title="interface/digital/input\l/DigitalInput.h">
<polygon fill="white" stroke="black" points="162,-71.5 162,-105.5 286,-105.5 286,-71.5 162,-71.5"/>
<text text-anchor="start" x="170" y="-91.9" font-family="Helvetica,sans-Serif" font-size="12.00">interface/digital/input</text>
<text text-anchor="middle" x="224" y="-78.9" font-family="Helvetica,sans-Serif" font-size="12.00">/DigitalInput.h</text>
</a>
</g>
</g>
<!-- Node38&#45;&gt;Node44 -->
<g id="edge11" class="edge"><title>Node38&#45;&gt;Node44</title>
<path fill="none" stroke="midnightblue" d="M365.022,-139.145C334.911,-128.545 298.04,-115.565 269.552,-105.536"/>
<polygon fill="midnightblue" stroke="midnightblue" points="363.946,-142.477 374.541,-142.497 366.271,-135.874 363.946,-142.477"/>
</g>
<!-- Node46 -->
<g id="node12" class="node"><title>Node46</title>
<g id="a_node12"><a xlink:href="interface_2digital_2input_2buttons_2_buttons_8cpp.html" target="_top" xlink:title="interface/digital/input\l/buttons/Buttons.cpp">
<polygon fill="white" stroke="black" points="342,-71.5 342,-105.5 466,-105.5 466,-71.5 342,-71.5"/>
<text text-anchor="start" x="350" y="-91.9" font-family="Helvetica,sans-Serif" font-size="12.00">interface/digital/input</text>
<text text-anchor="middle" x="404" y="-78.9" font-family="Helvetica,sans-Serif" font-size="12.00">/buttons/Buttons.cpp</text>
</a>
</g>
</g>
<!-- Node38&#45;&gt;Node46 -->
<g id="edge14" class="edge"><title>Node38&#45;&gt;Node46</title>
<path fill="none" stroke="midnightblue" d="M413.98,-132.538C411.908,-123.603 409.647,-113.853 407.802,-105.896"/>
<polygon fill="midnightblue" stroke="midnightblue" points="410.621,-133.546 416.289,-142.497 417.44,-131.964 410.621,-133.546"/>
</g>
<!-- Node40 -->
<g id="node6" class="node"><title>Node40</title>
<g id="a_node6"><a xlink:href="_interface_8h.html" target="_top" xlink:title="interface/Interface.h">
<polygon fill="white" stroke="black" points="255,-7 255,-28 373,-28 373,-7 255,-7"/>
<text text-anchor="middle" x="314" y="-14.4" font-family="Helvetica,sans-Serif" font-size="12.00">interface/Interface.h</text>
</a>
</g>
</g>
<!-- Node39&#45;&gt;Node40 -->
<g id="edge6" class="edge"><title>Node39&#45;&gt;Node40</title>
<path fill="none" stroke="midnightblue" d="M515.412,-75.2242C467.487,-61.7269 391.507,-40.3284 347.855,-28.0347"/>
<polygon fill="midnightblue" stroke="midnightblue" points="514.617,-78.6363 525.191,-77.9783 516.514,-71.8984 514.617,-78.6363"/>
</g>
<!-- Node41 -->
<g id="node7" class="node"><title>Node41</title>
<g id="a_node7"><a xlink:href="interface_2analog_2_analog_8cpp.html" target="_top" xlink:title="interface/analog/Analog.cpp">
<polygon fill="white" stroke="black" points="391,-7 391,-28 553,-28 553,-7 391,-7"/>
<text text-anchor="middle" x="472" y="-14.4" font-family="Helvetica,sans-Serif" font-size="12.00">interface/analog/Analog.cpp</text>
</a>
</g>
</g>
<!-- Node39&#45;&gt;Node41 -->
<g id="edge8" class="edge"><title>Node39&#45;&gt;Node41</title>
<path fill="none" stroke="midnightblue" d="M538.721,-71.4169C521.748,-57.9554 498.102,-39.2019 483.994,-28.0127"/>
<polygon fill="midnightblue" stroke="midnightblue" points="536.893,-74.4341 546.903,-77.9058 541.243,-68.9496 536.893,-74.4341"/>
</g>
<!-- Node39&#45;&gt;Node42 -->
<g id="edge9" class="edge"><title>Node39&#45;&gt;Node42</title>
<path fill="none" stroke="midnightblue" d="M579.279,-71.4169C596.252,-57.9554 619.898,-39.2019 634.006,-28.0127"/>
<polygon fill="midnightblue" stroke="midnightblue" points="576.757,-68.9496 571.097,-77.9058 581.107,-74.4341 576.757,-68.9496"/>
</g>
<!-- Node39&#45;&gt;Node43 -->
<g id="edge10" class="edge"><title>Node39&#45;&gt;Node43</title>
<path fill="none" stroke="midnightblue" d="M607.274,-75.5613C661.762,-62.0856 749.321,-40.4313 799.447,-28.0347"/>
<polygon fill="midnightblue" stroke="midnightblue" points="606.368,-72.1798 597.501,-77.9783 608.049,-78.9751 606.368,-72.1798"/>
</g>
<!-- Node40&#45;&gt;Node36 -->
<g id="edge7" class="edge"><title>Node40&#45;&gt;Node36</title>
<path fill="none" stroke="midnightblue" d="M312.61,-38.2901C311.412,-71.2619 313.923,-137.69 349,-177 372.025,-202.803 410.317,-214.133 439.745,-219.108"/>
<polygon fill="midnightblue" stroke="midnightblue" points="316.115,-38.291 313.141,-28.1221 309.124,-37.926 316.115,-38.291"/>
</g>
<!-- Node44&#45;&gt;Node40 -->
<g id="edge12" class="edge"><title>Node44&#45;&gt;Node40</title>
<path fill="none" stroke="midnightblue" d="M253.094,-65.1943C269.482,-52.6301 289.1,-37.5897 301.557,-28.0398"/>
<polygon fill="midnightblue" stroke="midnightblue" points="250.681,-62.6346 244.874,-71.4966 254.94,-68.1899 250.681,-62.6346"/>
</g>
<!-- Node45 -->
<g id="node11" class="node"><title>Node45</title>
<g id="a_node11"><a xlink:href="_digital_input_8cpp.html" target="_top" xlink:title="interface/digital/input\l/DigitalInput.cpp">
<polygon fill="white" stroke="black" points="113,-0.5 113,-34.5 237,-34.5 237,-0.5 113,-0.5"/>
<text text-anchor="start" x="121" y="-20.9" font-family="Helvetica,sans-Serif" font-size="12.00">interface/digital/input</text>
<text text-anchor="middle" x="175" y="-7.9" font-family="Helvetica,sans-Serif" font-size="12.00">/DigitalInput.cpp</text>
</a>
</g>
</g>
<!-- Node44&#45;&gt;Node45 -->
<g id="edge13" class="edge"><title>Node44&#45;&gt;Node45</title>
<path fill="none" stroke="midnightblue" d="M206.797,-63.2755C200.127,-53.8829 192.663,-43.3721 186.643,-34.8958"/>
<polygon fill="midnightblue" stroke="midnightblue" points="203.992,-65.3698 212.635,-71.4966 209.699,-61.3168 203.992,-65.3698"/>
</g>
<!-- Node47&#45;&gt;Node44 -->
<g id="edge17" class="edge"><title>Node47&#45;&gt;Node44</title>
<path fill="none" stroke="midnightblue" d="M221.522,-132.247C222.035,-123.392 222.593,-113.767 223.05,-105.896"/>
<polygon fill="midnightblue" stroke="midnightblue" points="218.012,-132.311 220.928,-142.497 225.001,-132.716 218.012,-132.311"/>
</g>
<!-- Node48 -->
<g id="node14" class="node"><title>Node48</title>
<g id="a_node14"><a xlink:href="interface_2digital_2input_2encoders_2_encoders_8cpp.html" target="_top" xlink:title="interface/digital/input\l/encoders/Encoders.cpp">
<polygon fill="white" stroke="black" points="0,-71.5 0,-105.5 144,-105.5 144,-71.5 0,-71.5"/>
<text text-anchor="start" x="8" y="-91.9" font-family="Helvetica,sans-Serif" font-size="12.00">interface/digital/input</text>
<text text-anchor="middle" x="72" y="-78.9" font-family="Helvetica,sans-Serif" font-size="12.00">/encoders/Encoders.cpp</text>
</a>
</g>
</g>
<!-- Node47&#45;&gt;Node48 -->
<g id="edge18" class="edge"><title>Node47&#45;&gt;Node48</title>
<path fill="none" stroke="midnightblue" d="M176.405,-138.175C154.067,-127.761 127.256,-115.261 106.396,-105.536"/>
<polygon fill="midnightblue" stroke="midnightblue" points="175.131,-141.443 185.674,-142.497 178.089,-135.099 175.131,-141.443"/>
</g>
</g>
</svg>
        <g id="navigator" transform="translate(0 0)" fill="#404254">
                <rect fill="#f2f5e9" fill-opacity="0.5" stroke="#606060" stroke-width=".5" x="0" y="0" width="60" height="60"/>
                <use id="zoomplus" xlink:href="#zoomPlus" x="17" y="9" onmousedown="handleZoom(evt,'in')"/>
                <use id="zoomminus" xlink:href="#zoomMin" x="42" y="9" onmousedown="handleZoom(evt,'out')"/>
                <use id="reset" xlink:href="#resetDef" x="30" y="36" onmousedown="handleReset()"/>
                <g id="arrowUp" xlink:href="#dirArrow" transform="translate(30 24)" onmousedown="handlePan(0,-1)">
                  <use xlink:href="#rim" fill="#404040">
                        <set attributeName="fill" to="#808080" begin="arrowUp.mouseover" end="arrowUp.mouseout"/>
                  </use>
                  <path fill="none" stroke="white" stroke-width="1.5" d="M0,-3.0v7 M-2.5,-0.5L0,-3.0L2.5,-0.5"/>
                </g>
                <g id="arrowRight" xlink:href="#dirArrow" transform="rotate(90) translate(36 -43)" onmousedown="handlePan(1,0)">
                  <use xlink:href="#rim" fill="#404040">
                        <set attributeName="fill" to="#808080" begin="arrowRight.mouseover" end="arrowRight.mouseout"/>
                  </use>
                  <path fill="none" stroke="white" stroke-width="1.5" d="M0,-3.0v7 M-2.5,-0.5L0,-3.0L2.5,-0.5"/>
                </g>
                <g id="arrowDown" xlink:href="#dirArrow" transform="rotate(180) translate(-30 -48)" onmousedown="handlePan(0,1)">
                  <use xlink:href="#rim" fill="#404040">
                        <set attributeName="fill" to="#808080" begin="arrowDown.mouseover" end="arrowDown.mouseout"/>
                  </use>
                  <path fill="none" stroke="white" stroke-width="1.5" d="M0,-3.0v7 M-2.5,-0.5L0,-3.0L2.5,-0.5"/>
                </g>
                <g id="arrowLeft" xlink:href="#dirArrow" transform="rotate(270) translate(-36 17)" onmousedown="handlePan(-1,0)">
                  <use xlink:href="#rim" fill="#404040">
                        <set attributeName="fill" to="#808080" begin="arrowLeft.mouseover" end="arrowLeft.mouseout"/>
                  </use>
                  <path fill="none" stroke="white" stroke-width="1.5" d="M0,-3.0v7 M-2.5,-0.5L0,-3.0L2.5,-0.5"/>
                </g>
        </g>
        <svg viewBox="0 0 15 15" width="100%" height="30px" preserveAspectRatio="xMaxYMin meet">
         <g id="arrow_out" transform="scale(0.3 0.3)">
          <a xlink:href="_sys_ex_8h__dep__incl_org.svg" target="_base">
           <rect id="button" ry="5" rx="5" y="6" x="6" height="38" width="38"
                fill="#f2f5e9" fill-opacity="0.5" stroke="#606060" stroke-width="1.0"/>
           <path id="arrow"
             d="M 11.500037,31.436501 C 11.940474,20.09759 22.043105,11.32322 32.158766,21.979434 L 37.068811,17.246167 C 37.068811,17.246167 37.088388,32 37.088388,32 L 22.160133,31.978069 C 22.160133,31.978069 26.997745,27.140456 26.997745,27.140456 C 18.528582,18.264221 13.291696,25.230495 11.500037,31.436501 z"
             style="fill:#404040;"/>
          </a>
         </g>
        </svg>
</svg>
