<?xml version="1.0" encoding="UTF-8" standalone="no"?>
<!DOCTYPE svg PUBLIC "-//W3C//DTD SVG 1.1//EN"
 "http://www.w3.org/Graphics/SVG/1.1/DTD/svg11.dtd">
<!-- Generated by graphviz version 2.38.0 (20140413.2041)
 -->
<!-- Title: sysex/src/SysEx.cpp Pages: 1 -->
<!--zoomable 591 -->
<svg id="main" version="1.1" xmlns="http://www.w3.org/2000/svg" xmlns:xlink="http://www.w3.org/1999/xlink" xml:space="preserve" onload="init(evt)">
<style type="text/css"><![CDATA[
.edge:hover path { stroke: red; }
.edge:hover polygon { stroke: red; fill: red; }
]]></style>
<script type="text/javascript"><![CDATA[
var edges = document.getElementsByTagName('g');
if (edges && edges.length) {
  for (var i=0;i<edges.length;i++) {
    if (edges[i].id.substr(0,4)=='edge') {
      edges[i].setAttribute('class','edge');
    }
  }
}
]]></script>
        <defs>
                <circle id="rim" cx="0" cy="0" r="7"/>
                <circle id="rim2" cx="0" cy="0" r="3.5"/>
                <g id="zoomPlus">
                        <use xlink:href="#rim" fill="#404040">
                                <set attributeName="fill" to="#808080" begin="zoomplus.mouseover" end="zoomplus.mouseout"/>
                        </use>
                        <path d="M-4,0h8M0,-4v8" fill="none" stroke="white" stroke-width="1.5" pointer-events="none"/>
                </g>
                <g id="zoomMin">
                        <use xlink:href="#rim" fill="#404040">
                                <set attributeName="fill" to="#808080" begin="zoomminus.mouseover" end="zoomminus.mouseout"/>
                        </use>
                        <path d="M-4,0h8" fill="none" stroke="white" stroke-width="1.5" pointer-events="none"/>
                </g>
                <g id="dirArrow">
                        <path fill="none" stroke="white" stroke-width="1.5" d="M0,-3.0v7 M-2.5,-0.5L0,-3.0L2.5,-0.5"/>
                </g>
               <g id="resetDef">
                       <use xlink:href="#rim2" fill="#404040">
                               <set attributeName="fill" to="#808080" begin="reset.mouseover" end="reset.mouseout"/>
                       </use>
               </g>
        </defs>

<script type="text/javascript">
var viewWidth = 996;
var viewHeight = 591;
var sectionId = 'dynsection-0';
</script>
<script xlink:href="svgpan.js"/>
<svg id="graph" class="graph">
<g id="viewport">
<title>sysex/src/SysEx.cpp</title>
<polygon fill="white" stroke="none" points="-4,4 -4,-587 992.238,-587 992.238,4 -4,4"/>
<!-- Node0 -->
<g id="node1" class="node"><title>Node0</title>
<polygon fill="#bfbfbf" stroke="black" points="410.5,-561.5 410.5,-582.5 533.5,-582.5 533.5,-561.5 410.5,-561.5"/>
<text text-anchor="middle" x="472" y="-568.9" font-family="Helvetica,sans-Serif" font-size="12.00">sysex/src/SysEx.cpp</text>
</g>
<!-- Node1 -->
<g id="node2" class="node"><title>Node1</title>
<g id="a_node2"><a xlink:href="_sys_ex_8h.html" target="_top" xlink:title="SysEx.h">
<polygon fill="white" stroke="black" points="442.5,-503.5 442.5,-524.5 501.5,-524.5 501.5,-503.5 442.5,-503.5"/>
<text text-anchor="middle" x="472" y="-510.9" font-family="Helvetica,sans-Serif" font-size="12.00">SysEx.h</text>
</a>
</g>
</g>
<!-- Node0&#45;&gt;Node1 -->
<g id="edge1" class="edge"><title>Node0&#45;&gt;Node1</title>
<path fill="none" stroke="midnightblue" d="M472,-561.246C472,-553.938 472,-543.694 472,-534.705"/>
<polygon fill="midnightblue" stroke="midnightblue" points="475.5,-534.643 472,-524.643 468.5,-534.643 475.5,-534.643"/>
</g>
<!-- Node2 -->
<g id="node3" class="node"><title>Node2</title>
<g id="a_node3"><a xlink:href="sysex_2src_2_config_8h.html" target="_top" xlink:title="Config.h">
<polygon fill="white" stroke="black" points="260,-381 260,-402 320,-402 320,-381 260,-381"/>
<text text-anchor="middle" x="290" y="-388.4" font-family="Helvetica,sans-Serif" font-size="12.00">Config.h</text>
</a>
</g>
</g>
<!-- Node1&#45;&gt;Node2 -->
<g id="edge2" class="edge"><title>Node1&#45;&gt;Node2</title>
<path fill="none" stroke="midnightblue" d="M457.414,-503.343C425.787,-482.403 350.702,-432.69 312.768,-407.575"/>
<polygon fill="midnightblue" stroke="midnightblue" points="314.673,-404.638 304.403,-402.036 310.809,-410.475 314.673,-404.638"/>
</g>
<!-- Node3 -->
<g id="node4" class="node"><title>Node3</title>
<g id="a_node4"><a xlink:href="_open_deck_8h.html" target="_top" xlink:title="../../OpenDeck.h">
<polygon fill="white" stroke="black" points="472,-445.5 472,-466.5 572,-466.5 572,-445.5 472,-445.5"/>
<text text-anchor="middle" x="522" y="-452.9" font-family="Helvetica,sans-Serif" font-size="12.00">../../OpenDeck.h</text>
</a>
</g>
</g>
<!-- Node1&#45;&gt;Node3 -->
<g id="edge3" class="edge"><title>Node1&#45;&gt;Node3</title>
<path fill="none" stroke="midnightblue" d="M475.442,-503.246C481.118,-495.135 491.263,-483.408 500.763,-473.792"/>
<polygon fill="midnightblue" stroke="midnightblue" points="503.397,-476.114 508.145,-466.643 498.527,-471.085 503.397,-476.114"/>
</g>
<!-- Node35 -->
<g id="node36" class="node"><title>Node35</title>
<g id="a_node36"><a xlink:href="sysex_2src_2_data_types_8h.html" target="_top" xlink:title="DataTypes.h">
<polygon fill="white" stroke="black" points="269.5,-445.5 269.5,-466.5 352.5,-466.5 352.5,-445.5 269.5,-445.5"/>
<text text-anchor="middle" x="311" y="-452.9" font-family="Helvetica,sans-Serif" font-size="12.00">DataTypes.h</text>
</a>
</g>
</g>
<!-- Node1&#45;&gt;Node35 -->
<g id="edge47" class="edge"><title>Node1&#45;&gt;Node35</title>
<path fill="none" stroke="midnightblue" d="M444.323,-503.373C417.667,-494.102 377.176,-480.018 347.812,-469.804"/>
<polygon fill="midnightblue" stroke="midnightblue" points="348.911,-466.481 338.316,-466.501 346.611,-473.092 348.911,-466.481"/>
</g>
<!-- Node3&#45;&gt;Node1 -->
<g id="edge15" class="edge"><title>Node3&#45;&gt;Node1</title>
<path fill="none" stroke="midnightblue" d="M518.636,-466.643C513.002,-474.72 502.874,-486.44 493.368,-496.075"/>
<polygon fill="midnightblue" stroke="midnightblue" points="490.717,-493.771 485.976,-503.246 495.591,-498.795 490.717,-493.771"/>
</g>
<!-- Node4 -->
<g id="node5" class="node"><title>Node4</title>
<g id="a_node5"><a xlink:href="database_2_database_8h.html" target="_top" xlink:title="database/Database.h">
<polygon fill="white" stroke="black" points="338,-174.5 338,-195.5 468,-195.5 468,-174.5 338,-174.5"/>
<text text-anchor="middle" x="403" y="-181.9" font-family="Helvetica,sans-Serif" font-size="12.00">database/Database.h</text>
</a>
</g>
</g>
<!-- Node3&#45;&gt;Node4 -->
<g id="edge4" class="edge"><title>Node3&#45;&gt;Node4</title>
<path fill="none" stroke="midnightblue" d="M522.736,-445.412C524.774,-412.276 527.361,-300.86 477,-232 466.891,-218.178 451.252,-207.585 436.951,-200.068"/>
<polygon fill="midnightblue" stroke="midnightblue" points="438.336,-196.849 427.818,-195.57 435.243,-203.128 438.336,-196.849"/>
</g>
<!-- Node15 -->
<g id="node16" class="node"><title>Node15</title>
<g id="a_node16"><a xlink:href="_version_8h.html" target="_top" xlink:title="versioning/src/avr\l/Version.h">
<polygon fill="white" stroke="black" points="728.5,-374.5 728.5,-408.5 835.5,-408.5 835.5,-374.5 728.5,-374.5"/>
<text text-anchor="start" x="736.5" y="-394.9" font-family="Helvetica,sans-Serif" font-size="12.00">versioning/src/avr</text>
<text text-anchor="middle" x="782" y="-381.9" font-family="Helvetica,sans-Serif" font-size="12.00">/Version.h</text>
</a>
</g>
</g>
<!-- Node3&#45;&gt;Node15 -->
<g id="edge16" class="edge"><title>Node3&#45;&gt;Node15</title>
<path fill="none" stroke="midnightblue" d="M562.091,-445.431C600.939,-436.149 661.518,-421.654 714,-409 715.439,-408.653 716.896,-408.302 718.364,-407.947"/>
<polygon fill="midnightblue" stroke="midnightblue" points="719.284,-411.326 728.182,-405.574 717.639,-404.522 719.284,-411.326"/>
</g>
<!-- Node17 -->
<g id="node18" class="node"><title>Node17</title>
<g id="a_node18"><a xlink:href="_interface_8h.html" target="_top" xlink:title="interface/Interface.h">
<polygon fill="white" stroke="black" points="376,-381 376,-402 494,-402 494,-381 376,-381"/>
<text text-anchor="middle" x="435" y="-388.4" font-family="Helvetica,sans-Serif" font-size="12.00">interface/Interface.h</text>
</a>
</g>
</g>
<!-- Node3&#45;&gt;Node17 -->
<g id="edge18" class="edge"><title>Node3&#45;&gt;Node17</title>
<path fill="none" stroke="midnightblue" d="M508.406,-445.234C494.616,-435.327 473.053,-419.837 456.859,-408.203"/>
<polygon fill="midnightblue" stroke="midnightblue" points="458.662,-405.189 448.498,-402.197 454.578,-410.874 458.662,-405.189"/>
</g>
<!-- Node31 -->
<g id="node32" class="node"><title>Node31</title>
<g id="a_node32"><a xlink:href="midi_2src_2_m_i_d_i_8h.html" target="_top" xlink:title="midi/src/MIDI.h">
<polygon fill="white" stroke="black" points="892.5,-381 892.5,-402 985.5,-402 985.5,-381 892.5,-381"/>
<text text-anchor="middle" x="939" y="-388.4" font-family="Helvetica,sans-Serif" font-size="12.00">midi/src/MIDI.h</text>
</a>
</g>
</g>
<!-- Node3&#45;&gt;Node31 -->
<g id="edge41" class="edge"><title>Node3&#45;&gt;Node31</title>
<path fill="none" stroke="midnightblue" d="M572.168,-450.682C641.409,-444.232 769.967,-430.488 878,-409 884.214,-407.764 890.729,-406.246 897.092,-404.636"/>
<polygon fill="midnightblue" stroke="midnightblue" points="898.12,-407.985 906.902,-402.058 896.341,-401.215 898.12,-407.985"/>
</g>
<!-- Node5 -->
<g id="node6" class="node"><title>Node5</title>
<g id="a_node6"><a xlink:href="_d_b_m_s_8h.html" target="_top" xlink:title="../dbms/src/DBMS.h">
<polygon fill="white" stroke="black" points="248.5,-116.5 248.5,-137.5 369.5,-137.5 369.5,-116.5 248.5,-116.5"/>
<text text-anchor="middle" x="309" y="-123.9" font-family="Helvetica,sans-Serif" font-size="12.00">../dbms/src/DBMS.h</text>
</a>
</g>
</g>
<!-- Node4&#45;&gt;Node5 -->
<g id="edge5" class="edge"><title>Node4&#45;&gt;Node5</title>
<path fill="none" stroke="midnightblue" d="M386.626,-174.246C372.069,-165.573 350.569,-152.765 333.885,-142.825"/>
<polygon fill="midnightblue" stroke="midnightblue" points="335.568,-139.754 325.186,-137.643 331.986,-145.768 335.568,-139.754"/>
</g>
<!-- Node8 -->
<g id="node9" class="node"><title>Node8</title>
<g id="a_node9"><a xlink:href="database_2blocks_2_blocks_8h.html" target="_top" xlink:title="blocks/Blocks.h">
<polygon fill="white" stroke="black" points="448,-116.5 448,-137.5 546,-137.5 546,-116.5 448,-116.5"/>
<text text-anchor="middle" x="497" y="-123.9" font-family="Helvetica,sans-Serif" font-size="12.00">blocks/Blocks.h</text>
</a>
</g>
</g>
<!-- Node4&#45;&gt;Node8 -->
<g id="edge8" class="edge"><title>Node4&#45;&gt;Node8</title>
<path fill="none" stroke="midnightblue" d="M419.374,-174.246C433.931,-165.573 455.431,-152.765 472.115,-142.825"/>
<polygon fill="midnightblue" stroke="midnightblue" points="474.014,-145.768 480.814,-137.643 470.432,-139.754 474.014,-145.768"/>
</g>
<!-- Node6 -->
<g id="node7" class="node"><title>Node6</title>
<g id="a_node7"><a xlink:href="dbms_2src_2_data_types_8h.html" target="_top" xlink:title="DataTypes.h">
<polygon fill="white" stroke="black" points="207.5,-58.5 207.5,-79.5 290.5,-79.5 290.5,-58.5 207.5,-58.5"/>
<text text-anchor="middle" x="249" y="-65.9" font-family="Helvetica,sans-Serif" font-size="12.00">DataTypes.h</text>
</a>
</g>
</g>
<!-- Node5&#45;&gt;Node6 -->
<g id="edge6" class="edge"><title>Node5&#45;&gt;Node6</title>
<path fill="none" stroke="midnightblue" d="M298.549,-116.246C289.773,-108.055 277.045,-96.1749 266.686,-86.5069"/>
<polygon fill="midnightblue" stroke="midnightblue" points="269.03,-83.9072 259.331,-79.6427 264.254,-89.0246 269.03,-83.9072"/>
</g>
<!-- Node7 -->
<g id="node8" class="node"><title>Node7</title>
<polygon fill="white" stroke="#bfbfbf" points="740.5,-0.5 740.5,-21.5 805.5,-21.5 805.5,-0.5 740.5,-0.5"/>
<text text-anchor="middle" x="773" y="-7.9" font-family="Helvetica,sans-Serif" font-size="12.00">inttypes.h</text>
</g>
<!-- Node6&#45;&gt;Node7 -->
<g id="edge7" class="edge"><title>Node6&#45;&gt;Node7</title>
<path fill="none" stroke="midnightblue" d="M290.687,-59.3363C293.495,-58.8535 296.285,-58.4021 299,-58 457.235,-34.5592 647.032,-20.2756 730.304,-14.6967"/>
<polygon fill="midnightblue" stroke="midnightblue" points="730.646,-18.1818 740.393,-14.0286 730.183,-11.1971 730.646,-18.1818"/>
</g>
<!-- Node9 -->
<g id="node10" class="node"><title>Node9</title>
<g id="a_node10"><a xlink:href="database_2blocks_2_m_i_d_i_8h.html" target="_top" xlink:title="MIDI.h">
<polygon fill="white" stroke="black" points="308.5,-58.5 308.5,-79.5 357.5,-79.5 357.5,-58.5 308.5,-58.5"/>
<text text-anchor="middle" x="333" y="-65.9" font-family="Helvetica,sans-Serif" font-size="12.00">MIDI.h</text>
</a>
</g>
</g>
<!-- Node8&#45;&gt;Node9 -->
<g id="edge9" class="edge"><title>Node8&#45;&gt;Node9</title>
<path fill="none" stroke="midnightblue" d="M468.807,-116.373C440.667,-106.764 397.391,-91.9872 367.281,-81.7056"/>
<polygon fill="midnightblue" stroke="midnightblue" points="368.209,-78.3243 357.615,-78.4051 365.947,-84.9488 368.209,-78.3243"/>
</g>
<!-- Node10 -->
<g id="node11" class="node"><title>Node10</title>
<g id="a_node11"><a xlink:href="database_2blocks_2_buttons_8h.html" target="_top" xlink:title="Buttons.h">
<polygon fill="white" stroke="black" points="375.5,-58.5 375.5,-79.5 440.5,-79.5 440.5,-58.5 375.5,-58.5"/>
<text text-anchor="middle" x="408" y="-65.9" font-family="Helvetica,sans-Serif" font-size="12.00">Buttons.h</text>
</a>
</g>
</g>
<!-- Node8&#45;&gt;Node10 -->
<g id="edge10" class="edge"><title>Node8&#45;&gt;Node10</title>
<path fill="none" stroke="midnightblue" d="M481.497,-116.246C467.842,-107.653 447.734,-95.0014 432.001,-85.1018"/>
<polygon fill="midnightblue" stroke="midnightblue" points="433.653,-82.006 423.325,-79.6427 429.925,-87.9307 433.653,-82.006"/>
</g>
<!-- Node11 -->
<g id="node12" class="node"><title>Node11</title>
<g id="a_node12"><a xlink:href="database_2blocks_2_encoders_8h.html" target="_top" xlink:title="Encoders.h">
<polygon fill="white" stroke="black" points="459,-58.5 459,-79.5 535,-79.5 535,-58.5 459,-58.5"/>
<text text-anchor="middle" x="497" y="-65.9" font-family="Helvetica,sans-Serif" font-size="12.00">Encoders.h</text>
</a>
</g>
</g>
<!-- Node8&#45;&gt;Node11 -->
<g id="edge11" class="edge"><title>Node8&#45;&gt;Node11</title>
<path fill="none" stroke="midnightblue" d="M497,-116.246C497,-108.938 497,-98.6944 497,-89.7046"/>
<polygon fill="midnightblue" stroke="midnightblue" points="500.5,-89.6426 497,-79.6427 493.5,-89.6427 500.5,-89.6426"/>
</g>
<!-- Node12 -->
<g id="node13" class="node"><title>Node12</title>
<g id="a_node13"><a xlink:href="database_2blocks_2_analog_8h.html" target="_top" xlink:title="Analog.h">
<polygon fill="white" stroke="black" points="553,-58.5 553,-79.5 615,-79.5 615,-58.5 553,-58.5"/>
<text text-anchor="middle" x="584" y="-65.9" font-family="Helvetica,sans-Serif" font-size="12.00">Analog.h</text>
</a>
</g>
</g>
<!-- Node8&#45;&gt;Node12 -->
<g id="edge12" class="edge"><title>Node8&#45;&gt;Node12</title>
<path fill="none" stroke="midnightblue" d="M512.154,-116.246C525.503,-107.653 545.159,-95.0014 560.538,-85.1018"/>
<polygon fill="midnightblue" stroke="midnightblue" points="562.505,-87.9982 569.019,-79.6427 558.716,-82.1121 562.505,-87.9982"/>
</g>
<!-- Node13 -->
<g id="node14" class="node"><title>Node13</title>
<g id="a_node14"><a xlink:href="database_2blocks_2_l_e_ds_8h.html" target="_top" xlink:title="LEDs.h">
<polygon fill="white" stroke="black" points="633,-58.5 633,-79.5 689,-79.5 689,-58.5 633,-58.5"/>
<text text-anchor="middle" x="661" y="-65.9" font-family="Helvetica,sans-Serif" font-size="12.00">LEDs.h</text>
</a>
</g>
</g>
<!-- Node8&#45;&gt;Node13 -->
<g id="edge13" class="edge"><title>Node8&#45;&gt;Node13</title>
<path fill="none" stroke="midnightblue" d="M525.193,-116.373C552.345,-107.102 593.591,-93.0178 623.502,-82.804"/>
<polygon fill="midnightblue" stroke="midnightblue" points="624.843,-86.0449 633.175,-79.5011 622.581,-79.4204 624.843,-86.0449"/>
</g>
<!-- Node14 -->
<g id="node15" class="node"><title>Node14</title>
<g id="a_node15"><a xlink:href="database_2blocks_2_i_d_8h.html" target="_top" xlink:title="ID.h">
<polygon fill="white" stroke="black" points="707.5,-58.5 707.5,-79.5 744.5,-79.5 744.5,-58.5 707.5,-58.5"/>
<text text-anchor="middle" x="726" y="-65.9" font-family="Helvetica,sans-Serif" font-size="12.00">ID.h</text>
</a>
</g>
</g>
<!-- Node8&#45;&gt;Node14 -->
<g id="edge14" class="edge"><title>Node8&#45;&gt;Node14</title>
<path fill="none" stroke="midnightblue" d="M546.155,-116.442C584.868,-108.534 640.325,-96.3676 697.489,-79.8837"/>
<polygon fill="midnightblue" stroke="midnightblue" points="698.808,-83.1447 707.424,-76.9795 696.844,-76.4259 698.808,-83.1447"/>
</g>
<!-- Node16 -->
<g id="node17" class="node"><title>Node16</title>
<g id="a_node17"><a xlink:href="versioning_2src_2avr_2_data_types_8h.html" target="_top" xlink:title="DataTypes.h">
<polygon fill="white" stroke="black" points="752.5,-310 752.5,-331 835.5,-331 835.5,-310 752.5,-310"/>
<text text-anchor="middle" x="794" y="-317.4" font-family="Helvetica,sans-Serif" font-size="12.00">DataTypes.h</text>
</a>
</g>
</g>
<!-- Node15&#45;&gt;Node16 -->
<g id="edge17" class="edge"><title>Node15&#45;&gt;Node16</title>
<path fill="none" stroke="midnightblue" d="M784.783,-374.497C786.51,-364.569 788.741,-351.739 790.576,-341.19"/>
<polygon fill="midnightblue" stroke="midnightblue" points="794.041,-341.692 792.306,-331.24 787.144,-340.492 794.041,-341.692"/>
</g>
<!-- Node18 -->
<g id="node19" class="node"><title>Node18</title>
<g id="a_node19"><a xlink:href="interface_2analog_2_analog_8h.html" target="_top" xlink:title="analog/Analog.h">
<polygon fill="white" stroke="black" points="205.5,-310 205.5,-331 306.5,-331 306.5,-310 205.5,-310"/>
<text text-anchor="middle" x="256" y="-317.4" font-family="Helvetica,sans-Serif" font-size="12.00">analog/Analog.h</text>
</a>
</g>
</g>
<!-- Node17&#45;&gt;Node18 -->
<g id="edge19" class="edge"><title>Node17&#45;&gt;Node18</title>
<path fill="none" stroke="midnightblue" d="M410.111,-380.906C378.851,-368.856 325.076,-348.127 290.031,-334.618"/>
<polygon fill="midnightblue" stroke="midnightblue" points="291.267,-331.344 280.678,-331.013 288.75,-337.875 291.267,-331.344"/>
</g>
<!-- Node25 -->
<g id="node26" class="node"><title>Node25</title>
<g id="a_node26"><a xlink:href="_digital_input_8h.html" target="_top" xlink:title="digital/input/DigitalInput.h">
<polygon fill="white" stroke="black" points="550,-310 550,-331 696,-331 696,-310 550,-310"/>
<text text-anchor="middle" x="623" y="-317.4" font-family="Helvetica,sans-Serif" font-size="12.00">digital/input/DigitalInput.h</text>
</a>
</g>
</g>
<!-- Node17&#45;&gt;Node25 -->
<g id="edge30" class="edge"><title>Node17&#45;&gt;Node25</title>
<path fill="none" stroke="midnightblue" d="M461.141,-380.906C493.972,-368.856 550.451,-348.127 587.258,-334.618"/>
<polygon fill="midnightblue" stroke="midnightblue" points="588.9,-337.744 597.081,-331.013 586.488,-331.173 588.9,-337.744"/>
</g>
<!-- Node28 -->
<g id="node29" class="node"><title>Node28</title>
<g id="a_node29"><a xlink:href="interface_2digital_2output_2leds_2_l_e_ds_8h.html" target="_top" xlink:title="digital/output/leds\l/LEDs.h">
<polygon fill="white" stroke="black" points="379.5,-303.5 379.5,-337.5 486.5,-337.5 486.5,-303.5 379.5,-303.5"/>
<text text-anchor="start" x="387.5" y="-323.9" font-family="Helvetica,sans-Serif" font-size="12.00">digital/output/leds</text>
<text text-anchor="middle" x="433" y="-310.9" font-family="Helvetica,sans-Serif" font-size="12.00">/LEDs.h</text>
</a>
</g>
</g>
<!-- Node17&#45;&gt;Node28 -->
<g id="edge35" class="edge"><title>Node17&#45;&gt;Node28</title>
<path fill="none" stroke="midnightblue" d="M434.722,-380.906C434.474,-372.344 434.099,-359.4 433.762,-347.777"/>
<polygon fill="midnightblue" stroke="midnightblue" points="437.256,-347.534 433.468,-337.639 430.259,-347.737 437.256,-347.534"/>
</g>
<!-- Node18&#45;&gt;Node3 -->
<g id="edge29" class="edge"><title>Node18&#45;&gt;Node3</title>
<path fill="none" stroke="midnightblue" d="M270.37,-331.074C285.372,-341.242 309.398,-358.022 329,-374 346.797,-388.507 347.033,-397.663 367,-409 396.277,-425.624 432.145,-436.768 462,-443.918"/>
<polygon fill="midnightblue" stroke="midnightblue" points="461.346,-447.359 471.877,-446.192 462.917,-440.537 461.346,-447.359"/>
</g>
<!-- Node18&#45;&gt;Node4 -->
<g id="edge24" class="edge"><title>Node18&#45;&gt;Node4</title>
<path fill="none" stroke="midnightblue" d="M214.054,-309.982C191.17,-302.419 164.769,-289.278 151,-267 142.822,-253.768 141.037,-243.946 151,-232 173.171,-205.416 261.562,-194.153 327.438,-189.408"/>
<polygon fill="midnightblue" stroke="midnightblue" points="328.066,-192.874 337.804,-188.702 327.589,-185.89 328.066,-192.874"/>
</g>
<!-- Node19 -->
<g id="node20" class="node"><title>Node19</title>
<g id="a_node20"><a xlink:href="_board_8h.html" target="_top" xlink:title="../../board/Board.h">
<polygon fill="white" stroke="black" points="262,-239 262,-260 372,-260 372,-239 262,-239"/>
<text text-anchor="middle" x="317" y="-246.4" font-family="Helvetica,sans-Serif" font-size="12.00">../../board/Board.h</text>
</a>
</g>
</g>
<!-- Node18&#45;&gt;Node19 -->
<g id="edge20" class="edge"><title>Node18&#45;&gt;Node19</title>
<path fill="none" stroke="midnightblue" d="M264.482,-309.906C274.133,-298.989 290.082,-280.948 301.877,-267.607"/>
<polygon fill="midnightblue" stroke="midnightblue" points="304.589,-269.823 308.59,-260.013 299.345,-265.187 304.589,-269.823"/>
</g>
<!-- Node20 -->
<g id="node21" class="node"><title>Node20</title>
<g id="a_node21"><a xlink:href="interface_2digital_2input_2buttons_2_buttons_8h.html" target="_top" xlink:title="../digital/input/buttons\l/Buttons.h">
<polygon fill="white" stroke="black" points="562.5,-232.5 562.5,-266.5 687.5,-266.5 687.5,-232.5 562.5,-232.5"/>
<text text-anchor="start" x="570.5" y="-252.9" font-family="Helvetica,sans-Serif" font-size="12.00">../digital/input/buttons</text>
<text text-anchor="middle" x="625" y="-239.9" font-family="Helvetica,sans-Serif" font-size="12.00">/Buttons.h</text>
</a>
</g>
</g>
<!-- Node18&#45;&gt;Node20 -->
<g id="edge21" class="edge"><title>Node18&#45;&gt;Node20</title>
<path fill="none" stroke="midnightblue" d="M306.534,-310.051C370.158,-298.153 479.897,-277.633 552.468,-264.063"/>
<polygon fill="midnightblue" stroke="midnightblue" points="553.266,-267.474 562.452,-262.196 551.979,-260.594 553.266,-267.474"/>
</g>
<!-- Node22 -->
<g id="node23" class="node"><title>Node22</title>
<g id="a_node23"><a xlink:href="interface_2analog_2_data_types_8h.html" target="_top" xlink:title="DataTypes.h">
<polygon fill="white" stroke="black" points="160.5,-239 160.5,-260 243.5,-260 243.5,-239 160.5,-239"/>
<text text-anchor="middle" x="202" y="-246.4" font-family="Helvetica,sans-Serif" font-size="12.00">DataTypes.h</text>
</a>
</g>
</g>
<!-- Node18&#45;&gt;Node22 -->
<g id="edge25" class="edge"><title>Node18&#45;&gt;Node22</title>
<path fill="none" stroke="midnightblue" d="M248.492,-309.906C240.028,-299.092 226.095,-281.288 215.684,-267.985"/>
<polygon fill="midnightblue" stroke="midnightblue" points="218.364,-265.731 209.445,-260.013 212.852,-270.045 218.364,-265.731"/>
</g>
<!-- Node23 -->
<g id="node24" class="node"><title>Node23</title>
<g id="a_node24"><a xlink:href="interface_2analog_2_config_8h.html" target="_top" xlink:title="Config.h">
<polygon fill="white" stroke="black" points="34,-174.5 34,-195.5 94,-195.5 94,-174.5 34,-174.5"/>
<text text-anchor="middle" x="64" y="-181.9" font-family="Helvetica,sans-Serif" font-size="12.00">Config.h</text>
</a>
</g>
</g>
<!-- Node18&#45;&gt;Node23 -->
<g id="edge26" class="edge"><title>Node18&#45;&gt;Node23</title>
<path fill="none" stroke="midnightblue" d="M227.449,-309.96C203.144,-301.05 167.982,-286.242 141,-267 115.478,-248.799 91.5015,-221.31 77.285,-203.505"/>
<polygon fill="midnightblue" stroke="midnightblue" points="80.0421,-201.349 71.1261,-195.626 74.527,-205.66 80.0421,-201.349"/>
</g>
<!-- Node24 -->
<g id="node25" class="node"><title>Node24</title>
<g id="a_node25"><a xlink:href="interface_2analog_2_helpers_8h.html" target="_top" xlink:title="Helpers.h">
<polygon fill="white" stroke="black" points="0,-239 0,-260 66,-260 66,-239 0,-239"/>
<text text-anchor="middle" x="33" y="-246.4" font-family="Helvetica,sans-Serif" font-size="12.00">Helpers.h</text>
</a>
</g>
</g>
<!-- Node18&#45;&gt;Node24 -->
<g id="edge27" class="edge"><title>Node18&#45;&gt;Node24</title>
<path fill="none" stroke="midnightblue" d="M222.111,-309.911C186.562,-299.732 129.134,-282.943 80,-267 76.5041,-265.866 72.8735,-264.653 69.2494,-263.42"/>
<polygon fill="midnightblue" stroke="midnightblue" points="70.3628,-260.102 59.768,-260.145 68.0777,-266.718 70.3628,-260.102"/>
</g>
<!-- Node20&#45;&gt;Node3 -->
<g id="edge23" class="edge"><title>Node20&#45;&gt;Node3</title>
<path fill="none" stroke="midnightblue" d="M664.911,-266.56C680.328,-274.965 696.319,-286.92 705,-303 712.39,-316.688 712.471,-324.356 705,-338 675.029,-392.734 607.337,-425.596 563.215,-441.991"/>
<polygon fill="midnightblue" stroke="midnightblue" points="561.864,-438.757 553.635,-445.431 564.23,-445.345 561.864,-438.757"/>
</g>
<!-- Node21 -->
<g id="node22" class="node"><title>Node21</title>
<g id="a_node22"><a xlink:href="interface_2digital_2input_2buttons_2_data_types_8h.html" target="_top" xlink:title="DataTypes.h">
<polygon fill="white" stroke="black" points="583.5,-174.5 583.5,-195.5 666.5,-195.5 666.5,-174.5 583.5,-174.5"/>
<text text-anchor="middle" x="625" y="-181.9" font-family="Helvetica,sans-Serif" font-size="12.00">DataTypes.h</text>
</a>
</g>
</g>
<!-- Node20&#45;&gt;Node21 -->
<g id="edge22" class="edge"><title>Node20&#45;&gt;Node21</title>
<path fill="none" stroke="midnightblue" d="M625,-232.405C625,-224.357 625,-214.541 625,-206.012"/>
<polygon fill="midnightblue" stroke="midnightblue" points="628.5,-205.8 625,-195.8 621.5,-205.8 628.5,-205.8"/>
</g>
<!-- Node24&#45;&gt;Node23 -->
<g id="edge28" class="edge"><title>Node24&#45;&gt;Node23</title>
<path fill="none" stroke="midnightblue" d="M37.8438,-238.734C42.3218,-229.706 49.0998,-216.041 54.6339,-204.883"/>
<polygon fill="midnightblue" stroke="midnightblue" points="57.78,-206.417 59.088,-195.903 51.509,-203.307 57.78,-206.417"/>
</g>
<!-- Node25&#45;&gt;Node20 -->
<g id="edge31" class="edge"><title>Node25&#45;&gt;Node20</title>
<path fill="none" stroke="midnightblue" d="M623.278,-309.906C623.526,-301.344 623.901,-288.4 624.238,-276.777"/>
<polygon fill="midnightblue" stroke="midnightblue" points="627.741,-276.737 624.532,-266.639 620.744,-276.534 627.741,-276.737"/>
</g>
<!-- Node26 -->
<g id="node27" class="node"><title>Node26</title>
<g id="a_node27"><a xlink:href="interface_2digital_2input_2encoders_2_encoders_8h.html" target="_top" xlink:title="encoders/Encoders.h">
<polygon fill="white" stroke="black" points="716,-239 716,-260 844,-260 844,-239 716,-239"/>
<text text-anchor="middle" x="780" y="-246.4" font-family="Helvetica,sans-Serif" font-size="12.00">encoders/Encoders.h</text>
</a>
</g>
</g>
<!-- Node25&#45;&gt;Node26 -->
<g id="edge32" class="edge"><title>Node25&#45;&gt;Node26</title>
<path fill="none" stroke="midnightblue" d="M644.83,-309.906C671.896,-298.011 718.208,-277.657 748.961,-264.141"/>
<polygon fill="midnightblue" stroke="midnightblue" points="750.609,-267.24 758.355,-260.013 747.792,-260.832 750.609,-267.24"/>
</g>
<!-- Node26&#45;&gt;Node3 -->
<g id="edge34" class="edge"><title>Node26&#45;&gt;Node3</title>
<path fill="none" stroke="midnightblue" d="M799.09,-260.026C814.393,-268.839 834.781,-283.514 844,-303 864.147,-345.586 874.867,-373.41 844,-409 810.791,-447.291 665.824,-454.5 582.163,-455.389"/>
<polygon fill="midnightblue" stroke="midnightblue" points="582,-451.89 572.028,-455.469 582.055,-458.89 582,-451.89"/>
</g>
<!-- Node27 -->
<g id="node28" class="node"><title>Node27</title>
<g id="a_node28"><a xlink:href="interface_2digital_2input_2encoders_2_data_types_8h.html" target="_top" xlink:title="DataTypes.h">
<polygon fill="white" stroke="black" points="738.5,-174.5 738.5,-195.5 821.5,-195.5 821.5,-174.5 738.5,-174.5"/>
<text text-anchor="middle" x="780" y="-181.9" font-family="Helvetica,sans-Serif" font-size="12.00">DataTypes.h</text>
</a>
</g>
</g>
<!-- Node26&#45;&gt;Node27 -->
<g id="edge33" class="edge"><title>Node26&#45;&gt;Node27</title>
<path fill="none" stroke="midnightblue" d="M780,-238.734C780,-229.98 780,-216.865 780,-205.904"/>
<polygon fill="midnightblue" stroke="midnightblue" points="783.5,-205.903 780,-195.903 776.5,-205.903 783.5,-205.903"/>
</g>
<!-- Node28&#45;&gt;Node19 -->
<g id="edge40" class="edge"><title>Node28&#45;&gt;Node19</title>
<path fill="none" stroke="midnightblue" d="M406.096,-303.497C386.655,-291.933 360.597,-276.433 341.687,-265.184"/>
<polygon fill="midnightblue" stroke="midnightblue" points="343.422,-262.144 333.038,-260.04 339.843,-268.16 343.422,-262.144"/>
</g>
<!-- Node29 -->
<g id="node30" class="node"><title>Node29</title>
<g id="a_node30"><a xlink:href="interface_2digital_2output_2leds_2_data_types_8h.html" target="_top" xlink:title="DataTypes.h">
<polygon fill="white" stroke="black" points="648.5,-116.5 648.5,-137.5 731.5,-137.5 731.5,-116.5 648.5,-116.5"/>
<text text-anchor="middle" x="690" y="-123.9" font-family="Helvetica,sans-Serif" font-size="12.00">DataTypes.h</text>
</a>
</g>
</g>
<!-- Node28&#45;&gt;Node29 -->
<g id="edge36" class="edge"><title>Node28&#45;&gt;Node29</title>
<path fill="none" stroke="midnightblue" d="M446.975,-303.459C476.535,-269.809 545.05,-193.355 574,-174 595.807,-159.42 622.936,-148.342 645.474,-140.714"/>
<polygon fill="midnightblue" stroke="midnightblue" points="646.727,-143.987 655.145,-137.554 644.553,-137.333 646.727,-143.987"/>
</g>
<!-- Node30 -->
<g id="node31" class="node"><title>Node30</title>
<g id="a_node31"><a xlink:href="interface_2digital_2output_2leds_2_constants_8h.html" target="_top" xlink:title="Constants.h">
<polygon fill="white" stroke="black" points="390,-239 390,-260 468,-260 468,-239 390,-239"/>
<text text-anchor="middle" x="429" y="-246.4" font-family="Helvetica,sans-Serif" font-size="12.00">Constants.h</text>
</a>
</g>
</g>
<!-- Node28&#45;&gt;Node30 -->
<g id="edge38" class="edge"><title>Node28&#45;&gt;Node30</title>
<path fill="none" stroke="midnightblue" d="M432.072,-303.497C431.503,-293.673 430.769,-281.009 430.161,-270.524"/>
<polygon fill="midnightblue" stroke="midnightblue" points="433.638,-270.02 429.565,-260.24 426.649,-270.425 433.638,-270.02"/>
</g>
<!-- Node29&#45;&gt;Node7 -->
<g id="edge37" class="edge"><title>Node29&#45;&gt;Node7</title>
<path fill="none" stroke="midnightblue" d="M709.181,-116.449C723.248,-108.511 741.779,-95.9499 753,-80 763.057,-65.7053 768.11,-46.341 770.617,-31.9324"/>
<polygon fill="midnightblue" stroke="midnightblue" points="774.14,-32.0332 772.128,-21.6311 767.214,-31.0172 774.14,-32.0332"/>
</g>
<!-- Node30&#45;&gt;Node4 -->
<g id="edge39" class="edge"><title>Node30&#45;&gt;Node4</title>
<path fill="none" stroke="midnightblue" d="M424.938,-238.734C421.22,-229.797 415.612,-216.316 410.996,-205.222"/>
<polygon fill="midnightblue" stroke="midnightblue" points="414.192,-203.792 407.12,-195.903 407.729,-206.481 414.192,-203.792"/>
</g>
<!-- Node32 -->
<g id="node33" class="node"><title>Node32</title>
<g id="a_node33"><a xlink:href="midi_2src_2_data_types_8h.html" target="_top" xlink:title="DataTypes.h">
<polygon fill="white" stroke="black" points="892.5,-310 892.5,-331 975.5,-331 975.5,-310 892.5,-310"/>
<text text-anchor="middle" x="934" y="-317.4" font-family="Helvetica,sans-Serif" font-size="12.00">DataTypes.h</text>
</a>
</g>
</g>
<!-- Node31&#45;&gt;Node32 -->
<g id="edge42" class="edge"><title>Node31&#45;&gt;Node32</title>
<path fill="none" stroke="midnightblue" d="M938.305,-380.906C937.566,-370.71 936.377,-354.3 935.435,-341.308"/>
<polygon fill="midnightblue" stroke="midnightblue" points="938.903,-340.734 934.689,-331.013 931.921,-341.24 938.903,-340.734"/>
</g>
<!-- Node33 -->
<g id="node34" class="node"><title>Node33</title>
<g id="a_node34"><a xlink:href="midi_2src_2_helpers_8h.html" target="_top" xlink:title="Helpers.h">
<polygon fill="white" stroke="black" points="901,-239 901,-260 967,-260 967,-239 901,-239"/>
<text text-anchor="middle" x="934" y="-246.4" font-family="Helvetica,sans-Serif" font-size="12.00">Helpers.h</text>
</a>
</g>
</g>
<!-- Node31&#45;&gt;Node33 -->
<g id="edge46" class="edge"><title>Node31&#45;&gt;Node33</title>
<path fill="none" stroke="midnightblue" d="M951.261,-380.766C962.214,-371.217 977.503,-355.564 984,-338 989.397,-323.411 989.777,-317.443 984,-303 978.263,-288.658 966.537,-276.002 955.882,-266.712"/>
<polygon fill="midnightblue" stroke="midnightblue" points="958.009,-263.93 948.059,-260.291 953.568,-269.341 958.009,-263.93"/>
</g>
<!-- Node32&#45;&gt;Node33 -->
<g id="edge43" class="edge"><title>Node32&#45;&gt;Node33</title>
<path fill="none" stroke="midnightblue" d="M934,-309.906C934,-299.71 934,-283.3 934,-270.308"/>
<polygon fill="midnightblue" stroke="midnightblue" points="937.5,-270.013 934,-260.013 930.5,-270.013 937.5,-270.013"/>
</g>
<!-- Node33&#45;&gt;Node7 -->
<g id="edge45" class="edge"><title>Node33&#45;&gt;Node7</title>
<path fill="none" stroke="midnightblue" d="M932.993,-238.812C931.147,-224.082 926.319,-195.495 915,-174 882.823,-112.898 823.193,-55.663 792.449,-28.5021"/>
<polygon fill="midnightblue" stroke="midnightblue" points="794.431,-25.587 784.59,-21.6606 789.834,-30.8666 794.431,-25.587"/>
</g>
<!-- Node34 -->
<g id="node35" class="node"><title>Node34</title>
<polygon fill="white" stroke="#bfbfbf" points="848,-174.5 848,-195.5 906,-195.5 906,-174.5 848,-174.5"/>
<text text-anchor="middle" x="877" y="-181.9" font-family="Helvetica,sans-Serif" font-size="12.00">stddef.h</text>
</g>
<!-- Node33&#45;&gt;Node34 -->
<g id="edge44" class="edge"><title>Node33&#45;&gt;Node34</title>
<path fill="none" stroke="midnightblue" d="M925.094,-238.734C916.527,-229.341 903.383,-214.929 893,-203.544"/>
<polygon fill="midnightblue" stroke="midnightblue" points="895.356,-200.934 886.032,-195.903 890.184,-205.651 895.356,-200.934"/>
</g>
<!-- Node35&#45;&gt;Node2 -->
<g id="edge48" class="edge"><title>Node35&#45;&gt;Node2</title>
<path fill="none" stroke="midnightblue" d="M307.719,-445.234C304.747,-436.388 300.279,-423.091 296.573,-412.062"/>
<polygon fill="midnightblue" stroke="midnightblue" points="299.83,-410.768 293.328,-402.403 293.195,-412.997 299.83,-410.768"/>
</g>
</g>
</svg>
        <g id="navigator" transform="translate(0 0)" fill="#404254">
                <rect fill="#f2f5e9" fill-opacity="0.5" stroke="#606060" stroke-width=".5" x="0" y="0" width="60" height="60"/>
                <use id="zoomplus" xlink:href="#zoomPlus" x="17" y="9" onmousedown="handleZoom(evt,'in')"/>
                <use id="zoomminus" xlink:href="#zoomMin" x="42" y="9" onmousedown="handleZoom(evt,'out')"/>
                <use id="reset" xlink:href="#resetDef" x="30" y="36" onmousedown="handleReset()"/>
                <g id="arrowUp" xlink:href="#dirArrow" transform="translate(30 24)" onmousedown="handlePan(0,-1)">
                  <use xlink:href="#rim" fill="#404040">
                        <set attributeName="fill" to="#808080" begin="arrowUp.mouseover" end="arrowUp.mouseout"/>
                  </use>
                  <path fill="none" stroke="white" stroke-width="1.5" d="M0,-3.0v7 M-2.5,-0.5L0,-3.0L2.5,-0.5"/>
                </g>
                <g id="arrowRight" xlink:href="#dirArrow" transform="rotate(90) translate(36 -43)" onmousedown="handlePan(1,0)">
                  <use xlink:href="#rim" fill="#404040">
                        <set attributeName="fill" to="#808080" begin="arrowRight.mouseover" end="arrowRight.mouseout"/>
                  </use>
                  <path fill="none" stroke="white" stroke-width="1.5" d="M0,-3.0v7 M-2.5,-0.5L0,-3.0L2.5,-0.5"/>
                </g>
                <g id="arrowDown" xlink:href="#dirArrow" transform="rotate(180) translate(-30 -48)" onmousedown="handlePan(0,1)">
                  <use xlink:href="#rim" fill="#404040">
                        <set attributeName="fill" to="#808080" begin="arrowDown.mouseover" end="arrowDown.mouseout"/>
                  </use>
                  <path fill="none" stroke="white" stroke-width="1.5" d="M0,-3.0v7 M-2.5,-0.5L0,-3.0L2.5,-0.5"/>
                </g>
                <g id="arrowLeft" xlink:href="#dirArrow" transform="rotate(270) translate(-36 17)" onmousedown="handlePan(-1,0)">
                  <use xlink:href="#rim" fill="#404040">
                        <set attributeName="fill" to="#808080" begin="arrowLeft.mouseover" end="arrowLeft.mouseout"/>
                  </use>
                  <path fill="none" stroke="white" stroke-width="1.5" d="M0,-3.0v7 M-2.5,-0.5L0,-3.0L2.5,-0.5"/>
                </g>
        </g>
        <svg viewBox="0 0 15 15" width="100%" height="30px" preserveAspectRatio="xMaxYMin meet">
         <g id="arrow_out" transform="scale(0.3 0.3)">
          <a xlink:href="_sys_ex_8cpp__incl_org.svg" target="_base">
           <rect id="button" ry="5" rx="5" y="6" x="6" height="38" width="38"
                fill="#f2f5e9" fill-opacity="0.5" stroke="#606060" stroke-width="1.0"/>
           <path id="arrow"
             d="M 11.500037,31.436501 C 11.940474,20.09759 22.043105,11.32322 32.158766,21.979434 L 37.068811,17.246167 C 37.068811,17.246167 37.088388,32 37.088388,32 L 22.160133,31.978069 C 22.160133,31.978069 26.997745,27.140456 26.997745,27.140456 C 18.528582,18.264221 13.291696,25.230495 11.500037,31.436501 z"
             style="fill:#404040;"/>
          </a>
         </g>
        </svg>
</svg>
