<?xml version="1.0" encoding="UTF-8" standalone="no"?>
<!DOCTYPE svg PUBLIC "-//W3C//DTD SVG 1.1//EN"
 "http://www.w3.org/Graphics/SVG/1.1/DTD/svg11.dtd">
<!-- Generated by graphviz version 2.38.0 (20140413.2041)
 -->
<!-- Title: core/src/general/Timing.h Pages: 1 -->
<svg width="176pt" height="88pt"
 viewBox="0.00 0.00 175.50 88.00" xmlns="http://www.w3.org/2000/svg" xmlns:xlink="http://www.w3.org/1999/xlink">
<g id="graph0" class="graph" transform="scale(1 1) rotate(0) translate(4 84)">
<title>core/src/general/Timing.h</title>
<polygon fill="white" stroke="none" points="-4,4 -4,-84 171.5,-84 171.5,4 -4,4"/>
<!-- Node0 -->
<g id="node1" class="node"><title>Node0</title>
<polygon fill="#bfbfbf" stroke="black" points="4.5,-58.5 4.5,-79.5 152.5,-79.5 152.5,-58.5 4.5,-58.5"/>
<text text-anchor="middle" x="78.5" y="-65.9" font-family="Helvetica,sans-Serif" font-size="12.00">core/src/general/Timing.h</text>
</g>
<!-- Node1 -->
<g id="node2" class="node"><title>Node1</title>
<polygon fill="white" stroke="#bfbfbf" points="0,-0.5 0,-21.5 65,-21.5 65,-0.5 0,-0.5"/>
<text text-anchor="middle" x="32.5" y="-7.9" font-family="Helvetica,sans-Serif" font-size="12.00">inttypes.h</text>
</g>
<!-- Node0&#45;&gt;Node1 -->
<g id="edge1" class="edge"><title>Node0&#45;&gt;Node1</title>
<path fill="none" stroke="midnightblue" d="M70.4874,-58.2455C64.0232,-50.3761 54.7615,-39.101 47.0017,-29.6542"/>
<polygon fill="midnightblue" stroke="midnightblue" points="49.4727,-27.1484 40.4208,-21.6427 44.0636,-31.5916 49.4727,-27.1484"/>
</g>
<!-- Node2 -->
<g id="node3" class="node"><title>Node2</title>
<g id="a_node3"><a xlink:href="_h_a_l_8h.html" target="_top" xlink:title="../HAL/HAL.h">
<polygon fill="white" stroke="black" points="83.5,-0.5 83.5,-21.5 167.5,-21.5 167.5,-0.5 83.5,-0.5"/>
<text text-anchor="middle" x="125.5" y="-7.9" font-family="Helvetica,sans-Serif" font-size="12.00">../HAL/HAL.h</text>
</a>
</g>
</g>
<!-- Node0&#45;&gt;Node2 -->
<g id="edge2" class="edge"><title>Node0&#45;&gt;Node2</title>
<path fill="none" stroke="midnightblue" d="M86.6868,-58.2455C93.3589,-50.2958 102.948,-38.8706 110.925,-29.3656"/>
<polygon fill="midnightblue" stroke="midnightblue" points="113.659,-31.5525 117.407,-21.6427 108.297,-27.0524 113.659,-31.5525"/>
</g>
</g>
</svg>
