<?xml version="1.0" encoding="UTF-8" standalone="no"?>
<!DOCTYPE svg PUBLIC "-//W3C//DTD SVG 1.1//EN"
 "http://www.w3.org/Graphics/SVG/1.1/DTD/svg11.dtd">
<!-- Generated by graphviz version 2.38.0 (20140413.2041)
 -->
<!-- Title: core/src/uart/UART.h Pages: 1 -->
<svg width="262pt" height="88pt"
 viewBox="0.00 0.00 261.50 88.00" xmlns="http://www.w3.org/2000/svg" xmlns:xlink="http://www.w3.org/1999/xlink">
<g id="graph0" class="graph" transform="scale(1 1) rotate(0) translate(4 84)">
<title>core/src/uart/UART.h</title>
<polygon fill="white" stroke="none" points="-4,4 -4,-84 257.5,-84 257.5,4 -4,4"/>
<!-- Node2 -->
<g id="node1" class="node"><title>Node2</title>
<polygon fill="#bfbfbf" stroke="black" points="54,-58.5 54,-79.5 179,-79.5 179,-58.5 54,-58.5"/>
<text text-anchor="middle" x="116.5" y="-65.9" font-family="Helvetica,sans-Serif" font-size="12.00">core/src/uart/UART.h</text>
</g>
<!-- Node3 -->
<g id="node2" class="node"><title>Node3</title>
<g id="a_node2"><a xlink:href="_core_8h.html" target="_top" xlink:title="core/src/Core.h">
<polygon fill="white" stroke="black" points="0,-0.5 0,-21.5 97,-21.5 97,-0.5 0,-0.5"/>
<text text-anchor="middle" x="48.5" y="-7.9" font-family="Helvetica,sans-Serif" font-size="12.00">core/src/Core.h</text>
</a>
</g>
</g>
<!-- Node2&#45;&gt;Node3 -->
<g id="edge1" class="edge"><title>Node2&#45;&gt;Node3</title>
<path fill="none" stroke="midnightblue" d="M96.6404,-51.645C84.8142,-41.9058 70.2108,-29.8795 60.209,-21.6427"/>
<polygon fill="midnightblue" stroke="midnightblue" points="94.711,-54.5902 104.655,-58.2455 99.161,-49.1867 94.711,-54.5902"/>
</g>
<!-- Node4 -->
<g id="node3" class="node"><title>Node4</title>
<g id="a_node3"><a xlink:href="_u_a_r_t_8cpp.html" target="_top" xlink:title="core/src/uart/UART.cpp">
<polygon fill="white" stroke="black" points="115.5,-0.5 115.5,-21.5 253.5,-21.5 253.5,-0.5 115.5,-0.5"/>
<text text-anchor="middle" x="184.5" y="-7.9" font-family="Helvetica,sans-Serif" font-size="12.00">core/src/uart/UART.cpp</text>
</a>
</g>
</g>
<!-- Node2&#45;&gt;Node4 -->
<g id="edge2" class="edge"><title>Node2&#45;&gt;Node4</title>
<path fill="none" stroke="midnightblue" d="M136.36,-51.645C148.186,-41.9058 162.789,-29.8795 172.791,-21.6427"/>
<polygon fill="midnightblue" stroke="midnightblue" points="133.839,-49.1867 128.345,-58.2455 138.289,-54.5902 133.839,-49.1867"/>
</g>
</g>
</svg>
