<?xml version="1.0" encoding="UTF-8" standalone="no"?>
<!DOCTYPE svg PUBLIC "-//W3C//DTD SVG 1.1//EN"
 "http://www.w3.org/Graphics/SVG/1.1/DTD/svg11.dtd">
<!-- Generated by graphviz version 2.38.0 (20140413.2041)
 -->
<!-- Title: core/src/uart/UART.cpp Pages: 1 -->
<svg width="396pt" height="146pt"
 viewBox="0.00 0.00 396.00 146.00" xmlns="http://www.w3.org/2000/svg" xmlns:xlink="http://www.w3.org/1999/xlink">
<g id="graph0" class="graph" transform="scale(1 1) rotate(0) translate(4 142)">
<title>core/src/uart/UART.cpp</title>
<polygon fill="white" stroke="none" points="-4,4 -4,-142 392,-142 392,4 -4,4"/>
<!-- Node0 -->
<g id="node1" class="node"><title>Node0</title>
<polygon fill="#bfbfbf" stroke="black" points="132,-116.5 132,-137.5 270,-137.5 270,-116.5 132,-116.5"/>
<text text-anchor="middle" x="201" y="-123.9" font-family="Helvetica,sans-Serif" font-size="12.00">core/src/uart/UART.cpp</text>
</g>
<!-- Node1 -->
<g id="node2" class="node"><title>Node1</title>
<g id="a_node2"><a xlink:href="_u_a_r_t_8h.html" target="_top" xlink:title="UART.h">
<polygon fill="white" stroke="black" points="28.5,-58.5 28.5,-79.5 85.5,-79.5 85.5,-58.5 28.5,-58.5"/>
<text text-anchor="middle" x="57" y="-65.9" font-family="Helvetica,sans-Serif" font-size="12.00">UART.h</text>
</a>
</g>
</g>
<!-- Node0&#45;&gt;Node1 -->
<g id="edge1" class="edge"><title>Node0&#45;&gt;Node1</title>
<path fill="none" stroke="midnightblue" d="M176.246,-116.373C152.715,-107.223 117.131,-93.3844 90.9574,-83.2057"/>
<polygon fill="midnightblue" stroke="midnightblue" points="92.0201,-79.8636 81.4315,-79.5011 89.4829,-86.3877 92.0201,-79.8636"/>
</g>
<!-- Node3 -->
<g id="node4" class="node"><title>Node3</title>
<g id="a_node4"><a xlink:href="_ring_buffer_8h.html" target="_top" xlink:title="RingBuffer/RingBuffer.h">
<polygon fill="white" stroke="black" points="132,-58.5 132,-79.5 270,-79.5 270,-58.5 132,-58.5"/>
<text text-anchor="middle" x="201" y="-65.9" font-family="Helvetica,sans-Serif" font-size="12.00">RingBuffer/RingBuffer.h</text>
</a>
</g>
</g>
<!-- Node0&#45;&gt;Node3 -->
<g id="edge3" class="edge"><title>Node0&#45;&gt;Node3</title>
<path fill="none" stroke="midnightblue" d="M201,-116.246C201,-108.938 201,-98.6944 201,-89.7046"/>
<polygon fill="midnightblue" stroke="midnightblue" points="204.5,-89.6426 201,-79.6427 197.5,-89.6427 204.5,-89.6426"/>
</g>
<!-- Node8 -->
<g id="node9" class="node"><title>Node8</title>
<polygon fill="white" stroke="#bfbfbf" points="288,-58.5 288,-79.5 374,-79.5 374,-58.5 288,-58.5"/>
<text text-anchor="middle" x="331" y="-65.9" font-family="Helvetica,sans-Serif" font-size="12.00">avr/interrupt.h</text>
</g>
<!-- Node0&#45;&gt;Node8 -->
<g id="edge8" class="edge"><title>Node0&#45;&gt;Node8</title>
<path fill="none" stroke="midnightblue" d="M223.348,-116.373C244.403,-107.303 276.15,-93.6279 299.717,-83.4755"/>
<polygon fill="midnightblue" stroke="midnightblue" points="301.144,-86.6719 308.944,-79.5011 298.375,-80.243 301.144,-86.6719"/>
</g>
<!-- Node2 -->
<g id="node3" class="node"><title>Node2</title>
<g id="a_node3"><a xlink:href="core_2src_2uart_2_config_8h.html" target="_top" xlink:title="Config.h">
<polygon fill="white" stroke="black" points="0,-0.5 0,-21.5 60,-21.5 60,-0.5 0,-0.5"/>
<text text-anchor="middle" x="30" y="-7.9" font-family="Helvetica,sans-Serif" font-size="12.00">Config.h</text>
</a>
</g>
</g>
<!-- Node1&#45;&gt;Node2 -->
<g id="edge2" class="edge"><title>Node1&#45;&gt;Node2</title>
<path fill="none" stroke="midnightblue" d="M52.297,-58.2455C48.6576,-50.6973 43.5076,-40.0158 39.0738,-30.8197"/>
<polygon fill="midnightblue" stroke="midnightblue" points="42.1449,-29.1303 34.6491,-21.6427 35.8395,-32.1704 42.1449,-29.1303"/>
</g>
<!-- Node4 -->
<g id="node5" class="node"><title>Node4</title>
<polygon fill="white" stroke="#bfbfbf" points="78,-0.5 78,-21.5 156,-21.5 156,-0.5 78,-0.5"/>
<text text-anchor="middle" x="117" y="-7.9" font-family="Helvetica,sans-Serif" font-size="12.00">util/atomic.h</text>
</g>
<!-- Node3&#45;&gt;Node4 -->
<g id="edge4" class="edge"><title>Node3&#45;&gt;Node4</title>
<path fill="none" stroke="midnightblue" d="M186.368,-58.2455C173.601,-49.7337 154.856,-37.2375 140.07,-27.3801"/>
<polygon fill="midnightblue" stroke="midnightblue" points="141.726,-24.2775 131.464,-21.6427 137.843,-30.1019 141.726,-24.2775"/>
</g>
<!-- Node5 -->
<g id="node6" class="node"><title>Node5</title>
<polygon fill="white" stroke="#bfbfbf" points="174.5,-0.5 174.5,-21.5 227.5,-21.5 227.5,-0.5 174.5,-0.5"/>
<text text-anchor="middle" x="201" y="-7.9" font-family="Helvetica,sans-Serif" font-size="12.00">stdint.h</text>
</g>
<!-- Node3&#45;&gt;Node5 -->
<g id="edge5" class="edge"><title>Node3&#45;&gt;Node5</title>
<path fill="none" stroke="midnightblue" d="M201,-58.2455C201,-50.9382 201,-40.6944 201,-31.7046"/>
<polygon fill="midnightblue" stroke="midnightblue" points="204.5,-31.6426 201,-21.6427 197.5,-31.6427 204.5,-31.6426"/>
</g>
<!-- Node6 -->
<g id="node7" class="node"><title>Node6</title>
<polygon fill="white" stroke="#bfbfbf" points="246,-0.5 246,-21.5 310,-21.5 310,-0.5 246,-0.5"/>
<text text-anchor="middle" x="278" y="-7.9" font-family="Helvetica,sans-Serif" font-size="12.00">stdbool.h</text>
</g>
<!-- Node3&#45;&gt;Node6 -->
<g id="edge6" class="edge"><title>Node3&#45;&gt;Node6</title>
<path fill="none" stroke="midnightblue" d="M214.412,-58.2455C226.006,-49.814 242.975,-37.4729 256.468,-27.6598"/>
<polygon fill="midnightblue" stroke="midnightblue" points="258.713,-30.355 264.741,-21.6427 254.595,-24.6938 258.713,-30.355"/>
</g>
<!-- Node7 -->
<g id="node8" class="node"><title>Node7</title>
<g id="a_node8"><a xlink:href="core_2src_2uart_2_ring_buffer_2_config_8h.html" target="_top" xlink:title="Config.h">
<polygon fill="white" stroke="black" points="328,-0.5 328,-21.5 388,-21.5 388,-0.5 328,-0.5"/>
<text text-anchor="middle" x="358" y="-7.9" font-family="Helvetica,sans-Serif" font-size="12.00">Config.h</text>
</a>
</g>
</g>
<!-- Node3&#45;&gt;Node7 -->
<g id="edge7" class="edge"><title>Node3&#45;&gt;Node7</title>
<path fill="none" stroke="midnightblue" d="M227.989,-58.3733C253.87,-49.1419 293.125,-35.1402 321.729,-24.9375"/>
<polygon fill="midnightblue" stroke="midnightblue" points="323.12,-28.1573 331.363,-21.5011 320.768,-21.5642 323.12,-28.1573"/>
</g>
</g>
</svg>
