<?xml version="1.0" encoding="UTF-8" standalone="no"?>
<!DOCTYPE svg PUBLIC "-//W3C//DTD SVG 1.1//EN"
 "http://www.w3.org/Graphics/SVG/1.1/DTD/svg11.dtd">
<!-- Generated by graphviz version 2.38.0 (20140413.2041)
 -->
<!-- Title: versioning/src/avr/Version.h Pages: 1 -->
<svg width="1087pt" height="327pt"
 viewBox="0.00 0.00 1087.00 327.00" xmlns="http://www.w3.org/2000/svg" xmlns:xlink="http://www.w3.org/1999/xlink">
<g id="graph0" class="graph" transform="scale(1 1) rotate(0) translate(4 323)">
<title>versioning/src/avr/Version.h</title>
<polygon fill="white" stroke="none" points="-4,4 -4,-323 1083,-323 1083,4 -4,4"/>
<!-- Node2 -->
<g id="node1" class="node"><title>Node2</title>
<polygon fill="#bfbfbf" stroke="black" points="503,-284.5 503,-318.5 610,-318.5 610,-284.5 503,-284.5"/>
<text text-anchor="start" x="511" y="-304.9" font-family="Helvetica,sans-Serif" font-size="12.00">versioning/src/avr</text>
<text text-anchor="middle" x="556.5" y="-291.9" font-family="Helvetica,sans-Serif" font-size="12.00">/Version.h</text>
</g>
<!-- Node3 -->
<g id="node2" class="node"><title>Node3</title>
<g id="a_node2"><a xlink:href="_open_deck_8h.html" target="_top" xlink:title="OpenDeck.h">
<polygon fill="white" stroke="black" points="459.5,-220 459.5,-241 541.5,-241 541.5,-220 459.5,-220"/>
<text text-anchor="middle" x="500.5" y="-227.4" font-family="Helvetica,sans-Serif" font-size="12.00">OpenDeck.h</text>
</a>
</g>
</g>
<!-- Node2&#45;&gt;Node3 -->
<g id="edge1" class="edge"><title>Node2&#45;&gt;Node3</title>
<path fill="none" stroke="midnightblue" d="M537.022,-276.5C527.193,-264.389 515.814,-250.37 508.405,-241.24"/>
<polygon fill="midnightblue" stroke="midnightblue" points="534.492,-278.938 543.512,-284.497 539.928,-274.526 534.492,-278.938"/>
</g>
<!-- Node19 -->
<g id="node18" class="node"><title>Node19</title>
<g id="a_node18"><a xlink:href="_version_8cpp.html" target="_top" xlink:title="versioning/src/avr\l/Version.cpp">
<polygon fill="white" stroke="black" points="560,-213.5 560,-247.5 667,-247.5 667,-213.5 560,-213.5"/>
<text text-anchor="start" x="568" y="-233.9" font-family="Helvetica,sans-Serif" font-size="12.00">versioning/src/avr</text>
<text text-anchor="middle" x="613.5" y="-220.9" font-family="Helvetica,sans-Serif" font-size="12.00">/Version.cpp</text>
</a>
</g>
</g>
<!-- Node2&#45;&gt;Node19 -->
<g id="edge24" class="edge"><title>Node2&#45;&gt;Node19</title>
<path fill="none" stroke="midnightblue" d="M576.274,-276.563C584.093,-267.098 592.882,-256.459 599.956,-247.896"/>
<polygon fill="midnightblue" stroke="midnightblue" points="573.391,-274.558 569.72,-284.497 578.787,-279.016 573.391,-274.558"/>
</g>
<!-- Node4 -->
<g id="node3" class="node"><title>Node4</title>
<g id="a_node3"><a xlink:href="_init_8cpp.html" target="_top" xlink:title="Init.cpp">
<polygon fill="white" stroke="black" points="96,-149 96,-170 149,-170 149,-149 96,-149"/>
<text text-anchor="middle" x="122.5" y="-156.4" font-family="Helvetica,sans-Serif" font-size="12.00">Init.cpp</text>
</a>
</g>
</g>
<!-- Node3&#45;&gt;Node4 -->
<g id="edge2" class="edge"><title>Node3&#45;&gt;Node4</title>
<path fill="none" stroke="midnightblue" d="M449.438,-226.097C381.731,-220.588 259.075,-207.127 158.5,-177 152.573,-175.224 146.363,-172.658 140.803,-170.076"/>
<polygon fill="midnightblue" stroke="midnightblue" points="449.176,-229.587 459.42,-226.884 449.726,-222.609 449.176,-229.587"/>
</g>
<!-- Node5 -->
<g id="node4" class="node"><title>Node5</title>
<g id="a_node4"><a xlink:href="_sys_ex_8h.html" target="_top" xlink:title="sysex/src/SysEx.h">
<polygon fill="white" stroke="black" points="167.5,-149 167.5,-170 277.5,-170 277.5,-149 167.5,-149"/>
<text text-anchor="middle" x="222.5" y="-156.4" font-family="Helvetica,sans-Serif" font-size="12.00">sysex/src/SysEx.h</text>
</a>
</g>
</g>
<!-- Node3&#45;&gt;Node5 -->
<g id="edge3" class="edge"><title>Node3&#45;&gt;Node5</title>
<path fill="none" stroke="midnightblue" d="M449.354,-218.802C403.935,-208.298 336.133,-191.75 277.5,-177 268.709,-174.789 259.249,-172.371 250.635,-170.084"/>
<polygon fill="midnightblue" stroke="midnightblue" points="448.732,-222.25 459.262,-221.078 450.299,-215.427 448.732,-222.25"/>
</g>
<!-- Node7 -->
<g id="node6" class="node"><title>Node7</title>
<g id="a_node6"><a xlink:href="interface_2digital_2input_2buttons_2_buttons_8h.html" target="_top" xlink:title="interface/digital/input\l/buttons/Buttons.h">
<polygon fill="white" stroke="black" points="483.5,-142.5 483.5,-176.5 607.5,-176.5 607.5,-142.5 483.5,-142.5"/>
<text text-anchor="start" x="491.5" y="-162.9" font-family="Helvetica,sans-Serif" font-size="12.00">interface/digital/input</text>
<text text-anchor="middle" x="545.5" y="-149.9" font-family="Helvetica,sans-Serif" font-size="12.00">/buttons/Buttons.h</text>
</a>
</g>
</g>
<!-- Node3&#45;&gt;Node7 -->
<g id="edge6" class="edge"><title>Node3&#45;&gt;Node7</title>
<path fill="none" stroke="midnightblue" d="M512.369,-211.301C519.389,-200.537 528.203,-187.023 534.974,-176.639"/>
<polygon fill="midnightblue" stroke="midnightblue" points="509.288,-209.618 506.757,-219.906 515.151,-213.442 509.288,-209.618"/>
</g>
<!-- Node8 -->
<g id="node7" class="node"><title>Node8</title>
<g id="a_node7"><a xlink:href="interface_2analog_2_analog_8h.html" target="_top" xlink:title="interface/analog/Analog.h">
<polygon fill="white" stroke="black" points="626,-78 626,-99 775,-99 775,-78 626,-78"/>
<text text-anchor="middle" x="700.5" y="-85.4" font-family="Helvetica,sans-Serif" font-size="12.00">interface/analog/Analog.h</text>
</a>
</g>
</g>
<!-- Node3&#45;&gt;Node8 -->
<g id="edge17" class="edge"><title>Node3&#45;&gt;Node8</title>
<path fill="none" stroke="midnightblue" d="M538.945,-216.362C562.521,-207.302 592.651,-193.861 616.5,-177 649.342,-153.781 679.937,-116.502 693.356,-99.0677"/>
<polygon fill="midnightblue" stroke="midnightblue" points="537.422,-213.195 529.28,-219.974 539.873,-219.752 537.422,-213.195"/>
</g>
<!-- Node11 -->
<g id="node10" class="node"><title>Node11</title>
<g id="a_node10"><a xlink:href="_f_s_r_8cpp.html" target="_top" xlink:title="interface/analog/FSR.cpp">
<polygon fill="white" stroke="black" points="713,-7 713,-28 862,-28 862,-7 713,-7"/>
<text text-anchor="middle" x="787.5" y="-14.4" font-family="Helvetica,sans-Serif" font-size="12.00">interface/analog/FSR.cpp</text>
</a>
</g>
</g>
<!-- Node3&#45;&gt;Node11 -->
<g id="edge21" class="edge"><title>Node3&#45;&gt;Node11</title>
<path fill="none" stroke="midnightblue" d="M538.978,-216.768C576.305,-204.284 630.193,-185.874 650.5,-177 712.26,-150.013 748.761,-163.143 784.5,-106 799.814,-81.5148 794.049,-45.1761 790.058,-28.0664"/>
<polygon fill="midnightblue" stroke="midnightblue" points="537.782,-213.477 529.404,-219.961 539.997,-220.117 537.782,-213.477"/>
</g>
<!-- Node12 -->
<g id="node11" class="node"><title>Node12</title>
<g id="a_node11"><a xlink:href="_potentiometer_8cpp.html" target="_top" xlink:title="interface/analog/Potentiometer.cpp">
<polygon fill="white" stroke="black" points="880,-7 880,-28 1079,-28 1079,-7 880,-7"/>
<text text-anchor="middle" x="979.5" y="-14.4" font-family="Helvetica,sans-Serif" font-size="12.00">interface/analog/Potentiometer.cpp</text>
</a>
</g>
</g>
<!-- Node3&#45;&gt;Node12 -->
<g id="edge22" class="edge"><title>Node3&#45;&gt;Node12</title>
<path fill="none" stroke="midnightblue" d="M537.194,-216.916C541.656,-215.526 546.168,-214.187 550.5,-213 622.472,-193.281 645.132,-204.51 714.5,-177 818.899,-135.597 929.9,-55.8097 966.78,-28.1905"/>
<polygon fill="midnightblue" stroke="midnightblue" points="536.045,-213.608 527.593,-219.997 538.184,-220.274 536.045,-213.608"/>
</g>
<!-- Node16 -->
<g id="node15" class="node"><title>Node16</title>
<g id="a_node15"><a xlink:href="interface_2digital_2input_2encoders_2_encoders_8h.html" target="_top" xlink:title="interface/digital/input\l/encoders/Encoders.h">
<polygon fill="white" stroke="black" points="296,-142.5 296,-176.5 427,-176.5 427,-142.5 296,-142.5"/>
<text text-anchor="start" x="304" y="-162.9" font-family="Helvetica,sans-Serif" font-size="12.00">interface/digital/input</text>
<text text-anchor="middle" x="361.5" y="-149.9" font-family="Helvetica,sans-Serif" font-size="12.00">/encoders/Encoders.h</text>
</a>
</g>
</g>
<!-- Node3&#45;&gt;Node16 -->
<g id="edge18" class="edge"><title>Node3&#45;&gt;Node16</title>
<path fill="none" stroke="midnightblue" d="M472.037,-215.371C449.296,-204.082 417.425,-188.261 393.744,-176.506"/>
<polygon fill="midnightblue" stroke="midnightblue" points="470.659,-218.594 481.173,-219.906 473.772,-212.324 470.659,-218.594"/>
</g>
<!-- Node18 -->
<g id="node17" class="node"><title>Node18</title>
<g id="a_node17"><a xlink:href="_open_deck_8cpp.html" target="_top" xlink:title="OpenDeck.cpp">
<polygon fill="white" stroke="black" points="870,-149 870,-170 965,-170 965,-149 870,-149"/>
<text text-anchor="middle" x="917.5" y="-156.4" font-family="Helvetica,sans-Serif" font-size="12.00">OpenDeck.cpp</text>
</a>
</g>
</g>
<!-- Node3&#45;&gt;Node18 -->
<g id="edge23" class="edge"><title>Node3&#45;&gt;Node18</title>
<path fill="none" stroke="midnightblue" d="M535.916,-216.842C540.774,-215.392 545.731,-214.057 550.5,-213 683.762,-183.463 721.429,-202.617 855.5,-177 865.237,-175.14 875.698,-172.578 885.201,-170.029"/>
<polygon fill="midnightblue" stroke="midnightblue" points="534.649,-213.572 526.174,-219.93 536.764,-220.245 534.649,-213.572"/>
</g>
<!-- Node5&#45;&gt;Node3 -->
<g id="edge4" class="edge"><title>Node5&#45;&gt;Node3</title>
<path fill="none" stroke="midnightblue" d="M278.04,-172.585C283.962,-174.082 289.868,-175.583 295.5,-177 356.342,-192.305 427.056,-209.547 467.657,-219.962"/>
<polygon fill="midnightblue" stroke="midnightblue" points="278.657,-169.131 268.106,-170.084 276.949,-175.919 278.657,-169.131"/>
</g>
<!-- Node6 -->
<g id="node5" class="node"><title>Node6</title>
<g id="a_node5"><a xlink:href="_sys_ex_8cpp.html" target="_top" xlink:title="sysex/src/SysEx.cpp">
<polygon fill="white" stroke="black" points="0,-78 0,-99 123,-99 123,-78 0,-78"/>
<text text-anchor="middle" x="61.5" y="-85.4" font-family="Helvetica,sans-Serif" font-size="12.00">sysex/src/SysEx.cpp</text>
</a>
</g>
</g>
<!-- Node5&#45;&gt;Node6 -->
<g id="edge5" class="edge"><title>Node5&#45;&gt;Node6</title>
<path fill="none" stroke="midnightblue" d="M190.863,-144.941C159.256,-131.395 111.481,-110.921 83.6962,-99.0127"/>
<polygon fill="midnightblue" stroke="midnightblue" points="189.543,-148.184 200.114,-148.906 192.301,-141.75 189.543,-148.184"/>
</g>
<!-- Node7&#45;&gt;Node8 -->
<g id="edge7" class="edge"><title>Node7&#45;&gt;Node8</title>
<path fill="none" stroke="midnightblue" d="M590.621,-138.414C619.757,-125.443 656.338,-109.159 679.07,-99.0398"/>
<polygon fill="midnightblue" stroke="midnightblue" points="589.162,-135.232 581.45,-142.497 592.009,-141.627 589.162,-135.232"/>
</g>
<!-- Node13 -->
<g id="node12" class="node"><title>Node13</title>
<g id="a_node12"><a xlink:href="_digital_input_8h.html" target="_top" xlink:title="interface/digital/input\l/DigitalInput.h">
<polygon fill="white" stroke="black" points="303.5,-71.5 303.5,-105.5 427.5,-105.5 427.5,-71.5 303.5,-71.5"/>
<text text-anchor="start" x="311.5" y="-91.9" font-family="Helvetica,sans-Serif" font-size="12.00">interface/digital/input</text>
<text text-anchor="middle" x="365.5" y="-78.9" font-family="Helvetica,sans-Serif" font-size="12.00">/DigitalInput.h</text>
</a>
</g>
</g>
<!-- Node7&#45;&gt;Node13 -->
<g id="edge13" class="edge"><title>Node7&#45;&gt;Node13</title>
<path fill="none" stroke="midnightblue" d="M494.29,-138.869C466.771,-128.321 433.269,-115.478 407.333,-105.536"/>
<polygon fill="midnightblue" stroke="midnightblue" points="493.162,-142.185 503.752,-142.497 495.667,-135.649 493.162,-142.185"/>
</g>
<!-- Node15 -->
<g id="node14" class="node"><title>Node15</title>
<g id="a_node14"><a xlink:href="interface_2digital_2input_2buttons_2_buttons_8cpp.html" target="_top" xlink:title="interface/digital/input\l/buttons/Buttons.cpp">
<polygon fill="white" stroke="black" points="483.5,-71.5 483.5,-105.5 607.5,-105.5 607.5,-71.5 483.5,-71.5"/>
<text text-anchor="start" x="491.5" y="-91.9" font-family="Helvetica,sans-Serif" font-size="12.00">interface/digital/input</text>
<text text-anchor="middle" x="545.5" y="-78.9" font-family="Helvetica,sans-Serif" font-size="12.00">/buttons/Buttons.cpp</text>
</a>
</g>
</g>
<!-- Node7&#45;&gt;Node15 -->
<g id="edge16" class="edge"><title>Node7&#45;&gt;Node15</title>
<path fill="none" stroke="midnightblue" d="M545.5,-132.247C545.5,-123.392 545.5,-113.767 545.5,-105.896"/>
<polygon fill="midnightblue" stroke="midnightblue" points="542,-132.497 545.5,-142.497 549,-132.497 542,-132.497"/>
</g>
<!-- Node9 -->
<g id="node8" class="node"><title>Node9</title>
<g id="a_node8"><a xlink:href="_interface_8h.html" target="_top" xlink:title="interface/Interface.h">
<polygon fill="white" stroke="black" points="396.5,-7 396.5,-28 514.5,-28 514.5,-7 396.5,-7"/>
<text text-anchor="middle" x="455.5" y="-14.4" font-family="Helvetica,sans-Serif" font-size="12.00">interface/Interface.h</text>
</a>
</g>
</g>
<!-- Node8&#45;&gt;Node9 -->
<g id="edge8" class="edge"><title>Node8&#45;&gt;Node9</title>
<path fill="none" stroke="midnightblue" d="M656.912,-75.2242C608.987,-61.7269 533.007,-40.3284 489.355,-28.0347"/>
<polygon fill="midnightblue" stroke="midnightblue" points="656.117,-78.6363 666.691,-77.9783 658.014,-71.8984 656.117,-78.6363"/>
</g>
<!-- Node10 -->
<g id="node9" class="node"><title>Node10</title>
<g id="a_node9"><a xlink:href="interface_2analog_2_analog_8cpp.html" target="_top" xlink:title="interface/analog/Analog.cpp">
<polygon fill="white" stroke="black" points="532.5,-7 532.5,-28 694.5,-28 694.5,-7 532.5,-7"/>
<text text-anchor="middle" x="613.5" y="-14.4" font-family="Helvetica,sans-Serif" font-size="12.00">interface/analog/Analog.cpp</text>
</a>
</g>
</g>
<!-- Node8&#45;&gt;Node10 -->
<g id="edge10" class="edge"><title>Node8&#45;&gt;Node10</title>
<path fill="none" stroke="midnightblue" d="M680.221,-71.4169C663.248,-57.9554 639.602,-39.2019 625.494,-28.0127"/>
<polygon fill="midnightblue" stroke="midnightblue" points="678.393,-74.4341 688.403,-77.9058 682.743,-68.9496 678.393,-74.4341"/>
</g>
<!-- Node8&#45;&gt;Node11 -->
<g id="edge11" class="edge"><title>Node8&#45;&gt;Node11</title>
<path fill="none" stroke="midnightblue" d="M720.779,-71.4169C737.752,-57.9554 761.398,-39.2019 775.506,-28.0127"/>
<polygon fill="midnightblue" stroke="midnightblue" points="718.257,-68.9496 712.597,-77.9058 722.607,-74.4341 718.257,-68.9496"/>
</g>
<!-- Node8&#45;&gt;Node12 -->
<g id="edge12" class="edge"><title>Node8&#45;&gt;Node12</title>
<path fill="none" stroke="midnightblue" d="M748.774,-75.5613C803.262,-62.0856 890.821,-40.4313 940.947,-28.0347"/>
<polygon fill="midnightblue" stroke="midnightblue" points="747.868,-72.1798 739.001,-77.9783 749.549,-78.9751 747.868,-72.1798"/>
</g>
<!-- Node9&#45;&gt;Node3 -->
<g id="edge9" class="edge"><title>Node9&#45;&gt;Node3</title>
<path fill="none" stroke="midnightblue" d="M455.726,-38.1248C456.545,-68.5064 460.045,-128.483 474.5,-177 479.205,-192.791 488.367,-209.62 494.461,-219.85"/>
<polygon fill="midnightblue" stroke="midnightblue" points="459.223,-37.9443 455.526,-28.0154 452.224,-38.0827 459.223,-37.9443"/>
</g>
<!-- Node13&#45;&gt;Node9 -->
<g id="edge14" class="edge"><title>Node13&#45;&gt;Node9</title>
<path fill="none" stroke="midnightblue" d="M394.594,-65.1943C410.982,-52.6301 430.6,-37.5897 443.057,-28.0398"/>
<polygon fill="midnightblue" stroke="midnightblue" points="392.181,-62.6346 386.374,-71.4966 396.44,-68.1899 392.181,-62.6346"/>
</g>
<!-- Node14 -->
<g id="node13" class="node"><title>Node14</title>
<g id="a_node13"><a xlink:href="_digital_input_8cpp.html" target="_top" xlink:title="interface/digital/input\l/DigitalInput.cpp">
<polygon fill="white" stroke="black" points="254.5,-0.5 254.5,-34.5 378.5,-34.5 378.5,-0.5 254.5,-0.5"/>
<text text-anchor="start" x="262.5" y="-20.9" font-family="Helvetica,sans-Serif" font-size="12.00">interface/digital/input</text>
<text text-anchor="middle" x="316.5" y="-7.9" font-family="Helvetica,sans-Serif" font-size="12.00">/DigitalInput.cpp</text>
</a>
</g>
</g>
<!-- Node13&#45;&gt;Node14 -->
<g id="edge15" class="edge"><title>Node13&#45;&gt;Node14</title>
<path fill="none" stroke="midnightblue" d="M348.297,-63.2755C341.627,-53.8829 334.163,-43.3721 328.143,-34.8958"/>
<polygon fill="midnightblue" stroke="midnightblue" points="345.492,-65.3698 354.135,-71.4966 351.199,-61.3168 345.492,-65.3698"/>
</g>
<!-- Node16&#45;&gt;Node13 -->
<g id="edge19" class="edge"><title>Node16&#45;&gt;Node13</title>
<path fill="none" stroke="midnightblue" d="M363.022,-132.247C363.535,-123.392 364.093,-113.767 364.55,-105.896"/>
<polygon fill="midnightblue" stroke="midnightblue" points="359.512,-132.311 362.428,-142.497 366.501,-132.716 359.512,-132.311"/>
</g>
<!-- Node17 -->
<g id="node16" class="node"><title>Node17</title>
<g id="a_node16"><a xlink:href="interface_2digital_2input_2encoders_2_encoders_8cpp.html" target="_top" xlink:title="interface/digital/input\l/encoders/Encoders.cpp">
<polygon fill="white" stroke="black" points="141.5,-71.5 141.5,-105.5 285.5,-105.5 285.5,-71.5 141.5,-71.5"/>
<text text-anchor="start" x="149.5" y="-91.9" font-family="Helvetica,sans-Serif" font-size="12.00">interface/digital/input</text>
<text text-anchor="middle" x="213.5" y="-78.9" font-family="Helvetica,sans-Serif" font-size="12.00">/encoders/Encoders.cpp</text>
</a>
</g>
</g>
<!-- Node16&#45;&gt;Node17 -->
<g id="edge20" class="edge"><title>Node16&#45;&gt;Node17</title>
<path fill="none" stroke="midnightblue" d="M317.905,-138.175C295.567,-127.761 268.756,-115.261 247.896,-105.536"/>
<polygon fill="midnightblue" stroke="midnightblue" points="316.631,-141.443 327.174,-142.497 319.589,-135.099 316.631,-141.443"/>
</g>
</g>
</svg>
