<?xml version="1.0" encoding="UTF-8" standalone="no"?>
<!DOCTYPE svg PUBLIC "-//W3C//DTD SVG 1.1//EN"
 "http://www.w3.org/Graphics/SVG/1.1/DTD/svg11.dtd">
<!-- Generated by graphviz version 2.38.0 (20140413.2041)
 -->
<!-- Title: versioning/src/avr/Version.cpp Pages: 1 -->
<svg width="115pt" height="159pt"
 viewBox="0.00 0.00 115.00 159.00" xmlns="http://www.w3.org/2000/svg" xmlns:xlink="http://www.w3.org/1999/xlink">
<g id="graph0" class="graph" transform="scale(1 1) rotate(0) translate(4 155)">
<title>versioning/src/avr/Version.cpp</title>
<polygon fill="white" stroke="none" points="-4,4 -4,-155 111,-155 111,4 -4,4"/>
<!-- Node0 -->
<g id="node1" class="node"><title>Node0</title>
<polygon fill="#bfbfbf" stroke="black" points="0,-116.5 0,-150.5 107,-150.5 107,-116.5 0,-116.5"/>
<text text-anchor="start" x="8" y="-136.9" font-family="Helvetica,sans-Serif" font-size="12.00">versioning/src/avr</text>
<text text-anchor="middle" x="53.5" y="-123.9" font-family="Helvetica,sans-Serif" font-size="12.00">/Version.cpp</text>
</g>
<!-- Node1 -->
<g id="node2" class="node"><title>Node1</title>
<g id="a_node2"><a xlink:href="_version_8h.html" target="_top" xlink:title="Version.h">
<polygon fill="white" stroke="black" points="20.5,-58.5 20.5,-79.5 86.5,-79.5 86.5,-58.5 20.5,-58.5"/>
<text text-anchor="middle" x="53.5" y="-65.9" font-family="Helvetica,sans-Serif" font-size="12.00">Version.h</text>
</a>
</g>
</g>
<!-- Node0&#45;&gt;Node1 -->
<g id="edge1" class="edge"><title>Node0&#45;&gt;Node1</title>
<path fill="none" stroke="midnightblue" d="M53.5,-116.405C53.5,-108.357 53.5,-98.5405 53.5,-90.0121"/>
<polygon fill="midnightblue" stroke="midnightblue" points="57.0001,-89.7999 53.5,-79.8 50.0001,-89.8 57.0001,-89.7999"/>
</g>
<!-- Node2 -->
<g id="node3" class="node"><title>Node2</title>
<g id="a_node3"><a xlink:href="versioning_2src_2avr_2_data_types_8h.html" target="_top" xlink:title="DataTypes.h">
<polygon fill="white" stroke="black" points="12,-0.5 12,-21.5 95,-21.5 95,-0.5 12,-0.5"/>
<text text-anchor="middle" x="53.5" y="-7.9" font-family="Helvetica,sans-Serif" font-size="12.00">DataTypes.h</text>
</a>
</g>
</g>
<!-- Node1&#45;&gt;Node2 -->
<g id="edge2" class="edge"><title>Node1&#45;&gt;Node2</title>
<path fill="none" stroke="midnightblue" d="M53.5,-58.2455C53.5,-50.9382 53.5,-40.6944 53.5,-31.7046"/>
<polygon fill="midnightblue" stroke="midnightblue" points="57.0001,-31.6426 53.5,-21.6427 50.0001,-31.6427 57.0001,-31.6426"/>
</g>
</g>
</svg>
