<?xml version="1.0" encoding="UTF-8" standalone="no"?>
<!DOCTYPE svg PUBLIC "-//W3C//DTD SVG 1.1//EN"
 "http://www.w3.org/Graphics/SVG/1.1/DTD/svg11.dtd">
<!-- Generated by graphviz version 2.38.0 (20140413.2041)
 -->
<!-- Title: board/v1/constants/Constants.h Pages: 1 -->
<svg width="352pt" height="159pt"
 viewBox="0.00 0.00 352.00 159.00" xmlns="http://www.w3.org/2000/svg" xmlns:xlink="http://www.w3.org/1999/xlink">
<g id="graph0" class="graph" transform="scale(1 1) rotate(0) translate(4 155)">
<title>board/v1/constants/Constants.h</title>
<polygon fill="white" stroke="none" points="-4,4 -4,-155 348,-155 348,4 -4,4"/>
<!-- Node0 -->
<g id="node1" class="node"><title>Node0</title>
<polygon fill="#bfbfbf" stroke="black" points="92.5,-116.5 92.5,-150.5 207.5,-150.5 207.5,-116.5 92.5,-116.5"/>
<text text-anchor="start" x="100.5" y="-136.9" font-family="Helvetica,sans-Serif" font-size="12.00">board/v1/constants</text>
<text text-anchor="middle" x="150" y="-123.9" font-family="Helvetica,sans-Serif" font-size="12.00">/Constants.h</text>
</g>
<!-- Node1 -->
<g id="node2" class="node"><title>Node1</title>
<g id="a_node2"><a xlink:href="_buffer_8h.html" target="_top" xlink:title="Buffer.h">
<polygon fill="white" stroke="black" points="0,-58.5 0,-79.5 56,-79.5 56,-58.5 0,-58.5"/>
<text text-anchor="middle" x="28" y="-65.9" font-family="Helvetica,sans-Serif" font-size="12.00">Buffer.h</text>
</a>
</g>
</g>
<!-- Node0&#45;&gt;Node1 -->
<g id="edge1" class="edge"><title>Node0&#45;&gt;Node1</title>
<path fill="none" stroke="midnightblue" d="M118.582,-116.405C99.1341,-106.442 74.3932,-93.767 55.6839,-84.1823"/>
<polygon fill="midnightblue" stroke="midnightblue" points="57.2681,-81.0614 46.7722,-79.6169 54.0765,-87.2915 57.2681,-81.0614"/>
</g>
<!-- Node2 -->
<g id="node3" class="node"><title>Node2</title>
<g id="a_node3"><a xlink:href="_hardware_8h.html" target="_top" xlink:title="Hardware.h">
<polygon fill="white" stroke="black" points="17.5,-0.5 17.5,-21.5 94.5,-21.5 94.5,-0.5 17.5,-0.5"/>
<text text-anchor="middle" x="56" y="-7.9" font-family="Helvetica,sans-Serif" font-size="12.00">Hardware.h</text>
</a>
</g>
</g>
<!-- Node0&#45;&gt;Node2 -->
<g id="edge4" class="edge"><title>Node0&#45;&gt;Node2</title>
<path fill="none" stroke="midnightblue" d="M134.637,-116.407C125.179,-106.244 112.996,-92.6825 103,-80 90.1524,-63.6992 76.8206,-44.1136 67.6521,-30.1572"/>
<polygon fill="midnightblue" stroke="midnightblue" points="70.4118,-27.9805 62.027,-21.5039 64.5428,-31.7957 70.4118,-27.9805"/>
</g>
<!-- Node3 -->
<g id="node4" class="node"><title>Node3</title>
<g id="a_node4"><a xlink:href="board_2v1_2constants_2_encoders_8h.html" target="_top" xlink:title="Encoders.h">
<polygon fill="white" stroke="black" points="112,-58.5 112,-79.5 188,-79.5 188,-58.5 112,-58.5"/>
<text text-anchor="middle" x="150" y="-65.9" font-family="Helvetica,sans-Serif" font-size="12.00">Encoders.h</text>
</a>
</g>
</g>
<!-- Node0&#45;&gt;Node3 -->
<g id="edge3" class="edge"><title>Node0&#45;&gt;Node3</title>
<path fill="none" stroke="midnightblue" d="M150,-116.405C150,-108.357 150,-98.5405 150,-90.0121"/>
<polygon fill="midnightblue" stroke="midnightblue" points="153.5,-89.7999 150,-79.8 146.5,-89.8 153.5,-89.7999"/>
</g>
<!-- Node4 -->
<g id="node5" class="node"><title>Node4</title>
<g id="a_node5"><a xlink:href="board_2v1_2constants_2_l_e_ds_8h.html" target="_top" xlink:title="LEDs.h">
<polygon fill="white" stroke="black" points="206,-58.5 206,-79.5 262,-79.5 262,-58.5 206,-58.5"/>
<text text-anchor="middle" x="234" y="-65.9" font-family="Helvetica,sans-Serif" font-size="12.00">LEDs.h</text>
</a>
</g>
</g>
<!-- Node0&#45;&gt;Node4 -->
<g id="edge5" class="edge"><title>Node0&#45;&gt;Node4</title>
<path fill="none" stroke="midnightblue" d="M171.632,-116.405C184.271,-107.001 200.156,-95.1813 212.732,-85.8244"/>
<polygon fill="midnightblue" stroke="midnightblue" points="214.895,-88.5774 220.829,-79.8 210.717,-82.9614 214.895,-88.5774"/>
</g>
<!-- Node5 -->
<g id="node6" class="node"><title>Node5</title>
<g id="a_node6"><a xlink:href="_reboot_8h.html" target="_top" xlink:title="Reboot.h">
<polygon fill="white" stroke="black" points="280,-58.5 280,-79.5 344,-79.5 344,-58.5 280,-58.5"/>
<text text-anchor="middle" x="312" y="-65.9" font-family="Helvetica,sans-Serif" font-size="12.00">Reboot.h</text>
</a>
</g>
</g>
<!-- Node0&#45;&gt;Node5 -->
<g id="edge6" class="edge"><title>Node0&#45;&gt;Node5</title>
<path fill="none" stroke="midnightblue" d="M191.719,-116.405C218.369,-106.123 252.503,-92.954 277.597,-83.2729"/>
<polygon fill="midnightblue" stroke="midnightblue" points="279.003,-86.4818 287.073,-79.6169 276.483,-79.951 279.003,-86.4818"/>
</g>
<!-- Node1&#45;&gt;Node2 -->
<g id="edge2" class="edge"><title>Node1&#45;&gt;Node2</title>
<path fill="none" stroke="midnightblue" d="M32.8772,-58.2455C36.6513,-50.6973 41.9921,-40.0158 46.5901,-30.8197"/>
<polygon fill="midnightblue" stroke="midnightblue" points="49.837,-32.1522 51.1787,-21.6427 43.576,-29.0217 49.837,-32.1522"/>
</g>
</g>
</svg>
