<?xml version="1.0" encoding="UTF-8" standalone="no"?>
<!DOCTYPE svg PUBLIC "-//W3C//DTD SVG 1.1//EN"
 "http://www.w3.org/Graphics/SVG/1.1/DTD/svg11.dtd">
<!-- Generated by graphviz version 2.38.0 (20140413.2041)
 -->
<!-- Title: board/v1/Variables.h Pages: 1 -->
<svg width="352pt" height="204pt"
 viewBox="0.00 0.00 352.00 204.00" xmlns="http://www.w3.org/2000/svg" xmlns:xlink="http://www.w3.org/1999/xlink">
<g id="graph0" class="graph" transform="scale(1 1) rotate(0) translate(4 200)">
<title>board/v1/Variables.h</title>
<polygon fill="white" stroke="none" points="-4,4 -4,-200 348,-200 348,4 -4,4"/>
<!-- Node0 -->
<g id="node1" class="node"><title>Node0</title>
<polygon fill="#bfbfbf" stroke="black" points="87.5,-174.5 87.5,-195.5 212.5,-195.5 212.5,-174.5 87.5,-174.5"/>
<text text-anchor="middle" x="150" y="-181.9" font-family="Helvetica,sans-Serif" font-size="12.00">board/v1/Variables.h</text>
</g>
<!-- Node1 -->
<g id="node2" class="node"><title>Node1</title>
<g id="a_node2"><a xlink:href="board_2v1_2constants_2_constants_8h.html" target="_top" xlink:title="constants/Constants.h">
<polygon fill="white" stroke="black" points="84.5,-116.5 84.5,-137.5 215.5,-137.5 215.5,-116.5 84.5,-116.5"/>
<text text-anchor="middle" x="150" y="-123.9" font-family="Helvetica,sans-Serif" font-size="12.00">constants/Constants.h</text>
</a>
</g>
</g>
<!-- Node0&#45;&gt;Node1 -->
<g id="edge1" class="edge"><title>Node0&#45;&gt;Node1</title>
<path fill="none" stroke="midnightblue" d="M150,-174.246C150,-166.938 150,-156.694 150,-147.705"/>
<polygon fill="midnightblue" stroke="midnightblue" points="153.5,-147.643 150,-137.643 146.5,-147.643 153.5,-147.643"/>
</g>
<!-- Node2 -->
<g id="node3" class="node"><title>Node2</title>
<g id="a_node3"><a xlink:href="_buffer_8h.html" target="_top" xlink:title="Buffer.h">
<polygon fill="white" stroke="black" points="0,-58.5 0,-79.5 56,-79.5 56,-58.5 0,-58.5"/>
<text text-anchor="middle" x="28" y="-65.9" font-family="Helvetica,sans-Serif" font-size="12.00">Buffer.h</text>
</a>
</g>
</g>
<!-- Node1&#45;&gt;Node2 -->
<g id="edge2" class="edge"><title>Node1&#45;&gt;Node2</title>
<path fill="none" stroke="midnightblue" d="M129.027,-116.373C109.443,-107.384 80.0039,-93.8706 57.949,-83.7471"/>
<polygon fill="midnightblue" stroke="midnightblue" points="59.2473,-80.4919 48.6989,-79.5011 56.3271,-86.8538 59.2473,-80.4919"/>
</g>
<!-- Node3 -->
<g id="node4" class="node"><title>Node3</title>
<g id="a_node4"><a xlink:href="_hardware_8h.html" target="_top" xlink:title="Hardware.h">
<polygon fill="white" stroke="black" points="17.5,-0.5 17.5,-21.5 94.5,-21.5 94.5,-0.5 17.5,-0.5"/>
<text text-anchor="middle" x="56" y="-7.9" font-family="Helvetica,sans-Serif" font-size="12.00">Hardware.h</text>
</a>
</g>
</g>
<!-- Node1&#45;&gt;Node3 -->
<g id="edge5" class="edge"><title>Node1&#45;&gt;Node3</title>
<path fill="none" stroke="midnightblue" d="M138.959,-116.314C129.04,-107.359 114.333,-93.4429 103,-80 89.6218,-64.1318 76.3589,-44.49 67.3508,-30.4028"/>
<polygon fill="midnightblue" stroke="midnightblue" points="70.133,-28.2523 61.8451,-21.6522 64.2082,-31.9802 70.133,-28.2523"/>
</g>
<!-- Node4 -->
<g id="node5" class="node"><title>Node4</title>
<g id="a_node5"><a xlink:href="board_2v1_2constants_2_encoders_8h.html" target="_top" xlink:title="Encoders.h">
<polygon fill="white" stroke="black" points="112,-58.5 112,-79.5 188,-79.5 188,-58.5 112,-58.5"/>
<text text-anchor="middle" x="150" y="-65.9" font-family="Helvetica,sans-Serif" font-size="12.00">Encoders.h</text>
</a>
</g>
</g>
<!-- Node1&#45;&gt;Node4 -->
<g id="edge4" class="edge"><title>Node1&#45;&gt;Node4</title>
<path fill="none" stroke="midnightblue" d="M150,-116.246C150,-108.938 150,-98.6944 150,-89.7046"/>
<polygon fill="midnightblue" stroke="midnightblue" points="153.5,-89.6426 150,-79.6427 146.5,-89.6427 153.5,-89.6426"/>
</g>
<!-- Node5 -->
<g id="node6" class="node"><title>Node5</title>
<g id="a_node6"><a xlink:href="board_2v1_2constants_2_l_e_ds_8h.html" target="_top" xlink:title="LEDs.h">
<polygon fill="white" stroke="black" points="206,-58.5 206,-79.5 262,-79.5 262,-58.5 206,-58.5"/>
<text text-anchor="middle" x="234" y="-65.9" font-family="Helvetica,sans-Serif" font-size="12.00">LEDs.h</text>
</a>
</g>
</g>
<!-- Node1&#45;&gt;Node5 -->
<g id="edge6" class="edge"><title>Node1&#45;&gt;Node5</title>
<path fill="none" stroke="midnightblue" d="M164.632,-116.246C177.399,-107.734 196.144,-95.2375 210.93,-85.3801"/>
<polygon fill="midnightblue" stroke="midnightblue" points="213.157,-88.1019 219.536,-79.6427 209.274,-82.2775 213.157,-88.1019"/>
</g>
<!-- Node6 -->
<g id="node7" class="node"><title>Node6</title>
<g id="a_node7"><a xlink:href="_reboot_8h.html" target="_top" xlink:title="Reboot.h">
<polygon fill="white" stroke="black" points="280,-58.5 280,-79.5 344,-79.5 344,-58.5 280,-58.5"/>
<text text-anchor="middle" x="312" y="-65.9" font-family="Helvetica,sans-Serif" font-size="12.00">Reboot.h</text>
</a>
</g>
</g>
<!-- Node1&#45;&gt;Node6 -->
<g id="edge7" class="edge"><title>Node1&#45;&gt;Node6</title>
<path fill="none" stroke="midnightblue" d="M177.849,-116.373C204.67,-107.102 245.413,-93.0178 274.96,-82.804"/>
<polygon fill="midnightblue" stroke="midnightblue" points="276.207,-86.0762 284.515,-79.5011 273.92,-79.4603 276.207,-86.0762"/>
</g>
<!-- Node2&#45;&gt;Node3 -->
<g id="edge3" class="edge"><title>Node2&#45;&gt;Node3</title>
<path fill="none" stroke="midnightblue" d="M32.8772,-58.2455C36.6513,-50.6973 41.9921,-40.0158 46.5901,-30.8197"/>
<polygon fill="midnightblue" stroke="midnightblue" points="49.837,-32.1522 51.1787,-21.6427 43.576,-29.0217 49.837,-32.1522"/>
</g>
</g>
</svg>
