<?xml version="1.0" encoding="UTF-8" standalone="no"?>
<!DOCTYPE svg PUBLIC "-//W3C//DTD SVG 1.1//EN"
 "http://www.w3.org/Graphics/SVG/1.1/DTD/svg11.dtd">
<!-- Generated by graphviz version 2.38.0 (20140413.2041)
 -->
<!-- Title: board/v1/Encoders.cpp Pages: 1 -->
<!--zoomable 552 -->
<svg id="main" version="1.1" xmlns="http://www.w3.org/2000/svg" xmlns:xlink="http://www.w3.org/1999/xlink" xml:space="preserve" onload="init(evt)">
<style type="text/css"><![CDATA[
.edge:hover path { stroke: red; }
.edge:hover polygon { stroke: red; fill: red; }
]]></style>
<script type="text/javascript"><![CDATA[
var edges = document.getElementsByTagName('g');
if (edges && edges.length) {
  for (var i=0;i<edges.length;i++) {
    if (edges[i].id.substr(0,4)=='edge') {
      edges[i].setAttribute('class','edge');
    }
  }
}
]]></script>
        <defs>
                <circle id="rim" cx="0" cy="0" r="7"/>
                <circle id="rim2" cx="0" cy="0" r="3.5"/>
                <g id="zoomPlus">
                        <use xlink:href="#rim" fill="#404040">
                                <set attributeName="fill" to="#808080" begin="zoomplus.mouseover" end="zoomplus.mouseout"/>
                        </use>
                        <path d="M-4,0h8M0,-4v8" fill="none" stroke="white" stroke-width="1.5" pointer-events="none"/>
                </g>
                <g id="zoomMin">
                        <use xlink:href="#rim" fill="#404040">
                                <set attributeName="fill" to="#808080" begin="zoomminus.mouseover" end="zoomminus.mouseout"/>
                        </use>
                        <path d="M-4,0h8" fill="none" stroke="white" stroke-width="1.5" pointer-events="none"/>
                </g>
                <g id="dirArrow">
                        <path fill="none" stroke="white" stroke-width="1.5" d="M0,-3.0v7 M-2.5,-0.5L0,-3.0L2.5,-0.5"/>
                </g>
               <g id="resetDef">
                       <use xlink:href="#rim2" fill="#404040">
                               <set attributeName="fill" to="#808080" begin="reset.mouseover" end="reset.mouseout"/>
                       </use>
               </g>
        </defs>

<script type="text/javascript">
var viewWidth = 800;
var viewHeight = 552;
var sectionId = 'dynsection-0';
</script>
<script xlink:href="svgpan.js"/>
<svg id="graph" class="graph">
<g id="viewport">
<title>board/v1/Encoders.cpp</title>
<polygon fill="white" stroke="none" points="-4,4 -4,-548 796,-548 796,4 -4,4"/>
<!-- Node0 -->
<g id="node1" class="node"><title>Node0</title>
<polygon fill="#bfbfbf" stroke="black" points="278,-522.5 278,-543.5 416,-543.5 416,-522.5 278,-522.5"/>
<text text-anchor="middle" x="347" y="-529.9" font-family="Helvetica,sans-Serif" font-size="12.00">board/v1/Encoders.cpp</text>
</g>
<!-- Node1 -->
<g id="node2" class="node"><title>Node1</title>
<g id="a_node2"><a xlink:href="v1_2_board_8h.html" target="_top" xlink:title="Board.h">
<polygon fill="white" stroke="black" points="384,-464.5 384,-485.5 442,-485.5 442,-464.5 384,-464.5"/>
<text text-anchor="middle" x="413" y="-471.9" font-family="Helvetica,sans-Serif" font-size="12.00">Board.h</text>
</a>
</g>
</g>
<!-- Node0&#45;&gt;Node1 -->
<g id="edge1" class="edge"><title>Node0&#45;&gt;Node1</title>
<path fill="none" stroke="midnightblue" d="M358.496,-522.246C368.244,-513.975 382.426,-501.942 393.88,-492.223"/>
<polygon fill="midnightblue" stroke="midnightblue" points="396.275,-494.781 401.635,-485.643 391.746,-489.444 396.275,-494.781"/>
</g>
<!-- Node32 -->
<g id="node33" class="node"><title>Node32</title>
<g id="a_node33"><a xlink:href="board_2v1_2_variables_8h.html" target="_top" xlink:title="Variables.h">
<polygon fill="white" stroke="black" points="243,-464.5 243,-485.5 319,-485.5 319,-464.5 243,-464.5"/>
<text text-anchor="middle" x="281" y="-471.9" font-family="Helvetica,sans-Serif" font-size="12.00">Variables.h</text>
</a>
</g>
</g>
<!-- Node0&#45;&gt;Node32 -->
<g id="edge34" class="edge"><title>Node0&#45;&gt;Node32</title>
<path fill="none" stroke="midnightblue" d="M335.504,-522.246C325.756,-513.975 311.574,-501.942 300.12,-492.223"/>
<polygon fill="midnightblue" stroke="midnightblue" points="302.254,-489.444 292.365,-485.643 297.725,-494.781 302.254,-489.444"/>
</g>
<!-- Node2 -->
<g id="node3" class="node"><title>Node2</title>
<g id="a_node3"><a xlink:href="board_2v1_2constants_2_constants_8h.html" target="_top" xlink:title="constants/Constants.h">
<polygon fill="white" stroke="black" points="168.5,-406.5 168.5,-427.5 299.5,-427.5 299.5,-406.5 168.5,-406.5"/>
<text text-anchor="middle" x="234" y="-413.9" font-family="Helvetica,sans-Serif" font-size="12.00">constants/Constants.h</text>
</a>
</g>
</g>
<!-- Node1&#45;&gt;Node2 -->
<g id="edge2" class="edge"><title>Node1&#45;&gt;Node2</title>
<path fill="none" stroke="midnightblue" d="M383.842,-464.878C354.125,-455.581 307.796,-441.087 274.52,-430.677"/>
<polygon fill="midnightblue" stroke="midnightblue" points="275.234,-427.233 264.645,-427.587 273.144,-433.913 275.234,-427.233"/>
</g>
<!-- Node8 -->
<g id="node9" class="node"><title>Node8</title>
<g id="a_node9"><a xlink:href="_common_8h.html" target="_top" xlink:title="../Common.h">
<polygon fill="white" stroke="black" points="371.5,-406.5 371.5,-427.5 454.5,-427.5 454.5,-406.5 371.5,-406.5"/>
<text text-anchor="middle" x="413" y="-413.9" font-family="Helvetica,sans-Serif" font-size="12.00">../Common.h</text>
</a>
</g>
</g>
<!-- Node1&#45;&gt;Node8 -->
<g id="edge9" class="edge"><title>Node1&#45;&gt;Node8</title>
<path fill="none" stroke="midnightblue" d="M413,-464.246C413,-456.938 413,-446.694 413,-437.705"/>
<polygon fill="midnightblue" stroke="midnightblue" points="416.5,-437.643 413,-427.643 409.5,-437.643 416.5,-437.643"/>
</g>
<!-- Node28 -->
<g id="node29" class="node"><title>Node28</title>
<g id="a_node29"><a xlink:href="_pins_8h.html" target="_top" xlink:title="pins/Pins.h">
<polygon fill="white" stroke="black" points="540,-348.5 540,-369.5 614,-369.5 614,-348.5 540,-348.5"/>
<text text-anchor="middle" x="577" y="-355.9" font-family="Helvetica,sans-Serif" font-size="12.00">pins/Pins.h</text>
</a>
</g>
</g>
<!-- Node1&#45;&gt;Node28 -->
<g id="edge29" class="edge"><title>Node1&#45;&gt;Node28</title>
<path fill="none" stroke="midnightblue" d="M426.7,-464.477C454.968,-444.827 519.993,-399.627 554.515,-375.63"/>
<polygon fill="midnightblue" stroke="midnightblue" points="556.777,-378.32 562.991,-369.738 552.782,-372.572 556.777,-378.32"/>
</g>
<!-- Node29 -->
<g id="node30" class="node"><title>Node29</title>
<g id="a_node30"><a xlink:href="_map_8h.html" target="_top" xlink:title="pins/Map.h">
<polygon fill="white" stroke="black" points="540,-406.5 540,-427.5 614,-427.5 614,-406.5 540,-406.5"/>
<text text-anchor="middle" x="577" y="-413.9" font-family="Helvetica,sans-Serif" font-size="12.00">pins/Map.h</text>
</a>
</g>
</g>
<!-- Node1&#45;&gt;Node29 -->
<g id="edge30" class="edge"><title>Node1&#45;&gt;Node29</title>
<path fill="none" stroke="midnightblue" d="M441.193,-464.373C468.345,-455.102 509.591,-441.018 539.502,-430.804"/>
<polygon fill="midnightblue" stroke="midnightblue" points="540.843,-434.045 549.175,-427.501 538.581,-427.42 540.843,-434.045"/>
</g>
<!-- Node3 -->
<g id="node4" class="node"><title>Node3</title>
<g id="a_node4"><a xlink:href="_buffer_8h.html" target="_top" xlink:title="Buffer.h">
<polygon fill="white" stroke="black" points="0,-348.5 0,-369.5 56,-369.5 56,-348.5 0,-348.5"/>
<text text-anchor="middle" x="28" y="-355.9" font-family="Helvetica,sans-Serif" font-size="12.00">Buffer.h</text>
</a>
</g>
</g>
<!-- Node2&#45;&gt;Node3 -->
<g id="edge3" class="edge"><title>Node2&#45;&gt;Node3</title>
<path fill="none" stroke="midnightblue" d="M198.587,-406.373C161.68,-396.34 104.043,-380.672 66.1484,-370.37"/>
<polygon fill="midnightblue" stroke="midnightblue" points="66.5854,-366.862 56.0174,-367.616 64.7491,-373.617 66.5854,-366.862"/>
</g>
<!-- Node4 -->
<g id="node5" class="node"><title>Node4</title>
<g id="a_node5"><a xlink:href="_hardware_8h.html" target="_top" xlink:title="Hardware.h">
<polygon fill="white" stroke="black" points="17.5,-290.5 17.5,-311.5 94.5,-311.5 94.5,-290.5 17.5,-290.5"/>
<text text-anchor="middle" x="56" y="-297.9" font-family="Helvetica,sans-Serif" font-size="12.00">Hardware.h</text>
</a>
</g>
</g>
<!-- Node2&#45;&gt;Node4 -->
<g id="edge6" class="edge"><title>Node2&#45;&gt;Node4</title>
<path fill="none" stroke="midnightblue" d="M184.699,-406.468C158.493,-399.583 126.857,-388.206 103,-370 85.9675,-357.002 72.8161,-336.037 64.812,-320.818"/>
<polygon fill="midnightblue" stroke="midnightblue" points="67.9031,-319.174 60.3063,-311.789 61.6396,-322.299 67.9031,-319.174"/>
</g>
<!-- Node5 -->
<g id="node6" class="node"><title>Node5</title>
<g id="a_node6"><a xlink:href="board_2v1_2constants_2_encoders_8h.html" target="_top" xlink:title="Encoders.h">
<polygon fill="white" stroke="black" points="112,-348.5 112,-369.5 188,-369.5 188,-348.5 112,-348.5"/>
<text text-anchor="middle" x="150" y="-355.9" font-family="Helvetica,sans-Serif" font-size="12.00">Encoders.h</text>
</a>
</g>
</g>
<!-- Node2&#45;&gt;Node5 -->
<g id="edge5" class="edge"><title>Node2&#45;&gt;Node5</title>
<path fill="none" stroke="midnightblue" d="M219.368,-406.246C206.601,-397.734 187.856,-385.237 173.07,-375.38"/>
<polygon fill="midnightblue" stroke="midnightblue" points="174.726,-372.278 164.464,-369.643 170.843,-378.102 174.726,-372.278"/>
</g>
<!-- Node6 -->
<g id="node7" class="node"><title>Node6</title>
<g id="a_node7"><a xlink:href="board_2v1_2constants_2_l_e_ds_8h.html" target="_top" xlink:title="LEDs.h">
<polygon fill="white" stroke="black" points="206,-348.5 206,-369.5 262,-369.5 262,-348.5 206,-348.5"/>
<text text-anchor="middle" x="234" y="-355.9" font-family="Helvetica,sans-Serif" font-size="12.00">LEDs.h</text>
</a>
</g>
</g>
<!-- Node2&#45;&gt;Node6 -->
<g id="edge7" class="edge"><title>Node2&#45;&gt;Node6</title>
<path fill="none" stroke="midnightblue" d="M234,-406.246C234,-398.938 234,-388.694 234,-379.705"/>
<polygon fill="midnightblue" stroke="midnightblue" points="237.5,-379.643 234,-369.643 230.5,-379.643 237.5,-379.643"/>
</g>
<!-- Node7 -->
<g id="node8" class="node"><title>Node7</title>
<g id="a_node8"><a xlink:href="_reboot_8h.html" target="_top" xlink:title="Reboot.h">
<polygon fill="white" stroke="black" points="280,-348.5 280,-369.5 344,-369.5 344,-348.5 280,-348.5"/>
<text text-anchor="middle" x="312" y="-355.9" font-family="Helvetica,sans-Serif" font-size="12.00">Reboot.h</text>
</a>
</g>
</g>
<!-- Node2&#45;&gt;Node7 -->
<g id="edge8" class="edge"><title>Node2&#45;&gt;Node7</title>
<path fill="none" stroke="midnightblue" d="M247.587,-406.246C259.33,-397.814 276.52,-385.473 290.188,-375.66"/>
<polygon fill="midnightblue" stroke="midnightblue" points="292.487,-378.318 298.569,-369.643 288.405,-372.632 292.487,-378.318"/>
</g>
<!-- Node3&#45;&gt;Node4 -->
<g id="edge4" class="edge"><title>Node3&#45;&gt;Node4</title>
<path fill="none" stroke="midnightblue" d="M32.8772,-348.246C36.6513,-340.697 41.9921,-330.016 46.5901,-320.82"/>
<polygon fill="midnightblue" stroke="midnightblue" points="49.837,-322.152 51.1787,-311.643 43.576,-319.022 49.837,-322.152"/>
</g>
<!-- Node9 -->
<g id="node10" class="node"><title>Node9</title>
<g id="a_node10"><a xlink:href="board_2_data_types_8h.html" target="_top" xlink:title="DataTypes.h">
<polygon fill="white" stroke="black" points="362.5,-348.5 362.5,-369.5 445.5,-369.5 445.5,-348.5 362.5,-348.5"/>
<text text-anchor="middle" x="404" y="-355.9" font-family="Helvetica,sans-Serif" font-size="12.00">DataTypes.h</text>
</a>
</g>
</g>
<!-- Node8&#45;&gt;Node9 -->
<g id="edge10" class="edge"><title>Node8&#45;&gt;Node9</title>
<path fill="none" stroke="midnightblue" d="M411.432,-406.246C410.258,-398.938 408.612,-388.694 407.167,-379.705"/>
<polygon fill="midnightblue" stroke="midnightblue" points="410.592,-378.961 405.55,-369.643 403.681,-380.071 410.592,-378.961"/>
</g>
<!-- Node10 -->
<g id="node11" class="node"><title>Node10</title>
<g id="a_node11"><a xlink:href="_import_8h.html" target="_top" xlink:title="Import.h">
<polygon fill="white" stroke="black" points="464,-348.5 464,-369.5 522,-369.5 522,-348.5 464,-348.5"/>
<text text-anchor="middle" x="493" y="-355.9" font-family="Helvetica,sans-Serif" font-size="12.00">Import.h</text>
</a>
</g>
</g>
<!-- Node8&#45;&gt;Node10 -->
<g id="edge11" class="edge"><title>Node8&#45;&gt;Node10</title>
<path fill="none" stroke="midnightblue" d="M426.935,-406.246C439.095,-397.734 456.946,-385.237 471.028,-375.38"/>
<polygon fill="midnightblue" stroke="midnightblue" points="473.04,-378.245 479.225,-369.643 469.025,-372.51 473.04,-378.245"/>
</g>
<!-- Node11 -->
<g id="node12" class="node"><title>Node11</title>
<g id="a_node12"><a xlink:href="_export_8h.html" target="_top" xlink:title="../interface/Export.h">
<polygon fill="white" stroke="black" points="435,-290.5 435,-311.5 551,-311.5 551,-290.5 435,-290.5"/>
<text text-anchor="middle" x="493" y="-297.9" font-family="Helvetica,sans-Serif" font-size="12.00">../interface/Export.h</text>
</a>
</g>
</g>
<!-- Node10&#45;&gt;Node11 -->
<g id="edge12" class="edge"><title>Node10&#45;&gt;Node11</title>
<path fill="none" stroke="midnightblue" d="M493,-348.246C493,-340.938 493,-330.694 493,-321.705"/>
<polygon fill="midnightblue" stroke="midnightblue" points="496.5,-321.643 493,-311.643 489.5,-321.643 496.5,-321.643"/>
</g>
<!-- Node12 -->
<g id="node13" class="node"><title>Node12</title>
<g id="a_node13"><a xlink:href="interface_2leds_2_variables_8h.html" target="_top" xlink:title="leds/Variables.h">
<polygon fill="white" stroke="black" points="259.5,-232.5 259.5,-253.5 360.5,-253.5 360.5,-232.5 259.5,-232.5"/>
<text text-anchor="middle" x="310" y="-239.9" font-family="Helvetica,sans-Serif" font-size="12.00">leds/Variables.h</text>
</a>
</g>
</g>
<!-- Node11&#45;&gt;Node12 -->
<g id="edge13" class="edge"><title>Node11&#45;&gt;Node12</title>
<path fill="none" stroke="midnightblue" d="M461.541,-290.373C430.979,-281.021 384.417,-266.773 350.974,-256.538"/>
<polygon fill="midnightblue" stroke="midnightblue" points="351.635,-253.081 341.048,-253.501 349.586,-259.774 351.635,-253.081"/>
</g>
<!-- Node14 -->
<g id="node15" class="node"><title>Node14</title>
<g id="a_node15"><a xlink:href="interface_2leds_2_data_types_8h.html" target="_top" xlink:title="leds/DataTypes.h">
<polygon fill="white" stroke="black" points="378.5,-232.5 378.5,-253.5 485.5,-253.5 485.5,-232.5 378.5,-232.5"/>
<text text-anchor="middle" x="432" y="-239.9" font-family="Helvetica,sans-Serif" font-size="12.00">leds/DataTypes.h</text>
</a>
</g>
</g>
<!-- Node11&#45;&gt;Node14 -->
<g id="edge15" class="edge"><title>Node11&#45;&gt;Node14</title>
<path fill="none" stroke="midnightblue" d="M482.375,-290.246C473.453,-282.055 460.512,-270.175 449.981,-260.507"/>
<polygon fill="midnightblue" stroke="midnightblue" points="452.237,-257.827 442.504,-253.643 447.503,-262.984 452.237,-257.827"/>
</g>
<!-- Node15 -->
<g id="node16" class="node"><title>Node15</title>
<g id="a_node16"><a xlink:href="interface_2leds_2_constants_8h.html" target="_top" xlink:title="leds/Constants.h">
<polygon fill="white" stroke="black" points="503.5,-232.5 503.5,-253.5 606.5,-253.5 606.5,-232.5 503.5,-232.5"/>
<text text-anchor="middle" x="555" y="-239.9" font-family="Helvetica,sans-Serif" font-size="12.00">leds/Constants.h</text>
</a>
</g>
</g>
<!-- Node11&#45;&gt;Node15 -->
<g id="edge16" class="edge"><title>Node11&#45;&gt;Node15</title>
<path fill="none" stroke="midnightblue" d="M503.8,-290.246C512.868,-282.055 526.021,-270.175 536.724,-260.507"/>
<polygon fill="midnightblue" stroke="midnightblue" points="539.249,-262.943 544.324,-253.643 534.557,-257.748 539.249,-262.943"/>
</g>
<!-- Node27 -->
<g id="node28" class="node"><title>Node27</title>
<g id="a_node28"><a xlink:href="midi_2src_2_m_i_d_i_8h.html" target="_top" xlink:title="../midi/src/MIDI.h">
<polygon fill="white" stroke="black" points="625,-232.5 625,-253.5 727,-253.5 727,-232.5 625,-232.5"/>
<text text-anchor="middle" x="676" y="-239.9" font-family="Helvetica,sans-Serif" font-size="12.00">../midi/src/MIDI.h</text>
</a>
</g>
</g>
<!-- Node11&#45;&gt;Node27 -->
<g id="edge28" class="edge"><title>Node11&#45;&gt;Node27</title>
<path fill="none" stroke="midnightblue" d="M524.459,-290.373C555.021,-281.021 601.583,-266.773 635.026,-256.538"/>
<polygon fill="midnightblue" stroke="midnightblue" points="636.414,-259.774 644.952,-253.501 634.365,-253.081 636.414,-259.774"/>
</g>
<!-- Node13 -->
<g id="node14" class="node"><title>Node13</title>
<g id="a_node14"><a xlink:href="_board_8h.html" target="_top" xlink:title="../../board/Board.h">
<polygon fill="white" stroke="black" points="255,-174.5 255,-195.5 365,-195.5 365,-174.5 255,-174.5"/>
<text text-anchor="middle" x="310" y="-181.9" font-family="Helvetica,sans-Serif" font-size="12.00">../../board/Board.h</text>
</a>
</g>
</g>
<!-- Node12&#45;&gt;Node13 -->
<g id="edge14" class="edge"><title>Node12&#45;&gt;Node13</title>
<path fill="none" stroke="midnightblue" d="M310,-232.246C310,-224.938 310,-214.694 310,-205.705"/>
<polygon fill="midnightblue" stroke="midnightblue" points="313.5,-205.643 310,-195.643 306.5,-205.643 313.5,-205.643"/>
</g>
<!-- Node16 -->
<g id="node17" class="node"><title>Node16</title>
<g id="a_node17"><a xlink:href="_database_8h.html" target="_top" xlink:title="../../database/Database.h">
<polygon fill="white" stroke="black" points="481,-174.5 481,-195.5 629,-195.5 629,-174.5 481,-174.5"/>
<text text-anchor="middle" x="555" y="-181.9" font-family="Helvetica,sans-Serif" font-size="12.00">../../database/Database.h</text>
</a>
</g>
</g>
<!-- Node15&#45;&gt;Node16 -->
<g id="edge17" class="edge"><title>Node15&#45;&gt;Node16</title>
<path fill="none" stroke="midnightblue" d="M555,-232.246C555,-224.938 555,-214.694 555,-205.705"/>
<polygon fill="midnightblue" stroke="midnightblue" points="558.5,-205.643 555,-195.643 551.5,-205.643 558.5,-205.643"/>
</g>
<!-- Node17 -->
<g id="node18" class="node"><title>Node17</title>
<g id="a_node18"><a xlink:href="_d_b_m_s_8h.html" target="_top" xlink:title="../dbms/src/DBMS.h">
<polygon fill="white" stroke="black" points="306.5,-116.5 306.5,-137.5 427.5,-137.5 427.5,-116.5 306.5,-116.5"/>
<text text-anchor="middle" x="367" y="-123.9" font-family="Helvetica,sans-Serif" font-size="12.00">../dbms/src/DBMS.h</text>
</a>
</g>
</g>
<!-- Node16&#45;&gt;Node17 -->
<g id="edge18" class="edge"><title>Node16&#45;&gt;Node17</title>
<path fill="none" stroke="midnightblue" d="M522.682,-174.373C491.149,-164.981 443.038,-150.65 408.65,-140.406"/>
<polygon fill="midnightblue" stroke="midnightblue" points="409.48,-137.002 398.897,-137.501 407.481,-143.71 409.48,-137.002"/>
</g>
<!-- Node20 -->
<g id="node21" class="node"><title>Node20</title>
<g id="a_node21"><a xlink:href="_blocks_8h.html" target="_top" xlink:title="blocks/Blocks.h">
<polygon fill="white" stroke="black" points="506,-116.5 506,-137.5 604,-137.5 604,-116.5 506,-116.5"/>
<text text-anchor="middle" x="555" y="-123.9" font-family="Helvetica,sans-Serif" font-size="12.00">blocks/Blocks.h</text>
</a>
</g>
</g>
<!-- Node16&#45;&gt;Node20 -->
<g id="edge21" class="edge"><title>Node16&#45;&gt;Node20</title>
<path fill="none" stroke="midnightblue" d="M555,-174.246C555,-166.938 555,-156.694 555,-147.705"/>
<polygon fill="midnightblue" stroke="midnightblue" points="558.5,-147.643 555,-137.643 551.5,-147.643 558.5,-147.643"/>
</g>
<!-- Node26 -->
<g id="node27" class="node"><title>Node26</title>
<g id="a_node27"><a xlink:href="database_2_config_8h.html" target="_top" xlink:title="Config.h">
<polygon fill="white" stroke="black" points="622,-116.5 622,-137.5 682,-137.5 682,-116.5 622,-116.5"/>
<text text-anchor="middle" x="652" y="-123.9" font-family="Helvetica,sans-Serif" font-size="12.00">Config.h</text>
</a>
</g>
</g>
<!-- Node16&#45;&gt;Node26 -->
<g id="edge27" class="edge"><title>Node16&#45;&gt;Node26</title>
<path fill="none" stroke="midnightblue" d="M571.896,-174.246C586.918,-165.573 609.104,-152.765 626.321,-142.825"/>
<polygon fill="midnightblue" stroke="midnightblue" points="628.387,-145.674 635.298,-137.643 624.887,-139.611 628.387,-145.674"/>
</g>
<!-- Node18 -->
<g id="node19" class="node"><title>Node18</title>
<g id="a_node19"><a xlink:href="dbms_2src_2_data_types_8h.html" target="_top" xlink:title="DataTypes.h">
<polygon fill="white" stroke="black" points="310.5,-58.5 310.5,-79.5 393.5,-79.5 393.5,-58.5 310.5,-58.5"/>
<text text-anchor="middle" x="352" y="-65.9" font-family="Helvetica,sans-Serif" font-size="12.00">DataTypes.h</text>
</a>
</g>
</g>
<!-- Node17&#45;&gt;Node18 -->
<g id="edge19" class="edge"><title>Node17&#45;&gt;Node18</title>
<path fill="none" stroke="midnightblue" d="M364.387,-116.246C362.408,-108.858 359.626,-98.4689 357.199,-89.4087"/>
<polygon fill="midnightblue" stroke="midnightblue" points="360.551,-88.3966 354.583,-79.6427 353.789,-90.2078 360.551,-88.3966"/>
</g>
<!-- Node19 -->
<g id="node20" class="node"><title>Node19</title>
<g id="a_node20"><a xlink:href="dbms_2src_2_config_8h.html" target="_top" xlink:title="Config.h">
<polygon fill="white" stroke="black" points="322,-0.5 322,-21.5 382,-21.5 382,-0.5 322,-0.5"/>
<text text-anchor="middle" x="352" y="-7.9" font-family="Helvetica,sans-Serif" font-size="12.00">Config.h</text>
</a>
</g>
</g>
<!-- Node18&#45;&gt;Node19 -->
<g id="edge20" class="edge"><title>Node18&#45;&gt;Node19</title>
<path fill="none" stroke="midnightblue" d="M352,-58.2455C352,-50.9382 352,-40.6944 352,-31.7046"/>
<polygon fill="midnightblue" stroke="midnightblue" points="355.5,-31.6426 352,-21.6427 348.5,-31.6427 355.5,-31.6426"/>
</g>
<!-- Node21 -->
<g id="node22" class="node"><title>Node21</title>
<g id="a_node22"><a xlink:href="database_2blocks_2_m_i_d_i_8h.html" target="_top" xlink:title="MIDI.h">
<polygon fill="white" stroke="black" points="411.5,-58.5 411.5,-79.5 460.5,-79.5 460.5,-58.5 411.5,-58.5"/>
<text text-anchor="middle" x="436" y="-65.9" font-family="Helvetica,sans-Serif" font-size="12.00">MIDI.h</text>
</a>
</g>
</g>
<!-- Node20&#45;&gt;Node21 -->
<g id="edge22" class="edge"><title>Node20&#45;&gt;Node21</title>
<path fill="none" stroke="midnightblue" d="M534.543,-116.373C515.526,-107.424 486.982,-93.9917 465.502,-83.8835"/>
<polygon fill="midnightblue" stroke="midnightblue" points="466.728,-80.5923 456.19,-79.5011 463.748,-86.926 466.728,-80.5923"/>
</g>
<!-- Node22 -->
<g id="node23" class="node"><title>Node22</title>
<g id="a_node23"><a xlink:href="database_2blocks_2_buttons_8h.html" target="_top" xlink:title="Buttons.h">
<polygon fill="white" stroke="black" points="478.5,-58.5 478.5,-79.5 543.5,-79.5 543.5,-58.5 478.5,-58.5"/>
<text text-anchor="middle" x="511" y="-65.9" font-family="Helvetica,sans-Serif" font-size="12.00">Buttons.h</text>
</a>
</g>
</g>
<!-- Node20&#45;&gt;Node22 -->
<g id="edge23" class="edge"><title>Node20&#45;&gt;Node22</title>
<path fill="none" stroke="midnightblue" d="M547.336,-116.246C541.153,-108.376 532.294,-97.101 524.871,-87.6542"/>
<polygon fill="midnightblue" stroke="midnightblue" points="527.507,-85.3435 518.576,-79.6427 522.003,-89.6683 527.507,-85.3435"/>
</g>
<!-- Node23 -->
<g id="node24" class="node"><title>Node23</title>
<g id="a_node24"><a xlink:href="database_2blocks_2_encoders_8h.html" target="_top" xlink:title="Encoders.h">
<polygon fill="white" stroke="black" points="562,-58.5 562,-79.5 638,-79.5 638,-58.5 562,-58.5"/>
<text text-anchor="middle" x="600" y="-65.9" font-family="Helvetica,sans-Serif" font-size="12.00">Encoders.h</text>
</a>
</g>
</g>
<!-- Node20&#45;&gt;Node23 -->
<g id="edge24" class="edge"><title>Node20&#45;&gt;Node23</title>
<path fill="none" stroke="midnightblue" d="M562.838,-116.246C569.162,-108.376 578.222,-97.101 585.814,-87.6542"/>
<polygon fill="midnightblue" stroke="midnightblue" points="588.716,-89.6302 592.251,-79.6427 583.259,-85.2454 588.716,-89.6302"/>
</g>
<!-- Node24 -->
<g id="node25" class="node"><title>Node24</title>
<g id="a_node25"><a xlink:href="database_2blocks_2_analog_8h.html" target="_top" xlink:title="Analog.h">
<polygon fill="white" stroke="black" points="656,-58.5 656,-79.5 718,-79.5 718,-58.5 656,-58.5"/>
<text text-anchor="middle" x="687" y="-65.9" font-family="Helvetica,sans-Serif" font-size="12.00">Analog.h</text>
</a>
</g>
</g>
<!-- Node20&#45;&gt;Node24 -->
<g id="edge25" class="edge"><title>Node20&#45;&gt;Node24</title>
<path fill="none" stroke="midnightblue" d="M577.692,-116.373C599.071,-107.303 631.306,-93.6279 655.236,-83.4755"/>
<polygon fill="midnightblue" stroke="midnightblue" points="656.766,-86.6287 664.604,-79.5011 654.032,-80.1846 656.766,-86.6287"/>
</g>
<!-- Node25 -->
<g id="node26" class="node"><title>Node25</title>
<g id="a_node26"><a xlink:href="database_2blocks_2_l_e_ds_8h.html" target="_top" xlink:title="LEDs.h">
<polygon fill="white" stroke="black" points="736,-58.5 736,-79.5 792,-79.5 792,-58.5 736,-58.5"/>
<text text-anchor="middle" x="764" y="-65.9" font-family="Helvetica,sans-Serif" font-size="12.00">LEDs.h</text>
</a>
</g>
</g>
<!-- Node20&#45;&gt;Node25 -->
<g id="edge26" class="edge"><title>Node20&#45;&gt;Node25</title>
<path fill="none" stroke="midnightblue" d="M590.915,-116.424C623.677,-107.683 673.693,-94.3213 725.942,-80.2801"/>
<polygon fill="midnightblue" stroke="midnightblue" points="726.972,-83.6276 735.72,-77.6514 725.155,-76.8676 726.972,-83.6276"/>
</g>
<!-- Node29&#45;&gt;Node28 -->
<g id="edge31" class="edge"><title>Node29&#45;&gt;Node28</title>
<path fill="none" stroke="midnightblue" d="M577,-406.246C577,-398.938 577,-388.694 577,-379.705"/>
<polygon fill="midnightblue" stroke="midnightblue" points="580.5,-379.643 577,-369.643 573.5,-379.643 580.5,-379.643"/>
</g>
<!-- Node30 -->
<g id="node31" class="node"><title>Node30</title>
<g id="a_node31"><a xlink:href="_version_8h.html" target="_top" xlink:title="../../../version/Version.h">
<polygon fill="white" stroke="black" points="632,-348.5 632,-369.5 766,-369.5 766,-348.5 632,-348.5"/>
<text text-anchor="middle" x="699" y="-355.9" font-family="Helvetica,sans-Serif" font-size="12.00">../../../version/Version.h</text>
</a>
</g>
</g>
<!-- Node29&#45;&gt;Node30 -->
<g id="edge32" class="edge"><title>Node29&#45;&gt;Node30</title>
<path fill="none" stroke="midnightblue" d="M597.973,-406.373C617.557,-397.384 646.996,-383.871 669.051,-373.747"/>
<polygon fill="midnightblue" stroke="midnightblue" points="670.673,-376.854 678.301,-369.501 667.753,-370.492 670.673,-376.854"/>
</g>
<!-- Node31 -->
<g id="node32" class="node"><title>Node31</title>
<g id="a_node32"><a xlink:href="version_2_data_types_8h.html" target="_top" xlink:title="DataTypes.h">
<polygon fill="white" stroke="black" points="657.5,-290.5 657.5,-311.5 740.5,-311.5 740.5,-290.5 657.5,-290.5"/>
<text text-anchor="middle" x="699" y="-297.9" font-family="Helvetica,sans-Serif" font-size="12.00">DataTypes.h</text>
</a>
</g>
</g>
<!-- Node30&#45;&gt;Node31 -->
<g id="edge33" class="edge"><title>Node30&#45;&gt;Node31</title>
<path fill="none" stroke="midnightblue" d="M699,-348.246C699,-340.938 699,-330.694 699,-321.705"/>
<polygon fill="midnightblue" stroke="midnightblue" points="702.5,-321.643 699,-311.643 695.5,-321.643 702.5,-321.643"/>
</g>
<!-- Node32&#45;&gt;Node2 -->
<g id="edge35" class="edge"><title>Node32&#45;&gt;Node2</title>
<path fill="none" stroke="midnightblue" d="M272.813,-464.246C266.141,-456.296 256.552,-444.871 248.575,-435.366"/>
<polygon fill="midnightblue" stroke="midnightblue" points="251.203,-433.052 242.093,-427.643 245.841,-437.553 251.203,-433.052"/>
</g>
</g>
</svg>
        <g id="navigator" transform="translate(0 0)" fill="#404254">
                <rect fill="#f2f5e9" fill-opacity="0.5" stroke="#606060" stroke-width=".5" x="0" y="0" width="60" height="60"/>
                <use id="zoomplus" xlink:href="#zoomPlus" x="17" y="9" onmousedown="handleZoom(evt,'in')"/>
                <use id="zoomminus" xlink:href="#zoomMin" x="42" y="9" onmousedown="handleZoom(evt,'out')"/>
                <use id="reset" xlink:href="#resetDef" x="30" y="36" onmousedown="handleReset()"/>
                <g id="arrowUp" xlink:href="#dirArrow" transform="translate(30 24)" onmousedown="handlePan(0,-1)">
                  <use xlink:href="#rim" fill="#404040">
                        <set attributeName="fill" to="#808080" begin="arrowUp.mouseover" end="arrowUp.mouseout"/>
                  </use>
                  <path fill="none" stroke="white" stroke-width="1.5" d="M0,-3.0v7 M-2.5,-0.5L0,-3.0L2.5,-0.5"/>
                </g>
                <g id="arrowRight" xlink:href="#dirArrow" transform="rotate(90) translate(36 -43)" onmousedown="handlePan(1,0)">
                  <use xlink:href="#rim" fill="#404040">
                        <set attributeName="fill" to="#808080" begin="arrowRight.mouseover" end="arrowRight.mouseout"/>
                  </use>
                  <path fill="none" stroke="white" stroke-width="1.5" d="M0,-3.0v7 M-2.5,-0.5L0,-3.0L2.5,-0.5"/>
                </g>
                <g id="arrowDown" xlink:href="#dirArrow" transform="rotate(180) translate(-30 -48)" onmousedown="handlePan(0,1)">
                  <use xlink:href="#rim" fill="#404040">
                        <set attributeName="fill" to="#808080" begin="arrowDown.mouseover" end="arrowDown.mouseout"/>
                  </use>
                  <path fill="none" stroke="white" stroke-width="1.5" d="M0,-3.0v7 M-2.5,-0.5L0,-3.0L2.5,-0.5"/>
                </g>
                <g id="arrowLeft" xlink:href="#dirArrow" transform="rotate(270) translate(-36 17)" onmousedown="handlePan(-1,0)">
                  <use xlink:href="#rim" fill="#404040">
                        <set attributeName="fill" to="#808080" begin="arrowLeft.mouseover" end="arrowLeft.mouseout"/>
                  </use>
                  <path fill="none" stroke="white" stroke-width="1.5" d="M0,-3.0v7 M-2.5,-0.5L0,-3.0L2.5,-0.5"/>
                </g>
        </g>
        <svg viewBox="0 0 15 15" width="100%" height="30px" preserveAspectRatio="xMaxYMin meet">
         <g id="arrow_out" transform="scale(0.3 0.3)">
          <a xlink:href="board_2v1_2_encoders_8cpp__incl_org.svg" target="_base">
           <rect id="button" ry="5" rx="5" y="6" x="6" height="38" width="38"
                fill="#f2f5e9" fill-opacity="0.5" stroke="#606060" stroke-width="1.0"/>
           <path id="arrow"
             d="M 11.500037,31.436501 C 11.940474,20.09759 22.043105,11.32322 32.158766,21.979434 L 37.068811,17.246167 C 37.068811,17.246167 37.088388,32 37.088388,32 L 22.160133,31.978069 C 22.160133,31.978069 26.997745,27.140456 26.997745,27.140456 C 18.528582,18.264221 13.291696,25.230495 11.500037,31.436501 z"
             style="fill:#404040;"/>
          </a>
         </g>
        </svg>
</svg>
