<?xml version="1.0" encoding="UTF-8" standalone="no"?>
<!DOCTYPE svg PUBLIC "-//W3C//DTD SVG 1.1//EN"
 "http://www.w3.org/Graphics/SVG/1.1/DTD/svg11.dtd">
<!-- Generated by graphviz version 2.38.0 (20140413.2041)
 -->
<!-- Title: board/v1/Variables.h Pages: 1 -->
<!--zoomable 88 -->
<svg id="main" version="1.1" xmlns="http://www.w3.org/2000/svg" xmlns:xlink="http://www.w3.org/1999/xlink" xml:space="preserve" onload="init(evt)">
<style type="text/css"><![CDATA[
.edge:hover path { stroke: red; }
.edge:hover polygon { stroke: red; fill: red; }
]]></style>
<script type="text/javascript"><![CDATA[
var edges = document.getElementsByTagName('g');
if (edges && edges.length) {
  for (var i=0;i<edges.length;i++) {
    if (edges[i].id.substr(0,4)=='edge') {
      edges[i].setAttribute('class','edge');
    }
  }
}
]]></script>
        <defs>
                <circle id="rim" cx="0" cy="0" r="7"/>
                <circle id="rim2" cx="0" cy="0" r="3.5"/>
                <g id="zoomPlus">
                        <use xlink:href="#rim" fill="#404040">
                                <set attributeName="fill" to="#808080" begin="zoomplus.mouseover" end="zoomplus.mouseout"/>
                        </use>
                        <path d="M-4,0h8M0,-4v8" fill="none" stroke="white" stroke-width="1.5" pointer-events="none"/>
                </g>
                <g id="zoomMin">
                        <use xlink:href="#rim" fill="#404040">
                                <set attributeName="fill" to="#808080" begin="zoomminus.mouseover" end="zoomminus.mouseout"/>
                        </use>
                        <path d="M-4,0h8" fill="none" stroke="white" stroke-width="1.5" pointer-events="none"/>
                </g>
                <g id="dirArrow">
                        <path fill="none" stroke="white" stroke-width="1.5" d="M0,-3.0v7 M-2.5,-0.5L0,-3.0L2.5,-0.5"/>
                </g>
               <g id="resetDef">
                       <use xlink:href="#rim2" fill="#404040">
                               <set attributeName="fill" to="#808080" begin="reset.mouseover" end="reset.mouseout"/>
                       </use>
               </g>
        </defs>

<script type="text/javascript">
var viewWidth = 706;
var viewHeight = 88;
var sectionId = 'dynsection-1';
</script>
<script xlink:href="svgpan.js"/>
<svg id="graph" class="graph">
<g id="viewport">
<title>board/v1/Variables.h</title>
<polygon fill="white" stroke="none" points="-4,4 -4,-84 702,-84 702,4 -4,4"/>
<!-- Node7 -->
<g id="node1" class="node"><title>Node7</title>
<polygon fill="#bfbfbf" stroke="black" points="295,-58.5 295,-79.5 420,-79.5 420,-58.5 295,-58.5"/>
<text text-anchor="middle" x="357.5" y="-65.9" font-family="Helvetica,sans-Serif" font-size="12.00">board/v1/Variables.h</text>
</g>
<!-- Node8 -->
<g id="node2" class="node"><title>Node8</title>
<g id="a_node2"><a xlink:href="board_2v1_2_analog_8cpp.html" target="_top" xlink:title="board/v1/Analog.cpp">
<polygon fill="white" stroke="black" points="0,-0.5 0,-21.5 125,-21.5 125,-0.5 0,-0.5"/>
<text text-anchor="middle" x="62.5" y="-7.9" font-family="Helvetica,sans-Serif" font-size="12.00">board/v1/Analog.cpp</text>
</a>
</g>
</g>
<!-- Node7&#45;&gt;Node8 -->
<g id="edge1" class="edge"><title>Node7&#45;&gt;Node8</title>
<path fill="none" stroke="midnightblue" d="M297.264,-56.5654C242.857,-46.2373 163.717,-31.214 112.669,-21.5237"/>
<polygon fill="midnightblue" stroke="midnightblue" points="296.646,-60.0104 307.123,-58.4369 297.951,-53.1332 296.646,-60.0104"/>
</g>
<!-- Node9 -->
<g id="node3" class="node"><title>Node9</title>
<g id="a_node3"><a xlink:href="board_2v1_2_buttons_8cpp.html" target="_top" xlink:title="board/v1/Buttons.cpp">
<polygon fill="white" stroke="black" points="143,-0.5 143,-21.5 270,-21.5 270,-0.5 143,-0.5"/>
<text text-anchor="middle" x="206.5" y="-7.9" font-family="Helvetica,sans-Serif" font-size="12.00">board/v1/Buttons.cpp</text>
</a>
</g>
</g>
<!-- Node7&#45;&gt;Node9 -->
<g id="edge2" class="edge"><title>Node7&#45;&gt;Node9</title>
<path fill="none" stroke="midnightblue" d="M321.877,-54.7888C294.306,-44.5639 256.785,-30.6488 232.119,-21.5011"/>
<polygon fill="midnightblue" stroke="midnightblue" points="320.949,-58.1776 331.542,-58.3733 323.383,-51.6144 320.949,-58.1776"/>
</g>
<!-- Node10 -->
<g id="node4" class="node"><title>Node10</title>
<g id="a_node4"><a xlink:href="board_2v1_2_encoders_8cpp.html" target="_top" xlink:title="board/v1/Encoders.cpp">
<polygon fill="white" stroke="black" points="288.5,-0.5 288.5,-21.5 426.5,-21.5 426.5,-0.5 288.5,-0.5"/>
<text text-anchor="middle" x="357.5" y="-7.9" font-family="Helvetica,sans-Serif" font-size="12.00">board/v1/Encoders.cpp</text>
</a>
</g>
</g>
<!-- Node7&#45;&gt;Node10 -->
<g id="edge3" class="edge"><title>Node7&#45;&gt;Node10</title>
<path fill="none" stroke="midnightblue" d="M357.5,-48.1575C357.5,-39.155 357.5,-28.9199 357.5,-21.6427"/>
<polygon fill="midnightblue" stroke="midnightblue" points="354,-48.2455 357.5,-58.2455 361,-48.2456 354,-48.2455"/>
</g>
<!-- Node11 -->
<g id="node5" class="node"><title>Node11</title>
<g id="a_node5"><a xlink:href="_in_matrix_8cpp.html" target="_top" xlink:title="board/v1/InMatrix.cpp">
<polygon fill="white" stroke="black" points="444.5,-0.5 444.5,-21.5 572.5,-21.5 572.5,-0.5 444.5,-0.5"/>
<text text-anchor="middle" x="508.5" y="-7.9" font-family="Helvetica,sans-Serif" font-size="12.00">board/v1/InMatrix.cpp</text>
</a>
</g>
</g>
<!-- Node7&#45;&gt;Node11 -->
<g id="edge4" class="edge"><title>Node7&#45;&gt;Node11</title>
<path fill="none" stroke="midnightblue" d="M393.123,-54.7888C420.694,-44.5639 458.215,-30.6488 482.881,-21.5011"/>
<polygon fill="midnightblue" stroke="midnightblue" points="391.617,-51.6144 383.458,-58.3733 394.051,-58.1776 391.617,-51.6144"/>
</g>
<!-- Node12 -->
<g id="node6" class="node"><title>Node12</title>
<g id="a_node6"><a xlink:href="_i_s_r_8cpp.html" target="_top" xlink:title="board/v1/ISR.cpp">
<polygon fill="white" stroke="black" points="591,-0.5 591,-21.5 698,-21.5 698,-0.5 591,-0.5"/>
<text text-anchor="middle" x="644.5" y="-7.9" font-family="Helvetica,sans-Serif" font-size="12.00">board/v1/ISR.cpp</text>
</a>
</g>
</g>
<!-- Node7&#45;&gt;Node12 -->
<g id="edge5" class="edge"><title>Node7&#45;&gt;Node12</title>
<path fill="none" stroke="midnightblue" d="M416.432,-56.501C469.353,-46.175 546.131,-31.1939 595.691,-21.5237"/>
<polygon fill="midnightblue" stroke="midnightblue" points="415.656,-53.0865 406.511,-58.4369 416.996,-59.9569 415.656,-53.0865"/>
</g>
</g>
</svg>
        <g id="navigator" transform="translate(0 0)" fill="#404254">
                <rect fill="#f2f5e9" fill-opacity="0.5" stroke="#606060" stroke-width=".5" x="0" y="0" width="60" height="60"/>
                <use id="zoomplus" xlink:href="#zoomPlus" x="17" y="9" onmousedown="handleZoom(evt,'in')"/>
                <use id="zoomminus" xlink:href="#zoomMin" x="42" y="9" onmousedown="handleZoom(evt,'out')"/>
                <use id="reset" xlink:href="#resetDef" x="30" y="36" onmousedown="handleReset()"/>
                <g id="arrowUp" xlink:href="#dirArrow" transform="translate(30 24)" onmousedown="handlePan(0,-1)">
                  <use xlink:href="#rim" fill="#404040">
                        <set attributeName="fill" to="#808080" begin="arrowUp.mouseover" end="arrowUp.mouseout"/>
                  </use>
                  <path fill="none" stroke="white" stroke-width="1.5" d="M0,-3.0v7 M-2.5,-0.5L0,-3.0L2.5,-0.5"/>
                </g>
                <g id="arrowRight" xlink:href="#dirArrow" transform="rotate(90) translate(36 -43)" onmousedown="handlePan(1,0)">
                  <use xlink:href="#rim" fill="#404040">
                        <set attributeName="fill" to="#808080" begin="arrowRight.mouseover" end="arrowRight.mouseout"/>
                  </use>
                  <path fill="none" stroke="white" stroke-width="1.5" d="M0,-3.0v7 M-2.5,-0.5L0,-3.0L2.5,-0.5"/>
                </g>
                <g id="arrowDown" xlink:href="#dirArrow" transform="rotate(180) translate(-30 -48)" onmousedown="handlePan(0,1)">
                  <use xlink:href="#rim" fill="#404040">
                        <set attributeName="fill" to="#808080" begin="arrowDown.mouseover" end="arrowDown.mouseout"/>
                  </use>
                  <path fill="none" stroke="white" stroke-width="1.5" d="M0,-3.0v7 M-2.5,-0.5L0,-3.0L2.5,-0.5"/>
                </g>
                <g id="arrowLeft" xlink:href="#dirArrow" transform="rotate(270) translate(-36 17)" onmousedown="handlePan(-1,0)">
                  <use xlink:href="#rim" fill="#404040">
                        <set attributeName="fill" to="#808080" begin="arrowLeft.mouseover" end="arrowLeft.mouseout"/>
                  </use>
                  <path fill="none" stroke="white" stroke-width="1.5" d="M0,-3.0v7 M-2.5,-0.5L0,-3.0L2.5,-0.5"/>
                </g>
        </g>
        <svg viewBox="0 0 15 15" width="100%" height="30px" preserveAspectRatio="xMaxYMin meet">
         <g id="arrow_out" transform="scale(0.3 0.3)">
          <a xlink:href="board_2v1_2_variables_8h__dep__incl_org.svg" target="_base">
           <rect id="button" ry="5" rx="5" y="6" x="6" height="38" width="38"
                fill="#f2f5e9" fill-opacity="0.5" stroke="#606060" stroke-width="1.0"/>
           <path id="arrow"
             d="M 11.500037,31.436501 C 11.940474,20.09759 22.043105,11.32322 32.158766,21.979434 L 37.068811,17.246167 C 37.068811,17.246167 37.088388,32 37.088388,32 L 22.160133,31.978069 C 22.160133,31.978069 26.997745,27.140456 26.997745,27.140456 C 18.528582,18.264221 13.291696,25.230495 11.500037,31.436501 z"
             style="fill:#404040;"/>
          </a>
         </g>
        </svg>
</svg>
