<?xml version="1.0" encoding="UTF-8" standalone="no"?>
<!DOCTYPE svg PUBLIC "-//W3C//DTD SVG 1.1//EN"
 "http://www.w3.org/Graphics/SVG/1.1/DTD/svg11.dtd">
<!-- Generated by graphviz version 2.38.0 (20140413.2041)
 -->
<!-- Title: board/common/constants/Analog.h Pages: 1 -->
<svg width="163pt" height="172pt"
 viewBox="0.00 0.00 163.00 172.00" xmlns="http://www.w3.org/2000/svg" xmlns:xlink="http://www.w3.org/1999/xlink">
<g id="graph0" class="graph" transform="scale(1 1) rotate(0) translate(4 168)">
<title>board/common/constants/Analog.h</title>
<polygon fill="white" stroke="none" points="-4,4 -4,-168 159,-168 159,4 -4,4"/>
<!-- Node1 -->
<g id="node1" class="node"><title>Node1</title>
<polygon fill="#bfbfbf" stroke="black" points="3.5,-129.5 3.5,-163.5 151.5,-163.5 151.5,-129.5 3.5,-129.5"/>
<text text-anchor="start" x="11.5" y="-149.9" font-family="Helvetica,sans-Serif" font-size="12.00">board/common/constants</text>
<text text-anchor="middle" x="77.5" y="-136.9" font-family="Helvetica,sans-Serif" font-size="12.00">/Analog.h</text>
</g>
<!-- Node2 -->
<g id="node2" class="node"><title>Node2</title>
<g id="a_node2"><a xlink:href="board_2common_2constants_2_constants_8h.html" target="_top" xlink:title="board/common/constants\l/Constants.h">
<polygon fill="white" stroke="black" points="3.5,-58.5 3.5,-92.5 151.5,-92.5 151.5,-58.5 3.5,-58.5"/>
<text text-anchor="start" x="11.5" y="-78.9" font-family="Helvetica,sans-Serif" font-size="12.00">board/common/constants</text>
<text text-anchor="middle" x="77.5" y="-65.9" font-family="Helvetica,sans-Serif" font-size="12.00">/Constants.h</text>
</a>
</g>
</g>
<!-- Node1&#45;&gt;Node2 -->
<g id="edge1" class="edge"><title>Node1&#45;&gt;Node2</title>
<path fill="none" stroke="midnightblue" d="M77.5,-119.247C77.5,-110.392 77.5,-100.767 77.5,-92.8958"/>
<polygon fill="midnightblue" stroke="midnightblue" points="74.0001,-119.497 77.5,-129.497 81.0001,-119.497 74.0001,-119.497"/>
</g>
<!-- Node3 -->
<g id="node3" class="node"><title>Node3</title>
<g id="a_node3"><a xlink:href="board_2common_2_common_8h.html" target="_top" xlink:title="board/common/Common.h">
<polygon fill="white" stroke="black" points="0,-0.5 0,-21.5 155,-21.5 155,-0.5 0,-0.5"/>
<text text-anchor="middle" x="77.5" y="-7.9" font-family="Helvetica,sans-Serif" font-size="12.00">board/common/Common.h</text>
</a>
</g>
</g>
<!-- Node2&#45;&gt;Node3 -->
<g id="edge2" class="edge"><title>Node2&#45;&gt;Node3</title>
<path fill="none" stroke="midnightblue" d="M77.5,-48.2756C77.5,-38.9065 77.5,-28.9184 77.5,-21.8"/>
<polygon fill="midnightblue" stroke="midnightblue" points="74.0001,-48.4047 77.5,-58.4047 81.0001,-48.4047 74.0001,-48.4047"/>
</g>
</g>
</svg>
