<?xml version="1.0" encoding="UTF-8" standalone="no"?>
<!DOCTYPE svg PUBLIC "-//W3C//DTD SVG 1.1//EN"
 "http://www.w3.org/Graphics/SVG/1.1/DTD/svg11.dtd">
<!-- Generated by graphviz version 2.38.0 (20140413.2041)
 -->
<!-- Title: board/common/constants/Constants.h Pages: 1 -->
<svg width="320pt" height="159pt"
 viewBox="0.00 0.00 320.00 159.00" xmlns="http://www.w3.org/2000/svg" xmlns:xlink="http://www.w3.org/1999/xlink">
<g id="graph0" class="graph" transform="scale(1 1) rotate(0) translate(4 155)">
<title>board/common/constants/Constants.h</title>
<polygon fill="white" stroke="none" points="-4,4 -4,-155 316,-155 316,4 -4,4"/>
<!-- Node0 -->
<g id="node1" class="node"><title>Node0</title>
<polygon fill="#bfbfbf" stroke="black" points="86,-116.5 86,-150.5 234,-150.5 234,-116.5 86,-116.5"/>
<text text-anchor="start" x="94" y="-136.9" font-family="Helvetica,sans-Serif" font-size="12.00">board/common/constants</text>
<text text-anchor="middle" x="160" y="-123.9" font-family="Helvetica,sans-Serif" font-size="12.00">/Constants.h</text>
</g>
<!-- Node1 -->
<g id="node2" class="node"><title>Node1</title>
<g id="a_node2"><a xlink:href="board_2common_2constants_2_analog_8h.html" target="_top" xlink:title="Analog.h">
<polygon fill="white" stroke="black" points="0,-58.5 0,-79.5 62,-79.5 62,-58.5 0,-58.5"/>
<text text-anchor="middle" x="31" y="-65.9" font-family="Helvetica,sans-Serif" font-size="12.00">Analog.h</text>
</a>
</g>
</g>
<!-- Node0&#45;&gt;Node1 -->
<g id="edge1" class="edge"><title>Node0&#45;&gt;Node1</title>
<path fill="none" stroke="midnightblue" d="M126.779,-116.405C106.122,-106.396 79.8161,-93.6512 60.0017,-84.0512"/>
<polygon fill="midnightblue" stroke="midnightblue" points="61.3748,-80.8274 50.8493,-79.6169 58.3226,-87.1269 61.3748,-80.8274"/>
</g>
<!-- Node2 -->
<g id="node3" class="node"><title>Node2</title>
<g id="a_node3"><a xlink:href="board_2common_2constants_2_encoders_8h.html" target="_top" xlink:title="Encoders.h">
<polygon fill="white" stroke="black" points="80,-58.5 80,-79.5 156,-79.5 156,-58.5 80,-58.5"/>
<text text-anchor="middle" x="118" y="-65.9" font-family="Helvetica,sans-Serif" font-size="12.00">Encoders.h</text>
</a>
</g>
</g>
<!-- Node0&#45;&gt;Node2 -->
<g id="edge2" class="edge"><title>Node0&#45;&gt;Node2</title>
<path fill="none" stroke="midnightblue" d="M149.184,-116.405C143.411,-107.815 136.284,-97.2089 130.301,-88.3058"/>
<polygon fill="midnightblue" stroke="midnightblue" points="133.068,-86.1478 124.586,-79.8 127.258,-90.0522 133.068,-86.1478"/>
</g>
<!-- Node4 -->
<g id="node5" class="node"><title>Node4</title>
<g id="a_node5"><a xlink:href="board_2common_2constants_2_l_e_ds_8h.html" target="_top" xlink:title="LEDs.h">
<polygon fill="white" stroke="black" points="174,-58.5 174,-79.5 230,-79.5 230,-58.5 174,-58.5"/>
<text text-anchor="middle" x="202" y="-65.9" font-family="Helvetica,sans-Serif" font-size="12.00">LEDs.h</text>
</a>
</g>
</g>
<!-- Node0&#45;&gt;Node4 -->
<g id="edge4" class="edge"><title>Node0&#45;&gt;Node4</title>
<path fill="none" stroke="midnightblue" d="M170.816,-116.405C176.589,-107.815 183.716,-97.2089 189.699,-88.3058"/>
<polygon fill="midnightblue" stroke="midnightblue" points="192.742,-90.0522 195.414,-79.8 186.932,-86.1478 192.742,-90.0522"/>
</g>
<!-- Node5 -->
<g id="node6" class="node"><title>Node5</title>
<g id="a_node6"><a xlink:href="common_2constants_2_reboot_8h.html" target="_top" xlink:title="Reboot.h">
<polygon fill="white" stroke="black" points="248,-58.5 248,-79.5 312,-79.5 312,-58.5 248,-58.5"/>
<text text-anchor="middle" x="280" y="-65.9" font-family="Helvetica,sans-Serif" font-size="12.00">Reboot.h</text>
</a>
</g>
</g>
<!-- Node0&#45;&gt;Node5 -->
<g id="edge5" class="edge"><title>Node0&#45;&gt;Node5</title>
<path fill="none" stroke="midnightblue" d="M190.903,-116.405C209.945,-106.487 234.145,-93.8827 252.517,-84.3138"/>
<polygon fill="midnightblue" stroke="midnightblue" points="254.283,-87.3405 261.536,-79.6169 251.05,-81.1321 254.283,-87.3405"/>
</g>
<!-- Node3 -->
<g id="node4" class="node"><title>Node3</title>
<polygon fill="white" stroke="#bfbfbf" points="85.5,-0.5 85.5,-21.5 150.5,-21.5 150.5,-0.5 85.5,-0.5"/>
<text text-anchor="middle" x="118" y="-7.9" font-family="Helvetica,sans-Serif" font-size="12.00">inttypes.h</text>
</g>
<!-- Node2&#45;&gt;Node3 -->
<g id="edge3" class="edge"><title>Node2&#45;&gt;Node3</title>
<path fill="none" stroke="midnightblue" d="M118,-58.2455C118,-50.9382 118,-40.6944 118,-31.7046"/>
<polygon fill="midnightblue" stroke="midnightblue" points="121.5,-31.6426 118,-21.6427 114.5,-31.6427 121.5,-31.6426"/>
</g>
</g>
</svg>
