<?xml version="1.0" encoding="UTF-8" standalone="no"?>
<!DOCTYPE svg PUBLIC "-//W3C//DTD SVG 1.1//EN"
 "http://www.w3.org/Graphics/SVG/1.1/DTD/svg11.dtd">
<!-- Generated by graphviz version 2.38.0 (20140413.2041)
 -->
<!-- Title: board/common/Common.h Pages: 1 -->
<svg width="787pt" height="462pt"
 viewBox="0.00 0.00 786.82 462.00" xmlns="http://www.w3.org/2000/svg" xmlns:xlink="http://www.w3.org/1999/xlink">
<g id="graph0" class="graph" transform="scale(1 1) rotate(0) translate(4 458)">
<title>board/common/Common.h</title>
<polygon fill="white" stroke="none" points="-4,4 -4,-458 782.82,-458 782.82,4 -4,4"/>
<!-- Node0 -->
<g id="node1" class="node"><title>Node0</title>
<polygon fill="#bfbfbf" stroke="black" points="359.32,-432.5 359.32,-453.5 514.32,-453.5 514.32,-432.5 359.32,-432.5"/>
<text text-anchor="middle" x="436.82" y="-439.9" font-family="Helvetica,sans-Serif" font-size="12.00">board/common/Common.h</text>
</g>
<!-- Node1 -->
<g id="node2" class="node"><title>Node1</title>
<g id="a_node2"><a xlink:href="board_2common_2_data_types_8h.html" target="_top" xlink:title="DataTypes.h">
<polygon fill="white" stroke="black" points="264.32,-374.5 264.32,-395.5 347.32,-395.5 347.32,-374.5 264.32,-374.5"/>
<text text-anchor="middle" x="305.82" y="-381.9" font-family="Helvetica,sans-Serif" font-size="12.00">DataTypes.h</text>
</a>
</g>
</g>
<!-- Node0&#45;&gt;Node1 -->
<g id="edge1" class="edge"><title>Node0&#45;&gt;Node1</title>
<path fill="none" stroke="midnightblue" d="M414.301,-432.373C393.083,-423.303 361.093,-409.628 337.343,-399.476"/>
<polygon fill="midnightblue" stroke="midnightblue" points="338.617,-396.214 328.046,-395.501 335.865,-402.65 338.617,-396.214"/>
</g>
<!-- Node2 -->
<g id="node3" class="node"><title>Node2</title>
<g id="a_node3"><a xlink:href="_import_8h.html" target="_top" xlink:title="Import.h">
<polygon fill="white" stroke="black" points="365.82,-374.5 365.82,-395.5 423.82,-395.5 423.82,-374.5 365.82,-374.5"/>
<text text-anchor="middle" x="394.82" y="-381.9" font-family="Helvetica,sans-Serif" font-size="12.00">Import.h</text>
</a>
</g>
</g>
<!-- Node0&#45;&gt;Node2 -->
<g id="edge2" class="edge"><title>Node0&#45;&gt;Node2</title>
<path fill="none" stroke="midnightblue" d="M429.504,-432.246C423.602,-424.376 415.146,-413.101 408.061,-403.654"/>
<polygon fill="midnightblue" stroke="midnightblue" points="410.852,-401.543 402.052,-395.643 405.252,-405.743 410.852,-401.543"/>
</g>
<!-- Node23 -->
<g id="node24" class="node"><title>Node23</title>
<g id="a_node24"><a xlink:href="board_2common_2_variables_8h.html" target="_top" xlink:title="Variables.h">
<polygon fill="white" stroke="black" points="441.82,-374.5 441.82,-395.5 517.82,-395.5 517.82,-374.5 441.82,-374.5"/>
<text text-anchor="middle" x="479.82" y="-381.9" font-family="Helvetica,sans-Serif" font-size="12.00">Variables.h</text>
</a>
</g>
</g>
<!-- Node0&#45;&gt;Node23 -->
<g id="edge26" class="edge"><title>Node0&#45;&gt;Node23</title>
<path fill="none" stroke="midnightblue" d="M444.31,-432.246C450.353,-424.376 459.011,-413.101 466.264,-403.654"/>
<polygon fill="midnightblue" stroke="midnightblue" points="469.102,-405.706 472.416,-395.643 463.55,-401.443 469.102,-405.706"/>
</g>
<!-- Node24 -->
<g id="node25" class="node"><title>Node24</title>
<g id="a_node25"><a xlink:href="board_2common_2constants_2_constants_8h.html" target="_top" xlink:title="constants/Constants.h">
<polygon fill="white" stroke="black" points="547.32,-374.5 547.32,-395.5 678.32,-395.5 678.32,-374.5 547.32,-374.5"/>
<text text-anchor="middle" x="612.82" y="-381.9" font-family="Helvetica,sans-Serif" font-size="12.00">constants/Constants.h</text>
</a>
</g>
</g>
<!-- Node0&#45;&gt;Node24 -->
<g id="edge27" class="edge"><title>Node0&#45;&gt;Node24</title>
<path fill="none" stroke="midnightblue" d="M467.076,-432.373C496.469,-423.021 541.249,-408.773 573.414,-398.538"/>
<polygon fill="midnightblue" stroke="midnightblue" points="574.492,-401.868 582.96,-395.501 572.369,-395.198 574.492,-401.868"/>
</g>
<!-- Node3 -->
<g id="node4" class="node"><title>Node3</title>
<g id="a_node4"><a xlink:href="_export_8h.html" target="_top" xlink:title="../../interface/Export.h">
<polygon fill="white" stroke="black" points="287.32,-316.5 287.32,-337.5 412.32,-337.5 412.32,-316.5 287.32,-316.5"/>
<text text-anchor="middle" x="349.82" y="-323.9" font-family="Helvetica,sans-Serif" font-size="12.00">../../interface/Export.h</text>
</a>
</g>
</g>
<!-- Node2&#45;&gt;Node3 -->
<g id="edge3" class="edge"><title>Node2&#45;&gt;Node3</title>
<path fill="none" stroke="midnightblue" d="M386.982,-374.246C380.658,-366.376 371.598,-355.101 364.007,-345.654"/>
<polygon fill="midnightblue" stroke="midnightblue" points="366.561,-343.245 357.569,-337.643 361.104,-347.63 366.561,-343.245"/>
</g>
<!-- Node4 -->
<g id="node5" class="node"><title>Node4</title>
<g id="a_node5"><a xlink:href="interface_2digital_2output_2leds_2_variables_8h.html" target="_top" xlink:title="digital/output/leds\l/Variables.h">
<polygon fill="white" stroke="black" points="65.3203,-245.5 65.3203,-279.5 172.32,-279.5 172.32,-245.5 65.3203,-245.5"/>
<text text-anchor="start" x="73.3203" y="-265.9" font-family="Helvetica,sans-Serif" font-size="12.00">digital/output/leds</text>
<text text-anchor="middle" x="118.82" y="-252.9" font-family="Helvetica,sans-Serif" font-size="12.00">/Variables.h</text>
</a>
</g>
</g>
<!-- Node3&#45;&gt;Node4 -->
<g id="edge4" class="edge"><title>Node3&#45;&gt;Node4</title>
<path fill="none" stroke="midnightblue" d="M314.485,-316.44C279.426,-306.954 224.923,-292.207 182.335,-280.685"/>
<polygon fill="midnightblue" stroke="midnightblue" points="183.182,-277.288 172.615,-278.055 181.353,-284.045 183.182,-277.288"/>
</g>
<!-- Node6 -->
<g id="node7" class="node"><title>Node6</title>
<g id="a_node7"><a xlink:href="interface_2digital_2output_2leds_2_data_types_8h.html" target="_top" xlink:title="digital/output/leds\l/DataTypes.h">
<polygon fill="white" stroke="black" points="173.32,-174.5 173.32,-208.5 280.32,-208.5 280.32,-174.5 173.32,-174.5"/>
<text text-anchor="start" x="181.32" y="-194.9" font-family="Helvetica,sans-Serif" font-size="12.00">digital/output/leds</text>
<text text-anchor="middle" x="226.82" y="-181.9" font-family="Helvetica,sans-Serif" font-size="12.00">/DataTypes.h</text>
</a>
</g>
</g>
<!-- Node3&#45;&gt;Node6 -->
<g id="edge6" class="edge"><title>Node3&#45;&gt;Node6</title>
<path fill="none" stroke="midnightblue" d="M333.639,-316.368C320.168,-307.863 300.97,-294.575 286.82,-280 268.381,-261.006 251.735,-235.761 240.68,-217.27"/>
<polygon fill="midnightblue" stroke="midnightblue" points="243.644,-215.405 235.575,-208.539 237.601,-218.938 243.644,-215.405"/>
</g>
<!-- Node8 -->
<g id="node9" class="node"><title>Node8</title>
<g id="a_node9"><a xlink:href="interface_2digital_2output_2leds_2_constants_8h.html" target="_top" xlink:title="digital/output/leds\l/Constants.h">
<polygon fill="white" stroke="black" points="296.32,-245.5 296.32,-279.5 403.32,-279.5 403.32,-245.5 296.32,-245.5"/>
<text text-anchor="start" x="304.32" y="-265.9" font-family="Helvetica,sans-Serif" font-size="12.00">digital/output/leds</text>
<text text-anchor="middle" x="349.82" y="-252.9" font-family="Helvetica,sans-Serif" font-size="12.00">/Constants.h</text>
</a>
</g>
</g>
<!-- Node3&#45;&gt;Node8 -->
<g id="edge8" class="edge"><title>Node3&#45;&gt;Node8</title>
<path fill="none" stroke="midnightblue" d="M349.82,-316.234C349.82,-309.15 349.82,-299.211 349.82,-289.868"/>
<polygon fill="midnightblue" stroke="midnightblue" points="353.32,-289.758 349.82,-279.758 346.32,-289.758 353.32,-289.758"/>
</g>
<!-- Node19 -->
<g id="node20" class="node"><title>Node19</title>
<g id="a_node20"><a xlink:href="midi_2src_2_m_i_d_i_8h.html" target="_top" xlink:title="../midi/src/MIDI.h">
<polygon fill="white" stroke="black" points="462.82,-252 462.82,-273 564.82,-273 564.82,-252 462.82,-252"/>
<text text-anchor="middle" x="513.82" y="-259.4" font-family="Helvetica,sans-Serif" font-size="12.00">../midi/src/MIDI.h</text>
</a>
</g>
</g>
<!-- Node3&#45;&gt;Node19 -->
<g id="edge20" class="edge"><title>Node3&#45;&gt;Node19</title>
<path fill="none" stroke="midnightblue" d="M375.086,-316.371C402.976,-305.743 448.041,-288.568 479.205,-276.692"/>
<polygon fill="midnightblue" stroke="midnightblue" points="480.697,-279.869 488.795,-273.037 478.204,-273.328 480.697,-279.869"/>
</g>
<!-- Node5 -->
<g id="node6" class="node"><title>Node5</title>
<g id="a_node6"><a xlink:href="_board_8h.html" target="_top" xlink:title="../../../../board/Board.h">
<polygon fill="white" stroke="black" points="26.8203,-181 26.8203,-202 154.82,-202 154.82,-181 26.8203,-181"/>
<text text-anchor="middle" x="90.8203" y="-188.4" font-family="Helvetica,sans-Serif" font-size="12.00">../../../../board/Board.h</text>
</a>
</g>
</g>
<!-- Node4&#45;&gt;Node5 -->
<g id="edge5" class="edge"><title>Node4&#45;&gt;Node5</title>
<path fill="none" stroke="midnightblue" d="M112.326,-245.497C108.213,-235.36 102.872,-222.198 98.5414,-211.527"/>
<polygon fill="midnightblue" stroke="midnightblue" points="101.776,-210.19 94.7726,-202.24 95.2897,-212.822 101.776,-210.19"/>
</g>
<!-- Node7 -->
<g id="node8" class="node"><title>Node7</title>
<polygon fill="white" stroke="#bfbfbf" points="289.32,-0.5 289.32,-21.5 354.32,-21.5 354.32,-0.5 289.32,-0.5"/>
<text text-anchor="middle" x="321.82" y="-7.9" font-family="Helvetica,sans-Serif" font-size="12.00">inttypes.h</text>
</g>
<!-- Node6&#45;&gt;Node7 -->
<g id="edge7" class="edge"><title>Node6&#45;&gt;Node7</title>
<path fill="none" stroke="midnightblue" d="M173.215,-176.198C144.485,-167.355 109.082,-154.521 79.8203,-138 38.4239,-114.627 -22.255,-93.9761 8.82025,-58 43.1959,-18.2031 201.278,-12.2054 278.763,-11.7096"/>
<polygon fill="midnightblue" stroke="midnightblue" points="279.153,-15.2084 289.14,-11.6733 279.128,-8.20844 279.153,-15.2084"/>
</g>
<!-- Node9 -->
<g id="node10" class="node"><title>Node9</title>
<g id="a_node10"><a xlink:href="database_2_database_8h.html" target="_top" xlink:title="../../../../database\l/Database.h">
<polygon fill="white" stroke="black" points="298.82,-174.5 298.82,-208.5 400.82,-208.5 400.82,-174.5 298.82,-174.5"/>
<text text-anchor="start" x="306.82" y="-194.9" font-family="Helvetica,sans-Serif" font-size="12.00">../../../../database</text>
<text text-anchor="middle" x="349.82" y="-181.9" font-family="Helvetica,sans-Serif" font-size="12.00">/Database.h</text>
</a>
</g>
</g>
<!-- Node8&#45;&gt;Node9 -->
<g id="edge9" class="edge"><title>Node8&#45;&gt;Node9</title>
<path fill="none" stroke="midnightblue" d="M349.82,-245.497C349.82,-237.599 349.82,-227.866 349.82,-218.904"/>
<polygon fill="midnightblue" stroke="midnightblue" points="353.32,-218.896 349.82,-208.896 346.32,-218.896 353.32,-218.896"/>
</g>
<!-- Node10 -->
<g id="node11" class="node"><title>Node10</title>
<g id="a_node11"><a xlink:href="_d_b_m_s_8h.html" target="_top" xlink:title="../dbms/src/DBMS.h">
<polygon fill="white" stroke="black" points="89.3203,-116.5 89.3203,-137.5 210.32,-137.5 210.32,-116.5 89.3203,-116.5"/>
<text text-anchor="middle" x="149.82" y="-123.9" font-family="Helvetica,sans-Serif" font-size="12.00">../dbms/src/DBMS.h</text>
</a>
</g>
</g>
<!-- Node9&#45;&gt;Node10 -->
<g id="edge10" class="edge"><title>Node9&#45;&gt;Node10</title>
<path fill="none" stroke="midnightblue" d="M298.575,-174.486C264.843,-163.945 221.311,-150.341 190.068,-140.577"/>
<polygon fill="midnightblue" stroke="midnightblue" points="190.972,-137.193 180.383,-137.551 188.884,-143.874 190.972,-137.193"/>
</g>
<!-- Node12 -->
<g id="node13" class="node"><title>Node12</title>
<g id="a_node13"><a xlink:href="database_2blocks_2_blocks_8h.html" target="_top" xlink:title="blocks/Blocks.h">
<polygon fill="white" stroke="black" points="300.82,-116.5 300.82,-137.5 398.82,-137.5 398.82,-116.5 300.82,-116.5"/>
<text text-anchor="middle" x="349.82" y="-123.9" font-family="Helvetica,sans-Serif" font-size="12.00">blocks/Blocks.h</text>
</a>
</g>
</g>
<!-- Node9&#45;&gt;Node12 -->
<g id="edge13" class="edge"><title>Node9&#45;&gt;Node12</title>
<path fill="none" stroke="midnightblue" d="M349.82,-174.405C349.82,-166.357 349.82,-156.541 349.82,-148.012"/>
<polygon fill="midnightblue" stroke="midnightblue" points="353.32,-147.8 349.82,-137.8 346.32,-147.8 353.32,-147.8"/>
</g>
<!-- Node11 -->
<g id="node12" class="node"><title>Node11</title>
<g id="a_node12"><a xlink:href="dbms_2src_2_data_types_8h.html" target="_top" xlink:title="DataTypes.h">
<polygon fill="white" stroke="black" points="18.3203,-58.5 18.3203,-79.5 101.32,-79.5 101.32,-58.5 18.3203,-58.5"/>
<text text-anchor="middle" x="59.8203" y="-65.9" font-family="Helvetica,sans-Serif" font-size="12.00">DataTypes.h</text>
</a>
</g>
</g>
<!-- Node10&#45;&gt;Node11 -->
<g id="edge11" class="edge"><title>Node10&#45;&gt;Node11</title>
<path fill="none" stroke="midnightblue" d="M134.143,-116.246C120.335,-107.653 100.001,-95.0014 84.091,-85.1018"/>
<polygon fill="midnightblue" stroke="midnightblue" points="85.6571,-81.954 75.3174,-79.6427 81.9589,-87.8974 85.6571,-81.954"/>
</g>
<!-- Node11&#45;&gt;Node7 -->
<g id="edge12" class="edge"><title>Node11&#45;&gt;Node7</title>
<path fill="none" stroke="midnightblue" d="M101.335,-59.1266C149.965,-48.7324 230.11,-31.6023 279.208,-21.108"/>
<polygon fill="midnightblue" stroke="midnightblue" points="280.144,-24.4871 289.191,-18.9741 278.681,-17.6417 280.144,-24.4871"/>
</g>
<!-- Node13 -->
<g id="node14" class="node"><title>Node13</title>
<g id="a_node14"><a xlink:href="database_2blocks_2_m_i_d_i_8h.html" target="_top" xlink:title="MIDI.h">
<polygon fill="white" stroke="black" points="119.32,-58.5 119.32,-79.5 168.32,-79.5 168.32,-58.5 119.32,-58.5"/>
<text text-anchor="middle" x="143.82" y="-65.9" font-family="Helvetica,sans-Serif" font-size="12.00">MIDI.h</text>
</a>
</g>
</g>
<!-- Node12&#45;&gt;Node13 -->
<g id="edge14" class="edge"><title>Node12&#45;&gt;Node13</title>
<path fill="none" stroke="midnightblue" d="M312.597,-116.497C279.551,-107.972 229.721,-94.9054 178.28,-80.3594"/>
<polygon fill="midnightblue" stroke="midnightblue" points="179.235,-76.9924 168.66,-77.6268 177.323,-83.726 179.235,-76.9924"/>
</g>
<!-- Node14 -->
<g id="node15" class="node"><title>Node14</title>
<g id="a_node15"><a xlink:href="database_2blocks_2_buttons_8h.html" target="_top" xlink:title="Buttons.h">
<polygon fill="white" stroke="black" points="186.32,-58.5 186.32,-79.5 251.32,-79.5 251.32,-58.5 186.32,-58.5"/>
<text text-anchor="middle" x="218.82" y="-65.9" font-family="Helvetica,sans-Serif" font-size="12.00">Buttons.h</text>
</a>
</g>
</g>
<!-- Node12&#45;&gt;Node14 -->
<g id="edge15" class="edge"><title>Node12&#45;&gt;Node14</title>
<path fill="none" stroke="midnightblue" d="M327.301,-116.373C306.083,-107.303 274.093,-93.6279 250.343,-83.4755"/>
<polygon fill="midnightblue" stroke="midnightblue" points="251.617,-80.2136 241.046,-79.5011 248.865,-86.6502 251.617,-80.2136"/>
</g>
<!-- Node15 -->
<g id="node16" class="node"><title>Node15</title>
<g id="a_node16"><a xlink:href="database_2blocks_2_encoders_8h.html" target="_top" xlink:title="Encoders.h">
<polygon fill="white" stroke="black" points="269.82,-58.5 269.82,-79.5 345.82,-79.5 345.82,-58.5 269.82,-58.5"/>
<text text-anchor="middle" x="307.82" y="-65.9" font-family="Helvetica,sans-Serif" font-size="12.00">Encoders.h</text>
</a>
</g>
</g>
<!-- Node12&#45;&gt;Node15 -->
<g id="edge16" class="edge"><title>Node12&#45;&gt;Node15</title>
<path fill="none" stroke="midnightblue" d="M342.504,-116.246C336.602,-108.376 328.146,-97.101 321.061,-87.6542"/>
<polygon fill="midnightblue" stroke="midnightblue" points="323.852,-85.5427 315.052,-79.6427 318.252,-89.7427 323.852,-85.5427"/>
</g>
<!-- Node16 -->
<g id="node17" class="node"><title>Node16</title>
<g id="a_node17"><a xlink:href="database_2blocks_2_analog_8h.html" target="_top" xlink:title="Analog.h">
<polygon fill="white" stroke="black" points="363.82,-58.5 363.82,-79.5 425.82,-79.5 425.82,-58.5 363.82,-58.5"/>
<text text-anchor="middle" x="394.82" y="-65.9" font-family="Helvetica,sans-Serif" font-size="12.00">Analog.h</text>
</a>
</g>
</g>
<!-- Node12&#45;&gt;Node16 -->
<g id="edge17" class="edge"><title>Node12&#45;&gt;Node16</title>
<path fill="none" stroke="midnightblue" d="M357.659,-116.246C363.982,-108.376 373.043,-97.101 380.634,-87.6542"/>
<polygon fill="midnightblue" stroke="midnightblue" points="383.536,-89.6302 387.072,-79.6427 378.079,-85.2454 383.536,-89.6302"/>
</g>
<!-- Node17 -->
<g id="node18" class="node"><title>Node17</title>
<g id="a_node18"><a xlink:href="database_2blocks_2_l_e_ds_8h.html" target="_top" xlink:title="LEDs.h">
<polygon fill="white" stroke="black" points="443.82,-58.5 443.82,-79.5 499.82,-79.5 499.82,-58.5 443.82,-58.5"/>
<text text-anchor="middle" x="471.82" y="-65.9" font-family="Helvetica,sans-Serif" font-size="12.00">LEDs.h</text>
</a>
</g>
</g>
<!-- Node12&#45;&gt;Node17 -->
<g id="edge18" class="edge"><title>Node12&#45;&gt;Node17</title>
<path fill="none" stroke="midnightblue" d="M370.793,-116.373C390.377,-107.384 419.816,-93.8706 441.871,-83.7471"/>
<polygon fill="midnightblue" stroke="midnightblue" points="443.493,-86.8538 451.121,-79.5011 440.573,-80.4919 443.493,-86.8538"/>
</g>
<!-- Node18 -->
<g id="node19" class="node"><title>Node18</title>
<g id="a_node19"><a xlink:href="database_2blocks_2_i_d_8h.html" target="_top" xlink:title="ID.h">
<polygon fill="white" stroke="black" points="518.32,-58.5 518.32,-79.5 555.32,-79.5 555.32,-58.5 518.32,-58.5"/>
<text text-anchor="middle" x="536.82" y="-65.9" font-family="Helvetica,sans-Serif" font-size="12.00">ID.h</text>
</a>
</g>
</g>
<!-- Node12&#45;&gt;Node18 -->
<g id="edge19" class="edge"><title>Node12&#45;&gt;Node18</title>
<path fill="none" stroke="midnightblue" d="M385.06,-116.474C415.383,-108.129 460.491,-95.3636 508.551,-79.9482"/>
<polygon fill="midnightblue" stroke="midnightblue" points="509.76,-83.2359 518.199,-76.8303 507.607,-76.575 509.76,-83.2359"/>
</g>
<!-- Node20 -->
<g id="node21" class="node"><title>Node20</title>
<g id="a_node21"><a xlink:href="midi_2src_2_data_types_8h.html" target="_top" xlink:title="DataTypes.h">
<polygon fill="white" stroke="black" points="472.32,-181 472.32,-202 555.32,-202 555.32,-181 472.32,-181"/>
<text text-anchor="middle" x="513.82" y="-188.4" font-family="Helvetica,sans-Serif" font-size="12.00">DataTypes.h</text>
</a>
</g>
</g>
<!-- Node19&#45;&gt;Node20 -->
<g id="edge21" class="edge"><title>Node19&#45;&gt;Node20</title>
<path fill="none" stroke="midnightblue" d="M513.82,-251.906C513.82,-241.71 513.82,-225.3 513.82,-212.308"/>
<polygon fill="midnightblue" stroke="midnightblue" points="517.32,-212.013 513.82,-202.013 510.32,-212.013 517.32,-212.013"/>
</g>
<!-- Node21 -->
<g id="node22" class="node"><title>Node21</title>
<g id="a_node22"><a xlink:href="midi_2src_2_helpers_8h.html" target="_top" xlink:title="Helpers.h">
<polygon fill="white" stroke="black" points="550.82,-116.5 550.82,-137.5 616.82,-137.5 616.82,-116.5 550.82,-116.5"/>
<text text-anchor="middle" x="583.82" y="-123.9" font-family="Helvetica,sans-Serif" font-size="12.00">Helpers.h</text>
</a>
</g>
</g>
<!-- Node19&#45;&gt;Node21 -->
<g id="edge25" class="edge"><title>Node19&#45;&gt;Node21</title>
<path fill="none" stroke="midnightblue" d="M526.731,-251.687C538.448,-242.081 555.305,-226.39 564.82,-209 575.298,-189.85 580.026,-165.082 582.142,-148.003"/>
<polygon fill="midnightblue" stroke="midnightblue" points="585.674,-147.879 583.228,-137.57 578.711,-147.154 585.674,-147.879"/>
</g>
<!-- Node20&#45;&gt;Node21 -->
<g id="edge22" class="edge"><title>Node20&#45;&gt;Node21</title>
<path fill="none" stroke="midnightblue" d="M524.758,-180.734C535.482,-171.159 552.049,-156.367 564.91,-144.884"/>
<polygon fill="midnightblue" stroke="midnightblue" points="567.6,-147.174 572.729,-137.903 562.938,-141.953 567.6,-147.174"/>
</g>
<!-- Node21&#45;&gt;Node7 -->
<g id="edge24" class="edge"><title>Node21&#45;&gt;Node7</title>
<path fill="none" stroke="midnightblue" d="M584.095,-116.021C583.924,-101.092 581.254,-73.0873 564.82,-58 536.192,-31.7171 426.541,-19.6034 364.772,-14.7624"/>
<polygon fill="midnightblue" stroke="midnightblue" points="364.791,-11.2541 354.557,-13.9939 364.266,-18.2344 364.791,-11.2541"/>
</g>
<!-- Node22 -->
<g id="node23" class="node"><title>Node22</title>
<polygon fill="white" stroke="#bfbfbf" points="611.82,-58.5 611.82,-79.5 669.82,-79.5 669.82,-58.5 611.82,-58.5"/>
<text text-anchor="middle" x="640.82" y="-65.9" font-family="Helvetica,sans-Serif" font-size="12.00">stddef.h</text>
</g>
<!-- Node21&#45;&gt;Node22 -->
<g id="edge23" class="edge"><title>Node21&#45;&gt;Node22</title>
<path fill="none" stroke="midnightblue" d="M593.749,-116.246C602.004,-108.135 613.941,-96.4075 623.728,-86.7919"/>
<polygon fill="midnightblue" stroke="midnightblue" points="626.325,-89.1476 631.005,-79.6427 621.419,-84.1542 626.325,-89.1476"/>
</g>
<!-- Node25 -->
<g id="node26" class="node"><title>Node25</title>
<g id="a_node26"><a xlink:href="board_2common_2constants_2_analog_8h.html" target="_top" xlink:title="Analog.h">
<polygon fill="white" stroke="black" points="522.82,-316.5 522.82,-337.5 584.82,-337.5 584.82,-316.5 522.82,-316.5"/>
<text text-anchor="middle" x="553.82" y="-323.9" font-family="Helvetica,sans-Serif" font-size="12.00">Analog.h</text>
</a>
</g>
</g>
<!-- Node24&#45;&gt;Node25 -->
<g id="edge28" class="edge"><title>Node24&#45;&gt;Node25</title>
<path fill="none" stroke="midnightblue" d="M602.543,-374.246C593.998,-366.135 581.642,-354.408 571.512,-344.792"/>
<polygon fill="midnightblue" stroke="midnightblue" points="573.642,-341.988 563.979,-337.643 568.823,-347.066 573.642,-341.988"/>
</g>
<!-- Node26 -->
<g id="node27" class="node"><title>Node26</title>
<g id="a_node27"><a xlink:href="board_2common_2constants_2_encoders_8h.html" target="_top" xlink:title="Encoders.h">
<polygon fill="white" stroke="black" points="620.82,-252 620.82,-273 696.82,-273 696.82,-252 620.82,-252"/>
<text text-anchor="middle" x="658.82" y="-259.4" font-family="Helvetica,sans-Serif" font-size="12.00">Encoders.h</text>
</a>
</g>
</g>
<!-- Node24&#45;&gt;Node26 -->
<g id="edge29" class="edge"><title>Node24&#45;&gt;Node26</title>
<path fill="none" stroke="midnightblue" d="M614.919,-374.113C617.917,-360.693 623.944,-336.084 631.82,-316 636.367,-304.407 642.68,-291.992 648.058,-282.147"/>
<polygon fill="midnightblue" stroke="midnightblue" points="651.189,-283.719 653.025,-273.285 645.083,-280.297 651.189,-283.719"/>
</g>
<!-- Node27 -->
<g id="node28" class="node"><title>Node27</title>
<g id="a_node28"><a xlink:href="board_2common_2constants_2_l_e_ds_8h.html" target="_top" xlink:title="LEDs.h">
<polygon fill="white" stroke="black" points="640.82,-316.5 640.82,-337.5 696.82,-337.5 696.82,-316.5 640.82,-316.5"/>
<text text-anchor="middle" x="668.82" y="-323.9" font-family="Helvetica,sans-Serif" font-size="12.00">LEDs.h</text>
</a>
</g>
</g>
<!-- Node24&#45;&gt;Node27 -->
<g id="edge31" class="edge"><title>Node24&#45;&gt;Node27</title>
<path fill="none" stroke="midnightblue" d="M622.575,-374.246C630.685,-366.135 642.413,-354.408 652.028,-344.792"/>
<polygon fill="midnightblue" stroke="midnightblue" points="654.581,-347.189 659.178,-337.643 649.632,-342.239 654.581,-347.189"/>
</g>
<!-- Node28 -->
<g id="node29" class="node"><title>Node28</title>
<g id="a_node29"><a xlink:href="common_2constants_2_reboot_8h.html" target="_top" xlink:title="Reboot.h">
<polygon fill="white" stroke="black" points="714.82,-316.5 714.82,-337.5 778.82,-337.5 778.82,-316.5 714.82,-316.5"/>
<text text-anchor="middle" x="746.82" y="-323.9" font-family="Helvetica,sans-Serif" font-size="12.00">Reboot.h</text>
</a>
</g>
</g>
<!-- Node24&#45;&gt;Node28 -->
<g id="edge32" class="edge"><title>Node24&#45;&gt;Node28</title>
<path fill="none" stroke="midnightblue" d="M635.856,-374.373C657.559,-365.303 690.282,-351.628 714.575,-341.476"/>
<polygon fill="midnightblue" stroke="midnightblue" points="716.208,-344.586 724.085,-337.501 713.509,-338.128 716.208,-344.586"/>
</g>
<!-- Node26&#45;&gt;Node7 -->
<g id="edge30" class="edge"><title>Node26&#45;&gt;Node7</title>
<path fill="none" stroke="midnightblue" d="M664.073,-251.923C680.858,-219.895 729.224,-115.315 678.82,-58 658.352,-34.7249 455.197,-19.898 364.805,-14.4037"/>
<polygon fill="midnightblue" stroke="midnightblue" points="364.808,-10.8978 354.617,-13.7951 364.39,-17.8853 364.808,-10.8978"/>
</g>
</g>
</svg>
