<?xml version="1.0" encoding="UTF-8" standalone="no"?>
<!DOCTYPE svg PUBLIC "-//W3C//DTD SVG 1.1//EN"
 "http://www.w3.org/Graphics/SVG/1.1/DTD/svg11.dtd">
<!-- Generated by graphviz version 2.38.0 (20140413.2041)
 -->
<!-- Title: board/v1/Variables.h Pages: 1 -->
<svg width="706pt" height="88pt"
 viewBox="0.00 0.00 706.00 88.00" xmlns="http://www.w3.org/2000/svg" xmlns:xlink="http://www.w3.org/1999/xlink">
<g id="graph0" class="graph" transform="scale(1 1) rotate(0) translate(4 84)">
<title>board/v1/Variables.h</title>
<polygon fill="white" stroke="none" points="-4,4 -4,-84 702,-84 702,4 -4,4"/>
<!-- Node7 -->
<g id="node1" class="node"><title>Node7</title>
<polygon fill="#bfbfbf" stroke="black" points="295,-58.5 295,-79.5 420,-79.5 420,-58.5 295,-58.5"/>
<text text-anchor="middle" x="357.5" y="-65.9" font-family="Helvetica,sans-Serif" font-size="12.00">board/v1/Variables.h</text>
</g>
<!-- Node8 -->
<g id="node2" class="node"><title>Node8</title>
<g id="a_node2"><a xlink:href="board_2v1_2_analog_8cpp.html" target="_top" xlink:title="board/v1/Analog.cpp">
<polygon fill="white" stroke="black" points="0,-0.5 0,-21.5 125,-21.5 125,-0.5 0,-0.5"/>
<text text-anchor="middle" x="62.5" y="-7.9" font-family="Helvetica,sans-Serif" font-size="12.00">board/v1/Analog.cpp</text>
</a>
</g>
</g>
<!-- Node7&#45;&gt;Node8 -->
<g id="edge1" class="edge"><title>Node7&#45;&gt;Node8</title>
<path fill="none" stroke="midnightblue" d="M297.264,-56.5654C242.857,-46.2373 163.717,-31.214 112.669,-21.5237"/>
<polygon fill="midnightblue" stroke="midnightblue" points="296.646,-60.0104 307.123,-58.4369 297.951,-53.1332 296.646,-60.0104"/>
</g>
<!-- Node9 -->
<g id="node3" class="node"><title>Node9</title>
<g id="a_node3"><a xlink:href="board_2v1_2_buttons_8cpp.html" target="_top" xlink:title="board/v1/Buttons.cpp">
<polygon fill="white" stroke="black" points="143,-0.5 143,-21.5 270,-21.5 270,-0.5 143,-0.5"/>
<text text-anchor="middle" x="206.5" y="-7.9" font-family="Helvetica,sans-Serif" font-size="12.00">board/v1/Buttons.cpp</text>
</a>
</g>
</g>
<!-- Node7&#45;&gt;Node9 -->
<g id="edge2" class="edge"><title>Node7&#45;&gt;Node9</title>
<path fill="none" stroke="midnightblue" d="M321.877,-54.7888C294.306,-44.5639 256.785,-30.6488 232.119,-21.5011"/>
<polygon fill="midnightblue" stroke="midnightblue" points="320.949,-58.1776 331.542,-58.3733 323.383,-51.6144 320.949,-58.1776"/>
</g>
<!-- Node10 -->
<g id="node4" class="node"><title>Node10</title>
<g id="a_node4"><a xlink:href="board_2v1_2_encoders_8cpp.html" target="_top" xlink:title="board/v1/Encoders.cpp">
<polygon fill="white" stroke="black" points="288.5,-0.5 288.5,-21.5 426.5,-21.5 426.5,-0.5 288.5,-0.5"/>
<text text-anchor="middle" x="357.5" y="-7.9" font-family="Helvetica,sans-Serif" font-size="12.00">board/v1/Encoders.cpp</text>
</a>
</g>
</g>
<!-- Node7&#45;&gt;Node10 -->
<g id="edge3" class="edge"><title>Node7&#45;&gt;Node10</title>
<path fill="none" stroke="midnightblue" d="M357.5,-48.1575C357.5,-39.155 357.5,-28.9199 357.5,-21.6427"/>
<polygon fill="midnightblue" stroke="midnightblue" points="354,-48.2455 357.5,-58.2455 361,-48.2456 354,-48.2455"/>
</g>
<!-- Node11 -->
<g id="node5" class="node"><title>Node11</title>
<g id="a_node5"><a xlink:href="_in_matrix_8cpp.html" target="_top" xlink:title="board/v1/InMatrix.cpp">
<polygon fill="white" stroke="black" points="444.5,-0.5 444.5,-21.5 572.5,-21.5 572.5,-0.5 444.5,-0.5"/>
<text text-anchor="middle" x="508.5" y="-7.9" font-family="Helvetica,sans-Serif" font-size="12.00">board/v1/InMatrix.cpp</text>
</a>
</g>
</g>
<!-- Node7&#45;&gt;Node11 -->
<g id="edge4" class="edge"><title>Node7&#45;&gt;Node11</title>
<path fill="none" stroke="midnightblue" d="M393.123,-54.7888C420.694,-44.5639 458.215,-30.6488 482.881,-21.5011"/>
<polygon fill="midnightblue" stroke="midnightblue" points="391.617,-51.6144 383.458,-58.3733 394.051,-58.1776 391.617,-51.6144"/>
</g>
<!-- Node12 -->
<g id="node6" class="node"><title>Node12</title>
<g id="a_node6"><a xlink:href="_i_s_r_8cpp.html" target="_top" xlink:title="board/v1/ISR.cpp">
<polygon fill="white" stroke="black" points="591,-0.5 591,-21.5 698,-21.5 698,-0.5 591,-0.5"/>
<text text-anchor="middle" x="644.5" y="-7.9" font-family="Helvetica,sans-Serif" font-size="12.00">board/v1/ISR.cpp</text>
</a>
</g>
</g>
<!-- Node7&#45;&gt;Node12 -->
<g id="edge5" class="edge"><title>Node7&#45;&gt;Node12</title>
<path fill="none" stroke="midnightblue" d="M416.432,-56.501C469.353,-46.175 546.131,-31.1939 595.691,-21.5237"/>
<polygon fill="midnightblue" stroke="midnightblue" points="415.656,-53.0865 406.511,-58.4369 416.996,-59.9569 415.656,-53.0865"/>
</g>
</g>
</svg>
