<?xml version="1.0" encoding="UTF-8" standalone="no"?>
<!DOCTYPE svg PUBLIC "-//W3C//DTD SVG 1.1//EN"
 "http://www.w3.org/Graphics/SVG/1.1/DTD/svg11.dtd">
<!-- Generated by graphviz version 2.38.0 (20140413.2041)
 -->
<!-- Title: MIDI Pages: 1 -->
<svg width="128pt" height="114pt"
 viewBox="0.00 0.00 128.00 114.00" xmlns="http://www.w3.org/2000/svg" xmlns:xlink="http://www.w3.org/1999/xlink">
<g id="graph0" class="graph" transform="scale(1 1) rotate(0) translate(4 110)">
<title>MIDI</title>
<polygon fill="white" stroke="none" points="-4,4 -4,-110 124,-110 124,4 -4,4"/>
<!-- Node1 -->
<g id="node1" class="node"><title>Node1</title>
<polygon fill="#bfbfbf" stroke="black" points="29,-0.5 29,-21.5 69,-21.5 69,-0.5 29,-0.5"/>
<text text-anchor="middle" x="49" y="-7.9" font-family="Helvetica,sans-Serif" font-size="12.00">MIDI</text>
</g>
<!-- Node2 -->
<g id="node2" class="node"><title>Node2</title>
<g id="a_node2"><a xlink:href="struct_m_i_d_imessage__t.html" target="_top" xlink:title="Holds decoded data of a MIDI message. ">
<polygon fill="white" stroke="black" points="0,-84.5 0,-105.5 98,-105.5 98,-84.5 0,-84.5"/>
<text text-anchor="middle" x="49" y="-91.9" font-family="Helvetica,sans-Serif" font-size="12.00">MIDImessage_t</text>
</a>
</g>
</g>
<!-- Node2&#45;&gt;Node1 -->
<g id="edge1" class="edge"><title>Node2&#45;&gt;Node1</title>
<path fill="none" stroke="#9a32cd" stroke-dasharray="5,2" d="M49,-73.9899C49,-57.4 49,-34.5318 49,-21.7158"/>
<polygon fill="#9a32cd" stroke="#9a32cd" points="45.5001,-74.2715 49,-84.2715 52.5001,-74.2715 45.5001,-74.2715"/>
<text text-anchor="middle" x="84.5" y="-56.4" font-family="Helvetica,sans-Serif" font-size="12.00"> usbMessage</text>
<text text-anchor="middle" x="84.5" y="-43.4" font-family="Helvetica,sans-Serif" font-size="12.00">dinMessage</text>
</g>
</g>
</svg>
