<?xml version="1.0" encoding="UTF-8" standalone="no"?>
<!DOCTYPE svg PUBLIC "-//W3C//DTD SVG 1.1//EN"
 "http://www.w3.org/Graphics/SVG/1.1/DTD/svg11.dtd">
<!-- Generated by graphviz version 2.38.0 (20140413.2041)
 -->
<!-- Title: Database Pages: 1 -->
<svg width="76pt" height="88pt"
 viewBox="0.00 0.00 76.00 88.00" xmlns="http://www.w3.org/2000/svg" xmlns:xlink="http://www.w3.org/1999/xlink">
<g id="graph0" class="graph" transform="scale(1 1) rotate(0) translate(4 84)">
<title>Database</title>
<polygon fill="white" stroke="none" points="-4,4 -4,-84 72,-84 72,4 -4,4"/>
<!-- Node0 -->
<g id="node1" class="node"><title>Node0</title>
<polygon fill="#bfbfbf" stroke="black" points="0,-0.5 0,-21.5 68,-21.5 68,-0.5 0,-0.5"/>
<text text-anchor="middle" x="34" y="-7.9" font-family="Helvetica,sans-Serif" font-size="12.00">Database</text>
</g>
<!-- Node1 -->
<g id="node2" class="node"><title>Node1</title>
<g id="a_node2"><a xlink:href="class_d_b_m_s.html" target="_top" xlink:title="DBMS">
<polygon fill="white" stroke="black" points="8,-58.5 8,-79.5 60,-79.5 60,-58.5 8,-58.5"/>
<text text-anchor="middle" x="34" y="-65.9" font-family="Helvetica,sans-Serif" font-size="12.00">DBMS</text>
</a>
</g>
</g>
<!-- Node1&#45;&gt;Node0 -->
<g id="edge1" class="edge"><title>Node1&#45;&gt;Node0</title>
<path fill="none" stroke="midnightblue" d="M27.5113,-48.1575C26.919,-39.155 27.3335,-28.9199 28.7549,-21.6427"/>
<polygon fill="midnightblue" stroke="midnightblue" points="24.0561,-48.739 28.7332,-58.2455 31.0053,-47.8972 24.0561,-48.739"/>
</g>
<!-- Node1&#45;&gt;Node0 -->
<g id="edge2" class="edge"><title>Node1&#45;&gt;Node0</title>
<path fill="none" stroke="midnightblue" d="M40.4887,-48.1575C41.081,-39.155 40.6665,-28.9199 39.2451,-21.6427"/>
<polygon fill="midnightblue" stroke="midnightblue" points="36.9947,-47.8972 39.2668,-58.2455 43.9439,-48.739 36.9947,-47.8972"/>
</g>
</g>
</svg>
