<?xml version="1.0" encoding="UTF-8" standalone="no"?>
<!DOCTYPE svg PUBLIC "-//W3C//DTD SVG 1.1//EN"
 "http://www.w3.org/Graphics/SVG/1.1/DTD/svg11.dtd">
<!-- Generated by graphviz version 2.38.0 (20140413.2041)
 -->
<!-- Title: SysEx Pages: 1 -->
<svg width="254pt" height="172pt"
 viewBox="0.00 0.00 253.50 172.00" xmlns="http://www.w3.org/2000/svg" xmlns:xlink="http://www.w3.org/1999/xlink">
<g id="graph0" class="graph" transform="scale(1 1) rotate(0) translate(4 168)">
<title>SysEx</title>
<polygon fill="white" stroke="none" points="-4,4 -4,-168 249.5,-168 249.5,4 -4,4"/>
<!-- Node1 -->
<g id="node1" class="node"><title>Node1</title>
<polygon fill="#bfbfbf" stroke="black" points="83.5,-0.5 83.5,-21.5 133.5,-21.5 133.5,-0.5 83.5,-0.5"/>
<text text-anchor="middle" x="108.5" y="-7.9" font-family="Helvetica,sans-Serif" font-size="12.00">SysEx</text>
</g>
<!-- Node2 -->
<g id="node2" class="node"><title>Node2</title>
<g id="a_node2"><a xlink:href="structsys_ex_block.html" target="_top" xlink:title="Structure holding data for single SysEx block. ">
<polygon fill="white" stroke="black" points="5,-71.5 5,-92.5 82,-92.5 82,-71.5 5,-71.5"/>
<text text-anchor="middle" x="43.5" y="-78.9" font-family="Helvetica,sans-Serif" font-size="12.00">sysExBlock</text>
</a>
</g>
</g>
<!-- Node2&#45;&gt;Node1 -->
<g id="edge1" class="edge"><title>Node2&#45;&gt;Node1</title>
<path fill="none" stroke="#9a32cd" stroke-dasharray="5,2" d="M42.6377,-61.0801C43.2433,-53.8496 45.0704,-45.9931 49.5,-40 57.6544,-28.9675 71.2812,-22.1088 83.3855,-17.9431"/>
<polygon fill="#9a32cd" stroke="#9a32cd" points="39.1356,-61.1967 42.4778,-71.2505 46.1347,-61.3068 39.1356,-61.1967"/>
<text text-anchor="middle" x="91" y="-43.4" font-family="Helvetica,sans-Serif" font-size="12.00"> sysExMessage</text>
</g>
<!-- Node3 -->
<g id="node3" class="node"><title>Node3</title>
<g id="a_node3"><a xlink:href="structsys_ex_section.html" target="_top" xlink:title="Structure holding data for single SysEx section within block. ">
<polygon fill="white" stroke="black" points="0,-142.5 0,-163.5 87,-163.5 87,-142.5 0,-142.5"/>
<text text-anchor="middle" x="43.5" y="-149.9" font-family="Helvetica,sans-Serif" font-size="12.00">sysExSection</text>
</a>
</g>
</g>
<!-- Node3&#45;&gt;Node2 -->
<g id="edge2" class="edge"><title>Node3&#45;&gt;Node2</title>
<path fill="none" stroke="#9a32cd" stroke-dasharray="5,2" d="M43.5,-132.088C43.5,-119.078 43.5,-102.675 43.5,-92.5127"/>
<polygon fill="#9a32cd" stroke="#9a32cd" points="40.0001,-132.406 43.5,-142.406 47.0001,-132.406 40.0001,-132.406"/>
<text text-anchor="middle" x="64" y="-114.4" font-family="Helvetica,sans-Serif" font-size="12.00"> section</text>
</g>
<!-- Node4 -->
<g id="node4" class="node"><title>Node4</title>
<g id="a_node4"><a xlink:href="structdecoded_message__t.html" target="_top" xlink:title="Structure holding decoded request data. ">
<polygon fill="white" stroke="black" points="100.5,-71.5 100.5,-92.5 222.5,-92.5 222.5,-71.5 100.5,-71.5"/>
<text text-anchor="middle" x="161.5" y="-78.9" font-family="Helvetica,sans-Serif" font-size="12.00">decodedMessage_t</text>
</a>
</g>
</g>
<!-- Node4&#45;&gt;Node1 -->
<g id="edge3" class="edge"><title>Node4&#45;&gt;Node1</title>
<path fill="none" stroke="#9a32cd" stroke-dasharray="5,2" d="M151.421,-62.3954C147.176,-55.1499 141.957,-46.9378 136.5,-40 131.315,-33.4077 124.713,-26.7396 119.222,-21.5651"/>
<polygon fill="#9a32cd" stroke="#9a32cd" points="148.576,-64.4751 156.536,-71.4663 154.673,-61.0366 148.576,-64.4751"/>
<text text-anchor="middle" x="196" y="-43.4" font-family="Helvetica,sans-Serif" font-size="12.00"> decodedMessage</text>
</g>
</g>
</svg>
