<?xml version="1.0" encoding="UTF-8" standalone="no"?>
<!DOCTYPE svg PUBLIC "-//W3C//DTD SVG 1.1//EN"
 "http://www.w3.org/Graphics/SVG/1.1/DTD/svg11.dtd">
<!-- Generated by graphviz version 2.38.0 (20140413.2041)
 -->
<!-- Title: core/src/helpers/Helpers.h Pages: 1 -->
<svg width="242pt" height="88pt"
 viewBox="0.00 0.00 241.50 88.00" xmlns="http://www.w3.org/2000/svg" xmlns:xlink="http://www.w3.org/1999/xlink">
<g id="graph0" class="graph" transform="scale(1 1) rotate(0) translate(4 84)">
<title>core/src/helpers/Helpers.h</title>
<polygon fill="white" stroke="none" points="-4,4 -4,-84 237.5,-84 237.5,4 -4,4"/>
<!-- Node0 -->
<g id="node1" class="node"><title>Node0</title>
<polygon fill="#bfbfbf" stroke="black" points="40,-58.5 40,-79.5 192,-79.5 192,-58.5 40,-58.5"/>
<text text-anchor="middle" x="116" y="-65.9" font-family="Helvetica,sans-Serif" font-size="12.00">core/src/helpers/Helpers.h</text>
</g>
<!-- Node1 -->
<g id="node2" class="node"><title>Node1</title>
<g id="a_node2"><a xlink:href="_bit_manipulation_8h.html" target="_top" xlink:title="BitManipulation.h">
<polygon fill="white" stroke="black" points="0,-0.5 0,-21.5 106,-21.5 106,-0.5 0,-0.5"/>
<text text-anchor="middle" x="53" y="-7.9" font-family="Helvetica,sans-Serif" font-size="12.00">BitManipulation.h</text>
</a>
</g>
</g>
<!-- Node0&#45;&gt;Node1 -->
<g id="edge1" class="edge"><title>Node0&#45;&gt;Node1</title>
<path fill="none" stroke="midnightblue" d="M105.026,-58.2455C95.8118,-50.0549 82.4468,-38.1749 71.5703,-28.5069"/>
<polygon fill="midnightblue" stroke="midnightblue" points="73.6474,-25.6704 63.848,-21.6427 68.9968,-30.9023 73.6474,-25.6704"/>
</g>
<!-- Node2 -->
<g id="node3" class="node"><title>Node2</title>
<g id="a_node3"><a xlink:href="_pin_manipulation_8h.html" target="_top" xlink:title="PinManipulation.h">
<polygon fill="white" stroke="black" points="124.5,-0.5 124.5,-21.5 233.5,-21.5 233.5,-0.5 124.5,-0.5"/>
<text text-anchor="middle" x="179" y="-7.9" font-family="Helvetica,sans-Serif" font-size="12.00">PinManipulation.h</text>
</a>
</g>
</g>
<!-- Node0&#45;&gt;Node2 -->
<g id="edge2" class="edge"><title>Node0&#45;&gt;Node2</title>
<path fill="none" stroke="midnightblue" d="M126.974,-58.2455C136.188,-50.0549 149.553,-38.1749 160.43,-28.5069"/>
<polygon fill="midnightblue" stroke="midnightblue" points="163.003,-30.9023 168.152,-21.6427 158.353,-25.6704 163.003,-30.9023"/>
</g>
</g>
</svg>
