<?xml version="1.0" encoding="UTF-8" standalone="no"?>
<!DOCTYPE svg PUBLIC "-//W3C//DTD SVG 1.1//EN"
 "http://www.w3.org/Graphics/SVG/1.1/DTD/svg11.dtd">
<!-- Generated by graphviz version 2.38.0 (20140413.2041)
 -->
<!-- Title: core/src/uart/RingBuffer/Config.h Pages: 1 -->
<svg width="147pt" height="172pt"
 viewBox="0.00 0.00 147.00 172.00" xmlns="http://www.w3.org/2000/svg" xmlns:xlink="http://www.w3.org/1999/xlink">
<g id="graph0" class="graph" transform="scale(1 1) rotate(0) translate(4 168)">
<title>core/src/uart/RingBuffer/Config.h</title>
<polygon fill="white" stroke="none" points="-4,4 -4,-168 143,-168 143,4 -4,4"/>
<!-- Node1 -->
<g id="node1" class="node"><title>Node1</title>
<polygon fill="#bfbfbf" stroke="black" points="0,-129.5 0,-163.5 139,-163.5 139,-129.5 0,-129.5"/>
<text text-anchor="start" x="8" y="-149.9" font-family="Helvetica,sans-Serif" font-size="12.00">core/src/uart/RingBuffer</text>
<text text-anchor="middle" x="69.5" y="-136.9" font-family="Helvetica,sans-Serif" font-size="12.00">/Config.h</text>
</g>
<!-- Node2 -->
<g id="node2" class="node"><title>Node2</title>
<g id="a_node2"><a xlink:href="_ring_buffer_8h.html" target="_top" xlink:title="core/src/uart/RingBuffer\l/RingBuffer.h">
<polygon fill="white" stroke="black" points="0,-58.5 0,-92.5 139,-92.5 139,-58.5 0,-58.5"/>
<text text-anchor="start" x="8" y="-78.9" font-family="Helvetica,sans-Serif" font-size="12.00">core/src/uart/RingBuffer</text>
<text text-anchor="middle" x="69.5" y="-65.9" font-family="Helvetica,sans-Serif" font-size="12.00">/RingBuffer.h</text>
</a>
</g>
</g>
<!-- Node1&#45;&gt;Node2 -->
<g id="edge1" class="edge"><title>Node1&#45;&gt;Node2</title>
<path fill="none" stroke="midnightblue" d="M69.5,-119.247C69.5,-110.392 69.5,-100.767 69.5,-92.8958"/>
<polygon fill="midnightblue" stroke="midnightblue" points="66.0001,-119.497 69.5,-129.497 73.0001,-119.497 66.0001,-119.497"/>
</g>
<!-- Node3 -->
<g id="node3" class="node"><title>Node3</title>
<g id="a_node3"><a xlink:href="_u_a_r_t_8cpp.html" target="_top" xlink:title="core/src/uart/UART.cpp">
<polygon fill="white" stroke="black" points="0.5,-0.5 0.5,-21.5 138.5,-21.5 138.5,-0.5 0.5,-0.5"/>
<text text-anchor="middle" x="69.5" y="-7.9" font-family="Helvetica,sans-Serif" font-size="12.00">core/src/uart/UART.cpp</text>
</a>
</g>
</g>
<!-- Node2&#45;&gt;Node3 -->
<g id="edge2" class="edge"><title>Node2&#45;&gt;Node3</title>
<path fill="none" stroke="midnightblue" d="M69.5,-48.2756C69.5,-38.9065 69.5,-28.9184 69.5,-21.8"/>
<polygon fill="midnightblue" stroke="midnightblue" points="66.0001,-48.4047 69.5,-58.4047 73.0001,-48.4047 66.0001,-48.4047"/>
</g>
</g>
</svg>
