<?xml version="1.0" encoding="UTF-8" standalone="no"?>
<!DOCTYPE svg PUBLIC "-//W3C//DTD SVG 1.1//EN"
 "http://www.w3.org/Graphics/SVG/1.1/DTD/svg11.dtd">
<!-- Generated by graphviz version 2.38.0 (20140413.2041)
 -->
<!-- Title: core/src/Common.h Pages: 1 -->
<svg width="279pt" height="88pt"
 viewBox="0.00 0.00 278.50 88.00" xmlns="http://www.w3.org/2000/svg" xmlns:xlink="http://www.w3.org/1999/xlink">
<g id="graph0" class="graph" transform="scale(1 1) rotate(0) translate(4 84)">
<title>core/src/Common.h</title>
<polygon fill="white" stroke="none" points="-4,4 -4,-84 274.5,-84 274.5,4 -4,4"/>
<!-- Node0 -->
<g id="node1" class="node"><title>Node0</title>
<polygon fill="#bfbfbf" stroke="black" points="72,-58.5 72,-79.5 191,-79.5 191,-58.5 72,-58.5"/>
<text text-anchor="middle" x="131.5" y="-65.9" font-family="Helvetica,sans-Serif" font-size="12.00">core/src/Common.h</text>
</g>
<!-- Node1 -->
<g id="node2" class="node"><title>Node1</title>
<polygon fill="white" stroke="#bfbfbf" points="0,-0.5 0,-21.5 53,-21.5 53,-0.5 0,-0.5"/>
<text text-anchor="middle" x="26.5" y="-7.9" font-family="Helvetica,sans-Serif" font-size="12.00">stdlib.h</text>
</g>
<!-- Node0&#45;&gt;Node1 -->
<g id="edge1" class="edge"><title>Node0&#45;&gt;Node1</title>
<path fill="none" stroke="midnightblue" d="M113.21,-58.2455C96.7238,-49.4527 72.2648,-36.4079 53.5235,-26.4125"/>
<polygon fill="midnightblue" stroke="midnightblue" points="55.0506,-23.2604 44.58,-21.6427 51.7565,-29.4368 55.0506,-23.2604"/>
</g>
<!-- Node2 -->
<g id="node3" class="node"><title>Node2</title>
<polygon fill="white" stroke="#bfbfbf" points="71,-0.5 71,-21.5 122,-21.5 122,-0.5 71,-0.5"/>
<text text-anchor="middle" x="96.5" y="-7.9" font-family="Helvetica,sans-Serif" font-size="12.00">stdio.h</text>
</g>
<!-- Node0&#45;&gt;Node2 -->
<g id="edge2" class="edge"><title>Node0&#45;&gt;Node2</title>
<path fill="none" stroke="midnightblue" d="M125.403,-58.2455C120.585,-50.5367 113.725,-39.5598 107.897,-30.2348"/>
<polygon fill="midnightblue" stroke="midnightblue" points="110.795,-28.2677 102.527,-21.6427 104.859,-31.9777 110.795,-28.2677"/>
</g>
<!-- Node3 -->
<g id="node4" class="node"><title>Node3</title>
<polygon fill="white" stroke="#bfbfbf" points="140.5,-0.5 140.5,-21.5 194.5,-21.5 194.5,-0.5 140.5,-0.5"/>
<text text-anchor="middle" x="167.5" y="-7.9" font-family="Helvetica,sans-Serif" font-size="12.00">string.h</text>
</g>
<!-- Node0&#45;&gt;Node3 -->
<g id="edge3" class="edge"><title>Node0&#45;&gt;Node3</title>
<path fill="none" stroke="midnightblue" d="M137.771,-58.2455C142.726,-50.5367 149.783,-39.5598 155.778,-30.2348"/>
<polygon fill="midnightblue" stroke="midnightblue" points="158.838,-31.9471 161.301,-21.6427 152.949,-28.1618 158.838,-31.9471"/>
</g>
<!-- Node4 -->
<g id="node5" class="node"><title>Node4</title>
<polygon fill="white" stroke="#bfbfbf" points="212.5,-0.5 212.5,-21.5 270.5,-21.5 270.5,-0.5 212.5,-0.5"/>
<text text-anchor="middle" x="241.5" y="-7.9" font-family="Helvetica,sans-Serif" font-size="12.00">assert.h</text>
</g>
<!-- Node0&#45;&gt;Node4 -->
<g id="edge4" class="edge"><title>Node0&#45;&gt;Node4</title>
<path fill="none" stroke="midnightblue" d="M150.661,-58.2455C168.011,-49.4125 193.79,-36.2887 213.458,-26.2758"/>
<polygon fill="midnightblue" stroke="midnightblue" points="215.235,-29.2986 222.559,-21.6427 212.059,-23.0605 215.235,-29.2986"/>
</g>
</g>
</svg>
