<?xml version="1.0" encoding="UTF-8" standalone="no"?>
<!DOCTYPE svg PUBLIC "-//W3C//DTD SVG 1.1//EN"
 "http://www.w3.org/Graphics/SVG/1.1/DTD/svg11.dtd">
<!-- Generated by graphviz version 2.38.0 (20140413.2041)
 -->
<!-- Title: core/src/strings/Config.h Pages: 1 -->
<svg width="282pt" height="146pt"
 viewBox="0.00 0.00 281.50 146.00" xmlns="http://www.w3.org/2000/svg" xmlns:xlink="http://www.w3.org/1999/xlink">
<g id="graph0" class="graph" transform="scale(1 1) rotate(0) translate(4 142)">
<title>core/src/strings/Config.h</title>
<polygon fill="white" stroke="none" points="-4,4 -4,-142 277.5,-142 277.5,4 -4,4"/>
<!-- Node1 -->
<g id="node1" class="node"><title>Node1</title>
<polygon fill="#bfbfbf" stroke="black" points="50,-116.5 50,-137.5 193,-137.5 193,-116.5 50,-116.5"/>
<text text-anchor="middle" x="121.5" y="-123.9" font-family="Helvetica,sans-Serif" font-size="12.00">core/src/strings/Config.h</text>
</g>
<!-- Node2 -->
<g id="node2" class="node"><title>Node2</title>
<g id="a_node2"><a xlink:href="_strings_8h.html" target="_top" xlink:title="core/src/strings/Strings.h">
<polygon fill="white" stroke="black" points="49,-58.5 49,-79.5 194,-79.5 194,-58.5 49,-58.5"/>
<text text-anchor="middle" x="121.5" y="-65.9" font-family="Helvetica,sans-Serif" font-size="12.00">core/src/strings/Strings.h</text>
</a>
</g>
</g>
<!-- Node1&#45;&gt;Node2 -->
<g id="edge1" class="edge"><title>Node1&#45;&gt;Node2</title>
<path fill="none" stroke="midnightblue" d="M121.5,-106.158C121.5,-97.155 121.5,-86.9199 121.5,-79.6427"/>
<polygon fill="midnightblue" stroke="midnightblue" points="118,-106.246 121.5,-116.246 125,-106.246 118,-106.246"/>
</g>
<!-- Node3 -->
<g id="node3" class="node"><title>Node3</title>
<g id="a_node3"><a xlink:href="_core_8h.html" target="_top" xlink:title="core/src/Core.h">
<polygon fill="white" stroke="black" points="0,-0.5 0,-21.5 97,-21.5 97,-0.5 0,-0.5"/>
<text text-anchor="middle" x="48.5" y="-7.9" font-family="Helvetica,sans-Serif" font-size="12.00">core/src/Core.h</text>
</a>
</g>
</g>
<!-- Node2&#45;&gt;Node3 -->
<g id="edge2" class="edge"><title>Node2&#45;&gt;Node3</title>
<path fill="none" stroke="midnightblue" d="M100.549,-51.928C87.7893,-42.1397 71.9115,-29.9595 61.0699,-21.6427"/>
<polygon fill="midnightblue" stroke="midnightblue" points="98.7197,-54.9359 108.784,-58.2455 102.98,-49.3819 98.7197,-54.9359"/>
</g>
<!-- Node4 -->
<g id="node4" class="node"><title>Node4</title>
<g id="a_node4"><a xlink:href="_strings_8cpp.html" target="_top" xlink:title="core/src/strings/Strings.cpp">
<polygon fill="white" stroke="black" points="115.5,-0.5 115.5,-21.5 273.5,-21.5 273.5,-0.5 115.5,-0.5"/>
<text text-anchor="middle" x="194.5" y="-7.9" font-family="Helvetica,sans-Serif" font-size="12.00">core/src/strings/Strings.cpp</text>
</a>
</g>
</g>
<!-- Node2&#45;&gt;Node4 -->
<g id="edge3" class="edge"><title>Node2&#45;&gt;Node4</title>
<path fill="none" stroke="midnightblue" d="M142.451,-51.928C155.211,-42.1397 171.089,-29.9595 181.93,-21.6427"/>
<polygon fill="midnightblue" stroke="midnightblue" points="140.02,-49.3819 134.216,-58.2455 144.28,-54.9359 140.02,-49.3819"/>
</g>
</g>
</svg>
