<?xml version="1.0" encoding="UTF-8" standalone="no"?>
<!DOCTYPE svg PUBLIC "-//W3C//DTD SVG 1.1//EN"
 "http://www.w3.org/Graphics/SVG/1.1/DTD/svg11.dtd">
<!-- Generated by graphviz version 2.38.0 (20140413.2041)
 -->
<!-- Title: database/blocks/Blocks.h Pages: 1 -->
<svg width="444pt" height="88pt"
 viewBox="0.00 0.00 444.00 88.00" xmlns="http://www.w3.org/2000/svg" xmlns:xlink="http://www.w3.org/1999/xlink">
<g id="graph0" class="graph" transform="scale(1 1) rotate(0) translate(4 84)">
<title>database/blocks/Blocks.h</title>
<polygon fill="white" stroke="none" points="-4,4 -4,-84 440,-84 440,4 -4,4"/>
<!-- Node0 -->
<g id="node1" class="node"><title>Node0</title>
<polygon fill="#bfbfbf" stroke="black" points="156.5,-58.5 156.5,-79.5 306.5,-79.5 306.5,-58.5 156.5,-58.5"/>
<text text-anchor="middle" x="231.5" y="-65.9" font-family="Helvetica,sans-Serif" font-size="12.00">database/blocks/Blocks.h</text>
</g>
<!-- Node1 -->
<g id="node2" class="node"><title>Node1</title>
<g id="a_node2"><a xlink:href="database_2blocks_2_m_i_d_i_8h.html" target="_top" xlink:title="MIDI.h">
<polygon fill="white" stroke="black" points="0,-0.5 0,-21.5 49,-21.5 49,-0.5 0,-0.5"/>
<text text-anchor="middle" x="24.5" y="-7.9" font-family="Helvetica,sans-Serif" font-size="12.00">MIDI.h</text>
</a>
</g>
</g>
<!-- Node0&#45;&gt;Node1 -->
<g id="edge1" class="edge"><title>Node0&#45;&gt;Node1</title>
<path fill="none" stroke="midnightblue" d="M193.718,-58.4274C160.47,-49.9109 110.526,-36.8945 58.9783,-22.3612"/>
<polygon fill="midnightblue" stroke="midnightblue" points="59.9136,-18.9885 49.3382,-19.6306 58.0058,-25.7235 59.9136,-18.9885"/>
</g>
<!-- Node2 -->
<g id="node3" class="node"><title>Node2</title>
<g id="a_node3"><a xlink:href="database_2blocks_2_buttons_8h.html" target="_top" xlink:title="Buttons.h">
<polygon fill="white" stroke="black" points="67,-0.5 67,-21.5 132,-21.5 132,-0.5 67,-0.5"/>
<text text-anchor="middle" x="99.5" y="-7.9" font-family="Helvetica,sans-Serif" font-size="12.00">Buttons.h</text>
</a>
</g>
</g>
<!-- Node0&#45;&gt;Node2 -->
<g id="edge2" class="edge"><title>Node0&#45;&gt;Node2</title>
<path fill="none" stroke="midnightblue" d="M208.808,-58.3733C187.429,-49.3032 155.194,-35.6279 131.264,-25.4755"/>
<polygon fill="midnightblue" stroke="midnightblue" points="132.468,-22.1846 121.896,-21.5011 129.734,-28.6287 132.468,-22.1846"/>
</g>
<!-- Node3 -->
<g id="node4" class="node"><title>Node3</title>
<g id="a_node4"><a xlink:href="database_2blocks_2_encoders_8h.html" target="_top" xlink:title="Encoders.h">
<polygon fill="white" stroke="black" points="150.5,-0.5 150.5,-21.5 226.5,-21.5 226.5,-0.5 150.5,-0.5"/>
<text text-anchor="middle" x="188.5" y="-7.9" font-family="Helvetica,sans-Serif" font-size="12.00">Encoders.h</text>
</a>
</g>
</g>
<!-- Node0&#45;&gt;Node3 -->
<g id="edge3" class="edge"><title>Node0&#45;&gt;Node3</title>
<path fill="none" stroke="midnightblue" d="M224.01,-58.2455C217.967,-50.3761 209.31,-39.101 202.056,-29.6542"/>
<polygon fill="midnightblue" stroke="midnightblue" points="204.771,-27.4426 195.904,-21.6427 199.218,-31.7058 204.771,-27.4426"/>
</g>
<!-- Node4 -->
<g id="node5" class="node"><title>Node4</title>
<g id="a_node5"><a xlink:href="database_2blocks_2_analog_8h.html" target="_top" xlink:title="Analog.h">
<polygon fill="white" stroke="black" points="244.5,-0.5 244.5,-21.5 306.5,-21.5 306.5,-0.5 244.5,-0.5"/>
<text text-anchor="middle" x="275.5" y="-7.9" font-family="Helvetica,sans-Serif" font-size="12.00">Analog.h</text>
</a>
</g>
</g>
<!-- Node0&#45;&gt;Node4 -->
<g id="edge4" class="edge"><title>Node0&#45;&gt;Node4</title>
<path fill="none" stroke="midnightblue" d="M239.164,-58.2455C245.347,-50.3761 254.206,-39.101 261.629,-29.6542"/>
<polygon fill="midnightblue" stroke="midnightblue" points="264.497,-31.6683 267.924,-21.6427 258.993,-27.3435 264.497,-31.6683"/>
</g>
<!-- Node5 -->
<g id="node6" class="node"><title>Node5</title>
<g id="a_node6"><a xlink:href="database_2blocks_2_l_e_ds_8h.html" target="_top" xlink:title="LEDs.h">
<polygon fill="white" stroke="black" points="324.5,-0.5 324.5,-21.5 380.5,-21.5 380.5,-0.5 324.5,-0.5"/>
<text text-anchor="middle" x="352.5" y="-7.9" font-family="Helvetica,sans-Serif" font-size="12.00">LEDs.h</text>
</a>
</g>
</g>
<!-- Node0&#45;&gt;Node5 -->
<g id="edge5" class="edge"><title>Node0&#45;&gt;Node5</title>
<path fill="none" stroke="midnightblue" d="M252.301,-58.3733C271.724,-49.3838 300.922,-35.8706 322.796,-25.7471"/>
<polygon fill="midnightblue" stroke="midnightblue" points="324.366,-28.8776 331.971,-21.5011 321.426,-22.5249 324.366,-28.8776"/>
</g>
<!-- Node6 -->
<g id="node7" class="node"><title>Node6</title>
<g id="a_node7"><a xlink:href="database_2blocks_2_i_d_8h.html" target="_top" xlink:title="ID.h">
<polygon fill="white" stroke="black" points="399,-0.5 399,-21.5 436,-21.5 436,-0.5 399,-0.5"/>
<text text-anchor="middle" x="417.5" y="-7.9" font-family="Helvetica,sans-Serif" font-size="12.00">ID.h</text>
</a>
</g>
</g>
<!-- Node0&#45;&gt;Node6 -->
<g id="edge6" class="edge"><title>Node0&#45;&gt;Node6</title>
<path fill="none" stroke="midnightblue" d="M266.513,-58.4535C296.644,-50.0949 341.465,-37.321 389.278,-21.9369"/>
<polygon fill="midnightblue" stroke="midnightblue" points="390.443,-25.2386 398.877,-18.8259 388.285,-18.5796 390.443,-25.2386"/>
</g>
</g>
</svg>
