<?xml version="1.0" encoding="UTF-8" standalone="no"?>
<!DOCTYPE svg PUBLIC "-//W3C//DTD SVG 1.1//EN"
 "http://www.w3.org/Graphics/SVG/1.1/DTD/svg11.dtd">
<!-- Generated by graphviz version 2.38.0 (20140413.2041)
 -->
<!-- Title: dbms/example/database/blocks/Encoders.h Pages: 1 -->
<svg width="318pt" height="256pt"
 viewBox="0.00 0.00 318.00 256.00" xmlns="http://www.w3.org/2000/svg" xmlns:xlink="http://www.w3.org/1999/xlink">
<g id="graph0" class="graph" transform="scale(1 1) rotate(0) translate(4 252)">
<title>dbms/example/database/blocks/Encoders.h</title>
<polygon fill="white" stroke="none" points="-4,4 -4,-252 314,-252 314,4 -4,4"/>
<!-- Node1 -->
<g id="node1" class="node"><title>Node1</title>
<polygon fill="#bfbfbf" stroke="black" points="82,-213.5 82,-247.5 228,-247.5 228,-213.5 82,-213.5"/>
<text text-anchor="start" x="90" y="-233.9" font-family="Helvetica,sans-Serif" font-size="12.00">dbms/example/database</text>
<text text-anchor="middle" x="155" y="-220.9" font-family="Helvetica,sans-Serif" font-size="12.00">/blocks/Encoders.h</text>
</g>
<!-- Node2 -->
<g id="node2" class="node"><title>Node2</title>
<g id="a_node2"><a xlink:href="dbms_2example_2database_2blocks_2_blocks_8h.html" target="_top" xlink:title="dbms/example/database\l/blocks/Blocks.h">
<polygon fill="white" stroke="black" points="82,-142.5 82,-176.5 228,-176.5 228,-142.5 82,-142.5"/>
<text text-anchor="start" x="90" y="-162.9" font-family="Helvetica,sans-Serif" font-size="12.00">dbms/example/database</text>
<text text-anchor="middle" x="155" y="-149.9" font-family="Helvetica,sans-Serif" font-size="12.00">/blocks/Blocks.h</text>
</a>
</g>
</g>
<!-- Node1&#45;&gt;Node2 -->
<g id="edge1" class="edge"><title>Node1&#45;&gt;Node2</title>
<path fill="none" stroke="midnightblue" d="M155,-203.247C155,-194.392 155,-184.767 155,-176.896"/>
<polygon fill="midnightblue" stroke="midnightblue" points="151.5,-203.497 155,-213.497 158.5,-203.497 151.5,-203.497"/>
</g>
<!-- Node3 -->
<g id="node3" class="node"><title>Node3</title>
<g id="a_node3"><a xlink:href="dbms_2example_2database_2_database_8h.html" target="_top" xlink:title="dbms/example/database\l/Database.h">
<polygon fill="white" stroke="black" points="82,-71.5 82,-105.5 228,-105.5 228,-71.5 82,-71.5"/>
<text text-anchor="start" x="90" y="-91.9" font-family="Helvetica,sans-Serif" font-size="12.00">dbms/example/database</text>
<text text-anchor="middle" x="155" y="-78.9" font-family="Helvetica,sans-Serif" font-size="12.00">/Database.h</text>
</a>
</g>
</g>
<!-- Node2&#45;&gt;Node3 -->
<g id="edge2" class="edge"><title>Node2&#45;&gt;Node3</title>
<path fill="none" stroke="midnightblue" d="M155,-132.247C155,-123.392 155,-113.767 155,-105.896"/>
<polygon fill="midnightblue" stroke="midnightblue" points="151.5,-132.497 155,-142.497 158.5,-132.497 151.5,-132.497"/>
</g>
<!-- Node4 -->
<g id="node4" class="node"><title>Node4</title>
<g id="a_node4"><a xlink:href="dbms_2example_2database_2_database_8cpp.html" target="_top" xlink:title="dbms/example/database\l/Database.cpp">
<polygon fill="white" stroke="black" points="0,-0.5 0,-34.5 146,-34.5 146,-0.5 0,-0.5"/>
<text text-anchor="start" x="8" y="-20.9" font-family="Helvetica,sans-Serif" font-size="12.00">dbms/example/database</text>
<text text-anchor="middle" x="73" y="-7.9" font-family="Helvetica,sans-Serif" font-size="12.00">/Database.cpp</text>
</a>
</g>
</g>
<!-- Node3&#45;&gt;Node4 -->
<g id="edge3" class="edge"><title>Node3&#45;&gt;Node4</title>
<path fill="none" stroke="midnightblue" d="M128.187,-64.9382C116.439,-55.0523 102.918,-43.6747 92.1995,-34.6557"/>
<polygon fill="midnightblue" stroke="midnightblue" points="126.076,-67.7361 135.981,-71.4966 130.583,-62.38 126.076,-67.7361"/>
</g>
<!-- Node5 -->
<g id="node5" class="node"><title>Node5</title>
<g id="a_node5"><a xlink:href="dbms_2example_2database_2_layout_8cpp.html" target="_top" xlink:title="dbms/example/database\l/Layout.cpp">
<polygon fill="white" stroke="black" points="164,-0.5 164,-34.5 310,-34.5 310,-0.5 164,-0.5"/>
<text text-anchor="start" x="172" y="-20.9" font-family="Helvetica,sans-Serif" font-size="12.00">dbms/example/database</text>
<text text-anchor="middle" x="237" y="-7.9" font-family="Helvetica,sans-Serif" font-size="12.00">/Layout.cpp</text>
</a>
</g>
</g>
<!-- Node3&#45;&gt;Node5 -->
<g id="edge4" class="edge"><title>Node3&#45;&gt;Node5</title>
<path fill="none" stroke="midnightblue" d="M181.813,-64.9382C193.561,-55.0523 207.082,-43.6747 217.801,-34.6557"/>
<polygon fill="midnightblue" stroke="midnightblue" points="179.417,-62.38 174.019,-71.4966 183.924,-67.7361 179.417,-62.38"/>
</g>
</g>
</svg>
