<?xml version="1.0" encoding="UTF-8" standalone="no"?>
<!DOCTYPE svg PUBLIC "-//W3C//DTD SVG 1.1//EN"
 "http://www.w3.org/Graphics/SVG/1.1/DTD/svg11.dtd">
<!-- Generated by graphviz version 2.38.0 (20140413.2041)
 -->
<!-- Title: dbms/src/DataTypes.h Pages: 1 -->
<!--zoomable 630 -->
<svg id="main" version="1.1" xmlns="http://www.w3.org/2000/svg" xmlns:xlink="http://www.w3.org/1999/xlink" xml:space="preserve" onload="init(evt)">
<style type="text/css"><![CDATA[
.edge:hover path { stroke: red; }
.edge:hover polygon { stroke: red; fill: red; }
]]></style>
<script type="text/javascript"><![CDATA[
var edges = document.getElementsByTagName('g');
if (edges && edges.length) {
  for (var i=0;i<edges.length;i++) {
    if (edges[i].id.substr(0,4)=='edge') {
      edges[i].setAttribute('class','edge');
    }
  }
}
]]></script>
        <defs>
                <circle id="rim" cx="0" cy="0" r="7"/>
                <circle id="rim2" cx="0" cy="0" r="3.5"/>
                <g id="zoomPlus">
                        <use xlink:href="#rim" fill="#404040">
                                <set attributeName="fill" to="#808080" begin="zoomplus.mouseover" end="zoomplus.mouseout"/>
                        </use>
                        <path d="M-4,0h8M0,-4v8" fill="none" stroke="white" stroke-width="1.5" pointer-events="none"/>
                </g>
                <g id="zoomMin">
                        <use xlink:href="#rim" fill="#404040">
                                <set attributeName="fill" to="#808080" begin="zoomminus.mouseover" end="zoomminus.mouseout"/>
                        </use>
                        <path d="M-4,0h8" fill="none" stroke="white" stroke-width="1.5" pointer-events="none"/>
                </g>
                <g id="dirArrow">
                        <path fill="none" stroke="white" stroke-width="1.5" d="M0,-3.0v7 M-2.5,-0.5L0,-3.0L2.5,-0.5"/>
                </g>
               <g id="resetDef">
                       <use xlink:href="#rim2" fill="#404040">
                               <set attributeName="fill" to="#808080" begin="reset.mouseover" end="reset.mouseout"/>
                       </use>
               </g>
        </defs>

<script type="text/javascript">
var viewWidth = 1113;
var viewHeight = 630;
var sectionId = 'dynsection-1';
</script>
<script xlink:href="svgpan.js"/>
<svg id="graph" class="graph">
<g id="viewport">
<title>dbms/src/DataTypes.h</title>
<polygon fill="white" stroke="none" points="-4,4 -4,-626 1109,-626 1109,4 -4,4"/>
<!-- Node2 -->
<g id="node1" class="node"><title>Node2</title>
<polygon fill="#bfbfbf" stroke="black" points="496,-600.5 496,-621.5 630,-621.5 630,-600.5 496,-600.5"/>
<text text-anchor="middle" x="563" y="-607.9" font-family="Helvetica,sans-Serif" font-size="12.00">dbms/src/DataTypes.h</text>
</g>
<!-- Node3 -->
<g id="node2" class="node"><title>Node3</title>
<g id="a_node2"><a xlink:href="_d_b_m_s_8h.html" target="_top" xlink:title="dbms/src/DBMS.h">
<polygon fill="white" stroke="black" points="507,-542.5 507,-563.5 619,-563.5 619,-542.5 507,-542.5"/>
<text text-anchor="middle" x="563" y="-549.9" font-family="Helvetica,sans-Serif" font-size="12.00">dbms/src/DBMS.h</text>
</a>
</g>
</g>
<!-- Node2&#45;&gt;Node3 -->
<g id="edge1" class="edge"><title>Node2&#45;&gt;Node3</title>
<path fill="none" stroke="midnightblue" d="M563,-590.158C563,-581.155 563,-570.92 563,-563.643"/>
<polygon fill="midnightblue" stroke="midnightblue" points="559.5,-590.246 563,-600.246 566.5,-590.246 559.5,-590.246"/>
</g>
<!-- Node4 -->
<g id="node3" class="node"><title>Node4</title>
<g id="a_node3"><a xlink:href="database_2_database_8h.html" target="_top" xlink:title="database/Database.h">
<polygon fill="white" stroke="black" points="425,-484.5 425,-505.5 555,-505.5 555,-484.5 425,-484.5"/>
<text text-anchor="middle" x="490" y="-491.9" font-family="Helvetica,sans-Serif" font-size="12.00">database/Database.h</text>
</a>
</g>
</g>
<!-- Node3&#45;&gt;Node4 -->
<g id="edge2" class="edge"><title>Node3&#45;&gt;Node4</title>
<path fill="none" stroke="midnightblue" d="M542.049,-535.928C529.289,-526.14 513.411,-513.959 502.57,-505.643"/>
<polygon fill="midnightblue" stroke="midnightblue" points="540.22,-538.936 550.284,-542.246 544.48,-533.382 540.22,-538.936"/>
</g>
<!-- Node29 -->
<g id="node28" class="node"><title>Node29</title>
<g id="a_node28"><a xlink:href="_d_b_m_s_8cpp.html" target="_top" xlink:title="dbms/src/DBMS.cpp">
<polygon fill="white" stroke="black" points="573.5,-484.5 573.5,-505.5 698.5,-505.5 698.5,-484.5 573.5,-484.5"/>
<text text-anchor="middle" x="636" y="-491.9" font-family="Helvetica,sans-Serif" font-size="12.00">dbms/src/DBMS.cpp</text>
</a>
</g>
</g>
<!-- Node3&#45;&gt;Node29 -->
<g id="edge36" class="edge"><title>Node3&#45;&gt;Node29</title>
<path fill="none" stroke="midnightblue" d="M583.951,-535.928C596.711,-526.14 612.589,-513.959 623.43,-505.643"/>
<polygon fill="midnightblue" stroke="midnightblue" points="581.52,-533.382 575.716,-542.246 585.78,-538.936 581.52,-533.382"/>
</g>
<!-- Node5 -->
<g id="node4" class="node"><title>Node5</title>
<g id="a_node4"><a xlink:href="interface_2digital_2output_2leds_2_constants_8h.html" target="_top" xlink:title="interface/digital/output\l/leds/Constants.h">
<polygon fill="white" stroke="black" points="262.5,-413.5 262.5,-447.5 393.5,-447.5 393.5,-413.5 262.5,-413.5"/>
<text text-anchor="start" x="270.5" y="-433.9" font-family="Helvetica,sans-Serif" font-size="12.00">interface/digital/output</text>
<text text-anchor="middle" x="328" y="-420.9" font-family="Helvetica,sans-Serif" font-size="12.00">/leds/Constants.h</text>
</a>
</g>
</g>
<!-- Node4&#45;&gt;Node5 -->
<g id="edge3" class="edge"><title>Node4&#45;&gt;Node5</title>
<path fill="none" stroke="midnightblue" d="M455.564,-480.714C430.466,-471.032 396.336,-457.864 369.694,-447.586"/>
<polygon fill="midnightblue" stroke="midnightblue" points="454.453,-484.037 465.043,-484.371 456.973,-477.506 454.453,-484.037"/>
</g>
<!-- Node11 -->
<g id="node10" class="node"><title>Node11</title>
<g id="a_node10"><a xlink:href="_open_deck_8h.html" target="_top" xlink:title="OpenDeck.h">
<polygon fill="white" stroke="black" points="449,-213.5 449,-234.5 531,-234.5 531,-213.5 449,-213.5"/>
<text text-anchor="middle" x="490" y="-220.9" font-family="Helvetica,sans-Serif" font-size="12.00">OpenDeck.h</text>
</a>
</g>
</g>
<!-- Node4&#45;&gt;Node11 -->
<g id="edge34" class="edge"><title>Node4&#45;&gt;Node11</title>
<path fill="none" stroke="midnightblue" d="M490,-474.205C490,-420.584 490,-273.935 490,-234.74"/>
<polygon fill="midnightblue" stroke="midnightblue" points="486.5,-474.426 490,-484.426 493.5,-474.426 486.5,-474.426"/>
</g>
<!-- Node16 -->
<g id="node15" class="node"><title>Node16</title>
<g id="a_node15"><a xlink:href="interface_2analog_2_analog_8h.html" target="_top" xlink:title="interface/analog/Analog.h">
<polygon fill="white" stroke="black" points="278.5,-78 278.5,-99 427.5,-99 427.5,-78 278.5,-78"/>
<text text-anchor="middle" x="353" y="-85.4" font-family="Helvetica,sans-Serif" font-size="12.00">interface/analog/Analog.h</text>
</a>
</g>
</g>
<!-- Node4&#45;&gt;Node16 -->
<g id="edge35" class="edge"><title>Node4&#45;&gt;Node16</title>
<path fill="none" stroke="midnightblue" d="M414.893,-489.128C277.576,-478.146 0,-445.442 0,-360.5 0,-360.5 0,-360.5 0,-223 0,-160.673 194.959,-117.253 295.105,-99.0612"/>
<polygon fill="midnightblue" stroke="midnightblue" points="414.69,-492.623 424.932,-489.912 415.235,-485.644 414.69,-492.623"/>
</g>
<!-- Node27 -->
<g id="node26" class="node"><title>Node27</title>
<g id="a_node26"><a xlink:href="database_2_database_8cpp.html" target="_top" xlink:title="database/Database.cpp">
<polygon fill="white" stroke="black" points="518.5,-420 518.5,-441 661.5,-441 661.5,-420 518.5,-420"/>
<text text-anchor="middle" x="590" y="-427.4" font-family="Helvetica,sans-Serif" font-size="12.00">database/Database.cpp</text>
</a>
</g>
</g>
<!-- Node4&#45;&gt;Node27 -->
<g id="edge32" class="edge"><title>Node4&#45;&gt;Node27</title>
<path fill="none" stroke="midnightblue" d="M514.225,-478.859C532.976,-467.14 558.382,-451.261 574.485,-441.197"/>
<polygon fill="midnightblue" stroke="midnightblue" points="512.25,-475.966 505.625,-484.234 515.96,-481.902 512.25,-475.966"/>
</g>
<!-- Node28 -->
<g id="node27" class="node"><title>Node28</title>
<g id="a_node27"><a xlink:href="database_2_layout_8cpp.html" target="_top" xlink:title="database/Layout.cpp">
<polygon fill="white" stroke="black" points="680,-420 680,-441 806,-441 806,-420 680,-420"/>
<text text-anchor="middle" x="743" y="-427.4" font-family="Helvetica,sans-Serif" font-size="12.00">database/Layout.cpp</text>
</a>
</g>
</g>
<!-- Node4&#45;&gt;Node28 -->
<g id="edge33" class="edge"><title>Node4&#45;&gt;Node28</title>
<path fill="none" stroke="midnightblue" d="M538.601,-481.994C586.848,-470.075 659.85,-452.041 704.304,-441.059"/>
<polygon fill="midnightblue" stroke="midnightblue" points="537.569,-478.643 528.701,-484.44 539.248,-485.439 537.569,-478.643"/>
</g>
<!-- Node6 -->
<g id="node5" class="node"><title>Node6</title>
<g id="a_node5"><a xlink:href="_export_8h.html" target="_top" xlink:title="interface/Export.h">
<polygon fill="white" stroke="black" points="94.5,-349 94.5,-370 201.5,-370 201.5,-349 94.5,-349"/>
<text text-anchor="middle" x="148" y="-356.4" font-family="Helvetica,sans-Serif" font-size="12.00">interface/Export.h</text>
</a>
</g>
</g>
<!-- Node5&#45;&gt;Node6 -->
<g id="edge4" class="edge"><title>Node5&#45;&gt;Node6</title>
<path fill="none" stroke="midnightblue" d="M276.478,-409.75C242.502,-396.726 199.513,-380.247 172.886,-370.04"/>
<polygon fill="midnightblue" stroke="midnightblue" points="275.662,-413.185 286.252,-413.497 278.167,-406.649 275.662,-413.185"/>
</g>
<!-- Node9 -->
<g id="node8" class="node"><title>Node9</title>
<g id="a_node8"><a xlink:href="interface_2digital_2output_2leds_2_l_e_ds_8h.html" target="_top" xlink:title="interface/digital/output\l/leds/LEDs.h">
<polygon fill="white" stroke="black" points="262.5,-342.5 262.5,-376.5 393.5,-376.5 393.5,-342.5 262.5,-342.5"/>
<text text-anchor="start" x="270.5" y="-362.9" font-family="Helvetica,sans-Serif" font-size="12.00">interface/digital/output</text>
<text text-anchor="middle" x="328" y="-349.9" font-family="Helvetica,sans-Serif" font-size="12.00">/leds/LEDs.h</text>
</a>
</g>
</g>
<!-- Node5&#45;&gt;Node9 -->
<g id="edge7" class="edge"><title>Node5&#45;&gt;Node9</title>
<path fill="none" stroke="midnightblue" d="M328,-403.247C328,-394.392 328,-384.767 328,-376.896"/>
<polygon fill="midnightblue" stroke="midnightblue" points="324.5,-403.497 328,-413.497 331.5,-403.497 324.5,-403.497"/>
</g>
<!-- Node7 -->
<g id="node6" class="node"><title>Node7</title>
<g id="a_node6"><a xlink:href="_import_8h.html" target="_top" xlink:title="board/common/Import.h">
<polygon fill="white" stroke="black" points="36,-278 36,-299 176,-299 176,-278 36,-278"/>
<text text-anchor="middle" x="106" y="-285.4" font-family="Helvetica,sans-Serif" font-size="12.00">board/common/Import.h</text>
</a>
</g>
</g>
<!-- Node6&#45;&gt;Node7 -->
<g id="edge5" class="edge"><title>Node6&#45;&gt;Node7</title>
<path fill="none" stroke="midnightblue" d="M136.829,-340.148C128.774,-326.914 118.226,-309.586 111.79,-299.013"/>
<polygon fill="midnightblue" stroke="midnightblue" points="133.971,-342.184 142.16,-348.906 139.95,-338.544 133.971,-342.184"/>
</g>
<!-- Node8 -->
<g id="node7" class="node"><title>Node8</title>
<g id="a_node7"><a xlink:href="board_2common_2_common_8h.html" target="_top" xlink:title="board/common/Common.h">
<polygon fill="white" stroke="black" points="28.5,-213.5 28.5,-234.5 183.5,-234.5 183.5,-213.5 28.5,-213.5"/>
<text text-anchor="middle" x="106" y="-220.9" font-family="Helvetica,sans-Serif" font-size="12.00">board/common/Common.h</text>
</a>
</g>
</g>
<!-- Node7&#45;&gt;Node8 -->
<g id="edge6" class="edge"><title>Node7&#45;&gt;Node8</title>
<path fill="none" stroke="midnightblue" d="M106,-267.425C106,-256.557 106,-243.612 106,-234.903"/>
<polygon fill="midnightblue" stroke="midnightblue" points="102.5,-267.734 106,-277.734 109.5,-267.734 102.5,-267.734"/>
</g>
<!-- Node10 -->
<g id="node9" class="node"><title>Node10</title>
<g id="a_node9"><a xlink:href="_interface_8h.html" target="_top" xlink:title="interface/Interface.h">
<polygon fill="white" stroke="black" points="344,-278 344,-299 462,-299 462,-278 344,-278"/>
<text text-anchor="middle" x="403" y="-285.4" font-family="Helvetica,sans-Serif" font-size="12.00">interface/Interface.h</text>
</a>
</g>
</g>
<!-- Node9&#45;&gt;Node10 -->
<g id="edge8" class="edge"><title>Node9&#45;&gt;Node10</title>
<path fill="none" stroke="midnightblue" d="M352.953,-335.543C366.367,-323.202 382.203,-308.633 392.413,-299.24"/>
<polygon fill="midnightblue" stroke="midnightblue" points="350.385,-333.15 345.395,-342.497 355.124,-338.302 350.385,-333.15"/>
</g>
<!-- Node26 -->
<g id="node25" class="node"><title>Node26</title>
<g id="a_node25"><a xlink:href="interface_2digital_2output_2leds_2_l_e_ds_8cpp.html" target="_top" xlink:title="interface/digital/output\l/leds/LEDs.cpp">
<polygon fill="white" stroke="black" points="194.5,-271.5 194.5,-305.5 325.5,-305.5 325.5,-271.5 194.5,-271.5"/>
<text text-anchor="start" x="202.5" y="-291.9" font-family="Helvetica,sans-Serif" font-size="12.00">interface/digital/output</text>
<text text-anchor="middle" x="260" y="-278.9" font-family="Helvetica,sans-Serif" font-size="12.00">/leds/LEDs.cpp</text>
</a>
</g>
</g>
<!-- Node9&#45;&gt;Node26 -->
<g id="edge31" class="edge"><title>Node9&#45;&gt;Node26</title>
<path fill="none" stroke="midnightblue" d="M304.973,-335.135C295.506,-325.528 284.767,-314.632 276.158,-305.896"/>
<polygon fill="midnightblue" stroke="midnightblue" points="302.716,-337.831 312.229,-342.497 307.702,-332.917 302.716,-337.831"/>
</g>
<!-- Node10&#45;&gt;Node11 -->
<g id="edge9" class="edge"><title>Node10&#45;&gt;Node11</title>
<path fill="none" stroke="midnightblue" d="M424.971,-271.716C441.19,-260.065 462.747,-244.578 476.502,-234.697"/>
<polygon fill="midnightblue" stroke="midnightblue" points="422.673,-269.057 416.594,-277.734 426.757,-274.742 422.673,-269.057"/>
</g>
<!-- Node12 -->
<g id="node11" class="node"><title>Node12</title>
<g id="a_node11"><a xlink:href="_init_8cpp.html" target="_top" xlink:title="Init.cpp">
<polygon fill="white" stroke="black" points="429.5,-149 429.5,-170 482.5,-170 482.5,-149 429.5,-149"/>
<text text-anchor="middle" x="456" y="-156.4" font-family="Helvetica,sans-Serif" font-size="12.00">Init.cpp</text>
</a>
</g>
</g>
<!-- Node11&#45;&gt;Node12 -->
<g id="edge10" class="edge"><title>Node11&#45;&gt;Node12</title>
<path fill="none" stroke="midnightblue" d="M479.82,-204.286C473.764,-193.154 466.324,-179.478 461.387,-170.403"/>
<polygon fill="midnightblue" stroke="midnightblue" points="476.834,-206.123 484.688,-213.234 482.983,-202.777 476.834,-206.123"/>
</g>
<!-- Node13 -->
<g id="node12" class="node"><title>Node13</title>
<g id="a_node12"><a xlink:href="_sys_ex_8h.html" target="_top" xlink:title="sysex/src/SysEx.h">
<polygon fill="white" stroke="black" points="539,-149 539,-170 649,-170 649,-149 539,-149"/>
<text text-anchor="middle" x="594" y="-156.4" font-family="Helvetica,sans-Serif" font-size="12.00">sysex/src/SysEx.h</text>
</a>
</g>
</g>
<!-- Node11&#45;&gt;Node13 -->
<g id="edge11" class="edge"><title>Node11&#45;&gt;Node13</title>
<path fill="none" stroke="midnightblue" d="M509.811,-207.539C527.908,-195.852 554.293,-180.17 572.815,-170.197"/>
<polygon fill="midnightblue" stroke="midnightblue" points="507.603,-204.802 501.188,-213.234 511.461,-210.643 507.603,-204.802"/>
</g>
<!-- Node15 -->
<g id="node14" class="node"><title>Node15</title>
<g id="a_node14"><a xlink:href="interface_2digital_2input_2buttons_2_buttons_8h.html" target="_top" xlink:title="interface/digital/input\l/buttons/Buttons.h">
<polygon fill="white" stroke="black" points="674,-142.5 674,-176.5 798,-176.5 798,-142.5 674,-142.5"/>
<text text-anchor="start" x="682" y="-162.9" font-family="Helvetica,sans-Serif" font-size="12.00">interface/digital/input</text>
<text text-anchor="middle" x="736" y="-149.9" font-family="Helvetica,sans-Serif" font-size="12.00">/buttons/Buttons.h</text>
</a>
</g>
</g>
<!-- Node11&#45;&gt;Node15 -->
<g id="edge14" class="edge"><title>Node11&#45;&gt;Node15</title>
<path fill="none" stroke="midnightblue" d="M537.635,-210.898C576.494,-201.025 631.682,-187.004 673.985,-176.256"/>
<polygon fill="midnightblue" stroke="midnightblue" points="536.46,-207.585 527.63,-213.44 538.184,-214.369 536.46,-207.585"/>
</g>
<!-- Node11&#45;&gt;Node16 -->
<g id="edge24" class="edge"><title>Node11&#45;&gt;Node16</title>
<path fill="none" stroke="midnightblue" d="M438.997,-217.178C390.665,-210.487 323.126,-197.682 307,-177 287.054,-151.42 321.632,-115.918 341.098,-99.0868"/>
<polygon fill="midnightblue" stroke="midnightblue" points="438.618,-220.659 448.994,-218.514 439.545,-213.72 438.618,-220.659"/>
</g>
<!-- Node18 -->
<g id="node17" class="node"><title>Node18</title>
<g id="a_node17"><a xlink:href="_f_s_r_8cpp.html" target="_top" xlink:title="interface/analog/FSR.cpp">
<polygon fill="white" stroke="black" points="104.5,-7 104.5,-28 253.5,-28 253.5,-7 104.5,-7"/>
<text text-anchor="middle" x="179" y="-14.4" font-family="Helvetica,sans-Serif" font-size="12.00">interface/analog/FSR.cpp</text>
</a>
</g>
</g>
<!-- Node11&#45;&gt;Node18 -->
<g id="edge28" class="edge"><title>Node11&#45;&gt;Node18</title>
<path fill="none" stroke="midnightblue" d="M438.927,-220.209C397.922,-215.86 340.395,-204.835 298,-177 237.595,-137.341 196.215,-56.0909 183.295,-28.1721"/>
<polygon fill="midnightblue" stroke="midnightblue" points="438.687,-223.702 448.976,-221.177 439.358,-216.734 438.687,-223.702"/>
</g>
<!-- Node19 -->
<g id="node18" class="node"><title>Node19</title>
<g id="a_node18"><a xlink:href="_potentiometer_8cpp.html" target="_top" xlink:title="interface/analog/Potentiometer.cpp">
<polygon fill="white" stroke="black" points="452.5,-7 452.5,-28 651.5,-28 651.5,-7 452.5,-7"/>
<text text-anchor="middle" x="552" y="-14.4" font-family="Helvetica,sans-Serif" font-size="12.00">interface/analog/Potentiometer.cpp</text>
</a>
</g>
</g>
<!-- Node11&#45;&gt;Node19 -->
<g id="edge29" class="edge"><title>Node11&#45;&gt;Node19</title>
<path fill="none" stroke="midnightblue" d="M493.247,-202.952C498.356,-173.469 509.428,-116.942 526,-71 531.591,-55.5004 540.518,-38.5938 546.319,-28.2677"/>
<polygon fill="midnightblue" stroke="midnightblue" points="489.735,-202.733 491.529,-213.175 496.638,-203.893 489.735,-202.733"/>
</g>
<!-- Node23 -->
<g id="node22" class="node"><title>Node23</title>
<g id="a_node22"><a xlink:href="interface_2digital_2input_2encoders_2_encoders_8h.html" target="_top" xlink:title="interface/digital/input\l/encoders/Encoders.h">
<polygon fill="white" stroke="black" points="825.5,-142.5 825.5,-176.5 956.5,-176.5 956.5,-142.5 825.5,-142.5"/>
<text text-anchor="start" x="833.5" y="-162.9" font-family="Helvetica,sans-Serif" font-size="12.00">interface/digital/input</text>
<text text-anchor="middle" x="891" y="-149.9" font-family="Helvetica,sans-Serif" font-size="12.00">/encoders/Encoders.h</text>
</a>
</g>
</g>
<!-- Node11&#45;&gt;Node23 -->
<g id="edge25" class="edge"><title>Node11&#45;&gt;Node23</title>
<path fill="none" stroke="midnightblue" d="M541.175,-216.373C603.944,-208.061 713.53,-192.952 807,-177 813.007,-175.975 819.244,-174.855 825.484,-173.697"/>
<polygon fill="midnightblue" stroke="midnightblue" points="540.594,-212.919 531.138,-217.697 541.51,-219.859 540.594,-212.919"/>
</g>
<!-- Node25 -->
<g id="node24" class="node"><title>Node25</title>
<g id="a_node24"><a xlink:href="_open_deck_8cpp.html" target="_top" xlink:title="OpenDeck.cpp">
<polygon fill="white" stroke="black" points="316.5,-149 316.5,-170 411.5,-170 411.5,-149 316.5,-149"/>
<text text-anchor="middle" x="364" y="-156.4" font-family="Helvetica,sans-Serif" font-size="12.00">OpenDeck.cpp</text>
</a>
</g>
</g>
<!-- Node11&#45;&gt;Node25 -->
<g id="edge30" class="edge"><title>Node11&#45;&gt;Node25</title>
<path fill="none" stroke="midnightblue" d="M461.625,-208.925C437.702,-197.058 404.116,-180.399 383.227,-170.037"/>
<polygon fill="midnightblue" stroke="midnightblue" points="460.075,-212.063 470.589,-213.371 463.185,-205.792 460.075,-212.063"/>
</g>
<!-- Node13&#45;&gt;Node11 -->
<g id="edge12" class="edge"><title>Node13&#45;&gt;Node11</title>
<path fill="none" stroke="midnightblue" d="M574.524,-175.745C556.377,-187.481 529.7,-203.341 511.058,-213.371"/>
<polygon fill="midnightblue" stroke="midnightblue" points="576.741,-178.475 583.149,-170.037 572.878,-172.638 576.741,-178.475"/>
</g>
<!-- Node14 -->
<g id="node13" class="node"><title>Node14</title>
<g id="a_node13"><a xlink:href="_sys_ex_8cpp.html" target="_top" xlink:title="sysex/src/SysEx.cpp">
<polygon fill="white" stroke="black" points="535.5,-78 535.5,-99 658.5,-99 658.5,-78 535.5,-78"/>
<text text-anchor="middle" x="597" y="-85.4" font-family="Helvetica,sans-Serif" font-size="12.00">sysex/src/SysEx.cpp</text>
</a>
</g>
</g>
<!-- Node13&#45;&gt;Node14 -->
<g id="edge13" class="edge"><title>Node13&#45;&gt;Node14</title>
<path fill="none" stroke="midnightblue" d="M594.866,-138.588C595.431,-125.578 596.145,-109.175 596.586,-99.0127"/>
<polygon fill="midnightblue" stroke="midnightblue" points="591.355,-138.763 594.417,-148.906 598.348,-139.067 591.355,-138.763"/>
</g>
<!-- Node15&#45;&gt;Node16 -->
<g id="edge15" class="edge"><title>Node15&#45;&gt;Node16</title>
<path fill="none" stroke="midnightblue" d="M663.88,-143.141C661.9,-142.753 659.937,-142.371 658,-142 572.911,-125.683 474.004,-109.092 412.447,-99.0462"/>
<polygon fill="midnightblue" stroke="midnightblue" points="663.392,-146.613 673.883,-145.138 664.762,-139.748 663.392,-146.613"/>
</g>
<!-- Node20 -->
<g id="node19" class="node"><title>Node20</title>
<g id="a_node19"><a xlink:href="_digital_input_8h.html" target="_top" xlink:title="interface/digital/input\l/DigitalInput.h">
<polygon fill="white" stroke="black" points="981,-71.5 981,-105.5 1105,-105.5 1105,-71.5 981,-71.5"/>
<text text-anchor="start" x="989" y="-91.9" font-family="Helvetica,sans-Serif" font-size="12.00">interface/digital/input</text>
<text text-anchor="middle" x="1043" y="-78.9" font-family="Helvetica,sans-Serif" font-size="12.00">/DigitalInput.h</text>
</a>
</g>
</g>
<!-- Node15&#45;&gt;Node20 -->
<g id="edge20" class="edge"><title>Node15&#45;&gt;Node20</title>
<path fill="none" stroke="midnightblue" d="M808.178,-142.629C854.921,-132.305 917.092,-118.487 972,-106 974.838,-105.355 977.739,-104.692 980.67,-104.02"/>
<polygon fill="midnightblue" stroke="midnightblue" points="807.158,-139.27 798.147,-144.843 808.667,-146.105 807.158,-139.27"/>
</g>
<!-- Node22 -->
<g id="node21" class="node"><title>Node22</title>
<g id="a_node21"><a xlink:href="interface_2digital_2input_2buttons_2_buttons_8cpp.html" target="_top" xlink:title="interface/digital/input\l/buttons/Buttons.cpp">
<polygon fill="white" stroke="black" points="677,-71.5 677,-105.5 801,-105.5 801,-71.5 677,-71.5"/>
<text text-anchor="start" x="685" y="-91.9" font-family="Helvetica,sans-Serif" font-size="12.00">interface/digital/input</text>
<text text-anchor="middle" x="739" y="-78.9" font-family="Helvetica,sans-Serif" font-size="12.00">/buttons/Buttons.cpp</text>
</a>
</g>
</g>
<!-- Node15&#45;&gt;Node22 -->
<g id="edge23" class="edge"><title>Node15&#45;&gt;Node22</title>
<path fill="none" stroke="midnightblue" d="M737.141,-132.247C737.526,-123.392 737.945,-113.767 738.287,-105.896"/>
<polygon fill="midnightblue" stroke="midnightblue" points="733.634,-132.354 736.696,-142.497 740.627,-132.658 733.634,-132.354"/>
</g>
<!-- Node16&#45;&gt;Node10 -->
<g id="edge16" class="edge"><title>Node16&#45;&gt;Node10</title>
<path fill="none" stroke="midnightblue" d="M329.095,-105.174C317.358,-114.346 304.394,-127.058 298,-142 291.88,-156.301 292.231,-162.554 298,-177 316.353,-222.958 363.92,-260.735 388.228,-277.761"/>
<polygon fill="midnightblue" stroke="midnightblue" points="331.324,-107.88 337.313,-99.1399 327.181,-102.237 331.324,-107.88"/>
</g>
<!-- Node17 -->
<g id="node16" class="node"><title>Node17</title>
<g id="a_node16"><a xlink:href="interface_2analog_2_analog_8cpp.html" target="_top" xlink:title="interface/analog/Analog.cpp">
<polygon fill="white" stroke="black" points="272,-7 272,-28 434,-28 434,-7 272,-7"/>
<text text-anchor="middle" x="353" y="-14.4" font-family="Helvetica,sans-Serif" font-size="12.00">interface/analog/Analog.cpp</text>
</a>
</g>
</g>
<!-- Node16&#45;&gt;Node17 -->
<g id="edge17" class="edge"><title>Node16&#45;&gt;Node17</title>
<path fill="none" stroke="midnightblue" d="M353,-67.5882C353,-54.5781 353,-38.1754 353,-28.0127"/>
<polygon fill="midnightblue" stroke="midnightblue" points="349.5,-67.9058 353,-77.9058 356.5,-67.9059 349.5,-67.9058"/>
</g>
<!-- Node16&#45;&gt;Node18 -->
<g id="edge18" class="edge"><title>Node16&#45;&gt;Node18</title>
<path fill="none" stroke="midnightblue" d="M319.25,-74.1163C285.095,-60.572 233.146,-39.9718 202.988,-28.0127"/>
<polygon fill="midnightblue" stroke="midnightblue" points="318.22,-77.4731 328.806,-77.9058 320.8,-70.966 318.22,-77.4731"/>
</g>
<!-- Node16&#45;&gt;Node19 -->
<g id="edge19" class="edge"><title>Node16&#45;&gt;Node19</title>
<path fill="none" stroke="midnightblue" d="M390.598,-74.4635C429.64,-60.9263 489.778,-40.0745 524.565,-28.0127"/>
<polygon fill="midnightblue" stroke="midnightblue" points="388.972,-71.3229 380.67,-77.9058 391.265,-77.9366 388.972,-71.3229"/>
</g>
<!-- Node20&#45;&gt;Node10 -->
<g id="edge21" class="edge"><title>Node20&#45;&gt;Node10</title>
<path fill="none" stroke="midnightblue" d="M1027.79,-114.021C1013.94,-134.177 991.638,-161.803 965,-177 800.464,-270.867 569.599,-286.222 462.232,-287.935"/>
<polygon fill="midnightblue" stroke="midnightblue" points="1030.74,-115.894 1033.36,-105.628 1024.91,-112.02 1030.74,-115.894"/>
</g>
<!-- Node21 -->
<g id="node20" class="node"><title>Node21</title>
<g id="a_node20"><a xlink:href="_digital_input_8cpp.html" target="_top" xlink:title="interface/digital/input\l/DigitalInput.cpp">
<polygon fill="white" stroke="black" points="981,-0.5 981,-34.5 1105,-34.5 1105,-0.5 981,-0.5"/>
<text text-anchor="start" x="989" y="-20.9" font-family="Helvetica,sans-Serif" font-size="12.00">interface/digital/input</text>
<text text-anchor="middle" x="1043" y="-7.9" font-family="Helvetica,sans-Serif" font-size="12.00">/DigitalInput.cpp</text>
</a>
</g>
</g>
<!-- Node20&#45;&gt;Node21 -->
<g id="edge22" class="edge"><title>Node20&#45;&gt;Node21</title>
<path fill="none" stroke="midnightblue" d="M1043,-61.2468C1043,-52.3917 1043,-42.7667 1043,-34.8958"/>
<polygon fill="midnightblue" stroke="midnightblue" points="1039.5,-61.4965 1043,-71.4966 1046.5,-61.4966 1039.5,-61.4965"/>
</g>
<!-- Node23&#45;&gt;Node20 -->
<g id="edge26" class="edge"><title>Node23&#45;&gt;Node20</title>
<path fill="none" stroke="midnightblue" d="M935.466,-138.315C958.468,-127.873 986.155,-115.305 1007.67,-105.536"/>
<polygon fill="midnightblue" stroke="midnightblue" points="933.913,-135.176 926.254,-142.497 936.806,-141.55 933.913,-135.176"/>
</g>
<!-- Node24 -->
<g id="node23" class="node"><title>Node24</title>
<g id="a_node23"><a xlink:href="interface_2digital_2input_2encoders_2_encoders_8cpp.html" target="_top" xlink:title="interface/digital/input\l/encoders/Encoders.cpp">
<polygon fill="white" stroke="black" points="819,-71.5 819,-105.5 963,-105.5 963,-71.5 819,-71.5"/>
<text text-anchor="start" x="827" y="-91.9" font-family="Helvetica,sans-Serif" font-size="12.00">interface/digital/input</text>
<text text-anchor="middle" x="891" y="-78.9" font-family="Helvetica,sans-Serif" font-size="12.00">/encoders/Encoders.cpp</text>
</a>
</g>
</g>
<!-- Node23&#45;&gt;Node24 -->
<g id="edge27" class="edge"><title>Node23&#45;&gt;Node24</title>
<path fill="none" stroke="midnightblue" d="M891,-132.247C891,-123.392 891,-113.767 891,-105.896"/>
<polygon fill="midnightblue" stroke="midnightblue" points="887.5,-132.497 891,-142.497 894.5,-132.497 887.5,-132.497"/>
</g>
</g>
</svg>
        <g id="navigator" transform="translate(0 0)" fill="#404254">
                <rect fill="#f2f5e9" fill-opacity="0.5" stroke="#606060" stroke-width=".5" x="0" y="0" width="60" height="60"/>
                <use id="zoomplus" xlink:href="#zoomPlus" x="17" y="9" onmousedown="handleZoom(evt,'in')"/>
                <use id="zoomminus" xlink:href="#zoomMin" x="42" y="9" onmousedown="handleZoom(evt,'out')"/>
                <use id="reset" xlink:href="#resetDef" x="30" y="36" onmousedown="handleReset()"/>
                <g id="arrowUp" xlink:href="#dirArrow" transform="translate(30 24)" onmousedown="handlePan(0,-1)">
                  <use xlink:href="#rim" fill="#404040">
                        <set attributeName="fill" to="#808080" begin="arrowUp.mouseover" end="arrowUp.mouseout"/>
                  </use>
                  <path fill="none" stroke="white" stroke-width="1.5" d="M0,-3.0v7 M-2.5,-0.5L0,-3.0L2.5,-0.5"/>
                </g>
                <g id="arrowRight" xlink:href="#dirArrow" transform="rotate(90) translate(36 -43)" onmousedown="handlePan(1,0)">
                  <use xlink:href="#rim" fill="#404040">
                        <set attributeName="fill" to="#808080" begin="arrowRight.mouseover" end="arrowRight.mouseout"/>
                  </use>
                  <path fill="none" stroke="white" stroke-width="1.5" d="M0,-3.0v7 M-2.5,-0.5L0,-3.0L2.5,-0.5"/>
                </g>
                <g id="arrowDown" xlink:href="#dirArrow" transform="rotate(180) translate(-30 -48)" onmousedown="handlePan(0,1)">
                  <use xlink:href="#rim" fill="#404040">
                        <set attributeName="fill" to="#808080" begin="arrowDown.mouseover" end="arrowDown.mouseout"/>
                  </use>
                  <path fill="none" stroke="white" stroke-width="1.5" d="M0,-3.0v7 M-2.5,-0.5L0,-3.0L2.5,-0.5"/>
                </g>
                <g id="arrowLeft" xlink:href="#dirArrow" transform="rotate(270) translate(-36 17)" onmousedown="handlePan(-1,0)">
                  <use xlink:href="#rim" fill="#404040">
                        <set attributeName="fill" to="#808080" begin="arrowLeft.mouseover" end="arrowLeft.mouseout"/>
                  </use>
                  <path fill="none" stroke="white" stroke-width="1.5" d="M0,-3.0v7 M-2.5,-0.5L0,-3.0L2.5,-0.5"/>
                </g>
        </g>
        <svg viewBox="0 0 15 15" width="100%" height="30px" preserveAspectRatio="xMaxYMin meet">
         <g id="arrow_out" transform="scale(0.3 0.3)">
          <a xlink:href="dbms_2src_2_data_types_8h__dep__incl_org.svg" target="_base">
           <rect id="button" ry="5" rx="5" y="6" x="6" height="38" width="38"
                fill="#f2f5e9" fill-opacity="0.5" stroke="#606060" stroke-width="1.0"/>
           <path id="arrow"
             d="M 11.500037,31.436501 C 11.940474,20.09759 22.043105,11.32322 32.158766,21.979434 L 37.068811,17.246167 C 37.068811,17.246167 37.088388,32 37.088388,32 L 22.160133,31.978069 C 22.160133,31.978069 26.997745,27.140456 26.997745,27.140456 C 18.528582,18.264221 13.291696,25.230495 11.500037,31.436501 z"
             style="fill:#404040;"/>
          </a>
         </g>
        </svg>
</svg>
