<?xml version="1.0" encoding="UTF-8" standalone="no"?>
<!DOCTYPE svg PUBLIC "-//W3C//DTD SVG 1.1//EN"
 "http://www.w3.org/Graphics/SVG/1.1/DTD/svg11.dtd">
<!-- Generated by graphviz version 2.38.0 (20140413.2041)
 -->
<!-- Title: dbms/example/database/blocks/Blocks.h Pages: 1 -->
<svg width="444pt" height="101pt"
 viewBox="0.00 0.00 444.00 101.00" xmlns="http://www.w3.org/2000/svg" xmlns:xlink="http://www.w3.org/1999/xlink">
<g id="graph0" class="graph" transform="scale(1 1) rotate(0) translate(4 97)">
<title>dbms/example/database/blocks/Blocks.h</title>
<polygon fill="white" stroke="none" points="-4,4 -4,-97 440,-97 440,4 -4,4"/>
<!-- Node0 -->
<g id="node1" class="node"><title>Node0</title>
<polygon fill="#bfbfbf" stroke="black" points="158.5,-58.5 158.5,-92.5 304.5,-92.5 304.5,-58.5 158.5,-58.5"/>
<text text-anchor="start" x="166.5" y="-78.9" font-family="Helvetica,sans-Serif" font-size="12.00">dbms/example/database</text>
<text text-anchor="middle" x="231.5" y="-65.9" font-family="Helvetica,sans-Serif" font-size="12.00">/blocks/Blocks.h</text>
</g>
<!-- Node1 -->
<g id="node2" class="node"><title>Node1</title>
<g id="a_node2"><a xlink:href="dbms_2example_2database_2blocks_2_m_i_d_i_8h.html" target="_top" xlink:title="MIDI.h">
<polygon fill="white" stroke="black" points="0,-0.5 0,-21.5 49,-21.5 49,-0.5 0,-0.5"/>
<text text-anchor="middle" x="24.5" y="-7.9" font-family="Helvetica,sans-Serif" font-size="12.00">MIDI.h</text>
</a>
</g>
</g>
<!-- Node0&#45;&gt;Node1 -->
<g id="edge1" class="edge"><title>Node0&#45;&gt;Node1</title>
<path fill="none" stroke="midnightblue" d="M178.188,-58.4324C146.035,-48.738 104.002,-36.0569 58.7174,-22.3661"/>
<polygon fill="midnightblue" stroke="midnightblue" points="59.5923,-18.9742 49.0073,-19.43 57.5663,-25.6746 59.5923,-18.9742"/>
</g>
<!-- Node2 -->
<g id="node3" class="node"><title>Node2</title>
<g id="a_node3"><a xlink:href="dbms_2example_2database_2blocks_2_buttons_8h.html" target="_top" xlink:title="Buttons.h">
<polygon fill="white" stroke="black" points="67,-0.5 67,-21.5 132,-21.5 132,-0.5 67,-0.5"/>
<text text-anchor="middle" x="99.5" y="-7.9" font-family="Helvetica,sans-Serif" font-size="12.00">Buttons.h</text>
</a>
</g>
</g>
<!-- Node0&#45;&gt;Node2 -->
<g id="edge2" class="edge"><title>Node0&#45;&gt;Node2</title>
<path fill="none" stroke="midnightblue" d="M197.507,-58.4047C176.273,-48.3507 149.207,-35.5353 128.9,-25.9205"/>
<polygon fill="midnightblue" stroke="midnightblue" points="130.347,-22.733 119.811,-21.6169 127.351,-29.0597 130.347,-22.733"/>
</g>
<!-- Node3 -->
<g id="node4" class="node"><title>Node3</title>
<g id="a_node4"><a xlink:href="dbms_2example_2database_2blocks_2_encoders_8h.html" target="_top" xlink:title="Encoders.h">
<polygon fill="white" stroke="black" points="150.5,-0.5 150.5,-21.5 226.5,-21.5 226.5,-0.5 150.5,-0.5"/>
<text text-anchor="middle" x="188.5" y="-7.9" font-family="Helvetica,sans-Serif" font-size="12.00">Encoders.h</text>
</a>
</g>
</g>
<!-- Node0&#45;&gt;Node3 -->
<g id="edge3" class="edge"><title>Node0&#45;&gt;Node3</title>
<path fill="none" stroke="midnightblue" d="M220.426,-58.4047C214.516,-49.8147 207.22,-39.2089 201.094,-30.3058"/>
<polygon fill="midnightblue" stroke="midnightblue" points="203.794,-28.0546 195.242,-21.8 198.027,-32.0223 203.794,-28.0546"/>
</g>
<!-- Node4 -->
<g id="node5" class="node"><title>Node4</title>
<g id="a_node5"><a xlink:href="dbms_2example_2database_2blocks_2_analog_8h.html" target="_top" xlink:title="Analog.h">
<polygon fill="white" stroke="black" points="244.5,-0.5 244.5,-21.5 306.5,-21.5 306.5,-0.5 244.5,-0.5"/>
<text text-anchor="middle" x="275.5" y="-7.9" font-family="Helvetica,sans-Serif" font-size="12.00">Analog.h</text>
</a>
</g>
</g>
<!-- Node0&#45;&gt;Node4 -->
<g id="edge4" class="edge"><title>Node0&#45;&gt;Node4</title>
<path fill="none" stroke="midnightblue" d="M242.831,-58.4047C248.942,-49.7242 256.502,-38.9854 262.81,-30.0252"/>
<polygon fill="midnightblue" stroke="midnightblue" points="265.706,-31.9917 268.601,-21.8 259.982,-27.9621 265.706,-31.9917"/>
</g>
<!-- Node5 -->
<g id="node6" class="node"><title>Node5</title>
<g id="a_node6"><a xlink:href="dbms_2example_2database_2blocks_2_l_e_ds_8h.html" target="_top" xlink:title="LEDs.h">
<polygon fill="white" stroke="black" points="324.5,-0.5 324.5,-21.5 380.5,-21.5 380.5,-0.5 324.5,-0.5"/>
<text text-anchor="middle" x="352.5" y="-7.9" font-family="Helvetica,sans-Serif" font-size="12.00">LEDs.h</text>
</a>
</g>
</g>
<!-- Node0&#45;&gt;Node5 -->
<g id="edge5" class="edge"><title>Node0&#45;&gt;Node5</title>
<path fill="none" stroke="midnightblue" d="M262.661,-58.4047C281.861,-48.4872 306.263,-35.8827 324.788,-26.3138"/>
<polygon fill="midnightblue" stroke="midnightblue" points="326.603,-29.3159 333.882,-21.6169 323.391,-23.0965 326.603,-29.3159"/>
</g>
<!-- Node6 -->
<g id="node7" class="node"><title>Node6</title>
<g id="a_node7"><a xlink:href="dbms_2example_2database_2blocks_2_i_d_8h.html" target="_top" xlink:title="ID.h">
<polygon fill="white" stroke="black" points="399,-0.5 399,-21.5 436,-21.5 436,-0.5 399,-0.5"/>
<text text-anchor="middle" x="417.5" y="-7.9" font-family="Helvetica,sans-Serif" font-size="12.00">ID.h</text>
</a>
</g>
</g>
<!-- Node0&#45;&gt;Node6 -->
<g id="edge6" class="edge"><title>Node0&#45;&gt;Node6</title>
<path fill="none" stroke="midnightblue" d="M280.702,-58.4629C309.732,-48.9291 347.406,-36.434 389.275,-22.0286"/>
<polygon fill="midnightblue" stroke="midnightblue" points="390.532,-25.2973 398.844,-18.7278 388.249,-18.6799 390.532,-25.2973"/>
</g>
</g>
</svg>
