<?xml version="1.0" encoding="UTF-8" standalone="no"?>
<!DOCTYPE svg PUBLIC "-//W3C//DTD SVG 1.1//EN"
 "http://www.w3.org/Graphics/SVG/1.1/DTD/svg11.dtd">
<!-- Generated by graphviz version 2.38.0 (20140413.2041)
 -->
<!-- Title: dbms/example/database/Database.cpp Pages: 1 -->
<svg width="444pt" height="217pt"
 viewBox="0.00 0.00 444.00 217.00" xmlns="http://www.w3.org/2000/svg" xmlns:xlink="http://www.w3.org/1999/xlink">
<g id="graph0" class="graph" transform="scale(1 1) rotate(0) translate(4 213)">
<title>dbms/example/database/Database.cpp</title>
<polygon fill="white" stroke="none" points="-4,4 -4,-213 440,-213 440,4 -4,4"/>
<!-- Node0 -->
<g id="node1" class="node"><title>Node0</title>
<polygon fill="#bfbfbf" stroke="black" points="148.5,-174.5 148.5,-208.5 294.5,-208.5 294.5,-174.5 148.5,-174.5"/>
<text text-anchor="start" x="156.5" y="-194.9" font-family="Helvetica,sans-Serif" font-size="12.00">dbms/example/database</text>
<text text-anchor="middle" x="221.5" y="-181.9" font-family="Helvetica,sans-Serif" font-size="12.00">/Database.cpp</text>
</g>
<!-- Node1 -->
<g id="node2" class="node"><title>Node1</title>
<g id="a_node2"><a xlink:href="dbms_2example_2database_2_database_8h.html" target="_top" xlink:title="Database.h">
<polygon fill="white" stroke="black" points="130,-116.5 130,-137.5 207,-137.5 207,-116.5 130,-116.5"/>
<text text-anchor="middle" x="168.5" y="-123.9" font-family="Helvetica,sans-Serif" font-size="12.00">Database.h</text>
</a>
</g>
</g>
<!-- Node0&#45;&gt;Node1 -->
<g id="edge1" class="edge"><title>Node0&#45;&gt;Node1</title>
<path fill="none" stroke="midnightblue" d="M207.851,-174.405C200.337,-165.543 191.003,-154.537 183.312,-145.468"/>
<polygon fill="midnightblue" stroke="midnightblue" points="185.947,-143.163 176.81,-137.8 180.609,-147.691 185.947,-143.163"/>
</g>
<!-- Node10 -->
<g id="node11" class="node"><title>Node10</title>
<polygon fill="white" stroke="#bfbfbf" points="225,-116.5 225,-137.5 326,-137.5 326,-116.5 225,-116.5"/>
<text text-anchor="middle" x="275.5" y="-123.9" font-family="Helvetica,sans-Serif" font-size="12.00">../board/Board.h</text>
</g>
<!-- Node0&#45;&gt;Node10 -->
<g id="edge10" class="edge"><title>Node0&#45;&gt;Node10</title>
<path fill="none" stroke="midnightblue" d="M235.406,-174.405C243.063,-165.543 252.572,-154.537 260.408,-145.468"/>
<polygon fill="midnightblue" stroke="midnightblue" points="263.143,-147.655 267.033,-137.8 257.847,-143.079 263.143,-147.655"/>
</g>
<!-- Node2 -->
<g id="node3" class="node"><title>Node2</title>
<polygon fill="white" stroke="#bfbfbf" points="44,-58.5 44,-79.5 165,-79.5 165,-58.5 44,-58.5"/>
<text text-anchor="middle" x="104.5" y="-65.9" font-family="Helvetica,sans-Serif" font-size="12.00">../dbms/src/DBMS.h</text>
</g>
<!-- Node1&#45;&gt;Node2 -->
<g id="edge2" class="edge"><title>Node1&#45;&gt;Node2</title>
<path fill="none" stroke="midnightblue" d="M157.352,-116.246C147.991,-108.055 134.414,-96.1749 123.365,-86.5069"/>
<polygon fill="midnightblue" stroke="midnightblue" points="125.351,-83.5937 115.52,-79.6427 120.741,-88.8618 125.351,-83.5937"/>
</g>
<!-- Node3 -->
<g id="node4" class="node"><title>Node3</title>
<g id="a_node4"><a xlink:href="dbms_2example_2database_2blocks_2_blocks_8h.html" target="_top" xlink:title="blocks/Blocks.h">
<polygon fill="white" stroke="black" points="183.5,-58.5 183.5,-79.5 281.5,-79.5 281.5,-58.5 183.5,-58.5"/>
<text text-anchor="middle" x="232.5" y="-65.9" font-family="Helvetica,sans-Serif" font-size="12.00">blocks/Blocks.h</text>
</a>
</g>
</g>
<!-- Node1&#45;&gt;Node3 -->
<g id="edge3" class="edge"><title>Node1&#45;&gt;Node3</title>
<path fill="none" stroke="midnightblue" d="M179.648,-116.246C189.009,-108.055 202.586,-96.1749 213.635,-86.5069"/>
<polygon fill="midnightblue" stroke="midnightblue" points="216.259,-88.8618 221.48,-79.6427 211.649,-83.5937 216.259,-88.8618"/>
</g>
<!-- Node4 -->
<g id="node5" class="node"><title>Node4</title>
<g id="a_node5"><a xlink:href="dbms_2example_2database_2blocks_2_m_i_d_i_8h.html" target="_top" xlink:title="MIDI.h">
<polygon fill="white" stroke="black" points="0,-0.5 0,-21.5 49,-21.5 49,-0.5 0,-0.5"/>
<text text-anchor="middle" x="24.5" y="-7.9" font-family="Helvetica,sans-Serif" font-size="12.00">MIDI.h</text>
</a>
</g>
</g>
<!-- Node3&#45;&gt;Node4 -->
<g id="edge4" class="edge"><title>Node3&#45;&gt;Node4</title>
<path fill="none" stroke="midnightblue" d="M194.497,-58.4449C161.056,-49.94 110.823,-36.9315 59.0237,-22.3706"/>
<polygon fill="midnightblue" stroke="midnightblue" points="59.9121,-18.9846 49.3372,-19.6344 58.0092,-25.721 59.9121,-18.9846"/>
</g>
<!-- Node5 -->
<g id="node6" class="node"><title>Node5</title>
<g id="a_node6"><a xlink:href="dbms_2example_2database_2blocks_2_buttons_8h.html" target="_top" xlink:title="Buttons.h">
<polygon fill="white" stroke="black" points="67,-0.5 67,-21.5 132,-21.5 132,-0.5 67,-0.5"/>
<text text-anchor="middle" x="99.5" y="-7.9" font-family="Helvetica,sans-Serif" font-size="12.00">Buttons.h</text>
</a>
</g>
</g>
<!-- Node3&#45;&gt;Node5 -->
<g id="edge5" class="edge"><title>Node3&#45;&gt;Node5</title>
<path fill="none" stroke="midnightblue" d="M209.636,-58.3733C188.095,-49.3032 155.616,-35.6279 131.504,-25.4755"/>
<polygon fill="midnightblue" stroke="midnightblue" points="132.64,-22.156 122.065,-21.5011 129.923,-28.6075 132.64,-22.156"/>
</g>
<!-- Node6 -->
<g id="node7" class="node"><title>Node6</title>
<g id="a_node7"><a xlink:href="dbms_2example_2database_2blocks_2_encoders_8h.html" target="_top" xlink:title="Encoders.h">
<polygon fill="white" stroke="black" points="150.5,-0.5 150.5,-21.5 226.5,-21.5 226.5,-0.5 150.5,-0.5"/>
<text text-anchor="middle" x="188.5" y="-7.9" font-family="Helvetica,sans-Serif" font-size="12.00">Encoders.h</text>
</a>
</g>
</g>
<!-- Node3&#45;&gt;Node6 -->
<g id="edge6" class="edge"><title>Node3&#45;&gt;Node6</title>
<path fill="none" stroke="midnightblue" d="M224.836,-58.2455C218.653,-50.3761 209.794,-39.101 202.371,-29.6542"/>
<polygon fill="midnightblue" stroke="midnightblue" points="205.007,-27.3435 196.076,-21.6427 199.503,-31.6683 205.007,-27.3435"/>
</g>
<!-- Node7 -->
<g id="node8" class="node"><title>Node7</title>
<g id="a_node8"><a xlink:href="dbms_2example_2database_2blocks_2_analog_8h.html" target="_top" xlink:title="Analog.h">
<polygon fill="white" stroke="black" points="244.5,-0.5 244.5,-21.5 306.5,-21.5 306.5,-0.5 244.5,-0.5"/>
<text text-anchor="middle" x="275.5" y="-7.9" font-family="Helvetica,sans-Serif" font-size="12.00">Analog.h</text>
</a>
</g>
</g>
<!-- Node3&#45;&gt;Node7 -->
<g id="edge7" class="edge"><title>Node3&#45;&gt;Node7</title>
<path fill="none" stroke="midnightblue" d="M239.99,-58.2455C246.033,-50.3761 254.69,-39.101 261.944,-29.6542"/>
<polygon fill="midnightblue" stroke="midnightblue" points="264.782,-31.7058 268.096,-21.6427 259.229,-27.4426 264.782,-31.7058"/>
</g>
<!-- Node8 -->
<g id="node9" class="node"><title>Node8</title>
<g id="a_node9"><a xlink:href="dbms_2example_2database_2blocks_2_l_e_ds_8h.html" target="_top" xlink:title="LEDs.h">
<polygon fill="white" stroke="black" points="324.5,-0.5 324.5,-21.5 380.5,-21.5 380.5,-0.5 324.5,-0.5"/>
<text text-anchor="middle" x="352.5" y="-7.9" font-family="Helvetica,sans-Serif" font-size="12.00">LEDs.h</text>
</a>
</g>
</g>
<!-- Node3&#45;&gt;Node8 -->
<g id="edge8" class="edge"><title>Node3&#45;&gt;Node8</title>
<path fill="none" stroke="midnightblue" d="M253.129,-58.3733C272.392,-49.3838 301.349,-35.8706 323.042,-25.7471"/>
<polygon fill="midnightblue" stroke="midnightblue" points="324.559,-28.9017 332.14,-21.5011 321.598,-22.5584 324.559,-28.9017"/>
</g>
<!-- Node9 -->
<g id="node10" class="node"><title>Node9</title>
<g id="a_node10"><a xlink:href="dbms_2example_2database_2blocks_2_i_d_8h.html" target="_top" xlink:title="ID.h">
<polygon fill="white" stroke="black" points="399,-0.5 399,-21.5 436,-21.5 436,-0.5 399,-0.5"/>
<text text-anchor="middle" x="417.5" y="-7.9" font-family="Helvetica,sans-Serif" font-size="12.00">ID.h</text>
</a>
</g>
</g>
<!-- Node3&#45;&gt;Node9 -->
<g id="edge9" class="edge"><title>Node3&#45;&gt;Node9</title>
<path fill="none" stroke="midnightblue" d="M267.287,-58.4329C297.224,-50.0611 341.76,-37.2785 389.326,-21.9257"/>
<polygon fill="midnightblue" stroke="midnightblue" points="390.447,-25.2414 398.876,-18.8214 388.283,-18.5842 390.447,-25.2414"/>
</g>
</g>
</svg>
