<?xml version="1.0" encoding="UTF-8" standalone="no"?>
<!DOCTYPE svg PUBLIC "-//W3C//DTD SVG 1.1//EN"
 "http://www.w3.org/Graphics/SVG/1.1/DTD/svg11.dtd">
<!-- Generated by graphviz version 2.38.0 (20140413.2041)
 -->
<!-- Title: dbms/example/database/Database.h Pages: 1 -->
<svg width="318pt" height="114pt"
 viewBox="0.00 0.00 318.00 114.00" xmlns="http://www.w3.org/2000/svg" xmlns:xlink="http://www.w3.org/1999/xlink">
<g id="graph0" class="graph" transform="scale(1 1) rotate(0) translate(4 110)">
<title>dbms/example/database/Database.h</title>
<polygon fill="white" stroke="none" points="-4,4 -4,-110 314,-110 314,4 -4,4"/>
<!-- Node9 -->
<g id="node1" class="node"><title>Node9</title>
<polygon fill="#bfbfbf" stroke="black" points="82,-71.5 82,-105.5 228,-105.5 228,-71.5 82,-71.5"/>
<text text-anchor="start" x="90" y="-91.9" font-family="Helvetica,sans-Serif" font-size="12.00">dbms/example/database</text>
<text text-anchor="middle" x="155" y="-78.9" font-family="Helvetica,sans-Serif" font-size="12.00">/Database.h</text>
</g>
<!-- Node10 -->
<g id="node2" class="node"><title>Node10</title>
<g id="a_node2"><a xlink:href="dbms_2example_2database_2_database_8cpp.html" target="_top" xlink:title="dbms/example/database\l/Database.cpp">
<polygon fill="white" stroke="black" points="0,-0.5 0,-34.5 146,-34.5 146,-0.5 0,-0.5"/>
<text text-anchor="start" x="8" y="-20.9" font-family="Helvetica,sans-Serif" font-size="12.00">dbms/example/database</text>
<text text-anchor="middle" x="73" y="-7.9" font-family="Helvetica,sans-Serif" font-size="12.00">/Database.cpp</text>
</a>
</g>
</g>
<!-- Node9&#45;&gt;Node10 -->
<g id="edge1" class="edge"><title>Node9&#45;&gt;Node10</title>
<path fill="none" stroke="midnightblue" d="M128.187,-64.9382C116.439,-55.0523 102.918,-43.6747 92.1995,-34.6557"/>
<polygon fill="midnightblue" stroke="midnightblue" points="126.076,-67.7361 135.981,-71.4966 130.583,-62.38 126.076,-67.7361"/>
</g>
<!-- Node11 -->
<g id="node3" class="node"><title>Node11</title>
<g id="a_node3"><a xlink:href="dbms_2example_2database_2_layout_8cpp.html" target="_top" xlink:title="dbms/example/database\l/Layout.cpp">
<polygon fill="white" stroke="black" points="164,-0.5 164,-34.5 310,-34.5 310,-0.5 164,-0.5"/>
<text text-anchor="start" x="172" y="-20.9" font-family="Helvetica,sans-Serif" font-size="12.00">dbms/example/database</text>
<text text-anchor="middle" x="237" y="-7.9" font-family="Helvetica,sans-Serif" font-size="12.00">/Layout.cpp</text>
</a>
</g>
</g>
<!-- Node9&#45;&gt;Node11 -->
<g id="edge2" class="edge"><title>Node9&#45;&gt;Node11</title>
<path fill="none" stroke="midnightblue" d="M181.813,-64.9382C193.561,-55.0523 207.082,-43.6747 217.801,-34.6557"/>
<polygon fill="midnightblue" stroke="midnightblue" points="179.417,-62.38 174.019,-71.4966 183.924,-67.7361 179.417,-62.38"/>
</g>
</g>
</svg>
