<?xml version="1.0" encoding="UTF-8" standalone="no"?>
<!DOCTYPE svg PUBLIC "-//W3C//DTD SVG 1.1//EN"
 "http://www.w3.org/Graphics/SVG/1.1/DTD/svg11.dtd">
<!-- Generated by graphviz version 2.38.0 (20140413.2041)
 -->
<!-- Title: core/src/uart Pages: 1 -->
<svg width="128pt" height="185pt"
 viewBox="0.00 0.00 128.00 185.00" xmlns="http://www.w3.org/2000/svg" xmlns:xlink="http://www.w3.org/1999/xlink">
<g id="graph0" class="graph" transform="scale(1 1) rotate(0) translate(4 181)">
<title>core/src/uart</title>
<polygon fill="white" stroke="none" points="-4,4 -4,-181 124,-181 124,4 -4,4"/>
<g id="clust1" class="cluster"><title>clusterdir_90fd98a0ba30abf7a6068a44995d2d6b</title>
<g id="a_clust1"><a xlink:href="dir_90fd98a0ba30abf7a6068a44995d2d6b.html" target="_top" xlink:title="src">
<polygon fill="#ddddee" stroke="black" points="8,-8 8,-169 112,-169 112,-8 8,-8"/>
<text text-anchor="middle" x="60" y="-155.4" font-family="Helvetica,sans-Serif" font-size="12.00">src</text>
</a>
</g>
</g>
<g id="clust2" class="cluster"><title>clusterdir_976b578eaaabf4d5eef2b86785d01750</title>
<g id="a_clust2"><a xlink:href="dir_976b578eaaabf4d5eef2b86785d01750.html" target="_top">
<polygon fill="#eeeeff" stroke="black" points="16,-16 16,-140 104,-140 104,-16 16,-16"/>
</a>
</g>
</g>
<!-- dir_976b578eaaabf4d5eef2b86785d01750 -->
<g id="node1" class="node"><title>dir_976b578eaaabf4d5eef2b86785d01750</title>
<text text-anchor="middle" x="60" y="-110.9" font-family="Helvetica,sans-Serif" font-size="12.00">uart</text>
</g>
<!-- dir_8cec6199a8c3d5693592b0aa63e12baa -->
<g id="node2" class="node"><title>dir_8cec6199a8c3d5693592b0aa63e12baa</title>
<g id="a_node2"><a xlink:href="dir_8cec6199a8c3d5693592b0aa63e12baa.html" target="_top" xlink:title="RingBuffer">
<polygon fill="white" stroke="black" points="95.5,-60 24.5,-60 24.5,-24 95.5,-24 95.5,-60"/>
<text text-anchor="middle" x="60" y="-38.9" font-family="Helvetica,sans-Serif" font-size="12.00">RingBuffer</text>
</a>
</g>
</g>
<!-- dir_976b578eaaabf4d5eef2b86785d01750&#45;&gt;dir_8cec6199a8c3d5693592b0aa63e12baa -->
<g id="edge1" class="edge"><title>dir_976b578eaaabf4d5eef2b86785d01750&#45;&gt;dir_8cec6199a8c3d5693592b0aa63e12baa</title>
<path fill="none" stroke="black" d="M60,-95.6966C60,-87.9827 60,-78.7125 60,-70.1124"/>
<polygon fill="black" stroke="black" points="63.5001,-70.1043 60,-60.1043 56.5001,-70.1044 63.5001,-70.1043"/>
<g id="a_edge1&#45;headlabel"><a xlink:href="dir_000022_000023.html" target="_top" xlink:title="1">
<text text-anchor="middle" x="66.3393" y="-70.599" font-family="Helvetica,sans-Serif" font-size="12.00">1</text>
</a>
</g>
</g>
</g>
</svg>
