<?xml version="1.0" encoding="UTF-8" standalone="no"?>
<!DOCTYPE svg PUBLIC "-//W3C//DTD SVG 1.1//EN"
 "http://www.w3.org/Graphics/SVG/1.1/DTD/svg11.dtd">
<!-- Generated by graphviz version 2.38.0 (20140413.2041)
 -->
<!-- Title: core/src Pages: 1 -->
<svg width="544pt" height="185pt"
 viewBox="0.00 0.00 544.00 185.00" xmlns="http://www.w3.org/2000/svg" xmlns:xlink="http://www.w3.org/1999/xlink">
<g id="graph0" class="graph" transform="scale(1 1) rotate(0) translate(4 181)">
<title>core/src</title>
<polygon fill="white" stroke="none" points="-4,4 -4,-181 540,-181 540,4 -4,4"/>
<g id="clust1" class="cluster"><title>clusterdir_4270bfced15e0e73154b13468c7c9ad9</title>
<g id="a_clust1"><a xlink:href="dir_4270bfced15e0e73154b13468c7c9ad9.html" target="_top" xlink:title="core">
<polygon fill="#ddddee" stroke="black" points="8,-8 8,-169 528,-169 528,-8 8,-8"/>
<text text-anchor="middle" x="268" y="-155.4" font-family="Helvetica,sans-Serif" font-size="12.00">core</text>
</a>
</g>
</g>
<g id="clust2" class="cluster"><title>clusterdir_90fd98a0ba30abf7a6068a44995d2d6b</title>
<g id="a_clust2"><a xlink:href="dir_90fd98a0ba30abf7a6068a44995d2d6b.html" target="_top">
<polygon fill="#eeeeff" stroke="black" points="16,-16 16,-140 520,-140 520,-16 16,-16"/>
</a>
</g>
</g>
<!-- dir_90fd98a0ba30abf7a6068a44995d2d6b -->
<g id="node1" class="node"><title>dir_90fd98a0ba30abf7a6068a44995d2d6b</title>
<text text-anchor="middle" x="269" y="-110.9" font-family="Helvetica,sans-Serif" font-size="12.00">src</text>
</g>
<!-- dir_18146b52d58c60e1f1dcbc46e80360be -->
<g id="node2" class="node"><title>dir_18146b52d58c60e1f1dcbc46e80360be</title>
<g id="a_node2"><a xlink:href="dir_18146b52d58c60e1f1dcbc46e80360be.html" target="_top" xlink:title="adc">
<polygon fill="white" stroke="black" points="78,-60 24,-60 24,-24 78,-24 78,-60"/>
<text text-anchor="middle" x="51" y="-38.9" font-family="Helvetica,sans-Serif" font-size="12.00">adc</text>
</a>
</g>
</g>
<!-- dir_90fd98a0ba30abf7a6068a44995d2d6b&#45;&gt;dir_18146b52d58c60e1f1dcbc46e80360be -->
<g id="edge7" class="edge"><title>dir_90fd98a0ba30abf7a6068a44995d2d6b&#45;&gt;dir_18146b52d58c60e1f1dcbc46e80360be</title>
<path fill="none" stroke="black" d="M241.919,-106.389C206.175,-97.3655 141.519,-80.0087 88,-60 87.9007,-59.9629 87.8012,-59.9256 87.7017,-59.8882"/>
<polygon fill="black" stroke="black" points="88.8734,-56.5866 78.2908,-56.0778 86.2464,-63.075 88.8734,-56.5866"/>
<g id="a_edge7&#45;headlabel"><a xlink:href="dir_000019_000020.html" target="_top" xlink:title="1">
<text text-anchor="middle" x="93.2708" y="-52.2038" font-family="Helvetica,sans-Serif" font-size="12.00">1</text>
</a>
</g>
</g>
<!-- dir_c7021a61440feb3b3725335b0bc4c802 -->
<g id="node3" class="node"><title>dir_c7021a61440feb3b3725335b0bc4c802</title>
<g id="a_node3"><a xlink:href="dir_c7021a61440feb3b3725335b0bc4c802.html" target="_top" xlink:title="helpers">
<polygon fill="white" stroke="black" points="151.5,-60 96.5,-60 96.5,-24 151.5,-24 151.5,-60"/>
<text text-anchor="middle" x="124" y="-38.9" font-family="Helvetica,sans-Serif" font-size="12.00">helpers</text>
</a>
</g>
</g>
<!-- dir_90fd98a0ba30abf7a6068a44995d2d6b&#45;&gt;dir_c7021a61440feb3b3725335b0bc4c802 -->
<g id="edge5" class="edge"><title>dir_90fd98a0ba30abf7a6068a44995d2d6b&#45;&gt;dir_c7021a61440feb3b3725335b0bc4c802</title>
<path fill="none" stroke="black" d="M241.727,-99.8335C218.885,-88.8066 186.071,-72.9655 160.886,-60.8072"/>
<polygon fill="black" stroke="black" points="162.171,-57.541 151.644,-56.3454 159.128,-63.8449 162.171,-57.541"/>
<g id="a_edge5&#45;headlabel"><a xlink:href="dir_000019_000024.html" target="_top" xlink:title="1">
<text text-anchor="middle" x="166.643" y="-53.4468" font-family="Helvetica,sans-Serif" font-size="12.00">1</text>
</a>
</g>
</g>
<!-- dir_cdc3101b9884a34fd2553ad029a84e6e -->
<g id="node4" class="node"><title>dir_cdc3101b9884a34fd2553ad029a84e6e</title>
<g id="a_node4"><a xlink:href="dir_cdc3101b9884a34fd2553ad029a84e6e.html" target="_top" xlink:title="reset">
<polygon fill="white" stroke="black" points="224,-60 170,-60 170,-24 224,-24 224,-60"/>
<text text-anchor="middle" x="197" y="-38.9" font-family="Helvetica,sans-Serif" font-size="12.00">reset</text>
</a>
</g>
</g>
<!-- dir_90fd98a0ba30abf7a6068a44995d2d6b&#45;&gt;dir_cdc3101b9884a34fd2553ad029a84e6e -->
<g id="edge4" class="edge"><title>dir_90fd98a0ba30abf7a6068a44995d2d6b&#45;&gt;dir_cdc3101b9884a34fd2553ad029a84e6e</title>
<path fill="none" stroke="black" d="M251.202,-95.6966C242.396,-87.135 231.618,-76.6562 221.999,-67.3045"/>
<polygon fill="black" stroke="black" points="224.203,-64.5657 214.593,-60.1043 219.323,-69.5846 224.203,-64.5657"/>
<g id="a_edge4&#45;headlabel"><a xlink:href="dir_000019_000025.html" target="_top" xlink:title="1">
<text text-anchor="middle" x="228.759" y="-61.9356" font-family="Helvetica,sans-Serif" font-size="12.00">1</text>
</a>
</g>
</g>
<!-- dir_7d21b55b38b72b1d54bd85dfeabfe37c -->
<g id="node5" class="node"><title>dir_7d21b55b38b72b1d54bd85dfeabfe37c</title>
<g id="a_node5"><a xlink:href="dir_7d21b55b38b72b1d54bd85dfeabfe37c.html" target="_top" xlink:title="spi">
<polygon fill="white" stroke="black" points="296,-60 242,-60 242,-24 296,-24 296,-60"/>
<text text-anchor="middle" x="269" y="-38.9" font-family="Helvetica,sans-Serif" font-size="12.00">spi</text>
</a>
</g>
</g>
<!-- dir_90fd98a0ba30abf7a6068a44995d2d6b&#45;&gt;dir_7d21b55b38b72b1d54bd85dfeabfe37c -->
<g id="edge6" class="edge"><title>dir_90fd98a0ba30abf7a6068a44995d2d6b&#45;&gt;dir_7d21b55b38b72b1d54bd85dfeabfe37c</title>
<path fill="none" stroke="black" d="M269,-95.6966C269,-87.9827 269,-78.7125 269,-70.1124"/>
<polygon fill="black" stroke="black" points="272.5,-70.1043 269,-60.1043 265.5,-70.1044 272.5,-70.1043"/>
<g id="a_edge6&#45;headlabel"><a xlink:href="dir_000019_000026.html" target="_top" xlink:title="1">
<text text-anchor="middle" x="275.339" y="-70.599" font-family="Helvetica,sans-Serif" font-size="12.00">1</text>
</a>
</g>
</g>
<!-- dir_108e13bfe0fc33c9a4dc633aae3a34c6 -->
<g id="node6" class="node"><title>dir_108e13bfe0fc33c9a4dc633aae3a34c6</title>
<g id="a_node6"><a xlink:href="dir_108e13bfe0fc33c9a4dc633aae3a34c6.html" target="_top" xlink:title="strings">
<polygon fill="white" stroke="black" points="368,-60 314,-60 314,-24 368,-24 368,-60"/>
<text text-anchor="middle" x="341" y="-38.9" font-family="Helvetica,sans-Serif" font-size="12.00">strings</text>
</a>
</g>
</g>
<!-- dir_90fd98a0ba30abf7a6068a44995d2d6b&#45;&gt;dir_108e13bfe0fc33c9a4dc633aae3a34c6 -->
<g id="edge1" class="edge"><title>dir_90fd98a0ba30abf7a6068a44995d2d6b&#45;&gt;dir_108e13bfe0fc33c9a4dc633aae3a34c6</title>
<path fill="none" stroke="black" d="M286.798,-95.6966C295.604,-87.135 306.382,-76.6562 316.001,-67.3045"/>
<polygon fill="black" stroke="black" points="318.677,-69.5846 323.407,-60.1043 313.797,-64.5657 318.677,-69.5846"/>
<g id="a_edge1&#45;headlabel"><a xlink:href="dir_000019_000021.html" target="_top" xlink:title="1">
<text text-anchor="middle" x="318.079" y="-71.0261" font-family="Helvetica,sans-Serif" font-size="12.00">1</text>
</a>
</g>
</g>
<!-- dir_c156dfca4cbd54535b563a186a295ec9 -->
<g id="node7" class="node"><title>dir_c156dfca4cbd54535b563a186a295ec9</title>
<g id="a_node7"><a xlink:href="dir_c156dfca4cbd54535b563a186a295ec9.html" target="_top" xlink:title="timing">
<polygon fill="white" stroke="black" points="440,-60 386,-60 386,-24 440,-24 440,-60"/>
<text text-anchor="middle" x="413" y="-38.9" font-family="Helvetica,sans-Serif" font-size="12.00">timing</text>
</a>
</g>
</g>
<!-- dir_90fd98a0ba30abf7a6068a44995d2d6b&#45;&gt;dir_c156dfca4cbd54535b563a186a295ec9 -->
<g id="edge3" class="edge"><title>dir_90fd98a0ba30abf7a6068a44995d2d6b&#45;&gt;dir_c156dfca4cbd54535b563a186a295ec9</title>
<path fill="none" stroke="black" d="M296.085,-99.8335C318.769,-88.8066 351.357,-72.9655 376.368,-60.8072"/>
<polygon fill="black" stroke="black" points="378.083,-63.8652 385.547,-56.3454 375.023,-57.5696 378.083,-63.8652"/>
<g id="a_edge3&#45;headlabel"><a xlink:href="dir_000019_000027.html" target="_top" xlink:title="1">
<text text-anchor="middle" x="376.091" y="-64.8902" font-family="Helvetica,sans-Serif" font-size="12.00">1</text>
</a>
</g>
</g>
<!-- dir_976b578eaaabf4d5eef2b86785d01750 -->
<g id="node8" class="node"><title>dir_976b578eaaabf4d5eef2b86785d01750</title>
<g id="a_node8"><a xlink:href="dir_976b578eaaabf4d5eef2b86785d01750.html" target="_top" xlink:title="uart">
<polygon fill="white" stroke="red" points="512,-60 458,-60 458,-24 512,-24 512,-60"/>
<text text-anchor="middle" x="485" y="-38.9" font-family="Helvetica,sans-Serif" font-size="12.00">uart</text>
</a>
</g>
</g>
<!-- dir_90fd98a0ba30abf7a6068a44995d2d6b&#45;&gt;dir_976b578eaaabf4d5eef2b86785d01750 -->
<g id="edge2" class="edge"><title>dir_90fd98a0ba30abf7a6068a44995d2d6b&#45;&gt;dir_976b578eaaabf4d5eef2b86785d01750</title>
<path fill="none" stroke="black" d="M296.268,-106.378C330.098,-97.8602 389.587,-81.8969 448.266,-60.0042"/>
<polygon fill="black" stroke="black" points="449.561,-63.2562 457.672,-56.4399 447.081,-56.7104 449.561,-63.2562"/>
<g id="a_edge2&#45;headlabel"><a xlink:href="dir_000019_000022.html" target="_top" xlink:title="2">
<text text-anchor="middle" x="447.206" y="-64.0849" font-family="Helvetica,sans-Serif" font-size="12.00">2</text>
</a>
</g>
</g>
</g>
</svg>
