<?xml version="1.0" encoding="UTF-8" standalone="no"?>
<!DOCTYPE svg PUBLIC "-//W3C//DTD SVG 1.1//EN"
 "http://www.w3.org/Graphics/SVG/1.1/DTD/svg11.dtd">
<!-- Generated by graphviz version 2.38.0 (20140413.2041)
 -->
<!-- Title: interface/buttons Pages: 1 -->
<svg width="210pt" height="297pt"
 viewBox="0.00 0.00 210.00 297.00" xmlns="http://www.w3.org/2000/svg" xmlns:xlink="http://www.w3.org/1999/xlink">
<g id="graph0" class="graph" transform="scale(1 1) rotate(0) translate(4 293)">
<title>interface/buttons</title>
<polygon fill="white" stroke="none" points="-4,4 -4,-293 206,-293 206,4 -4,4"/>
<g id="clust1" class="cluster"><title>clusterdir_b31d54d5631803016a26f28213a41162</title>
<g id="a_clust1"><a xlink:href="dir_b31d54d5631803016a26f28213a41162.html" target="_top" xlink:title="interface">
<polygon fill="#ddddee" stroke="black" points="66,-208 66,-281 136,-281 136,-208 66,-208"/>
<text text-anchor="middle" x="101" y="-267.4" font-family="Helvetica,sans-Serif" font-size="12.00">interface</text>
</a>
</g>
</g>
<!-- dir_280a90cdc87dfe9f32254d998a14e339 -->
<g id="node1" class="node"><title>dir_280a90cdc87dfe9f32254d998a14e339</title>
<g id="a_node1"><a xlink:href="dir_280a90cdc87dfe9f32254d998a14e339.html" target="_top" xlink:title="buttons">
<polygon fill="#eeeeff" stroke="black" points="128,-252 74,-252 74,-216 128,-216 128,-252"/>
<text text-anchor="middle" x="101" y="-230.9" font-family="Helvetica,sans-Serif" font-size="12.00">buttons</text>
</a>
</g>
</g>
<!-- dir_54810e17a903f725653bf795c77b69e5 -->
<g id="node2" class="node"><title>dir_54810e17a903f725653bf795c77b69e5</title>
<g id="a_node2"><a xlink:href="dir_54810e17a903f725653bf795c77b69e5.html" target="_top" xlink:title="midi">
<polygon fill="white" stroke="red" points="54,-180 0,-180 0,-144 54,-144 54,-180"/>
<text text-anchor="middle" x="27" y="-158.9" font-family="Helvetica,sans-Serif" font-size="12.00">midi</text>
</a>
</g>
</g>
<!-- dir_280a90cdc87dfe9f32254d998a14e339&#45;&gt;dir_54810e17a903f725653bf795c77b69e5 -->
<g id="edge4" class="edge"><title>dir_280a90cdc87dfe9f32254d998a14e339&#45;&gt;dir_54810e17a903f725653bf795c77b69e5</title>
<path fill="none" stroke="black" d="M82.7079,-215.697C73.5674,-207.05 62.3599,-196.449 52.4,-187.027"/>
<polygon fill="black" stroke="black" points="54.7516,-184.434 45.0817,-180.104 49.9412,-189.519 54.7516,-184.434"/>
<g id="a_edge4&#45;headlabel"><a xlink:href="dir_000006_000009.html" target="_top" xlink:title="2">
<text text-anchor="middle" x="59.3141" y="-181.741" font-family="Helvetica,sans-Serif" font-size="12.00">2</text>
</a>
</g>
</g>
<!-- dir_f32c53f2c0f0ccaeb11076e30674d5f4 -->
<g id="node3" class="node"><title>dir_f32c53f2c0f0ccaeb11076e30674d5f4</title>
<g id="a_node3"><a xlink:href="dir_f32c53f2c0f0ccaeb11076e30674d5f4.html" target="_top" xlink:title="database">
<polygon fill="white" stroke="red" points="176,-108 110,-108 110,-72 176,-72 176,-108"/>
<text text-anchor="middle" x="143" y="-86.9" font-family="Helvetica,sans-Serif" font-size="12.00">database</text>
</a>
</g>
</g>
<!-- dir_280a90cdc87dfe9f32254d998a14e339&#45;&gt;dir_f32c53f2c0f0ccaeb11076e30674d5f4 -->
<g id="edge5" class="edge"><title>dir_280a90cdc87dfe9f32254d998a14e339&#45;&gt;dir_f32c53f2c0f0ccaeb11076e30674d5f4</title>
<path fill="none" stroke="black" d="M106.066,-215.871C113.256,-191.564 126.49,-146.819 135.01,-118.013"/>
<polygon fill="black" stroke="black" points="138.436,-118.771 137.916,-108.189 131.723,-116.786 138.436,-118.771"/>
<g id="a_edge5&#45;headlabel"><a xlink:href="dir_000006_000015.html" target="_top" xlink:title="1">
<text text-anchor="middle" x="140.139" y="-119.924" font-family="Helvetica,sans-Serif" font-size="12.00">1</text>
</a>
</g>
</g>
<!-- dir_7149141a7e3af1ee95dfb0598e371427 -->
<g id="node4" class="node"><title>dir_7149141a7e3af1ee95dfb0598e371427</title>
<g id="a_node4"><a xlink:href="dir_7149141a7e3af1ee95dfb0598e371427.html" target="_top" xlink:title="board">
<polygon fill="white" stroke="red" points="170,-36 116,-36 116,-0 170,-0 170,-36"/>
<text text-anchor="middle" x="143" y="-14.9" font-family="Helvetica,sans-Serif" font-size="12.00">board</text>
</a>
</g>
</g>
<!-- dir_280a90cdc87dfe9f32254d998a14e339&#45;&gt;dir_7149141a7e3af1ee95dfb0598e371427 -->
<g id="edge6" class="edge"><title>dir_280a90cdc87dfe9f32254d998a14e339&#45;&gt;dir_7149141a7e3af1ee95dfb0598e371427</title>
<path fill="none" stroke="black" d="M97.4304,-215.941C91.9072,-185.869 83.6287,-121.89 101,-72 104.532,-61.855 110.905,-52.1914 117.637,-43.961"/>
<polygon fill="black" stroke="black" points="120.44,-46.0723 124.396,-36.2436 115.174,-41.4602 120.44,-46.0723"/>
<g id="a_edge6&#45;headlabel"><a xlink:href="dir_000006_000000.html" target="_top" xlink:title="1">
<text text-anchor="middle" x="120.208" y="-47.547" font-family="Helvetica,sans-Serif" font-size="12.00">1</text>
</a>
</g>
</g>
<!-- dir_51f5cb6c338c8d01d37c50780c7c53b1 -->
<g id="node5" class="node"><title>dir_51f5cb6c338c8d01d37c50780c7c53b1</title>
<g id="a_node5"><a xlink:href="dir_51f5cb6c338c8d01d37c50780c7c53b1.html" target="_top" xlink:title="leds">
<polygon fill="none" stroke="black" points="202,-180 148,-180 148,-144 202,-144 202,-180"/>
<text text-anchor="middle" x="175" y="-158.9" font-family="Helvetica,sans-Serif" font-size="12.00">leds</text>
</a>
</g>
</g>
<!-- dir_280a90cdc87dfe9f32254d998a14e339&#45;&gt;dir_51f5cb6c338c8d01d37c50780c7c53b1 -->
<g id="edge7" class="edge"><title>dir_280a90cdc87dfe9f32254d998a14e339&#45;&gt;dir_51f5cb6c338c8d01d37c50780c7c53b1</title>
<path fill="none" stroke="black" d="M119.292,-215.697C128.433,-207.05 139.64,-196.449 149.6,-187.027"/>
<polygon fill="black" stroke="black" points="152.059,-189.519 156.918,-180.104 147.248,-184.434 152.059,-189.519"/>
<g id="a_edge7&#45;headlabel"><a xlink:href="dir_000006_000008.html" target="_top" xlink:title="1">
<text text-anchor="middle" x="151.399" y="-190.952" font-family="Helvetica,sans-Serif" font-size="12.00">1</text>
</a>
</g>
</g>
<!-- dir_f32c53f2c0f0ccaeb11076e30674d5f4&#45;&gt;dir_7149141a7e3af1ee95dfb0598e371427 -->
<g id="edge1" class="edge"><title>dir_f32c53f2c0f0ccaeb11076e30674d5f4&#45;&gt;dir_7149141a7e3af1ee95dfb0598e371427</title>
<path fill="none" stroke="black" d="M143,-71.6966C143,-63.9827 143,-54.7125 143,-46.1124"/>
<polygon fill="black" stroke="black" points="146.5,-46.1043 143,-36.1043 139.5,-46.1044 146.5,-46.1043"/>
<g id="a_edge1&#45;headlabel"><a xlink:href="dir_000015_000000.html" target="_top" xlink:title="2">
<text text-anchor="middle" x="149.339" y="-46.599" font-family="Helvetica,sans-Serif" font-size="12.00">2</text>
</a>
</g>
</g>
<!-- dir_51f5cb6c338c8d01d37c50780c7c53b1&#45;&gt;dir_f32c53f2c0f0ccaeb11076e30674d5f4 -->
<g id="edge2" class="edge"><title>dir_51f5cb6c338c8d01d37c50780c7c53b1&#45;&gt;dir_f32c53f2c0f0ccaeb11076e30674d5f4</title>
<path fill="none" stroke="black" d="M167.09,-143.697C163.447,-135.728 159.046,-126.1 155.006,-117.264"/>
<polygon fill="black" stroke="black" points="158.16,-115.744 150.819,-108.104 151.794,-118.654 158.16,-115.744"/>
<g id="a_edge2&#45;headlabel"><a xlink:href="dir_000008_000015.html" target="_top" xlink:title="1">
<text text-anchor="middle" x="162.237" y="-114.733" font-family="Helvetica,sans-Serif" font-size="12.00">1</text>
</a>
</g>
</g>
<!-- dir_51f5cb6c338c8d01d37c50780c7c53b1&#45;&gt;dir_7149141a7e3af1ee95dfb0598e371427 -->
<g id="edge3" class="edge"><title>dir_51f5cb6c338c8d01d37c50780c7c53b1&#45;&gt;dir_7149141a7e3af1ee95dfb0598e371427</title>
<path fill="none" stroke="black" d="M181.3,-143.773C187.001,-125.472 193.334,-95.9349 185,-72 181.468,-61.855 175.095,-52.1914 168.363,-43.961"/>
<polygon fill="black" stroke="black" points="170.826,-41.4602 161.604,-36.2436 165.56,-46.0723 170.826,-41.4602"/>
<g id="a_edge3&#45;headlabel"><a xlink:href="dir_000008_000000.html" target="_top" xlink:title="2">
<text text-anchor="middle" x="175.33" y="-39.1936" font-family="Helvetica,sans-Serif" font-size="12.00">2</text>
</a>
</g>
</g>
</g>
</svg>
