<?xml version="1.0" encoding="UTF-8" standalone="no"?>
<!DOCTYPE svg PUBLIC "-//W3C//DTD SVG 1.1//EN"
 "http://www.w3.org/Graphics/SVG/1.1/DTD/svg11.dtd">
<!-- Generated by graphviz version 2.38.0 (20140413.2041)
 -->
<!-- Title: core/src/HAL Pages: 1 -->
<svg width="254pt" height="113pt"
 viewBox="0.00 0.00 254.00 113.00" xmlns="http://www.w3.org/2000/svg" xmlns:xlink="http://www.w3.org/1999/xlink">
<g id="graph0" class="graph" transform="scale(1 1) rotate(0) translate(4 109)">
<title>core/src/HAL</title>
<polygon fill="white" stroke="none" points="-4,4 -4,-109 250,-109 250,4 -4,4"/>
<g id="clust1" class="cluster"><title>clusterdir_90fd98a0ba30abf7a6068a44995d2d6b</title>
<g id="a_clust1"><a xlink:href="dir_90fd98a0ba30abf7a6068a44995d2d6b.html" target="_top" xlink:title="src">
<polygon fill="#ddddee" stroke="black" points="8,-8 8,-97 238,-97 238,-8 8,-8"/>
<text text-anchor="middle" x="123" y="-83.4" font-family="Helvetica,sans-Serif" font-size="12.00">src</text>
</a>
</g>
</g>
<g id="clust2" class="cluster"><title>clusterdir_89f84a6580cdca5e5baa0f72a5bf395a</title>
<g id="a_clust2"><a xlink:href="dir_89f84a6580cdca5e5baa0f72a5bf395a.html" target="_top">
<polygon fill="#eeeeff" stroke="black" points="16,-16 16,-68 230,-68 230,-16 16,-16"/>
</a>
</g>
</g>
<!-- dir_89f84a6580cdca5e5baa0f72a5bf395a -->
<g id="node1" class="node"><title>dir_89f84a6580cdca5e5baa0f72a5bf395a</title>
<text text-anchor="middle" x="195" y="-38.9" font-family="Helvetica,sans-Serif" font-size="12.00">HAL</text>
</g>
<!-- dir_3b2cb0b3e75cc518a13f68be609f9887 -->
<g id="node2" class="node"><title>dir_3b2cb0b3e75cc518a13f68be609f9887</title>
<g id="a_node2"><a xlink:href="dir_3b2cb0b3e75cc518a13f68be609f9887.html" target="_top" xlink:title="avr">
<polygon fill="white" stroke="red" points="150,-60 96,-60 96,-24 150,-24 150,-60"/>
<text text-anchor="middle" x="123" y="-38.9" font-family="Helvetica,sans-Serif" font-size="12.00">avr</text>
</a>
</g>
</g>
<!-- dir_60d7ed05e6beb8d5ea2926f8d1467ad0 -->
<g id="node3" class="node"><title>dir_60d7ed05e6beb8d5ea2926f8d1467ad0</title>
<g id="a_node3"><a xlink:href="dir_60d7ed05e6beb8d5ea2926f8d1467ad0.html" target="_top" xlink:title="stm32">
<polygon fill="white" stroke="black" points="78,-60 24,-60 24,-24 78,-24 78,-60"/>
<text text-anchor="middle" x="51" y="-38.9" font-family="Helvetica,sans-Serif" font-size="12.00">stm32</text>
</a>
</g>
</g>
</g>
</svg>
