<?xml version="1.0" encoding="UTF-8" standalone="no"?>
<!DOCTYPE svg PUBLIC "-//W3C//DTD SVG 1.1//EN"
 "http://www.w3.org/Graphics/SVG/1.1/DTD/svg11.dtd">
<!-- Generated by graphviz version 2.38.0 (20140413.2041)
 -->
<!-- Title: board/v1/pins Pages: 1 -->
<svg width="94pt" height="153pt"
 viewBox="0.00 0.00 94.00 153.00" xmlns="http://www.w3.org/2000/svg" xmlns:xlink="http://www.w3.org/1999/xlink">
<g id="graph0" class="graph" transform="scale(1 1) rotate(0) translate(4 149)">
<title>board/v1/pins</title>
<polygon fill="white" stroke="none" points="-4,4 -4,-149 90,-149 90,4 -4,4"/>
<g id="clust1" class="cluster"><title>clusterdir_9a23533a482759c3bdb3651440cac7b8</title>
<g id="a_clust1"><a xlink:href="dir_9a23533a482759c3bdb3651440cac7b8.html" target="_top" xlink:title="v1">
<polygon fill="#ddddee" stroke="black" points="8,-64 8,-137 78,-137 78,-64 8,-64"/>
<text text-anchor="middle" x="43" y="-123.4" font-family="Helvetica,sans-Serif" font-size="12.00">v1</text>
</a>
</g>
</g>
<!-- dir_4f3b114bc9cedd8e593d37687041a034 -->
<g id="node1" class="node"><title>dir_4f3b114bc9cedd8e593d37687041a034</title>
<g id="a_node1"><a xlink:href="dir_4f3b114bc9cedd8e593d37687041a034.html" target="_top" xlink:title="pins">
<polygon fill="#eeeeff" stroke="black" points="70,-108 16,-108 16,-72 70,-72 70,-108"/>
<text text-anchor="middle" x="43" y="-86.9" font-family="Helvetica,sans-Serif" font-size="12.00">pins</text>
</a>
</g>
</g>
<!-- dir_42aecddf95c99456e5821fde3e019719 -->
<g id="node2" class="node"><title>dir_42aecddf95c99456e5821fde3e019719</title>
<g id="a_node2"><a xlink:href="dir_42aecddf95c99456e5821fde3e019719.html" target="_top" xlink:title="version">
<polygon fill="none" stroke="black" points="70,-36 16,-36 16,-0 70,-0 70,-36"/>
<text text-anchor="middle" x="43" y="-14.9" font-family="Helvetica,sans-Serif" font-size="12.00">version</text>
</a>
</g>
</g>
<!-- dir_4f3b114bc9cedd8e593d37687041a034&#45;&gt;dir_42aecddf95c99456e5821fde3e019719 -->
<g id="edge1" class="edge"><title>dir_4f3b114bc9cedd8e593d37687041a034&#45;&gt;dir_42aecddf95c99456e5821fde3e019719</title>
<path fill="none" stroke="black" d="M43,-71.6966C43,-63.9827 43,-54.7125 43,-46.1124"/>
<polygon fill="black" stroke="black" points="46.5001,-46.1043 43,-36.1043 39.5001,-46.1044 46.5001,-46.1043"/>
<g id="a_edge1&#45;headlabel"><a xlink:href="dir_000017_000013.html" target="_top" xlink:title="1">
<text text-anchor="middle" x="49.3393" y="-46.599" font-family="Helvetica,sans-Serif" font-size="12.00">1</text>
</a>
</g>
</g>
</g>
</svg>
