<?xml version="1.0" encoding="UTF-8" standalone="no"?>
<!DOCTYPE svg PUBLIC "-//W3C//DTD SVG 1.1//EN"
 "http://www.w3.org/Graphics/SVG/1.1/DTD/svg11.dtd">
<!-- Generated by graphviz version 2.38.0 (20140413.2041)
 -->
<!-- Title: dbms/example/database Pages: 1 -->
<svg width="122pt" height="185pt"
 viewBox="0.00 0.00 122.00 185.00" xmlns="http://www.w3.org/2000/svg" xmlns:xlink="http://www.w3.org/1999/xlink">
<g id="graph0" class="graph" transform="scale(1 1) rotate(0) translate(4 181)">
<title>dbms/example/database</title>
<polygon fill="white" stroke="none" points="-4,4 -4,-181 118,-181 118,4 -4,4"/>
<g id="clust1" class="cluster"><title>clusterdir_48bbd90174079851bc95d9efa8347208</title>
<g id="a_clust1"><a xlink:href="dir_48bbd90174079851bc95d9efa8347208.html" target="_top" xlink:title="example">
<polygon fill="#ddddee" stroke="black" points="8,-8 8,-169 106,-169 106,-8 8,-8"/>
<text text-anchor="middle" x="57" y="-155.4" font-family="Helvetica,sans-Serif" font-size="12.00">example</text>
</a>
</g>
</g>
<g id="clust2" class="cluster"><title>clusterdir_59115934f9bc3b5f0119b2fbf5270de2</title>
<g id="a_clust2"><a xlink:href="dir_59115934f9bc3b5f0119b2fbf5270de2.html" target="_top">
<polygon fill="#eeeeff" stroke="black" points="16,-16 16,-140 98,-140 98,-16 16,-16"/>
</a>
</g>
</g>
<!-- dir_59115934f9bc3b5f0119b2fbf5270de2 -->
<g id="node1" class="node"><title>dir_59115934f9bc3b5f0119b2fbf5270de2</title>
<text text-anchor="middle" x="57" y="-110.9" font-family="Helvetica,sans-Serif" font-size="12.00">database</text>
</g>
<!-- dir_73a936166dafd3165599b516378f1b94 -->
<g id="node2" class="node"><title>dir_73a936166dafd3165599b516378f1b94</title>
<g id="a_node2"><a xlink:href="dir_73a936166dafd3165599b516378f1b94.html" target="_top" xlink:title="blocks">
<polygon fill="white" stroke="black" points="84,-60 30,-60 30,-24 84,-24 84,-60"/>
<text text-anchor="middle" x="57" y="-38.9" font-family="Helvetica,sans-Serif" font-size="12.00">blocks</text>
</a>
</g>
</g>
<!-- dir_59115934f9bc3b5f0119b2fbf5270de2&#45;&gt;dir_73a936166dafd3165599b516378f1b94 -->
<g id="edge1" class="edge"><title>dir_59115934f9bc3b5f0119b2fbf5270de2&#45;&gt;dir_73a936166dafd3165599b516378f1b94</title>
<path fill="none" stroke="black" d="M57,-95.6966C57,-87.9827 57,-78.7125 57,-70.1124"/>
<polygon fill="black" stroke="black" points="60.5001,-70.1043 57,-60.1043 53.5001,-70.1044 60.5001,-70.1043"/>
<g id="a_edge1&#45;headlabel"><a xlink:href="dir_000014_000015.html" target="_top" xlink:title="1">
<text text-anchor="middle" x="63.3393" y="-70.599" font-family="Helvetica,sans-Serif" font-size="12.00">1</text>
</a>
</g>
</g>
</g>
</svg>
