<?xml version="1.0" encoding="UTF-8" standalone="no"?>
<!DOCTYPE svg PUBLIC "-//W3C//DTD SVG 1.1//EN"
 "http://www.w3.org/Graphics/SVG/1.1/DTD/svg11.dtd">
<!-- Generated by graphviz version 2.38.0 (20140413.2041)
 -->
<!-- Title: interface/analog Pages: 1 -->
<svg width="133pt" height="297pt"
 viewBox="0.00 0.00 133.00 297.00" xmlns="http://www.w3.org/2000/svg" xmlns:xlink="http://www.w3.org/1999/xlink">
<g id="graph0" class="graph" transform="scale(1 1) rotate(0) translate(4 293)">
<title>interface/analog</title>
<polygon fill="white" stroke="none" points="-4,4 -4,-293 129,-293 129,4 -4,4"/>
<g id="clust1" class="cluster"><title>clusterdir_b31d54d5631803016a26f28213a41162</title>
<g id="a_clust1"><a xlink:href="dir_b31d54d5631803016a26f28213a41162.html" target="_top" xlink:title="interface">
<polygon fill="#ddddee" stroke="black" points="8,-208 8,-281 78,-281 78,-208 8,-208"/>
<text text-anchor="middle" x="43" y="-267.4" font-family="Helvetica,sans-Serif" font-size="12.00">interface</text>
</a>
</g>
</g>
<!-- dir_c45ff4a75b9ae65f341568425e17c4ef -->
<g id="node1" class="node"><title>dir_c45ff4a75b9ae65f341568425e17c4ef</title>
<g id="a_node1"><a xlink:href="dir_c45ff4a75b9ae65f341568425e17c4ef.html" target="_top" xlink:title="analog">
<polygon fill="#eeeeff" stroke="black" points="70,-252 16,-252 16,-216 70,-216 70,-252"/>
<text text-anchor="middle" x="43" y="-230.9" font-family="Helvetica,sans-Serif" font-size="12.00">analog</text>
</a>
</g>
</g>
<!-- dir_f32c53f2c0f0ccaeb11076e30674d5f4 -->
<g id="node2" class="node"><title>dir_f32c53f2c0f0ccaeb11076e30674d5f4</title>
<g id="a_node2"><a xlink:href="dir_f32c53f2c0f0ccaeb11076e30674d5f4.html" target="_top" xlink:title="database">
<polygon fill="white" stroke="red" points="88,-108 22,-108 22,-72 88,-72 88,-108"/>
<text text-anchor="middle" x="55" y="-86.9" font-family="Helvetica,sans-Serif" font-size="12.00">database</text>
</a>
</g>
</g>
<!-- dir_c45ff4a75b9ae65f341568425e17c4ef&#45;&gt;dir_f32c53f2c0f0ccaeb11076e30674d5f4 -->
<g id="edge1" class="edge"><title>dir_c45ff4a75b9ae65f341568425e17c4ef&#45;&gt;dir_f32c53f2c0f0ccaeb11076e30674d5f4</title>
<path fill="none" stroke="black" d="M44.4475,-215.871C46.4927,-191.67 50.2498,-147.211 52.6851,-118.393"/>
<polygon fill="black" stroke="black" points="56.1928,-118.449 53.5474,-108.189 49.2177,-117.859 56.1928,-118.449"/>
<g id="a_edge1&#45;headlabel"><a xlink:href="dir_000017_000010.html" target="_top" xlink:title="1">
<text text-anchor="middle" x="58.7194" y="-119.169" font-family="Helvetica,sans-Serif" font-size="12.00">1</text>
</a>
</g>
</g>
<!-- dir_7149141a7e3af1ee95dfb0598e371427 -->
<g id="node3" class="node"><title>dir_7149141a7e3af1ee95dfb0598e371427</title>
<g id="a_node3"><a xlink:href="dir_7149141a7e3af1ee95dfb0598e371427.html" target="_top" xlink:title="board">
<polygon fill="white" stroke="red" points="82,-36 28,-36 28,-0 82,-0 82,-36"/>
<text text-anchor="middle" x="55" y="-14.9" font-family="Helvetica,sans-Serif" font-size="12.00">board</text>
</a>
</g>
</g>
<!-- dir_c45ff4a75b9ae65f341568425e17c4ef&#45;&gt;dir_7149141a7e3af1ee95dfb0598e371427 -->
<g id="edge2" class="edge"><title>dir_c45ff4a75b9ae65f341568425e17c4ef&#45;&gt;dir_7149141a7e3af1ee95dfb0598e371427</title>
<path fill="none" stroke="black" d="M34.0539,-215.641C19.8415,-185.646 -4.57681,-122.481 13,-72 16.5324,-61.855 22.9052,-52.1914 29.6367,-43.961"/>
<polygon fill="black" stroke="black" points="32.4401,-46.0723 36.3958,-36.2436 27.1742,-41.4602 32.4401,-46.0723"/>
<g id="a_edge2&#45;headlabel"><a xlink:href="dir_000017_000000.html" target="_top" xlink:title="1">
<text text-anchor="middle" x="32.2077" y="-47.547" font-family="Helvetica,sans-Serif" font-size="12.00">1</text>
</a>
</g>
</g>
<!-- dir_be57b5b1e0f35ce371d424ebd9405b5a -->
<g id="node4" class="node"><title>dir_be57b5b1e0f35ce371d424ebd9405b5a</title>
<g id="a_node4"><a xlink:href="dir_be57b5b1e0f35ce371d424ebd9405b5a.html" target="_top" xlink:title="digital">
<polygon fill="white" stroke="red" points="125,-180 71,-180 71,-144 125,-144 125,-180"/>
<text text-anchor="middle" x="98" y="-158.9" font-family="Helvetica,sans-Serif" font-size="12.00">digital</text>
</a>
</g>
</g>
<!-- dir_c45ff4a75b9ae65f341568425e17c4ef&#45;&gt;dir_be57b5b1e0f35ce371d424ebd9405b5a -->
<g id="edge3" class="edge"><title>dir_c45ff4a75b9ae65f341568425e17c4ef&#45;&gt;dir_be57b5b1e0f35ce371d424ebd9405b5a</title>
<path fill="none" stroke="black" d="M56.5955,-215.697C63.1227,-207.389 71.068,-197.277 78.2466,-188.141"/>
<polygon fill="black" stroke="black" points="81.1347,-190.13 84.5609,-180.104 75.6305,-185.805 81.1347,-190.13"/>
<g id="a_edge3&#45;headlabel"><a xlink:href="dir_000017_000019.html" target="_top" xlink:title="1">
<text text-anchor="middle" x="81.1465" y="-191.611" font-family="Helvetica,sans-Serif" font-size="12.00">1</text>
</a>
</g>
</g>
<!-- dir_f32c53f2c0f0ccaeb11076e30674d5f4&#45;&gt;dir_7149141a7e3af1ee95dfb0598e371427 -->
<g id="edge4" class="edge"><title>dir_f32c53f2c0f0ccaeb11076e30674d5f4&#45;&gt;dir_7149141a7e3af1ee95dfb0598e371427</title>
<path fill="none" stroke="black" d="M55,-71.6966C55,-63.9827 55,-54.7125 55,-46.1124"/>
<polygon fill="black" stroke="black" points="58.5001,-46.1043 55,-36.1043 51.5001,-46.1044 58.5001,-46.1043"/>
<g id="a_edge4&#45;headlabel"><a xlink:href="dir_000010_000000.html" target="_top" xlink:title="2">
<text text-anchor="middle" x="61.3393" y="-46.599" font-family="Helvetica,sans-Serif" font-size="12.00">2</text>
</a>
</g>
</g>
<!-- dir_be57b5b1e0f35ce371d424ebd9405b5a&#45;&gt;dir_f32c53f2c0f0ccaeb11076e30674d5f4 -->
<g id="edge5" class="edge"><title>dir_be57b5b1e0f35ce371d424ebd9405b5a&#45;&gt;dir_f32c53f2c0f0ccaeb11076e30674d5f4</title>
<path fill="none" stroke="black" d="M87.3708,-143.697C82.3719,-135.559 76.309,-125.689 70.7879,-116.701"/>
<polygon fill="black" stroke="black" points="73.7234,-114.793 65.5069,-108.104 67.7589,-118.457 73.7234,-114.793"/>
<g id="a_edge5&#45;headlabel"><a xlink:href="dir_000019_000010.html" target="_top" xlink:title="1">
<text text-anchor="middle" x="78.0242" y="-113.27" font-family="Helvetica,sans-Serif" font-size="12.00">1</text>
</a>
</g>
</g>
<!-- dir_be57b5b1e0f35ce371d424ebd9405b5a&#45;&gt;dir_7149141a7e3af1ee95dfb0598e371427 -->
<g id="edge6" class="edge"><title>dir_be57b5b1e0f35ce371d424ebd9405b5a&#45;&gt;dir_7149141a7e3af1ee95dfb0598e371427</title>
<path fill="none" stroke="black" d="M101.032,-143.696C103.52,-125.33 105.416,-95.7398 97,-72 93.4107,-61.875 87.0217,-52.2171 80.2928,-43.9857"/>
<polygon fill="black" stroke="black" points="82.7593,-41.4893 73.5418,-36.2655 77.4898,-46.0973 82.7593,-41.4893"/>
<g id="a_edge6&#45;headlabel"><a xlink:href="dir_000019_000000.html" target="_top" xlink:title="2">
<text text-anchor="middle" x="87.2628" y="-39.2263" font-family="Helvetica,sans-Serif" font-size="12.00">2</text>
</a>
</g>
</g>
</g>
</svg>
