<?xml version="1.0" encoding="UTF-8" standalone="no"?>
<!DOCTYPE svg PUBLIC "-//W3C//DTD SVG 1.1//EN"
 "http://www.w3.org/Graphics/SVG/1.1/DTD/svg11.dtd">
<!-- Generated by graphviz version 2.38.0 (20140413.2041)
 -->
<!-- Title: board/v1 Pages: 1 -->
<svg width="194pt" height="233pt"
 viewBox="0.00 0.00 194.00 233.00" xmlns="http://www.w3.org/2000/svg" xmlns:xlink="http://www.w3.org/1999/xlink">
<g id="graph0" class="graph" transform="scale(1 1) rotate(0) translate(4 229)">
<title>board/v1</title>
<polygon fill="white" stroke="none" points="-4,4 -4,-229 190,-229 190,4 -4,4"/>
<g id="clust1" class="cluster"><title>clusterdir_7149141a7e3af1ee95dfb0598e371427</title>
<g id="a_clust1"><a xlink:href="dir_7149141a7e3af1ee95dfb0598e371427.html" target="_top" xlink:title="board">
<polygon fill="#ddddee" stroke="black" points="8,-56 8,-217 178,-217 178,-56 8,-56"/>
<text text-anchor="middle" x="93" y="-203.4" font-family="Helvetica,sans-Serif" font-size="12.00">board</text>
</a>
</g>
</g>
<g id="clust2" class="cluster"><title>clusterdir_9a23533a482759c3bdb3651440cac7b8</title>
<g id="a_clust2"><a xlink:href="dir_9a23533a482759c3bdb3651440cac7b8.html" target="_top">
<polygon fill="#eeeeff" stroke="black" points="16,-64 16,-188 170,-188 170,-64 16,-64"/>
</a>
</g>
</g>
<!-- dir_9a23533a482759c3bdb3651440cac7b8 -->
<g id="node1" class="node"><title>dir_9a23533a482759c3bdb3651440cac7b8</title>
<text text-anchor="middle" x="96" y="-158.9" font-family="Helvetica,sans-Serif" font-size="12.00">v1</text>
</g>
<!-- dir_c5895ecdf165e0b7ada3cf357729b5a9 -->
<g id="node2" class="node"><title>dir_c5895ecdf165e0b7ada3cf357729b5a9</title>
<g id="a_node2"><a xlink:href="dir_c5895ecdf165e0b7ada3cf357729b5a9.html" target="_top" xlink:title="constants">
<polygon fill="white" stroke="black" points="90,-108 24,-108 24,-72 90,-72 90,-108"/>
<text text-anchor="middle" x="57" y="-86.9" font-family="Helvetica,sans-Serif" font-size="12.00">constants</text>
</a>
</g>
</g>
<!-- dir_9a23533a482759c3bdb3651440cac7b8&#45;&gt;dir_c5895ecdf165e0b7ada3cf357729b5a9 -->
<g id="edge2" class="edge"><title>dir_9a23533a482759c3bdb3651440cac7b8&#45;&gt;dir_c5895ecdf165e0b7ada3cf357729b5a9</title>
<path fill="none" stroke="black" d="M86.3595,-143.697C81.8729,-135.644 76.4412,-125.894 71.4759,-116.982"/>
<polygon fill="black" stroke="black" points="74.4541,-115.137 66.5296,-108.104 68.3391,-118.544 74.4541,-115.137"/>
<g id="a_edge2&#45;headlabel"><a xlink:href="dir_000001_000014.html" target="_top" xlink:title="2">
<text text-anchor="middle" x="78.6839" y="-113.795" font-family="Helvetica,sans-Serif" font-size="12.00">2</text>
</a>
</g>
</g>
<!-- dir_4f3b114bc9cedd8e593d37687041a034 -->
<g id="node3" class="node"><title>dir_4f3b114bc9cedd8e593d37687041a034</title>
<g id="a_node3"><a xlink:href="dir_4f3b114bc9cedd8e593d37687041a034.html" target="_top" xlink:title="pins">
<polygon fill="white" stroke="black" points="162,-108 108,-108 108,-72 162,-72 162,-108"/>
<text text-anchor="middle" x="135" y="-86.9" font-family="Helvetica,sans-Serif" font-size="12.00">pins</text>
</a>
</g>
</g>
<!-- dir_9a23533a482759c3bdb3651440cac7b8&#45;&gt;dir_4f3b114bc9cedd8e593d37687041a034 -->
<g id="edge1" class="edge"><title>dir_9a23533a482759c3bdb3651440cac7b8&#45;&gt;dir_4f3b114bc9cedd8e593d37687041a034</title>
<path fill="none" stroke="black" d="M105.64,-143.697C110.127,-135.644 115.559,-125.894 120.524,-116.982"/>
<polygon fill="black" stroke="black" points="123.661,-118.544 125.47,-108.104 117.546,-115.137 123.661,-118.544"/>
<g id="a_edge1&#45;headlabel"><a xlink:href="dir_000001_000017.html" target="_top" xlink:title="2">
<text text-anchor="middle" x="124.392" y="-119.965" font-family="Helvetica,sans-Serif" font-size="12.00">2</text>
</a>
</g>
</g>
<!-- dir_42aecddf95c99456e5821fde3e019719 -->
<g id="node4" class="node"><title>dir_42aecddf95c99456e5821fde3e019719</title>
<g id="a_node4"><a xlink:href="dir_42aecddf95c99456e5821fde3e019719.html" target="_top" xlink:title="version">
<polygon fill="none" stroke="black" points="162,-36 108,-36 108,-0 162,-0 162,-36"/>
<text text-anchor="middle" x="135" y="-14.9" font-family="Helvetica,sans-Serif" font-size="12.00">version</text>
</a>
</g>
</g>
<!-- dir_4f3b114bc9cedd8e593d37687041a034&#45;&gt;dir_42aecddf95c99456e5821fde3e019719 -->
<g id="edge3" class="edge"><title>dir_4f3b114bc9cedd8e593d37687041a034&#45;&gt;dir_42aecddf95c99456e5821fde3e019719</title>
<path fill="none" stroke="black" d="M135,-71.6966C135,-63.9827 135,-54.7125 135,-46.1124"/>
<polygon fill="black" stroke="black" points="138.5,-46.1043 135,-36.1043 131.5,-46.1044 138.5,-46.1043"/>
<g id="a_edge3&#45;headlabel"><a xlink:href="dir_000017_000013.html" target="_top" xlink:title="1">
<text text-anchor="middle" x="141.339" y="-46.599" font-family="Helvetica,sans-Serif" font-size="12.00">1</text>
</a>
</g>
</g>
</g>
</svg>
