<?xml version="1.0" encoding="UTF-8" standalone="no"?>
<!DOCTYPE svg PUBLIC "-//W3C//DTD SVG 1.1//EN"
 "http://www.w3.org/Graphics/SVG/1.1/DTD/svg11.dtd">
<!-- Generated by graphviz version 2.38.0 (20140413.2041)
 -->
<!-- Title: interface/encoders Pages: 1 -->
<svg width="170pt" height="225pt"
 viewBox="0.00 0.00 170.00 225.00" xmlns="http://www.w3.org/2000/svg" xmlns:xlink="http://www.w3.org/1999/xlink">
<g id="graph0" class="graph" transform="scale(1 1) rotate(0) translate(4 221)">
<title>interface/encoders</title>
<polygon fill="white" stroke="none" points="-4,4 -4,-221 166,-221 166,4 -4,4"/>
<g id="clust1" class="cluster"><title>clusterdir_b31d54d5631803016a26f28213a41162</title>
<g id="a_clust1"><a xlink:href="dir_b31d54d5631803016a26f28213a41162.html" target="_top" xlink:title="interface">
<polygon fill="#ddddee" stroke="black" points="64,-136 64,-209 146,-209 146,-136 64,-136"/>
<text text-anchor="middle" x="105" y="-195.4" font-family="Helvetica,sans-Serif" font-size="12.00">interface</text>
</a>
</g>
</g>
<!-- dir_5a8cb9948fb345aa65aa54ec473ff404 -->
<g id="node1" class="node"><title>dir_5a8cb9948fb345aa65aa54ec473ff404</title>
<g id="a_node1"><a xlink:href="dir_5a8cb9948fb345aa65aa54ec473ff404.html" target="_top" xlink:title="encoders">
<polygon fill="#eeeeff" stroke="black" points="137.5,-180 72.5,-180 72.5,-144 137.5,-144 137.5,-180"/>
<text text-anchor="middle" x="105" y="-158.9" font-family="Helvetica,sans-Serif" font-size="12.00">encoders</text>
</a>
</g>
</g>
<!-- dir_54810e17a903f725653bf795c77b69e5 -->
<g id="node2" class="node"><title>dir_54810e17a903f725653bf795c77b69e5</title>
<g id="a_node2"><a xlink:href="dir_54810e17a903f725653bf795c77b69e5.html" target="_top" xlink:title="midi">
<polygon fill="white" stroke="red" points="54,-108 0,-108 0,-72 54,-72 54,-108"/>
<text text-anchor="middle" x="27" y="-86.9" font-family="Helvetica,sans-Serif" font-size="12.00">midi</text>
</a>
</g>
</g>
<!-- dir_5a8cb9948fb345aa65aa54ec473ff404&#45;&gt;dir_54810e17a903f725653bf795c77b69e5 -->
<g id="edge2" class="edge"><title>dir_5a8cb9948fb345aa65aa54ec473ff404&#45;&gt;dir_54810e17a903f725653bf795c77b69e5</title>
<path fill="none" stroke="black" d="M85.7191,-143.697C76.0846,-135.05 64.2712,-124.449 53.773,-115.027"/>
<polygon fill="black" stroke="black" points="55.8393,-112.179 46.0591,-108.104 51.1639,-117.388 55.8393,-112.179"/>
<g id="a_edge2&#45;headlabel"><a xlink:href="dir_000007_000009.html" target="_top" xlink:title="1">
<text text-anchor="middle" x="60.4109" y="-109.366" font-family="Helvetica,sans-Serif" font-size="12.00">1</text>
</a>
</g>
</g>
<!-- dir_f32c53f2c0f0ccaeb11076e30674d5f4 -->
<g id="node3" class="node"><title>dir_f32c53f2c0f0ccaeb11076e30674d5f4</title>
<g id="a_node3"><a xlink:href="dir_f32c53f2c0f0ccaeb11076e30674d5f4.html" target="_top" xlink:title="database">
<polygon fill="white" stroke="red" points="138,-108 72,-108 72,-72 138,-72 138,-108"/>
<text text-anchor="middle" x="105" y="-86.9" font-family="Helvetica,sans-Serif" font-size="12.00">database</text>
</a>
</g>
</g>
<!-- dir_5a8cb9948fb345aa65aa54ec473ff404&#45;&gt;dir_f32c53f2c0f0ccaeb11076e30674d5f4 -->
<g id="edge3" class="edge"><title>dir_5a8cb9948fb345aa65aa54ec473ff404&#45;&gt;dir_f32c53f2c0f0ccaeb11076e30674d5f4</title>
<path fill="none" stroke="black" d="M105,-143.697C105,-135.983 105,-126.712 105,-118.112"/>
<polygon fill="black" stroke="black" points="108.5,-118.104 105,-108.104 101.5,-118.104 108.5,-118.104"/>
<g id="a_edge3&#45;headlabel"><a xlink:href="dir_000007_000015.html" target="_top" xlink:title="1">
<text text-anchor="middle" x="111.339" y="-118.599" font-family="Helvetica,sans-Serif" font-size="12.00">1</text>
</a>
</g>
</g>
<!-- dir_7149141a7e3af1ee95dfb0598e371427 -->
<g id="node4" class="node"><title>dir_7149141a7e3af1ee95dfb0598e371427</title>
<g id="a_node4"><a xlink:href="dir_7149141a7e3af1ee95dfb0598e371427.html" target="_top" xlink:title="board">
<polygon fill="white" stroke="red" points="162,-36 108,-36 108,-0 162,-0 162,-36"/>
<text text-anchor="middle" x="135" y="-14.9" font-family="Helvetica,sans-Serif" font-size="12.00">board</text>
</a>
</g>
</g>
<!-- dir_5a8cb9948fb345aa65aa54ec473ff404&#45;&gt;dir_7149141a7e3af1ee95dfb0598e371427 -->
<g id="edge4" class="edge"><title>dir_5a8cb9948fb345aa65aa54ec473ff404&#45;&gt;dir_7149141a7e3af1ee95dfb0598e371427</title>
<path fill="none" stroke="black" d="M123.604,-143.756C132.531,-134.198 142.29,-121.527 147,-108 154.018,-87.8434 150.099,-63.7944 144.933,-45.7796"/>
<polygon fill="black" stroke="black" points="148.257,-44.683 141.909,-36.2007 141.582,-46.7905 148.257,-44.683"/>
<g id="a_edge4&#45;headlabel"><a xlink:href="dir_000007_000000.html" target="_top" xlink:title="1">
<text text-anchor="middle" x="152.047" y="-44.156" font-family="Helvetica,sans-Serif" font-size="12.00">1</text>
</a>
</g>
</g>
<!-- dir_f32c53f2c0f0ccaeb11076e30674d5f4&#45;&gt;dir_7149141a7e3af1ee95dfb0598e371427 -->
<g id="edge1" class="edge"><title>dir_f32c53f2c0f0ccaeb11076e30674d5f4&#45;&gt;dir_7149141a7e3af1ee95dfb0598e371427</title>
<path fill="none" stroke="black" d="M112.416,-71.6966C115.794,-63.8132 119.87,-54.3042 123.623,-45.5464"/>
<polygon fill="black" stroke="black" points="126.947,-46.6745 127.67,-36.1043 120.513,-43.9171 126.947,-46.6745"/>
<g id="a_edge1&#45;headlabel"><a xlink:href="dir_000015_000000.html" target="_top" xlink:title="2">
<text text-anchor="middle" x="128.141" y="-47.9969" font-family="Helvetica,sans-Serif" font-size="12.00">2</text>
</a>
</g>
</g>
</g>
</svg>
