<?xml version="1.0" encoding="UTF-8" standalone="no"?>
<!DOCTYPE svg PUBLIC "-//W3C//DTD SVG 1.1//EN"
 "http://www.w3.org/Graphics/SVG/1.1/DTD/svg11.dtd">
<!-- Generated by graphviz version 2.38.0 (20140413.2041)
 -->
<!-- Title: interface Pages: 1 -->
<svg width="191pt" height="348pt"
 viewBox="0.00 0.00 191.00 348.00" xmlns="http://www.w3.org/2000/svg" xmlns:xlink="http://www.w3.org/1999/xlink">
<g id="graph0" class="graph" transform="scale(1 1) rotate(0) translate(4 344)">
<title>interface</title>
<polygon fill="white" stroke="none" points="-4,4 -4,-344 187,-344 187,4 -4,4"/>
<g id="clust1" class="cluster"><title>clusterdir_b31d54d5631803016a26f28213a41162</title>
<g id="a_clust1"><a xlink:href="dir_b31d54d5631803016a26f28213a41162.html" target="_top">
<polygon fill="#eeeeff" stroke="black" points="43,-136 43,-332 121,-332 121,-136 43,-136"/>
</a>
</g>
</g>
<!-- dir_b31d54d5631803016a26f28213a41162 -->
<g id="node1" class="node"><title>dir_b31d54d5631803016a26f28213a41162</title>
<text text-anchor="middle" x="82" y="-302.9" font-family="Helvetica,sans-Serif" font-size="12.00">interface</text>
</g>
<!-- dir_c45ff4a75b9ae65f341568425e17c4ef -->
<g id="node2" class="node"><title>dir_c45ff4a75b9ae65f341568425e17c4ef</title>
<g id="a_node2"><a xlink:href="dir_c45ff4a75b9ae65f341568425e17c4ef.html" target="_top" xlink:title="analog">
<polygon fill="white" stroke="black" points="109,-252 55,-252 55,-216 109,-216 109,-252"/>
<text text-anchor="middle" x="82" y="-230.9" font-family="Helvetica,sans-Serif" font-size="12.00">analog</text>
</a>
</g>
</g>
<!-- dir_b31d54d5631803016a26f28213a41162&#45;&gt;dir_c45ff4a75b9ae65f341568425e17c4ef -->
<g id="edge5" class="edge"><title>dir_b31d54d5631803016a26f28213a41162&#45;&gt;dir_c45ff4a75b9ae65f341568425e17c4ef</title>
<path fill="none" stroke="black" d="M82,-287.697C82,-279.983 82,-270.712 82,-262.112"/>
<polygon fill="black" stroke="black" points="85.5001,-262.104 82,-252.104 78.5001,-262.104 85.5001,-262.104"/>
<g id="a_edge5&#45;headlabel"><a xlink:href="dir_000016_000017.html" target="_top" xlink:title="1">
<text text-anchor="middle" x="88.3393" y="-262.599" font-family="Helvetica,sans-Serif" font-size="12.00">1</text>
</a>
</g>
</g>
<!-- dir_54810e17a903f725653bf795c77b69e5 -->
<g id="node4" class="node"><title>dir_54810e17a903f725653bf795c77b69e5</title>
<g id="a_node4"><a xlink:href="dir_54810e17a903f725653bf795c77b69e5.html" target="_top" xlink:title="midi">
<polygon fill="white" stroke="red" points="183,-252 129,-252 129,-216 183,-216 183,-252"/>
<text text-anchor="middle" x="156" y="-230.9" font-family="Helvetica,sans-Serif" font-size="12.00">midi</text>
</a>
</g>
</g>
<!-- dir_b31d54d5631803016a26f28213a41162&#45;&gt;dir_54810e17a903f725653bf795c77b69e5 -->
<g id="edge6" class="edge"><title>dir_b31d54d5631803016a26f28213a41162&#45;&gt;dir_54810e17a903f725653bf795c77b69e5</title>
<path fill="none" stroke="black" d="M100.292,-287.697C109.433,-279.05 120.64,-268.449 130.6,-259.027"/>
<polygon fill="black" stroke="black" points="133.059,-261.519 137.918,-252.104 128.248,-256.434 133.059,-261.519"/>
<g id="a_edge6&#45;headlabel"><a xlink:href="dir_000016_000026.html" target="_top" xlink:title="1">
<text text-anchor="middle" x="132.399" y="-262.952" font-family="Helvetica,sans-Serif" font-size="12.00">1</text>
</a>
</g>
</g>
<!-- dir_be57b5b1e0f35ce371d424ebd9405b5a -->
<g id="node3" class="node"><title>dir_be57b5b1e0f35ce371d424ebd9405b5a</title>
<g id="a_node3"><a xlink:href="dir_be57b5b1e0f35ce371d424ebd9405b5a.html" target="_top" xlink:title="digital">
<polygon fill="white" stroke="red" points="109,-180 55,-180 55,-144 109,-144 109,-180"/>
<text text-anchor="middle" x="82" y="-158.9" font-family="Helvetica,sans-Serif" font-size="12.00">digital</text>
</a>
</g>
</g>
<!-- dir_c45ff4a75b9ae65f341568425e17c4ef&#45;&gt;dir_be57b5b1e0f35ce371d424ebd9405b5a -->
<g id="edge3" class="edge"><title>dir_c45ff4a75b9ae65f341568425e17c4ef&#45;&gt;dir_be57b5b1e0f35ce371d424ebd9405b5a</title>
<path fill="none" stroke="black" d="M82,-215.697C82,-207.983 82,-198.712 82,-190.112"/>
<polygon fill="black" stroke="black" points="85.5001,-190.104 82,-180.104 78.5001,-190.104 85.5001,-190.104"/>
<g id="a_edge3&#45;headlabel"><a xlink:href="dir_000017_000019.html" target="_top" xlink:title="1">
<text text-anchor="middle" x="88.3393" y="-190.599" font-family="Helvetica,sans-Serif" font-size="12.00">1</text>
</a>
</g>
</g>
<!-- dir_f32c53f2c0f0ccaeb11076e30674d5f4 -->
<g id="node5" class="node"><title>dir_f32c53f2c0f0ccaeb11076e30674d5f4</title>
<g id="a_node5"><a xlink:href="dir_f32c53f2c0f0ccaeb11076e30674d5f4.html" target="_top" xlink:title="database">
<polygon fill="white" stroke="red" points="66,-108 0,-108 0,-72 66,-72 66,-108"/>
<text text-anchor="middle" x="33" y="-86.9" font-family="Helvetica,sans-Serif" font-size="12.00">database</text>
</a>
</g>
</g>
<!-- dir_c45ff4a75b9ae65f341568425e17c4ef&#45;&gt;dir_f32c53f2c0f0ccaeb11076e30674d5f4 -->
<g id="edge1" class="edge"><title>dir_c45ff4a75b9ae65f341568425e17c4ef&#45;&gt;dir_f32c53f2c0f0ccaeb11076e30674d5f4</title>
<path fill="none" stroke="black" d="M67.5076,-215.984C59.8796,-206.106 51.0793,-193.063 46,-180 38.325,-160.262 35.1334,-136.459 33.829,-118.437"/>
<polygon fill="black" stroke="black" points="37.3151,-118.094 33.2483,-108.311 30.3266,-118.495 37.3151,-118.094"/>
<g id="a_edge1&#45;headlabel"><a xlink:href="dir_000017_000010.html" target="_top" xlink:title="1">
<text text-anchor="middle" x="40.3554" y="-118.42" font-family="Helvetica,sans-Serif" font-size="12.00">1</text>
</a>
</g>
</g>
<!-- dir_7149141a7e3af1ee95dfb0598e371427 -->
<g id="node6" class="node"><title>dir_7149141a7e3af1ee95dfb0598e371427</title>
<g id="a_node6"><a xlink:href="dir_7149141a7e3af1ee95dfb0598e371427.html" target="_top" xlink:title="board">
<polygon fill="white" stroke="red" points="121,-36 67,-36 67,-0 121,-0 121,-36"/>
<text text-anchor="middle" x="94" y="-14.9" font-family="Helvetica,sans-Serif" font-size="12.00">board</text>
</a>
</g>
</g>
<!-- dir_c45ff4a75b9ae65f341568425e17c4ef&#45;&gt;dir_7149141a7e3af1ee95dfb0598e371427 -->
<g id="edge2" class="edge"><title>dir_c45ff4a75b9ae65f341568425e17c4ef&#45;&gt;dir_7149141a7e3af1ee95dfb0598e371427</title>
<path fill="none" stroke="black" d="M97.6099,-215.774C105.373,-206.03 113.946,-193.184 118,-180 132.091,-134.177 116.968,-78.3861 105.161,-45.9597"/>
<polygon fill="black" stroke="black" points="108.312,-44.3977 101.486,-36.2949 101.769,-46.886 108.312,-44.3977"/>
<g id="a_edge2&#45;headlabel"><a xlink:href="dir_000017_000000.html" target="_top" xlink:title="1">
<text text-anchor="middle" x="112.244" y="-43.6483" font-family="Helvetica,sans-Serif" font-size="12.00">1</text>
</a>
</g>
</g>
<!-- dir_be57b5b1e0f35ce371d424ebd9405b5a&#45;&gt;dir_f32c53f2c0f0ccaeb11076e30674d5f4 -->
<g id="edge7" class="edge"><title>dir_be57b5b1e0f35ce371d424ebd9405b5a&#45;&gt;dir_f32c53f2c0f0ccaeb11076e30674d5f4</title>
<path fill="none" stroke="black" d="M69.8876,-143.697C64.1319,-135.474 57.1383,-125.483 50.7945,-116.421"/>
<polygon fill="black" stroke="black" points="53.575,-114.29 44.973,-108.104 47.8404,-118.304 53.575,-114.29"/>
<g id="a_edge7&#45;headlabel"><a xlink:href="dir_000019_000010.html" target="_top" xlink:title="1">
<text text-anchor="middle" x="57.9624" y="-112.506" font-family="Helvetica,sans-Serif" font-size="12.00">1</text>
</a>
</g>
</g>
<!-- dir_be57b5b1e0f35ce371d424ebd9405b5a&#45;&gt;dir_7149141a7e3af1ee95dfb0598e371427 -->
<g id="edge8" class="edge"><title>dir_be57b5b1e0f35ce371d424ebd9405b5a&#45;&gt;dir_7149141a7e3af1ee95dfb0598e371427</title>
<path fill="none" stroke="black" d="M83.4475,-143.871C85.4927,-119.67 89.2498,-75.2108 91.6851,-46.3932"/>
<polygon fill="black" stroke="black" points="95.1928,-46.4485 92.5474,-36.1893 88.2177,-45.859 95.1928,-46.4485"/>
<g id="a_edge8&#45;headlabel"><a xlink:href="dir_000019_000000.html" target="_top" xlink:title="2">
<text text-anchor="middle" x="97.7194" y="-47.1694" font-family="Helvetica,sans-Serif" font-size="12.00">2</text>
</a>
</g>
</g>
<!-- dir_f32c53f2c0f0ccaeb11076e30674d5f4&#45;&gt;dir_7149141a7e3af1ee95dfb0598e371427 -->
<g id="edge4" class="edge"><title>dir_f32c53f2c0f0ccaeb11076e30674d5f4&#45;&gt;dir_7149141a7e3af1ee95dfb0598e371427</title>
<path fill="none" stroke="black" d="M48.0787,-71.6966C55.3917,-63.3046 64.31,-53.0705 72.3351,-43.8613"/>
<polygon fill="black" stroke="black" points="75.1637,-45.9429 79.0948,-36.1043 69.8863,-41.344 75.1637,-45.9429"/>
<g id="a_edge4&#45;headlabel"><a xlink:href="dir_000010_000000.html" target="_top" xlink:title="2">
<text text-anchor="middle" x="74.9427" y="-47.4182" font-family="Helvetica,sans-Serif" font-size="12.00">2</text>
</a>
</g>
</g>
</g>
</svg>
