<?xml version="1.0" encoding="UTF-8" standalone="no"?>
<!DOCTYPE svg PUBLIC "-//W3C//DTD SVG 1.1//EN"
 "http://www.w3.org/Graphics/SVG/1.1/DTD/svg11.dtd">
<!-- Generated by graphviz version 2.38.0 (20140413.2041)
 -->
<!-- Title: database Pages: 1 -->
<svg width="232pt" height="148pt"
 viewBox="0.00 0.00 232.00 148.00" xmlns="http://www.w3.org/2000/svg" xmlns:xlink="http://www.w3.org/1999/xlink">
<g id="graph0" class="graph" transform="scale(1 1) rotate(0) translate(4 144)">
<title>database</title>
<polygon fill="white" stroke="none" points="-4,4 -4,-144 228,-144 228,4 -4,4"/>
<g id="clust1" class="cluster"><title>clusterdir_f32c53f2c0f0ccaeb11076e30674d5f4</title>
<g id="a_clust1"><a xlink:href="dir_f32c53f2c0f0ccaeb11076e30674d5f4.html" target="_top">
<polygon fill="#eeeeff" stroke="black" points="8,-8 8,-132 90,-132 90,-8 8,-8"/>
</a>
</g>
</g>
<!-- dir_f32c53f2c0f0ccaeb11076e30674d5f4 -->
<g id="node1" class="node"><title>dir_f32c53f2c0f0ccaeb11076e30674d5f4</title>
<text text-anchor="middle" x="49" y="-102.9" font-family="Helvetica,sans-Serif" font-size="12.00">database</text>
</g>
<!-- dir_1319264a697eb9c81bdba87abe77e713 -->
<g id="node2" class="node"><title>dir_1319264a697eb9c81bdba87abe77e713</title>
<g id="a_node2"><a xlink:href="dir_1319264a697eb9c81bdba87abe77e713.html" target="_top" xlink:title="blocks">
<polygon fill="white" stroke="black" points="76,-52 22,-52 22,-16 76,-16 76,-52"/>
<text text-anchor="middle" x="49" y="-30.9" font-family="Helvetica,sans-Serif" font-size="12.00">blocks</text>
</a>
</g>
</g>
<!-- dir_f32c53f2c0f0ccaeb11076e30674d5f4&#45;&gt;dir_1319264a697eb9c81bdba87abe77e713 -->
<g id="edge2" class="edge"><title>dir_f32c53f2c0f0ccaeb11076e30674d5f4&#45;&gt;dir_1319264a697eb9c81bdba87abe77e713</title>
<path fill="none" stroke="black" d="M49,-87.6966C49,-79.9827 49,-70.7125 49,-62.1124"/>
<polygon fill="black" stroke="black" points="52.5001,-62.1043 49,-52.1043 45.5001,-62.1044 52.5001,-62.1043"/>
<g id="a_edge2&#45;headlabel"><a xlink:href="dir_000010_000011.html" target="_top" xlink:title="1">
<text text-anchor="middle" x="55.3393" y="-62.599" font-family="Helvetica,sans-Serif" font-size="12.00">1</text>
</a>
</g>
</g>
<!-- dir_0dc835f6bdf7e8fceeb98b1cdd31565e -->
<g id="node3" class="node"><title>dir_0dc835f6bdf7e8fceeb98b1cdd31565e</title>
<g id="a_node3"><a xlink:href="dir_0dc835f6bdf7e8fceeb98b1cdd31565e.html" target="_top" xlink:title="dbms">
<polygon fill="white" stroke="red" points="152,-52 98,-52 98,-16 152,-16 152,-52"/>
<text text-anchor="middle" x="125" y="-30.9" font-family="Helvetica,sans-Serif" font-size="12.00">dbms</text>
</a>
</g>
</g>
<!-- dir_f32c53f2c0f0ccaeb11076e30674d5f4&#45;&gt;dir_0dc835f6bdf7e8fceeb98b1cdd31565e -->
<g id="edge1" class="edge"><title>dir_f32c53f2c0f0ccaeb11076e30674d5f4&#45;&gt;dir_0dc835f6bdf7e8fceeb98b1cdd31565e</title>
<path fill="none" stroke="black" d="M67.7865,-87.6966C77.174,-79.0503 88.6844,-68.4486 98.9135,-59.027"/>
<polygon fill="black" stroke="black" points="101.445,-61.4535 106.43,-52.1043 96.7029,-56.3047 101.445,-61.4535"/>
<g id="a_edge1&#45;headlabel"><a xlink:href="dir_000010_000012.html" target="_top" xlink:title="1">
<text text-anchor="middle" x="100.725" y="-62.8772" font-family="Helvetica,sans-Serif" font-size="12.00">1</text>
</a>
</g>
</g>
<!-- dir_7149141a7e3af1ee95dfb0598e371427 -->
<g id="node4" class="node"><title>dir_7149141a7e3af1ee95dfb0598e371427</title>
<g id="a_node4"><a xlink:href="dir_7149141a7e3af1ee95dfb0598e371427.html" target="_top" xlink:title="board">
<polygon fill="white" stroke="red" points="224,-52 170,-52 170,-16 224,-16 224,-52"/>
<text text-anchor="middle" x="197" y="-30.9" font-family="Helvetica,sans-Serif" font-size="12.00">board</text>
</a>
</g>
</g>
<!-- dir_f32c53f2c0f0ccaeb11076e30674d5f4&#45;&gt;dir_7149141a7e3af1ee95dfb0598e371427 -->
<g id="edge3" class="edge"><title>dir_f32c53f2c0f0ccaeb11076e30674d5f4&#45;&gt;dir_7149141a7e3af1ee95dfb0598e371427</title>
<path fill="none" stroke="black" d="M82.2141,-89.2906C105.538,-78.2591 136.723,-63.5094 160.702,-52.1682"/>
<polygon fill="black" stroke="black" points="162.291,-55.2883 169.834,-47.8486 159.298,-48.9603 162.291,-55.2883"/>
<g id="a_edge3&#45;headlabel"><a xlink:href="dir_000010_000000.html" target="_top" xlink:title="2">
<text text-anchor="middle" x="160.255" y="-56.2918" font-family="Helvetica,sans-Serif" font-size="12.00">2</text>
</a>
</g>
</g>
</g>
</svg>
