<?xml version="1.0" encoding="UTF-8" standalone="no"?>
<!DOCTYPE svg PUBLIC "-//W3C//DTD SVG 1.1//EN"
 "http://www.w3.org/Graphics/SVG/1.1/DTD/svg11.dtd">
<!-- Generated by graphviz version 2.38.0 (20140413.2041)
 -->
<!-- Title: board/common Pages: 1 -->
<svg width="184pt" height="185pt"
 viewBox="0.00 0.00 184.00 185.00" xmlns="http://www.w3.org/2000/svg" xmlns:xlink="http://www.w3.org/1999/xlink">
<g id="graph0" class="graph" transform="scale(1 1) rotate(0) translate(4 181)">
<title>board/common</title>
<polygon fill="white" stroke="none" points="-4,4 -4,-181 180,-181 180,4 -4,4"/>
<g id="clust1" class="cluster"><title>clusterdir_7149141a7e3af1ee95dfb0598e371427</title>
<g id="a_clust1"><a xlink:href="dir_7149141a7e3af1ee95dfb0598e371427.html" target="_top" xlink:title="board">
<polygon fill="#ddddee" stroke="black" points="8,-8 8,-169 106,-169 106,-8 8,-8"/>
<text text-anchor="middle" x="57" y="-155.4" font-family="Helvetica,sans-Serif" font-size="12.00">board</text>
</a>
</g>
</g>
<g id="clust2" class="cluster"><title>clusterdir_e553bb351a146f25c8834b4d3a713e3c</title>
<g id="a_clust2"><a xlink:href="dir_e553bb351a146f25c8834b4d3a713e3c.html" target="_top">
<polygon fill="#eeeeff" stroke="black" points="16,-16 16,-140 98,-140 98,-16 16,-16"/>
</a>
</g>
</g>
<!-- dir_e553bb351a146f25c8834b4d3a713e3c -->
<g id="node1" class="node"><title>dir_e553bb351a146f25c8834b4d3a713e3c</title>
<text text-anchor="middle" x="58" y="-110.9" font-family="Helvetica,sans-Serif" font-size="12.00">common</text>
</g>
<!-- dir_26d0f2319ab34e7f1fff0324e1e90c55 -->
<g id="node2" class="node"><title>dir_26d0f2319ab34e7f1fff0324e1e90c55</title>
<g id="a_node2"><a xlink:href="dir_26d0f2319ab34e7f1fff0324e1e90c55.html" target="_top" xlink:title="constants">
<polygon fill="white" stroke="black" points="90,-60 24,-60 24,-24 90,-24 90,-60"/>
<text text-anchor="middle" x="57" y="-38.9" font-family="Helvetica,sans-Serif" font-size="12.00">constants</text>
</a>
</g>
</g>
<!-- dir_e553bb351a146f25c8834b4d3a713e3c&#45;&gt;dir_26d0f2319ab34e7f1fff0324e1e90c55 -->
<g id="edge1" class="edge"><title>dir_e553bb351a146f25c8834b4d3a713e3c&#45;&gt;dir_26d0f2319ab34e7f1fff0324e1e90c55</title>
<path fill="none" stroke="black" d="M57.7528,-95.6966C57.6426,-87.9827 57.5102,-78.7125 57.3873,-70.1124"/>
<polygon fill="black" stroke="black" points="60.8869,-70.0533 57.2443,-60.1043 53.8876,-70.1533 60.8869,-70.0533"/>
<g id="a_edge1&#45;headlabel"><a xlink:href="dir_000004_000008.html" target="_top" xlink:title="1">
<text text-anchor="middle" x="63.7772" y="-70.507" font-family="Helvetica,sans-Serif" font-size="12.00">1</text>
</a>
</g>
</g>
<!-- dir_b31d54d5631803016a26f28213a41162 -->
<g id="node3" class="node"><title>dir_b31d54d5631803016a26f28213a41162</title>
<g id="a_node3"><a xlink:href="dir_b31d54d5631803016a26f28213a41162.html" target="_top" xlink:title="interface">
<polygon fill="white" stroke="red" points="176,-60 114,-60 114,-24 176,-24 176,-60"/>
<text text-anchor="middle" x="145" y="-38.9" font-family="Helvetica,sans-Serif" font-size="12.00">interface</text>
</a>
</g>
</g>
<!-- dir_e553bb351a146f25c8834b4d3a713e3c&#45;&gt;dir_b31d54d5631803016a26f28213a41162 -->
<g id="edge2" class="edge"><title>dir_e553bb351a146f25c8834b4d3a713e3c&#45;&gt;dir_b31d54d5631803016a26f28213a41162</title>
<path fill="none" stroke="black" d="M79.5056,-95.6966C90.4625,-86.8807 103.946,-76.0321 115.825,-66.4742"/>
<polygon fill="black" stroke="black" points="118.145,-69.1001 123.742,-60.1043 113.756,-63.6462 118.145,-69.1001"/>
<g id="a_edge2&#45;headlabel"><a xlink:href="dir_000004_000016.html" target="_top" xlink:title="1">
<text text-anchor="middle" x="117.124" y="-70.4655" font-family="Helvetica,sans-Serif" font-size="12.00">1</text>
</a>
</g>
</g>
</g>
</svg>
