<?xml version="1.0" encoding="UTF-8" standalone="no"?>
<!DOCTYPE svg PUBLIC "-//W3C//DTD SVG 1.1//EN"
 "http://www.w3.org/Graphics/SVG/1.1/DTD/svg11.dtd">
<!-- Generated by graphviz version 2.38.0 (20140413.2041)
 -->
<!-- Title: core/src/general Pages: 1 -->
<svg width="96pt" height="153pt"
 viewBox="0.00 0.00 96.00 153.00" xmlns="http://www.w3.org/2000/svg" xmlns:xlink="http://www.w3.org/1999/xlink">
<g id="graph0" class="graph" transform="scale(1 1) rotate(0) translate(4 149)">
<title>core/src/general</title>
<polygon fill="white" stroke="none" points="-4,4 -4,-149 92,-149 92,4 -4,4"/>
<g id="clust1" class="cluster"><title>clusterdir_90fd98a0ba30abf7a6068a44995d2d6b</title>
<g id="a_clust1"><a xlink:href="dir_90fd98a0ba30abf7a6068a44995d2d6b.html" target="_top" xlink:title="src">
<polygon fill="#ddddee" stroke="black" points="8,-64 8,-137 80,-137 80,-64 8,-64"/>
<text text-anchor="middle" x="44" y="-123.4" font-family="Helvetica,sans-Serif" font-size="12.00">src</text>
</a>
</g>
</g>
<!-- dir_609642a593bf72c29a0cbc489164c77b -->
<g id="node1" class="node"><title>dir_609642a593bf72c29a0cbc489164c77b</title>
<g id="a_node1"><a xlink:href="dir_609642a593bf72c29a0cbc489164c77b.html" target="_top" xlink:title="general">
<polygon fill="#eeeeff" stroke="black" points="72,-108 16,-108 16,-72 72,-72 72,-108"/>
<text text-anchor="middle" x="44" y="-86.9" font-family="Helvetica,sans-Serif" font-size="12.00">general</text>
</a>
</g>
</g>
<!-- dir_89f84a6580cdca5e5baa0f72a5bf395a -->
<g id="node2" class="node"><title>dir_89f84a6580cdca5e5baa0f72a5bf395a</title>
<g id="a_node2"><a xlink:href="dir_89f84a6580cdca5e5baa0f72a5bf395a.html" target="_top" xlink:title="HAL">
<polygon fill="white" stroke="red" points="71,-36 17,-36 17,-0 71,-0 71,-36"/>
<text text-anchor="middle" x="44" y="-14.9" font-family="Helvetica,sans-Serif" font-size="12.00">HAL</text>
</a>
</g>
</g>
<!-- dir_609642a593bf72c29a0cbc489164c77b&#45;&gt;dir_89f84a6580cdca5e5baa0f72a5bf395a -->
<g id="edge1" class="edge"><title>dir_609642a593bf72c29a0cbc489164c77b&#45;&gt;dir_89f84a6580cdca5e5baa0f72a5bf395a</title>
<path fill="none" stroke="black" d="M44,-71.6966C44,-63.9827 44,-54.7125 44,-46.1124"/>
<polygon fill="black" stroke="black" points="47.5001,-46.1043 44,-36.1043 40.5001,-46.1044 47.5001,-46.1043"/>
<g id="a_edge1&#45;headlabel"><a xlink:href="dir_000037_000038.html" target="_top" xlink:title="2">
<text text-anchor="middle" x="50.3393" y="-46.599" font-family="Helvetica,sans-Serif" font-size="12.00">2</text>
</a>
</g>
</g>
</g>
</svg>
