<?xml version="1.0" encoding="UTF-8" standalone="no"?>
<!DOCTYPE svg PUBLIC "-//W3C//DTD SVG 1.1//EN"
 "http://www.w3.org/Graphics/SVG/1.1/DTD/svg11.dtd">
<!-- Generated by graphviz version 2.38.0 (20140413.2041)
 -->
<!-- Title: board Pages: 1 -->
<svg width="542pt" height="132pt"
 viewBox="0.00 0.00 542.00 132.00" xmlns="http://www.w3.org/2000/svg" xmlns:xlink="http://www.w3.org/1999/xlink">
<g id="graph0" class="graph" transform="scale(1 1) rotate(0) translate(4 128)">
<title>board</title>
<polygon fill="white" stroke="none" points="-4,4 -4,-128 538,-128 538,4 -4,4"/>
<g id="clust1" class="cluster"><title>clusterdir_7149141a7e3af1ee95dfb0598e371427</title>
<g id="a_clust1"><a xlink:href="dir_7149141a7e3af1ee95dfb0598e371427.html" target="_top">
<polygon fill="#eeeeff" stroke="black" points="8,-64 8,-116 526,-116 526,-64 8,-64"/>
</a>
</g>
</g>
<!-- dir_7149141a7e3af1ee95dfb0598e371427 -->
<g id="node1" class="node"><title>dir_7149141a7e3af1ee95dfb0598e371427</title>
<text text-anchor="middle" x="491" y="-86.9" font-family="Helvetica,sans-Serif" font-size="12.00">board</text>
</g>
<!-- dir_e553bb351a146f25c8834b4d3a713e3c -->
<g id="node2" class="node"><title>dir_e553bb351a146f25c8834b4d3a713e3c</title>
<g id="a_node2"><a xlink:href="dir_e553bb351a146f25c8834b4d3a713e3c.html" target="_top" xlink:title="common">
<polygon fill="white" stroke="red" points="446,-108 384,-108 384,-72 446,-72 446,-108"/>
<text text-anchor="middle" x="415" y="-86.9" font-family="Helvetica,sans-Serif" font-size="12.00">common</text>
</a>
</g>
</g>
<!-- dir_b31d54d5631803016a26f28213a41162 -->
<g id="node8" class="node"><title>dir_b31d54d5631803016a26f28213a41162</title>
<g id="a_node8"><a xlink:href="dir_b31d54d5631803016a26f28213a41162.html" target="_top" xlink:title="interface">
<polygon fill="white" stroke="red" points="446,-36 384,-36 384,-0 446,-0 446,-36"/>
<text text-anchor="middle" x="415" y="-14.9" font-family="Helvetica,sans-Serif" font-size="12.00">interface</text>
</a>
</g>
</g>
<!-- dir_e553bb351a146f25c8834b4d3a713e3c&#45;&gt;dir_b31d54d5631803016a26f28213a41162 -->
<g id="edge1" class="edge"><title>dir_e553bb351a146f25c8834b4d3a713e3c&#45;&gt;dir_b31d54d5631803016a26f28213a41162</title>
<path fill="none" stroke="black" d="M415,-71.6966C415,-63.9827 415,-54.7125 415,-46.1124"/>
<polygon fill="black" stroke="black" points="418.5,-46.1043 415,-36.1043 411.5,-46.1044 418.5,-46.1043"/>
<g id="a_edge1&#45;headlabel"><a xlink:href="dir_000004_000016.html" target="_top" xlink:title="1">
<text text-anchor="middle" x="421.339" y="-46.599" font-family="Helvetica,sans-Serif" font-size="12.00">1</text>
</a>
</g>
</g>
<!-- dir_9815b679f1c99682c13dbacb2ad82a1a -->
<g id="node3" class="node"><title>dir_9815b679f1c99682c13dbacb2ad82a1a</title>
<g id="a_node3"><a xlink:href="dir_9815b679f1c99682c13dbacb2ad82a1a.html" target="_top" xlink:title="leonardo">
<polygon fill="white" stroke="red" points="366,-108 304,-108 304,-72 366,-72 366,-108"/>
<text text-anchor="middle" x="335" y="-86.9" font-family="Helvetica,sans-Serif" font-size="12.00">leonardo</text>
</a>
</g>
</g>
<!-- dir_d03fd822fcae537ebea002904d619dd6 -->
<g id="node4" class="node"><title>dir_d03fd822fcae537ebea002904d619dd6</title>
<g id="a_node4"><a xlink:href="dir_d03fd822fcae537ebea002904d619dd6.html" target="_top" xlink:title="mega">
<polygon fill="white" stroke="red" points="286,-108 232,-108 232,-72 286,-72 286,-108"/>
<text text-anchor="middle" x="259" y="-86.9" font-family="Helvetica,sans-Serif" font-size="12.00">mega</text>
</a>
</g>
</g>
<!-- dir_836270c334fd1d5707a16a39785e8b1f -->
<g id="node5" class="node"><title>dir_836270c334fd1d5707a16a39785e8b1f</title>
<g id="a_node5"><a xlink:href="dir_836270c334fd1d5707a16a39785e8b1f.html" target="_top" xlink:title="midi">
<polygon fill="white" stroke="black" points="214,-108 160,-108 160,-72 214,-72 214,-108"/>
<text text-anchor="middle" x="187" y="-86.9" font-family="Helvetica,sans-Serif" font-size="12.00">midi</text>
</a>
</g>
</g>
<!-- dir_ff197ab993e054ce130f1dd7c962c0d7 -->
<g id="node6" class="node"><title>dir_ff197ab993e054ce130f1dd7c962c0d7</title>
<g id="a_node6"><a xlink:href="dir_ff197ab993e054ce130f1dd7c962c0d7.html" target="_top" xlink:title="usb">
<polygon fill="white" stroke="black" points="142,-108 88,-108 88,-72 142,-72 142,-108"/>
<text text-anchor="middle" x="115" y="-86.9" font-family="Helvetica,sans-Serif" font-size="12.00">usb</text>
</a>
</g>
</g>
<!-- dir_9a23533a482759c3bdb3651440cac7b8 -->
<g id="node7" class="node"><title>dir_9a23533a482759c3bdb3651440cac7b8</title>
<g id="a_node7"><a xlink:href="dir_9a23533a482759c3bdb3651440cac7b8.html" target="_top" xlink:title="v1">
<polygon fill="white" stroke="red" points="70,-108 16,-108 16,-72 70,-72 70,-108"/>
<text text-anchor="middle" x="43" y="-86.9" font-family="Helvetica,sans-Serif" font-size="12.00">v1</text>
</a>
</g>
</g>
</g>
</svg>
