<?xml version="1.0" encoding="UTF-8" standalone="no"?>
<!DOCTYPE svg PUBLIC "-//W3C//DTD SVG 1.1//EN"
 "http://www.w3.org/Graphics/SVG/1.1/DTD/svg11.dtd">
<!-- Generated by graphviz version 2.38.0 (20140413.2041)
 -->
<!-- Title: core/src Pages: 1 -->
<svg width="112pt" height="257pt"
 viewBox="0.00 0.00 112.00 257.00" xmlns="http://www.w3.org/2000/svg" xmlns:xlink="http://www.w3.org/1999/xlink">
<g id="graph0" class="graph" transform="scale(1 1) rotate(0) translate(4 253)">
<title>core/src</title>
<polygon fill="white" stroke="none" points="-4,4 -4,-253 108,-253 108,4 -4,4"/>
<g id="clust1" class="cluster"><title>clusterdir_4270bfced15e0e73154b13468c7c9ad9</title>
<g id="a_clust1"><a xlink:href="dir_4270bfced15e0e73154b13468c7c9ad9.html" target="_top" xlink:title="core">
<polygon fill="#ddddee" stroke="black" points="8,-8 8,-241 96,-241 96,-8 8,-8"/>
<text text-anchor="middle" x="52" y="-227.4" font-family="Helvetica,sans-Serif" font-size="12.00">core</text>
</a>
</g>
</g>
<g id="clust2" class="cluster"><title>clusterdir_90fd98a0ba30abf7a6068a44995d2d6b</title>
<g id="a_clust2"><a xlink:href="dir_90fd98a0ba30abf7a6068a44995d2d6b.html" target="_top">
<polygon fill="#eeeeff" stroke="black" points="16,-16 16,-212 88,-212 88,-16 16,-16"/>
</a>
</g>
</g>
<!-- dir_90fd98a0ba30abf7a6068a44995d2d6b -->
<g id="node1" class="node"><title>dir_90fd98a0ba30abf7a6068a44995d2d6b</title>
<text text-anchor="middle" x="52" y="-182.9" font-family="Helvetica,sans-Serif" font-size="12.00">src</text>
</g>
<!-- dir_609642a593bf72c29a0cbc489164c77b -->
<g id="node2" class="node"><title>dir_609642a593bf72c29a0cbc489164c77b</title>
<g id="a_node2"><a xlink:href="dir_609642a593bf72c29a0cbc489164c77b.html" target="_top" xlink:title="general">
<polygon fill="white" stroke="black" points="80,-132 24,-132 24,-96 80,-96 80,-132"/>
<text text-anchor="middle" x="52" y="-110.9" font-family="Helvetica,sans-Serif" font-size="12.00">general</text>
</a>
</g>
</g>
<!-- dir_90fd98a0ba30abf7a6068a44995d2d6b&#45;&gt;dir_609642a593bf72c29a0cbc489164c77b -->
<g id="edge2" class="edge"><title>dir_90fd98a0ba30abf7a6068a44995d2d6b&#45;&gt;dir_609642a593bf72c29a0cbc489164c77b</title>
<path fill="none" stroke="black" d="M52,-167.697C52,-159.983 52,-150.712 52,-142.112"/>
<polygon fill="black" stroke="black" points="55.5001,-142.104 52,-132.104 48.5001,-142.104 55.5001,-142.104"/>
<g id="a_edge2&#45;headlabel"><a xlink:href="dir_000007_000037.html" target="_top" xlink:title="5">
<text text-anchor="middle" x="58.3393" y="-142.599" font-family="Helvetica,sans-Serif" font-size="12.00">5</text>
</a>
</g>
</g>
<!-- dir_89f84a6580cdca5e5baa0f72a5bf395a -->
<g id="node3" class="node"><title>dir_89f84a6580cdca5e5baa0f72a5bf395a</title>
<g id="a_node3"><a xlink:href="dir_89f84a6580cdca5e5baa0f72a5bf395a.html" target="_top" xlink:title="HAL">
<polygon fill="white" stroke="red" points="79,-60 25,-60 25,-24 79,-24 79,-60"/>
<text text-anchor="middle" x="52" y="-38.9" font-family="Helvetica,sans-Serif" font-size="12.00">HAL</text>
</a>
</g>
</g>
<!-- dir_609642a593bf72c29a0cbc489164c77b&#45;&gt;dir_89f84a6580cdca5e5baa0f72a5bf395a -->
<g id="edge1" class="edge"><title>dir_609642a593bf72c29a0cbc489164c77b&#45;&gt;dir_89f84a6580cdca5e5baa0f72a5bf395a</title>
<path fill="none" stroke="black" d="M52,-95.6966C52,-87.9827 52,-78.7125 52,-70.1124"/>
<polygon fill="black" stroke="black" points="55.5001,-70.1043 52,-60.1043 48.5001,-70.1044 55.5001,-70.1043"/>
<g id="a_edge1&#45;headlabel"><a xlink:href="dir_000037_000038.html" target="_top" xlink:title="2">
<text text-anchor="middle" x="58.3393" y="-70.599" font-family="Helvetica,sans-Serif" font-size="12.00">2</text>
</a>
</g>
</g>
</g>
</svg>
