<?xml version="1.0" encoding="UTF-8" standalone="no"?>
<!DOCTYPE svg PUBLIC "-//W3C//DTD SVG 1.1//EN"
 "http://www.w3.org/Graphics/SVG/1.1/DTD/svg11.dtd">
<!-- Generated by graphviz version 2.38.0 (20140413.2041)
 -->
<!-- Title: interface/digital/output Pages: 1 -->
<svg width="194pt" height="233pt"
 viewBox="0.00 0.00 194.00 233.00" xmlns="http://www.w3.org/2000/svg" xmlns:xlink="http://www.w3.org/1999/xlink">
<g id="graph0" class="graph" transform="scale(1 1) rotate(0) translate(4 229)">
<title>interface/digital/output</title>
<polygon fill="white" stroke="none" points="-4,4 -4,-229 190,-229 190,4 -4,4"/>
<g id="clust1" class="cluster"><title>clusterdir_be57b5b1e0f35ce371d424ebd9405b5a</title>
<g id="a_clust1"><a xlink:href="dir_be57b5b1e0f35ce371d424ebd9405b5a.html" target="_top" xlink:title="digital">
<polygon fill="#ddddee" stroke="black" points="20,-128 20,-217 178,-217 178,-128 20,-128"/>
<text text-anchor="middle" x="99" y="-203.4" font-family="Helvetica,sans-Serif" font-size="12.00">digital</text>
</a>
</g>
</g>
<g id="clust2" class="cluster"><title>clusterdir_46a8a1d56ca2cea151e19c7fd1b36079</title>
<g id="a_clust2"><a xlink:href="dir_46a8a1d56ca2cea151e19c7fd1b36079.html" target="_top">
<polygon fill="#eeeeff" stroke="black" points="28,-136 28,-188 170,-188 170,-136 28,-136"/>
</a>
</g>
</g>
<!-- dir_46a8a1d56ca2cea151e19c7fd1b36079 -->
<g id="node1" class="node"><title>dir_46a8a1d56ca2cea151e19c7fd1b36079</title>
<text text-anchor="middle" x="135" y="-158.9" font-family="Helvetica,sans-Serif" font-size="12.00">output</text>
</g>
<!-- dir_78d903454e6e2053d3a9852fe2334a6b -->
<g id="node2" class="node"><title>dir_78d903454e6e2053d3a9852fe2334a6b</title>
<g id="a_node2"><a xlink:href="dir_78d903454e6e2053d3a9852fe2334a6b.html" target="_top" xlink:title="leds">
<polygon fill="white" stroke="black" points="90,-180 36,-180 36,-144 90,-144 90,-180"/>
<text text-anchor="middle" x="63" y="-158.9" font-family="Helvetica,sans-Serif" font-size="12.00">leds</text>
</a>
</g>
</g>
<!-- dir_f32c53f2c0f0ccaeb11076e30674d5f4 -->
<g id="node3" class="node"><title>dir_f32c53f2c0f0ccaeb11076e30674d5f4</title>
<g id="a_node3"><a xlink:href="dir_f32c53f2c0f0ccaeb11076e30674d5f4.html" target="_top" xlink:title="database">
<polygon fill="white" stroke="red" points="66,-108 0,-108 0,-72 66,-72 66,-108"/>
<text text-anchor="middle" x="33" y="-86.9" font-family="Helvetica,sans-Serif" font-size="12.00">database</text>
</a>
</g>
</g>
<!-- dir_78d903454e6e2053d3a9852fe2334a6b&#45;&gt;dir_f32c53f2c0f0ccaeb11076e30674d5f4 -->
<g id="edge2" class="edge"><title>dir_78d903454e6e2053d3a9852fe2334a6b&#45;&gt;dir_f32c53f2c0f0ccaeb11076e30674d5f4</title>
<path fill="none" stroke="black" d="M55.5843,-143.697C52.2056,-135.813 48.1304,-126.304 44.377,-117.546"/>
<polygon fill="black" stroke="black" points="47.4867,-115.917 40.3304,-108.104 41.0527,-118.675 47.4867,-115.917"/>
<g id="a_edge2&#45;headlabel"><a xlink:href="dir_000023_000010.html" target="_top" xlink:title="1">
<text text-anchor="middle" x="51.5123" y="-115.003" font-family="Helvetica,sans-Serif" font-size="12.00">1</text>
</a>
</g>
</g>
<!-- dir_7149141a7e3af1ee95dfb0598e371427 -->
<g id="node4" class="node"><title>dir_7149141a7e3af1ee95dfb0598e371427</title>
<g id="a_node4"><a xlink:href="dir_7149141a7e3af1ee95dfb0598e371427.html" target="_top" xlink:title="board">
<polygon fill="white" stroke="red" points="90,-36 36,-36 36,-0 90,-0 90,-36"/>
<text text-anchor="middle" x="63" y="-14.9" font-family="Helvetica,sans-Serif" font-size="12.00">board</text>
</a>
</g>
</g>
<!-- dir_78d903454e6e2053d3a9852fe2334a6b&#45;&gt;dir_7149141a7e3af1ee95dfb0598e371427 -->
<g id="edge3" class="edge"><title>dir_78d903454e6e2053d3a9852fe2334a6b&#45;&gt;dir_7149141a7e3af1ee95dfb0598e371427</title>
<path fill="none" stroke="black" d="M67.8691,-143.979C70.5642,-133.665 73.6374,-120.189 75,-108 76.7776,-92.0991 76.7776,-87.9009 75,-72 74.0419,-63.4299 72.2382,-54.2228 70.3148,-45.9264"/>
<polygon fill="black" stroke="black" points="73.6642,-44.8904 67.8691,-36.0209 66.8682,-46.5684 73.6642,-44.8904"/>
<g id="a_edge3&#45;headlabel"><a xlink:href="dir_000023_000000.html" target="_top" xlink:title="2">
<text text-anchor="middle" x="77.2822" y="-44.5997" font-family="Helvetica,sans-Serif" font-size="12.00">2</text>
</a>
</g>
</g>
<!-- dir_f32c53f2c0f0ccaeb11076e30674d5f4&#45;&gt;dir_7149141a7e3af1ee95dfb0598e371427 -->
<g id="edge1" class="edge"><title>dir_f32c53f2c0f0ccaeb11076e30674d5f4&#45;&gt;dir_7149141a7e3af1ee95dfb0598e371427</title>
<path fill="none" stroke="black" d="M40.4157,-71.6966C43.7944,-63.8132 47.8696,-54.3042 51.623,-45.5464"/>
<polygon fill="black" stroke="black" points="54.9473,-46.6745 55.6696,-36.1043 48.5133,-43.9171 54.9473,-46.6745"/>
<g id="a_edge1&#45;headlabel"><a xlink:href="dir_000010_000000.html" target="_top" xlink:title="2">
<text text-anchor="middle" x="56.1411" y="-47.9969" font-family="Helvetica,sans-Serif" font-size="12.00">2</text>
</a>
</g>
</g>
</g>
</svg>
