<?xml version="1.0" encoding="UTF-8" standalone="no"?>
<!DOCTYPE svg PUBLIC "-//W3C//DTD SVG 1.1//EN"
 "http://www.w3.org/Graphics/SVG/1.1/DTD/svg11.dtd">
<!-- Generated by graphviz version 2.38.0 (20140413.2041)
 -->
<!-- Title: interface/digital/input Pages: 1 -->
<svg width="194pt" height="185pt"
 viewBox="0.00 0.00 194.00 185.00" xmlns="http://www.w3.org/2000/svg" xmlns:xlink="http://www.w3.org/1999/xlink">
<g id="graph0" class="graph" transform="scale(1 1) rotate(0) translate(4 181)">
<title>interface/digital/input</title>
<polygon fill="white" stroke="none" points="-4,4 -4,-181 190,-181 190,4 -4,4"/>
<g id="clust1" class="cluster"><title>clusterdir_be57b5b1e0f35ce371d424ebd9405b5a</title>
<g id="a_clust1"><a xlink:href="dir_be57b5b1e0f35ce371d424ebd9405b5a.html" target="_top" xlink:title="digital">
<polygon fill="#ddddee" stroke="black" points="8,-8 8,-169 178,-169 178,-8 8,-8"/>
<text text-anchor="middle" x="93" y="-155.4" font-family="Helvetica,sans-Serif" font-size="12.00">digital</text>
</a>
</g>
</g>
<g id="clust2" class="cluster"><title>clusterdir_9fa1fbb2659de0d89856c37c42e02643</title>
<g id="a_clust2"><a xlink:href="dir_9fa1fbb2659de0d89856c37c42e02643.html" target="_top">
<polygon fill="#eeeeff" stroke="black" points="16,-16 16,-140 170,-140 170,-16 16,-16"/>
</a>
</g>
</g>
<!-- dir_9fa1fbb2659de0d89856c37c42e02643 -->
<g id="node1" class="node"><title>dir_9fa1fbb2659de0d89856c37c42e02643</title>
<text text-anchor="middle" x="90" y="-110.9" font-family="Helvetica,sans-Serif" font-size="12.00">input</text>
</g>
<!-- dir_60f42b01aec01e500b0cb15ba6397dd6 -->
<g id="node2" class="node"><title>dir_60f42b01aec01e500b0cb15ba6397dd6</title>
<g id="a_node2"><a xlink:href="dir_60f42b01aec01e500b0cb15ba6397dd6.html" target="_top" xlink:title="buttons">
<polygon fill="white" stroke="black" points="78,-60 24,-60 24,-24 78,-24 78,-60"/>
<text text-anchor="middle" x="51" y="-38.9" font-family="Helvetica,sans-Serif" font-size="12.00">buttons</text>
</a>
</g>
</g>
<!-- dir_9fa1fbb2659de0d89856c37c42e02643&#45;&gt;dir_60f42b01aec01e500b0cb15ba6397dd6 -->
<g id="edge1" class="edge"><title>dir_9fa1fbb2659de0d89856c37c42e02643&#45;&gt;dir_60f42b01aec01e500b0cb15ba6397dd6</title>
<path fill="none" stroke="black" d="M80.3595,-95.6966C75.8729,-87.6436 70.4412,-77.8945 65.4759,-68.9824"/>
<polygon fill="black" stroke="black" points="68.4541,-67.1366 60.5296,-60.1043 62.3391,-70.5435 68.4541,-67.1366"/>
<g id="a_edge1&#45;headlabel"><a xlink:href="dir_000020_000025.html" target="_top" xlink:title="1">
<text text-anchor="middle" x="72.6839" y="-65.7948" font-family="Helvetica,sans-Serif" font-size="12.00">1</text>
</a>
</g>
</g>
<!-- dir_d59efcf4206e46c9d9a0530acbe502d4 -->
<g id="node3" class="node"><title>dir_d59efcf4206e46c9d9a0530acbe502d4</title>
<g id="a_node3"><a xlink:href="dir_d59efcf4206e46c9d9a0530acbe502d4.html" target="_top" xlink:title="encoders">
<polygon fill="white" stroke="black" points="161.5,-60 96.5,-60 96.5,-24 161.5,-24 161.5,-60"/>
<text text-anchor="middle" x="129" y="-38.9" font-family="Helvetica,sans-Serif" font-size="12.00">encoders</text>
</a>
</g>
</g>
<!-- dir_9fa1fbb2659de0d89856c37c42e02643&#45;&gt;dir_d59efcf4206e46c9d9a0530acbe502d4 -->
<g id="edge2" class="edge"><title>dir_9fa1fbb2659de0d89856c37c42e02643&#45;&gt;dir_d59efcf4206e46c9d9a0530acbe502d4</title>
<path fill="none" stroke="black" d="M99.6405,-95.6966C104.127,-87.6436 109.559,-77.8945 114.524,-68.9824"/>
<polygon fill="black" stroke="black" points="117.661,-70.5435 119.47,-60.1043 111.546,-67.1366 117.661,-70.5435"/>
<g id="a_edge2&#45;headlabel"><a xlink:href="dir_000020_000021.html" target="_top" xlink:title="1">
<text text-anchor="middle" x="118.392" y="-71.9655" font-family="Helvetica,sans-Serif" font-size="12.00">1</text>
</a>
</g>
</g>
</g>
</svg>
