<?xml version="1.0" encoding="UTF-8" standalone="no"?>
<!DOCTYPE svg PUBLIC "-//W3C//DTD SVG 1.1//EN"
 "http://www.w3.org/Graphics/SVG/1.1/DTD/svg11.dtd">
<!-- Generated by graphviz version 2.38.0 (20140413.2041)
 -->
<!-- Title: Graph Legend Pages: 1 -->
<svg width="571pt" height="169pt"
 viewBox="0.00 0.00 570.50 169.00" xmlns="http://www.w3.org/2000/svg" xmlns:xlink="http://www.w3.org/1999/xlink">
<g id="graph0" class="graph" transform="scale(1 1) rotate(0) translate(4 165)">
<title>Graph Legend</title>
<polygon fill="white" stroke="none" points="-4,4 -4,-165 566.5,-165 566.5,4 -4,4"/>
<!-- Node9 -->
<g id="node1" class="node"><title>Node9</title>
<polygon fill="#bfbfbf" stroke="black" points="332,-21 271,-21 271,-0 332,-0 332,-21"/>
<text text-anchor="middle" x="301.5" y="-7.4" font-family="Helvetica,sans-Serif" font-size="12.00">Inherited</text>
</g>
<!-- Node10 -->
<g id="node2" class="node"><title>Node10</title>
<g id="a_node2"><a xlink:href="$classPublicBase.html" xlink:title="PublicBase">
<polygon fill="none" stroke="black" points="77,-91 0,-91 0,-70 77,-70 77,-91"/>
<text text-anchor="middle" x="38.5" y="-77.4" font-family="Helvetica,sans-Serif" font-size="12.00">PublicBase</text>
</a>
</g>
</g>
<!-- Node10&#45;&gt;Node9 -->
<g id="edge1" class="edge"><title>Node10&#45;&gt;Node9</title>
<path fill="none" stroke="midnightblue" d="M85.2667,-67.4082C138.78,-53.5721 224.9,-31.3052 270.638,-19.4796"/>
<polygon fill="midnightblue" stroke="midnightblue" points="84.1514,-64.0814 75.3459,-69.9733 85.9037,-70.8586 84.1514,-64.0814"/>
</g>
<!-- Node11 -->
<g id="node3" class="node"><title>Node11</title>
<g id="a_node3"><a xlink:href="$classTruncated.html" xlink:title="Truncated">
<polygon fill="none" stroke="red" points="72.5,-161 4.5,-161 4.5,-140 72.5,-140 72.5,-161"/>
<text text-anchor="middle" x="38.5" y="-147.4" font-family="Helvetica,sans-Serif" font-size="12.00">Truncated</text>
</a>
</g>
</g>
<!-- Node11&#45;&gt;Node10 -->
<g id="edge2" class="edge"><title>Node11&#45;&gt;Node10</title>
<path fill="none" stroke="midnightblue" d="M38.5,-129.695C38.5,-117.051 38.5,-101.216 38.5,-91.2247"/>
<polygon fill="midnightblue" stroke="midnightblue" points="35.0001,-129.757 38.5,-139.757 42.0001,-129.757 35.0001,-129.757"/>
</g>
<!-- Node13 -->
<g id="node4" class="node"><title>Node13</title>
<g id="a_node4"><a xlink:href="$classProtectedBase.html" xlink:title="ProtectedBase">
<polygon fill="none" stroke="black" points="190,-91 95,-91 95,-70 190,-70 190,-91"/>
<text text-anchor="middle" x="142.5" y="-77.4" font-family="Helvetica,sans-Serif" font-size="12.00">ProtectedBase</text>
</a>
</g>
</g>
<!-- Node13&#45;&gt;Node9 -->
<g id="edge3" class="edge"><title>Node13&#45;&gt;Node9</title>
<path fill="none" stroke="darkgreen" d="M174.447,-65.8373C205.508,-52.5534 251.88,-32.7213 279.171,-21.0497"/>
<polygon fill="darkgreen" stroke="darkgreen" points="172.762,-62.7512 164.944,-69.9015 175.514,-69.1873 172.762,-62.7512"/>
</g>
<!-- Node14 -->
<g id="node5" class="node"><title>Node14</title>
<g id="a_node5"><a xlink:href="$classPrivateBase.html" xlink:title="PrivateBase">
<polygon fill="none" stroke="black" points="289,-91 208,-91 208,-70 289,-70 289,-91"/>
<text text-anchor="middle" x="248.5" y="-77.4" font-family="Helvetica,sans-Serif" font-size="12.00">PrivateBase</text>
</a>
</g>
</g>
<!-- Node14&#45;&gt;Node9 -->
<g id="edge4" class="edge"><title>Node14&#45;&gt;Node9</title>
<path fill="none" stroke="#8b1a1a" d="M262.463,-61.5852C272.532,-48.6659 285.74,-31.7203 293.92,-21.2247"/>
<polygon fill="#8b1a1a" stroke="#8b1a1a" points="259.481,-59.7184 256.094,-69.7573 265.002,-64.0216 259.481,-59.7184"/>
</g>
<!-- Node15 -->
<g id="node6" class="node"><title>Node15</title>
<polygon fill="none" stroke="#bfbfbf" points="402,-91 307,-91 307,-70 402,-70 402,-91"/>
<text text-anchor="middle" x="354.5" y="-77.4" font-family="Helvetica,sans-Serif" font-size="12.00">Undocumented</text>
</g>
<!-- Node15&#45;&gt;Node9 -->
<g id="edge5" class="edge"><title>Node15&#45;&gt;Node9</title>
<path fill="none" stroke="midnightblue" d="M340.537,-61.5852C330.468,-48.6659 317.26,-31.7203 309.08,-21.2247"/>
<polygon fill="midnightblue" stroke="midnightblue" points="337.998,-64.0216 346.906,-69.7573 343.519,-59.7184 337.998,-64.0216"/>
</g>
<!-- Node16 -->
<g id="node7" class="node"><title>Node16</title>
<g id="a_node7"><a xlink:href="$classTempl.html" xlink:title="Templ&lt; int &gt;">
<polygon fill="none" stroke="black" points="500.5,-91 420.5,-91 420.5,-70 500.5,-70 500.5,-91"/>
<text text-anchor="middle" x="460.5" y="-77.4" font-family="Helvetica,sans-Serif" font-size="12.00">Templ&lt; int &gt;</text>
</a>
</g>
</g>
<!-- Node16&#45;&gt;Node9 -->
<g id="edge6" class="edge"><title>Node16&#45;&gt;Node9</title>
<path fill="none" stroke="midnightblue" d="M428.553,-65.8373C397.492,-52.5534 351.12,-32.7213 323.829,-21.0497"/>
<polygon fill="midnightblue" stroke="midnightblue" points="427.486,-69.1873 438.056,-69.9015 430.238,-62.7512 427.486,-69.1873"/>
</g>
<!-- Node17 -->
<g id="node8" class="node"><title>Node17</title>
<g id="a_node8"><a xlink:href="$classTempl.html" xlink:title="Templ&lt; T &gt;">
<polygon fill="none" stroke="black" points="498,-161 423,-161 423,-140 498,-140 498,-161"/>
<text text-anchor="middle" x="460.5" y="-147.4" font-family="Helvetica,sans-Serif" font-size="12.00">Templ&lt; T &gt;</text>
</a>
</g>
</g>
<!-- Node17&#45;&gt;Node16 -->
<g id="edge7" class="edge"><title>Node17&#45;&gt;Node16</title>
<path fill="none" stroke="orange" stroke-dasharray="5,2" d="M460.5,-129.695C460.5,-117.051 460.5,-101.216 460.5,-91.2247"/>
<polygon fill="orange" stroke="orange" points="457,-129.757 460.5,-139.757 464,-129.757 457,-129.757"/>
<text text-anchor="middle" x="476.5" y="-112.4" font-family="Helvetica,sans-Serif" font-size="12.00">&lt; int &gt;</text>
</g>
<!-- Node18 -->
<g id="node9" class="node"><title>Node18</title>
<g id="a_node9"><a xlink:href="$classUsed.html" xlink:title="Used">
<polygon fill="none" stroke="black" points="562.5,-91 518.5,-91 518.5,-70 562.5,-70 562.5,-91"/>
<text text-anchor="middle" x="540.5" y="-77.4" font-family="Helvetica,sans-Serif" font-size="12.00">Used</text>
</a>
</g>
</g>
<!-- Node18&#45;&gt;Node9 -->
<g id="edge8" class="edge"><title>Node18&#45;&gt;Node9</title>
<path fill="none" stroke="#9a32cd" stroke-dasharray="5,2" d="M508.525,-69.7572C440.13,-49.7267 371.042,-30.5683 332.225,-19.9016"/>
<polygon fill="#9a32cd" stroke="#9a32cd" points="507.587,-73.1294 518.168,-72.5885 509.559,-66.413 507.587,-73.1294"/>
<text text-anchor="middle" x="484" y="-42.4" font-family="Helvetica,sans-Serif" font-size="12.00">m_usedClass</text>
</g>
</g>
</svg>
