<?xml version="1.0" encoding="UTF-8" standalone="no"?>
<!DOCTYPE svg PUBLIC "-//W3C//DTD SVG 1.1//EN"
 "http://www.w3.org/Graphics/SVG/1.1/DTD/svg11.dtd">
<!-- Generated by graphviz version 2.38.0 (20140413.2041)
 -->
<!-- Title: General Pages: 1 -->
<svg width="202pt" height="150pt"
 viewBox="0.00 0.00 202.00 150.00" xmlns="http://www.w3.org/2000/svg" xmlns:xlink="http://www.w3.org/1999/xlink">
<g id="graph0" class="graph" transform="scale(1 1) rotate(0) translate(4 146)">
<title>General</title>
<polygon fill="white" stroke="none" points="-4,4 -4,-146 198,-146 198,4 -4,4"/>
<!-- Node4 -->
<g id="node1" class="node"><title>Node4</title>
<g id="a_node1"><a xlink:href="group__core_general_strings.html" target="_top" xlink:title="C++ class used for easier building of strings. ">
<polygon fill="white" stroke="black" points="117.5,-120.5 117.5,-141.5 170.5,-141.5 170.5,-120.5 117.5,-120.5"/>
<text text-anchor="middle" x="144" y="-127.9" font-family="Helvetica,sans-Serif" font-size="12.00">Strings</text>
</a>
</g>
</g>
<!-- Node2 -->
<g id="node2" class="node"><title>Node2</title>
<g id="a_node2"><a xlink:href="group__core_general_misc.html" target="_top" xlink:title="Miscellaneous helpers. ">
<polygon fill="white" stroke="black" points="98.5,-80.5 98.5,-101.5 189.5,-101.5 189.5,-80.5 98.5,-80.5"/>
<text text-anchor="middle" x="144" y="-87.9" font-family="Helvetica,sans-Serif" font-size="12.00">Miscellaneous</text>
</a>
</g>
</g>
<!-- Node3 -->
<g id="node3" class="node"><title>Node3</title>
<g id="a_node3"><a xlink:href="group__core_general_ring_buffer.html" target="_top" xlink:title="Ultra lightweight ring buffer, for fast insertion/deletion. ">
<polygon fill="white" stroke="black" points="107.5,-40.5 107.5,-61.5 180.5,-61.5 180.5,-40.5 107.5,-40.5"/>
<text text-anchor="middle" x="144" y="-47.9" font-family="Helvetica,sans-Serif" font-size="12.00">Ring buffer</text>
</a>
</g>
</g>
<!-- Node0 -->
<g id="node4" class="node"><title>Node0</title>
<polygon fill="#bfbfbf" stroke="black" points="0,-60.5 0,-81.5 58,-81.5 58,-60.5 0,-60.5"/>
<text text-anchor="middle" x="29" y="-67.9" font-family="Helvetica,sans-Serif" font-size="12.00">General</text>
</g>
<!-- Node0&#45;&gt;Node4 -->
<g id="edge4" class="edge"><title>Node0&#45;&gt;Node4</title>
<path fill="none" stroke="black" d="M53.7628,-87.2102C65.5794,-94.9164 80.244,-103.959 94,-111 101.443,-114.81 109.786,-118.438 117.449,-121.533"/>
<polygon fill="black" stroke="black" points="55.6137,-84.238 45.344,-81.6332 51.7478,-90.0737 55.6137,-84.238"/>
</g>
<!-- Node0&#45;&gt;Node2 -->
<g id="edge2" class="edge"><title>Node0&#45;&gt;Node2</title>
<path fill="none" stroke="black" d="M68.3485,-77.7873C78.0244,-79.4999 88.4949,-81.3531 98.4471,-83.1145"/>
<polygon fill="black" stroke="black" points="68.6802,-74.2917 58.2232,-75.9953 67.4601,-81.1846 68.6802,-74.2917"/>
</g>
<!-- Node0&#45;&gt;Node3 -->
<g id="edge3" class="edge"><title>Node0&#45;&gt;Node3</title>
<path fill="none" stroke="black" d="M68.4481,-64.195C81.073,-61.9605 95.0416,-59.4882 107.442,-57.2934"/>
<polygon fill="black" stroke="black" points="67.4601,-60.8154 58.2232,-66.0047 68.6802,-67.7083 67.4601,-60.8154"/>
</g>
<!-- Node1 -->
<g id="node5" class="node"><title>Node1</title>
<g id="a_node5"><a xlink:href="group__core_general_bit_manipulation.html" target="_top" xlink:title="Helper macros for easier byte/bit manipulation. ">
<polygon fill="white" stroke="black" points="94,-0.5 94,-21.5 194,-21.5 194,-0.5 94,-0.5"/>
<text text-anchor="middle" x="144" y="-7.9" font-family="Helvetica,sans-Serif" font-size="12.00">Bit manipulation</text>
</a>
</g>
</g>
<!-- Node0&#45;&gt;Node1 -->
<g id="edge1" class="edge"><title>Node0&#45;&gt;Node1</title>
<path fill="none" stroke="black" d="M53.7628,-54.7898C65.5794,-47.0836 80.244,-38.0406 94,-31 100.625,-27.6091 107.963,-24.3617 114.9,-21.5066"/>
<polygon fill="black" stroke="black" points="51.7478,-51.9263 45.344,-60.3668 55.6137,-57.762 51.7478,-51.9263"/>
</g>
</g>
</svg>
