<?xml version="1.0" encoding="UTF-8" standalone="no"?>
<!DOCTYPE svg PUBLIC "-//W3C//DTD SVG 1.1//EN"
 "http://www.w3.org/Graphics/SVG/1.1/DTD/svg11.dtd">
<!-- Generated by graphviz version 2.38.0 (20140413.2041)
 -->
<!-- Title: HAL Pages: 1 -->
<svg width="139pt" height="70pt"
 viewBox="0.00 0.00 139.00 70.00" xmlns="http://www.w3.org/2000/svg" xmlns:xlink="http://www.w3.org/1999/xlink">
<g id="graph0" class="graph" transform="scale(1 1) rotate(0) translate(4 66)">
<title>HAL</title>
<polygon fill="white" stroke="none" points="-4,4 -4,-66 135,-66 135,4 -4,4"/>
<!-- Node2 -->
<g id="node1" class="node"><title>Node2</title>
<g id="a_node1"><a xlink:href="group__core_h_a_lstm.html" target="_top" xlink:title="Hardware abstraction APIs and macros for STM32 ARM microcontrollers. ">
<polygon fill="white" stroke="black" points="76,-40.5 76,-61.5 131,-61.5 131,-40.5 76,-40.5"/>
<text text-anchor="middle" x="103.5" y="-47.9" font-family="Helvetica,sans-Serif" font-size="12.00">STM32</text>
</a>
</g>
</g>
<!-- Node0 -->
<g id="node2" class="node"><title>Node0</title>
<polygon fill="#bfbfbf" stroke="black" points="0,-20.5 0,-41.5 40,-41.5 40,-20.5 0,-20.5"/>
<text text-anchor="middle" x="20" y="-27.9" font-family="Helvetica,sans-Serif" font-size="12.00">HAL</text>
</g>
<!-- Node0&#45;&gt;Node2 -->
<g id="edge2" class="edge"><title>Node0&#45;&gt;Node2</title>
<path fill="none" stroke="black" d="M50.1145,-38.1447C58.5314,-40.2102 67.6713,-42.4531 75.9249,-44.4785"/>
<polygon fill="black" stroke="black" points="50.8604,-34.7239 40.3144,-35.7397 49.192,-41.5222 50.8604,-34.7239"/>
</g>
<!-- Node1 -->
<g id="node3" class="node"><title>Node1</title>
<g id="a_node3"><a xlink:href="group__core_h_a_lavr.html" target="_top" xlink:title="Hardware abstraction APIs and macros for AVR architecture. ">
<polygon fill="white" stroke="black" points="83,-0.5 83,-21.5 124,-21.5 124,-0.5 83,-0.5"/>
<text text-anchor="middle" x="103.5" y="-7.9" font-family="Helvetica,sans-Serif" font-size="12.00">AVR</text>
</a>
</g>
</g>
<!-- Node0&#45;&gt;Node1 -->
<g id="edge1" class="edge"><title>Node0&#45;&gt;Node1</title>
<path fill="none" stroke="black" d="M50.2005,-23.8342C61.0048,-21.1829 72.9899,-18.2417 82.7581,-15.8446"/>
<polygon fill="black" stroke="black" points="49.192,-20.4778 40.3144,-26.2603 50.8604,-27.2761 49.192,-20.4778"/>
</g>
</g>
</svg>
