<?xml version="1.0" encoding="UTF-8" standalone="no"?>
<!DOCTYPE svg PUBLIC "-//W3C//DTD SVG 1.1//EN"
 "http://www.w3.org/Graphics/SVG/1.1/DTD/svg11.dtd">
<!-- Generated by graphviz version 2.38.0 (20140413.2041)
 -->
<!-- Title: Core Pages: 1 -->
<svg width="144pt" height="270pt"
 viewBox="0.00 0.00 144.00 270.00" xmlns="http://www.w3.org/2000/svg" xmlns:xlink="http://www.w3.org/1999/xlink">
<g id="graph0" class="graph" transform="scale(1 1) rotate(0) translate(4 266)">
<title>Core</title>
<polygon fill="white" stroke="none" points="-4,4 -4,-266 140,-266 140,4 -4,4"/>
<!-- Node4 -->
<g id="node1" class="node"><title>Node4</title>
<g id="a_node1"><a xlink:href="group__spi.html" target="_top" xlink:title="Setup and manipulation of SPI peripheral. ">
<polygon fill="white" stroke="black" points="90,-240.5 90,-261.5 125,-261.5 125,-240.5 90,-240.5"/>
<text text-anchor="middle" x="107.5" y="-247.9" font-family="Helvetica,sans-Serif" font-size="12.00">SPI</text>
</a>
</g>
</g>
<!-- Node1 -->
<g id="node2" class="node"><title>Node1</title>
<g id="a_node2"><a xlink:href="group__adc.html" target="_top" xlink:title="Setup and manipulation of ADC peripheral. ">
<polygon fill="white" stroke="black" points="86,-200.5 86,-221.5 129,-221.5 129,-200.5 86,-200.5"/>
<text text-anchor="middle" x="107.5" y="-207.9" font-family="Helvetica,sans-Serif" font-size="12.00">ADC</text>
</a>
</g>
</g>
<!-- Node3 -->
<g id="node3" class="node"><title>Node3</title>
<g id="a_node3"><a xlink:href="group__reset.html" target="_top" xlink:title="Provides helper functions to facilitate software reset on MCU. ">
<polygon fill="white" stroke="black" points="84,-160.5 84,-181.5 131,-181.5 131,-160.5 84,-160.5"/>
<text text-anchor="middle" x="107.5" y="-167.9" font-family="Helvetica,sans-Serif" font-size="12.00">Reset</text>
</a>
</g>
</g>
<!-- Node7 -->
<g id="node4" class="node"><title>Node7</title>
<g id="a_node4"><a xlink:href="group__uart.html" target="_top" xlink:title="Object for interfacing with configured UART peripheral. ">
<polygon fill="white" stroke="black" points="83.5,-120.5 83.5,-141.5 131.5,-141.5 131.5,-120.5 83.5,-120.5"/>
<text text-anchor="middle" x="107.5" y="-127.9" font-family="Helvetica,sans-Serif" font-size="12.00">UART</text>
</a>
</g>
</g>
<!-- Node2 -->
<g id="node5" class="node"><title>Node2</title>
<g id="a_node5"><a xlink:href="group__core_helpers.html" target="_top" xlink:title="Various helper macros. ">
<polygon fill="white" stroke="black" points="79,-80.5 79,-101.5 136,-101.5 136,-80.5 79,-80.5"/>
<text text-anchor="middle" x="107.5" y="-87.9" font-family="Helvetica,sans-Serif" font-size="12.00">Helpers</text>
</a>
</g>
</g>
<!-- Node5 -->
<g id="node6" class="node"><title>Node5</title>
<g id="a_node6"><a xlink:href="group__strings__core.html" target="_top" xlink:title="Various functions used to manipulate strings more easily. ">
<polygon fill="white" stroke="black" points="81,-40.5 81,-61.5 134,-61.5 134,-40.5 81,-40.5"/>
<text text-anchor="middle" x="107.5" y="-47.9" font-family="Helvetica,sans-Serif" font-size="12.00">Strings</text>
</a>
</g>
</g>
<!-- Node0 -->
<g id="node7" class="node"><title>Node0</title>
<polygon fill="#bfbfbf" stroke="black" points="0,-120.5 0,-141.5 43,-141.5 43,-120.5 0,-120.5"/>
<text text-anchor="middle" x="21.5" y="-127.9" font-family="Helvetica,sans-Serif" font-size="12.00">Core</text>
</g>
<!-- Node0&#45;&gt;Node4 -->
<g id="edge4" class="edge"><title>Node0&#45;&gt;Node4</title>
<path fill="none" stroke="black" d="M30.6899,-150.95C40.1409,-172.357 57.2183,-206.57 79,-231 82.1429,-234.525 86.007,-237.8 89.8347,-240.637"/>
<polygon fill="black" stroke="black" points="33.8274,-149.385 26.6757,-141.569 27.3918,-152.139 33.8274,-149.385"/>
</g>
<!-- Node0&#45;&gt;Node1 -->
<g id="edge1" class="edge"><title>Node0&#45;&gt;Node1</title>
<path fill="none" stroke="black" d="M38.3596,-149.577C49.254,-161.89 64.344,-178.091 79,-191 82.7212,-194.278 86.9612,-197.558 90.9788,-200.486"/>
<polygon fill="black" stroke="black" points="40.7551,-146.999 31.5445,-141.763 35.4795,-151.6 40.7551,-146.999"/>
</g>
<!-- Node0&#45;&gt;Node3 -->
<g id="edge3" class="edge"><title>Node0&#45;&gt;Node3</title>
<path fill="none" stroke="black" d="M52.4813,-145.277C62.9411,-150.258 74.4869,-155.756 84.2101,-160.386"/>
<polygon fill="black" stroke="black" points="53.7975,-142.027 43.2641,-140.888 50.7879,-148.347 53.7975,-142.027"/>
</g>
<!-- Node0&#45;&gt;Node7 -->
<g id="edge7" class="edge"><title>Node0&#45;&gt;Node7</title>
<path fill="none" stroke="black" d="M53.5103,-131C63.3716,-131 74.1024,-131 83.3121,-131"/>
<polygon fill="black" stroke="black" points="53.2641,-127.5 43.2641,-131 53.264,-134.5 53.2641,-127.5"/>
</g>
<!-- Node0&#45;&gt;Node2 -->
<g id="edge2" class="edge"><title>Node0&#45;&gt;Node2</title>
<path fill="none" stroke="black" d="M52.4813,-116.723C62.9411,-111.742 74.4869,-106.244 84.2101,-101.614"/>
<polygon fill="black" stroke="black" points="50.7879,-113.653 43.2641,-121.112 53.7975,-119.973 50.7879,-113.653"/>
</g>
<!-- Node0&#45;&gt;Node5 -->
<g id="edge5" class="edge"><title>Node0&#45;&gt;Node5</title>
<path fill="none" stroke="black" d="M38.3596,-112.423C49.254,-100.11 64.344,-83.9092 79,-71 82.7212,-67.7223 86.9612,-64.4423 90.9788,-61.5144"/>
<polygon fill="black" stroke="black" points="35.4795,-110.4 31.5445,-120.237 40.7551,-115.001 35.4795,-110.4"/>
</g>
<!-- Node6 -->
<g id="node8" class="node"><title>Node6</title>
<g id="a_node8"><a xlink:href="group__timer.html" target="_top" xlink:title="Provides delay function and interface to accommodate MCU run time in milliseconds. ">
<polygon fill="white" stroke="black" points="84,-0.5 84,-21.5 131,-21.5 131,-0.5 84,-0.5"/>
<text text-anchor="middle" x="107.5" y="-7.9" font-family="Helvetica,sans-Serif" font-size="12.00">Timer</text>
</a>
</g>
</g>
<!-- Node0&#45;&gt;Node6 -->
<g id="edge6" class="edge"><title>Node0&#45;&gt;Node6</title>
<path fill="none" stroke="black" d="M30.6899,-111.05C40.1409,-89.643 57.2183,-55.4304 79,-31 82.0643,-27.563 85.8143,-24.3638 89.5476,-21.5764"/>
<polygon fill="black" stroke="black" points="27.3918,-109.861 26.6757,-120.431 33.8274,-112.615 27.3918,-109.861"/>
</g>
</g>
</svg>
