<?xml version="1.0" encoding="UTF-8" standalone="no"?>
<!DOCTYPE svg PUBLIC "-//W3C//DTD SVG 1.1//EN"
 "http://www.w3.org/Graphics/SVG/1.1/DTD/svg11.dtd">
<!-- Generated by graphviz version 2.38.0 (20140413.2041)
 -->
<!-- Title: Helpers Pages: 1 -->
<svg width="283pt" height="70pt"
 viewBox="0.00 0.00 283.00 70.00" xmlns="http://www.w3.org/2000/svg" xmlns:xlink="http://www.w3.org/1999/xlink">
<g id="graph0" class="graph" transform="scale(1 1) rotate(0) translate(4 66)">
<title>Helpers</title>
<polygon fill="white" stroke="none" points="-4,4 -4,-66 279,-66 279,4 -4,4"/>
<!-- Node3 -->
<g id="node1" class="node"><title>Node3</title>
<g id="a_node1"><a xlink:href="group__core_pin_helpers.html" target="_top" xlink:title="Helper macros for easier port and pin manipulation. ">
<polygon fill="white" stroke="black" points="172,-40.5 172,-61.5 275,-61.5 275,-40.5 172,-40.5"/>
<text text-anchor="middle" x="223.5" y="-47.9" font-family="Helvetica,sans-Serif" font-size="12.00">Pin manipulation</text>
</a>
</g>
</g>
<!-- Node2 -->
<g id="node2" class="node"><title>Node2</title>
<g id="a_node2"><a xlink:href="group__core_bit_helpers.html" target="_top" xlink:title="Helper macros for easier byte/bit manipulation. ">
<polygon fill="white" stroke="black" points="173.5,-0.5 173.5,-21.5 273.5,-21.5 273.5,-0.5 173.5,-0.5"/>
<text text-anchor="middle" x="223.5" y="-7.9" font-family="Helvetica,sans-Serif" font-size="12.00">Bit manipulation</text>
</a>
</g>
</g>
<!-- Node0 -->
<g id="node3" class="node"><title>Node0</title>
<polygon fill="#bfbfbf" stroke="black" points="79,-20.5 79,-41.5 136,-41.5 136,-20.5 79,-20.5"/>
<text text-anchor="middle" x="107.5" y="-27.9" font-family="Helvetica,sans-Serif" font-size="12.00">Helpers</text>
</g>
<!-- Node0&#45;&gt;Node3 -->
<g id="edge3" class="edge"><title>Node0&#45;&gt;Node3</title>
<path fill="none" stroke="black" d="M146.173,-37.6093C154.436,-39.059 163.315,-40.6166 171.99,-42.1385"/>
<polygon fill="black" stroke="black" points="146.551,-34.1222 136.096,-35.8414 145.341,-41.0169 146.551,-34.1222"/>
</g>
<!-- Node0&#45;&gt;Node2 -->
<g id="edge2" class="edge"><title>Node0&#45;&gt;Node2</title>
<path fill="none" stroke="black" d="M145.985,-24.4237C154.731,-22.8893 164.175,-21.2325 173.342,-19.6242"/>
<polygon fill="black" stroke="black" points="145.341,-20.9831 136.096,-26.1586 146.551,-27.8778 145.341,-20.9831"/>
</g>
<!-- Node1 -->
<g id="node4" class="node"><title>Node1</title>
<g id="a_node4"><a xlink:href="group__core.html" target="_top" xlink:title="Integrated MCU peripherals. ">
<polygon fill="white" stroke="black" points="0,-20.5 0,-41.5 43,-41.5 43,-20.5 0,-20.5"/>
<text text-anchor="middle" x="21.5" y="-27.9" font-family="Helvetica,sans-Serif" font-size="12.00">Core</text>
</a>
</g>
</g>
<!-- Node1&#45;&gt;Node0 -->
<g id="edge1" class="edge"><title>Node1&#45;&gt;Node0</title>
<path fill="none" stroke="black" d="M53.3341,-31C61.634,-31 70.5613,-31 78.686,-31"/>
<polygon fill="black" stroke="black" points="53.2641,-27.5001 43.2641,-31 53.264,-34.5001 53.2641,-27.5001"/>
</g>
</g>
</svg>
