<?xml version="1.0" encoding="UTF-8" standalone="no"?>
<!DOCTYPE svg PUBLIC "-//W3C//DTD SVG 1.1//EN"
 "http://www.w3.org/Graphics/SVG/1.1/DTD/svg11.dtd">
<!-- Generated by graphviz version 2.38.0 (20140413.2041)
 -->
<!-- Title: AVR Pages: 1 -->
<svg width="208pt" height="110pt"
 viewBox="0.00 0.00 208.00 110.00" xmlns="http://www.w3.org/2000/svg" xmlns:xlink="http://www.w3.org/1999/xlink">
<g id="graph0" class="graph" transform="scale(1 1) rotate(0) translate(4 106)">
<title>AVR</title>
<polygon fill="white" stroke="none" points="-4,4 -4,-106 204,-106 204,4 -4,4"/>
<!-- Node1 -->
<g id="node1" class="node"><title>Node1</title>
<g id="a_node1"><a xlink:href="group__core_h_a_l.html" target="_top" xlink:title="Hardware abstraction APIs and macros. ">
<polygon fill="white" stroke="black" points="0,-40.5 0,-61.5 40,-61.5 40,-40.5 0,-40.5"/>
<text text-anchor="middle" x="20" y="-47.9" font-family="Helvetica,sans-Serif" font-size="12.00">HAL</text>
</a>
</g>
</g>
<!-- Node0 -->
<g id="node4" class="node"><title>Node0</title>
<polygon fill="#bfbfbf" stroke="black" points="76,-40.5 76,-61.5 117,-61.5 117,-40.5 76,-40.5"/>
<text text-anchor="middle" x="96.5" y="-47.9" font-family="Helvetica,sans-Serif" font-size="12.00">AVR</text>
</g>
<!-- Node1&#45;&gt;Node0 -->
<g id="edge1" class="edge"><title>Node1&#45;&gt;Node0</title>
<path fill="none" stroke="black" d="M50.2398,-51C58.8326,-51 68.0222,-51 75.8605,-51"/>
<polygon fill="black" stroke="black" points="50.1856,-47.5001 40.1856,-51 50.1856,-54.5001 50.1856,-47.5001"/>
</g>
<!-- Node3 -->
<g id="node2" class="node"><title>Node3</title>
<g id="a_node2"><a xlink:href="group__core_h_a_lavr_s_p_i.html" target="_top" xlink:title="Setup and manipulation of SPI peripheral. ">
<polygon fill="white" stroke="black" points="159,-80.5 159,-101.5 194,-101.5 194,-80.5 159,-80.5"/>
<text text-anchor="middle" x="176.5" y="-87.9" font-family="Helvetica,sans-Serif" font-size="12.00">SPI</text>
</a>
</g>
</g>
<!-- Node4 -->
<g id="node3" class="node"><title>Node4</title>
<g id="a_node3"><a xlink:href="group__core_h_a_lavr_reset.html" target="_top" xlink:title="Provides helper functions to facilitate software reset on MCU. ">
<polygon fill="white" stroke="black" points="153,-40.5 153,-61.5 200,-61.5 200,-40.5 153,-40.5"/>
<text text-anchor="middle" x="176.5" y="-47.9" font-family="Helvetica,sans-Serif" font-size="12.00">Reset</text>
</a>
</g>
</g>
<!-- Node0&#45;&gt;Node3 -->
<g id="edge3" class="edge"><title>Node0&#45;&gt;Node3</title>
<path fill="none" stroke="black" d="M126.109,-65.6713C137.175,-71.3464 149.446,-77.6389 158.988,-82.5323"/>
<polygon fill="black" stroke="black" points="127.678,-62.5425 117.183,-61.0937 124.484,-68.7713 127.678,-62.5425"/>
</g>
<!-- Node0&#45;&gt;Node4 -->
<g id="edge4" class="edge"><title>Node0&#45;&gt;Node4</title>
<path fill="none" stroke="black" d="M127.405,-51C135.829,-51 144.853,-51 152.782,-51"/>
<polygon fill="black" stroke="black" points="127.183,-47.5001 117.183,-51 127.183,-54.5001 127.183,-47.5001"/>
</g>
<!-- Node2 -->
<g id="node5" class="node"><title>Node2</title>
<g id="a_node5"><a xlink:href="group__core_h_a_lavr_a_d_c.html" target="_top" xlink:title="Setup and manipulation of ADC peripheral. ">
<polygon fill="white" stroke="black" points="155,-0.5 155,-21.5 198,-21.5 198,-0.5 155,-0.5"/>
<text text-anchor="middle" x="176.5" y="-7.9" font-family="Helvetica,sans-Serif" font-size="12.00">ADC</text>
</a>
</g>
</g>
<!-- Node0&#45;&gt;Node2 -->
<g id="edge2" class="edge"><title>Node0&#45;&gt;Node2</title>
<path fill="none" stroke="black" d="M126.323,-36.2191C135.845,-31.3358 146.238,-26.0061 155.006,-21.5095"/>
<polygon fill="black" stroke="black" points="124.484,-33.2287 117.183,-40.9063 127.678,-39.4575 124.484,-33.2287"/>
</g>
</g>
</svg>
