<?xml version="1.0" encoding="UTF-8" standalone="no"?>
<!DOCTYPE svg PUBLIC "-//W3C//DTD SVG 1.1//EN"
 "http://www.w3.org/Graphics/SVG/1.1/DTD/svg11.dtd">
<!-- Generated by graphviz version 2.38.0 (20140413.2041)
 -->
<!-- Title: Interface Pages: 1 -->
<svg width="172pt" height="150pt"
 viewBox="0.00 0.00 172.00 150.00" xmlns="http://www.w3.org/2000/svg" xmlns:xlink="http://www.w3.org/1999/xlink">
<g id="graph0" class="graph" transform="scale(1 1) rotate(0) translate(4 146)">
<title>Interface</title>
<polygon fill="white" stroke="none" points="-4,4 -4,-146 168,-146 168,4 -4,4"/>
<!-- Node1 -->
<g id="node1" class="node"><title>Node1</title>
<g id="a_node1"><a xlink:href="group__analog.html" target="_top" xlink:title="Analog components handling. ">
<polygon fill="white" stroke="black" points="104,-120.5 104,-141.5 157,-141.5 157,-120.5 104,-120.5"/>
<text text-anchor="middle" x="130.5" y="-127.9" font-family="Helvetica,sans-Serif" font-size="12.00">Analog</text>
</a>
</g>
</g>
<!-- Node3 -->
<g id="node2" class="node"><title>Node3</title>
<g id="a_node2"><a xlink:href="group__encoders.html" target="_top" xlink:title="Encoder handling. ">
<polygon fill="white" stroke="black" points="97,-80.5 97,-101.5 164,-101.5 164,-80.5 97,-80.5"/>
<text text-anchor="middle" x="130.5" y="-87.9" font-family="Helvetica,sans-Serif" font-size="12.00">Encoders</text>
</a>
</g>
</g>
<!-- Node2 -->
<g id="node3" class="node"><title>Node2</title>
<g id="a_node3"><a xlink:href="group__buttons.html" target="_top" xlink:title="Button handling. ">
<polygon fill="white" stroke="black" points="102.5,-40.5 102.5,-61.5 158.5,-61.5 158.5,-40.5 102.5,-40.5"/>
<text text-anchor="middle" x="130.5" y="-47.9" font-family="Helvetica,sans-Serif" font-size="12.00">Buttons</text>
</a>
</g>
</g>
<!-- Node0 -->
<g id="node4" class="node"><title>Node0</title>
<polygon fill="#bfbfbf" stroke="black" points="0,-60.5 0,-81.5 61,-81.5 61,-60.5 0,-60.5"/>
<text text-anchor="middle" x="30.5" y="-67.9" font-family="Helvetica,sans-Serif" font-size="12.00">Interface</text>
</g>
<!-- Node0&#45;&gt;Node1 -->
<g id="edge1" class="edge"><title>Node0&#45;&gt;Node1</title>
<path fill="none" stroke="black" d="M58.015,-87.2337C75.212,-97.7624 97.1269,-111.18 112.131,-120.366"/>
<polygon fill="black" stroke="black" points="59.3765,-83.9634 49.0204,-81.7268 55.7214,-89.9334 59.3765,-83.9634"/>
</g>
<!-- Node0&#45;&gt;Node3 -->
<g id="edge3" class="edge"><title>Node0&#45;&gt;Node3</title>
<path fill="none" stroke="black" d="M70.9948,-79.0602C79.5797,-80.8122 88.5695,-82.6468 96.8547,-84.3377"/>
<polygon fill="black" stroke="black" points="71.6671,-75.6253 61.1692,-77.0549 70.2673,-82.4839 71.6671,-75.6253"/>
</g>
<!-- Node0&#45;&gt;Node2 -->
<g id="edge2" class="edge"><title>Node0&#45;&gt;Node2</title>
<path fill="none" stroke="black" d="M70.9836,-62.9421C81.4829,-60.7994 92.5885,-58.533 102.271,-56.557"/>
<polygon fill="black" stroke="black" points="70.2673,-59.5161 61.1692,-64.9451 71.6671,-66.3747 70.2673,-59.5161"/>
</g>
<!-- Node4 -->
<g id="node5" class="node"><title>Node4</title>
<g id="a_node5"><a xlink:href="group__leds.html" target="_top" xlink:title="LED handling. ">
<polygon fill="white" stroke="black" points="107,-0.5 107,-21.5 154,-21.5 154,-0.5 107,-0.5"/>
<text text-anchor="middle" x="130.5" y="-7.9" font-family="Helvetica,sans-Serif" font-size="12.00">LEDs</text>
</a>
</g>
</g>
<!-- Node0&#45;&gt;Node4 -->
<g id="edge4" class="edge"><title>Node0&#45;&gt;Node4</title>
<path fill="none" stroke="black" d="M58.015,-54.7663C75.212,-44.2376 97.1269,-30.8203 112.131,-21.6339"/>
<polygon fill="black" stroke="black" points="55.7214,-52.0666 49.0204,-60.2732 59.3765,-58.0366 55.7214,-52.0666"/>
</g>
</g>
</svg>
