<?xml version="1.0" encoding="UTF-8" standalone="no"?>
<!DOCTYPE svg PUBLIC "-//W3C//DTD SVG 1.1//EN"
 "http://www.w3.org/Graphics/SVG/1.1/DTD/svg11.dtd">
<!-- Generated by graphviz version 2.38.0 (20140413.2041)
 -->
<!-- Title: interface/buttons/DataTypes.h Pages: 1 -->
<svg width="913pt" height="404pt"
 viewBox="0.00 0.00 913.00 404.00" xmlns="http://www.w3.org/2000/svg" xmlns:xlink="http://www.w3.org/1999/xlink">
<g id="graph0" class="graph" transform="scale(1 1) rotate(0) translate(4 400)">
<title>interface/buttons/DataTypes.h</title>
<polygon fill="white" stroke="none" points="-4,4 -4,-400 909,-400 909,4 -4,4"/>
<!-- Node1 -->
<g id="node1" class="node"><title>Node1</title>
<polygon fill="#bfbfbf" stroke="black" points="497,-374.5 497,-395.5 668,-395.5 668,-374.5 497,-374.5"/>
<text text-anchor="middle" x="582.5" y="-381.9" font-family="Helvetica,sans-Serif" font-size="12.00">interface/buttons/DataTypes.h</text>
</g>
<!-- Node2 -->
<g id="node2" class="node"><title>Node2</title>
<g id="a_node2"><a xlink:href="interface_2buttons_2_buttons_8h.html" target="_top" xlink:title="interface/buttons/Buttons.h">
<polygon fill="white" stroke="black" points="506,-316.5 506,-337.5 659,-337.5 659,-316.5 506,-316.5"/>
<text text-anchor="middle" x="582.5" y="-323.9" font-family="Helvetica,sans-Serif" font-size="12.00">interface/buttons/Buttons.h</text>
</a>
</g>
</g>
<!-- Node1&#45;&gt;Node2 -->
<g id="edge1" class="edge"><title>Node1&#45;&gt;Node2</title>
<path fill="none" stroke="midnightblue" d="M582.5,-364.158C582.5,-355.155 582.5,-344.92 582.5,-337.643"/>
<polygon fill="midnightblue" stroke="midnightblue" points="579,-364.246 582.5,-374.246 586,-364.246 579,-364.246"/>
</g>
<!-- Node3 -->
<g id="node3" class="node"><title>Node3</title>
<g id="a_node3"><a xlink:href="interface_2analog_2_analog_8h.html" target="_top" xlink:title="interface/analog/Analog.h">
<polygon fill="white" stroke="black" points="407,-258.5 407,-279.5 556,-279.5 556,-258.5 407,-258.5"/>
<text text-anchor="middle" x="481.5" y="-265.9" font-family="Helvetica,sans-Serif" font-size="12.00">interface/analog/Analog.h</text>
</a>
</g>
</g>
<!-- Node2&#45;&gt;Node3 -->
<g id="edge2" class="edge"><title>Node2&#45;&gt;Node3</title>
<path fill="none" stroke="midnightblue" d="M556.028,-311.323C537.988,-301.32 514.612,-288.359 498.891,-279.643"/>
<polygon fill="midnightblue" stroke="midnightblue" points="554.464,-314.457 564.907,-316.246 557.859,-308.335 554.464,-314.457"/>
</g>
<!-- Node4 -->
<g id="node4" class="node"><title>Node4</title>
<g id="a_node4"><a xlink:href="_interface_8h.html" target="_top" xlink:title="interface/Interface.h">
<polygon fill="white" stroke="black" points="243.5,-200.5 243.5,-221.5 361.5,-221.5 361.5,-200.5 243.5,-200.5"/>
<text text-anchor="middle" x="302.5" y="-207.9" font-family="Helvetica,sans-Serif" font-size="12.00">interface/Interface.h</text>
</a>
</g>
</g>
<!-- Node2&#45;&gt;Node4 -->
<g id="edge19" class="edge"><title>Node2&#45;&gt;Node4</title>
<path fill="none" stroke="midnightblue" d="M509.567,-314.472C474.613,-307.309 432.78,-296.286 397.5,-280 363.8,-264.443 329.735,-236.38 313.048,-221.64"/>
<polygon fill="midnightblue" stroke="midnightblue" points="509.214,-317.97 519.704,-316.481 510.575,-311.103 509.214,-317.97"/>
</g>
<!-- Node11 -->
<g id="node11" class="node"><title>Node11</title>
<g id="a_node11"><a xlink:href="interface_2buttons_2_buttons_8cpp.html" target="_top" xlink:title="interface/buttons/Buttons.cpp">
<polygon fill="white" stroke="black" points="738,-78 738,-99 905,-99 905,-78 738,-78"/>
<text text-anchor="middle" x="821.5" y="-85.4" font-family="Helvetica,sans-Serif" font-size="12.00">interface/buttons/Buttons.cpp</text>
</a>
</g>
</g>
<!-- Node2&#45;&gt;Node11 -->
<g id="edge20" class="edge"><title>Node2&#45;&gt;Node11</title>
<path fill="none" stroke="midnightblue" d="M602.512,-310.12C613.139,-301.476 626.285,-290.441 637.5,-280 708.176,-214.206 786.715,-128.166 812.658,-99.369"/>
<polygon fill="midnightblue" stroke="midnightblue" points="600.205,-307.484 594.614,-316.483 604.597,-312.935 600.205,-307.484"/>
</g>
<!-- Node3&#45;&gt;Node4 -->
<g id="edge3" class="edge"><title>Node3&#45;&gt;Node4</title>
<path fill="none" stroke="midnightblue" d="M440.98,-255.324C408.153,-245.054 362.622,-230.809 332.87,-221.501"/>
<polygon fill="midnightblue" stroke="midnightblue" points="440.14,-258.728 450.729,-258.373 442.23,-252.047 440.14,-258.728"/>
</g>
<!-- Node9 -->
<g id="node9" class="node"><title>Node9</title>
<g id="a_node9"><a xlink:href="_f_s_r_8cpp.html" target="_top" xlink:title="interface/analog/FSR.cpp">
<polygon fill="white" stroke="black" points="571,-78 571,-99 720,-99 720,-78 571,-78"/>
<text text-anchor="middle" x="645.5" y="-85.4" font-family="Helvetica,sans-Serif" font-size="12.00">interface/analog/FSR.cpp</text>
</a>
</g>
</g>
<!-- Node3&#45;&gt;Node9 -->
<g id="edge17" class="edge"><title>Node3&#45;&gt;Node9</title>
<path fill="none" stroke="midnightblue" d="M565.858,-257.96C588.587,-251.233 611.112,-240.159 626.5,-222 657.15,-185.833 651.017,-123.168 647.26,-99.2031"/>
<polygon fill="midnightblue" stroke="midnightblue" points="564.868,-254.602 556.125,-260.585 566.691,-261.361 564.868,-254.602"/>
</g>
<!-- Node10 -->
<g id="node10" class="node"><title>Node10</title>
<g id="a_node10"><a xlink:href="_potentiometer_8cpp.html" target="_top" xlink:title="interface/analog/Potentiometer.cpp">
<polygon fill="white" stroke="black" points="131,-78 131,-99 330,-99 330,-78 131,-78"/>
<text text-anchor="middle" x="230.5" y="-85.4" font-family="Helvetica,sans-Serif" font-size="12.00">interface/analog/Potentiometer.cpp</text>
</a>
</g>
</g>
<!-- Node3&#45;&gt;Node10 -->
<g id="edge18" class="edge"><title>Node3&#45;&gt;Node10</title>
<path fill="none" stroke="midnightblue" d="M459.737,-252.523C409.238,-216.61 285.264,-128.446 244.062,-99.1444"/>
<polygon fill="midnightblue" stroke="midnightblue" points="457.827,-255.46 468.005,-258.403 461.884,-249.755 457.827,-255.46"/>
</g>
<!-- Node13 -->
<g id="node13" class="node"><title>Node13</title>
<g id="a_node13"><a xlink:href="interface_2analog_2_analog_8cpp.html" target="_top" xlink:title="interface/analog/Analog.cpp">
<polygon fill="white" stroke="black" points="455.5,-200.5 455.5,-221.5 617.5,-221.5 617.5,-200.5 455.5,-200.5"/>
<text text-anchor="middle" x="536.5" y="-207.9" font-family="Helvetica,sans-Serif" font-size="12.00">interface/analog/Analog.cpp</text>
</a>
</g>
</g>
<!-- Node3&#45;&gt;Node13 -->
<g id="edge16" class="edge"><title>Node3&#45;&gt;Node13</title>
<path fill="none" stroke="midnightblue" d="M498.123,-251.075C507.585,-241.44 519.097,-229.72 527.03,-221.643"/>
<polygon fill="midnightblue" stroke="midnightblue" points="495.59,-248.659 491.08,-258.246 500.584,-253.564 495.59,-248.659"/>
</g>
<!-- Node5 -->
<g id="node5" class="node"><title>Node5</title>
<g id="a_node5"><a xlink:href="_open_deck_8h.html" target="_top" xlink:title="OpenDeck.h">
<polygon fill="white" stroke="black" points="423.5,-142.5 423.5,-163.5 505.5,-163.5 505.5,-142.5 423.5,-142.5"/>
<text text-anchor="middle" x="464.5" y="-149.9" font-family="Helvetica,sans-Serif" font-size="12.00">OpenDeck.h</text>
</a>
</g>
</g>
<!-- Node4&#45;&gt;Node5 -->
<g id="edge4" class="edge"><title>Node4&#45;&gt;Node5</title>
<path fill="none" stroke="midnightblue" d="M339.942,-197.057C369.59,-186.808 410.32,-172.729 437.015,-163.501"/>
<polygon fill="midnightblue" stroke="midnightblue" points="338.657,-193.798 330.349,-200.373 340.944,-200.414 338.657,-193.798"/>
</g>
<!-- Node5&#45;&gt;Node2 -->
<g id="edge6" class="edge"><title>Node5&#45;&gt;Node2</title>
<path fill="none" stroke="midnightblue" d="M515.727,-161.717C557.962,-169.251 613.038,-182.184 626.5,-200 654.576,-237.158 611.439,-293.642 591.608,-316.197"/>
<polygon fill="midnightblue" stroke="midnightblue" points="516.295,-158.264 505.845,-160.01 515.103,-165.162 516.295,-158.264"/>
</g>
<!-- Node5&#45;&gt;Node3 -->
<g id="edge7" class="edge"><title>Node5&#45;&gt;Node3</title>
<path fill="none" stroke="midnightblue" d="M453.622,-172.778C447.071,-186.544 440.974,-205.611 446.5,-222 451.309,-236.263 462.499,-249.605 470.941,-258.208"/>
<polygon fill="midnightblue" stroke="midnightblue" points="456.782,-174.288 458.313,-163.805 450.579,-171.045 456.782,-174.288"/>
</g>
<!-- Node6 -->
<g id="node6" class="node"><title>Node6</title>
<g id="a_node6"><a xlink:href="_init_8cpp.html" target="_top" xlink:title="Init.cpp">
<polygon fill="white" stroke="black" points="500,-78 500,-99 553,-99 553,-78 500,-78"/>
<text text-anchor="middle" x="526.5" y="-85.4" font-family="Helvetica,sans-Serif" font-size="12.00">Init.cpp</text>
</a>
</g>
</g>
<!-- Node5&#45;&gt;Node6 -->
<g id="edge5" class="edge"><title>Node5&#45;&gt;Node6</title>
<path fill="none" stroke="midnightblue" d="M481.411,-134.953C492.725,-123.548 507.219,-108.937 516.676,-99.4033"/>
<polygon fill="midnightblue" stroke="midnightblue" points="478.745,-132.67 474.188,-142.234 483.715,-137.6 478.745,-132.67"/>
</g>
<!-- Node7 -->
<g id="node7" class="node"><title>Node7</title>
<g id="a_node7"><a xlink:href="interface_2encoders_2_encoders_8h.html" target="_top" xlink:title="interface/encoders\l/Encoders.h">
<polygon fill="white" stroke="black" points="0,-71.5 0,-105.5 113,-105.5 113,-71.5 0,-71.5"/>
<text text-anchor="start" x="8" y="-91.9" font-family="Helvetica,sans-Serif" font-size="12.00">interface/encoders</text>
<text text-anchor="middle" x="56.5" y="-78.9" font-family="Helvetica,sans-Serif" font-size="12.00">/Encoders.h</text>
</a>
</g>
</g>
<!-- Node5&#45;&gt;Node7 -->
<g id="edge8" class="edge"><title>Node5&#45;&gt;Node7</title>
<path fill="none" stroke="midnightblue" d="M412.998,-146.965C345.635,-139.953 224.109,-125.835 121.5,-106 118.757,-105.47 115.956,-104.894 113.134,-104.285"/>
<polygon fill="midnightblue" stroke="midnightblue" points="413.027,-150.487 423.333,-148.029 413.744,-143.524 413.027,-150.487"/>
</g>
<!-- Node8 -->
<g id="node8" class="node"><title>Node8</title>
<g id="a_node8"><a xlink:href="interface_2encoders_2_encoders_8cpp.html" target="_top" xlink:title="interface/encoders\l/Encoders.cpp">
<polygon fill="white" stroke="black" points="207,-0.5 207,-34.5 320,-34.5 320,-0.5 207,-0.5"/>
<text text-anchor="start" x="215" y="-20.9" font-family="Helvetica,sans-Serif" font-size="12.00">interface/encoders</text>
<text text-anchor="middle" x="263.5" y="-7.9" font-family="Helvetica,sans-Serif" font-size="12.00">/Encoders.cpp</text>
</a>
</g>
</g>
<!-- Node5&#45;&gt;Node8 -->
<g id="edge14" class="edge"><title>Node5&#45;&gt;Node8</title>
<path fill="none" stroke="midnightblue" d="M466.862,-132.344C467.898,-114.202 466.346,-87.6289 451.5,-71 418.776,-34.3452 362.808,-22.3706 320.427,-18.8776"/>
<polygon fill="midnightblue" stroke="midnightblue" points="463.369,-132.117 465.979,-142.386 470.342,-132.731 463.369,-132.117"/>
</g>
<!-- Node5&#45;&gt;Node9 -->
<g id="edge11" class="edge"><title>Node5&#45;&gt;Node9</title>
<path fill="none" stroke="midnightblue" d="M502.109,-139.014C536.621,-127.096 586.943,-109.72 617.881,-99.037"/>
<polygon fill="midnightblue" stroke="midnightblue" points="500.695,-135.799 492.385,-142.371 502.979,-142.416 500.695,-135.799"/>
</g>
<!-- Node5&#45;&gt;Node10 -->
<g id="edge12" class="edge"><title>Node5&#45;&gt;Node10</title>
<path fill="none" stroke="midnightblue" d="M418.987,-139.844C374.361,-127.924 307.234,-109.995 266.29,-99.0594"/>
<polygon fill="midnightblue" stroke="midnightblue" points="418.141,-143.24 428.706,-142.44 419.948,-136.478 418.141,-143.24"/>
</g>
<!-- Node5&#45;&gt;Node11 -->
<g id="edge13" class="edge"><title>Node5&#45;&gt;Node11</title>
<path fill="none" stroke="midnightblue" d="M515.727,-143.195C569.114,-133.998 655.196,-119.112 729.5,-106 742.124,-103.772 755.718,-101.348 768.481,-99.061"/>
<polygon fill="midnightblue" stroke="midnightblue" points="515.085,-139.754 505.824,-144.9 516.273,-146.653 515.085,-139.754"/>
</g>
<!-- Node12 -->
<g id="node12" class="node"><title>Node12</title>
<g id="a_node12"><a xlink:href="_open_deck_8cpp.html" target="_top" xlink:title="OpenDeck.cpp">
<polygon fill="white" stroke="black" points="348,-78 348,-99 443,-99 443,-78 348,-78"/>
<text text-anchor="middle" x="395.5" y="-85.4" font-family="Helvetica,sans-Serif" font-size="12.00">OpenDeck.cpp</text>
</a>
</g>
</g>
<!-- Node5&#45;&gt;Node12 -->
<g id="edge15" class="edge"><title>Node5&#45;&gt;Node12</title>
<path fill="none" stroke="midnightblue" d="M446.042,-135.281C433.399,-123.829 417.059,-109.028 406.433,-99.4033"/>
<polygon fill="midnightblue" stroke="midnightblue" points="443.958,-138.115 453.719,-142.234 448.657,-132.927 443.958,-138.115"/>
</g>
<!-- Node7&#45;&gt;Node4 -->
<g id="edge9" class="edge"><title>Node7&#45;&gt;Node4</title>
<path fill="none" stroke="midnightblue" d="M98.5823,-110.113C152.287,-136.42 242.989,-180.849 282.785,-200.343"/>
<polygon fill="midnightblue" stroke="midnightblue" points="99.848,-106.836 89.3279,-105.58 96.7687,-113.123 99.848,-106.836"/>
</g>
<!-- Node7&#45;&gt;Node8 -->
<g id="edge10" class="edge"><title>Node7&#45;&gt;Node8</title>
<path fill="none" stroke="midnightblue" d="M114.151,-68.2829C146.027,-57.6576 185.175,-44.6084 215.392,-34.536"/>
<polygon fill="midnightblue" stroke="midnightblue" points="112.89,-65.0138 104.51,-71.4966 115.104,-71.6546 112.89,-65.0138"/>
</g>
</g>
</svg>
