<?xml version="1.0" encoding="UTF-8" standalone="no"?>
<!DOCTYPE svg PUBLIC "-//W3C//DTD SVG 1.1//EN"
 "http://www.w3.org/Graphics/SVG/1.1/DTD/svg11.dtd">
<!-- Generated by graphviz version 2.38.0 (20140413.2041)
 -->
<!-- Title: interface/digital/input/encoders/Encoders.cpp Pages: 1 -->
<svg width="1057pt" height="604pt"
 viewBox="0.00 0.00 1056.50 604.00" xmlns="http://www.w3.org/2000/svg" xmlns:xlink="http://www.w3.org/1999/xlink">
<g id="graph0" class="graph" transform="scale(1 1) rotate(0) translate(4 600)">
<title>interface/digital/input/encoders/Encoders.cpp</title>
<polygon fill="white" stroke="none" points="-4,4 -4,-600 1052.5,-600 1052.5,4 -4,4"/>
<!-- Node0 -->
<g id="node1" class="node"><title>Node0</title>
<polygon fill="#bfbfbf" stroke="black" points="277,-561.5 277,-595.5 421,-595.5 421,-561.5 277,-561.5"/>
<text text-anchor="start" x="285" y="-581.9" font-family="Helvetica,sans-Serif" font-size="12.00">interface/digital/input</text>
<text text-anchor="middle" x="349" y="-568.9" font-family="Helvetica,sans-Serif" font-size="12.00">/encoders/Encoders.cpp</text>
</g>
<!-- Node1 -->
<g id="node2" class="node"><title>Node1</title>
<g id="a_node2"><a xlink:href="interface_2digital_2input_2encoders_2_encoders_8h.html" target="_top" xlink:title="Encoders.h">
<polygon fill="white" stroke="black" points="264,-503.5 264,-524.5 340,-524.5 340,-503.5 264,-503.5"/>
<text text-anchor="middle" x="302" y="-510.9" font-family="Helvetica,sans-Serif" font-size="12.00">Encoders.h</text>
</a>
</g>
</g>
<!-- Node0&#45;&gt;Node1 -->
<g id="edge1" class="edge"><title>Node0&#45;&gt;Node1</title>
<path fill="none" stroke="midnightblue" d="M336.896,-561.405C330.369,-552.724 322.293,-541.985 315.555,-533.025"/>
<polygon fill="midnightblue" stroke="midnightblue" points="318.177,-530.689 309.37,-524.8 312.583,-534.896 318.177,-530.689"/>
</g>
<!-- Node36 -->
<g id="node37" class="node"><title>Node36</title>
<g id="a_node37"><a xlink:href="interface_2digital_2input_2encoders_2_constants_8h.html" target="_top" xlink:title="Constants.h">
<polygon fill="white" stroke="black" points="358,-503.5 358,-524.5 436,-524.5 436,-503.5 358,-503.5"/>
<text text-anchor="middle" x="397" y="-510.9" font-family="Helvetica,sans-Serif" font-size="12.00">Constants.h</text>
</a>
</g>
</g>
<!-- Node0&#45;&gt;Node36 -->
<g id="edge49" class="edge"><title>Node0&#45;&gt;Node36</title>
<path fill="none" stroke="midnightblue" d="M361.361,-561.405C368.097,-552.634 376.447,-541.761 383.371,-532.746"/>
<polygon fill="midnightblue" stroke="midnightblue" points="386.158,-534.863 389.474,-524.8 380.607,-530.599 386.158,-534.863"/>
</g>
<!-- Node2 -->
<g id="node3" class="node"><title>Node2</title>
<g id="a_node3"><a xlink:href="interface_2digital_2input_2encoders_2_data_types_8h.html" target="_top" xlink:title="DataTypes.h">
<polygon fill="white" stroke="black" points="190.5,-445.5 190.5,-466.5 273.5,-466.5 273.5,-445.5 190.5,-445.5"/>
<text text-anchor="middle" x="232" y="-452.9" font-family="Helvetica,sans-Serif" font-size="12.00">DataTypes.h</text>
</a>
</g>
</g>
<!-- Node1&#45;&gt;Node2 -->
<g id="edge2" class="edge"><title>Node1&#45;&gt;Node2</title>
<path fill="none" stroke="midnightblue" d="M289.807,-503.246C279.368,-494.894 264.135,-482.708 251.926,-472.941"/>
<polygon fill="midnightblue" stroke="midnightblue" points="254.048,-470.157 244.053,-466.643 249.676,-475.623 254.048,-470.157"/>
</g>
<!-- Node3 -->
<g id="node4" class="node"><title>Node3</title>
<g id="a_node4"><a xlink:href="_open_deck_8h.html" target="_top" xlink:title="../../../../OpenDeck.h">
<polygon fill="white" stroke="black" points="580,-445.5 580,-466.5 698,-466.5 698,-445.5 580,-445.5"/>
<text text-anchor="middle" x="639" y="-452.9" font-family="Helvetica,sans-Serif" font-size="12.00">../../../../OpenDeck.h</text>
</a>
</g>
</g>
<!-- Node1&#45;&gt;Node3 -->
<g id="edge3" class="edge"><title>Node1&#45;&gt;Node3</title>
<path fill="none" stroke="midnightblue" d="M340.186,-504.701C343.165,-504.107 346.129,-503.533 349,-503 424.334,-489.021 511.175,-475.6 570.042,-466.9"/>
<polygon fill="midnightblue" stroke="midnightblue" points="570.587,-470.358 579.97,-465.439 569.567,-463.433 570.587,-470.358"/>
</g>
<!-- Node4 -->
<g id="node5" class="node"><title>Node4</title>
<g id="a_node5"><a xlink:href="database_2_database_8h.html" target="_top" xlink:title="database/Database.h">
<polygon fill="white" stroke="black" points="504,-174.5 504,-195.5 634,-195.5 634,-174.5 504,-174.5"/>
<text text-anchor="middle" x="569" y="-181.9" font-family="Helvetica,sans-Serif" font-size="12.00">database/Database.h</text>
</a>
</g>
</g>
<!-- Node3&#45;&gt;Node4 -->
<g id="edge4" class="edge"><title>Node3&#45;&gt;Node4</title>
<path fill="none" stroke="midnightblue" d="M640.636,-445.42C645.656,-413.216 658.338,-306.696 621,-232 614.937,-219.871 604.161,-209.519 593.984,-201.724"/>
<polygon fill="midnightblue" stroke="midnightblue" points="595.864,-198.765 585.694,-195.795 591.792,-204.459 595.864,-198.765"/>
</g>
<!-- Node15 -->
<g id="node16" class="node"><title>Node15</title>
<g id="a_node16"><a xlink:href="_sys_ex_8h.html" target="_top" xlink:title="sysex/src/SysEx.h">
<polygon fill="white" stroke="black" points="667,-381 667,-402 777,-402 777,-381 667,-381"/>
<text text-anchor="middle" x="722" y="-388.4" font-family="Helvetica,sans-Serif" font-size="12.00">sysex/src/SysEx.h</text>
</a>
</g>
</g>
<!-- Node3&#45;&gt;Node15 -->
<g id="edge15" class="edge"><title>Node3&#45;&gt;Node15</title>
<path fill="none" stroke="midnightblue" d="M646.906,-445.234C658.265,-435.236 678.814,-419.549 695.666,-407.881"/>
<polygon fill="midnightblue" stroke="midnightblue" points="697.749,-410.698 704.073,-402.197 693.828,-404.899 697.749,-410.698"/>
</g>
<!-- Node18 -->
<g id="node19" class="node"><title>Node18</title>
<g id="a_node19"><a xlink:href="_version_8h.html" target="_top" xlink:title="versioning/src/avr\l/Version.h">
<polygon fill="white" stroke="black" points="795.5,-374.5 795.5,-408.5 902.5,-408.5 902.5,-374.5 795.5,-374.5"/>
<text text-anchor="start" x="803.5" y="-394.9" font-family="Helvetica,sans-Serif" font-size="12.00">versioning/src/avr</text>
<text text-anchor="middle" x="849" y="-381.9" font-family="Helvetica,sans-Serif" font-size="12.00">/Version.h</text>
</a>
</g>
</g>
<!-- Node3&#45;&gt;Node18 -->
<g id="edge20" class="edge"><title>Node3&#45;&gt;Node18</title>
<path fill="none" stroke="midnightblue" d="M671.352,-445.371C701.664,-436.35 747.818,-422.614 785.484,-411.403"/>
<polygon fill="midnightblue" stroke="midnightblue" points="786.776,-414.671 795.362,-408.464 784.779,-407.962 786.776,-414.671"/>
</g>
<!-- Node20 -->
<g id="node21" class="node"><title>Node20</title>
<g id="a_node21"><a xlink:href="_interface_8h.html" target="_top" xlink:title="interface/Interface.h">
<polygon fill="white" stroke="black" points="330,-381 330,-402 448,-402 448,-381 330,-381"/>
<text text-anchor="middle" x="389" y="-388.4" font-family="Helvetica,sans-Serif" font-size="12.00">interface/Interface.h</text>
</a>
</g>
</g>
<!-- Node3&#45;&gt;Node20 -->
<g id="edge22" class="edge"><title>Node3&#45;&gt;Node20</title>
<path fill="none" stroke="midnightblue" d="M600.758,-445.44C556.83,-434.457 484.693,-416.423 437.02,-404.505"/>
<polygon fill="midnightblue" stroke="midnightblue" points="437.788,-401.089 427.237,-402.059 436.09,-407.88 437.788,-401.089"/>
</g>
<!-- Node32 -->
<g id="node33" class="node"><title>Node32</title>
<g id="a_node33"><a xlink:href="midi_2src_2_m_i_d_i_8h.html" target="_top" xlink:title="midi/src/MIDI.h">
<polygon fill="white" stroke="black" points="920.5,-381 920.5,-402 1013.5,-402 1013.5,-381 920.5,-381"/>
<text text-anchor="middle" x="967" y="-388.4" font-family="Helvetica,sans-Serif" font-size="12.00">midi/src/MIDI.h</text>
</a>
</g>
</g>
<!-- Node3&#45;&gt;Node32 -->
<g id="edge43" class="edge"><title>Node3&#45;&gt;Node32</title>
<path fill="none" stroke="midnightblue" d="M698.267,-447.187C753.852,-439.347 839.098,-426.008 912,-409 917.147,-407.799 922.521,-406.388 927.807,-404.905"/>
<polygon fill="midnightblue" stroke="midnightblue" points="929.158,-408.157 937.782,-402.002 927.202,-401.436 929.158,-408.157"/>
</g>
<!-- Node5 -->
<g id="node6" class="node"><title>Node5</title>
<g id="a_node6"><a xlink:href="_d_b_m_s_8h.html" target="_top" xlink:title="../dbms/src/DBMS.h">
<polygon fill="white" stroke="black" points="324.5,-116.5 324.5,-137.5 445.5,-137.5 445.5,-116.5 324.5,-116.5"/>
<text text-anchor="middle" x="385" y="-123.9" font-family="Helvetica,sans-Serif" font-size="12.00">../dbms/src/DBMS.h</text>
</a>
</g>
</g>
<!-- Node4&#45;&gt;Node5 -->
<g id="edge5" class="edge"><title>Node4&#45;&gt;Node5</title>
<path fill="none" stroke="midnightblue" d="M537.369,-174.373C506.64,-165.021 459.824,-150.773 426.198,-140.538"/>
<polygon fill="midnightblue" stroke="midnightblue" points="426.804,-137.064 416.218,-137.501 424.766,-143.761 426.804,-137.064"/>
</g>
<!-- Node8 -->
<g id="node9" class="node"><title>Node8</title>
<g id="a_node9"><a xlink:href="database_2blocks_2_blocks_8h.html" target="_top" xlink:title="blocks/Blocks.h">
<polygon fill="white" stroke="black" points="520,-116.5 520,-137.5 618,-137.5 618,-116.5 520,-116.5"/>
<text text-anchor="middle" x="569" y="-123.9" font-family="Helvetica,sans-Serif" font-size="12.00">blocks/Blocks.h</text>
</a>
</g>
</g>
<!-- Node4&#45;&gt;Node8 -->
<g id="edge8" class="edge"><title>Node4&#45;&gt;Node8</title>
<path fill="none" stroke="midnightblue" d="M569,-174.246C569,-166.938 569,-156.694 569,-147.705"/>
<polygon fill="midnightblue" stroke="midnightblue" points="572.5,-147.643 569,-137.643 565.5,-147.643 572.5,-147.643"/>
</g>
<!-- Node6 -->
<g id="node7" class="node"><title>Node6</title>
<g id="a_node7"><a xlink:href="dbms_2src_2_data_types_8h.html" target="_top" xlink:title="DataTypes.h">
<polygon fill="white" stroke="black" points="291.5,-58.5 291.5,-79.5 374.5,-79.5 374.5,-58.5 291.5,-58.5"/>
<text text-anchor="middle" x="333" y="-65.9" font-family="Helvetica,sans-Serif" font-size="12.00">DataTypes.h</text>
</a>
</g>
</g>
<!-- Node5&#45;&gt;Node6 -->
<g id="edge6" class="edge"><title>Node5&#45;&gt;Node6</title>
<path fill="none" stroke="midnightblue" d="M375.942,-116.246C368.486,-108.216 357.737,-96.6394 348.858,-87.0781"/>
<polygon fill="midnightblue" stroke="midnightblue" points="351.323,-84.589 341.954,-79.6427 346.194,-89.3522 351.323,-84.589"/>
</g>
<!-- Node7 -->
<g id="node8" class="node"><title>Node7</title>
<polygon fill="white" stroke="#bfbfbf" points="824.5,-0.5 824.5,-21.5 889.5,-21.5 889.5,-0.5 824.5,-0.5"/>
<text text-anchor="middle" x="857" y="-7.9" font-family="Helvetica,sans-Serif" font-size="12.00">inttypes.h</text>
</g>
<!-- Node6&#45;&gt;Node7 -->
<g id="edge7" class="edge"><title>Node6&#45;&gt;Node7</title>
<path fill="none" stroke="midnightblue" d="M374.692,-59.4843C377.836,-58.9467 380.965,-58.4441 384,-58 541.946,-34.8901 731.319,-20.4373 814.402,-14.756"/>
<polygon fill="midnightblue" stroke="midnightblue" points="814.727,-18.2421 824.468,-14.0751 814.254,-11.258 814.727,-18.2421"/>
</g>
<!-- Node9 -->
<g id="node10" class="node"><title>Node9</title>
<g id="a_node10"><a xlink:href="database_2blocks_2_m_i_d_i_8h.html" target="_top" xlink:title="MIDI.h">
<polygon fill="white" stroke="black" points="602.5,-58.5 602.5,-79.5 651.5,-79.5 651.5,-58.5 602.5,-58.5"/>
<text text-anchor="middle" x="627" y="-65.9" font-family="Helvetica,sans-Serif" font-size="12.00">MIDI.h</text>
</a>
</g>
</g>
<!-- Node8&#45;&gt;Node9 -->
<g id="edge9" class="edge"><title>Node8&#45;&gt;Node9</title>
<path fill="none" stroke="midnightblue" d="M579.103,-116.246C587.503,-108.135 599.649,-96.4075 609.608,-86.7919"/>
<polygon fill="midnightblue" stroke="midnightblue" points="612.25,-89.1066 617.013,-79.6427 607.388,-84.0707 612.25,-89.1066"/>
</g>
<!-- Node10 -->
<g id="node11" class="node"><title>Node10</title>
<g id="a_node11"><a xlink:href="database_2blocks_2_buttons_8h.html" target="_top" xlink:title="Buttons.h">
<polygon fill="white" stroke="black" points="669.5,-58.5 669.5,-79.5 734.5,-79.5 734.5,-58.5 669.5,-58.5"/>
<text text-anchor="middle" x="702" y="-65.9" font-family="Helvetica,sans-Serif" font-size="12.00">Buttons.h</text>
</a>
</g>
</g>
<!-- Node8&#45;&gt;Node10 -->
<g id="edge10" class="edge"><title>Node8&#45;&gt;Node10</title>
<path fill="none" stroke="midnightblue" d="M591.864,-116.373C613.405,-107.303 645.884,-93.6279 669.996,-83.4755"/>
<polygon fill="midnightblue" stroke="midnightblue" points="671.577,-86.6075 679.435,-79.5011 668.86,-80.156 671.577,-86.6075"/>
</g>
<!-- Node11 -->
<g id="node12" class="node"><title>Node11</title>
<g id="a_node12"><a xlink:href="database_2blocks_2_encoders_8h.html" target="_top" xlink:title="Encoders.h">
<polygon fill="white" stroke="black" points="753,-58.5 753,-79.5 829,-79.5 829,-58.5 753,-58.5"/>
<text text-anchor="middle" x="791" y="-65.9" font-family="Helvetica,sans-Serif" font-size="12.00">Encoders.h</text>
</a>
</g>
</g>
<!-- Node8&#45;&gt;Node11 -->
<g id="edge11" class="edge"><title>Node8&#45;&gt;Node11</title>
<path fill="none" stroke="midnightblue" d="M606.911,-116.437C644.665,-106.913 702.727,-92.2672 743.526,-81.9753"/>
<polygon fill="midnightblue" stroke="midnightblue" points="744.405,-85.3633 753.245,-79.5237 742.693,-78.576 744.405,-85.3633"/>
</g>
<!-- Node12 -->
<g id="node13" class="node"><title>Node12</title>
<g id="a_node13"><a xlink:href="database_2blocks_2_analog_8h.html" target="_top" xlink:title="Analog.h">
<polygon fill="white" stroke="black" points="393,-58.5 393,-79.5 455,-79.5 455,-58.5 393,-58.5"/>
<text text-anchor="middle" x="424" y="-65.9" font-family="Helvetica,sans-Serif" font-size="12.00">Analog.h</text>
</a>
</g>
</g>
<!-- Node8&#45;&gt;Node12 -->
<g id="edge12" class="edge"><title>Node8&#45;&gt;Node12</title>
<path fill="none" stroke="midnightblue" d="M544.074,-116.373C520.38,-107.223 484.549,-93.3844 458.193,-83.2057"/>
<polygon fill="midnightblue" stroke="midnightblue" points="459.191,-79.8389 448.601,-79.5011 456.669,-86.3689 459.191,-79.8389"/>
</g>
<!-- Node13 -->
<g id="node14" class="node"><title>Node13</title>
<g id="a_node14"><a xlink:href="database_2blocks_2_l_e_ds_8h.html" target="_top" xlink:title="LEDs.h">
<polygon fill="white" stroke="black" points="473,-58.5 473,-79.5 529,-79.5 529,-58.5 473,-58.5"/>
<text text-anchor="middle" x="501" y="-65.9" font-family="Helvetica,sans-Serif" font-size="12.00">LEDs.h</text>
</a>
</g>
</g>
<!-- Node8&#45;&gt;Node13 -->
<g id="edge13" class="edge"><title>Node8&#45;&gt;Node13</title>
<path fill="none" stroke="midnightblue" d="M557.155,-116.246C547.112,-107.975 532.501,-95.9416 520.7,-86.2232"/>
<polygon fill="midnightblue" stroke="midnightblue" points="522.653,-83.298 512.709,-79.6427 518.203,-88.7015 522.653,-83.298"/>
</g>
<!-- Node14 -->
<g id="node15" class="node"><title>Node14</title>
<g id="a_node15"><a xlink:href="database_2blocks_2_i_d_8h.html" target="_top" xlink:title="ID.h">
<polygon fill="white" stroke="black" points="547.5,-58.5 547.5,-79.5 584.5,-79.5 584.5,-58.5 547.5,-58.5"/>
<text text-anchor="middle" x="566" y="-65.9" font-family="Helvetica,sans-Serif" font-size="12.00">ID.h</text>
</a>
</g>
</g>
<!-- Node8&#45;&gt;Node14 -->
<g id="edge14" class="edge"><title>Node8&#45;&gt;Node14</title>
<path fill="none" stroke="midnightblue" d="M568.477,-116.246C568.086,-108.938 567.537,-98.6944 567.056,-89.7046"/>
<polygon fill="midnightblue" stroke="midnightblue" points="570.547,-89.4411 566.517,-79.6427 563.557,-89.8156 570.547,-89.4411"/>
</g>
<!-- Node15&#45;&gt;Node3 -->
<g id="edge17" class="edge"><title>Node15&#45;&gt;Node3</title>
<path fill="none" stroke="midnightblue" d="M713.937,-402.403C702.562,-412.395 682.161,-427.964 665.398,-439.574"/>
<polygon fill="midnightblue" stroke="midnightblue" points="663.353,-436.732 657.031,-445.234 667.275,-442.53 663.353,-436.732"/>
</g>
<!-- Node16 -->
<g id="node17" class="node"><title>Node16</title>
<g id="a_node17"><a xlink:href="sysex_2src_2_config_8h.html" target="_top" xlink:title="Config.h">
<polygon fill="white" stroke="black" points="715,-239 715,-260 775,-260 775,-239 715,-239"/>
<text text-anchor="middle" x="745" y="-246.4" font-family="Helvetica,sans-Serif" font-size="12.00">Config.h</text>
</a>
</g>
</g>
<!-- Node15&#45;&gt;Node16 -->
<g id="edge16" class="edge"><title>Node15&#45;&gt;Node16</title>
<path fill="none" stroke="midnightblue" d="M715.2,-380.859C704.576,-364.535 686.308,-330.541 697,-303 702.502,-288.829 713.81,-276.147 724.07,-266.8"/>
<polygon fill="midnightblue" stroke="midnightblue" points="726.626,-269.218 731.941,-260.053 722.071,-263.903 726.626,-269.218"/>
</g>
<!-- Node17 -->
<g id="node18" class="node"><title>Node17</title>
<g id="a_node18"><a xlink:href="sysex_2src_2_data_types_8h.html" target="_top" xlink:title="DataTypes.h">
<polygon fill="white" stroke="black" points="706.5,-310 706.5,-331 789.5,-331 789.5,-310 706.5,-310"/>
<text text-anchor="middle" x="748" y="-317.4" font-family="Helvetica,sans-Serif" font-size="12.00">DataTypes.h</text>
</a>
</g>
</g>
<!-- Node15&#45;&gt;Node17 -->
<g id="edge18" class="edge"><title>Node15&#45;&gt;Node17</title>
<path fill="none" stroke="midnightblue" d="M725.615,-380.906C729.535,-370.504 735.892,-353.634 740.831,-340.525"/>
<polygon fill="midnightblue" stroke="midnightblue" points="744.165,-341.605 744.416,-331.013 737.614,-339.136 744.165,-341.605"/>
</g>
<!-- Node17&#45;&gt;Node16 -->
<g id="edge19" class="edge"><title>Node17&#45;&gt;Node16</title>
<path fill="none" stroke="midnightblue" d="M747.583,-309.906C747.14,-299.71 746.426,-283.3 745.861,-270.308"/>
<polygon fill="midnightblue" stroke="midnightblue" points="749.345,-269.851 745.414,-260.013 742.351,-270.155 749.345,-269.851"/>
</g>
<!-- Node19 -->
<g id="node20" class="node"><title>Node19</title>
<g id="a_node20"><a xlink:href="versioning_2src_2avr_2_data_types_8h.html" target="_top" xlink:title="DataTypes.h">
<polygon fill="white" stroke="black" points="807.5,-310 807.5,-331 890.5,-331 890.5,-310 807.5,-310"/>
<text text-anchor="middle" x="849" y="-317.4" font-family="Helvetica,sans-Serif" font-size="12.00">DataTypes.h</text>
</a>
</g>
</g>
<!-- Node18&#45;&gt;Node19 -->
<g id="edge21" class="edge"><title>Node18&#45;&gt;Node19</title>
<path fill="none" stroke="midnightblue" d="M849,-374.497C849,-364.673 849,-352.009 849,-341.524"/>
<polygon fill="midnightblue" stroke="midnightblue" points="852.5,-341.24 849,-331.24 845.5,-341.24 852.5,-341.24"/>
</g>
<!-- Node21 -->
<g id="node22" class="node"><title>Node21</title>
<g id="a_node22"><a xlink:href="interface_2analog_2_analog_8h.html" target="_top" xlink:title="analog/Analog.h">
<polygon fill="white" stroke="black" points="182.5,-310 182.5,-331 283.5,-331 283.5,-310 182.5,-310"/>
<text text-anchor="middle" x="233" y="-317.4" font-family="Helvetica,sans-Serif" font-size="12.00">analog/Analog.h</text>
</a>
</g>
</g>
<!-- Node20&#45;&gt;Node21 -->
<g id="edge23" class="edge"><title>Node20&#45;&gt;Node21</title>
<path fill="none" stroke="midnightblue" d="M367.309,-380.906C340.415,-369.011 294.398,-348.657 263.841,-335.141"/>
<polygon fill="midnightblue" stroke="midnightblue" points="265.068,-331.857 254.507,-331.013 262.236,-338.259 265.068,-331.857"/>
</g>
<!-- Node28 -->
<g id="node29" class="node"><title>Node28</title>
<g id="a_node29"><a xlink:href="_digital_input_8h.html" target="_top" xlink:title="digital/input/DigitalInput.h">
<polygon fill="white" stroke="black" points="302,-310 302,-331 448,-331 448,-310 302,-310"/>
<text text-anchor="middle" x="375" y="-317.4" font-family="Helvetica,sans-Serif" font-size="12.00">digital/input/DigitalInput.h</text>
</a>
</g>
</g>
<!-- Node20&#45;&gt;Node28 -->
<g id="edge34" class="edge"><title>Node20&#45;&gt;Node28</title>
<path fill="none" stroke="midnightblue" d="M387.053,-380.906C384.964,-370.607 381.588,-353.968 378.939,-340.915"/>
<polygon fill="midnightblue" stroke="midnightblue" points="382.349,-340.117 376.93,-331.013 375.489,-341.509 382.349,-340.117"/>
</g>
<!-- Node29 -->
<g id="node30" class="node"><title>Node29</title>
<g id="a_node30"><a xlink:href="interface_2digital_2output_2leds_2_l_e_ds_8h.html" target="_top" xlink:title="digital/output/leds\l/LEDs.h">
<polygon fill="white" stroke="black" points="504.5,-303.5 504.5,-337.5 611.5,-337.5 611.5,-303.5 504.5,-303.5"/>
<text text-anchor="start" x="512.5" y="-323.9" font-family="Helvetica,sans-Serif" font-size="12.00">digital/output/leds</text>
<text text-anchor="middle" x="558" y="-310.9" font-family="Helvetica,sans-Serif" font-size="12.00">/LEDs.h</text>
</a>
</g>
</g>
<!-- Node20&#45;&gt;Node29 -->
<g id="edge37" class="edge"><title>Node20&#45;&gt;Node29</title>
<path fill="none" stroke="midnightblue" d="M412.499,-380.906C437.403,-370.738 477.446,-354.389 509.225,-341.414"/>
<polygon fill="midnightblue" stroke="midnightblue" points="510.861,-344.526 518.797,-337.506 508.215,-338.046 510.861,-344.526"/>
</g>
<!-- Node21&#45;&gt;Node3 -->
<g id="edge33" class="edge"><title>Node21&#45;&gt;Node3</title>
<path fill="none" stroke="midnightblue" d="M239.405,-331.125C252.35,-349.706 283.606,-390.328 321,-409 363.416,-430.179 489.703,-443.513 569.783,-450.083"/>
<polygon fill="midnightblue" stroke="midnightblue" points="569.546,-453.575 579.794,-450.889 570.108,-446.598 569.546,-453.575"/>
</g>
<!-- Node21&#45;&gt;Node4 -->
<g id="edge28" class="edge"><title>Node21&#45;&gt;Node4</title>
<path fill="none" stroke="midnightblue" d="M232.022,-309.916C230.755,-291.772 230.899,-252.397 253,-232 287.074,-200.553 411.534,-190.562 493.714,-187.414"/>
<polygon fill="midnightblue" stroke="midnightblue" points="493.898,-190.91 503.767,-187.055 493.648,-183.914 493.898,-190.91"/>
</g>
<!-- Node22 -->
<g id="node23" class="node"><title>Node22</title>
<g id="a_node23"><a xlink:href="_board_8h.html" target="_top" xlink:title="../../board/Board.h">
<polygon fill="white" stroke="black" points="406,-239 406,-260 516,-260 516,-239 406,-239"/>
<text text-anchor="middle" x="461" y="-246.4" font-family="Helvetica,sans-Serif" font-size="12.00">../../board/Board.h</text>
</a>
</g>
</g>
<!-- Node21&#45;&gt;Node22 -->
<g id="edge24" class="edge"><title>Node21&#45;&gt;Node22</title>
<path fill="none" stroke="midnightblue" d="M264.702,-309.906C305.2,-297.65 375.366,-276.416 419.921,-262.932"/>
<polygon fill="midnightblue" stroke="midnightblue" points="421.009,-266.259 429.567,-260.013 418.982,-259.559 421.009,-266.259"/>
</g>
<!-- Node23 -->
<g id="node24" class="node"><title>Node23</title>
<g id="a_node24"><a xlink:href="interface_2digital_2input_2buttons_2_buttons_8h.html" target="_top" xlink:title="../digital/input/buttons\l/Buttons.h">
<polygon fill="white" stroke="black" points="262.5,-232.5 262.5,-266.5 387.5,-266.5 387.5,-232.5 262.5,-232.5"/>
<text text-anchor="start" x="270.5" y="-252.9" font-family="Helvetica,sans-Serif" font-size="12.00">../digital/input/buttons</text>
<text text-anchor="middle" x="325" y="-239.9" font-family="Helvetica,sans-Serif" font-size="12.00">/Buttons.h</text>
</a>
</g>
</g>
<!-- Node21&#45;&gt;Node23 -->
<g id="edge25" class="edge"><title>Node21&#45;&gt;Node23</title>
<path fill="none" stroke="midnightblue" d="M245.792,-309.906C258.49,-300.383 278.415,-285.439 295.104,-272.922"/>
<polygon fill="midnightblue" stroke="midnightblue" points="297.581,-275.439 303.481,-266.639 293.381,-269.839 297.581,-275.439"/>
</g>
<!-- Node25 -->
<g id="node26" class="node"><title>Node25</title>
<g id="a_node26"><a xlink:href="interface_2analog_2_data_types_8h.html" target="_top" xlink:title="DataTypes.h">
<polygon fill="white" stroke="black" points="84.5,-239 84.5,-260 167.5,-260 167.5,-239 84.5,-239"/>
<text text-anchor="middle" x="126" y="-246.4" font-family="Helvetica,sans-Serif" font-size="12.00">DataTypes.h</text>
</a>
</g>
</g>
<!-- Node21&#45;&gt;Node25 -->
<g id="edge29" class="edge"><title>Node21&#45;&gt;Node25</title>
<path fill="none" stroke="midnightblue" d="M218.122,-309.906C200.315,-298.423 170.283,-279.057 149.369,-265.569"/>
<polygon fill="midnightblue" stroke="midnightblue" points="151.053,-262.491 140.752,-260.013 147.259,-268.374 151.053,-262.491"/>
</g>
<!-- Node26 -->
<g id="node27" class="node"><title>Node26</title>
<g id="a_node27"><a xlink:href="interface_2analog_2_config_8h.html" target="_top" xlink:title="Config.h">
<polygon fill="white" stroke="black" points="85,-174.5 85,-195.5 145,-195.5 145,-174.5 85,-174.5"/>
<text text-anchor="middle" x="115" y="-181.9" font-family="Helvetica,sans-Serif" font-size="12.00">Config.h</text>
</a>
</g>
</g>
<!-- Node21&#45;&gt;Node26 -->
<g id="edge30" class="edge"><title>Node21&#45;&gt;Node26</title>
<path fill="none" stroke="midnightblue" d="M228.136,-309.804C219.308,-292.804 199.382,-257.048 176,-232 165.181,-220.411 151.166,-209.615 139.299,-201.399"/>
<polygon fill="midnightblue" stroke="midnightblue" points="140.985,-198.315 130.731,-195.648 137.084,-204.127 140.985,-198.315"/>
</g>
<!-- Node27 -->
<g id="node28" class="node"><title>Node27</title>
<g id="a_node28"><a xlink:href="interface_2analog_2_helpers_8h.html" target="_top" xlink:title="Helpers.h">
<polygon fill="white" stroke="black" points="0,-239 0,-260 66,-260 66,-239 0,-239"/>
<text text-anchor="middle" x="33" y="-246.4" font-family="Helvetica,sans-Serif" font-size="12.00">Helpers.h</text>
</a>
</g>
</g>
<!-- Node21&#45;&gt;Node27 -->
<g id="edge31" class="edge"><title>Node21&#45;&gt;Node27</title>
<path fill="none" stroke="midnightblue" d="M202.544,-309.914C170.603,-299.737 119.026,-282.95 75,-267 72.1458,-265.966 69.1933,-264.867 66.2378,-263.746"/>
<polygon fill="midnightblue" stroke="midnightblue" points="67.4929,-260.479 56.9033,-260.146 64.9739,-267.01 67.4929,-260.479"/>
</g>
<!-- Node23&#45;&gt;Node3 -->
<g id="edge27" class="edge"><title>Node23&#45;&gt;Node3</title>
<path fill="none" stroke="midnightblue" d="M377.884,-266.538C402.903,-275.351 432.574,-287.637 457,-303 476.436,-315.225 477.637,-322.975 495,-338 538.046,-375.248 590.281,-416.824 618.507,-439.004"/>
<polygon fill="midnightblue" stroke="midnightblue" points="616.43,-441.822 626.459,-445.238 620.749,-436.314 616.43,-441.822"/>
</g>
<!-- Node24 -->
<g id="node25" class="node"><title>Node24</title>
<g id="a_node25"><a xlink:href="interface_2digital_2input_2buttons_2_data_types_8h.html" target="_top" xlink:title="DataTypes.h">
<polygon fill="white" stroke="black" points="283.5,-174.5 283.5,-195.5 366.5,-195.5 366.5,-174.5 283.5,-174.5"/>
<text text-anchor="middle" x="325" y="-181.9" font-family="Helvetica,sans-Serif" font-size="12.00">DataTypes.h</text>
</a>
</g>
</g>
<!-- Node23&#45;&gt;Node24 -->
<g id="edge26" class="edge"><title>Node23&#45;&gt;Node24</title>
<path fill="none" stroke="midnightblue" d="M325,-232.405C325,-224.357 325,-214.541 325,-206.012"/>
<polygon fill="midnightblue" stroke="midnightblue" points="328.5,-205.8 325,-195.8 321.5,-205.8 328.5,-205.8"/>
</g>
<!-- Node27&#45;&gt;Node26 -->
<g id="edge32" class="edge"><title>Node27&#45;&gt;Node26</title>
<path fill="none" stroke="midnightblue" d="M45.8125,-238.734C58.6901,-228.919 78.7584,-213.623 93.972,-202.027"/>
<polygon fill="midnightblue" stroke="midnightblue" points="96.4459,-204.543 102.277,-195.697 92.2026,-198.975 96.4459,-204.543"/>
</g>
<!-- Node28&#45;&gt;Node1 -->
<g id="edge36" class="edge"><title>Node28&#45;&gt;Node1</title>
<path fill="none" stroke="midnightblue" d="M360.437,-331.302C347.775,-340.678 330.077,-356.026 321,-374 301.41,-412.79 299.897,-465.028 300.78,-493.127"/>
<polygon fill="midnightblue" stroke="midnightblue" points="297.29,-493.437 301.24,-503.269 304.283,-493.12 297.29,-493.437"/>
</g>
<!-- Node28&#45;&gt;Node23 -->
<g id="edge35" class="edge"><title>Node28&#45;&gt;Node23</title>
<path fill="none" stroke="midnightblue" d="M368.048,-309.906C361.527,-300.907 351.498,-287.067 342.761,-275.01"/>
<polygon fill="midnightblue" stroke="midnightblue" points="345.397,-272.683 336.695,-266.639 339.729,-276.791 345.397,-272.683"/>
</g>
<!-- Node29&#45;&gt;Node22 -->
<g id="edge42" class="edge"><title>Node29&#45;&gt;Node22</title>
<path fill="none" stroke="midnightblue" d="M535.502,-303.497C519.689,-292.248 498.64,-277.275 482.95,-266.114"/>
<polygon fill="midnightblue" stroke="midnightblue" points="484.588,-262.984 474.411,-260.04 480.531,-268.688 484.588,-262.984"/>
</g>
<!-- Node30 -->
<g id="node31" class="node"><title>Node30</title>
<g id="a_node31"><a xlink:href="interface_2digital_2output_2leds_2_data_types_8h.html" target="_top" xlink:title="DataTypes.h">
<polygon fill="white" stroke="black" points="712.5,-116.5 712.5,-137.5 795.5,-137.5 795.5,-116.5 712.5,-116.5"/>
<text text-anchor="middle" x="754" y="-123.9" font-family="Helvetica,sans-Serif" font-size="12.00">DataTypes.h</text>
</a>
</g>
</g>
<!-- Node29&#45;&gt;Node30 -->
<g id="edge38" class="edge"><title>Node29&#45;&gt;Node30</title>
<path fill="none" stroke="midnightblue" d="M578.642,-303.277C591.19,-293.177 607.367,-279.728 621,-267 665.691,-225.275 714.476,-172.146 738.647,-145.259"/>
<polygon fill="midnightblue" stroke="midnightblue" points="741.263,-147.584 745.326,-137.799 736.048,-142.915 741.263,-147.584"/>
</g>
<!-- Node31 -->
<g id="node32" class="node"><title>Node31</title>
<g id="a_node32"><a xlink:href="interface_2digital_2output_2leds_2_constants_8h.html" target="_top" xlink:title="Constants.h">
<polygon fill="white" stroke="black" points="534,-239 534,-260 612,-260 612,-239 534,-239"/>
<text text-anchor="middle" x="573" y="-246.4" font-family="Helvetica,sans-Serif" font-size="12.00">Constants.h</text>
</a>
</g>
</g>
<!-- Node29&#45;&gt;Node31 -->
<g id="edge40" class="edge"><title>Node29&#45;&gt;Node31</title>
<path fill="none" stroke="midnightblue" d="M561.479,-303.497C563.637,-293.569 566.426,-280.739 568.719,-270.19"/>
<polygon fill="midnightblue" stroke="midnightblue" points="572.178,-270.755 570.883,-260.24 565.338,-269.268 572.178,-270.755"/>
</g>
<!-- Node30&#45;&gt;Node7 -->
<g id="edge39" class="edge"><title>Node30&#45;&gt;Node7</title>
<path fill="none" stroke="midnightblue" d="M784.017,-116.34C802.113,-109.057 824.248,-97.3178 838,-80 848.934,-66.231 853.58,-46.5437 855.552,-31.8929"/>
<polygon fill="midnightblue" stroke="midnightblue" points="859.043,-32.1615 856.598,-21.8525 852.08,-31.4357 859.043,-32.1615"/>
</g>
<!-- Node31&#45;&gt;Node4 -->
<g id="edge41" class="edge"><title>Node31&#45;&gt;Node4</title>
<path fill="none" stroke="midnightblue" d="M572.375,-238.734C571.815,-229.98 570.975,-216.865 570.274,-205.904"/>
<polygon fill="midnightblue" stroke="midnightblue" points="573.765,-205.659 569.634,-195.903 566.78,-206.106 573.765,-205.659"/>
</g>
<!-- Node33 -->
<g id="node34" class="node"><title>Node33</title>
<g id="a_node34"><a xlink:href="midi_2src_2_data_types_8h.html" target="_top" xlink:title="DataTypes.h">
<polygon fill="white" stroke="black" points="965.5,-310 965.5,-331 1048.5,-331 1048.5,-310 965.5,-310"/>
<text text-anchor="middle" x="1007" y="-317.4" font-family="Helvetica,sans-Serif" font-size="12.00">DataTypes.h</text>
</a>
</g>
</g>
<!-- Node32&#45;&gt;Node33 -->
<g id="edge44" class="edge"><title>Node32&#45;&gt;Node33</title>
<path fill="none" stroke="midnightblue" d="M972.562,-380.906C978.711,-370.298 988.76,-352.963 996.42,-339.75"/>
<polygon fill="midnightblue" stroke="midnightblue" points="999.498,-341.419 1001.49,-331.013 993.442,-337.909 999.498,-341.419"/>
</g>
<!-- Node34 -->
<g id="node35" class="node"><title>Node34</title>
<g id="a_node35"><a xlink:href="midi_2src_2_helpers_8h.html" target="_top" xlink:title="Helpers.h">
<polygon fill="white" stroke="black" points="913,-239 913,-260 979,-260 979,-239 913,-239"/>
<text text-anchor="middle" x="946" y="-246.4" font-family="Helvetica,sans-Serif" font-size="12.00">Helpers.h</text>
</a>
</g>
</g>
<!-- Node32&#45;&gt;Node34 -->
<g id="edge48" class="edge"><title>Node32&#45;&gt;Node34</title>
<path fill="none" stroke="midnightblue" d="M964.973,-380.856C962.81,-370.349 959.374,-353.03 957,-338 953.338,-314.816 950.117,-288.02 948.123,-270.253"/>
<polygon fill="midnightblue" stroke="midnightblue" points="951.594,-269.797 947.021,-260.239 944.636,-270.562 951.594,-269.797"/>
</g>
<!-- Node33&#45;&gt;Node34 -->
<g id="edge45" class="edge"><title>Node33&#45;&gt;Node34</title>
<path fill="none" stroke="midnightblue" d="M998.518,-309.906C988.867,-298.989 972.918,-280.948 961.123,-267.607"/>
<polygon fill="midnightblue" stroke="midnightblue" points="963.655,-265.187 954.41,-260.013 958.411,-269.823 963.655,-265.187"/>
</g>
<!-- Node34&#45;&gt;Node7 -->
<g id="edge47" class="edge"><title>Node34&#45;&gt;Node7</title>
<path fill="none" stroke="midnightblue" d="M939.102,-238.838C932.038,-228.599 921.113,-211.762 914,-196 888.171,-138.763 869.566,-66.4979 861.484,-32.0448"/>
<polygon fill="midnightblue" stroke="midnightblue" points="864.801,-30.8496 859.151,-21.8866 857.978,-32.4163 864.801,-30.8496"/>
</g>
<!-- Node35 -->
<g id="node36" class="node"><title>Node35</title>
<polygon fill="white" stroke="#bfbfbf" points="923,-174.5 923,-195.5 981,-195.5 981,-174.5 923,-174.5"/>
<text text-anchor="middle" x="952" y="-181.9" font-family="Helvetica,sans-Serif" font-size="12.00">stddef.h</text>
</g>
<!-- Node34&#45;&gt;Node35 -->
<g id="edge46" class="edge"><title>Node34&#45;&gt;Node35</title>
<path fill="none" stroke="midnightblue" d="M946.938,-238.734C947.778,-229.98 949.037,-216.865 950.089,-205.904"/>
<polygon fill="midnightblue" stroke="midnightblue" points="953.578,-206.192 951.049,-195.903 946.61,-205.523 953.578,-206.192"/>
</g>
</g>
</svg>
