<?xml version="1.0" encoding="UTF-8" standalone="no"?>
<!DOCTYPE svg PUBLIC "-//W3C//DTD SVG 1.1//EN"
 "http://www.w3.org/Graphics/SVG/1.1/DTD/svg11.dtd">
<!-- Generated by graphviz version 2.38.0 (20140413.2041)
 -->
<!-- Title: interface/digital/output/leds/LEDs.h Pages: 1 -->
<svg width="1004pt" height="385pt"
 viewBox="0.00 0.00 1004.00 385.00" xmlns="http://www.w3.org/2000/svg" xmlns:xlink="http://www.w3.org/1999/xlink">
<g id="graph0" class="graph" transform="scale(1 1) rotate(0) translate(4 381)">
<title>interface/digital/output/leds/LEDs.h</title>
<polygon fill="white" stroke="none" points="-4,4 -4,-381 1000,-381 1000,4 -4,4"/>
<!-- Node15 -->
<g id="node1" class="node"><title>Node15</title>
<polygon fill="#bfbfbf" stroke="black" points="456,-342.5 456,-376.5 587,-376.5 587,-342.5 456,-342.5"/>
<text text-anchor="start" x="464" y="-362.9" font-family="Helvetica,sans-Serif" font-size="12.00">interface/digital/output</text>
<text text-anchor="middle" x="521.5" y="-349.9" font-family="Helvetica,sans-Serif" font-size="12.00">/leds/LEDs.h</text>
</g>
<!-- Node16 -->
<g id="node2" class="node"><title>Node16</title>
<g id="a_node2"><a xlink:href="_interface_8h.html" target="_top" xlink:title="interface/Interface.h">
<polygon fill="white" stroke="black" points="391.5,-278 391.5,-299 509.5,-299 509.5,-278 391.5,-278"/>
<text text-anchor="middle" x="450.5" y="-285.4" font-family="Helvetica,sans-Serif" font-size="12.00">interface/Interface.h</text>
</a>
</g>
</g>
<!-- Node15&#45;&gt;Node16 -->
<g id="edge1" class="edge"><title>Node15&#45;&gt;Node16</title>
<path fill="none" stroke="midnightblue" d="M497.521,-335.197C484.899,-322.93 470.097,-308.545 460.522,-299.24"/>
<polygon fill="midnightblue" stroke="midnightblue" points="495.422,-338.037 505.033,-342.497 500.301,-333.017 495.422,-338.037"/>
</g>
<!-- Node32 -->
<g id="node18" class="node"><title>Node32</title>
<g id="a_node18"><a xlink:href="interface_2digital_2output_2leds_2_l_e_ds_8cpp.html" target="_top" xlink:title="interface/digital/output\l/leds/LEDs.cpp">
<polygon fill="white" stroke="black" points="528,-271.5 528,-305.5 659,-305.5 659,-271.5 528,-271.5"/>
<text text-anchor="start" x="536" y="-291.9" font-family="Helvetica,sans-Serif" font-size="12.00">interface/digital/output</text>
<text text-anchor="middle" x="593.5" y="-278.9" font-family="Helvetica,sans-Serif" font-size="12.00">/leds/LEDs.cpp</text>
</a>
</g>
</g>
<!-- Node15&#45;&gt;Node32 -->
<g id="edge24" class="edge"><title>Node15&#45;&gt;Node32</title>
<path fill="none" stroke="midnightblue" d="M545.584,-335.42C555.68,-325.744 567.185,-314.718 576.391,-305.896"/>
<polygon fill="midnightblue" stroke="midnightblue" points="542.997,-333.051 538.199,-342.497 547.841,-338.104 542.997,-333.051"/>
</g>
<!-- Node17 -->
<g id="node3" class="node"><title>Node17</title>
<g id="a_node3"><a xlink:href="_open_deck_8h.html" target="_top" xlink:title="OpenDeck.h">
<polygon fill="white" stroke="black" points="409.5,-213.5 409.5,-234.5 491.5,-234.5 491.5,-213.5 409.5,-213.5"/>
<text text-anchor="middle" x="450.5" y="-220.9" font-family="Helvetica,sans-Serif" font-size="12.00">OpenDeck.h</text>
</a>
</g>
</g>
<!-- Node16&#45;&gt;Node17 -->
<g id="edge2" class="edge"><title>Node16&#45;&gt;Node17</title>
<path fill="none" stroke="midnightblue" d="M450.5,-267.425C450.5,-256.557 450.5,-243.612 450.5,-234.903"/>
<polygon fill="midnightblue" stroke="midnightblue" points="447,-267.734 450.5,-277.734 454,-267.734 447,-267.734"/>
</g>
<!-- Node18 -->
<g id="node4" class="node"><title>Node18</title>
<g id="a_node4"><a xlink:href="_init_8cpp.html" target="_top" xlink:title="Init.cpp">
<polygon fill="white" stroke="black" points="204,-149 204,-170 257,-170 257,-149 204,-149"/>
<text text-anchor="middle" x="230.5" y="-156.4" font-family="Helvetica,sans-Serif" font-size="12.00">Init.cpp</text>
</a>
</g>
</g>
<!-- Node17&#45;&gt;Node18 -->
<g id="edge3" class="edge"><title>Node17&#45;&gt;Node18</title>
<path fill="none" stroke="midnightblue" d="M399.199,-213.084C361.616,-205.139 309.673,-192.731 265.5,-177 260.058,-175.062 254.322,-172.564 249.104,-170.101"/>
<polygon fill="midnightblue" stroke="midnightblue" points="398.897,-216.596 409.4,-215.206 400.322,-209.743 398.897,-216.596"/>
</g>
<!-- Node19 -->
<g id="node5" class="node"><title>Node19</title>
<g id="a_node5"><a xlink:href="_sys_ex_8h.html" target="_top" xlink:title="sysex/src/SysEx.h">
<polygon fill="white" stroke="black" points="718.5,-149 718.5,-170 828.5,-170 828.5,-149 718.5,-149"/>
<text text-anchor="middle" x="773.5" y="-156.4" font-family="Helvetica,sans-Serif" font-size="12.00">sysex/src/SysEx.h</text>
</a>
</g>
</g>
<!-- Node17&#45;&gt;Node19 -->
<g id="edge4" class="edge"><title>Node17&#45;&gt;Node19</title>
<path fill="none" stroke="midnightblue" d="M501.638,-213.855C552.145,-205.322 631.263,-191.724 699.5,-177 709.06,-174.937 719.344,-172.452 729.167,-170.043"/>
<polygon fill="midnightblue" stroke="midnightblue" points="500.898,-210.43 491.619,-215.545 502.062,-217.333 500.898,-210.43"/>
</g>
<!-- Node21 -->
<g id="node7" class="node"><title>Node21</title>
<g id="a_node7"><a xlink:href="interface_2digital_2input_2buttons_2_buttons_8h.html" target="_top" xlink:title="interface/digital/input\l/buttons/Buttons.h">
<polygon fill="white" stroke="black" points="388.5,-142.5 388.5,-176.5 512.5,-176.5 512.5,-142.5 388.5,-142.5"/>
<text text-anchor="start" x="396.5" y="-162.9" font-family="Helvetica,sans-Serif" font-size="12.00">interface/digital/input</text>
<text text-anchor="middle" x="450.5" y="-149.9" font-family="Helvetica,sans-Serif" font-size="12.00">/buttons/Buttons.h</text>
</a>
</g>
</g>
<!-- Node17&#45;&gt;Node21 -->
<g id="edge7" class="edge"><title>Node17&#45;&gt;Node21</title>
<path fill="none" stroke="midnightblue" d="M450.5,-203.07C450.5,-194.58 450.5,-184.801 450.5,-176.758"/>
<polygon fill="midnightblue" stroke="midnightblue" points="447,-203.234 450.5,-213.234 454,-203.234 447,-203.234"/>
</g>
<!-- Node22 -->
<g id="node8" class="node"><title>Node22</title>
<g id="a_node8"><a xlink:href="interface_2analog_2_analog_8h.html" target="_top" xlink:title="interface/analog/Analog.h">
<polygon fill="white" stroke="black" points="175,-78 175,-99 324,-99 324,-78 175,-78"/>
<text text-anchor="middle" x="249.5" y="-85.4" font-family="Helvetica,sans-Serif" font-size="12.00">interface/analog/Analog.h</text>
</a>
</g>
</g>
<!-- Node17&#45;&gt;Node22 -->
<g id="edge17" class="edge"><title>Node17&#45;&gt;Node22</title>
<path fill="none" stroke="midnightblue" d="M398.957,-221.28C331.835,-217.831 220.039,-207.537 194.5,-177 172.859,-151.124 212.665,-116.064 235.339,-99.2642"/>
<polygon fill="midnightblue" stroke="midnightblue" points="399.169,-224.794 409.326,-221.777 399.505,-217.802 399.169,-224.794"/>
</g>
<!-- Node24 -->
<g id="node10" class="node"><title>Node24</title>
<g id="a_node10"><a xlink:href="_f_s_r_8cpp.html" target="_top" xlink:title="interface/analog/FSR.cpp">
<polygon fill="white" stroke="black" points="400,-7 400,-28 549,-28 549,-7 400,-7"/>
<text text-anchor="middle" x="474.5" y="-14.4" font-family="Helvetica,sans-Serif" font-size="12.00">interface/analog/FSR.cpp</text>
</a>
</g>
</g>
<!-- Node17&#45;&gt;Node24 -->
<g id="edge21" class="edge"><title>Node17&#45;&gt;Node24</title>
<path fill="none" stroke="midnightblue" d="M486.329,-208.804C499.879,-201.468 513.862,-191.049 521.5,-177 544.002,-135.61 538.32,-115.006 521.5,-71 514.686,-53.1737 498.724,-37.5779 487.293,-28.1139"/>
<polygon fill="midnightblue" stroke="midnightblue" points="484.494,-205.808 477.101,-213.397 487.613,-212.075 484.494,-205.808"/>
</g>
<!-- Node25 -->
<g id="node11" class="node"><title>Node25</title>
<g id="a_node11"><a xlink:href="_potentiometer_8cpp.html" target="_top" xlink:title="interface/analog/Potentiometer.cpp">
<polygon fill="white" stroke="black" points="0,-7 0,-28 199,-28 199,-7 0,-7"/>
<text text-anchor="middle" x="99.5" y="-14.4" font-family="Helvetica,sans-Serif" font-size="12.00">interface/analog/Potentiometer.cpp</text>
</a>
</g>
</g>
<!-- Node17&#45;&gt;Node25 -->
<g id="edge22" class="edge"><title>Node17&#45;&gt;Node25</title>
<path fill="none" stroke="midnightblue" d="M399.385,-219.464C332.008,-213.92 218.078,-201.22 184.5,-177 131.32,-138.64 108.191,-56.5577 101.596,-28.298"/>
<polygon fill="midnightblue" stroke="midnightblue" points="399.129,-222.955 409.376,-220.262 399.687,-215.977 399.129,-222.955"/>
</g>
<!-- Node29 -->
<g id="node15" class="node"><title>Node29</title>
<g id="a_node15"><a xlink:href="interface_2digital_2input_2encoders_2_encoders_8h.html" target="_top" xlink:title="interface/digital/input\l/encoders/Encoders.h">
<polygon fill="white" stroke="black" points="569,-142.5 569,-176.5 700,-176.5 700,-142.5 569,-142.5"/>
<text text-anchor="start" x="577" y="-162.9" font-family="Helvetica,sans-Serif" font-size="12.00">interface/digital/input</text>
<text text-anchor="middle" x="634.5" y="-149.9" font-family="Helvetica,sans-Serif" font-size="12.00">/encoders/Encoders.h</text>
</a>
</g>
</g>
<!-- Node17&#45;&gt;Node29 -->
<g id="edge18" class="edge"><title>Node17&#45;&gt;Node29</title>
<path fill="none" stroke="midnightblue" d="M488.483,-210.098C517.088,-200.382 556.482,-187.001 587.143,-176.586"/>
<polygon fill="midnightblue" stroke="midnightblue" points="487.19,-206.841 478.847,-213.371 489.441,-213.469 487.19,-206.841"/>
</g>
<!-- Node31 -->
<g id="node17" class="node"><title>Node31</title>
<g id="a_node17"><a xlink:href="_open_deck_8cpp.html" target="_top" xlink:title="OpenDeck.cpp">
<polygon fill="white" stroke="black" points="275,-149 275,-170 370,-170 370,-149 275,-149"/>
<text text-anchor="middle" x="322.5" y="-156.4" font-family="Helvetica,sans-Serif" font-size="12.00">OpenDeck.cpp</text>
</a>
</g>
</g>
<!-- Node17&#45;&gt;Node31 -->
<g id="edge23" class="edge"><title>Node17&#45;&gt;Node31</title>
<path fill="none" stroke="midnightblue" d="M421.674,-208.925C397.372,-197.058 363.253,-180.399 342.032,-170.037"/>
<polygon fill="midnightblue" stroke="midnightblue" points="420.259,-212.129 430.781,-213.371 423.33,-205.838 420.259,-212.129"/>
</g>
<!-- Node19&#45;&gt;Node17 -->
<g id="edge5" class="edge"><title>Node19&#45;&gt;Node17</title>
<path fill="none" stroke="midnightblue" d="M736.742,-172.534C730.359,-174.111 723.774,-175.646 717.5,-177 638.335,-194.082 544.527,-209.648 491.686,-217.548"/>
<polygon fill="midnightblue" stroke="midnightblue" points="737.703,-175.901 746.531,-170.043 735.976,-169.117 737.703,-175.901"/>
</g>
<!-- Node20 -->
<g id="node6" class="node"><title>Node20</title>
<g id="a_node6"><a xlink:href="_sys_ex_8cpp.html" target="_top" xlink:title="sysex/src/SysEx.cpp">
<polygon fill="white" stroke="black" points="873,-78 873,-99 996,-99 996,-78 873,-78"/>
<text text-anchor="middle" x="934.5" y="-85.4" font-family="Helvetica,sans-Serif" font-size="12.00">sysex/src/SysEx.cpp</text>
</a>
</g>
</g>
<!-- Node19&#45;&gt;Node20 -->
<g id="edge6" class="edge"><title>Node19&#45;&gt;Node20</title>
<path fill="none" stroke="midnightblue" d="M805.137,-144.941C836.744,-131.395 884.519,-110.921 912.304,-99.0127"/>
<polygon fill="midnightblue" stroke="midnightblue" points="803.699,-141.75 795.886,-148.906 806.457,-148.184 803.699,-141.75"/>
</g>
<!-- Node21&#45;&gt;Node22 -->
<g id="edge8" class="edge"><title>Node21&#45;&gt;Node22</title>
<path fill="none" stroke="midnightblue" d="M393.942,-139.085C355.853,-126.009 307.278,-109.334 277.29,-99.0398"/>
<polygon fill="midnightblue" stroke="midnightblue" points="393.287,-142.56 403.881,-142.497 395.56,-135.939 393.287,-142.56"/>
</g>
<!-- Node26 -->
<g id="node12" class="node"><title>Node26</title>
<g id="a_node12"><a xlink:href="_digital_input_8h.html" target="_top" xlink:title="interface/digital/input\l/DigitalInput.h">
<polygon fill="white" stroke="black" points="568.5,-71.5 568.5,-105.5 692.5,-105.5 692.5,-71.5 568.5,-71.5"/>
<text text-anchor="start" x="576.5" y="-91.9" font-family="Helvetica,sans-Serif" font-size="12.00">interface/digital/input</text>
<text text-anchor="middle" x="630.5" y="-78.9" font-family="Helvetica,sans-Serif" font-size="12.00">/DigitalInput.h</text>
</a>
</g>
</g>
<!-- Node21&#45;&gt;Node26 -->
<g id="edge13" class="edge"><title>Node21&#45;&gt;Node26</title>
<path fill="none" stroke="midnightblue" d="M501.71,-138.869C529.229,-128.321 562.731,-115.478 588.667,-105.536"/>
<polygon fill="midnightblue" stroke="midnightblue" points="500.333,-135.649 492.248,-142.497 502.838,-142.185 500.333,-135.649"/>
</g>
<!-- Node28 -->
<g id="node14" class="node"><title>Node28</title>
<g id="a_node14"><a xlink:href="interface_2digital_2input_2buttons_2_buttons_8cpp.html" target="_top" xlink:title="interface/digital/input\l/buttons/Buttons.cpp">
<polygon fill="white" stroke="black" points="388.5,-71.5 388.5,-105.5 512.5,-105.5 512.5,-71.5 388.5,-71.5"/>
<text text-anchor="start" x="396.5" y="-91.9" font-family="Helvetica,sans-Serif" font-size="12.00">interface/digital/input</text>
<text text-anchor="middle" x="450.5" y="-78.9" font-family="Helvetica,sans-Serif" font-size="12.00">/buttons/Buttons.cpp</text>
</a>
</g>
</g>
<!-- Node21&#45;&gt;Node28 -->
<g id="edge16" class="edge"><title>Node21&#45;&gt;Node28</title>
<path fill="none" stroke="midnightblue" d="M450.5,-132.247C450.5,-123.392 450.5,-113.767 450.5,-105.896"/>
<polygon fill="midnightblue" stroke="midnightblue" points="447,-132.497 450.5,-142.497 454,-132.497 447,-132.497"/>
</g>
<!-- Node22&#45;&gt;Node16 -->
<g id="edge9" class="edge"><title>Node22&#45;&gt;Node16</title>
<path fill="none" stroke="midnightblue" d="M221.064,-104.419C207.305,-113.313 192.143,-126.002 184.5,-142 177.794,-156.036 175.864,-164.062 184.5,-177 230.375,-245.733 327.862,-271.774 391.213,-281.599"/>
<polygon fill="midnightblue" stroke="midnightblue" points="223.066,-107.299 229.809,-99.1269 219.442,-101.31 223.066,-107.299"/>
</g>
<!-- Node23 -->
<g id="node9" class="node"><title>Node23</title>
<g id="a_node9"><a xlink:href="interface_2analog_2_analog_8cpp.html" target="_top" xlink:title="interface/analog/Analog.cpp">
<polygon fill="white" stroke="black" points="217.5,-7 217.5,-28 379.5,-28 379.5,-7 217.5,-7"/>
<text text-anchor="middle" x="298.5" y="-14.4" font-family="Helvetica,sans-Serif" font-size="12.00">interface/analog/Analog.cpp</text>
</a>
</g>
</g>
<!-- Node22&#45;&gt;Node23 -->
<g id="edge10" class="edge"><title>Node22&#45;&gt;Node23</title>
<path fill="none" stroke="midnightblue" d="M262.26,-69.5322C271.691,-56.2509 284.163,-38.6887 291.745,-28.0127"/>
<polygon fill="midnightblue" stroke="midnightblue" points="259.25,-67.726 256.313,-77.9058 264.957,-71.7791 259.25,-67.726"/>
</g>
<!-- Node22&#45;&gt;Node24 -->
<g id="edge11" class="edge"><title>Node22&#45;&gt;Node24</title>
<path fill="none" stroke="midnightblue" d="M290.61,-74.893C334.703,-61.3709 403.73,-40.2028 443.48,-28.0127"/>
<polygon fill="midnightblue" stroke="midnightblue" points="289.32,-71.6277 280.785,-77.9058 291.372,-78.3201 289.32,-71.6277"/>
</g>
<!-- Node22&#45;&gt;Node25 -->
<g id="edge12" class="edge"><title>Node22&#45;&gt;Node25</title>
<path fill="none" stroke="midnightblue" d="M219.26,-73.5896C189.811,-60.043 145.843,-39.8179 120.18,-28.0127"/>
<polygon fill="midnightblue" stroke="midnightblue" points="218.096,-76.9065 228.643,-77.9058 221.021,-70.547 218.096,-76.9065"/>
</g>
<!-- Node26&#45;&gt;Node16 -->
<g id="edge14" class="edge"><title>Node26&#45;&gt;Node16</title>
<path fill="none" stroke="midnightblue" d="M702.572,-106.694C761.447,-120.906 835.318,-139.195 837.5,-142 847.052,-154.277 846.869,-164.582 837.5,-177 826.69,-191.328 583.859,-253.857 488.475,-277.969"/>
<polygon fill="midnightblue" stroke="midnightblue" points="703.063,-103.212 692.521,-104.272 701.423,-110.017 703.063,-103.212"/>
</g>
<!-- Node27 -->
<g id="node13" class="node"><title>Node27</title>
<g id="a_node13"><a xlink:href="_digital_input_8cpp.html" target="_top" xlink:title="interface/digital/input\l/DigitalInput.cpp">
<polygon fill="white" stroke="black" points="568.5,-0.5 568.5,-34.5 692.5,-34.5 692.5,-0.5 568.5,-0.5"/>
<text text-anchor="start" x="576.5" y="-20.9" font-family="Helvetica,sans-Serif" font-size="12.00">interface/digital/input</text>
<text text-anchor="middle" x="630.5" y="-7.9" font-family="Helvetica,sans-Serif" font-size="12.00">/DigitalInput.cpp</text>
</a>
</g>
</g>
<!-- Node26&#45;&gt;Node27 -->
<g id="edge15" class="edge"><title>Node26&#45;&gt;Node27</title>
<path fill="none" stroke="midnightblue" d="M630.5,-61.2468C630.5,-52.3917 630.5,-42.7667 630.5,-34.8958"/>
<polygon fill="midnightblue" stroke="midnightblue" points="627,-61.4965 630.5,-71.4966 634,-61.4966 627,-61.4965"/>
</g>
<!-- Node29&#45;&gt;Node26 -->
<g id="edge19" class="edge"><title>Node29&#45;&gt;Node26</title>
<path fill="none" stroke="midnightblue" d="M632.978,-132.247C632.465,-123.392 631.907,-113.767 631.45,-105.896"/>
<polygon fill="midnightblue" stroke="midnightblue" points="629.499,-132.716 633.572,-142.497 636.488,-132.311 629.499,-132.716"/>
</g>
<!-- Node30 -->
<g id="node16" class="node"><title>Node30</title>
<g id="a_node16"><a xlink:href="interface_2digital_2input_2encoders_2_encoders_8cpp.html" target="_top" xlink:title="interface/digital/input\l/encoders/Encoders.cpp">
<polygon fill="white" stroke="black" points="710.5,-71.5 710.5,-105.5 854.5,-105.5 854.5,-71.5 710.5,-71.5"/>
<text text-anchor="start" x="718.5" y="-91.9" font-family="Helvetica,sans-Serif" font-size="12.00">interface/digital/input</text>
<text text-anchor="middle" x="782.5" y="-78.9" font-family="Helvetica,sans-Serif" font-size="12.00">/encoders/Encoders.cpp</text>
</a>
</g>
</g>
<!-- Node29&#45;&gt;Node30 -->
<g id="edge20" class="edge"><title>Node29&#45;&gt;Node30</title>
<path fill="none" stroke="midnightblue" d="M678.095,-138.175C700.433,-127.761 727.244,-115.261 748.104,-105.536"/>
<polygon fill="midnightblue" stroke="midnightblue" points="676.411,-135.099 668.826,-142.497 679.369,-141.443 676.411,-135.099"/>
</g>
</g>
</svg>
