<?xml version="1.0" encoding="UTF-8" standalone="no"?>
<!DOCTYPE svg PUBLIC "-//W3C//DTD SVG 1.1//EN"
 "http://www.w3.org/Graphics/SVG/1.1/DTD/svg11.dtd">
<!-- Generated by graphviz version 2.38.0 (20140413.2041)
 -->
<!-- Title: interface/encoders/Encoders.h Pages: 1 -->
<!--zoomable 346 -->
<svg id="main" version="1.1" xmlns="http://www.w3.org/2000/svg" xmlns:xlink="http://www.w3.org/1999/xlink" xml:space="preserve" onload="init(evt)">
<style type="text/css"><![CDATA[
.edge:hover path { stroke: red; }
.edge:hover polygon { stroke: red; fill: red; }
]]></style>
<script type="text/javascript"><![CDATA[
var edges = document.getElementsByTagName('g');
if (edges && edges.length) {
  for (var i=0;i<edges.length;i++) {
    if (edges[i].id.substr(0,4)=='edge') {
      edges[i].setAttribute('class','edge');
    }
  }
}
]]></script>
        <defs>
                <circle id="rim" cx="0" cy="0" r="7"/>
                <circle id="rim2" cx="0" cy="0" r="3.5"/>
                <g id="zoomPlus">
                        <use xlink:href="#rim" fill="#404040">
                                <set attributeName="fill" to="#808080" begin="zoomplus.mouseover" end="zoomplus.mouseout"/>
                        </use>
                        <path d="M-4,0h8M0,-4v8" fill="none" stroke="white" stroke-width="1.5" pointer-events="none"/>
                </g>
                <g id="zoomMin">
                        <use xlink:href="#rim" fill="#404040">
                                <set attributeName="fill" to="#808080" begin="zoomminus.mouseover" end="zoomminus.mouseout"/>
                        </use>
                        <path d="M-4,0h8" fill="none" stroke="white" stroke-width="1.5" pointer-events="none"/>
                </g>
                <g id="dirArrow">
                        <path fill="none" stroke="white" stroke-width="1.5" d="M0,-3.0v7 M-2.5,-0.5L0,-3.0L2.5,-0.5"/>
                </g>
               <g id="resetDef">
                       <use xlink:href="#rim2" fill="#404040">
                               <set attributeName="fill" to="#808080" begin="reset.mouseover" end="reset.mouseout"/>
                       </use>
               </g>
        </defs>

<script type="text/javascript">
var viewWidth = 646;
var viewHeight = 346;
var sectionId = 'dynsection-1';
</script>
<script xlink:href="svgpan.js"/>
<svg id="graph" class="graph">
<g id="viewport">
<title>interface/encoders/Encoders.h</title>
<polygon fill="white" stroke="none" points="-4,4 -4,-342 642.312,-342 642.312,4 -4,4"/>
<!-- Node31 -->
<g id="node1" class="node"><title>Node31</title>
<polygon fill="#bfbfbf" stroke="black" points="254.312,-303.5 254.312,-337.5 367.312,-337.5 367.312,-303.5 254.312,-303.5"/>
<text text-anchor="start" x="262.312" y="-323.9" font-family="Helvetica,sans-Serif" font-size="12.00">interface/encoders</text>
<text text-anchor="middle" x="310.812" y="-310.9" font-family="Helvetica,sans-Serif" font-size="12.00">/Encoders.h</text>
</g>
<!-- Node32 -->
<g id="node2" class="node"><title>Node32</title>
<g id="a_node2"><a xlink:href="_interface_8h.html" target="_top" xlink:title="interface/Interface.h">
<polygon fill="white" stroke="black" points="98.8119,-245.5 98.8119,-266.5 216.812,-266.5 216.812,-245.5 98.8119,-245.5"/>
<text text-anchor="middle" x="157.812" y="-252.9" font-family="Helvetica,sans-Serif" font-size="12.00">interface/Interface.h</text>
</a>
</g>
</g>
<!-- Node31&#45;&gt;Node32 -->
<g id="edge1" class="edge"><title>Node31&#45;&gt;Node32</title>
<path fill="none" stroke="midnightblue" d="M262.114,-299.607C235.125,-288.582 202.792,-275.374 181.354,-266.617"/>
<polygon fill="midnightblue" stroke="midnightblue" points="260.83,-302.863 271.411,-303.405 263.477,-296.383 260.83,-302.863"/>
</g>
<!-- Node41 -->
<g id="node11" class="node"><title>Node41</title>
<g id="a_node11"><a xlink:href="interface_2encoders_2_encoders_8cpp.html" target="_top" xlink:title="interface/encoders\l/Encoders.cpp">
<polygon fill="white" stroke="black" points="525.312,-116.5 525.312,-150.5 638.312,-150.5 638.312,-116.5 525.312,-116.5"/>
<text text-anchor="start" x="533.312" y="-136.9" font-family="Helvetica,sans-Serif" font-size="12.00">interface/encoders</text>
<text text-anchor="middle" x="581.812" y="-123.9" font-family="Helvetica,sans-Serif" font-size="12.00">/Encoders.cpp</text>
</a>
</g>
</g>
<!-- Node31&#45;&gt;Node41 -->
<g id="edge19" class="edge"><title>Node31&#45;&gt;Node41</title>
<path fill="none" stroke="midnightblue" d="M342.717,-297.72C397.757,-260.146 509.329,-183.981 558.098,-150.688"/>
<polygon fill="midnightblue" stroke="midnightblue" points="340.673,-294.877 334.387,-303.406 344.62,-300.659 340.673,-294.877"/>
</g>
<!-- Node33 -->
<g id="node3" class="node"><title>Node33</title>
<g id="a_node3"><a xlink:href="_open_deck_8h.html" target="_top" xlink:title="OpenDeck.h">
<polygon fill="white" stroke="black" points="269.812,-187.5 269.812,-208.5 351.812,-208.5 351.812,-187.5 269.812,-187.5"/>
<text text-anchor="middle" x="310.812" y="-194.9" font-family="Helvetica,sans-Serif" font-size="12.00">OpenDeck.h</text>
</a>
</g>
</g>
<!-- Node32&#45;&gt;Node33 -->
<g id="edge2" class="edge"><title>Node32&#45;&gt;Node33</title>
<path fill="none" stroke="midnightblue" d="M193.54,-241.923C221.509,-231.686 259.751,-217.689 284.854,-208.501"/>
<polygon fill="midnightblue" stroke="midnightblue" points="192.301,-238.649 184.114,-245.373 194.707,-245.223 192.301,-238.649"/>
</g>
<!-- Node33&#45;&gt;Node31 -->
<g id="edge13" class="edge"><title>Node33&#45;&gt;Node31</title>
<path fill="none" stroke="midnightblue" d="M310.812,-218.93C310.812,-242.531 310.812,-281.387 310.812,-303.249"/>
<polygon fill="midnightblue" stroke="midnightblue" points="314.312,-218.711 310.812,-208.711 307.312,-218.711 314.312,-218.711"/>
</g>
<!-- Node34 -->
<g id="node4" class="node"><title>Node34</title>
<g id="a_node4"><a xlink:href="_init_8cpp.html" target="_top" xlink:title="Init.cpp">
<polygon fill="white" stroke="black" points="415.312,-123 415.312,-144 468.312,-144 468.312,-123 415.312,-123"/>
<text text-anchor="middle" x="441.812" y="-130.4" font-family="Helvetica,sans-Serif" font-size="12.00">Init.cpp</text>
</a>
</g>
</g>
<!-- Node33&#45;&gt;Node34 -->
<g id="edge3" class="edge"><title>Node33&#45;&gt;Node34</title>
<path fill="none" stroke="midnightblue" d="M340.313,-182.925C365.186,-171.058 400.104,-154.399 421.822,-144.037"/>
<polygon fill="midnightblue" stroke="midnightblue" points="338.512,-179.906 330.994,-187.371 341.526,-186.224 338.512,-179.906"/>
</g>
<!-- Node35 -->
<g id="node5" class="node"><title>Node35</title>
<g id="a_node5"><a xlink:href="interface_2buttons_2_buttons_8h.html" target="_top" xlink:title="interface/buttons/Buttons.h">
<polygon fill="white" stroke="black" points="15.3119,-123 15.3119,-144 168.312,-144 168.312,-123 15.3119,-123"/>
<text text-anchor="middle" x="91.8119" y="-130.4" font-family="Helvetica,sans-Serif" font-size="12.00">interface/buttons/Buttons.h</text>
</a>
</g>
</g>
<!-- Node33&#45;&gt;Node35 -->
<g id="edge4" class="edge"><title>Node33&#45;&gt;Node35</title>
<path fill="none" stroke="midnightblue" d="M267.441,-184.622C225.647,-172.695 163.305,-154.903 125.23,-144.037"/>
<polygon fill="midnightblue" stroke="midnightblue" points="266.497,-187.993 277.073,-187.371 268.418,-181.261 266.497,-187.993"/>
</g>
<!-- Node36 -->
<g id="node6" class="node"><title>Node36</title>
<g id="a_node6"><a xlink:href="interface_2analog_2_analog_8h.html" target="_top" xlink:title="interface/analog/Analog.h">
<polygon fill="white" stroke="black" points="17.3119,-58.5 17.3119,-79.5 166.312,-79.5 166.312,-58.5 17.3119,-58.5"/>
<text text-anchor="middle" x="91.8119" y="-65.9" font-family="Helvetica,sans-Serif" font-size="12.00">interface/analog/Analog.h</text>
</a>
</g>
</g>
<!-- Node33&#45;&gt;Node36 -->
<g id="edge12" class="edge"><title>Node33&#45;&gt;Node36</title>
<path fill="none" stroke="midnightblue" d="M286.613,-181.896C259.935,-165.356 215.643,-138.227 176.812,-116 154.094,-102.997 127.5,-88.7596 110.19,-79.621"/>
<polygon fill="midnightblue" stroke="midnightblue" points="284.936,-184.974 295.277,-187.279 288.63,-179.028 284.936,-184.974"/>
</g>
<!-- Node38 -->
<g id="node8" class="node"><title>Node38</title>
<g id="a_node8"><a xlink:href="_f_s_r_8cpp.html" target="_top" xlink:title="interface/analog/FSR.cpp">
<polygon fill="white" stroke="black" points="418.312,-0.5 418.312,-21.5 567.312,-21.5 567.312,-0.5 418.312,-0.5"/>
<text text-anchor="middle" x="492.812" y="-7.9" font-family="Helvetica,sans-Serif" font-size="12.00">interface/analog/FSR.cpp</text>
</a>
</g>
</g>
<!-- Node33&#45;&gt;Node38 -->
<g id="edge14" class="edge"><title>Node33&#45;&gt;Node38</title>
<path fill="none" stroke="midnightblue" d="M362.012,-189.198C405.051,-181.537 461.876,-168.463 476.812,-151 509.178,-113.156 499.968,-46.7877 495.014,-21.846"/>
<polygon fill="midnightblue" stroke="midnightblue" points="361.213,-185.784 351.955,-190.936 362.405,-192.682 361.213,-185.784"/>
</g>
<!-- Node39 -->
<g id="node9" class="node"><title>Node39</title>
<g id="a_node9"><a xlink:href="_potentiometer_8cpp.html" target="_top" xlink:title="interface/analog/Potentiometer.cpp">
<polygon fill="white" stroke="black" points="198.312,-0.5 198.312,-21.5 397.312,-21.5 397.312,-0.5 198.312,-0.5"/>
<text text-anchor="middle" x="297.812" y="-7.9" font-family="Helvetica,sans-Serif" font-size="12.00">interface/analog/Potentiometer.cpp</text>
</a>
</g>
</g>
<!-- Node33&#45;&gt;Node39 -->
<g id="edge15" class="edge"><title>Node33&#45;&gt;Node39</title>
<path fill="none" stroke="midnightblue" d="M338.305,-181.813C349.309,-174.146 360.787,-163.745 366.812,-151 373.46,-136.936 367.746,-131.528 366.812,-116 365.254,-90.082 372.855,-80.4512 359.812,-58 350.319,-41.6592 332.475,-29.3643 318.358,-21.6156"/>
<polygon fill="midnightblue" stroke="midnightblue" points="336.2,-179.005 329.694,-187.368 339.995,-184.887 336.2,-179.005"/>
</g>
<!-- Node40 -->
<g id="node10" class="node"><title>Node40</title>
<g id="a_node10"><a xlink:href="interface_2buttons_2_buttons_8cpp.html" target="_top" xlink:title="interface/buttons/Buttons.cpp">
<polygon fill="white" stroke="black" points="184.312,-58.5 184.312,-79.5 351.312,-79.5 351.312,-58.5 184.312,-58.5"/>
<text text-anchor="middle" x="267.812" y="-65.9" font-family="Helvetica,sans-Serif" font-size="12.00">interface/buttons/Buttons.cpp</text>
</a>
</g>
</g>
<!-- Node33&#45;&gt;Node40 -->
<g id="edge16" class="edge"><title>Node33&#45;&gt;Node40</title>
<path fill="none" stroke="midnightblue" d="M282.84,-181.917C271.642,-174.269 259.957,-163.855 253.812,-151 242.487,-127.309 254.674,-95.829 262.425,-79.9956"/>
<polygon fill="midnightblue" stroke="midnightblue" points="281.278,-185.07 291.602,-187.45 285.016,-179.151 281.278,-185.07"/>
</g>
<!-- Node33&#45;&gt;Node41 -->
<g id="edge17" class="edge"><title>Node33&#45;&gt;Node41</title>
<path fill="none" stroke="midnightblue" d="M362.071,-185.244C402.479,-175.969 460.25,-162.69 510.812,-151 515.497,-149.917 520.356,-148.792 525.233,-147.661"/>
<polygon fill="midnightblue" stroke="midnightblue" points="361.15,-181.864 352.187,-187.513 362.716,-188.687 361.15,-181.864"/>
</g>
<!-- Node42 -->
<g id="node12" class="node"><title>Node42</title>
<g id="a_node12"><a xlink:href="_open_deck_8cpp.html" target="_top" xlink:title="OpenDeck.cpp">
<polygon fill="white" stroke="black" points="263.312,-123 263.312,-144 358.312,-144 358.312,-123 263.312,-123"/>
<text text-anchor="middle" x="310.812" y="-130.4" font-family="Helvetica,sans-Serif" font-size="12.00">OpenDeck.cpp</text>
</a>
</g>
</g>
<!-- Node33&#45;&gt;Node42 -->
<g id="edge18" class="edge"><title>Node33&#45;&gt;Node42</title>
<path fill="none" stroke="midnightblue" d="M310.812,-176.925C310.812,-166.057 310.812,-153.112 310.812,-144.403"/>
<polygon fill="midnightblue" stroke="midnightblue" points="307.312,-177.234 310.812,-187.234 314.312,-177.234 307.312,-177.234"/>
</g>
<!-- Node35&#45;&gt;Node32 -->
<g id="edge10" class="edge"><title>Node35&#45;&gt;Node32</title>
<path fill="none" stroke="midnightblue" d="M101.942,-152.995C116.12,-178.881 141.382,-225.003 152.411,-245.139"/>
<polygon fill="midnightblue" stroke="midnightblue" points="104.977,-151.25 97.1032,-144.16 98.8373,-154.612 104.977,-151.25"/>
</g>
<!-- Node35&#45;&gt;Node36 -->
<g id="edge5" class="edge"><title>Node35&#45;&gt;Node36</title>
<path fill="none" stroke="midnightblue" d="M91.8119,-112.425C91.8119,-101.557 91.8119,-88.6118 91.8119,-79.9033"/>
<polygon fill="midnightblue" stroke="midnightblue" points="88.312,-112.734 91.8119,-122.734 95.312,-112.734 88.312,-112.734"/>
</g>
<!-- Node35&#45;&gt;Node40 -->
<g id="edge11" class="edge"><title>Node35&#45;&gt;Node40</title>
<path fill="none" stroke="midnightblue" d="M128.382,-119.514C161.94,-107.596 210.873,-90.2198 240.956,-79.537"/>
<polygon fill="midnightblue" stroke="midnightblue" points="127.178,-116.227 118.926,-122.871 129.521,-122.823 127.178,-116.227"/>
</g>
<!-- Node36&#45;&gt;Node32 -->
<g id="edge6" class="edge"><title>Node36&#45;&gt;Node32</title>
<path fill="none" stroke="midnightblue" d="M46.2132,-83.5159C30.6054,-90.5677 14.8207,-100.965 5.81193,-116 -2.18329,-129.344 -1.44534,-137.241 5.81193,-151 32.0665,-200.776 94.0648,-231.266 130.25,-245.462"/>
<polygon fill="midnightblue" stroke="midnightblue" points="47.9342,-86.5923 55.8463,-79.546 45.267,-80.1203 47.9342,-86.5923"/>
</g>
<!-- Node37 -->
<g id="node7" class="node"><title>Node37</title>
<g id="a_node7"><a xlink:href="interface_2analog_2_analog_8cpp.html" target="_top" xlink:title="interface/analog/Analog.cpp">
<polygon fill="white" stroke="black" points="10.8119,-0.5 10.8119,-21.5 172.812,-21.5 172.812,-0.5 10.8119,-0.5"/>
<text text-anchor="middle" x="91.8119" y="-7.9" font-family="Helvetica,sans-Serif" font-size="12.00">interface/analog/Analog.cpp</text>
</a>
</g>
</g>
<!-- Node36&#45;&gt;Node37 -->
<g id="edge7" class="edge"><title>Node36&#45;&gt;Node37</title>
<path fill="none" stroke="midnightblue" d="M91.8119,-48.1575C91.8119,-39.155 91.8119,-28.9199 91.8119,-21.6427"/>
<polygon fill="midnightblue" stroke="midnightblue" points="88.312,-48.2455 91.8119,-58.2455 95.312,-48.2456 88.312,-48.2455"/>
</g>
<!-- Node36&#45;&gt;Node38 -->
<g id="edge8" class="edge"><title>Node36&#45;&gt;Node38</title>
<path fill="none" stroke="midnightblue" d="M170.491,-57.0124C244.516,-46.6748 354.218,-31.3547 424.616,-21.5237"/>
<polygon fill="midnightblue" stroke="midnightblue" points="169.71,-53.5874 160.291,-58.4369 170.679,-60.5201 169.71,-53.5874"/>
</g>
<!-- Node36&#45;&gt;Node39 -->
<g id="edge9" class="edge"><title>Node36&#45;&gt;Node39</title>
<path fill="none" stroke="midnightblue" d="M136.985,-55.7199C174.864,-45.4228 228.178,-30.9296 262.861,-21.5011"/>
<polygon fill="midnightblue" stroke="midnightblue" points="135.956,-52.3725 127.225,-58.3733 137.793,-59.1274 135.956,-52.3725"/>
</g>
</g>
</svg>
        <g id="navigator" transform="translate(0 0)" fill="#404254">
                <rect fill="#f2f5e9" fill-opacity="0.5" stroke="#606060" stroke-width=".5" x="0" y="0" width="60" height="60"/>
                <use id="zoomplus" xlink:href="#zoomPlus" x="17" y="9" onmousedown="handleZoom(evt,'in')"/>
                <use id="zoomminus" xlink:href="#zoomMin" x="42" y="9" onmousedown="handleZoom(evt,'out')"/>
                <use id="reset" xlink:href="#resetDef" x="30" y="36" onmousedown="handleReset()"/>
                <g id="arrowUp" xlink:href="#dirArrow" transform="translate(30 24)" onmousedown="handlePan(0,-1)">
                  <use xlink:href="#rim" fill="#404040">
                        <set attributeName="fill" to="#808080" begin="arrowUp.mouseover" end="arrowUp.mouseout"/>
                  </use>
                  <path fill="none" stroke="white" stroke-width="1.5" d="M0,-3.0v7 M-2.5,-0.5L0,-3.0L2.5,-0.5"/>
                </g>
                <g id="arrowRight" xlink:href="#dirArrow" transform="rotate(90) translate(36 -43)" onmousedown="handlePan(1,0)">
                  <use xlink:href="#rim" fill="#404040">
                        <set attributeName="fill" to="#808080" begin="arrowRight.mouseover" end="arrowRight.mouseout"/>
                  </use>
                  <path fill="none" stroke="white" stroke-width="1.5" d="M0,-3.0v7 M-2.5,-0.5L0,-3.0L2.5,-0.5"/>
                </g>
                <g id="arrowDown" xlink:href="#dirArrow" transform="rotate(180) translate(-30 -48)" onmousedown="handlePan(0,1)">
                  <use xlink:href="#rim" fill="#404040">
                        <set attributeName="fill" to="#808080" begin="arrowDown.mouseover" end="arrowDown.mouseout"/>
                  </use>
                  <path fill="none" stroke="white" stroke-width="1.5" d="M0,-3.0v7 M-2.5,-0.5L0,-3.0L2.5,-0.5"/>
                </g>
                <g id="arrowLeft" xlink:href="#dirArrow" transform="rotate(270) translate(-36 17)" onmousedown="handlePan(-1,0)">
                  <use xlink:href="#rim" fill="#404040">
                        <set attributeName="fill" to="#808080" begin="arrowLeft.mouseover" end="arrowLeft.mouseout"/>
                  </use>
                  <path fill="none" stroke="white" stroke-width="1.5" d="M0,-3.0v7 M-2.5,-0.5L0,-3.0L2.5,-0.5"/>
                </g>
        </g>
        <svg viewBox="0 0 15 15" width="100%" height="30px" preserveAspectRatio="xMaxYMin meet">
         <g id="arrow_out" transform="scale(0.3 0.3)">
          <a xlink:href="interface_2encoders_2_encoders_8h__dep__incl_org.svg" target="_base">
           <rect id="button" ry="5" rx="5" y="6" x="6" height="38" width="38"
                fill="#f2f5e9" fill-opacity="0.5" stroke="#606060" stroke-width="1.0"/>
           <path id="arrow"
             d="M 11.500037,31.436501 C 11.940474,20.09759 22.043105,11.32322 32.158766,21.979434 L 37.068811,17.246167 C 37.068811,17.246167 37.088388,32 37.088388,32 L 22.160133,31.978069 C 22.160133,31.978069 26.997745,27.140456 26.997745,27.140456 C 18.528582,18.264221 13.291696,25.230495 11.500037,31.436501 z"
             style="fill:#404040;"/>
          </a>
         </g>
        </svg>
</svg>
