<?xml version="1.0" encoding="UTF-8" standalone="no"?>
<!DOCTYPE svg PUBLIC "-//W3C//DTD SVG 1.1//EN"
 "http://www.w3.org/Graphics/SVG/1.1/DTD/svg11.dtd">
<!-- Generated by graphviz version 2.38.0 (20140413.2041)
 -->
<!-- Title: interface/digital/output/leds/Variables.h Pages: 1 -->
<svg width="163pt" height="217pt"
 viewBox="0.00 0.00 163.00 217.00" xmlns="http://www.w3.org/2000/svg" xmlns:xlink="http://www.w3.org/1999/xlink">
<g id="graph0" class="graph" transform="scale(1 1) rotate(0) translate(4 213)">
<title>interface/digital/output/leds/Variables.h</title>
<polygon fill="white" stroke="none" points="-4,4 -4,-213 159,-213 159,4 -4,4"/>
<!-- Node2 -->
<g id="node1" class="node"><title>Node2</title>
<polygon fill="#bfbfbf" stroke="black" points="12,-174.5 12,-208.5 143,-208.5 143,-174.5 12,-174.5"/>
<text text-anchor="start" x="20" y="-194.9" font-family="Helvetica,sans-Serif" font-size="12.00">interface/digital/output</text>
<text text-anchor="middle" x="77.5" y="-181.9" font-family="Helvetica,sans-Serif" font-size="12.00">/leds/Variables.h</text>
</g>
<!-- Node3 -->
<g id="node2" class="node"><title>Node3</title>
<g id="a_node2"><a xlink:href="_export_8h.html" target="_top" xlink:title="interface/Export.h">
<polygon fill="white" stroke="black" points="24,-116.5 24,-137.5 131,-137.5 131,-116.5 24,-116.5"/>
<text text-anchor="middle" x="77.5" y="-123.9" font-family="Helvetica,sans-Serif" font-size="12.00">interface/Export.h</text>
</a>
</g>
</g>
<!-- Node2&#45;&gt;Node3 -->
<g id="edge1" class="edge"><title>Node2&#45;&gt;Node3</title>
<path fill="none" stroke="midnightblue" d="M77.5,-164.276C77.5,-154.906 77.5,-144.918 77.5,-137.8"/>
<polygon fill="midnightblue" stroke="midnightblue" points="74.0001,-164.405 77.5,-174.405 81.0001,-164.405 74.0001,-164.405"/>
</g>
<!-- Node4 -->
<g id="node3" class="node"><title>Node4</title>
<g id="a_node3"><a xlink:href="_import_8h.html" target="_top" xlink:title="board/common/Import.h">
<polygon fill="white" stroke="black" points="7.5,-58.5 7.5,-79.5 147.5,-79.5 147.5,-58.5 7.5,-58.5"/>
<text text-anchor="middle" x="77.5" y="-65.9" font-family="Helvetica,sans-Serif" font-size="12.00">board/common/Import.h</text>
</a>
</g>
</g>
<!-- Node3&#45;&gt;Node4 -->
<g id="edge2" class="edge"><title>Node3&#45;&gt;Node4</title>
<path fill="none" stroke="midnightblue" d="M77.5,-106.158C77.5,-97.155 77.5,-86.9199 77.5,-79.6427"/>
<polygon fill="midnightblue" stroke="midnightblue" points="74.0001,-106.246 77.5,-116.246 81.0001,-106.246 74.0001,-106.246"/>
</g>
<!-- Node5 -->
<g id="node4" class="node"><title>Node5</title>
<g id="a_node4"><a xlink:href="board_2common_2_common_8h.html" target="_top" xlink:title="board/common/Common.h">
<polygon fill="white" stroke="black" points="0,-0.5 0,-21.5 155,-21.5 155,-0.5 0,-0.5"/>
<text text-anchor="middle" x="77.5" y="-7.9" font-family="Helvetica,sans-Serif" font-size="12.00">board/common/Common.h</text>
</a>
</g>
</g>
<!-- Node4&#45;&gt;Node5 -->
<g id="edge3" class="edge"><title>Node4&#45;&gt;Node5</title>
<path fill="none" stroke="midnightblue" d="M77.5,-48.1575C77.5,-39.155 77.5,-28.9199 77.5,-21.6427"/>
<polygon fill="midnightblue" stroke="midnightblue" points="74.0001,-48.2455 77.5,-58.2455 81.0001,-48.2456 74.0001,-48.2455"/>
</g>
</g>
</svg>
