<?xml version="1.0" encoding="UTF-8" standalone="no"?>
<!DOCTYPE svg PUBLIC "-//W3C//DTD SVG 1.1//EN"
 "http://www.w3.org/Graphics/SVG/1.1/DTD/svg11.dtd">
<!-- Generated by graphviz version 2.38.0 (20140413.2041)
 -->
<!-- Title: interface/encoders/Encoders.cpp Pages: 1 -->
<svg width="1120pt" height="565pt"
 viewBox="0.00 0.00 1119.50 565.00" xmlns="http://www.w3.org/2000/svg" xmlns:xlink="http://www.w3.org/1999/xlink">
<g id="graph0" class="graph" transform="scale(1 1) rotate(0) translate(4 561)">
<title>interface/encoders/Encoders.cpp</title>
<polygon fill="white" stroke="none" points="-4,4 -4,-561 1115.5,-561 1115.5,4 -4,4"/>
<!-- Node0 -->
<g id="node1" class="node"><title>Node0</title>
<polygon fill="#bfbfbf" stroke="black" points="516,-522.5 516,-556.5 629,-556.5 629,-522.5 516,-522.5"/>
<text text-anchor="start" x="524" y="-542.9" font-family="Helvetica,sans-Serif" font-size="12.00">interface/encoders</text>
<text text-anchor="middle" x="572.5" y="-529.9" font-family="Helvetica,sans-Serif" font-size="12.00">/Encoders.cpp</text>
</g>
<!-- Node1 -->
<g id="node2" class="node"><title>Node1</title>
<g id="a_node2"><a xlink:href="interface_2encoders_2_encoders_8h.html" target="_top" xlink:title="Encoders.h">
<polygon fill="white" stroke="black" points="441.5,-464.5 441.5,-485.5 517.5,-485.5 517.5,-464.5 441.5,-464.5"/>
<text text-anchor="middle" x="479.5" y="-471.9" font-family="Helvetica,sans-Serif" font-size="12.00">Encoders.h</text>
</a>
</g>
</g>
<!-- Node0&#45;&gt;Node1 -->
<g id="edge1" class="edge"><title>Node0&#45;&gt;Node1</title>
<path fill="none" stroke="midnightblue" d="M548.55,-522.405C534.334,-512.851 516.409,-500.804 502.384,-491.379"/>
<polygon fill="midnightblue" stroke="midnightblue" points="504.062,-488.29 493.81,-485.617 500.158,-494.1 504.062,-488.29"/>
</g>
<!-- Node4 -->
<g id="node5" class="node"><title>Node4</title>
<g id="a_node5"><a xlink:href="_open_deck_8h.html" target="_top" xlink:title="../../OpenDeck.h">
<polygon fill="white" stroke="black" points="522.5,-406.5 522.5,-427.5 622.5,-427.5 622.5,-406.5 522.5,-406.5"/>
<text text-anchor="middle" x="572.5" y="-413.9" font-family="Helvetica,sans-Serif" font-size="12.00">../../OpenDeck.h</text>
</a>
</g>
</g>
<!-- Node0&#45;&gt;Node4 -->
<g id="edge47" class="edge"><title>Node0&#45;&gt;Node4</title>
<path fill="none" stroke="midnightblue" d="M572.5,-522.249C572.5,-500.387 572.5,-461.531 572.5,-437.93"/>
<polygon fill="midnightblue" stroke="midnightblue" points="576,-437.711 572.5,-427.711 569,-437.711 576,-437.711"/>
</g>
<!-- Node5 -->
<g id="node6" class="node"><title>Node5</title>
<g id="a_node6"><a xlink:href="_database_8h.html" target="_top" xlink:title="database/Database.h">
<polygon fill="white" stroke="black" points="200.5,-174.5 200.5,-195.5 330.5,-195.5 330.5,-174.5 200.5,-174.5"/>
<text text-anchor="middle" x="265.5" y="-181.9" font-family="Helvetica,sans-Serif" font-size="12.00">database/Database.h</text>
</a>
</g>
</g>
<!-- Node0&#45;&gt;Node5 -->
<g id="edge44" class="edge"><title>Node0&#45;&gt;Node5</title>
<path fill="none" stroke="midnightblue" d="M515.909,-536.091C389.556,-529.17 95.5,-503.841 95.5,-418 95.5,-418 95.5,-418 95.5,-300 95.5,-268.62 92.5705,-254.445 114.5,-232 134.542,-211.487 163.431,-200.058 190.585,-193.714"/>
<polygon fill="midnightblue" stroke="midnightblue" points="191.442,-197.11 200.491,-191.599 189.98,-190.264 191.442,-197.11"/>
</g>
<!-- Node18 -->
<g id="node19" class="node"><title>Node18</title>
<g id="a_node19"><a xlink:href="midi_2src_2_m_i_d_i_8h.html" target="_top" xlink:title="../../midi/src/MIDI.h">
<polygon fill="white" stroke="black" points="912,-174.5 912,-195.5 1023,-195.5 1023,-174.5 912,-174.5"/>
<text text-anchor="middle" x="967.5" y="-181.9" font-family="Helvetica,sans-Serif" font-size="12.00">../../midi/src/MIDI.h</text>
</a>
</g>
</g>
<!-- Node0&#45;&gt;Node18 -->
<g id="edge45" class="edge"><title>Node0&#45;&gt;Node18</title>
<path fill="none" stroke="midnightblue" d="M629.107,-534.643C746.477,-525.088 1005.5,-495.25 1005.5,-418 1005.5,-418 1005.5,-418 1005.5,-300 1005.5,-264.903 989.089,-226.702 977.837,-204.634"/>
<polygon fill="midnightblue" stroke="midnightblue" points="980.879,-202.9 973.107,-195.699 974.692,-206.175 980.879,-202.9"/>
</g>
<!-- Node32 -->
<g id="node33" class="node"><title>Node32</title>
<g id="a_node33"><a xlink:href="interface_2encoders_2_constants_8h.html" target="_top" xlink:title="Constants.h">
<polygon fill="white" stroke="black" points="1033.5,-464.5 1033.5,-485.5 1111.5,-485.5 1111.5,-464.5 1033.5,-464.5"/>
<text text-anchor="middle" x="1072.5" y="-471.9" font-family="Helvetica,sans-Serif" font-size="12.00">Constants.h</text>
</a>
</g>
</g>
<!-- Node0&#45;&gt;Node32 -->
<g id="edge46" class="edge"><title>Node0&#45;&gt;Node32</title>
<path fill="none" stroke="midnightblue" d="M629.12,-533.125C714.131,-524.767 879.695,-507.373 1019.5,-486 1020.78,-485.805 1022.07,-485.602 1023.37,-485.392"/>
<polygon fill="midnightblue" stroke="midnightblue" points="1024.2,-488.801 1033.48,-483.681 1023.03,-481.9 1024.2,-488.801"/>
</g>
<!-- Node2 -->
<g id="node3" class="node"><title>Node2</title>
<g id="a_node3"><a xlink:href="_board_8h.html" target="_top" xlink:title="../../board/Board.h">
<polygon fill="white" stroke="black" points="595.5,-174.5 595.5,-195.5 705.5,-195.5 705.5,-174.5 595.5,-174.5"/>
<text text-anchor="middle" x="650.5" y="-181.9" font-family="Helvetica,sans-Serif" font-size="12.00">../../board/Board.h</text>
</a>
</g>
</g>
<!-- Node1&#45;&gt;Node2 -->
<g id="edge2" class="edge"><title>Node1&#45;&gt;Node2</title>
<path fill="none" stroke="midnightblue" d="M441.287,-467.828C414.997,-461.771 380.911,-450.084 358.5,-428 335.339,-405.176 331.5,-392.517 331.5,-360 331.5,-360 331.5,-360 331.5,-300 331.5,-248.076 378.919,-252.787 426.5,-232 477.233,-209.836 539.163,-198.169 585.037,-192.14"/>
<polygon fill="midnightblue" stroke="midnightblue" points="585.674,-195.587 595.158,-190.866 584.8,-188.642 585.674,-195.587"/>
</g>
<!-- Node3 -->
<g id="node4" class="node"><title>Node3</title>
<g id="a_node4"><a xlink:href="interface_2encoders_2_data_types_8h.html" target="_top" xlink:title="DataTypes.h">
<polygon fill="white" stroke="black" points="368,-406.5 368,-427.5 451,-427.5 451,-406.5 368,-406.5"/>
<text text-anchor="middle" x="409.5" y="-413.9" font-family="Helvetica,sans-Serif" font-size="12.00">DataTypes.h</text>
</a>
</g>
</g>
<!-- Node1&#45;&gt;Node3 -->
<g id="edge3" class="edge"><title>Node1&#45;&gt;Node3</title>
<path fill="none" stroke="midnightblue" d="M467.307,-464.246C456.868,-455.894 441.635,-443.708 429.426,-433.941"/>
<polygon fill="midnightblue" stroke="midnightblue" points="431.548,-431.157 421.553,-427.643 427.176,-436.623 431.548,-431.157"/>
</g>
<!-- Node1&#45;&gt;Node4 -->
<g id="edge4" class="edge"><title>Node1&#45;&gt;Node4</title>
<path fill="none" stroke="midnightblue" d="M495.699,-464.246C510.102,-455.573 531.373,-442.765 547.88,-432.825"/>
<polygon fill="midnightblue" stroke="midnightblue" points="549.725,-435.8 556.486,-427.643 546.114,-429.803 549.725,-435.8"/>
</g>
<!-- Node4&#45;&gt;Node2 -->
<g id="edge23" class="edge"><title>Node4&#45;&gt;Node2</title>
<path fill="none" stroke="midnightblue" d="M580.848,-406.422C600.885,-383.859 654.022,-326.525 707.5,-290 738.033,-269.146 762.808,-285.295 782.5,-254 802.242,-222.625 758.156,-205.042 715.72,-195.656"/>
<polygon fill="midnightblue" stroke="midnightblue" points="716.367,-192.216 705.864,-193.609 714.943,-199.07 716.367,-192.216"/>
</g>
<!-- Node4&#45;&gt;Node5 -->
<g id="edge5" class="edge"><title>Node4&#45;&gt;Node5</title>
<path fill="none" stroke="midnightblue" d="M560.643,-406.401C544.155,-393.104 513.304,-368.41 486.5,-348 414.19,-292.939 326.722,-229.835 286.994,-201.359"/>
<polygon fill="midnightblue" stroke="midnightblue" points="288.995,-198.487 278.827,-195.511 284.92,-204.178 288.995,-198.487"/>
</g>
<!-- Node16 -->
<g id="node17" class="node"><title>Node16</title>
<g id="a_node17"><a xlink:href="_sys_ex_8h.html" target="_top" xlink:title="sysex/src/SysEx.h">
<polygon fill="white" stroke="black" points="855.5,-348.5 855.5,-369.5 965.5,-369.5 965.5,-348.5 855.5,-348.5"/>
<text text-anchor="middle" x="910.5" y="-355.9" font-family="Helvetica,sans-Serif" font-size="12.00">sysex/src/SysEx.h</text>
</a>
</g>
</g>
<!-- Node4&#45;&gt;Node16 -->
<g id="edge16" class="edge"><title>Node4&#45;&gt;Node16</title>
<path fill="none" stroke="midnightblue" d="M622.737,-407.677C681.913,-397.872 780.371,-381.56 845.361,-370.792"/>
<polygon fill="midnightblue" stroke="midnightblue" points="846.2,-374.201 855.493,-369.114 845.055,-367.295 846.2,-374.201"/>
</g>
<!-- Node20 -->
<g id="node21" class="node"><title>Node20</title>
<g id="a_node21"><a xlink:href="_version_8h.html" target="_top" xlink:title="version/Version.h">
<polygon fill="white" stroke="black" points="717,-348.5 717,-369.5 824,-369.5 824,-348.5 717,-348.5"/>
<text text-anchor="middle" x="770.5" y="-355.9" font-family="Helvetica,sans-Serif" font-size="12.00">version/Version.h</text>
</a>
</g>
</g>
<!-- Node4&#45;&gt;Node20 -->
<g id="edge21" class="edge"><title>Node4&#45;&gt;Node20</title>
<path fill="none" stroke="midnightblue" d="M606.537,-406.373C639.889,-396.94 690.853,-382.526 727.1,-372.275"/>
<polygon fill="midnightblue" stroke="midnightblue" points="728.237,-375.591 736.907,-369.501 726.332,-368.855 728.237,-375.591"/>
</g>
<!-- Node22 -->
<g id="node23" class="node"><title>Node22</title>
<g id="a_node23"><a xlink:href="_interface_8h.html" target="_top" xlink:title="interface/Interface.h">
<polygon fill="white" stroke="black" points="359.5,-348.5 359.5,-369.5 477.5,-369.5 477.5,-348.5 359.5,-348.5"/>
<text text-anchor="middle" x="418.5" y="-355.9" font-family="Helvetica,sans-Serif" font-size="12.00">interface/Interface.h</text>
</a>
</g>
</g>
<!-- Node4&#45;&gt;Node22 -->
<g id="edge24" class="edge"><title>Node4&#45;&gt;Node22</title>
<path fill="none" stroke="midnightblue" d="M546.026,-406.373C520.64,-397.142 482.136,-383.14 454.078,-372.937"/>
<polygon fill="midnightblue" stroke="midnightblue" points="455.222,-369.629 444.628,-369.501 452.83,-376.208 455.222,-369.629"/>
</g>
<!-- Node6 -->
<g id="node7" class="node"><title>Node6</title>
<g id="a_node7"><a xlink:href="_d_b_m_s_8h.html" target="_top" xlink:title="../dbms/src/DBMS.h">
<polygon fill="white" stroke="black" points="51,-116.5 51,-137.5 172,-137.5 172,-116.5 51,-116.5"/>
<text text-anchor="middle" x="111.5" y="-123.9" font-family="Helvetica,sans-Serif" font-size="12.00">../dbms/src/DBMS.h</text>
</a>
</g>
</g>
<!-- Node5&#45;&gt;Node6 -->
<g id="edge6" class="edge"><title>Node5&#45;&gt;Node6</title>
<path fill="none" stroke="midnightblue" d="M239.026,-174.373C213.64,-165.142 175.136,-151.14 147.078,-140.937"/>
<polygon fill="midnightblue" stroke="midnightblue" points="148.222,-137.629 137.628,-137.501 145.83,-144.208 148.222,-137.629"/>
</g>
<!-- Node9 -->
<g id="node10" class="node"><title>Node9</title>
<g id="a_node10"><a xlink:href="_blocks_8h.html" target="_top" xlink:title="blocks/Blocks.h">
<polygon fill="white" stroke="black" points="216.5,-116.5 216.5,-137.5 314.5,-137.5 314.5,-116.5 216.5,-116.5"/>
<text text-anchor="middle" x="265.5" y="-123.9" font-family="Helvetica,sans-Serif" font-size="12.00">blocks/Blocks.h</text>
</a>
</g>
</g>
<!-- Node5&#45;&gt;Node9 -->
<g id="edge9" class="edge"><title>Node5&#45;&gt;Node9</title>
<path fill="none" stroke="midnightblue" d="M265.5,-174.246C265.5,-166.938 265.5,-156.694 265.5,-147.705"/>
<polygon fill="midnightblue" stroke="midnightblue" points="269,-147.643 265.5,-137.643 262,-147.643 269,-147.643"/>
</g>
<!-- Node15 -->
<g id="node16" class="node"><title>Node15</title>
<g id="a_node16"><a xlink:href="database_2_config_8h.html" target="_top" xlink:title="Config.h">
<polygon fill="white" stroke="black" points="332.5,-116.5 332.5,-137.5 392.5,-137.5 392.5,-116.5 332.5,-116.5"/>
<text text-anchor="middle" x="362.5" y="-123.9" font-family="Helvetica,sans-Serif" font-size="12.00">Config.h</text>
</a>
</g>
</g>
<!-- Node5&#45;&gt;Node15 -->
<g id="edge15" class="edge"><title>Node5&#45;&gt;Node15</title>
<path fill="none" stroke="midnightblue" d="M282.396,-174.246C297.418,-165.573 319.604,-152.765 336.821,-142.825"/>
<polygon fill="midnightblue" stroke="midnightblue" points="338.887,-145.674 345.798,-137.643 335.387,-139.611 338.887,-145.674"/>
</g>
<!-- Node7 -->
<g id="node8" class="node"><title>Node7</title>
<g id="a_node8"><a xlink:href="dbms_2src_2_data_types_8h.html" target="_top" xlink:title="DataTypes.h">
<polygon fill="white" stroke="black" points="0,-58.5 0,-79.5 83,-79.5 83,-58.5 0,-58.5"/>
<text text-anchor="middle" x="41.5" y="-65.9" font-family="Helvetica,sans-Serif" font-size="12.00">DataTypes.h</text>
</a>
</g>
</g>
<!-- Node6&#45;&gt;Node7 -->
<g id="edge7" class="edge"><title>Node6&#45;&gt;Node7</title>
<path fill="none" stroke="midnightblue" d="M99.3069,-116.246C88.8679,-107.894 73.6345,-95.7076 61.426,-85.9408"/>
<polygon fill="midnightblue" stroke="midnightblue" points="63.5485,-83.1566 53.5533,-79.6427 59.1756,-88.6227 63.5485,-83.1566"/>
</g>
<!-- Node8 -->
<g id="node9" class="node"><title>Node8</title>
<g id="a_node9"><a xlink:href="dbms_2src_2_config_8h.html" target="_top" xlink:title="Config.h">
<polygon fill="white" stroke="black" points="11.5,-0.5 11.5,-21.5 71.5,-21.5 71.5,-0.5 11.5,-0.5"/>
<text text-anchor="middle" x="41.5" y="-7.9" font-family="Helvetica,sans-Serif" font-size="12.00">Config.h</text>
</a>
</g>
</g>
<!-- Node7&#45;&gt;Node8 -->
<g id="edge8" class="edge"><title>Node7&#45;&gt;Node8</title>
<path fill="none" stroke="midnightblue" d="M41.5,-58.2455C41.5,-50.9382 41.5,-40.6944 41.5,-31.7046"/>
<polygon fill="midnightblue" stroke="midnightblue" points="45.0001,-31.6426 41.5,-21.6427 38.0001,-31.6427 45.0001,-31.6426"/>
</g>
<!-- Node10 -->
<g id="node11" class="node"><title>Node10</title>
<g id="a_node11"><a xlink:href="database_2blocks_2_m_i_d_i_8h.html" target="_top" xlink:title="MIDI.h">
<polygon fill="white" stroke="black" points="433,-58.5 433,-79.5 482,-79.5 482,-58.5 433,-58.5"/>
<text text-anchor="middle" x="457.5" y="-65.9" font-family="Helvetica,sans-Serif" font-size="12.00">MIDI.h</text>
</a>
</g>
</g>
<!-- Node9&#45;&gt;Node10 -->
<g id="edge10" class="edge"><title>Node9&#45;&gt;Node10</title>
<path fill="none" stroke="midnightblue" d="M298.493,-116.423C328.464,-107.717 374.153,-94.4294 423.149,-80.0973"/>
<polygon fill="midnightblue" stroke="midnightblue" points="424.374,-83.3857 432.988,-77.218 422.408,-76.6674 424.374,-83.3857"/>
</g>
<!-- Node11 -->
<g id="node12" class="node"><title>Node11</title>
<g id="a_node12"><a xlink:href="database_2blocks_2_buttons_8h.html" target="_top" xlink:title="Buttons.h">
<polygon fill="white" stroke="black" points="101,-58.5 101,-79.5 166,-79.5 166,-58.5 101,-58.5"/>
<text text-anchor="middle" x="133.5" y="-65.9" font-family="Helvetica,sans-Serif" font-size="12.00">Buttons.h</text>
</a>
</g>
</g>
<!-- Node9&#45;&gt;Node11 -->
<g id="edge11" class="edge"><title>Node9&#45;&gt;Node11</title>
<path fill="none" stroke="midnightblue" d="M242.808,-116.373C221.429,-107.303 189.194,-93.6279 165.264,-83.4755"/>
<polygon fill="midnightblue" stroke="midnightblue" points="166.468,-80.1846 155.896,-79.5011 163.734,-86.6287 166.468,-80.1846"/>
</g>
<!-- Node12 -->
<g id="node13" class="node"><title>Node12</title>
<g id="a_node13"><a xlink:href="database_2blocks_2_encoders_8h.html" target="_top" xlink:title="Encoders.h">
<polygon fill="white" stroke="black" points="184.5,-58.5 184.5,-79.5 260.5,-79.5 260.5,-58.5 184.5,-58.5"/>
<text text-anchor="middle" x="222.5" y="-65.9" font-family="Helvetica,sans-Serif" font-size="12.00">Encoders.h</text>
</a>
</g>
</g>
<!-- Node9&#45;&gt;Node12 -->
<g id="edge12" class="edge"><title>Node9&#45;&gt;Node12</title>
<path fill="none" stroke="midnightblue" d="M258.01,-116.246C251.967,-108.376 243.31,-97.101 236.056,-87.6542"/>
<polygon fill="midnightblue" stroke="midnightblue" points="238.771,-85.4426 229.904,-79.6427 233.218,-89.7058 238.771,-85.4426"/>
</g>
<!-- Node13 -->
<g id="node14" class="node"><title>Node13</title>
<g id="a_node14"><a xlink:href="database_2blocks_2_analog_8h.html" target="_top" xlink:title="Analog.h">
<polygon fill="white" stroke="black" points="278.5,-58.5 278.5,-79.5 340.5,-79.5 340.5,-58.5 278.5,-58.5"/>
<text text-anchor="middle" x="309.5" y="-65.9" font-family="Helvetica,sans-Serif" font-size="12.00">Analog.h</text>
</a>
</g>
</g>
<!-- Node9&#45;&gt;Node13 -->
<g id="edge13" class="edge"><title>Node9&#45;&gt;Node13</title>
<path fill="none" stroke="midnightblue" d="M273.164,-116.246C279.347,-108.376 288.206,-97.101 295.629,-87.6542"/>
<polygon fill="midnightblue" stroke="midnightblue" points="298.497,-89.6683 301.924,-79.6427 292.993,-85.3435 298.497,-89.6683"/>
</g>
<!-- Node14 -->
<g id="node15" class="node"><title>Node14</title>
<g id="a_node15"><a xlink:href="database_2blocks_2_l_e_ds_8h.html" target="_top" xlink:title="LEDs.h">
<polygon fill="white" stroke="black" points="358.5,-58.5 358.5,-79.5 414.5,-79.5 414.5,-58.5 358.5,-58.5"/>
<text text-anchor="middle" x="386.5" y="-65.9" font-family="Helvetica,sans-Serif" font-size="12.00">LEDs.h</text>
</a>
</g>
</g>
<!-- Node9&#45;&gt;Node14 -->
<g id="edge14" class="edge"><title>Node9&#45;&gt;Node14</title>
<path fill="none" stroke="midnightblue" d="M286.301,-116.373C305.724,-107.384 334.922,-93.8706 356.796,-83.7471"/>
<polygon fill="midnightblue" stroke="midnightblue" points="358.366,-86.8776 365.971,-79.5011 355.426,-80.5249 358.366,-86.8776"/>
</g>
<!-- Node17 -->
<g id="node18" class="node"><title>Node17</title>
<g id="a_node18"><a xlink:href="sysex_2src_2_config_8h.html" target="_top" xlink:title="Config.h">
<polygon fill="white" stroke="black" points="873.5,-232.5 873.5,-253.5 933.5,-253.5 933.5,-232.5 873.5,-232.5"/>
<text text-anchor="middle" x="903.5" y="-239.9" font-family="Helvetica,sans-Serif" font-size="12.00">Config.h</text>
</a>
</g>
</g>
<!-- Node16&#45;&gt;Node17 -->
<g id="edge17" class="edge"><title>Node16&#45;&gt;Node17</title>
<path fill="none" stroke="midnightblue" d="M910.707,-348.301C910.91,-335.094 910.999,-310.726 909.5,-290 908.877,-281.385 907.723,-271.915 906.592,-263.818"/>
<polygon fill="midnightblue" stroke="midnightblue" points="910.041,-263.218 905.116,-253.837 903.117,-264.242 910.041,-263.218"/>
</g>
<!-- Node16&#45;&gt;Node18 -->
<g id="edge18" class="edge"><title>Node16&#45;&gt;Node18</title>
<path fill="none" stroke="midnightblue" d="M913.728,-348.26C922.859,-320.706 948.997,-241.833 961.148,-205.168"/>
<polygon fill="midnightblue" stroke="midnightblue" points="964.484,-206.227 964.308,-195.633 957.839,-204.025 964.484,-206.227"/>
</g>
<!-- Node19 -->
<g id="node20" class="node"><title>Node19</title>
<g id="a_node20"><a xlink:href="sysex_2src_2_data_types_8h.html" target="_top" xlink:title="DataTypes.h">
<polygon fill="white" stroke="black" points="818,-290.5 818,-311.5 901,-311.5 901,-290.5 818,-290.5"/>
<text text-anchor="middle" x="859.5" y="-297.9" font-family="Helvetica,sans-Serif" font-size="12.00">DataTypes.h</text>
</a>
</g>
</g>
<!-- Node16&#45;&gt;Node19 -->
<g id="edge19" class="edge"><title>Node16&#45;&gt;Node19</title>
<path fill="none" stroke="midnightblue" d="M901.616,-348.246C894.303,-340.216 883.761,-328.639 875.053,-319.078"/>
<polygon fill="midnightblue" stroke="midnightblue" points="877.603,-316.679 868.282,-311.643 872.427,-321.393 877.603,-316.679"/>
</g>
<!-- Node19&#45;&gt;Node17 -->
<g id="edge20" class="edge"><title>Node19&#45;&gt;Node17</title>
<path fill="none" stroke="midnightblue" d="M867.164,-290.246C873.347,-282.376 882.206,-271.101 889.629,-261.654"/>
<polygon fill="midnightblue" stroke="midnightblue" points="892.497,-263.668 895.924,-253.643 886.993,-259.343 892.497,-263.668"/>
</g>
<!-- Node21 -->
<g id="node22" class="node"><title>Node21</title>
<g id="a_node22"><a xlink:href="version_2_data_types_8h.html" target="_top" xlink:title="DataTypes.h">
<polygon fill="white" stroke="black" points="717,-290.5 717,-311.5 800,-311.5 800,-290.5 717,-290.5"/>
<text text-anchor="middle" x="758.5" y="-297.9" font-family="Helvetica,sans-Serif" font-size="12.00">DataTypes.h</text>
</a>
</g>
</g>
<!-- Node20&#45;&gt;Node21 -->
<g id="edge22" class="edge"><title>Node20&#45;&gt;Node21</title>
<path fill="none" stroke="midnightblue" d="M768.41,-348.246C766.844,-340.938 764.649,-330.694 762.722,-321.705"/>
<polygon fill="midnightblue" stroke="midnightblue" points="766.084,-320.687 760.566,-311.643 759.239,-322.154 766.084,-320.687"/>
</g>
<!-- Node22&#45;&gt;Node1 -->
<g id="edge39" class="edge"><title>Node22&#45;&gt;Node1</title>
<path fill="none" stroke="midnightblue" d="M429.393,-369.569C438.631,-378.233 451.604,-391.785 459.5,-406 467.892,-421.109 473.096,-440.108 476.084,-454.18"/>
<polygon fill="midnightblue" stroke="midnightblue" points="472.694,-455.085 478.024,-464.241 479.567,-453.76 472.694,-455.085"/>
</g>
<!-- Node23 -->
<g id="node24" class="node"><title>Node23</title>
<g id="a_node24"><a xlink:href="interface_2analog_2_analog_8h.html" target="_top" xlink:title="analog/Analog.h">
<polygon fill="white" stroke="black" points="559,-290.5 559,-311.5 660,-311.5 660,-290.5 559,-290.5"/>
<text text-anchor="middle" x="609.5" y="-297.9" font-family="Helvetica,sans-Serif" font-size="12.00">analog/Analog.h</text>
</a>
</g>
</g>
<!-- Node22&#45;&gt;Node23 -->
<g id="edge25" class="edge"><title>Node22&#45;&gt;Node23</title>
<path fill="none" stroke="midnightblue" d="M451.334,-348.373C483.369,-338.981 532.249,-324.65 567.185,-314.406"/>
<polygon fill="midnightblue" stroke="midnightblue" points="568.483,-317.673 577.094,-311.501 566.514,-310.956 568.483,-317.673"/>
</g>
<!-- Node24 -->
<g id="node25" class="node"><title>Node24</title>
<g id="a_node25"><a xlink:href="interface_2buttons_2_buttons_8h.html" target="_top" xlink:title="../buttons/Buttons.h">
<polygon fill="white" stroke="black" points="435.5,-232.5 435.5,-253.5 549.5,-253.5 549.5,-232.5 435.5,-232.5"/>
<text text-anchor="middle" x="492.5" y="-239.9" font-family="Helvetica,sans-Serif" font-size="12.00">../buttons/Buttons.h</text>
</a>
</g>
</g>
<!-- Node22&#45;&gt;Node24 -->
<g id="edge38" class="edge"><title>Node22&#45;&gt;Node24</title>
<path fill="none" stroke="midnightblue" d="M424.809,-348.28C437.152,-329.267 464.668,-286.876 480.557,-262.399"/>
<polygon fill="midnightblue" stroke="midnightblue" points="483.698,-263.988 486.207,-253.695 477.826,-260.177 483.698,-263.988"/>
</g>
<!-- Node29 -->
<g id="node30" class="node"><title>Node29</title>
<g id="a_node30"><a xlink:href="interface_2leds_2_l_e_ds_8h.html" target="_top" xlink:title="leds/LEDs.h">
<polygon fill="white" stroke="black" points="221.5,-290.5 221.5,-311.5 301.5,-311.5 301.5,-290.5 221.5,-290.5"/>
<text text-anchor="middle" x="261.5" y="-297.9" font-family="Helvetica,sans-Serif" font-size="12.00">leds/LEDs.h</text>
</a>
</g>
</g>
<!-- Node22&#45;&gt;Node29 -->
<g id="edge40" class="edge"><title>Node22&#45;&gt;Node29</title>
<path fill="none" stroke="midnightblue" d="M391.511,-348.373C365.63,-339.142 326.375,-325.14 297.771,-314.937"/>
<polygon fill="midnightblue" stroke="midnightblue" points="298.732,-311.564 288.137,-311.501 296.38,-318.157 298.732,-311.564"/>
</g>
<!-- Node23&#45;&gt;Node2 -->
<g id="edge26" class="edge"><title>Node23&#45;&gt;Node2</title>
<path fill="none" stroke="midnightblue" d="M625.918,-290.221C637.708,-282.164 652.675,-269.554 659.5,-254 666.288,-238.532 662.79,-219.329 658.322,-205.278"/>
<polygon fill="midnightblue" stroke="midnightblue" points="661.549,-203.91 654.87,-195.686 654.963,-206.28 661.549,-203.91"/>
</g>
<!-- Node23&#45;&gt;Node4 -->
<g id="edge37" class="edge"><title>Node23&#45;&gt;Node4</title>
<path fill="none" stroke="midnightblue" d="M606.353,-311.695C600.271,-330.437 586.795,-371.956 578.801,-396.585"/>
<polygon fill="midnightblue" stroke="midnightblue" points="575.413,-395.688 575.655,-406.28 582.071,-397.849 575.413,-395.688"/>
</g>
<!-- Node23&#45;&gt;Node5 -->
<g id="edge32" class="edge"><title>Node23&#45;&gt;Node5</title>
<path fill="none" stroke="midnightblue" d="M558.856,-290.496C521.585,-282.732 470.043,-270.369 426.5,-254 406.406,-246.446 403.081,-240.799 383.5,-232 356.65,-219.935 325.612,-207.909 302.11,-199.181"/>
<polygon fill="midnightblue" stroke="midnightblue" points="303.126,-195.825 292.532,-195.651 300.705,-202.393 303.126,-195.825"/>
</g>
<!-- Node23&#45;&gt;Node24 -->
<g id="edge27" class="edge"><title>Node23&#45;&gt;Node24</title>
<path fill="none" stroke="midnightblue" d="M589.387,-290.373C570.69,-281.424 542.626,-267.992 521.507,-257.883"/>
<polygon fill="midnightblue" stroke="midnightblue" points="522.882,-254.661 512.351,-253.501 519.86,-260.975 522.882,-254.661"/>
</g>
<!-- Node26 -->
<g id="node27" class="node"><title>Node26</title>
<g id="a_node27"><a xlink:href="interface_2analog_2_data_types_8h.html" target="_top" xlink:title="DataTypes.h">
<polygon fill="white" stroke="black" points="568,-232.5 568,-253.5 651,-253.5 651,-232.5 568,-232.5"/>
<text text-anchor="middle" x="609.5" y="-239.9" font-family="Helvetica,sans-Serif" font-size="12.00">DataTypes.h</text>
</a>
</g>
</g>
<!-- Node23&#45;&gt;Node26 -->
<g id="edge33" class="edge"><title>Node23&#45;&gt;Node26</title>
<path fill="none" stroke="midnightblue" d="M609.5,-290.246C609.5,-282.938 609.5,-272.694 609.5,-263.705"/>
<polygon fill="midnightblue" stroke="midnightblue" points="613,-263.643 609.5,-253.643 606,-263.643 613,-263.643"/>
</g>
<!-- Node27 -->
<g id="node28" class="node"><title>Node27</title>
<g id="a_node28"><a xlink:href="interface_2analog_2_config_8h.html" target="_top" xlink:title="Config.h">
<polygon fill="white" stroke="black" points="738.5,-174.5 738.5,-195.5 798.5,-195.5 798.5,-174.5 738.5,-174.5"/>
<text text-anchor="middle" x="768.5" y="-181.9" font-family="Helvetica,sans-Serif" font-size="12.00">Config.h</text>
</a>
</g>
</g>
<!-- Node23&#45;&gt;Node27 -->
<g id="edge34" class="edge"><title>Node23&#45;&gt;Node27</title>
<path fill="none" stroke="midnightblue" d="M660.001,-293.428C705.538,-286.342 767.582,-273.402 782.5,-254 793.244,-240.025 787.143,-219.825 779.937,-205.072"/>
<polygon fill="midnightblue" stroke="midnightblue" points="782.799,-203.007 774.966,-195.873 776.641,-206.335 782.799,-203.007"/>
</g>
<!-- Node28 -->
<g id="node29" class="node"><title>Node28</title>
<g id="a_node29"><a xlink:href="interface_2analog_2_helpers_8h.html" target="_top" xlink:title="Helpers.h">
<polygon fill="white" stroke="black" points="707.5,-232.5 707.5,-253.5 773.5,-253.5 773.5,-232.5 707.5,-232.5"/>
<text text-anchor="middle" x="740.5" y="-239.9" font-family="Helvetica,sans-Serif" font-size="12.00">Helpers.h</text>
</a>
</g>
</g>
<!-- Node23&#45;&gt;Node28 -->
<g id="edge35" class="edge"><title>Node23&#45;&gt;Node28</title>
<path fill="none" stroke="midnightblue" d="M632.02,-290.373C653.237,-281.303 685.228,-267.628 708.977,-257.476"/>
<polygon fill="midnightblue" stroke="midnightblue" points="710.455,-260.65 718.274,-253.501 707.703,-254.214 710.455,-260.65"/>
</g>
<!-- Node24&#45;&gt;Node2 -->
<g id="edge28" class="edge"><title>Node24&#45;&gt;Node2</title>
<path fill="none" stroke="midnightblue" d="M519.661,-232.373C545.707,-223.142 585.212,-209.14 613.998,-198.937"/>
<polygon fill="midnightblue" stroke="midnightblue" points="615.437,-202.141 623.693,-195.501 613.099,-195.543 615.437,-202.141"/>
</g>
<!-- Node24&#45;&gt;Node4 -->
<g id="edge31" class="edge"><title>Node24&#45;&gt;Node4</title>
<path fill="none" stroke="midnightblue" d="M496.981,-253.633C509.789,-281.172 546.729,-360.593 563.738,-397.161"/>
<polygon fill="midnightblue" stroke="midnightblue" points="560.579,-398.669 567.97,-406.26 566.926,-395.716 560.579,-398.669"/>
</g>
<!-- Node24&#45;&gt;Node18 -->
<g id="edge29" class="edge"><title>Node24&#45;&gt;Node18</title>
<path fill="none" stroke="midnightblue" d="M549.718,-233.193C552.687,-232.779 555.628,-232.379 558.5,-232 679.424,-216.045 820.933,-200.915 901.81,-192.604"/>
<polygon fill="midnightblue" stroke="midnightblue" points="902.257,-196.076 911.848,-191.575 901.543,-189.113 902.257,-196.076"/>
</g>
<!-- Node25 -->
<g id="node26" class="node"><title>Node25</title>
<g id="a_node26"><a xlink:href="interface_2buttons_2_data_types_8h.html" target="_top" xlink:title="DataTypes.h">
<polygon fill="white" stroke="black" points="451,-174.5 451,-195.5 534,-195.5 534,-174.5 451,-174.5"/>
<text text-anchor="middle" x="492.5" y="-181.9" font-family="Helvetica,sans-Serif" font-size="12.00">DataTypes.h</text>
</a>
</g>
</g>
<!-- Node24&#45;&gt;Node25 -->
<g id="edge30" class="edge"><title>Node24&#45;&gt;Node25</title>
<path fill="none" stroke="midnightblue" d="M492.5,-232.246C492.5,-224.938 492.5,-214.694 492.5,-205.705"/>
<polygon fill="midnightblue" stroke="midnightblue" points="496,-205.643 492.5,-195.643 489,-205.643 496,-205.643"/>
</g>
<!-- Node28&#45;&gt;Node27 -->
<g id="edge36" class="edge"><title>Node28&#45;&gt;Node27</title>
<path fill="none" stroke="midnightblue" d="M745.377,-232.246C749.151,-224.697 754.492,-214.016 759.09,-204.82"/>
<polygon fill="midnightblue" stroke="midnightblue" points="762.337,-206.152 763.679,-195.643 756.076,-203.022 762.337,-206.152"/>
</g>
<!-- Node30 -->
<g id="node31" class="node"><title>Node30</title>
<g id="a_node31"><a xlink:href="interface_2leds_2_data_types_8h.html" target="_top" xlink:title="DataTypes.h">
<polygon fill="white" stroke="black" points="220,-232.5 220,-253.5 303,-253.5 303,-232.5 220,-232.5"/>
<text text-anchor="middle" x="261.5" y="-239.9" font-family="Helvetica,sans-Serif" font-size="12.00">DataTypes.h</text>
</a>
</g>
</g>
<!-- Node29&#45;&gt;Node30 -->
<g id="edge41" class="edge"><title>Node29&#45;&gt;Node30</title>
<path fill="none" stroke="midnightblue" d="M261.5,-290.246C261.5,-282.938 261.5,-272.694 261.5,-263.705"/>
<polygon fill="midnightblue" stroke="midnightblue" points="265,-263.643 261.5,-253.643 258,-263.643 265,-263.643"/>
</g>
<!-- Node31 -->
<g id="node32" class="node"><title>Node31</title>
<g id="a_node32"><a xlink:href="interface_2leds_2_constants_8h.html" target="_top" xlink:title="Constants.h">
<polygon fill="white" stroke="black" points="123.5,-232.5 123.5,-253.5 201.5,-253.5 201.5,-232.5 123.5,-232.5"/>
<text text-anchor="middle" x="162.5" y="-239.9" font-family="Helvetica,sans-Serif" font-size="12.00">Constants.h</text>
</a>
</g>
</g>
<!-- Node29&#45;&gt;Node31 -->
<g id="edge42" class="edge"><title>Node29&#45;&gt;Node31</title>
<path fill="none" stroke="midnightblue" d="M244.256,-290.246C228.924,-281.573 206.28,-268.765 188.708,-258.825"/>
<polygon fill="midnightblue" stroke="midnightblue" points="189.974,-255.52 179.547,-253.643 186.528,-261.613 189.974,-255.52"/>
</g>
<!-- Node31&#45;&gt;Node5 -->
<g id="edge43" class="edge"><title>Node31&#45;&gt;Node5</title>
<path fill="none" stroke="midnightblue" d="M180.441,-232.246C196.54,-223.493 220.388,-210.527 238.739,-200.55"/>
<polygon fill="midnightblue" stroke="midnightblue" points="240.651,-203.494 247.764,-195.643 237.307,-197.344 240.651,-203.494"/>
</g>
</g>
</svg>
