<?xml version="1.0" encoding="UTF-8" standalone="no"?>
<!DOCTYPE svg PUBLIC "-//W3C//DTD SVG 1.1//EN"
 "http://www.w3.org/Graphics/SVG/1.1/DTD/svg11.dtd">
<!-- Generated by graphviz version 2.38.0 (20140413.2041)
 -->
<!-- Title: interface/encoders/Encoders.h Pages: 1 -->
<svg width="1021pt" height="507pt"
 viewBox="0.00 0.00 1021.00 507.00" xmlns="http://www.w3.org/2000/svg" xmlns:xlink="http://www.w3.org/1999/xlink">
<g id="graph0" class="graph" transform="scale(1 1) rotate(0) translate(4 503)">
<title>interface/encoders/Encoders.h</title>
<polygon fill="white" stroke="none" points="-4,4 -4,-503 1017,-503 1017,4 -4,4"/>
<!-- Node0 -->
<g id="node1" class="node"><title>Node0</title>
<polygon fill="#bfbfbf" stroke="black" points="676,-464.5 676,-498.5 789,-498.5 789,-464.5 676,-464.5"/>
<text text-anchor="start" x="684" y="-484.9" font-family="Helvetica,sans-Serif" font-size="12.00">interface/encoders</text>
<text text-anchor="middle" x="732.5" y="-471.9" font-family="Helvetica,sans-Serif" font-size="12.00">/Encoders.h</text>
</g>
<!-- Node1 -->
<g id="node2" class="node"><title>Node1</title>
<g id="a_node2"><a xlink:href="_board_8h.html" target="_top" xlink:title="../../board/Board.h">
<polygon fill="white" stroke="black" points="679.5,-174.5 679.5,-195.5 789.5,-195.5 789.5,-174.5 679.5,-174.5"/>
<text text-anchor="middle" x="734.5" y="-181.9" font-family="Helvetica,sans-Serif" font-size="12.00">../../board/Board.h</text>
</a>
</g>
</g>
<!-- Node0&#45;&gt;Node1 -->
<g id="edge1" class="edge"><title>Node0&#45;&gt;Node1</title>
<path fill="none" stroke="midnightblue" d="M789.245,-465.598C838.341,-448.871 901.5,-416.394 901.5,-360 901.5,-360 901.5,-360 901.5,-300 901.5,-243.841 836.283,-213.352 787.36,-198.381"/>
<polygon fill="midnightblue" stroke="midnightblue" points="788.087,-194.947 777.507,-195.504 786.125,-201.667 788.087,-194.947"/>
</g>
<!-- Node2 -->
<g id="node3" class="node"><title>Node2</title>
<g id="a_node3"><a xlink:href="interface_2encoders_2_data_types_8h.html" target="_top" xlink:title="DataTypes.h">
<polygon fill="white" stroke="black" points="930,-406.5 930,-427.5 1013,-427.5 1013,-406.5 930,-406.5"/>
<text text-anchor="middle" x="971.5" y="-413.9" font-family="Helvetica,sans-Serif" font-size="12.00">DataTypes.h</text>
</a>
</g>
</g>
<!-- Node0&#45;&gt;Node2 -->
<g id="edge2" class="edge"><title>Node0&#45;&gt;Node2</title>
<path fill="none" stroke="midnightblue" d="M789.14,-465.688C830.575,-454.853 886.107,-440.331 924.964,-430.17"/>
<polygon fill="midnightblue" stroke="midnightblue" points="926.17,-433.472 934.959,-427.556 924.399,-426.7 926.17,-433.472"/>
</g>
<!-- Node3 -->
<g id="node4" class="node"><title>Node3</title>
<g id="a_node4"><a xlink:href="_open_deck_8h.html" target="_top" xlink:title="../../OpenDeck.h">
<polygon fill="white" stroke="black" points="514.5,-406.5 514.5,-427.5 614.5,-427.5 614.5,-406.5 514.5,-406.5"/>
<text text-anchor="middle" x="564.5" y="-413.9" font-family="Helvetica,sans-Serif" font-size="12.00">../../OpenDeck.h</text>
</a>
</g>
</g>
<!-- Node0&#45;&gt;Node3 -->
<g id="edge3" class="edge"><title>Node0&#45;&gt;Node3</title>
<path fill="none" stroke="midnightblue" d="M689.236,-464.405C661.477,-454.078 625.887,-440.837 599.833,-431.145"/>
<polygon fill="midnightblue" stroke="midnightblue" points="600.943,-427.823 590.35,-427.617 598.502,-434.384 600.943,-427.823"/>
</g>
<!-- Node3&#45;&gt;Node1 -->
<g id="edge22" class="edge"><title>Node3&#45;&gt;Node1</title>
<path fill="none" stroke="midnightblue" d="M566.246,-406.156C571.154,-379.521 585.807,-306.911 602.5,-290 639.826,-252.187 679.825,-292.445 716.5,-254 728.725,-241.185 732.876,-221.065 734.177,-206.03"/>
<polygon fill="midnightblue" stroke="midnightblue" points="737.688,-205.895 734.703,-195.73 730.698,-205.538 737.688,-205.895"/>
</g>
<!-- Node4 -->
<g id="node5" class="node"><title>Node4</title>
<g id="a_node5"><a xlink:href="_database_8h.html" target="_top" xlink:title="database/Database.h">
<polygon fill="white" stroke="black" points="200.5,-174.5 200.5,-195.5 330.5,-195.5 330.5,-174.5 200.5,-174.5"/>
<text text-anchor="middle" x="265.5" y="-181.9" font-family="Helvetica,sans-Serif" font-size="12.00">database/Database.h</text>
</a>
</g>
</g>
<!-- Node3&#45;&gt;Node4 -->
<g id="edge4" class="edge"><title>Node3&#45;&gt;Node4</title>
<path fill="none" stroke="midnightblue" d="M534.791,-406.455C479.136,-387.025 359.066,-337.502 295.5,-254 284.289,-239.273 276.223,-219.702 271.297,-205.337"/>
<polygon fill="midnightblue" stroke="midnightblue" points="274.538,-203.982 268.142,-195.535 267.874,-206.126 274.538,-203.982"/>
</g>
<!-- Node15 -->
<g id="node16" class="node"><title>Node15</title>
<g id="a_node16"><a xlink:href="_sys_ex_8h.html" target="_top" xlink:title="sysex/src/SysEx.h">
<polygon fill="white" stroke="black" points="738.5,-348.5 738.5,-369.5 848.5,-369.5 848.5,-348.5 738.5,-348.5"/>
<text text-anchor="middle" x="793.5" y="-355.9" font-family="Helvetica,sans-Serif" font-size="12.00">sysex/src/SysEx.h</text>
</a>
</g>
</g>
<!-- Node3&#45;&gt;Node15 -->
<g id="edge15" class="edge"><title>Node3&#45;&gt;Node15</title>
<path fill="none" stroke="midnightblue" d="M603.606,-406.437C642.633,-396.893 702.696,-382.205 744.796,-371.91"/>
<polygon fill="midnightblue" stroke="midnightblue" points="745.673,-375.299 754.555,-369.524 744.01,-368.499 745.673,-375.299"/>
</g>
<!-- Node19 -->
<g id="node20" class="node"><title>Node19</title>
<g id="a_node20"><a xlink:href="_version_8h.html" target="_top" xlink:title="version/Version.h">
<polygon fill="white" stroke="black" points="612,-348.5 612,-369.5 719,-369.5 719,-348.5 612,-348.5"/>
<text text-anchor="middle" x="665.5" y="-355.9" font-family="Helvetica,sans-Serif" font-size="12.00">version/Version.h</text>
</a>
</g>
</g>
<!-- Node3&#45;&gt;Node19 -->
<g id="edge20" class="edge"><title>Node3&#45;&gt;Node19</title>
<path fill="none" stroke="midnightblue" d="M582.093,-406.246C597.879,-397.493 621.264,-384.527 639.259,-374.55"/>
<polygon fill="midnightblue" stroke="midnightblue" points="641.06,-377.553 648.109,-369.643 637.666,-371.431 641.06,-377.553"/>
</g>
<!-- Node21 -->
<g id="node22" class="node"><title>Node21</title>
<g id="a_node22"><a xlink:href="_interface_8h.html" target="_top" xlink:title="interface/Interface.h">
<polygon fill="white" stroke="black" points="241.5,-348.5 241.5,-369.5 359.5,-369.5 359.5,-348.5 241.5,-348.5"/>
<text text-anchor="middle" x="300.5" y="-355.9" font-family="Helvetica,sans-Serif" font-size="12.00">interface/Interface.h</text>
</a>
</g>
</g>
<!-- Node3&#45;&gt;Node21 -->
<g id="edge23" class="edge"><title>Node3&#45;&gt;Node21</title>
<path fill="none" stroke="midnightblue" d="M519.417,-406.437C474.045,-396.813 404.011,-381.957 355.423,-371.65"/>
<polygon fill="midnightblue" stroke="midnightblue" points="355.906,-368.175 345.397,-369.524 354.453,-375.023 355.906,-368.175"/>
</g>
<!-- Node5 -->
<g id="node6" class="node"><title>Node5</title>
<g id="a_node6"><a xlink:href="_d_b_m_s_8h.html" target="_top" xlink:title="../dbms/src/DBMS.h">
<polygon fill="white" stroke="black" points="51,-116.5 51,-137.5 172,-137.5 172,-116.5 51,-116.5"/>
<text text-anchor="middle" x="111.5" y="-123.9" font-family="Helvetica,sans-Serif" font-size="12.00">../dbms/src/DBMS.h</text>
</a>
</g>
</g>
<!-- Node4&#45;&gt;Node5 -->
<g id="edge5" class="edge"><title>Node4&#45;&gt;Node5</title>
<path fill="none" stroke="midnightblue" d="M239.026,-174.373C213.64,-165.142 175.136,-151.14 147.078,-140.937"/>
<polygon fill="midnightblue" stroke="midnightblue" points="148.222,-137.629 137.628,-137.501 145.83,-144.208 148.222,-137.629"/>
</g>
<!-- Node8 -->
<g id="node9" class="node"><title>Node8</title>
<g id="a_node9"><a xlink:href="_blocks_8h.html" target="_top" xlink:title="blocks/Blocks.h">
<polygon fill="white" stroke="black" points="216.5,-116.5 216.5,-137.5 314.5,-137.5 314.5,-116.5 216.5,-116.5"/>
<text text-anchor="middle" x="265.5" y="-123.9" font-family="Helvetica,sans-Serif" font-size="12.00">blocks/Blocks.h</text>
</a>
</g>
</g>
<!-- Node4&#45;&gt;Node8 -->
<g id="edge8" class="edge"><title>Node4&#45;&gt;Node8</title>
<path fill="none" stroke="midnightblue" d="M265.5,-174.246C265.5,-166.938 265.5,-156.694 265.5,-147.705"/>
<polygon fill="midnightblue" stroke="midnightblue" points="269,-147.643 265.5,-137.643 262,-147.643 269,-147.643"/>
</g>
<!-- Node14 -->
<g id="node15" class="node"><title>Node14</title>
<g id="a_node15"><a xlink:href="database_2_config_8h.html" target="_top" xlink:title="Config.h">
<polygon fill="white" stroke="black" points="332.5,-116.5 332.5,-137.5 392.5,-137.5 392.5,-116.5 332.5,-116.5"/>
<text text-anchor="middle" x="362.5" y="-123.9" font-family="Helvetica,sans-Serif" font-size="12.00">Config.h</text>
</a>
</g>
</g>
<!-- Node4&#45;&gt;Node14 -->
<g id="edge14" class="edge"><title>Node4&#45;&gt;Node14</title>
<path fill="none" stroke="midnightblue" d="M282.396,-174.246C297.418,-165.573 319.604,-152.765 336.821,-142.825"/>
<polygon fill="midnightblue" stroke="midnightblue" points="338.887,-145.674 345.798,-137.643 335.387,-139.611 338.887,-145.674"/>
</g>
<!-- Node6 -->
<g id="node7" class="node"><title>Node6</title>
<g id="a_node7"><a xlink:href="dbms_2src_2_data_types_8h.html" target="_top" xlink:title="DataTypes.h">
<polygon fill="white" stroke="black" points="0,-58.5 0,-79.5 83,-79.5 83,-58.5 0,-58.5"/>
<text text-anchor="middle" x="41.5" y="-65.9" font-family="Helvetica,sans-Serif" font-size="12.00">DataTypes.h</text>
</a>
</g>
</g>
<!-- Node5&#45;&gt;Node6 -->
<g id="edge6" class="edge"><title>Node5&#45;&gt;Node6</title>
<path fill="none" stroke="midnightblue" d="M99.3069,-116.246C88.8679,-107.894 73.6345,-95.7076 61.426,-85.9408"/>
<polygon fill="midnightblue" stroke="midnightblue" points="63.5485,-83.1566 53.5533,-79.6427 59.1756,-88.6227 63.5485,-83.1566"/>
</g>
<!-- Node7 -->
<g id="node8" class="node"><title>Node7</title>
<g id="a_node8"><a xlink:href="dbms_2src_2_config_8h.html" target="_top" xlink:title="Config.h">
<polygon fill="white" stroke="black" points="11.5,-0.5 11.5,-21.5 71.5,-21.5 71.5,-0.5 11.5,-0.5"/>
<text text-anchor="middle" x="41.5" y="-7.9" font-family="Helvetica,sans-Serif" font-size="12.00">Config.h</text>
</a>
</g>
</g>
<!-- Node6&#45;&gt;Node7 -->
<g id="edge7" class="edge"><title>Node6&#45;&gt;Node7</title>
<path fill="none" stroke="midnightblue" d="M41.5,-58.2455C41.5,-50.9382 41.5,-40.6944 41.5,-31.7046"/>
<polygon fill="midnightblue" stroke="midnightblue" points="45.0001,-31.6426 41.5,-21.6427 38.0001,-31.6427 45.0001,-31.6426"/>
</g>
<!-- Node9 -->
<g id="node10" class="node"><title>Node9</title>
<g id="a_node10"><a xlink:href="database_2blocks_2_m_i_d_i_8h.html" target="_top" xlink:title="MIDI.h">
<polygon fill="white" stroke="black" points="433,-58.5 433,-79.5 482,-79.5 482,-58.5 433,-58.5"/>
<text text-anchor="middle" x="457.5" y="-65.9" font-family="Helvetica,sans-Serif" font-size="12.00">MIDI.h</text>
</a>
</g>
</g>
<!-- Node8&#45;&gt;Node9 -->
<g id="edge9" class="edge"><title>Node8&#45;&gt;Node9</title>
<path fill="none" stroke="midnightblue" d="M298.493,-116.423C328.464,-107.717 374.153,-94.4294 423.149,-80.0973"/>
<polygon fill="midnightblue" stroke="midnightblue" points="424.374,-83.3857 432.988,-77.218 422.408,-76.6674 424.374,-83.3857"/>
</g>
<!-- Node10 -->
<g id="node11" class="node"><title>Node10</title>
<g id="a_node11"><a xlink:href="database_2blocks_2_buttons_8h.html" target="_top" xlink:title="Buttons.h">
<polygon fill="white" stroke="black" points="101,-58.5 101,-79.5 166,-79.5 166,-58.5 101,-58.5"/>
<text text-anchor="middle" x="133.5" y="-65.9" font-family="Helvetica,sans-Serif" font-size="12.00">Buttons.h</text>
</a>
</g>
</g>
<!-- Node8&#45;&gt;Node10 -->
<g id="edge10" class="edge"><title>Node8&#45;&gt;Node10</title>
<path fill="none" stroke="midnightblue" d="M242.808,-116.373C221.429,-107.303 189.194,-93.6279 165.264,-83.4755"/>
<polygon fill="midnightblue" stroke="midnightblue" points="166.468,-80.1846 155.896,-79.5011 163.734,-86.6287 166.468,-80.1846"/>
</g>
<!-- Node11 -->
<g id="node12" class="node"><title>Node11</title>
<g id="a_node12"><a xlink:href="database_2blocks_2_encoders_8h.html" target="_top" xlink:title="Encoders.h">
<polygon fill="white" stroke="black" points="184.5,-58.5 184.5,-79.5 260.5,-79.5 260.5,-58.5 184.5,-58.5"/>
<text text-anchor="middle" x="222.5" y="-65.9" font-family="Helvetica,sans-Serif" font-size="12.00">Encoders.h</text>
</a>
</g>
</g>
<!-- Node8&#45;&gt;Node11 -->
<g id="edge11" class="edge"><title>Node8&#45;&gt;Node11</title>
<path fill="none" stroke="midnightblue" d="M258.01,-116.246C251.967,-108.376 243.31,-97.101 236.056,-87.6542"/>
<polygon fill="midnightblue" stroke="midnightblue" points="238.771,-85.4426 229.904,-79.6427 233.218,-89.7058 238.771,-85.4426"/>
</g>
<!-- Node12 -->
<g id="node13" class="node"><title>Node12</title>
<g id="a_node13"><a xlink:href="database_2blocks_2_analog_8h.html" target="_top" xlink:title="Analog.h">
<polygon fill="white" stroke="black" points="278.5,-58.5 278.5,-79.5 340.5,-79.5 340.5,-58.5 278.5,-58.5"/>
<text text-anchor="middle" x="309.5" y="-65.9" font-family="Helvetica,sans-Serif" font-size="12.00">Analog.h</text>
</a>
</g>
</g>
<!-- Node8&#45;&gt;Node12 -->
<g id="edge12" class="edge"><title>Node8&#45;&gt;Node12</title>
<path fill="none" stroke="midnightblue" d="M273.164,-116.246C279.347,-108.376 288.206,-97.101 295.629,-87.6542"/>
<polygon fill="midnightblue" stroke="midnightblue" points="298.497,-89.6683 301.924,-79.6427 292.993,-85.3435 298.497,-89.6683"/>
</g>
<!-- Node13 -->
<g id="node14" class="node"><title>Node13</title>
<g id="a_node14"><a xlink:href="database_2blocks_2_l_e_ds_8h.html" target="_top" xlink:title="LEDs.h">
<polygon fill="white" stroke="black" points="358.5,-58.5 358.5,-79.5 414.5,-79.5 414.5,-58.5 358.5,-58.5"/>
<text text-anchor="middle" x="386.5" y="-65.9" font-family="Helvetica,sans-Serif" font-size="12.00">LEDs.h</text>
</a>
</g>
</g>
<!-- Node8&#45;&gt;Node13 -->
<g id="edge13" class="edge"><title>Node8&#45;&gt;Node13</title>
<path fill="none" stroke="midnightblue" d="M286.301,-116.373C305.724,-107.384 334.922,-93.8706 356.796,-83.7471"/>
<polygon fill="midnightblue" stroke="midnightblue" points="358.366,-86.8776 365.971,-79.5011 355.426,-80.5249 358.366,-86.8776"/>
</g>
<!-- Node16 -->
<g id="node17" class="node"><title>Node16</title>
<g id="a_node17"><a xlink:href="sysex_2src_2_config_8h.html" target="_top" xlink:title="Config.h">
<polygon fill="white" stroke="black" points="763.5,-232.5 763.5,-253.5 823.5,-253.5 823.5,-232.5 763.5,-232.5"/>
<text text-anchor="middle" x="793.5" y="-239.9" font-family="Helvetica,sans-Serif" font-size="12.00">Config.h</text>
</a>
</g>
</g>
<!-- Node15&#45;&gt;Node16 -->
<g id="edge16" class="edge"><title>Node15&#45;&gt;Node16</title>
<path fill="none" stroke="midnightblue" d="M776.763,-348.299C764.742,-340.282 749.477,-327.689 742.5,-312 738.527,-303.066 738.527,-298.934 742.5,-290 747.951,-277.743 758.46,-267.376 768.529,-259.604"/>
<polygon fill="midnightblue" stroke="midnightblue" points="770.674,-262.372 776.763,-253.701 766.596,-256.683 770.674,-262.372"/>
</g>
<!-- Node17 -->
<g id="node18" class="node"><title>Node17</title>
<g id="a_node18"><a xlink:href="midi_2src_2_m_i_d_i_8h.html" target="_top" xlink:title="../../midi/src/MIDI.h">
<polygon fill="white" stroke="black" points="808,-174.5 808,-195.5 919,-195.5 919,-174.5 808,-174.5"/>
<text text-anchor="middle" x="863.5" y="-181.9" font-family="Helvetica,sans-Serif" font-size="12.00">../../midi/src/MIDI.h</text>
</a>
</g>
</g>
<!-- Node15&#45;&gt;Node17 -->
<g id="edge17" class="edge"><title>Node15&#45;&gt;Node17</title>
<path fill="none" stroke="midnightblue" d="M808.753,-348.226C820.243,-340.004 835.361,-327.177 843.5,-312 861.827,-277.824 864.44,-231.456 864.262,-205.561"/>
<polygon fill="midnightblue" stroke="midnightblue" points="867.76,-205.436 864.041,-195.516 860.761,-205.59 867.76,-205.436"/>
</g>
<!-- Node18 -->
<g id="node19" class="node"><title>Node18</title>
<g id="a_node19"><a xlink:href="sysex_2src_2_data_types_8h.html" target="_top" xlink:title="DataTypes.h">
<polygon fill="white" stroke="black" points="752,-290.5 752,-311.5 835,-311.5 835,-290.5 752,-290.5"/>
<text text-anchor="middle" x="793.5" y="-297.9" font-family="Helvetica,sans-Serif" font-size="12.00">DataTypes.h</text>
</a>
</g>
</g>
<!-- Node15&#45;&gt;Node18 -->
<g id="edge18" class="edge"><title>Node15&#45;&gt;Node18</title>
<path fill="none" stroke="midnightblue" d="M793.5,-348.246C793.5,-340.938 793.5,-330.694 793.5,-321.705"/>
<polygon fill="midnightblue" stroke="midnightblue" points="797,-321.643 793.5,-311.643 790,-321.643 797,-321.643"/>
</g>
<!-- Node18&#45;&gt;Node16 -->
<g id="edge19" class="edge"><title>Node18&#45;&gt;Node16</title>
<path fill="none" stroke="midnightblue" d="M793.5,-290.246C793.5,-282.938 793.5,-272.694 793.5,-263.705"/>
<polygon fill="midnightblue" stroke="midnightblue" points="797,-263.643 793.5,-253.643 790,-263.643 797,-263.643"/>
</g>
<!-- Node20 -->
<g id="node21" class="node"><title>Node20</title>
<g id="a_node21"><a xlink:href="version_2_data_types_8h.html" target="_top" xlink:title="DataTypes.h">
<polygon fill="white" stroke="black" points="612,-290.5 612,-311.5 695,-311.5 695,-290.5 612,-290.5"/>
<text text-anchor="middle" x="653.5" y="-297.9" font-family="Helvetica,sans-Serif" font-size="12.00">DataTypes.h</text>
</a>
</g>
</g>
<!-- Node19&#45;&gt;Node20 -->
<g id="edge21" class="edge"><title>Node19&#45;&gt;Node20</title>
<path fill="none" stroke="midnightblue" d="M663.41,-348.246C661.844,-340.938 659.649,-330.694 657.722,-321.705"/>
<polygon fill="midnightblue" stroke="midnightblue" points="661.084,-320.687 655.566,-311.643 654.239,-322.154 661.084,-320.687"/>
</g>
<!-- Node21&#45;&gt;Node0 -->
<g id="edge38" class="edge"><title>Node21&#45;&gt;Node0</title>
<path fill="none" stroke="midnightblue" d="M326.794,-369.596C365.569,-383.546 440.519,-409.751 505.5,-428 558.903,-442.997 620.227,-456.992 665.664,-466.754"/>
<polygon fill="midnightblue" stroke="midnightblue" points="665.18,-470.23 675.691,-468.895 666.642,-463.384 665.18,-470.23"/>
</g>
<!-- Node22 -->
<g id="node23" class="node"><title>Node22</title>
<g id="a_node23"><a xlink:href="interface_2analog_2_analog_8h.html" target="_top" xlink:title="analog/Analog.h">
<polygon fill="white" stroke="black" points="376,-290.5 376,-311.5 477,-311.5 477,-290.5 376,-290.5"/>
<text text-anchor="middle" x="426.5" y="-297.9" font-family="Helvetica,sans-Serif" font-size="12.00">analog/Analog.h</text>
</a>
</g>
</g>
<!-- Node21&#45;&gt;Node22 -->
<g id="edge24" class="edge"><title>Node21&#45;&gt;Node22</title>
<path fill="none" stroke="midnightblue" d="M322.16,-348.373C342.477,-339.343 373.064,-325.749 395.875,-315.611"/>
<polygon fill="midnightblue" stroke="midnightblue" points="397.406,-318.761 405.122,-311.501 394.563,-312.364 397.406,-318.761"/>
</g>
<!-- Node23 -->
<g id="node24" class="node"><title>Node23</title>
<g id="a_node24"><a xlink:href="interface_2buttons_2_buttons_8h.html" target="_top" xlink:title="../buttons/Buttons.h">
<polygon fill="white" stroke="black" points="593.5,-232.5 593.5,-253.5 707.5,-253.5 707.5,-232.5 593.5,-232.5"/>
<text text-anchor="middle" x="650.5" y="-239.9" font-family="Helvetica,sans-Serif" font-size="12.00">../buttons/Buttons.h</text>
</a>
</g>
</g>
<!-- Node21&#45;&gt;Node23 -->
<g id="edge37" class="edge"><title>Node21&#45;&gt;Node23</title>
<path fill="none" stroke="midnightblue" d="M350.386,-348.46C388.087,-340.567 440.804,-328.058 485.5,-312 506.828,-304.338 510.693,-298.981 531.5,-290 558.903,-278.172 590.428,-266.051 614.144,-257.222"/>
<polygon fill="midnightblue" stroke="midnightblue" points="615.631,-260.404 623.795,-253.651 613.202,-253.839 615.631,-260.404"/>
</g>
<!-- Node28 -->
<g id="node29" class="node"><title>Node28</title>
<g id="a_node29"><a xlink:href="interface_2leds_2_l_e_ds_8h.html" target="_top" xlink:title="leds/LEDs.h">
<polygon fill="white" stroke="black" points="158.5,-290.5 158.5,-311.5 238.5,-311.5 238.5,-290.5 158.5,-290.5"/>
<text text-anchor="middle" x="198.5" y="-297.9" font-family="Helvetica,sans-Serif" font-size="12.00">leds/LEDs.h</text>
</a>
</g>
</g>
<!-- Node21&#45;&gt;Node28 -->
<g id="edge39" class="edge"><title>Node21&#45;&gt;Node28</title>
<path fill="none" stroke="midnightblue" d="M282.733,-348.246C266.79,-339.493 243.174,-326.527 225.001,-316.55"/>
<polygon fill="midnightblue" stroke="midnightblue" points="226.514,-313.387 216.063,-311.643 223.145,-319.523 226.514,-313.387"/>
</g>
<!-- Node22&#45;&gt;Node1 -->
<g id="edge25" class="edge"><title>Node22&#45;&gt;Node1</title>
<path fill="none" stroke="midnightblue" d="M454.873,-290.341C479.29,-281.721 515.257,-268.283 545.5,-254 563.495,-245.501 566.214,-239.852 584.5,-232 617.218,-217.951 655.635,-206.255 685.399,-198.173"/>
<polygon fill="midnightblue" stroke="midnightblue" points="686.381,-201.533 695.14,-195.572 684.576,-194.77 686.381,-201.533"/>
</g>
<!-- Node22&#45;&gt;Node3 -->
<g id="edge36" class="edge"><title>Node22&#45;&gt;Node3</title>
<path fill="none" stroke="midnightblue" d="M438.236,-311.695C461.94,-331.277 515.746,-375.725 544.88,-399.792"/>
<polygon fill="midnightblue" stroke="midnightblue" points="542.795,-402.61 552.734,-406.28 547.254,-397.213 542.795,-402.61"/>
</g>
<!-- Node22&#45;&gt;Node4 -->
<g id="edge31" class="edge"><title>Node22&#45;&gt;Node4</title>
<path fill="none" stroke="midnightblue" d="M395.398,-290.458C373.623,-282.813 344.59,-270.613 322.5,-254 303.944,-240.045 287.48,-218.952 277.077,-203.963"/>
<polygon fill="midnightblue" stroke="midnightblue" points="279.899,-201.887 271.418,-195.537 274.088,-205.79 279.899,-201.887"/>
</g>
<!-- Node22&#45;&gt;Node23 -->
<g id="edge26" class="edge"><title>Node22&#45;&gt;Node23</title>
<path fill="none" stroke="midnightblue" d="M464.752,-290.437C502.847,-280.913 561.431,-266.267 602.599,-255.975"/>
<polygon fill="midnightblue" stroke="midnightblue" points="603.553,-259.345 612.405,-253.524 601.855,-252.554 603.553,-259.345"/>
</g>
<!-- Node25 -->
<g id="node26" class="node"><title>Node25</title>
<g id="a_node26"><a xlink:href="interface_2analog_2_data_types_8h.html" target="_top" xlink:title="DataTypes.h">
<polygon fill="white" stroke="black" points="454,-232.5 454,-253.5 537,-253.5 537,-232.5 454,-232.5"/>
<text text-anchor="middle" x="495.5" y="-239.9" font-family="Helvetica,sans-Serif" font-size="12.00">DataTypes.h</text>
</a>
</g>
</g>
<!-- Node22&#45;&gt;Node25 -->
<g id="edge32" class="edge"><title>Node22&#45;&gt;Node25</title>
<path fill="none" stroke="midnightblue" d="M438.519,-290.246C448.71,-281.975 463.536,-269.942 475.511,-260.223"/>
<polygon fill="midnightblue" stroke="midnightblue" points="478.06,-262.662 483.619,-253.643 473.649,-257.227 478.06,-262.662"/>
</g>
<!-- Node26 -->
<g id="node27" class="node"><title>Node26</title>
<g id="a_node27"><a xlink:href="interface_2analog_2_config_8h.html" target="_top" xlink:title="Config.h">
<polygon fill="white" stroke="black" points="372.5,-174.5 372.5,-195.5 432.5,-195.5 432.5,-174.5 372.5,-174.5"/>
<text text-anchor="middle" x="402.5" y="-181.9" font-family="Helvetica,sans-Serif" font-size="12.00">Config.h</text>
</a>
</g>
</g>
<!-- Node22&#45;&gt;Node26 -->
<g id="edge33" class="edge"><title>Node22&#45;&gt;Node26</title>
<path fill="none" stroke="midnightblue" d="M424.454,-290.28C420.522,-271.603 411.841,-230.369 406.651,-205.715"/>
<polygon fill="midnightblue" stroke="midnightblue" points="410.026,-204.759 404.541,-195.695 403.176,-206.202 410.026,-204.759"/>
</g>
<!-- Node27 -->
<g id="node28" class="node"><title>Node27</title>
<g id="a_node28"><a xlink:href="interface_2analog_2_helpers_8h.html" target="_top" xlink:title="Helpers.h">
<polygon fill="white" stroke="black" points="331.5,-232.5 331.5,-253.5 397.5,-253.5 397.5,-232.5 331.5,-232.5"/>
<text text-anchor="middle" x="364.5" y="-239.9" font-family="Helvetica,sans-Serif" font-size="12.00">Helpers.h</text>
</a>
</g>
</g>
<!-- Node22&#45;&gt;Node27 -->
<g id="edge34" class="edge"><title>Node22&#45;&gt;Node27</title>
<path fill="none" stroke="midnightblue" d="M415.7,-290.246C406.632,-282.055 393.479,-270.175 382.776,-260.507"/>
<polygon fill="midnightblue" stroke="midnightblue" points="384.943,-257.748 375.176,-253.643 380.251,-262.943 384.943,-257.748"/>
</g>
<!-- Node23&#45;&gt;Node1 -->
<g id="edge27" class="edge"><title>Node23&#45;&gt;Node1</title>
<path fill="none" stroke="midnightblue" d="M665.132,-232.246C677.899,-223.734 696.644,-211.237 711.43,-201.38"/>
<polygon fill="midnightblue" stroke="midnightblue" points="713.657,-204.102 720.036,-195.643 709.774,-198.278 713.657,-204.102"/>
</g>
<!-- Node23&#45;&gt;Node3 -->
<g id="edge30" class="edge"><title>Node23&#45;&gt;Node3</title>
<path fill="none" stroke="midnightblue" d="M618.486,-253.575C600.833,-260.641 580.351,-272.182 569.5,-290 549.474,-322.885 554.604,-370.055 559.777,-396.361"/>
<polygon fill="midnightblue" stroke="midnightblue" points="556.383,-397.225 561.924,-406.256 563.224,-395.741 556.383,-397.225"/>
</g>
<!-- Node23&#45;&gt;Node17 -->
<g id="edge28" class="edge"><title>Node23&#45;&gt;Node17</title>
<path fill="none" stroke="midnightblue" d="M687.116,-232.373C723.148,-222.9 778.288,-208.403 817.311,-198.143"/>
<polygon fill="midnightblue" stroke="midnightblue" points="818.58,-201.429 827.362,-195.501 816.8,-194.659 818.58,-201.429"/>
</g>
<!-- Node24 -->
<g id="node25" class="node"><title>Node24</title>
<g id="a_node25"><a xlink:href="interface_2buttons_2_data_types_8h.html" target="_top" xlink:title="DataTypes.h">
<polygon fill="white" stroke="black" points="578,-174.5 578,-195.5 661,-195.5 661,-174.5 578,-174.5"/>
<text text-anchor="middle" x="619.5" y="-181.9" font-family="Helvetica,sans-Serif" font-size="12.00">DataTypes.h</text>
</a>
</g>
</g>
<!-- Node23&#45;&gt;Node24 -->
<g id="edge29" class="edge"><title>Node23&#45;&gt;Node24</title>
<path fill="none" stroke="midnightblue" d="M645.1,-232.246C640.877,-224.617 634.883,-213.788 629.756,-204.527"/>
<polygon fill="midnightblue" stroke="midnightblue" points="632.743,-202.696 624.838,-195.643 626.619,-206.087 632.743,-202.696"/>
</g>
<!-- Node27&#45;&gt;Node26 -->
<g id="edge35" class="edge"><title>Node27&#45;&gt;Node26</title>
<path fill="none" stroke="midnightblue" d="M371.119,-232.246C376.405,-224.456 383.954,-213.331 390.324,-203.944"/>
<polygon fill="midnightblue" stroke="midnightblue" points="393.238,-205.883 395.957,-195.643 387.446,-201.952 393.238,-205.883"/>
</g>
<!-- Node29 -->
<g id="node30" class="node"><title>Node29</title>
<g id="a_node30"><a xlink:href="interface_2leds_2_data_types_8h.html" target="_top" xlink:title="DataTypes.h">
<polygon fill="white" stroke="black" points="58,-232.5 58,-253.5 141,-253.5 141,-232.5 58,-232.5"/>
<text text-anchor="middle" x="99.5" y="-239.9" font-family="Helvetica,sans-Serif" font-size="12.00">DataTypes.h</text>
</a>
</g>
</g>
<!-- Node28&#45;&gt;Node29 -->
<g id="edge40" class="edge"><title>Node28&#45;&gt;Node29</title>
<path fill="none" stroke="midnightblue" d="M181.256,-290.246C165.924,-281.573 143.28,-268.765 125.708,-258.825"/>
<polygon fill="midnightblue" stroke="midnightblue" points="126.974,-255.52 116.547,-253.643 123.528,-261.613 126.974,-255.52"/>
</g>
<!-- Node30 -->
<g id="node31" class="node"><title>Node30</title>
<g id="a_node31"><a xlink:href="interface_2leds_2_constants_8h.html" target="_top" xlink:title="Constants.h">
<polygon fill="white" stroke="black" points="159.5,-232.5 159.5,-253.5 237.5,-253.5 237.5,-232.5 159.5,-232.5"/>
<text text-anchor="middle" x="198.5" y="-239.9" font-family="Helvetica,sans-Serif" font-size="12.00">Constants.h</text>
</a>
</g>
</g>
<!-- Node28&#45;&gt;Node30 -->
<g id="edge41" class="edge"><title>Node28&#45;&gt;Node30</title>
<path fill="none" stroke="midnightblue" d="M198.5,-290.246C198.5,-282.938 198.5,-272.694 198.5,-263.705"/>
<polygon fill="midnightblue" stroke="midnightblue" points="202,-263.643 198.5,-253.643 195,-263.643 202,-263.643"/>
</g>
<!-- Node30&#45;&gt;Node4 -->
<g id="edge42" class="edge"><title>Node30&#45;&gt;Node4</title>
<path fill="none" stroke="midnightblue" d="M210.171,-232.246C220.066,-223.975 234.463,-211.942 246.09,-202.223"/>
<polygon fill="midnightblue" stroke="midnightblue" points="248.535,-204.741 253.963,-195.643 244.046,-199.37 248.535,-204.741"/>
</g>
</g>
</svg>
