<?xml version="1.0" encoding="UTF-8" standalone="no"?>
<!DOCTYPE svg PUBLIC "-//W3C//DTD SVG 1.1//EN"
 "http://www.w3.org/Graphics/SVG/1.1/DTD/svg11.dtd">
<!-- Generated by graphviz version 2.38.0 (20140413.2041)
 -->
<!-- Title: interface/digital/output/leds/Constants.h Pages: 1 -->
<svg width="545pt" height="288pt"
 viewBox="0.00 0.00 545.00 288.00" xmlns="http://www.w3.org/2000/svg" xmlns:xlink="http://www.w3.org/1999/xlink">
<g id="graph0" class="graph" transform="scale(1 1) rotate(0) translate(4 284)">
<title>interface/digital/output/leds/Constants.h</title>
<polygon fill="white" stroke="none" points="-4,4 -4,-284 541,-284 541,4 -4,4"/>
<!-- Node0 -->
<g id="node1" class="node"><title>Node0</title>
<polygon fill="#bfbfbf" stroke="black" points="160,-245.5 160,-279.5 291,-279.5 291,-245.5 160,-245.5"/>
<text text-anchor="start" x="168" y="-265.9" font-family="Helvetica,sans-Serif" font-size="12.00">interface/digital/output</text>
<text text-anchor="middle" x="225.5" y="-252.9" font-family="Helvetica,sans-Serif" font-size="12.00">/leds/Constants.h</text>
</g>
<!-- Node1 -->
<g id="node2" class="node"><title>Node1</title>
<g id="a_node2"><a xlink:href="database_2_database_8h.html" target="_top" xlink:title="../../../../database\l/Database.h">
<polygon fill="white" stroke="black" points="174.5,-174.5 174.5,-208.5 276.5,-208.5 276.5,-174.5 174.5,-174.5"/>
<text text-anchor="start" x="182.5" y="-194.9" font-family="Helvetica,sans-Serif" font-size="12.00">../../../../database</text>
<text text-anchor="middle" x="225.5" y="-181.9" font-family="Helvetica,sans-Serif" font-size="12.00">/Database.h</text>
</a>
</g>
</g>
<!-- Node0&#45;&gt;Node1 -->
<g id="edge1" class="edge"><title>Node0&#45;&gt;Node1</title>
<path fill="none" stroke="midnightblue" d="M225.5,-245.497C225.5,-237.599 225.5,-227.866 225.5,-218.904"/>
<polygon fill="midnightblue" stroke="midnightblue" points="229,-218.896 225.5,-208.896 222,-218.896 229,-218.896"/>
</g>
<!-- Node2 -->
<g id="node3" class="node"><title>Node2</title>
<g id="a_node3"><a xlink:href="_d_b_m_s_8h.html" target="_top" xlink:title="../dbms/src/DBMS.h">
<polygon fill="white" stroke="black" points="41,-116.5 41,-137.5 162,-137.5 162,-116.5 41,-116.5"/>
<text text-anchor="middle" x="101.5" y="-123.9" font-family="Helvetica,sans-Serif" font-size="12.00">../dbms/src/DBMS.h</text>
</a>
</g>
</g>
<!-- Node1&#45;&gt;Node2 -->
<g id="edge2" class="edge"><title>Node1&#45;&gt;Node2</title>
<path fill="none" stroke="midnightblue" d="M193.567,-174.405C173.8,-164.442 148.654,-151.767 129.638,-142.182"/>
<polygon fill="midnightblue" stroke="midnightblue" points="131.085,-138.992 120.58,-137.617 127.934,-145.243 131.085,-138.992"/>
</g>
<!-- Node5 -->
<g id="node6" class="node"><title>Node5</title>
<g id="a_node6"><a xlink:href="database_2blocks_2_blocks_8h.html" target="_top" xlink:title="blocks/Blocks.h">
<polygon fill="white" stroke="black" points="240.5,-116.5 240.5,-137.5 338.5,-137.5 338.5,-116.5 240.5,-116.5"/>
<text text-anchor="middle" x="289.5" y="-123.9" font-family="Helvetica,sans-Serif" font-size="12.00">blocks/Blocks.h</text>
</a>
</g>
</g>
<!-- Node1&#45;&gt;Node5 -->
<g id="edge5" class="edge"><title>Node1&#45;&gt;Node5</title>
<path fill="none" stroke="midnightblue" d="M241.982,-174.405C251.241,-165.363 262.787,-154.087 272.179,-144.915"/>
<polygon fill="midnightblue" stroke="midnightblue" points="274.756,-147.291 279.465,-137.8 269.865,-142.283 274.756,-147.291"/>
</g>
<!-- Node3 -->
<g id="node4" class="node"><title>Node3</title>
<g id="a_node4"><a xlink:href="dbms_2src_2_data_types_8h.html" target="_top" xlink:title="DataTypes.h">
<polygon fill="white" stroke="black" points="0,-58.5 0,-79.5 83,-79.5 83,-58.5 0,-58.5"/>
<text text-anchor="middle" x="41.5" y="-65.9" font-family="Helvetica,sans-Serif" font-size="12.00">DataTypes.h</text>
</a>
</g>
</g>
<!-- Node2&#45;&gt;Node3 -->
<g id="edge3" class="edge"><title>Node2&#45;&gt;Node3</title>
<path fill="none" stroke="midnightblue" d="M91.0488,-116.246C82.2731,-108.055 69.5446,-96.1749 59.186,-86.5069"/>
<polygon fill="midnightblue" stroke="midnightblue" points="61.5301,-83.9072 51.8314,-79.6427 56.7539,-89.0246 61.5301,-83.9072"/>
</g>
<!-- Node4 -->
<g id="node5" class="node"><title>Node4</title>
<polygon fill="white" stroke="#bfbfbf" points="9,-0.5 9,-21.5 74,-21.5 74,-0.5 9,-0.5"/>
<text text-anchor="middle" x="41.5" y="-7.9" font-family="Helvetica,sans-Serif" font-size="12.00">inttypes.h</text>
</g>
<!-- Node3&#45;&gt;Node4 -->
<g id="edge4" class="edge"><title>Node3&#45;&gt;Node4</title>
<path fill="none" stroke="midnightblue" d="M41.5,-58.2455C41.5,-50.9382 41.5,-40.6944 41.5,-31.7046"/>
<polygon fill="midnightblue" stroke="midnightblue" points="45.0001,-31.6426 41.5,-21.6427 38.0001,-31.6427 45.0001,-31.6426"/>
</g>
<!-- Node6 -->
<g id="node7" class="node"><title>Node6</title>
<g id="a_node7"><a xlink:href="database_2blocks_2_m_i_d_i_8h.html" target="_top" xlink:title="MIDI.h">
<polygon fill="white" stroke="black" points="101,-58.5 101,-79.5 150,-79.5 150,-58.5 101,-58.5"/>
<text text-anchor="middle" x="125.5" y="-65.9" font-family="Helvetica,sans-Serif" font-size="12.00">MIDI.h</text>
</a>
</g>
</g>
<!-- Node5&#45;&gt;Node6 -->
<g id="edge6" class="edge"><title>Node5&#45;&gt;Node6</title>
<path fill="none" stroke="midnightblue" d="M261.307,-116.373C233.167,-106.764 189.891,-91.9872 159.781,-81.7056"/>
<polygon fill="midnightblue" stroke="midnightblue" points="160.709,-78.3243 150.115,-78.4051 158.447,-84.9488 160.709,-78.3243"/>
</g>
<!-- Node7 -->
<g id="node8" class="node"><title>Node7</title>
<g id="a_node8"><a xlink:href="database_2blocks_2_buttons_8h.html" target="_top" xlink:title="Buttons.h">
<polygon fill="white" stroke="black" points="168,-58.5 168,-79.5 233,-79.5 233,-58.5 168,-58.5"/>
<text text-anchor="middle" x="200.5" y="-65.9" font-family="Helvetica,sans-Serif" font-size="12.00">Buttons.h</text>
</a>
</g>
</g>
<!-- Node5&#45;&gt;Node7 -->
<g id="edge7" class="edge"><title>Node5&#45;&gt;Node7</title>
<path fill="none" stroke="midnightblue" d="M273.997,-116.246C260.342,-107.653 240.234,-95.0014 224.501,-85.1018"/>
<polygon fill="midnightblue" stroke="midnightblue" points="226.153,-82.006 215.825,-79.6427 222.425,-87.9307 226.153,-82.006"/>
</g>
<!-- Node8 -->
<g id="node9" class="node"><title>Node8</title>
<g id="a_node9"><a xlink:href="database_2blocks_2_encoders_8h.html" target="_top" xlink:title="Encoders.h">
<polygon fill="white" stroke="black" points="251.5,-58.5 251.5,-79.5 327.5,-79.5 327.5,-58.5 251.5,-58.5"/>
<text text-anchor="middle" x="289.5" y="-65.9" font-family="Helvetica,sans-Serif" font-size="12.00">Encoders.h</text>
</a>
</g>
</g>
<!-- Node5&#45;&gt;Node8 -->
<g id="edge8" class="edge"><title>Node5&#45;&gt;Node8</title>
<path fill="none" stroke="midnightblue" d="M289.5,-116.246C289.5,-108.938 289.5,-98.6944 289.5,-89.7046"/>
<polygon fill="midnightblue" stroke="midnightblue" points="293,-89.6426 289.5,-79.6427 286,-89.6427 293,-89.6426"/>
</g>
<!-- Node9 -->
<g id="node10" class="node"><title>Node9</title>
<g id="a_node10"><a xlink:href="database_2blocks_2_analog_8h.html" target="_top" xlink:title="Analog.h">
<polygon fill="white" stroke="black" points="345.5,-58.5 345.5,-79.5 407.5,-79.5 407.5,-58.5 345.5,-58.5"/>
<text text-anchor="middle" x="376.5" y="-65.9" font-family="Helvetica,sans-Serif" font-size="12.00">Analog.h</text>
</a>
</g>
</g>
<!-- Node5&#45;&gt;Node9 -->
<g id="edge9" class="edge"><title>Node5&#45;&gt;Node9</title>
<path fill="none" stroke="midnightblue" d="M304.654,-116.246C318.003,-107.653 337.659,-95.0014 353.038,-85.1018"/>
<polygon fill="midnightblue" stroke="midnightblue" points="355.005,-87.9982 361.519,-79.6427 351.216,-82.1121 355.005,-87.9982"/>
</g>
<!-- Node10 -->
<g id="node11" class="node"><title>Node10</title>
<g id="a_node11"><a xlink:href="database_2blocks_2_l_e_ds_8h.html" target="_top" xlink:title="LEDs.h">
<polygon fill="white" stroke="black" points="425.5,-58.5 425.5,-79.5 481.5,-79.5 481.5,-58.5 425.5,-58.5"/>
<text text-anchor="middle" x="453.5" y="-65.9" font-family="Helvetica,sans-Serif" font-size="12.00">LEDs.h</text>
</a>
</g>
</g>
<!-- Node5&#45;&gt;Node10 -->
<g id="edge10" class="edge"><title>Node5&#45;&gt;Node10</title>
<path fill="none" stroke="midnightblue" d="M317.693,-116.373C344.845,-107.102 386.091,-93.0178 416.002,-82.804"/>
<polygon fill="midnightblue" stroke="midnightblue" points="417.343,-86.0449 425.675,-79.5011 415.081,-79.4204 417.343,-86.0449"/>
</g>
<!-- Node11 -->
<g id="node12" class="node"><title>Node11</title>
<g id="a_node12"><a xlink:href="database_2blocks_2_i_d_8h.html" target="_top" xlink:title="ID.h">
<polygon fill="white" stroke="black" points="500,-58.5 500,-79.5 537,-79.5 537,-58.5 500,-58.5"/>
<text text-anchor="middle" x="518.5" y="-65.9" font-family="Helvetica,sans-Serif" font-size="12.00">ID.h</text>
</a>
</g>
</g>
<!-- Node5&#45;&gt;Node11 -->
<g id="edge11" class="edge"><title>Node5&#45;&gt;Node11</title>
<path fill="none" stroke="midnightblue" d="M338.655,-116.442C377.368,-108.534 432.825,-96.3676 489.989,-79.8837"/>
<polygon fill="midnightblue" stroke="midnightblue" points="491.308,-83.1447 499.924,-76.9795 489.344,-76.4259 491.308,-83.1447"/>
</g>
</g>
</svg>
