<?xml version="1.0" encoding="UTF-8" standalone="no"?>
<!DOCTYPE svg PUBLIC "-//W3C//DTD SVG 1.1//EN"
 "http://www.w3.org/Graphics/SVG/1.1/DTD/svg11.dtd">
<!-- Generated by graphviz version 2.38.0 (20140413.2041)
 -->
<!-- Title: interface/digital/input/encoders/Constants.h Pages: 1 -->
<svg width="152pt" height="114pt"
 viewBox="0.00 0.00 152.00 114.00" xmlns="http://www.w3.org/2000/svg" xmlns:xlink="http://www.w3.org/1999/xlink">
<g id="graph0" class="graph" transform="scale(1 1) rotate(0) translate(4 110)">
<title>interface/digital/input/encoders/Constants.h</title>
<polygon fill="white" stroke="none" points="-4,4 -4,-110 148,-110 148,4 -4,4"/>
<!-- Node1 -->
<g id="node1" class="node"><title>Node1</title>
<polygon fill="#bfbfbf" stroke="black" points="5.5,-71.5 5.5,-105.5 138.5,-105.5 138.5,-71.5 5.5,-71.5"/>
<text text-anchor="start" x="13.5" y="-91.9" font-family="Helvetica,sans-Serif" font-size="12.00">interface/digital/input</text>
<text text-anchor="middle" x="72" y="-78.9" font-family="Helvetica,sans-Serif" font-size="12.00">/encoders/Constants.h</text>
</g>
<!-- Node2 -->
<g id="node2" class="node"><title>Node2</title>
<g id="a_node2"><a xlink:href="interface_2digital_2input_2encoders_2_encoders_8cpp.html" target="_top" xlink:title="interface/digital/input\l/encoders/Encoders.cpp">
<polygon fill="white" stroke="black" points="0,-0.5 0,-34.5 144,-34.5 144,-0.5 0,-0.5"/>
<text text-anchor="start" x="8" y="-20.9" font-family="Helvetica,sans-Serif" font-size="12.00">interface/digital/input</text>
<text text-anchor="middle" x="72" y="-7.9" font-family="Helvetica,sans-Serif" font-size="12.00">/encoders/Encoders.cpp</text>
</a>
</g>
</g>
<!-- Node1&#45;&gt;Node2 -->
<g id="edge1" class="edge"><title>Node1&#45;&gt;Node2</title>
<path fill="none" stroke="midnightblue" d="M72,-61.2468C72,-52.3917 72,-42.7667 72,-34.8958"/>
<polygon fill="midnightblue" stroke="midnightblue" points="68.5001,-61.4965 72,-71.4966 75.5001,-61.4966 68.5001,-61.4965"/>
</g>
</g>
</svg>
