<?xml version="1.0" encoding="UTF-8" standalone="no"?>
<!DOCTYPE svg PUBLIC "-//W3C//DTD SVG 1.1//EN"
 "http://www.w3.org/Graphics/SVG/1.1/DTD/svg11.dtd">
<!-- Generated by graphviz version 2.38.0 (20140413.2041)
 -->
<!-- Title: interface/digital/input/buttons/Buttons.h Pages: 1 -->
<svg width="1142pt" height="533pt"
 viewBox="0.00 0.00 1141.50 533.00" xmlns="http://www.w3.org/2000/svg" xmlns:xlink="http://www.w3.org/1999/xlink">
<g id="graph0" class="graph" transform="scale(1 1) rotate(0) translate(4 529)">
<title>interface/digital/input/buttons/Buttons.h</title>
<polygon fill="white" stroke="none" points="-4,4 -4,-529 1137.5,-529 1137.5,4 -4,4"/>
<!-- Node0 -->
<g id="node1" class="node"><title>Node0</title>
<polygon fill="#bfbfbf" stroke="black" points="452,-490.5 452,-524.5 576,-524.5 576,-490.5 452,-490.5"/>
<text text-anchor="start" x="460" y="-510.9" font-family="Helvetica,sans-Serif" font-size="12.00">interface/digital/input</text>
<text text-anchor="middle" x="514" y="-497.9" font-family="Helvetica,sans-Serif" font-size="12.00">/buttons/Buttons.h</text>
</g>
<!-- Node1 -->
<g id="node2" class="node"><title>Node1</title>
<g id="a_node2"><a xlink:href="interface_2digital_2input_2buttons_2_data_types_8h.html" target="_top" xlink:title="DataTypes.h">
<polygon fill="white" stroke="black" points="205.5,-432.5 205.5,-453.5 288.5,-453.5 288.5,-432.5 205.5,-432.5"/>
<text text-anchor="middle" x="247" y="-439.9" font-family="Helvetica,sans-Serif" font-size="12.00">DataTypes.h</text>
</a>
</g>
</g>
<!-- Node0&#45;&gt;Node1 -->
<g id="edge1" class="edge"><title>Node0&#45;&gt;Node1</title>
<path fill="none" stroke="midnightblue" d="M451.737,-491.925C404.847,-480.949 341.374,-466.091 297.593,-455.843"/>
<polygon fill="midnightblue" stroke="midnightblue" points="298.272,-452.407 287.738,-453.536 296.677,-459.223 298.272,-452.407"/>
</g>
<!-- Node2 -->
<g id="node3" class="node"><title>Node2</title>
<g id="a_node3"><a xlink:href="_open_deck_8h.html" target="_top" xlink:title="../../../../OpenDeck.h">
<polygon fill="white" stroke="black" points="739,-432.5 739,-453.5 857,-453.5 857,-432.5 739,-432.5"/>
<text text-anchor="middle" x="798" y="-439.9" font-family="Helvetica,sans-Serif" font-size="12.00">../../../../OpenDeck.h</text>
</a>
</g>
</g>
<!-- Node0&#45;&gt;Node2 -->
<g id="edge2" class="edge"><title>Node0&#45;&gt;Node2</title>
<path fill="none" stroke="midnightblue" d="M576.325,-492.784C626.782,-481.68 697.083,-466.209 744.894,-455.687"/>
<polygon fill="midnightblue" stroke="midnightblue" points="745.726,-459.088 754.74,-453.52 744.221,-452.251 745.726,-459.088"/>
</g>
<!-- Node3 -->
<g id="node4" class="node"><title>Node3</title>
<g id="a_node4"><a xlink:href="database_2_database_8h.html" target="_top" xlink:title="database/Database.h">
<polygon fill="white" stroke="black" points="285,-174.5 285,-195.5 415,-195.5 415,-174.5 285,-174.5"/>
<text text-anchor="middle" x="350" y="-181.9" font-family="Helvetica,sans-Serif" font-size="12.00">database/Database.h</text>
</a>
</g>
</g>
<!-- Node2&#45;&gt;Node3 -->
<g id="edge3" class="edge"><title>Node2&#45;&gt;Node3</title>
<path fill="none" stroke="midnightblue" d="M738.934,-441.803C692.038,-438.936 626.797,-428.637 580,-396 509.401,-346.764 543.994,-286.038 477,-232 457.196,-216.026 431.366,-205.329 408.175,-198.306"/>
<polygon fill="midnightblue" stroke="midnightblue" points="409,-194.902 398.423,-195.516 407.075,-201.632 409,-194.902"/>
</g>
<!-- Node14 -->
<g id="node15" class="node"><title>Node14</title>
<g id="a_node15"><a xlink:href="_sys_ex_8h.html" target="_top" xlink:title="sysex/src/SysEx.h">
<polygon fill="white" stroke="black" points="898,-368 898,-389 1008,-389 1008,-368 898,-368"/>
<text text-anchor="middle" x="953" y="-375.4" font-family="Helvetica,sans-Serif" font-size="12.00">sysex/src/SysEx.h</text>
</a>
</g>
</g>
<!-- Node2&#45;&gt;Node14 -->
<g id="edge14" class="edge"><title>Node2&#45;&gt;Node14</title>
<path fill="none" stroke="midnightblue" d="M816.843,-432.371C841.135,-421.743 883.53,-404.568 914.657,-392.692"/>
<polygon fill="midnightblue" stroke="midnightblue" points="916.213,-395.846 924.33,-389.037 913.738,-389.298 916.213,-395.846"/>
</g>
<!-- Node17 -->
<g id="node18" class="node"><title>Node17</title>
<g id="a_node18"><a xlink:href="_version_8h.html" target="_top" xlink:title="versioning/src/avr\l/Version.h">
<polygon fill="white" stroke="black" points="1026.5,-361.5 1026.5,-395.5 1133.5,-395.5 1133.5,-361.5 1026.5,-361.5"/>
<text text-anchor="start" x="1034.5" y="-381.9" font-family="Helvetica,sans-Serif" font-size="12.00">versioning/src/avr</text>
<text text-anchor="middle" x="1080" y="-368.9" font-family="Helvetica,sans-Serif" font-size="12.00">/Version.h</text>
</a>
</g>
</g>
<!-- Node2&#45;&gt;Node17 -->
<g id="edge19" class="edge"><title>Node2&#45;&gt;Node17</title>
<path fill="none" stroke="midnightblue" d="M846.862,-432.452C889.173,-424.022 952.238,-411.074 1016.52,-396.051"/>
<polygon fill="midnightblue" stroke="midnightblue" points="1017.5,-399.418 1026.43,-393.722 1015.89,-392.604 1017.5,-399.418"/>
</g>
<!-- Node19 -->
<g id="node20" class="node"><title>Node19</title>
<g id="a_node20"><a xlink:href="_interface_8h.html" target="_top" xlink:title="interface/Interface.h">
<polygon fill="white" stroke="black" points="383,-368 383,-389 501,-389 501,-368 383,-368"/>
<text text-anchor="middle" x="442" y="-375.4" font-family="Helvetica,sans-Serif" font-size="12.00">interface/Interface.h</text>
</a>
</g>
</g>
<!-- Node2&#45;&gt;Node19 -->
<g id="edge21" class="edge"><title>Node2&#45;&gt;Node19</title>
<path fill="none" stroke="midnightblue" d="M738.732,-433.445C681.344,-424.907 591.962,-410.938 515,-396 507.55,-394.554 499.7,-392.909 492.02,-391.231"/>
<polygon fill="midnightblue" stroke="midnightblue" points="492.59,-387.772 482.069,-389.02 491.072,-394.606 492.59,-387.772"/>
</g>
<!-- Node31 -->
<g id="node32" class="node"><title>Node31</title>
<g id="a_node32"><a xlink:href="midi_2src_2_m_i_d_i_8h.html" target="_top" xlink:title="midi/src/MIDI.h">
<polygon fill="white" stroke="black" points="589.5,-368 589.5,-389 682.5,-389 682.5,-368 589.5,-368"/>
<text text-anchor="middle" x="636" y="-375.4" font-family="Helvetica,sans-Serif" font-size="12.00">midi/src/MIDI.h</text>
</a>
</g>
</g>
<!-- Node2&#45;&gt;Node31 -->
<g id="edge42" class="edge"><title>Node2&#45;&gt;Node31</title>
<path fill="none" stroke="midnightblue" d="M773.043,-432.371C745.493,-421.743 700.977,-404.568 670.193,-392.692"/>
<polygon fill="midnightblue" stroke="midnightblue" points="671.31,-389.371 660.72,-389.037 668.79,-395.902 671.31,-389.371"/>
</g>
<!-- Node4 -->
<g id="node5" class="node"><title>Node4</title>
<g id="a_node5"><a xlink:href="_d_b_m_s_8h.html" target="_top" xlink:title="../dbms/src/DBMS.h">
<polygon fill="white" stroke="black" points="55.5,-116.5 55.5,-137.5 176.5,-137.5 176.5,-116.5 55.5,-116.5"/>
<text text-anchor="middle" x="116" y="-123.9" font-family="Helvetica,sans-Serif" font-size="12.00">../dbms/src/DBMS.h</text>
</a>
</g>
</g>
<!-- Node3&#45;&gt;Node4 -->
<g id="edge4" class="edge"><title>Node3&#45;&gt;Node4</title>
<path fill="none" stroke="midnightblue" d="M310.04,-174.437C270.161,-164.893 208.786,-150.205 165.767,-139.91"/>
<polygon fill="midnightblue" stroke="midnightblue" points="166.335,-136.447 155.795,-137.524 164.706,-143.255 166.335,-136.447"/>
</g>
<!-- Node7 -->
<g id="node8" class="node"><title>Node7</title>
<g id="a_node8"><a xlink:href="database_2blocks_2_blocks_8h.html" target="_top" xlink:title="blocks/Blocks.h">
<polygon fill="white" stroke="black" points="301,-116.5 301,-137.5 399,-137.5 399,-116.5 301,-116.5"/>
<text text-anchor="middle" x="350" y="-123.9" font-family="Helvetica,sans-Serif" font-size="12.00">blocks/Blocks.h</text>
</a>
</g>
</g>
<!-- Node3&#45;&gt;Node7 -->
<g id="edge7" class="edge"><title>Node3&#45;&gt;Node7</title>
<path fill="none" stroke="midnightblue" d="M350,-174.246C350,-166.938 350,-156.694 350,-147.705"/>
<polygon fill="midnightblue" stroke="midnightblue" points="353.5,-147.643 350,-137.643 346.5,-147.643 353.5,-147.643"/>
</g>
<!-- Node5 -->
<g id="node6" class="node"><title>Node5</title>
<g id="a_node6"><a xlink:href="dbms_2src_2_data_types_8h.html" target="_top" xlink:title="DataTypes.h">
<polygon fill="white" stroke="black" points="4.5,-58.5 4.5,-79.5 87.5,-79.5 87.5,-58.5 4.5,-58.5"/>
<text text-anchor="middle" x="46" y="-65.9" font-family="Helvetica,sans-Serif" font-size="12.00">DataTypes.h</text>
</a>
</g>
</g>
<!-- Node4&#45;&gt;Node5 -->
<g id="edge5" class="edge"><title>Node4&#45;&gt;Node5</title>
<path fill="none" stroke="midnightblue" d="M103.807,-116.246C93.3679,-107.894 78.1345,-95.7076 65.926,-85.9408"/>
<polygon fill="midnightblue" stroke="midnightblue" points="68.0485,-83.1566 58.0533,-79.6427 63.6756,-88.6227 68.0485,-83.1566"/>
</g>
<!-- Node6 -->
<g id="node7" class="node"><title>Node6</title>
<polygon fill="white" stroke="#bfbfbf" points="537.5,-0.5 537.5,-21.5 602.5,-21.5 602.5,-0.5 537.5,-0.5"/>
<text text-anchor="middle" x="570" y="-7.9" font-family="Helvetica,sans-Serif" font-size="12.00">inttypes.h</text>
</g>
<!-- Node5&#45;&gt;Node6 -->
<g id="edge6" class="edge"><title>Node5&#45;&gt;Node6</title>
<path fill="none" stroke="midnightblue" d="M87.687,-59.3363C90.495,-58.8535 93.2854,-58.4021 96,-58 254.235,-34.5592 444.032,-20.2756 527.304,-14.6967"/>
<polygon fill="midnightblue" stroke="midnightblue" points="527.646,-18.1818 537.393,-14.0286 527.183,-11.1971 527.646,-18.1818"/>
</g>
<!-- Node8 -->
<g id="node9" class="node"><title>Node8</title>
<g id="a_node9"><a xlink:href="database_2blocks_2_m_i_d_i_8h.html" target="_top" xlink:title="MIDI.h">
<polygon fill="white" stroke="black" points="492.5,-58.5 492.5,-79.5 541.5,-79.5 541.5,-58.5 492.5,-58.5"/>
<text text-anchor="middle" x="517" y="-65.9" font-family="Helvetica,sans-Serif" font-size="12.00">MIDI.h</text>
</a>
</g>
</g>
<!-- Node7&#45;&gt;Node8 -->
<g id="edge8" class="edge"><title>Node7&#45;&gt;Node8</title>
<path fill="none" stroke="midnightblue" d="M378.708,-116.373C407.531,-106.708 451.947,-91.8142 482.629,-81.5256"/>
<polygon fill="midnightblue" stroke="midnightblue" points="484.097,-84.725 492.465,-78.2273 481.871,-78.0882 484.097,-84.725"/>
</g>
<!-- Node9 -->
<g id="node10" class="node"><title>Node9</title>
<g id="a_node10"><a xlink:href="database_2blocks_2_buttons_8h.html" target="_top" xlink:title="Buttons.h">
<polygon fill="white" stroke="black" points="105.5,-58.5 105.5,-79.5 170.5,-79.5 170.5,-58.5 105.5,-58.5"/>
<text text-anchor="middle" x="138" y="-65.9" font-family="Helvetica,sans-Serif" font-size="12.00">Buttons.h</text>
</a>
</g>
</g>
<!-- Node7&#45;&gt;Node9 -->
<g id="edge9" class="edge"><title>Node7&#45;&gt;Node9</title>
<path fill="none" stroke="midnightblue" d="M313.556,-116.373C276.715,-106.642 219.804,-91.6087 180.83,-81.3137"/>
<polygon fill="midnightblue" stroke="midnightblue" points="181.401,-77.8445 170.839,-78.6744 179.613,-84.6123 181.401,-77.8445"/>
</g>
<!-- Node10 -->
<g id="node11" class="node"><title>Node10</title>
<g id="a_node11"><a xlink:href="database_2blocks_2_encoders_8h.html" target="_top" xlink:title="Encoders.h">
<polygon fill="white" stroke="black" points="189,-58.5 189,-79.5 265,-79.5 265,-58.5 189,-58.5"/>
<text text-anchor="middle" x="227" y="-65.9" font-family="Helvetica,sans-Serif" font-size="12.00">Encoders.h</text>
</a>
</g>
</g>
<!-- Node7&#45;&gt;Node10 -->
<g id="edge10" class="edge"><title>Node7&#45;&gt;Node10</title>
<path fill="none" stroke="midnightblue" d="M328.856,-116.373C309.111,-107.384 279.43,-93.8706 257.195,-83.7471"/>
<polygon fill="midnightblue" stroke="midnightblue" points="258.42,-80.4594 247.869,-79.5011 255.519,-86.8302 258.42,-80.4594"/>
</g>
<!-- Node11 -->
<g id="node12" class="node"><title>Node11</title>
<g id="a_node12"><a xlink:href="database_2blocks_2_analog_8h.html" target="_top" xlink:title="Analog.h">
<polygon fill="white" stroke="black" points="283,-58.5 283,-79.5 345,-79.5 345,-58.5 283,-58.5"/>
<text text-anchor="middle" x="314" y="-65.9" font-family="Helvetica,sans-Serif" font-size="12.00">Analog.h</text>
</a>
</g>
</g>
<!-- Node7&#45;&gt;Node11 -->
<g id="edge11" class="edge"><title>Node7&#45;&gt;Node11</title>
<path fill="none" stroke="midnightblue" d="M343.729,-116.246C338.774,-108.537 331.717,-97.5598 325.722,-88.2348"/>
<polygon fill="midnightblue" stroke="midnightblue" points="328.551,-86.1618 320.199,-79.6427 322.662,-89.9471 328.551,-86.1618"/>
</g>
<!-- Node12 -->
<g id="node13" class="node"><title>Node12</title>
<g id="a_node13"><a xlink:href="database_2blocks_2_l_e_ds_8h.html" target="_top" xlink:title="LEDs.h">
<polygon fill="white" stroke="black" points="363,-58.5 363,-79.5 419,-79.5 419,-58.5 363,-58.5"/>
<text text-anchor="middle" x="391" y="-65.9" font-family="Helvetica,sans-Serif" font-size="12.00">LEDs.h</text>
</a>
</g>
</g>
<!-- Node7&#45;&gt;Node12 -->
<g id="edge12" class="edge"><title>Node7&#45;&gt;Node12</title>
<path fill="none" stroke="midnightblue" d="M357.142,-116.246C362.844,-108.456 370.99,-97.3308 377.862,-87.9439"/>
<polygon fill="midnightblue" stroke="midnightblue" points="380.857,-89.7789 383.94,-79.6427 375.209,-85.6437 380.857,-89.7789"/>
</g>
<!-- Node13 -->
<g id="node14" class="node"><title>Node13</title>
<g id="a_node14"><a xlink:href="database_2blocks_2_i_d_8h.html" target="_top" xlink:title="ID.h">
<polygon fill="white" stroke="black" points="437.5,-58.5 437.5,-79.5 474.5,-79.5 474.5,-58.5 437.5,-58.5"/>
<text text-anchor="middle" x="456" y="-65.9" font-family="Helvetica,sans-Serif" font-size="12.00">ID.h</text>
</a>
</g>
</g>
<!-- Node7&#45;&gt;Node13 -->
<g id="edge13" class="edge"><title>Node7&#45;&gt;Node13</title>
<path fill="none" stroke="midnightblue" d="M368.464,-116.246C385.107,-107.453 409.799,-94.4079 428.719,-84.4125"/>
<polygon fill="midnightblue" stroke="midnightblue" points="430.541,-87.4086 437.748,-79.6427 427.271,-81.2193 430.541,-87.4086"/>
</g>
<!-- Node14&#45;&gt;Node2 -->
<g id="edge16" class="edge"><title>Node14&#45;&gt;Node2</title>
<path fill="none" stroke="midnightblue" d="M934.366,-389.037C910.179,-399.628 867.804,-416.799 836.612,-428.705"/>
<polygon fill="midnightblue" stroke="midnightblue" points="835.031,-425.561 826.915,-432.371 837.507,-432.109 835.031,-425.561"/>
</g>
<!-- Node15 -->
<g id="node16" class="node"><title>Node15</title>
<g id="a_node16"><a xlink:href="sysex_2src_2_config_8h.html" target="_top" xlink:title="Config.h">
<polygon fill="white" stroke="black" points="914,-232.5 914,-253.5 974,-253.5 974,-232.5 914,-232.5"/>
<text text-anchor="middle" x="944" y="-239.9" font-family="Helvetica,sans-Serif" font-size="12.00">Config.h</text>
</a>
</g>
</g>
<!-- Node14&#45;&gt;Node15 -->
<g id="edge15" class="edge"><title>Node14&#45;&gt;Node15</title>
<path fill="none" stroke="midnightblue" d="M947.066,-367.88C941.147,-357.674 932.454,-340.864 929,-325 925.691,-309.801 926.558,-305.363 929,-290 930.43,-281.002 933.341,-271.37 936.222,-263.258"/>
<polygon fill="midnightblue" stroke="midnightblue" points="939.592,-264.241 939.863,-253.649 933.046,-261.76 939.592,-264.241"/>
</g>
<!-- Node16 -->
<g id="node17" class="node"><title>Node16</title>
<g id="a_node17"><a xlink:href="sysex_2src_2_data_types_8h.html" target="_top" xlink:title="DataTypes.h">
<polygon fill="white" stroke="black" points="937.5,-297 937.5,-318 1020.5,-318 1020.5,-297 937.5,-297"/>
<text text-anchor="middle" x="979" y="-304.4" font-family="Helvetica,sans-Serif" font-size="12.00">DataTypes.h</text>
</a>
</g>
</g>
<!-- Node14&#45;&gt;Node16 -->
<g id="edge17" class="edge"><title>Node14&#45;&gt;Node16</title>
<path fill="none" stroke="midnightblue" d="M956.615,-367.906C960.535,-357.504 966.892,-340.634 971.831,-327.525"/>
<polygon fill="midnightblue" stroke="midnightblue" points="975.165,-328.605 975.416,-318.013 968.614,-326.136 975.165,-328.605"/>
</g>
<!-- Node16&#45;&gt;Node15 -->
<g id="edge18" class="edge"><title>Node16&#45;&gt;Node15</title>
<path fill="none" stroke="midnightblue" d="M973.531,-296.734C968.475,-287.706 960.823,-274.041 954.575,-262.883"/>
<polygon fill="midnightblue" stroke="midnightblue" points="957.486,-260.918 949.546,-253.903 951.378,-264.339 957.486,-260.918"/>
</g>
<!-- Node18 -->
<g id="node19" class="node"><title>Node18</title>
<g id="a_node19"><a xlink:href="versioning_2src_2avr_2_data_types_8h.html" target="_top" xlink:title="DataTypes.h">
<polygon fill="white" stroke="black" points="1038.5,-297 1038.5,-318 1121.5,-318 1121.5,-297 1038.5,-297"/>
<text text-anchor="middle" x="1080" y="-304.4" font-family="Helvetica,sans-Serif" font-size="12.00">DataTypes.h</text>
</a>
</g>
</g>
<!-- Node17&#45;&gt;Node18 -->
<g id="edge20" class="edge"><title>Node17&#45;&gt;Node18</title>
<path fill="none" stroke="midnightblue" d="M1080,-361.497C1080,-351.673 1080,-339.009 1080,-328.524"/>
<polygon fill="midnightblue" stroke="midnightblue" points="1083.5,-328.24 1080,-318.24 1076.5,-328.24 1083.5,-328.24"/>
</g>
<!-- Node20 -->
<g id="node21" class="node"><title>Node20</title>
<g id="a_node21"><a xlink:href="interface_2analog_2_analog_8h.html" target="_top" xlink:title="analog/Analog.h">
<polygon fill="white" stroke="black" points="231.5,-297 231.5,-318 332.5,-318 332.5,-297 231.5,-297"/>
<text text-anchor="middle" x="282" y="-304.4" font-family="Helvetica,sans-Serif" font-size="12.00">analog/Analog.h</text>
</a>
</g>
</g>
<!-- Node19&#45;&gt;Node20 -->
<g id="edge22" class="edge"><title>Node19&#45;&gt;Node20</title>
<path fill="none" stroke="midnightblue" d="M419.753,-367.906C392.169,-356.011 344.973,-335.657 313.632,-322.141"/>
<polygon fill="midnightblue" stroke="midnightblue" points="314.627,-318.759 304.058,-318.013 311.855,-325.187 314.627,-318.759"/>
</g>
<!-- Node25 -->
<g id="node26" class="node"><title>Node25</title>
<g id="a_node26"><a xlink:href="_digital_input_8h.html" target="_top" xlink:title="digital/input/DigitalInput.h">
<polygon fill="white" stroke="black" points="697,-297 697,-318 843,-318 843,-297 697,-297"/>
<text text-anchor="middle" x="770" y="-304.4" font-family="Helvetica,sans-Serif" font-size="12.00">digital/input/DigitalInput.h</text>
</a>
</g>
</g>
<!-- Node19&#45;&gt;Node25 -->
<g id="edge31" class="edge"><title>Node19&#45;&gt;Node25</title>
<path fill="none" stroke="midnightblue" d="M487.263,-367.978C546.649,-355.485 650.807,-333.574 714.768,-320.119"/>
<polygon fill="midnightblue" stroke="midnightblue" points="715.61,-323.518 724.676,-318.035 714.169,-316.668 715.61,-323.518"/>
</g>
<!-- Node28 -->
<g id="node29" class="node"><title>Node28</title>
<g id="a_node29"><a xlink:href="interface_2digital_2output_2leds_2_l_e_ds_8h.html" target="_top" xlink:title="digital/output/leds\l/LEDs.h">
<polygon fill="white" stroke="black" points="379.5,-290.5 379.5,-324.5 486.5,-324.5 486.5,-290.5 379.5,-290.5"/>
<text text-anchor="start" x="387.5" y="-310.9" font-family="Helvetica,sans-Serif" font-size="12.00">digital/output/leds</text>
<text text-anchor="middle" x="433" y="-297.9" font-family="Helvetica,sans-Serif" font-size="12.00">/LEDs.h</text>
</a>
</g>
</g>
<!-- Node19&#45;&gt;Node28 -->
<g id="edge36" class="edge"><title>Node19&#45;&gt;Node28</title>
<path fill="none" stroke="midnightblue" d="M440.749,-367.906C439.632,-359.344 437.943,-346.4 436.427,-334.777"/>
<polygon fill="midnightblue" stroke="midnightblue" points="439.869,-334.103 435.105,-324.639 432.928,-335.008 439.869,-334.103"/>
</g>
<!-- Node20&#45;&gt;Node0 -->
<g id="edge24" class="edge"><title>Node20&#45;&gt;Node0</title>
<path fill="none" stroke="midnightblue" d="M285.504,-318.209C292.147,-335.544 307.995,-372.229 331,-396 369.829,-436.121 426.218,-467.247 466.121,-486.095"/>
<polygon fill="midnightblue" stroke="midnightblue" points="464.837,-489.358 475.382,-490.39 467.782,-483.008 464.837,-489.358"/>
</g>
<!-- Node20&#45;&gt;Node2 -->
<g id="edge30" class="edge"><title>Node20&#45;&gt;Node2</title>
<path fill="none" stroke="midnightblue" d="M290.693,-318.21C309.547,-339.018 354.103,-386.773 374,-396 435.351,-424.449 625.026,-435.72 728.659,-439.842"/>
<polygon fill="midnightblue" stroke="midnightblue" points="728.59,-443.342 738.718,-440.23 728.86,-436.347 728.59,-443.342"/>
</g>
<!-- Node20&#45;&gt;Node3 -->
<g id="edge25" class="edge"><title>Node20&#45;&gt;Node3</title>
<path fill="none" stroke="midnightblue" d="M272.747,-296.775C259.851,-281.997 239.497,-253.348 253,-232 262.786,-216.528 279.342,-206.158 296.033,-199.251"/>
<polygon fill="midnightblue" stroke="midnightblue" points="297.695,-202.365 305.825,-195.572 295.233,-195.812 297.695,-202.365"/>
</g>
<!-- Node21 -->
<g id="node22" class="node"><title>Node21</title>
<g id="a_node22"><a xlink:href="_board_8h.html" target="_top" xlink:title="../../board/Board.h">
<polygon fill="white" stroke="black" points="262,-232.5 262,-253.5 372,-253.5 372,-232.5 262,-232.5"/>
<text text-anchor="middle" x="317" y="-239.9" font-family="Helvetica,sans-Serif" font-size="12.00">../../board/Board.h</text>
</a>
</g>
</g>
<!-- Node20&#45;&gt;Node21 -->
<g id="edge23" class="edge"><title>Node20&#45;&gt;Node21</title>
<path fill="none" stroke="midnightblue" d="M287.469,-296.734C292.525,-287.706 300.177,-274.041 306.425,-262.883"/>
<polygon fill="midnightblue" stroke="midnightblue" points="309.622,-264.339 311.454,-253.903 303.514,-260.918 309.622,-264.339"/>
</g>
<!-- Node22 -->
<g id="node23" class="node"><title>Node22</title>
<g id="a_node23"><a xlink:href="interface_2analog_2_data_types_8h.html" target="_top" xlink:title="DataTypes.h">
<polygon fill="white" stroke="black" points="122.5,-232.5 122.5,-253.5 205.5,-253.5 205.5,-232.5 122.5,-232.5"/>
<text text-anchor="middle" x="164" y="-239.9" font-family="Helvetica,sans-Serif" font-size="12.00">DataTypes.h</text>
</a>
</g>
</g>
<!-- Node20&#45;&gt;Node22 -->
<g id="edge26" class="edge"><title>Node20&#45;&gt;Node22</title>
<path fill="none" stroke="midnightblue" d="M263.821,-296.871C244.362,-286.565 213.283,-270.103 190.972,-258.286"/>
<polygon fill="midnightblue" stroke="midnightblue" points="192.481,-255.125 182.006,-253.537 189.205,-261.311 192.481,-255.125"/>
</g>
<!-- Node23 -->
<g id="node24" class="node"><title>Node23</title>
<g id="a_node24"><a xlink:href="interface_2analog_2_config_8h.html" target="_top" xlink:title="Config.h">
<polygon fill="white" stroke="black" points="34,-174.5 34,-195.5 94,-195.5 94,-174.5 34,-174.5"/>
<text text-anchor="middle" x="64" y="-181.9" font-family="Helvetica,sans-Serif" font-size="12.00">Config.h</text>
</a>
</g>
</g>
<!-- Node20&#45;&gt;Node23 -->
<g id="edge27" class="edge"><title>Node20&#45;&gt;Node23</title>
<path fill="none" stroke="midnightblue" d="M231.234,-299.481C195.52,-292.566 148.037,-279.214 113,-254 95.3668,-241.31 81.6352,-220.294 73.2517,-204.979"/>
<polygon fill="midnightblue" stroke="midnightblue" points="76.2427,-203.144 68.5275,-195.883 70.0306,-206.371 76.2427,-203.144"/>
</g>
<!-- Node24 -->
<g id="node25" class="node"><title>Node24</title>
<g id="a_node25"><a xlink:href="interface_2analog_2_helpers_8h.html" target="_top" xlink:title="Helpers.h">
<polygon fill="white" stroke="black" points="0,-232.5 0,-253.5 66,-253.5 66,-232.5 0,-232.5"/>
<text text-anchor="middle" x="33" y="-239.9" font-family="Helvetica,sans-Serif" font-size="12.00">Helpers.h</text>
</a>
</g>
</g>
<!-- Node20&#45;&gt;Node24 -->
<g id="edge28" class="edge"><title>Node20&#45;&gt;Node24</title>
<path fill="none" stroke="midnightblue" d="M243.911,-296.94C198.727,-285.598 123.579,-266.736 76.2475,-254.855"/>
<polygon fill="midnightblue" stroke="midnightblue" points="76.8519,-251.399 66.3007,-252.359 75.1477,-258.188 76.8519,-251.399"/>
</g>
<!-- Node24&#45;&gt;Node23 -->
<g id="edge29" class="edge"><title>Node24&#45;&gt;Node23</title>
<path fill="none" stroke="midnightblue" d="M38.3998,-232.246C42.6227,-224.617 48.6173,-213.788 53.7441,-204.527"/>
<polygon fill="midnightblue" stroke="midnightblue" points="56.881,-206.087 58.6621,-195.643 50.7568,-202.696 56.881,-206.087"/>
</g>
<!-- Node25&#45;&gt;Node0 -->
<g id="edge32" class="edge"><title>Node25&#45;&gt;Node0</title>
<path fill="none" stroke="midnightblue" d="M762.692,-318.239C749.582,-335.306 720.654,-371.162 691,-396 647.861,-432.133 591.906,-465.1 554.57,-485.44"/>
<polygon fill="midnightblue" stroke="midnightblue" points="552.638,-482.506 545.498,-490.334 555.961,-488.667 552.638,-482.506"/>
</g>
<!-- Node26 -->
<g id="node27" class="node"><title>Node26</title>
<g id="a_node27"><a xlink:href="interface_2digital_2input_2encoders_2_encoders_8h.html" target="_top" xlink:title="encoders/Encoders.h">
<polygon fill="white" stroke="black" points="713,-232.5 713,-253.5 841,-253.5 841,-232.5 713,-232.5"/>
<text text-anchor="middle" x="777" y="-239.9" font-family="Helvetica,sans-Serif" font-size="12.00">encoders/Encoders.h</text>
</a>
</g>
</g>
<!-- Node25&#45;&gt;Node26 -->
<g id="edge33" class="edge"><title>Node25&#45;&gt;Node26</title>
<path fill="none" stroke="midnightblue" d="M771.094,-296.734C772.074,-287.98 773.543,-274.865 774.771,-263.904"/>
<polygon fill="midnightblue" stroke="midnightblue" points="778.256,-264.231 775.891,-253.903 771.299,-263.452 778.256,-264.231"/>
</g>
<!-- Node26&#45;&gt;Node2 -->
<g id="edge35" class="edge"><title>Node26&#45;&gt;Node2</title>
<path fill="none" stroke="midnightblue" d="M805.811,-253.539C822.519,-260.726 842.151,-272.406 852,-290 877.522,-335.594 837.157,-395.47 813.388,-424.589"/>
<polygon fill="midnightblue" stroke="midnightblue" points="810.683,-422.368 806.914,-432.27 816.035,-426.88 810.683,-422.368"/>
</g>
<!-- Node27 -->
<g id="node28" class="node"><title>Node27</title>
<g id="a_node28"><a xlink:href="interface_2digital_2input_2encoders_2_data_types_8h.html" target="_top" xlink:title="DataTypes.h">
<polygon fill="white" stroke="black" points="735.5,-174.5 735.5,-195.5 818.5,-195.5 818.5,-174.5 735.5,-174.5"/>
<text text-anchor="middle" x="777" y="-181.9" font-family="Helvetica,sans-Serif" font-size="12.00">DataTypes.h</text>
</a>
</g>
</g>
<!-- Node26&#45;&gt;Node27 -->
<g id="edge34" class="edge"><title>Node26&#45;&gt;Node27</title>
<path fill="none" stroke="midnightblue" d="M777,-232.246C777,-224.938 777,-214.694 777,-205.705"/>
<polygon fill="midnightblue" stroke="midnightblue" points="780.5,-205.643 777,-195.643 773.5,-205.643 780.5,-205.643"/>
</g>
<!-- Node28&#45;&gt;Node21 -->
<g id="edge41" class="edge"><title>Node28&#45;&gt;Node21</title>
<path fill="none" stroke="midnightblue" d="M403.127,-290.405C384.889,-280.578 361.755,-268.114 344.057,-258.578"/>
<polygon fill="midnightblue" stroke="midnightblue" points="345.313,-255.279 334.849,-253.617 341.992,-261.441 345.313,-255.279"/>
</g>
<!-- Node29 -->
<g id="node30" class="node"><title>Node29</title>
<g id="a_node30"><a xlink:href="interface_2digital_2output_2leds_2_data_types_8h.html" target="_top" xlink:title="DataTypes.h">
<polygon fill="white" stroke="black" points="475.5,-116.5 475.5,-137.5 558.5,-137.5 558.5,-116.5 475.5,-116.5"/>
<text text-anchor="middle" x="517" y="-123.9" font-family="Helvetica,sans-Serif" font-size="12.00">DataTypes.h</text>
</a>
</g>
</g>
<!-- Node28&#45;&gt;Node29 -->
<g id="edge37" class="edge"><title>Node28&#45;&gt;Node29</title>
<path fill="none" stroke="midnightblue" d="M449.502,-290.256C458.669,-280.466 469.669,-267.341 477,-254 496.256,-218.958 507.829,-173.256 513.257,-147.632"/>
<polygon fill="midnightblue" stroke="midnightblue" points="516.719,-148.17 515.269,-137.675 509.858,-146.784 516.719,-148.17"/>
</g>
<!-- Node30 -->
<g id="node31" class="node"><title>Node30</title>
<g id="a_node31"><a xlink:href="interface_2digital_2output_2leds_2_constants_8h.html" target="_top" xlink:title="Constants.h">
<polygon fill="white" stroke="black" points="390,-232.5 390,-253.5 468,-253.5 468,-232.5 390,-232.5"/>
<text text-anchor="middle" x="429" y="-239.9" font-family="Helvetica,sans-Serif" font-size="12.00">Constants.h</text>
</a>
</g>
</g>
<!-- Node28&#45;&gt;Node30 -->
<g id="edge39" class="edge"><title>Node28&#45;&gt;Node30</title>
<path fill="none" stroke="midnightblue" d="M431.97,-290.405C431.455,-282.357 430.827,-272.541 430.281,-264.012"/>
<polygon fill="midnightblue" stroke="midnightblue" points="433.759,-263.556 429.627,-253.8 426.773,-264.003 433.759,-263.556"/>
</g>
<!-- Node29&#45;&gt;Node6 -->
<g id="edge38" class="edge"><title>Node29&#45;&gt;Node6</title>
<path fill="none" stroke="midnightblue" d="M525.379,-116.389C532.766,-107.485 543.359,-93.6016 550,-80 557.583,-64.4686 562.865,-45.5109 566.089,-31.5616"/>
<polygon fill="midnightblue" stroke="midnightblue" points="569.548,-32.123 568.238,-21.6095 562.706,-30.6456 569.548,-32.123"/>
</g>
<!-- Node30&#45;&gt;Node3 -->
<g id="edge40" class="edge"><title>Node30&#45;&gt;Node3</title>
<path fill="none" stroke="midnightblue" d="M415.239,-232.246C403.345,-223.814 385.935,-211.473 372.091,-201.66"/>
<polygon fill="midnightblue" stroke="midnightblue" points="373.785,-198.57 363.603,-195.643 369.737,-204.281 373.785,-198.57"/>
</g>
<!-- Node32 -->
<g id="node33" class="node"><title>Node32</title>
<g id="a_node33"><a xlink:href="midi_2src_2_data_types_8h.html" target="_top" xlink:title="DataTypes.h">
<polygon fill="white" stroke="black" points="557.5,-297 557.5,-318 640.5,-318 640.5,-297 557.5,-297"/>
<text text-anchor="middle" x="599" y="-304.4" font-family="Helvetica,sans-Serif" font-size="12.00">DataTypes.h</text>
</a>
</g>
</g>
<!-- Node31&#45;&gt;Node32 -->
<g id="edge43" class="edge"><title>Node31&#45;&gt;Node32</title>
<path fill="none" stroke="midnightblue" d="M630.855,-367.906C625.222,-357.401 616.052,-340.299 608.993,-327.136"/>
<polygon fill="midnightblue" stroke="midnightblue" points="611.911,-325.172 604.101,-318.013 605.742,-328.48 611.911,-325.172"/>
</g>
<!-- Node33 -->
<g id="node34" class="node"><title>Node33</title>
<g id="a_node34"><a xlink:href="midi_2src_2_helpers_8h.html" target="_top" xlink:title="Helpers.h">
<polygon fill="white" stroke="black" points="610,-232.5 610,-253.5 676,-253.5 676,-232.5 610,-232.5"/>
<text text-anchor="middle" x="643" y="-239.9" font-family="Helvetica,sans-Serif" font-size="12.00">Helpers.h</text>
</a>
</g>
</g>
<!-- Node31&#45;&gt;Node33 -->
<g id="edge47" class="edge"><title>Node31&#45;&gt;Node33</title>
<path fill="none" stroke="midnightblue" d="M639.108,-367.955C642.325,-357.533 647.136,-340.286 649,-325 650.883,-309.559 650.008,-305.523 649,-290 648.44,-281.381 647.296,-271.91 646.156,-263.813"/>
<polygon fill="midnightblue" stroke="midnightblue" points="649.604,-263.204 644.659,-253.834 642.681,-264.243 649.604,-263.204"/>
</g>
<!-- Node32&#45;&gt;Node33 -->
<g id="edge44" class="edge"><title>Node32&#45;&gt;Node33</title>
<path fill="none" stroke="midnightblue" d="M605.875,-296.734C612.359,-287.524 622.241,-273.487 630.18,-262.21"/>
<polygon fill="midnightblue" stroke="midnightblue" points="633.133,-264.095 636.028,-253.903 627.41,-260.065 633.133,-264.095"/>
</g>
<!-- Node33&#45;&gt;Node6 -->
<g id="edge46" class="edge"><title>Node33&#45;&gt;Node6</title>
<path fill="none" stroke="midnightblue" d="M639.469,-232.163C636.159,-222.871 631.119,-208.531 627,-196 607.391,-136.345 585.882,-65.2091 575.81,-31.5296"/>
<polygon fill="midnightblue" stroke="midnightblue" points="579.064,-30.1965 572.851,-21.6145 572.356,-32.1978 579.064,-30.1965"/>
</g>
<!-- Node34 -->
<g id="node35" class="node"><title>Node34</title>
<polygon fill="white" stroke="#bfbfbf" points="636,-174.5 636,-195.5 694,-195.5 694,-174.5 636,-174.5"/>
<text text-anchor="middle" x="665" y="-181.9" font-family="Helvetica,sans-Serif" font-size="12.00">stddef.h</text>
</g>
<!-- Node33&#45;&gt;Node34 -->
<g id="edge45" class="edge"><title>Node33&#45;&gt;Node34</title>
<path fill="none" stroke="midnightblue" d="M646.832,-232.246C649.766,-224.778 653.905,-214.243 657.491,-205.114"/>
<polygon fill="midnightblue" stroke="midnightblue" points="660.813,-206.23 661.212,-195.643 654.298,-203.67 660.813,-206.23"/>
</g>
</g>
</svg>
