<?xml version="1.0" encoding="UTF-8" standalone="no"?>
<!DOCTYPE svg PUBLIC "-//W3C//DTD SVG 1.1//EN"
 "http://www.w3.org/Graphics/SVG/1.1/DTD/svg11.dtd">
<!-- Generated by graphviz version 2.38.0 (20140413.2041)
 -->
<!-- Title: interface/buttons/Buttons.h Pages: 1 -->
<!--zoomable 346 -->
<svg id="main" version="1.1" xmlns="http://www.w3.org/2000/svg" xmlns:xlink="http://www.w3.org/1999/xlink" xml:space="preserve" onload="init(evt)">
<style type="text/css"><![CDATA[
.edge:hover path { stroke: red; }
.edge:hover polygon { stroke: red; fill: red; }
]]></style>
<script type="text/javascript"><![CDATA[
var edges = document.getElementsByTagName('g');
if (edges && edges.length) {
  for (var i=0;i<edges.length;i++) {
    if (edges[i].id.substr(0,4)=='edge') {
      edges[i].setAttribute('class','edge');
    }
  }
}
]]></script>
        <defs>
                <circle id="rim" cx="0" cy="0" r="7"/>
                <circle id="rim2" cx="0" cy="0" r="3.5"/>
                <g id="zoomPlus">
                        <use xlink:href="#rim" fill="#404040">
                                <set attributeName="fill" to="#808080" begin="zoomplus.mouseover" end="zoomplus.mouseout"/>
                        </use>
                        <path d="M-4,0h8M0,-4v8" fill="none" stroke="white" stroke-width="1.5" pointer-events="none"/>
                </g>
                <g id="zoomMin">
                        <use xlink:href="#rim" fill="#404040">
                                <set attributeName="fill" to="#808080" begin="zoomminus.mouseover" end="zoomminus.mouseout"/>
                        </use>
                        <path d="M-4,0h8" fill="none" stroke="white" stroke-width="1.5" pointer-events="none"/>
                </g>
                <g id="dirArrow">
                        <path fill="none" stroke="white" stroke-width="1.5" d="M0,-3.0v7 M-2.5,-0.5L0,-3.0L2.5,-0.5"/>
                </g>
               <g id="resetDef">
                       <use xlink:href="#rim2" fill="#404040">
                               <set attributeName="fill" to="#808080" begin="reset.mouseover" end="reset.mouseout"/>
                       </use>
               </g>
        </defs>

<script type="text/javascript">
var viewWidth = 913;
var viewHeight = 346;
var sectionId = 'dynsection-1';
</script>
<script xlink:href="svgpan.js"/>
<svg id="graph" class="graph">
<g id="viewport">
<title>interface/buttons/Buttons.h</title>
<polygon fill="white" stroke="none" points="-4,4 -4,-342 909,-342 909,4 -4,4"/>
<!-- Node31 -->
<g id="node1" class="node"><title>Node31</title>
<polygon fill="#bfbfbf" stroke="black" points="506,-316.5 506,-337.5 659,-337.5 659,-316.5 506,-316.5"/>
<text text-anchor="middle" x="582.5" y="-323.9" font-family="Helvetica,sans-Serif" font-size="12.00">interface/buttons/Buttons.h</text>
</g>
<!-- Node32 -->
<g id="node2" class="node"><title>Node32</title>
<g id="a_node2"><a xlink:href="interface_2analog_2_analog_8h.html" target="_top" xlink:title="interface/analog/Analog.h">
<polygon fill="white" stroke="black" points="407,-258.5 407,-279.5 556,-279.5 556,-258.5 407,-258.5"/>
<text text-anchor="middle" x="481.5" y="-265.9" font-family="Helvetica,sans-Serif" font-size="12.00">interface/analog/Analog.h</text>
</a>
</g>
</g>
<!-- Node31&#45;&gt;Node32 -->
<g id="edge1" class="edge"><title>Node31&#45;&gt;Node32</title>
<path fill="none" stroke="midnightblue" d="M556.028,-311.323C537.988,-301.32 514.612,-288.359 498.891,-279.643"/>
<polygon fill="midnightblue" stroke="midnightblue" points="554.464,-314.457 564.907,-316.246 557.859,-308.335 554.464,-314.457"/>
</g>
<!-- Node33 -->
<g id="node3" class="node"><title>Node33</title>
<g id="a_node3"><a xlink:href="_interface_8h.html" target="_top" xlink:title="interface/Interface.h">
<polygon fill="white" stroke="black" points="243.5,-200.5 243.5,-221.5 361.5,-221.5 361.5,-200.5 243.5,-200.5"/>
<text text-anchor="middle" x="302.5" y="-207.9" font-family="Helvetica,sans-Serif" font-size="12.00">interface/Interface.h</text>
</a>
</g>
</g>
<!-- Node31&#45;&gt;Node33 -->
<g id="edge18" class="edge"><title>Node31&#45;&gt;Node33</title>
<path fill="none" stroke="midnightblue" d="M509.567,-314.472C474.613,-307.309 432.78,-296.286 397.5,-280 363.8,-264.443 329.735,-236.38 313.048,-221.64"/>
<polygon fill="midnightblue" stroke="midnightblue" points="509.214,-317.97 519.704,-316.481 510.575,-311.103 509.214,-317.97"/>
</g>
<!-- Node40 -->
<g id="node10" class="node"><title>Node40</title>
<g id="a_node10"><a xlink:href="interface_2buttons_2_buttons_8cpp.html" target="_top" xlink:title="interface/buttons/Buttons.cpp">
<polygon fill="white" stroke="black" points="738,-78 738,-99 905,-99 905,-78 738,-78"/>
<text text-anchor="middle" x="821.5" y="-85.4" font-family="Helvetica,sans-Serif" font-size="12.00">interface/buttons/Buttons.cpp</text>
</a>
</g>
</g>
<!-- Node31&#45;&gt;Node40 -->
<g id="edge19" class="edge"><title>Node31&#45;&gt;Node40</title>
<path fill="none" stroke="midnightblue" d="M602.512,-310.12C613.139,-301.476 626.285,-290.441 637.5,-280 708.176,-214.206 786.715,-128.166 812.658,-99.369"/>
<polygon fill="midnightblue" stroke="midnightblue" points="600.205,-307.484 594.614,-316.483 604.597,-312.935 600.205,-307.484"/>
</g>
<!-- Node32&#45;&gt;Node33 -->
<g id="edge2" class="edge"><title>Node32&#45;&gt;Node33</title>
<path fill="none" stroke="midnightblue" d="M440.98,-255.324C408.153,-245.054 362.622,-230.809 332.87,-221.501"/>
<polygon fill="midnightblue" stroke="midnightblue" points="440.14,-258.728 450.729,-258.373 442.23,-252.047 440.14,-258.728"/>
</g>
<!-- Node38 -->
<g id="node8" class="node"><title>Node38</title>
<g id="a_node8"><a xlink:href="_f_s_r_8cpp.html" target="_top" xlink:title="interface/analog/FSR.cpp">
<polygon fill="white" stroke="black" points="571,-78 571,-99 720,-99 720,-78 571,-78"/>
<text text-anchor="middle" x="645.5" y="-85.4" font-family="Helvetica,sans-Serif" font-size="12.00">interface/analog/FSR.cpp</text>
</a>
</g>
</g>
<!-- Node32&#45;&gt;Node38 -->
<g id="edge16" class="edge"><title>Node32&#45;&gt;Node38</title>
<path fill="none" stroke="midnightblue" d="M565.858,-257.96C588.587,-251.233 611.112,-240.159 626.5,-222 657.15,-185.833 651.017,-123.168 647.26,-99.2031"/>
<polygon fill="midnightblue" stroke="midnightblue" points="564.868,-254.602 556.125,-260.585 566.691,-261.361 564.868,-254.602"/>
</g>
<!-- Node39 -->
<g id="node9" class="node"><title>Node39</title>
<g id="a_node9"><a xlink:href="_potentiometer_8cpp.html" target="_top" xlink:title="interface/analog/Potentiometer.cpp">
<polygon fill="white" stroke="black" points="131,-78 131,-99 330,-99 330,-78 131,-78"/>
<text text-anchor="middle" x="230.5" y="-85.4" font-family="Helvetica,sans-Serif" font-size="12.00">interface/analog/Potentiometer.cpp</text>
</a>
</g>
</g>
<!-- Node32&#45;&gt;Node39 -->
<g id="edge17" class="edge"><title>Node32&#45;&gt;Node39</title>
<path fill="none" stroke="midnightblue" d="M459.737,-252.523C409.238,-216.61 285.264,-128.446 244.062,-99.1444"/>
<polygon fill="midnightblue" stroke="midnightblue" points="457.827,-255.46 468.005,-258.403 461.884,-249.755 457.827,-255.46"/>
</g>
<!-- Node42 -->
<g id="node12" class="node"><title>Node42</title>
<g id="a_node12"><a xlink:href="interface_2analog_2_analog_8cpp.html" target="_top" xlink:title="interface/analog/Analog.cpp">
<polygon fill="white" stroke="black" points="455.5,-200.5 455.5,-221.5 617.5,-221.5 617.5,-200.5 455.5,-200.5"/>
<text text-anchor="middle" x="536.5" y="-207.9" font-family="Helvetica,sans-Serif" font-size="12.00">interface/analog/Analog.cpp</text>
</a>
</g>
</g>
<!-- Node32&#45;&gt;Node42 -->
<g id="edge15" class="edge"><title>Node32&#45;&gt;Node42</title>
<path fill="none" stroke="midnightblue" d="M498.123,-251.075C507.585,-241.44 519.097,-229.72 527.03,-221.643"/>
<polygon fill="midnightblue" stroke="midnightblue" points="495.59,-248.659 491.08,-258.246 500.584,-253.564 495.59,-248.659"/>
</g>
<!-- Node34 -->
<g id="node4" class="node"><title>Node34</title>
<g id="a_node4"><a xlink:href="_open_deck_8h.html" target="_top" xlink:title="OpenDeck.h">
<polygon fill="white" stroke="black" points="423.5,-142.5 423.5,-163.5 505.5,-163.5 505.5,-142.5 423.5,-142.5"/>
<text text-anchor="middle" x="464.5" y="-149.9" font-family="Helvetica,sans-Serif" font-size="12.00">OpenDeck.h</text>
</a>
</g>
</g>
<!-- Node33&#45;&gt;Node34 -->
<g id="edge3" class="edge"><title>Node33&#45;&gt;Node34</title>
<path fill="none" stroke="midnightblue" d="M339.942,-197.057C369.59,-186.808 410.32,-172.729 437.015,-163.501"/>
<polygon fill="midnightblue" stroke="midnightblue" points="338.657,-193.798 330.349,-200.373 340.944,-200.414 338.657,-193.798"/>
</g>
<!-- Node34&#45;&gt;Node31 -->
<g id="edge5" class="edge"><title>Node34&#45;&gt;Node31</title>
<path fill="none" stroke="midnightblue" d="M515.727,-161.717C557.962,-169.251 613.038,-182.184 626.5,-200 654.576,-237.158 611.439,-293.642 591.608,-316.197"/>
<polygon fill="midnightblue" stroke="midnightblue" points="516.295,-158.264 505.845,-160.01 515.103,-165.162 516.295,-158.264"/>
</g>
<!-- Node34&#45;&gt;Node32 -->
<g id="edge6" class="edge"><title>Node34&#45;&gt;Node32</title>
<path fill="none" stroke="midnightblue" d="M453.622,-172.778C447.071,-186.544 440.974,-205.611 446.5,-222 451.309,-236.263 462.499,-249.605 470.941,-258.208"/>
<polygon fill="midnightblue" stroke="midnightblue" points="456.782,-174.288 458.313,-163.805 450.579,-171.045 456.782,-174.288"/>
</g>
<!-- Node35 -->
<g id="node5" class="node"><title>Node35</title>
<g id="a_node5"><a xlink:href="_init_8cpp.html" target="_top" xlink:title="Init.cpp">
<polygon fill="white" stroke="black" points="500,-78 500,-99 553,-99 553,-78 500,-78"/>
<text text-anchor="middle" x="526.5" y="-85.4" font-family="Helvetica,sans-Serif" font-size="12.00">Init.cpp</text>
</a>
</g>
</g>
<!-- Node34&#45;&gt;Node35 -->
<g id="edge4" class="edge"><title>Node34&#45;&gt;Node35</title>
<path fill="none" stroke="midnightblue" d="M481.411,-134.953C492.725,-123.548 507.219,-108.937 516.676,-99.4033"/>
<polygon fill="midnightblue" stroke="midnightblue" points="478.745,-132.67 474.188,-142.234 483.715,-137.6 478.745,-132.67"/>
</g>
<!-- Node36 -->
<g id="node6" class="node"><title>Node36</title>
<g id="a_node6"><a xlink:href="interface_2encoders_2_encoders_8h.html" target="_top" xlink:title="interface/encoders\l/Encoders.h">
<polygon fill="white" stroke="black" points="0,-71.5 0,-105.5 113,-105.5 113,-71.5 0,-71.5"/>
<text text-anchor="start" x="8" y="-91.9" font-family="Helvetica,sans-Serif" font-size="12.00">interface/encoders</text>
<text text-anchor="middle" x="56.5" y="-78.9" font-family="Helvetica,sans-Serif" font-size="12.00">/Encoders.h</text>
</a>
</g>
</g>
<!-- Node34&#45;&gt;Node36 -->
<g id="edge7" class="edge"><title>Node34&#45;&gt;Node36</title>
<path fill="none" stroke="midnightblue" d="M412.998,-146.965C345.635,-139.953 224.109,-125.835 121.5,-106 118.757,-105.47 115.956,-104.894 113.134,-104.285"/>
<polygon fill="midnightblue" stroke="midnightblue" points="413.027,-150.487 423.333,-148.029 413.744,-143.524 413.027,-150.487"/>
</g>
<!-- Node37 -->
<g id="node7" class="node"><title>Node37</title>
<g id="a_node7"><a xlink:href="interface_2encoders_2_encoders_8cpp.html" target="_top" xlink:title="interface/encoders\l/Encoders.cpp">
<polygon fill="white" stroke="black" points="207,-0.5 207,-34.5 320,-34.5 320,-0.5 207,-0.5"/>
<text text-anchor="start" x="215" y="-20.9" font-family="Helvetica,sans-Serif" font-size="12.00">interface/encoders</text>
<text text-anchor="middle" x="263.5" y="-7.9" font-family="Helvetica,sans-Serif" font-size="12.00">/Encoders.cpp</text>
</a>
</g>
</g>
<!-- Node34&#45;&gt;Node37 -->
<g id="edge13" class="edge"><title>Node34&#45;&gt;Node37</title>
<path fill="none" stroke="midnightblue" d="M466.862,-132.344C467.898,-114.202 466.346,-87.6289 451.5,-71 418.776,-34.3452 362.808,-22.3706 320.427,-18.8776"/>
<polygon fill="midnightblue" stroke="midnightblue" points="463.369,-132.117 465.979,-142.386 470.342,-132.731 463.369,-132.117"/>
</g>
<!-- Node34&#45;&gt;Node38 -->
<g id="edge10" class="edge"><title>Node34&#45;&gt;Node38</title>
<path fill="none" stroke="midnightblue" d="M502.109,-139.014C536.621,-127.096 586.943,-109.72 617.881,-99.037"/>
<polygon fill="midnightblue" stroke="midnightblue" points="500.695,-135.799 492.385,-142.371 502.979,-142.416 500.695,-135.799"/>
</g>
<!-- Node34&#45;&gt;Node39 -->
<g id="edge11" class="edge"><title>Node34&#45;&gt;Node39</title>
<path fill="none" stroke="midnightblue" d="M418.987,-139.844C374.361,-127.924 307.234,-109.995 266.29,-99.0594"/>
<polygon fill="midnightblue" stroke="midnightblue" points="418.141,-143.24 428.706,-142.44 419.948,-136.478 418.141,-143.24"/>
</g>
<!-- Node34&#45;&gt;Node40 -->
<g id="edge12" class="edge"><title>Node34&#45;&gt;Node40</title>
<path fill="none" stroke="midnightblue" d="M515.727,-143.195C569.114,-133.998 655.196,-119.112 729.5,-106 742.124,-103.772 755.718,-101.348 768.481,-99.061"/>
<polygon fill="midnightblue" stroke="midnightblue" points="515.085,-139.754 505.824,-144.9 516.273,-146.653 515.085,-139.754"/>
</g>
<!-- Node41 -->
<g id="node11" class="node"><title>Node41</title>
<g id="a_node11"><a xlink:href="_open_deck_8cpp.html" target="_top" xlink:title="OpenDeck.cpp">
<polygon fill="white" stroke="black" points="348,-78 348,-99 443,-99 443,-78 348,-78"/>
<text text-anchor="middle" x="395.5" y="-85.4" font-family="Helvetica,sans-Serif" font-size="12.00">OpenDeck.cpp</text>
</a>
</g>
</g>
<!-- Node34&#45;&gt;Node41 -->
<g id="edge14" class="edge"><title>Node34&#45;&gt;Node41</title>
<path fill="none" stroke="midnightblue" d="M446.042,-135.281C433.399,-123.829 417.059,-109.028 406.433,-99.4033"/>
<polygon fill="midnightblue" stroke="midnightblue" points="443.958,-138.115 453.719,-142.234 448.657,-132.927 443.958,-138.115"/>
</g>
<!-- Node36&#45;&gt;Node33 -->
<g id="edge8" class="edge"><title>Node36&#45;&gt;Node33</title>
<path fill="none" stroke="midnightblue" d="M98.5823,-110.113C152.287,-136.42 242.989,-180.849 282.785,-200.343"/>
<polygon fill="midnightblue" stroke="midnightblue" points="99.848,-106.836 89.3279,-105.58 96.7687,-113.123 99.848,-106.836"/>
</g>
<!-- Node36&#45;&gt;Node37 -->
<g id="edge9" class="edge"><title>Node36&#45;&gt;Node37</title>
<path fill="none" stroke="midnightblue" d="M114.151,-68.2829C146.027,-57.6576 185.175,-44.6084 215.392,-34.536"/>
<polygon fill="midnightblue" stroke="midnightblue" points="112.89,-65.0138 104.51,-71.4966 115.104,-71.6546 112.89,-65.0138"/>
</g>
</g>
</svg>
        <g id="navigator" transform="translate(0 0)" fill="#404254">
                <rect fill="#f2f5e9" fill-opacity="0.5" stroke="#606060" stroke-width=".5" x="0" y="0" width="60" height="60"/>
                <use id="zoomplus" xlink:href="#zoomPlus" x="17" y="9" onmousedown="handleZoom(evt,'in')"/>
                <use id="zoomminus" xlink:href="#zoomMin" x="42" y="9" onmousedown="handleZoom(evt,'out')"/>
                <use id="reset" xlink:href="#resetDef" x="30" y="36" onmousedown="handleReset()"/>
                <g id="arrowUp" xlink:href="#dirArrow" transform="translate(30 24)" onmousedown="handlePan(0,-1)">
                  <use xlink:href="#rim" fill="#404040">
                        <set attributeName="fill" to="#808080" begin="arrowUp.mouseover" end="arrowUp.mouseout"/>
                  </use>
                  <path fill="none" stroke="white" stroke-width="1.5" d="M0,-3.0v7 M-2.5,-0.5L0,-3.0L2.5,-0.5"/>
                </g>
                <g id="arrowRight" xlink:href="#dirArrow" transform="rotate(90) translate(36 -43)" onmousedown="handlePan(1,0)">
                  <use xlink:href="#rim" fill="#404040">
                        <set attributeName="fill" to="#808080" begin="arrowRight.mouseover" end="arrowRight.mouseout"/>
                  </use>
                  <path fill="none" stroke="white" stroke-width="1.5" d="M0,-3.0v7 M-2.5,-0.5L0,-3.0L2.5,-0.5"/>
                </g>
                <g id="arrowDown" xlink:href="#dirArrow" transform="rotate(180) translate(-30 -48)" onmousedown="handlePan(0,1)">
                  <use xlink:href="#rim" fill="#404040">
                        <set attributeName="fill" to="#808080" begin="arrowDown.mouseover" end="arrowDown.mouseout"/>
                  </use>
                  <path fill="none" stroke="white" stroke-width="1.5" d="M0,-3.0v7 M-2.5,-0.5L0,-3.0L2.5,-0.5"/>
                </g>
                <g id="arrowLeft" xlink:href="#dirArrow" transform="rotate(270) translate(-36 17)" onmousedown="handlePan(-1,0)">
                  <use xlink:href="#rim" fill="#404040">
                        <set attributeName="fill" to="#808080" begin="arrowLeft.mouseover" end="arrowLeft.mouseout"/>
                  </use>
                  <path fill="none" stroke="white" stroke-width="1.5" d="M0,-3.0v7 M-2.5,-0.5L0,-3.0L2.5,-0.5"/>
                </g>
        </g>
        <svg viewBox="0 0 15 15" width="100%" height="30px" preserveAspectRatio="xMaxYMin meet">
         <g id="arrow_out" transform="scale(0.3 0.3)">
          <a xlink:href="interface_2buttons_2_buttons_8h__dep__incl_org.svg" target="_base">
           <rect id="button" ry="5" rx="5" y="6" x="6" height="38" width="38"
                fill="#f2f5e9" fill-opacity="0.5" stroke="#606060" stroke-width="1.0"/>
           <path id="arrow"
             d="M 11.500037,31.436501 C 11.940474,20.09759 22.043105,11.32322 32.158766,21.979434 L 37.068811,17.246167 C 37.068811,17.246167 37.088388,32 37.088388,32 L 22.160133,31.978069 C 22.160133,31.978069 26.997745,27.140456 26.997745,27.140456 C 18.528582,18.264221 13.291696,25.230495 11.500037,31.436501 z"
             style="fill:#404040;"/>
          </a>
         </g>
        </svg>
</svg>
