<?xml version="1.0" encoding="UTF-8" standalone="no"?>
<!DOCTYPE svg PUBLIC "-//W3C//DTD SVG 1.1//EN"
 "http://www.w3.org/Graphics/SVG/1.1/DTD/svg11.dtd">
<!-- Generated by graphviz version 2.38.0 (20140413.2041)
 -->
<!-- Title: interface/digital/output/leds/LEDs.h Pages: 1 -->
<!--zoomable 346 -->
<svg id="main" version="1.1" xmlns="http://www.w3.org/2000/svg" xmlns:xlink="http://www.w3.org/1999/xlink" xml:space="preserve" onload="init(evt)">
<style type="text/css"><![CDATA[
.edge:hover path { stroke: red; }
.edge:hover polygon { stroke: red; fill: red; }
]]></style>
<script type="text/javascript"><![CDATA[
var edges = document.getElementsByTagName('g');
if (edges && edges.length) {
  for (var i=0;i<edges.length;i++) {
    if (edges[i].id.substr(0,4)=='edge') {
      edges[i].setAttribute('class','edge');
    }
  }
}
]]></script>
        <defs>
                <circle id="rim" cx="0" cy="0" r="7"/>
                <circle id="rim2" cx="0" cy="0" r="3.5"/>
                <g id="zoomPlus">
                        <use xlink:href="#rim" fill="#404040">
                                <set attributeName="fill" to="#808080" begin="zoomplus.mouseover" end="zoomplus.mouseout"/>
                        </use>
                        <path d="M-4,0h8M0,-4v8" fill="none" stroke="white" stroke-width="1.5" pointer-events="none"/>
                </g>
                <g id="zoomMin">
                        <use xlink:href="#rim" fill="#404040">
                                <set attributeName="fill" to="#808080" begin="zoomminus.mouseover" end="zoomminus.mouseout"/>
                        </use>
                        <path d="M-4,0h8" fill="none" stroke="white" stroke-width="1.5" pointer-events="none"/>
                </g>
                <g id="dirArrow">
                        <path fill="none" stroke="white" stroke-width="1.5" d="M0,-3.0v7 M-2.5,-0.5L0,-3.0L2.5,-0.5"/>
                </g>
               <g id="resetDef">
                       <use xlink:href="#rim2" fill="#404040">
                               <set attributeName="fill" to="#808080" begin="reset.mouseover" end="reset.mouseout"/>
                       </use>
               </g>
        </defs>

<script type="text/javascript">
var viewWidth = 615;
var viewHeight = 346;
var sectionId = 'dynsection-0';
</script>
<script xlink:href="svgpan.js"/>
<svg id="graph" class="graph">
<g id="viewport">
<title>interface/digital/output/leds/LEDs.h</title>
<polygon fill="white" stroke="none" points="-4,4 -4,-342 611,-342 611,4 -4,4"/>
<!-- Node0 -->
<g id="node1" class="node"><title>Node0</title>
<polygon fill="#bfbfbf" stroke="black" points="76,-303.5 76,-337.5 207,-337.5 207,-303.5 76,-303.5"/>
<text text-anchor="start" x="84" y="-323.9" font-family="Helvetica,sans-Serif" font-size="12.00">interface/digital/output</text>
<text text-anchor="middle" x="141.5" y="-310.9" font-family="Helvetica,sans-Serif" font-size="12.00">/leds/LEDs.h</text>
</g>
<!-- Node1 -->
<g id="node2" class="node"><title>Node1</title>
<g id="a_node2"><a xlink:href="interface_2digital_2output_2leds_2_data_types_8h.html" target="_top" xlink:title="DataTypes.h">
<polygon fill="white" stroke="black" points="0,-181 0,-202 83,-202 83,-181 0,-181"/>
<text text-anchor="middle" x="41.5" y="-188.4" font-family="Helvetica,sans-Serif" font-size="12.00">DataTypes.h</text>
</a>
</g>
</g>
<!-- Node0&#45;&gt;Node1 -->
<g id="edge1" class="edge"><title>Node0&#45;&gt;Node1</title>
<path fill="none" stroke="midnightblue" d="M125.795,-303.438C116.131,-293.287 103.687,-279.727 93.5,-267 78.8073,-248.644 63.5947,-226.406 53.4491,-211.03"/>
<polygon fill="midnightblue" stroke="midnightblue" points="56.2362,-208.897 47.8368,-202.439 50.3759,-212.725 56.2362,-208.897"/>
</g>
<!-- Node3 -->
<g id="node4" class="node"><title>Node3</title>
<g id="a_node4"><a xlink:href="interface_2digital_2output_2leds_2_constants_8h.html" target="_top" xlink:title="Constants.h">
<polygon fill="white" stroke="black" points="102.5,-245.5 102.5,-266.5 180.5,-266.5 180.5,-245.5 102.5,-245.5"/>
<text text-anchor="middle" x="141.5" y="-252.9" font-family="Helvetica,sans-Serif" font-size="12.00">Constants.h</text>
</a>
</g>
</g>
<!-- Node0&#45;&gt;Node3 -->
<g id="edge3" class="edge"><title>Node0&#45;&gt;Node3</title>
<path fill="none" stroke="midnightblue" d="M141.5,-303.405C141.5,-295.357 141.5,-285.541 141.5,-277.012"/>
<polygon fill="midnightblue" stroke="midnightblue" points="145,-276.8 141.5,-266.8 138,-276.8 145,-276.8"/>
</g>
<!-- Node14 -->
<g id="node15" class="node"><title>Node14</title>
<g id="a_node15"><a xlink:href="_board_8h.html" target="_top" xlink:title="../../../../board/Board.h">
<polygon fill="white" stroke="black" points="198.5,-245.5 198.5,-266.5 326.5,-266.5 326.5,-245.5 198.5,-245.5"/>
<text text-anchor="middle" x="262.5" y="-252.9" font-family="Helvetica,sans-Serif" font-size="12.00">../../../../board/Board.h</text>
</a>
</g>
</g>
<!-- Node0&#45;&gt;Node14 -->
<g id="edge15" class="edge"><title>Node0&#45;&gt;Node14</title>
<path fill="none" stroke="midnightblue" d="M172.661,-303.405C191.861,-293.487 216.263,-280.883 234.788,-271.314"/>
<polygon fill="midnightblue" stroke="midnightblue" points="236.603,-274.316 243.882,-266.617 233.391,-268.097 236.603,-274.316"/>
</g>
<!-- Node2 -->
<g id="node3" class="node"><title>Node2</title>
<polygon fill="white" stroke="#bfbfbf" points="44,-0.5 44,-21.5 109,-21.5 109,-0.5 44,-0.5"/>
<text text-anchor="middle" x="76.5" y="-7.9" font-family="Helvetica,sans-Serif" font-size="12.00">inttypes.h</text>
</g>
<!-- Node1&#45;&gt;Node2 -->
<g id="edge2" class="edge"><title>Node1&#45;&gt;Node2</title>
<path fill="none" stroke="midnightblue" d="M42.253,-180.736C44.0979,-158.63 49.5162,-103.161 60.5,-58 62.6918,-48.9882 65.9427,-39.254 68.9428,-31.071"/>
<polygon fill="midnightblue" stroke="midnightblue" points="72.2209,-32.2973 72.5101,-21.7064 65.6795,-29.8054 72.2209,-32.2973"/>
</g>
<!-- Node4 -->
<g id="node5" class="node"><title>Node4</title>
<g id="a_node5"><a xlink:href="database_2_database_8h.html" target="_top" xlink:title="../../../../database\l/Database.h">
<polygon fill="white" stroke="black" points="101.5,-174.5 101.5,-208.5 203.5,-208.5 203.5,-174.5 101.5,-174.5"/>
<text text-anchor="start" x="109.5" y="-194.9" font-family="Helvetica,sans-Serif" font-size="12.00">../../../../database</text>
<text text-anchor="middle" x="152.5" y="-181.9" font-family="Helvetica,sans-Serif" font-size="12.00">/Database.h</text>
</a>
</g>
</g>
<!-- Node3&#45;&gt;Node4 -->
<g id="edge4" class="edge"><title>Node3&#45;&gt;Node4</title>
<path fill="none" stroke="midnightblue" d="M143.219,-245.234C144.466,-238.15 146.215,-228.211 147.859,-218.868"/>
<polygon fill="midnightblue" stroke="midnightblue" points="151.352,-219.213 149.639,-208.758 144.458,-218 151.352,-219.213"/>
</g>
<!-- Node5 -->
<g id="node6" class="node"><title>Node5</title>
<g id="a_node6"><a xlink:href="_d_b_m_s_8h.html" target="_top" xlink:title="../dbms/src/DBMS.h">
<polygon fill="white" stroke="black" points="81,-116.5 81,-137.5 202,-137.5 202,-116.5 81,-116.5"/>
<text text-anchor="middle" x="141.5" y="-123.9" font-family="Helvetica,sans-Serif" font-size="12.00">../dbms/src/DBMS.h</text>
</a>
</g>
</g>
<!-- Node4&#45;&gt;Node5 -->
<g id="edge5" class="edge"><title>Node4&#45;&gt;Node5</title>
<path fill="none" stroke="midnightblue" d="M149.667,-174.405C148.235,-166.267 146.484,-156.32 144.972,-147.725"/>
<polygon fill="midnightblue" stroke="midnightblue" points="148.405,-147.042 143.225,-137.8 141.511,-148.255 148.405,-147.042"/>
</g>
<!-- Node7 -->
<g id="node8" class="node"><title>Node7</title>
<g id="a_node8"><a xlink:href="database_2blocks_2_blocks_8h.html" target="_top" xlink:title="blocks/Blocks.h">
<polygon fill="white" stroke="black" points="310.5,-116.5 310.5,-137.5 408.5,-137.5 408.5,-116.5 310.5,-116.5"/>
<text text-anchor="middle" x="359.5" y="-123.9" font-family="Helvetica,sans-Serif" font-size="12.00">blocks/Blocks.h</text>
</a>
</g>
</g>
<!-- Node4&#45;&gt;Node7 -->
<g id="edge8" class="edge"><title>Node4&#45;&gt;Node7</title>
<path fill="none" stroke="midnightblue" d="M203.669,-175.051C238.931,-164.404 285.191,-150.436 318.127,-140.492"/>
<polygon fill="midnightblue" stroke="midnightblue" points="319.332,-143.784 327.894,-137.543 317.309,-137.083 319.332,-143.784"/>
</g>
<!-- Node6 -->
<g id="node7" class="node"><title>Node6</title>
<g id="a_node7"><a xlink:href="dbms_2src_2_data_types_8h.html" target="_top" xlink:title="DataTypes.h">
<polygon fill="white" stroke="black" points="70,-58.5 70,-79.5 153,-79.5 153,-58.5 70,-58.5"/>
<text text-anchor="middle" x="111.5" y="-65.9" font-family="Helvetica,sans-Serif" font-size="12.00">DataTypes.h</text>
</a>
</g>
</g>
<!-- Node5&#45;&gt;Node6 -->
<g id="edge6" class="edge"><title>Node5&#45;&gt;Node6</title>
<path fill="none" stroke="midnightblue" d="M136.274,-116.246C132.188,-108.617 126.387,-97.7881 121.425,-88.5267"/>
<polygon fill="midnightblue" stroke="midnightblue" points="124.473,-86.8047 116.666,-79.6427 118.303,-90.1103 124.473,-86.8047"/>
</g>
<!-- Node6&#45;&gt;Node2 -->
<g id="edge7" class="edge"><title>Node6&#45;&gt;Node2</title>
<path fill="none" stroke="midnightblue" d="M105.403,-58.2455C100.585,-50.5367 93.7249,-39.5598 87.8968,-30.2348"/>
<polygon fill="midnightblue" stroke="midnightblue" points="90.7947,-28.2677 82.5267,-21.6427 84.8587,-31.9777 90.7947,-28.2677"/>
</g>
<!-- Node8 -->
<g id="node9" class="node"><title>Node8</title>
<g id="a_node9"><a xlink:href="database_2blocks_2_m_i_d_i_8h.html" target="_top" xlink:title="MIDI.h">
<polygon fill="white" stroke="black" points="171,-58.5 171,-79.5 220,-79.5 220,-58.5 171,-58.5"/>
<text text-anchor="middle" x="195.5" y="-65.9" font-family="Helvetica,sans-Serif" font-size="12.00">MIDI.h</text>
</a>
</g>
</g>
<!-- Node7&#45;&gt;Node8 -->
<g id="edge9" class="edge"><title>Node7&#45;&gt;Node8</title>
<path fill="none" stroke="midnightblue" d="M331.307,-116.373C303.167,-106.764 259.891,-91.9872 229.781,-81.7056"/>
<polygon fill="midnightblue" stroke="midnightblue" points="230.709,-78.3243 220.115,-78.4051 228.447,-84.9488 230.709,-78.3243"/>
</g>
<!-- Node9 -->
<g id="node10" class="node"><title>Node9</title>
<g id="a_node10"><a xlink:href="database_2blocks_2_buttons_8h.html" target="_top" xlink:title="Buttons.h">
<polygon fill="white" stroke="black" points="238,-58.5 238,-79.5 303,-79.5 303,-58.5 238,-58.5"/>
<text text-anchor="middle" x="270.5" y="-65.9" font-family="Helvetica,sans-Serif" font-size="12.00">Buttons.h</text>
</a>
</g>
</g>
<!-- Node7&#45;&gt;Node9 -->
<g id="edge10" class="edge"><title>Node7&#45;&gt;Node9</title>
<path fill="none" stroke="midnightblue" d="M343.997,-116.246C330.342,-107.653 310.234,-95.0014 294.501,-85.1018"/>
<polygon fill="midnightblue" stroke="midnightblue" points="296.153,-82.006 285.825,-79.6427 292.425,-87.9307 296.153,-82.006"/>
</g>
<!-- Node10 -->
<g id="node11" class="node"><title>Node10</title>
<g id="a_node11"><a xlink:href="database_2blocks_2_encoders_8h.html" target="_top" xlink:title="Encoders.h">
<polygon fill="white" stroke="black" points="321.5,-58.5 321.5,-79.5 397.5,-79.5 397.5,-58.5 321.5,-58.5"/>
<text text-anchor="middle" x="359.5" y="-65.9" font-family="Helvetica,sans-Serif" font-size="12.00">Encoders.h</text>
</a>
</g>
</g>
<!-- Node7&#45;&gt;Node10 -->
<g id="edge11" class="edge"><title>Node7&#45;&gt;Node10</title>
<path fill="none" stroke="midnightblue" d="M359.5,-116.246C359.5,-108.938 359.5,-98.6944 359.5,-89.7046"/>
<polygon fill="midnightblue" stroke="midnightblue" points="363,-89.6426 359.5,-79.6427 356,-89.6427 363,-89.6426"/>
</g>
<!-- Node11 -->
<g id="node12" class="node"><title>Node11</title>
<g id="a_node12"><a xlink:href="database_2blocks_2_analog_8h.html" target="_top" xlink:title="Analog.h">
<polygon fill="white" stroke="black" points="415.5,-58.5 415.5,-79.5 477.5,-79.5 477.5,-58.5 415.5,-58.5"/>
<text text-anchor="middle" x="446.5" y="-65.9" font-family="Helvetica,sans-Serif" font-size="12.00">Analog.h</text>
</a>
</g>
</g>
<!-- Node7&#45;&gt;Node11 -->
<g id="edge12" class="edge"><title>Node7&#45;&gt;Node11</title>
<path fill="none" stroke="midnightblue" d="M374.654,-116.246C388.003,-107.653 407.659,-95.0014 423.038,-85.1018"/>
<polygon fill="midnightblue" stroke="midnightblue" points="425.005,-87.9982 431.519,-79.6427 421.216,-82.1121 425.005,-87.9982"/>
</g>
<!-- Node12 -->
<g id="node13" class="node"><title>Node12</title>
<g id="a_node13"><a xlink:href="database_2blocks_2_l_e_ds_8h.html" target="_top" xlink:title="LEDs.h">
<polygon fill="white" stroke="black" points="495.5,-58.5 495.5,-79.5 551.5,-79.5 551.5,-58.5 495.5,-58.5"/>
<text text-anchor="middle" x="523.5" y="-65.9" font-family="Helvetica,sans-Serif" font-size="12.00">LEDs.h</text>
</a>
</g>
</g>
<!-- Node7&#45;&gt;Node12 -->
<g id="edge13" class="edge"><title>Node7&#45;&gt;Node12</title>
<path fill="none" stroke="midnightblue" d="M387.693,-116.373C414.845,-107.102 456.091,-93.0178 486.002,-82.804"/>
<polygon fill="midnightblue" stroke="midnightblue" points="487.343,-86.0449 495.675,-79.5011 485.081,-79.4204 487.343,-86.0449"/>
</g>
<!-- Node13 -->
<g id="node14" class="node"><title>Node13</title>
<g id="a_node14"><a xlink:href="database_2blocks_2_i_d_8h.html" target="_top" xlink:title="ID.h">
<polygon fill="white" stroke="black" points="570,-58.5 570,-79.5 607,-79.5 607,-58.5 570,-58.5"/>
<text text-anchor="middle" x="588.5" y="-65.9" font-family="Helvetica,sans-Serif" font-size="12.00">ID.h</text>
</a>
</g>
</g>
<!-- Node7&#45;&gt;Node13 -->
<g id="edge14" class="edge"><title>Node7&#45;&gt;Node13</title>
<path fill="none" stroke="midnightblue" d="M408.655,-116.442C447.368,-108.534 502.825,-96.3676 559.989,-79.8837"/>
<polygon fill="midnightblue" stroke="midnightblue" points="561.308,-83.1447 569.924,-76.9795 559.344,-76.4259 561.308,-83.1447"/>
</g>
</g>
</svg>
        <g id="navigator" transform="translate(0 0)" fill="#404254">
                <rect fill="#f2f5e9" fill-opacity="0.5" stroke="#606060" stroke-width=".5" x="0" y="0" width="60" height="60"/>
                <use id="zoomplus" xlink:href="#zoomPlus" x="17" y="9" onmousedown="handleZoom(evt,'in')"/>
                <use id="zoomminus" xlink:href="#zoomMin" x="42" y="9" onmousedown="handleZoom(evt,'out')"/>
                <use id="reset" xlink:href="#resetDef" x="30" y="36" onmousedown="handleReset()"/>
                <g id="arrowUp" xlink:href="#dirArrow" transform="translate(30 24)" onmousedown="handlePan(0,-1)">
                  <use xlink:href="#rim" fill="#404040">
                        <set attributeName="fill" to="#808080" begin="arrowUp.mouseover" end="arrowUp.mouseout"/>
                  </use>
                  <path fill="none" stroke="white" stroke-width="1.5" d="M0,-3.0v7 M-2.5,-0.5L0,-3.0L2.5,-0.5"/>
                </g>
                <g id="arrowRight" xlink:href="#dirArrow" transform="rotate(90) translate(36 -43)" onmousedown="handlePan(1,0)">
                  <use xlink:href="#rim" fill="#404040">
                        <set attributeName="fill" to="#808080" begin="arrowRight.mouseover" end="arrowRight.mouseout"/>
                  </use>
                  <path fill="none" stroke="white" stroke-width="1.5" d="M0,-3.0v7 M-2.5,-0.5L0,-3.0L2.5,-0.5"/>
                </g>
                <g id="arrowDown" xlink:href="#dirArrow" transform="rotate(180) translate(-30 -48)" onmousedown="handlePan(0,1)">
                  <use xlink:href="#rim" fill="#404040">
                        <set attributeName="fill" to="#808080" begin="arrowDown.mouseover" end="arrowDown.mouseout"/>
                  </use>
                  <path fill="none" stroke="white" stroke-width="1.5" d="M0,-3.0v7 M-2.5,-0.5L0,-3.0L2.5,-0.5"/>
                </g>
                <g id="arrowLeft" xlink:href="#dirArrow" transform="rotate(270) translate(-36 17)" onmousedown="handlePan(-1,0)">
                  <use xlink:href="#rim" fill="#404040">
                        <set attributeName="fill" to="#808080" begin="arrowLeft.mouseover" end="arrowLeft.mouseout"/>
                  </use>
                  <path fill="none" stroke="white" stroke-width="1.5" d="M0,-3.0v7 M-2.5,-0.5L0,-3.0L2.5,-0.5"/>
                </g>
        </g>
        <svg viewBox="0 0 15 15" width="100%" height="30px" preserveAspectRatio="xMaxYMin meet">
         <g id="arrow_out" transform="scale(0.3 0.3)">
          <a xlink:href="interface_2digital_2output_2leds_2_l_e_ds_8h__incl_org.svg" target="_base">
           <rect id="button" ry="5" rx="5" y="6" x="6" height="38" width="38"
                fill="#f2f5e9" fill-opacity="0.5" stroke="#606060" stroke-width="1.0"/>
           <path id="arrow"
             d="M 11.500037,31.436501 C 11.940474,20.09759 22.043105,11.32322 32.158766,21.979434 L 37.068811,17.246167 C 37.068811,17.246167 37.088388,32 37.088388,32 L 22.160133,31.978069 C 22.160133,31.978069 26.997745,27.140456 26.997745,27.140456 C 18.528582,18.264221 13.291696,25.230495 11.500037,31.436501 z"
             style="fill:#404040;"/>
          </a>
         </g>
        </svg>
</svg>
