<?xml version="1.0" encoding="UTF-8" standalone="no"?>
<!DOCTYPE svg PUBLIC "-//W3C//DTD SVG 1.1//EN"
 "http://www.w3.org/Graphics/SVG/1.1/DTD/svg11.dtd">
<!-- Generated by graphviz version 2.38.0 (20140413.2041)
 -->
<!-- Title: interface/leds/LEDs.h Pages: 1 -->
<!--zoomable 346 -->
<svg id="main" version="1.1" xmlns="http://www.w3.org/2000/svg" xmlns:xlink="http://www.w3.org/1999/xlink" xml:space="preserve" onload="init(evt)">
<style type="text/css"><![CDATA[
.edge:hover path { stroke: red; }
.edge:hover polygon { stroke: red; fill: red; }
]]></style>
<script type="text/javascript"><![CDATA[
var edges = document.getElementsByTagName('g');
if (edges && edges.length) {
  for (var i=0;i<edges.length;i++) {
    if (edges[i].id.substr(0,4)=='edge') {
      edges[i].setAttribute('class','edge');
    }
  }
}
]]></script>
        <defs>
                <circle id="rim" cx="0" cy="0" r="7"/>
                <circle id="rim2" cx="0" cy="0" r="3.5"/>
                <g id="zoomPlus">
                        <use xlink:href="#rim" fill="#404040">
                                <set attributeName="fill" to="#808080" begin="zoomplus.mouseover" end="zoomplus.mouseout"/>
                        </use>
                        <path d="M-4,0h8M0,-4v8" fill="none" stroke="white" stroke-width="1.5" pointer-events="none"/>
                </g>
                <g id="zoomMin">
                        <use xlink:href="#rim" fill="#404040">
                                <set attributeName="fill" to="#808080" begin="zoomminus.mouseover" end="zoomminus.mouseout"/>
                        </use>
                        <path d="M-4,0h8" fill="none" stroke="white" stroke-width="1.5" pointer-events="none"/>
                </g>
                <g id="dirArrow">
                        <path fill="none" stroke="white" stroke-width="1.5" d="M0,-3.0v7 M-2.5,-0.5L0,-3.0L2.5,-0.5"/>
                </g>
               <g id="resetDef">
                       <use xlink:href="#rim2" fill="#404040">
                               <set attributeName="fill" to="#808080" begin="reset.mouseover" end="reset.mouseout"/>
                       </use>
               </g>
        </defs>

<script type="text/javascript">
var viewWidth = 921;
var viewHeight = 346;
var sectionId = 'dynsection-1';
</script>
<script xlink:href="svgpan.js"/>
<svg id="graph" class="graph">
<g id="viewport">
<title>interface/leds/LEDs.h</title>
<polygon fill="white" stroke="none" points="-4,4 -4,-342 916.57,-342 916.57,4 -4,4"/>
<!-- Node14 -->
<g id="node1" class="node"><title>Node14</title>
<polygon fill="#bfbfbf" stroke="black" points="593.57,-316.5 593.57,-337.5 721.57,-337.5 721.57,-316.5 593.57,-316.5"/>
<text text-anchor="middle" x="657.57" y="-323.9" font-family="Helvetica,sans-Serif" font-size="12.00">interface/leds/LEDs.h</text>
</g>
<!-- Node15 -->
<g id="node2" class="node"><title>Node15</title>
<g id="a_node2"><a xlink:href="_interface_8h.html" target="_top" xlink:title="interface/Interface.h">
<polygon fill="white" stroke="black" points="513.57,-258.5 513.57,-279.5 631.57,-279.5 631.57,-258.5 513.57,-258.5"/>
<text text-anchor="middle" x="572.57" y="-265.9" font-family="Helvetica,sans-Serif" font-size="12.00">interface/Interface.h</text>
</a>
</g>
</g>
<!-- Node14&#45;&gt;Node15 -->
<g id="edge1" class="edge"><title>Node14&#45;&gt;Node15</title>
<path fill="none" stroke="midnightblue" d="M634.028,-310.49C619.031,-300.61 600.073,-288.119 587.206,-279.643"/>
<polygon fill="midnightblue" stroke="midnightblue" points="632.488,-313.667 642.764,-316.246 636.339,-307.821 632.488,-313.667"/>
</g>
<!-- Node21 -->
<g id="node8" class="node"><title>Node21</title>
<g id="a_node8"><a xlink:href="_f_s_r_8cpp.html" target="_top" xlink:title="interface/analog/FSR.cpp">
<polygon fill="white" stroke="black" points="609.07,-0.5 609.07,-21.5 758.07,-21.5 758.07,-0.5 609.07,-0.5"/>
<text text-anchor="middle" x="683.57" y="-7.9" font-family="Helvetica,sans-Serif" font-size="12.00">interface/analog/FSR.cpp</text>
</a>
</g>
</g>
<!-- Node14&#45;&gt;Node21 -->
<g id="edge21" class="edge"><title>Node14&#45;&gt;Node21</title>
<path fill="none" stroke="midnightblue" d="M679.99,-310.189C705.173,-290.386 742.57,-253.921 742.57,-212 742.57,-212 742.57,-212 742.57,-145.5 742.57,-105.055 735.431,-94.2874 717.57,-58 710.816,-44.2787 699.884,-30.4195 692.245,-21.5537"/>
<polygon fill="midnightblue" stroke="midnightblue" points="677.847,-307.421 671.989,-316.25 682.074,-313.001 677.847,-307.421"/>
</g>
<!-- Node23 -->
<g id="node10" class="node"><title>Node23</title>
<g id="a_node10"><a xlink:href="interface_2buttons_2_buttons_8cpp.html" target="_top" xlink:title="interface/buttons/Buttons.cpp">
<polygon fill="white" stroke="black" points="9.06998,-65 9.06998,-86 176.07,-86 176.07,-65 9.06998,-65"/>
<text text-anchor="middle" x="92.57" y="-72.4" font-family="Helvetica,sans-Serif" font-size="12.00">interface/buttons/Buttons.cpp</text>
</a>
</g>
</g>
<!-- Node14&#45;&gt;Node23 -->
<g id="edge22" class="edge"><title>Node14&#45;&gt;Node23</title>
<path fill="none" stroke="midnightblue" d="M582.996,-318.767C427.574,-301.992 77.517,-254.766 6.56998,-164 -3.00975,-151.744 -1.04233,-142.566 6.56998,-129 18.4688,-107.795 42.8003,-94.1399 62.5555,-86.087"/>
<polygon fill="midnightblue" stroke="midnightblue" points="583.081,-322.296 593.396,-319.876 583.823,-315.335 583.081,-322.296"/>
</g>
<!-- Node27 -->
<g id="node14" class="node"><title>Node27</title>
<g id="a_node14"><a xlink:href="interface_2leds_2_l_e_ds_8cpp.html" target="_top" xlink:title="interface/leds/LEDs.cpp">
<polygon fill="white" stroke="black" points="770.57,-258.5 770.57,-279.5 912.57,-279.5 912.57,-258.5 770.57,-258.5"/>
<text text-anchor="middle" x="841.57" y="-265.9" font-family="Helvetica,sans-Serif" font-size="12.00">interface/leds/LEDs.cpp</text>
</a>
</g>
</g>
<!-- Node14&#45;&gt;Node27 -->
<g id="edge23" class="edge"><title>Node14&#45;&gt;Node27</title>
<path fill="none" stroke="midnightblue" d="M698.786,-313.456C732.562,-303.176 779.636,-288.849 810.352,-279.501"/>
<polygon fill="midnightblue" stroke="midnightblue" points="697.748,-310.113 689.201,-316.373 699.787,-316.81 697.748,-310.113"/>
</g>
<!-- Node16 -->
<g id="node3" class="node"><title>Node16</title>
<g id="a_node3"><a xlink:href="_open_deck_8h.html" target="_top" xlink:title="OpenDeck.h">
<polygon fill="white" stroke="black" points="398.57,-200.5 398.57,-221.5 480.57,-221.5 480.57,-200.5 398.57,-200.5"/>
<text text-anchor="middle" x="439.57" y="-207.9" font-family="Helvetica,sans-Serif" font-size="12.00">OpenDeck.h</text>
</a>
</g>
</g>
<!-- Node15&#45;&gt;Node16 -->
<g id="edge2" class="edge"><title>Node15&#45;&gt;Node16</title>
<path fill="none" stroke="midnightblue" d="M540.23,-254.383C516.041,-244.199 483.575,-230.528 462.135,-221.501"/>
<polygon fill="midnightblue" stroke="midnightblue" points="539.132,-257.718 549.706,-258.373 541.848,-251.267 539.132,-257.718"/>
</g>
<!-- Node17 -->
<g id="node4" class="node"><title>Node17</title>
<g id="a_node4"><a xlink:href="_init_8cpp.html" target="_top" xlink:title="Init.cpp">
<polygon fill="white" stroke="black" points="339.07,-136 339.07,-157 392.07,-157 392.07,-136 339.07,-136"/>
<text text-anchor="middle" x="365.57" y="-143.4" font-family="Helvetica,sans-Serif" font-size="12.00">Init.cpp</text>
</a>
</g>
</g>
<!-- Node16&#45;&gt;Node17 -->
<g id="edge3" class="edge"><title>Node16&#45;&gt;Node17</title>
<path fill="none" stroke="midnightblue" d="M420.161,-193.607C406.55,-182.111 388.8,-167.12 377.295,-157.403"/>
<polygon fill="midnightblue" stroke="midnightblue" points="418.109,-196.456 428.007,-200.234 422.626,-191.108 418.109,-196.456"/>
</g>
<!-- Node18 -->
<g id="node5" class="node"><title>Node18</title>
<g id="a_node5"><a xlink:href="interface_2buttons_2_buttons_8h.html" target="_top" xlink:title="interface/buttons/Buttons.h">
<polygon fill="white" stroke="black" points="16.07,-136 16.07,-157 169.07,-157 169.07,-136 16.07,-136"/>
<text text-anchor="middle" x="92.57" y="-143.4" font-family="Helvetica,sans-Serif" font-size="12.00">interface/buttons/Buttons.h</text>
</a>
</g>
</g>
<!-- Node16&#45;&gt;Node18 -->
<g id="edge4" class="edge"><title>Node16&#45;&gt;Node18</title>
<path fill="none" stroke="midnightblue" d="M388.414,-200.832C336.735,-191.565 254.602,-176.821 183.57,-164 171.087,-161.747 157.643,-159.313 145.019,-157.025"/>
<polygon fill="midnightblue" stroke="midnightblue" points="387.871,-204.291 398.332,-202.611 389.106,-197.401 387.871,-204.291"/>
</g>
<!-- Node19 -->
<g id="node6" class="node"><title>Node19</title>
<g id="a_node6"><a xlink:href="interface_2analog_2_analog_8h.html" target="_top" xlink:title="interface/analog/Analog.h">
<polygon fill="white" stroke="black" points="387.07,-65 387.07,-86 536.07,-86 536.07,-65 387.07,-65"/>
<text text-anchor="middle" x="461.57" y="-72.4" font-family="Helvetica,sans-Serif" font-size="12.00">interface/analog/Analog.h</text>
</a>
</g>
</g>
<!-- Node16&#45;&gt;Node19 -->
<g id="edge12" class="edge"><title>Node16&#45;&gt;Node19</title>
<path fill="none" stroke="midnightblue" d="M442.833,-190.198C447.638,-161.041 456.433,-107.675 460.002,-86.014"/>
<polygon fill="midnightblue" stroke="midnightblue" points="439.325,-189.963 441.152,-200.399 446.232,-191.101 439.325,-189.963"/>
</g>
<!-- Node16&#45;&gt;Node21 -->
<g id="edge16" class="edge"><title>Node16&#45;&gt;Node21</title>
<path fill="none" stroke="midnightblue" d="M454.13,-192.389C468.154,-175.672 490.182,-150.044 510.57,-129 526.652,-112.4 567.457,-70.9949 586.57,-58 609.227,-42.5955 637.847,-29.7147 658.112,-21.5385"/>
<polygon fill="midnightblue" stroke="midnightblue" points="451.294,-190.325 447.578,-200.247 456.67,-194.808 451.294,-190.325"/>
</g>
<!-- Node22 -->
<g id="node9" class="node"><title>Node22</title>
<g id="a_node9"><a xlink:href="_potentiometer_8cpp.html" target="_top" xlink:title="interface/analog/Potentiometer.cpp">
<polygon fill="white" stroke="black" points="211.07,-0.5 211.07,-21.5 410.07,-21.5 410.07,-0.5 211.07,-0.5"/>
<text text-anchor="middle" x="310.57" y="-7.9" font-family="Helvetica,sans-Serif" font-size="12.00">interface/analog/Potentiometer.cpp</text>
</a>
</g>
</g>
<!-- Node16&#45;&gt;Node22 -->
<g id="edge17" class="edge"><title>Node16&#45;&gt;Node22</title>
<path fill="none" stroke="midnightblue" d="M431.705,-190.881C424.487,-174.088 413.045,-149.247 400.57,-129 374.356,-86.4551 335.858,-40.8395 319,-21.5164"/>
<polygon fill="midnightblue" stroke="midnightblue" points="428.517,-192.328 435.625,-200.184 434.967,-189.61 428.517,-192.328"/>
</g>
<!-- Node16&#45;&gt;Node23 -->
<g id="edge18" class="edge"><title>Node16&#45;&gt;Node23</title>
<path fill="none" stroke="midnightblue" d="M388.181,-207.044C341.294,-202.618 271.197,-191.571 216.57,-164 195.778,-153.506 196.218,-142.952 177.57,-129 155.349,-112.375 127.701,-96.0232 110.09,-86.0975"/>
<polygon fill="midnightblue" stroke="midnightblue" points="388.137,-210.553 398.404,-207.938 388.747,-203.58 388.137,-210.553"/>
</g>
<!-- Node24 -->
<g id="node11" class="node"><title>Node24</title>
<g id="a_node11"><a xlink:href="interface_2encoders_2_encoders_8h.html" target="_top" xlink:title="interface/encoders\l/Encoders.h">
<polygon fill="white" stroke="black" points="601.07,-129.5 601.07,-163.5 714.07,-163.5 714.07,-129.5 601.07,-129.5"/>
<text text-anchor="start" x="609.07" y="-149.9" font-family="Helvetica,sans-Serif" font-size="12.00">interface/encoders</text>
<text text-anchor="middle" x="657.57" y="-136.9" font-family="Helvetica,sans-Serif" font-size="12.00">/Encoders.h</text>
</a>
</g>
</g>
<!-- Node16&#45;&gt;Node24 -->
<g id="edge13" class="edge"><title>Node16&#45;&gt;Node24</title>
<path fill="none" stroke="midnightblue" d="M482.807,-197.604C516.829,-187.85 564.501,-174.183 601.463,-163.586"/>
<polygon fill="midnightblue" stroke="midnightblue" points="481.803,-194.251 473.155,-200.371 483.732,-200.98 481.803,-194.251"/>
</g>
<!-- Node25 -->
<g id="node12" class="node"><title>Node25</title>
<g id="a_node12"><a xlink:href="interface_2encoders_2_encoders_8cpp.html" target="_top" xlink:title="interface/encoders\l/Encoders.cpp">
<polygon fill="white" stroke="black" points="596.07,-58.5 596.07,-92.5 709.07,-92.5 709.07,-58.5 596.07,-58.5"/>
<text text-anchor="start" x="604.07" y="-78.9" font-family="Helvetica,sans-Serif" font-size="12.00">interface/encoders</text>
<text text-anchor="middle" x="652.57" y="-65.9" font-family="Helvetica,sans-Serif" font-size="12.00">/Encoders.cpp</text>
</a>
</g>
</g>
<!-- Node16&#45;&gt;Node25 -->
<g id="edge19" class="edge"><title>Node16&#45;&gt;Node25</title>
<path fill="none" stroke="midnightblue" d="M463.547,-194.972C503.945,-169.652 585.228,-118.707 626.801,-92.651"/>
<polygon fill="midnightblue" stroke="midnightblue" points="461.503,-192.123 454.888,-200.399 465.22,-198.054 461.503,-192.123"/>
</g>
<!-- Node26 -->
<g id="node13" class="node"><title>Node26</title>
<g id="a_node13"><a xlink:href="_open_deck_8cpp.html" target="_top" xlink:title="OpenDeck.cpp">
<polygon fill="white" stroke="black" points="226.07,-136 226.07,-157 321.07,-157 321.07,-136 226.07,-136"/>
<text text-anchor="middle" x="273.57" y="-143.4" font-family="Helvetica,sans-Serif" font-size="12.00">OpenDeck.cpp</text>
</a>
</g>
</g>
<!-- Node16&#45;&gt;Node26 -->
<g id="edge20" class="edge"><title>Node16&#45;&gt;Node26</title>
<path fill="none" stroke="midnightblue" d="M404.26,-196.705C372.635,-184.799 327.03,-167.628 298.9,-157.037"/>
<polygon fill="midnightblue" stroke="midnightblue" points="403.404,-200.123 413.996,-200.371 405.871,-193.572 403.404,-200.123"/>
</g>
<!-- Node18&#45;&gt;Node15 -->
<g id="edge10" class="edge"><title>Node18&#45;&gt;Node15</title>
<path fill="none" stroke="midnightblue" d="M140.599,-159.557C236.05,-183.519 447.857,-236.692 534.504,-258.444"/>
<polygon fill="midnightblue" stroke="midnightblue" points="141.191,-156.097 130.64,-157.057 139.487,-162.887 141.191,-156.097"/>
</g>
<!-- Node18&#45;&gt;Node19 -->
<g id="edge5" class="edge"><title>Node18&#45;&gt;Node19</title>
<path fill="none" stroke="midnightblue" d="M153.745,-134.061C225.591,-120.626 343.46,-98.5856 410.58,-86.0347"/>
<polygon fill="midnightblue" stroke="midnightblue" points="152.677,-130.7 143.49,-135.978 153.963,-137.581 152.677,-130.7"/>
</g>
<!-- Node18&#45;&gt;Node23 -->
<g id="edge11" class="edge"><title>Node18&#45;&gt;Node23</title>
<path fill="none" stroke="midnightblue" d="M92.57,-125.588C92.57,-112.578 92.57,-96.1754 92.57,-86.0127"/>
<polygon fill="midnightblue" stroke="midnightblue" points="89.0701,-125.906 92.57,-135.906 96.0701,-125.906 89.0701,-125.906"/>
</g>
<!-- Node19&#45;&gt;Node15 -->
<g id="edge6" class="edge"><title>Node19&#45;&gt;Node15</title>
<path fill="none" stroke="midnightblue" d="M472.253,-94.9307C495.36,-134.796 549.319,-227.886 566.913,-258.24"/>
<polygon fill="midnightblue" stroke="midnightblue" points="475.127,-92.9094 467.084,-86.0129 469.071,-96.4198 475.127,-92.9094"/>
</g>
<!-- Node20 -->
<g id="node7" class="node"><title>Node20</title>
<g id="a_node7"><a xlink:href="interface_2analog_2_analog_8cpp.html" target="_top" xlink:title="interface/analog/Analog.cpp">
<polygon fill="white" stroke="black" points="428.57,-0.5 428.57,-21.5 590.57,-21.5 590.57,-0.5 428.57,-0.5"/>
<text text-anchor="middle" x="509.57" y="-7.9" font-family="Helvetica,sans-Serif" font-size="12.00">interface/analog/Analog.cpp</text>
</a>
</g>
</g>
<!-- Node19&#45;&gt;Node20 -->
<g id="edge7" class="edge"><title>Node19&#45;&gt;Node20</title>
<path fill="none" stroke="midnightblue" d="M475.17,-56.7911C483.852,-45.4875 494.783,-31.2535 501.964,-21.9033"/>
<polygon fill="midnightblue" stroke="midnightblue" points="472.385,-54.6715 469.07,-64.7344 477.937,-58.9353 472.385,-54.6715"/>
</g>
<!-- Node19&#45;&gt;Node21 -->
<g id="edge8" class="edge"><title>Node19&#45;&gt;Node21</title>
<path fill="none" stroke="midnightblue" d="M505.535,-62.1224C547.901,-50.195 611.098,-32.4032 649.694,-21.537"/>
<polygon fill="midnightblue" stroke="midnightblue" points="504.448,-58.7923 495.771,-64.8713 506.345,-65.5303 504.448,-58.7923"/>
</g>
<!-- Node19&#45;&gt;Node22 -->
<g id="edge9" class="edge"><title>Node19&#45;&gt;Node22</title>
<path fill="none" stroke="midnightblue" d="M428.7,-60.895C399.966,-49.0017 358.978,-32.0364 333.611,-21.537"/>
<polygon fill="midnightblue" stroke="midnightblue" points="427.729,-64.2808 438.307,-64.8713 430.406,-57.8129 427.729,-64.2808"/>
</g>
<!-- Node24&#45;&gt;Node15 -->
<g id="edge14" class="edge"><title>Node24&#45;&gt;Node15</title>
<path fill="none" stroke="midnightblue" d="M640.367,-171.888C621.67,-198.393 592.706,-239.454 579.526,-258.139"/>
<polygon fill="midnightblue" stroke="midnightblue" points="643.372,-173.7 646.276,-163.511 637.652,-169.665 643.372,-173.7"/>
</g>
<!-- Node24&#45;&gt;Node25 -->
<g id="edge15" class="edge"><title>Node24&#45;&gt;Node25</title>
<path fill="none" stroke="midnightblue" d="M655.668,-119.247C655.026,-110.392 654.328,-100.767 653.758,-92.8958"/>
<polygon fill="midnightblue" stroke="midnightblue" points="652.197,-119.776 656.41,-129.497 659.178,-119.27 652.197,-119.776"/>
</g>
</g>
</svg>
        <g id="navigator" transform="translate(0 0)" fill="#404254">
                <rect fill="#f2f5e9" fill-opacity="0.5" stroke="#606060" stroke-width=".5" x="0" y="0" width="60" height="60"/>
                <use id="zoomplus" xlink:href="#zoomPlus" x="17" y="9" onmousedown="handleZoom(evt,'in')"/>
                <use id="zoomminus" xlink:href="#zoomMin" x="42" y="9" onmousedown="handleZoom(evt,'out')"/>
                <use id="reset" xlink:href="#resetDef" x="30" y="36" onmousedown="handleReset()"/>
                <g id="arrowUp" xlink:href="#dirArrow" transform="translate(30 24)" onmousedown="handlePan(0,-1)">
                  <use xlink:href="#rim" fill="#404040">
                        <set attributeName="fill" to="#808080" begin="arrowUp.mouseover" end="arrowUp.mouseout"/>
                  </use>
                  <path fill="none" stroke="white" stroke-width="1.5" d="M0,-3.0v7 M-2.5,-0.5L0,-3.0L2.5,-0.5"/>
                </g>
                <g id="arrowRight" xlink:href="#dirArrow" transform="rotate(90) translate(36 -43)" onmousedown="handlePan(1,0)">
                  <use xlink:href="#rim" fill="#404040">
                        <set attributeName="fill" to="#808080" begin="arrowRight.mouseover" end="arrowRight.mouseout"/>
                  </use>
                  <path fill="none" stroke="white" stroke-width="1.5" d="M0,-3.0v7 M-2.5,-0.5L0,-3.0L2.5,-0.5"/>
                </g>
                <g id="arrowDown" xlink:href="#dirArrow" transform="rotate(180) translate(-30 -48)" onmousedown="handlePan(0,1)">
                  <use xlink:href="#rim" fill="#404040">
                        <set attributeName="fill" to="#808080" begin="arrowDown.mouseover" end="arrowDown.mouseout"/>
                  </use>
                  <path fill="none" stroke="white" stroke-width="1.5" d="M0,-3.0v7 M-2.5,-0.5L0,-3.0L2.5,-0.5"/>
                </g>
                <g id="arrowLeft" xlink:href="#dirArrow" transform="rotate(270) translate(-36 17)" onmousedown="handlePan(-1,0)">
                  <use xlink:href="#rim" fill="#404040">
                        <set attributeName="fill" to="#808080" begin="arrowLeft.mouseover" end="arrowLeft.mouseout"/>
                  </use>
                  <path fill="none" stroke="white" stroke-width="1.5" d="M0,-3.0v7 M-2.5,-0.5L0,-3.0L2.5,-0.5"/>
                </g>
        </g>
        <svg viewBox="0 0 15 15" width="100%" height="30px" preserveAspectRatio="xMaxYMin meet">
         <g id="arrow_out" transform="scale(0.3 0.3)">
          <a xlink:href="interface_2leds_2_l_e_ds_8h__dep__incl_org.svg" target="_base">
           <rect id="button" ry="5" rx="5" y="6" x="6" height="38" width="38"
                fill="#f2f5e9" fill-opacity="0.5" stroke="#606060" stroke-width="1.0"/>
           <path id="arrow"
             d="M 11.500037,31.436501 C 11.940474,20.09759 22.043105,11.32322 32.158766,21.979434 L 37.068811,17.246167 C 37.068811,17.246167 37.088388,32 37.088388,32 L 22.160133,31.978069 C 22.160133,31.978069 26.997745,27.140456 26.997745,27.140456 C 18.528582,18.264221 13.291696,25.230495 11.500037,31.436501 z"
             style="fill:#404040;"/>
          </a>
         </g>
        </svg>
</svg>
