<?xml version="1.0" encoding="UTF-8" standalone="no"?>
<!DOCTYPE svg PUBLIC "-//W3C//DTD SVG 1.1//EN"
 "http://www.w3.org/Graphics/SVG/1.1/DTD/svg11.dtd">
<!-- Generated by graphviz version 2.38.0 (20140413.2041)
 -->
<!-- Title: interface/buttons/Buttons.cpp Pages: 1 -->
<svg width="866pt" height="552pt"
 viewBox="0.00 0.00 866.38 552.00" xmlns="http://www.w3.org/2000/svg" xmlns:xlink="http://www.w3.org/1999/xlink">
<g id="graph0" class="graph" transform="scale(1 1) rotate(0) translate(4 548)">
<title>interface/buttons/Buttons.cpp</title>
<polygon fill="white" stroke="none" points="-4,4 -4,-548 862.384,-548 862.384,4 -4,4"/>
<!-- Node0 -->
<g id="node1" class="node"><title>Node0</title>
<polygon fill="#bfbfbf" stroke="black" points="154.574,-522.5 154.574,-543.5 321.574,-543.5 321.574,-522.5 154.574,-522.5"/>
<text text-anchor="middle" x="238.074" y="-529.9" font-family="Helvetica,sans-Serif" font-size="12.00">interface/buttons/Buttons.cpp</text>
</g>
<!-- Node1 -->
<g id="node2" class="node"><title>Node1</title>
<g id="a_node2"><a xlink:href="interface_2buttons_2_buttons_8h.html" target="_top" xlink:title="Buttons.h">
<polygon fill="white" stroke="black" points="205.574,-464.5 205.574,-485.5 270.574,-485.5 270.574,-464.5 205.574,-464.5"/>
<text text-anchor="middle" x="238.074" y="-471.9" font-family="Helvetica,sans-Serif" font-size="12.00">Buttons.h</text>
</a>
</g>
</g>
<!-- Node0&#45;&gt;Node1 -->
<g id="edge1" class="edge"><title>Node0&#45;&gt;Node1</title>
<path fill="none" stroke="midnightblue" d="M238.074,-522.246C238.074,-514.938 238.074,-504.694 238.074,-495.705"/>
<polygon fill="midnightblue" stroke="midnightblue" points="241.574,-495.643 238.074,-485.643 234.574,-495.643 241.574,-495.643"/>
</g>
<!-- Node3 -->
<g id="node4" class="node"><title>Node3</title>
<g id="a_node4"><a xlink:href="midi_2src_2_m_i_d_i_8h.html" target="_top" xlink:title="../../midi/src/MIDI.h">
<polygon fill="white" stroke="black" points="29.574,-290.5 29.574,-311.5 140.574,-311.5 140.574,-290.5 29.574,-290.5"/>
<text text-anchor="middle" x="85.074" y="-297.9" font-family="Helvetica,sans-Serif" font-size="12.00">../../midi/src/MIDI.h</text>
</a>
</g>
</g>
<!-- Node0&#45;&gt;Node3 -->
<g id="edge46" class="edge"><title>Node0&#45;&gt;Node3</title>
<path fill="none" stroke="midnightblue" d="M224.338,-522.487C200.871,-505.678 152.638,-468.639 122.074,-428 104.869,-405.123 102.278,-397.424 94.074,-370 89.3812,-354.313 87.1331,-335.86 86.0574,-322.138"/>
<polygon fill="midnightblue" stroke="midnightblue" points="89.5331,-321.645 85.4016,-311.889 82.5474,-322.092 89.5331,-321.645"/>
</g>
<!-- Node5 -->
<g id="node6" class="node"><title>Node5</title>
<g id="a_node6"><a xlink:href="_open_deck_8h.html" target="_top" xlink:title="../../OpenDeck.h">
<polygon fill="white" stroke="black" points="368.074,-406.5 368.074,-427.5 468.074,-427.5 468.074,-406.5 368.074,-406.5"/>
<text text-anchor="middle" x="418.074" y="-413.9" font-family="Helvetica,sans-Serif" font-size="12.00">../../OpenDeck.h</text>
</a>
</g>
</g>
<!-- Node0&#45;&gt;Node5 -->
<g id="edge47" class="edge"><title>Node0&#45;&gt;Node5</title>
<path fill="none" stroke="midnightblue" d="M253.111,-522.477C284.346,-502.694 356.473,-457.014 394.16,-433.146"/>
<polygon fill="midnightblue" stroke="midnightblue" points="396.378,-435.884 402.953,-427.577 392.632,-429.97 396.378,-435.884"/>
</g>
<!-- Node6 -->
<g id="node7" class="node"><title>Node6</title>
<g id="a_node7"><a xlink:href="_database_8h.html" target="_top" xlink:title="database/Database.h">
<polygon fill="white" stroke="black" points="223.074,-174.5 223.074,-195.5 353.074,-195.5 353.074,-174.5 223.074,-174.5"/>
<text text-anchor="middle" x="288.074" y="-181.9" font-family="Helvetica,sans-Serif" font-size="12.00">database/Database.h</text>
</a>
</g>
</g>
<!-- Node0&#45;&gt;Node6 -->
<g id="edge44" class="edge"><title>Node0&#45;&gt;Node6</title>
<path fill="none" stroke="midnightblue" d="M154.517,-525.515C86.283,-515.11 1.07404,-488.086 1.07404,-418 1.07404,-418 1.07404,-418 1.07404,-300 1.07404,-268.62 -3.22213,-253.023 20.074,-232 47.7996,-206.979 143.624,-195.316 212.78,-190.056"/>
<polygon fill="midnightblue" stroke="midnightblue" points="213.06,-193.544 222.779,-189.325 212.55,-186.563 213.06,-193.544"/>
</g>
<!-- Node29 -->
<g id="node30" class="node"><title>Node29</title>
<g id="a_node30"><a xlink:href="interface_2leds_2_l_e_ds_8h.html" target="_top" xlink:title="leds/LEDs.h">
<polygon fill="white" stroke="black" points="500.074,-290.5 500.074,-311.5 580.074,-311.5 580.074,-290.5 500.074,-290.5"/>
<text text-anchor="middle" x="540.074" y="-297.9" font-family="Helvetica,sans-Serif" font-size="12.00">leds/LEDs.h</text>
</a>
</g>
</g>
<!-- Node0&#45;&gt;Node29 -->
<g id="edge45" class="edge"><title>Node0&#45;&gt;Node29</title>
<path fill="none" stroke="midnightblue" d="M301.73,-522.477C431.771,-501.586 720.524,-447.349 778.074,-370 852.097,-270.511 978.133,-387.198 590.031,-312.154"/>
<polygon fill="midnightblue" stroke="midnightblue" points="590.662,-308.711 580.177,-310.229 589.32,-315.581 590.662,-308.711"/>
</g>
<!-- Node2 -->
<g id="node3" class="node"><title>Node2</title>
<g id="a_node3"><a xlink:href="_board_8h.html" target="_top" xlink:title="../../board/Board.h">
<polygon fill="white" stroke="black" points="253.074,-232.5 253.074,-253.5 363.074,-253.5 363.074,-232.5 253.074,-232.5"/>
<text text-anchor="middle" x="308.074" y="-239.9" font-family="Helvetica,sans-Serif" font-size="12.00">../../board/Board.h</text>
</a>
</g>
</g>
<!-- Node1&#45;&gt;Node2 -->
<g id="edge2" class="edge"><title>Node1&#45;&gt;Node2</title>
<path fill="none" stroke="midnightblue" d="M241.363,-464.152C244.451,-454.853 249.166,-440.508 253.074,-428 271.745,-368.243 292.616,-297.155 302.415,-263.508"/>
<polygon fill="midnightblue" stroke="midnightblue" points="305.864,-264.183 305.295,-253.603 299.142,-262.229 305.864,-264.183"/>
</g>
<!-- Node1&#45;&gt;Node3 -->
<g id="edge3" class="edge"><title>Node1&#45;&gt;Node3</title>
<path fill="none" stroke="midnightblue" d="M205.246,-464.678C184.883,-457.477 159.392,-445.703 142.074,-428 112.267,-397.529 96.3881,-348.721 89.455,-321.666"/>
<polygon fill="midnightblue" stroke="midnightblue" points="92.8295,-320.729 87.0857,-311.826 86.0241,-322.368 92.8295,-320.729"/>
</g>
<!-- Node4 -->
<g id="node5" class="node"><title>Node4</title>
<g id="a_node5"><a xlink:href="interface_2buttons_2_data_types_8h.html" target="_top" xlink:title="DataTypes.h">
<polygon fill="white" stroke="black" points="161.574,-406.5 161.574,-427.5 244.574,-427.5 244.574,-406.5 161.574,-406.5"/>
<text text-anchor="middle" x="203.074" y="-413.9" font-family="Helvetica,sans-Serif" font-size="12.00">DataTypes.h</text>
</a>
</g>
</g>
<!-- Node1&#45;&gt;Node4 -->
<g id="edge4" class="edge"><title>Node1&#45;&gt;Node4</title>
<path fill="none" stroke="midnightblue" d="M231.978,-464.246C227.159,-456.537 220.299,-445.56 214.471,-436.235"/>
<polygon fill="midnightblue" stroke="midnightblue" points="217.369,-434.268 209.101,-427.643 211.433,-437.978 217.369,-434.268"/>
</g>
<!-- Node1&#45;&gt;Node5 -->
<g id="edge5" class="edge"><title>Node1&#45;&gt;Node5</title>
<path fill="none" stroke="midnightblue" d="M269.017,-464.373C299.078,-455.021 344.877,-440.773 377.772,-430.538"/>
<polygon fill="midnightblue" stroke="midnightblue" points="379.026,-433.814 387.535,-427.501 376.946,-427.13 379.026,-433.814"/>
</g>
<!-- Node5&#45;&gt;Node2 -->
<g id="edge24" class="edge"><title>Node5&#45;&gt;Node2</title>
<path fill="none" stroke="midnightblue" d="M396.906,-406.352C381.889,-398.515 362.305,-386.126 350.074,-370 325.445,-337.528 314.804,-289.832 310.576,-263.413"/>
<polygon fill="midnightblue" stroke="midnightblue" points="314.037,-262.892 309.135,-253.5 307.11,-263.9 314.037,-262.892"/>
</g>
<!-- Node5&#45;&gt;Node6 -->
<g id="edge6" class="edge"><title>Node5&#45;&gt;Node6</title>
<path fill="none" stroke="midnightblue" d="M468.31,-413.885C554.258,-409.561 725.356,-397.68 778.074,-370 815.62,-350.286 844.026,-330.046 830.074,-290 819.249,-258.931 813.004,-247.669 784.074,-232 713.417,-193.732 483.974,-186.783 363.508,-185.848"/>
<polygon fill="midnightblue" stroke="midnightblue" points="363.282,-182.347 353.259,-185.781 363.236,-189.347 363.282,-182.347"/>
</g>
<!-- Node17 -->
<g id="node18" class="node"><title>Node17</title>
<g id="a_node18"><a xlink:href="_sys_ex_8h.html" target="_top" xlink:title="sysex/src/SysEx.h">
<polygon fill="white" stroke="black" points="659.074,-348.5 659.074,-369.5 769.074,-369.5 769.074,-348.5 659.074,-348.5"/>
<text text-anchor="middle" x="714.074" y="-355.9" font-family="Helvetica,sans-Serif" font-size="12.00">sysex/src/SysEx.h</text>
</a>
</g>
</g>
<!-- Node5&#45;&gt;Node17 -->
<g id="edge17" class="edge"><title>Node5&#45;&gt;Node17</title>
<path fill="none" stroke="midnightblue" d="M468.286,-406.5C519.528,-396.806 599.077,-381.756 653.715,-371.419"/>
<polygon fill="midnightblue" stroke="midnightblue" points="654.44,-374.844 663.615,-369.546 653.139,-367.966 654.44,-374.844"/>
</g>
<!-- Node20 -->
<g id="node21" class="node"><title>Node20</title>
<g id="a_node21"><a xlink:href="_version_8h.html" target="_top" xlink:title="version/Version.h">
<polygon fill="white" stroke="black" points="533.574,-348.5 533.574,-369.5 640.574,-369.5 640.574,-348.5 533.574,-348.5"/>
<text text-anchor="middle" x="587.074" y="-355.9" font-family="Helvetica,sans-Serif" font-size="12.00">version/Version.h</text>
</a>
</g>
</g>
<!-- Node5&#45;&gt;Node20 -->
<g id="edge22" class="edge"><title>Node5&#45;&gt;Node20</title>
<path fill="none" stroke="midnightblue" d="M447.126,-406.373C475.228,-397.061 517.979,-382.895 548.835,-372.671"/>
<polygon fill="midnightblue" stroke="midnightblue" points="550.009,-375.969 558.401,-369.501 547.808,-369.324 550.009,-375.969"/>
</g>
<!-- Node22 -->
<g id="node23" class="node"><title>Node22</title>
<g id="a_node23"><a xlink:href="_interface_8h.html" target="_top" xlink:title="interface/Interface.h">
<polygon fill="white" stroke="black" points="359.074,-348.5 359.074,-369.5 477.074,-369.5 477.074,-348.5 359.074,-348.5"/>
<text text-anchor="middle" x="418.074" y="-355.9" font-family="Helvetica,sans-Serif" font-size="12.00">interface/Interface.h</text>
</a>
</g>
</g>
<!-- Node5&#45;&gt;Node22 -->
<g id="edge25" class="edge"><title>Node5&#45;&gt;Node22</title>
<path fill="none" stroke="midnightblue" d="M418.074,-406.246C418.074,-398.938 418.074,-388.694 418.074,-379.705"/>
<polygon fill="midnightblue" stroke="midnightblue" points="421.574,-379.643 418.074,-369.643 414.574,-379.643 421.574,-379.643"/>
</g>
<!-- Node7 -->
<g id="node8" class="node"><title>Node7</title>
<g id="a_node8"><a xlink:href="_d_b_m_s_8h.html" target="_top" xlink:title="../dbms/src/DBMS.h">
<polygon fill="white" stroke="black" points="73.574,-116.5 73.574,-137.5 194.574,-137.5 194.574,-116.5 73.574,-116.5"/>
<text text-anchor="middle" x="134.074" y="-123.9" font-family="Helvetica,sans-Serif" font-size="12.00">../dbms/src/DBMS.h</text>
</a>
</g>
</g>
<!-- Node6&#45;&gt;Node7 -->
<g id="edge7" class="edge"><title>Node6&#45;&gt;Node7</title>
<path fill="none" stroke="midnightblue" d="M261.601,-174.373C236.214,-165.142 197.71,-151.14 169.652,-140.937"/>
<polygon fill="midnightblue" stroke="midnightblue" points="170.796,-137.629 160.202,-137.501 168.404,-144.208 170.796,-137.629"/>
</g>
<!-- Node10 -->
<g id="node11" class="node"><title>Node10</title>
<g id="a_node11"><a xlink:href="_blocks_8h.html" target="_top" xlink:title="blocks/Blocks.h">
<polygon fill="white" stroke="black" points="239.074,-116.5 239.074,-137.5 337.074,-137.5 337.074,-116.5 239.074,-116.5"/>
<text text-anchor="middle" x="288.074" y="-123.9" font-family="Helvetica,sans-Serif" font-size="12.00">blocks/Blocks.h</text>
</a>
</g>
</g>
<!-- Node6&#45;&gt;Node10 -->
<g id="edge10" class="edge"><title>Node6&#45;&gt;Node10</title>
<path fill="none" stroke="midnightblue" d="M288.074,-174.246C288.074,-166.938 288.074,-156.694 288.074,-147.705"/>
<polygon fill="midnightblue" stroke="midnightblue" points="291.574,-147.643 288.074,-137.643 284.574,-147.643 291.574,-147.643"/>
</g>
<!-- Node16 -->
<g id="node17" class="node"><title>Node16</title>
<g id="a_node17"><a xlink:href="database_2_config_8h.html" target="_top" xlink:title="Config.h">
<polygon fill="white" stroke="black" points="355.074,-116.5 355.074,-137.5 415.074,-137.5 415.074,-116.5 355.074,-116.5"/>
<text text-anchor="middle" x="385.074" y="-123.9" font-family="Helvetica,sans-Serif" font-size="12.00">Config.h</text>
</a>
</g>
</g>
<!-- Node6&#45;&gt;Node16 -->
<g id="edge16" class="edge"><title>Node6&#45;&gt;Node16</title>
<path fill="none" stroke="midnightblue" d="M304.97,-174.246C319.992,-165.573 342.178,-152.765 359.395,-142.825"/>
<polygon fill="midnightblue" stroke="midnightblue" points="361.461,-145.674 368.372,-137.643 357.961,-139.611 361.461,-145.674"/>
</g>
<!-- Node8 -->
<g id="node9" class="node"><title>Node8</title>
<g id="a_node9"><a xlink:href="dbms_2src_2_data_types_8h.html" target="_top" xlink:title="DataTypes.h">
<polygon fill="white" stroke="black" points="22.574,-58.5 22.574,-79.5 105.574,-79.5 105.574,-58.5 22.574,-58.5"/>
<text text-anchor="middle" x="64.074" y="-65.9" font-family="Helvetica,sans-Serif" font-size="12.00">DataTypes.h</text>
</a>
</g>
</g>
<!-- Node7&#45;&gt;Node8 -->
<g id="edge8" class="edge"><title>Node7&#45;&gt;Node8</title>
<path fill="none" stroke="midnightblue" d="M121.881,-116.246C111.442,-107.894 96.2086,-95.7076 84.0001,-85.9408"/>
<polygon fill="midnightblue" stroke="midnightblue" points="86.1225,-83.1566 76.1274,-79.6427 81.7497,-88.6227 86.1225,-83.1566"/>
</g>
<!-- Node9 -->
<g id="node10" class="node"><title>Node9</title>
<g id="a_node10"><a xlink:href="dbms_2src_2_config_8h.html" target="_top" xlink:title="Config.h">
<polygon fill="white" stroke="black" points="34.074,-0.5 34.074,-21.5 94.074,-21.5 94.074,-0.5 34.074,-0.5"/>
<text text-anchor="middle" x="64.074" y="-7.9" font-family="Helvetica,sans-Serif" font-size="12.00">Config.h</text>
</a>
</g>
</g>
<!-- Node8&#45;&gt;Node9 -->
<g id="edge9" class="edge"><title>Node8&#45;&gt;Node9</title>
<path fill="none" stroke="midnightblue" d="M64.074,-58.2455C64.074,-50.9382 64.074,-40.6944 64.074,-31.7046"/>
<polygon fill="midnightblue" stroke="midnightblue" points="67.5741,-31.6426 64.074,-21.6427 60.5741,-31.6427 67.5741,-31.6426"/>
</g>
<!-- Node11 -->
<g id="node12" class="node"><title>Node11</title>
<g id="a_node12"><a xlink:href="database_2blocks_2_m_i_d_i_8h.html" target="_top" xlink:title="MIDI.h">
<polygon fill="white" stroke="black" points="455.574,-58.5 455.574,-79.5 504.574,-79.5 504.574,-58.5 455.574,-58.5"/>
<text text-anchor="middle" x="480.074" y="-65.9" font-family="Helvetica,sans-Serif" font-size="12.00">MIDI.h</text>
</a>
</g>
</g>
<!-- Node10&#45;&gt;Node11 -->
<g id="edge11" class="edge"><title>Node10&#45;&gt;Node11</title>
<path fill="none" stroke="midnightblue" d="M321.067,-116.423C351.038,-107.717 396.727,-94.4294 445.723,-80.0973"/>
<polygon fill="midnightblue" stroke="midnightblue" points="446.948,-83.3857 455.562,-77.218 444.982,-76.6674 446.948,-83.3857"/>
</g>
<!-- Node12 -->
<g id="node13" class="node"><title>Node12</title>
<g id="a_node13"><a xlink:href="database_2blocks_2_buttons_8h.html" target="_top" xlink:title="Buttons.h">
<polygon fill="white" stroke="black" points="123.574,-58.5 123.574,-79.5 188.574,-79.5 188.574,-58.5 123.574,-58.5"/>
<text text-anchor="middle" x="156.074" y="-65.9" font-family="Helvetica,sans-Serif" font-size="12.00">Buttons.h</text>
</a>
</g>
</g>
<!-- Node10&#45;&gt;Node12 -->
<g id="edge12" class="edge"><title>Node10&#45;&gt;Node12</title>
<path fill="none" stroke="midnightblue" d="M265.382,-116.373C244.003,-107.303 211.768,-93.6279 187.838,-83.4755"/>
<polygon fill="midnightblue" stroke="midnightblue" points="189.042,-80.1846 178.47,-79.5011 186.308,-86.6287 189.042,-80.1846"/>
</g>
<!-- Node13 -->
<g id="node14" class="node"><title>Node13</title>
<g id="a_node14"><a xlink:href="database_2blocks_2_encoders_8h.html" target="_top" xlink:title="Encoders.h">
<polygon fill="white" stroke="black" points="207.074,-58.5 207.074,-79.5 283.074,-79.5 283.074,-58.5 207.074,-58.5"/>
<text text-anchor="middle" x="245.074" y="-65.9" font-family="Helvetica,sans-Serif" font-size="12.00">Encoders.h</text>
</a>
</g>
</g>
<!-- Node10&#45;&gt;Node13 -->
<g id="edge13" class="edge"><title>Node10&#45;&gt;Node13</title>
<path fill="none" stroke="midnightblue" d="M280.584,-116.246C274.541,-108.376 265.884,-97.101 258.63,-87.6542"/>
<polygon fill="midnightblue" stroke="midnightblue" points="261.345,-85.4426 252.478,-79.6427 255.793,-89.7058 261.345,-85.4426"/>
</g>
<!-- Node14 -->
<g id="node15" class="node"><title>Node14</title>
<g id="a_node15"><a xlink:href="database_2blocks_2_analog_8h.html" target="_top" xlink:title="Analog.h">
<polygon fill="white" stroke="black" points="301.074,-58.5 301.074,-79.5 363.074,-79.5 363.074,-58.5 301.074,-58.5"/>
<text text-anchor="middle" x="332.074" y="-65.9" font-family="Helvetica,sans-Serif" font-size="12.00">Analog.h</text>
</a>
</g>
</g>
<!-- Node10&#45;&gt;Node14 -->
<g id="edge14" class="edge"><title>Node10&#45;&gt;Node14</title>
<path fill="none" stroke="midnightblue" d="M295.738,-116.246C301.921,-108.376 310.78,-97.101 318.203,-87.6542"/>
<polygon fill="midnightblue" stroke="midnightblue" points="321.072,-89.6683 324.498,-79.6427 315.567,-85.3435 321.072,-89.6683"/>
</g>
<!-- Node15 -->
<g id="node16" class="node"><title>Node15</title>
<g id="a_node16"><a xlink:href="database_2blocks_2_l_e_ds_8h.html" target="_top" xlink:title="LEDs.h">
<polygon fill="white" stroke="black" points="381.074,-58.5 381.074,-79.5 437.074,-79.5 437.074,-58.5 381.074,-58.5"/>
<text text-anchor="middle" x="409.074" y="-65.9" font-family="Helvetica,sans-Serif" font-size="12.00">LEDs.h</text>
</a>
</g>
</g>
<!-- Node10&#45;&gt;Node15 -->
<g id="edge15" class="edge"><title>Node10&#45;&gt;Node15</title>
<path fill="none" stroke="midnightblue" d="M308.875,-116.373C328.298,-107.384 357.496,-93.8706 379.37,-83.7471"/>
<polygon fill="midnightblue" stroke="midnightblue" points="380.94,-86.8776 388.545,-79.5011 378,-80.5249 380.94,-86.8776"/>
</g>
<!-- Node17&#45;&gt;Node3 -->
<g id="edge19" class="edge"><title>Node17&#45;&gt;Node3</title>
<path fill="none" stroke="midnightblue" d="M658.796,-349.185C655.51,-348.758 652.251,-348.358 649.074,-348 430.922,-323.406 372.152,-336.812 150.863,-312.127"/>
<polygon fill="midnightblue" stroke="midnightblue" points="151.214,-308.644 140.885,-311 150.429,-315.6 151.214,-308.644"/>
</g>
<!-- Node18 -->
<g id="node19" class="node"><title>Node18</title>
<g id="a_node19"><a xlink:href="sysex_2src_2_config_8h.html" target="_top" xlink:title="Config.h">
<polygon fill="white" stroke="black" points="715.074,-232.5 715.074,-253.5 775.074,-253.5 775.074,-232.5 715.074,-232.5"/>
<text text-anchor="middle" x="745.074" y="-239.9" font-family="Helvetica,sans-Serif" font-size="12.00">Config.h</text>
</a>
</g>
</g>
<!-- Node17&#45;&gt;Node18 -->
<g id="edge18" class="edge"><title>Node17&#45;&gt;Node18</title>
<path fill="none" stroke="midnightblue" d="M715.855,-348.226C718.361,-334.936 723.277,-310.472 729.074,-290 731.601,-281.076 734.9,-271.355 737.845,-263.157"/>
<polygon fill="midnightblue" stroke="midnightblue" points="741.133,-264.357 741.302,-253.764 734.564,-261.94 741.133,-264.357"/>
</g>
<!-- Node19 -->
<g id="node20" class="node"><title>Node19</title>
<g id="a_node20"><a xlink:href="sysex_2src_2_data_types_8h.html" target="_top" xlink:title="DataTypes.h">
<polygon fill="white" stroke="black" points="738.574,-290.5 738.574,-311.5 821.574,-311.5 821.574,-290.5 738.574,-290.5"/>
<text text-anchor="middle" x="780.074" y="-297.9" font-family="Helvetica,sans-Serif" font-size="12.00">DataTypes.h</text>
</a>
</g>
</g>
<!-- Node17&#45;&gt;Node19 -->
<g id="edge20" class="edge"><title>Node17&#45;&gt;Node19</title>
<path fill="none" stroke="midnightblue" d="M725.57,-348.246C735.318,-339.975 749.5,-327.942 760.954,-318.223"/>
<polygon fill="midnightblue" stroke="midnightblue" points="763.349,-320.781 768.709,-311.643 758.82,-315.444 763.349,-320.781"/>
</g>
<!-- Node19&#45;&gt;Node18 -->
<g id="edge21" class="edge"><title>Node19&#45;&gt;Node18</title>
<path fill="none" stroke="midnightblue" d="M773.978,-290.246C769.159,-282.537 762.299,-271.56 756.471,-262.235"/>
<polygon fill="midnightblue" stroke="midnightblue" points="759.369,-260.268 751.101,-253.643 753.433,-263.978 759.369,-260.268"/>
</g>
<!-- Node21 -->
<g id="node22" class="node"><title>Node21</title>
<g id="a_node22"><a xlink:href="version_2_data_types_8h.html" target="_top" xlink:title="DataTypes.h">
<polygon fill="white" stroke="black" points="598.574,-290.5 598.574,-311.5 681.574,-311.5 681.574,-290.5 598.574,-290.5"/>
<text text-anchor="middle" x="640.074" y="-297.9" font-family="Helvetica,sans-Serif" font-size="12.00">DataTypes.h</text>
</a>
</g>
</g>
<!-- Node20&#45;&gt;Node21 -->
<g id="edge23" class="edge"><title>Node20&#45;&gt;Node21</title>
<path fill="none" stroke="midnightblue" d="M596.306,-348.246C603.906,-340.216 614.862,-328.639 623.911,-319.078"/>
<polygon fill="midnightblue" stroke="midnightblue" points="626.616,-321.311 630.948,-311.643 621.532,-316.5 626.616,-321.311"/>
</g>
<!-- Node22&#45;&gt;Node1 -->
<g id="edge35" class="edge"><title>Node22&#45;&gt;Node1</title>
<path fill="none" stroke="midnightblue" d="M402.953,-369.577C371.645,-389.405 299.512,-435.089 261.887,-458.918"/>
<polygon fill="midnightblue" stroke="midnightblue" points="259.687,-456.169 253.111,-464.477 263.432,-462.083 259.687,-456.169"/>
</g>
<!-- Node23 -->
<g id="node24" class="node"><title>Node23</title>
<g id="a_node24"><a xlink:href="interface_2analog_2_analog_8h.html" target="_top" xlink:title="analog/Analog.h">
<polygon fill="white" stroke="black" points="158.574,-290.5 158.574,-311.5 259.574,-311.5 259.574,-290.5 158.574,-290.5"/>
<text text-anchor="middle" x="209.074" y="-297.9" font-family="Helvetica,sans-Serif" font-size="12.00">analog/Analog.h</text>
</a>
</g>
</g>
<!-- Node22&#45;&gt;Node23 -->
<g id="edge26" class="edge"><title>Node22&#45;&gt;Node23</title>
<path fill="none" stroke="midnightblue" d="M382.146,-348.373C346.79,-338.9 292.686,-324.403 254.395,-314.143"/>
<polygon fill="midnightblue" stroke="midnightblue" points="255.099,-310.709 244.534,-311.501 253.287,-317.47 255.099,-310.709"/>
</g>
<!-- Node27 -->
<g id="node28" class="node"><title>Node27</title>
<g id="a_node28"><a xlink:href="interface_2encoders_2_encoders_8h.html" target="_top" xlink:title="encoders/Encoders.h">
<polygon fill="white" stroke="black" points="354.074,-290.5 354.074,-311.5 482.074,-311.5 482.074,-290.5 354.074,-290.5"/>
<text text-anchor="middle" x="418.074" y="-297.9" font-family="Helvetica,sans-Serif" font-size="12.00">encoders/Encoders.h</text>
</a>
</g>
</g>
<!-- Node22&#45;&gt;Node27 -->
<g id="edge36" class="edge"><title>Node22&#45;&gt;Node27</title>
<path fill="none" stroke="midnightblue" d="M418.074,-348.246C418.074,-340.938 418.074,-330.694 418.074,-321.705"/>
<polygon fill="midnightblue" stroke="midnightblue" points="421.574,-321.643 418.074,-311.643 414.574,-321.643 421.574,-321.643"/>
</g>
<!-- Node22&#45;&gt;Node29 -->
<g id="edge40" class="edge"><title>Node22&#45;&gt;Node29</title>
<path fill="none" stroke="midnightblue" d="M439.047,-348.373C458.631,-339.384 488.07,-325.871 510.125,-315.747"/>
<polygon fill="midnightblue" stroke="midnightblue" points="511.747,-318.854 519.375,-311.501 508.827,-312.492 511.747,-318.854"/>
</g>
<!-- Node23&#45;&gt;Node1 -->
<g id="edge28" class="edge"><title>Node23&#45;&gt;Node1</title>
<path fill="none" stroke="midnightblue" d="M198.542,-311.537C176.066,-333.075 127.394,-386.81 152.074,-428 161.677,-444.027 178.979,-454.784 195.56,-461.836"/>
<polygon fill="midnightblue" stroke="midnightblue" points="194.586,-465.213 205.175,-465.572 197.121,-458.688 194.586,-465.213"/>
</g>
<!-- Node23&#45;&gt;Node2 -->
<g id="edge27" class="edge"><title>Node23&#45;&gt;Node2</title>
<path fill="none" stroke="midnightblue" d="M226.319,-290.246C241.65,-281.573 264.294,-268.765 281.866,-258.825"/>
<polygon fill="midnightblue" stroke="midnightblue" points="284.046,-261.613 291.027,-253.643 280.6,-255.52 284.046,-261.613"/>
</g>
<!-- Node23&#45;&gt;Node5 -->
<g id="edge34" class="edge"><title>Node23&#45;&gt;Node5</title>
<path fill="none" stroke="midnightblue" d="M223.034,-311.645C243.273,-325.428 282.167,-351.172 317.074,-370 339.371,-382.027 365.408,-393.834 385.461,-402.474"/>
<polygon fill="midnightblue" stroke="midnightblue" points="384.21,-405.746 394.781,-406.449 386.956,-399.307 384.21,-405.746"/>
</g>
<!-- Node23&#45;&gt;Node6 -->
<g id="edge29" class="edge"><title>Node23&#45;&gt;Node6</title>
<path fill="none" stroke="midnightblue" d="M213.021,-290.269C218.794,-276.603 230.356,-251.245 244.074,-232 251.539,-221.527 261.31,-211.07 269.747,-202.779"/>
<polygon fill="midnightblue" stroke="midnightblue" points="272.203,-205.273 277.016,-195.835 267.368,-200.211 272.203,-205.273"/>
</g>
<!-- Node24 -->
<g id="node25" class="node"><title>Node24</title>
<g id="a_node25"><a xlink:href="interface_2analog_2_data_types_8h.html" target="_top" xlink:title="DataTypes.h">
<polygon fill="white" stroke="black" points="29.574,-232.5 29.574,-253.5 112.574,-253.5 112.574,-232.5 29.574,-232.5"/>
<text text-anchor="middle" x="71.074" y="-239.9" font-family="Helvetica,sans-Serif" font-size="12.00">DataTypes.h</text>
</a>
</g>
</g>
<!-- Node23&#45;&gt;Node24 -->
<g id="edge30" class="edge"><title>Node23&#45;&gt;Node24</title>
<path fill="none" stroke="midnightblue" d="M185.351,-290.373C162.9,-281.263 129,-267.506 103.949,-257.34"/>
<polygon fill="midnightblue" stroke="midnightblue" points="105.07,-254.018 94.4875,-253.501 102.438,-260.504 105.07,-254.018"/>
</g>
<!-- Node25 -->
<g id="node26" class="node"><title>Node25</title>
<g id="a_node26"><a xlink:href="interface_2analog_2_config_8h.html" target="_top" xlink:title="Config.h">
<polygon fill="white" stroke="black" points="71.074,-174.5 71.074,-195.5 131.074,-195.5 131.074,-174.5 71.074,-174.5"/>
<text text-anchor="middle" x="101.074" y="-181.9" font-family="Helvetica,sans-Serif" font-size="12.00">Config.h</text>
</a>
</g>
</g>
<!-- Node23&#45;&gt;Node25 -->
<g id="edge31" class="edge"><title>Node23&#45;&gt;Node25</title>
<path fill="none" stroke="midnightblue" d="M158.151,-290.937C105.169,-280.993 28.7072,-264.986 20.074,-254 2.74691,-231.95 34.9274,-212.006 63.7089,-199.504"/>
<polygon fill="midnightblue" stroke="midnightblue" points="65.3568,-202.61 73.2628,-195.557 62.684,-196.14 65.3568,-202.61"/>
</g>
<!-- Node26 -->
<g id="node27" class="node"><title>Node26</title>
<g id="a_node27"><a xlink:href="interface_2analog_2_helpers_8h.html" target="_top" xlink:title="Helpers.h">
<polygon fill="white" stroke="black" points="131.074,-232.5 131.074,-253.5 197.074,-253.5 197.074,-232.5 131.074,-232.5"/>
<text text-anchor="middle" x="164.074" y="-239.9" font-family="Helvetica,sans-Serif" font-size="12.00">Helpers.h</text>
</a>
</g>
</g>
<!-- Node23&#45;&gt;Node26 -->
<g id="edge32" class="edge"><title>Node23&#45;&gt;Node26</title>
<path fill="none" stroke="midnightblue" d="M201.236,-290.246C194.912,-282.376 185.852,-271.101 178.26,-261.654"/>
<polygon fill="midnightblue" stroke="midnightblue" points="180.815,-259.245 171.823,-253.643 175.358,-263.63 180.815,-259.245"/>
</g>
<!-- Node26&#45;&gt;Node25 -->
<g id="edge33" class="edge"><title>Node26&#45;&gt;Node25</title>
<path fill="none" stroke="midnightblue" d="M153.1,-232.246C143.886,-224.055 130.521,-212.175 119.644,-202.507"/>
<polygon fill="midnightblue" stroke="midnightblue" points="121.721,-199.67 111.922,-195.643 117.071,-204.902 121.721,-199.67"/>
</g>
<!-- Node27&#45;&gt;Node2 -->
<g id="edge37" class="edge"><title>Node27&#45;&gt;Node2</title>
<path fill="none" stroke="midnightblue" d="M398.914,-290.246C381.563,-281.413 355.784,-268.289 336.116,-258.276"/>
<polygon fill="midnightblue" stroke="midnightblue" points="337.515,-255.06 327.015,-253.643 334.339,-261.299 337.515,-255.06"/>
</g>
<!-- Node27&#45;&gt;Node5 -->
<g id="edge39" class="edge"><title>Node27&#45;&gt;Node5</title>
<path fill="none" stroke="midnightblue" d="M442.9,-311.561C458.362,-318.966 476.985,-330.879 486.074,-348 497.753,-370.001 472.723,-389.454 449.805,-401.856"/>
<polygon fill="midnightblue" stroke="midnightblue" points="448.196,-398.748 440.881,-406.412 451.379,-404.983 448.196,-398.748"/>
</g>
<!-- Node28 -->
<g id="node29" class="node"><title>Node28</title>
<g id="a_node29"><a xlink:href="interface_2encoders_2_data_types_8h.html" target="_top" xlink:title="DataTypes.h">
<polygon fill="white" stroke="black" points="381.574,-232.5 381.574,-253.5 464.574,-253.5 464.574,-232.5 381.574,-232.5"/>
<text text-anchor="middle" x="423.074" y="-239.9" font-family="Helvetica,sans-Serif" font-size="12.00">DataTypes.h</text>
</a>
</g>
</g>
<!-- Node27&#45;&gt;Node28 -->
<g id="edge38" class="edge"><title>Node27&#45;&gt;Node28</title>
<path fill="none" stroke="midnightblue" d="M418.945,-290.246C419.597,-282.938 420.512,-272.694 421.315,-263.705"/>
<polygon fill="midnightblue" stroke="midnightblue" points="424.81,-263.914 422.213,-253.643 417.838,-263.292 424.81,-263.914"/>
</g>
<!-- Node30 -->
<g id="node31" class="node"><title>Node30</title>
<g id="a_node31"><a xlink:href="interface_2leds_2_data_types_8h.html" target="_top" xlink:title="DataTypes.h">
<polygon fill="white" stroke="black" points="482.574,-232.5 482.574,-253.5 565.574,-253.5 565.574,-232.5 482.574,-232.5"/>
<text text-anchor="middle" x="524.074" y="-239.9" font-family="Helvetica,sans-Serif" font-size="12.00">DataTypes.h</text>
</a>
</g>
</g>
<!-- Node29&#45;&gt;Node30 -->
<g id="edge41" class="edge"><title>Node29&#45;&gt;Node30</title>
<path fill="none" stroke="midnightblue" d="M537.287,-290.246C535.176,-282.858 532.208,-272.469 529.619,-263.409"/>
<polygon fill="midnightblue" stroke="midnightblue" points="532.942,-262.296 526.829,-253.643 526.211,-264.219 532.942,-262.296"/>
</g>
<!-- Node31 -->
<g id="node32" class="node"><title>Node31</title>
<g id="a_node32"><a xlink:href="interface_2leds_2_constants_8h.html" target="_top" xlink:title="Constants.h">
<polygon fill="white" stroke="black" points="584.074,-232.5 584.074,-253.5 662.074,-253.5 662.074,-232.5 584.074,-232.5"/>
<text text-anchor="middle" x="623.074" y="-239.9" font-family="Helvetica,sans-Serif" font-size="12.00">Constants.h</text>
</a>
</g>
</g>
<!-- Node29&#45;&gt;Node31 -->
<g id="edge42" class="edge"><title>Node29&#45;&gt;Node31</title>
<path fill="none" stroke="midnightblue" d="M554.532,-290.246C567.147,-281.734 585.668,-269.237 600.279,-259.38"/>
<polygon fill="midnightblue" stroke="midnightblue" points="602.45,-262.137 608.782,-253.643 598.535,-256.334 602.45,-262.137"/>
</g>
<!-- Node31&#45;&gt;Node6 -->
<g id="edge43" class="edge"><title>Node31&#45;&gt;Node6</title>
<path fill="none" stroke="midnightblue" d="M584.053,-233.883C580.682,-233.229 577.32,-232.592 574.074,-232 502.315,-218.913 420.063,-205.889 362.242,-197.058"/>
<polygon fill="midnightblue" stroke="midnightblue" points="362.512,-193.559 352.099,-195.514 361.458,-200.479 362.512,-193.559"/>
</g>
</g>
</svg>
