<?xml version="1.0" encoding="UTF-8" standalone="no"?>
<!DOCTYPE svg PUBLIC "-//W3C//DTD SVG 1.1//EN"
 "http://www.w3.org/Graphics/SVG/1.1/DTD/svg11.dtd">
<!-- Generated by graphviz version 2.38.0 (20140413.2041)
 -->
<!-- Title: interface/buttons/Buttons.h Pages: 1 -->
<!--zoomable 494 -->
<svg id="main" version="1.1" xmlns="http://www.w3.org/2000/svg" xmlns:xlink="http://www.w3.org/1999/xlink" xml:space="preserve" onload="init(evt)">
<style type="text/css"><![CDATA[
.edge:hover path { stroke: red; }
.edge:hover polygon { stroke: red; fill: red; }
]]></style>
<script type="text/javascript"><![CDATA[
var edges = document.getElementsByTagName('g');
if (edges && edges.length) {
  for (var i=0;i<edges.length;i++) {
    if (edges[i].id.substr(0,4)=='edge') {
      edges[i].setAttribute('class','edge');
    }
  }
}
]]></script>
        <defs>
                <circle id="rim" cx="0" cy="0" r="7"/>
                <circle id="rim2" cx="0" cy="0" r="3.5"/>
                <g id="zoomPlus">
                        <use xlink:href="#rim" fill="#404040">
                                <set attributeName="fill" to="#808080" begin="zoomplus.mouseover" end="zoomplus.mouseout"/>
                        </use>
                        <path d="M-4,0h8M0,-4v8" fill="none" stroke="white" stroke-width="1.5" pointer-events="none"/>
                </g>
                <g id="zoomMin">
                        <use xlink:href="#rim" fill="#404040">
                                <set attributeName="fill" to="#808080" begin="zoomminus.mouseover" end="zoomminus.mouseout"/>
                        </use>
                        <path d="M-4,0h8" fill="none" stroke="white" stroke-width="1.5" pointer-events="none"/>
                </g>
                <g id="dirArrow">
                        <path fill="none" stroke="white" stroke-width="1.5" d="M0,-3.0v7 M-2.5,-0.5L0,-3.0L2.5,-0.5"/>
                </g>
               <g id="resetDef">
                       <use xlink:href="#rim2" fill="#404040">
                               <set attributeName="fill" to="#808080" begin="reset.mouseover" end="reset.mouseout"/>
                       </use>
               </g>
        </defs>

<script type="text/javascript">
var viewWidth = 1070;
var viewHeight = 494;
var sectionId = 'dynsection-0';
</script>
<script xlink:href="svgpan.js"/>
<svg id="graph" class="graph">
<g id="viewport">
<title>interface/buttons/Buttons.h</title>
<polygon fill="white" stroke="none" points="-4,4 -4,-490 1065.5,-490 1065.5,4 -4,4"/>
<!-- Node0 -->
<g id="node1" class="node"><title>Node0</title>
<polygon fill="#bfbfbf" stroke="black" points="621.5,-464.5 621.5,-485.5 774.5,-485.5 774.5,-464.5 621.5,-464.5"/>
<text text-anchor="middle" x="698" y="-471.9" font-family="Helvetica,sans-Serif" font-size="12.00">interface/buttons/Buttons.h</text>
</g>
<!-- Node1 -->
<g id="node2" class="node"><title>Node1</title>
<g id="a_node2"><a xlink:href="_board_8h.html" target="_top" xlink:title="../../board/Board.h">
<polygon fill="white" stroke="black" points="644,-232.5 644,-253.5 754,-253.5 754,-232.5 644,-232.5"/>
<text text-anchor="middle" x="699" y="-239.9" font-family="Helvetica,sans-Serif" font-size="12.00">../../board/Board.h</text>
</a>
</g>
</g>
<!-- Node0&#45;&gt;Node1 -->
<g id="edge1" class="edge"><title>Node0&#45;&gt;Node1</title>
<path fill="none" stroke="midnightblue" d="M704.453,-464.128C721.925,-436.086 767.198,-353.854 742,-290 737.453,-278.477 728.507,-268.143 719.947,-260.202"/>
<polygon fill="midnightblue" stroke="midnightblue" points="722.185,-257.511 712.331,-253.618 717.606,-262.806 722.185,-257.511"/>
</g>
<!-- Node2 -->
<g id="node3" class="node"><title>Node2</title>
<g id="a_node3"><a xlink:href="midi_2src_2_m_i_d_i_8h.html" target="_top" xlink:title="../../midi/src/MIDI.h">
<polygon fill="white" stroke="black" points="950.5,-290.5 950.5,-311.5 1061.5,-311.5 1061.5,-290.5 950.5,-290.5"/>
<text text-anchor="middle" x="1006" y="-297.9" font-family="Helvetica,sans-Serif" font-size="12.00">../../midi/src/MIDI.h</text>
</a>
</g>
</g>
<!-- Node0&#45;&gt;Node2 -->
<g id="edge2" class="edge"><title>Node0&#45;&gt;Node2</title>
<path fill="none" stroke="midnightblue" d="M726.565,-464.44C771.827,-448.597 861.873,-414.213 930,-370 952.556,-355.362 975.097,-334.159 989.703,-319.333"/>
<polygon fill="midnightblue" stroke="midnightblue" points="992.518,-321.457 996.951,-311.834 987.484,-316.592 992.518,-321.457"/>
</g>
<!-- Node3 -->
<g id="node4" class="node"><title>Node3</title>
<g id="a_node4"><a xlink:href="interface_2buttons_2_data_types_8h.html" target="_top" xlink:title="DataTypes.h">
<polygon fill="white" stroke="black" points="977.5,-406.5 977.5,-427.5 1060.5,-427.5 1060.5,-406.5 977.5,-406.5"/>
<text text-anchor="middle" x="1019" y="-413.9" font-family="Helvetica,sans-Serif" font-size="12.00">DataTypes.h</text>
</a>
</g>
</g>
<!-- Node0&#45;&gt;Node3 -->
<g id="edge3" class="edge"><title>Node0&#45;&gt;Node3</title>
<path fill="none" stroke="midnightblue" d="M753.337,-464.475C806.957,-455.226 890.57,-440.753 963,-428 964.459,-427.743 965.939,-427.482 967.433,-427.218"/>
<polygon fill="midnightblue" stroke="midnightblue" points="968.178,-430.641 977.414,-425.449 966.957,-423.748 968.178,-430.641"/>
</g>
<!-- Node4 -->
<g id="node5" class="node"><title>Node4</title>
<g id="a_node5"><a xlink:href="_open_deck_8h.html" target="_top" xlink:title="../../OpenDeck.h">
<polygon fill="white" stroke="black" points="556,-406.5 556,-427.5 656,-427.5 656,-406.5 556,-406.5"/>
<text text-anchor="middle" x="606" y="-413.9" font-family="Helvetica,sans-Serif" font-size="12.00">../../OpenDeck.h</text>
</a>
</g>
</g>
<!-- Node0&#45;&gt;Node4 -->
<g id="edge4" class="edge"><title>Node0&#45;&gt;Node4</title>
<path fill="none" stroke="midnightblue" d="M681.975,-464.246C667.859,-455.653 647.074,-443.001 630.81,-433.102"/>
<polygon fill="midnightblue" stroke="midnightblue" points="632.203,-429.852 621.842,-427.643 628.564,-435.832 632.203,-429.852"/>
</g>
<!-- Node4&#45;&gt;Node1 -->
<g id="edge23" class="edge"><title>Node4&#45;&gt;Node1</title>
<path fill="none" stroke="midnightblue" d="M656.014,-406.96C678.035,-400.394 702.212,-389.153 717,-370 738.838,-341.717 734.09,-324.557 725,-290 722.389,-280.073 717.093,-270.037 711.959,-261.882"/>
<polygon fill="midnightblue" stroke="midnightblue" points="714.864,-259.93 706.382,-253.582 709.054,-263.834 714.864,-259.93"/>
</g>
<!-- Node5 -->
<g id="node6" class="node"><title>Node5</title>
<g id="a_node6"><a xlink:href="_database_8h.html" target="_top" xlink:title="database/Database.h">
<polygon fill="white" stroke="black" points="236,-174.5 236,-195.5 366,-195.5 366,-174.5 236,-174.5"/>
<text text-anchor="middle" x="301" y="-181.9" font-family="Helvetica,sans-Serif" font-size="12.00">database/Database.h</text>
</a>
</g>
</g>
<!-- Node4&#45;&gt;Node5 -->
<g id="edge5" class="edge"><title>Node4&#45;&gt;Node5</title>
<path fill="none" stroke="midnightblue" d="M588.952,-406.439C561.74,-390.352 508.457,-355.339 478,-312 456.34,-281.179 477.128,-258.137 450,-232 430.033,-212.763 402.194,-201.555 375.978,-195.032"/>
<polygon fill="midnightblue" stroke="midnightblue" points="376.559,-191.574 366.03,-192.754 374.997,-198.398 376.559,-191.574"/>
</g>
<!-- Node16 -->
<g id="node17" class="node"><title>Node16</title>
<g id="a_node17"><a xlink:href="_sys_ex_8h.html" target="_top" xlink:title="sysex/src/SysEx.h">
<polygon fill="white" stroke="black" points="811,-348.5 811,-369.5 921,-369.5 921,-348.5 811,-348.5"/>
<text text-anchor="middle" x="866" y="-355.9" font-family="Helvetica,sans-Serif" font-size="12.00">sysex/src/SysEx.h</text>
</a>
</g>
</g>
<!-- Node4&#45;&gt;Node16 -->
<g id="edge16" class="edge"><title>Node4&#45;&gt;Node16</title>
<path fill="none" stroke="midnightblue" d="M650.4,-406.437C695.084,-396.813 764.057,-381.957 811.909,-371.65"/>
<polygon fill="midnightblue" stroke="midnightblue" points="812.744,-375.051 821.783,-369.524 811.27,-368.208 812.744,-375.051"/>
</g>
<!-- Node19 -->
<g id="node20" class="node"><title>Node19</title>
<g id="a_node20"><a xlink:href="_version_8h.html" target="_top" xlink:title="version/Version.h">
<polygon fill="white" stroke="black" points="601.5,-348.5 601.5,-369.5 708.5,-369.5 708.5,-348.5 601.5,-348.5"/>
<text text-anchor="middle" x="655" y="-355.9" font-family="Helvetica,sans-Serif" font-size="12.00">version/Version.h</text>
</a>
</g>
</g>
<!-- Node4&#45;&gt;Node19 -->
<g id="edge21" class="edge"><title>Node4&#45;&gt;Node19</title>
<path fill="none" stroke="midnightblue" d="M614.535,-406.246C621.491,-398.296 631.488,-386.871 639.805,-377.366"/>
<polygon fill="midnightblue" stroke="midnightblue" points="642.612,-379.473 646.563,-369.643 637.344,-374.864 642.612,-379.473"/>
</g>
<!-- Node21 -->
<g id="node22" class="node"><title>Node21</title>
<g id="a_node22"><a xlink:href="_interface_8h.html" target="_top" xlink:title="interface/Interface.h">
<polygon fill="white" stroke="black" points="313,-348.5 313,-369.5 431,-369.5 431,-348.5 313,-348.5"/>
<text text-anchor="middle" x="372" y="-355.9" font-family="Helvetica,sans-Serif" font-size="12.00">interface/Interface.h</text>
</a>
</g>
</g>
<!-- Node4&#45;&gt;Node21 -->
<g id="edge24" class="edge"><title>Node4&#45;&gt;Node21</title>
<path fill="none" stroke="midnightblue" d="M566.04,-406.437C526.161,-396.893 464.786,-382.205 421.767,-371.91"/>
<polygon fill="midnightblue" stroke="midnightblue" points="422.335,-368.447 411.795,-369.524 420.706,-375.255 422.335,-368.447"/>
</g>
<!-- Node6 -->
<g id="node7" class="node"><title>Node6</title>
<g id="a_node7"><a xlink:href="_d_b_m_s_8h.html" target="_top" xlink:title="../dbms/src/DBMS.h">
<polygon fill="white" stroke="black" points="84.5,-116.5 84.5,-137.5 205.5,-137.5 205.5,-116.5 84.5,-116.5"/>
<text text-anchor="middle" x="145" y="-123.9" font-family="Helvetica,sans-Serif" font-size="12.00">../dbms/src/DBMS.h</text>
</a>
</g>
</g>
<!-- Node5&#45;&gt;Node6 -->
<g id="edge6" class="edge"><title>Node5&#45;&gt;Node6</title>
<path fill="none" stroke="midnightblue" d="M274.183,-174.373C248.467,-165.142 209.462,-151.14 181.04,-140.937"/>
<polygon fill="midnightblue" stroke="midnightblue" points="182.062,-137.586 171.467,-137.501 179.697,-144.174 182.062,-137.586"/>
</g>
<!-- Node9 -->
<g id="node10" class="node"><title>Node9</title>
<g id="a_node10"><a xlink:href="_blocks_8h.html" target="_top" xlink:title="blocks/Blocks.h">
<polygon fill="white" stroke="black" points="252,-116.5 252,-137.5 350,-137.5 350,-116.5 252,-116.5"/>
<text text-anchor="middle" x="301" y="-123.9" font-family="Helvetica,sans-Serif" font-size="12.00">blocks/Blocks.h</text>
</a>
</g>
</g>
<!-- Node5&#45;&gt;Node9 -->
<g id="edge9" class="edge"><title>Node5&#45;&gt;Node9</title>
<path fill="none" stroke="midnightblue" d="M301,-174.246C301,-166.938 301,-156.694 301,-147.705"/>
<polygon fill="midnightblue" stroke="midnightblue" points="304.5,-147.643 301,-137.643 297.5,-147.643 304.5,-147.643"/>
</g>
<!-- Node15 -->
<g id="node16" class="node"><title>Node15</title>
<g id="a_node16"><a xlink:href="database_2_config_8h.html" target="_top" xlink:title="Config.h">
<polygon fill="white" stroke="black" points="368,-116.5 368,-137.5 428,-137.5 428,-116.5 368,-116.5"/>
<text text-anchor="middle" x="398" y="-123.9" font-family="Helvetica,sans-Serif" font-size="12.00">Config.h</text>
</a>
</g>
</g>
<!-- Node5&#45;&gt;Node15 -->
<g id="edge15" class="edge"><title>Node5&#45;&gt;Node15</title>
<path fill="none" stroke="midnightblue" d="M317.896,-174.246C332.918,-165.573 355.104,-152.765 372.321,-142.825"/>
<polygon fill="midnightblue" stroke="midnightblue" points="374.387,-145.674 381.298,-137.643 370.887,-139.611 374.387,-145.674"/>
</g>
<!-- Node7 -->
<g id="node8" class="node"><title>Node7</title>
<g id="a_node8"><a xlink:href="dbms_2src_2_data_types_8h.html" target="_top" xlink:title="DataTypes.h">
<polygon fill="white" stroke="black" points="36.5,-58.5 36.5,-79.5 119.5,-79.5 119.5,-58.5 36.5,-58.5"/>
<text text-anchor="middle" x="78" y="-65.9" font-family="Helvetica,sans-Serif" font-size="12.00">DataTypes.h</text>
</a>
</g>
</g>
<!-- Node6&#45;&gt;Node7 -->
<g id="edge7" class="edge"><title>Node6&#45;&gt;Node7</title>
<path fill="none" stroke="midnightblue" d="M133.329,-116.246C123.434,-107.975 109.037,-95.9416 97.4099,-86.2232"/>
<polygon fill="midnightblue" stroke="midnightblue" points="99.4542,-83.3703 89.5368,-79.6427 94.965,-88.7413 99.4542,-83.3703"/>
</g>
<!-- Node8 -->
<g id="node9" class="node"><title>Node8</title>
<g id="a_node9"><a xlink:href="dbms_2src_2_config_8h.html" target="_top" xlink:title="Config.h">
<polygon fill="white" stroke="black" points="48,-0.5 48,-21.5 108,-21.5 108,-0.5 48,-0.5"/>
<text text-anchor="middle" x="78" y="-7.9" font-family="Helvetica,sans-Serif" font-size="12.00">Config.h</text>
</a>
</g>
</g>
<!-- Node7&#45;&gt;Node8 -->
<g id="edge8" class="edge"><title>Node7&#45;&gt;Node8</title>
<path fill="none" stroke="midnightblue" d="M78,-58.2455C78,-50.9382 78,-40.6944 78,-31.7046"/>
<polygon fill="midnightblue" stroke="midnightblue" points="81.5001,-31.6426 78,-21.6427 74.5001,-31.6427 81.5001,-31.6426"/>
</g>
<!-- Node10 -->
<g id="node11" class="node"><title>Node10</title>
<g id="a_node11"><a xlink:href="database_2blocks_2_m_i_d_i_8h.html" target="_top" xlink:title="MIDI.h">
<polygon fill="white" stroke="black" points="386.5,-58.5 386.5,-79.5 435.5,-79.5 435.5,-58.5 386.5,-58.5"/>
<text text-anchor="middle" x="411" y="-65.9" font-family="Helvetica,sans-Serif" font-size="12.00">MIDI.h</text>
</a>
</g>
</g>
<!-- Node9&#45;&gt;Node10 -->
<g id="edge10" class="edge"><title>Node9&#45;&gt;Node10</title>
<path fill="none" stroke="midnightblue" d="M320.161,-116.246C337.511,-107.413 363.29,-94.2887 382.958,-84.2758"/>
<polygon fill="midnightblue" stroke="midnightblue" points="384.735,-87.2986 392.059,-79.6427 381.559,-81.0605 384.735,-87.2986"/>
</g>
<!-- Node11 -->
<g id="node12" class="node"><title>Node11</title>
<g id="a_node12"><a xlink:href="database_2blocks_2_buttons_8h.html" target="_top" xlink:title="Buttons.h">
<polygon fill="white" stroke="black" points="453.5,-58.5 453.5,-79.5 518.5,-79.5 518.5,-58.5 453.5,-58.5"/>
<text text-anchor="middle" x="486" y="-65.9" font-family="Helvetica,sans-Serif" font-size="12.00">Buttons.h</text>
</a>
</g>
</g>
<!-- Node9&#45;&gt;Node11 -->
<g id="edge11" class="edge"><title>Node9&#45;&gt;Node11</title>
<path fill="none" stroke="midnightblue" d="M332.803,-116.373C363.832,-106.981 411.175,-92.6496 445.015,-82.4064"/>
<polygon fill="midnightblue" stroke="midnightblue" points="446.055,-85.7483 454.612,-79.5011 444.027,-79.0485 446.055,-85.7483"/>
</g>
<!-- Node12 -->
<g id="node13" class="node"><title>Node12</title>
<g id="a_node13"><a xlink:href="database_2blocks_2_encoders_8h.html" target="_top" xlink:title="Encoders.h">
<polygon fill="white" stroke="black" points="138,-58.5 138,-79.5 214,-79.5 214,-58.5 138,-58.5"/>
<text text-anchor="middle" x="176" y="-65.9" font-family="Helvetica,sans-Serif" font-size="12.00">Encoders.h</text>
</a>
</g>
</g>
<!-- Node9&#45;&gt;Node12 -->
<g id="edge12" class="edge"><title>Node9&#45;&gt;Node12</title>
<path fill="none" stroke="midnightblue" d="M279.512,-116.373C259.356,-107.343 229.012,-93.7494 206.382,-83.6111"/>
<polygon fill="midnightblue" stroke="midnightblue" points="207.765,-80.3955 197.208,-79.5011 204.903,-86.7838 207.765,-80.3955"/>
</g>
<!-- Node13 -->
<g id="node14" class="node"><title>Node13</title>
<g id="a_node14"><a xlink:href="database_2blocks_2_analog_8h.html" target="_top" xlink:title="Analog.h">
<polygon fill="white" stroke="black" points="232,-58.5 232,-79.5 294,-79.5 294,-58.5 232,-58.5"/>
<text text-anchor="middle" x="263" y="-65.9" font-family="Helvetica,sans-Serif" font-size="12.00">Analog.h</text>
</a>
</g>
</g>
<!-- Node9&#45;&gt;Node13 -->
<g id="edge13" class="edge"><title>Node9&#45;&gt;Node13</title>
<path fill="none" stroke="midnightblue" d="M294.381,-116.246C289.095,-108.456 281.546,-97.3308 275.176,-87.9439"/>
<polygon fill="midnightblue" stroke="midnightblue" points="278.054,-85.9522 269.543,-79.6427 272.262,-89.8827 278.054,-85.9522"/>
</g>
<!-- Node14 -->
<g id="node15" class="node"><title>Node14</title>
<g id="a_node15"><a xlink:href="database_2blocks_2_l_e_ds_8h.html" target="_top" xlink:title="LEDs.h">
<polygon fill="white" stroke="black" points="312,-58.5 312,-79.5 368,-79.5 368,-58.5 312,-58.5"/>
<text text-anchor="middle" x="340" y="-65.9" font-family="Helvetica,sans-Serif" font-size="12.00">LEDs.h</text>
</a>
</g>
</g>
<!-- Node9&#45;&gt;Node14 -->
<g id="edge14" class="edge"><title>Node9&#45;&gt;Node14</title>
<path fill="none" stroke="midnightblue" d="M307.793,-116.246C313.218,-108.456 320.966,-97.3308 327.503,-87.9439"/>
<polygon fill="midnightblue" stroke="midnightblue" points="330.442,-89.849 333.285,-79.6427 324.697,-85.8485 330.442,-89.849"/>
</g>
<!-- Node16&#45;&gt;Node2 -->
<g id="edge18" class="edge"><title>Node16&#45;&gt;Node2</title>
<path fill="none" stroke="midnightblue" d="M890.067,-348.373C912.843,-339.263 947.234,-325.506 972.649,-315.34"/>
<polygon fill="midnightblue" stroke="midnightblue" points="974.262,-318.465 982.247,-311.501 971.663,-311.965 974.262,-318.465"/>
</g>
<!-- Node17 -->
<g id="node18" class="node"><title>Node17</title>
<g id="a_node18"><a xlink:href="sysex_2src_2_config_8h.html" target="_top" xlink:title="Config.h">
<polygon fill="white" stroke="black" points="804,-232.5 804,-253.5 864,-253.5 864,-232.5 804,-232.5"/>
<text text-anchor="middle" x="834" y="-239.9" font-family="Helvetica,sans-Serif" font-size="12.00">Config.h</text>
</a>
</g>
</g>
<!-- Node16&#45;&gt;Node17 -->
<g id="edge17" class="edge"><title>Node16&#45;&gt;Node17</title>
<path fill="none" stroke="midnightblue" d="M858.903,-348.337C852.749,-339.397 844.191,-325.491 840,-312 835.165,-296.438 833.793,-277.976 833.559,-264.219"/>
<polygon fill="midnightblue" stroke="midnightblue" points="837.059,-263.942 833.579,-253.936 830.059,-263.929 837.059,-263.942"/>
</g>
<!-- Node18 -->
<g id="node19" class="node"><title>Node18</title>
<g id="a_node19"><a xlink:href="sysex_2src_2_data_types_8h.html" target="_top" xlink:title="DataTypes.h">
<polygon fill="white" stroke="black" points="849.5,-290.5 849.5,-311.5 932.5,-311.5 932.5,-290.5 849.5,-290.5"/>
<text text-anchor="middle" x="891" y="-297.9" font-family="Helvetica,sans-Serif" font-size="12.00">DataTypes.h</text>
</a>
</g>
</g>
<!-- Node16&#45;&gt;Node18 -->
<g id="edge19" class="edge"><title>Node16&#45;&gt;Node18</title>
<path fill="none" stroke="midnightblue" d="M870.355,-348.246C873.724,-340.697 878.493,-330.016 882.598,-320.82"/>
<polygon fill="midnightblue" stroke="midnightblue" points="885.815,-322.201 886.695,-311.643 879.423,-319.347 885.815,-322.201"/>
</g>
<!-- Node18&#45;&gt;Node17 -->
<g id="edge20" class="edge"><title>Node18&#45;&gt;Node17</title>
<path fill="none" stroke="midnightblue" d="M881.071,-290.246C872.816,-282.135 860.879,-270.408 851.092,-260.792"/>
<polygon fill="midnightblue" stroke="midnightblue" points="853.401,-258.154 843.815,-253.643 848.495,-263.148 853.401,-258.154"/>
</g>
<!-- Node20 -->
<g id="node21" class="node"><title>Node20</title>
<g id="a_node21"><a xlink:href="version_2_data_types_8h.html" target="_top" xlink:title="DataTypes.h">
<polygon fill="white" stroke="black" points="633.5,-290.5 633.5,-311.5 716.5,-311.5 716.5,-290.5 633.5,-290.5"/>
<text text-anchor="middle" x="675" y="-297.9" font-family="Helvetica,sans-Serif" font-size="12.00">DataTypes.h</text>
</a>
</g>
</g>
<!-- Node19&#45;&gt;Node20 -->
<g id="edge22" class="edge"><title>Node19&#45;&gt;Node20</title>
<path fill="none" stroke="midnightblue" d="M658.484,-348.246C661.151,-340.778 664.913,-330.243 668.174,-321.114"/>
<polygon fill="midnightblue" stroke="midnightblue" points="671.489,-322.237 671.556,-311.643 664.897,-319.883 671.489,-322.237"/>
</g>
<!-- Node21&#45;&gt;Node0 -->
<g id="edge34" class="edge"><title>Node21&#45;&gt;Node0</title>
<path fill="none" stroke="midnightblue" d="M395.008,-369.576C428.273,-383.276 491.863,-408.919 547,-428 582.832,-440.4 624.04,-452.833 654.346,-461.642"/>
<polygon fill="midnightblue" stroke="midnightblue" points="653.603,-465.07 664.182,-464.485 655.547,-458.346 653.603,-465.07"/>
</g>
<!-- Node22 -->
<g id="node23" class="node"><title>Node22</title>
<g id="a_node23"><a xlink:href="interface_2analog_2_analog_8h.html" target="_top" xlink:title="analog/Analog.h">
<polygon fill="white" stroke="black" points="183.5,-290.5 183.5,-311.5 284.5,-311.5 284.5,-290.5 183.5,-290.5"/>
<text text-anchor="middle" x="234" y="-297.9" font-family="Helvetica,sans-Serif" font-size="12.00">analog/Analog.h</text>
</a>
</g>
</g>
<!-- Node21&#45;&gt;Node22 -->
<g id="edge25" class="edge"><title>Node21&#45;&gt;Node22</title>
<path fill="none" stroke="midnightblue" d="M348.277,-348.373C325.826,-339.263 291.926,-325.506 266.875,-315.34"/>
<polygon fill="midnightblue" stroke="midnightblue" points="267.996,-312.018 257.413,-311.501 265.364,-318.504 267.996,-312.018"/>
</g>
<!-- Node26 -->
<g id="node27" class="node"><title>Node26</title>
<g id="a_node27"><a xlink:href="interface_2encoders_2_encoders_8h.html" target="_top" xlink:title="encoders/Encoders.h">
<polygon fill="white" stroke="black" points="487,-290.5 487,-311.5 615,-311.5 615,-290.5 487,-290.5"/>
<text text-anchor="middle" x="551" y="-297.9" font-family="Helvetica,sans-Serif" font-size="12.00">encoders/Encoders.h</text>
</a>
</g>
</g>
<!-- Node21&#45;&gt;Node26 -->
<g id="edge35" class="edge"><title>Node21&#45;&gt;Node26</title>
<path fill="none" stroke="midnightblue" d="M402.771,-348.373C432.665,-339.021 478.209,-324.773 510.922,-314.538"/>
<polygon fill="midnightblue" stroke="midnightblue" points="512.132,-317.827 520.63,-311.501 510.041,-311.147 512.132,-317.827"/>
</g>
<!-- Node28 -->
<g id="node29" class="node"><title>Node28</title>
<g id="a_node29"><a xlink:href="interface_2leds_2_l_e_ds_8h.html" target="_top" xlink:title="leds/LEDs.h">
<polygon fill="white" stroke="black" points="332,-290.5 332,-311.5 412,-311.5 412,-290.5 332,-290.5"/>
<text text-anchor="middle" x="372" y="-297.9" font-family="Helvetica,sans-Serif" font-size="12.00">leds/LEDs.h</text>
</a>
</g>
</g>
<!-- Node21&#45;&gt;Node28 -->
<g id="edge39" class="edge"><title>Node21&#45;&gt;Node28</title>
<path fill="none" stroke="midnightblue" d="M372,-348.246C372,-340.938 372,-330.694 372,-321.705"/>
<polygon fill="midnightblue" stroke="midnightblue" points="375.5,-321.643 372,-311.643 368.5,-321.643 375.5,-321.643"/>
</g>
<!-- Node22&#45;&gt;Node0 -->
<g id="edge27" class="edge"><title>Node22&#45;&gt;Node0</title>
<path fill="none" stroke="midnightblue" d="M236.522,-311.959C240.82,-326.862 251,-354.833 270,-370 368.455,-448.595 517.445,-469.103 611.152,-473.737"/>
<polygon fill="midnightblue" stroke="midnightblue" points="611.025,-477.235 621.17,-474.182 611.336,-470.241 611.025,-477.235"/>
</g>
<!-- Node22&#45;&gt;Node1 -->
<g id="edge26" class="edge"><title>Node22&#45;&gt;Node1</title>
<path fill="none" stroke="midnightblue" d="M284.648,-293.9C369.388,-283.695 539.815,-263.171 633.535,-251.884"/>
<polygon fill="midnightblue" stroke="midnightblue" points="634.234,-255.325 643.743,-250.655 633.397,-248.375 634.234,-255.325"/>
</g>
<!-- Node22&#45;&gt;Node4 -->
<g id="edge33" class="edge"><title>Node22&#45;&gt;Node4</title>
<path fill="none" stroke="midnightblue" d="M240.871,-311.82C252.133,-327.07 276.08,-356.131 304,-370 345.282,-390.506 469.737,-404.373 545.384,-411.162"/>
<polygon fill="midnightblue" stroke="midnightblue" points="545.452,-414.682 555.721,-412.073 546.067,-407.709 545.452,-414.682"/>
</g>
<!-- Node22&#45;&gt;Node5 -->
<g id="edge28" class="edge"><title>Node22&#45;&gt;Node5</title>
<path fill="none" stroke="midnightblue" d="M235.095,-290.122C236.983,-276.282 241.79,-250.719 253,-232 259.788,-220.665 270.103,-210.269 279.433,-202.24"/>
<polygon fill="midnightblue" stroke="midnightblue" points="281.744,-204.871 287.265,-195.828 277.31,-199.454 281.744,-204.871"/>
</g>
<!-- Node23 -->
<g id="node24" class="node"><title>Node23</title>
<g id="a_node24"><a xlink:href="interface_2analog_2_data_types_8h.html" target="_top" xlink:title="DataTypes.h">
<polygon fill="white" stroke="black" points="84.5,-232.5 84.5,-253.5 167.5,-253.5 167.5,-232.5 84.5,-232.5"/>
<text text-anchor="middle" x="126" y="-239.9" font-family="Helvetica,sans-Serif" font-size="12.00">DataTypes.h</text>
</a>
</g>
</g>
<!-- Node22&#45;&gt;Node23 -->
<g id="edge29" class="edge"><title>Node22&#45;&gt;Node23</title>
<path fill="none" stroke="midnightblue" d="M215.188,-290.246C198.153,-281.413 172.842,-268.289 153.532,-258.276"/>
<polygon fill="midnightblue" stroke="midnightblue" points="155.085,-255.139 144.597,-253.643 151.863,-261.353 155.085,-255.139"/>
</g>
<!-- Node24 -->
<g id="node25" class="node"><title>Node24</title>
<g id="a_node25"><a xlink:href="interface_2analog_2_config_8h.html" target="_top" xlink:title="Config.h">
<polygon fill="white" stroke="black" points="81,-174.5 81,-195.5 141,-195.5 141,-174.5 81,-174.5"/>
<text text-anchor="middle" x="111" y="-181.9" font-family="Helvetica,sans-Serif" font-size="12.00">Config.h</text>
</a>
</g>
</g>
<!-- Node22&#45;&gt;Node24 -->
<g id="edge30" class="edge"><title>Node22&#45;&gt;Node24</title>
<path fill="none" stroke="midnightblue" d="M226.807,-290.097C216.467,-276.227 196.392,-250.628 176,-232 163.516,-220.595 148.123,-209.588 135.451,-201.201"/>
<polygon fill="midnightblue" stroke="midnightblue" points="137.081,-198.087 126.785,-195.59 133.276,-203.963 137.081,-198.087"/>
</g>
<!-- Node25 -->
<g id="node26" class="node"><title>Node25</title>
<g id="a_node26"><a xlink:href="interface_2analog_2_helpers_8h.html" target="_top" xlink:title="Helpers.h">
<polygon fill="white" stroke="black" points="0,-232.5 0,-253.5 66,-253.5 66,-232.5 0,-232.5"/>
<text text-anchor="middle" x="33" y="-239.9" font-family="Helvetica,sans-Serif" font-size="12.00">Helpers.h</text>
</a>
</g>
</g>
<!-- Node22&#45;&gt;Node25 -->
<g id="edge31" class="edge"><title>Node22&#45;&gt;Node25</title>
<path fill="none" stroke="midnightblue" d="M199.447,-290.373C165.282,-280.855 112.912,-266.264 76.0576,-255.996"/>
<polygon fill="midnightblue" stroke="midnightblue" points="76.6747,-252.535 66.1022,-253.223 74.7959,-259.278 76.6747,-252.535"/>
</g>
<!-- Node25&#45;&gt;Node24 -->
<g id="edge32" class="edge"><title>Node25&#45;&gt;Node24</title>
<path fill="none" stroke="midnightblue" d="M46.5866,-232.246C58.3305,-223.814 75.5199,-211.473 89.1882,-201.66"/>
<polygon fill="midnightblue" stroke="midnightblue" points="91.4871,-204.318 97.5691,-195.643 87.4046,-198.632 91.4871,-204.318"/>
</g>
<!-- Node26&#45;&gt;Node1 -->
<g id="edge36" class="edge"><title>Node26&#45;&gt;Node1</title>
<path fill="none" stroke="midnightblue" d="M576.442,-290.373C600.733,-281.182 637.521,-267.262 664.454,-257.071"/>
<polygon fill="midnightblue" stroke="midnightblue" points="665.776,-260.314 673.89,-253.501 663.298,-253.767 665.776,-260.314"/>
</g>
<!-- Node26&#45;&gt;Node4 -->
<g id="edge38" class="edge"><title>Node26&#45;&gt;Node4</title>
<path fill="none" stroke="midnightblue" d="M555.677,-311.695C564.8,-330.605 585.111,-372.702 596.951,-397.243"/>
<polygon fill="midnightblue" stroke="midnightblue" points="593.813,-398.795 601.311,-406.28 600.118,-395.753 593.813,-398.795"/>
</g>
<!-- Node27 -->
<g id="node28" class="node"><title>Node27</title>
<g id="a_node28"><a xlink:href="interface_2encoders_2_data_types_8h.html" target="_top" xlink:title="DataTypes.h">
<polygon fill="white" stroke="black" points="509.5,-232.5 509.5,-253.5 592.5,-253.5 592.5,-232.5 509.5,-232.5"/>
<text text-anchor="middle" x="551" y="-239.9" font-family="Helvetica,sans-Serif" font-size="12.00">DataTypes.h</text>
</a>
</g>
</g>
<!-- Node26&#45;&gt;Node27 -->
<g id="edge37" class="edge"><title>Node26&#45;&gt;Node27</title>
<path fill="none" stroke="midnightblue" d="M551,-290.246C551,-282.938 551,-272.694 551,-263.705"/>
<polygon fill="midnightblue" stroke="midnightblue" points="554.5,-263.643 551,-253.643 547.5,-263.643 554.5,-263.643"/>
</g>
<!-- Node29 -->
<g id="node30" class="node"><title>Node29</title>
<g id="a_node30"><a xlink:href="interface_2leds_2_data_types_8h.html" target="_top" xlink:title="DataTypes.h">
<polygon fill="white" stroke="black" points="358.5,-232.5 358.5,-253.5 441.5,-253.5 441.5,-232.5 358.5,-232.5"/>
<text text-anchor="middle" x="400" y="-239.9" font-family="Helvetica,sans-Serif" font-size="12.00">DataTypes.h</text>
</a>
</g>
</g>
<!-- Node28&#45;&gt;Node29 -->
<g id="edge40" class="edge"><title>Node28&#45;&gt;Node29</title>
<path fill="none" stroke="midnightblue" d="M376.877,-290.246C380.651,-282.697 385.992,-272.016 390.59,-262.82"/>
<polygon fill="midnightblue" stroke="midnightblue" points="393.837,-264.152 395.179,-253.643 387.576,-261.022 393.837,-264.152"/>
</g>
<!-- Node30 -->
<g id="node31" class="node"><title>Node30</title>
<g id="a_node31"><a xlink:href="interface_2leds_2_constants_8h.html" target="_top" xlink:title="Constants.h">
<polygon fill="white" stroke="black" points="262,-232.5 262,-253.5 340,-253.5 340,-232.5 262,-232.5"/>
<text text-anchor="middle" x="301" y="-239.9" font-family="Helvetica,sans-Serif" font-size="12.00">Constants.h</text>
</a>
</g>
</g>
<!-- Node28&#45;&gt;Node30 -->
<g id="edge41" class="edge"><title>Node28&#45;&gt;Node30</title>
<path fill="none" stroke="midnightblue" d="M359.633,-290.246C349.045,-281.894 333.594,-269.708 321.211,-259.941"/>
<polygon fill="midnightblue" stroke="midnightblue" points="323.245,-257.087 313.226,-253.643 318.91,-262.584 323.245,-257.087"/>
</g>
<!-- Node30&#45;&gt;Node5 -->
<g id="edge42" class="edge"><title>Node30&#45;&gt;Node5</title>
<path fill="none" stroke="midnightblue" d="M301,-232.246C301,-224.938 301,-214.694 301,-205.705"/>
<polygon fill="midnightblue" stroke="midnightblue" points="304.5,-205.643 301,-195.643 297.5,-205.643 304.5,-205.643"/>
</g>
</g>
</svg>
        <g id="navigator" transform="translate(0 0)" fill="#404254">
                <rect fill="#f2f5e9" fill-opacity="0.5" stroke="#606060" stroke-width=".5" x="0" y="0" width="60" height="60"/>
                <use id="zoomplus" xlink:href="#zoomPlus" x="17" y="9" onmousedown="handleZoom(evt,'in')"/>
                <use id="zoomminus" xlink:href="#zoomMin" x="42" y="9" onmousedown="handleZoom(evt,'out')"/>
                <use id="reset" xlink:href="#resetDef" x="30" y="36" onmousedown="handleReset()"/>
                <g id="arrowUp" xlink:href="#dirArrow" transform="translate(30 24)" onmousedown="handlePan(0,-1)">
                  <use xlink:href="#rim" fill="#404040">
                        <set attributeName="fill" to="#808080" begin="arrowUp.mouseover" end="arrowUp.mouseout"/>
                  </use>
                  <path fill="none" stroke="white" stroke-width="1.5" d="M0,-3.0v7 M-2.5,-0.5L0,-3.0L2.5,-0.5"/>
                </g>
                <g id="arrowRight" xlink:href="#dirArrow" transform="rotate(90) translate(36 -43)" onmousedown="handlePan(1,0)">
                  <use xlink:href="#rim" fill="#404040">
                        <set attributeName="fill" to="#808080" begin="arrowRight.mouseover" end="arrowRight.mouseout"/>
                  </use>
                  <path fill="none" stroke="white" stroke-width="1.5" d="M0,-3.0v7 M-2.5,-0.5L0,-3.0L2.5,-0.5"/>
                </g>
                <g id="arrowDown" xlink:href="#dirArrow" transform="rotate(180) translate(-30 -48)" onmousedown="handlePan(0,1)">
                  <use xlink:href="#rim" fill="#404040">
                        <set attributeName="fill" to="#808080" begin="arrowDown.mouseover" end="arrowDown.mouseout"/>
                  </use>
                  <path fill="none" stroke="white" stroke-width="1.5" d="M0,-3.0v7 M-2.5,-0.5L0,-3.0L2.5,-0.5"/>
                </g>
                <g id="arrowLeft" xlink:href="#dirArrow" transform="rotate(270) translate(-36 17)" onmousedown="handlePan(-1,0)">
                  <use xlink:href="#rim" fill="#404040">
                        <set attributeName="fill" to="#808080" begin="arrowLeft.mouseover" end="arrowLeft.mouseout"/>
                  </use>
                  <path fill="none" stroke="white" stroke-width="1.5" d="M0,-3.0v7 M-2.5,-0.5L0,-3.0L2.5,-0.5"/>
                </g>
        </g>
        <svg viewBox="0 0 15 15" width="100%" height="30px" preserveAspectRatio="xMaxYMin meet">
         <g id="arrow_out" transform="scale(0.3 0.3)">
          <a xlink:href="interface_2buttons_2_buttons_8h__incl_org.svg" target="_base">
           <rect id="button" ry="5" rx="5" y="6" x="6" height="38" width="38"
                fill="#f2f5e9" fill-opacity="0.5" stroke="#606060" stroke-width="1.0"/>
           <path id="arrow"
             d="M 11.500037,31.436501 C 11.940474,20.09759 22.043105,11.32322 32.158766,21.979434 L 37.068811,17.246167 C 37.068811,17.246167 37.088388,32 37.088388,32 L 22.160133,31.978069 C 22.160133,31.978069 26.997745,27.140456 26.997745,27.140456 C 18.528582,18.264221 13.291696,25.230495 11.500037,31.436501 z"
             style="fill:#404040;"/>
          </a>
         </g>
        </svg>
</svg>
