<?xml version="1.0" encoding="UTF-8" standalone="no"?>
<!DOCTYPE svg PUBLIC "-//W3C//DTD SVG 1.1//EN"
 "http://www.w3.org/Graphics/SVG/1.1/DTD/svg11.dtd">
<!-- Generated by graphviz version 2.38.0 (20140413.2041)
 -->
<!-- Title: interface/leds/Constants.h Pages: 1 -->
<svg width="1914pt" height="404pt"
 viewBox="0.00 0.00 1914.00 404.00" xmlns="http://www.w3.org/2000/svg" xmlns:xlink="http://www.w3.org/1999/xlink">
<g id="graph0" class="graph" transform="scale(1 1) rotate(0) translate(4 400)">
<title>interface/leds/Constants.h</title>
<polygon fill="white" stroke="none" points="-4,4 -4,-400 1910,-400 1910,4 -4,4"/>
<!-- Node12 -->
<g id="node1" class="node"><title>Node12</title>
<polygon fill="#bfbfbf" stroke="black" points="1036.5,-374.5 1036.5,-395.5 1187.5,-395.5 1187.5,-374.5 1036.5,-374.5"/>
<text text-anchor="middle" x="1112" y="-381.9" font-family="Helvetica,sans-Serif" font-size="12.00">interface/leds/Constants.h</text>
</g>
<!-- Node13 -->
<g id="node2" class="node"><title>Node13</title>
<g id="a_node2"><a xlink:href="_export_8h.html" target="_top" xlink:title="interface/Export.h">
<polygon fill="white" stroke="black" points="920.5,-316.5 920.5,-337.5 1027.5,-337.5 1027.5,-316.5 920.5,-316.5"/>
<text text-anchor="middle" x="974" y="-323.9" font-family="Helvetica,sans-Serif" font-size="12.00">interface/Export.h</text>
</a>
</g>
</g>
<!-- Node12&#45;&gt;Node13 -->
<g id="edge1" class="edge"><title>Node12&#45;&gt;Node13</title>
<path fill="none" stroke="midnightblue" d="M1078.78,-370.519C1053.65,-360.32 1019.76,-346.569 997.413,-337.501"/>
<polygon fill="midnightblue" stroke="midnightblue" points="1077.69,-373.856 1088.28,-374.373 1080.33,-367.37 1077.69,-373.856"/>
</g>
<!-- Node25 -->
<g id="node14" class="node"><title>Node25</title>
<g id="a_node14"><a xlink:href="interface_2leds_2_l_e_ds_8h.html" target="_top" xlink:title="interface/leds/LEDs.h">
<polygon fill="white" stroke="black" points="1186,-316.5 1186,-337.5 1314,-337.5 1314,-316.5 1186,-316.5"/>
<text text-anchor="middle" x="1250" y="-323.9" font-family="Helvetica,sans-Serif" font-size="12.00">interface/leds/LEDs.h</text>
</a>
</g>
</g>
<!-- Node12&#45;&gt;Node25 -->
<g id="edge13" class="edge"><title>Node12&#45;&gt;Node25</title>
<path fill="none" stroke="midnightblue" d="M1145.22,-370.519C1170.35,-360.32 1204.24,-346.569 1226.59,-337.501"/>
<polygon fill="midnightblue" stroke="midnightblue" points="1143.67,-367.37 1135.72,-374.373 1146.31,-373.856 1143.67,-367.37"/>
</g>
<!-- Node14 -->
<g id="node3" class="node"><title>Node14</title>
<g id="a_node3"><a xlink:href="_import_8h.html" target="_top" xlink:title="board/Import.h">
<polygon fill="white" stroke="black" points="788,-258.5 788,-279.5 880,-279.5 880,-258.5 788,-258.5"/>
<text text-anchor="middle" x="834" y="-265.9" font-family="Helvetica,sans-Serif" font-size="12.00">board/Import.h</text>
</a>
</g>
</g>
<!-- Node13&#45;&gt;Node14 -->
<g id="edge2" class="edge"><title>Node13&#45;&gt;Node14</title>
<path fill="none" stroke="midnightblue" d="M940.635,-312.654C915.105,-302.442 880.522,-288.609 857.753,-279.501"/>
<polygon fill="midnightblue" stroke="midnightblue" points="939.348,-315.909 949.933,-316.373 941.948,-309.41 939.348,-315.909"/>
</g>
<!-- Node15 -->
<g id="node4" class="node"><title>Node15</title>
<g id="a_node4"><a xlink:href="_common_8h.html" target="_top" xlink:title="board/Common.h">
<polygon fill="white" stroke="black" points="658.5,-200.5 658.5,-221.5 765.5,-221.5 765.5,-200.5 658.5,-200.5"/>
<text text-anchor="middle" x="712" y="-207.9" font-family="Helvetica,sans-Serif" font-size="12.00">board/Common.h</text>
</a>
</g>
</g>
<!-- Node14&#45;&gt;Node15 -->
<g id="edge3" class="edge"><title>Node14&#45;&gt;Node15</title>
<path fill="none" stroke="midnightblue" d="M803.742,-254.111C781.618,-243.956 752.191,-230.448 732.699,-221.501"/>
<polygon fill="midnightblue" stroke="midnightblue" points="802.479,-257.382 813.027,-258.373 805.399,-251.021 802.479,-257.382"/>
</g>
<!-- Node16 -->
<g id="node5" class="node"><title>Node16</title>
<g id="a_node5"><a xlink:href="v1_2_board_8h.html" target="_top" xlink:title="board/v1/Board.h">
<polygon fill="white" stroke="black" points="537.5,-136 537.5,-157 644.5,-157 644.5,-136 537.5,-136"/>
<text text-anchor="middle" x="591" y="-143.4" font-family="Helvetica,sans-Serif" font-size="12.00">board/v1/Board.h</text>
</a>
</g>
</g>
<!-- Node15&#45;&gt;Node16 -->
<g id="edge4" class="edge"><title>Node15&#45;&gt;Node16</title>
<path fill="none" stroke="midnightblue" d="M684.445,-195.767C661.492,-183.911 629.435,-167.353 609.464,-157.037"/>
<polygon fill="midnightblue" stroke="midnightblue" points="682.868,-198.892 693.359,-200.371 686.08,-192.672 682.868,-198.892"/>
</g>
<!-- Node17 -->
<g id="node6" class="node"><title>Node17</title>
<g id="a_node6"><a xlink:href="board_2v1_2_analog_8cpp.html" target="_top" xlink:title="board/v1/Analog.cpp">
<polygon fill="white" stroke="black" points="528.5,-65 528.5,-86 653.5,-86 653.5,-65 528.5,-65"/>
<text text-anchor="middle" x="591" y="-72.4" font-family="Helvetica,sans-Serif" font-size="12.00">board/v1/Analog.cpp</text>
</a>
</g>
</g>
<!-- Node16&#45;&gt;Node17 -->
<g id="edge5" class="edge"><title>Node16&#45;&gt;Node17</title>
<path fill="none" stroke="midnightblue" d="M591,-125.588C591,-112.578 591,-96.1754 591,-86.0127"/>
<polygon fill="midnightblue" stroke="midnightblue" points="587.5,-125.906 591,-135.906 594.5,-125.906 587.5,-125.906"/>
</g>
<!-- Node18 -->
<g id="node7" class="node"><title>Node18</title>
<g id="a_node7"><a xlink:href="_board_8cpp.html" target="_top" xlink:title="board/v1/Board.cpp">
<polygon fill="white" stroke="black" points="672,-65 672,-86 792,-86 792,-65 672,-65"/>
<text text-anchor="middle" x="732" y="-72.4" font-family="Helvetica,sans-Serif" font-size="12.00">board/v1/Board.cpp</text>
</a>
</g>
</g>
<!-- Node16&#45;&gt;Node18 -->
<g id="edge6" class="edge"><title>Node16&#45;&gt;Node18</title>
<path fill="none" stroke="midnightblue" d="M619.787,-131.413C647.467,-117.867 688.542,-97.7665 712.561,-86.0127"/>
<polygon fill="midnightblue" stroke="midnightblue" points="618.049,-128.367 610.605,-135.906 621.126,-134.654 618.049,-128.367"/>
</g>
<!-- Node19 -->
<g id="node8" class="node"><title>Node19</title>
<g id="a_node8"><a xlink:href="board_2v1_2_buttons_8cpp.html" target="_top" xlink:title="board/v1/Buttons.cpp">
<polygon fill="white" stroke="black" points="810.5,-65 810.5,-86 937.5,-86 937.5,-65 810.5,-65"/>
<text text-anchor="middle" x="874" y="-72.4" font-family="Helvetica,sans-Serif" font-size="12.00">board/v1/Buttons.cpp</text>
</a>
</g>
</g>
<!-- Node16&#45;&gt;Node19 -->
<g id="edge7" class="edge"><title>Node16&#45;&gt;Node19</title>
<path fill="none" stroke="midnightblue" d="M639.966,-133.561C695.236,-120.086 784.05,-98.4313 834.894,-86.0347"/>
<polygon fill="midnightblue" stroke="midnightblue" points="638.939,-130.209 630.053,-135.978 640.597,-137.01 638.939,-130.209"/>
</g>
<!-- Node20 -->
<g id="node9" class="node"><title>Node20</title>
<g id="a_node9"><a xlink:href="board_2v1_2_encoders_8cpp.html" target="_top" xlink:title="board/v1/Encoders.cpp">
<polygon fill="white" stroke="black" points="956,-65 956,-86 1094,-86 1094,-65 956,-65"/>
<text text-anchor="middle" x="1025" y="-72.4" font-family="Helvetica,sans-Serif" font-size="12.00">board/v1/Encoders.cpp</text>
</a>
</g>
</g>
<!-- Node16&#45;&gt;Node20 -->
<g id="edge8" class="edge"><title>Node16&#45;&gt;Node20</title>
<path fill="none" stroke="midnightblue" d="M654.842,-137.215C726.05,-127.706 844.571,-111.076 946,-93 957.587,-90.9351 970.075,-88.4488 981.627,-86.0399"/>
<polygon fill="midnightblue" stroke="midnightblue" points="654.138,-133.778 644.687,-138.566 655.061,-140.717 654.138,-133.778"/>
</g>
<!-- Node21 -->
<g id="node10" class="node"><title>Node21</title>
<g id="a_node10"><a xlink:href="board_2v1_2_init_8cpp.html" target="_top" xlink:title="board/v1/Init.cpp">
<polygon fill="white" stroke="black" points="0,-65 0,-86 102,-86 102,-65 0,-65"/>
<text text-anchor="middle" x="51" y="-72.4" font-family="Helvetica,sans-Serif" font-size="12.00">board/v1/Init.cpp</text>
</a>
</g>
</g>
<!-- Node16&#45;&gt;Node21 -->
<g id="edge9" class="edge"><title>Node16&#45;&gt;Node21</title>
<path fill="none" stroke="midnightblue" d="M527.283,-141.775C434.891,-135.641 258.624,-121.185 111,-93 101.449,-91.1766 91.1984,-88.5959 81.9197,-86.0158"/>
<polygon fill="midnightblue" stroke="midnightblue" points="527.108,-145.271 537.315,-142.43 527.564,-138.285 527.108,-145.271"/>
</g>
<!-- Node22 -->
<g id="node11" class="node"><title>Node22</title>
<g id="a_node11"><a xlink:href="_in_matrix_8cpp.html" target="_top" xlink:title="board/v1/InMatrix.cpp">
<polygon fill="white" stroke="black" points="120,-65 120,-86 248,-86 248,-65 120,-65"/>
<text text-anchor="middle" x="184" y="-72.4" font-family="Helvetica,sans-Serif" font-size="12.00">board/v1/InMatrix.cpp</text>
</a>
</g>
</g>
<!-- Node16&#45;&gt;Node22 -->
<g id="edge10" class="edge"><title>Node16&#45;&gt;Node22</title>
<path fill="none" stroke="midnightblue" d="M527.265,-136.766C459.893,-127.233 350.634,-110.92 257,-93 246.28,-90.9484 234.736,-88.4666 224.062,-86.0579"/>
<polygon fill="midnightblue" stroke="midnightblue" points="526.911,-140.25 537.302,-138.179 527.888,-133.319 526.911,-140.25"/>
</g>
<!-- Node23 -->
<g id="node12" class="node"><title>Node23</title>
<g id="a_node12"><a xlink:href="_i_s_r_8cpp.html" target="_top" xlink:title="board/v1/ISR.cpp">
<polygon fill="white" stroke="black" points="266.5,-65 266.5,-86 373.5,-86 373.5,-65 266.5,-65"/>
<text text-anchor="middle" x="320" y="-72.4" font-family="Helvetica,sans-Serif" font-size="12.00">board/v1/ISR.cpp</text>
</a>
</g>
</g>
<!-- Node16&#45;&gt;Node23 -->
<g id="edge11" class="edge"><title>Node16&#45;&gt;Node23</title>
<path fill="none" stroke="midnightblue" d="M542.91,-133.491C500.732,-122.928 437.765,-107.083 383,-93 374.349,-90.7755 365.038,-88.3526 356.298,-86.0657"/>
<polygon fill="midnightblue" stroke="midnightblue" points="542.087,-136.893 552.638,-135.926 543.787,-130.102 542.087,-136.893"/>
</g>
<!-- Node24 -->
<g id="node13" class="node"><title>Node24</title>
<g id="a_node13"><a xlink:href="board_2v1_2_l_e_ds_8cpp.html" target="_top" xlink:title="board/v1/LEDs.cpp">
<polygon fill="white" stroke="black" points="392,-65 392,-86 510,-86 510,-65 392,-65"/>
<text text-anchor="middle" x="451" y="-72.4" font-family="Helvetica,sans-Serif" font-size="12.00">board/v1/LEDs.cpp</text>
</a>
</g>
</g>
<!-- Node16&#45;&gt;Node24 -->
<g id="edge12" class="edge"><title>Node16&#45;&gt;Node24</title>
<path fill="none" stroke="midnightblue" d="M562.417,-131.413C534.934,-117.867 494.149,-97.7665 470.301,-86.0127"/>
<polygon fill="midnightblue" stroke="midnightblue" points="561.017,-134.624 571.534,-135.906 564.111,-128.346 561.017,-134.624"/>
</g>
<!-- Node26 -->
<g id="node15" class="node"><title>Node26</title>
<g id="a_node15"><a xlink:href="_interface_8h.html" target="_top" xlink:title="interface/Interface.h">
<polygon fill="white" stroke="black" points="1339,-258.5 1339,-279.5 1457,-279.5 1457,-258.5 1339,-258.5"/>
<text text-anchor="middle" x="1398" y="-265.9" font-family="Helvetica,sans-Serif" font-size="12.00">interface/Interface.h</text>
</a>
</g>
</g>
<!-- Node25&#45;&gt;Node26 -->
<g id="edge14" class="edge"><title>Node25&#45;&gt;Node26</title>
<path fill="none" stroke="midnightblue" d="M1284.92,-312.789C1311.94,-302.564 1348.71,-288.649 1372.89,-279.501"/>
<polygon fill="midnightblue" stroke="midnightblue" points="1283.56,-309.561 1275.44,-316.373 1286.03,-316.108 1283.56,-309.561"/>
</g>
<!-- Node32 -->
<g id="node21" class="node"><title>Node32</title>
<g id="a_node21"><a xlink:href="_f_s_r_8cpp.html" target="_top" xlink:title="interface/analog/FSR.cpp">
<polygon fill="white" stroke="black" points="1540.5,-0.5 1540.5,-21.5 1689.5,-21.5 1689.5,-0.5 1540.5,-0.5"/>
<text text-anchor="middle" x="1615" y="-7.9" font-family="Helvetica,sans-Serif" font-size="12.00">interface/analog/FSR.cpp</text>
</a>
</g>
</g>
<!-- Node25&#45;&gt;Node32 -->
<g id="edge34" class="edge"><title>Node25&#45;&gt;Node32</title>
<path fill="none" stroke="midnightblue" d="M1324.32,-320.786C1496.08,-307.741 1906,-270.482 1906,-212 1906,-212 1906,-212 1906,-145.5 1906,-50.3132 1775.78,-22.7363 1689.56,-14.9096"/>
<polygon fill="midnightblue" stroke="midnightblue" points="1323.8,-317.315 1314.09,-321.555 1324.33,-324.295 1323.8,-317.315"/>
</g>
<!-- Node34 -->
<g id="node23" class="node"><title>Node34</title>
<g id="a_node23"><a xlink:href="interface_2buttons_2_buttons_8cpp.html" target="_top" xlink:title="interface/buttons/Buttons.cpp">
<polygon fill="white" stroke="black" points="1112.5,-65 1112.5,-86 1279.5,-86 1279.5,-65 1112.5,-65"/>
<text text-anchor="middle" x="1196" y="-72.4" font-family="Helvetica,sans-Serif" font-size="12.00">interface/buttons/Buttons.cpp</text>
</a>
</g>
</g>
<!-- Node25&#45;&gt;Node34 -->
<g id="edge35" class="edge"><title>Node25&#45;&gt;Node34</title>
<path fill="none" stroke="midnightblue" d="M1208.9,-312.436C1193.92,-305.275 1178.57,-294.815 1170,-280 1136.39,-221.91 1154.71,-194.345 1170,-129 1173.76,-112.956 1183.17,-96.1943 1189.58,-86.0477"/>
<polygon fill="midnightblue" stroke="midnightblue" points="1207.55,-315.666 1218.11,-316.478 1210.36,-309.255 1207.55,-315.666"/>
</g>
<!-- Node38 -->
<g id="node27" class="node"><title>Node38</title>
<g id="a_node27"><a xlink:href="interface_2leds_2_l_e_ds_8cpp.html" target="_top" xlink:title="interface/leds/LEDs.cpp">
<polygon fill="white" stroke="black" points="1179,-258.5 1179,-279.5 1321,-279.5 1321,-258.5 1179,-258.5"/>
<text text-anchor="middle" x="1250" y="-265.9" font-family="Helvetica,sans-Serif" font-size="12.00">interface/leds/LEDs.cpp</text>
</a>
</g>
</g>
<!-- Node25&#45;&gt;Node38 -->
<g id="edge36" class="edge"><title>Node25&#45;&gt;Node38</title>
<path fill="none" stroke="midnightblue" d="M1250,-306.158C1250,-297.155 1250,-286.92 1250,-279.643"/>
<polygon fill="midnightblue" stroke="midnightblue" points="1246.5,-306.246 1250,-316.246 1253.5,-306.246 1246.5,-306.246"/>
</g>
<!-- Node27 -->
<g id="node16" class="node"><title>Node27</title>
<g id="a_node16"><a xlink:href="_open_deck_8h.html" target="_top" xlink:title="OpenDeck.h">
<polygon fill="white" stroke="black" points="1453,-200.5 1453,-221.5 1535,-221.5 1535,-200.5 1453,-200.5"/>
<text text-anchor="middle" x="1494" y="-207.9" font-family="Helvetica,sans-Serif" font-size="12.00">OpenDeck.h</text>
</a>
</g>
</g>
<!-- Node26&#45;&gt;Node27 -->
<g id="edge15" class="edge"><title>Node26&#45;&gt;Node27</title>
<path fill="none" stroke="midnightblue" d="M1423.63,-253.046C1440.72,-243.082 1462.66,-230.279 1477.47,-221.643"/>
<polygon fill="midnightblue" stroke="midnightblue" points="1421.6,-250.184 1414.72,-258.246 1425.12,-256.23 1421.6,-250.184"/>
</g>
<!-- Node28 -->
<g id="node17" class="node"><title>Node28</title>
<g id="a_node17"><a xlink:href="_init_8cpp.html" target="_top" xlink:title="Init.cpp">
<polygon fill="white" stroke="black" points="1654.5,-136 1654.5,-157 1707.5,-157 1707.5,-136 1654.5,-136"/>
<text text-anchor="middle" x="1681" y="-143.4" font-family="Helvetica,sans-Serif" font-size="12.00">Init.cpp</text>
</a>
</g>
</g>
<!-- Node27&#45;&gt;Node28 -->
<g id="edge16" class="edge"><title>Node27&#45;&gt;Node28</title>
<path fill="none" stroke="midnightblue" d="M1539.99,-197.723C1570.18,-189.24 1610.36,-177.148 1645,-164 1650.4,-161.951 1656.13,-159.47 1661.4,-157.061"/>
<polygon fill="midnightblue" stroke="midnightblue" points="1538.85,-194.407 1530.15,-200.458 1540.72,-201.151 1538.85,-194.407"/>
</g>
<!-- Node29 -->
<g id="node18" class="node"><title>Node29</title>
<g id="a_node18"><a xlink:href="interface_2buttons_2_buttons_8h.html" target="_top" xlink:title="interface/buttons/Buttons.h">
<polygon fill="white" stroke="black" points="1179.5,-136 1179.5,-157 1332.5,-157 1332.5,-136 1179.5,-136"/>
<text text-anchor="middle" x="1256" y="-143.4" font-family="Helvetica,sans-Serif" font-size="12.00">interface/buttons/Buttons.h</text>
</a>
</g>
</g>
<!-- Node27&#45;&gt;Node29 -->
<g id="edge17" class="edge"><title>Node27&#45;&gt;Node29</title>
<path fill="none" stroke="midnightblue" d="M1447.71,-197.844C1402.32,-185.924 1334.05,-167.995 1292.4,-157.059"/>
<polygon fill="midnightblue" stroke="midnightblue" points="1447.03,-201.285 1457.59,-200.44 1448.81,-194.514 1447.03,-201.285"/>
</g>
<!-- Node30 -->
<g id="node19" class="node"><title>Node30</title>
<g id="a_node19"><a xlink:href="interface_2analog_2_analog_8h.html" target="_top" xlink:title="interface/analog/Analog.h">
<polygon fill="white" stroke="black" points="1297.5,-65 1297.5,-86 1446.5,-86 1446.5,-65 1297.5,-65"/>
<text text-anchor="middle" x="1372" y="-72.4" font-family="Helvetica,sans-Serif" font-size="12.00">interface/analog/Analog.h</text>
</a>
</g>
</g>
<!-- Node27&#45;&gt;Node30 -->
<g id="edge25" class="edge"><title>Node27&#45;&gt;Node30</title>
<path fill="none" stroke="midnightblue" d="M1478.31,-192.836C1452.31,-164.377 1401.1,-108.345 1380.69,-86.014"/>
<polygon fill="midnightblue" stroke="midnightblue" points="1475.9,-195.378 1485.23,-200.399 1481.06,-190.656 1475.9,-195.378"/>
</g>
<!-- Node27&#45;&gt;Node32 -->
<g id="edge29" class="edge"><title>Node27&#45;&gt;Node32</title>
<path fill="none" stroke="midnightblue" d="M1501.78,-190.98C1508.89,-174.25 1520.08,-149.447 1532,-129 1556.46,-87.0455 1591.81,-41.1209 1607.27,-21.617"/>
<polygon fill="midnightblue" stroke="midnightblue" points="1498.53,-189.665 1497.91,-200.242 1504.99,-192.363 1498.53,-189.665"/>
</g>
<!-- Node33 -->
<g id="node22" class="node"><title>Node33</title>
<g id="a_node22"><a xlink:href="_potentiometer_8cpp.html" target="_top" xlink:title="interface/analog/Potentiometer.cpp">
<polygon fill="white" stroke="black" points="1323.5,-0.5 1323.5,-21.5 1522.5,-21.5 1522.5,-0.5 1323.5,-0.5"/>
<text text-anchor="middle" x="1423" y="-7.9" font-family="Helvetica,sans-Serif" font-size="12.00">interface/analog/Potentiometer.cpp</text>
</a>
</g>
</g>
<!-- Node27&#45;&gt;Node33 -->
<g id="edge30" class="edge"><title>Node27&#45;&gt;Node33</title>
<path fill="none" stroke="midnightblue" d="M1491.27,-190.432C1486.62,-160.746 1475.62,-103.025 1455,-58 1448.76,-44.3788 1438.45,-30.4993 1431.22,-21.6014"/>
<polygon fill="midnightblue" stroke="midnightblue" points="1487.81,-190.976 1492.74,-200.352 1494.73,-189.945 1487.81,-190.976"/>
</g>
<!-- Node27&#45;&gt;Node34 -->
<g id="edge31" class="edge"><title>Node27&#45;&gt;Node34</title>
<path fill="none" stroke="midnightblue" d="M1468.95,-195.344C1439.08,-178.199 1387.37,-149.547 1341,-129 1302.2,-111.807 1255.86,-95.779 1226.19,-86.0637"/>
<polygon fill="midnightblue" stroke="midnightblue" points="1467.44,-198.511 1477.85,-200.482 1470.94,-192.449 1467.44,-198.511"/>
</g>
<!-- Node35 -->
<g id="node24" class="node"><title>Node35</title>
<g id="a_node24"><a xlink:href="interface_2encoders_2_encoders_8h.html" target="_top" xlink:title="interface/encoders\l/Encoders.h">
<polygon fill="white" stroke="black" points="1764.5,-129.5 1764.5,-163.5 1877.5,-163.5 1877.5,-129.5 1764.5,-129.5"/>
<text text-anchor="start" x="1772.5" y="-149.9" font-family="Helvetica,sans-Serif" font-size="12.00">interface/encoders</text>
<text text-anchor="middle" x="1821" y="-136.9" font-family="Helvetica,sans-Serif" font-size="12.00">/Encoders.h</text>
</a>
</g>
</g>
<!-- Node27&#45;&gt;Node35 -->
<g id="edge26" class="edge"><title>Node27&#45;&gt;Node35</title>
<path fill="none" stroke="midnightblue" d="M1545.3,-201.567C1597.09,-192.869 1679.3,-178.557 1750,-164 1754.71,-163.03 1759.59,-161.985 1764.48,-160.907"/>
<polygon fill="midnightblue" stroke="midnightblue" points="1544.64,-198.128 1535.36,-203.23 1545.8,-205.032 1544.64,-198.128"/>
</g>
<!-- Node36 -->
<g id="node25" class="node"><title>Node36</title>
<g id="a_node25"><a xlink:href="interface_2encoders_2_encoders_8cpp.html" target="_top" xlink:title="interface/encoders\l/Encoders.cpp">
<polygon fill="white" stroke="black" points="1722.5,-58.5 1722.5,-92.5 1835.5,-92.5 1835.5,-58.5 1722.5,-58.5"/>
<text text-anchor="start" x="1730.5" y="-78.9" font-family="Helvetica,sans-Serif" font-size="12.00">interface/encoders</text>
<text text-anchor="middle" x="1779" y="-65.9" font-family="Helvetica,sans-Serif" font-size="12.00">/Encoders.cpp</text>
</a>
</g>
</g>
<!-- Node27&#45;&gt;Node36 -->
<g id="edge32" class="edge"><title>Node27&#45;&gt;Node36</title>
<path fill="none" stroke="midnightblue" d="M1545.53,-209.728C1593.28,-207.198 1664.47,-197.431 1716,-164 1743.17,-146.374 1762.39,-112.611 1771.99,-92.5708"/>
<polygon fill="midnightblue" stroke="midnightblue" points="1545.26,-206.236 1535.42,-210.174 1545.57,-213.23 1545.26,-206.236"/>
</g>
<!-- Node37 -->
<g id="node26" class="node"><title>Node37</title>
<g id="a_node26"><a xlink:href="_open_deck_8cpp.html" target="_top" xlink:title="OpenDeck.cpp">
<polygon fill="white" stroke="black" points="1541.5,-136 1541.5,-157 1636.5,-157 1636.5,-136 1541.5,-136"/>
<text text-anchor="middle" x="1589" y="-143.4" font-family="Helvetica,sans-Serif" font-size="12.00">OpenDeck.cpp</text>
</a>
</g>
</g>
<!-- Node27&#45;&gt;Node37 -->
<g id="edge33" class="edge"><title>Node27&#45;&gt;Node37</title>
<path fill="none" stroke="midnightblue" d="M1517.5,-194.539C1535.26,-182.852 1559.1,-167.17 1574.26,-157.197"/>
<polygon fill="midnightblue" stroke="midnightblue" points="1515.27,-191.814 1508.84,-200.234 1519.12,-197.662 1515.27,-191.814"/>
</g>
<!-- Node29&#45;&gt;Node26 -->
<g id="edge23" class="edge"><title>Node29&#45;&gt;Node26</title>
<path fill="none" stroke="midnightblue" d="M1275.04,-163.659C1304.92,-189.012 1361.92,-237.382 1386.38,-258.139"/>
<polygon fill="midnightblue" stroke="midnightblue" points="1277.27,-160.962 1267.38,-157.16 1272.74,-166.299 1277.27,-160.962"/>
</g>
<!-- Node29&#45;&gt;Node30 -->
<g id="edge18" class="edge"><title>Node29&#45;&gt;Node30</title>
<path fill="none" stroke="midnightblue" d="M1280.89,-130.697C1303.63,-117.168 1336.59,-97.5612 1356.01,-86.0127"/>
<polygon fill="midnightblue" stroke="midnightblue" points="1278.93,-127.785 1272.13,-135.906 1282.51,-133.802 1278.93,-127.785"/>
</g>
<!-- Node29&#45;&gt;Node34 -->
<g id="edge24" class="edge"><title>Node29&#45;&gt;Node34</title>
<path fill="none" stroke="midnightblue" d="M1241.04,-128.294C1229.42,-114.929 1213.73,-96.894 1204.27,-86.0127"/>
<polygon fill="midnightblue" stroke="midnightblue" points="1238.45,-130.656 1247.66,-135.906 1243.74,-126.063 1238.45,-130.656"/>
</g>
<!-- Node30&#45;&gt;Node26 -->
<g id="edge19" class="edge"><title>Node30&#45;&gt;Node26</title>
<path fill="none" stroke="midnightblue" d="M1374.64,-95.9556C1380.13,-136.369 1392.59,-228.143 1396.67,-258.24"/>
<polygon fill="midnightblue" stroke="midnightblue" points="1378.11,-95.4511 1373.29,-86.0129 1371.17,-96.3929 1378.11,-95.4511"/>
</g>
<!-- Node31 -->
<g id="node20" class="node"><title>Node31</title>
<g id="a_node20"><a xlink:href="interface_2analog_2_analog_8cpp.html" target="_top" xlink:title="interface/analog/Analog.cpp">
<polygon fill="white" stroke="black" points="1143,-0.5 1143,-21.5 1305,-21.5 1305,-0.5 1143,-0.5"/>
<text text-anchor="middle" x="1224" y="-7.9" font-family="Helvetica,sans-Serif" font-size="12.00">interface/analog/Analog.cpp</text>
</a>
</g>
</g>
<!-- Node30&#45;&gt;Node31 -->
<g id="edge20" class="edge"><title>Node30&#45;&gt;Node31</title>
<path fill="none" stroke="midnightblue" d="M1339.78,-60.895C1311.62,-49.0017 1271.45,-32.0364 1246.58,-21.537"/>
<polygon fill="midnightblue" stroke="midnightblue" points="1338.63,-64.2053 1349.2,-64.8713 1341.35,-57.7567 1338.63,-64.2053"/>
</g>
<!-- Node30&#45;&gt;Node32 -->
<g id="edge21" class="edge"><title>Node30&#45;&gt;Node32</title>
<path fill="none" stroke="midnightblue" d="M1418.97,-62.4189C1465.31,-50.4997 1535.23,-32.5181 1577.83,-21.5594"/>
<polygon fill="midnightblue" stroke="midnightblue" points="1417.98,-59.0589 1409.17,-64.9396 1419.73,-65.8382 1417.98,-59.0589"/>
</g>
<!-- Node30&#45;&gt;Node33 -->
<g id="edge22" class="edge"><title>Node30&#45;&gt;Node33</title>
<path fill="none" stroke="midnightblue" d="M1386.45,-56.7911C1395.67,-45.4875 1407.29,-31.2535 1414.92,-21.9033"/>
<polygon fill="midnightblue" stroke="midnightblue" points="1383.58,-54.7737 1379.97,-64.7344 1389,-59.1993 1383.58,-54.7737"/>
</g>
<!-- Node35&#45;&gt;Node26 -->
<g id="edge27" class="edge"><title>Node35&#45;&gt;Node26</title>
<path fill="none" stroke="midnightblue" d="M1755.08,-166.279C1663.56,-192.35 1501.4,-238.545 1431.55,-258.444"/>
<polygon fill="midnightblue" stroke="midnightblue" points="1756.13,-169.618 1764.79,-163.512 1754.22,-162.885 1756.13,-169.618"/>
</g>
<!-- Node35&#45;&gt;Node36 -->
<g id="edge28" class="edge"><title>Node35&#45;&gt;Node36</title>
<path fill="none" stroke="midnightblue" d="M1805.9,-120.699C1800.28,-111.455 1794.03,-101.199 1788.98,-92.8958"/>
<polygon fill="midnightblue" stroke="midnightblue" points="1803.07,-122.774 1811.26,-129.497 1809.05,-119.135 1803.07,-122.774"/>
</g>
</g>
</svg>
