<?xml version="1.0" encoding="UTF-8" standalone="no"?>
<!DOCTYPE svg PUBLIC "-//W3C//DTD SVG 1.1//EN"
 "http://www.w3.org/Graphics/SVG/1.1/DTD/svg11.dtd">
<!-- Generated by graphviz version 2.38.0 (20140413.2041)
 -->
<!-- Title: interface/analog/Analog.h Pages: 1 -->
<!--zoomable 591 -->
<svg id="main" version="1.1" xmlns="http://www.w3.org/2000/svg" xmlns:xlink="http://www.w3.org/1999/xlink" xml:space="preserve" onload="init(evt)">
<style type="text/css"><![CDATA[
.edge:hover path { stroke: red; }
.edge:hover polygon { stroke: red; fill: red; }
]]></style>
<script type="text/javascript"><![CDATA[
var edges = document.getElementsByTagName('g');
if (edges && edges.length) {
  for (var i=0;i<edges.length;i++) {
    if (edges[i].id.substr(0,4)=='edge') {
      edges[i].setAttribute('class','edge');
    }
  }
}
]]></script>
        <defs>
                <circle id="rim" cx="0" cy="0" r="7"/>
                <circle id="rim2" cx="0" cy="0" r="3.5"/>
                <g id="zoomPlus">
                        <use xlink:href="#rim" fill="#404040">
                                <set attributeName="fill" to="#808080" begin="zoomplus.mouseover" end="zoomplus.mouseout"/>
                        </use>
                        <path d="M-4,0h8M0,-4v8" fill="none" stroke="white" stroke-width="1.5" pointer-events="none"/>
                </g>
                <g id="zoomMin">
                        <use xlink:href="#rim" fill="#404040">
                                <set attributeName="fill" to="#808080" begin="zoomminus.mouseover" end="zoomminus.mouseout"/>
                        </use>
                        <path d="M-4,0h8" fill="none" stroke="white" stroke-width="1.5" pointer-events="none"/>
                </g>
                <g id="dirArrow">
                        <path fill="none" stroke="white" stroke-width="1.5" d="M0,-3.0v7 M-2.5,-0.5L0,-3.0L2.5,-0.5"/>
                </g>
               <g id="resetDef">
                       <use xlink:href="#rim2" fill="#404040">
                               <set attributeName="fill" to="#808080" begin="reset.mouseover" end="reset.mouseout"/>
                       </use>
               </g>
        </defs>

<script type="text/javascript">
var viewWidth = 835;
var viewHeight = 591;
var sectionId = 'dynsection-0';
</script>
<script xlink:href="svgpan.js"/>
<svg id="graph" class="graph">
<g id="viewport">
<title>interface/analog/Analog.h</title>
<polygon fill="white" stroke="none" points="-4,4 -4,-587 830.765,-587 830.765,4 -4,4"/>
<!-- Node0 -->
<g id="node1" class="node"><title>Node0</title>
<polygon fill="#bfbfbf" stroke="black" points="240.765,-561.5 240.765,-582.5 389.765,-582.5 389.765,-561.5 240.765,-561.5"/>
<text text-anchor="middle" x="315.265" y="-568.9" font-family="Helvetica,sans-Serif" font-size="12.00">interface/analog/Analog.h</text>
</g>
<!-- Node1 -->
<g id="node2" class="node"><title>Node1</title>
<g id="a_node2"><a xlink:href="_board_8h.html" target="_top" xlink:title="../../board/Board.h">
<polygon fill="white" stroke="black" points="66.2646,-232.5 66.2646,-253.5 176.265,-253.5 176.265,-232.5 66.2646,-232.5"/>
<text text-anchor="middle" x="121.265" y="-239.9" font-family="Helvetica,sans-Serif" font-size="12.00">../../board/Board.h</text>
</a>
</g>
</g>
<!-- Node0&#45;&gt;Node1 -->
<g id="edge1" class="edge"><title>Node0&#45;&gt;Node1</title>
<path fill="none" stroke="midnightblue" d="M240.712,-568.099C165.35,-563.649 55.6589,-552.522 24.2646,-525 -3.96938,-500.249 0.264625,-481.547 0.264625,-444 0.264625,-444 0.264625,-444 0.264625,-377.5 0.264625,-322.368 57.6186,-279.871 93.3529,-258.744"/>
<polygon fill="midnightblue" stroke="midnightblue" points="95.4122,-261.599 102.358,-253.598 91.9394,-255.521 95.4122,-261.599"/>
</g>
<!-- Node2 -->
<g id="node3" class="node"><title>Node2</title>
<g id="a_node3"><a xlink:href="interface_2digital_2input_2buttons_2_buttons_8h.html" target="_top" xlink:title="../digital/input/buttons\l/Buttons.h">
<polygon fill="white" stroke="black" points="207.765,-490.5 207.765,-524.5 332.765,-524.5 332.765,-490.5 207.765,-490.5"/>
<text text-anchor="start" x="215.765" y="-510.9" font-family="Helvetica,sans-Serif" font-size="12.00">../digital/input/buttons</text>
<text text-anchor="middle" x="270.265" y="-497.9" font-family="Helvetica,sans-Serif" font-size="12.00">/Buttons.h</text>
</a>
</g>
</g>
<!-- Node0&#45;&gt;Node2 -->
<g id="edge2" class="edge"><title>Node0&#45;&gt;Node2</title>
<path fill="none" stroke="midnightblue" d="M308.233,-561.234C302.804,-553.693 295.044,-542.916 287.954,-533.068"/>
<polygon fill="midnightblue" stroke="midnightblue" points="290.654,-530.828 281.97,-524.758 284.973,-534.918 290.654,-530.828"/>
</g>
<!-- Node4 -->
<g id="node5" class="node"><title>Node4</title>
<g id="a_node5"><a xlink:href="_open_deck_8h.html" target="_top" xlink:title="../../../../OpenDeck.h">
<polygon fill="white" stroke="black" points="384.265,-432.5 384.265,-453.5 502.265,-453.5 502.265,-432.5 384.265,-432.5"/>
<text text-anchor="middle" x="443.265" y="-439.9" font-family="Helvetica,sans-Serif" font-size="12.00">../../../../OpenDeck.h</text>
</a>
</g>
</g>
<!-- Node0&#45;&gt;Node4 -->
<g id="edge47" class="edge"><title>Node0&#45;&gt;Node4</title>
<path fill="none" stroke="midnightblue" d="M321.748,-561.34C332.691,-545.429 356.017,-513.168 380.265,-490 392.241,-478.557 407.155,-467.548 419.465,-459.17"/>
<polygon fill="midnightblue" stroke="midnightblue" points="421.502,-462.019 427.889,-453.566 417.625,-456.191 421.502,-462.019"/>
</g>
<!-- Node5 -->
<g id="node6" class="node"><title>Node5</title>
<g id="a_node6"><a xlink:href="database_2_database_8h.html" target="_top" xlink:title="database/Database.h">
<polygon fill="white" stroke="black" points="233.265,-174.5 233.265,-195.5 363.265,-195.5 363.265,-174.5 233.265,-174.5"/>
<text text-anchor="middle" x="298.265" y="-181.9" font-family="Helvetica,sans-Serif" font-size="12.00">database/Database.h</text>
</a>
</g>
</g>
<!-- Node0&#45;&gt;Node5 -->
<g id="edge42" class="edge"><title>Node0&#45;&gt;Node5</title>
<path fill="none" stroke="midnightblue" d="M240.669,-567.909C158.626,-560.037 38.2646,-533.275 38.2646,-444 38.2646,-444 38.2646,-444 38.2646,-306.5 38.2646,-272.329 32.3752,-255.413 57.2646,-232 80.8498,-209.814 161.423,-197.755 222.977,-191.621"/>
<polygon fill="midnightblue" stroke="midnightblue" points="223.448,-195.091 233.067,-190.65 222.778,-188.124 223.448,-195.091"/>
</g>
<!-- Node32 -->
<g id="node33" class="node"><title>Node32</title>
<g id="a_node33"><a xlink:href="interface_2analog_2_data_types_8h.html" target="_top" xlink:title="DataTypes.h">
<polygon fill="white" stroke="black" points="389.765,-497 389.765,-518 472.765,-518 472.765,-497 389.765,-497"/>
<text text-anchor="middle" x="431.265" y="-504.4" font-family="Helvetica,sans-Serif" font-size="12.00">DataTypes.h</text>
</a>
</g>
</g>
<!-- Node0&#45;&gt;Node32 -->
<g id="edge43" class="edge"><title>Node0&#45;&gt;Node32</title>
<path fill="none" stroke="midnightblue" d="M333.135,-561.371C352.265,-551.065 382.817,-534.603 404.75,-522.786"/>
<polygon fill="midnightblue" stroke="midnightblue" points="406.421,-525.862 413.564,-518.037 403.1,-519.699 406.421,-525.862"/>
</g>
<!-- Node33 -->
<g id="node34" class="node"><title>Node33</title>
<g id="a_node34"><a xlink:href="interface_2analog_2_config_8h.html" target="_top" xlink:title="Config.h">
<polygon fill="white" stroke="black" points="528.265,-432.5 528.265,-453.5 588.265,-453.5 588.265,-432.5 528.265,-432.5"/>
<text text-anchor="middle" x="558.265" y="-439.9" font-family="Helvetica,sans-Serif" font-size="12.00">Config.h</text>
</a>
</g>
</g>
<!-- Node0&#45;&gt;Node33 -->
<g id="edge44" class="edge"><title>Node0&#45;&gt;Node33</title>
<path fill="none" stroke="midnightblue" d="M379.983,-561.482C412.096,-554.728 450.494,-543.467 481.265,-525 495.658,-516.362 525.771,-482.397 543.779,-461.288"/>
<polygon fill="midnightblue" stroke="midnightblue" points="546.454,-463.544 550.245,-453.65 541.112,-459.021 546.454,-463.544"/>
</g>
<!-- Node34 -->
<g id="node35" class="node"><title>Node34</title>
<g id="a_node35"><a xlink:href="interface_2analog_2_helpers_8h.html" target="_top" xlink:title="Helpers.h">
<polygon fill="white" stroke="black" points="529.265,-497 529.265,-518 595.265,-518 595.265,-497 529.265,-497"/>
<text text-anchor="middle" x="562.265" y="-504.4" font-family="Helvetica,sans-Serif" font-size="12.00">Helpers.h</text>
</a>
</g>
</g>
<!-- Node0&#45;&gt;Node34 -->
<g id="edge45" class="edge"><title>Node0&#45;&gt;Node34</title>
<path fill="none" stroke="midnightblue" d="M363.742,-561.432C404.488,-553.014 464.101,-539.815 515.265,-525 519.081,-523.895 523.04,-522.655 526.97,-521.365"/>
<polygon fill="midnightblue" stroke="midnightblue" points="528.233,-524.632 536.574,-518.1 525.98,-518.005 528.233,-524.632"/>
</g>
<!-- Node3 -->
<g id="node4" class="node"><title>Node3</title>
<g id="a_node4"><a xlink:href="interface_2digital_2input_2buttons_2_data_types_8h.html" target="_top" xlink:title="DataTypes.h">
<polygon fill="white" stroke="black" points="207.765,-432.5 207.765,-453.5 290.765,-453.5 290.765,-432.5 207.765,-432.5"/>
<text text-anchor="middle" x="249.265" y="-439.9" font-family="Helvetica,sans-Serif" font-size="12.00">DataTypes.h</text>
</a>
</g>
</g>
<!-- Node2&#45;&gt;Node3 -->
<g id="edge3" class="edge"><title>Node2&#45;&gt;Node3</title>
<path fill="none" stroke="midnightblue" d="M264.857,-490.405C262.092,-482.176 258.706,-472.098 255.796,-463.439"/>
<polygon fill="midnightblue" stroke="midnightblue" points="259.06,-462.164 252.557,-453.8 252.425,-464.394 259.06,-462.164"/>
</g>
<!-- Node2&#45;&gt;Node4 -->
<g id="edge4" class="edge"><title>Node2&#45;&gt;Node4</title>
<path fill="none" stroke="midnightblue" d="M314.816,-490.405C343.617,-480 380.603,-466.638 407.484,-456.926"/>
<polygon fill="midnightblue" stroke="midnightblue" points="408.681,-460.215 416.897,-453.526 406.303,-453.632 408.681,-460.215"/>
</g>
<!-- Node4&#45;&gt;Node5 -->
<g id="edge5" class="edge"><title>Node4&#45;&gt;Node5</title>
<path fill="none" stroke="midnightblue" d="M424.052,-432.471C409.968,-424.545 391.43,-411.989 380.265,-396 336.852,-333.835 367.249,-299.78 333.265,-232 328.124,-221.747 320.597,-211.48 313.839,-203.255"/>
<polygon fill="midnightblue" stroke="midnightblue" points="316.369,-200.829 307.207,-195.509 311.052,-205.382 316.369,-200.829"/>
</g>
<!-- Node16 -->
<g id="node17" class="node"><title>Node16</title>
<g id="a_node17"><a xlink:href="_sys_ex_8h.html" target="_top" xlink:title="sysex/src/SysEx.h">
<polygon fill="white" stroke="black" points="665.265,-368 665.265,-389 775.265,-389 775.265,-368 665.265,-368"/>
<text text-anchor="middle" x="720.265" y="-375.4" font-family="Helvetica,sans-Serif" font-size="12.00">sysex/src/SysEx.h</text>
</a>
</g>
</g>
<!-- Node4&#45;&gt;Node16 -->
<g id="edge16" class="edge"><title>Node4&#45;&gt;Node16</title>
<path fill="none" stroke="midnightblue" d="M482.686,-432.414C523.71,-423.415 589.441,-409.373 646.265,-396 652.289,-394.582 658.614,-393.042 664.935,-391.491"/>
<polygon fill="midnightblue" stroke="midnightblue" points="665.947,-394.847 674.823,-389.061 664.277,-388.049 665.947,-394.847"/>
</g>
<!-- Node19 -->
<g id="node20" class="node"><title>Node19</title>
<g id="a_node20"><a xlink:href="_version_8h.html" target="_top" xlink:title="versioning/src/avr\l/Version.h">
<polygon fill="white" stroke="black" points="389.765,-361.5 389.765,-395.5 496.765,-395.5 496.765,-361.5 389.765,-361.5"/>
<text text-anchor="start" x="397.765" y="-381.9" font-family="Helvetica,sans-Serif" font-size="12.00">versioning/src/avr</text>
<text text-anchor="middle" x="443.265" y="-368.9" font-family="Helvetica,sans-Serif" font-size="12.00">/Version.h</text>
</a>
</g>
</g>
<!-- Node4&#45;&gt;Node19 -->
<g id="edge21" class="edge"><title>Node4&#45;&gt;Node19</title>
<path fill="none" stroke="midnightblue" d="M443.265,-432.234C443.265,-425.15 443.265,-415.211 443.265,-405.868"/>
<polygon fill="midnightblue" stroke="midnightblue" points="446.765,-405.758 443.265,-395.758 439.765,-405.758 446.765,-405.758"/>
</g>
<!-- Node21 -->
<g id="node22" class="node"><title>Node21</title>
<g id="a_node22"><a xlink:href="_interface_8h.html" target="_top" xlink:title="interface/Interface.h">
<polygon fill="white" stroke="black" points="147.265,-368 147.265,-389 265.265,-389 265.265,-368 147.265,-368"/>
<text text-anchor="middle" x="206.265" y="-375.4" font-family="Helvetica,sans-Serif" font-size="12.00">interface/Interface.h</text>
</a>
</g>
</g>
<!-- Node4&#45;&gt;Node21 -->
<g id="edge23" class="edge"><title>Node4&#45;&gt;Node21</title>
<path fill="none" stroke="midnightblue" d="M407.011,-432.44C365.542,-421.503 297.554,-403.574 252.356,-391.655"/>
<polygon fill="midnightblue" stroke="midnightblue" points="253.076,-388.225 242.514,-389.059 251.291,-394.994 253.076,-388.225"/>
</g>
<!-- Node28 -->
<g id="node29" class="node"><title>Node28</title>
<g id="a_node29"><a xlink:href="midi_2src_2_m_i_d_i_8h.html" target="_top" xlink:title="midi/src/MIDI.h">
<polygon fill="white" stroke="black" points="553.765,-368 553.765,-389 646.765,-389 646.765,-368 553.765,-368"/>
<text text-anchor="middle" x="600.265" y="-375.4" font-family="Helvetica,sans-Serif" font-size="12.00">midi/src/MIDI.h</text>
</a>
</g>
</g>
<!-- Node4&#45;&gt;Node28 -->
<g id="edge36" class="edge"><title>Node4&#45;&gt;Node28</title>
<path fill="none" stroke="midnightblue" d="M467.452,-432.371C494.036,-421.789 536.92,-404.717 566.738,-392.846"/>
<polygon fill="midnightblue" stroke="midnightblue" points="568.311,-395.987 576.308,-389.037 565.722,-389.484 568.311,-395.987"/>
</g>
<!-- Node6 -->
<g id="node7" class="node"><title>Node6</title>
<g id="a_node7"><a xlink:href="_d_b_m_s_8h.html" target="_top" xlink:title="../dbms/src/DBMS.h">
<polygon fill="white" stroke="black" points="427.765,-116.5 427.765,-137.5 548.765,-137.5 548.765,-116.5 427.765,-116.5"/>
<text text-anchor="middle" x="488.265" y="-123.9" font-family="Helvetica,sans-Serif" font-size="12.00">../dbms/src/DBMS.h</text>
</a>
</g>
</g>
<!-- Node5&#45;&gt;Node6 -->
<g id="edge6" class="edge"><title>Node5&#45;&gt;Node6</title>
<path fill="none" stroke="midnightblue" d="M330.927,-174.373C362.794,-164.981 411.418,-150.65 446.172,-140.406"/>
<polygon fill="midnightblue" stroke="midnightblue" points="447.426,-143.686 456.029,-137.501 445.447,-136.971 447.426,-143.686"/>
</g>
<!-- Node9 -->
<g id="node10" class="node"><title>Node9</title>
<g id="a_node10"><a xlink:href="database_2blocks_2_blocks_8h.html" target="_top" xlink:title="blocks/Blocks.h">
<polygon fill="white" stroke="black" points="249.265,-116.5 249.265,-137.5 347.265,-137.5 347.265,-116.5 249.265,-116.5"/>
<text text-anchor="middle" x="298.265" y="-123.9" font-family="Helvetica,sans-Serif" font-size="12.00">blocks/Blocks.h</text>
</a>
</g>
</g>
<!-- Node5&#45;&gt;Node9 -->
<g id="edge9" class="edge"><title>Node5&#45;&gt;Node9</title>
<path fill="none" stroke="midnightblue" d="M298.265,-174.246C298.265,-166.938 298.265,-156.694 298.265,-147.705"/>
<polygon fill="midnightblue" stroke="midnightblue" points="301.765,-147.643 298.265,-137.643 294.765,-147.643 301.765,-147.643"/>
</g>
<!-- Node7 -->
<g id="node8" class="node"><title>Node7</title>
<g id="a_node8"><a xlink:href="dbms_2src_2_data_types_8h.html" target="_top" xlink:title="DataTypes.h">
<polygon fill="white" stroke="black" points="527.765,-58.5 527.765,-79.5 610.765,-79.5 610.765,-58.5 527.765,-58.5"/>
<text text-anchor="middle" x="569.265" y="-65.9" font-family="Helvetica,sans-Serif" font-size="12.00">DataTypes.h</text>
</a>
</g>
</g>
<!-- Node6&#45;&gt;Node7 -->
<g id="edge7" class="edge"><title>Node6&#45;&gt;Node7</title>
<path fill="none" stroke="midnightblue" d="M502.374,-116.246C514.685,-107.734 532.76,-95.2375 547.018,-85.3801"/>
<polygon fill="midnightblue" stroke="midnightblue" points="549.082,-88.2085 555.317,-79.6427 545.101,-82.4506 549.082,-88.2085"/>
</g>
<!-- Node8 -->
<g id="node9" class="node"><title>Node8</title>
<polygon fill="white" stroke="#bfbfbf" points="536.765,-0.5 536.765,-21.5 601.765,-21.5 601.765,-0.5 536.765,-0.5"/>
<text text-anchor="middle" x="569.265" y="-7.9" font-family="Helvetica,sans-Serif" font-size="12.00">inttypes.h</text>
</g>
<!-- Node7&#45;&gt;Node8 -->
<g id="edge8" class="edge"><title>Node7&#45;&gt;Node8</title>
<path fill="none" stroke="midnightblue" d="M569.265,-58.2455C569.265,-50.9382 569.265,-40.6944 569.265,-31.7046"/>
<polygon fill="midnightblue" stroke="midnightblue" points="572.765,-31.6426 569.265,-21.6427 565.765,-31.6427 572.765,-31.6426"/>
</g>
<!-- Node10 -->
<g id="node11" class="node"><title>Node10</title>
<g id="a_node11"><a xlink:href="database_2blocks_2_m_i_d_i_8h.html" target="_top" xlink:title="MIDI.h">
<polygon fill="white" stroke="black" points="202.765,-58.5 202.765,-79.5 251.765,-79.5 251.765,-58.5 202.765,-58.5"/>
<text text-anchor="middle" x="227.265" y="-65.9" font-family="Helvetica,sans-Serif" font-size="12.00">MIDI.h</text>
</a>
</g>
</g>
<!-- Node9&#45;&gt;Node10 -->
<g id="edge10" class="edge"><title>Node9&#45;&gt;Node10</title>
<path fill="none" stroke="midnightblue" d="M285.897,-116.246C275.309,-107.894 259.858,-95.7076 247.475,-85.9408"/>
<polygon fill="midnightblue" stroke="midnightblue" points="249.509,-83.0875 239.49,-79.6427 245.174,-88.5837 249.509,-83.0875"/>
</g>
<!-- Node11 -->
<g id="node12" class="node"><title>Node11</title>
<g id="a_node12"><a xlink:href="database_2blocks_2_buttons_8h.html" target="_top" xlink:title="Buttons.h">
<polygon fill="white" stroke="black" points="269.765,-58.5 269.765,-79.5 334.765,-79.5 334.765,-58.5 269.765,-58.5"/>
<text text-anchor="middle" x="302.265" y="-65.9" font-family="Helvetica,sans-Serif" font-size="12.00">Buttons.h</text>
</a>
</g>
</g>
<!-- Node9&#45;&gt;Node11 -->
<g id="edge11" class="edge"><title>Node9&#45;&gt;Node11</title>
<path fill="none" stroke="midnightblue" d="M298.961,-116.246C299.483,-108.938 300.215,-98.6944 300.857,-89.7046"/>
<polygon fill="midnightblue" stroke="midnightblue" points="304.354,-89.8667 301.576,-79.6427 297.372,-89.3679 304.354,-89.8667"/>
</g>
<!-- Node12 -->
<g id="node13" class="node"><title>Node12</title>
<g id="a_node13"><a xlink:href="database_2blocks_2_encoders_8h.html" target="_top" xlink:title="Encoders.h">
<polygon fill="white" stroke="black" points="353.265,-58.5 353.265,-79.5 429.265,-79.5 429.265,-58.5 353.265,-58.5"/>
<text text-anchor="middle" x="391.265" y="-65.9" font-family="Helvetica,sans-Serif" font-size="12.00">Encoders.h</text>
</a>
</g>
</g>
<!-- Node9&#45;&gt;Node12 -->
<g id="edge12" class="edge"><title>Node9&#45;&gt;Node12</title>
<path fill="none" stroke="midnightblue" d="M314.464,-116.246C328.866,-107.573 350.138,-94.7645 366.645,-84.825"/>
<polygon fill="midnightblue" stroke="midnightblue" points="368.49,-87.7996 375.251,-79.6427 364.879,-81.8028 368.49,-87.7996"/>
</g>
<!-- Node13 -->
<g id="node14" class="node"><title>Node13</title>
<g id="a_node14"><a xlink:href="database_2blocks_2_analog_8h.html" target="_top" xlink:title="Analog.h">
<polygon fill="white" stroke="black" points="447.265,-58.5 447.265,-79.5 509.265,-79.5 509.265,-58.5 447.265,-58.5"/>
<text text-anchor="middle" x="478.265" y="-65.9" font-family="Helvetica,sans-Serif" font-size="12.00">Analog.h</text>
</a>
</g>
</g>
<!-- Node9&#45;&gt;Node13 -->
<g id="edge13" class="edge"><title>Node9&#45;&gt;Node13</title>
<path fill="none" stroke="midnightblue" d="M329.208,-116.373C359.269,-107.021 405.067,-92.7725 437.962,-82.5385"/>
<polygon fill="midnightblue" stroke="midnightblue" points="439.216,-85.8139 447.725,-79.5011 437.137,-79.1299 439.216,-85.8139"/>
</g>
<!-- Node14 -->
<g id="node15" class="node"><title>Node14</title>
<g id="a_node15"><a xlink:href="database_2blocks_2_l_e_ds_8h.html" target="_top" xlink:title="LEDs.h">
<polygon fill="white" stroke="black" points="73.2646,-58.5 73.2646,-79.5 129.265,-79.5 129.265,-58.5 73.2646,-58.5"/>
<text text-anchor="middle" x="101.265" y="-65.9" font-family="Helvetica,sans-Serif" font-size="12.00">LEDs.h</text>
</a>
</g>
</g>
<!-- Node9&#45;&gt;Node14 -->
<g id="edge14" class="edge"><title>Node9&#45;&gt;Node14</title>
<path fill="none" stroke="midnightblue" d="M264.399,-116.373C229.506,-106.454 175.239,-91.0282 138.993,-80.7247"/>
<polygon fill="midnightblue" stroke="midnightblue" points="139.854,-77.331 129.278,-77.9633 137.94,-84.0643 139.854,-77.331"/>
</g>
<!-- Node15 -->
<g id="node16" class="node"><title>Node15</title>
<g id="a_node16"><a xlink:href="database_2blocks_2_i_d_8h.html" target="_top" xlink:title="ID.h">
<polygon fill="white" stroke="black" points="147.765,-58.5 147.765,-79.5 184.765,-79.5 184.765,-58.5 147.765,-58.5"/>
<text text-anchor="middle" x="166.265" y="-65.9" font-family="Helvetica,sans-Serif" font-size="12.00">ID.h</text>
</a>
</g>
</g>
<!-- Node9&#45;&gt;Node15 -->
<g id="edge15" class="edge"><title>Node9&#45;&gt;Node15</title>
<path fill="none" stroke="midnightblue" d="M275.573,-116.373C253.027,-106.808 218.41,-92.1223 194.19,-81.847"/>
<polygon fill="midnightblue" stroke="midnightblue" points="195.402,-78.5595 184.829,-77.876 192.668,-85.0036 195.402,-78.5595"/>
</g>
<!-- Node16&#45;&gt;Node4 -->
<g id="edge18" class="edge"><title>Node16&#45;&gt;Node4</title>
<path fill="none" stroke="midnightblue" d="M692.253,-389.061C683.322,-391.395 673.444,-393.84 664.265,-396 611.547,-408.406 551.163,-421.389 506.764,-430.386"/>
<polygon fill="midnightblue" stroke="midnightblue" points="505.803,-427.009 496.691,-432.414 507.185,-433.872 505.803,-427.009"/>
</g>
<!-- Node17 -->
<g id="node18" class="node"><title>Node17</title>
<g id="a_node18"><a xlink:href="sysex_2src_2_config_8h.html" target="_top" xlink:title="Config.h">
<polygon fill="white" stroke="black" points="723.265,-232.5 723.265,-253.5 783.265,-253.5 783.265,-232.5 723.265,-232.5"/>
<text text-anchor="middle" x="753.265" y="-239.9" font-family="Helvetica,sans-Serif" font-size="12.00">Config.h</text>
</a>
</g>
</g>
<!-- Node16&#45;&gt;Node17 -->
<g id="edge17" class="edge"><title>Node16&#45;&gt;Node17</title>
<path fill="none" stroke="midnightblue" d="M721.064,-367.891C722.581,-351.613 726.448,-317.686 734.265,-290 736.84,-280.879 740.696,-271.129 744.263,-262.964"/>
<polygon fill="midnightblue" stroke="midnightblue" points="747.552,-264.187 748.509,-253.635 741.181,-261.287 747.552,-264.187"/>
</g>
<!-- Node18 -->
<g id="node19" class="node"><title>Node18</title>
<g id="a_node19"><a xlink:href="sysex_2src_2_data_types_8h.html" target="_top" xlink:title="DataTypes.h">
<polygon fill="white" stroke="black" points="743.765,-297 743.765,-318 826.765,-318 826.765,-297 743.765,-297"/>
<text text-anchor="middle" x="785.265" y="-304.4" font-family="Helvetica,sans-Serif" font-size="12.00">DataTypes.h</text>
</a>
</g>
</g>
<!-- Node16&#45;&gt;Node18 -->
<g id="edge19" class="edge"><title>Node16&#45;&gt;Node18</title>
<path fill="none" stroke="midnightblue" d="M729.303,-367.906C739.587,-356.989 756.582,-338.948 769.15,-325.607"/>
<polygon fill="midnightblue" stroke="midnightblue" points="771.994,-327.692 776.303,-318.013 766.899,-322.892 771.994,-327.692"/>
</g>
<!-- Node18&#45;&gt;Node17 -->
<g id="edge20" class="edge"><title>Node18&#45;&gt;Node17</title>
<path fill="none" stroke="midnightblue" d="M780.265,-296.734C775.642,-287.706 768.645,-274.041 762.933,-262.883"/>
<polygon fill="midnightblue" stroke="midnightblue" points="766.008,-261.209 758.335,-253.903 759.777,-264.4 766.008,-261.209"/>
</g>
<!-- Node20 -->
<g id="node21" class="node"><title>Node20</title>
<g id="a_node21"><a xlink:href="versioning_2src_2avr_2_data_types_8h.html" target="_top" xlink:title="DataTypes.h">
<polygon fill="white" stroke="black" points="401.765,-297 401.765,-318 484.765,-318 484.765,-297 401.765,-297"/>
<text text-anchor="middle" x="443.265" y="-304.4" font-family="Helvetica,sans-Serif" font-size="12.00">DataTypes.h</text>
</a>
</g>
</g>
<!-- Node19&#45;&gt;Node20 -->
<g id="edge22" class="edge"><title>Node19&#45;&gt;Node20</title>
<path fill="none" stroke="midnightblue" d="M443.265,-361.497C443.265,-351.673 443.265,-339.009 443.265,-328.524"/>
<polygon fill="midnightblue" stroke="midnightblue" points="446.765,-328.24 443.265,-318.24 439.765,-328.24 446.765,-328.24"/>
</g>
<!-- Node21&#45;&gt;Node0 -->
<g id="edge24" class="edge"><title>Node21&#45;&gt;Node0</title>
<path fill="none" stroke="midnightblue" d="M202.11,-389.054C191.982,-413.962 168.92,-481.932 198.265,-525 209.149,-540.974 226.505,-551.401 244.552,-558.207"/>
<polygon fill="midnightblue" stroke="midnightblue" points="243.427,-561.522 254.022,-561.447 245.693,-554.898 243.427,-561.522"/>
</g>
<!-- Node22 -->
<g id="node23" class="node"><title>Node22</title>
<g id="a_node23"><a xlink:href="_digital_input_8h.html" target="_top" xlink:title="digital/input/DigitalInput.h">
<polygon fill="white" stroke="black" points="193.265,-297 193.265,-318 339.265,-318 339.265,-297 193.265,-297"/>
<text text-anchor="middle" x="266.265" y="-304.4" font-family="Helvetica,sans-Serif" font-size="12.00">digital/input/DigitalInput.h</text>
</a>
</g>
</g>
<!-- Node21&#45;&gt;Node22 -->
<g id="edge25" class="edge"><title>Node21&#45;&gt;Node22</title>
<path fill="none" stroke="midnightblue" d="M214.607,-367.906C224.1,-356.989 239.788,-338.948 251.389,-325.607"/>
<polygon fill="midnightblue" stroke="midnightblue" points="254.072,-327.855 257.993,-318.013 248.79,-323.262 254.072,-327.855"/>
</g>
<!-- Node25 -->
<g id="node26" class="node"><title>Node25</title>
<g id="a_node26"><a xlink:href="interface_2digital_2output_2leds_2_l_e_ds_8h.html" target="_top" xlink:title="digital/output/leds\l/LEDs.h">
<polygon fill="white" stroke="black" points="67.7646,-290.5 67.7646,-324.5 174.765,-324.5 174.765,-290.5 67.7646,-290.5"/>
<text text-anchor="start" x="75.7646" y="-310.9" font-family="Helvetica,sans-Serif" font-size="12.00">digital/output/leds</text>
<text text-anchor="middle" x="121.265" y="-297.9" font-family="Helvetica,sans-Serif" font-size="12.00">/LEDs.h</text>
</a>
</g>
</g>
<!-- Node21&#45;&gt;Node25 -->
<g id="edge30" class="edge"><title>Node21&#45;&gt;Node25</title>
<path fill="none" stroke="midnightblue" d="M194.446,-367.906C182.822,-358.47 164.642,-343.712 149.311,-331.267"/>
<polygon fill="midnightblue" stroke="midnightblue" points="151.116,-328.224 141.146,-324.639 146.704,-333.659 151.116,-328.224"/>
</g>
<!-- Node22&#45;&gt;Node2 -->
<g id="edge26" class="edge"><title>Node22&#45;&gt;Node2</title>
<path fill="none" stroke="midnightblue" d="M271.61,-318.08C283.95,-341.427 312.392,-403.084 299.265,-454 296.783,-463.626 292.119,-473.374 287.246,-481.814"/>
<polygon fill="midnightblue" stroke="midnightblue" points="284.228,-480.04 281.969,-490.391 290.19,-483.708 284.228,-480.04"/>
</g>
<!-- Node23 -->
<g id="node24" class="node"><title>Node23</title>
<g id="a_node24"><a xlink:href="interface_2digital_2input_2encoders_2_encoders_8h.html" target="_top" xlink:title="encoders/Encoders.h">
<polygon fill="white" stroke="black" points="428.265,-232.5 428.265,-253.5 556.265,-253.5 556.265,-232.5 428.265,-232.5"/>
<text text-anchor="middle" x="492.265" y="-239.9" font-family="Helvetica,sans-Serif" font-size="12.00">encoders/Encoders.h</text>
</a>
</g>
</g>
<!-- Node22&#45;&gt;Node23 -->
<g id="edge27" class="edge"><title>Node22&#45;&gt;Node23</title>
<path fill="none" stroke="midnightblue" d="M301.082,-296.871C340.514,-285.966 404.86,-268.172 447.87,-256.277"/>
<polygon fill="midnightblue" stroke="midnightblue" points="449.073,-259.576 457.779,-253.537 447.208,-252.829 449.073,-259.576"/>
</g>
<!-- Node23&#45;&gt;Node4 -->
<g id="edge29" class="edge"><title>Node23&#45;&gt;Node4</title>
<path fill="none" stroke="midnightblue" d="M496.365,-253.553C506.427,-278.539 529.791,-347.264 505.265,-396 498.591,-409.261 486.085,-419.659 474.044,-427.187"/>
<polygon fill="midnightblue" stroke="midnightblue" points="471.944,-424.358 465.03,-432.386 475.442,-430.422 471.944,-424.358"/>
</g>
<!-- Node24 -->
<g id="node25" class="node"><title>Node24</title>
<g id="a_node25"><a xlink:href="interface_2digital_2input_2encoders_2_data_types_8h.html" target="_top" xlink:title="DataTypes.h">
<polygon fill="white" stroke="black" points="450.765,-174.5 450.765,-195.5 533.765,-195.5 533.765,-174.5 450.765,-174.5"/>
<text text-anchor="middle" x="492.265" y="-181.9" font-family="Helvetica,sans-Serif" font-size="12.00">DataTypes.h</text>
</a>
</g>
</g>
<!-- Node23&#45;&gt;Node24 -->
<g id="edge28" class="edge"><title>Node23&#45;&gt;Node24</title>
<path fill="none" stroke="midnightblue" d="M492.265,-232.246C492.265,-224.938 492.265,-214.694 492.265,-205.705"/>
<polygon fill="midnightblue" stroke="midnightblue" points="495.765,-205.643 492.265,-195.643 488.765,-205.643 495.765,-205.643"/>
</g>
<!-- Node25&#45;&gt;Node1 -->
<g id="edge35" class="edge"><title>Node25&#45;&gt;Node1</title>
<path fill="none" stroke="midnightblue" d="M121.265,-290.405C121.265,-282.357 121.265,-272.541 121.265,-264.012"/>
<polygon fill="midnightblue" stroke="midnightblue" points="124.765,-263.8 121.265,-253.8 117.765,-263.8 124.765,-263.8"/>
</g>
<!-- Node26 -->
<g id="node27" class="node"><title>Node26</title>
<g id="a_node27"><a xlink:href="interface_2digital_2output_2leds_2_data_types_8h.html" target="_top" xlink:title="DataTypes.h">
<polygon fill="white" stroke="black" points="75.7646,-116.5 75.7646,-137.5 158.765,-137.5 158.765,-116.5 75.7646,-116.5"/>
<text text-anchor="middle" x="117.265" y="-123.9" font-family="Helvetica,sans-Serif" font-size="12.00">DataTypes.h</text>
</a>
</g>
</g>
<!-- Node25&#45;&gt;Node26 -->
<g id="edge31" class="edge"><title>Node25&#45;&gt;Node26</title>
<path fill="none" stroke="midnightblue" d="M151.02,-290.317C164.088,-281.471 178.074,-269.199 185.265,-254 189.446,-245.161 188.056,-241.371 185.265,-232 175.124,-197.962 149.902,-164.691 133.191,-145.278"/>
<polygon fill="midnightblue" stroke="midnightblue" points="135.656,-142.782 126.408,-137.613 130.414,-147.421 135.656,-142.782"/>
</g>
<!-- Node27 -->
<g id="node28" class="node"><title>Node27</title>
<g id="a_node28"><a xlink:href="interface_2digital_2output_2leds_2_constants_8h.html" target="_top" xlink:title="Constants.h">
<polygon fill="white" stroke="black" points="246.265,-232.5 246.265,-253.5 324.265,-253.5 324.265,-232.5 246.265,-232.5"/>
<text text-anchor="middle" x="285.265" y="-239.9" font-family="Helvetica,sans-Serif" font-size="12.00">Constants.h</text>
</a>
</g>
</g>
<!-- Node25&#45;&gt;Node27 -->
<g id="edge33" class="edge"><title>Node25&#45;&gt;Node27</title>
<path fill="none" stroke="midnightblue" d="M163.499,-290.405C190.477,-280.123 225.033,-266.954 250.437,-257.273"/>
<polygon fill="midnightblue" stroke="midnightblue" points="251.932,-260.449 260.03,-253.617 249.439,-253.908 251.932,-260.449"/>
</g>
<!-- Node26&#45;&gt;Node8 -->
<g id="edge32" class="edge"><title>Node26&#45;&gt;Node8</title>
<path fill="none" stroke="midnightblue" d="M100.499,-116.388C78.9409,-102.865 46.3001,-77.6752 64.2646,-58 95.1691,-24.1525 409.971,-14.9331 526.334,-12.6714"/>
<polygon fill="midnightblue" stroke="midnightblue" points="526.704,-16.1652 536.637,-12.4794 526.574,-9.16642 526.704,-16.1652"/>
</g>
<!-- Node27&#45;&gt;Node5 -->
<g id="edge34" class="edge"><title>Node27&#45;&gt;Node5</title>
<path fill="none" stroke="midnightblue" d="M287.529,-232.246C289.244,-224.858 291.656,-214.469 293.759,-205.409"/>
<polygon fill="midnightblue" stroke="midnightblue" points="297.174,-206.175 296.026,-195.643 290.355,-204.592 297.174,-206.175"/>
</g>
<!-- Node29 -->
<g id="node30" class="node"><title>Node29</title>
<g id="a_node30"><a xlink:href="midi_2src_2_data_types_8h.html" target="_top" xlink:title="DataTypes.h">
<polygon fill="white" stroke="black" points="601.765,-297 601.765,-318 684.765,-318 684.765,-297 601.765,-297"/>
<text text-anchor="middle" x="643.265" y="-304.4" font-family="Helvetica,sans-Serif" font-size="12.00">DataTypes.h</text>
</a>
</g>
</g>
<!-- Node28&#45;&gt;Node29 -->
<g id="edge37" class="edge"><title>Node28&#45;&gt;Node29</title>
<path fill="none" stroke="midnightblue" d="M606.244,-367.906C612.854,-357.298 623.657,-339.963 631.891,-326.75"/>
<polygon fill="midnightblue" stroke="midnightblue" points="635.018,-328.351 637.336,-318.013 629.077,-324.648 635.018,-328.351"/>
</g>
<!-- Node30 -->
<g id="node31" class="node"><title>Node30</title>
<g id="a_node31"><a xlink:href="midi_2src_2_helpers_8h.html" target="_top" xlink:title="Helpers.h">
<polygon fill="white" stroke="black" points="609.265,-232.5 609.265,-253.5 675.265,-253.5 675.265,-232.5 609.265,-232.5"/>
<text text-anchor="middle" x="642.265" y="-239.9" font-family="Helvetica,sans-Serif" font-size="12.00">Helpers.h</text>
</a>
</g>
</g>
<!-- Node28&#45;&gt;Node30 -->
<g id="edge41" class="edge"><title>Node28&#45;&gt;Node30</title>
<path fill="none" stroke="midnightblue" d="M596.432,-367.817C590.457,-351.14 580.741,-316.261 592.265,-290 597.597,-277.849 607.899,-267.494 617.772,-259.703"/>
<polygon fill="midnightblue" stroke="midnightblue" points="619.855,-262.516 625.847,-253.779 615.714,-256.872 619.855,-262.516"/>
</g>
<!-- Node29&#45;&gt;Node30 -->
<g id="edge38" class="edge"><title>Node29&#45;&gt;Node30</title>
<path fill="none" stroke="midnightblue" d="M643.108,-296.734C642.968,-287.98 642.758,-274.865 642.583,-263.904"/>
<polygon fill="midnightblue" stroke="midnightblue" points="646.083,-263.846 642.423,-253.903 639.084,-263.958 646.083,-263.846"/>
</g>
<!-- Node30&#45;&gt;Node8 -->
<g id="edge40" class="edge"><title>Node30&#45;&gt;Node8</title>
<path fill="none" stroke="midnightblue" d="M643.303,-232.134C645.868,-203.414 650.225,-118.099 619.265,-58 613.103,-46.0397 602.506,-35.6054 592.65,-27.7117"/>
<polygon fill="midnightblue" stroke="midnightblue" points="594.753,-24.9145 584.658,-21.7008 590.546,-30.5088 594.753,-24.9145"/>
</g>
<!-- Node31 -->
<g id="node32" class="node"><title>Node31</title>
<polygon fill="white" stroke="#bfbfbf" points="667.265,-174.5 667.265,-195.5 725.265,-195.5 725.265,-174.5 667.265,-174.5"/>
<text text-anchor="middle" x="696.265" y="-181.9" font-family="Helvetica,sans-Serif" font-size="12.00">stddef.h</text>
</g>
<!-- Node30&#45;&gt;Node31 -->
<g id="edge39" class="edge"><title>Node30&#45;&gt;Node31</title>
<path fill="none" stroke="midnightblue" d="M651.671,-232.246C659.414,-224.216 670.577,-212.639 679.796,-203.078"/>
<polygon fill="midnightblue" stroke="midnightblue" points="682.544,-205.271 686.966,-195.643 677.505,-200.412 682.544,-205.271"/>
</g>
<!-- Node34&#45;&gt;Node33 -->
<g id="edge46" class="edge"><title>Node34&#45;&gt;Node33</title>
<path fill="none" stroke="midnightblue" d="M561.64,-496.734C561.079,-487.98 560.24,-474.865 559.538,-463.904"/>
<polygon fill="midnightblue" stroke="midnightblue" points="563.03,-463.659 558.898,-453.903 556.044,-464.106 563.03,-463.659"/>
</g>
</g>
</svg>
        <g id="navigator" transform="translate(0 0)" fill="#404254">
                <rect fill="#f2f5e9" fill-opacity="0.5" stroke="#606060" stroke-width=".5" x="0" y="0" width="60" height="60"/>
                <use id="zoomplus" xlink:href="#zoomPlus" x="17" y="9" onmousedown="handleZoom(evt,'in')"/>
                <use id="zoomminus" xlink:href="#zoomMin" x="42" y="9" onmousedown="handleZoom(evt,'out')"/>
                <use id="reset" xlink:href="#resetDef" x="30" y="36" onmousedown="handleReset()"/>
                <g id="arrowUp" xlink:href="#dirArrow" transform="translate(30 24)" onmousedown="handlePan(0,-1)">
                  <use xlink:href="#rim" fill="#404040">
                        <set attributeName="fill" to="#808080" begin="arrowUp.mouseover" end="arrowUp.mouseout"/>
                  </use>
                  <path fill="none" stroke="white" stroke-width="1.5" d="M0,-3.0v7 M-2.5,-0.5L0,-3.0L2.5,-0.5"/>
                </g>
                <g id="arrowRight" xlink:href="#dirArrow" transform="rotate(90) translate(36 -43)" onmousedown="handlePan(1,0)">
                  <use xlink:href="#rim" fill="#404040">
                        <set attributeName="fill" to="#808080" begin="arrowRight.mouseover" end="arrowRight.mouseout"/>
                  </use>
                  <path fill="none" stroke="white" stroke-width="1.5" d="M0,-3.0v7 M-2.5,-0.5L0,-3.0L2.5,-0.5"/>
                </g>
                <g id="arrowDown" xlink:href="#dirArrow" transform="rotate(180) translate(-30 -48)" onmousedown="handlePan(0,1)">
                  <use xlink:href="#rim" fill="#404040">
                        <set attributeName="fill" to="#808080" begin="arrowDown.mouseover" end="arrowDown.mouseout"/>
                  </use>
                  <path fill="none" stroke="white" stroke-width="1.5" d="M0,-3.0v7 M-2.5,-0.5L0,-3.0L2.5,-0.5"/>
                </g>
                <g id="arrowLeft" xlink:href="#dirArrow" transform="rotate(270) translate(-36 17)" onmousedown="handlePan(-1,0)">
                  <use xlink:href="#rim" fill="#404040">
                        <set attributeName="fill" to="#808080" begin="arrowLeft.mouseover" end="arrowLeft.mouseout"/>
                  </use>
                  <path fill="none" stroke="white" stroke-width="1.5" d="M0,-3.0v7 M-2.5,-0.5L0,-3.0L2.5,-0.5"/>
                </g>
        </g>
        <svg viewBox="0 0 15 15" width="100%" height="30px" preserveAspectRatio="xMaxYMin meet">
         <g id="arrow_out" transform="scale(0.3 0.3)">
          <a xlink:href="interface_2analog_2_analog_8h__incl_org.svg" target="_base">
           <rect id="button" ry="5" rx="5" y="6" x="6" height="38" width="38"
                fill="#f2f5e9" fill-opacity="0.5" stroke="#606060" stroke-width="1.0"/>
           <path id="arrow"
             d="M 11.500037,31.436501 C 11.940474,20.09759 22.043105,11.32322 32.158766,21.979434 L 37.068811,17.246167 C 37.068811,17.246167 37.088388,32 37.088388,32 L 22.160133,31.978069 C 22.160133,31.978069 26.997745,27.140456 26.997745,27.140456 C 18.528582,18.264221 13.291696,25.230495 11.500037,31.436501 z"
             style="fill:#404040;"/>
          </a>
         </g>
        </svg>
</svg>
