<?xml version="1.0" encoding="UTF-8" standalone="no"?>
<!DOCTYPE svg PUBLIC "-//W3C//DTD SVG 1.1//EN"
 "http://www.w3.org/Graphics/SVG/1.1/DTD/svg11.dtd">
<!-- Generated by graphviz version 2.38.0 (20140413.2041)
 -->
<!-- Title: interface/analog/Config.h Pages: 1 -->
<svg width="1062pt" height="475pt"
 viewBox="0.00 0.00 1061.50 475.00" xmlns="http://www.w3.org/2000/svg" xmlns:xlink="http://www.w3.org/1999/xlink">
<g id="graph0" class="graph" transform="scale(1 1) rotate(0) translate(4 471)">
<title>interface/analog/Config.h</title>
<polygon fill="white" stroke="none" points="-4,4 -4,-471 1057.5,-471 1057.5,4 -4,4"/>
<!-- Node1 -->
<g id="node1" class="node"><title>Node1</title>
<polygon fill="#bfbfbf" stroke="black" points="416.5,-445.5 416.5,-466.5 562.5,-466.5 562.5,-445.5 416.5,-445.5"/>
<text text-anchor="middle" x="489.5" y="-452.9" font-family="Helvetica,sans-Serif" font-size="12.00">interface/analog/Config.h</text>
</g>
<!-- Node2 -->
<g id="node2" class="node"><title>Node2</title>
<g id="a_node2"><a xlink:href="interface_2analog_2_analog_8h.html" target="_top" xlink:title="interface/analog/Analog.h">
<polygon fill="white" stroke="black" points="415,-329.5 415,-350.5 564,-350.5 564,-329.5 415,-329.5"/>
<text text-anchor="middle" x="489.5" y="-336.9" font-family="Helvetica,sans-Serif" font-size="12.00">interface/analog/Analog.h</text>
</a>
</g>
</g>
<!-- Node1&#45;&gt;Node2 -->
<g id="edge1" class="edge"><title>Node1&#45;&gt;Node2</title>
<path fill="none" stroke="midnightblue" d="M473.263,-437.832C466.706,-429.741 459.895,-419.555 456.5,-409 453.506,-399.692 453.506,-396.308 456.5,-387 461.074,-372.778 471.85,-359.228 479.851,-350.565"/>
<polygon fill="midnightblue" stroke="midnightblue" points="470.657,-440.169 479.851,-445.435 475.947,-435.585 470.657,-440.169"/>
</g>
<!-- Node18 -->
<g id="node18" class="node"><title>Node18</title>
<g id="a_node18"><a xlink:href="interface_2analog_2_helpers_8h.html" target="_top" xlink:title="interface/analog/Helpers.h">
<polygon fill="white" stroke="black" points="465.5,-387.5 465.5,-408.5 617.5,-408.5 617.5,-387.5 465.5,-387.5"/>
<text text-anchor="middle" x="541.5" y="-394.9" font-family="Helvetica,sans-Serif" font-size="12.00">interface/analog/Helpers.h</text>
</a>
</g>
</g>
<!-- Node1&#45;&gt;Node18 -->
<g id="edge24" class="edge"><title>Node1&#45;&gt;Node18</title>
<path fill="none" stroke="midnightblue" d="M505.482,-437.788C514.378,-428.208 525.12,-416.64 532.546,-408.643"/>
<polygon fill="midnightblue" stroke="midnightblue" points="502.797,-435.536 498.558,-445.246 507.927,-440.299 502.797,-435.536"/>
</g>
<!-- Node3 -->
<g id="node3" class="node"><title>Node3</title>
<g id="a_node3"><a xlink:href="_interface_8h.html" target="_top" xlink:title="interface/Interface.h">
<polygon fill="white" stroke="black" points="643.5,-271.5 643.5,-292.5 761.5,-292.5 761.5,-271.5 643.5,-271.5"/>
<text text-anchor="middle" x="702.5" y="-278.9" font-family="Helvetica,sans-Serif" font-size="12.00">interface/Interface.h</text>
</a>
</g>
</g>
<!-- Node2&#45;&gt;Node3 -->
<g id="edge2" class="edge"><title>Node2&#45;&gt;Node3</title>
<path fill="none" stroke="midnightblue" d="M535.958,-326.786C575.139,-316.485 630.424,-301.95 666.362,-292.501"/>
<polygon fill="midnightblue" stroke="midnightblue" points="534.897,-323.446 526.116,-329.373 536.677,-330.215 534.897,-323.446"/>
</g>
<!-- Node14 -->
<g id="node14" class="node"><title>Node14</title>
<g id="a_node14"><a xlink:href="_f_s_r_8cpp.html" target="_top" xlink:title="interface/analog/FSR.cpp">
<polygon fill="white" stroke="black" points="0,-149 0,-170 149,-170 149,-149 0,-149"/>
<text text-anchor="middle" x="74.5" y="-156.4" font-family="Helvetica,sans-Serif" font-size="12.00">interface/analog/FSR.cpp</text>
</a>
</g>
</g>
<!-- Node2&#45;&gt;Node14 -->
<g id="edge22" class="edge"><title>Node2&#45;&gt;Node14</title>
<path fill="none" stroke="midnightblue" d="M457.566,-325.264C376.85,-290.547 166.175,-199.931 96.9225,-170.144"/>
<polygon fill="midnightblue" stroke="midnightblue" points="456.619,-328.667 467.188,-329.403 459.384,-322.237 456.619,-328.667"/>
</g>
<!-- Node15 -->
<g id="node15" class="node"><title>Node15</title>
<g id="a_node15"><a xlink:href="_potentiometer_8cpp.html" target="_top" xlink:title="interface/analog/Potentiometer.cpp">
<polygon fill="white" stroke="black" points="167,-149 167,-170 366,-170 366,-149 167,-149"/>
<text text-anchor="middle" x="266.5" y="-156.4" font-family="Helvetica,sans-Serif" font-size="12.00">interface/analog/Potentiometer.cpp</text>
</a>
</g>
</g>
<!-- Node2&#45;&gt;Node15 -->
<g id="edge23" class="edge"><title>Node2&#45;&gt;Node15</title>
<path fill="none" stroke="midnightblue" d="M469.604,-323.075C424.388,-286.881 315.004,-199.325 278.549,-170.144"/>
<polygon fill="midnightblue" stroke="midnightblue" points="467.516,-325.886 477.511,-329.403 471.891,-320.421 467.516,-325.886"/>
</g>
<!-- Node17 -->
<g id="node17" class="node"><title>Node17</title>
<g id="a_node17"><a xlink:href="interface_2analog_2_analog_8cpp.html" target="_top" xlink:title="interface/analog/Analog.cpp">
<polygon fill="white" stroke="black" points="463.5,-271.5 463.5,-292.5 625.5,-292.5 625.5,-271.5 463.5,-271.5"/>
<text text-anchor="middle" x="544.5" y="-278.9" font-family="Helvetica,sans-Serif" font-size="12.00">interface/analog/Analog.cpp</text>
</a>
</g>
</g>
<!-- Node2&#45;&gt;Node17 -->
<g id="edge21" class="edge"><title>Node2&#45;&gt;Node17</title>
<path fill="none" stroke="midnightblue" d="M506.123,-322.075C515.585,-312.44 527.097,-300.72 535.03,-292.643"/>
<polygon fill="midnightblue" stroke="midnightblue" points="503.59,-319.659 499.08,-329.246 508.584,-324.564 503.59,-319.659"/>
</g>
<!-- Node4 -->
<g id="node4" class="node"><title>Node4</title>
<g id="a_node4"><a xlink:href="_open_deck_8h.html" target="_top" xlink:title="OpenDeck.h">
<polygon fill="white" stroke="black" points="458.5,-213.5 458.5,-234.5 540.5,-234.5 540.5,-213.5 458.5,-213.5"/>
<text text-anchor="middle" x="499.5" y="-220.9" font-family="Helvetica,sans-Serif" font-size="12.00">OpenDeck.h</text>
</a>
</g>
</g>
<!-- Node3&#45;&gt;Node4 -->
<g id="edge3" class="edge"><title>Node3&#45;&gt;Node4</title>
<path fill="none" stroke="midnightblue" d="M657.507,-268.588C620.211,-258.3 567.974,-243.889 533.942,-234.501"/>
<polygon fill="midnightblue" stroke="midnightblue" points="657.032,-272.088 667.603,-271.373 658.894,-265.34 657.032,-272.088"/>
</g>
<!-- Node4&#45;&gt;Node2 -->
<g id="edge14" class="edge"><title>Node4&#45;&gt;Node2</title>
<path fill="none" stroke="midnightblue" d="M477.236,-241.338C468.393,-249.201 459.216,-259.436 454.5,-271 445.776,-292.393 465.08,-316.119 478.342,-329.124"/>
<polygon fill="midnightblue" stroke="midnightblue" points="479.65,-243.884 485.126,-234.815 475.189,-238.489 479.65,-243.884"/>
</g>
<!-- Node5 -->
<g id="node5" class="node"><title>Node5</title>
<g id="a_node5"><a xlink:href="_init_8cpp.html" target="_top" xlink:title="Init.cpp">
<polygon fill="white" stroke="black" points="775,-149 775,-170 828,-170 828,-149 775,-149"/>
<text text-anchor="middle" x="801.5" y="-156.4" font-family="Helvetica,sans-Serif" font-size="12.00">Init.cpp</text>
</a>
</g>
</g>
<!-- Node4&#45;&gt;Node5 -->
<g id="edge4" class="edge"><title>Node4&#45;&gt;Node5</title>
<path fill="none" stroke="midnightblue" d="M550.894,-218.098C605.156,-212.005 692.744,-199.546 765.5,-177 771.41,-175.168 777.615,-172.585 783.175,-170.006"/>
<polygon fill="midnightblue" stroke="midnightblue" points="550.391,-214.632 540.83,-219.197 551.151,-221.59 550.391,-214.632"/>
</g>
<!-- Node6 -->
<g id="node6" class="node"><title>Node6</title>
<g id="a_node6"><a xlink:href="_sys_ex_8h.html" target="_top" xlink:title="sysex/src/SysEx.h">
<polygon fill="white" stroke="black" points="384.5,-149 384.5,-170 494.5,-170 494.5,-149 384.5,-149"/>
<text text-anchor="middle" x="439.5" y="-156.4" font-family="Helvetica,sans-Serif" font-size="12.00">sysex/src/SysEx.h</text>
</a>
</g>
</g>
<!-- Node4&#45;&gt;Node6 -->
<g id="edge5" class="edge"><title>Node4&#45;&gt;Node6</title>
<path fill="none" stroke="midnightblue" d="M477.395,-206.281C465.221,-194.829 451.334,-180.028 443.918,-170.403"/>
<polygon fill="midnightblue" stroke="midnightblue" points="475.304,-209.109 485.063,-213.234 480.006,-203.924 475.304,-209.109"/>
</g>
<!-- Node8 -->
<g id="node8" class="node"><title>Node8</title>
<g id="a_node8"><a xlink:href="interface_2digital_2input_2buttons_2_buttons_8h.html" target="_top" xlink:title="interface/digital/input\l/buttons/Buttons.h">
<polygon fill="white" stroke="black" points="884.5,-142.5 884.5,-176.5 1008.5,-176.5 1008.5,-142.5 884.5,-142.5"/>
<text text-anchor="start" x="892.5" y="-162.9" font-family="Helvetica,sans-Serif" font-size="12.00">interface/digital/input</text>
<text text-anchor="middle" x="946.5" y="-149.9" font-family="Helvetica,sans-Serif" font-size="12.00">/buttons/Buttons.h</text>
</a>
</g>
</g>
<!-- Node4&#45;&gt;Node8 -->
<g id="edge8" class="edge"><title>Node4&#45;&gt;Node8</title>
<path fill="none" stroke="midnightblue" d="M550.648,-216.233C616.708,-207.443 735.241,-191.505 836.5,-177 851.984,-174.782 868.682,-172.316 884.275,-169.98"/>
<polygon fill="midnightblue" stroke="midnightblue" points="549.958,-212.793 540.506,-217.581 550.88,-219.732 549.958,-212.793"/>
</g>
<!-- Node12 -->
<g id="node12" class="node"><title>Node12</title>
<g id="a_node12"><a xlink:href="interface_2digital_2input_2encoders_2_encoders_8h.html" target="_top" xlink:title="interface/digital/input\l/encoders/Encoders.h">
<polygon fill="white" stroke="black" points="626,-142.5 626,-176.5 757,-176.5 757,-142.5 626,-142.5"/>
<text text-anchor="start" x="634" y="-162.9" font-family="Helvetica,sans-Serif" font-size="12.00">interface/digital/input</text>
<text text-anchor="middle" x="691.5" y="-149.9" font-family="Helvetica,sans-Serif" font-size="12.00">/encoders/Encoders.h</text>
</a>
</g>
</g>
<!-- Node4&#45;&gt;Node12 -->
<g id="edge15" class="edge"><title>Node4&#45;&gt;Node12</title>
<path fill="none" stroke="midnightblue" d="M538.744,-210.225C568.624,-200.499 609.95,-187.046 642.084,-176.586"/>
<polygon fill="midnightblue" stroke="midnightblue" points="537.505,-206.948 529.079,-213.371 539.672,-213.604 537.505,-206.948"/>
</g>
<!-- Node4&#45;&gt;Node14 -->
<g id="edge18" class="edge"><title>Node4&#45;&gt;Node14</title>
<path fill="none" stroke="midnightblue" d="M448.023,-217.094C380.962,-209.167 260.154,-194.09 157.5,-177 145.182,-174.949 131.893,-172.441 119.637,-170.006"/>
<polygon fill="midnightblue" stroke="midnightblue" points="447.973,-220.612 458.313,-218.304 448.79,-213.66 447.973,-220.612"/>
</g>
<!-- Node4&#45;&gt;Node15 -->
<g id="edge19" class="edge"><title>Node4&#45;&gt;Node15</title>
<path fill="none" stroke="midnightblue" d="M454.182,-210.844C409.746,-198.924 342.906,-180.995 302.137,-170.059"/>
<polygon fill="midnightblue" stroke="midnightblue" points="453.293,-214.229 463.859,-213.44 455.107,-207.468 453.293,-214.229"/>
</g>
<!-- Node16 -->
<g id="node16" class="node"><title>Node16</title>
<g id="a_node16"><a xlink:href="_open_deck_8cpp.html" target="_top" xlink:title="OpenDeck.cpp">
<polygon fill="white" stroke="black" points="513,-149 513,-170 608,-170 608,-149 513,-149"/>
<text text-anchor="middle" x="560.5" y="-156.4" font-family="Helvetica,sans-Serif" font-size="12.00">OpenDeck.cpp</text>
</a>
</g>
</g>
<!-- Node4&#45;&gt;Node16 -->
<g id="edge20" class="edge"><title>Node4&#45;&gt;Node16</title>
<path fill="none" stroke="midnightblue" d="M516.138,-205.953C527.27,-194.548 541.53,-179.937 550.834,-170.403"/>
<polygon fill="midnightblue" stroke="midnightblue" points="513.511,-203.633 509.031,-213.234 518.521,-208.523 513.511,-203.633"/>
</g>
<!-- Node6&#45;&gt;Node4 -->
<g id="edge6" class="edge"><title>Node6&#45;&gt;Node4</title>
<path fill="none" stroke="midnightblue" d="M461.78,-177.384C473.97,-188.867 487.834,-203.659 495.188,-213.234"/>
<polygon fill="midnightblue" stroke="midnightblue" points="463.851,-174.537 454.096,-170.403 459.144,-179.718 463.851,-174.537"/>
</g>
<!-- Node7 -->
<g id="node7" class="node"><title>Node7</title>
<g id="a_node7"><a xlink:href="_sys_ex_8cpp.html" target="_top" xlink:title="sysex/src/SysEx.cpp">
<polygon fill="white" stroke="black" points="378,-78 378,-99 501,-99 501,-78 378,-78"/>
<text text-anchor="middle" x="439.5" y="-85.4" font-family="Helvetica,sans-Serif" font-size="12.00">sysex/src/SysEx.cpp</text>
</a>
</g>
</g>
<!-- Node6&#45;&gt;Node7 -->
<g id="edge7" class="edge"><title>Node6&#45;&gt;Node7</title>
<path fill="none" stroke="midnightblue" d="M439.5,-138.588C439.5,-125.578 439.5,-109.175 439.5,-99.0127"/>
<polygon fill="midnightblue" stroke="midnightblue" points="436,-138.906 439.5,-148.906 443,-138.906 436,-138.906"/>
</g>
<!-- Node8&#45;&gt;Node2 -->
<g id="edge9" class="edge"><title>Node8&#45;&gt;Node2</title>
<path fill="none" stroke="midnightblue" d="M923.36,-183.921C891.8,-214.348 832.104,-266.679 770.5,-293 704.244,-321.309 622.348,-332.294 564.097,-336.505"/>
<polygon fill="midnightblue" stroke="midnightblue" points="926.057,-186.179 930.762,-176.686 921.164,-181.173 926.057,-186.179"/>
</g>
<!-- Node9 -->
<g id="node9" class="node"><title>Node9</title>
<g id="a_node9"><a xlink:href="_digital_input_8h.html" target="_top" xlink:title="interface/digital/input\l/DigitalInput.h">
<polygon fill="white" stroke="black" points="787.5,-71.5 787.5,-105.5 911.5,-105.5 911.5,-71.5 787.5,-71.5"/>
<text text-anchor="start" x="795.5" y="-91.9" font-family="Helvetica,sans-Serif" font-size="12.00">interface/digital/input</text>
<text text-anchor="middle" x="849.5" y="-78.9" font-family="Helvetica,sans-Serif" font-size="12.00">/DigitalInput.h</text>
</a>
</g>
</g>
<!-- Node8&#45;&gt;Node9 -->
<g id="edge10" class="edge"><title>Node8&#45;&gt;Node9</title>
<path fill="none" stroke="midnightblue" d="M915.582,-136.507C901.502,-126.491 885.134,-114.848 872.212,-105.656"/>
<polygon fill="midnightblue" stroke="midnightblue" points="913.825,-139.552 924.002,-142.497 917.883,-133.848 913.825,-139.552"/>
</g>
<!-- Node11 -->
<g id="node11" class="node"><title>Node11</title>
<g id="a_node11"><a xlink:href="interface_2digital_2input_2buttons_2_buttons_8cpp.html" target="_top" xlink:title="interface/digital/input\l/buttons/Buttons.cpp">
<polygon fill="white" stroke="black" points="929.5,-71.5 929.5,-105.5 1053.5,-105.5 1053.5,-71.5 929.5,-71.5"/>
<text text-anchor="start" x="937.5" y="-91.9" font-family="Helvetica,sans-Serif" font-size="12.00">interface/digital/input</text>
<text text-anchor="middle" x="991.5" y="-78.9" font-family="Helvetica,sans-Serif" font-size="12.00">/buttons/Buttons.cpp</text>
</a>
</g>
</g>
<!-- Node8&#45;&gt;Node11 -->
<g id="edge13" class="edge"><title>Node8&#45;&gt;Node11</title>
<path fill="none" stroke="midnightblue" d="M962.486,-133.988C968.564,-124.669 975.335,-114.286 980.807,-105.896"/>
<polygon fill="midnightblue" stroke="midnightblue" points="959.468,-132.209 956.937,-142.497 965.331,-136.032 959.468,-132.209"/>
</g>
<!-- Node9&#45;&gt;Node3 -->
<g id="edge11" class="edge"><title>Node9&#45;&gt;Node3</title>
<path fill="none" stroke="midnightblue" d="M850.595,-115.769C850.215,-134.087 847.336,-158.469 836.5,-177 809.519,-223.139 753.44,-256.131 723.085,-271.426"/>
<polygon fill="midnightblue" stroke="midnightblue" points="854.094,-115.504 850.565,-105.514 847.094,-115.525 854.094,-115.504"/>
</g>
<!-- Node10 -->
<g id="node10" class="node"><title>Node10</title>
<g id="a_node10"><a xlink:href="_digital_input_8cpp.html" target="_top" xlink:title="interface/digital/input\l/DigitalInput.cpp">
<polygon fill="white" stroke="black" points="787.5,-0.5 787.5,-34.5 911.5,-34.5 911.5,-0.5 787.5,-0.5"/>
<text text-anchor="start" x="795.5" y="-20.9" font-family="Helvetica,sans-Serif" font-size="12.00">interface/digital/input</text>
<text text-anchor="middle" x="849.5" y="-7.9" font-family="Helvetica,sans-Serif" font-size="12.00">/DigitalInput.cpp</text>
</a>
</g>
</g>
<!-- Node9&#45;&gt;Node10 -->
<g id="edge12" class="edge"><title>Node9&#45;&gt;Node10</title>
<path fill="none" stroke="midnightblue" d="M849.5,-61.2468C849.5,-52.3917 849.5,-42.7667 849.5,-34.8958"/>
<polygon fill="midnightblue" stroke="midnightblue" points="846,-61.4965 849.5,-71.4966 853,-61.4966 846,-61.4965"/>
</g>
<!-- Node12&#45;&gt;Node9 -->
<g id="edge16" class="edge"><title>Node12&#45;&gt;Node9</title>
<path fill="none" stroke="midnightblue" d="M737.403,-138.454C761.376,-127.985 790.312,-115.348 812.78,-105.536"/>
<polygon fill="midnightblue" stroke="midnightblue" points="735.909,-135.287 728.146,-142.497 738.711,-141.702 735.909,-135.287"/>
</g>
<!-- Node13 -->
<g id="node13" class="node"><title>Node13</title>
<g id="a_node13"><a xlink:href="interface_2digital_2input_2encoders_2_encoders_8cpp.html" target="_top" xlink:title="interface/digital/input\l/encoders/Encoders.cpp">
<polygon fill="white" stroke="black" points="619.5,-71.5 619.5,-105.5 763.5,-105.5 763.5,-71.5 619.5,-71.5"/>
<text text-anchor="start" x="627.5" y="-91.9" font-family="Helvetica,sans-Serif" font-size="12.00">interface/digital/input</text>
<text text-anchor="middle" x="691.5" y="-78.9" font-family="Helvetica,sans-Serif" font-size="12.00">/encoders/Encoders.cpp</text>
</a>
</g>
</g>
<!-- Node12&#45;&gt;Node13 -->
<g id="edge17" class="edge"><title>Node12&#45;&gt;Node13</title>
<path fill="none" stroke="midnightblue" d="M691.5,-132.247C691.5,-123.392 691.5,-113.767 691.5,-105.896"/>
<polygon fill="midnightblue" stroke="midnightblue" points="688,-132.497 691.5,-142.497 695,-132.497 688,-132.497"/>
</g>
<!-- Node18&#45;&gt;Node2 -->
<g id="edge25" class="edge"><title>Node18&#45;&gt;Node2</title>
<path fill="none" stroke="midnightblue" d="M525.518,-379.788C516.622,-370.208 505.88,-358.64 498.454,-350.643"/>
<polygon fill="midnightblue" stroke="midnightblue" points="523.073,-382.299 532.442,-387.246 528.203,-377.536 523.073,-382.299"/>
</g>
</g>
</svg>
