<?xml version="1.0" encoding="UTF-8" standalone="no"?>
<!DOCTYPE svg PUBLIC "-//W3C//DTD SVG 1.1//EN"
 "http://www.w3.org/Graphics/SVG/1.1/DTD/svg11.dtd">
<!-- Generated by graphviz version 2.38.0 (20140413.2041)
 -->
<!-- Title: interface/encoders/Constants.h Pages: 1 -->
<svg width="121pt" height="114pt"
 viewBox="0.00 0.00 121.00 114.00" xmlns="http://www.w3.org/2000/svg" xmlns:xlink="http://www.w3.org/1999/xlink">
<g id="graph0" class="graph" transform="scale(1 1) rotate(0) translate(4 110)">
<title>interface/encoders/Constants.h</title>
<polygon fill="white" stroke="none" points="-4,4 -4,-110 117,-110 117,4 -4,4"/>
<!-- Node1 -->
<g id="node1" class="node"><title>Node1</title>
<polygon fill="#bfbfbf" stroke="black" points="0,-71.5 0,-105.5 113,-105.5 113,-71.5 0,-71.5"/>
<text text-anchor="start" x="8" y="-91.9" font-family="Helvetica,sans-Serif" font-size="12.00">interface/encoders</text>
<text text-anchor="middle" x="56.5" y="-78.9" font-family="Helvetica,sans-Serif" font-size="12.00">/Constants.h</text>
</g>
<!-- Node2 -->
<g id="node2" class="node"><title>Node2</title>
<g id="a_node2"><a xlink:href="interface_2encoders_2_encoders_8cpp.html" target="_top" xlink:title="interface/encoders\l/Encoders.cpp">
<polygon fill="white" stroke="black" points="0,-0.5 0,-34.5 113,-34.5 113,-0.5 0,-0.5"/>
<text text-anchor="start" x="8" y="-20.9" font-family="Helvetica,sans-Serif" font-size="12.00">interface/encoders</text>
<text text-anchor="middle" x="56.5" y="-7.9" font-family="Helvetica,sans-Serif" font-size="12.00">/Encoders.cpp</text>
</a>
</g>
</g>
<!-- Node1&#45;&gt;Node2 -->
<g id="edge1" class="edge"><title>Node1&#45;&gt;Node2</title>
<path fill="none" stroke="midnightblue" d="M56.5,-61.2468C56.5,-52.3917 56.5,-42.7667 56.5,-34.8958"/>
<polygon fill="midnightblue" stroke="midnightblue" points="53.0001,-61.4965 56.5,-71.4966 60.0001,-61.4966 53.0001,-61.4965"/>
</g>
</g>
</svg>
