<?xml version="1.0" encoding="UTF-8" standalone="no"?>
<!DOCTYPE svg PUBLIC "-//W3C//DTD SVG 1.1//EN"
 "http://www.w3.org/Graphics/SVG/1.1/DTD/svg11.dtd">
<!-- Generated by graphviz version 2.38.0 (20140413.2041)
 -->
<!-- Title: interface/digital/input/buttons/DataTypes.h Pages: 1 -->
<!--zoomable 514 -->
<svg id="main" version="1.1" xmlns="http://www.w3.org/2000/svg" xmlns:xlink="http://www.w3.org/1999/xlink" xml:space="preserve" onload="init(evt)">
<style type="text/css"><![CDATA[
.edge:hover path { stroke: red; }
.edge:hover polygon { stroke: red; fill: red; }
]]></style>
<script type="text/javascript"><![CDATA[
var edges = document.getElementsByTagName('g');
if (edges && edges.length) {
  for (var i=0;i<edges.length;i++) {
    if (edges[i].id.substr(0,4)=='edge') {
      edges[i].setAttribute('class','edge');
    }
  }
}
]]></script>
        <defs>
                <circle id="rim" cx="0" cy="0" r="7"/>
                <circle id="rim2" cx="0" cy="0" r="3.5"/>
                <g id="zoomPlus">
                        <use xlink:href="#rim" fill="#404040">
                                <set attributeName="fill" to="#808080" begin="zoomplus.mouseover" end="zoomplus.mouseout"/>
                        </use>
                        <path d="M-4,0h8M0,-4v8" fill="none" stroke="white" stroke-width="1.5" pointer-events="none"/>
                </g>
                <g id="zoomMin">
                        <use xlink:href="#rim" fill="#404040">
                                <set attributeName="fill" to="#808080" begin="zoomminus.mouseover" end="zoomminus.mouseout"/>
                        </use>
                        <path d="M-4,0h8" fill="none" stroke="white" stroke-width="1.5" pointer-events="none"/>
                </g>
                <g id="dirArrow">
                        <path fill="none" stroke="white" stroke-width="1.5" d="M0,-3.0v7 M-2.5,-0.5L0,-3.0L2.5,-0.5"/>
                </g>
               <g id="resetDef">
                       <use xlink:href="#rim2" fill="#404040">
                               <set attributeName="fill" to="#808080" begin="reset.mouseover" end="reset.mouseout"/>
                       </use>
               </g>
        </defs>

<script type="text/javascript">
var viewWidth = 1055;
var viewHeight = 514;
var sectionId = 'dynsection-0';
</script>
<script xlink:href="svgpan.js"/>
<svg id="graph" class="graph">
<g id="viewport">
<title>interface/digital/input/buttons/DataTypes.h</title>
<polygon fill="white" stroke="none" points="-4,4 -4,-510 1050.5,-510 1050.5,4 -4,4"/>
<!-- Node1 -->
<g id="node1" class="node"><title>Node1</title>
<polygon fill="#bfbfbf" stroke="black" points="625.5,-471.5 625.5,-505.5 751.5,-505.5 751.5,-471.5 625.5,-471.5"/>
<text text-anchor="start" x="633.5" y="-491.9" font-family="Helvetica,sans-Serif" font-size="12.00">interface/digital/input</text>
<text text-anchor="middle" x="688.5" y="-478.9" font-family="Helvetica,sans-Serif" font-size="12.00">/buttons/DataTypes.h</text>
</g>
<!-- Node2 -->
<g id="node2" class="node"><title>Node2</title>
<g id="a_node2"><a xlink:href="interface_2digital_2input_2buttons_2_buttons_8h.html" target="_top" xlink:title="interface/digital/input\l/buttons/Buttons.h">
<polygon fill="white" stroke="black" points="626.5,-400.5 626.5,-434.5 750.5,-434.5 750.5,-400.5 626.5,-400.5"/>
<text text-anchor="start" x="634.5" y="-420.9" font-family="Helvetica,sans-Serif" font-size="12.00">interface/digital/input</text>
<text text-anchor="middle" x="688.5" y="-407.9" font-family="Helvetica,sans-Serif" font-size="12.00">/buttons/Buttons.h</text>
</a>
</g>
</g>
<!-- Node1&#45;&gt;Node2 -->
<g id="edge1" class="edge"><title>Node1&#45;&gt;Node2</title>
<path fill="none" stroke="midnightblue" d="M688.5,-461.247C688.5,-452.392 688.5,-442.767 688.5,-434.896"/>
<polygon fill="midnightblue" stroke="midnightblue" points="685,-461.497 688.5,-471.497 692,-461.497 685,-461.497"/>
</g>
<!-- Node3 -->
<g id="node3" class="node"><title>Node3</title>
<g id="a_node3"><a xlink:href="interface_2analog_2_analog_8h.html" target="_top" xlink:title="interface/analog/Analog.h">
<polygon fill="white" stroke="black" points="458,-336 458,-357 607,-357 607,-336 458,-336"/>
<text text-anchor="middle" x="532.5" y="-343.4" font-family="Helvetica,sans-Serif" font-size="12.00">interface/analog/Analog.h</text>
</a>
</g>
</g>
<!-- Node2&#45;&gt;Node3 -->
<g id="edge2" class="edge"><title>Node2&#45;&gt;Node3</title>
<path fill="none" stroke="midnightblue" d="M643.088,-396.414C613.764,-383.443 576.947,-367.159 554.068,-357.04"/>
<polygon fill="midnightblue" stroke="midnightblue" points="641.757,-399.652 652.318,-400.497 644.589,-393.251 641.757,-399.652"/>
</g>
<!-- Node10 -->
<g id="node10" class="node"><title>Node10</title>
<g id="a_node10"><a xlink:href="_digital_input_8h.html" target="_top" xlink:title="interface/digital/input\l/DigitalInput.h">
<polygon fill="white" stroke="black" points="794.5,-71.5 794.5,-105.5 918.5,-105.5 918.5,-71.5 794.5,-71.5"/>
<text text-anchor="start" x="802.5" y="-91.9" font-family="Helvetica,sans-Serif" font-size="12.00">interface/digital/input</text>
<text text-anchor="middle" x="856.5" y="-78.9" font-family="Helvetica,sans-Serif" font-size="12.00">/DigitalInput.h</text>
</a>
</g>
</g>
<!-- Node2&#45;&gt;Node10 -->
<g id="edge22" class="edge"><title>Node2&#45;&gt;Node10</title>
<path fill="none" stroke="midnightblue" d="M760.355,-401.122C819.791,-383.686 894.5,-348.702 894.5,-283 894.5,-283 894.5,-283 894.5,-223 894.5,-179.142 875.294,-130.169 864.19,-105.522"/>
<polygon fill="midnightblue" stroke="midnightblue" points="759.263,-397.793 750.586,-403.873 761.161,-404.531 759.263,-397.793"/>
</g>
<!-- Node17 -->
<g id="node17" class="node"><title>Node17</title>
<g id="a_node17"><a xlink:href="interface_2digital_2input_2buttons_2_buttons_8cpp.html" target="_top" xlink:title="interface/digital/input\l/buttons/Buttons.cpp">
<polygon fill="white" stroke="black" points="922.5,-329.5 922.5,-363.5 1046.5,-363.5 1046.5,-329.5 922.5,-329.5"/>
<text text-anchor="start" x="930.5" y="-349.9" font-family="Helvetica,sans-Serif" font-size="12.00">interface/digital/input</text>
<text text-anchor="middle" x="984.5" y="-336.9" font-family="Helvetica,sans-Serif" font-size="12.00">/buttons/Buttons.cpp</text>
</a>
</g>
</g>
<!-- Node2&#45;&gt;Node17 -->
<g id="edge23" class="edge"><title>Node2&#45;&gt;Node17</title>
<path fill="none" stroke="midnightblue" d="M760.546,-399.705C810.028,-388.171 875.05,-373.014 922.276,-362.005"/>
<polygon fill="midnightblue" stroke="midnightblue" points="759.496,-396.356 750.551,-402.035 761.085,-403.174 759.496,-396.356"/>
</g>
<!-- Node4 -->
<g id="node4" class="node"><title>Node4</title>
<g id="a_node4"><a xlink:href="_interface_8h.html" target="_top" xlink:title="interface/Interface.h">
<polygon fill="white" stroke="black" points="679.5,-271.5 679.5,-292.5 797.5,-292.5 797.5,-271.5 679.5,-271.5"/>
<text text-anchor="middle" x="738.5" y="-278.9" font-family="Helvetica,sans-Serif" font-size="12.00">interface/Interface.h</text>
</a>
</g>
</g>
<!-- Node3&#45;&gt;Node4 -->
<g id="edge3" class="edge"><title>Node3&#45;&gt;Node4</title>
<path fill="none" stroke="midnightblue" d="M574.045,-332.895C613.351,-320.97 671.478,-303.334 707.066,-292.537"/>
<polygon fill="midnightblue" stroke="midnightblue" points="572.789,-329.619 564.236,-335.871 574.821,-336.317 572.789,-329.619"/>
</g>
<!-- Node13 -->
<g id="node13" class="node"><title>Node13</title>
<g id="a_node13"><a xlink:href="_f_s_r_8cpp.html" target="_top" xlink:title="interface/analog/FSR.cpp">
<polygon fill="white" stroke="black" points="0,-149 0,-170 149,-170 149,-149 0,-149"/>
<text text-anchor="middle" x="74.5" y="-156.4" font-family="Helvetica,sans-Serif" font-size="12.00">interface/analog/FSR.cpp</text>
</a>
</g>
</g>
<!-- Node3&#45;&gt;Node13 -->
<g id="edge20" class="edge"><title>Node3&#45;&gt;Node13</title>
<path fill="none" stroke="midnightblue" d="M499.37,-332.118C411.551,-296.645 174.324,-200.822 98.293,-170.111"/>
<polygon fill="midnightblue" stroke="midnightblue" points="498.257,-335.443 508.84,-335.943 500.879,-328.953 498.257,-335.443"/>
</g>
<!-- Node14 -->
<g id="node14" class="node"><title>Node14</title>
<g id="a_node14"><a xlink:href="_potentiometer_8cpp.html" target="_top" xlink:title="interface/analog/Potentiometer.cpp">
<polygon fill="white" stroke="black" points="167,-149 167,-170 366,-170 366,-149 167,-149"/>
<text text-anchor="middle" x="266.5" y="-156.4" font-family="Helvetica,sans-Serif" font-size="12.00">interface/analog/Potentiometer.cpp</text>
</a>
</g>
</g>
<!-- Node3&#45;&gt;Node14 -->
<g id="edge21" class="edge"><title>Node3&#45;&gt;Node14</title>
<path fill="none" stroke="midnightblue" d="M510.162,-329.964C456.879,-292.907 323.55,-200.178 280.289,-170.09"/>
<polygon fill="midnightblue" stroke="midnightblue" points="508.365,-332.978 518.573,-335.814 512.362,-327.231 508.365,-332.978"/>
</g>
<!-- Node16 -->
<g id="node16" class="node"><title>Node16</title>
<g id="a_node16"><a xlink:href="interface_2analog_2_analog_8cpp.html" target="_top" xlink:title="interface/analog/Analog.cpp">
<polygon fill="white" stroke="black" points="499.5,-271.5 499.5,-292.5 661.5,-292.5 661.5,-271.5 499.5,-271.5"/>
<text text-anchor="middle" x="580.5" y="-278.9" font-family="Helvetica,sans-Serif" font-size="12.00">interface/analog/Analog.cpp</text>
</a>
</g>
</g>
<!-- Node3&#45;&gt;Node16 -->
<g id="edge19" class="edge"><title>Node3&#45;&gt;Node16</title>
<path fill="none" stroke="midnightblue" d="M546.1,-327.791C554.782,-316.488 565.713,-302.253 572.894,-292.903"/>
<polygon fill="midnightblue" stroke="midnightblue" points="543.315,-325.672 540,-335.734 548.867,-329.935 543.315,-325.672"/>
</g>
<!-- Node5 -->
<g id="node5" class="node"><title>Node5</title>
<g id="a_node5"><a xlink:href="_open_deck_8h.html" target="_top" xlink:title="OpenDeck.h">
<polygon fill="white" stroke="black" points="448.5,-213.5 448.5,-234.5 530.5,-234.5 530.5,-213.5 448.5,-213.5"/>
<text text-anchor="middle" x="489.5" y="-220.9" font-family="Helvetica,sans-Serif" font-size="12.00">OpenDeck.h</text>
</a>
</g>
</g>
<!-- Node4&#45;&gt;Node5 -->
<g id="edge4" class="edge"><title>Node4&#45;&gt;Node5</title>
<path fill="none" stroke="midnightblue" d="M686.129,-269.222C639.815,-258.806 573.171,-243.818 530.605,-234.244"/>
<polygon fill="midnightblue" stroke="midnightblue" points="685.454,-272.657 695.978,-271.437 686.99,-265.828 685.454,-272.657"/>
</g>
<!-- Node5&#45;&gt;Node2 -->
<g id="edge9" class="edge"><title>Node5&#45;&gt;Node2</title>
<path fill="none" stroke="midnightblue" d="M475.047,-242.787C453.716,-271.309 419.318,-327.745 448.5,-364 470.43,-391.245 562.758,-405.129 626.287,-411.588"/>
<polygon fill="midnightblue" stroke="midnightblue" points="478.057,-244.616 481.416,-234.568 472.524,-240.328 478.057,-244.616"/>
</g>
<!-- Node5&#45;&gt;Node3 -->
<g id="edge10" class="edge"><title>Node5&#45;&gt;Node3</title>
<path fill="none" stroke="midnightblue" d="M486.502,-244.515C485.14,-258.442 484.896,-277.393 490.5,-293 496.732,-310.357 511.27,-326.288 521.488,-335.94"/>
<polygon fill="midnightblue" stroke="midnightblue" points="489.976,-244.94 487.744,-234.583 483.03,-244.071 489.976,-244.94"/>
</g>
<!-- Node6 -->
<g id="node6" class="node"><title>Node6</title>
<g id="a_node6"><a xlink:href="_init_8cpp.html" target="_top" xlink:title="Init.cpp">
<polygon fill="white" stroke="black" points="513,-149 513,-170 566,-170 566,-149 513,-149"/>
<text text-anchor="middle" x="539.5" y="-156.4" font-family="Helvetica,sans-Serif" font-size="12.00">Init.cpp</text>
</a>
</g>
</g>
<!-- Node5&#45;&gt;Node6 -->
<g id="edge5" class="edge"><title>Node5&#45;&gt;Node6</title>
<path fill="none" stroke="midnightblue" d="M503.667,-205.291C512.71,-193.988 524.097,-179.753 531.577,-170.403"/>
<polygon fill="midnightblue" stroke="midnightblue" points="500.826,-203.239 497.313,-213.234 506.293,-207.612 500.826,-203.239"/>
</g>
<!-- Node7 -->
<g id="node7" class="node"><title>Node7</title>
<g id="a_node7"><a xlink:href="_sys_ex_8h.html" target="_top" xlink:title="sysex/src/SysEx.h">
<polygon fill="white" stroke="black" points="384.5,-149 384.5,-170 494.5,-170 494.5,-149 384.5,-149"/>
<text text-anchor="middle" x="439.5" y="-156.4" font-family="Helvetica,sans-Serif" font-size="12.00">sysex/src/SysEx.h</text>
</a>
</g>
</g>
<!-- Node5&#45;&gt;Node7 -->
<g id="edge6" class="edge"><title>Node5&#45;&gt;Node7</title>
<path fill="none" stroke="midnightblue" d="M469.478,-205.623C459.292,-194.267 448.098,-179.845 442.334,-170.403"/>
<polygon fill="midnightblue" stroke="midnightblue" points="467.228,-208.34 476.625,-213.234 472.331,-203.549 467.228,-208.34"/>
</g>
<!-- Node9 -->
<g id="node9" class="node"><title>Node9</title>
<g id="a_node9"><a xlink:href="interface_2digital_2input_2encoders_2_encoders_8h.html" target="_top" xlink:title="interface/digital/input\l/encoders/Encoders.h">
<polygon fill="white" stroke="black" points="584,-142.5 584,-176.5 715,-176.5 715,-142.5 584,-142.5"/>
<text text-anchor="start" x="592" y="-162.9" font-family="Helvetica,sans-Serif" font-size="12.00">interface/digital/input</text>
<text text-anchor="middle" x="649.5" y="-149.9" font-family="Helvetica,sans-Serif" font-size="12.00">/encoders/Encoders.h</text>
</a>
</g>
</g>
<!-- Node5&#45;&gt;Node9 -->
<g id="edge11" class="edge"><title>Node5&#45;&gt;Node9</title>
<path fill="none" stroke="midnightblue" d="M523.511,-209.714C548.299,-200.032 582.008,-186.864 608.32,-176.586"/>
<polygon fill="midnightblue" stroke="midnightblue" points="522.19,-206.473 514.149,-213.371 524.737,-212.993 522.19,-206.473"/>
</g>
<!-- Node5&#45;&gt;Node13 -->
<g id="edge16" class="edge"><title>Node5&#45;&gt;Node13</title>
<path fill="none" stroke="midnightblue" d="M438.463,-216.871C373.16,-208.813 256.629,-193.706 157.5,-177 145.331,-174.949 132.211,-172.468 120.075,-170.059"/>
<polygon fill="midnightblue" stroke="midnightblue" points="438.141,-220.358 448.493,-218.103 438.994,-213.41 438.141,-220.358"/>
</g>
<!-- Node5&#45;&gt;Node14 -->
<g id="edge17" class="edge"><title>Node5&#45;&gt;Node14</title>
<path fill="none" stroke="midnightblue" d="M445.337,-210.622C402.78,-198.695 339.299,-180.903 300.528,-170.037"/>
<polygon fill="midnightblue" stroke="midnightblue" points="444.571,-214.043 455.145,-213.371 446.461,-207.302 444.571,-214.043"/>
</g>
<!-- Node15 -->
<g id="node15" class="node"><title>Node15</title>
<g id="a_node15"><a xlink:href="_open_deck_8cpp.html" target="_top" xlink:title="OpenDeck.cpp">
<polygon fill="white" stroke="black" points="733,-149 733,-170 828,-170 828,-149 733,-149"/>
<text text-anchor="middle" x="780.5" y="-156.4" font-family="Helvetica,sans-Serif" font-size="12.00">OpenDeck.cpp</text>
</a>
</g>
</g>
<!-- Node5&#45;&gt;Node15 -->
<g id="edge18" class="edge"><title>Node5&#45;&gt;Node15</title>
<path fill="none" stroke="midnightblue" d="M540.798,-214.252C588.396,-205.819 661.087,-192.137 723.5,-177 731.91,-174.96 740.938,-172.483 749.273,-170.074"/>
<polygon fill="midnightblue" stroke="midnightblue" points="539.982,-210.842 530.74,-216.022 541.195,-217.736 539.982,-210.842"/>
</g>
<!-- Node7&#45;&gt;Node5 -->
<g id="edge7" class="edge"><title>Node7&#45;&gt;Node5</title>
<path fill="none" stroke="midnightblue" d="M459.374,-177.713C469.65,-189.149 480.984,-203.75 486.75,-213.234"/>
<polygon fill="midnightblue" stroke="midnightblue" points="461.908,-175.298 452.511,-170.403 456.805,-180.089 461.908,-175.298"/>
</g>
<!-- Node8 -->
<g id="node8" class="node"><title>Node8</title>
<g id="a_node8"><a xlink:href="_sys_ex_8cpp.html" target="_top" xlink:title="sysex/src/SysEx.cpp">
<polygon fill="white" stroke="black" points="378,-78 378,-99 501,-99 501,-78 378,-78"/>
<text text-anchor="middle" x="439.5" y="-85.4" font-family="Helvetica,sans-Serif" font-size="12.00">sysex/src/SysEx.cpp</text>
</a>
</g>
</g>
<!-- Node7&#45;&gt;Node8 -->
<g id="edge8" class="edge"><title>Node7&#45;&gt;Node8</title>
<path fill="none" stroke="midnightblue" d="M439.5,-138.588C439.5,-125.578 439.5,-109.175 439.5,-99.0127"/>
<polygon fill="midnightblue" stroke="midnightblue" points="436,-138.906 439.5,-148.906 443,-138.906 436,-138.906"/>
</g>
<!-- Node9&#45;&gt;Node10 -->
<g id="edge12" class="edge"><title>Node9&#45;&gt;Node10</title>
<path fill="none" stroke="midnightblue" d="M707.151,-139.283C739.027,-128.658 778.175,-115.608 808.392,-105.536"/>
<polygon fill="midnightblue" stroke="midnightblue" points="705.89,-136.014 697.51,-142.497 708.104,-142.655 705.89,-136.014"/>
</g>
<!-- Node12 -->
<g id="node12" class="node"><title>Node12</title>
<g id="a_node12"><a xlink:href="interface_2digital_2input_2encoders_2_encoders_8cpp.html" target="_top" xlink:title="interface/digital/input\l/encoders/Encoders.cpp">
<polygon fill="white" stroke="black" points="577.5,-71.5 577.5,-105.5 721.5,-105.5 721.5,-71.5 577.5,-71.5"/>
<text text-anchor="start" x="585.5" y="-91.9" font-family="Helvetica,sans-Serif" font-size="12.00">interface/digital/input</text>
<text text-anchor="middle" x="649.5" y="-78.9" font-family="Helvetica,sans-Serif" font-size="12.00">/encoders/Encoders.cpp</text>
</a>
</g>
</g>
<!-- Node9&#45;&gt;Node12 -->
<g id="edge15" class="edge"><title>Node9&#45;&gt;Node12</title>
<path fill="none" stroke="midnightblue" d="M649.5,-132.247C649.5,-123.392 649.5,-113.767 649.5,-105.896"/>
<polygon fill="midnightblue" stroke="midnightblue" points="646,-132.497 649.5,-142.497 653,-132.497 646,-132.497"/>
</g>
<!-- Node10&#45;&gt;Node4 -->
<g id="edge13" class="edge"><title>Node10&#45;&gt;Node4</title>
<path fill="none" stroke="midnightblue" d="M854.173,-115.67C851.714,-133.754 846.694,-157.898 836.5,-177 814.658,-217.929 772.435,-254.556 751.26,-271.327"/>
<polygon fill="midnightblue" stroke="midnightblue" points="857.672,-115.891 855.371,-105.549 850.72,-115.068 857.672,-115.891"/>
</g>
<!-- Node11 -->
<g id="node11" class="node"><title>Node11</title>
<g id="a_node11"><a xlink:href="_digital_input_8cpp.html" target="_top" xlink:title="interface/digital/input\l/DigitalInput.cpp">
<polygon fill="white" stroke="black" points="794.5,-0.5 794.5,-34.5 918.5,-34.5 918.5,-0.5 794.5,-0.5"/>
<text text-anchor="start" x="802.5" y="-20.9" font-family="Helvetica,sans-Serif" font-size="12.00">interface/digital/input</text>
<text text-anchor="middle" x="856.5" y="-7.9" font-family="Helvetica,sans-Serif" font-size="12.00">/DigitalInput.cpp</text>
</a>
</g>
</g>
<!-- Node10&#45;&gt;Node11 -->
<g id="edge14" class="edge"><title>Node10&#45;&gt;Node11</title>
<path fill="none" stroke="midnightblue" d="M856.5,-61.2468C856.5,-52.3917 856.5,-42.7667 856.5,-34.8958"/>
<polygon fill="midnightblue" stroke="midnightblue" points="853,-61.4965 856.5,-71.4966 860,-61.4966 853,-61.4965"/>
</g>
</g>
</svg>
        <g id="navigator" transform="translate(0 0)" fill="#404254">
                <rect fill="#f2f5e9" fill-opacity="0.5" stroke="#606060" stroke-width=".5" x="0" y="0" width="60" height="60"/>
                <use id="zoomplus" xlink:href="#zoomPlus" x="17" y="9" onmousedown="handleZoom(evt,'in')"/>
                <use id="zoomminus" xlink:href="#zoomMin" x="42" y="9" onmousedown="handleZoom(evt,'out')"/>
                <use id="reset" xlink:href="#resetDef" x="30" y="36" onmousedown="handleReset()"/>
                <g id="arrowUp" xlink:href="#dirArrow" transform="translate(30 24)" onmousedown="handlePan(0,-1)">
                  <use xlink:href="#rim" fill="#404040">
                        <set attributeName="fill" to="#808080" begin="arrowUp.mouseover" end="arrowUp.mouseout"/>
                  </use>
                  <path fill="none" stroke="white" stroke-width="1.5" d="M0,-3.0v7 M-2.5,-0.5L0,-3.0L2.5,-0.5"/>
                </g>
                <g id="arrowRight" xlink:href="#dirArrow" transform="rotate(90) translate(36 -43)" onmousedown="handlePan(1,0)">
                  <use xlink:href="#rim" fill="#404040">
                        <set attributeName="fill" to="#808080" begin="arrowRight.mouseover" end="arrowRight.mouseout"/>
                  </use>
                  <path fill="none" stroke="white" stroke-width="1.5" d="M0,-3.0v7 M-2.5,-0.5L0,-3.0L2.5,-0.5"/>
                </g>
                <g id="arrowDown" xlink:href="#dirArrow" transform="rotate(180) translate(-30 -48)" onmousedown="handlePan(0,1)">
                  <use xlink:href="#rim" fill="#404040">
                        <set attributeName="fill" to="#808080" begin="arrowDown.mouseover" end="arrowDown.mouseout"/>
                  </use>
                  <path fill="none" stroke="white" stroke-width="1.5" d="M0,-3.0v7 M-2.5,-0.5L0,-3.0L2.5,-0.5"/>
                </g>
                <g id="arrowLeft" xlink:href="#dirArrow" transform="rotate(270) translate(-36 17)" onmousedown="handlePan(-1,0)">
                  <use xlink:href="#rim" fill="#404040">
                        <set attributeName="fill" to="#808080" begin="arrowLeft.mouseover" end="arrowLeft.mouseout"/>
                  </use>
                  <path fill="none" stroke="white" stroke-width="1.5" d="M0,-3.0v7 M-2.5,-0.5L0,-3.0L2.5,-0.5"/>
                </g>
        </g>
        <svg viewBox="0 0 15 15" width="100%" height="30px" preserveAspectRatio="xMaxYMin meet">
         <g id="arrow_out" transform="scale(0.3 0.3)">
          <a xlink:href="interface_2digital_2input_2buttons_2_data_types_8h__dep__incl_org.svg" target="_base">
           <rect id="button" ry="5" rx="5" y="6" x="6" height="38" width="38"
                fill="#f2f5e9" fill-opacity="0.5" stroke="#606060" stroke-width="1.0"/>
           <path id="arrow"
             d="M 11.500037,31.436501 C 11.940474,20.09759 22.043105,11.32322 32.158766,21.979434 L 37.068811,17.246167 C 37.068811,17.246167 37.088388,32 37.088388,32 L 22.160133,31.978069 C 22.160133,31.978069 26.997745,27.140456 26.997745,27.140456 C 18.528582,18.264221 13.291696,25.230495 11.500037,31.436501 z"
             style="fill:#404040;"/>
          </a>
         </g>
        </svg>
</svg>
