<?xml version="1.0" encoding="UTF-8" standalone="no"?>
<!DOCTYPE svg PUBLIC "-//W3C//DTD SVG 1.1//EN"
 "http://www.w3.org/Graphics/SVG/1.1/DTD/svg11.dtd">
<!-- Generated by graphviz version 2.38.0 (20140413.2041)
 -->
<!-- Title: interface/digital/output/leds/Constants.h Pages: 1 -->
<!--zoomable 456 -->
<svg id="main" version="1.1" xmlns="http://www.w3.org/2000/svg" xmlns:xlink="http://www.w3.org/1999/xlink" xml:space="preserve" onload="init(evt)">
<style type="text/css"><![CDATA[
.edge:hover path { stroke: red; }
.edge:hover polygon { stroke: red; fill: red; }
]]></style>
<script type="text/javascript"><![CDATA[
var edges = document.getElementsByTagName('g');
if (edges && edges.length) {
  for (var i=0;i<edges.length;i++) {
    if (edges[i].id.substr(0,4)=='edge') {
      edges[i].setAttribute('class','edge');
    }
  }
}
]]></script>
        <defs>
                <circle id="rim" cx="0" cy="0" r="7"/>
                <circle id="rim2" cx="0" cy="0" r="3.5"/>
                <g id="zoomPlus">
                        <use xlink:href="#rim" fill="#404040">
                                <set attributeName="fill" to="#808080" begin="zoomplus.mouseover" end="zoomplus.mouseout"/>
                        </use>
                        <path d="M-4,0h8M0,-4v8" fill="none" stroke="white" stroke-width="1.5" pointer-events="none"/>
                </g>
                <g id="zoomMin">
                        <use xlink:href="#rim" fill="#404040">
                                <set attributeName="fill" to="#808080" begin="zoomminus.mouseover" end="zoomminus.mouseout"/>
                        </use>
                        <path d="M-4,0h8" fill="none" stroke="white" stroke-width="1.5" pointer-events="none"/>
                </g>
                <g id="dirArrow">
                        <path fill="none" stroke="white" stroke-width="1.5" d="M0,-3.0v7 M-2.5,-0.5L0,-3.0L2.5,-0.5"/>
                </g>
               <g id="resetDef">
                       <use xlink:href="#rim2" fill="#404040">
                               <set attributeName="fill" to="#808080" begin="reset.mouseover" end="reset.mouseout"/>
                       </use>
               </g>
        </defs>

<script type="text/javascript">
var viewWidth = 1091;
var viewHeight = 456;
var sectionId = 'dynsection-1';
</script>
<script xlink:href="svgpan.js"/>
<svg id="graph" class="graph">
<g id="viewport">
<title>interface/digital/output/leds/Constants.h</title>
<polygon fill="white" stroke="none" points="-4,4 -4,-452 1087,-452 1087,4 -4,4"/>
<!-- Node12 -->
<g id="node1" class="node"><title>Node12</title>
<polygon fill="#bfbfbf" stroke="black" points="164,-413.5 164,-447.5 295,-447.5 295,-413.5 164,-413.5"/>
<text text-anchor="start" x="172" y="-433.9" font-family="Helvetica,sans-Serif" font-size="12.00">interface/digital/output</text>
<text text-anchor="middle" x="229.5" y="-420.9" font-family="Helvetica,sans-Serif" font-size="12.00">/leds/Constants.h</text>
</g>
<!-- Node13 -->
<g id="node2" class="node"><title>Node13</title>
<g id="a_node2"><a xlink:href="_export_8h.html" target="_top" xlink:title="interface/Export.h">
<polygon fill="white" stroke="black" points="84,-349 84,-370 191,-370 191,-349 84,-349"/>
<text text-anchor="middle" x="137.5" y="-356.4" font-family="Helvetica,sans-Serif" font-size="12.00">interface/Export.h</text>
</a>
</g>
</g>
<!-- Node12&#45;&gt;Node13 -->
<g id="edge1" class="edge"><title>Node12&#45;&gt;Node13</title>
<path fill="none" stroke="midnightblue" d="M199.759,-407.194C183.007,-394.63 162.953,-379.59 150.22,-370.04"/>
<polygon fill="midnightblue" stroke="midnightblue" points="198.062,-410.297 208.162,-413.497 202.262,-404.697 198.062,-410.297"/>
</g>
<!-- Node16 -->
<g id="node5" class="node"><title>Node16</title>
<g id="a_node5"><a xlink:href="interface_2digital_2output_2leds_2_l_e_ds_8h.html" target="_top" xlink:title="interface/digital/output\l/leds/LEDs.h">
<polygon fill="white" stroke="black" points="257,-342.5 257,-376.5 388,-376.5 388,-342.5 257,-342.5"/>
<text text-anchor="start" x="265" y="-362.9" font-family="Helvetica,sans-Serif" font-size="12.00">interface/digital/output</text>
<text text-anchor="middle" x="322.5" y="-349.9" font-family="Helvetica,sans-Serif" font-size="12.00">/leds/LEDs.h</text>
</a>
</g>
</g>
<!-- Node12&#45;&gt;Node16 -->
<g id="edge4" class="edge"><title>Node12&#45;&gt;Node16</title>
<path fill="none" stroke="midnightblue" d="M259.143,-407.507C272.643,-397.491 288.335,-385.848 300.725,-376.656"/>
<polygon fill="midnightblue" stroke="midnightblue" points="257.015,-404.727 251.07,-413.497 261.186,-410.349 257.015,-404.727"/>
</g>
<!-- Node14 -->
<g id="node3" class="node"><title>Node14</title>
<g id="a_node3"><a xlink:href="_import_8h.html" target="_top" xlink:title="board/common/Import.h">
<polygon fill="white" stroke="black" points="18.5,-278 18.5,-299 158.5,-299 158.5,-278 18.5,-278"/>
<text text-anchor="middle" x="88.5" y="-285.4" font-family="Helvetica,sans-Serif" font-size="12.00">board/common/Import.h</text>
</a>
</g>
</g>
<!-- Node13&#45;&gt;Node14 -->
<g id="edge2" class="edge"><title>Node13&#45;&gt;Node14</title>
<path fill="none" stroke="midnightblue" d="M124.74,-340.532C115.309,-327.251 102.837,-309.689 95.2554,-299.013"/>
<polygon fill="midnightblue" stroke="midnightblue" points="122.043,-342.779 130.687,-348.906 127.75,-338.726 122.043,-342.779"/>
</g>
<!-- Node15 -->
<g id="node4" class="node"><title>Node15</title>
<g id="a_node4"><a xlink:href="board_2common_2_common_8h.html" target="_top" xlink:title="board/common/Common.h">
<polygon fill="white" stroke="black" points="0,-213.5 0,-234.5 155,-234.5 155,-213.5 0,-213.5"/>
<text text-anchor="middle" x="77.5" y="-220.9" font-family="Helvetica,sans-Serif" font-size="12.00">board/common/Common.h</text>
</a>
</g>
</g>
<!-- Node14&#45;&gt;Node15 -->
<g id="edge3" class="edge"><title>Node14&#45;&gt;Node15</title>
<path fill="none" stroke="midnightblue" d="M85.0271,-267.768C83.102,-256.83 80.7918,-243.703 79.243,-234.903"/>
<polygon fill="midnightblue" stroke="midnightblue" points="81.6008,-268.492 86.7813,-277.734 88.4948,-267.279 81.6008,-268.492"/>
</g>
<!-- Node17 -->
<g id="node6" class="node"><title>Node17</title>
<g id="a_node6"><a xlink:href="_interface_8h.html" target="_top" xlink:title="interface/Interface.h">
<polygon fill="white" stroke="black" points="446.5,-278 446.5,-299 564.5,-299 564.5,-278 446.5,-278"/>
<text text-anchor="middle" x="505.5" y="-285.4" font-family="Helvetica,sans-Serif" font-size="12.00">interface/Interface.h</text>
</a>
</g>
</g>
<!-- Node16&#45;&gt;Node17 -->
<g id="edge5" class="edge"><title>Node16&#45;&gt;Node17</title>
<path fill="none" stroke="midnightblue" d="M374.436,-338.918C409.047,-325.867 453.012,-309.291 480.199,-299.04"/>
<polygon fill="midnightblue" stroke="midnightblue" points="373.066,-335.694 364.944,-342.497 375.536,-342.243 373.066,-335.694"/>
</g>
<!-- Node33 -->
<g id="node22" class="node"><title>Node33</title>
<g id="a_node22"><a xlink:href="interface_2digital_2output_2leds_2_l_e_ds_8cpp.html" target="_top" xlink:title="interface/digital/output\l/leds/LEDs.cpp">
<polygon fill="white" stroke="black" points="257,-271.5 257,-305.5 388,-305.5 388,-271.5 257,-271.5"/>
<text text-anchor="start" x="265" y="-291.9" font-family="Helvetica,sans-Serif" font-size="12.00">interface/digital/output</text>
<text text-anchor="middle" x="322.5" y="-278.9" font-family="Helvetica,sans-Serif" font-size="12.00">/leds/LEDs.cpp</text>
</a>
</g>
</g>
<!-- Node16&#45;&gt;Node33 -->
<g id="edge28" class="edge"><title>Node16&#45;&gt;Node33</title>
<path fill="none" stroke="midnightblue" d="M322.5,-332.247C322.5,-323.392 322.5,-313.767 322.5,-305.896"/>
<polygon fill="midnightblue" stroke="midnightblue" points="319,-332.497 322.5,-342.497 326,-332.497 319,-332.497"/>
</g>
<!-- Node18 -->
<g id="node7" class="node"><title>Node18</title>
<g id="a_node7"><a xlink:href="_open_deck_8h.html" target="_top" xlink:title="OpenDeck.h">
<polygon fill="white" stroke="black" points="484.5,-213.5 484.5,-234.5 566.5,-234.5 566.5,-213.5 484.5,-213.5"/>
<text text-anchor="middle" x="525.5" y="-220.9" font-family="Helvetica,sans-Serif" font-size="12.00">OpenDeck.h</text>
</a>
</g>
</g>
<!-- Node17&#45;&gt;Node18 -->
<g id="edge6" class="edge"><title>Node17&#45;&gt;Node18</title>
<path fill="none" stroke="midnightblue" d="M511.705,-268.109C515.227,-257.104 519.486,-243.795 522.331,-234.903"/>
<polygon fill="midnightblue" stroke="midnightblue" points="508.339,-267.143 508.625,-277.734 515.006,-269.277 508.339,-267.143"/>
</g>
<!-- Node19 -->
<g id="node8" class="node"><title>Node19</title>
<g id="a_node8"><a xlink:href="_init_8cpp.html" target="_top" xlink:title="Init.cpp">
<polygon fill="white" stroke="black" points="250,-149 250,-170 303,-170 303,-149 250,-149"/>
<text text-anchor="middle" x="276.5" y="-156.4" font-family="Helvetica,sans-Serif" font-size="12.00">Init.cpp</text>
</a>
</g>
</g>
<!-- Node18&#45;&gt;Node19 -->
<g id="edge7" class="edge"><title>Node18&#45;&gt;Node19</title>
<path fill="none" stroke="midnightblue" d="M474.228,-214.105C431.749,-206.156 370.049,-193.263 317.5,-177 311.196,-175.049 304.501,-172.547 298.388,-170.084"/>
<polygon fill="midnightblue" stroke="midnightblue" points="473.858,-217.596 484.327,-215.97 475.129,-210.713 473.858,-217.596"/>
</g>
<!-- Node20 -->
<g id="node9" class="node"><title>Node20</title>
<g id="a_node9"><a xlink:href="_sys_ex_8h.html" target="_top" xlink:title="sysex/src/SysEx.h">
<polygon fill="white" stroke="black" points="803.5,-149 803.5,-170 913.5,-170 913.5,-149 803.5,-149"/>
<text text-anchor="middle" x="858.5" y="-156.4" font-family="Helvetica,sans-Serif" font-size="12.00">sysex/src/SysEx.h</text>
</a>
</g>
</g>
<!-- Node18&#45;&gt;Node20 -->
<g id="edge8" class="edge"><title>Node18&#45;&gt;Node20</title>
<path fill="none" stroke="midnightblue" d="M576.671,-214.37C629.105,-205.969 712.635,-192.264 784.5,-177 794.066,-174.968 804.353,-172.493 814.175,-170.085"/>
<polygon fill="midnightblue" stroke="midnightblue" points="575.934,-210.943 566.612,-215.978 577.039,-217.856 575.934,-210.943"/>
</g>
<!-- Node22 -->
<g id="node11" class="node"><title>Node22</title>
<g id="a_node11"><a xlink:href="interface_2digital_2input_2buttons_2_buttons_8h.html" target="_top" xlink:title="interface/digital/input\l/buttons/Buttons.h">
<polygon fill="white" stroke="black" points="473.5,-142.5 473.5,-176.5 597.5,-176.5 597.5,-142.5 473.5,-142.5"/>
<text text-anchor="start" x="481.5" y="-162.9" font-family="Helvetica,sans-Serif" font-size="12.00">interface/digital/input</text>
<text text-anchor="middle" x="535.5" y="-149.9" font-family="Helvetica,sans-Serif" font-size="12.00">/buttons/Buttons.h</text>
</a>
</g>
</g>
<!-- Node18&#45;&gt;Node22 -->
<g id="edge11" class="edge"><title>Node18&#45;&gt;Node22</title>
<path fill="none" stroke="midnightblue" d="M528.643,-203.356C530.012,-194.8 531.597,-184.891 532.899,-176.758"/>
<polygon fill="midnightblue" stroke="midnightblue" points="525.186,-202.807 527.063,-213.234 532.099,-203.913 525.186,-202.807"/>
</g>
<!-- Node23 -->
<g id="node12" class="node"><title>Node23</title>
<g id="a_node12"><a xlink:href="interface_2analog_2_analog_8h.html" target="_top" xlink:title="interface/analog/Analog.h">
<polygon fill="white" stroke="black" points="281,-78 281,-99 430,-99 430,-78 281,-78"/>
<text text-anchor="middle" x="355.5" y="-85.4" font-family="Helvetica,sans-Serif" font-size="12.00">interface/analog/Analog.h</text>
</a>
</g>
</g>
<!-- Node18&#45;&gt;Node23 -->
<g id="edge21" class="edge"><title>Node18&#45;&gt;Node23</title>
<path fill="none" stroke="midnightblue" d="M474.087,-216.46C428.06,-209.424 365.57,-196.543 350.5,-177 332.753,-153.986 344.271,-116.606 351.264,-99.1073"/>
<polygon fill="midnightblue" stroke="midnightblue" points="473.815,-219.958 484.22,-217.956 474.838,-213.033 473.815,-219.958"/>
</g>
<!-- Node25 -->
<g id="node14" class="node"><title>Node25</title>
<g id="a_node14"><a xlink:href="_f_s_r_8cpp.html" target="_top" xlink:title="interface/analog/FSR.cpp">
<polygon fill="white" stroke="black" points="504,-7 504,-28 653,-28 653,-7 504,-7"/>
<text text-anchor="middle" x="578.5" y="-14.4" font-family="Helvetica,sans-Serif" font-size="12.00">interface/analog/FSR.cpp</text>
</a>
</g>
</g>
<!-- Node18&#45;&gt;Node25 -->
<g id="edge25" class="edge"><title>Node18&#45;&gt;Node25</title>
<path fill="none" stroke="midnightblue" d="M567.456,-209.388C582.507,-202.248 597.876,-191.815 606.5,-177 630.201,-136.285 617.926,-116.704 606.5,-71 602.491,-54.9657 592.556,-38.4665 585.668,-28.3469"/>
<polygon fill="midnightblue" stroke="midnightblue" points="565.964,-206.22 558.19,-213.417 568.756,-212.639 565.964,-206.22"/>
</g>
<!-- Node26 -->
<g id="node15" class="node"><title>Node26</title>
<g id="a_node15"><a xlink:href="_potentiometer_8cpp.html" target="_top" xlink:title="interface/analog/Potentiometer.cpp">
<polygon fill="white" stroke="black" points="106,-7 106,-28 305,-28 305,-7 106,-7"/>
<text text-anchor="middle" x="205.5" y="-14.4" font-family="Helvetica,sans-Serif" font-size="12.00">interface/analog/Potentiometer.cpp</text>
</a>
</g>
</g>
<!-- Node18&#45;&gt;Node26 -->
<g id="edge26" class="edge"><title>Node18&#45;&gt;Node26</title>
<path fill="none" stroke="midnightblue" d="M473.901,-221.441C401.072,-218.145 273.322,-207.993 240.5,-177 197.473,-136.371 201.485,-55.7421 204.316,-28.0781"/>
<polygon fill="midnightblue" stroke="midnightblue" points="474.091,-224.952 484.23,-221.879 474.387,-217.958 474.091,-224.952"/>
</g>
<!-- Node30 -->
<g id="node19" class="node"><title>Node30</title>
<g id="a_node19"><a xlink:href="interface_2digital_2input_2encoders_2_encoders_8h.html" target="_top" xlink:title="interface/digital/input\l/encoders/Encoders.h">
<polygon fill="white" stroke="black" points="654,-142.5 654,-176.5 785,-176.5 785,-142.5 654,-142.5"/>
<text text-anchor="start" x="662" y="-162.9" font-family="Helvetica,sans-Serif" font-size="12.00">interface/digital/input</text>
<text text-anchor="middle" x="719.5" y="-149.9" font-family="Helvetica,sans-Serif" font-size="12.00">/encoders/Encoders.h</text>
</a>
</g>
</g>
<!-- Node18&#45;&gt;Node30 -->
<g id="edge22" class="edge"><title>Node18&#45;&gt;Node30</title>
<path fill="none" stroke="midnightblue" d="M565.153,-210.225C595.344,-200.499 637.101,-187.046 669.57,-176.586"/>
<polygon fill="midnightblue" stroke="midnightblue" points="563.832,-206.973 555.387,-213.371 565.979,-213.636 563.832,-206.973"/>
</g>
<!-- Node32 -->
<g id="node21" class="node"><title>Node32</title>
<g id="a_node21"><a xlink:href="_open_deck_8cpp.html" target="_top" xlink:title="OpenDeck.cpp">
<polygon fill="white" stroke="black" points="360,-149 360,-170 455,-170 455,-149 360,-149"/>
<text text-anchor="middle" x="407.5" y="-156.4" font-family="Helvetica,sans-Serif" font-size="12.00">OpenDeck.cpp</text>
</a>
</g>
</g>
<!-- Node18&#45;&gt;Node32 -->
<g id="edge27" class="edge"><title>Node18&#45;&gt;Node32</title>
<path fill="none" stroke="midnightblue" d="M498.329,-208.609C475.966,-196.764 444.896,-180.307 425.506,-170.037"/>
<polygon fill="midnightblue" stroke="midnightblue" points="496.846,-211.784 507.321,-213.371 500.122,-205.598 496.846,-211.784"/>
</g>
<!-- Node20&#45;&gt;Node18 -->
<g id="edge9" class="edge"><title>Node20&#45;&gt;Node18</title>
<path fill="none" stroke="midnightblue" d="M821.75,-172.571C815.366,-174.142 808.778,-175.667 802.5,-177 719.61,-194.606 621.2,-210.138 566.685,-217.848"/>
<polygon fill="midnightblue" stroke="midnightblue" points="822.709,-175.939 831.54,-170.085 820.986,-169.154 822.709,-175.939"/>
</g>
<!-- Node21 -->
<g id="node10" class="node"><title>Node21</title>
<g id="a_node10"><a xlink:href="_sys_ex_8cpp.html" target="_top" xlink:title="sysex/src/SysEx.cpp">
<polygon fill="white" stroke="black" points="960,-78 960,-99 1083,-99 1083,-78 960,-78"/>
<text text-anchor="middle" x="1021.5" y="-85.4" font-family="Helvetica,sans-Serif" font-size="12.00">sysex/src/SysEx.cpp</text>
</a>
</g>
</g>
<!-- Node20&#45;&gt;Node21 -->
<g id="edge10" class="edge"><title>Node20&#45;&gt;Node21</title>
<path fill="none" stroke="midnightblue" d="M890.53,-144.941C922.53,-131.395 970.898,-110.921 999.028,-99.0127"/>
<polygon fill="midnightblue" stroke="midnightblue" points="889.009,-141.784 881.164,-148.906 891.738,-148.231 889.009,-141.784"/>
</g>
<!-- Node22&#45;&gt;Node23 -->
<g id="edge12" class="edge"><title>Node22&#45;&gt;Node23</title>
<path fill="none" stroke="midnightblue" d="M483.978,-138.75C450.002,-125.726 407.013,-109.247 380.386,-99.0398"/>
<polygon fill="midnightblue" stroke="midnightblue" points="483.162,-142.185 493.752,-142.497 485.667,-135.649 483.162,-142.185"/>
</g>
<!-- Node27 -->
<g id="node16" class="node"><title>Node27</title>
<g id="a_node16"><a xlink:href="_digital_input_8h.html" target="_top" xlink:title="interface/digital/input\l/DigitalInput.h">
<polygon fill="white" stroke="black" points="655.5,-71.5 655.5,-105.5 779.5,-105.5 779.5,-71.5 655.5,-71.5"/>
<text text-anchor="start" x="663.5" y="-91.9" font-family="Helvetica,sans-Serif" font-size="12.00">interface/digital/input</text>
<text text-anchor="middle" x="717.5" y="-78.9" font-family="Helvetica,sans-Serif" font-size="12.00">/DigitalInput.h</text>
</a>
</g>
</g>
<!-- Node22&#45;&gt;Node27 -->
<g id="edge17" class="edge"><title>Node22&#45;&gt;Node27</title>
<path fill="none" stroke="midnightblue" d="M587.279,-138.869C615.104,-128.321 648.978,-115.478 675.202,-105.536"/>
<polygon fill="midnightblue" stroke="midnightblue" points="585.822,-135.679 577.712,-142.497 588.303,-142.224 585.822,-135.679"/>
</g>
<!-- Node29 -->
<g id="node18" class="node"><title>Node29</title>
<g id="a_node18"><a xlink:href="interface_2digital_2input_2buttons_2_buttons_8cpp.html" target="_top" xlink:title="interface/digital/input\l/buttons/Buttons.cpp">
<polygon fill="white" stroke="black" points="473.5,-71.5 473.5,-105.5 597.5,-105.5 597.5,-71.5 473.5,-71.5"/>
<text text-anchor="start" x="481.5" y="-91.9" font-family="Helvetica,sans-Serif" font-size="12.00">interface/digital/input</text>
<text text-anchor="middle" x="535.5" y="-78.9" font-family="Helvetica,sans-Serif" font-size="12.00">/buttons/Buttons.cpp</text>
</a>
</g>
</g>
<!-- Node22&#45;&gt;Node29 -->
<g id="edge20" class="edge"><title>Node22&#45;&gt;Node29</title>
<path fill="none" stroke="midnightblue" d="M535.5,-132.247C535.5,-123.392 535.5,-113.767 535.5,-105.896"/>
<polygon fill="midnightblue" stroke="midnightblue" points="532,-132.497 535.5,-142.497 539,-132.497 532,-132.497"/>
</g>
<!-- Node23&#45;&gt;Node17 -->
<g id="edge13" class="edge"><title>Node23&#45;&gt;Node17</title>
<path fill="none" stroke="midnightblue" d="M296.155,-102.339C274.874,-110.112 253.055,-122.467 240.5,-142 232.089,-155.086 231.873,-164.056 240.5,-177 267.177,-217.027 404.249,-259.506 470.099,-277.99"/>
<polygon fill="midnightblue" stroke="midnightblue" points="297.494,-105.581 305.86,-99.0803 295.266,-98.9454 297.494,-105.581"/>
</g>
<!-- Node24 -->
<g id="node13" class="node"><title>Node24</title>
<g id="a_node13"><a xlink:href="interface_2analog_2_analog_8cpp.html" target="_top" xlink:title="interface/analog/Analog.cpp">
<polygon fill="white" stroke="black" points="323.5,-7 323.5,-28 485.5,-28 485.5,-7 323.5,-7"/>
<text text-anchor="middle" x="404.5" y="-14.4" font-family="Helvetica,sans-Serif" font-size="12.00">interface/analog/Analog.cpp</text>
</a>
</g>
</g>
<!-- Node23&#45;&gt;Node24 -->
<g id="edge14" class="edge"><title>Node23&#45;&gt;Node24</title>
<path fill="none" stroke="midnightblue" d="M368.26,-69.5322C377.691,-56.2509 390.163,-38.6887 397.745,-28.0127"/>
<polygon fill="midnightblue" stroke="midnightblue" points="365.25,-67.726 362.313,-77.9058 370.957,-71.7791 365.25,-67.726"/>
</g>
<!-- Node23&#45;&gt;Node25 -->
<g id="edge15" class="edge"><title>Node23&#45;&gt;Node25</title>
<path fill="none" stroke="midnightblue" d="M396.244,-74.893C439.946,-61.3709 508.359,-40.2028 547.756,-28.0127"/>
<polygon fill="midnightblue" stroke="midnightblue" points="395.026,-71.6063 386.507,-77.9058 397.095,-78.2935 395.026,-71.6063"/>
</g>
<!-- Node23&#45;&gt;Node26 -->
<g id="edge16" class="edge"><title>Node23&#45;&gt;Node26</title>
<path fill="none" stroke="midnightblue" d="M325.26,-73.5896C295.811,-60.043 251.843,-39.8179 226.18,-28.0127"/>
<polygon fill="midnightblue" stroke="midnightblue" points="324.096,-76.9065 334.643,-77.9058 327.021,-70.547 324.096,-76.9065"/>
</g>
<!-- Node27&#45;&gt;Node17 -->
<g id="edge18" class="edge"><title>Node27&#45;&gt;Node17</title>
<path fill="none" stroke="midnightblue" d="M789.686,-106.902C847.858,-121.093 920.351,-139.231 922.5,-142 932.038,-154.288 931.987,-164.672 922.5,-177 878.995,-233.535 669.326,-267.119 564.882,-280.603"/>
<polygon fill="midnightblue" stroke="midnightblue" points="790.294,-103.448 779.75,-104.483 788.638,-110.249 790.294,-103.448"/>
</g>
<!-- Node28 -->
<g id="node17" class="node"><title>Node28</title>
<g id="a_node17"><a xlink:href="_digital_input_8cpp.html" target="_top" xlink:title="interface/digital/input\l/DigitalInput.cpp">
<polygon fill="white" stroke="black" points="671.5,-0.5 671.5,-34.5 795.5,-34.5 795.5,-0.5 671.5,-0.5"/>
<text text-anchor="start" x="679.5" y="-20.9" font-family="Helvetica,sans-Serif" font-size="12.00">interface/digital/input</text>
<text text-anchor="middle" x="733.5" y="-7.9" font-family="Helvetica,sans-Serif" font-size="12.00">/DigitalInput.cpp</text>
</a>
</g>
</g>
<!-- Node27&#45;&gt;Node28 -->
<g id="edge19" class="edge"><title>Node27&#45;&gt;Node28</title>
<path fill="none" stroke="midnightblue" d="M723.52,-61.5385C725.592,-52.6035 727.853,-42.8532 729.698,-34.8958"/>
<polygon fill="midnightblue" stroke="midnightblue" points="720.06,-60.9644 721.211,-71.4966 726.879,-62.5457 720.06,-60.9644"/>
</g>
<!-- Node30&#45;&gt;Node27 -->
<g id="edge23" class="edge"><title>Node30&#45;&gt;Node27</title>
<path fill="none" stroke="midnightblue" d="M718.739,-132.247C718.482,-123.392 718.203,-113.767 717.975,-105.896"/>
<polygon fill="midnightblue" stroke="midnightblue" points="715.248,-132.602 719.036,-142.497 722.245,-132.399 715.248,-132.602"/>
</g>
<!-- Node31 -->
<g id="node20" class="node"><title>Node31</title>
<g id="a_node20"><a xlink:href="interface_2digital_2input_2encoders_2_encoders_8cpp.html" target="_top" xlink:title="interface/digital/input\l/encoders/Encoders.cpp">
<polygon fill="white" stroke="black" points="797.5,-71.5 797.5,-105.5 941.5,-105.5 941.5,-71.5 797.5,-71.5"/>
<text text-anchor="start" x="805.5" y="-91.9" font-family="Helvetica,sans-Serif" font-size="12.00">interface/digital/input</text>
<text text-anchor="middle" x="869.5" y="-78.9" font-family="Helvetica,sans-Serif" font-size="12.00">/encoders/Encoders.cpp</text>
</a>
</g>
</g>
<!-- Node30&#45;&gt;Node31 -->
<g id="edge24" class="edge"><title>Node30&#45;&gt;Node31</title>
<path fill="none" stroke="midnightblue" d="M763.381,-138.315C786.081,-127.873 813.403,-115.305 834.639,-105.536"/>
<polygon fill="midnightblue" stroke="midnightblue" points="761.912,-135.138 754.29,-142.497 764.838,-141.497 761.912,-135.138"/>
</g>
</g>
</svg>
        <g id="navigator" transform="translate(0 0)" fill="#404254">
                <rect fill="#f2f5e9" fill-opacity="0.5" stroke="#606060" stroke-width=".5" x="0" y="0" width="60" height="60"/>
                <use id="zoomplus" xlink:href="#zoomPlus" x="17" y="9" onmousedown="handleZoom(evt,'in')"/>
                <use id="zoomminus" xlink:href="#zoomMin" x="42" y="9" onmousedown="handleZoom(evt,'out')"/>
                <use id="reset" xlink:href="#resetDef" x="30" y="36" onmousedown="handleReset()"/>
                <g id="arrowUp" xlink:href="#dirArrow" transform="translate(30 24)" onmousedown="handlePan(0,-1)">
                  <use xlink:href="#rim" fill="#404040">
                        <set attributeName="fill" to="#808080" begin="arrowUp.mouseover" end="arrowUp.mouseout"/>
                  </use>
                  <path fill="none" stroke="white" stroke-width="1.5" d="M0,-3.0v7 M-2.5,-0.5L0,-3.0L2.5,-0.5"/>
                </g>
                <g id="arrowRight" xlink:href="#dirArrow" transform="rotate(90) translate(36 -43)" onmousedown="handlePan(1,0)">
                  <use xlink:href="#rim" fill="#404040">
                        <set attributeName="fill" to="#808080" begin="arrowRight.mouseover" end="arrowRight.mouseout"/>
                  </use>
                  <path fill="none" stroke="white" stroke-width="1.5" d="M0,-3.0v7 M-2.5,-0.5L0,-3.0L2.5,-0.5"/>
                </g>
                <g id="arrowDown" xlink:href="#dirArrow" transform="rotate(180) translate(-30 -48)" onmousedown="handlePan(0,1)">
                  <use xlink:href="#rim" fill="#404040">
                        <set attributeName="fill" to="#808080" begin="arrowDown.mouseover" end="arrowDown.mouseout"/>
                  </use>
                  <path fill="none" stroke="white" stroke-width="1.5" d="M0,-3.0v7 M-2.5,-0.5L0,-3.0L2.5,-0.5"/>
                </g>
                <g id="arrowLeft" xlink:href="#dirArrow" transform="rotate(270) translate(-36 17)" onmousedown="handlePan(-1,0)">
                  <use xlink:href="#rim" fill="#404040">
                        <set attributeName="fill" to="#808080" begin="arrowLeft.mouseover" end="arrowLeft.mouseout"/>
                  </use>
                  <path fill="none" stroke="white" stroke-width="1.5" d="M0,-3.0v7 M-2.5,-0.5L0,-3.0L2.5,-0.5"/>
                </g>
        </g>
        <svg viewBox="0 0 15 15" width="100%" height="30px" preserveAspectRatio="xMaxYMin meet">
         <g id="arrow_out" transform="scale(0.3 0.3)">
          <a xlink:href="interface_2digital_2output_2leds_2_constants_8h__dep__incl_org.svg" target="_base">
           <rect id="button" ry="5" rx="5" y="6" x="6" height="38" width="38"
                fill="#f2f5e9" fill-opacity="0.5" stroke="#606060" stroke-width="1.0"/>
           <path id="arrow"
             d="M 11.500037,31.436501 C 11.940474,20.09759 22.043105,11.32322 32.158766,21.979434 L 37.068811,17.246167 C 37.068811,17.246167 37.088388,32 37.088388,32 L 22.160133,31.978069 C 22.160133,31.978069 26.997745,27.140456 26.997745,27.140456 C 18.528582,18.264221 13.291696,25.230495 11.500037,31.436501 z"
             style="fill:#404040;"/>
          </a>
         </g>
        </svg>
</svg>
