<?xml version="1.0" encoding="UTF-8" standalone="no"?>
<!DOCTYPE svg PUBLIC "-//W3C//DTD SVG 1.1//EN"
 "http://www.w3.org/Graphics/SVG/1.1/DTD/svg11.dtd">
<!-- Generated by graphviz version 2.38.0 (20140413.2041)
 -->
<!-- Title: interface/digital/input/encoders/Encoders.h Pages: 1 -->
<svg width="699pt" height="443pt"
 viewBox="0.00 0.00 698.50 443.00" xmlns="http://www.w3.org/2000/svg" xmlns:xlink="http://www.w3.org/1999/xlink">
<g id="graph0" class="graph" transform="scale(1 1) rotate(0) translate(4 439)">
<title>interface/digital/input/encoders/Encoders.h</title>
<polygon fill="white" stroke="none" points="-4,4 -4,-439 694.5,-439 694.5,4 -4,4"/>
<!-- Node35 -->
<g id="node1" class="node"><title>Node35</title>
<polygon fill="#bfbfbf" stroke="black" points="262,-400.5 262,-434.5 393,-434.5 393,-400.5 262,-400.5"/>
<text text-anchor="start" x="270" y="-420.9" font-family="Helvetica,sans-Serif" font-size="12.00">interface/digital/input</text>
<text text-anchor="middle" x="327.5" y="-407.9" font-family="Helvetica,sans-Serif" font-size="12.00">/encoders/Encoders.h</text>
</g>
<!-- Node36 -->
<g id="node2" class="node"><title>Node36</title>
<g id="a_node2"><a xlink:href="_digital_input_8h.html" target="_top" xlink:title="interface/digital/input\l/DigitalInput.h">
<polygon fill="white" stroke="black" points="417.5,-329.5 417.5,-363.5 541.5,-363.5 541.5,-329.5 417.5,-329.5"/>
<text text-anchor="start" x="425.5" y="-349.9" font-family="Helvetica,sans-Serif" font-size="12.00">interface/digital/input</text>
<text text-anchor="middle" x="479.5" y="-336.9" font-family="Helvetica,sans-Serif" font-size="12.00">/DigitalInput.h</text>
</a>
</g>
</g>
<!-- Node35&#45;&gt;Node36 -->
<g id="edge1" class="edge"><title>Node35&#45;&gt;Node36</title>
<path fill="none" stroke="midnightblue" d="M371.966,-396.315C394.968,-385.873 422.655,-373.305 444.174,-363.536"/>
<polygon fill="midnightblue" stroke="midnightblue" points="370.413,-393.176 362.754,-400.497 373.306,-399.55 370.413,-393.176"/>
</g>
<!-- Node50 -->
<g id="node16" class="node"><title>Node50</title>
<g id="a_node16"><a xlink:href="interface_2digital_2input_2encoders_2_encoders_8cpp.html" target="_top" xlink:title="interface/digital/input\l/encoders/Encoders.cpp">
<polygon fill="white" stroke="black" points="255.5,-329.5 255.5,-363.5 399.5,-363.5 399.5,-329.5 255.5,-329.5"/>
<text text-anchor="start" x="263.5" y="-349.9" font-family="Helvetica,sans-Serif" font-size="12.00">interface/digital/input</text>
<text text-anchor="middle" x="327.5" y="-336.9" font-family="Helvetica,sans-Serif" font-size="12.00">/encoders/Encoders.cpp</text>
</a>
</g>
</g>
<!-- Node35&#45;&gt;Node50 -->
<g id="edge22" class="edge"><title>Node35&#45;&gt;Node50</title>
<path fill="none" stroke="midnightblue" d="M327.5,-390.247C327.5,-381.392 327.5,-371.767 327.5,-363.896"/>
<polygon fill="midnightblue" stroke="midnightblue" points="324,-390.497 327.5,-400.497 331,-390.497 324,-390.497"/>
</g>
<!-- Node37 -->
<g id="node3" class="node"><title>Node37</title>
<g id="a_node3"><a xlink:href="_interface_8h.html" target="_top" xlink:title="interface/Interface.h">
<polygon fill="white" stroke="black" points="408.5,-265 408.5,-286 526.5,-286 526.5,-265 408.5,-265"/>
<text text-anchor="middle" x="467.5" y="-272.4" font-family="Helvetica,sans-Serif" font-size="12.00">interface/Interface.h</text>
</a>
</g>
</g>
<!-- Node36&#45;&gt;Node37 -->
<g id="edge2" class="edge"><title>Node36&#45;&gt;Node37</title>
<path fill="none" stroke="midnightblue" d="M474.959,-319.386C472.941,-307.788 470.69,-294.843 469.194,-286.24"/>
<polygon fill="midnightblue" stroke="midnightblue" points="471.555,-320.244 476.717,-329.497 478.452,-319.045 471.555,-320.244"/>
</g>
<!-- Node49 -->
<g id="node15" class="node"><title>Node49</title>
<g id="a_node15"><a xlink:href="_digital_input_8cpp.html" target="_top" xlink:title="interface/digital/input\l/DigitalInput.cpp">
<polygon fill="white" stroke="black" points="266.5,-258.5 266.5,-292.5 390.5,-292.5 390.5,-258.5 266.5,-258.5"/>
<text text-anchor="start" x="274.5" y="-278.9" font-family="Helvetica,sans-Serif" font-size="12.00">interface/digital/input</text>
<text text-anchor="middle" x="328.5" y="-265.9" font-family="Helvetica,sans-Serif" font-size="12.00">/DigitalInput.cpp</text>
</a>
</g>
</g>
<!-- Node36&#45;&gt;Node49 -->
<g id="edge21" class="edge"><title>Node36&#45;&gt;Node49</title>
<path fill="none" stroke="midnightblue" d="M435.326,-325.315C412.475,-314.873 384.971,-302.305 363.593,-292.536"/>
<polygon fill="midnightblue" stroke="midnightblue" points="433.928,-328.524 444.478,-329.497 436.837,-322.157 433.928,-328.524"/>
</g>
<!-- Node38 -->
<g id="node4" class="node"><title>Node38</title>
<g id="a_node4"><a xlink:href="_open_deck_8h.html" target="_top" xlink:title="OpenDeck.h">
<polygon fill="white" stroke="black" points="246.5,-200.5 246.5,-221.5 328.5,-221.5 328.5,-200.5 246.5,-200.5"/>
<text text-anchor="middle" x="287.5" y="-207.9" font-family="Helvetica,sans-Serif" font-size="12.00">OpenDeck.h</text>
</a>
</g>
</g>
<!-- Node37&#45;&gt;Node38 -->
<g id="edge3" class="edge"><title>Node37&#45;&gt;Node38</title>
<path fill="none" stroke="midnightblue" d="M430.099,-261.514C395.778,-249.596 345.733,-232.22 314.967,-221.537"/>
<polygon fill="midnightblue" stroke="midnightblue" points="429.175,-264.898 439.769,-264.871 431.471,-258.285 429.175,-264.898"/>
</g>
<!-- Node38&#45;&gt;Node35 -->
<g id="edge17" class="edge"><title>Node38&#45;&gt;Node35</title>
<path fill="none" stroke="midnightblue" d="M273.497,-229.586C267.661,-237.781 261.357,-247.931 257.5,-258 253.019,-269.697 236.012,-344.705 246.5,-364 255.223,-380.049 271.202,-391.949 286.677,-400.323"/>
<polygon fill="midnightblue" stroke="midnightblue" points="276.316,-231.661 279.509,-221.558 270.713,-227.465 276.316,-231.661"/>
</g>
<!-- Node39 -->
<g id="node5" class="node"><title>Node39</title>
<g id="a_node5"><a xlink:href="_init_8cpp.html" target="_top" xlink:title="Init.cpp">
<polygon fill="white" stroke="black" points="161,-136 161,-157 214,-157 214,-136 161,-136"/>
<text text-anchor="middle" x="187.5" y="-143.4" font-family="Helvetica,sans-Serif" font-size="12.00">Init.cpp</text>
</a>
</g>
</g>
<!-- Node38&#45;&gt;Node39 -->
<g id="edge4" class="edge"><title>Node38&#45;&gt;Node39</title>
<path fill="none" stroke="midnightblue" d="M263.275,-194.859C244.524,-183.14 219.118,-167.261 203.015,-157.197"/>
<polygon fill="midnightblue" stroke="midnightblue" points="261.54,-197.902 271.875,-200.234 265.25,-191.966 261.54,-197.902"/>
</g>
<!-- Node40 -->
<g id="node6" class="node"><title>Node40</title>
<g id="a_node6"><a xlink:href="_sys_ex_8h.html" target="_top" xlink:title="sysex/src/SysEx.h">
<polygon fill="white" stroke="black" points="232.5,-136 232.5,-157 342.5,-157 342.5,-136 232.5,-136"/>
<text text-anchor="middle" x="287.5" y="-143.4" font-family="Helvetica,sans-Serif" font-size="12.00">sysex/src/SysEx.h</text>
</a>
</g>
</g>
<!-- Node38&#45;&gt;Node40 -->
<g id="edge5" class="edge"><title>Node38&#45;&gt;Node40</title>
<path fill="none" stroke="midnightblue" d="M281.175,-190.268C280.331,-179.33 280.743,-166.203 282.411,-157.403"/>
<polygon fill="midnightblue" stroke="midnightblue" points="277.709,-190.753 282.438,-200.234 284.653,-189.874 277.709,-190.753"/>
</g>
<!-- Node42 -->
<g id="node8" class="node"><title>Node42</title>
<g id="a_node8"><a xlink:href="interface_2digital_2input_2buttons_2_buttons_8h.html" target="_top" xlink:title="interface/digital/input\l/buttons/Buttons.h">
<polygon fill="white" stroke="black" points="494.5,-129.5 494.5,-163.5 618.5,-163.5 618.5,-129.5 494.5,-129.5"/>
<text text-anchor="start" x="502.5" y="-149.9" font-family="Helvetica,sans-Serif" font-size="12.00">interface/digital/input</text>
<text text-anchor="middle" x="556.5" y="-136.9" font-family="Helvetica,sans-Serif" font-size="12.00">/buttons/Buttons.h</text>
</a>
</g>
</g>
<!-- Node38&#45;&gt;Node42 -->
<g id="edge8" class="edge"><title>Node38&#45;&gt;Node42</title>
<path fill="none" stroke="midnightblue" d="M338.618,-198.123C382.908,-187.833 447.12,-172.914 494.366,-161.936"/>
<polygon fill="midnightblue" stroke="midnightblue" points="337.597,-194.767 328.648,-200.44 339.181,-201.586 337.597,-194.767"/>
</g>
<!-- Node43 -->
<g id="node9" class="node"><title>Node43</title>
<g id="a_node9"><a xlink:href="interface_2analog_2_analog_8h.html" target="_top" xlink:title="interface/analog/Analog.h">
<polygon fill="white" stroke="black" points="399,-65 399,-86 548,-86 548,-65 399,-65"/>
<text text-anchor="middle" x="473.5" y="-72.4" font-family="Helvetica,sans-Serif" font-size="12.00">interface/analog/Analog.h</text>
</a>
</g>
</g>
<!-- Node38&#45;&gt;Node43 -->
<g id="edge16" class="edge"><title>Node38&#45;&gt;Node43</title>
<path fill="none" stroke="midnightblue" d="M322.749,-196.654C341.867,-188.605 365.418,-177.333 384.5,-164 418.248,-140.42 450.926,-103.643 465.533,-86.247"/>
<polygon fill="midnightblue" stroke="midnightblue" points="321.408,-193.421 313.482,-200.452 324.062,-199.899 321.408,-193.421"/>
</g>
<!-- Node45 -->
<g id="node11" class="node"><title>Node45</title>
<g id="a_node11"><a xlink:href="_f_s_r_8cpp.html" target="_top" xlink:title="interface/analog/FSR.cpp">
<polygon fill="white" stroke="black" points="296,-0.5 296,-21.5 445,-21.5 445,-0.5 296,-0.5"/>
<text text-anchor="middle" x="370.5" y="-7.9" font-family="Helvetica,sans-Serif" font-size="12.00">interface/analog/FSR.cpp</text>
</a>
</g>
</g>
<!-- Node38&#45;&gt;Node45 -->
<g id="edge18" class="edge"><title>Node38&#45;&gt;Node45</title>
<path fill="none" stroke="midnightblue" d="M317.822,-195.35C330.29,-187.75 343.628,-177.254 351.5,-164 379.477,-116.898 374.732,-47.1775 371.81,-21.7397"/>
<polygon fill="midnightblue" stroke="midnightblue" points="315.953,-192.387 308.987,-200.37 319.411,-198.473 315.953,-192.387"/>
</g>
<!-- Node46 -->
<g id="node12" class="node"><title>Node46</title>
<g id="a_node12"><a xlink:href="_potentiometer_8cpp.html" target="_top" xlink:title="interface/analog/Potentiometer.cpp">
<polygon fill="white" stroke="black" points="0,-0.5 0,-21.5 199,-21.5 199,-0.5 0,-0.5"/>
<text text-anchor="middle" x="99.5" y="-7.9" font-family="Helvetica,sans-Serif" font-size="12.00">interface/analog/Potentiometer.cpp</text>
</a>
</g>
</g>
<!-- Node38&#45;&gt;Node46 -->
<g id="edge19" class="edge"><title>Node38&#45;&gt;Node46</title>
<path fill="none" stroke="midnightblue" d="M236.293,-208.002C170.88,-204.251 63.1567,-193.629 38.5,-164 0.849713,-118.757 63.9703,-47.2992 89.513,-21.6018"/>
<polygon fill="midnightblue" stroke="midnightblue" points="236.235,-211.504 246.409,-208.547 236.612,-204.514 236.235,-211.504"/>
</g>
<!-- Node48 -->
<g id="node14" class="node"><title>Node48</title>
<g id="a_node14"><a xlink:href="_open_deck_8cpp.html" target="_top" xlink:title="OpenDeck.cpp">
<polygon fill="white" stroke="black" points="48,-136 48,-157 143,-157 143,-136 48,-136"/>
<text text-anchor="middle" x="95.5" y="-143.4" font-family="Helvetica,sans-Serif" font-size="12.00">OpenDeck.cpp</text>
</a>
</g>
</g>
<!-- Node38&#45;&gt;Node48 -->
<g id="edge20" class="edge"><title>Node38&#45;&gt;Node48</title>
<path fill="none" stroke="midnightblue" d="M248.076,-197.167C211.455,-185.246 157.756,-167.766 124.798,-157.037"/>
<polygon fill="midnightblue" stroke="midnightblue" points="247.328,-200.604 257.921,-200.371 249.495,-193.948 247.328,-200.604"/>
</g>
<!-- Node40&#45;&gt;Node38 -->
<g id="edge6" class="edge"><title>Node40&#45;&gt;Node38</title>
<path fill="none" stroke="midnightblue" d="M293.838,-167.404C294.669,-178.365 294.243,-191.48 292.563,-200.234"/>
<polygon fill="midnightblue" stroke="midnightblue" points="297.301,-166.892 292.589,-157.403 290.355,-167.76 297.301,-166.892"/>
</g>
<!-- Node41 -->
<g id="node7" class="node"><title>Node41</title>
<g id="a_node7"><a xlink:href="_sys_ex_8cpp.html" target="_top" xlink:title="sysex/src/SysEx.cpp">
<polygon fill="white" stroke="black" points="219,-65 219,-86 342,-86 342,-65 219,-65"/>
<text text-anchor="middle" x="280.5" y="-72.4" font-family="Helvetica,sans-Serif" font-size="12.00">sysex/src/SysEx.cpp</text>
</a>
</g>
</g>
<!-- Node40&#45;&gt;Node41 -->
<g id="edge7" class="edge"><title>Node40&#45;&gt;Node41</title>
<path fill="none" stroke="midnightblue" d="M285.48,-125.588C284.16,-112.578 282.496,-96.1754 281.465,-86.0127"/>
<polygon fill="midnightblue" stroke="midnightblue" points="282.035,-126.31 286.527,-135.906 288.999,-125.604 282.035,-126.31"/>
</g>
<!-- Node42&#45;&gt;Node36 -->
<g id="edge14" class="edge"><title>Node42&#45;&gt;Node36</title>
<path fill="none" stroke="midnightblue" d="M557.791,-174.086C558.15,-204.538 555.252,-255.105 535.5,-293 527.924,-307.536 514.7,-320.223 503.005,-329.483"/>
<polygon fill="midnightblue" stroke="midnightblue" points="561.284,-173.748 557.536,-163.838 554.286,-173.922 561.284,-173.748"/>
</g>
<!-- Node42&#45;&gt;Node43 -->
<g id="edge9" class="edge"><title>Node42&#45;&gt;Node43</title>
<path fill="none" stroke="midnightblue" d="M529.301,-122.889C514.368,-110.475 496.621,-95.7207 485.216,-86.2397"/>
<polygon fill="midnightblue" stroke="midnightblue" points="527.322,-125.795 537.25,-129.497 531.797,-120.412 527.322,-125.795"/>
</g>
<!-- Node47 -->
<g id="node13" class="node"><title>Node47</title>
<g id="a_node13"><a xlink:href="interface_2digital_2input_2buttons_2_buttons_8cpp.html" target="_top" xlink:title="interface/digital/input\l/buttons/Buttons.cpp">
<polygon fill="white" stroke="black" points="566.5,-58.5 566.5,-92.5 690.5,-92.5 690.5,-58.5 566.5,-58.5"/>
<text text-anchor="start" x="574.5" y="-78.9" font-family="Helvetica,sans-Serif" font-size="12.00">interface/digital/input</text>
<text text-anchor="middle" x="628.5" y="-65.9" font-family="Helvetica,sans-Serif" font-size="12.00">/buttons/Buttons.cpp</text>
</a>
</g>
</g>
<!-- Node42&#45;&gt;Node47 -->
<g id="edge15" class="edge"><title>Node42&#45;&gt;Node47</title>
<path fill="none" stroke="midnightblue" d="M580.584,-122.42C590.68,-112.744 602.185,-101.718 611.391,-92.8958"/>
<polygon fill="midnightblue" stroke="midnightblue" points="577.997,-120.051 573.199,-129.497 582.841,-125.104 577.997,-120.051"/>
</g>
<!-- Node43&#45;&gt;Node37 -->
<g id="edge10" class="edge"><title>Node43&#45;&gt;Node37</title>
<path fill="none" stroke="midnightblue" d="M472.893,-96.5153C471.621,-138.493 468.716,-234.381 467.789,-264.95"/>
<polygon fill="midnightblue" stroke="midnightblue" points="476.395,-96.522 473.199,-86.4205 469.398,-96.3099 476.395,-96.522"/>
</g>
<!-- Node44 -->
<g id="node10" class="node"><title>Node44</title>
<g id="a_node10"><a xlink:href="interface_2analog_2_analog_8cpp.html" target="_top" xlink:title="interface/analog/Analog.cpp">
<polygon fill="white" stroke="black" points="463.5,-0.5 463.5,-21.5 625.5,-21.5 625.5,-0.5 463.5,-0.5"/>
<text text-anchor="middle" x="544.5" y="-7.9" font-family="Helvetica,sans-Serif" font-size="12.00">interface/analog/Analog.cpp</text>
</a>
</g>
</g>
<!-- Node43&#45;&gt;Node44 -->
<g id="edge11" class="edge"><title>Node43&#45;&gt;Node44</title>
<path fill="none" stroke="midnightblue" d="M492.123,-58.1069C505.181,-46.6114 522.212,-31.6201 533.25,-21.9033"/>
<polygon fill="midnightblue" stroke="midnightblue" points="489.787,-55.4997 484.594,-64.7344 494.412,-60.754 489.787,-55.4997"/>
</g>
<!-- Node43&#45;&gt;Node45 -->
<g id="edge12" class="edge"><title>Node43&#45;&gt;Node45</title>
<path fill="none" stroke="midnightblue" d="M448.811,-59.5188C429.473,-47.7847 403.142,-31.8069 386.481,-21.697"/>
<polygon fill="midnightblue" stroke="midnightblue" points="447.041,-62.5389 457.406,-64.7344 450.673,-56.5545 447.041,-62.5389"/>
</g>
<!-- Node43&#45;&gt;Node46 -->
<g id="edge13" class="edge"><title>Node43&#45;&gt;Node46</title>
<path fill="none" stroke="midnightblue" d="M406.067,-63.2311C334.743,-51.3119 223.449,-32.7133 156.397,-21.5081"/>
<polygon fill="midnightblue" stroke="midnightblue" points="405.85,-66.7433 416.29,-64.9396 407.004,-59.8391 405.85,-66.7433"/>
</g>
</g>
</svg>
