<?xml version="1.0" encoding="UTF-8" standalone="no"?>
<!DOCTYPE svg PUBLIC "-//W3C//DTD SVG 1.1//EN"
 "http://www.w3.org/Graphics/SVG/1.1/DTD/svg11.dtd">
<!-- Generated by graphviz version 2.38.0 (20140413.2041)
 -->
<!-- Title: interface/digital/input/buttons/Buttons.h Pages: 1 -->
<svg width="1055pt" height="443pt"
 viewBox="0.00 0.00 1054.50 443.00" xmlns="http://www.w3.org/2000/svg" xmlns:xlink="http://www.w3.org/1999/xlink">
<g id="graph0" class="graph" transform="scale(1 1) rotate(0) translate(4 439)">
<title>interface/digital/input/buttons/Buttons.h</title>
<polygon fill="white" stroke="none" points="-4,4 -4,-439 1050.5,-439 1050.5,4 -4,4"/>
<!-- Node35 -->
<g id="node1" class="node"><title>Node35</title>
<polygon fill="#bfbfbf" stroke="black" points="626.5,-400.5 626.5,-434.5 750.5,-434.5 750.5,-400.5 626.5,-400.5"/>
<text text-anchor="start" x="634.5" y="-420.9" font-family="Helvetica,sans-Serif" font-size="12.00">interface/digital/input</text>
<text text-anchor="middle" x="688.5" y="-407.9" font-family="Helvetica,sans-Serif" font-size="12.00">/buttons/Buttons.h</text>
</g>
<!-- Node36 -->
<g id="node2" class="node"><title>Node36</title>
<g id="a_node2"><a xlink:href="interface_2analog_2_analog_8h.html" target="_top" xlink:title="interface/analog/Analog.h">
<polygon fill="white" stroke="black" points="458,-336 458,-357 607,-357 607,-336 458,-336"/>
<text text-anchor="middle" x="532.5" y="-343.4" font-family="Helvetica,sans-Serif" font-size="12.00">interface/analog/Analog.h</text>
</a>
</g>
</g>
<!-- Node35&#45;&gt;Node36 -->
<g id="edge1" class="edge"><title>Node35&#45;&gt;Node36</title>
<path fill="none" stroke="midnightblue" d="M643.088,-396.414C613.764,-383.443 576.947,-367.159 554.068,-357.04"/>
<polygon fill="midnightblue" stroke="midnightblue" points="641.757,-399.652 652.318,-400.497 644.589,-393.251 641.757,-399.652"/>
</g>
<!-- Node43 -->
<g id="node9" class="node"><title>Node43</title>
<g id="a_node9"><a xlink:href="_digital_input_8h.html" target="_top" xlink:title="interface/digital/input\l/DigitalInput.h">
<polygon fill="white" stroke="black" points="794.5,-71.5 794.5,-105.5 918.5,-105.5 918.5,-71.5 794.5,-71.5"/>
<text text-anchor="start" x="802.5" y="-91.9" font-family="Helvetica,sans-Serif" font-size="12.00">interface/digital/input</text>
<text text-anchor="middle" x="856.5" y="-78.9" font-family="Helvetica,sans-Serif" font-size="12.00">/DigitalInput.h</text>
</a>
</g>
</g>
<!-- Node35&#45;&gt;Node43 -->
<g id="edge21" class="edge"><title>Node35&#45;&gt;Node43</title>
<path fill="none" stroke="midnightblue" d="M760.355,-401.122C819.791,-383.686 894.5,-348.702 894.5,-283 894.5,-283 894.5,-283 894.5,-223 894.5,-179.142 875.294,-130.169 864.19,-105.522"/>
<polygon fill="midnightblue" stroke="midnightblue" points="759.263,-397.793 750.586,-403.873 761.161,-404.531 759.263,-397.793"/>
</g>
<!-- Node50 -->
<g id="node16" class="node"><title>Node50</title>
<g id="a_node16"><a xlink:href="interface_2digital_2input_2buttons_2_buttons_8cpp.html" target="_top" xlink:title="interface/digital/input\l/buttons/Buttons.cpp">
<polygon fill="white" stroke="black" points="922.5,-329.5 922.5,-363.5 1046.5,-363.5 1046.5,-329.5 922.5,-329.5"/>
<text text-anchor="start" x="930.5" y="-349.9" font-family="Helvetica,sans-Serif" font-size="12.00">interface/digital/input</text>
<text text-anchor="middle" x="984.5" y="-336.9" font-family="Helvetica,sans-Serif" font-size="12.00">/buttons/Buttons.cpp</text>
</a>
</g>
</g>
<!-- Node35&#45;&gt;Node50 -->
<g id="edge22" class="edge"><title>Node35&#45;&gt;Node50</title>
<path fill="none" stroke="midnightblue" d="M760.546,-399.705C810.028,-388.171 875.05,-373.014 922.276,-362.005"/>
<polygon fill="midnightblue" stroke="midnightblue" points="759.496,-396.356 750.551,-402.035 761.085,-403.174 759.496,-396.356"/>
</g>
<!-- Node37 -->
<g id="node3" class="node"><title>Node37</title>
<g id="a_node3"><a xlink:href="_interface_8h.html" target="_top" xlink:title="interface/Interface.h">
<polygon fill="white" stroke="black" points="679.5,-271.5 679.5,-292.5 797.5,-292.5 797.5,-271.5 679.5,-271.5"/>
<text text-anchor="middle" x="738.5" y="-278.9" font-family="Helvetica,sans-Serif" font-size="12.00">interface/Interface.h</text>
</a>
</g>
</g>
<!-- Node36&#45;&gt;Node37 -->
<g id="edge2" class="edge"><title>Node36&#45;&gt;Node37</title>
<path fill="none" stroke="midnightblue" d="M574.045,-332.895C613.351,-320.97 671.478,-303.334 707.066,-292.537"/>
<polygon fill="midnightblue" stroke="midnightblue" points="572.789,-329.619 564.236,-335.871 574.821,-336.317 572.789,-329.619"/>
</g>
<!-- Node46 -->
<g id="node12" class="node"><title>Node46</title>
<g id="a_node12"><a xlink:href="_f_s_r_8cpp.html" target="_top" xlink:title="interface/analog/FSR.cpp">
<polygon fill="white" stroke="black" points="0,-149 0,-170 149,-170 149,-149 0,-149"/>
<text text-anchor="middle" x="74.5" y="-156.4" font-family="Helvetica,sans-Serif" font-size="12.00">interface/analog/FSR.cpp</text>
</a>
</g>
</g>
<!-- Node36&#45;&gt;Node46 -->
<g id="edge19" class="edge"><title>Node36&#45;&gt;Node46</title>
<path fill="none" stroke="midnightblue" d="M499.37,-332.118C411.551,-296.645 174.324,-200.822 98.293,-170.111"/>
<polygon fill="midnightblue" stroke="midnightblue" points="498.257,-335.443 508.84,-335.943 500.879,-328.953 498.257,-335.443"/>
</g>
<!-- Node47 -->
<g id="node13" class="node"><title>Node47</title>
<g id="a_node13"><a xlink:href="_potentiometer_8cpp.html" target="_top" xlink:title="interface/analog/Potentiometer.cpp">
<polygon fill="white" stroke="black" points="167,-149 167,-170 366,-170 366,-149 167,-149"/>
<text text-anchor="middle" x="266.5" y="-156.4" font-family="Helvetica,sans-Serif" font-size="12.00">interface/analog/Potentiometer.cpp</text>
</a>
</g>
</g>
<!-- Node36&#45;&gt;Node47 -->
<g id="edge20" class="edge"><title>Node36&#45;&gt;Node47</title>
<path fill="none" stroke="midnightblue" d="M510.162,-329.964C456.879,-292.907 323.55,-200.178 280.289,-170.09"/>
<polygon fill="midnightblue" stroke="midnightblue" points="508.365,-332.978 518.573,-335.814 512.362,-327.231 508.365,-332.978"/>
</g>
<!-- Node49 -->
<g id="node15" class="node"><title>Node49</title>
<g id="a_node15"><a xlink:href="interface_2analog_2_analog_8cpp.html" target="_top" xlink:title="interface/analog/Analog.cpp">
<polygon fill="white" stroke="black" points="499.5,-271.5 499.5,-292.5 661.5,-292.5 661.5,-271.5 499.5,-271.5"/>
<text text-anchor="middle" x="580.5" y="-278.9" font-family="Helvetica,sans-Serif" font-size="12.00">interface/analog/Analog.cpp</text>
</a>
</g>
</g>
<!-- Node36&#45;&gt;Node49 -->
<g id="edge18" class="edge"><title>Node36&#45;&gt;Node49</title>
<path fill="none" stroke="midnightblue" d="M546.1,-327.791C554.782,-316.488 565.713,-302.253 572.894,-292.903"/>
<polygon fill="midnightblue" stroke="midnightblue" points="543.315,-325.672 540,-335.734 548.867,-329.935 543.315,-325.672"/>
</g>
<!-- Node38 -->
<g id="node4" class="node"><title>Node38</title>
<g id="a_node4"><a xlink:href="_open_deck_8h.html" target="_top" xlink:title="OpenDeck.h">
<polygon fill="white" stroke="black" points="448.5,-213.5 448.5,-234.5 530.5,-234.5 530.5,-213.5 448.5,-213.5"/>
<text text-anchor="middle" x="489.5" y="-220.9" font-family="Helvetica,sans-Serif" font-size="12.00">OpenDeck.h</text>
</a>
</g>
</g>
<!-- Node37&#45;&gt;Node38 -->
<g id="edge3" class="edge"><title>Node37&#45;&gt;Node38</title>
<path fill="none" stroke="midnightblue" d="M686.129,-269.222C639.815,-258.806 573.171,-243.818 530.605,-234.244"/>
<polygon fill="midnightblue" stroke="midnightblue" points="685.454,-272.657 695.978,-271.437 686.99,-265.828 685.454,-272.657"/>
</g>
<!-- Node38&#45;&gt;Node35 -->
<g id="edge8" class="edge"><title>Node38&#45;&gt;Node35</title>
<path fill="none" stroke="midnightblue" d="M475.047,-242.787C453.716,-271.309 419.318,-327.745 448.5,-364 470.43,-391.245 562.758,-405.129 626.287,-411.588"/>
<polygon fill="midnightblue" stroke="midnightblue" points="478.057,-244.616 481.416,-234.568 472.524,-240.328 478.057,-244.616"/>
</g>
<!-- Node38&#45;&gt;Node36 -->
<g id="edge9" class="edge"><title>Node38&#45;&gt;Node36</title>
<path fill="none" stroke="midnightblue" d="M486.502,-244.515C485.14,-258.442 484.896,-277.393 490.5,-293 496.732,-310.357 511.27,-326.288 521.488,-335.94"/>
<polygon fill="midnightblue" stroke="midnightblue" points="489.976,-244.94 487.744,-234.583 483.03,-244.071 489.976,-244.94"/>
</g>
<!-- Node39 -->
<g id="node5" class="node"><title>Node39</title>
<g id="a_node5"><a xlink:href="_init_8cpp.html" target="_top" xlink:title="Init.cpp">
<polygon fill="white" stroke="black" points="513,-149 513,-170 566,-170 566,-149 513,-149"/>
<text text-anchor="middle" x="539.5" y="-156.4" font-family="Helvetica,sans-Serif" font-size="12.00">Init.cpp</text>
</a>
</g>
</g>
<!-- Node38&#45;&gt;Node39 -->
<g id="edge4" class="edge"><title>Node38&#45;&gt;Node39</title>
<path fill="none" stroke="midnightblue" d="M503.667,-205.291C512.71,-193.988 524.097,-179.753 531.577,-170.403"/>
<polygon fill="midnightblue" stroke="midnightblue" points="500.826,-203.239 497.313,-213.234 506.293,-207.612 500.826,-203.239"/>
</g>
<!-- Node40 -->
<g id="node6" class="node"><title>Node40</title>
<g id="a_node6"><a xlink:href="_sys_ex_8h.html" target="_top" xlink:title="sysex/src/SysEx.h">
<polygon fill="white" stroke="black" points="384.5,-149 384.5,-170 494.5,-170 494.5,-149 384.5,-149"/>
<text text-anchor="middle" x="439.5" y="-156.4" font-family="Helvetica,sans-Serif" font-size="12.00">sysex/src/SysEx.h</text>
</a>
</g>
</g>
<!-- Node38&#45;&gt;Node40 -->
<g id="edge5" class="edge"><title>Node38&#45;&gt;Node40</title>
<path fill="none" stroke="midnightblue" d="M469.478,-205.623C459.292,-194.267 448.098,-179.845 442.334,-170.403"/>
<polygon fill="midnightblue" stroke="midnightblue" points="467.228,-208.34 476.625,-213.234 472.331,-203.549 467.228,-208.34"/>
</g>
<!-- Node42 -->
<g id="node8" class="node"><title>Node42</title>
<g id="a_node8"><a xlink:href="interface_2digital_2input_2encoders_2_encoders_8h.html" target="_top" xlink:title="interface/digital/input\l/encoders/Encoders.h">
<polygon fill="white" stroke="black" points="584,-142.5 584,-176.5 715,-176.5 715,-142.5 584,-142.5"/>
<text text-anchor="start" x="592" y="-162.9" font-family="Helvetica,sans-Serif" font-size="12.00">interface/digital/input</text>
<text text-anchor="middle" x="649.5" y="-149.9" font-family="Helvetica,sans-Serif" font-size="12.00">/encoders/Encoders.h</text>
</a>
</g>
</g>
<!-- Node38&#45;&gt;Node42 -->
<g id="edge10" class="edge"><title>Node38&#45;&gt;Node42</title>
<path fill="none" stroke="midnightblue" d="M523.511,-209.714C548.299,-200.032 582.008,-186.864 608.32,-176.586"/>
<polygon fill="midnightblue" stroke="midnightblue" points="522.19,-206.473 514.149,-213.371 524.737,-212.993 522.19,-206.473"/>
</g>
<!-- Node38&#45;&gt;Node46 -->
<g id="edge15" class="edge"><title>Node38&#45;&gt;Node46</title>
<path fill="none" stroke="midnightblue" d="M438.463,-216.871C373.16,-208.813 256.629,-193.706 157.5,-177 145.331,-174.949 132.211,-172.468 120.075,-170.059"/>
<polygon fill="midnightblue" stroke="midnightblue" points="438.141,-220.358 448.493,-218.103 438.994,-213.41 438.141,-220.358"/>
</g>
<!-- Node38&#45;&gt;Node47 -->
<g id="edge16" class="edge"><title>Node38&#45;&gt;Node47</title>
<path fill="none" stroke="midnightblue" d="M445.337,-210.622C402.78,-198.695 339.299,-180.903 300.528,-170.037"/>
<polygon fill="midnightblue" stroke="midnightblue" points="444.571,-214.043 455.145,-213.371 446.461,-207.302 444.571,-214.043"/>
</g>
<!-- Node48 -->
<g id="node14" class="node"><title>Node48</title>
<g id="a_node14"><a xlink:href="_open_deck_8cpp.html" target="_top" xlink:title="OpenDeck.cpp">
<polygon fill="white" stroke="black" points="733,-149 733,-170 828,-170 828,-149 733,-149"/>
<text text-anchor="middle" x="780.5" y="-156.4" font-family="Helvetica,sans-Serif" font-size="12.00">OpenDeck.cpp</text>
</a>
</g>
</g>
<!-- Node38&#45;&gt;Node48 -->
<g id="edge17" class="edge"><title>Node38&#45;&gt;Node48</title>
<path fill="none" stroke="midnightblue" d="M540.798,-214.252C588.396,-205.819 661.087,-192.137 723.5,-177 731.91,-174.96 740.938,-172.483 749.273,-170.074"/>
<polygon fill="midnightblue" stroke="midnightblue" points="539.982,-210.842 530.74,-216.022 541.195,-217.736 539.982,-210.842"/>
</g>
<!-- Node40&#45;&gt;Node38 -->
<g id="edge6" class="edge"><title>Node40&#45;&gt;Node38</title>
<path fill="none" stroke="midnightblue" d="M459.374,-177.713C469.65,-189.149 480.984,-203.75 486.75,-213.234"/>
<polygon fill="midnightblue" stroke="midnightblue" points="461.908,-175.298 452.511,-170.403 456.805,-180.089 461.908,-175.298"/>
</g>
<!-- Node41 -->
<g id="node7" class="node"><title>Node41</title>
<g id="a_node7"><a xlink:href="_sys_ex_8cpp.html" target="_top" xlink:title="sysex/src/SysEx.cpp">
<polygon fill="white" stroke="black" points="378,-78 378,-99 501,-99 501,-78 378,-78"/>
<text text-anchor="middle" x="439.5" y="-85.4" font-family="Helvetica,sans-Serif" font-size="12.00">sysex/src/SysEx.cpp</text>
</a>
</g>
</g>
<!-- Node40&#45;&gt;Node41 -->
<g id="edge7" class="edge"><title>Node40&#45;&gt;Node41</title>
<path fill="none" stroke="midnightblue" d="M439.5,-138.588C439.5,-125.578 439.5,-109.175 439.5,-99.0127"/>
<polygon fill="midnightblue" stroke="midnightblue" points="436,-138.906 439.5,-148.906 443,-138.906 436,-138.906"/>
</g>
<!-- Node42&#45;&gt;Node43 -->
<g id="edge11" class="edge"><title>Node42&#45;&gt;Node43</title>
<path fill="none" stroke="midnightblue" d="M707.151,-139.283C739.027,-128.658 778.175,-115.608 808.392,-105.536"/>
<polygon fill="midnightblue" stroke="midnightblue" points="705.89,-136.014 697.51,-142.497 708.104,-142.655 705.89,-136.014"/>
</g>
<!-- Node45 -->
<g id="node11" class="node"><title>Node45</title>
<g id="a_node11"><a xlink:href="interface_2digital_2input_2encoders_2_encoders_8cpp.html" target="_top" xlink:title="interface/digital/input\l/encoders/Encoders.cpp">
<polygon fill="white" stroke="black" points="577.5,-71.5 577.5,-105.5 721.5,-105.5 721.5,-71.5 577.5,-71.5"/>
<text text-anchor="start" x="585.5" y="-91.9" font-family="Helvetica,sans-Serif" font-size="12.00">interface/digital/input</text>
<text text-anchor="middle" x="649.5" y="-78.9" font-family="Helvetica,sans-Serif" font-size="12.00">/encoders/Encoders.cpp</text>
</a>
</g>
</g>
<!-- Node42&#45;&gt;Node45 -->
<g id="edge14" class="edge"><title>Node42&#45;&gt;Node45</title>
<path fill="none" stroke="midnightblue" d="M649.5,-132.247C649.5,-123.392 649.5,-113.767 649.5,-105.896"/>
<polygon fill="midnightblue" stroke="midnightblue" points="646,-132.497 649.5,-142.497 653,-132.497 646,-132.497"/>
</g>
<!-- Node43&#45;&gt;Node37 -->
<g id="edge12" class="edge"><title>Node43&#45;&gt;Node37</title>
<path fill="none" stroke="midnightblue" d="M854.173,-115.67C851.714,-133.754 846.694,-157.898 836.5,-177 814.658,-217.929 772.435,-254.556 751.26,-271.327"/>
<polygon fill="midnightblue" stroke="midnightblue" points="857.672,-115.891 855.371,-105.549 850.72,-115.068 857.672,-115.891"/>
</g>
<!-- Node44 -->
<g id="node10" class="node"><title>Node44</title>
<g id="a_node10"><a xlink:href="_digital_input_8cpp.html" target="_top" xlink:title="interface/digital/input\l/DigitalInput.cpp">
<polygon fill="white" stroke="black" points="794.5,-0.5 794.5,-34.5 918.5,-34.5 918.5,-0.5 794.5,-0.5"/>
<text text-anchor="start" x="802.5" y="-20.9" font-family="Helvetica,sans-Serif" font-size="12.00">interface/digital/input</text>
<text text-anchor="middle" x="856.5" y="-7.9" font-family="Helvetica,sans-Serif" font-size="12.00">/DigitalInput.cpp</text>
</a>
</g>
</g>
<!-- Node43&#45;&gt;Node44 -->
<g id="edge13" class="edge"><title>Node43&#45;&gt;Node44</title>
<path fill="none" stroke="midnightblue" d="M856.5,-61.2468C856.5,-52.3917 856.5,-42.7667 856.5,-34.8958"/>
<polygon fill="midnightblue" stroke="midnightblue" points="853,-61.4965 856.5,-71.4966 860,-61.4966 853,-61.4965"/>
</g>
</g>
</svg>
