<?xml version="1.0" encoding="UTF-8" standalone="no"?>
<!DOCTYPE svg PUBLIC "-//W3C//DTD SVG 1.1//EN"
 "http://www.w3.org/Graphics/SVG/1.1/DTD/svg11.dtd">
<!-- Generated by graphviz version 2.38.0 (20140413.2041)
 -->
<!-- Title: versioning/src/app/main.c Pages: 1 -->
<svg width="296pt" height="101pt"
 viewBox="0.00 0.00 296.00 101.00" xmlns="http://www.w3.org/2000/svg" xmlns:xlink="http://www.w3.org/1999/xlink">
<g id="graph0" class="graph" transform="scale(1 1) rotate(0) translate(4 97)">
<title>versioning/src/app/main.c</title>
<polygon fill="white" stroke="none" points="-4,4 -4,-97 292,-97 292,4 -4,4"/>
<!-- Node0 -->
<g id="node1" class="node"><title>Node0</title>
<polygon fill="#bfbfbf" stroke="black" points="86.5,-58.5 86.5,-92.5 198.5,-92.5 198.5,-58.5 86.5,-58.5"/>
<text text-anchor="start" x="94.5" y="-78.9" font-family="Helvetica,sans-Serif" font-size="12.00">versioning/src/app</text>
<text text-anchor="middle" x="142.5" y="-65.9" font-family="Helvetica,sans-Serif" font-size="12.00">/main.c</text>
</g>
<!-- Node1 -->
<g id="node2" class="node"><title>Node1</title>
<polygon fill="white" stroke="#bfbfbf" points="0,-0.5 0,-21.5 51,-21.5 51,-0.5 0,-0.5"/>
<text text-anchor="middle" x="25.5" y="-7.9" font-family="Helvetica,sans-Serif" font-size="12.00">stdio.h</text>
</g>
<!-- Node0&#45;&gt;Node1 -->
<g id="edge1" class="edge"><title>Node0&#45;&gt;Node1</title>
<path fill="none" stroke="midnightblue" d="M112.37,-58.4047C93.9743,-48.5781 70.6409,-36.1138 52.7899,-26.5779"/>
<polygon fill="midnightblue" stroke="midnightblue" points="53.9724,-23.2416 43.5029,-21.6169 50.6741,-29.4159 53.9724,-23.2416"/>
</g>
<!-- Node2 -->
<g id="node3" class="node"><title>Node2</title>
<polygon fill="white" stroke="#bfbfbf" points="69.5,-0.5 69.5,-21.5 133.5,-21.5 133.5,-0.5 69.5,-0.5"/>
<text text-anchor="middle" x="101.5" y="-7.9" font-family="Helvetica,sans-Serif" font-size="12.00">stdbool.h</text>
</g>
<!-- Node0&#45;&gt;Node2 -->
<g id="edge2" class="edge"><title>Node0&#45;&gt;Node2</title>
<path fill="none" stroke="midnightblue" d="M131.941,-58.4047C126.306,-49.8147 119.349,-39.2089 113.509,-30.3058"/>
<polygon fill="midnightblue" stroke="midnightblue" points="116.34,-28.2416 107.929,-21.8 110.487,-32.0812 116.34,-28.2416"/>
</g>
<!-- Node3 -->
<g id="node4" class="node"><title>Node3</title>
<polygon fill="white" stroke="#bfbfbf" points="152,-0.5 152,-21.5 217,-21.5 217,-0.5 152,-0.5"/>
<text text-anchor="middle" x="184.5" y="-7.9" font-family="Helvetica,sans-Serif" font-size="12.00">inttypes.h</text>
</g>
<!-- Node0&#45;&gt;Node3 -->
<g id="edge3" class="edge"><title>Node0&#45;&gt;Node3</title>
<path fill="none" stroke="midnightblue" d="M153.316,-58.4047C159.089,-49.8147 166.216,-39.2089 172.199,-30.3058"/>
<polygon fill="midnightblue" stroke="midnightblue" points="175.242,-32.0522 177.914,-21.8 169.432,-28.1478 175.242,-32.0522"/>
</g>
<!-- Node4 -->
<g id="node5" class="node"><title>Node4</title>
<polygon fill="white" stroke="#bfbfbf" points="235,-0.5 235,-21.5 288,-21.5 288,-0.5 235,-0.5"/>
<text text-anchor="middle" x="261.5" y="-7.9" font-family="Helvetica,sans-Serif" font-size="12.00">stdlib.h</text>
</g>
<!-- Node0&#45;&gt;Node4 -->
<g id="edge4" class="edge"><title>Node0&#45;&gt;Node4</title>
<path fill="none" stroke="midnightblue" d="M173.145,-58.4047C192.028,-48.4872 216.027,-35.8827 234.246,-26.3138"/>
<polygon fill="midnightblue" stroke="midnightblue" points="235.964,-29.3654 243.189,-21.6169 232.709,-23.1681 235.964,-29.3654"/>
</g>
</g>
</svg>
