<?xml version="1.0" encoding="UTF-8" standalone="no"?>
<!DOCTYPE svg PUBLIC "-//W3C//DTD SVG 1.1//EN"
 "http://www.w3.org/Graphics/SVG/1.1/DTD/svg11.dtd">
<!-- Generated by graphviz version 2.38.0 (20140413.2041)
 -->
<!-- Title: midi/src/DataTypes.h Pages: 1 -->
<svg width="150pt" height="146pt"
 viewBox="0.00 0.00 149.50 146.00" xmlns="http://www.w3.org/2000/svg" xmlns:xlink="http://www.w3.org/1999/xlink">
<g id="graph0" class="graph" transform="scale(1 1) rotate(0) translate(4 142)">
<title>midi/src/DataTypes.h</title>
<polygon fill="white" stroke="none" points="-4,4 -4,-142 145.5,-142 145.5,4 -4,4"/>
<!-- Node0 -->
<g id="node1" class="node"><title>Node0</title>
<polygon fill="#bfbfbf" stroke="black" points="5.5,-116.5 5.5,-137.5 132.5,-137.5 132.5,-116.5 5.5,-116.5"/>
<text text-anchor="middle" x="69" y="-123.9" font-family="Helvetica,sans-Serif" font-size="12.00">midi/src/DataTypes.h</text>
</g>
<!-- Node1 -->
<g id="node2" class="node"><title>Node1</title>
<g id="a_node2"><a xlink:href="midi_2src_2_helpers_8h.html" target="_top" xlink:title="Helpers.h">
<polygon fill="white" stroke="black" points="36,-58.5 36,-79.5 102,-79.5 102,-58.5 36,-58.5"/>
<text text-anchor="middle" x="69" y="-65.9" font-family="Helvetica,sans-Serif" font-size="12.00">Helpers.h</text>
</a>
</g>
</g>
<!-- Node0&#45;&gt;Node1 -->
<g id="edge1" class="edge"><title>Node0&#45;&gt;Node1</title>
<path fill="none" stroke="midnightblue" d="M69,-116.246C69,-108.938 69,-98.6944 69,-89.7046"/>
<polygon fill="midnightblue" stroke="midnightblue" points="72.5001,-89.6426 69,-79.6427 65.5001,-89.6427 72.5001,-89.6426"/>
</g>
<!-- Node2 -->
<g id="node3" class="node"><title>Node2</title>
<polygon fill="white" stroke="#bfbfbf" points="0,-0.5 0,-21.5 58,-21.5 58,-0.5 0,-0.5"/>
<text text-anchor="middle" x="29" y="-7.9" font-family="Helvetica,sans-Serif" font-size="12.00">stddef.h</text>
</g>
<!-- Node1&#45;&gt;Node2 -->
<g id="edge2" class="edge"><title>Node1&#45;&gt;Node2</title>
<path fill="none" stroke="midnightblue" d="M62.0325,-58.2455C56.4689,-50.4564 48.522,-39.3308 41.8171,-29.9439"/>
<polygon fill="midnightblue" stroke="midnightblue" points="44.5481,-27.7457 35.8876,-21.6427 38.852,-31.8144 44.5481,-27.7457"/>
</g>
<!-- Node3 -->
<g id="node4" class="node"><title>Node3</title>
<polygon fill="white" stroke="#bfbfbf" points="76.5,-0.5 76.5,-21.5 141.5,-21.5 141.5,-0.5 76.5,-0.5"/>
<text text-anchor="middle" x="109" y="-7.9" font-family="Helvetica,sans-Serif" font-size="12.00">inttypes.h</text>
</g>
<!-- Node1&#45;&gt;Node3 -->
<g id="edge3" class="edge"><title>Node1&#45;&gt;Node3</title>
<path fill="none" stroke="midnightblue" d="M75.9675,-58.2455C81.5311,-50.4564 89.478,-39.3308 96.1829,-29.9439"/>
<polygon fill="midnightblue" stroke="midnightblue" points="99.148,-31.8144 102.112,-21.6427 93.4519,-27.7457 99.148,-31.8144"/>
</g>
</g>
</svg>
