<?xml version="1.0" encoding="UTF-8" standalone="no"?>
<!DOCTYPE svg PUBLIC "-//W3C//DTD SVG 1.1//EN"
 "http://www.w3.org/Graphics/SVG/1.1/DTD/svg11.dtd">
<!-- Generated by graphviz version 2.38.0 (20140413.2041)
 -->
<!-- Title: midi/src/MIDI.h Pages: 1 -->
<svg width="1211pt" height="301pt"
 viewBox="0.00 0.00 1211.00 301.00" xmlns="http://www.w3.org/2000/svg" xmlns:xlink="http://www.w3.org/1999/xlink">
<g id="graph0" class="graph" transform="scale(1 1) rotate(0) translate(4 297)">
<title>midi/src/MIDI.h</title>
<polygon fill="white" stroke="none" points="-4,4 -4,-297 1207,-297 1207,4 -4,4"/>
<!-- Node5 -->
<g id="node1" class="node"><title>Node5</title>
<polygon fill="#bfbfbf" stroke="black" points="789,-271.5 789,-292.5 882,-292.5 882,-271.5 789,-271.5"/>
<text text-anchor="middle" x="835.5" y="-278.9" font-family="Helvetica,sans-Serif" font-size="12.00">midi/src/MIDI.h</text>
</g>
<!-- Node6 -->
<g id="node2" class="node"><title>Node6</title>
<g id="a_node2"><a xlink:href="_export_8h.html" target="_top" xlink:title="interface/Export.h">
<polygon fill="white" stroke="black" points="387,-213.5 387,-234.5 494,-234.5 494,-213.5 387,-213.5"/>
<text text-anchor="middle" x="440.5" y="-220.9" font-family="Helvetica,sans-Serif" font-size="12.00">interface/Export.h</text>
</a>
</g>
</g>
<!-- Node5&#45;&gt;Node6 -->
<g id="edge1" class="edge"><title>Node5&#45;&gt;Node6</title>
<path fill="none" stroke="midnightblue" d="M778.289,-272.889C702.164,-262.097 568.555,-243.155 494.231,-232.618"/>
<polygon fill="midnightblue" stroke="midnightblue" points="778.245,-276.418 788.637,-274.356 779.227,-269.487 778.245,-276.418"/>
</g>
<!-- Node9 -->
<g id="node5" class="node"><title>Node9</title>
<g id="a_node5"><a xlink:href="_open_deck_8h.html" target="_top" xlink:title="OpenDeck.h">
<polygon fill="white" stroke="black" points="794.5,-213.5 794.5,-234.5 876.5,-234.5 876.5,-213.5 794.5,-213.5"/>
<text text-anchor="middle" x="835.5" y="-220.9" font-family="Helvetica,sans-Serif" font-size="12.00">OpenDeck.h</text>
</a>
</g>
</g>
<!-- Node5&#45;&gt;Node9 -->
<g id="edge4" class="edge"><title>Node5&#45;&gt;Node9</title>
<path fill="none" stroke="midnightblue" d="M835.5,-261.158C835.5,-252.155 835.5,-241.92 835.5,-234.643"/>
<polygon fill="midnightblue" stroke="midnightblue" points="832,-261.246 835.5,-271.246 839,-261.246 832,-261.246"/>
</g>
<!-- Node25 -->
<g id="node21" class="node"><title>Node25</title>
<g id="a_node21"><a xlink:href="_m_i_d_i_8cpp.html" target="_top" xlink:title="midi/src/MIDI.cpp">
<polygon fill="white" stroke="black" points="895,-213.5 895,-234.5 1002,-234.5 1002,-213.5 895,-213.5"/>
<text text-anchor="middle" x="948.5" y="-220.9" font-family="Helvetica,sans-Serif" font-size="12.00">midi/src/MIDI.cpp</text>
</a>
</g>
</g>
<!-- Node5&#45;&gt;Node25 -->
<g id="edge27" class="edge"><title>Node5&#45;&gt;Node25</title>
<path fill="none" stroke="midnightblue" d="M864.079,-266.837C884.506,-256.714 911.436,-243.368 929.328,-234.501"/>
<polygon fill="midnightblue" stroke="midnightblue" points="862.331,-263.797 854.925,-271.373 865.44,-270.069 862.331,-263.797"/>
</g>
<!-- Node7 -->
<g id="node3" class="node"><title>Node7</title>
<g id="a_node3"><a xlink:href="_import_8h.html" target="_top" xlink:title="board/common/Import.h">
<polygon fill="white" stroke="black" points="88.5,-149 88.5,-170 228.5,-170 228.5,-149 88.5,-149"/>
<text text-anchor="middle" x="158.5" y="-156.4" font-family="Helvetica,sans-Serif" font-size="12.00">board/common/Import.h</text>
</a>
</g>
</g>
<!-- Node6&#45;&gt;Node7 -->
<g id="edge2" class="edge"><title>Node6&#45;&gt;Node7</title>
<path fill="none" stroke="midnightblue" d="M387.337,-211.217C333.573,-199.302 251.492,-181.11 201.632,-170.059"/>
<polygon fill="midnightblue" stroke="midnightblue" points="386.843,-214.693 397.363,-213.44 388.358,-207.859 386.843,-214.693"/>
</g>
<!-- Node8 -->
<g id="node4" class="node"><title>Node8</title>
<g id="a_node4"><a xlink:href="board_2common_2_common_8h.html" target="_top" xlink:title="board/common/Common.h">
<polygon fill="white" stroke="black" points="0,-78 0,-99 155,-99 155,-78 0,-78"/>
<text text-anchor="middle" x="77.5" y="-85.4" font-family="Helvetica,sans-Serif" font-size="12.00">board/common/Common.h</text>
</a>
</g>
</g>
<!-- Node7&#45;&gt;Node8 -->
<g id="edge3" class="edge"><title>Node7&#45;&gt;Node8</title>
<path fill="none" stroke="midnightblue" d="M139.62,-142.417C123.817,-128.955 101.802,-110.202 88.667,-99.0127"/>
<polygon fill="midnightblue" stroke="midnightblue" points="137.355,-145.086 147.237,-148.906 141.894,-139.757 137.355,-145.086"/>
</g>
<!-- Node10 -->
<g id="node6" class="node"><title>Node10</title>
<g id="a_node6"><a xlink:href="_init_8cpp.html" target="_top" xlink:title="Init.cpp">
<polygon fill="white" stroke="black" points="1015,-149 1015,-170 1068,-170 1068,-149 1015,-149"/>
<text text-anchor="middle" x="1041.5" y="-156.4" font-family="Helvetica,sans-Serif" font-size="12.00">Init.cpp</text>
</a>
</g>
</g>
<!-- Node9&#45;&gt;Node10 -->
<g id="edge5" class="edge"><title>Node9&#45;&gt;Node10</title>
<path fill="none" stroke="midnightblue" d="M886.372,-211.57C920.511,-203.333 966.246,-191.196 1005.5,-177 1011.06,-174.989 1016.95,-172.467 1022.31,-170.005"/>
<polygon fill="midnightblue" stroke="midnightblue" points="885.535,-208.172 876.619,-213.894 887.157,-214.981 885.535,-208.172"/>
</g>
<!-- Node11 -->
<g id="node7" class="node"><title>Node11</title>
<g id="a_node7"><a xlink:href="_sys_ex_8h.html" target="_top" xlink:title="sysex/src/SysEx.h">
<polygon fill="white" stroke="black" points="1086.5,-149 1086.5,-170 1196.5,-170 1196.5,-149 1086.5,-149"/>
<text text-anchor="middle" x="1141.5" y="-156.4" font-family="Helvetica,sans-Serif" font-size="12.00">sysex/src/SysEx.h</text>
</a>
</g>
</g>
<!-- Node9&#45;&gt;Node11 -->
<g id="edge6" class="edge"><title>Node9&#45;&gt;Node11</title>
<path fill="none" stroke="midnightblue" d="M884.108,-211.543C963.551,-196.409 987.061,-195.112 1068.5,-177 1077.91,-174.908 1088.03,-172.412 1097.71,-170.003"/>
<polygon fill="midnightblue" stroke="midnightblue" points="883.295,-208.135 874.135,-213.459 884.616,-215.009 883.295,-208.135"/>
</g>
<!-- Node13 -->
<g id="node9" class="node"><title>Node13</title>
<g id="a_node9"><a xlink:href="interface_2digital_2input_2buttons_2_buttons_8h.html" target="_top" xlink:title="interface/digital/input\l/buttons/Buttons.h">
<polygon fill="white" stroke="black" points="564.5,-142.5 564.5,-176.5 688.5,-176.5 688.5,-142.5 564.5,-142.5"/>
<text text-anchor="start" x="572.5" y="-162.9" font-family="Helvetica,sans-Serif" font-size="12.00">interface/digital/input</text>
<text text-anchor="middle" x="626.5" y="-149.9" font-family="Helvetica,sans-Serif" font-size="12.00">/buttons/Buttons.h</text>
</a>
</g>
</g>
<!-- Node9&#45;&gt;Node13 -->
<g id="edge9" class="edge"><title>Node9&#45;&gt;Node13</title>
<path fill="none" stroke="midnightblue" d="M793.627,-210.478C761.038,-200.733 715.574,-187.137 680.291,-176.586"/>
<polygon fill="midnightblue" stroke="midnightblue" points="792.718,-213.859 803.302,-213.371 794.724,-207.153 792.718,-213.859"/>
</g>
<!-- Node14 -->
<g id="node10" class="node"><title>Node14</title>
<g id="a_node10"><a xlink:href="interface_2analog_2_analog_8h.html" target="_top" xlink:title="interface/analog/Analog.h">
<polygon fill="white" stroke="black" points="658,-78 658,-99 807,-99 807,-78 658,-78"/>
<text text-anchor="middle" x="732.5" y="-85.4" font-family="Helvetica,sans-Serif" font-size="12.00">interface/analog/Analog.h</text>
</a>
</g>
</g>
<!-- Node9&#45;&gt;Node14 -->
<g id="edge20" class="edge"><title>Node9&#45;&gt;Node14</title>
<path fill="none" stroke="midnightblue" d="M821.974,-205.468C799.93,-176.897 756.996,-121.25 739.84,-99.014"/>
<polygon fill="midnightblue" stroke="midnightblue" points="819.213,-207.62 828.092,-213.399 824.755,-203.344 819.213,-207.62"/>
</g>
<!-- Node17 -->
<g id="node13" class="node"><title>Node17</title>
<g id="a_node13"><a xlink:href="_f_s_r_8cpp.html" target="_top" xlink:title="interface/analog/FSR.cpp">
<polygon fill="white" stroke="black" points="745,-7 745,-28 894,-28 894,-7 745,-7"/>
<text text-anchor="middle" x="819.5" y="-14.4" font-family="Helvetica,sans-Serif" font-size="12.00">interface/analog/FSR.cpp</text>
</a>
</g>
</g>
<!-- Node9&#45;&gt;Node17 -->
<g id="edge24" class="edge"><title>Node9&#45;&gt;Node17</title>
<path fill="none" stroke="midnightblue" d="M833.968,-203.413C830.62,-160.622 822.753,-60.0818 820.267,-28.3064"/>
<polygon fill="midnightblue" stroke="midnightblue" points="830.48,-203.714 834.75,-213.411 837.459,-203.168 830.48,-203.714"/>
</g>
<!-- Node18 -->
<g id="node14" class="node"><title>Node18</title>
<g id="a_node14"><a xlink:href="_potentiometer_8cpp.html" target="_top" xlink:title="interface/analog/Potentiometer.cpp">
<polygon fill="white" stroke="black" points="912,-7 912,-28 1111,-28 1111,-7 912,-7"/>
<text text-anchor="middle" x="1011.5" y="-14.4" font-family="Helvetica,sans-Serif" font-size="12.00">interface/analog/Potentiometer.cpp</text>
</a>
</g>
</g>
<!-- Node9&#45;&gt;Node18 -->
<g id="edge25" class="edge"><title>Node9&#45;&gt;Node18</title>
<path fill="none" stroke="midnightblue" d="M847.448,-204.335C858.482,-187.525 875.664,-162.398 892.5,-142 929.649,-96.9921 979.669,-48.5091 1001.08,-28.2551"/>
<polygon fill="midnightblue" stroke="midnightblue" points="844.22,-202.88 841.711,-213.173 850.092,-206.691 844.22,-202.88"/>
</g>
<!-- Node22 -->
<g id="node18" class="node"><title>Node22</title>
<g id="a_node18"><a xlink:href="interface_2digital_2input_2encoders_2_encoders_8h.html" target="_top" xlink:title="interface/digital/input\l/encoders/Encoders.h">
<polygon fill="white" stroke="black" points="328,-142.5 328,-176.5 459,-176.5 459,-142.5 328,-142.5"/>
<text text-anchor="start" x="336" y="-162.9" font-family="Helvetica,sans-Serif" font-size="12.00">interface/digital/input</text>
<text text-anchor="middle" x="393.5" y="-149.9" font-family="Helvetica,sans-Serif" font-size="12.00">/encoders/Encoders.h</text>
</a>
</g>
</g>
<!-- Node9&#45;&gt;Node22 -->
<g id="edge21" class="edge"><title>Node9&#45;&gt;Node22</title>
<path fill="none" stroke="midnightblue" d="M784.008,-217.719C713.646,-210.216 583.616,-195.324 473.5,-177 468.884,-176.232 464.128,-175.387 459.346,-174.499"/>
<polygon fill="midnightblue" stroke="midnightblue" points="784.049,-221.243 794.362,-218.816 784.786,-214.282 784.049,-221.243"/>
</g>
<!-- Node24 -->
<g id="node20" class="node"><title>Node24</title>
<g id="a_node20"><a xlink:href="_open_deck_8cpp.html" target="_top" xlink:title="OpenDeck.cpp">
<polygon fill="white" stroke="black" points="902,-149 902,-170 997,-170 997,-149 902,-149"/>
<text text-anchor="middle" x="949.5" y="-156.4" font-family="Helvetica,sans-Serif" font-size="12.00">OpenDeck.cpp</text>
</a>
</g>
</g>
<!-- Node9&#45;&gt;Node24 -->
<g id="edge26" class="edge"><title>Node9&#45;&gt;Node24</title>
<path fill="none" stroke="midnightblue" d="M862.246,-208.336C883.7,-196.574 913.205,-180.398 931.813,-170.197"/>
<polygon fill="midnightblue" stroke="midnightblue" points="860.399,-205.358 853.313,-213.234 863.764,-211.496 860.399,-205.358"/>
</g>
<!-- Node11&#45;&gt;Node9 -->
<g id="edge7" class="edge"><title>Node11&#45;&gt;Node9</title>
<path fill="none" stroke="midnightblue" d="M1104.99,-172.611C1098.85,-174.154 1092.53,-175.66 1086.5,-177 1001.75,-195.848 979.735,-196.486 894.5,-213 888.764,-214.111 882.662,-215.314 876.61,-216.488"/>
<polygon fill="midnightblue" stroke="midnightblue" points="1106.27,-175.895 1115.07,-170.003 1104.52,-169.119 1106.27,-175.895"/>
</g>
<!-- Node12 -->
<g id="node8" class="node"><title>Node12</title>
<g id="a_node8"><a xlink:href="_sys_ex_8cpp.html" target="_top" xlink:title="sysex/src/SysEx.cpp">
<polygon fill="white" stroke="black" points="1080,-78 1080,-99 1203,-99 1203,-78 1080,-78"/>
<text text-anchor="middle" x="1141.5" y="-85.4" font-family="Helvetica,sans-Serif" font-size="12.00">sysex/src/SysEx.cpp</text>
</a>
</g>
</g>
<!-- Node11&#45;&gt;Node12 -->
<g id="edge8" class="edge"><title>Node11&#45;&gt;Node12</title>
<path fill="none" stroke="midnightblue" d="M1141.5,-138.588C1141.5,-125.578 1141.5,-109.175 1141.5,-99.0127"/>
<polygon fill="midnightblue" stroke="midnightblue" points="1138,-138.906 1141.5,-148.906 1145,-138.906 1138,-138.906"/>
</g>
<!-- Node13&#45;&gt;Node14 -->
<g id="edge10" class="edge"><title>Node13&#45;&gt;Node14</title>
<path fill="none" stroke="midnightblue" d="M659.708,-136.883C679.217,-124.184 702.905,-108.765 717.845,-99.0398"/>
<polygon fill="midnightblue" stroke="midnightblue" points="657.556,-134.108 651.085,-142.497 661.375,-139.974 657.556,-134.108"/>
</g>
<!-- Node19 -->
<g id="node15" class="node"><title>Node19</title>
<g id="a_node15"><a xlink:href="_digital_input_8h.html" target="_top" xlink:title="interface/digital/input\l/DigitalInput.h">
<polygon fill="white" stroke="black" points="335.5,-71.5 335.5,-105.5 459.5,-105.5 459.5,-71.5 335.5,-71.5"/>
<text text-anchor="start" x="343.5" y="-91.9" font-family="Helvetica,sans-Serif" font-size="12.00">interface/digital/input</text>
<text text-anchor="middle" x="397.5" y="-78.9" font-family="Helvetica,sans-Serif" font-size="12.00">/DigitalInput.h</text>
</a>
</g>
</g>
<!-- Node13&#45;&gt;Node19 -->
<g id="edge16" class="edge"><title>Node13&#45;&gt;Node19</title>
<path fill="none" stroke="midnightblue" d="M563.632,-139.557C528.205,-128.883 484.438,-115.695 450.721,-105.536"/>
<polygon fill="midnightblue" stroke="midnightblue" points="562.803,-142.963 573.387,-142.497 564.822,-136.26 562.803,-142.963"/>
</g>
<!-- Node21 -->
<g id="node17" class="node"><title>Node21</title>
<g id="a_node17"><a xlink:href="interface_2digital_2input_2buttons_2_buttons_8cpp.html" target="_top" xlink:title="interface/digital/input\l/buttons/Buttons.cpp">
<polygon fill="white" stroke="black" points="515.5,-71.5 515.5,-105.5 639.5,-105.5 639.5,-71.5 515.5,-71.5"/>
<text text-anchor="start" x="523.5" y="-91.9" font-family="Helvetica,sans-Serif" font-size="12.00">interface/digital/input</text>
<text text-anchor="middle" x="577.5" y="-78.9" font-family="Helvetica,sans-Serif" font-size="12.00">/buttons/Buttons.cpp</text>
</a>
</g>
</g>
<!-- Node13&#45;&gt;Node21 -->
<g id="edge19" class="edge"><title>Node13&#45;&gt;Node21</title>
<path fill="none" stroke="midnightblue" d="M609.297,-134.276C602.627,-124.883 595.163,-114.372 589.143,-105.896"/>
<polygon fill="midnightblue" stroke="midnightblue" points="606.492,-136.37 615.135,-142.497 612.199,-132.317 606.492,-136.37"/>
</g>
<!-- Node15 -->
<g id="node11" class="node"><title>Node15</title>
<g id="a_node11"><a xlink:href="_interface_8h.html" target="_top" xlink:title="interface/Interface.h">
<polygon fill="white" stroke="black" points="428.5,-7 428.5,-28 546.5,-28 546.5,-7 428.5,-7"/>
<text text-anchor="middle" x="487.5" y="-14.4" font-family="Helvetica,sans-Serif" font-size="12.00">interface/Interface.h</text>
</a>
</g>
</g>
<!-- Node14&#45;&gt;Node15 -->
<g id="edge11" class="edge"><title>Node14&#45;&gt;Node15</title>
<path fill="none" stroke="midnightblue" d="M688.912,-75.2242C640.987,-61.7269 565.007,-40.3284 521.355,-28.0347"/>
<polygon fill="midnightblue" stroke="midnightblue" points="688.117,-78.6363 698.691,-77.9783 690.014,-71.8984 688.117,-78.6363"/>
</g>
<!-- Node16 -->
<g id="node12" class="node"><title>Node16</title>
<g id="a_node12"><a xlink:href="interface_2analog_2_analog_8cpp.html" target="_top" xlink:title="interface/analog/Analog.cpp">
<polygon fill="white" stroke="black" points="564.5,-7 564.5,-28 726.5,-28 726.5,-7 564.5,-7"/>
<text text-anchor="middle" x="645.5" y="-14.4" font-family="Helvetica,sans-Serif" font-size="12.00">interface/analog/Analog.cpp</text>
</a>
</g>
</g>
<!-- Node14&#45;&gt;Node16 -->
<g id="edge13" class="edge"><title>Node14&#45;&gt;Node16</title>
<path fill="none" stroke="midnightblue" d="M712.221,-71.4169C695.248,-57.9554 671.602,-39.2019 657.494,-28.0127"/>
<polygon fill="midnightblue" stroke="midnightblue" points="710.393,-74.4341 720.403,-77.9058 714.743,-68.9496 710.393,-74.4341"/>
</g>
<!-- Node14&#45;&gt;Node17 -->
<g id="edge14" class="edge"><title>Node14&#45;&gt;Node17</title>
<path fill="none" stroke="midnightblue" d="M752.779,-71.4169C769.752,-57.9554 793.398,-39.2019 807.506,-28.0127"/>
<polygon fill="midnightblue" stroke="midnightblue" points="750.257,-68.9496 744.597,-77.9058 754.607,-74.4341 750.257,-68.9496"/>
</g>
<!-- Node14&#45;&gt;Node18 -->
<g id="edge15" class="edge"><title>Node14&#45;&gt;Node18</title>
<path fill="none" stroke="midnightblue" d="M780.774,-75.5613C835.262,-62.0856 922.821,-40.4313 972.947,-28.0347"/>
<polygon fill="midnightblue" stroke="midnightblue" points="779.868,-72.1798 771.001,-77.9783 781.549,-78.9751 779.868,-72.1798"/>
</g>
<!-- Node15&#45;&gt;Node9 -->
<g id="edge12" class="edge"><title>Node15&#45;&gt;Node9</title>
<path fill="none" stroke="midnightblue" d="M489.121,-38.3813C493.205,-73.6893 507.343,-146.487 555.5,-177 594.512,-201.719 726.581,-214.905 794.466,-220.191"/>
<polygon fill="midnightblue" stroke="midnightblue" points="492.594,-37.9389 488.118,-28.3361 485.629,-38.6344 492.594,-37.9389"/>
</g>
<!-- Node19&#45;&gt;Node15 -->
<g id="edge17" class="edge"><title>Node19&#45;&gt;Node15</title>
<path fill="none" stroke="midnightblue" d="M426.594,-65.1943C442.982,-52.6301 462.6,-37.5897 475.057,-28.0398"/>
<polygon fill="midnightblue" stroke="midnightblue" points="424.181,-62.6346 418.374,-71.4966 428.44,-68.1899 424.181,-62.6346"/>
</g>
<!-- Node20 -->
<g id="node16" class="node"><title>Node20</title>
<g id="a_node16"><a xlink:href="_digital_input_8cpp.html" target="_top" xlink:title="interface/digital/input\l/DigitalInput.cpp">
<polygon fill="white" stroke="black" points="286.5,-0.5 286.5,-34.5 410.5,-34.5 410.5,-0.5 286.5,-0.5"/>
<text text-anchor="start" x="294.5" y="-20.9" font-family="Helvetica,sans-Serif" font-size="12.00">interface/digital/input</text>
<text text-anchor="middle" x="348.5" y="-7.9" font-family="Helvetica,sans-Serif" font-size="12.00">/DigitalInput.cpp</text>
</a>
</g>
</g>
<!-- Node19&#45;&gt;Node20 -->
<g id="edge18" class="edge"><title>Node19&#45;&gt;Node20</title>
<path fill="none" stroke="midnightblue" d="M380.297,-63.2755C373.627,-53.8829 366.163,-43.3721 360.143,-34.8958"/>
<polygon fill="midnightblue" stroke="midnightblue" points="377.492,-65.3698 386.135,-71.4966 383.199,-61.3168 377.492,-65.3698"/>
</g>
<!-- Node22&#45;&gt;Node19 -->
<g id="edge22" class="edge"><title>Node22&#45;&gt;Node19</title>
<path fill="none" stroke="midnightblue" d="M395.022,-132.247C395.535,-123.392 396.093,-113.767 396.55,-105.896"/>
<polygon fill="midnightblue" stroke="midnightblue" points="391.512,-132.311 394.428,-142.497 398.501,-132.716 391.512,-132.311"/>
</g>
<!-- Node23 -->
<g id="node19" class="node"><title>Node23</title>
<g id="a_node19"><a xlink:href="interface_2digital_2input_2encoders_2_encoders_8cpp.html" target="_top" xlink:title="interface/digital/input\l/encoders/Encoders.cpp">
<polygon fill="white" stroke="black" points="173.5,-71.5 173.5,-105.5 317.5,-105.5 317.5,-71.5 173.5,-71.5"/>
<text text-anchor="start" x="181.5" y="-91.9" font-family="Helvetica,sans-Serif" font-size="12.00">interface/digital/input</text>
<text text-anchor="middle" x="245.5" y="-78.9" font-family="Helvetica,sans-Serif" font-size="12.00">/encoders/Encoders.cpp</text>
</a>
</g>
</g>
<!-- Node22&#45;&gt;Node23 -->
<g id="edge23" class="edge"><title>Node22&#45;&gt;Node23</title>
<path fill="none" stroke="midnightblue" d="M349.905,-138.175C327.567,-127.761 300.756,-115.261 279.896,-105.536"/>
<polygon fill="midnightblue" stroke="midnightblue" points="348.631,-141.443 359.174,-142.497 351.589,-135.099 348.631,-141.443"/>
</g>
</g>
</svg>
