<?xml version="1.0" encoding="UTF-8" standalone="no"?>
<!DOCTYPE svg PUBLIC "-//W3C//DTD SVG 1.1//EN"
 "http://www.w3.org/Graphics/SVG/1.1/DTD/svg11.dtd">
<!-- Generated by graphviz version 2.38.0 (20140413.2041)
 -->
<!-- Title: midi/src/Helpers.h Pages: 1 -->
<svg width="150pt" height="88pt"
 viewBox="0.00 0.00 149.50 88.00" xmlns="http://www.w3.org/2000/svg" xmlns:xlink="http://www.w3.org/1999/xlink">
<g id="graph0" class="graph" transform="scale(1 1) rotate(0) translate(4 84)">
<title>midi/src/Helpers.h</title>
<polygon fill="white" stroke="none" points="-4,4 -4,-84 145.5,-84 145.5,4 -4,4"/>
<!-- Node0 -->
<g id="node1" class="node"><title>Node0</title>
<polygon fill="#bfbfbf" stroke="black" points="14,-58.5 14,-79.5 124,-79.5 124,-58.5 14,-58.5"/>
<text text-anchor="middle" x="69" y="-65.9" font-family="Helvetica,sans-Serif" font-size="12.00">midi/src/Helpers.h</text>
</g>
<!-- Node1 -->
<g id="node2" class="node"><title>Node1</title>
<polygon fill="white" stroke="#bfbfbf" points="0,-0.5 0,-21.5 58,-21.5 58,-0.5 0,-0.5"/>
<text text-anchor="middle" x="29" y="-7.9" font-family="Helvetica,sans-Serif" font-size="12.00">stddef.h</text>
</g>
<!-- Node0&#45;&gt;Node1 -->
<g id="edge1" class="edge"><title>Node0&#45;&gt;Node1</title>
<path fill="none" stroke="midnightblue" d="M62.0325,-58.2455C56.4689,-50.4564 48.522,-39.3308 41.8171,-29.9439"/>
<polygon fill="midnightblue" stroke="midnightblue" points="44.5481,-27.7457 35.8876,-21.6427 38.852,-31.8144 44.5481,-27.7457"/>
</g>
<!-- Node2 -->
<g id="node3" class="node"><title>Node2</title>
<polygon fill="white" stroke="#bfbfbf" points="76.5,-0.5 76.5,-21.5 141.5,-21.5 141.5,-0.5 76.5,-0.5"/>
<text text-anchor="middle" x="109" y="-7.9" font-family="Helvetica,sans-Serif" font-size="12.00">inttypes.h</text>
</g>
<!-- Node0&#45;&gt;Node2 -->
<g id="edge2" class="edge"><title>Node0&#45;&gt;Node2</title>
<path fill="none" stroke="midnightblue" d="M75.9675,-58.2455C81.5311,-50.4564 89.478,-39.3308 96.1829,-29.9439"/>
<polygon fill="midnightblue" stroke="midnightblue" points="99.148,-31.8144 102.112,-21.6427 93.4519,-27.7457 99.148,-31.8144"/>
</g>
</g>
</svg>
