<?xml version="1.0" encoding="UTF-8" standalone="no"?>
<!DOCTYPE svg PUBLIC "-//W3C//DTD SVG 1.1//EN"
 "http://www.w3.org/Graphics/SVG/1.1/DTD/svg11.dtd">
<!-- Generated by graphviz version 2.38.0 (20140413.2041)
 -->
<!-- Title: sysex/src/Config.h Pages: 1 -->
<!--zoomable 417 -->
<svg id="main" version="1.1" xmlns="http://www.w3.org/2000/svg" xmlns:xlink="http://www.w3.org/1999/xlink" xml:space="preserve" onload="init(evt)">
<style type="text/css"><![CDATA[
.edge:hover path { stroke: red; }
.edge:hover polygon { stroke: red; fill: red; }
]]></style>
<script type="text/javascript"><![CDATA[
var edges = document.getElementsByTagName('g');
if (edges && edges.length) {
  for (var i=0;i<edges.length;i++) {
    if (edges[i].id.substr(0,4)=='edge') {
      edges[i].setAttribute('class','edge');
    }
  }
}
]]></script>
        <defs>
                <circle id="rim" cx="0" cy="0" r="7"/>
                <circle id="rim2" cx="0" cy="0" r="3.5"/>
                <g id="zoomPlus">
                        <use xlink:href="#rim" fill="#404040">
                                <set attributeName="fill" to="#808080" begin="zoomplus.mouseover" end="zoomplus.mouseout"/>
                        </use>
                        <path d="M-4,0h8M0,-4v8" fill="none" stroke="white" stroke-width="1.5" pointer-events="none"/>
                </g>
                <g id="zoomMin">
                        <use xlink:href="#rim" fill="#404040">
                                <set attributeName="fill" to="#808080" begin="zoomminus.mouseover" end="zoomminus.mouseout"/>
                        </use>
                        <path d="M-4,0h8" fill="none" stroke="white" stroke-width="1.5" pointer-events="none"/>
                </g>
                <g id="dirArrow">
                        <path fill="none" stroke="white" stroke-width="1.5" d="M0,-3.0v7 M-2.5,-0.5L0,-3.0L2.5,-0.5"/>
                </g>
               <g id="resetDef">
                       <use xlink:href="#rim2" fill="#404040">
                               <set attributeName="fill" to="#808080" begin="reset.mouseover" end="reset.mouseout"/>
                       </use>
               </g>
        </defs>

<script type="text/javascript">
var viewWidth = 946;
var viewHeight = 417;
var sectionId = 'dynsection-0';
</script>
<script xlink:href="svgpan.js"/>
<svg id="graph" class="graph">
<g id="viewport">
<title>sysex/src/Config.h</title>
<polygon fill="white" stroke="none" points="-4,4 -4,-413 941.5,-413 941.5,4 -4,4"/>
<!-- Node1 -->
<g id="node1" class="node"><title>Node1</title>
<polygon fill="#bfbfbf" stroke="black" points="417.5,-387.5 417.5,-408.5 528.5,-408.5 528.5,-387.5 417.5,-387.5"/>
<text text-anchor="middle" x="473" y="-394.9" font-family="Helvetica,sans-Serif" font-size="12.00">sysex/src/Config.h</text>
</g>
<!-- Node2 -->
<g id="node2" class="node"><title>Node2</title>
<g id="a_node2"><a xlink:href="_sys_ex_8h.html" target="_top" xlink:title="sysex/src/SysEx.h">
<polygon fill="white" stroke="black" points="418,-271.5 418,-292.5 528,-292.5 528,-271.5 418,-271.5"/>
<text text-anchor="middle" x="473" y="-278.9" font-family="Helvetica,sans-Serif" font-size="12.00">sysex/src/SysEx.h</text>
</a>
</g>
</g>
<!-- Node1&#45;&gt;Node2 -->
<g id="edge1" class="edge"><title>Node1&#45;&gt;Node2</title>
<path fill="none" stroke="midnightblue" d="M458.841,-378.939C453.381,-370.866 447.788,-360.942 445,-351 442.36,-341.585 442.36,-338.415 445,-329 448.837,-315.317 457.989,-301.666 464.791,-292.832"/>
<polygon fill="midnightblue" stroke="midnightblue" points="456.095,-381.115 464.791,-387.168 461.768,-377.013 456.095,-381.115"/>
</g>
<!-- Node18 -->
<g id="node18" class="node"><title>Node18</title>
<g id="a_node18"><a xlink:href="sysex_2src_2_data_types_8h.html" target="_top" xlink:title="sysex/src/DataTypes.h">
<polygon fill="white" stroke="black" points="454,-329.5 454,-350.5 588,-350.5 588,-329.5 454,-329.5"/>
<text text-anchor="middle" x="521" y="-336.9" font-family="Helvetica,sans-Serif" font-size="12.00">sysex/src/DataTypes.h</text>
</a>
</g>
</g>
<!-- Node1&#45;&gt;Node18 -->
<g id="edge24" class="edge"><title>Node1&#45;&gt;Node18</title>
<path fill="none" stroke="midnightblue" d="M488,-379.5C496.162,-369.977 505.949,-358.56 512.735,-350.643"/>
<polygon fill="midnightblue" stroke="midnightblue" points="485.212,-377.375 481.361,-387.246 490.526,-381.931 485.212,-377.375"/>
</g>
<!-- Node3 -->
<g id="node3" class="node"><title>Node3</title>
<g id="a_node3"><a xlink:href="_open_deck_8h.html" target="_top" xlink:title="OpenDeck.h">
<polygon fill="white" stroke="black" points="432,-213.5 432,-234.5 514,-234.5 514,-213.5 432,-213.5"/>
<text text-anchor="middle" x="473" y="-220.9" font-family="Helvetica,sans-Serif" font-size="12.00">OpenDeck.h</text>
</a>
</g>
</g>
<!-- Node2&#45;&gt;Node3 -->
<g id="edge2" class="edge"><title>Node2&#45;&gt;Node3</title>
<path fill="none" stroke="midnightblue" d="M466.511,-261.158C465.919,-252.155 466.334,-241.92 467.755,-234.643"/>
<polygon fill="midnightblue" stroke="midnightblue" points="463.056,-261.739 467.733,-271.246 470.005,-260.897 463.056,-261.739"/>
</g>
<!-- Node17 -->
<g id="node17" class="node"><title>Node17</title>
<g id="a_node17"><a xlink:href="_sys_ex_8cpp.html" target="_top" xlink:title="sysex/src/SysEx.cpp">
<polygon fill="white" stroke="black" points="532.5,-213.5 532.5,-234.5 655.5,-234.5 655.5,-213.5 532.5,-213.5"/>
<text text-anchor="middle" x="594" y="-220.9" font-family="Helvetica,sans-Serif" font-size="12.00">sysex/src/SysEx.cpp</text>
</a>
</g>
</g>
<!-- Node2&#45;&gt;Node17 -->
<g id="edge23" class="edge"><title>Node2&#45;&gt;Node17</title>
<path fill="none" stroke="midnightblue" d="M503.01,-267.111C524.953,-256.956 554.139,-243.448 573.471,-234.501"/>
<polygon fill="midnightblue" stroke="midnightblue" points="501.406,-263.997 493.801,-271.373 504.346,-270.349 501.406,-263.997"/>
</g>
<!-- Node3&#45;&gt;Node2 -->
<g id="edge4" class="edge"><title>Node3&#45;&gt;Node2</title>
<path fill="none" stroke="midnightblue" d="M479.48,-244.705C480.082,-253.694 479.678,-263.938 478.267,-271.246"/>
<polygon fill="midnightblue" stroke="midnightblue" points="482.937,-244.142 478.245,-234.643 475.989,-244.994 482.937,-244.142"/>
</g>
<!-- Node4 -->
<g id="node4" class="node"><title>Node4</title>
<g id="a_node4"><a xlink:href="_init_8cpp.html" target="_top" xlink:title="Init.cpp">
<polygon fill="white" stroke="black" points="83.5,-149 83.5,-170 136.5,-170 136.5,-149 83.5,-149"/>
<text text-anchor="middle" x="110" y="-156.4" font-family="Helvetica,sans-Serif" font-size="12.00">Init.cpp</text>
</a>
</g>
</g>
<!-- Node3&#45;&gt;Node4 -->
<g id="edge3" class="edge"><title>Node3&#45;&gt;Node4</title>
<path fill="none" stroke="midnightblue" d="M421.708,-220.58C356.279,-216.418 240.193,-205.4 145,-177 139.206,-175.272 133.16,-172.719 127.756,-170.136"/>
<polygon fill="midnightblue" stroke="midnightblue" points="421.569,-224.078 431.763,-221.191 421.994,-217.091 421.569,-224.078"/>
</g>
<!-- Node5 -->
<g id="node5" class="node"><title>Node5</title>
<g id="a_node5"><a xlink:href="interface_2digital_2input_2buttons_2_buttons_8h.html" target="_top" xlink:title="interface/digital/input\l/buttons/Buttons.h">
<polygon fill="white" stroke="black" points="358,-142.5 358,-176.5 482,-176.5 482,-142.5 358,-142.5"/>
<text text-anchor="start" x="366" y="-162.9" font-family="Helvetica,sans-Serif" font-size="12.00">interface/digital/input</text>
<text text-anchor="middle" x="420" y="-149.9" font-family="Helvetica,sans-Serif" font-size="12.00">/buttons/Buttons.h</text>
</a>
</g>
</g>
<!-- Node3&#45;&gt;Node5 -->
<g id="edge5" class="edge"><title>Node3&#45;&gt;Node5</title>
<path fill="none" stroke="midnightblue" d="M458.248,-205.603C450.592,-196.576 441.297,-185.614 433.787,-176.758"/>
<polygon fill="midnightblue" stroke="midnightblue" points="455.582,-207.871 464.719,-213.234 460.921,-203.344 455.582,-207.871"/>
</g>
<!-- Node6 -->
<g id="node6" class="node"><title>Node6</title>
<g id="a_node6"><a xlink:href="interface_2analog_2_analog_8h.html" target="_top" xlink:title="interface/analog/Analog.h">
<polygon fill="white" stroke="black" points="484.5,-78 484.5,-99 633.5,-99 633.5,-78 484.5,-78"/>
<text text-anchor="middle" x="559" y="-85.4" font-family="Helvetica,sans-Serif" font-size="12.00">interface/analog/Analog.h</text>
</a>
</g>
</g>
<!-- Node3&#45;&gt;Node6 -->
<g id="edge16" class="edge"><title>Node3&#45;&gt;Node6</title>
<path fill="none" stroke="midnightblue" d="M484.774,-204.723C503.316,-175.94 538.671,-121.058 552.871,-99.014"/>
<polygon fill="midnightblue" stroke="midnightblue" points="481.658,-203.097 479.185,-213.399 487.543,-206.888 481.658,-203.097"/>
</g>
<!-- Node9 -->
<g id="node9" class="node"><title>Node9</title>
<g id="a_node9"><a xlink:href="_f_s_r_8cpp.html" target="_top" xlink:title="interface/analog/FSR.cpp">
<polygon fill="white" stroke="black" points="571.5,-7 571.5,-28 720.5,-28 720.5,-7 571.5,-7"/>
<text text-anchor="middle" x="646" y="-14.4" font-family="Helvetica,sans-Serif" font-size="12.00">interface/analog/FSR.cpp</text>
</a>
</g>
</g>
<!-- Node3&#45;&gt;Node9 -->
<g id="edge20" class="edge"><title>Node3&#45;&gt;Node9</title>
<path fill="none" stroke="midnightblue" d="M509.124,-209.524C549.507,-192.318 613.027,-158.353 642,-106 655.917,-80.8532 651.465,-45.1445 648.181,-28.1758"/>
<polygon fill="midnightblue" stroke="midnightblue" points="507.547,-206.388 499.639,-213.439 510.218,-212.859 507.547,-206.388"/>
</g>
<!-- Node10 -->
<g id="node10" class="node"><title>Node10</title>
<g id="a_node10"><a xlink:href="_potentiometer_8cpp.html" target="_top" xlink:title="interface/analog/Potentiometer.cpp">
<polygon fill="white" stroke="black" points="738.5,-7 738.5,-28 937.5,-28 937.5,-7 738.5,-7"/>
<text text-anchor="middle" x="838" y="-14.4" font-family="Helvetica,sans-Serif" font-size="12.00">interface/analog/Potentiometer.cpp</text>
</a>
</g>
</g>
<!-- Node3&#45;&gt;Node10 -->
<g id="edge21" class="edge"><title>Node3&#45;&gt;Node10</title>
<path fill="none" stroke="midnightblue" d="M519.459,-210.62C546.099,-202.681 579.753,-191.203 608,-177 698.117,-131.688 793.63,-55.3732 826.279,-28.3482"/>
<polygon fill="midnightblue" stroke="midnightblue" points="518.239,-207.33 509.618,-213.487 520.198,-214.05 518.239,-207.33"/>
</g>
<!-- Node14 -->
<g id="node14" class="node"><title>Node14</title>
<g id="a_node14"><a xlink:href="interface_2digital_2input_2encoders_2_encoders_8h.html" target="_top" xlink:title="interface/digital/input\l/encoders/Encoders.h">
<polygon fill="white" stroke="black" points="154.5,-142.5 154.5,-176.5 285.5,-176.5 285.5,-142.5 154.5,-142.5"/>
<text text-anchor="start" x="162.5" y="-162.9" font-family="Helvetica,sans-Serif" font-size="12.00">interface/digital/input</text>
<text text-anchor="middle" x="220" y="-149.9" font-family="Helvetica,sans-Serif" font-size="12.00">/encoders/Encoders.h</text>
</a>
</g>
</g>
<!-- Node3&#45;&gt;Node14 -->
<g id="edge17" class="edge"><title>Node3&#45;&gt;Node14</title>
<path fill="none" stroke="midnightblue" d="M424.372,-210.987C384.84,-201.221 328.701,-187.353 285.26,-176.622"/>
<polygon fill="midnightblue" stroke="midnightblue" points="423.752,-214.439 434.299,-213.44 425.431,-207.643 423.752,-214.439"/>
</g>
<!-- Node16 -->
<g id="node16" class="node"><title>Node16</title>
<g id="a_node16"><a xlink:href="_open_deck_8cpp.html" target="_top" xlink:title="OpenDeck.cpp">
<polygon fill="white" stroke="black" points="728.5,-149 728.5,-170 823.5,-170 823.5,-149 728.5,-149"/>
<text text-anchor="middle" x="776" y="-156.4" font-family="Helvetica,sans-Serif" font-size="12.00">OpenDeck.cpp</text>
</a>
</g>
</g>
<!-- Node3&#45;&gt;Node16 -->
<g id="edge22" class="edge"><title>Node3&#45;&gt;Node16</title>
<path fill="none" stroke="midnightblue" d="M524.066,-212.819C609.467,-196.475 632.803,-195.43 714,-177 723.124,-174.929 732.936,-172.441 742.002,-170.032"/>
<polygon fill="midnightblue" stroke="midnightblue" points="523.35,-209.393 514.194,-214.724 524.675,-216.266 523.35,-209.393"/>
</g>
<!-- Node5&#45;&gt;Node6 -->
<g id="edge6" class="edge"><title>Node5&#45;&gt;Node6</title>
<path fill="none" stroke="midnightblue" d="M461.485,-137.907C487.442,-125.022 519.661,-109.028 539.782,-99.0398"/>
<polygon fill="midnightblue" stroke="midnightblue" points="459.64,-134.915 452.239,-142.497 462.752,-141.185 459.64,-134.915"/>
</g>
<!-- Node11 -->
<g id="node11" class="node"><title>Node11</title>
<g id="a_node11"><a xlink:href="_digital_input_8h.html" target="_top" xlink:title="interface/digital/input\l/DigitalInput.h">
<polygon fill="white" stroke="black" points="162,-71.5 162,-105.5 286,-105.5 286,-71.5 162,-71.5"/>
<text text-anchor="start" x="170" y="-91.9" font-family="Helvetica,sans-Serif" font-size="12.00">interface/digital/input</text>
<text text-anchor="middle" x="224" y="-78.9" font-family="Helvetica,sans-Serif" font-size="12.00">/DigitalInput.h</text>
</a>
</g>
</g>
<!-- Node5&#45;&gt;Node11 -->
<g id="edge12" class="edge"><title>Node5&#45;&gt;Node11</title>
<path fill="none" stroke="midnightblue" d="M365.022,-139.145C334.911,-128.545 298.04,-115.565 269.552,-105.536"/>
<polygon fill="midnightblue" stroke="midnightblue" points="363.946,-142.477 374.541,-142.497 366.271,-135.874 363.946,-142.477"/>
</g>
<!-- Node13 -->
<g id="node13" class="node"><title>Node13</title>
<g id="a_node13"><a xlink:href="interface_2digital_2input_2buttons_2_buttons_8cpp.html" target="_top" xlink:title="interface/digital/input\l/buttons/Buttons.cpp">
<polygon fill="white" stroke="black" points="342,-71.5 342,-105.5 466,-105.5 466,-71.5 342,-71.5"/>
<text text-anchor="start" x="350" y="-91.9" font-family="Helvetica,sans-Serif" font-size="12.00">interface/digital/input</text>
<text text-anchor="middle" x="404" y="-78.9" font-family="Helvetica,sans-Serif" font-size="12.00">/buttons/Buttons.cpp</text>
</a>
</g>
</g>
<!-- Node5&#45;&gt;Node13 -->
<g id="edge15" class="edge"><title>Node5&#45;&gt;Node13</title>
<path fill="none" stroke="midnightblue" d="M413.98,-132.538C411.908,-123.603 409.647,-113.853 407.802,-105.896"/>
<polygon fill="midnightblue" stroke="midnightblue" points="410.621,-133.546 416.289,-142.497 417.44,-131.964 410.621,-133.546"/>
</g>
<!-- Node7 -->
<g id="node7" class="node"><title>Node7</title>
<g id="a_node7"><a xlink:href="_interface_8h.html" target="_top" xlink:title="interface/Interface.h">
<polygon fill="white" stroke="black" points="255,-7 255,-28 373,-28 373,-7 255,-7"/>
<text text-anchor="middle" x="314" y="-14.4" font-family="Helvetica,sans-Serif" font-size="12.00">interface/Interface.h</text>
</a>
</g>
</g>
<!-- Node6&#45;&gt;Node7 -->
<g id="edge7" class="edge"><title>Node6&#45;&gt;Node7</title>
<path fill="none" stroke="midnightblue" d="M515.412,-75.2242C467.487,-61.7269 391.507,-40.3284 347.855,-28.0347"/>
<polygon fill="midnightblue" stroke="midnightblue" points="514.617,-78.6363 525.191,-77.9783 516.514,-71.8984 514.617,-78.6363"/>
</g>
<!-- Node8 -->
<g id="node8" class="node"><title>Node8</title>
<g id="a_node8"><a xlink:href="interface_2analog_2_analog_8cpp.html" target="_top" xlink:title="interface/analog/Analog.cpp">
<polygon fill="white" stroke="black" points="391,-7 391,-28 553,-28 553,-7 391,-7"/>
<text text-anchor="middle" x="472" y="-14.4" font-family="Helvetica,sans-Serif" font-size="12.00">interface/analog/Analog.cpp</text>
</a>
</g>
</g>
<!-- Node6&#45;&gt;Node8 -->
<g id="edge9" class="edge"><title>Node6&#45;&gt;Node8</title>
<path fill="none" stroke="midnightblue" d="M538.721,-71.4169C521.748,-57.9554 498.102,-39.2019 483.994,-28.0127"/>
<polygon fill="midnightblue" stroke="midnightblue" points="536.893,-74.4341 546.903,-77.9058 541.243,-68.9496 536.893,-74.4341"/>
</g>
<!-- Node6&#45;&gt;Node9 -->
<g id="edge10" class="edge"><title>Node6&#45;&gt;Node9</title>
<path fill="none" stroke="midnightblue" d="M579.279,-71.4169C596.252,-57.9554 619.898,-39.2019 634.006,-28.0127"/>
<polygon fill="midnightblue" stroke="midnightblue" points="576.757,-68.9496 571.097,-77.9058 581.107,-74.4341 576.757,-68.9496"/>
</g>
<!-- Node6&#45;&gt;Node10 -->
<g id="edge11" class="edge"><title>Node6&#45;&gt;Node10</title>
<path fill="none" stroke="midnightblue" d="M607.274,-75.5613C661.762,-62.0856 749.321,-40.4313 799.447,-28.0347"/>
<polygon fill="midnightblue" stroke="midnightblue" points="606.368,-72.1798 597.501,-77.9783 608.049,-78.9751 606.368,-72.1798"/>
</g>
<!-- Node7&#45;&gt;Node3 -->
<g id="edge8" class="edge"><title>Node7&#45;&gt;Node3</title>
<path fill="none" stroke="midnightblue" d="M312.696,-38.2143C311.624,-71.0747 314.316,-137.343 349,-177 369.936,-200.938 404.513,-212.438 431.843,-217.952"/>
<polygon fill="midnightblue" stroke="midnightblue" points="316.198,-38.2402 313.185,-28.0829 309.207,-37.9023 316.198,-38.2402"/>
</g>
<!-- Node11&#45;&gt;Node7 -->
<g id="edge13" class="edge"><title>Node11&#45;&gt;Node7</title>
<path fill="none" stroke="midnightblue" d="M253.094,-65.1943C269.482,-52.6301 289.1,-37.5897 301.557,-28.0398"/>
<polygon fill="midnightblue" stroke="midnightblue" points="250.681,-62.6346 244.874,-71.4966 254.94,-68.1899 250.681,-62.6346"/>
</g>
<!-- Node12 -->
<g id="node12" class="node"><title>Node12</title>
<g id="a_node12"><a xlink:href="_digital_input_8cpp.html" target="_top" xlink:title="interface/digital/input\l/DigitalInput.cpp">
<polygon fill="white" stroke="black" points="113,-0.5 113,-34.5 237,-34.5 237,-0.5 113,-0.5"/>
<text text-anchor="start" x="121" y="-20.9" font-family="Helvetica,sans-Serif" font-size="12.00">interface/digital/input</text>
<text text-anchor="middle" x="175" y="-7.9" font-family="Helvetica,sans-Serif" font-size="12.00">/DigitalInput.cpp</text>
</a>
</g>
</g>
<!-- Node11&#45;&gt;Node12 -->
<g id="edge14" class="edge"><title>Node11&#45;&gt;Node12</title>
<path fill="none" stroke="midnightblue" d="M206.797,-63.2755C200.127,-53.8829 192.663,-43.3721 186.643,-34.8958"/>
<polygon fill="midnightblue" stroke="midnightblue" points="203.992,-65.3698 212.635,-71.4966 209.699,-61.3168 203.992,-65.3698"/>
</g>
<!-- Node14&#45;&gt;Node11 -->
<g id="edge18" class="edge"><title>Node14&#45;&gt;Node11</title>
<path fill="none" stroke="midnightblue" d="M221.522,-132.247C222.035,-123.392 222.593,-113.767 223.05,-105.896"/>
<polygon fill="midnightblue" stroke="midnightblue" points="218.012,-132.311 220.928,-142.497 225.001,-132.716 218.012,-132.311"/>
</g>
<!-- Node15 -->
<g id="node15" class="node"><title>Node15</title>
<g id="a_node15"><a xlink:href="interface_2digital_2input_2encoders_2_encoders_8cpp.html" target="_top" xlink:title="interface/digital/input\l/encoders/Encoders.cpp">
<polygon fill="white" stroke="black" points="0,-71.5 0,-105.5 144,-105.5 144,-71.5 0,-71.5"/>
<text text-anchor="start" x="8" y="-91.9" font-family="Helvetica,sans-Serif" font-size="12.00">interface/digital/input</text>
<text text-anchor="middle" x="72" y="-78.9" font-family="Helvetica,sans-Serif" font-size="12.00">/encoders/Encoders.cpp</text>
</a>
</g>
</g>
<!-- Node14&#45;&gt;Node15 -->
<g id="edge19" class="edge"><title>Node14&#45;&gt;Node15</title>
<path fill="none" stroke="midnightblue" d="M176.405,-138.175C154.067,-127.761 127.256,-115.261 106.396,-105.536"/>
<polygon fill="midnightblue" stroke="midnightblue" points="175.131,-141.443 185.674,-142.497 178.089,-135.099 175.131,-141.443"/>
</g>
<!-- Node18&#45;&gt;Node2 -->
<g id="edge25" class="edge"><title>Node18&#45;&gt;Node2</title>
<path fill="none" stroke="midnightblue" d="M506,-321.5C497.838,-311.977 488.051,-300.56 481.265,-292.643"/>
<polygon fill="midnightblue" stroke="midnightblue" points="503.474,-323.931 512.639,-329.246 508.788,-319.375 503.474,-323.931"/>
</g>
</g>
</svg>
        <g id="navigator" transform="translate(0 0)" fill="#404254">
                <rect fill="#f2f5e9" fill-opacity="0.5" stroke="#606060" stroke-width=".5" x="0" y="0" width="60" height="60"/>
                <use id="zoomplus" xlink:href="#zoomPlus" x="17" y="9" onmousedown="handleZoom(evt,'in')"/>
                <use id="zoomminus" xlink:href="#zoomMin" x="42" y="9" onmousedown="handleZoom(evt,'out')"/>
                <use id="reset" xlink:href="#resetDef" x="30" y="36" onmousedown="handleReset()"/>
                <g id="arrowUp" xlink:href="#dirArrow" transform="translate(30 24)" onmousedown="handlePan(0,-1)">
                  <use xlink:href="#rim" fill="#404040">
                        <set attributeName="fill" to="#808080" begin="arrowUp.mouseover" end="arrowUp.mouseout"/>
                  </use>
                  <path fill="none" stroke="white" stroke-width="1.5" d="M0,-3.0v7 M-2.5,-0.5L0,-3.0L2.5,-0.5"/>
                </g>
                <g id="arrowRight" xlink:href="#dirArrow" transform="rotate(90) translate(36 -43)" onmousedown="handlePan(1,0)">
                  <use xlink:href="#rim" fill="#404040">
                        <set attributeName="fill" to="#808080" begin="arrowRight.mouseover" end="arrowRight.mouseout"/>
                  </use>
                  <path fill="none" stroke="white" stroke-width="1.5" d="M0,-3.0v7 M-2.5,-0.5L0,-3.0L2.5,-0.5"/>
                </g>
                <g id="arrowDown" xlink:href="#dirArrow" transform="rotate(180) translate(-30 -48)" onmousedown="handlePan(0,1)">
                  <use xlink:href="#rim" fill="#404040">
                        <set attributeName="fill" to="#808080" begin="arrowDown.mouseover" end="arrowDown.mouseout"/>
                  </use>
                  <path fill="none" stroke="white" stroke-width="1.5" d="M0,-3.0v7 M-2.5,-0.5L0,-3.0L2.5,-0.5"/>
                </g>
                <g id="arrowLeft" xlink:href="#dirArrow" transform="rotate(270) translate(-36 17)" onmousedown="handlePan(-1,0)">
                  <use xlink:href="#rim" fill="#404040">
                        <set attributeName="fill" to="#808080" begin="arrowLeft.mouseover" end="arrowLeft.mouseout"/>
                  </use>
                  <path fill="none" stroke="white" stroke-width="1.5" d="M0,-3.0v7 M-2.5,-0.5L0,-3.0L2.5,-0.5"/>
                </g>
        </g>
        <svg viewBox="0 0 15 15" width="100%" height="30px" preserveAspectRatio="xMaxYMin meet">
         <g id="arrow_out" transform="scale(0.3 0.3)">
          <a xlink:href="sysex_2src_2_config_8h__dep__incl_org.svg" target="_base">
           <rect id="button" ry="5" rx="5" y="6" x="6" height="38" width="38"
                fill="#f2f5e9" fill-opacity="0.5" stroke="#606060" stroke-width="1.0"/>
           <path id="arrow"
             d="M 11.500037,31.436501 C 11.940474,20.09759 22.043105,11.32322 32.158766,21.979434 L 37.068811,17.246167 C 37.068811,17.246167 37.088388,32 37.088388,32 L 22.160133,31.978069 C 22.160133,31.978069 26.997745,27.140456 26.997745,27.140456 C 18.528582,18.264221 13.291696,25.230495 11.500037,31.436501 z"
             style="fill:#404040;"/>
          </a>
         </g>
        </svg>
</svg>
