<?xml version="1.0" encoding="UTF-8" standalone="no"?>
<!DOCTYPE svg PUBLIC "-//W3C//DTD SVG 1.1//EN"
 "http://www.w3.org/Graphics/SVG/1.1/DTD/svg11.dtd">
<!-- Generated by graphviz version 2.38.0 (20140413.2041)
 -->
<!-- Title: board/v1/Board.h Pages: 1 -->
<svg width="1102pt" height="88pt"
 viewBox="0.00 0.00 1101.50 88.00" xmlns="http://www.w3.org/2000/svg" xmlns:xlink="http://www.w3.org/1999/xlink">
<g id="graph0" class="graph" transform="scale(1 1) rotate(0) translate(4 84)">
<title>board/v1/Board.h</title>
<polygon fill="white" stroke="none" points="-4,4 -4,-84 1097.5,-84 1097.5,4 -4,4"/>
<!-- Node31 -->
<g id="node1" class="node"><title>Node31</title>
<polygon fill="#bfbfbf" stroke="black" points="512,-58.5 512,-79.5 619,-79.5 619,-58.5 512,-58.5"/>
<text text-anchor="middle" x="565.5" y="-65.9" font-family="Helvetica,sans-Serif" font-size="12.00">board/v1/Board.h</text>
</g>
<!-- Node32 -->
<g id="node2" class="node"><title>Node32</title>
<g id="a_node2"><a xlink:href="board_2v1_2_analog_8cpp.html" target="_top" xlink:title="board/v1/Analog.cpp">
<polygon fill="white" stroke="black" points="0,-0.5 0,-21.5 125,-21.5 125,-0.5 0,-0.5"/>
<text text-anchor="middle" x="62.5" y="-7.9" font-family="Helvetica,sans-Serif" font-size="12.00">board/v1/Analog.cpp</text>
</a>
</g>
</g>
<!-- Node31&#45;&gt;Node32 -->
<g id="edge1" class="edge"><title>Node31&#45;&gt;Node32</title>
<path fill="none" stroke="midnightblue" d="M501.507,-61.8094C417.276,-53.5144 264.635,-37.9777 134.5,-22 131.494,-21.6309 128.418,-21.2431 125.313,-20.8434"/>
<polygon fill="midnightblue" stroke="midnightblue" points="501.389,-65.3145 511.683,-62.809 502.073,-58.348 501.389,-65.3145"/>
</g>
<!-- Node33 -->
<g id="node3" class="node"><title>Node33</title>
<g id="a_node3"><a xlink:href="_board_8cpp.html" target="_top" xlink:title="board/v1/Board.cpp">
<polygon fill="white" stroke="black" points="143.5,-0.5 143.5,-21.5 263.5,-21.5 263.5,-0.5 143.5,-0.5"/>
<text text-anchor="middle" x="203.5" y="-7.9" font-family="Helvetica,sans-Serif" font-size="12.00">board/v1/Board.cpp</text>
</a>
</g>
</g>
<!-- Node31&#45;&gt;Node33 -->
<g id="edge2" class="edge"><title>Node31&#45;&gt;Node33</title>
<path fill="none" stroke="midnightblue" d="M501.653,-58.1232C434.437,-47.725 329.425,-31.4802 263.64,-21.3034"/>
<polygon fill="midnightblue" stroke="midnightblue" points="501.278,-61.6067 511.696,-59.6767 502.348,-54.689 501.278,-61.6067"/>
</g>
<!-- Node34 -->
<g id="node4" class="node"><title>Node34</title>
<g id="a_node4"><a xlink:href="board_2v1_2_buttons_8cpp.html" target="_top" xlink:title="board/v1/Buttons.cpp">
<polygon fill="white" stroke="black" points="282,-0.5 282,-21.5 409,-21.5 409,-0.5 282,-0.5"/>
<text text-anchor="middle" x="345.5" y="-7.9" font-family="Helvetica,sans-Serif" font-size="12.00">board/v1/Buttons.cpp</text>
</a>
</g>
</g>
<!-- Node31&#45;&gt;Node34 -->
<g id="edge3" class="edge"><title>Node31&#45;&gt;Node34</title>
<path fill="none" stroke="midnightblue" d="M517.772,-55.8511C477.289,-45.5462 420.024,-30.9697 382.826,-21.5011"/>
<polygon fill="midnightblue" stroke="midnightblue" points="517.126,-59.2982 527.681,-58.3733 518.853,-52.5145 517.126,-59.2982"/>
</g>
<!-- Node35 -->
<g id="node5" class="node"><title>Node35</title>
<g id="a_node5"><a xlink:href="board_2v1_2_encoders_8cpp.html" target="_top" xlink:title="board/v1/Encoders.cpp">
<polygon fill="white" stroke="black" points="427.5,-0.5 427.5,-21.5 565.5,-21.5 565.5,-0.5 427.5,-0.5"/>
<text text-anchor="middle" x="496.5" y="-7.9" font-family="Helvetica,sans-Serif" font-size="12.00">board/v1/Encoders.cpp</text>
</a>
</g>
</g>
<!-- Node31&#45;&gt;Node35 -->
<g id="edge4" class="edge"><title>Node31&#45;&gt;Node35</title>
<path fill="none" stroke="midnightblue" d="M545.697,-51.928C533.636,-42.1397 518.629,-29.9595 508.381,-21.6427"/>
<polygon fill="midnightblue" stroke="midnightblue" points="543.511,-54.6614 553.481,-58.2455 547.922,-49.2262 543.511,-54.6614"/>
</g>
<!-- Node36 -->
<g id="node6" class="node"><title>Node36</title>
<g id="a_node6"><a xlink:href="board_2v1_2_init_8cpp.html" target="_top" xlink:title="board/v1/Init.cpp">
<polygon fill="white" stroke="black" points="583.5,-0.5 583.5,-21.5 685.5,-21.5 685.5,-0.5 583.5,-0.5"/>
<text text-anchor="middle" x="634.5" y="-7.9" font-family="Helvetica,sans-Serif" font-size="12.00">board/v1/Init.cpp</text>
</a>
</g>
</g>
<!-- Node31&#45;&gt;Node36 -->
<g id="edge5" class="edge"><title>Node31&#45;&gt;Node36</title>
<path fill="none" stroke="midnightblue" d="M585.303,-51.928C597.364,-42.1397 612.371,-29.9595 622.619,-21.6427"/>
<polygon fill="midnightblue" stroke="midnightblue" points="583.078,-49.2262 577.519,-58.2455 587.489,-54.6614 583.078,-49.2262"/>
</g>
<!-- Node37 -->
<g id="node7" class="node"><title>Node37</title>
<g id="a_node7"><a xlink:href="_in_matrix_8cpp.html" target="_top" xlink:title="board/v1/InMatrix.cpp">
<polygon fill="white" stroke="black" points="703.5,-0.5 703.5,-21.5 831.5,-21.5 831.5,-0.5 703.5,-0.5"/>
<text text-anchor="middle" x="767.5" y="-7.9" font-family="Helvetica,sans-Serif" font-size="12.00">board/v1/InMatrix.cpp</text>
</a>
</g>
</g>
<!-- Node31&#45;&gt;Node37 -->
<g id="edge6" class="edge"><title>Node31&#45;&gt;Node37</title>
<path fill="none" stroke="midnightblue" d="M610.271,-55.5882C647.384,-45.2996 699.363,-30.8895 733.228,-21.5011"/>
<polygon fill="midnightblue" stroke="midnightblue" points="608.927,-52.3289 600.225,-58.3733 610.797,-59.0745 608.927,-52.3289"/>
</g>
<!-- Node38 -->
<g id="node8" class="node"><title>Node38</title>
<g id="a_node8"><a xlink:href="_i_s_r_8cpp.html" target="_top" xlink:title="board/v1/ISR.cpp">
<polygon fill="white" stroke="black" points="850,-0.5 850,-21.5 957,-21.5 957,-0.5 850,-0.5"/>
<text text-anchor="middle" x="903.5" y="-7.9" font-family="Helvetica,sans-Serif" font-size="12.00">board/v1/ISR.cpp</text>
</a>
</g>
</g>
<!-- Node31&#45;&gt;Node38 -->
<g id="edge7" class="edge"><title>Node31&#45;&gt;Node38</title>
<path fill="none" stroke="midnightblue" d="M628.993,-57.4804C692.756,-46.9162 789.915,-30.8188 849.914,-20.8781"/>
<polygon fill="midnightblue" stroke="midnightblue" points="628.351,-54.0391 619.057,-59.1266 629.495,-60.945 628.351,-54.0391"/>
</g>
<!-- Node39 -->
<g id="node9" class="node"><title>Node39</title>
<g id="a_node9"><a xlink:href="board_2v1_2_l_e_ds_8cpp.html" target="_top" xlink:title="board/v1/LEDs.cpp">
<polygon fill="white" stroke="black" points="975.5,-0.5 975.5,-21.5 1093.5,-21.5 1093.5,-0.5 975.5,-0.5"/>
<text text-anchor="middle" x="1034.5" y="-7.9" font-family="Helvetica,sans-Serif" font-size="12.00">board/v1/LEDs.cpp</text>
</a>
</g>
</g>
<!-- Node31&#45;&gt;Node39 -->
<g id="edge8" class="edge"><title>Node31&#45;&gt;Node39</title>
<path fill="none" stroke="midnightblue" d="M629.375,-61.3061C708.568,-52.8611 847.637,-37.5535 966.5,-22 969.34,-21.6284 972.244,-21.2386 975.177,-20.8373"/>
<polygon fill="midnightblue" stroke="midnightblue" points="628.651,-57.8633 619.078,-62.4015 629.392,-64.824 628.651,-57.8633"/>
</g>
</g>
</svg>
