<?xml version="1.0" encoding="UTF-8" standalone="no"?>
<!DOCTYPE svg PUBLIC "-//W3C//DTD SVG 1.1//EN"
 "http://www.w3.org/Graphics/SVG/1.1/DTD/svg11.dtd">
<!-- Generated by graphviz version 2.38.0 (20140413.2041)
 -->
<!-- Title: version/DataTypes.h Pages: 1 -->
<svg width="2004pt" height="346pt"
 viewBox="0.00 0.00 2004.00 346.00" xmlns="http://www.w3.org/2000/svg" xmlns:xlink="http://www.w3.org/1999/xlink">
<g id="graph0" class="graph" transform="scale(1 1) rotate(0) translate(4 342)">
<title>version/DataTypes.h</title>
<polygon fill="white" stroke="none" points="-4,4 -4,-342 2000,-342 2000,4 -4,4"/>
<!-- Node1 -->
<g id="node1" class="node"><title>Node1</title>
<polygon fill="#bfbfbf" stroke="black" points="1452,-316.5 1452,-337.5 1575,-337.5 1575,-316.5 1452,-316.5"/>
<text text-anchor="middle" x="1513.5" y="-323.9" font-family="Helvetica,sans-Serif" font-size="12.00">version/DataTypes.h</text>
</g>
<!-- Node2 -->
<g id="node2" class="node"><title>Node2</title>
<g id="a_node2"><a xlink:href="_version_8h.html" target="_top" xlink:title="version/Version.h">
<polygon fill="white" stroke="black" points="1460,-258.5 1460,-279.5 1567,-279.5 1567,-258.5 1460,-258.5"/>
<text text-anchor="middle" x="1513.5" y="-265.9" font-family="Helvetica,sans-Serif" font-size="12.00">version/Version.h</text>
</a>
</g>
</g>
<!-- Node1&#45;&gt;Node2 -->
<g id="edge1" class="edge"><title>Node1&#45;&gt;Node2</title>
<path fill="none" stroke="midnightblue" d="M1513.5,-306.158C1513.5,-297.155 1513.5,-286.92 1513.5,-279.643"/>
<polygon fill="midnightblue" stroke="midnightblue" points="1510,-306.246 1513.5,-316.246 1517,-306.246 1510,-306.246"/>
</g>
<!-- Node3 -->
<g id="node3" class="node"><title>Node3</title>
<g id="a_node3"><a xlink:href="_map_8h.html" target="_top" xlink:title="board/v1/pins/Map.h">
<polygon fill="white" stroke="black" points="953.5,-200.5 953.5,-221.5 1075.5,-221.5 1075.5,-200.5 953.5,-200.5"/>
<text text-anchor="middle" x="1014.5" y="-207.9" font-family="Helvetica,sans-Serif" font-size="12.00">board/v1/pins/Map.h</text>
</a>
</g>
</g>
<!-- Node2&#45;&gt;Node3 -->
<g id="edge2" class="edge"><title>Node2&#45;&gt;Node3</title>
<path fill="none" stroke="midnightblue" d="M1449.39,-260.806C1352.61,-249.944 1170.44,-229.5 1075.51,-218.847"/>
<polygon fill="midnightblue" stroke="midnightblue" points="1449.3,-264.317 1459.62,-261.954 1450.08,-257.36 1449.3,-264.317"/>
</g>
<!-- Node13 -->
<g id="node13" class="node"><title>Node13</title>
<g id="a_node13"><a xlink:href="_open_deck_8h.html" target="_top" xlink:title="OpenDeck.h">
<polygon fill="white" stroke="black" points="1472.5,-200.5 1472.5,-221.5 1554.5,-221.5 1554.5,-200.5 1472.5,-200.5"/>
<text text-anchor="middle" x="1513.5" y="-207.9" font-family="Helvetica,sans-Serif" font-size="12.00">OpenDeck.h</text>
</a>
</g>
</g>
<!-- Node2&#45;&gt;Node13 -->
<g id="edge12" class="edge"><title>Node2&#45;&gt;Node13</title>
<path fill="none" stroke="midnightblue" d="M1513.5,-248.158C1513.5,-239.155 1513.5,-228.92 1513.5,-221.643"/>
<polygon fill="midnightblue" stroke="midnightblue" points="1510,-248.246 1513.5,-258.246 1517,-248.246 1510,-248.246"/>
</g>
<!-- Node25 -->
<g id="node25" class="node"><title>Node25</title>
<g id="a_node25"><a xlink:href="_version_8cpp.html" target="_top" xlink:title="version/Version.cpp">
<polygon fill="white" stroke="black" points="1572.5,-200.5 1572.5,-221.5 1692.5,-221.5 1692.5,-200.5 1572.5,-200.5"/>
<text text-anchor="middle" x="1632.5" y="-207.9" font-family="Helvetica,sans-Serif" font-size="12.00">version/Version.cpp</text>
</a>
</g>
</g>
<!-- Node2&#45;&gt;Node25 -->
<g id="edge32" class="edge"><title>Node2&#45;&gt;Node25</title>
<path fill="none" stroke="midnightblue" d="M1543.01,-254.111C1564.59,-243.956 1593.3,-230.448 1612.31,-221.501"/>
<polygon fill="midnightblue" stroke="midnightblue" points="1541.51,-250.948 1533.96,-258.373 1544.5,-257.282 1541.51,-250.948"/>
</g>
<!-- Node4 -->
<g id="node4" class="node"><title>Node4</title>
<g id="a_node4"><a xlink:href="v1_2_board_8h.html" target="_top" xlink:title="board/v1/Board.h">
<polygon fill="white" stroke="black" points="581,-136 581,-157 688,-157 688,-136 581,-136"/>
<text text-anchor="middle" x="634.5" y="-143.4" font-family="Helvetica,sans-Serif" font-size="12.00">board/v1/Board.h</text>
</a>
</g>
</g>
<!-- Node3&#45;&gt;Node4 -->
<g id="edge3" class="edge"><title>Node3&#45;&gt;Node4</title>
<path fill="none" stroke="midnightblue" d="M946.222,-198.77C872.22,-186.599 755.67,-167.429 688.014,-156.302"/>
<polygon fill="midnightblue" stroke="midnightblue" points="945.937,-202.27 956.373,-200.44 947.073,-195.363 945.937,-202.27"/>
</g>
<!-- Node5 -->
<g id="node5" class="node"><title>Node5</title>
<g id="a_node5"><a xlink:href="board_2v1_2_analog_8cpp.html" target="_top" xlink:title="board/v1/Analog.cpp">
<polygon fill="white" stroke="black" points="0,-65 0,-86 125,-86 125,-65 0,-65"/>
<text text-anchor="middle" x="62.5" y="-72.4" font-family="Helvetica,sans-Serif" font-size="12.00">board/v1/Analog.cpp</text>
</a>
</g>
</g>
<!-- Node4&#45;&gt;Node5 -->
<g id="edge4" class="edge"><title>Node4&#45;&gt;Node5</title>
<path fill="none" stroke="midnightblue" d="M570.882,-141.291C475.57,-134.428 290.258,-118.927 134.5,-93 123.242,-91.1259 111.109,-88.5606 100.071,-86.0113"/>
<polygon fill="midnightblue" stroke="midnightblue" points="570.713,-144.788 580.936,-142.007 571.21,-137.805 570.713,-144.788"/>
</g>
<!-- Node6 -->
<g id="node6" class="node"><title>Node6</title>
<g id="a_node6"><a xlink:href="_board_8cpp.html" target="_top" xlink:title="board/v1/Board.cpp">
<polygon fill="white" stroke="black" points="143.5,-65 143.5,-86 263.5,-86 263.5,-65 143.5,-65"/>
<text text-anchor="middle" x="203.5" y="-72.4" font-family="Helvetica,sans-Serif" font-size="12.00">board/v1/Board.cpp</text>
</a>
</g>
</g>
<!-- Node4&#45;&gt;Node6 -->
<g id="edge5" class="edge"><title>Node4&#45;&gt;Node6</title>
<path fill="none" stroke="midnightblue" d="M570.542,-138.006C497.976,-129.09 376.233,-112.882 272.5,-93 262.097,-91.006 250.896,-88.4897 240.608,-86.0269"/>
<polygon fill="midnightblue" stroke="midnightblue" points="570.534,-141.53 580.884,-139.268 571.382,-134.582 570.534,-141.53"/>
</g>
<!-- Node7 -->
<g id="node7" class="node"><title>Node7</title>
<g id="a_node7"><a xlink:href="board_2v1_2_buttons_8cpp.html" target="_top" xlink:title="board/v1/Buttons.cpp">
<polygon fill="white" stroke="black" points="282,-65 282,-86 409,-86 409,-65 282,-65"/>
<text text-anchor="middle" x="345.5" y="-72.4" font-family="Helvetica,sans-Serif" font-size="12.00">board/v1/Buttons.cpp</text>
</a>
</g>
</g>
<!-- Node4&#45;&gt;Node7 -->
<g id="edge6" class="edge"><title>Node4&#45;&gt;Node7</title>
<path fill="none" stroke="midnightblue" d="M584.847,-133.645C528.431,-120.176 437.465,-98.457 385.435,-86.0347"/>
<polygon fill="midnightblue" stroke="midnightblue" points="584.08,-137.06 594.619,-135.978 585.705,-130.252 584.08,-137.06"/>
</g>
<!-- Node8 -->
<g id="node8" class="node"><title>Node8</title>
<g id="a_node8"><a xlink:href="board_2v1_2_encoders_8cpp.html" target="_top" xlink:title="board/v1/Encoders.cpp">
<polygon fill="white" stroke="black" points="427.5,-65 427.5,-86 565.5,-86 565.5,-65 427.5,-65"/>
<text text-anchor="middle" x="496.5" y="-72.4" font-family="Helvetica,sans-Serif" font-size="12.00">board/v1/Encoders.cpp</text>
</a>
</g>
</g>
<!-- Node4&#45;&gt;Node8 -->
<g id="edge7" class="edge"><title>Node4&#45;&gt;Node8</title>
<path fill="none" stroke="midnightblue" d="M606.325,-131.413C579.235,-117.867 539.033,-97.7665 515.525,-86.0127"/>
<polygon fill="midnightblue" stroke="midnightblue" points="604.802,-134.564 615.312,-135.906 607.933,-128.303 604.802,-134.564"/>
</g>
<!-- Node9 -->
<g id="node9" class="node"><title>Node9</title>
<g id="a_node9"><a xlink:href="board_2v1_2_init_8cpp.html" target="_top" xlink:title="board/v1/Init.cpp">
<polygon fill="white" stroke="black" points="583.5,-65 583.5,-86 685.5,-86 685.5,-65 583.5,-65"/>
<text text-anchor="middle" x="634.5" y="-72.4" font-family="Helvetica,sans-Serif" font-size="12.00">board/v1/Init.cpp</text>
</a>
</g>
</g>
<!-- Node4&#45;&gt;Node9 -->
<g id="edge8" class="edge"><title>Node4&#45;&gt;Node9</title>
<path fill="none" stroke="midnightblue" d="M634.5,-125.588C634.5,-112.578 634.5,-96.1754 634.5,-86.0127"/>
<polygon fill="midnightblue" stroke="midnightblue" points="631,-125.906 634.5,-135.906 638,-125.906 631,-125.906"/>
</g>
<!-- Node10 -->
<g id="node10" class="node"><title>Node10</title>
<g id="a_node10"><a xlink:href="_in_matrix_8cpp.html" target="_top" xlink:title="board/v1/InMatrix.cpp">
<polygon fill="white" stroke="black" points="703.5,-65 703.5,-86 831.5,-86 831.5,-65 703.5,-65"/>
<text text-anchor="middle" x="767.5" y="-72.4" font-family="Helvetica,sans-Serif" font-size="12.00">board/v1/InMatrix.cpp</text>
</a>
</g>
</g>
<!-- Node4&#45;&gt;Node10 -->
<g id="edge9" class="edge"><title>Node4&#45;&gt;Node10</title>
<path fill="none" stroke="midnightblue" d="M661.997,-131.235C688.101,-117.692 726.607,-97.7152 749.164,-86.0127"/>
<polygon fill="midnightblue" stroke="midnightblue" points="660.258,-128.194 652.993,-135.906 663.481,-134.407 660.258,-128.194"/>
</g>
<!-- Node11 -->
<g id="node11" class="node"><title>Node11</title>
<g id="a_node11"><a xlink:href="_i_s_r_8cpp.html" target="_top" xlink:title="board/v1/ISR.cpp">
<polygon fill="white" stroke="black" points="850,-65 850,-86 957,-86 957,-65 850,-65"/>
<text text-anchor="middle" x="903.5" y="-72.4" font-family="Helvetica,sans-Serif" font-size="12.00">board/v1/ISR.cpp</text>
</a>
</g>
</g>
<!-- Node4&#45;&gt;Node11 -->
<g id="edge10" class="edge"><title>Node4&#45;&gt;Node11</title>
<path fill="none" stroke="midnightblue" d="M682.003,-133.488C723.771,-122.904 786.196,-107.031 840.5,-93 849.148,-90.7655 858.458,-88.3389 867.198,-86.0514"/>
<polygon fill="midnightblue" stroke="midnightblue" points="680.944,-130.146 672.109,-135.994 682.663,-136.932 680.944,-130.146"/>
</g>
<!-- Node12 -->
<g id="node12" class="node"><title>Node12</title>
<g id="a_node12"><a xlink:href="board_2v1_2_l_e_ds_8cpp.html" target="_top" xlink:title="board/v1/LEDs.cpp">
<polygon fill="white" stroke="black" points="975.5,-65 975.5,-86 1093.5,-86 1093.5,-65 975.5,-65"/>
<text text-anchor="middle" x="1034.5" y="-72.4" font-family="Helvetica,sans-Serif" font-size="12.00">board/v1/LEDs.cpp</text>
</a>
</g>
</g>
<!-- Node4&#45;&gt;Node12 -->
<g id="edge11" class="edge"><title>Node4&#45;&gt;Node12</title>
<path fill="none" stroke="midnightblue" d="M697.998,-136.919C764.823,-127.54 872.948,-111.377 965.5,-93 975.769,-90.961 986.825,-88.457 997.015,-86.0215"/>
<polygon fill="midnightblue" stroke="midnightblue" points="697.461,-133.46 688.041,-138.309 698.429,-140.392 697.461,-133.46"/>
</g>
<!-- Node14 -->
<g id="node14" class="node"><title>Node14</title>
<g id="a_node14"><a xlink:href="_init_8cpp.html" target="_top" xlink:title="Init.cpp">
<polygon fill="white" stroke="black" points="1815,-136 1815,-157 1868,-157 1868,-136 1815,-136"/>
<text text-anchor="middle" x="1841.5" y="-143.4" font-family="Helvetica,sans-Serif" font-size="12.00">Init.cpp</text>
</a>
</g>
</g>
<!-- Node13&#45;&gt;Node14 -->
<g id="edge13" class="edge"><title>Node13&#45;&gt;Node14</title>
<path fill="none" stroke="midnightblue" d="M1564.65,-199.901C1672.48,-182.092 1704.32,-194.054 1805.5,-164 1811.43,-162.238 1817.64,-159.676 1823.2,-157.094"/>
<polygon fill="midnightblue" stroke="midnightblue" points="1563.94,-196.471 1554.67,-201.597 1565.12,-203.372 1563.94,-196.471"/>
</g>
<!-- Node15 -->
<g id="node15" class="node"><title>Node15</title>
<g id="a_node15"><a xlink:href="interface_2buttons_2_buttons_8h.html" target="_top" xlink:title="interface/buttons/Buttons.h">
<polygon fill="white" stroke="black" points="1437,-136 1437,-157 1590,-157 1590,-136 1437,-136"/>
<text text-anchor="middle" x="1513.5" y="-143.4" font-family="Helvetica,sans-Serif" font-size="12.00">interface/buttons/Buttons.h</text>
</a>
</g>
</g>
<!-- Node13&#45;&gt;Node15 -->
<g id="edge14" class="edge"><title>Node13&#45;&gt;Node15</title>
<path fill="none" stroke="midnightblue" d="M1513.5,-189.925C1513.5,-179.057 1513.5,-166.112 1513.5,-157.403"/>
<polygon fill="midnightblue" stroke="midnightblue" points="1510,-190.234 1513.5,-200.234 1517,-190.234 1510,-190.234"/>
</g>
<!-- Node16 -->
<g id="node16" class="node"><title>Node16</title>
<g id="a_node16"><a xlink:href="interface_2analog_2_analog_8h.html" target="_top" xlink:title="interface/analog/Analog.h">
<polygon fill="white" stroke="black" points="1544,-65 1544,-86 1693,-86 1693,-65 1544,-65"/>
<text text-anchor="middle" x="1618.5" y="-72.4" font-family="Helvetica,sans-Serif" font-size="12.00">interface/analog/Analog.h</text>
</a>
</g>
</g>
<!-- Node13&#45;&gt;Node16 -->
<g id="edge23" class="edge"><title>Node13&#45;&gt;Node16</title>
<path fill="none" stroke="midnightblue" d="M1553.86,-196.589C1569.96,-189.322 1587.3,-178.742 1598.5,-164 1616.41,-140.425 1618.75,-103.646 1618.77,-86.248"/>
<polygon fill="midnightblue" stroke="midnightblue" points="1552.44,-193.389 1544.58,-200.491 1555.15,-199.842 1552.44,-193.389"/>
</g>
<!-- Node19 -->
<g id="node19" class="node"><title>Node19</title>
<g id="a_node19"><a xlink:href="_f_s_r_8cpp.html" target="_top" xlink:title="interface/analog/FSR.cpp">
<polygon fill="white" stroke="black" points="1630,-0.5 1630,-21.5 1779,-21.5 1779,-0.5 1630,-0.5"/>
<text text-anchor="middle" x="1704.5" y="-7.9" font-family="Helvetica,sans-Serif" font-size="12.00">interface/analog/FSR.cpp</text>
</a>
</g>
</g>
<!-- Node13&#45;&gt;Node19 -->
<g id="edge27" class="edge"><title>Node13&#45;&gt;Node19</title>
<path fill="none" stroke="midnightblue" d="M1559.32,-197.274C1605.8,-181.511 1674.59,-149.555 1701.5,-93 1712.74,-69.3643 1709.23,-37.3149 1706.47,-21.5551"/>
<polygon fill="midnightblue" stroke="midnightblue" points="1558.19,-193.963 1549.77,-200.395 1560.36,-200.617 1558.19,-193.963"/>
</g>
<!-- Node20 -->
<g id="node20" class="node"><title>Node20</title>
<g id="a_node20"><a xlink:href="_potentiometer_8cpp.html" target="_top" xlink:title="interface/analog/Potentiometer.cpp">
<polygon fill="white" stroke="black" points="1797,-0.5 1797,-21.5 1996,-21.5 1996,-0.5 1797,-0.5"/>
<text text-anchor="middle" x="1896.5" y="-7.9" font-family="Helvetica,sans-Serif" font-size="12.00">interface/analog/Potentiometer.cpp</text>
</a>
</g>
</g>
<!-- Node13&#45;&gt;Node20 -->
<g id="edge28" class="edge"><title>Node13&#45;&gt;Node20</title>
<path fill="none" stroke="midnightblue" d="M1564.59,-200.169C1648.24,-190.932 1829.58,-211.431 1877.5,-164 1917,-124.899 1904.67,-48.3316 1898.81,-21.5351"/>
<polygon fill="midnightblue" stroke="midnightblue" points="1564.11,-196.703 1554.65,-201.487 1565.03,-203.642 1564.11,-196.703"/>
</g>
<!-- Node21 -->
<g id="node21" class="node"><title>Node21</title>
<g id="a_node21"><a xlink:href="interface_2buttons_2_buttons_8cpp.html" target="_top" xlink:title="interface/buttons/Buttons.cpp">
<polygon fill="white" stroke="black" points="1320,-65 1320,-86 1487,-86 1487,-65 1320,-65"/>
<text text-anchor="middle" x="1403.5" y="-72.4" font-family="Helvetica,sans-Serif" font-size="12.00">interface/buttons/Buttons.cpp</text>
</a>
</g>
</g>
<!-- Node13&#45;&gt;Node21 -->
<g id="edge29" class="edge"><title>Node13&#45;&gt;Node21</title>
<path fill="none" stroke="midnightblue" d="M1472.98,-196.452C1456.74,-189.162 1439.16,-178.602 1427.5,-164 1408.73,-140.486 1404.61,-103.352 1403.73,-86.0107"/>
<polygon fill="midnightblue" stroke="midnightblue" points="1471.75,-199.734 1482.33,-200.373 1474.46,-193.278 1471.75,-199.734"/>
</g>
<!-- Node22 -->
<g id="node22" class="node"><title>Node22</title>
<g id="a_node22"><a xlink:href="interface_2encoders_2_encoders_8h.html" target="_top" xlink:title="interface/encoders\l/Encoders.h">
<polygon fill="white" stroke="black" points="1112,-129.5 1112,-163.5 1225,-163.5 1225,-129.5 1112,-129.5"/>
<text text-anchor="start" x="1120" y="-149.9" font-family="Helvetica,sans-Serif" font-size="12.00">interface/encoders</text>
<text text-anchor="middle" x="1168.5" y="-136.9" font-family="Helvetica,sans-Serif" font-size="12.00">/Encoders.h</text>
</a>
</g>
</g>
<!-- Node13&#45;&gt;Node22 -->
<g id="edge24" class="edge"><title>Node13&#45;&gt;Node22</title>
<path fill="none" stroke="midnightblue" d="M1461.81,-202.301C1406.59,-193.848 1316.6,-179.414 1239.5,-164 1234.78,-163.057 1229.9,-162.031 1225.01,-160.966"/>
<polygon fill="midnightblue" stroke="midnightblue" points="1461.63,-205.813 1472.04,-203.859 1462.68,-198.893 1461.63,-205.813"/>
</g>
<!-- Node23 -->
<g id="node23" class="node"><title>Node23</title>
<g id="a_node23"><a xlink:href="interface_2encoders_2_encoders_8cpp.html" target="_top" xlink:title="interface/encoders\l/Encoders.cpp">
<polygon fill="white" stroke="black" points="1150,-58.5 1150,-92.5 1263,-92.5 1263,-58.5 1150,-58.5"/>
<text text-anchor="start" x="1158" y="-78.9" font-family="Helvetica,sans-Serif" font-size="12.00">interface/encoders</text>
<text text-anchor="middle" x="1206.5" y="-65.9" font-family="Helvetica,sans-Serif" font-size="12.00">/Encoders.cpp</text>
</a>
</g>
</g>
<!-- Node13&#45;&gt;Node23 -->
<g id="edge30" class="edge"><title>Node13&#45;&gt;Node23</title>
<path fill="none" stroke="midnightblue" d="M1462.08,-209.911C1411.7,-207.645 1334.42,-198.18 1277.5,-164 1248.49,-146.576 1226.26,-112.742 1214.9,-92.6345"/>
<polygon fill="midnightblue" stroke="midnightblue" points="1461.97,-213.41 1472.09,-210.283 1462.23,-206.415 1461.97,-213.41"/>
</g>
<!-- Node24 -->
<g id="node24" class="node"><title>Node24</title>
<g id="a_node24"><a xlink:href="_open_deck_8cpp.html" target="_top" xlink:title="OpenDeck.cpp">
<polygon fill="white" stroke="black" points="1702,-136 1702,-157 1797,-157 1797,-136 1702,-136"/>
<text text-anchor="middle" x="1749.5" y="-143.4" font-family="Helvetica,sans-Serif" font-size="12.00">OpenDeck.cpp</text>
</a>
</g>
</g>
<!-- Node13&#45;&gt;Node24 -->
<g id="edge31" class="edge"><title>Node13&#45;&gt;Node24</title>
<path fill="none" stroke="midnightblue" d="M1559.78,-197.788C1594.84,-188.53 1644.21,-175.484 1687.5,-164 1696.01,-161.744 1705.17,-159.309 1713.77,-157.02"/>
<polygon fill="midnightblue" stroke="midnightblue" points="1558.61,-194.477 1549.83,-200.414 1560.39,-201.245 1558.61,-194.477"/>
</g>
<!-- Node15&#45;&gt;Node16 -->
<g id="edge15" class="edge"><title>Node15&#45;&gt;Node16</title>
<path fill="none" stroke="midnightblue" d="M1536.58,-130.335C1557.14,-116.82 1586.61,-97.4586 1604.02,-86.0127"/>
<polygon fill="midnightblue" stroke="midnightblue" points="1534.53,-127.489 1528.1,-135.906 1538.38,-133.339 1534.53,-127.489"/>
</g>
<!-- Node17 -->
<g id="node17" class="node"><title>Node17</title>
<g id="a_node17"><a xlink:href="_interface_8h.html" target="_top" xlink:title="interface/Interface.h">
<polygon fill="white" stroke="black" points="1272.5,-0.5 1272.5,-21.5 1390.5,-21.5 1390.5,-0.5 1272.5,-0.5"/>
<text text-anchor="middle" x="1331.5" y="-7.9" font-family="Helvetica,sans-Serif" font-size="12.00">interface/Interface.h</text>
</a>
</g>
</g>
<!-- Node15&#45;&gt;Node17 -->
<g id="edge21" class="edge"><title>Node15&#45;&gt;Node17</title>
<path fill="none" stroke="midnightblue" d="M1514.94,-125.658C1515.24,-105.981 1512.47,-76.2114 1495.5,-58 1468.79,-29.3342 1425.79,-18.0192 1390.53,-13.7733"/>
<polygon fill="midnightblue" stroke="midnightblue" points="1511.43,-125.771 1514.49,-135.913 1518.42,-126.074 1511.43,-125.771"/>
</g>
<!-- Node15&#45;&gt;Node21 -->
<g id="edge22" class="edge"><title>Node15&#45;&gt;Node21</title>
<path fill="none" stroke="midnightblue" d="M1489.61,-130.516C1468.05,-116.993 1436.99,-97.5099 1418.67,-86.0127"/>
<polygon fill="midnightblue" stroke="midnightblue" points="1487.87,-133.557 1498.2,-135.906 1491.59,-127.627 1487.87,-133.557"/>
</g>
<!-- Node16&#45;&gt;Node17 -->
<g id="edge16" class="edge"><title>Node16&#45;&gt;Node17</title>
<path fill="none" stroke="midnightblue" d="M1564.74,-62.7917C1510.03,-50.8774 1426.25,-32.6329 1375.4,-21.5594"/>
<polygon fill="midnightblue" stroke="midnightblue" points="1564.08,-66.2315 1574.6,-64.9396 1565.57,-59.3918 1564.08,-66.2315"/>
</g>
<!-- Node18 -->
<g id="node18" class="node"><title>Node18</title>
<g id="a_node18"><a xlink:href="interface_2analog_2_analog_8cpp.html" target="_top" xlink:title="interface/analog/Analog.cpp">
<polygon fill="white" stroke="black" points="1449.5,-0.5 1449.5,-21.5 1611.5,-21.5 1611.5,-0.5 1449.5,-0.5"/>
<text text-anchor="middle" x="1530.5" y="-7.9" font-family="Helvetica,sans-Serif" font-size="12.00">interface/analog/Analog.cpp</text>
</a>
</g>
</g>
<!-- Node16&#45;&gt;Node18 -->
<g id="edge18" class="edge"><title>Node16&#45;&gt;Node18</title>
<path fill="none" stroke="midnightblue" d="M1596.28,-58.716C1579.87,-47.0648 1558.07,-31.5782 1544.15,-21.697"/>
<polygon fill="midnightblue" stroke="midnightblue" points="1594.57,-61.7974 1604.75,-64.7344 1598.62,-56.0903 1594.57,-61.7974"/>
</g>
<!-- Node16&#45;&gt;Node19 -->
<g id="edge19" class="edge"><title>Node16&#45;&gt;Node19</title>
<path fill="none" stroke="midnightblue" d="M1640.22,-58.716C1656.25,-47.0648 1677.56,-31.5782 1691.16,-21.697"/>
<polygon fill="midnightblue" stroke="midnightblue" points="1637.97,-56.0241 1631.94,-64.7344 1642.08,-61.6867 1637.97,-56.0241"/>
</g>
<!-- Node16&#45;&gt;Node20 -->
<g id="edge20" class="edge"><title>Node16&#45;&gt;Node20</title>
<path fill="none" stroke="midnightblue" d="M1670.91,-62.7175C1723.91,-50.8017 1804.83,-32.61 1853.98,-21.5594"/>
<polygon fill="midnightblue" stroke="midnightblue" points="1670.01,-59.3313 1661.02,-64.9396 1671.55,-66.1608 1670.01,-59.3313"/>
</g>
<!-- Node17&#45;&gt;Node13 -->
<g id="edge17" class="edge"><title>Node17&#45;&gt;Node13</title>
<path fill="none" stroke="midnightblue" d="M1319.3,-30.8897C1310.01,-47.8504 1300.39,-73.0726 1310.5,-93 1342.15,-155.396 1422.91,-186.763 1472.5,-200.63"/>
<polygon fill="midnightblue" stroke="midnightblue" points="1322.5,-32.3498 1324.58,-21.9606 1316.48,-28.7866 1322.5,-32.3498"/>
</g>
<!-- Node22&#45;&gt;Node17 -->
<g id="edge25" class="edge"><title>Node22&#45;&gt;Node17</title>
<path fill="none" stroke="midnightblue" d="M1149.43,-121.009C1137.21,-102.143 1126.1,-76.2794 1140.5,-58 1156.75,-37.3694 1222.57,-24.9136 1272.44,-18.2631"/>
<polygon fill="midnightblue" stroke="midnightblue" points="1146.65,-123.152 1155.22,-129.388 1152.41,-119.172 1146.65,-123.152"/>
</g>
<!-- Node22&#45;&gt;Node23 -->
<g id="edge26" class="edge"><title>Node22&#45;&gt;Node23</title>
<path fill="none" stroke="midnightblue" d="M1182.16,-120.699C1187.25,-111.455 1192.9,-101.199 1197.47,-92.8958"/>
<polygon fill="midnightblue" stroke="midnightblue" points="1179.07,-119.049 1177.31,-129.497 1185.2,-122.426 1179.07,-119.049"/>
</g>
</g>
</svg>
