M48
; DRILL file {KiCad 9.0.6} date 2025-12-16T13:31:08+0100
; FORMAT={-:-/ absolute / metric / decimal}
; #@! TF.CreationDate,2025-12-16T13:31:08+01:00
; #@! TF.GenerationSoftware,Kicad,Pcbnew,9.0.6
; #@! TF.FileFunction,Plated,1,2,PTH
FMAT,2
METRIC
; #@! TA.AperFunction,Plated,PTH,ViaDrill
T1C0.400
; #@! TA.AperFunction,Plated,PTH,ComponentDrill
T2C1.100
; #@! TA.AperFunction,Plated,PTH,ComponentDrill
T3C1.200
; #@! TA.AperFunction,Plated,PTH,ComponentDrill
T4C2.000
%
G90
G05
T1
X457.45Y-195.993
X457.45Y-196.945
X457.45Y-197.898
X457.45Y-198.85
X485.8Y-200.55
X486.5Y-189.6
X488.45Y-196.95
X489.7Y-196.05
X489.7Y-197.9
X490.4Y-198.85
X492.775Y-194.5
X495.248Y-194.774
X496.05Y-178.35
X496.8Y-185.75
X500.175Y-201.85
X501.9Y-178.0
X502.85Y-183.0
X503.4Y-208.8
X503.75Y-214.95
X503.95Y-198.05
X504.05Y-187.05
X504.2Y-190.9
X505.5Y-204.4
X506.25Y-183.0
X507.1Y-163.95
X507.4Y-183.05
X507.5Y-196.55
X507.8Y-201.05
X508.05Y-190.3
X508.2Y-180.6
X510.6Y-194.95
X510.8Y-198.9
X511.25Y-190.85
X513.5Y-175.45
X513.75Y-214.95
X513.8Y-192.95
X514.25Y-201.1
X514.4Y-207.8
X514.6Y-162.55
X516.0Y-186.3
X516.325Y-166.2
X517.4Y-201.1
X517.5Y-182.1
X517.5Y-194.15
X519.35Y-173.45
X519.75Y-166.95
X520.7Y-207.4
X521.825Y-170.8
X522.2Y-196.65
X522.25Y-192.05
X522.65Y-179.9
X522.8Y-168.775
X524.5Y-174.6
X524.8Y-190.2
X525.6Y-202.9
X525.95Y-196.55
X527.05Y-179.4
X527.1Y-192.55
X527.35Y-214.8
X528.35Y-188.2
X528.4Y-205.15
X531.35Y-177.95
T2
X338.25Y-191.35
X338.25Y-195.85
X344.75Y-191.35
X344.75Y-195.85
T3
X150.25Y-228.6
X152.75Y-158.6
X152.75Y-228.6
X155.25Y-228.6
X157.75Y-158.6
X157.75Y-228.6
X175.25Y-228.6
X177.75Y-158.6
X177.75Y-228.6
X180.25Y-228.6
X182.75Y-158.6
X182.75Y-228.6
X200.25Y-228.6
X202.75Y-158.6
X202.75Y-228.6
X205.25Y-228.6
X207.75Y-158.6
X207.75Y-228.6
X225.25Y-228.6
X227.75Y-158.6
X227.75Y-228.6
X230.25Y-228.6
X232.75Y-158.6
X232.75Y-228.6
X250.25Y-228.6
X252.75Y-158.6
X252.75Y-228.6
X255.25Y-228.6
X257.75Y-158.6
X257.75Y-228.6
X275.25Y-228.6
X277.75Y-158.6
X277.75Y-228.6
X280.25Y-228.6
X282.75Y-158.6
X282.75Y-228.6
X300.25Y-228.6
X302.75Y-158.6
X302.75Y-228.6
X305.25Y-228.6
X307.75Y-158.6
X307.75Y-228.6
X325.25Y-228.6
X327.75Y-158.6
X327.75Y-228.6
X330.25Y-228.6
X332.75Y-158.6
X332.75Y-228.6
X350.25Y-228.6
X352.75Y-158.6
X352.75Y-228.6
X355.25Y-228.6
X357.75Y-158.6
X357.75Y-228.6
X375.25Y-228.6
X377.75Y-158.6
X377.75Y-228.6
X380.25Y-228.6
X382.75Y-158.6
X382.75Y-228.6
X400.25Y-228.6
X402.75Y-158.6
X402.75Y-228.6
X405.25Y-228.6
X407.75Y-158.6
X407.75Y-228.6
X425.25Y-228.6
X427.75Y-158.6
X427.75Y-228.6
X430.25Y-228.6
X432.75Y-158.6
X432.75Y-228.6
X450.25Y-228.6
X452.75Y-158.6
X452.75Y-228.6
X455.25Y-228.6
X457.75Y-158.6
X457.75Y-228.6
X475.25Y-228.6
X477.75Y-158.6
X477.75Y-228.6
X480.25Y-228.6
X482.75Y-158.6
X482.75Y-228.6
X500.25Y-228.6
X502.75Y-158.6
X502.75Y-228.6
X505.25Y-228.6
X507.75Y-158.6
X507.75Y-228.6
X525.25Y-228.6
X527.75Y-158.6
X527.75Y-228.6
X530.25Y-228.6
X532.75Y-158.6
X532.75Y-228.6
T4
X154.0Y-171.1
X154.0Y-218.6
X179.0Y-171.1
X179.0Y-218.6
X204.0Y-171.1
X204.0Y-218.6
X229.0Y-171.1
X229.0Y-218.6
X254.0Y-171.1
X254.0Y-218.6
X279.0Y-171.1
X279.0Y-218.6
X304.0Y-171.1
X304.0Y-218.6
X329.0Y-171.1
X329.0Y-218.6
X354.0Y-171.1
X354.0Y-218.6
X379.0Y-171.1
X379.0Y-218.6
X404.0Y-171.1
X404.0Y-218.6
X429.0Y-171.1
X429.0Y-218.6
X454.0Y-171.1
X454.0Y-218.6
X479.0Y-171.1
X479.0Y-218.6
X504.0Y-171.1
X504.0Y-218.6
X529.0Y-171.1
X529.0Y-218.6
M30
