G04 #@! TF.GenerationSoftware,KiCad,Pcbnew,9.0.6*
G04 #@! TF.CreationDate,2025-12-16T13:31:05+01:00*
G04 #@! TF.ProjectId,MBO,4d424f2e-6b69-4636-9164-5f7063625858,rev?*
G04 #@! TF.SameCoordinates,Original*
G04 #@! TF.FileFunction,Legend,Bot*
G04 #@! TF.FilePolarity,Positive*
%FSLAX46Y46*%
G04 Gerber Fmt 4.6, Leading zero omitted, Abs format (unit mm)*
G04 Created by KiCad (PCBNEW 9.0.6) date 2025-12-16 13:31:05*
%MOMM*%
%LPD*%
G01*
G04 APERTURE LIST*
G04 Aperture macros list*
%AMRoundRect*
0 Rectangle with rounded corners*
0 $1 Rounding radius*
0 $2 $3 $4 $5 $6 $7 $8 $9 X,Y pos of 4 corners*
0 Add a 4 corners polygon primitive as box body*
4,1,4,$2,$3,$4,$5,$6,$7,$8,$9,$2,$3,0*
0 Add four circle primitives for the rounded corners*
1,1,$1+$1,$2,$3*
1,1,$1+$1,$4,$5*
1,1,$1+$1,$6,$7*
1,1,$1+$1,$8,$9*
0 Add four rect primitives between the rounded corners*
20,1,$1+$1,$2,$3,$4,$5,0*
20,1,$1+$1,$4,$5,$6,$7,0*
20,1,$1+$1,$6,$7,$8,$9,0*
20,1,$1+$1,$8,$9,$2,$3,0*%
G04 Aperture macros list end*
%ADD10C,0.060000*%
%ADD11C,0.150000*%
%ADD12C,0.120000*%
%ADD13C,0.152400*%
%ADD14C,0.200000*%
%ADD15C,1.962000*%
%ADD16C,2.801600*%
%ADD17C,2.000000*%
%ADD18RoundRect,0.140000X-0.170000X0.140000X-0.170000X-0.140000X0.170000X-0.140000X0.170000X0.140000X0*%
%ADD19RoundRect,0.140000X0.140000X0.170000X-0.140000X0.170000X-0.140000X-0.170000X0.140000X-0.170000X0*%
%ADD20RoundRect,0.140000X0.170000X-0.140000X0.170000X0.140000X-0.170000X0.140000X-0.170000X-0.140000X0*%
%ADD21RoundRect,0.250000X0.450000X-0.262500X0.450000X0.262500X-0.450000X0.262500X-0.450000X-0.262500X0*%
%ADD22RoundRect,0.135000X0.185000X-0.135000X0.185000X0.135000X-0.185000X0.135000X-0.185000X-0.135000X0*%
%ADD23RoundRect,0.102000X0.330200X0.774700X-0.330200X0.774700X-0.330200X-0.774700X0.330200X-0.774700X0*%
%ADD24RoundRect,0.102000X0.647700X0.952500X-0.647700X0.952500X-0.647700X-0.952500X0.647700X-0.952500X0*%
%ADD25RoundRect,0.075000X-0.700000X-0.075000X0.700000X-0.075000X0.700000X0.075000X-0.700000X0.075000X0*%
%ADD26RoundRect,0.075000X-0.075000X-0.700000X0.075000X-0.700000X0.075000X0.700000X-0.075000X0.700000X0*%
%ADD27RoundRect,0.140000X-0.140000X-0.170000X0.140000X-0.170000X0.140000X0.170000X-0.140000X0.170000X0*%
%ADD28RoundRect,0.250000X0.262500X0.450000X-0.262500X0.450000X-0.262500X-0.450000X0.262500X-0.450000X0*%
%ADD29RoundRect,0.102000X0.370000X1.395000X-0.370000X1.395000X-0.370000X-1.395000X0.370000X-1.395000X0*%
%ADD30RoundRect,0.150000X0.875000X0.150000X-0.875000X0.150000X-0.875000X-0.150000X0.875000X-0.150000X0*%
%ADD31RoundRect,0.250000X0.400000X-0.550000X0.400000X0.550000X-0.400000X0.550000X-0.400000X-0.550000X0*%
%ADD32RoundRect,0.375000X0.375000X-0.625000X0.375000X0.625000X-0.375000X0.625000X-0.375000X-0.625000X0*%
%ADD33RoundRect,0.500000X1.400000X-0.500000X1.400000X0.500000X-1.400000X0.500000X-1.400000X-0.500000X0*%
%ADD34RoundRect,0.102000X0.774700X-0.330200X0.774700X0.330200X-0.774700X0.330200X-0.774700X-0.330200X0*%
%ADD35RoundRect,0.102000X0.952500X-0.647700X0.952500X0.647700X-0.952500X0.647700X-0.952500X-0.647700X0*%
G04 APERTURE END LIST*
D10*
X271657142Y-202348410D02*
X271663170Y-202346531D01*
X271669227Y-202344686D01*
X271681312Y-202341018D01*
X271657142Y-202348410D01*
G36*
X271657142Y-202348410D02*
G01*
X271663170Y-202346531D01*
X271669227Y-202344686D01*
X271681312Y-202341018D01*
X271657142Y-202348410D01*
G37*
X271599216Y-202366675D02*
X271541731Y-202385213D01*
X271484710Y-202404073D01*
X271428173Y-202423304D01*
X271484700Y-202404052D01*
X271541704Y-202385157D01*
X271599185Y-202366612D01*
X271657141Y-202348410D01*
X271599216Y-202366675D01*
G36*
X271599216Y-202366675D02*
G01*
X271541731Y-202385213D01*
X271484710Y-202404073D01*
X271428173Y-202423304D01*
X271484700Y-202404052D01*
X271541704Y-202385157D01*
X271599185Y-202366612D01*
X271657141Y-202348410D01*
X271599216Y-202366675D01*
G37*
X284173353Y-208700000D02*
X283593073Y-209278986D01*
X283593073Y-209278985D01*
X281272184Y-209278985D01*
X281272184Y-208700000D01*
X283593073Y-208700000D01*
X283593073Y-208120865D01*
X280691904Y-208120865D01*
X280111625Y-207541880D01*
X280111625Y-206962821D01*
X280691904Y-206962821D01*
X280691904Y-207541880D01*
X283593073Y-207541880D01*
X283593073Y-206962821D01*
X280691904Y-206962821D01*
X280111625Y-206962821D01*
X280691904Y-206383835D01*
X283593073Y-206383835D01*
X284173353Y-206962821D01*
X284173353Y-207541880D01*
X284173353Y-208700000D01*
G36*
X284173353Y-208700000D02*
G01*
X283593073Y-209278986D01*
X283593073Y-209278985D01*
X281272184Y-209278985D01*
X281272184Y-208700000D01*
X283593073Y-208700000D01*
X283593073Y-208120865D01*
X280691904Y-208120865D01*
X280111625Y-207541880D01*
X280111625Y-206962821D01*
X280691904Y-206962821D01*
X280691904Y-207541880D01*
X283593073Y-207541880D01*
X283593073Y-206962821D01*
X280691904Y-206962821D01*
X280111625Y-206962821D01*
X280691904Y-206383835D01*
X283593073Y-206383835D01*
X284173353Y-206962821D01*
X284173353Y-207541880D01*
X284173353Y-208700000D01*
G37*
X292877082Y-209278986D02*
X292296804Y-209278986D01*
X292296804Y-206962821D01*
X289395635Y-206962821D01*
X289395635Y-209278986D01*
X288815281Y-209278986D01*
X288815281Y-206962821D01*
X289395635Y-206383835D01*
X292877082Y-206383835D01*
X292877082Y-209278986D01*
G36*
X292877082Y-209278986D02*
G01*
X292296804Y-209278986D01*
X292296804Y-206962821D01*
X289395635Y-206962821D01*
X289395635Y-209278986D01*
X288815281Y-209278986D01*
X288815281Y-206962821D01*
X289395635Y-206383835D01*
X292877082Y-206383835D01*
X292877082Y-209278986D01*
G37*
X302161018Y-209278985D02*
X301580739Y-209278985D01*
X301580739Y-206962820D01*
X298679571Y-206962820D01*
X298679571Y-209278985D01*
X298099292Y-209278985D01*
X298099292Y-206962820D01*
X298679571Y-206383835D01*
X301580739Y-206383835D01*
X301580739Y-205225790D01*
X302161018Y-205225790D01*
X302161018Y-209278985D01*
G36*
X302161018Y-209278985D02*
G01*
X301580739Y-209278985D01*
X301580739Y-206962820D01*
X298679571Y-206962820D01*
X298679571Y-209278985D01*
X298099292Y-209278985D01*
X298099292Y-206962820D01*
X298679571Y-206383835D01*
X301580739Y-206383835D01*
X301580739Y-205225790D01*
X302161018Y-205225790D01*
X302161018Y-209278985D01*
G37*
X264795167Y-202571486D02*
X264896016Y-202618257D01*
X264996248Y-202667485D01*
X265095916Y-202719178D01*
X265195072Y-202773341D01*
X265293769Y-202829981D01*
X265392060Y-202889102D01*
X265489997Y-202950711D01*
X265587634Y-203014814D01*
X265685023Y-203081417D01*
X265782216Y-203150526D01*
X265879267Y-203222146D01*
X266073153Y-203372944D01*
X266267101Y-203533860D01*
X266292662Y-203155766D01*
X266299876Y-203074161D01*
X266309131Y-202996862D01*
X266321285Y-202923440D01*
X266337193Y-202853464D01*
X266357712Y-202786505D01*
X266383698Y-202722131D01*
X266399008Y-202690780D01*
X266416006Y-202659914D01*
X266434800Y-202629479D01*
X266455495Y-202599422D01*
X266478198Y-202569689D01*
X266503018Y-202540225D01*
X266530061Y-202510979D01*
X266559434Y-202481894D01*
X266591244Y-202452919D01*
X266625597Y-202423998D01*
X266702365Y-202366107D01*
X266962086Y-203216590D01*
X267076862Y-203072724D01*
X267201460Y-202924187D01*
X267267513Y-202849571D01*
X267336107Y-202775472D01*
X267407269Y-202702452D01*
X267481028Y-202631071D01*
X267557412Y-202561892D01*
X267636451Y-202495476D01*
X267718171Y-202432385D01*
X267802601Y-202373180D01*
X267889770Y-202318422D01*
X267979706Y-202268675D01*
X268072437Y-202224498D01*
X268119860Y-202204674D01*
X268167992Y-202186453D01*
X268162319Y-202387868D01*
X268149457Y-202575231D01*
X268129981Y-202749317D01*
X268104465Y-202910896D01*
X268073484Y-203060744D01*
X268037612Y-203199632D01*
X267997424Y-203328333D01*
X267953494Y-203447621D01*
X267906397Y-203558269D01*
X267856707Y-203661049D01*
X267751848Y-203846098D01*
X267643513Y-204008953D01*
X267536298Y-204155798D01*
X267434800Y-204292816D01*
X267343614Y-204426192D01*
X267267336Y-204562108D01*
X267236225Y-204632952D01*
X267210564Y-204706750D01*
X267190929Y-204784275D01*
X267177893Y-204866300D01*
X267172032Y-204953598D01*
X267173919Y-205046943D01*
X267184131Y-205147107D01*
X267203240Y-205254862D01*
X267231821Y-205370983D01*
X267270450Y-205496242D01*
X267317638Y-205646246D01*
X267359078Y-205796657D01*
X267396274Y-205947913D01*
X267430730Y-206100447D01*
X267497443Y-206411097D01*
X267532710Y-206570084D01*
X267571255Y-206732093D01*
X267724958Y-206308418D01*
X267886532Y-205907885D01*
X268056786Y-205529946D01*
X268236530Y-205174053D01*
X268426572Y-204839656D01*
X268627723Y-204526209D01*
X268840791Y-204233163D01*
X269066585Y-203959969D01*
X269305914Y-203706079D01*
X269559588Y-203470945D01*
X269828416Y-203254018D01*
X270113206Y-203054750D01*
X270414768Y-202872593D01*
X270733911Y-202706999D01*
X271071445Y-202557418D01*
X271428178Y-202423304D01*
X271484715Y-202404073D01*
X271541736Y-202385213D01*
X271599220Y-202366675D01*
X271657146Y-202348410D01*
X271681316Y-202341018D01*
X271738481Y-202323667D01*
X271796073Y-202306596D01*
X271854127Y-202289860D01*
X271912679Y-202273517D01*
X272293297Y-202177786D01*
X272693331Y-202094256D01*
X273113494Y-202022489D01*
X273554501Y-201962044D01*
X274017065Y-201912480D01*
X274501899Y-201873359D01*
X275009719Y-201844239D01*
X275541237Y-201824680D01*
X275539599Y-201827480D01*
X275537889Y-201830159D01*
X275536111Y-201832730D01*
X275534273Y-201835204D01*
X275530436Y-201839909D01*
X275526424Y-201844369D01*
X275509557Y-201861614D01*
X275505366Y-201866245D01*
X275501280Y-201871190D01*
X275499289Y-201873811D01*
X275497342Y-201876545D01*
X275495445Y-201879404D01*
X275493601Y-201882401D01*
X275491819Y-201885546D01*
X275490103Y-201888853D01*
X275488459Y-201892331D01*
X275486893Y-201895993D01*
X275485411Y-201899851D01*
X275484019Y-201903916D01*
X275482722Y-201908201D01*
X275481526Y-201912715D01*
X274973079Y-202497226D01*
X274903514Y-202588445D01*
X274839617Y-202677448D01*
X274727541Y-202849317D01*
X274634272Y-203013851D01*
X274557233Y-203172070D01*
X274493845Y-203324989D01*
X274441531Y-203473628D01*
X274397712Y-203619003D01*
X274359812Y-203762133D01*
X274291453Y-204045727D01*
X274255839Y-204188228D01*
X274215831Y-204332553D01*
X274168851Y-204479723D01*
X274112322Y-204630753D01*
X274043666Y-204786662D01*
X273960304Y-204948468D01*
X273920433Y-205017865D01*
X273877917Y-205087131D01*
X273832826Y-205156212D01*
X273785229Y-205225052D01*
X273735194Y-205293593D01*
X273682790Y-205361780D01*
X273628086Y-205429557D01*
X273571150Y-205496867D01*
X273512053Y-205563656D01*
X273450862Y-205629865D01*
X273387646Y-205695441D01*
X273322474Y-205760325D01*
X273255415Y-205824463D01*
X273186538Y-205887797D01*
X273115912Y-205950273D01*
X273043605Y-206011833D01*
X272980533Y-206063644D01*
X272916320Y-206114673D01*
X272851003Y-206164894D01*
X272784621Y-206214280D01*
X272717212Y-206262805D01*
X272648812Y-206310442D01*
X272579461Y-206357166D01*
X272509196Y-206402950D01*
X272348627Y-206501985D01*
X272184235Y-206595631D01*
X272016464Y-206683461D01*
X271845757Y-206765050D01*
X271759440Y-206803370D01*
X271672555Y-206839970D01*
X271585158Y-206874797D01*
X271497303Y-206907798D01*
X271409046Y-206938918D01*
X271320442Y-206968105D01*
X271231547Y-206995305D01*
X271142416Y-207020466D01*
X271009320Y-207054866D01*
X270883396Y-207084238D01*
X270764487Y-207108716D01*
X270652436Y-207128437D01*
X270547083Y-207143538D01*
X270448272Y-207154156D01*
X270355844Y-207160426D01*
X270269642Y-207162486D01*
X270152881Y-207158066D01*
X270049021Y-207145100D01*
X269957560Y-207124031D01*
X269877996Y-207095304D01*
X269809827Y-207059361D01*
X269752550Y-207016645D01*
X269705662Y-206967601D01*
X269668661Y-206912670D01*
X269641046Y-206852296D01*
X269622313Y-206786923D01*
X269611960Y-206716993D01*
X269609486Y-206642951D01*
X269614386Y-206565238D01*
X269626160Y-206484299D01*
X269644305Y-206400577D01*
X269668317Y-206314514D01*
X269697696Y-206226555D01*
X269731939Y-206137142D01*
X269770543Y-206046719D01*
X269813006Y-205955728D01*
X269907499Y-205773819D01*
X270011399Y-205594961D01*
X270120688Y-205422698D01*
X270231346Y-205260579D01*
X270339354Y-205112147D01*
X270440694Y-204980950D01*
X270618573Y-204769915D01*
X270800905Y-204576195D01*
X270986694Y-204398436D01*
X271174940Y-204235283D01*
X271364646Y-204085380D01*
X271554813Y-203947374D01*
X271744443Y-203819909D01*
X271932538Y-203701632D01*
X272300130Y-203487220D01*
X272649603Y-203293300D01*
X272972971Y-203109035D01*
X273122370Y-203017137D01*
X273262249Y-202923588D01*
X273037282Y-202957228D01*
X272811069Y-203004620D01*
X272584150Y-203065382D01*
X272357066Y-203139128D01*
X272130359Y-203225475D01*
X271904570Y-203324040D01*
X271680238Y-203434439D01*
X271457907Y-203556289D01*
X271238115Y-203689204D01*
X271021405Y-203832803D01*
X270808318Y-203986701D01*
X270599394Y-204150514D01*
X270395174Y-204323858D01*
X270196199Y-204506351D01*
X270003011Y-204697608D01*
X269816150Y-204897246D01*
X269636157Y-205104880D01*
X269463574Y-205320128D01*
X269298941Y-205542605D01*
X269142799Y-205771928D01*
X268995690Y-206007713D01*
X268858154Y-206249577D01*
X268730731Y-206497135D01*
X268613965Y-206750004D01*
X268508394Y-207007801D01*
X268414560Y-207270141D01*
X268333005Y-207536641D01*
X268264269Y-207806917D01*
X268208893Y-208080586D01*
X268167418Y-208357263D01*
X268140385Y-208636566D01*
X268128336Y-208918110D01*
X268133068Y-209121972D01*
X268149558Y-209436194D01*
X268206305Y-210257648D01*
X268218726Y-210409852D01*
X268275566Y-211106333D01*
X268334334Y-211706110D01*
X267900117Y-211404372D01*
X267738100Y-209947127D01*
X268155119Y-209947127D01*
X268166727Y-210175727D01*
X268180635Y-210410375D01*
X268195000Y-210409852D01*
X268185007Y-210291263D01*
X268175891Y-210174831D01*
X268167630Y-210060190D01*
X268160205Y-209946977D01*
X268155119Y-209947127D01*
X267738100Y-209947127D01*
X267735288Y-209921835D01*
X267625104Y-209069928D01*
X267489611Y-208192343D01*
X267323712Y-207325140D01*
X267227767Y-206906700D01*
X267122309Y-206504377D01*
X267006700Y-206122680D01*
X266880305Y-205766116D01*
X266742484Y-205439193D01*
X266592603Y-205146417D01*
X266543615Y-205065359D01*
X266487373Y-204981455D01*
X266354221Y-204806444D01*
X266195341Y-204624060D01*
X266012928Y-204436980D01*
X265809180Y-204247877D01*
X265586291Y-204059430D01*
X265346456Y-203874312D01*
X265091872Y-203695201D01*
X264824733Y-203524772D01*
X264547237Y-203365701D01*
X264261577Y-203220664D01*
X264116372Y-203154244D01*
X263969950Y-203092336D01*
X263822585Y-203035274D01*
X263674551Y-202983393D01*
X263526123Y-202937028D01*
X263377576Y-202896512D01*
X263229184Y-202862181D01*
X263081221Y-202834368D01*
X262933961Y-202813409D01*
X262787680Y-202799637D01*
X264338017Y-203499894D01*
X264576475Y-203632536D01*
X264802549Y-203775983D01*
X265009544Y-203930471D01*
X265103795Y-204011927D01*
X265190767Y-204096232D01*
X265269623Y-204183414D01*
X265339526Y-204273503D01*
X265399640Y-204366527D01*
X265449127Y-204462516D01*
X265487151Y-204561500D01*
X265512876Y-204663508D01*
X265525465Y-204768568D01*
X265524081Y-204876711D01*
X265469597Y-204905495D01*
X265414450Y-204932121D01*
X265358680Y-204956630D01*
X265302324Y-204979064D01*
X265245420Y-204999465D01*
X265188007Y-205017873D01*
X265130122Y-205034331D01*
X265071804Y-205048880D01*
X265013090Y-205061562D01*
X264954019Y-205072418D01*
X264894629Y-205081490D01*
X264834957Y-205088819D01*
X264775042Y-205094447D01*
X264714921Y-205098416D01*
X264654634Y-205100766D01*
X264594217Y-205101541D01*
X264532590Y-205100744D01*
X264470920Y-205098385D01*
X264409247Y-205094511D01*
X264347609Y-205089166D01*
X264286046Y-205082398D01*
X264224598Y-205074253D01*
X264102202Y-205054014D01*
X263980735Y-205028818D01*
X263860513Y-204999036D01*
X263741851Y-204965036D01*
X263625063Y-204927188D01*
X263570422Y-204908020D01*
X263516309Y-204888145D01*
X263462773Y-204867556D01*
X263409863Y-204846247D01*
X263407630Y-204845338D01*
X263405411Y-204844408D01*
X263400955Y-204842513D01*
X263348185Y-204820144D01*
X263296087Y-204797180D01*
X263244719Y-204773641D01*
X263194138Y-204749550D01*
X263097987Y-204701169D01*
X263005124Y-204651193D01*
X262915822Y-204599903D01*
X262830351Y-204547579D01*
X262748984Y-204494503D01*
X262671993Y-204440955D01*
X262599650Y-204387216D01*
X262532225Y-204333568D01*
X262450286Y-204264568D01*
X262377803Y-204200482D01*
X262313611Y-204140339D01*
X262256544Y-204083167D01*
X262205437Y-204027994D01*
X262159123Y-203973849D01*
X262116437Y-203919761D01*
X262076212Y-203864757D01*
X262037284Y-203807867D01*
X261998486Y-203748119D01*
X261916617Y-203616162D01*
X261821279Y-203461115D01*
X261765645Y-203372504D01*
X261703146Y-203275206D01*
X261669502Y-203224791D01*
X261636495Y-203177849D01*
X261604069Y-203134186D01*
X261572172Y-203093608D01*
X261540749Y-203055923D01*
X261509746Y-203020936D01*
X261479110Y-202988454D01*
X261448785Y-202958285D01*
X261418717Y-202930234D01*
X261388854Y-202904109D01*
X261329522Y-202856862D01*
X261270355Y-202814997D01*
X261210922Y-202776966D01*
X260961862Y-202632258D01*
X260894602Y-202590201D01*
X260824479Y-202542699D01*
X260751059Y-202488204D01*
X260673911Y-202425171D01*
X260960308Y-202360596D01*
X261238228Y-202304589D01*
X261508034Y-202257161D01*
X261770087Y-202218328D01*
X262024750Y-202188101D01*
X262272385Y-202166495D01*
X262513354Y-202153521D01*
X262748019Y-202149194D01*
X262946444Y-202152485D01*
X263140619Y-202162351D01*
X263330787Y-202178777D01*
X263517188Y-202201752D01*
X263700065Y-202231261D01*
X263879657Y-202267291D01*
X264056207Y-202309830D01*
X264229956Y-202358865D01*
X264288868Y-202377180D01*
X264347492Y-202396282D01*
X264405835Y-202416166D01*
X264463905Y-202436828D01*
X264521712Y-202458264D01*
X264579266Y-202480469D01*
X264636576Y-202503438D01*
X264693652Y-202527169D01*
X264693651Y-202527170D01*
X264693648Y-202527169D01*
X264692898Y-202527915D01*
X264635824Y-202504242D01*
X264578506Y-202481326D01*
X264520939Y-202459172D01*
X264463114Y-202437781D01*
X264405022Y-202417157D01*
X264346655Y-202397302D01*
X264288004Y-202378219D01*
X264229059Y-202359910D01*
X264229170Y-202359795D01*
X264229282Y-202359674D01*
X264229394Y-202359547D01*
X264229506Y-202359416D01*
X264229730Y-202359144D01*
X264229956Y-202358865D01*
X264229951Y-202358864D01*
X264229726Y-202359143D01*
X264229613Y-202359280D01*
X264229501Y-202359415D01*
X264229389Y-202359546D01*
X264229277Y-202359673D01*
X264229166Y-202359794D01*
X264229054Y-202359909D01*
X264287998Y-202378218D01*
X264346648Y-202397301D01*
X264405015Y-202417156D01*
X264463106Y-202437780D01*
X264520931Y-202459171D01*
X264578499Y-202481325D01*
X264635818Y-202504241D01*
X264692897Y-202527915D01*
X264692902Y-202527916D01*
X264692900Y-202527915D01*
X264692902Y-202527915D01*
X264693651Y-202527170D01*
X264695360Y-202527916D01*
X264795167Y-202571486D01*
G36*
X264795167Y-202571486D02*
G01*
X264896016Y-202618257D01*
X264996248Y-202667485D01*
X265095916Y-202719178D01*
X265195072Y-202773341D01*
X265293769Y-202829981D01*
X265392060Y-202889102D01*
X265489997Y-202950711D01*
X265587634Y-203014814D01*
X265685023Y-203081417D01*
X265782216Y-203150526D01*
X265879267Y-203222146D01*
X266073153Y-203372944D01*
X266267101Y-203533860D01*
X266292662Y-203155766D01*
X266299876Y-203074161D01*
X266309131Y-202996862D01*
X266321285Y-202923440D01*
X266337193Y-202853464D01*
X266357712Y-202786505D01*
X266383698Y-202722131D01*
X266399008Y-202690780D01*
X266416006Y-202659914D01*
X266434800Y-202629479D01*
X266455495Y-202599422D01*
X266478198Y-202569689D01*
X266503018Y-202540225D01*
X266530061Y-202510979D01*
X266559434Y-202481894D01*
X266591244Y-202452919D01*
X266625597Y-202423998D01*
X266702365Y-202366107D01*
X266962086Y-203216590D01*
X267076862Y-203072724D01*
X267201460Y-202924187D01*
X267267513Y-202849571D01*
X267336107Y-202775472D01*
X267407269Y-202702452D01*
X267481028Y-202631071D01*
X267557412Y-202561892D01*
X267636451Y-202495476D01*
X267718171Y-202432385D01*
X267802601Y-202373180D01*
X267889770Y-202318422D01*
X267979706Y-202268675D01*
X268072437Y-202224498D01*
X268119860Y-202204674D01*
X268167992Y-202186453D01*
X268162319Y-202387868D01*
X268149457Y-202575231D01*
X268129981Y-202749317D01*
X268104465Y-202910896D01*
X268073484Y-203060744D01*
X268037612Y-203199632D01*
X267997424Y-203328333D01*
X267953494Y-203447621D01*
X267906397Y-203558269D01*
X267856707Y-203661049D01*
X267751848Y-203846098D01*
X267643513Y-204008953D01*
X267536298Y-204155798D01*
X267434800Y-204292816D01*
X267343614Y-204426192D01*
X267267336Y-204562108D01*
X267236225Y-204632952D01*
X267210564Y-204706750D01*
X267190929Y-204784275D01*
X267177893Y-204866300D01*
X267172032Y-204953598D01*
X267173919Y-205046943D01*
X267184131Y-205147107D01*
X267203240Y-205254862D01*
X267231821Y-205370983D01*
X267270450Y-205496242D01*
X267317638Y-205646246D01*
X267359078Y-205796657D01*
X267396274Y-205947913D01*
X267430730Y-206100447D01*
X267497443Y-206411097D01*
X267532710Y-206570084D01*
X267571255Y-206732093D01*
X267724958Y-206308418D01*
X267886532Y-205907885D01*
X268056786Y-205529946D01*
X268236530Y-205174053D01*
X268426572Y-204839656D01*
X268627723Y-204526209D01*
X268840791Y-204233163D01*
X269066585Y-203959969D01*
X269305914Y-203706079D01*
X269559588Y-203470945D01*
X269828416Y-203254018D01*
X270113206Y-203054750D01*
X270414768Y-202872593D01*
X270733911Y-202706999D01*
X271071445Y-202557418D01*
X271428178Y-202423304D01*
X271484715Y-202404073D01*
X271541736Y-202385213D01*
X271599220Y-202366675D01*
X271657146Y-202348410D01*
X271681316Y-202341018D01*
X271738481Y-202323667D01*
X271796073Y-202306596D01*
X271854127Y-202289860D01*
X271912679Y-202273517D01*
X272293297Y-202177786D01*
X272693331Y-202094256D01*
X273113494Y-202022489D01*
X273554501Y-201962044D01*
X274017065Y-201912480D01*
X274501899Y-201873359D01*
X275009719Y-201844239D01*
X275541237Y-201824680D01*
X275539599Y-201827480D01*
X275537889Y-201830159D01*
X275536111Y-201832730D01*
X275534273Y-201835204D01*
X275530436Y-201839909D01*
X275526424Y-201844369D01*
X275509557Y-201861614D01*
X275505366Y-201866245D01*
X275501280Y-201871190D01*
X275499289Y-201873811D01*
X275497342Y-201876545D01*
X275495445Y-201879404D01*
X275493601Y-201882401D01*
X275491819Y-201885546D01*
X275490103Y-201888853D01*
X275488459Y-201892331D01*
X275486893Y-201895993D01*
X275485411Y-201899851D01*
X275484019Y-201903916D01*
X275482722Y-201908201D01*
X275481526Y-201912715D01*
X274973079Y-202497226D01*
X274903514Y-202588445D01*
X274839617Y-202677448D01*
X274727541Y-202849317D01*
X274634272Y-203013851D01*
X274557233Y-203172070D01*
X274493845Y-203324989D01*
X274441531Y-203473628D01*
X274397712Y-203619003D01*
X274359812Y-203762133D01*
X274291453Y-204045727D01*
X274255839Y-204188228D01*
X274215831Y-204332553D01*
X274168851Y-204479723D01*
X274112322Y-204630753D01*
X274043666Y-204786662D01*
X273960304Y-204948468D01*
X273920433Y-205017865D01*
X273877917Y-205087131D01*
X273832826Y-205156212D01*
X273785229Y-205225052D01*
X273735194Y-205293593D01*
X273682790Y-205361780D01*
X273628086Y-205429557D01*
X273571150Y-205496867D01*
X273512053Y-205563656D01*
X273450862Y-205629865D01*
X273387646Y-205695441D01*
X273322474Y-205760325D01*
X273255415Y-205824463D01*
X273186538Y-205887797D01*
X273115912Y-205950273D01*
X273043605Y-206011833D01*
X272980533Y-206063644D01*
X272916320Y-206114673D01*
X272851003Y-206164894D01*
X272784621Y-206214280D01*
X272717212Y-206262805D01*
X272648812Y-206310442D01*
X272579461Y-206357166D01*
X272509196Y-206402950D01*
X272348627Y-206501985D01*
X272184235Y-206595631D01*
X272016464Y-206683461D01*
X271845757Y-206765050D01*
X271759440Y-206803370D01*
X271672555Y-206839970D01*
X271585158Y-206874797D01*
X271497303Y-206907798D01*
X271409046Y-206938918D01*
X271320442Y-206968105D01*
X271231547Y-206995305D01*
X271142416Y-207020466D01*
X271009320Y-207054866D01*
X270883396Y-207084238D01*
X270764487Y-207108716D01*
X270652436Y-207128437D01*
X270547083Y-207143538D01*
X270448272Y-207154156D01*
X270355844Y-207160426D01*
X270269642Y-207162486D01*
X270152881Y-207158066D01*
X270049021Y-207145100D01*
X269957560Y-207124031D01*
X269877996Y-207095304D01*
X269809827Y-207059361D01*
X269752550Y-207016645D01*
X269705662Y-206967601D01*
X269668661Y-206912670D01*
X269641046Y-206852296D01*
X269622313Y-206786923D01*
X269611960Y-206716993D01*
X269609486Y-206642951D01*
X269614386Y-206565238D01*
X269626160Y-206484299D01*
X269644305Y-206400577D01*
X269668317Y-206314514D01*
X269697696Y-206226555D01*
X269731939Y-206137142D01*
X269770543Y-206046719D01*
X269813006Y-205955728D01*
X269907499Y-205773819D01*
X270011399Y-205594961D01*
X270120688Y-205422698D01*
X270231346Y-205260579D01*
X270339354Y-205112147D01*
X270440694Y-204980950D01*
X270618573Y-204769915D01*
X270800905Y-204576195D01*
X270986694Y-204398436D01*
X271174940Y-204235283D01*
X271364646Y-204085380D01*
X271554813Y-203947374D01*
X271744443Y-203819909D01*
X271932538Y-203701632D01*
X272300130Y-203487220D01*
X272649603Y-203293300D01*
X272972971Y-203109035D01*
X273122370Y-203017137D01*
X273262249Y-202923588D01*
X273037282Y-202957228D01*
X272811069Y-203004620D01*
X272584150Y-203065382D01*
X272357066Y-203139128D01*
X272130359Y-203225475D01*
X271904570Y-203324040D01*
X271680238Y-203434439D01*
X271457907Y-203556289D01*
X271238115Y-203689204D01*
X271021405Y-203832803D01*
X270808318Y-203986701D01*
X270599394Y-204150514D01*
X270395174Y-204323858D01*
X270196199Y-204506351D01*
X270003011Y-204697608D01*
X269816150Y-204897246D01*
X269636157Y-205104880D01*
X269463574Y-205320128D01*
X269298941Y-205542605D01*
X269142799Y-205771928D01*
X268995690Y-206007713D01*
X268858154Y-206249577D01*
X268730731Y-206497135D01*
X268613965Y-206750004D01*
X268508394Y-207007801D01*
X268414560Y-207270141D01*
X268333005Y-207536641D01*
X268264269Y-207806917D01*
X268208893Y-208080586D01*
X268167418Y-208357263D01*
X268140385Y-208636566D01*
X268128336Y-208918110D01*
X268133068Y-209121972D01*
X268149558Y-209436194D01*
X268206305Y-210257648D01*
X268218726Y-210409852D01*
X268275566Y-211106333D01*
X268334334Y-211706110D01*
X267900117Y-211404372D01*
X267738100Y-209947127D01*
X268155119Y-209947127D01*
X268166727Y-210175727D01*
X268180635Y-210410375D01*
X268195000Y-210409852D01*
X268185007Y-210291263D01*
X268175891Y-210174831D01*
X268167630Y-210060190D01*
X268160205Y-209946977D01*
X268155119Y-209947127D01*
X267738100Y-209947127D01*
X267735288Y-209921835D01*
X267625104Y-209069928D01*
X267489611Y-208192343D01*
X267323712Y-207325140D01*
X267227767Y-206906700D01*
X267122309Y-206504377D01*
X267006700Y-206122680D01*
X266880305Y-205766116D01*
X266742484Y-205439193D01*
X266592603Y-205146417D01*
X266543615Y-205065359D01*
X266487373Y-204981455D01*
X266354221Y-204806444D01*
X266195341Y-204624060D01*
X266012928Y-204436980D01*
X265809180Y-204247877D01*
X265586291Y-204059430D01*
X265346456Y-203874312D01*
X265091872Y-203695201D01*
X264824733Y-203524772D01*
X264547237Y-203365701D01*
X264261577Y-203220664D01*
X264116372Y-203154244D01*
X263969950Y-203092336D01*
X263822585Y-203035274D01*
X263674551Y-202983393D01*
X263526123Y-202937028D01*
X263377576Y-202896512D01*
X263229184Y-202862181D01*
X263081221Y-202834368D01*
X262933961Y-202813409D01*
X262787680Y-202799637D01*
X264338017Y-203499894D01*
X264576475Y-203632536D01*
X264802549Y-203775983D01*
X265009544Y-203930471D01*
X265103795Y-204011927D01*
X265190767Y-204096232D01*
X265269623Y-204183414D01*
X265339526Y-204273503D01*
X265399640Y-204366527D01*
X265449127Y-204462516D01*
X265487151Y-204561500D01*
X265512876Y-204663508D01*
X265525465Y-204768568D01*
X265524081Y-204876711D01*
X265469597Y-204905495D01*
X265414450Y-204932121D01*
X265358680Y-204956630D01*
X265302324Y-204979064D01*
X265245420Y-204999465D01*
X265188007Y-205017873D01*
X265130122Y-205034331D01*
X265071804Y-205048880D01*
X265013090Y-205061562D01*
X264954019Y-205072418D01*
X264894629Y-205081490D01*
X264834957Y-205088819D01*
X264775042Y-205094447D01*
X264714921Y-205098416D01*
X264654634Y-205100766D01*
X264594217Y-205101541D01*
X264532590Y-205100744D01*
X264470920Y-205098385D01*
X264409247Y-205094511D01*
X264347609Y-205089166D01*
X264286046Y-205082398D01*
X264224598Y-205074253D01*
X264102202Y-205054014D01*
X263980735Y-205028818D01*
X263860513Y-204999036D01*
X263741851Y-204965036D01*
X263625063Y-204927188D01*
X263570422Y-204908020D01*
X263516309Y-204888145D01*
X263462773Y-204867556D01*
X263409863Y-204846247D01*
X263407630Y-204845338D01*
X263405411Y-204844408D01*
X263400955Y-204842513D01*
X263348185Y-204820144D01*
X263296087Y-204797180D01*
X263244719Y-204773641D01*
X263194138Y-204749550D01*
X263097987Y-204701169D01*
X263005124Y-204651193D01*
X262915822Y-204599903D01*
X262830351Y-204547579D01*
X262748984Y-204494503D01*
X262671993Y-204440955D01*
X262599650Y-204387216D01*
X262532225Y-204333568D01*
X262450286Y-204264568D01*
X262377803Y-204200482D01*
X262313611Y-204140339D01*
X262256544Y-204083167D01*
X262205437Y-204027994D01*
X262159123Y-203973849D01*
X262116437Y-203919761D01*
X262076212Y-203864757D01*
X262037284Y-203807867D01*
X261998486Y-203748119D01*
X261916617Y-203616162D01*
X261821279Y-203461115D01*
X261765645Y-203372504D01*
X261703146Y-203275206D01*
X261669502Y-203224791D01*
X261636495Y-203177849D01*
X261604069Y-203134186D01*
X261572172Y-203093608D01*
X261540749Y-203055923D01*
X261509746Y-203020936D01*
X261479110Y-202988454D01*
X261448785Y-202958285D01*
X261418717Y-202930234D01*
X261388854Y-202904109D01*
X261329522Y-202856862D01*
X261270355Y-202814997D01*
X261210922Y-202776966D01*
X260961862Y-202632258D01*
X260894602Y-202590201D01*
X260824479Y-202542699D01*
X260751059Y-202488204D01*
X260673911Y-202425171D01*
X260960308Y-202360596D01*
X261238228Y-202304589D01*
X261508034Y-202257161D01*
X261770087Y-202218328D01*
X262024750Y-202188101D01*
X262272385Y-202166495D01*
X262513354Y-202153521D01*
X262748019Y-202149194D01*
X262946444Y-202152485D01*
X263140619Y-202162351D01*
X263330787Y-202178777D01*
X263517188Y-202201752D01*
X263700065Y-202231261D01*
X263879657Y-202267291D01*
X264056207Y-202309830D01*
X264229956Y-202358865D01*
X264288868Y-202377180D01*
X264347492Y-202396282D01*
X264405835Y-202416166D01*
X264463905Y-202436828D01*
X264521712Y-202458264D01*
X264579266Y-202480469D01*
X264636576Y-202503438D01*
X264693652Y-202527169D01*
X264693651Y-202527170D01*
X264693648Y-202527169D01*
X264692898Y-202527915D01*
X264635824Y-202504242D01*
X264578506Y-202481326D01*
X264520939Y-202459172D01*
X264463114Y-202437781D01*
X264405022Y-202417157D01*
X264346655Y-202397302D01*
X264288004Y-202378219D01*
X264229059Y-202359910D01*
X264229170Y-202359795D01*
X264229282Y-202359674D01*
X264229394Y-202359547D01*
X264229506Y-202359416D01*
X264229730Y-202359144D01*
X264229956Y-202358865D01*
X264229951Y-202358864D01*
X264229726Y-202359143D01*
X264229613Y-202359280D01*
X264229501Y-202359415D01*
X264229389Y-202359546D01*
X264229277Y-202359673D01*
X264229166Y-202359794D01*
X264229054Y-202359909D01*
X264287998Y-202378218D01*
X264346648Y-202397301D01*
X264405015Y-202417156D01*
X264463106Y-202437780D01*
X264520931Y-202459171D01*
X264578499Y-202481325D01*
X264635818Y-202504241D01*
X264692897Y-202527915D01*
X264692902Y-202527916D01*
X264692900Y-202527915D01*
X264692902Y-202527915D01*
X264693651Y-202527170D01*
X264695360Y-202527916D01*
X264795167Y-202571486D01*
G37*
X252622214Y-209278986D02*
X252041934Y-209278986D01*
X252041934Y-206962821D01*
X249140765Y-206962821D01*
X249140765Y-209278986D01*
X248560486Y-209278986D01*
X248560486Y-206962821D01*
X249140765Y-206383835D01*
X252622214Y-206383835D01*
X252622214Y-209278986D01*
G36*
X252622214Y-209278986D02*
G01*
X252041934Y-209278986D01*
X252041934Y-206962821D01*
X249140765Y-206962821D01*
X249140765Y-209278986D01*
X248560486Y-209278986D01*
X248560486Y-206962821D01*
X249140765Y-206383835D01*
X252622214Y-206383835D01*
X252622214Y-209278986D01*
G37*
X263409854Y-204846246D02*
X263407618Y-204845337D01*
X263407621Y-204845337D01*
X263409854Y-204846246D01*
G36*
X263409854Y-204846246D02*
G01*
X263407618Y-204845337D01*
X263407621Y-204845337D01*
X263409854Y-204846246D01*
G37*
X263405402Y-204844407D02*
X263405398Y-204844407D01*
X263400947Y-204842513D01*
X263405402Y-204844407D01*
G36*
X263405402Y-204844407D02*
G01*
X263405398Y-204844407D01*
X263400947Y-204842513D01*
X263405402Y-204844407D01*
G37*
X287654800Y-206383835D02*
X288235080Y-206383835D01*
X288235080Y-206962821D01*
X287654800Y-206962821D01*
X287654800Y-208700000D01*
X287074597Y-209278986D01*
X284753555Y-209278986D01*
X284753555Y-208700000D01*
X287074597Y-208700000D01*
X287074597Y-206962821D01*
X285333834Y-206962821D01*
X285333834Y-206383835D01*
X287074597Y-206383835D01*
X287074597Y-205804850D01*
X287654800Y-205804850D01*
X287654800Y-206383835D01*
G36*
X287654800Y-206383835D02*
G01*
X288235080Y-206383835D01*
X288235080Y-206962821D01*
X287654800Y-206962821D01*
X287654800Y-208700000D01*
X287074597Y-209278986D01*
X284753555Y-209278986D01*
X284753555Y-208700000D01*
X287074597Y-208700000D01*
X287074597Y-206962821D01*
X285333834Y-206962821D01*
X285333834Y-206383835D01*
X287074597Y-206383835D01*
X287074597Y-205804850D01*
X287654800Y-205804850D01*
X287654800Y-206383835D01*
G37*
X247400000Y-206383835D02*
X247980280Y-206383835D01*
X247980280Y-206962821D01*
X247400000Y-206962821D01*
X247400000Y-208700000D01*
X246819725Y-209278986D01*
X244498758Y-209278986D01*
X244498758Y-208700000D01*
X246819725Y-208700000D01*
X246819725Y-206962821D01*
X245079037Y-206962821D01*
X245079037Y-206383835D01*
X246819725Y-206383835D01*
X246819725Y-205804850D01*
X247400000Y-205804850D01*
X247400000Y-206383835D01*
G36*
X247400000Y-206383835D02*
G01*
X247980280Y-206383835D01*
X247980280Y-206962821D01*
X247400000Y-206962821D01*
X247400000Y-208700000D01*
X246819725Y-209278986D01*
X244498758Y-209278986D01*
X244498758Y-208700000D01*
X246819725Y-208700000D01*
X246819725Y-206962821D01*
X245079037Y-206962821D01*
X245079037Y-206383835D01*
X246819725Y-206383835D01*
X246819725Y-205804850D01*
X247400000Y-205804850D01*
X247400000Y-206383835D01*
G37*
X268754876Y-200538607D02*
X268978821Y-200573116D01*
X269199358Y-200617523D01*
X269416256Y-200671588D01*
X269629283Y-200735070D01*
X269838207Y-200807729D01*
X270042798Y-200889326D01*
X270242822Y-200979620D01*
X270438049Y-201078372D01*
X270628247Y-201185340D01*
X270813185Y-201300286D01*
X270992631Y-201422968D01*
X271166352Y-201553147D01*
X271334119Y-201690583D01*
X271495698Y-201835036D01*
X271650859Y-201986265D01*
X271523342Y-202025251D01*
X271398441Y-202065862D01*
X271275911Y-202107985D01*
X271155508Y-202151508D01*
X271020780Y-202032363D01*
X270881364Y-201918565D01*
X270737422Y-201810280D01*
X270589115Y-201707675D01*
X270436605Y-201610915D01*
X270280053Y-201520167D01*
X270119621Y-201435597D01*
X269955470Y-201357372D01*
X269787761Y-201285658D01*
X269616657Y-201220622D01*
X269442318Y-201162429D01*
X269264905Y-201111247D01*
X269084582Y-201067241D01*
X268901508Y-201030579D01*
X268715845Y-201001425D01*
X268527755Y-200979947D01*
X268527755Y-200514235D01*
X268754876Y-200538607D01*
G36*
X268754876Y-200538607D02*
G01*
X268978821Y-200573116D01*
X269199358Y-200617523D01*
X269416256Y-200671588D01*
X269629283Y-200735070D01*
X269838207Y-200807729D01*
X270042798Y-200889326D01*
X270242822Y-200979620D01*
X270438049Y-201078372D01*
X270628247Y-201185340D01*
X270813185Y-201300286D01*
X270992631Y-201422968D01*
X271166352Y-201553147D01*
X271334119Y-201690583D01*
X271495698Y-201835036D01*
X271650859Y-201986265D01*
X271523342Y-202025251D01*
X271398441Y-202065862D01*
X271275911Y-202107985D01*
X271155508Y-202151508D01*
X271020780Y-202032363D01*
X270881364Y-201918565D01*
X270737422Y-201810280D01*
X270589115Y-201707675D01*
X270436605Y-201610915D01*
X270280053Y-201520167D01*
X270119621Y-201435597D01*
X269955470Y-201357372D01*
X269787761Y-201285658D01*
X269616657Y-201220622D01*
X269442318Y-201162429D01*
X269264905Y-201111247D01*
X269084582Y-201067241D01*
X268901508Y-201030579D01*
X268715845Y-201001425D01*
X268527755Y-200979947D01*
X268527755Y-200514235D01*
X268754876Y-200538607D01*
G37*
X256683937Y-209278986D02*
X253782690Y-209278986D01*
X253202484Y-208700000D01*
X253202484Y-206962821D01*
X253782690Y-206962821D01*
X253782690Y-208700000D01*
X256683937Y-208700000D01*
X256683937Y-206962821D01*
X253782690Y-206962821D01*
X253202484Y-206962821D01*
X253782690Y-206383835D01*
X256683937Y-206383835D01*
X257264217Y-206962821D01*
X257264217Y-208700000D01*
X256683937Y-209278986D01*
G36*
X256683937Y-209278986D02*
G01*
X253782690Y-209278986D01*
X253202484Y-208700000D01*
X253202484Y-206962821D01*
X253782690Y-206962821D01*
X253782690Y-208700000D01*
X256683937Y-208700000D01*
X256683937Y-206962821D01*
X253782690Y-206962821D01*
X253202484Y-206962821D01*
X253782690Y-206383835D01*
X256683937Y-206383835D01*
X257264217Y-206962821D01*
X257264217Y-208700000D01*
X256683937Y-209278986D01*
G37*
X272912639Y-206709347D02*
X272858285Y-206900553D01*
X272796528Y-207088555D01*
X272727537Y-207273183D01*
X272651479Y-207454270D01*
X272568523Y-207631647D01*
X272478839Y-207805147D01*
X272382595Y-207974601D01*
X272279959Y-208139842D01*
X272171101Y-208300700D01*
X272056189Y-208457009D01*
X271935392Y-208608599D01*
X271808879Y-208755303D01*
X271676817Y-208896952D01*
X271539377Y-209033379D01*
X271396727Y-209164415D01*
X271249035Y-209289892D01*
X271096470Y-209409642D01*
X270939201Y-209523498D01*
X270777396Y-209631290D01*
X270611225Y-209732850D01*
X270440856Y-209828011D01*
X270266457Y-209916605D01*
X270088198Y-209998462D01*
X269906248Y-210073416D01*
X269720774Y-210141298D01*
X269531945Y-210201940D01*
X269339931Y-210255173D01*
X269144900Y-210300830D01*
X268947021Y-210338742D01*
X268746462Y-210368742D01*
X268543392Y-210390661D01*
X268533485Y-210272972D01*
X268524404Y-210157012D01*
X268516138Y-210042438D01*
X268508673Y-209928907D01*
X268843360Y-209886606D01*
X269169992Y-209820247D01*
X269487638Y-209730762D01*
X269795363Y-209619083D01*
X270092233Y-209486145D01*
X270377315Y-209332878D01*
X270649677Y-209160215D01*
X270908383Y-208969090D01*
X271152500Y-208760434D01*
X271381096Y-208535181D01*
X271593236Y-208294262D01*
X271787987Y-208038611D01*
X271964415Y-207769159D01*
X272121587Y-207486840D01*
X272258569Y-207192586D01*
X272374428Y-206887330D01*
X272450139Y-206844657D01*
X272525169Y-206800787D01*
X272599489Y-206755767D01*
X272673069Y-206709645D01*
X272745882Y-206662470D01*
X272817897Y-206614289D01*
X272889086Y-206565151D01*
X272959420Y-206515104D01*
X272912639Y-206709347D01*
G36*
X272912639Y-206709347D02*
G01*
X272858285Y-206900553D01*
X272796528Y-207088555D01*
X272727537Y-207273183D01*
X272651479Y-207454270D01*
X272568523Y-207631647D01*
X272478839Y-207805147D01*
X272382595Y-207974601D01*
X272279959Y-208139842D01*
X272171101Y-208300700D01*
X272056189Y-208457009D01*
X271935392Y-208608599D01*
X271808879Y-208755303D01*
X271676817Y-208896952D01*
X271539377Y-209033379D01*
X271396727Y-209164415D01*
X271249035Y-209289892D01*
X271096470Y-209409642D01*
X270939201Y-209523498D01*
X270777396Y-209631290D01*
X270611225Y-209732850D01*
X270440856Y-209828011D01*
X270266457Y-209916605D01*
X270088198Y-209998462D01*
X269906248Y-210073416D01*
X269720774Y-210141298D01*
X269531945Y-210201940D01*
X269339931Y-210255173D01*
X269144900Y-210300830D01*
X268947021Y-210338742D01*
X268746462Y-210368742D01*
X268543392Y-210390661D01*
X268533485Y-210272972D01*
X268524404Y-210157012D01*
X268516138Y-210042438D01*
X268508673Y-209928907D01*
X268843360Y-209886606D01*
X269169992Y-209820247D01*
X269487638Y-209730762D01*
X269795363Y-209619083D01*
X270092233Y-209486145D01*
X270377315Y-209332878D01*
X270649677Y-209160215D01*
X270908383Y-208969090D01*
X271152500Y-208760434D01*
X271381096Y-208535181D01*
X271593236Y-208294262D01*
X271787987Y-208038611D01*
X271964415Y-207769159D01*
X272121587Y-207486840D01*
X272258569Y-207192586D01*
X272374428Y-206887330D01*
X272450139Y-206844657D01*
X272525169Y-206800787D01*
X272599489Y-206755767D01*
X272673069Y-206709645D01*
X272745882Y-206662470D01*
X272817897Y-206614289D01*
X272889086Y-206565151D01*
X272959420Y-206515104D01*
X272912639Y-206709347D01*
G37*
X235214821Y-208700000D02*
X234634546Y-209278986D01*
X234054340Y-209278986D01*
X234054340Y-208700000D01*
X234634546Y-208700000D01*
X234634546Y-205225790D01*
X235214821Y-205225790D01*
X235214821Y-208700000D01*
G36*
X235214821Y-208700000D02*
G01*
X234634546Y-209278986D01*
X234054340Y-209278986D01*
X234054340Y-208700000D01*
X234634546Y-208700000D01*
X234634546Y-205225790D01*
X235214821Y-205225790D01*
X235214821Y-208700000D01*
G37*
X263462766Y-204867556D02*
X263516304Y-204888145D01*
X263570416Y-204908020D01*
X263625053Y-204927188D01*
X263570413Y-204908030D01*
X263516300Y-204888173D01*
X263462764Y-204867587D01*
X263409855Y-204846247D01*
X263462766Y-204867556D01*
G36*
X263462766Y-204867556D02*
G01*
X263516304Y-204888145D01*
X263570416Y-204908020D01*
X263625053Y-204927188D01*
X263570413Y-204908030D01*
X263516300Y-204888173D01*
X263462764Y-204867587D01*
X263409855Y-204846247D01*
X263462766Y-204867556D01*
G37*
X233474069Y-206962821D02*
X233474069Y-207541881D01*
X232893863Y-208120866D01*
X229992621Y-208120866D01*
X229992621Y-208700000D01*
X233474065Y-208700000D01*
X233474065Y-209278986D01*
X229992621Y-209278986D01*
X229412341Y-208700000D01*
X229412341Y-208120866D01*
X229992621Y-207541881D01*
X232893863Y-207541881D01*
X232893863Y-206962821D01*
X230572823Y-206962821D01*
X230572823Y-206383836D01*
X232893863Y-206383836D01*
X233474069Y-206962821D01*
G36*
X233474069Y-206962821D02*
G01*
X233474069Y-207541881D01*
X232893863Y-208120866D01*
X229992621Y-208120866D01*
X229992621Y-208700000D01*
X233474065Y-208700000D01*
X233474065Y-209278986D01*
X229992621Y-209278986D01*
X229412341Y-208700000D01*
X229412341Y-208120866D01*
X229992621Y-207541881D01*
X232893863Y-207541881D01*
X232893863Y-206962821D01*
X230572823Y-206962821D01*
X230572823Y-206383836D01*
X232893863Y-206383836D01*
X233474069Y-206962821D01*
G37*
X261325940Y-206962821D02*
X261325940Y-208700000D01*
X260745660Y-209278986D01*
X257844418Y-209278986D01*
X257844418Y-208700000D01*
X260745660Y-208700000D01*
X260745660Y-206962821D01*
X257844418Y-206962821D01*
X257844418Y-206383835D01*
X260745660Y-206383835D01*
X261325940Y-206962821D01*
G36*
X261325940Y-206962821D02*
G01*
X261325940Y-208700000D01*
X260745660Y-209278986D01*
X257844418Y-209278986D01*
X257844418Y-208700000D01*
X260745660Y-208700000D01*
X260745660Y-206962821D01*
X257844418Y-206962821D01*
X257844418Y-206383835D01*
X260745660Y-206383835D01*
X261325940Y-206962821D01*
G37*
X263206548Y-205136847D02*
X263262354Y-205160535D01*
X263318792Y-205183545D01*
X263375829Y-205205844D01*
X263433434Y-205227397D01*
X263491576Y-205248171D01*
X263550222Y-205268130D01*
X263609343Y-205287242D01*
X263605879Y-205370564D01*
X263604604Y-205412333D01*
X263604235Y-205433279D01*
X263604102Y-205454277D01*
X263608864Y-205662275D01*
X263623014Y-205867863D01*
X263646341Y-206070837D01*
X263678639Y-206270988D01*
X263719700Y-206468109D01*
X263769314Y-206661993D01*
X263827275Y-206852434D01*
X263893373Y-207039223D01*
X263967401Y-207222154D01*
X264049151Y-207401020D01*
X264138414Y-207575613D01*
X264234983Y-207745727D01*
X264338649Y-207911154D01*
X264449204Y-208071687D01*
X264566441Y-208227119D01*
X264690150Y-208377243D01*
X264820124Y-208521851D01*
X264956155Y-208660737D01*
X265098034Y-208793693D01*
X265245554Y-208920513D01*
X265398506Y-209040989D01*
X265556682Y-209154914D01*
X265719875Y-209262080D01*
X265887875Y-209362282D01*
X266060476Y-209455311D01*
X266237468Y-209540960D01*
X266418643Y-209619023D01*
X266603795Y-209689292D01*
X266792713Y-209751560D01*
X266985191Y-209805620D01*
X267181021Y-209851265D01*
X267379993Y-209888287D01*
X267408780Y-210130140D01*
X267435886Y-210365722D01*
X267210390Y-210329860D01*
X266988354Y-210283995D01*
X266770020Y-210228369D01*
X266555631Y-210163222D01*
X266345430Y-210088797D01*
X266139659Y-210005335D01*
X265938561Y-209913077D01*
X265742377Y-209812264D01*
X265551352Y-209703139D01*
X265365727Y-209585943D01*
X265185744Y-209460916D01*
X265011648Y-209328302D01*
X264843679Y-209188340D01*
X264682081Y-209041273D01*
X264527095Y-208887342D01*
X264378966Y-208726788D01*
X264237935Y-208559853D01*
X264104245Y-208386778D01*
X263978138Y-208207805D01*
X263859857Y-208023175D01*
X263749645Y-207833130D01*
X263647744Y-207637911D01*
X263554396Y-207437760D01*
X263469845Y-207232918D01*
X263394332Y-207023626D01*
X263328101Y-206810126D01*
X263271394Y-206592659D01*
X263224453Y-206371467D01*
X263187521Y-206146792D01*
X263160841Y-205918874D01*
X263144655Y-205687955D01*
X263139206Y-205454277D01*
X263139996Y-205368305D01*
X263142331Y-205282669D01*
X263146152Y-205197397D01*
X263151405Y-205112516D01*
X263206548Y-205136847D01*
G36*
X263206548Y-205136847D02*
G01*
X263262354Y-205160535D01*
X263318792Y-205183545D01*
X263375829Y-205205844D01*
X263433434Y-205227397D01*
X263491576Y-205248171D01*
X263550222Y-205268130D01*
X263609343Y-205287242D01*
X263605879Y-205370564D01*
X263604604Y-205412333D01*
X263604235Y-205433279D01*
X263604102Y-205454277D01*
X263608864Y-205662275D01*
X263623014Y-205867863D01*
X263646341Y-206070837D01*
X263678639Y-206270988D01*
X263719700Y-206468109D01*
X263769314Y-206661993D01*
X263827275Y-206852434D01*
X263893373Y-207039223D01*
X263967401Y-207222154D01*
X264049151Y-207401020D01*
X264138414Y-207575613D01*
X264234983Y-207745727D01*
X264338649Y-207911154D01*
X264449204Y-208071687D01*
X264566441Y-208227119D01*
X264690150Y-208377243D01*
X264820124Y-208521851D01*
X264956155Y-208660737D01*
X265098034Y-208793693D01*
X265245554Y-208920513D01*
X265398506Y-209040989D01*
X265556682Y-209154914D01*
X265719875Y-209262080D01*
X265887875Y-209362282D01*
X266060476Y-209455311D01*
X266237468Y-209540960D01*
X266418643Y-209619023D01*
X266603795Y-209689292D01*
X266792713Y-209751560D01*
X266985191Y-209805620D01*
X267181021Y-209851265D01*
X267379993Y-209888287D01*
X267408780Y-210130140D01*
X267435886Y-210365722D01*
X267210390Y-210329860D01*
X266988354Y-210283995D01*
X266770020Y-210228369D01*
X266555631Y-210163222D01*
X266345430Y-210088797D01*
X266139659Y-210005335D01*
X265938561Y-209913077D01*
X265742377Y-209812264D01*
X265551352Y-209703139D01*
X265365727Y-209585943D01*
X265185744Y-209460916D01*
X265011648Y-209328302D01*
X264843679Y-209188340D01*
X264682081Y-209041273D01*
X264527095Y-208887342D01*
X264378966Y-208726788D01*
X264237935Y-208559853D01*
X264104245Y-208386778D01*
X263978138Y-208207805D01*
X263859857Y-208023175D01*
X263749645Y-207833130D01*
X263647744Y-207637911D01*
X263554396Y-207437760D01*
X263469845Y-207232918D01*
X263394332Y-207023626D01*
X263328101Y-206810126D01*
X263271394Y-206592659D01*
X263224453Y-206371467D01*
X263187521Y-206146792D01*
X263160841Y-205918874D01*
X263144655Y-205687955D01*
X263139206Y-205454277D01*
X263139996Y-205368305D01*
X263142331Y-205282669D01*
X263146152Y-205197397D01*
X263151405Y-205112516D01*
X263206548Y-205136847D01*
G37*
X296938735Y-209278986D02*
X293457286Y-209278986D01*
X293457286Y-208120866D01*
X294037566Y-208120866D01*
X294037566Y-208700000D01*
X296938735Y-208700000D01*
X296938735Y-208120866D01*
X294037566Y-208120866D01*
X293457286Y-208120866D01*
X293457286Y-206962821D01*
X294037566Y-206383836D01*
X296358531Y-206383836D01*
X296358531Y-206962821D01*
X294037566Y-206962821D01*
X294037566Y-207541881D01*
X296938735Y-207541881D01*
X297519088Y-208120866D01*
X297519088Y-208700000D01*
X296938735Y-209278986D01*
G36*
X296938735Y-209278986D02*
G01*
X293457286Y-209278986D01*
X293457286Y-208120866D01*
X294037566Y-208120866D01*
X294037566Y-208700000D01*
X296938735Y-208700000D01*
X296938735Y-208120866D01*
X294037566Y-208120866D01*
X293457286Y-208120866D01*
X293457286Y-206962821D01*
X294037566Y-206383836D01*
X296358531Y-206383836D01*
X296358531Y-206962821D01*
X294037566Y-206962821D01*
X294037566Y-207541881D01*
X296938735Y-207541881D01*
X297519088Y-208120866D01*
X297519088Y-208700000D01*
X296938735Y-209278986D01*
G37*
X278951144Y-209278986D02*
X275469622Y-209278986D01*
X275469622Y-208120866D01*
X276049899Y-208120866D01*
X276049899Y-208700000D01*
X278951144Y-208700000D01*
X278951144Y-208120866D01*
X276049899Y-208120866D01*
X275469622Y-208120866D01*
X275469622Y-206962821D01*
X276049899Y-206383836D01*
X278370866Y-206383836D01*
X278370866Y-206962821D01*
X276049899Y-206962821D01*
X276049899Y-207541881D01*
X278951144Y-207541881D01*
X279531348Y-208120866D01*
X279531348Y-208700000D01*
X278951144Y-209278986D01*
G36*
X278951144Y-209278986D02*
G01*
X275469622Y-209278986D01*
X275469622Y-208120866D01*
X276049899Y-208120866D01*
X276049899Y-208700000D01*
X278951144Y-208700000D01*
X278951144Y-208120866D01*
X276049899Y-208120866D01*
X275469622Y-208120866D01*
X275469622Y-206962821D01*
X276049899Y-206383836D01*
X278370866Y-206383836D01*
X278370866Y-206962821D01*
X276049899Y-206962821D01*
X276049899Y-207541881D01*
X278951144Y-207541881D01*
X279531348Y-208120866D01*
X279531348Y-208700000D01*
X278951144Y-209278986D01*
G37*
X267687381Y-200979947D02*
X267489148Y-201002796D01*
X267293616Y-201034166D01*
X267100976Y-201073864D01*
X266911417Y-201121694D01*
X266725129Y-201177461D01*
X266542303Y-201240969D01*
X266363127Y-201312025D01*
X266187793Y-201390432D01*
X266016490Y-201475996D01*
X265849407Y-201568522D01*
X265686736Y-201667815D01*
X265528665Y-201773680D01*
X265375386Y-201885922D01*
X265227087Y-202004345D01*
X265083959Y-202128755D01*
X264946191Y-202258957D01*
X264888345Y-202233182D01*
X264830354Y-202208167D01*
X264772214Y-202183916D01*
X264713920Y-202160430D01*
X264655469Y-202137715D01*
X264596856Y-202115774D01*
X264538077Y-202094609D01*
X264479126Y-202074225D01*
X264636016Y-201913927D01*
X264799930Y-201760765D01*
X264970610Y-201615004D01*
X265147797Y-201476909D01*
X265331232Y-201346747D01*
X265520656Y-201224781D01*
X265715811Y-201111277D01*
X265916438Y-201006501D01*
X266122278Y-200910718D01*
X266333072Y-200824192D01*
X266548561Y-200747190D01*
X266768487Y-200679976D01*
X266992591Y-200622816D01*
X267220614Y-200575975D01*
X267452297Y-200539717D01*
X267687381Y-200514309D01*
X267687381Y-200979947D01*
G36*
X267687381Y-200979947D02*
G01*
X267489148Y-201002796D01*
X267293616Y-201034166D01*
X267100976Y-201073864D01*
X266911417Y-201121694D01*
X266725129Y-201177461D01*
X266542303Y-201240969D01*
X266363127Y-201312025D01*
X266187793Y-201390432D01*
X266016490Y-201475996D01*
X265849407Y-201568522D01*
X265686736Y-201667815D01*
X265528665Y-201773680D01*
X265375386Y-201885922D01*
X265227087Y-202004345D01*
X265083959Y-202128755D01*
X264946191Y-202258957D01*
X264888345Y-202233182D01*
X264830354Y-202208167D01*
X264772214Y-202183916D01*
X264713920Y-202160430D01*
X264655469Y-202137715D01*
X264596856Y-202115774D01*
X264538077Y-202094609D01*
X264479126Y-202074225D01*
X264636016Y-201913927D01*
X264799930Y-201760765D01*
X264970610Y-201615004D01*
X265147797Y-201476909D01*
X265331232Y-201346747D01*
X265520656Y-201224781D01*
X265715811Y-201111277D01*
X265916438Y-201006501D01*
X266122278Y-200910718D01*
X266333072Y-200824192D01*
X266548561Y-200747190D01*
X266768487Y-200679976D01*
X266992591Y-200622816D01*
X267220614Y-200575975D01*
X267452297Y-200539717D01*
X267687381Y-200514309D01*
X267687381Y-200979947D01*
G37*
X239276549Y-209278986D02*
X236375380Y-209278986D01*
X235795100Y-208700000D01*
X235795100Y-206962821D01*
X236375380Y-206962821D01*
X236375380Y-208700000D01*
X239276549Y-208700000D01*
X239276549Y-206962821D01*
X236375380Y-206962821D01*
X235795100Y-206962821D01*
X236375380Y-206383835D01*
X239276549Y-206383835D01*
X239856755Y-206962821D01*
X239856755Y-208700000D01*
X239276549Y-209278986D01*
G36*
X239276549Y-209278986D02*
G01*
X236375380Y-209278986D01*
X235795100Y-208700000D01*
X235795100Y-206962821D01*
X236375380Y-206962821D01*
X236375380Y-208700000D01*
X239276549Y-208700000D01*
X239276549Y-206962821D01*
X236375380Y-206962821D01*
X235795100Y-206962821D01*
X236375380Y-206383835D01*
X239276549Y-206383835D01*
X239856755Y-206962821D01*
X239856755Y-208700000D01*
X239276549Y-209278986D01*
G37*
X306802948Y-206962821D02*
X306802948Y-207541881D01*
X306222744Y-208120866D01*
X303321501Y-208120866D01*
X303321501Y-208700000D01*
X306802948Y-208700000D01*
X306802948Y-209278986D01*
X303321501Y-209278986D01*
X302741222Y-208700000D01*
X302741222Y-208120866D01*
X303321501Y-207541881D01*
X306222744Y-207541881D01*
X306222744Y-206962821D01*
X303901704Y-206962821D01*
X303901704Y-206383836D01*
X306222744Y-206383836D01*
X306802948Y-206962821D01*
G36*
X306802948Y-206962821D02*
G01*
X306802948Y-207541881D01*
X306222744Y-208120866D01*
X303321501Y-208120866D01*
X303321501Y-208700000D01*
X306802948Y-208700000D01*
X306802948Y-209278986D01*
X303321501Y-209278986D01*
X302741222Y-208700000D01*
X302741222Y-208120866D01*
X303321501Y-207541881D01*
X306222744Y-207541881D01*
X306222744Y-206962821D01*
X303901704Y-206962821D01*
X303901704Y-206383836D01*
X306222744Y-206383836D01*
X306802948Y-206962821D01*
G37*
X243918556Y-206962821D02*
X243918556Y-209278986D01*
X243338277Y-209278986D01*
X243338277Y-206962821D01*
X240437035Y-206962821D01*
X240437035Y-206383835D01*
X243338277Y-206383835D01*
X243918556Y-206962821D01*
G36*
X243918556Y-206962821D02*
G01*
X243918556Y-209278986D01*
X243338277Y-209278986D01*
X243338277Y-206962821D01*
X240437035Y-206962821D01*
X240437035Y-206383835D01*
X243338277Y-206383835D01*
X243918556Y-206962821D01*
G37*
D11*
X528239160Y-182155704D02*
X528239160Y-181508085D01*
X528239160Y-181508085D02*
X528277255Y-181431895D01*
X528277255Y-181431895D02*
X528315350Y-181393800D01*
X528315350Y-181393800D02*
X528391541Y-181355704D01*
X528391541Y-181355704D02*
X528543922Y-181355704D01*
X528543922Y-181355704D02*
X528620112Y-181393800D01*
X528620112Y-181393800D02*
X528658207Y-181431895D01*
X528658207Y-181431895D02*
X528696303Y-181508085D01*
X528696303Y-181508085D02*
X528696303Y-182155704D01*
X529039159Y-181393800D02*
X529153445Y-181355704D01*
X529153445Y-181355704D02*
X529343921Y-181355704D01*
X529343921Y-181355704D02*
X529420112Y-181393800D01*
X529420112Y-181393800D02*
X529458207Y-181431895D01*
X529458207Y-181431895D02*
X529496302Y-181508085D01*
X529496302Y-181508085D02*
X529496302Y-181584276D01*
X529496302Y-181584276D02*
X529458207Y-181660466D01*
X529458207Y-181660466D02*
X529420112Y-181698561D01*
X529420112Y-181698561D02*
X529343921Y-181736657D01*
X529343921Y-181736657D02*
X529191540Y-181774752D01*
X529191540Y-181774752D02*
X529115350Y-181812847D01*
X529115350Y-181812847D02*
X529077255Y-181850942D01*
X529077255Y-181850942D02*
X529039159Y-181927133D01*
X529039159Y-181927133D02*
X529039159Y-182003323D01*
X529039159Y-182003323D02*
X529077255Y-182079514D01*
X529077255Y-182079514D02*
X529115350Y-182117609D01*
X529115350Y-182117609D02*
X529191540Y-182155704D01*
X529191540Y-182155704D02*
X529382017Y-182155704D01*
X529382017Y-182155704D02*
X529496302Y-182117609D01*
X530105826Y-181774752D02*
X530220112Y-181736657D01*
X530220112Y-181736657D02*
X530258207Y-181698561D01*
X530258207Y-181698561D02*
X530296303Y-181622371D01*
X530296303Y-181622371D02*
X530296303Y-181508085D01*
X530296303Y-181508085D02*
X530258207Y-181431895D01*
X530258207Y-181431895D02*
X530220112Y-181393800D01*
X530220112Y-181393800D02*
X530143922Y-181355704D01*
X530143922Y-181355704D02*
X529839160Y-181355704D01*
X529839160Y-181355704D02*
X529839160Y-182155704D01*
X529839160Y-182155704D02*
X530105826Y-182155704D01*
X530105826Y-182155704D02*
X530182017Y-182117609D01*
X530182017Y-182117609D02*
X530220112Y-182079514D01*
X530220112Y-182079514D02*
X530258207Y-182003323D01*
X530258207Y-182003323D02*
X530258207Y-181927133D01*
X530258207Y-181927133D02*
X530220112Y-181850942D01*
X530220112Y-181850942D02*
X530182017Y-181812847D01*
X530182017Y-181812847D02*
X530105826Y-181774752D01*
X530105826Y-181774752D02*
X529839160Y-181774752D01*
X491422494Y-181925247D02*
X491308208Y-181963342D01*
X491308208Y-181963342D02*
X491270113Y-182001438D01*
X491270113Y-182001438D02*
X491232017Y-182077628D01*
X491232017Y-182077628D02*
X491232017Y-182191914D01*
X491232017Y-182191914D02*
X491270113Y-182268104D01*
X491270113Y-182268104D02*
X491308208Y-182306200D01*
X491308208Y-182306200D02*
X491384398Y-182344295D01*
X491384398Y-182344295D02*
X491689160Y-182344295D01*
X491689160Y-182344295D02*
X491689160Y-181544295D01*
X491689160Y-181544295D02*
X491422494Y-181544295D01*
X491422494Y-181544295D02*
X491346303Y-181582390D01*
X491346303Y-181582390D02*
X491308208Y-181620485D01*
X491308208Y-181620485D02*
X491270113Y-181696676D01*
X491270113Y-181696676D02*
X491270113Y-181772866D01*
X491270113Y-181772866D02*
X491308208Y-181849057D01*
X491308208Y-181849057D02*
X491346303Y-181887152D01*
X491346303Y-181887152D02*
X491422494Y-181925247D01*
X491422494Y-181925247D02*
X491689160Y-181925247D01*
X491003446Y-181544295D02*
X490546303Y-181544295D01*
X490774875Y-182344295D02*
X490774875Y-181544295D01*
X490279636Y-182344295D02*
X490279636Y-181544295D01*
X490279636Y-181544295D02*
X489822493Y-182344295D01*
X489822493Y-182344295D02*
X489822493Y-181544295D01*
X489479637Y-182306200D02*
X489365351Y-182344295D01*
X489365351Y-182344295D02*
X489174875Y-182344295D01*
X489174875Y-182344295D02*
X489098684Y-182306200D01*
X489098684Y-182306200D02*
X489060589Y-182268104D01*
X489060589Y-182268104D02*
X489022494Y-182191914D01*
X489022494Y-182191914D02*
X489022494Y-182115723D01*
X489022494Y-182115723D02*
X489060589Y-182039533D01*
X489060589Y-182039533D02*
X489098684Y-182001438D01*
X489098684Y-182001438D02*
X489174875Y-181963342D01*
X489174875Y-181963342D02*
X489327256Y-181925247D01*
X489327256Y-181925247D02*
X489403446Y-181887152D01*
X489403446Y-181887152D02*
X489441541Y-181849057D01*
X489441541Y-181849057D02*
X489479637Y-181772866D01*
X489479637Y-181772866D02*
X489479637Y-181696676D01*
X489479637Y-181696676D02*
X489441541Y-181620485D01*
X489441541Y-181620485D02*
X489403446Y-181582390D01*
X489403446Y-181582390D02*
X489327256Y-181544295D01*
X489327256Y-181544295D02*
X489136779Y-181544295D01*
X489136779Y-181544295D02*
X489022494Y-181582390D01*
X488108208Y-181506200D02*
X488793922Y-182534771D01*
X487460589Y-182344295D02*
X487841541Y-182344295D01*
X487841541Y-182344295D02*
X487841541Y-181544295D01*
X487193922Y-181925247D02*
X486927256Y-181925247D01*
X486812970Y-182344295D02*
X487193922Y-182344295D01*
X487193922Y-182344295D02*
X487193922Y-181544295D01*
X487193922Y-181544295D02*
X486812970Y-181544295D01*
X486470112Y-182344295D02*
X486470112Y-181544295D01*
X486470112Y-181544295D02*
X486279636Y-181544295D01*
X486279636Y-181544295D02*
X486165350Y-181582390D01*
X486165350Y-181582390D02*
X486089160Y-181658580D01*
X486089160Y-181658580D02*
X486051065Y-181734771D01*
X486051065Y-181734771D02*
X486012969Y-181887152D01*
X486012969Y-181887152D02*
X486012969Y-182001438D01*
X486012969Y-182001438D02*
X486051065Y-182153819D01*
X486051065Y-182153819D02*
X486089160Y-182230009D01*
X486089160Y-182230009D02*
X486165350Y-182306200D01*
X486165350Y-182306200D02*
X486279636Y-182344295D01*
X486279636Y-182344295D02*
X486470112Y-182344295D01*
X485708208Y-182306200D02*
X485593922Y-182344295D01*
X485593922Y-182344295D02*
X485403446Y-182344295D01*
X485403446Y-182344295D02*
X485327255Y-182306200D01*
X485327255Y-182306200D02*
X485289160Y-182268104D01*
X485289160Y-182268104D02*
X485251065Y-182191914D01*
X485251065Y-182191914D02*
X485251065Y-182115723D01*
X485251065Y-182115723D02*
X485289160Y-182039533D01*
X485289160Y-182039533D02*
X485327255Y-182001438D01*
X485327255Y-182001438D02*
X485403446Y-181963342D01*
X485403446Y-181963342D02*
X485555827Y-181925247D01*
X485555827Y-181925247D02*
X485632017Y-181887152D01*
X485632017Y-181887152D02*
X485670112Y-181849057D01*
X485670112Y-181849057D02*
X485708208Y-181772866D01*
X485708208Y-181772866D02*
X485708208Y-181696676D01*
X485708208Y-181696676D02*
X485670112Y-181620485D01*
X485670112Y-181620485D02*
X485632017Y-181582390D01*
X485632017Y-181582390D02*
X485555827Y-181544295D01*
X485555827Y-181544295D02*
X485365350Y-181544295D01*
X485365350Y-181544295D02*
X485251065Y-181582390D01*
X487917731Y-197394295D02*
X487917731Y-196594295D01*
X487917731Y-196594295D02*
X487612969Y-196594295D01*
X487612969Y-196594295D02*
X487536779Y-196632390D01*
X487536779Y-196632390D02*
X487498684Y-196670485D01*
X487498684Y-196670485D02*
X487460588Y-196746676D01*
X487460588Y-196746676D02*
X487460588Y-196860961D01*
X487460588Y-196860961D02*
X487498684Y-196937152D01*
X487498684Y-196937152D02*
X487536779Y-196975247D01*
X487536779Y-196975247D02*
X487612969Y-197013342D01*
X487612969Y-197013342D02*
X487917731Y-197013342D01*
X486965350Y-196594295D02*
X486812969Y-196594295D01*
X486812969Y-196594295D02*
X486736779Y-196632390D01*
X486736779Y-196632390D02*
X486660588Y-196708580D01*
X486660588Y-196708580D02*
X486622493Y-196860961D01*
X486622493Y-196860961D02*
X486622493Y-197127628D01*
X486622493Y-197127628D02*
X486660588Y-197280009D01*
X486660588Y-197280009D02*
X486736779Y-197356200D01*
X486736779Y-197356200D02*
X486812969Y-197394295D01*
X486812969Y-197394295D02*
X486965350Y-197394295D01*
X486965350Y-197394295D02*
X487041541Y-197356200D01*
X487041541Y-197356200D02*
X487117731Y-197280009D01*
X487117731Y-197280009D02*
X487155827Y-197127628D01*
X487155827Y-197127628D02*
X487155827Y-196860961D01*
X487155827Y-196860961D02*
X487117731Y-196708580D01*
X487117731Y-196708580D02*
X487041541Y-196632390D01*
X487041541Y-196632390D02*
X486965350Y-196594295D01*
X486393922Y-196594295D02*
X485936779Y-196594295D01*
X486165351Y-197394295D02*
X486165351Y-196594295D01*
X485708208Y-197356200D02*
X485593922Y-197394295D01*
X485593922Y-197394295D02*
X485403446Y-197394295D01*
X485403446Y-197394295D02*
X485327255Y-197356200D01*
X485327255Y-197356200D02*
X485289160Y-197318104D01*
X485289160Y-197318104D02*
X485251065Y-197241914D01*
X485251065Y-197241914D02*
X485251065Y-197165723D01*
X485251065Y-197165723D02*
X485289160Y-197089533D01*
X485289160Y-197089533D02*
X485327255Y-197051438D01*
X485327255Y-197051438D02*
X485403446Y-197013342D01*
X485403446Y-197013342D02*
X485555827Y-196975247D01*
X485555827Y-196975247D02*
X485632017Y-196937152D01*
X485632017Y-196937152D02*
X485670112Y-196899057D01*
X485670112Y-196899057D02*
X485708208Y-196822866D01*
X485708208Y-196822866D02*
X485708208Y-196746676D01*
X485708208Y-196746676D02*
X485670112Y-196670485D01*
X485670112Y-196670485D02*
X485632017Y-196632390D01*
X485632017Y-196632390D02*
X485555827Y-196594295D01*
X485555827Y-196594295D02*
X485365350Y-196594295D01*
X485365350Y-196594295D02*
X485251065Y-196632390D01*
X495663220Y-225939987D02*
X495663220Y-224939987D01*
X495663220Y-224939987D02*
X495425125Y-224939987D01*
X495425125Y-224939987D02*
X495282268Y-224987606D01*
X495282268Y-224987606D02*
X495187030Y-225082844D01*
X495187030Y-225082844D02*
X495139411Y-225178082D01*
X495139411Y-225178082D02*
X495091792Y-225368558D01*
X495091792Y-225368558D02*
X495091792Y-225511415D01*
X495091792Y-225511415D02*
X495139411Y-225701891D01*
X495139411Y-225701891D02*
X495187030Y-225797129D01*
X495187030Y-225797129D02*
X495282268Y-225892368D01*
X495282268Y-225892368D02*
X495425125Y-225939987D01*
X495425125Y-225939987D02*
X495663220Y-225939987D01*
X494234649Y-225273320D02*
X494234649Y-225939987D01*
X494663220Y-225273320D02*
X494663220Y-225797129D01*
X494663220Y-225797129D02*
X494615601Y-225892368D01*
X494615601Y-225892368D02*
X494520363Y-225939987D01*
X494520363Y-225939987D02*
X494377506Y-225939987D01*
X494377506Y-225939987D02*
X494282268Y-225892368D01*
X494282268Y-225892368D02*
X494234649Y-225844748D01*
X493758458Y-225939987D02*
X493758458Y-224939987D01*
X493758458Y-225320939D02*
X493663220Y-225273320D01*
X493663220Y-225273320D02*
X493472744Y-225273320D01*
X493472744Y-225273320D02*
X493377506Y-225320939D01*
X493377506Y-225320939D02*
X493329887Y-225368558D01*
X493329887Y-225368558D02*
X493282268Y-225463796D01*
X493282268Y-225463796D02*
X493282268Y-225749510D01*
X493282268Y-225749510D02*
X493329887Y-225844748D01*
X493329887Y-225844748D02*
X493377506Y-225892368D01*
X493377506Y-225892368D02*
X493472744Y-225939987D01*
X493472744Y-225939987D02*
X493663220Y-225939987D01*
X493663220Y-225939987D02*
X493758458Y-225892368D01*
X492520363Y-225416177D02*
X492853696Y-225416177D01*
X492853696Y-225939987D02*
X492853696Y-224939987D01*
X492853696Y-224939987D02*
X492377506Y-224939987D01*
X491853696Y-225939987D02*
X491948934Y-225892368D01*
X491948934Y-225892368D02*
X491996553Y-225844748D01*
X491996553Y-225844748D02*
X492044172Y-225749510D01*
X492044172Y-225749510D02*
X492044172Y-225463796D01*
X492044172Y-225463796D02*
X491996553Y-225368558D01*
X491996553Y-225368558D02*
X491948934Y-225320939D01*
X491948934Y-225320939D02*
X491853696Y-225273320D01*
X491853696Y-225273320D02*
X491710839Y-225273320D01*
X491710839Y-225273320D02*
X491615601Y-225320939D01*
X491615601Y-225320939D02*
X491567982Y-225368558D01*
X491567982Y-225368558D02*
X491520363Y-225463796D01*
X491520363Y-225463796D02*
X491520363Y-225749510D01*
X491520363Y-225749510D02*
X491567982Y-225844748D01*
X491567982Y-225844748D02*
X491615601Y-225892368D01*
X491615601Y-225892368D02*
X491710839Y-225939987D01*
X491710839Y-225939987D02*
X491853696Y-225939987D01*
X490663220Y-225892368D02*
X490758458Y-225939987D01*
X490758458Y-225939987D02*
X490948934Y-225939987D01*
X490948934Y-225939987D02*
X491044172Y-225892368D01*
X491044172Y-225892368D02*
X491091791Y-225844748D01*
X491091791Y-225844748D02*
X491139410Y-225749510D01*
X491139410Y-225749510D02*
X491139410Y-225463796D01*
X491139410Y-225463796D02*
X491091791Y-225368558D01*
X491091791Y-225368558D02*
X491044172Y-225320939D01*
X491044172Y-225320939D02*
X490948934Y-225273320D01*
X490948934Y-225273320D02*
X490758458Y-225273320D01*
X490758458Y-225273320D02*
X490663220Y-225320939D01*
X489806077Y-225273320D02*
X489806077Y-225939987D01*
X490234648Y-225273320D02*
X490234648Y-225797129D01*
X490234648Y-225797129D02*
X490187029Y-225892368D01*
X490187029Y-225892368D02*
X490091791Y-225939987D01*
X490091791Y-225939987D02*
X489948934Y-225939987D01*
X489948934Y-225939987D02*
X489853696Y-225892368D01*
X489853696Y-225892368D02*
X489806077Y-225844748D01*
X489377505Y-225892368D02*
X489282267Y-225939987D01*
X489282267Y-225939987D02*
X489091791Y-225939987D01*
X489091791Y-225939987D02*
X488996553Y-225892368D01*
X488996553Y-225892368D02*
X488948934Y-225797129D01*
X488948934Y-225797129D02*
X488948934Y-225749510D01*
X488948934Y-225749510D02*
X488996553Y-225654272D01*
X488996553Y-225654272D02*
X489091791Y-225606653D01*
X489091791Y-225606653D02*
X489234648Y-225606653D01*
X489234648Y-225606653D02*
X489329886Y-225559034D01*
X489329886Y-225559034D02*
X489377505Y-225463796D01*
X489377505Y-225463796D02*
X489377505Y-225416177D01*
X489377505Y-225416177D02*
X489329886Y-225320939D01*
X489329886Y-225320939D02*
X489234648Y-225273320D01*
X489234648Y-225273320D02*
X489091791Y-225273320D01*
X489091791Y-225273320D02*
X488996553Y-225320939D01*
X487234648Y-225939987D02*
X487806076Y-225939987D01*
X487520362Y-225939987D02*
X487520362Y-224939987D01*
X487520362Y-224939987D02*
X487615600Y-225082844D01*
X487615600Y-225082844D02*
X487710838Y-225178082D01*
X487710838Y-225178082D02*
X487806076Y-225225701D01*
X486377505Y-224939987D02*
X486567981Y-224939987D01*
X486567981Y-224939987D02*
X486663219Y-224987606D01*
X486663219Y-224987606D02*
X486710838Y-225035225D01*
X486710838Y-225035225D02*
X486806076Y-225178082D01*
X486806076Y-225178082D02*
X486853695Y-225368558D01*
X486853695Y-225368558D02*
X486853695Y-225749510D01*
X486853695Y-225749510D02*
X486806076Y-225844748D01*
X486806076Y-225844748D02*
X486758457Y-225892368D01*
X486758457Y-225892368D02*
X486663219Y-225939987D01*
X486663219Y-225939987D02*
X486472743Y-225939987D01*
X486472743Y-225939987D02*
X486377505Y-225892368D01*
X486377505Y-225892368D02*
X486329886Y-225844748D01*
X486329886Y-225844748D02*
X486282267Y-225749510D01*
X486282267Y-225749510D02*
X486282267Y-225511415D01*
X486282267Y-225511415D02*
X486329886Y-225416177D01*
X486329886Y-225416177D02*
X486377505Y-225368558D01*
X486377505Y-225368558D02*
X486472743Y-225320939D01*
X486472743Y-225320939D02*
X486663219Y-225320939D01*
X486663219Y-225320939D02*
X486758457Y-225368558D01*
X486758457Y-225368558D02*
X486806076Y-225416177D01*
X486806076Y-225416177D02*
X486853695Y-225511415D01*
X485996552Y-224939987D02*
X485425124Y-224939987D01*
X485710838Y-225939987D02*
X485710838Y-224939987D01*
X495663220Y-227549931D02*
X495663220Y-226549931D01*
X495663220Y-226549931D02*
X495329887Y-227264216D01*
X495329887Y-227264216D02*
X494996554Y-226549931D01*
X494996554Y-226549931D02*
X494996554Y-227549931D01*
X494187030Y-227026121D02*
X494044173Y-227073740D01*
X494044173Y-227073740D02*
X493996554Y-227121359D01*
X493996554Y-227121359D02*
X493948935Y-227216597D01*
X493948935Y-227216597D02*
X493948935Y-227359454D01*
X493948935Y-227359454D02*
X493996554Y-227454692D01*
X493996554Y-227454692D02*
X494044173Y-227502312D01*
X494044173Y-227502312D02*
X494139411Y-227549931D01*
X494139411Y-227549931D02*
X494520363Y-227549931D01*
X494520363Y-227549931D02*
X494520363Y-226549931D01*
X494520363Y-226549931D02*
X494187030Y-226549931D01*
X494187030Y-226549931D02*
X494091792Y-226597550D01*
X494091792Y-226597550D02*
X494044173Y-226645169D01*
X494044173Y-226645169D02*
X493996554Y-226740407D01*
X493996554Y-226740407D02*
X493996554Y-226835645D01*
X493996554Y-226835645D02*
X494044173Y-226930883D01*
X494044173Y-226930883D02*
X494091792Y-226978502D01*
X494091792Y-226978502D02*
X494187030Y-227026121D01*
X494187030Y-227026121D02*
X494520363Y-227026121D01*
X493329887Y-226549931D02*
X493139411Y-226549931D01*
X493139411Y-226549931D02*
X493044173Y-226597550D01*
X493044173Y-226597550D02*
X492948935Y-226692788D01*
X492948935Y-226692788D02*
X492901316Y-226883264D01*
X492901316Y-226883264D02*
X492901316Y-227216597D01*
X492901316Y-227216597D02*
X492948935Y-227407073D01*
X492948935Y-227407073D02*
X493044173Y-227502312D01*
X493044173Y-227502312D02*
X493139411Y-227549931D01*
X493139411Y-227549931D02*
X493329887Y-227549931D01*
X493329887Y-227549931D02*
X493425125Y-227502312D01*
X493425125Y-227502312D02*
X493520363Y-227407073D01*
X493520363Y-227407073D02*
X493567982Y-227216597D01*
X493567982Y-227216597D02*
X493567982Y-226883264D01*
X493567982Y-226883264D02*
X493520363Y-226692788D01*
X493520363Y-226692788D02*
X493425125Y-226597550D01*
X493425125Y-226597550D02*
X493329887Y-226549931D01*
X495091792Y-229159875D02*
X495425125Y-228683684D01*
X495663220Y-229159875D02*
X495663220Y-228159875D01*
X495663220Y-228159875D02*
X495282268Y-228159875D01*
X495282268Y-228159875D02*
X495187030Y-228207494D01*
X495187030Y-228207494D02*
X495139411Y-228255113D01*
X495139411Y-228255113D02*
X495091792Y-228350351D01*
X495091792Y-228350351D02*
X495091792Y-228493208D01*
X495091792Y-228493208D02*
X495139411Y-228588446D01*
X495139411Y-228588446D02*
X495187030Y-228636065D01*
X495187030Y-228636065D02*
X495282268Y-228683684D01*
X495282268Y-228683684D02*
X495663220Y-228683684D01*
X494139411Y-229159875D02*
X494710839Y-229159875D01*
X494425125Y-229159875D02*
X494425125Y-228159875D01*
X494425125Y-228159875D02*
X494520363Y-228302732D01*
X494520363Y-228302732D02*
X494615601Y-228397970D01*
X494615601Y-228397970D02*
X494710839Y-228445589D01*
X495710839Y-229865057D02*
X495663220Y-229817438D01*
X495663220Y-229817438D02*
X495567982Y-229769819D01*
X495567982Y-229769819D02*
X495329887Y-229769819D01*
X495329887Y-229769819D02*
X495234649Y-229817438D01*
X495234649Y-229817438D02*
X495187030Y-229865057D01*
X495187030Y-229865057D02*
X495139411Y-229960295D01*
X495139411Y-229960295D02*
X495139411Y-230055533D01*
X495139411Y-230055533D02*
X495187030Y-230198390D01*
X495187030Y-230198390D02*
X495758458Y-230769819D01*
X495758458Y-230769819D02*
X495139411Y-230769819D01*
X494520363Y-229769819D02*
X494425125Y-229769819D01*
X494425125Y-229769819D02*
X494329887Y-229817438D01*
X494329887Y-229817438D02*
X494282268Y-229865057D01*
X494282268Y-229865057D02*
X494234649Y-229960295D01*
X494234649Y-229960295D02*
X494187030Y-230150771D01*
X494187030Y-230150771D02*
X494187030Y-230388866D01*
X494187030Y-230388866D02*
X494234649Y-230579342D01*
X494234649Y-230579342D02*
X494282268Y-230674580D01*
X494282268Y-230674580D02*
X494329887Y-230722200D01*
X494329887Y-230722200D02*
X494425125Y-230769819D01*
X494425125Y-230769819D02*
X494520363Y-230769819D01*
X494520363Y-230769819D02*
X494615601Y-230722200D01*
X494615601Y-230722200D02*
X494663220Y-230674580D01*
X494663220Y-230674580D02*
X494710839Y-230579342D01*
X494710839Y-230579342D02*
X494758458Y-230388866D01*
X494758458Y-230388866D02*
X494758458Y-230150771D01*
X494758458Y-230150771D02*
X494710839Y-229960295D01*
X494710839Y-229960295D02*
X494663220Y-229865057D01*
X494663220Y-229865057D02*
X494615601Y-229817438D01*
X494615601Y-229817438D02*
X494520363Y-229769819D01*
X493806077Y-229865057D02*
X493758458Y-229817438D01*
X493758458Y-229817438D02*
X493663220Y-229769819D01*
X493663220Y-229769819D02*
X493425125Y-229769819D01*
X493425125Y-229769819D02*
X493329887Y-229817438D01*
X493329887Y-229817438D02*
X493282268Y-229865057D01*
X493282268Y-229865057D02*
X493234649Y-229960295D01*
X493234649Y-229960295D02*
X493234649Y-230055533D01*
X493234649Y-230055533D02*
X493282268Y-230198390D01*
X493282268Y-230198390D02*
X493853696Y-230769819D01*
X493853696Y-230769819D02*
X493234649Y-230769819D01*
X492329887Y-229769819D02*
X492806077Y-229769819D01*
X492806077Y-229769819D02*
X492853696Y-230246009D01*
X492853696Y-230246009D02*
X492806077Y-230198390D01*
X492806077Y-230198390D02*
X492710839Y-230150771D01*
X492710839Y-230150771D02*
X492472744Y-230150771D01*
X492472744Y-230150771D02*
X492377506Y-230198390D01*
X492377506Y-230198390D02*
X492329887Y-230246009D01*
X492329887Y-230246009D02*
X492282268Y-230341247D01*
X492282268Y-230341247D02*
X492282268Y-230579342D01*
X492282268Y-230579342D02*
X492329887Y-230674580D01*
X492329887Y-230674580D02*
X492377506Y-230722200D01*
X492377506Y-230722200D02*
X492472744Y-230769819D01*
X492472744Y-230769819D02*
X492710839Y-230769819D01*
X492710839Y-230769819D02*
X492806077Y-230722200D01*
X492806077Y-230722200D02*
X492853696Y-230674580D01*
X491853696Y-230674580D02*
X491806077Y-230722200D01*
X491806077Y-230722200D02*
X491853696Y-230769819D01*
X491853696Y-230769819D02*
X491901315Y-230722200D01*
X491901315Y-230722200D02*
X491853696Y-230674580D01*
X491853696Y-230674580D02*
X491853696Y-230769819D01*
X490853697Y-230769819D02*
X491425125Y-230769819D01*
X491139411Y-230769819D02*
X491139411Y-229769819D01*
X491139411Y-229769819D02*
X491234649Y-229912676D01*
X491234649Y-229912676D02*
X491329887Y-230007914D01*
X491329887Y-230007914D02*
X491425125Y-230055533D01*
X490472744Y-229865057D02*
X490425125Y-229817438D01*
X490425125Y-229817438D02*
X490329887Y-229769819D01*
X490329887Y-229769819D02*
X490091792Y-229769819D01*
X490091792Y-229769819D02*
X489996554Y-229817438D01*
X489996554Y-229817438D02*
X489948935Y-229865057D01*
X489948935Y-229865057D02*
X489901316Y-229960295D01*
X489901316Y-229960295D02*
X489901316Y-230055533D01*
X489901316Y-230055533D02*
X489948935Y-230198390D01*
X489948935Y-230198390D02*
X490520363Y-230769819D01*
X490520363Y-230769819D02*
X489901316Y-230769819D01*
X503276104Y-184966667D02*
X503314200Y-184928571D01*
X503314200Y-184928571D02*
X503352295Y-184814286D01*
X503352295Y-184814286D02*
X503352295Y-184738095D01*
X503352295Y-184738095D02*
X503314200Y-184623809D01*
X503314200Y-184623809D02*
X503238009Y-184547619D01*
X503238009Y-184547619D02*
X503161819Y-184509524D01*
X503161819Y-184509524D02*
X503009438Y-184471428D01*
X503009438Y-184471428D02*
X502895152Y-184471428D01*
X502895152Y-184471428D02*
X502742771Y-184509524D01*
X502742771Y-184509524D02*
X502666580Y-184547619D01*
X502666580Y-184547619D02*
X502590390Y-184623809D01*
X502590390Y-184623809D02*
X502552295Y-184738095D01*
X502552295Y-184738095D02*
X502552295Y-184814286D01*
X502552295Y-184814286D02*
X502590390Y-184928571D01*
X502590390Y-184928571D02*
X502628485Y-184966667D01*
X502552295Y-185690476D02*
X502552295Y-185309524D01*
X502552295Y-185309524D02*
X502933247Y-185271428D01*
X502933247Y-185271428D02*
X502895152Y-185309524D01*
X502895152Y-185309524D02*
X502857057Y-185385714D01*
X502857057Y-185385714D02*
X502857057Y-185576190D01*
X502857057Y-185576190D02*
X502895152Y-185652381D01*
X502895152Y-185652381D02*
X502933247Y-185690476D01*
X502933247Y-185690476D02*
X503009438Y-185728571D01*
X503009438Y-185728571D02*
X503199914Y-185728571D01*
X503199914Y-185728571D02*
X503276104Y-185690476D01*
X503276104Y-185690476D02*
X503314200Y-185652381D01*
X503314200Y-185652381D02*
X503352295Y-185576190D01*
X503352295Y-185576190D02*
X503352295Y-185385714D01*
X503352295Y-185385714D02*
X503314200Y-185309524D01*
X503314200Y-185309524D02*
X503276104Y-185271428D01*
X526133332Y-188086104D02*
X526171428Y-188124200D01*
X526171428Y-188124200D02*
X526285713Y-188162295D01*
X526285713Y-188162295D02*
X526361904Y-188162295D01*
X526361904Y-188162295D02*
X526476190Y-188124200D01*
X526476190Y-188124200D02*
X526552380Y-188048009D01*
X526552380Y-188048009D02*
X526590475Y-187971819D01*
X526590475Y-187971819D02*
X526628571Y-187819438D01*
X526628571Y-187819438D02*
X526628571Y-187705152D01*
X526628571Y-187705152D02*
X526590475Y-187552771D01*
X526590475Y-187552771D02*
X526552380Y-187476580D01*
X526552380Y-187476580D02*
X526476190Y-187400390D01*
X526476190Y-187400390D02*
X526361904Y-187362295D01*
X526361904Y-187362295D02*
X526285713Y-187362295D01*
X526285713Y-187362295D02*
X526171428Y-187400390D01*
X526171428Y-187400390D02*
X526133332Y-187438485D01*
X525371428Y-188162295D02*
X525828571Y-188162295D01*
X525599999Y-188162295D02*
X525599999Y-187362295D01*
X525599999Y-187362295D02*
X525676190Y-187476580D01*
X525676190Y-187476580D02*
X525752380Y-187552771D01*
X525752380Y-187552771D02*
X525828571Y-187590866D01*
X513086104Y-194035714D02*
X513124200Y-193997618D01*
X513124200Y-193997618D02*
X513162295Y-193883333D01*
X513162295Y-193883333D02*
X513162295Y-193807142D01*
X513162295Y-193807142D02*
X513124200Y-193692856D01*
X513124200Y-193692856D02*
X513048009Y-193616666D01*
X513048009Y-193616666D02*
X512971819Y-193578571D01*
X512971819Y-193578571D02*
X512819438Y-193540475D01*
X512819438Y-193540475D02*
X512705152Y-193540475D01*
X512705152Y-193540475D02*
X512552771Y-193578571D01*
X512552771Y-193578571D02*
X512476580Y-193616666D01*
X512476580Y-193616666D02*
X512400390Y-193692856D01*
X512400390Y-193692856D02*
X512362295Y-193807142D01*
X512362295Y-193807142D02*
X512362295Y-193883333D01*
X512362295Y-193883333D02*
X512400390Y-193997618D01*
X512400390Y-193997618D02*
X512438485Y-194035714D01*
X513162295Y-194797618D02*
X513162295Y-194340475D01*
X513162295Y-194569047D02*
X512362295Y-194569047D01*
X512362295Y-194569047D02*
X512476580Y-194492856D01*
X512476580Y-194492856D02*
X512552771Y-194416666D01*
X512552771Y-194416666D02*
X512590866Y-194340475D01*
X512438485Y-195102380D02*
X512400390Y-195140476D01*
X512400390Y-195140476D02*
X512362295Y-195216666D01*
X512362295Y-195216666D02*
X512362295Y-195407142D01*
X512362295Y-195407142D02*
X512400390Y-195483333D01*
X512400390Y-195483333D02*
X512438485Y-195521428D01*
X512438485Y-195521428D02*
X512514676Y-195559523D01*
X512514676Y-195559523D02*
X512590866Y-195559523D01*
X512590866Y-195559523D02*
X512705152Y-195521428D01*
X512705152Y-195521428D02*
X513162295Y-195064285D01*
X513162295Y-195064285D02*
X513162295Y-195559523D01*
X511193247Y-162303333D02*
X511193247Y-162036667D01*
X511612295Y-162036667D02*
X510812295Y-162036667D01*
X510812295Y-162036667D02*
X510812295Y-162417619D01*
X511193247Y-162989047D02*
X511231342Y-163103333D01*
X511231342Y-163103333D02*
X511269438Y-163141428D01*
X511269438Y-163141428D02*
X511345628Y-163179524D01*
X511345628Y-163179524D02*
X511459914Y-163179524D01*
X511459914Y-163179524D02*
X511536104Y-163141428D01*
X511536104Y-163141428D02*
X511574200Y-163103333D01*
X511574200Y-163103333D02*
X511612295Y-163027143D01*
X511612295Y-163027143D02*
X511612295Y-162722381D01*
X511612295Y-162722381D02*
X510812295Y-162722381D01*
X510812295Y-162722381D02*
X510812295Y-162989047D01*
X510812295Y-162989047D02*
X510850390Y-163065238D01*
X510850390Y-163065238D02*
X510888485Y-163103333D01*
X510888485Y-163103333D02*
X510964676Y-163141428D01*
X510964676Y-163141428D02*
X511040866Y-163141428D01*
X511040866Y-163141428D02*
X511117057Y-163103333D01*
X511117057Y-163103333D02*
X511155152Y-163065238D01*
X511155152Y-163065238D02*
X511193247Y-162989047D01*
X511193247Y-162989047D02*
X511193247Y-162722381D01*
X511612295Y-163941428D02*
X511612295Y-163484285D01*
X511612295Y-163712857D02*
X510812295Y-163712857D01*
X510812295Y-163712857D02*
X510926580Y-163636666D01*
X510926580Y-163636666D02*
X511002771Y-163560476D01*
X511002771Y-163560476D02*
X511040866Y-163484285D01*
X515162295Y-194016667D02*
X514781342Y-193750000D01*
X515162295Y-193559524D02*
X514362295Y-193559524D01*
X514362295Y-193559524D02*
X514362295Y-193864286D01*
X514362295Y-193864286D02*
X514400390Y-193940476D01*
X514400390Y-193940476D02*
X514438485Y-193978571D01*
X514438485Y-193978571D02*
X514514676Y-194016667D01*
X514514676Y-194016667D02*
X514628961Y-194016667D01*
X514628961Y-194016667D02*
X514705152Y-193978571D01*
X514705152Y-193978571D02*
X514743247Y-193940476D01*
X514743247Y-193940476D02*
X514781342Y-193864286D01*
X514781342Y-193864286D02*
X514781342Y-193559524D01*
X514628961Y-194702381D02*
X515162295Y-194702381D01*
X514324200Y-194511905D02*
X514895628Y-194321428D01*
X514895628Y-194321428D02*
X514895628Y-194816667D01*
X522086104Y-166655714D02*
X522124200Y-166617618D01*
X522124200Y-166617618D02*
X522162295Y-166503333D01*
X522162295Y-166503333D02*
X522162295Y-166427142D01*
X522162295Y-166427142D02*
X522124200Y-166312856D01*
X522124200Y-166312856D02*
X522048009Y-166236666D01*
X522048009Y-166236666D02*
X521971819Y-166198571D01*
X521971819Y-166198571D02*
X521819438Y-166160475D01*
X521819438Y-166160475D02*
X521705152Y-166160475D01*
X521705152Y-166160475D02*
X521552771Y-166198571D01*
X521552771Y-166198571D02*
X521476580Y-166236666D01*
X521476580Y-166236666D02*
X521400390Y-166312856D01*
X521400390Y-166312856D02*
X521362295Y-166427142D01*
X521362295Y-166427142D02*
X521362295Y-166503333D01*
X521362295Y-166503333D02*
X521400390Y-166617618D01*
X521400390Y-166617618D02*
X521438485Y-166655714D01*
X522162295Y-167417618D02*
X522162295Y-166960475D01*
X522162295Y-167189047D02*
X521362295Y-167189047D01*
X521362295Y-167189047D02*
X521476580Y-167112856D01*
X521476580Y-167112856D02*
X521552771Y-167036666D01*
X521552771Y-167036666D02*
X521590866Y-166960475D01*
X521362295Y-167912857D02*
X521362295Y-167989047D01*
X521362295Y-167989047D02*
X521400390Y-168065238D01*
X521400390Y-168065238D02*
X521438485Y-168103333D01*
X521438485Y-168103333D02*
X521514676Y-168141428D01*
X521514676Y-168141428D02*
X521667057Y-168179523D01*
X521667057Y-168179523D02*
X521857533Y-168179523D01*
X521857533Y-168179523D02*
X522009914Y-168141428D01*
X522009914Y-168141428D02*
X522086104Y-168103333D01*
X522086104Y-168103333D02*
X522124200Y-168065238D01*
X522124200Y-168065238D02*
X522162295Y-167989047D01*
X522162295Y-167989047D02*
X522162295Y-167912857D01*
X522162295Y-167912857D02*
X522124200Y-167836666D01*
X522124200Y-167836666D02*
X522086104Y-167798571D01*
X522086104Y-167798571D02*
X522009914Y-167760476D01*
X522009914Y-167760476D02*
X521857533Y-167722380D01*
X521857533Y-167722380D02*
X521667057Y-167722380D01*
X521667057Y-167722380D02*
X521514676Y-167760476D01*
X521514676Y-167760476D02*
X521438485Y-167798571D01*
X521438485Y-167798571D02*
X521400390Y-167836666D01*
X521400390Y-167836666D02*
X521362295Y-167912857D01*
X507114285Y-183236104D02*
X507152381Y-183274200D01*
X507152381Y-183274200D02*
X507266666Y-183312295D01*
X507266666Y-183312295D02*
X507342857Y-183312295D01*
X507342857Y-183312295D02*
X507457143Y-183274200D01*
X507457143Y-183274200D02*
X507533333Y-183198009D01*
X507533333Y-183198009D02*
X507571428Y-183121819D01*
X507571428Y-183121819D02*
X507609524Y-182969438D01*
X507609524Y-182969438D02*
X507609524Y-182855152D01*
X507609524Y-182855152D02*
X507571428Y-182702771D01*
X507571428Y-182702771D02*
X507533333Y-182626580D01*
X507533333Y-182626580D02*
X507457143Y-182550390D01*
X507457143Y-182550390D02*
X507342857Y-182512295D01*
X507342857Y-182512295D02*
X507266666Y-182512295D01*
X507266666Y-182512295D02*
X507152381Y-182550390D01*
X507152381Y-182550390D02*
X507114285Y-182588485D01*
X506809524Y-182588485D02*
X506771428Y-182550390D01*
X506771428Y-182550390D02*
X506695238Y-182512295D01*
X506695238Y-182512295D02*
X506504762Y-182512295D01*
X506504762Y-182512295D02*
X506428571Y-182550390D01*
X506428571Y-182550390D02*
X506390476Y-182588485D01*
X506390476Y-182588485D02*
X506352381Y-182664676D01*
X506352381Y-182664676D02*
X506352381Y-182740866D01*
X506352381Y-182740866D02*
X506390476Y-182855152D01*
X506390476Y-182855152D02*
X506847619Y-183312295D01*
X506847619Y-183312295D02*
X506352381Y-183312295D01*
X506085714Y-182512295D02*
X505590476Y-182512295D01*
X505590476Y-182512295D02*
X505857142Y-182817057D01*
X505857142Y-182817057D02*
X505742857Y-182817057D01*
X505742857Y-182817057D02*
X505666666Y-182855152D01*
X505666666Y-182855152D02*
X505628571Y-182893247D01*
X505628571Y-182893247D02*
X505590476Y-182969438D01*
X505590476Y-182969438D02*
X505590476Y-183159914D01*
X505590476Y-183159914D02*
X505628571Y-183236104D01*
X505628571Y-183236104D02*
X505666666Y-183274200D01*
X505666666Y-183274200D02*
X505742857Y-183312295D01*
X505742857Y-183312295D02*
X505971428Y-183312295D01*
X505971428Y-183312295D02*
X506047619Y-183274200D01*
X506047619Y-183274200D02*
X506085714Y-183236104D01*
X497590475Y-197286104D02*
X497628571Y-197324200D01*
X497628571Y-197324200D02*
X497742856Y-197362295D01*
X497742856Y-197362295D02*
X497819047Y-197362295D01*
X497819047Y-197362295D02*
X497933333Y-197324200D01*
X497933333Y-197324200D02*
X498009523Y-197248009D01*
X498009523Y-197248009D02*
X498047618Y-197171819D01*
X498047618Y-197171819D02*
X498085714Y-197019438D01*
X498085714Y-197019438D02*
X498085714Y-196905152D01*
X498085714Y-196905152D02*
X498047618Y-196752771D01*
X498047618Y-196752771D02*
X498009523Y-196676580D01*
X498009523Y-196676580D02*
X497933333Y-196600390D01*
X497933333Y-196600390D02*
X497819047Y-196562295D01*
X497819047Y-196562295D02*
X497742856Y-196562295D01*
X497742856Y-196562295D02*
X497628571Y-196600390D01*
X497628571Y-196600390D02*
X497590475Y-196638485D01*
X497095237Y-196562295D02*
X496942856Y-196562295D01*
X496942856Y-196562295D02*
X496866666Y-196600390D01*
X496866666Y-196600390D02*
X496790475Y-196676580D01*
X496790475Y-196676580D02*
X496752380Y-196828961D01*
X496752380Y-196828961D02*
X496752380Y-197095628D01*
X496752380Y-197095628D02*
X496790475Y-197248009D01*
X496790475Y-197248009D02*
X496866666Y-197324200D01*
X496866666Y-197324200D02*
X496942856Y-197362295D01*
X496942856Y-197362295D02*
X497095237Y-197362295D01*
X497095237Y-197362295D02*
X497171428Y-197324200D01*
X497171428Y-197324200D02*
X497247618Y-197248009D01*
X497247618Y-197248009D02*
X497285714Y-197095628D01*
X497285714Y-197095628D02*
X497285714Y-196828961D01*
X497285714Y-196828961D02*
X497247618Y-196676580D01*
X497247618Y-196676580D02*
X497171428Y-196600390D01*
X497171428Y-196600390D02*
X497095237Y-196562295D01*
X496409523Y-197362295D02*
X496409523Y-196562295D01*
X496409523Y-196562295D02*
X495952380Y-197362295D01*
X495952380Y-197362295D02*
X495952380Y-196562295D01*
X495571428Y-197362295D02*
X495571428Y-196562295D01*
X495571428Y-196562295D02*
X495114285Y-197362295D01*
X495114285Y-197362295D02*
X495114285Y-196562295D01*
X494771429Y-196638485D02*
X494733333Y-196600390D01*
X494733333Y-196600390D02*
X494657143Y-196562295D01*
X494657143Y-196562295D02*
X494466667Y-196562295D01*
X494466667Y-196562295D02*
X494390476Y-196600390D01*
X494390476Y-196600390D02*
X494352381Y-196638485D01*
X494352381Y-196638485D02*
X494314286Y-196714676D01*
X494314286Y-196714676D02*
X494314286Y-196790866D01*
X494314286Y-196790866D02*
X494352381Y-196905152D01*
X494352381Y-196905152D02*
X494809524Y-197362295D01*
X494809524Y-197362295D02*
X494314286Y-197362295D01*
X520586104Y-175066667D02*
X520624200Y-175028571D01*
X520624200Y-175028571D02*
X520662295Y-174914286D01*
X520662295Y-174914286D02*
X520662295Y-174838095D01*
X520662295Y-174838095D02*
X520624200Y-174723809D01*
X520624200Y-174723809D02*
X520548009Y-174647619D01*
X520548009Y-174647619D02*
X520471819Y-174609524D01*
X520471819Y-174609524D02*
X520319438Y-174571428D01*
X520319438Y-174571428D02*
X520205152Y-174571428D01*
X520205152Y-174571428D02*
X520052771Y-174609524D01*
X520052771Y-174609524D02*
X519976580Y-174647619D01*
X519976580Y-174647619D02*
X519900390Y-174723809D01*
X519900390Y-174723809D02*
X519862295Y-174838095D01*
X519862295Y-174838095D02*
X519862295Y-174914286D01*
X519862295Y-174914286D02*
X519900390Y-175028571D01*
X519900390Y-175028571D02*
X519938485Y-175066667D01*
X519862295Y-175752381D02*
X519862295Y-175600000D01*
X519862295Y-175600000D02*
X519900390Y-175523809D01*
X519900390Y-175523809D02*
X519938485Y-175485714D01*
X519938485Y-175485714D02*
X520052771Y-175409524D01*
X520052771Y-175409524D02*
X520205152Y-175371428D01*
X520205152Y-175371428D02*
X520509914Y-175371428D01*
X520509914Y-175371428D02*
X520586104Y-175409524D01*
X520586104Y-175409524D02*
X520624200Y-175447619D01*
X520624200Y-175447619D02*
X520662295Y-175523809D01*
X520662295Y-175523809D02*
X520662295Y-175676190D01*
X520662295Y-175676190D02*
X520624200Y-175752381D01*
X520624200Y-175752381D02*
X520586104Y-175790476D01*
X520586104Y-175790476D02*
X520509914Y-175828571D01*
X520509914Y-175828571D02*
X520319438Y-175828571D01*
X520319438Y-175828571D02*
X520243247Y-175790476D01*
X520243247Y-175790476D02*
X520205152Y-175752381D01*
X520205152Y-175752381D02*
X520167057Y-175676190D01*
X520167057Y-175676190D02*
X520167057Y-175523809D01*
X520167057Y-175523809D02*
X520205152Y-175447619D01*
X520205152Y-175447619D02*
X520243247Y-175409524D01*
X520243247Y-175409524D02*
X520319438Y-175371428D01*
X520709523Y-191562295D02*
X520709523Y-192209914D01*
X520709523Y-192209914D02*
X520671428Y-192286104D01*
X520671428Y-192286104D02*
X520633333Y-192324200D01*
X520633333Y-192324200D02*
X520557142Y-192362295D01*
X520557142Y-192362295D02*
X520404761Y-192362295D01*
X520404761Y-192362295D02*
X520328571Y-192324200D01*
X520328571Y-192324200D02*
X520290476Y-192286104D01*
X520290476Y-192286104D02*
X520252380Y-192209914D01*
X520252380Y-192209914D02*
X520252380Y-191562295D01*
X519490476Y-191562295D02*
X519871428Y-191562295D01*
X519871428Y-191562295D02*
X519909524Y-191943247D01*
X519909524Y-191943247D02*
X519871428Y-191905152D01*
X519871428Y-191905152D02*
X519795238Y-191867057D01*
X519795238Y-191867057D02*
X519604762Y-191867057D01*
X519604762Y-191867057D02*
X519528571Y-191905152D01*
X519528571Y-191905152D02*
X519490476Y-191943247D01*
X519490476Y-191943247D02*
X519452381Y-192019438D01*
X519452381Y-192019438D02*
X519452381Y-192209914D01*
X519452381Y-192209914D02*
X519490476Y-192286104D01*
X519490476Y-192286104D02*
X519528571Y-192324200D01*
X519528571Y-192324200D02*
X519604762Y-192362295D01*
X519604762Y-192362295D02*
X519795238Y-192362295D01*
X519795238Y-192362295D02*
X519871428Y-192324200D01*
X519871428Y-192324200D02*
X519909524Y-192286104D01*
X510436104Y-191916667D02*
X510474200Y-191878571D01*
X510474200Y-191878571D02*
X510512295Y-191764286D01*
X510512295Y-191764286D02*
X510512295Y-191688095D01*
X510512295Y-191688095D02*
X510474200Y-191573809D01*
X510474200Y-191573809D02*
X510398009Y-191497619D01*
X510398009Y-191497619D02*
X510321819Y-191459524D01*
X510321819Y-191459524D02*
X510169438Y-191421428D01*
X510169438Y-191421428D02*
X510055152Y-191421428D01*
X510055152Y-191421428D02*
X509902771Y-191459524D01*
X509902771Y-191459524D02*
X509826580Y-191497619D01*
X509826580Y-191497619D02*
X509750390Y-191573809D01*
X509750390Y-191573809D02*
X509712295Y-191688095D01*
X509712295Y-191688095D02*
X509712295Y-191764286D01*
X509712295Y-191764286D02*
X509750390Y-191878571D01*
X509750390Y-191878571D02*
X509788485Y-191916667D01*
X509788485Y-192221428D02*
X509750390Y-192259524D01*
X509750390Y-192259524D02*
X509712295Y-192335714D01*
X509712295Y-192335714D02*
X509712295Y-192526190D01*
X509712295Y-192526190D02*
X509750390Y-192602381D01*
X509750390Y-192602381D02*
X509788485Y-192640476D01*
X509788485Y-192640476D02*
X509864676Y-192678571D01*
X509864676Y-192678571D02*
X509940866Y-192678571D01*
X509940866Y-192678571D02*
X510055152Y-192640476D01*
X510055152Y-192640476D02*
X510512295Y-192183333D01*
X510512295Y-192183333D02*
X510512295Y-192678571D01*
X506433332Y-191746104D02*
X506471428Y-191784200D01*
X506471428Y-191784200D02*
X506585713Y-191822295D01*
X506585713Y-191822295D02*
X506661904Y-191822295D01*
X506661904Y-191822295D02*
X506776190Y-191784200D01*
X506776190Y-191784200D02*
X506852380Y-191708009D01*
X506852380Y-191708009D02*
X506890475Y-191631819D01*
X506890475Y-191631819D02*
X506928571Y-191479438D01*
X506928571Y-191479438D02*
X506928571Y-191365152D01*
X506928571Y-191365152D02*
X506890475Y-191212771D01*
X506890475Y-191212771D02*
X506852380Y-191136580D01*
X506852380Y-191136580D02*
X506776190Y-191060390D01*
X506776190Y-191060390D02*
X506661904Y-191022295D01*
X506661904Y-191022295D02*
X506585713Y-191022295D01*
X506585713Y-191022295D02*
X506471428Y-191060390D01*
X506471428Y-191060390D02*
X506433332Y-191098485D01*
X505747618Y-191288961D02*
X505747618Y-191822295D01*
X505938094Y-190984200D02*
X506128571Y-191555628D01*
X506128571Y-191555628D02*
X505633332Y-191555628D01*
X504583332Y-182336104D02*
X504621428Y-182374200D01*
X504621428Y-182374200D02*
X504735713Y-182412295D01*
X504735713Y-182412295D02*
X504811904Y-182412295D01*
X504811904Y-182412295D02*
X504926190Y-182374200D01*
X504926190Y-182374200D02*
X505002380Y-182298009D01*
X505002380Y-182298009D02*
X505040475Y-182221819D01*
X505040475Y-182221819D02*
X505078571Y-182069438D01*
X505078571Y-182069438D02*
X505078571Y-181955152D01*
X505078571Y-181955152D02*
X505040475Y-181802771D01*
X505040475Y-181802771D02*
X505002380Y-181726580D01*
X505002380Y-181726580D02*
X504926190Y-181650390D01*
X504926190Y-181650390D02*
X504811904Y-181612295D01*
X504811904Y-181612295D02*
X504735713Y-181612295D01*
X504735713Y-181612295D02*
X504621428Y-181650390D01*
X504621428Y-181650390D02*
X504583332Y-181688485D01*
X504126190Y-181955152D02*
X504202380Y-181917057D01*
X504202380Y-181917057D02*
X504240475Y-181878961D01*
X504240475Y-181878961D02*
X504278571Y-181802771D01*
X504278571Y-181802771D02*
X504278571Y-181764676D01*
X504278571Y-181764676D02*
X504240475Y-181688485D01*
X504240475Y-181688485D02*
X504202380Y-181650390D01*
X504202380Y-181650390D02*
X504126190Y-181612295D01*
X504126190Y-181612295D02*
X503973809Y-181612295D01*
X503973809Y-181612295D02*
X503897618Y-181650390D01*
X503897618Y-181650390D02*
X503859523Y-181688485D01*
X503859523Y-181688485D02*
X503821428Y-181764676D01*
X503821428Y-181764676D02*
X503821428Y-181802771D01*
X503821428Y-181802771D02*
X503859523Y-181878961D01*
X503859523Y-181878961D02*
X503897618Y-181917057D01*
X503897618Y-181917057D02*
X503973809Y-181955152D01*
X503973809Y-181955152D02*
X504126190Y-181955152D01*
X504126190Y-181955152D02*
X504202380Y-181993247D01*
X504202380Y-181993247D02*
X504240475Y-182031342D01*
X504240475Y-182031342D02*
X504278571Y-182107533D01*
X504278571Y-182107533D02*
X504278571Y-182259914D01*
X504278571Y-182259914D02*
X504240475Y-182336104D01*
X504240475Y-182336104D02*
X504202380Y-182374200D01*
X504202380Y-182374200D02*
X504126190Y-182412295D01*
X504126190Y-182412295D02*
X503973809Y-182412295D01*
X503973809Y-182412295D02*
X503897618Y-182374200D01*
X503897618Y-182374200D02*
X503859523Y-182336104D01*
X503859523Y-182336104D02*
X503821428Y-182259914D01*
X503821428Y-182259914D02*
X503821428Y-182107533D01*
X503821428Y-182107533D02*
X503859523Y-182031342D01*
X503859523Y-182031342D02*
X503897618Y-181993247D01*
X503897618Y-181993247D02*
X503973809Y-181955152D01*
X507114285Y-181836104D02*
X507152381Y-181874200D01*
X507152381Y-181874200D02*
X507266666Y-181912295D01*
X507266666Y-181912295D02*
X507342857Y-181912295D01*
X507342857Y-181912295D02*
X507457143Y-181874200D01*
X507457143Y-181874200D02*
X507533333Y-181798009D01*
X507533333Y-181798009D02*
X507571428Y-181721819D01*
X507571428Y-181721819D02*
X507609524Y-181569438D01*
X507609524Y-181569438D02*
X507609524Y-181455152D01*
X507609524Y-181455152D02*
X507571428Y-181302771D01*
X507571428Y-181302771D02*
X507533333Y-181226580D01*
X507533333Y-181226580D02*
X507457143Y-181150390D01*
X507457143Y-181150390D02*
X507342857Y-181112295D01*
X507342857Y-181112295D02*
X507266666Y-181112295D01*
X507266666Y-181112295D02*
X507152381Y-181150390D01*
X507152381Y-181150390D02*
X507114285Y-181188485D01*
X506809524Y-181188485D02*
X506771428Y-181150390D01*
X506771428Y-181150390D02*
X506695238Y-181112295D01*
X506695238Y-181112295D02*
X506504762Y-181112295D01*
X506504762Y-181112295D02*
X506428571Y-181150390D01*
X506428571Y-181150390D02*
X506390476Y-181188485D01*
X506390476Y-181188485D02*
X506352381Y-181264676D01*
X506352381Y-181264676D02*
X506352381Y-181340866D01*
X506352381Y-181340866D02*
X506390476Y-181455152D01*
X506390476Y-181455152D02*
X506847619Y-181912295D01*
X506847619Y-181912295D02*
X506352381Y-181912295D01*
X505628571Y-181112295D02*
X506009523Y-181112295D01*
X506009523Y-181112295D02*
X506047619Y-181493247D01*
X506047619Y-181493247D02*
X506009523Y-181455152D01*
X506009523Y-181455152D02*
X505933333Y-181417057D01*
X505933333Y-181417057D02*
X505742857Y-181417057D01*
X505742857Y-181417057D02*
X505666666Y-181455152D01*
X505666666Y-181455152D02*
X505628571Y-181493247D01*
X505628571Y-181493247D02*
X505590476Y-181569438D01*
X505590476Y-181569438D02*
X505590476Y-181759914D01*
X505590476Y-181759914D02*
X505628571Y-181836104D01*
X505628571Y-181836104D02*
X505666666Y-181874200D01*
X505666666Y-181874200D02*
X505742857Y-181912295D01*
X505742857Y-181912295D02*
X505933333Y-181912295D01*
X505933333Y-181912295D02*
X506009523Y-181874200D01*
X506009523Y-181874200D02*
X506047619Y-181836104D01*
X484183332Y-188312295D02*
X484449999Y-187931342D01*
X484640475Y-188312295D02*
X484640475Y-187512295D01*
X484640475Y-187512295D02*
X484335713Y-187512295D01*
X484335713Y-187512295D02*
X484259523Y-187550390D01*
X484259523Y-187550390D02*
X484221428Y-187588485D01*
X484221428Y-187588485D02*
X484183332Y-187664676D01*
X484183332Y-187664676D02*
X484183332Y-187778961D01*
X484183332Y-187778961D02*
X484221428Y-187855152D01*
X484221428Y-187855152D02*
X484259523Y-187893247D01*
X484259523Y-187893247D02*
X484335713Y-187931342D01*
X484335713Y-187931342D02*
X484640475Y-187931342D01*
X483421428Y-188312295D02*
X483878571Y-188312295D01*
X483649999Y-188312295D02*
X483649999Y-187512295D01*
X483649999Y-187512295D02*
X483726190Y-187626580D01*
X483726190Y-187626580D02*
X483802380Y-187702771D01*
X483802380Y-187702771D02*
X483878571Y-187740866D01*
X521713895Y-200690475D02*
X521675800Y-200728571D01*
X521675800Y-200728571D02*
X521637704Y-200842856D01*
X521637704Y-200842856D02*
X521637704Y-200919047D01*
X521637704Y-200919047D02*
X521675800Y-201033333D01*
X521675800Y-201033333D02*
X521751990Y-201109523D01*
X521751990Y-201109523D02*
X521828180Y-201147618D01*
X521828180Y-201147618D02*
X521980561Y-201185714D01*
X521980561Y-201185714D02*
X522094847Y-201185714D01*
X522094847Y-201185714D02*
X522247228Y-201147618D01*
X522247228Y-201147618D02*
X522323419Y-201109523D01*
X522323419Y-201109523D02*
X522399609Y-201033333D01*
X522399609Y-201033333D02*
X522437704Y-200919047D01*
X522437704Y-200919047D02*
X522437704Y-200842856D01*
X522437704Y-200842856D02*
X522399609Y-200728571D01*
X522399609Y-200728571D02*
X522361514Y-200690475D01*
X522437704Y-200195237D02*
X522437704Y-200042856D01*
X522437704Y-200042856D02*
X522399609Y-199966666D01*
X522399609Y-199966666D02*
X522323419Y-199890475D01*
X522323419Y-199890475D02*
X522171038Y-199852380D01*
X522171038Y-199852380D02*
X521904371Y-199852380D01*
X521904371Y-199852380D02*
X521751990Y-199890475D01*
X521751990Y-199890475D02*
X521675800Y-199966666D01*
X521675800Y-199966666D02*
X521637704Y-200042856D01*
X521637704Y-200042856D02*
X521637704Y-200195237D01*
X521637704Y-200195237D02*
X521675800Y-200271428D01*
X521675800Y-200271428D02*
X521751990Y-200347618D01*
X521751990Y-200347618D02*
X521904371Y-200385714D01*
X521904371Y-200385714D02*
X522171038Y-200385714D01*
X522171038Y-200385714D02*
X522323419Y-200347618D01*
X522323419Y-200347618D02*
X522399609Y-200271428D01*
X522399609Y-200271428D02*
X522437704Y-200195237D01*
X521637704Y-199509523D02*
X522437704Y-199509523D01*
X522437704Y-199509523D02*
X521637704Y-199052380D01*
X521637704Y-199052380D02*
X522437704Y-199052380D01*
X521637704Y-198671428D02*
X522437704Y-198671428D01*
X522437704Y-198671428D02*
X521637704Y-198214285D01*
X521637704Y-198214285D02*
X522437704Y-198214285D01*
X522171038Y-197490476D02*
X521637704Y-197490476D01*
X522475800Y-197680952D02*
X521904371Y-197871429D01*
X521904371Y-197871429D02*
X521904371Y-197376190D01*
X513536104Y-166655714D02*
X513574200Y-166617618D01*
X513574200Y-166617618D02*
X513612295Y-166503333D01*
X513612295Y-166503333D02*
X513612295Y-166427142D01*
X513612295Y-166427142D02*
X513574200Y-166312856D01*
X513574200Y-166312856D02*
X513498009Y-166236666D01*
X513498009Y-166236666D02*
X513421819Y-166198571D01*
X513421819Y-166198571D02*
X513269438Y-166160475D01*
X513269438Y-166160475D02*
X513155152Y-166160475D01*
X513155152Y-166160475D02*
X513002771Y-166198571D01*
X513002771Y-166198571D02*
X512926580Y-166236666D01*
X512926580Y-166236666D02*
X512850390Y-166312856D01*
X512850390Y-166312856D02*
X512812295Y-166427142D01*
X512812295Y-166427142D02*
X512812295Y-166503333D01*
X512812295Y-166503333D02*
X512850390Y-166617618D01*
X512850390Y-166617618D02*
X512888485Y-166655714D01*
X513612295Y-167417618D02*
X513612295Y-166960475D01*
X513612295Y-167189047D02*
X512812295Y-167189047D01*
X512812295Y-167189047D02*
X512926580Y-167112856D01*
X512926580Y-167112856D02*
X513002771Y-167036666D01*
X513002771Y-167036666D02*
X513040866Y-166960475D01*
X513612295Y-168179523D02*
X513612295Y-167722380D01*
X513612295Y-167950952D02*
X512812295Y-167950952D01*
X512812295Y-167950952D02*
X512926580Y-167874761D01*
X512926580Y-167874761D02*
X513002771Y-167798571D01*
X513002771Y-167798571D02*
X513040866Y-167722380D01*
X342109523Y-204512295D02*
X342109523Y-205159914D01*
X342109523Y-205159914D02*
X342071428Y-205236104D01*
X342071428Y-205236104D02*
X342033333Y-205274200D01*
X342033333Y-205274200D02*
X341957142Y-205312295D01*
X341957142Y-205312295D02*
X341804761Y-205312295D01*
X341804761Y-205312295D02*
X341728571Y-205274200D01*
X341728571Y-205274200D02*
X341690476Y-205236104D01*
X341690476Y-205236104D02*
X341652380Y-205159914D01*
X341652380Y-205159914D02*
X341652380Y-204512295D01*
X341347619Y-204512295D02*
X340852381Y-204512295D01*
X340852381Y-204512295D02*
X341119047Y-204817057D01*
X341119047Y-204817057D02*
X341004762Y-204817057D01*
X341004762Y-204817057D02*
X340928571Y-204855152D01*
X340928571Y-204855152D02*
X340890476Y-204893247D01*
X340890476Y-204893247D02*
X340852381Y-204969438D01*
X340852381Y-204969438D02*
X340852381Y-205159914D01*
X340852381Y-205159914D02*
X340890476Y-205236104D01*
X340890476Y-205236104D02*
X340928571Y-205274200D01*
X340928571Y-205274200D02*
X341004762Y-205312295D01*
X341004762Y-205312295D02*
X341233333Y-205312295D01*
X341233333Y-205312295D02*
X341309524Y-205274200D01*
X341309524Y-205274200D02*
X341347619Y-205236104D01*
X519536104Y-175116667D02*
X519574200Y-175078571D01*
X519574200Y-175078571D02*
X519612295Y-174964286D01*
X519612295Y-174964286D02*
X519612295Y-174888095D01*
X519612295Y-174888095D02*
X519574200Y-174773809D01*
X519574200Y-174773809D02*
X519498009Y-174697619D01*
X519498009Y-174697619D02*
X519421819Y-174659524D01*
X519421819Y-174659524D02*
X519269438Y-174621428D01*
X519269438Y-174621428D02*
X519155152Y-174621428D01*
X519155152Y-174621428D02*
X519002771Y-174659524D01*
X519002771Y-174659524D02*
X518926580Y-174697619D01*
X518926580Y-174697619D02*
X518850390Y-174773809D01*
X518850390Y-174773809D02*
X518812295Y-174888095D01*
X518812295Y-174888095D02*
X518812295Y-174964286D01*
X518812295Y-174964286D02*
X518850390Y-175078571D01*
X518850390Y-175078571D02*
X518888485Y-175116667D01*
X519612295Y-175497619D02*
X519612295Y-175650000D01*
X519612295Y-175650000D02*
X519574200Y-175726190D01*
X519574200Y-175726190D02*
X519536104Y-175764286D01*
X519536104Y-175764286D02*
X519421819Y-175840476D01*
X519421819Y-175840476D02*
X519269438Y-175878571D01*
X519269438Y-175878571D02*
X518964676Y-175878571D01*
X518964676Y-175878571D02*
X518888485Y-175840476D01*
X518888485Y-175840476D02*
X518850390Y-175802381D01*
X518850390Y-175802381D02*
X518812295Y-175726190D01*
X518812295Y-175726190D02*
X518812295Y-175573809D01*
X518812295Y-175573809D02*
X518850390Y-175497619D01*
X518850390Y-175497619D02*
X518888485Y-175459524D01*
X518888485Y-175459524D02*
X518964676Y-175421428D01*
X518964676Y-175421428D02*
X519155152Y-175421428D01*
X519155152Y-175421428D02*
X519231342Y-175459524D01*
X519231342Y-175459524D02*
X519269438Y-175497619D01*
X519269438Y-175497619D02*
X519307533Y-175573809D01*
X519307533Y-175573809D02*
X519307533Y-175726190D01*
X519307533Y-175726190D02*
X519269438Y-175802381D01*
X519269438Y-175802381D02*
X519231342Y-175840476D01*
X519231342Y-175840476D02*
X519155152Y-175878571D01*
X517832295Y-171916667D02*
X517451342Y-171650000D01*
X517832295Y-171459524D02*
X517032295Y-171459524D01*
X517032295Y-171459524D02*
X517032295Y-171764286D01*
X517032295Y-171764286D02*
X517070390Y-171840476D01*
X517070390Y-171840476D02*
X517108485Y-171878571D01*
X517108485Y-171878571D02*
X517184676Y-171916667D01*
X517184676Y-171916667D02*
X517298961Y-171916667D01*
X517298961Y-171916667D02*
X517375152Y-171878571D01*
X517375152Y-171878571D02*
X517413247Y-171840476D01*
X517413247Y-171840476D02*
X517451342Y-171764286D01*
X517451342Y-171764286D02*
X517451342Y-171459524D01*
X517032295Y-172183333D02*
X517032295Y-172678571D01*
X517032295Y-172678571D02*
X517337057Y-172411905D01*
X517337057Y-172411905D02*
X517337057Y-172526190D01*
X517337057Y-172526190D02*
X517375152Y-172602381D01*
X517375152Y-172602381D02*
X517413247Y-172640476D01*
X517413247Y-172640476D02*
X517489438Y-172678571D01*
X517489438Y-172678571D02*
X517679914Y-172678571D01*
X517679914Y-172678571D02*
X517756104Y-172640476D01*
X517756104Y-172640476D02*
X517794200Y-172602381D01*
X517794200Y-172602381D02*
X517832295Y-172526190D01*
X517832295Y-172526190D02*
X517832295Y-172297619D01*
X517832295Y-172297619D02*
X517794200Y-172221428D01*
X517794200Y-172221428D02*
X517756104Y-172183333D01*
X526183332Y-189136104D02*
X526221428Y-189174200D01*
X526221428Y-189174200D02*
X526335713Y-189212295D01*
X526335713Y-189212295D02*
X526411904Y-189212295D01*
X526411904Y-189212295D02*
X526526190Y-189174200D01*
X526526190Y-189174200D02*
X526602380Y-189098009D01*
X526602380Y-189098009D02*
X526640475Y-189021819D01*
X526640475Y-189021819D02*
X526678571Y-188869438D01*
X526678571Y-188869438D02*
X526678571Y-188755152D01*
X526678571Y-188755152D02*
X526640475Y-188602771D01*
X526640475Y-188602771D02*
X526602380Y-188526580D01*
X526602380Y-188526580D02*
X526526190Y-188450390D01*
X526526190Y-188450390D02*
X526411904Y-188412295D01*
X526411904Y-188412295D02*
X526335713Y-188412295D01*
X526335713Y-188412295D02*
X526221428Y-188450390D01*
X526221428Y-188450390D02*
X526183332Y-188488485D01*
X525916666Y-188412295D02*
X525383332Y-188412295D01*
X525383332Y-188412295D02*
X525726190Y-189212295D01*
X504181342Y-188269048D02*
X504562295Y-188269048D01*
X503762295Y-188002381D02*
X504181342Y-188269048D01*
X504181342Y-188269048D02*
X503762295Y-188535714D01*
X504562295Y-189221428D02*
X504562295Y-188764285D01*
X504562295Y-188992857D02*
X503762295Y-188992857D01*
X503762295Y-188992857D02*
X503876580Y-188916666D01*
X503876580Y-188916666D02*
X503952771Y-188840476D01*
X503952771Y-188840476D02*
X503990866Y-188764285D01*
X521162295Y-163890476D02*
X521809914Y-163890476D01*
X521809914Y-163890476D02*
X521886104Y-163928571D01*
X521886104Y-163928571D02*
X521924200Y-163966666D01*
X521924200Y-163966666D02*
X521962295Y-164042857D01*
X521962295Y-164042857D02*
X521962295Y-164195238D01*
X521962295Y-164195238D02*
X521924200Y-164271428D01*
X521924200Y-164271428D02*
X521886104Y-164309523D01*
X521886104Y-164309523D02*
X521809914Y-164347619D01*
X521809914Y-164347619D02*
X521162295Y-164347619D01*
X521238485Y-164690475D02*
X521200390Y-164728571D01*
X521200390Y-164728571D02*
X521162295Y-164804761D01*
X521162295Y-164804761D02*
X521162295Y-164995237D01*
X521162295Y-164995237D02*
X521200390Y-165071428D01*
X521200390Y-165071428D02*
X521238485Y-165109523D01*
X521238485Y-165109523D02*
X521314676Y-165147618D01*
X521314676Y-165147618D02*
X521390866Y-165147618D01*
X521390866Y-165147618D02*
X521505152Y-165109523D01*
X521505152Y-165109523D02*
X521962295Y-164652380D01*
X521962295Y-164652380D02*
X521962295Y-165147618D01*
X497590475Y-182286104D02*
X497628571Y-182324200D01*
X497628571Y-182324200D02*
X497742856Y-182362295D01*
X497742856Y-182362295D02*
X497819047Y-182362295D01*
X497819047Y-182362295D02*
X497933333Y-182324200D01*
X497933333Y-182324200D02*
X498009523Y-182248009D01*
X498009523Y-182248009D02*
X498047618Y-182171819D01*
X498047618Y-182171819D02*
X498085714Y-182019438D01*
X498085714Y-182019438D02*
X498085714Y-181905152D01*
X498085714Y-181905152D02*
X498047618Y-181752771D01*
X498047618Y-181752771D02*
X498009523Y-181676580D01*
X498009523Y-181676580D02*
X497933333Y-181600390D01*
X497933333Y-181600390D02*
X497819047Y-181562295D01*
X497819047Y-181562295D02*
X497742856Y-181562295D01*
X497742856Y-181562295D02*
X497628571Y-181600390D01*
X497628571Y-181600390D02*
X497590475Y-181638485D01*
X497095237Y-181562295D02*
X496942856Y-181562295D01*
X496942856Y-181562295D02*
X496866666Y-181600390D01*
X496866666Y-181600390D02*
X496790475Y-181676580D01*
X496790475Y-181676580D02*
X496752380Y-181828961D01*
X496752380Y-181828961D02*
X496752380Y-182095628D01*
X496752380Y-182095628D02*
X496790475Y-182248009D01*
X496790475Y-182248009D02*
X496866666Y-182324200D01*
X496866666Y-182324200D02*
X496942856Y-182362295D01*
X496942856Y-182362295D02*
X497095237Y-182362295D01*
X497095237Y-182362295D02*
X497171428Y-182324200D01*
X497171428Y-182324200D02*
X497247618Y-182248009D01*
X497247618Y-182248009D02*
X497285714Y-182095628D01*
X497285714Y-182095628D02*
X497285714Y-181828961D01*
X497285714Y-181828961D02*
X497247618Y-181676580D01*
X497247618Y-181676580D02*
X497171428Y-181600390D01*
X497171428Y-181600390D02*
X497095237Y-181562295D01*
X496409523Y-182362295D02*
X496409523Y-181562295D01*
X496409523Y-181562295D02*
X495952380Y-182362295D01*
X495952380Y-182362295D02*
X495952380Y-181562295D01*
X495571428Y-182362295D02*
X495571428Y-181562295D01*
X495571428Y-181562295D02*
X495114285Y-182362295D01*
X495114285Y-182362295D02*
X495114285Y-181562295D01*
X494809524Y-181562295D02*
X494314286Y-181562295D01*
X494314286Y-181562295D02*
X494580952Y-181867057D01*
X494580952Y-181867057D02*
X494466667Y-181867057D01*
X494466667Y-181867057D02*
X494390476Y-181905152D01*
X494390476Y-181905152D02*
X494352381Y-181943247D01*
X494352381Y-181943247D02*
X494314286Y-182019438D01*
X494314286Y-182019438D02*
X494314286Y-182209914D01*
X494314286Y-182209914D02*
X494352381Y-182286104D01*
X494352381Y-182286104D02*
X494390476Y-182324200D01*
X494390476Y-182324200D02*
X494466667Y-182362295D01*
X494466667Y-182362295D02*
X494695238Y-182362295D01*
X494695238Y-182362295D02*
X494771429Y-182324200D01*
X494771429Y-182324200D02*
X494809524Y-182286104D01*
X336633332Y-204476104D02*
X336671428Y-204514200D01*
X336671428Y-204514200D02*
X336785713Y-204552295D01*
X336785713Y-204552295D02*
X336861904Y-204552295D01*
X336861904Y-204552295D02*
X336976190Y-204514200D01*
X336976190Y-204514200D02*
X337052380Y-204438009D01*
X337052380Y-204438009D02*
X337090475Y-204361819D01*
X337090475Y-204361819D02*
X337128571Y-204209438D01*
X337128571Y-204209438D02*
X337128571Y-204095152D01*
X337128571Y-204095152D02*
X337090475Y-203942771D01*
X337090475Y-203942771D02*
X337052380Y-203866580D01*
X337052380Y-203866580D02*
X336976190Y-203790390D01*
X336976190Y-203790390D02*
X336861904Y-203752295D01*
X336861904Y-203752295D02*
X336785713Y-203752295D01*
X336785713Y-203752295D02*
X336671428Y-203790390D01*
X336671428Y-203790390D02*
X336633332Y-203828485D01*
X336366666Y-203752295D02*
X335871428Y-203752295D01*
X335871428Y-203752295D02*
X336138094Y-204057057D01*
X336138094Y-204057057D02*
X336023809Y-204057057D01*
X336023809Y-204057057D02*
X335947618Y-204095152D01*
X335947618Y-204095152D02*
X335909523Y-204133247D01*
X335909523Y-204133247D02*
X335871428Y-204209438D01*
X335871428Y-204209438D02*
X335871428Y-204399914D01*
X335871428Y-204399914D02*
X335909523Y-204476104D01*
X335909523Y-204476104D02*
X335947618Y-204514200D01*
X335947618Y-204514200D02*
X336023809Y-204552295D01*
X336023809Y-204552295D02*
X336252380Y-204552295D01*
X336252380Y-204552295D02*
X336328571Y-204514200D01*
X336328571Y-204514200D02*
X336366666Y-204476104D01*
X512936104Y-176285714D02*
X512974200Y-176247618D01*
X512974200Y-176247618D02*
X513012295Y-176133333D01*
X513012295Y-176133333D02*
X513012295Y-176057142D01*
X513012295Y-176057142D02*
X512974200Y-175942856D01*
X512974200Y-175942856D02*
X512898009Y-175866666D01*
X512898009Y-175866666D02*
X512821819Y-175828571D01*
X512821819Y-175828571D02*
X512669438Y-175790475D01*
X512669438Y-175790475D02*
X512555152Y-175790475D01*
X512555152Y-175790475D02*
X512402771Y-175828571D01*
X512402771Y-175828571D02*
X512326580Y-175866666D01*
X512326580Y-175866666D02*
X512250390Y-175942856D01*
X512250390Y-175942856D02*
X512212295Y-176057142D01*
X512212295Y-176057142D02*
X512212295Y-176133333D01*
X512212295Y-176133333D02*
X512250390Y-176247618D01*
X512250390Y-176247618D02*
X512288485Y-176285714D01*
X513012295Y-177047618D02*
X513012295Y-176590475D01*
X513012295Y-176819047D02*
X512212295Y-176819047D01*
X512212295Y-176819047D02*
X512326580Y-176742856D01*
X512326580Y-176742856D02*
X512402771Y-176666666D01*
X512402771Y-176666666D02*
X512440866Y-176590475D01*
X513012295Y-177428571D02*
X513012295Y-177580952D01*
X513012295Y-177580952D02*
X512974200Y-177657142D01*
X512974200Y-177657142D02*
X512936104Y-177695238D01*
X512936104Y-177695238D02*
X512821819Y-177771428D01*
X512821819Y-177771428D02*
X512669438Y-177809523D01*
X512669438Y-177809523D02*
X512364676Y-177809523D01*
X512364676Y-177809523D02*
X512288485Y-177771428D01*
X512288485Y-177771428D02*
X512250390Y-177733333D01*
X512250390Y-177733333D02*
X512212295Y-177657142D01*
X512212295Y-177657142D02*
X512212295Y-177504761D01*
X512212295Y-177504761D02*
X512250390Y-177428571D01*
X512250390Y-177428571D02*
X512288485Y-177390476D01*
X512288485Y-177390476D02*
X512364676Y-177352380D01*
X512364676Y-177352380D02*
X512555152Y-177352380D01*
X512555152Y-177352380D02*
X512631342Y-177390476D01*
X512631342Y-177390476D02*
X512669438Y-177428571D01*
X512669438Y-177428571D02*
X512707533Y-177504761D01*
X512707533Y-177504761D02*
X512707533Y-177657142D01*
X512707533Y-177657142D02*
X512669438Y-177733333D01*
X512669438Y-177733333D02*
X512631342Y-177771428D01*
X512631342Y-177771428D02*
X512555152Y-177809523D01*
X508462295Y-191516667D02*
X508081342Y-191250000D01*
X508462295Y-191059524D02*
X507662295Y-191059524D01*
X507662295Y-191059524D02*
X507662295Y-191364286D01*
X507662295Y-191364286D02*
X507700390Y-191440476D01*
X507700390Y-191440476D02*
X507738485Y-191478571D01*
X507738485Y-191478571D02*
X507814676Y-191516667D01*
X507814676Y-191516667D02*
X507928961Y-191516667D01*
X507928961Y-191516667D02*
X508005152Y-191478571D01*
X508005152Y-191478571D02*
X508043247Y-191440476D01*
X508043247Y-191440476D02*
X508081342Y-191364286D01*
X508081342Y-191364286D02*
X508081342Y-191059524D01*
X507738485Y-191821428D02*
X507700390Y-191859524D01*
X507700390Y-191859524D02*
X507662295Y-191935714D01*
X507662295Y-191935714D02*
X507662295Y-192126190D01*
X507662295Y-192126190D02*
X507700390Y-192202381D01*
X507700390Y-192202381D02*
X507738485Y-192240476D01*
X507738485Y-192240476D02*
X507814676Y-192278571D01*
X507814676Y-192278571D02*
X507890866Y-192278571D01*
X507890866Y-192278571D02*
X508005152Y-192240476D01*
X508005152Y-192240476D02*
X508462295Y-191783333D01*
X508462295Y-191783333D02*
X508462295Y-192278571D01*
X527536104Y-175209524D02*
X527574200Y-175171428D01*
X527574200Y-175171428D02*
X527612295Y-175057143D01*
X527612295Y-175057143D02*
X527612295Y-174980952D01*
X527612295Y-174980952D02*
X527574200Y-174866666D01*
X527574200Y-174866666D02*
X527498009Y-174790476D01*
X527498009Y-174790476D02*
X527421819Y-174752381D01*
X527421819Y-174752381D02*
X527269438Y-174714285D01*
X527269438Y-174714285D02*
X527155152Y-174714285D01*
X527155152Y-174714285D02*
X527002771Y-174752381D01*
X527002771Y-174752381D02*
X526926580Y-174790476D01*
X526926580Y-174790476D02*
X526850390Y-174866666D01*
X526850390Y-174866666D02*
X526812295Y-174980952D01*
X526812295Y-174980952D02*
X526812295Y-175057143D01*
X526812295Y-175057143D02*
X526850390Y-175171428D01*
X526850390Y-175171428D02*
X526888485Y-175209524D01*
X526812295Y-175704762D02*
X526812295Y-175857143D01*
X526812295Y-175857143D02*
X526850390Y-175933333D01*
X526850390Y-175933333D02*
X526926580Y-176009524D01*
X526926580Y-176009524D02*
X527078961Y-176047619D01*
X527078961Y-176047619D02*
X527345628Y-176047619D01*
X527345628Y-176047619D02*
X527498009Y-176009524D01*
X527498009Y-176009524D02*
X527574200Y-175933333D01*
X527574200Y-175933333D02*
X527612295Y-175857143D01*
X527612295Y-175857143D02*
X527612295Y-175704762D01*
X527612295Y-175704762D02*
X527574200Y-175628571D01*
X527574200Y-175628571D02*
X527498009Y-175552381D01*
X527498009Y-175552381D02*
X527345628Y-175514285D01*
X527345628Y-175514285D02*
X527078961Y-175514285D01*
X527078961Y-175514285D02*
X526926580Y-175552381D01*
X526926580Y-175552381D02*
X526850390Y-175628571D01*
X526850390Y-175628571D02*
X526812295Y-175704762D01*
X527612295Y-176390476D02*
X526812295Y-176390476D01*
X526812295Y-176390476D02*
X527612295Y-176847619D01*
X527612295Y-176847619D02*
X526812295Y-176847619D01*
X527612295Y-177228571D02*
X526812295Y-177228571D01*
X526812295Y-177228571D02*
X527612295Y-177685714D01*
X527612295Y-177685714D02*
X526812295Y-177685714D01*
X527612295Y-178485713D02*
X527612295Y-178028570D01*
X527612295Y-178257142D02*
X526812295Y-178257142D01*
X526812295Y-178257142D02*
X526926580Y-178180951D01*
X526926580Y-178180951D02*
X527002771Y-178104761D01*
X527002771Y-178104761D02*
X527040866Y-178028570D01*
D12*
X503790000Y-184992164D02*
X503790000Y-185207836D01*
X504510000Y-184992164D02*
X504510000Y-185207836D01*
X524407836Y-187440000D02*
X524192164Y-187440000D01*
X524407836Y-188160000D02*
X524192164Y-188160000D01*
X512440000Y-192557836D02*
X512440000Y-192342164D01*
X513160000Y-192557836D02*
X513160000Y-192342164D01*
X512015000Y-163197064D02*
X512015000Y-162742936D01*
X513485000Y-163197064D02*
X513485000Y-162742936D01*
X514420000Y-192603641D02*
X514420000Y-192296359D01*
X515180000Y-192603641D02*
X515180000Y-192296359D01*
X521440000Y-169357836D02*
X521440000Y-169142164D01*
X522160000Y-169357836D02*
X522160000Y-169142164D01*
X508827836Y-182590000D02*
X508612164Y-182590000D01*
X508827836Y-183310000D02*
X508612164Y-183310000D01*
D13*
X485775800Y-203117700D02*
X485775800Y-200018900D01*
X486741000Y-203117700D02*
X485775800Y-203117700D01*
X487071200Y-197910700D02*
X496800000Y-197910700D01*
X498024200Y-200017400D02*
X498024200Y-203116200D01*
X498024200Y-203116200D02*
X497059000Y-203116200D01*
D12*
X519940000Y-176842164D02*
X519940000Y-177057836D01*
X520660000Y-176842164D02*
X520660000Y-177057836D01*
X511440000Y-179590000D02*
X511440000Y-180540000D01*
X511440000Y-188860000D02*
X511440000Y-189810000D01*
X511440000Y-189810000D02*
X512390000Y-189810000D01*
X512390000Y-179590000D02*
X511440000Y-179590000D01*
X520710000Y-189810000D02*
X521660000Y-189810000D01*
X521660000Y-179590000D02*
X520710000Y-179590000D01*
X521660000Y-180540000D02*
X521660000Y-179590000D01*
X521660000Y-189810000D02*
X521660000Y-188860000D01*
X511140000Y-189330000D02*
X510460000Y-189330000D01*
X510800000Y-188860000D01*
X511140000Y-189330000D01*
G36*
X511140000Y-189330000D02*
G01*
X510460000Y-189330000D01*
X510800000Y-188860000D01*
X511140000Y-189330000D01*
G37*
X509790000Y-190457836D02*
X509790000Y-190242164D01*
X510510000Y-190457836D02*
X510510000Y-190242164D01*
X506192164Y-189940000D02*
X506407836Y-189940000D01*
X506192164Y-190660000D02*
X506407836Y-190660000D01*
X504342164Y-182690000D02*
X504557836Y-182690000D01*
X504342164Y-183410000D02*
X504557836Y-183410000D01*
X508827836Y-181190000D02*
X508612164Y-181190000D01*
X508827836Y-181910000D02*
X508612164Y-181910000D01*
X484277064Y-188865000D02*
X483822936Y-188865000D01*
X484277064Y-190335000D02*
X483822936Y-190335000D01*
D14*
X512250000Y-202815000D02*
X512250000Y-199385000D01*
X521310000Y-199385000D02*
X521310000Y-202815000D01*
X521940000Y-203135000D02*
G75*
G02*
X521740000Y-203135000I-100000J0D01*
G01*
X521740000Y-203135000D02*
G75*
G02*
X521940000Y-203135000I100000J0D01*
G01*
D12*
X512890000Y-169327836D02*
X512890000Y-169112164D01*
X513610000Y-169327836D02*
X513610000Y-169112164D01*
X337640000Y-205790000D02*
X337640000Y-206055000D01*
X337640000Y-221145000D02*
X337640000Y-221410000D01*
X337640000Y-221410000D02*
X345360000Y-221410000D01*
X345360000Y-205790000D02*
X337640000Y-205790000D01*
X345360000Y-206055000D02*
X345360000Y-205790000D01*
X345360000Y-221410000D02*
X345360000Y-221145000D01*
X346150000Y-206050000D02*
X345810000Y-205580000D01*
X346490000Y-205580000D01*
X346150000Y-206050000D01*
G36*
X346150000Y-206050000D02*
G01*
X345810000Y-205580000D01*
X346490000Y-205580000D01*
X346150000Y-206050000D01*
G37*
X518890000Y-176842164D02*
X518890000Y-177057836D01*
X519610000Y-176842164D02*
X519610000Y-177057836D01*
X515920000Y-172203641D02*
X515920000Y-171896359D01*
X516680000Y-172203641D02*
X516680000Y-171896359D01*
X524407836Y-188490000D02*
X524192164Y-188490000D01*
X524407836Y-189210000D02*
X524192164Y-189210000D01*
X504640000Y-189460000D02*
X504990000Y-189460000D01*
X504990000Y-183990000D02*
X504990000Y-184040000D01*
X504990000Y-186160000D02*
X504990000Y-187340000D01*
X504990000Y-187340000D02*
X504640000Y-187340000D01*
X504990000Y-189460000D02*
X504990000Y-189510000D01*
X504990000Y-189510000D02*
X508710000Y-189510000D01*
X508710000Y-183990000D02*
X504990000Y-183990000D01*
X508710000Y-184040000D02*
X508710000Y-183990000D01*
X508710000Y-187340000D02*
X508710000Y-186160000D01*
X508710000Y-189510000D02*
X508710000Y-189460000D01*
X514040000Y-163790000D02*
X515300000Y-163790000D01*
X514040000Y-167550000D02*
X514040000Y-163790000D01*
X520860000Y-163790000D02*
X519600000Y-163790000D01*
X520860000Y-167550000D02*
X520860000Y-163790000D01*
X521090000Y-169070000D02*
X520760000Y-168830000D01*
X521090000Y-168590000D01*
X521090000Y-169070000D01*
G36*
X521090000Y-169070000D02*
G01*
X520760000Y-168830000D01*
X521090000Y-168590000D01*
X521090000Y-169070000D01*
G37*
D13*
X485775800Y-188117700D02*
X485775800Y-185018900D01*
X486741000Y-188117700D02*
X485775800Y-188117700D01*
X487071200Y-182910700D02*
X496800000Y-182910700D01*
X498024200Y-185017400D02*
X498024200Y-188116200D01*
X498024200Y-188116200D02*
X497059000Y-188116200D01*
D12*
X336607836Y-204990000D02*
X336392164Y-204990000D01*
X336607836Y-205710000D02*
X336392164Y-205710000D01*
X513290000Y-176842164D02*
X513290000Y-177057836D01*
X514010000Y-176842164D02*
X514010000Y-177057836D01*
X507720000Y-193503641D02*
X507720000Y-193196359D01*
X508480000Y-193503641D02*
X508480000Y-193196359D01*
D13*
X528233800Y-174725800D02*
X531332600Y-174725800D01*
X528233800Y-175691000D02*
X528233800Y-174725800D01*
X528233800Y-180974200D02*
X528233800Y-180009000D01*
X531332600Y-180974200D02*
X528233800Y-180974200D01*
X533440800Y-176021200D02*
X533440800Y-179678800D01*
%LPC*%
D15*
X252750000Y-228600000D03*
X250250000Y-228600000D03*
X252750000Y-158600000D03*
X255250000Y-228600000D03*
X257750000Y-228600000D03*
D16*
X254000000Y-218600000D03*
X254000000Y-171100000D03*
D15*
X257750000Y-158600000D03*
D17*
X338250000Y-191350000D03*
X344750000Y-191350000D03*
X338250000Y-195850000D03*
X344750000Y-195850000D03*
D15*
X177750000Y-228600000D03*
X175250000Y-228600000D03*
X177750000Y-158600000D03*
X180250000Y-228600000D03*
X182750000Y-228600000D03*
D16*
X179000000Y-218600000D03*
X179000000Y-171100000D03*
D15*
X182750000Y-158600000D03*
X352750000Y-228600000D03*
X350250000Y-228600000D03*
X352750000Y-158600000D03*
X355250000Y-228600000D03*
X357750000Y-228600000D03*
D16*
X354000000Y-218600000D03*
X354000000Y-171100000D03*
D15*
X357750000Y-158600000D03*
X502750000Y-228600000D03*
X500250000Y-228600000D03*
X502750000Y-158600000D03*
X505250000Y-228600000D03*
X507750000Y-228600000D03*
D16*
X504000000Y-218600000D03*
X504000000Y-171100000D03*
D15*
X507750000Y-158600000D03*
X377750000Y-228600000D03*
X375250000Y-228600000D03*
X377750000Y-158600000D03*
X380250000Y-228600000D03*
X382750000Y-228600000D03*
D16*
X379000000Y-218600000D03*
X379000000Y-171100000D03*
D15*
X382750000Y-158600000D03*
X527750000Y-228600000D03*
X525250000Y-228600000D03*
X527750000Y-158600000D03*
X530250000Y-228600000D03*
X532750000Y-228600000D03*
D16*
X529000000Y-218600000D03*
X529000000Y-171100000D03*
D15*
X532750000Y-158600000D03*
X327750000Y-228600000D03*
X325250000Y-228600000D03*
X327750000Y-158600000D03*
X330250000Y-228600000D03*
X332750000Y-228600000D03*
D16*
X329000000Y-218600000D03*
X329000000Y-171100000D03*
D15*
X332750000Y-158600000D03*
X427750000Y-228600000D03*
X425250000Y-228600000D03*
X427750000Y-158600000D03*
X430250000Y-228600000D03*
X432750000Y-228600000D03*
D16*
X429000000Y-218600000D03*
X429000000Y-171100000D03*
D15*
X432750000Y-158600000D03*
X452750000Y-228600000D03*
X450250000Y-228600000D03*
X452750000Y-158600000D03*
X455250000Y-228600000D03*
X457750000Y-228600000D03*
D16*
X454000000Y-218600000D03*
X454000000Y-171100000D03*
D15*
X457750000Y-158600000D03*
X227750000Y-228600000D03*
X225250000Y-228600000D03*
X227750000Y-158600000D03*
X230250000Y-228600000D03*
X232750000Y-228600000D03*
D16*
X229000000Y-218600000D03*
X229000000Y-171100000D03*
D15*
X232750000Y-158600000D03*
X202750000Y-228600000D03*
X200250000Y-228600000D03*
X202750000Y-158600000D03*
X205250000Y-228600000D03*
X207750000Y-228600000D03*
D16*
X204000000Y-218600000D03*
X204000000Y-171100000D03*
D15*
X207750000Y-158600000D03*
X277750000Y-228600000D03*
X275250000Y-228600000D03*
X277750000Y-158600000D03*
X280250000Y-228600000D03*
X282750000Y-228600000D03*
D16*
X279000000Y-218600000D03*
X279000000Y-171100000D03*
D15*
X282750000Y-158600000D03*
X152750000Y-228600000D03*
X150250000Y-228600000D03*
X152750000Y-158600000D03*
X155250000Y-228600000D03*
X157750000Y-228600000D03*
D16*
X154000000Y-218600000D03*
X154000000Y-171100000D03*
D15*
X157750000Y-158600000D03*
X477750000Y-228600000D03*
X475250000Y-228600000D03*
X477750000Y-158600000D03*
X480250000Y-228600000D03*
X482750000Y-228600000D03*
D16*
X479000000Y-218600000D03*
X479000000Y-171100000D03*
D15*
X482750000Y-158600000D03*
X302750000Y-228600000D03*
X300250000Y-228600000D03*
X302750000Y-158600000D03*
X305250000Y-228600000D03*
X307750000Y-228600000D03*
D16*
X304000000Y-218600000D03*
X304000000Y-171100000D03*
D15*
X307750000Y-158600000D03*
X402750000Y-228600000D03*
X400250000Y-228600000D03*
X402750000Y-158600000D03*
X405250000Y-228600000D03*
X407750000Y-228600000D03*
D16*
X404000000Y-218600000D03*
X404000000Y-171100000D03*
D15*
X407750000Y-158600000D03*
D18*
X504150000Y-184620000D03*
X504150000Y-185580000D03*
D19*
X524780000Y-187800000D03*
X523820000Y-187800000D03*
D20*
X512800000Y-192930000D03*
X512800000Y-191970000D03*
D21*
X512750000Y-163882500D03*
X512750000Y-162057500D03*
D22*
X514800000Y-192960000D03*
X514800000Y-191940000D03*
D20*
X521800000Y-169730000D03*
X521800000Y-168770000D03*
D19*
X509200000Y-182950000D03*
X508240000Y-182950000D03*
D23*
X487400000Y-202600000D03*
X488400000Y-202600000D03*
X489400000Y-202600000D03*
X490400000Y-202600000D03*
X491400000Y-202600000D03*
X492400000Y-202600000D03*
X493400000Y-202598500D03*
X494400000Y-202598500D03*
X495400000Y-202598500D03*
X496400000Y-202598500D03*
D24*
X497700000Y-198723500D03*
X486100000Y-198725000D03*
D18*
X520300000Y-176470000D03*
X520300000Y-177430000D03*
D25*
X510875000Y-188450000D03*
X510875000Y-187950000D03*
X510875000Y-187450000D03*
X510875000Y-186950000D03*
X510875000Y-186450000D03*
X510875000Y-185950000D03*
X510875000Y-185450000D03*
X510875000Y-184950000D03*
X510875000Y-184450000D03*
X510875000Y-183950000D03*
X510875000Y-183450000D03*
X510875000Y-182950000D03*
X510875000Y-182450000D03*
X510875000Y-181950000D03*
X510875000Y-181450000D03*
X510875000Y-180950000D03*
D26*
X512800000Y-179025000D03*
X513300000Y-179025000D03*
X513800000Y-179025000D03*
X514300000Y-179025000D03*
X514800000Y-179025000D03*
X515300000Y-179025000D03*
X515800000Y-179025000D03*
X516300000Y-179025000D03*
X516800000Y-179025000D03*
X517300000Y-179025000D03*
X517800000Y-179025000D03*
X518300000Y-179025000D03*
X518800000Y-179025000D03*
X519300000Y-179025000D03*
X519800000Y-179025000D03*
X520300000Y-179025000D03*
D25*
X522225000Y-180950000D03*
X522225000Y-181450000D03*
X522225000Y-181950000D03*
X522225000Y-182450000D03*
X522225000Y-182950000D03*
X522225000Y-183450000D03*
X522225000Y-183950000D03*
X522225000Y-184450000D03*
X522225000Y-184950000D03*
X522225000Y-185450000D03*
X522225000Y-185950000D03*
X522225000Y-186450000D03*
X522225000Y-186950000D03*
X522225000Y-187450000D03*
X522225000Y-187950000D03*
X522225000Y-188450000D03*
D26*
X520300000Y-190375000D03*
X519800000Y-190375000D03*
X519300000Y-190375000D03*
X518800000Y-190375000D03*
X518300000Y-190375000D03*
X517800000Y-190375000D03*
X517300000Y-190375000D03*
X516800000Y-190375000D03*
X516300000Y-190375000D03*
X515800000Y-190375000D03*
X515300000Y-190375000D03*
X514800000Y-190375000D03*
X514300000Y-190375000D03*
X513800000Y-190375000D03*
X513300000Y-190375000D03*
X512800000Y-190375000D03*
D20*
X510150000Y-190830000D03*
X510150000Y-189870000D03*
D27*
X505820000Y-190300000D03*
X506780000Y-190300000D03*
X503970000Y-183050000D03*
X504930000Y-183050000D03*
D19*
X509200000Y-181550000D03*
X508240000Y-181550000D03*
D28*
X484962500Y-189600000D03*
X483137500Y-189600000D03*
D29*
X520590000Y-203135000D03*
X520590000Y-199065000D03*
X519320000Y-203135000D03*
X519320000Y-199065000D03*
X518050000Y-203135000D03*
X518050000Y-199065000D03*
X516780000Y-203135000D03*
X516780000Y-199065000D03*
X515510000Y-203135000D03*
X515510000Y-199065000D03*
X514240000Y-203135000D03*
X514240000Y-199065000D03*
X512970000Y-203135000D03*
X512970000Y-199065000D03*
D20*
X513250000Y-169700000D03*
X513250000Y-168740000D03*
D30*
X346150000Y-206615000D03*
X346150000Y-207885000D03*
X346150000Y-209155000D03*
X346150000Y-210425000D03*
X346150000Y-211695000D03*
X346150000Y-212965000D03*
X346150000Y-214235000D03*
X346150000Y-215505000D03*
X346150000Y-216775000D03*
X346150000Y-218045000D03*
X346150000Y-219315000D03*
X346150000Y-220585000D03*
X336850000Y-220585000D03*
X336850000Y-219315000D03*
X336850000Y-218045000D03*
X336850000Y-216775000D03*
X336850000Y-215505000D03*
X336850000Y-214235000D03*
X336850000Y-212965000D03*
X336850000Y-211695000D03*
X336850000Y-210425000D03*
X336850000Y-209155000D03*
X336850000Y-207885000D03*
X336850000Y-206615000D03*
D18*
X519250000Y-176470000D03*
X519250000Y-177430000D03*
D22*
X516300000Y-172560000D03*
X516300000Y-171540000D03*
D19*
X524780000Y-188850000D03*
X523820000Y-188850000D03*
D31*
X505850000Y-188400000D03*
X505850000Y-185100000D03*
X507850000Y-185100000D03*
X507850000Y-188400000D03*
D32*
X519750000Y-168850000D03*
X517450000Y-168850000D03*
X515150000Y-168850000D03*
D33*
X517450000Y-162550000D03*
D23*
X487400000Y-187600000D03*
X488400000Y-187600000D03*
X489400000Y-187600000D03*
X490400000Y-187600000D03*
X491400000Y-187600000D03*
X492400000Y-187600000D03*
X493400000Y-187598500D03*
X494400000Y-187598500D03*
X495400000Y-187598500D03*
X496400000Y-187598500D03*
D24*
X497700000Y-183723500D03*
X486100000Y-183725000D03*
D19*
X336980000Y-205350000D03*
X336020000Y-205350000D03*
D18*
X513650000Y-176470000D03*
X513650000Y-177430000D03*
D22*
X508100000Y-193860000D03*
X508100000Y-192840000D03*
D34*
X528751500Y-176350000D03*
X528751500Y-177350000D03*
X528751500Y-178350000D03*
X528751500Y-179350000D03*
D35*
X532626500Y-180650000D03*
X532626500Y-175050000D03*
%LPD*%
M02*
