%TF.GenerationSoftware,KiCad,Pcbnew,9.0.6*%
%TF.CreationDate,2025-12-16T13:31:08+01:00*%
%TF.ProjectId,MBO,4d424f2e-6b69-4636-9164-5f7063625858,rev?*%
%TF.SameCoordinates,Original*%
%TF.FileFunction,Drillmap*%
%TF.FilePolarity,Positive*%
%FSLAX45Y45*%
G04 Gerber Fmt 4.5, Leading zero omitted, Abs format (unit mm)*
G04 Created by KiCad (PCBNEW 9.0.6) date 2025-12-16 13:31:08*
%MOMM*%
%LPD*%
G01*
G04 APERTURE LIST*
%ADD10C,0.050000*%
%ADD11C,0.200000*%
%ADD12C,0.100000*%
%ADD13C,0.110000*%
%ADD14C,0.120000*%
G04 APERTURE END LIST*
D10*
X14650000Y-15450000D02*
X53650000Y-15450000D01*
X53650000Y-23270000D01*
X14650000Y-23270000D01*
X14650000Y-15450000D01*
D11*
D12*
X45725000Y-19579279D02*
X45765000Y-19619279D01*
X45765000Y-19579279D02*
X45725000Y-19619279D01*
X45725000Y-19674519D02*
X45765000Y-19714519D01*
X45765000Y-19674519D02*
X45725000Y-19714519D01*
X45725000Y-19769760D02*
X45765000Y-19809760D01*
X45765000Y-19769760D02*
X45725000Y-19809760D01*
X45725000Y-19865000D02*
X45765000Y-19905000D01*
X45765000Y-19865000D02*
X45725000Y-19905000D01*
X48560000Y-20035000D02*
X48600000Y-20075000D01*
X48600000Y-20035000D02*
X48560000Y-20075000D01*
X48630000Y-18940000D02*
X48670000Y-18980000D01*
X48670000Y-18940000D02*
X48630000Y-18980000D01*
X48825000Y-19675000D02*
X48865000Y-19715000D01*
X48865000Y-19675000D02*
X48825000Y-19715000D01*
X48950000Y-19585000D02*
X48990000Y-19625000D01*
X48990000Y-19585000D02*
X48950000Y-19625000D01*
X48950000Y-19770000D02*
X48990000Y-19810000D01*
X48990000Y-19770000D02*
X48950000Y-19810000D01*
X49020000Y-19865000D02*
X49060000Y-19905000D01*
X49060000Y-19865000D02*
X49020000Y-19905000D01*
X49257500Y-19430000D02*
X49297500Y-19470000D01*
X49297500Y-19430000D02*
X49257500Y-19470000D01*
X49504841Y-19457417D02*
X49544841Y-19497417D01*
X49544841Y-19457417D02*
X49504841Y-19497417D01*
X49585000Y-17815000D02*
X49625000Y-17855000D01*
X49625000Y-17815000D02*
X49585000Y-17855000D01*
X49660000Y-18555000D02*
X49700000Y-18595000D01*
X49700000Y-18555000D02*
X49660000Y-18595000D01*
X49997500Y-20165000D02*
X50037500Y-20205000D01*
X50037500Y-20165000D02*
X49997500Y-20205000D01*
X50170000Y-17780000D02*
X50210000Y-17820000D01*
X50210000Y-17780000D02*
X50170000Y-17820000D01*
X50265000Y-18280000D02*
X50305000Y-18320000D01*
X50305000Y-18280000D02*
X50265000Y-18320000D01*
X50320000Y-20860000D02*
X50360000Y-20900000D01*
X50360000Y-20860000D02*
X50320000Y-20900000D01*
X50355000Y-21475000D02*
X50395000Y-21515000D01*
X50395000Y-21475000D02*
X50355000Y-21515000D01*
X50375000Y-19785000D02*
X50415000Y-19825000D01*
X50415000Y-19785000D02*
X50375000Y-19825000D01*
X50385000Y-18685000D02*
X50425000Y-18725000D01*
X50425000Y-18685000D02*
X50385000Y-18725000D01*
X50400000Y-19070000D02*
X50440000Y-19110000D01*
X50440000Y-19070000D02*
X50400000Y-19110000D01*
X50530000Y-20420000D02*
X50570000Y-20460000D01*
X50570000Y-20420000D02*
X50530000Y-20460000D01*
X50605000Y-18280000D02*
X50645000Y-18320000D01*
X50645000Y-18280000D02*
X50605000Y-18320000D01*
X50690000Y-16375000D02*
X50730000Y-16415000D01*
X50730000Y-16375000D02*
X50690000Y-16415000D01*
X50720000Y-18285000D02*
X50760000Y-18325000D01*
X50760000Y-18285000D02*
X50720000Y-18325000D01*
X50730000Y-19635000D02*
X50770000Y-19675000D01*
X50770000Y-19635000D02*
X50730000Y-19675000D01*
X50760000Y-20085000D02*
X50800000Y-20125000D01*
X50800000Y-20085000D02*
X50760000Y-20125000D01*
X50785000Y-19010000D02*
X50825000Y-19050000D01*
X50825000Y-19010000D02*
X50785000Y-19050000D01*
X50800000Y-18040000D02*
X50840000Y-18080000D01*
X50840000Y-18040000D02*
X50800000Y-18080000D01*
X51040000Y-19475000D02*
X51080000Y-19515000D01*
X51080000Y-19475000D02*
X51040000Y-19515000D01*
X51060000Y-19870000D02*
X51100000Y-19910000D01*
X51100000Y-19870000D02*
X51060000Y-19910000D01*
X51105000Y-19065000D02*
X51145000Y-19105000D01*
X51145000Y-19065000D02*
X51105000Y-19105000D01*
X51330000Y-17525000D02*
X51370000Y-17565000D01*
X51370000Y-17525000D02*
X51330000Y-17565000D01*
X51355000Y-21475000D02*
X51395000Y-21515000D01*
X51395000Y-21475000D02*
X51355000Y-21515000D01*
X51360000Y-19275000D02*
X51400000Y-19315000D01*
X51400000Y-19275000D02*
X51360000Y-19315000D01*
X51405000Y-20090000D02*
X51445000Y-20130000D01*
X51445000Y-20090000D02*
X51405000Y-20130000D01*
X51420000Y-20760000D02*
X51460000Y-20800000D01*
X51460000Y-20760000D02*
X51420000Y-20800000D01*
X51440000Y-16235000D02*
X51480000Y-16275000D01*
X51480000Y-16235000D02*
X51440000Y-16275000D01*
X51580000Y-18610000D02*
X51620000Y-18650000D01*
X51620000Y-18610000D02*
X51580000Y-18650000D01*
X51612500Y-16600000D02*
X51652500Y-16640000D01*
X51652500Y-16600000D02*
X51612500Y-16640000D01*
X51720000Y-20090000D02*
X51760000Y-20130000D01*
X51760000Y-20090000D02*
X51720000Y-20130000D01*
X51730000Y-18190000D02*
X51770000Y-18230000D01*
X51770000Y-18190000D02*
X51730000Y-18230000D01*
X51730000Y-19395000D02*
X51770000Y-19435000D01*
X51770000Y-19395000D02*
X51730000Y-19435000D01*
X51915000Y-17325000D02*
X51955000Y-17365000D01*
X51955000Y-17325000D02*
X51915000Y-17365000D01*
X51955000Y-16675000D02*
X51995000Y-16715000D01*
X51995000Y-16675000D02*
X51955000Y-16715000D01*
X52050000Y-20720000D02*
X52090000Y-20760000D01*
X52090000Y-20720000D02*
X52050000Y-20760000D01*
X52162500Y-17060000D02*
X52202500Y-17100000D01*
X52202500Y-17060000D02*
X52162500Y-17100000D01*
X52200000Y-19645000D02*
X52240000Y-19685000D01*
X52240000Y-19645000D02*
X52200000Y-19685000D01*
X52205000Y-19185000D02*
X52245000Y-19225000D01*
X52245000Y-19185000D02*
X52205000Y-19225000D01*
X52245000Y-17970000D02*
X52285000Y-18010000D01*
X52285000Y-17970000D02*
X52245000Y-18010000D01*
X52260000Y-16857500D02*
X52300000Y-16897500D01*
X52300000Y-16857500D02*
X52260000Y-16897500D01*
X52430000Y-17440000D02*
X52470000Y-17480000D01*
X52470000Y-17440000D02*
X52430000Y-17480000D01*
X52460000Y-19000000D02*
X52500000Y-19040000D01*
X52500000Y-19000000D02*
X52460000Y-19040000D01*
X52540000Y-20270000D02*
X52580000Y-20310000D01*
X52580000Y-20270000D02*
X52540000Y-20310000D01*
X52575000Y-19635000D02*
X52615000Y-19675000D01*
X52615000Y-19635000D02*
X52575000Y-19675000D01*
X52685000Y-17920000D02*
X52725000Y-17960000D01*
X52725000Y-17920000D02*
X52685000Y-17960000D01*
X52690000Y-19235000D02*
X52730000Y-19275000D01*
X52730000Y-19235000D02*
X52690000Y-19275000D01*
X52715000Y-21460000D02*
X52755000Y-21500000D01*
X52755000Y-21460000D02*
X52715000Y-21500000D01*
X52815000Y-18800000D02*
X52855000Y-18840000D01*
X52855000Y-18800000D02*
X52815000Y-18840000D01*
X52820000Y-20495000D02*
X52860000Y-20535000D01*
X52860000Y-20495000D02*
X52820000Y-20535000D01*
X53115000Y-17775000D02*
X53155000Y-17815000D01*
X53155000Y-17775000D02*
X53115000Y-17815000D01*
D13*
X33880000Y-19135000D02*
G75*
G02*
X33770000Y-19135000I-55000J0D01*
G01*
X33770000Y-19135000D02*
G75*
G02*
X33880000Y-19135000I55000J0D01*
G01*
X33880000Y-19585000D02*
G75*
G02*
X33770000Y-19585000I-55000J0D01*
G01*
X33770000Y-19585000D02*
G75*
G02*
X33880000Y-19585000I55000J0D01*
G01*
X34530000Y-19135000D02*
G75*
G02*
X34420000Y-19135000I-55000J0D01*
G01*
X34420000Y-19135000D02*
G75*
G02*
X34530000Y-19135000I55000J0D01*
G01*
X34530000Y-19585000D02*
G75*
G02*
X34420000Y-19585000I-55000J0D01*
G01*
X34420000Y-19585000D02*
G75*
G02*
X34530000Y-19585000I55000J0D01*
G01*
D14*
X15025000Y-22800000D02*
X15025000Y-22920000D01*
X14965000Y-22860000D02*
X15085000Y-22860000D01*
X15275000Y-15800000D02*
X15275000Y-15920000D01*
X15215000Y-15860000D02*
X15335000Y-15860000D01*
X15275000Y-22800000D02*
X15275000Y-22920000D01*
X15215000Y-22860000D02*
X15335000Y-22860000D01*
X15525000Y-22800000D02*
X15525000Y-22920000D01*
X15465000Y-22860000D02*
X15585000Y-22860000D01*
X15775000Y-15800000D02*
X15775000Y-15920000D01*
X15715000Y-15860000D02*
X15835000Y-15860000D01*
X15775000Y-22800000D02*
X15775000Y-22920000D01*
X15715000Y-22860000D02*
X15835000Y-22860000D01*
X17525000Y-22800000D02*
X17525000Y-22920000D01*
X17465000Y-22860000D02*
X17585000Y-22860000D01*
X17775000Y-15800000D02*
X17775000Y-15920000D01*
X17715000Y-15860000D02*
X17835000Y-15860000D01*
X17775000Y-22800000D02*
X17775000Y-22920000D01*
X17715000Y-22860000D02*
X17835000Y-22860000D01*
X18025000Y-22800000D02*
X18025000Y-22920000D01*
X17965000Y-22860000D02*
X18085000Y-22860000D01*
X18275000Y-15800000D02*
X18275000Y-15920000D01*
X18215000Y-15860000D02*
X18335000Y-15860000D01*
X18275000Y-22800000D02*
X18275000Y-22920000D01*
X18215000Y-22860000D02*
X18335000Y-22860000D01*
X20025000Y-22800000D02*
X20025000Y-22920000D01*
X19965000Y-22860000D02*
X20085000Y-22860000D01*
X20275000Y-15800000D02*
X20275000Y-15920000D01*
X20215000Y-15860000D02*
X20335000Y-15860000D01*
X20275000Y-22800000D02*
X20275000Y-22920000D01*
X20215000Y-22860000D02*
X20335000Y-22860000D01*
X20525000Y-22800000D02*
X20525000Y-22920000D01*
X20465000Y-22860000D02*
X20585000Y-22860000D01*
X20775000Y-15800000D02*
X20775000Y-15920000D01*
X20715000Y-15860000D02*
X20835000Y-15860000D01*
X20775000Y-22800000D02*
X20775000Y-22920000D01*
X20715000Y-22860000D02*
X20835000Y-22860000D01*
X22525000Y-22800000D02*
X22525000Y-22920000D01*
X22465000Y-22860000D02*
X22585000Y-22860000D01*
X22775000Y-15800000D02*
X22775000Y-15920000D01*
X22715000Y-15860000D02*
X22835000Y-15860000D01*
X22775000Y-22800000D02*
X22775000Y-22920000D01*
X22715000Y-22860000D02*
X22835000Y-22860000D01*
X23025000Y-22800000D02*
X23025000Y-22920000D01*
X22965000Y-22860000D02*
X23085000Y-22860000D01*
X23275000Y-15800000D02*
X23275000Y-15920000D01*
X23215000Y-15860000D02*
X23335000Y-15860000D01*
X23275000Y-22800000D02*
X23275000Y-22920000D01*
X23215000Y-22860000D02*
X23335000Y-22860000D01*
X25025000Y-22800000D02*
X25025000Y-22920000D01*
X24965000Y-22860000D02*
X25085000Y-22860000D01*
X25275000Y-15800000D02*
X25275000Y-15920000D01*
X25215000Y-15860000D02*
X25335000Y-15860000D01*
X25275000Y-22800000D02*
X25275000Y-22920000D01*
X25215000Y-22860000D02*
X25335000Y-22860000D01*
X25525000Y-22800000D02*
X25525000Y-22920000D01*
X25465000Y-22860000D02*
X25585000Y-22860000D01*
X25775000Y-15800000D02*
X25775000Y-15920000D01*
X25715000Y-15860000D02*
X25835000Y-15860000D01*
X25775000Y-22800000D02*
X25775000Y-22920000D01*
X25715000Y-22860000D02*
X25835000Y-22860000D01*
X27525000Y-22800000D02*
X27525000Y-22920000D01*
X27465000Y-22860000D02*
X27585000Y-22860000D01*
X27775000Y-15800000D02*
X27775000Y-15920000D01*
X27715000Y-15860000D02*
X27835000Y-15860000D01*
X27775000Y-22800000D02*
X27775000Y-22920000D01*
X27715000Y-22860000D02*
X27835000Y-22860000D01*
X28025000Y-22800000D02*
X28025000Y-22920000D01*
X27965000Y-22860000D02*
X28085000Y-22860000D01*
X28275000Y-15800000D02*
X28275000Y-15920000D01*
X28215000Y-15860000D02*
X28335000Y-15860000D01*
X28275000Y-22800000D02*
X28275000Y-22920000D01*
X28215000Y-22860000D02*
X28335000Y-22860000D01*
X30025000Y-22800000D02*
X30025000Y-22920000D01*
X29965000Y-22860000D02*
X30085000Y-22860000D01*
X30275000Y-15800000D02*
X30275000Y-15920000D01*
X30215000Y-15860000D02*
X30335000Y-15860000D01*
X30275000Y-22800000D02*
X30275000Y-22920000D01*
X30215000Y-22860000D02*
X30335000Y-22860000D01*
X30525000Y-22800000D02*
X30525000Y-22920000D01*
X30465000Y-22860000D02*
X30585000Y-22860000D01*
X30775000Y-15800000D02*
X30775000Y-15920000D01*
X30715000Y-15860000D02*
X30835000Y-15860000D01*
X30775000Y-22800000D02*
X30775000Y-22920000D01*
X30715000Y-22860000D02*
X30835000Y-22860000D01*
X32525000Y-22800000D02*
X32525000Y-22920000D01*
X32465000Y-22860000D02*
X32585000Y-22860000D01*
X32775000Y-15800000D02*
X32775000Y-15920000D01*
X32715000Y-15860000D02*
X32835000Y-15860000D01*
X32775000Y-22800000D02*
X32775000Y-22920000D01*
X32715000Y-22860000D02*
X32835000Y-22860000D01*
X33025000Y-22800000D02*
X33025000Y-22920000D01*
X32965000Y-22860000D02*
X33085000Y-22860000D01*
X33275000Y-15800000D02*
X33275000Y-15920000D01*
X33215000Y-15860000D02*
X33335000Y-15860000D01*
X33275000Y-22800000D02*
X33275000Y-22920000D01*
X33215000Y-22860000D02*
X33335000Y-22860000D01*
X35025000Y-22800000D02*
X35025000Y-22920000D01*
X34965000Y-22860000D02*
X35085000Y-22860000D01*
X35275000Y-15800000D02*
X35275000Y-15920000D01*
X35215000Y-15860000D02*
X35335000Y-15860000D01*
X35275000Y-22800000D02*
X35275000Y-22920000D01*
X35215000Y-22860000D02*
X35335000Y-22860000D01*
X35525000Y-22800000D02*
X35525000Y-22920000D01*
X35465000Y-22860000D02*
X35585000Y-22860000D01*
X35775000Y-15800000D02*
X35775000Y-15920000D01*
X35715000Y-15860000D02*
X35835000Y-15860000D01*
X35775000Y-22800000D02*
X35775000Y-22920000D01*
X35715000Y-22860000D02*
X35835000Y-22860000D01*
X37525000Y-22800000D02*
X37525000Y-22920000D01*
X37465000Y-22860000D02*
X37585000Y-22860000D01*
X37775000Y-15800000D02*
X37775000Y-15920000D01*
X37715000Y-15860000D02*
X37835000Y-15860000D01*
X37775000Y-22800000D02*
X37775000Y-22920000D01*
X37715000Y-22860000D02*
X37835000Y-22860000D01*
X38025000Y-22800000D02*
X38025000Y-22920000D01*
X37965000Y-22860000D02*
X38085000Y-22860000D01*
X38275000Y-15800000D02*
X38275000Y-15920000D01*
X38215000Y-15860000D02*
X38335000Y-15860000D01*
X38275000Y-22800000D02*
X38275000Y-22920000D01*
X38215000Y-22860000D02*
X38335000Y-22860000D01*
X40025000Y-22800000D02*
X40025000Y-22920000D01*
X39965000Y-22860000D02*
X40085000Y-22860000D01*
X40275000Y-15800000D02*
X40275000Y-15920000D01*
X40215000Y-15860000D02*
X40335000Y-15860000D01*
X40275000Y-22800000D02*
X40275000Y-22920000D01*
X40215000Y-22860000D02*
X40335000Y-22860000D01*
X40525000Y-22800000D02*
X40525000Y-22920000D01*
X40465000Y-22860000D02*
X40585000Y-22860000D01*
X40775000Y-15800000D02*
X40775000Y-15920000D01*
X40715000Y-15860000D02*
X40835000Y-15860000D01*
X40775000Y-22800000D02*
X40775000Y-22920000D01*
X40715000Y-22860000D02*
X40835000Y-22860000D01*
X42525000Y-22800000D02*
X42525000Y-22920000D01*
X42465000Y-22860000D02*
X42585000Y-22860000D01*
X42775000Y-15800000D02*
X42775000Y-15920000D01*
X42715000Y-15860000D02*
X42835000Y-15860000D01*
X42775000Y-22800000D02*
X42775000Y-22920000D01*
X42715000Y-22860000D02*
X42835000Y-22860000D01*
X43025000Y-22800000D02*
X43025000Y-22920000D01*
X42965000Y-22860000D02*
X43085000Y-22860000D01*
X43275000Y-15800000D02*
X43275000Y-15920000D01*
X43215000Y-15860000D02*
X43335000Y-15860000D01*
X43275000Y-22800000D02*
X43275000Y-22920000D01*
X43215000Y-22860000D02*
X43335000Y-22860000D01*
X45025000Y-22800000D02*
X45025000Y-22920000D01*
X44965000Y-22860000D02*
X45085000Y-22860000D01*
X45275000Y-15800000D02*
X45275000Y-15920000D01*
X45215000Y-15860000D02*
X45335000Y-15860000D01*
X45275000Y-22800000D02*
X45275000Y-22920000D01*
X45215000Y-22860000D02*
X45335000Y-22860000D01*
X45525000Y-22800000D02*
X45525000Y-22920000D01*
X45465000Y-22860000D02*
X45585000Y-22860000D01*
X45775000Y-15800000D02*
X45775000Y-15920000D01*
X45715000Y-15860000D02*
X45835000Y-15860000D01*
X45775000Y-22800000D02*
X45775000Y-22920000D01*
X45715000Y-22860000D02*
X45835000Y-22860000D01*
X47525000Y-22800000D02*
X47525000Y-22920000D01*
X47465000Y-22860000D02*
X47585000Y-22860000D01*
X47775000Y-15800000D02*
X47775000Y-15920000D01*
X47715000Y-15860000D02*
X47835000Y-15860000D01*
X47775000Y-22800000D02*
X47775000Y-22920000D01*
X47715000Y-22860000D02*
X47835000Y-22860000D01*
X48025000Y-22800000D02*
X48025000Y-22920000D01*
X47965000Y-22860000D02*
X48085000Y-22860000D01*
X48275000Y-15800000D02*
X48275000Y-15920000D01*
X48215000Y-15860000D02*
X48335000Y-15860000D01*
X48275000Y-22800000D02*
X48275000Y-22920000D01*
X48215000Y-22860000D02*
X48335000Y-22860000D01*
X50025000Y-22800000D02*
X50025000Y-22920000D01*
X49965000Y-22860000D02*
X50085000Y-22860000D01*
X50275000Y-15800000D02*
X50275000Y-15920000D01*
X50215000Y-15860000D02*
X50335000Y-15860000D01*
X50275000Y-22800000D02*
X50275000Y-22920000D01*
X50215000Y-22860000D02*
X50335000Y-22860000D01*
X50525000Y-22800000D02*
X50525000Y-22920000D01*
X50465000Y-22860000D02*
X50585000Y-22860000D01*
X50775000Y-15800000D02*
X50775000Y-15920000D01*
X50715000Y-15860000D02*
X50835000Y-15860000D01*
X50775000Y-22800000D02*
X50775000Y-22920000D01*
X50715000Y-22860000D02*
X50835000Y-22860000D01*
X52525000Y-22800000D02*
X52525000Y-22920000D01*
X52465000Y-22860000D02*
X52585000Y-22860000D01*
X52775000Y-15800000D02*
X52775000Y-15920000D01*
X52715000Y-15860000D02*
X52835000Y-15860000D01*
X52775000Y-22800000D02*
X52775000Y-22920000D01*
X52715000Y-22860000D02*
X52835000Y-22860000D01*
X53025000Y-22800000D02*
X53025000Y-22920000D01*
X52965000Y-22860000D02*
X53085000Y-22860000D01*
X53275000Y-15800000D02*
X53275000Y-15920000D01*
X53215000Y-15860000D02*
X53335000Y-15860000D01*
X53275000Y-22800000D02*
X53275000Y-22920000D01*
X53215000Y-22860000D02*
X53335000Y-22860000D01*
D11*
X15470711Y-17180711D02*
X15470711Y-17039289D01*
X15329289Y-17039289D01*
X15329289Y-17180711D01*
X15470711Y-17180711D01*
X15470711Y-21930711D02*
X15470711Y-21789289D01*
X15329289Y-21789289D01*
X15329289Y-21930711D01*
X15470711Y-21930711D01*
X17970711Y-17180711D02*
X17970711Y-17039289D01*
X17829289Y-17039289D01*
X17829289Y-17180711D01*
X17970711Y-17180711D01*
X17970711Y-21930711D02*
X17970711Y-21789289D01*
X17829289Y-21789289D01*
X17829289Y-21930711D01*
X17970711Y-21930711D01*
X20470711Y-17180711D02*
X20470711Y-17039289D01*
X20329289Y-17039289D01*
X20329289Y-17180711D01*
X20470711Y-17180711D01*
X20470711Y-21930711D02*
X20470711Y-21789289D01*
X20329289Y-21789289D01*
X20329289Y-21930711D01*
X20470711Y-21930711D01*
X22970711Y-17180711D02*
X22970711Y-17039289D01*
X22829289Y-17039289D01*
X22829289Y-17180711D01*
X22970711Y-17180711D01*
X22970711Y-21930711D02*
X22970711Y-21789289D01*
X22829289Y-21789289D01*
X22829289Y-21930711D01*
X22970711Y-21930711D01*
X25470711Y-17180711D02*
X25470711Y-17039289D01*
X25329289Y-17039289D01*
X25329289Y-17180711D01*
X25470711Y-17180711D01*
X25470711Y-21930711D02*
X25470711Y-21789289D01*
X25329289Y-21789289D01*
X25329289Y-21930711D01*
X25470711Y-21930711D01*
X27970711Y-17180711D02*
X27970711Y-17039289D01*
X27829289Y-17039289D01*
X27829289Y-17180711D01*
X27970711Y-17180711D01*
X27970711Y-21930711D02*
X27970711Y-21789289D01*
X27829289Y-21789289D01*
X27829289Y-21930711D01*
X27970711Y-21930711D01*
X30470711Y-17180711D02*
X30470711Y-17039289D01*
X30329289Y-17039289D01*
X30329289Y-17180711D01*
X30470711Y-17180711D01*
X30470711Y-21930711D02*
X30470711Y-21789289D01*
X30329289Y-21789289D01*
X30329289Y-21930711D01*
X30470711Y-21930711D01*
X32970711Y-17180711D02*
X32970711Y-17039289D01*
X32829289Y-17039289D01*
X32829289Y-17180711D01*
X32970711Y-17180711D01*
X32970711Y-21930711D02*
X32970711Y-21789289D01*
X32829289Y-21789289D01*
X32829289Y-21930711D01*
X32970711Y-21930711D01*
X35470711Y-17180711D02*
X35470711Y-17039289D01*
X35329289Y-17039289D01*
X35329289Y-17180711D01*
X35470711Y-17180711D01*
X35470711Y-21930711D02*
X35470711Y-21789289D01*
X35329289Y-21789289D01*
X35329289Y-21930711D01*
X35470711Y-21930711D01*
X37970711Y-17180711D02*
X37970711Y-17039289D01*
X37829289Y-17039289D01*
X37829289Y-17180711D01*
X37970711Y-17180711D01*
X37970711Y-21930711D02*
X37970711Y-21789289D01*
X37829289Y-21789289D01*
X37829289Y-21930711D01*
X37970711Y-21930711D01*
X40470711Y-17180711D02*
X40470711Y-17039289D01*
X40329289Y-17039289D01*
X40329289Y-17180711D01*
X40470711Y-17180711D01*
X40470711Y-21930711D02*
X40470711Y-21789289D01*
X40329289Y-21789289D01*
X40329289Y-21930711D01*
X40470711Y-21930711D01*
X42970711Y-17180711D02*
X42970711Y-17039289D01*
X42829289Y-17039289D01*
X42829289Y-17180711D01*
X42970711Y-17180711D01*
X42970711Y-21930711D02*
X42970711Y-21789289D01*
X42829289Y-21789289D01*
X42829289Y-21930711D01*
X42970711Y-21930711D01*
X45470711Y-17180711D02*
X45470711Y-17039289D01*
X45329289Y-17039289D01*
X45329289Y-17180711D01*
X45470711Y-17180711D01*
X45470711Y-21930711D02*
X45470711Y-21789289D01*
X45329289Y-21789289D01*
X45329289Y-21930711D01*
X45470711Y-21930711D01*
X47970711Y-17180711D02*
X47970711Y-17039289D01*
X47829289Y-17039289D01*
X47829289Y-17180711D01*
X47970711Y-17180711D01*
X47970711Y-21930711D02*
X47970711Y-21789289D01*
X47829289Y-21789289D01*
X47829289Y-21930711D01*
X47970711Y-21930711D01*
X50470711Y-17180711D02*
X50470711Y-17039289D01*
X50329289Y-17039289D01*
X50329289Y-17180711D01*
X50470711Y-17180711D01*
X50470711Y-21930711D02*
X50470711Y-21789289D01*
X50329289Y-21789289D01*
X50329289Y-21930711D01*
X50470711Y-21930711D01*
X52970711Y-17180711D02*
X52970711Y-17039289D01*
X52829289Y-17039289D01*
X52829289Y-17180711D01*
X52970711Y-17180711D01*
X52970711Y-21930711D02*
X52970711Y-21789289D01*
X52829289Y-21789289D01*
X52829289Y-21930711D01*
X52970711Y-21930711D01*
X14908277Y-23583984D02*
X14908277Y-23383984D01*
X14908277Y-23383984D02*
X14955896Y-23383984D01*
X14955896Y-23383984D02*
X14984467Y-23393508D01*
X14984467Y-23393508D02*
X15003515Y-23412555D01*
X15003515Y-23412555D02*
X15013039Y-23431603D01*
X15013039Y-23431603D02*
X15022562Y-23469698D01*
X15022562Y-23469698D02*
X15022562Y-23498269D01*
X15022562Y-23498269D02*
X15013039Y-23536365D01*
X15013039Y-23536365D02*
X15003515Y-23555412D01*
X15003515Y-23555412D02*
X14984467Y-23574460D01*
X14984467Y-23574460D02*
X14955896Y-23583984D01*
X14955896Y-23583984D02*
X14908277Y-23583984D01*
X15108277Y-23583984D02*
X15108277Y-23450650D01*
X15108277Y-23488746D02*
X15117801Y-23469698D01*
X15117801Y-23469698D02*
X15127324Y-23460174D01*
X15127324Y-23460174D02*
X15146372Y-23450650D01*
X15146372Y-23450650D02*
X15165420Y-23450650D01*
X15232086Y-23583984D02*
X15232086Y-23450650D01*
X15232086Y-23383984D02*
X15222562Y-23393508D01*
X15222562Y-23393508D02*
X15232086Y-23403031D01*
X15232086Y-23403031D02*
X15241610Y-23393508D01*
X15241610Y-23393508D02*
X15232086Y-23383984D01*
X15232086Y-23383984D02*
X15232086Y-23403031D01*
X15355896Y-23583984D02*
X15336848Y-23574460D01*
X15336848Y-23574460D02*
X15327324Y-23555412D01*
X15327324Y-23555412D02*
X15327324Y-23383984D01*
X15460658Y-23583984D02*
X15441610Y-23574460D01*
X15441610Y-23574460D02*
X15432086Y-23555412D01*
X15432086Y-23555412D02*
X15432086Y-23383984D01*
X15689229Y-23583984D02*
X15689229Y-23383984D01*
X15689229Y-23383984D02*
X15755896Y-23526841D01*
X15755896Y-23526841D02*
X15822562Y-23383984D01*
X15822562Y-23383984D02*
X15822562Y-23583984D01*
X16003515Y-23583984D02*
X16003515Y-23479222D01*
X16003515Y-23479222D02*
X15993991Y-23460174D01*
X15993991Y-23460174D02*
X15974943Y-23450650D01*
X15974943Y-23450650D02*
X15936848Y-23450650D01*
X15936848Y-23450650D02*
X15917801Y-23460174D01*
X16003515Y-23574460D02*
X15984467Y-23583984D01*
X15984467Y-23583984D02*
X15936848Y-23583984D01*
X15936848Y-23583984D02*
X15917801Y-23574460D01*
X15917801Y-23574460D02*
X15908277Y-23555412D01*
X15908277Y-23555412D02*
X15908277Y-23536365D01*
X15908277Y-23536365D02*
X15917801Y-23517317D01*
X15917801Y-23517317D02*
X15936848Y-23507793D01*
X15936848Y-23507793D02*
X15984467Y-23507793D01*
X15984467Y-23507793D02*
X16003515Y-23498269D01*
X16098753Y-23450650D02*
X16098753Y-23650650D01*
X16098753Y-23460174D02*
X16117801Y-23450650D01*
X16117801Y-23450650D02*
X16155896Y-23450650D01*
X16155896Y-23450650D02*
X16174943Y-23460174D01*
X16174943Y-23460174D02*
X16184467Y-23469698D01*
X16184467Y-23469698D02*
X16193991Y-23488746D01*
X16193991Y-23488746D02*
X16193991Y-23545888D01*
X16193991Y-23545888D02*
X16184467Y-23564936D01*
X16184467Y-23564936D02*
X16174943Y-23574460D01*
X16174943Y-23574460D02*
X16155896Y-23583984D01*
X16155896Y-23583984D02*
X16117801Y-23583984D01*
X16117801Y-23583984D02*
X16098753Y-23574460D01*
X16279705Y-23564936D02*
X16289229Y-23574460D01*
X16289229Y-23574460D02*
X16279705Y-23583984D01*
X16279705Y-23583984D02*
X16270182Y-23574460D01*
X16270182Y-23574460D02*
X16279705Y-23564936D01*
X16279705Y-23564936D02*
X16279705Y-23583984D01*
X16279705Y-23460174D02*
X16289229Y-23469698D01*
X16289229Y-23469698D02*
X16279705Y-23479222D01*
X16279705Y-23479222D02*
X16270182Y-23469698D01*
X16270182Y-23469698D02*
X16279705Y-23460174D01*
X16279705Y-23460174D02*
X16279705Y-23479222D01*
D12*
X14607500Y-23892500D02*
X14647500Y-23932500D01*
X14647500Y-23892500D02*
X14607500Y-23932500D01*
D11*
X14946372Y-23803984D02*
X14965420Y-23803984D01*
X14965420Y-23803984D02*
X14984467Y-23813508D01*
X14984467Y-23813508D02*
X14993991Y-23823031D01*
X14993991Y-23823031D02*
X15003515Y-23842079D01*
X15003515Y-23842079D02*
X15013039Y-23880174D01*
X15013039Y-23880174D02*
X15013039Y-23927793D01*
X15013039Y-23927793D02*
X15003515Y-23965888D01*
X15003515Y-23965888D02*
X14993991Y-23984936D01*
X14993991Y-23984936D02*
X14984467Y-23994460D01*
X14984467Y-23994460D02*
X14965420Y-24003984D01*
X14965420Y-24003984D02*
X14946372Y-24003984D01*
X14946372Y-24003984D02*
X14927324Y-23994460D01*
X14927324Y-23994460D02*
X14917801Y-23984936D01*
X14917801Y-23984936D02*
X14908277Y-23965888D01*
X14908277Y-23965888D02*
X14898753Y-23927793D01*
X14898753Y-23927793D02*
X14898753Y-23880174D01*
X14898753Y-23880174D02*
X14908277Y-23842079D01*
X14908277Y-23842079D02*
X14917801Y-23823031D01*
X14917801Y-23823031D02*
X14927324Y-23813508D01*
X14927324Y-23813508D02*
X14946372Y-23803984D01*
X15098753Y-23984936D02*
X15108277Y-23994460D01*
X15108277Y-23994460D02*
X15098753Y-24003984D01*
X15098753Y-24003984D02*
X15089229Y-23994460D01*
X15089229Y-23994460D02*
X15098753Y-23984936D01*
X15098753Y-23984936D02*
X15098753Y-24003984D01*
X15279705Y-23870650D02*
X15279705Y-24003984D01*
X15232086Y-23794460D02*
X15184467Y-23937317D01*
X15184467Y-23937317D02*
X15308277Y-23937317D01*
X15422562Y-23803984D02*
X15441610Y-23803984D01*
X15441610Y-23803984D02*
X15460658Y-23813508D01*
X15460658Y-23813508D02*
X15470182Y-23823031D01*
X15470182Y-23823031D02*
X15479705Y-23842079D01*
X15479705Y-23842079D02*
X15489229Y-23880174D01*
X15489229Y-23880174D02*
X15489229Y-23927793D01*
X15489229Y-23927793D02*
X15479705Y-23965888D01*
X15479705Y-23965888D02*
X15470182Y-23984936D01*
X15470182Y-23984936D02*
X15460658Y-23994460D01*
X15460658Y-23994460D02*
X15441610Y-24003984D01*
X15441610Y-24003984D02*
X15422562Y-24003984D01*
X15422562Y-24003984D02*
X15403515Y-23994460D01*
X15403515Y-23994460D02*
X15393991Y-23984936D01*
X15393991Y-23984936D02*
X15384467Y-23965888D01*
X15384467Y-23965888D02*
X15374943Y-23927793D01*
X15374943Y-23927793D02*
X15374943Y-23880174D01*
X15374943Y-23880174D02*
X15384467Y-23842079D01*
X15384467Y-23842079D02*
X15393991Y-23823031D01*
X15393991Y-23823031D02*
X15403515Y-23813508D01*
X15403515Y-23813508D02*
X15422562Y-23803984D01*
X15613039Y-23803984D02*
X15632086Y-23803984D01*
X15632086Y-23803984D02*
X15651134Y-23813508D01*
X15651134Y-23813508D02*
X15660658Y-23823031D01*
X15660658Y-23823031D02*
X15670182Y-23842079D01*
X15670182Y-23842079D02*
X15679705Y-23880174D01*
X15679705Y-23880174D02*
X15679705Y-23927793D01*
X15679705Y-23927793D02*
X15670182Y-23965888D01*
X15670182Y-23965888D02*
X15660658Y-23984936D01*
X15660658Y-23984936D02*
X15651134Y-23994460D01*
X15651134Y-23994460D02*
X15632086Y-24003984D01*
X15632086Y-24003984D02*
X15613039Y-24003984D01*
X15613039Y-24003984D02*
X15593991Y-23994460D01*
X15593991Y-23994460D02*
X15584467Y-23984936D01*
X15584467Y-23984936D02*
X15574943Y-23965888D01*
X15574943Y-23965888D02*
X15565420Y-23927793D01*
X15565420Y-23927793D02*
X15565420Y-23880174D01*
X15565420Y-23880174D02*
X15574943Y-23842079D01*
X15574943Y-23842079D02*
X15584467Y-23823031D01*
X15584467Y-23823031D02*
X15593991Y-23813508D01*
X15593991Y-23813508D02*
X15613039Y-23803984D01*
X15765420Y-24003984D02*
X15765420Y-23870650D01*
X15765420Y-23889698D02*
X15774943Y-23880174D01*
X15774943Y-23880174D02*
X15793991Y-23870650D01*
X15793991Y-23870650D02*
X15822563Y-23870650D01*
X15822563Y-23870650D02*
X15841610Y-23880174D01*
X15841610Y-23880174D02*
X15851134Y-23899222D01*
X15851134Y-23899222D02*
X15851134Y-24003984D01*
X15851134Y-23899222D02*
X15860658Y-23880174D01*
X15860658Y-23880174D02*
X15879705Y-23870650D01*
X15879705Y-23870650D02*
X15908277Y-23870650D01*
X15908277Y-23870650D02*
X15927324Y-23880174D01*
X15927324Y-23880174D02*
X15936848Y-23899222D01*
X15936848Y-23899222D02*
X15936848Y-24003984D01*
X16032086Y-24003984D02*
X16032086Y-23870650D01*
X16032086Y-23889698D02*
X16041610Y-23880174D01*
X16041610Y-23880174D02*
X16060658Y-23870650D01*
X16060658Y-23870650D02*
X16089229Y-23870650D01*
X16089229Y-23870650D02*
X16108277Y-23880174D01*
X16108277Y-23880174D02*
X16117801Y-23899222D01*
X16117801Y-23899222D02*
X16117801Y-24003984D01*
X16117801Y-23899222D02*
X16127324Y-23880174D01*
X16127324Y-23880174D02*
X16146372Y-23870650D01*
X16146372Y-23870650D02*
X16174943Y-23870650D01*
X16174943Y-23870650D02*
X16193991Y-23880174D01*
X16193991Y-23880174D02*
X16203515Y-23899222D01*
X16203515Y-23899222D02*
X16203515Y-24003984D01*
X16593991Y-23794460D02*
X16422563Y-24051603D01*
X16851134Y-23803984D02*
X16870182Y-23803984D01*
X16870182Y-23803984D02*
X16889229Y-23813508D01*
X16889229Y-23813508D02*
X16898753Y-23823031D01*
X16898753Y-23823031D02*
X16908277Y-23842079D01*
X16908277Y-23842079D02*
X16917801Y-23880174D01*
X16917801Y-23880174D02*
X16917801Y-23927793D01*
X16917801Y-23927793D02*
X16908277Y-23965888D01*
X16908277Y-23965888D02*
X16898753Y-23984936D01*
X16898753Y-23984936D02*
X16889229Y-23994460D01*
X16889229Y-23994460D02*
X16870182Y-24003984D01*
X16870182Y-24003984D02*
X16851134Y-24003984D01*
X16851134Y-24003984D02*
X16832087Y-23994460D01*
X16832087Y-23994460D02*
X16822563Y-23984936D01*
X16822563Y-23984936D02*
X16813039Y-23965888D01*
X16813039Y-23965888D02*
X16803515Y-23927793D01*
X16803515Y-23927793D02*
X16803515Y-23880174D01*
X16803515Y-23880174D02*
X16813039Y-23842079D01*
X16813039Y-23842079D02*
X16822563Y-23823031D01*
X16822563Y-23823031D02*
X16832087Y-23813508D01*
X16832087Y-23813508D02*
X16851134Y-23803984D01*
X17003515Y-23984936D02*
X17013039Y-23994460D01*
X17013039Y-23994460D02*
X17003515Y-24003984D01*
X17003515Y-24003984D02*
X16993991Y-23994460D01*
X16993991Y-23994460D02*
X17003515Y-23984936D01*
X17003515Y-23984936D02*
X17003515Y-24003984D01*
X17136848Y-23803984D02*
X17155896Y-23803984D01*
X17155896Y-23803984D02*
X17174944Y-23813508D01*
X17174944Y-23813508D02*
X17184468Y-23823031D01*
X17184468Y-23823031D02*
X17193991Y-23842079D01*
X17193991Y-23842079D02*
X17203515Y-23880174D01*
X17203515Y-23880174D02*
X17203515Y-23927793D01*
X17203515Y-23927793D02*
X17193991Y-23965888D01*
X17193991Y-23965888D02*
X17184468Y-23984936D01*
X17184468Y-23984936D02*
X17174944Y-23994460D01*
X17174944Y-23994460D02*
X17155896Y-24003984D01*
X17155896Y-24003984D02*
X17136848Y-24003984D01*
X17136848Y-24003984D02*
X17117801Y-23994460D01*
X17117801Y-23994460D02*
X17108277Y-23984936D01*
X17108277Y-23984936D02*
X17098753Y-23965888D01*
X17098753Y-23965888D02*
X17089229Y-23927793D01*
X17089229Y-23927793D02*
X17089229Y-23880174D01*
X17089229Y-23880174D02*
X17098753Y-23842079D01*
X17098753Y-23842079D02*
X17108277Y-23823031D01*
X17108277Y-23823031D02*
X17117801Y-23813508D01*
X17117801Y-23813508D02*
X17136848Y-23803984D01*
X17393991Y-24003984D02*
X17279706Y-24003984D01*
X17336848Y-24003984D02*
X17336848Y-23803984D01*
X17336848Y-23803984D02*
X17317801Y-23832555D01*
X17317801Y-23832555D02*
X17298753Y-23851603D01*
X17298753Y-23851603D02*
X17279706Y-23861127D01*
X17574944Y-23803984D02*
X17479706Y-23803984D01*
X17479706Y-23803984D02*
X17470182Y-23899222D01*
X17470182Y-23899222D02*
X17479706Y-23889698D01*
X17479706Y-23889698D02*
X17498753Y-23880174D01*
X17498753Y-23880174D02*
X17546372Y-23880174D01*
X17546372Y-23880174D02*
X17565420Y-23889698D01*
X17565420Y-23889698D02*
X17574944Y-23899222D01*
X17574944Y-23899222D02*
X17584468Y-23918269D01*
X17584468Y-23918269D02*
X17584468Y-23965888D01*
X17584468Y-23965888D02*
X17574944Y-23984936D01*
X17574944Y-23984936D02*
X17565420Y-23994460D01*
X17565420Y-23994460D02*
X17546372Y-24003984D01*
X17546372Y-24003984D02*
X17498753Y-24003984D01*
X17498753Y-24003984D02*
X17479706Y-23994460D01*
X17479706Y-23994460D02*
X17470182Y-23984936D01*
X17651134Y-23803984D02*
X17784468Y-23803984D01*
X17784468Y-23803984D02*
X17698753Y-24003984D01*
X17851134Y-23803984D02*
X17851134Y-23842079D01*
X17927325Y-23803984D02*
X17927325Y-23842079D01*
X18222563Y-24080174D02*
X18213039Y-24070650D01*
X18213039Y-24070650D02*
X18193991Y-24042079D01*
X18193991Y-24042079D02*
X18184468Y-24023031D01*
X18184468Y-24023031D02*
X18174944Y-23994460D01*
X18174944Y-23994460D02*
X18165420Y-23946841D01*
X18165420Y-23946841D02*
X18165420Y-23908746D01*
X18165420Y-23908746D02*
X18174944Y-23861127D01*
X18174944Y-23861127D02*
X18184468Y-23832555D01*
X18184468Y-23832555D02*
X18193991Y-23813508D01*
X18193991Y-23813508D02*
X18213039Y-23784936D01*
X18213039Y-23784936D02*
X18222563Y-23775412D01*
X18384468Y-23803984D02*
X18346372Y-23803984D01*
X18346372Y-23803984D02*
X18327325Y-23813508D01*
X18327325Y-23813508D02*
X18317801Y-23823031D01*
X18317801Y-23823031D02*
X18298753Y-23851603D01*
X18298753Y-23851603D02*
X18289230Y-23889698D01*
X18289230Y-23889698D02*
X18289230Y-23965888D01*
X18289230Y-23965888D02*
X18298753Y-23984936D01*
X18298753Y-23984936D02*
X18308277Y-23994460D01*
X18308277Y-23994460D02*
X18327325Y-24003984D01*
X18327325Y-24003984D02*
X18365420Y-24003984D01*
X18365420Y-24003984D02*
X18384468Y-23994460D01*
X18384468Y-23994460D02*
X18393991Y-23984936D01*
X18393991Y-23984936D02*
X18403515Y-23965888D01*
X18403515Y-23965888D02*
X18403515Y-23918269D01*
X18403515Y-23918269D02*
X18393991Y-23899222D01*
X18393991Y-23899222D02*
X18384468Y-23889698D01*
X18384468Y-23889698D02*
X18365420Y-23880174D01*
X18365420Y-23880174D02*
X18327325Y-23880174D01*
X18327325Y-23880174D02*
X18308277Y-23889698D01*
X18308277Y-23889698D02*
X18298753Y-23899222D01*
X18298753Y-23899222D02*
X18289230Y-23918269D01*
X18479706Y-23823031D02*
X18489230Y-23813508D01*
X18489230Y-23813508D02*
X18508277Y-23803984D01*
X18508277Y-23803984D02*
X18555896Y-23803984D01*
X18555896Y-23803984D02*
X18574944Y-23813508D01*
X18574944Y-23813508D02*
X18584468Y-23823031D01*
X18584468Y-23823031D02*
X18593991Y-23842079D01*
X18593991Y-23842079D02*
X18593991Y-23861127D01*
X18593991Y-23861127D02*
X18584468Y-23889698D01*
X18584468Y-23889698D02*
X18470182Y-24003984D01*
X18470182Y-24003984D02*
X18593991Y-24003984D01*
X18832087Y-24003984D02*
X18832087Y-23803984D01*
X18917801Y-24003984D02*
X18917801Y-23899222D01*
X18917801Y-23899222D02*
X18908277Y-23880174D01*
X18908277Y-23880174D02*
X18889230Y-23870650D01*
X18889230Y-23870650D02*
X18860658Y-23870650D01*
X18860658Y-23870650D02*
X18841611Y-23880174D01*
X18841611Y-23880174D02*
X18832087Y-23889698D01*
X19041611Y-24003984D02*
X19022563Y-23994460D01*
X19022563Y-23994460D02*
X19013039Y-23984936D01*
X19013039Y-23984936D02*
X19003515Y-23965888D01*
X19003515Y-23965888D02*
X19003515Y-23908746D01*
X19003515Y-23908746D02*
X19013039Y-23889698D01*
X19013039Y-23889698D02*
X19022563Y-23880174D01*
X19022563Y-23880174D02*
X19041611Y-23870650D01*
X19041611Y-23870650D02*
X19070182Y-23870650D01*
X19070182Y-23870650D02*
X19089230Y-23880174D01*
X19089230Y-23880174D02*
X19098753Y-23889698D01*
X19098753Y-23889698D02*
X19108277Y-23908746D01*
X19108277Y-23908746D02*
X19108277Y-23965888D01*
X19108277Y-23965888D02*
X19098753Y-23984936D01*
X19098753Y-23984936D02*
X19089230Y-23994460D01*
X19089230Y-23994460D02*
X19070182Y-24003984D01*
X19070182Y-24003984D02*
X19041611Y-24003984D01*
X19222563Y-24003984D02*
X19203515Y-23994460D01*
X19203515Y-23994460D02*
X19193992Y-23975412D01*
X19193992Y-23975412D02*
X19193992Y-23803984D01*
X19374944Y-23994460D02*
X19355896Y-24003984D01*
X19355896Y-24003984D02*
X19317801Y-24003984D01*
X19317801Y-24003984D02*
X19298753Y-23994460D01*
X19298753Y-23994460D02*
X19289230Y-23975412D01*
X19289230Y-23975412D02*
X19289230Y-23899222D01*
X19289230Y-23899222D02*
X19298753Y-23880174D01*
X19298753Y-23880174D02*
X19317801Y-23870650D01*
X19317801Y-23870650D02*
X19355896Y-23870650D01*
X19355896Y-23870650D02*
X19374944Y-23880174D01*
X19374944Y-23880174D02*
X19384468Y-23899222D01*
X19384468Y-23899222D02*
X19384468Y-23918269D01*
X19384468Y-23918269D02*
X19289230Y-23937317D01*
X19460658Y-23994460D02*
X19479706Y-24003984D01*
X19479706Y-24003984D02*
X19517801Y-24003984D01*
X19517801Y-24003984D02*
X19536849Y-23994460D01*
X19536849Y-23994460D02*
X19546373Y-23975412D01*
X19546373Y-23975412D02*
X19546373Y-23965888D01*
X19546373Y-23965888D02*
X19536849Y-23946841D01*
X19536849Y-23946841D02*
X19517801Y-23937317D01*
X19517801Y-23937317D02*
X19489230Y-23937317D01*
X19489230Y-23937317D02*
X19470182Y-23927793D01*
X19470182Y-23927793D02*
X19460658Y-23908746D01*
X19460658Y-23908746D02*
X19460658Y-23899222D01*
X19460658Y-23899222D02*
X19470182Y-23880174D01*
X19470182Y-23880174D02*
X19489230Y-23870650D01*
X19489230Y-23870650D02*
X19517801Y-23870650D01*
X19517801Y-23870650D02*
X19536849Y-23880174D01*
X19613039Y-24080174D02*
X19622563Y-24070650D01*
X19622563Y-24070650D02*
X19641611Y-24042079D01*
X19641611Y-24042079D02*
X19651134Y-24023031D01*
X19651134Y-24023031D02*
X19660658Y-23994460D01*
X19660658Y-23994460D02*
X19670182Y-23946841D01*
X19670182Y-23946841D02*
X19670182Y-23908746D01*
X19670182Y-23908746D02*
X19660658Y-23861127D01*
X19660658Y-23861127D02*
X19651134Y-23832555D01*
X19651134Y-23832555D02*
X19641611Y-23813508D01*
X19641611Y-23813508D02*
X19622563Y-23784936D01*
X19622563Y-23784936D02*
X19613039Y-23775412D01*
D13*
X14647500Y-24176500D02*
G75*
G02*
X14537500Y-24176500I-55000J0D01*
G01*
X14537500Y-24176500D02*
G75*
G02*
X14647500Y-24176500I55000J0D01*
G01*
D11*
X15013039Y-24267984D02*
X14898753Y-24267984D01*
X14955896Y-24267984D02*
X14955896Y-24067984D01*
X14955896Y-24067984D02*
X14936848Y-24096555D01*
X14936848Y-24096555D02*
X14917801Y-24115603D01*
X14917801Y-24115603D02*
X14898753Y-24125127D01*
X15098753Y-24248936D02*
X15108277Y-24258460D01*
X15108277Y-24258460D02*
X15098753Y-24267984D01*
X15098753Y-24267984D02*
X15089229Y-24258460D01*
X15089229Y-24258460D02*
X15098753Y-24248936D01*
X15098753Y-24248936D02*
X15098753Y-24267984D01*
X15298753Y-24267984D02*
X15184467Y-24267984D01*
X15241610Y-24267984D02*
X15241610Y-24067984D01*
X15241610Y-24067984D02*
X15222562Y-24096555D01*
X15222562Y-24096555D02*
X15203515Y-24115603D01*
X15203515Y-24115603D02*
X15184467Y-24125127D01*
X15422562Y-24067984D02*
X15441610Y-24067984D01*
X15441610Y-24067984D02*
X15460658Y-24077508D01*
X15460658Y-24077508D02*
X15470182Y-24087031D01*
X15470182Y-24087031D02*
X15479705Y-24106079D01*
X15479705Y-24106079D02*
X15489229Y-24144174D01*
X15489229Y-24144174D02*
X15489229Y-24191793D01*
X15489229Y-24191793D02*
X15479705Y-24229888D01*
X15479705Y-24229888D02*
X15470182Y-24248936D01*
X15470182Y-24248936D02*
X15460658Y-24258460D01*
X15460658Y-24258460D02*
X15441610Y-24267984D01*
X15441610Y-24267984D02*
X15422562Y-24267984D01*
X15422562Y-24267984D02*
X15403515Y-24258460D01*
X15403515Y-24258460D02*
X15393991Y-24248936D01*
X15393991Y-24248936D02*
X15384467Y-24229888D01*
X15384467Y-24229888D02*
X15374943Y-24191793D01*
X15374943Y-24191793D02*
X15374943Y-24144174D01*
X15374943Y-24144174D02*
X15384467Y-24106079D01*
X15384467Y-24106079D02*
X15393991Y-24087031D01*
X15393991Y-24087031D02*
X15403515Y-24077508D01*
X15403515Y-24077508D02*
X15422562Y-24067984D01*
X15613039Y-24067984D02*
X15632086Y-24067984D01*
X15632086Y-24067984D02*
X15651134Y-24077508D01*
X15651134Y-24077508D02*
X15660658Y-24087031D01*
X15660658Y-24087031D02*
X15670182Y-24106079D01*
X15670182Y-24106079D02*
X15679705Y-24144174D01*
X15679705Y-24144174D02*
X15679705Y-24191793D01*
X15679705Y-24191793D02*
X15670182Y-24229888D01*
X15670182Y-24229888D02*
X15660658Y-24248936D01*
X15660658Y-24248936D02*
X15651134Y-24258460D01*
X15651134Y-24258460D02*
X15632086Y-24267984D01*
X15632086Y-24267984D02*
X15613039Y-24267984D01*
X15613039Y-24267984D02*
X15593991Y-24258460D01*
X15593991Y-24258460D02*
X15584467Y-24248936D01*
X15584467Y-24248936D02*
X15574943Y-24229888D01*
X15574943Y-24229888D02*
X15565420Y-24191793D01*
X15565420Y-24191793D02*
X15565420Y-24144174D01*
X15565420Y-24144174D02*
X15574943Y-24106079D01*
X15574943Y-24106079D02*
X15584467Y-24087031D01*
X15584467Y-24087031D02*
X15593991Y-24077508D01*
X15593991Y-24077508D02*
X15613039Y-24067984D01*
X15765420Y-24267984D02*
X15765420Y-24134650D01*
X15765420Y-24153698D02*
X15774943Y-24144174D01*
X15774943Y-24144174D02*
X15793991Y-24134650D01*
X15793991Y-24134650D02*
X15822563Y-24134650D01*
X15822563Y-24134650D02*
X15841610Y-24144174D01*
X15841610Y-24144174D02*
X15851134Y-24163222D01*
X15851134Y-24163222D02*
X15851134Y-24267984D01*
X15851134Y-24163222D02*
X15860658Y-24144174D01*
X15860658Y-24144174D02*
X15879705Y-24134650D01*
X15879705Y-24134650D02*
X15908277Y-24134650D01*
X15908277Y-24134650D02*
X15927324Y-24144174D01*
X15927324Y-24144174D02*
X15936848Y-24163222D01*
X15936848Y-24163222D02*
X15936848Y-24267984D01*
X16032086Y-24267984D02*
X16032086Y-24134650D01*
X16032086Y-24153698D02*
X16041610Y-24144174D01*
X16041610Y-24144174D02*
X16060658Y-24134650D01*
X16060658Y-24134650D02*
X16089229Y-24134650D01*
X16089229Y-24134650D02*
X16108277Y-24144174D01*
X16108277Y-24144174D02*
X16117801Y-24163222D01*
X16117801Y-24163222D02*
X16117801Y-24267984D01*
X16117801Y-24163222D02*
X16127324Y-24144174D01*
X16127324Y-24144174D02*
X16146372Y-24134650D01*
X16146372Y-24134650D02*
X16174943Y-24134650D01*
X16174943Y-24134650D02*
X16193991Y-24144174D01*
X16193991Y-24144174D02*
X16203515Y-24163222D01*
X16203515Y-24163222D02*
X16203515Y-24267984D01*
X16593991Y-24058460D02*
X16422563Y-24315603D01*
X16851134Y-24067984D02*
X16870182Y-24067984D01*
X16870182Y-24067984D02*
X16889229Y-24077508D01*
X16889229Y-24077508D02*
X16898753Y-24087031D01*
X16898753Y-24087031D02*
X16908277Y-24106079D01*
X16908277Y-24106079D02*
X16917801Y-24144174D01*
X16917801Y-24144174D02*
X16917801Y-24191793D01*
X16917801Y-24191793D02*
X16908277Y-24229888D01*
X16908277Y-24229888D02*
X16898753Y-24248936D01*
X16898753Y-24248936D02*
X16889229Y-24258460D01*
X16889229Y-24258460D02*
X16870182Y-24267984D01*
X16870182Y-24267984D02*
X16851134Y-24267984D01*
X16851134Y-24267984D02*
X16832087Y-24258460D01*
X16832087Y-24258460D02*
X16822563Y-24248936D01*
X16822563Y-24248936D02*
X16813039Y-24229888D01*
X16813039Y-24229888D02*
X16803515Y-24191793D01*
X16803515Y-24191793D02*
X16803515Y-24144174D01*
X16803515Y-24144174D02*
X16813039Y-24106079D01*
X16813039Y-24106079D02*
X16822563Y-24087031D01*
X16822563Y-24087031D02*
X16832087Y-24077508D01*
X16832087Y-24077508D02*
X16851134Y-24067984D01*
X17003515Y-24248936D02*
X17013039Y-24258460D01*
X17013039Y-24258460D02*
X17003515Y-24267984D01*
X17003515Y-24267984D02*
X16993991Y-24258460D01*
X16993991Y-24258460D02*
X17003515Y-24248936D01*
X17003515Y-24248936D02*
X17003515Y-24267984D01*
X17136848Y-24067984D02*
X17155896Y-24067984D01*
X17155896Y-24067984D02*
X17174944Y-24077508D01*
X17174944Y-24077508D02*
X17184468Y-24087031D01*
X17184468Y-24087031D02*
X17193991Y-24106079D01*
X17193991Y-24106079D02*
X17203515Y-24144174D01*
X17203515Y-24144174D02*
X17203515Y-24191793D01*
X17203515Y-24191793D02*
X17193991Y-24229888D01*
X17193991Y-24229888D02*
X17184468Y-24248936D01*
X17184468Y-24248936D02*
X17174944Y-24258460D01*
X17174944Y-24258460D02*
X17155896Y-24267984D01*
X17155896Y-24267984D02*
X17136848Y-24267984D01*
X17136848Y-24267984D02*
X17117801Y-24258460D01*
X17117801Y-24258460D02*
X17108277Y-24248936D01*
X17108277Y-24248936D02*
X17098753Y-24229888D01*
X17098753Y-24229888D02*
X17089229Y-24191793D01*
X17089229Y-24191793D02*
X17089229Y-24144174D01*
X17089229Y-24144174D02*
X17098753Y-24106079D01*
X17098753Y-24106079D02*
X17108277Y-24087031D01*
X17108277Y-24087031D02*
X17117801Y-24077508D01*
X17117801Y-24077508D02*
X17136848Y-24067984D01*
X17374944Y-24134650D02*
X17374944Y-24267984D01*
X17327325Y-24058460D02*
X17279706Y-24201317D01*
X17279706Y-24201317D02*
X17403515Y-24201317D01*
X17460658Y-24067984D02*
X17584468Y-24067984D01*
X17584468Y-24067984D02*
X17517801Y-24144174D01*
X17517801Y-24144174D02*
X17546372Y-24144174D01*
X17546372Y-24144174D02*
X17565420Y-24153698D01*
X17565420Y-24153698D02*
X17574944Y-24163222D01*
X17574944Y-24163222D02*
X17584468Y-24182269D01*
X17584468Y-24182269D02*
X17584468Y-24229888D01*
X17584468Y-24229888D02*
X17574944Y-24248936D01*
X17574944Y-24248936D02*
X17565420Y-24258460D01*
X17565420Y-24258460D02*
X17546372Y-24267984D01*
X17546372Y-24267984D02*
X17489229Y-24267984D01*
X17489229Y-24267984D02*
X17470182Y-24258460D01*
X17470182Y-24258460D02*
X17460658Y-24248936D01*
X17651134Y-24067984D02*
X17774944Y-24067984D01*
X17774944Y-24067984D02*
X17708277Y-24144174D01*
X17708277Y-24144174D02*
X17736849Y-24144174D01*
X17736849Y-24144174D02*
X17755896Y-24153698D01*
X17755896Y-24153698D02*
X17765420Y-24163222D01*
X17765420Y-24163222D02*
X17774944Y-24182269D01*
X17774944Y-24182269D02*
X17774944Y-24229888D01*
X17774944Y-24229888D02*
X17765420Y-24248936D01*
X17765420Y-24248936D02*
X17755896Y-24258460D01*
X17755896Y-24258460D02*
X17736849Y-24267984D01*
X17736849Y-24267984D02*
X17679706Y-24267984D01*
X17679706Y-24267984D02*
X17660658Y-24258460D01*
X17660658Y-24258460D02*
X17651134Y-24248936D01*
X17851134Y-24067984D02*
X17851134Y-24106079D01*
X17927325Y-24067984D02*
X17927325Y-24106079D01*
X18222563Y-24344174D02*
X18213039Y-24334650D01*
X18213039Y-24334650D02*
X18193991Y-24306079D01*
X18193991Y-24306079D02*
X18184468Y-24287031D01*
X18184468Y-24287031D02*
X18174944Y-24258460D01*
X18174944Y-24258460D02*
X18165420Y-24210841D01*
X18165420Y-24210841D02*
X18165420Y-24172746D01*
X18165420Y-24172746D02*
X18174944Y-24125127D01*
X18174944Y-24125127D02*
X18184468Y-24096555D01*
X18184468Y-24096555D02*
X18193991Y-24077508D01*
X18193991Y-24077508D02*
X18213039Y-24048936D01*
X18213039Y-24048936D02*
X18222563Y-24039412D01*
X18384468Y-24134650D02*
X18384468Y-24267984D01*
X18336849Y-24058460D02*
X18289230Y-24201317D01*
X18289230Y-24201317D02*
X18413039Y-24201317D01*
X18641611Y-24267984D02*
X18641611Y-24067984D01*
X18727325Y-24267984D02*
X18727325Y-24163222D01*
X18727325Y-24163222D02*
X18717801Y-24144174D01*
X18717801Y-24144174D02*
X18698753Y-24134650D01*
X18698753Y-24134650D02*
X18670182Y-24134650D01*
X18670182Y-24134650D02*
X18651134Y-24144174D01*
X18651134Y-24144174D02*
X18641611Y-24153698D01*
X18851134Y-24267984D02*
X18832087Y-24258460D01*
X18832087Y-24258460D02*
X18822563Y-24248936D01*
X18822563Y-24248936D02*
X18813039Y-24229888D01*
X18813039Y-24229888D02*
X18813039Y-24172746D01*
X18813039Y-24172746D02*
X18822563Y-24153698D01*
X18822563Y-24153698D02*
X18832087Y-24144174D01*
X18832087Y-24144174D02*
X18851134Y-24134650D01*
X18851134Y-24134650D02*
X18879706Y-24134650D01*
X18879706Y-24134650D02*
X18898753Y-24144174D01*
X18898753Y-24144174D02*
X18908277Y-24153698D01*
X18908277Y-24153698D02*
X18917801Y-24172746D01*
X18917801Y-24172746D02*
X18917801Y-24229888D01*
X18917801Y-24229888D02*
X18908277Y-24248936D01*
X18908277Y-24248936D02*
X18898753Y-24258460D01*
X18898753Y-24258460D02*
X18879706Y-24267984D01*
X18879706Y-24267984D02*
X18851134Y-24267984D01*
X19032087Y-24267984D02*
X19013039Y-24258460D01*
X19013039Y-24258460D02*
X19003515Y-24239412D01*
X19003515Y-24239412D02*
X19003515Y-24067984D01*
X19184468Y-24258460D02*
X19165420Y-24267984D01*
X19165420Y-24267984D02*
X19127325Y-24267984D01*
X19127325Y-24267984D02*
X19108277Y-24258460D01*
X19108277Y-24258460D02*
X19098753Y-24239412D01*
X19098753Y-24239412D02*
X19098753Y-24163222D01*
X19098753Y-24163222D02*
X19108277Y-24144174D01*
X19108277Y-24144174D02*
X19127325Y-24134650D01*
X19127325Y-24134650D02*
X19165420Y-24134650D01*
X19165420Y-24134650D02*
X19184468Y-24144174D01*
X19184468Y-24144174D02*
X19193992Y-24163222D01*
X19193992Y-24163222D02*
X19193992Y-24182269D01*
X19193992Y-24182269D02*
X19098753Y-24201317D01*
X19270182Y-24258460D02*
X19289230Y-24267984D01*
X19289230Y-24267984D02*
X19327325Y-24267984D01*
X19327325Y-24267984D02*
X19346373Y-24258460D01*
X19346373Y-24258460D02*
X19355896Y-24239412D01*
X19355896Y-24239412D02*
X19355896Y-24229888D01*
X19355896Y-24229888D02*
X19346373Y-24210841D01*
X19346373Y-24210841D02*
X19327325Y-24201317D01*
X19327325Y-24201317D02*
X19298753Y-24201317D01*
X19298753Y-24201317D02*
X19279706Y-24191793D01*
X19279706Y-24191793D02*
X19270182Y-24172746D01*
X19270182Y-24172746D02*
X19270182Y-24163222D01*
X19270182Y-24163222D02*
X19279706Y-24144174D01*
X19279706Y-24144174D02*
X19298753Y-24134650D01*
X19298753Y-24134650D02*
X19327325Y-24134650D01*
X19327325Y-24134650D02*
X19346373Y-24144174D01*
X19422563Y-24344174D02*
X19432087Y-24334650D01*
X19432087Y-24334650D02*
X19451134Y-24306079D01*
X19451134Y-24306079D02*
X19460658Y-24287031D01*
X19460658Y-24287031D02*
X19470182Y-24258460D01*
X19470182Y-24258460D02*
X19479706Y-24210841D01*
X19479706Y-24210841D02*
X19479706Y-24172746D01*
X19479706Y-24172746D02*
X19470182Y-24125127D01*
X19470182Y-24125127D02*
X19460658Y-24096555D01*
X19460658Y-24096555D02*
X19451134Y-24077508D01*
X19451134Y-24077508D02*
X19432087Y-24048936D01*
X19432087Y-24048936D02*
X19422563Y-24039412D01*
D14*
X14587500Y-24380500D02*
X14587500Y-24500500D01*
X14527500Y-24440500D02*
X14647500Y-24440500D01*
D11*
X15013039Y-24531984D02*
X14898753Y-24531984D01*
X14955896Y-24531984D02*
X14955896Y-24331984D01*
X14955896Y-24331984D02*
X14936848Y-24360555D01*
X14936848Y-24360555D02*
X14917801Y-24379603D01*
X14917801Y-24379603D02*
X14898753Y-24389127D01*
X15098753Y-24512936D02*
X15108277Y-24522460D01*
X15108277Y-24522460D02*
X15098753Y-24531984D01*
X15098753Y-24531984D02*
X15089229Y-24522460D01*
X15089229Y-24522460D02*
X15098753Y-24512936D01*
X15098753Y-24512936D02*
X15098753Y-24531984D01*
X15184467Y-24351031D02*
X15193991Y-24341508D01*
X15193991Y-24341508D02*
X15213039Y-24331984D01*
X15213039Y-24331984D02*
X15260658Y-24331984D01*
X15260658Y-24331984D02*
X15279705Y-24341508D01*
X15279705Y-24341508D02*
X15289229Y-24351031D01*
X15289229Y-24351031D02*
X15298753Y-24370079D01*
X15298753Y-24370079D02*
X15298753Y-24389127D01*
X15298753Y-24389127D02*
X15289229Y-24417698D01*
X15289229Y-24417698D02*
X15174943Y-24531984D01*
X15174943Y-24531984D02*
X15298753Y-24531984D01*
X15422562Y-24331984D02*
X15441610Y-24331984D01*
X15441610Y-24331984D02*
X15460658Y-24341508D01*
X15460658Y-24341508D02*
X15470182Y-24351031D01*
X15470182Y-24351031D02*
X15479705Y-24370079D01*
X15479705Y-24370079D02*
X15489229Y-24408174D01*
X15489229Y-24408174D02*
X15489229Y-24455793D01*
X15489229Y-24455793D02*
X15479705Y-24493888D01*
X15479705Y-24493888D02*
X15470182Y-24512936D01*
X15470182Y-24512936D02*
X15460658Y-24522460D01*
X15460658Y-24522460D02*
X15441610Y-24531984D01*
X15441610Y-24531984D02*
X15422562Y-24531984D01*
X15422562Y-24531984D02*
X15403515Y-24522460D01*
X15403515Y-24522460D02*
X15393991Y-24512936D01*
X15393991Y-24512936D02*
X15384467Y-24493888D01*
X15384467Y-24493888D02*
X15374943Y-24455793D01*
X15374943Y-24455793D02*
X15374943Y-24408174D01*
X15374943Y-24408174D02*
X15384467Y-24370079D01*
X15384467Y-24370079D02*
X15393991Y-24351031D01*
X15393991Y-24351031D02*
X15403515Y-24341508D01*
X15403515Y-24341508D02*
X15422562Y-24331984D01*
X15613039Y-24331984D02*
X15632086Y-24331984D01*
X15632086Y-24331984D02*
X15651134Y-24341508D01*
X15651134Y-24341508D02*
X15660658Y-24351031D01*
X15660658Y-24351031D02*
X15670182Y-24370079D01*
X15670182Y-24370079D02*
X15679705Y-24408174D01*
X15679705Y-24408174D02*
X15679705Y-24455793D01*
X15679705Y-24455793D02*
X15670182Y-24493888D01*
X15670182Y-24493888D02*
X15660658Y-24512936D01*
X15660658Y-24512936D02*
X15651134Y-24522460D01*
X15651134Y-24522460D02*
X15632086Y-24531984D01*
X15632086Y-24531984D02*
X15613039Y-24531984D01*
X15613039Y-24531984D02*
X15593991Y-24522460D01*
X15593991Y-24522460D02*
X15584467Y-24512936D01*
X15584467Y-24512936D02*
X15574943Y-24493888D01*
X15574943Y-24493888D02*
X15565420Y-24455793D01*
X15565420Y-24455793D02*
X15565420Y-24408174D01*
X15565420Y-24408174D02*
X15574943Y-24370079D01*
X15574943Y-24370079D02*
X15584467Y-24351031D01*
X15584467Y-24351031D02*
X15593991Y-24341508D01*
X15593991Y-24341508D02*
X15613039Y-24331984D01*
X15765420Y-24531984D02*
X15765420Y-24398650D01*
X15765420Y-24417698D02*
X15774943Y-24408174D01*
X15774943Y-24408174D02*
X15793991Y-24398650D01*
X15793991Y-24398650D02*
X15822563Y-24398650D01*
X15822563Y-24398650D02*
X15841610Y-24408174D01*
X15841610Y-24408174D02*
X15851134Y-24427222D01*
X15851134Y-24427222D02*
X15851134Y-24531984D01*
X15851134Y-24427222D02*
X15860658Y-24408174D01*
X15860658Y-24408174D02*
X15879705Y-24398650D01*
X15879705Y-24398650D02*
X15908277Y-24398650D01*
X15908277Y-24398650D02*
X15927324Y-24408174D01*
X15927324Y-24408174D02*
X15936848Y-24427222D01*
X15936848Y-24427222D02*
X15936848Y-24531984D01*
X16032086Y-24531984D02*
X16032086Y-24398650D01*
X16032086Y-24417698D02*
X16041610Y-24408174D01*
X16041610Y-24408174D02*
X16060658Y-24398650D01*
X16060658Y-24398650D02*
X16089229Y-24398650D01*
X16089229Y-24398650D02*
X16108277Y-24408174D01*
X16108277Y-24408174D02*
X16117801Y-24427222D01*
X16117801Y-24427222D02*
X16117801Y-24531984D01*
X16117801Y-24427222D02*
X16127324Y-24408174D01*
X16127324Y-24408174D02*
X16146372Y-24398650D01*
X16146372Y-24398650D02*
X16174943Y-24398650D01*
X16174943Y-24398650D02*
X16193991Y-24408174D01*
X16193991Y-24408174D02*
X16203515Y-24427222D01*
X16203515Y-24427222D02*
X16203515Y-24531984D01*
X16593991Y-24322460D02*
X16422563Y-24579603D01*
X16851134Y-24331984D02*
X16870182Y-24331984D01*
X16870182Y-24331984D02*
X16889229Y-24341508D01*
X16889229Y-24341508D02*
X16898753Y-24351031D01*
X16898753Y-24351031D02*
X16908277Y-24370079D01*
X16908277Y-24370079D02*
X16917801Y-24408174D01*
X16917801Y-24408174D02*
X16917801Y-24455793D01*
X16917801Y-24455793D02*
X16908277Y-24493888D01*
X16908277Y-24493888D02*
X16898753Y-24512936D01*
X16898753Y-24512936D02*
X16889229Y-24522460D01*
X16889229Y-24522460D02*
X16870182Y-24531984D01*
X16870182Y-24531984D02*
X16851134Y-24531984D01*
X16851134Y-24531984D02*
X16832087Y-24522460D01*
X16832087Y-24522460D02*
X16822563Y-24512936D01*
X16822563Y-24512936D02*
X16813039Y-24493888D01*
X16813039Y-24493888D02*
X16803515Y-24455793D01*
X16803515Y-24455793D02*
X16803515Y-24408174D01*
X16803515Y-24408174D02*
X16813039Y-24370079D01*
X16813039Y-24370079D02*
X16822563Y-24351031D01*
X16822563Y-24351031D02*
X16832087Y-24341508D01*
X16832087Y-24341508D02*
X16851134Y-24331984D01*
X17003515Y-24512936D02*
X17013039Y-24522460D01*
X17013039Y-24522460D02*
X17003515Y-24531984D01*
X17003515Y-24531984D02*
X16993991Y-24522460D01*
X16993991Y-24522460D02*
X17003515Y-24512936D01*
X17003515Y-24512936D02*
X17003515Y-24531984D01*
X17136848Y-24331984D02*
X17155896Y-24331984D01*
X17155896Y-24331984D02*
X17174944Y-24341508D01*
X17174944Y-24341508D02*
X17184468Y-24351031D01*
X17184468Y-24351031D02*
X17193991Y-24370079D01*
X17193991Y-24370079D02*
X17203515Y-24408174D01*
X17203515Y-24408174D02*
X17203515Y-24455793D01*
X17203515Y-24455793D02*
X17193991Y-24493888D01*
X17193991Y-24493888D02*
X17184468Y-24512936D01*
X17184468Y-24512936D02*
X17174944Y-24522460D01*
X17174944Y-24522460D02*
X17155896Y-24531984D01*
X17155896Y-24531984D02*
X17136848Y-24531984D01*
X17136848Y-24531984D02*
X17117801Y-24522460D01*
X17117801Y-24522460D02*
X17108277Y-24512936D01*
X17108277Y-24512936D02*
X17098753Y-24493888D01*
X17098753Y-24493888D02*
X17089229Y-24455793D01*
X17089229Y-24455793D02*
X17089229Y-24408174D01*
X17089229Y-24408174D02*
X17098753Y-24370079D01*
X17098753Y-24370079D02*
X17108277Y-24351031D01*
X17108277Y-24351031D02*
X17117801Y-24341508D01*
X17117801Y-24341508D02*
X17136848Y-24331984D01*
X17374944Y-24398650D02*
X17374944Y-24531984D01*
X17327325Y-24322460D02*
X17279706Y-24465317D01*
X17279706Y-24465317D02*
X17403515Y-24465317D01*
X17460658Y-24331984D02*
X17593991Y-24331984D01*
X17593991Y-24331984D02*
X17508277Y-24531984D01*
X17660658Y-24351031D02*
X17670182Y-24341508D01*
X17670182Y-24341508D02*
X17689229Y-24331984D01*
X17689229Y-24331984D02*
X17736849Y-24331984D01*
X17736849Y-24331984D02*
X17755896Y-24341508D01*
X17755896Y-24341508D02*
X17765420Y-24351031D01*
X17765420Y-24351031D02*
X17774944Y-24370079D01*
X17774944Y-24370079D02*
X17774944Y-24389127D01*
X17774944Y-24389127D02*
X17765420Y-24417698D01*
X17765420Y-24417698D02*
X17651134Y-24531984D01*
X17651134Y-24531984D02*
X17774944Y-24531984D01*
X17851134Y-24331984D02*
X17851134Y-24370079D01*
X17927325Y-24331984D02*
X17927325Y-24370079D01*
X18222563Y-24608174D02*
X18213039Y-24598650D01*
X18213039Y-24598650D02*
X18193991Y-24570079D01*
X18193991Y-24570079D02*
X18184468Y-24551031D01*
X18184468Y-24551031D02*
X18174944Y-24522460D01*
X18174944Y-24522460D02*
X18165420Y-24474841D01*
X18165420Y-24474841D02*
X18165420Y-24436746D01*
X18165420Y-24436746D02*
X18174944Y-24389127D01*
X18174944Y-24389127D02*
X18184468Y-24360555D01*
X18184468Y-24360555D02*
X18193991Y-24341508D01*
X18193991Y-24341508D02*
X18213039Y-24312936D01*
X18213039Y-24312936D02*
X18222563Y-24303412D01*
X18308277Y-24531984D02*
X18346372Y-24531984D01*
X18346372Y-24531984D02*
X18365420Y-24522460D01*
X18365420Y-24522460D02*
X18374944Y-24512936D01*
X18374944Y-24512936D02*
X18393991Y-24484365D01*
X18393991Y-24484365D02*
X18403515Y-24446269D01*
X18403515Y-24446269D02*
X18403515Y-24370079D01*
X18403515Y-24370079D02*
X18393991Y-24351031D01*
X18393991Y-24351031D02*
X18384468Y-24341508D01*
X18384468Y-24341508D02*
X18365420Y-24331984D01*
X18365420Y-24331984D02*
X18327325Y-24331984D01*
X18327325Y-24331984D02*
X18308277Y-24341508D01*
X18308277Y-24341508D02*
X18298753Y-24351031D01*
X18298753Y-24351031D02*
X18289230Y-24370079D01*
X18289230Y-24370079D02*
X18289230Y-24417698D01*
X18289230Y-24417698D02*
X18298753Y-24436746D01*
X18298753Y-24436746D02*
X18308277Y-24446269D01*
X18308277Y-24446269D02*
X18327325Y-24455793D01*
X18327325Y-24455793D02*
X18365420Y-24455793D01*
X18365420Y-24455793D02*
X18384468Y-24446269D01*
X18384468Y-24446269D02*
X18393991Y-24436746D01*
X18393991Y-24436746D02*
X18403515Y-24417698D01*
X18574944Y-24331984D02*
X18536849Y-24331984D01*
X18536849Y-24331984D02*
X18517801Y-24341508D01*
X18517801Y-24341508D02*
X18508277Y-24351031D01*
X18508277Y-24351031D02*
X18489230Y-24379603D01*
X18489230Y-24379603D02*
X18479706Y-24417698D01*
X18479706Y-24417698D02*
X18479706Y-24493888D01*
X18479706Y-24493888D02*
X18489230Y-24512936D01*
X18489230Y-24512936D02*
X18498753Y-24522460D01*
X18498753Y-24522460D02*
X18517801Y-24531984D01*
X18517801Y-24531984D02*
X18555896Y-24531984D01*
X18555896Y-24531984D02*
X18574944Y-24522460D01*
X18574944Y-24522460D02*
X18584468Y-24512936D01*
X18584468Y-24512936D02*
X18593991Y-24493888D01*
X18593991Y-24493888D02*
X18593991Y-24446269D01*
X18593991Y-24446269D02*
X18584468Y-24427222D01*
X18584468Y-24427222D02*
X18574944Y-24417698D01*
X18574944Y-24417698D02*
X18555896Y-24408174D01*
X18555896Y-24408174D02*
X18517801Y-24408174D01*
X18517801Y-24408174D02*
X18498753Y-24417698D01*
X18498753Y-24417698D02*
X18489230Y-24427222D01*
X18489230Y-24427222D02*
X18479706Y-24446269D01*
X18832087Y-24531984D02*
X18832087Y-24331984D01*
X18917801Y-24531984D02*
X18917801Y-24427222D01*
X18917801Y-24427222D02*
X18908277Y-24408174D01*
X18908277Y-24408174D02*
X18889230Y-24398650D01*
X18889230Y-24398650D02*
X18860658Y-24398650D01*
X18860658Y-24398650D02*
X18841611Y-24408174D01*
X18841611Y-24408174D02*
X18832087Y-24417698D01*
X19041611Y-24531984D02*
X19022563Y-24522460D01*
X19022563Y-24522460D02*
X19013039Y-24512936D01*
X19013039Y-24512936D02*
X19003515Y-24493888D01*
X19003515Y-24493888D02*
X19003515Y-24436746D01*
X19003515Y-24436746D02*
X19013039Y-24417698D01*
X19013039Y-24417698D02*
X19022563Y-24408174D01*
X19022563Y-24408174D02*
X19041611Y-24398650D01*
X19041611Y-24398650D02*
X19070182Y-24398650D01*
X19070182Y-24398650D02*
X19089230Y-24408174D01*
X19089230Y-24408174D02*
X19098753Y-24417698D01*
X19098753Y-24417698D02*
X19108277Y-24436746D01*
X19108277Y-24436746D02*
X19108277Y-24493888D01*
X19108277Y-24493888D02*
X19098753Y-24512936D01*
X19098753Y-24512936D02*
X19089230Y-24522460D01*
X19089230Y-24522460D02*
X19070182Y-24531984D01*
X19070182Y-24531984D02*
X19041611Y-24531984D01*
X19222563Y-24531984D02*
X19203515Y-24522460D01*
X19203515Y-24522460D02*
X19193992Y-24503412D01*
X19193992Y-24503412D02*
X19193992Y-24331984D01*
X19374944Y-24522460D02*
X19355896Y-24531984D01*
X19355896Y-24531984D02*
X19317801Y-24531984D01*
X19317801Y-24531984D02*
X19298753Y-24522460D01*
X19298753Y-24522460D02*
X19289230Y-24503412D01*
X19289230Y-24503412D02*
X19289230Y-24427222D01*
X19289230Y-24427222D02*
X19298753Y-24408174D01*
X19298753Y-24408174D02*
X19317801Y-24398650D01*
X19317801Y-24398650D02*
X19355896Y-24398650D01*
X19355896Y-24398650D02*
X19374944Y-24408174D01*
X19374944Y-24408174D02*
X19384468Y-24427222D01*
X19384468Y-24427222D02*
X19384468Y-24446269D01*
X19384468Y-24446269D02*
X19289230Y-24465317D01*
X19460658Y-24522460D02*
X19479706Y-24531984D01*
X19479706Y-24531984D02*
X19517801Y-24531984D01*
X19517801Y-24531984D02*
X19536849Y-24522460D01*
X19536849Y-24522460D02*
X19546373Y-24503412D01*
X19546373Y-24503412D02*
X19546373Y-24493888D01*
X19546373Y-24493888D02*
X19536849Y-24474841D01*
X19536849Y-24474841D02*
X19517801Y-24465317D01*
X19517801Y-24465317D02*
X19489230Y-24465317D01*
X19489230Y-24465317D02*
X19470182Y-24455793D01*
X19470182Y-24455793D02*
X19460658Y-24436746D01*
X19460658Y-24436746D02*
X19460658Y-24427222D01*
X19460658Y-24427222D02*
X19470182Y-24408174D01*
X19470182Y-24408174D02*
X19489230Y-24398650D01*
X19489230Y-24398650D02*
X19517801Y-24398650D01*
X19517801Y-24398650D02*
X19536849Y-24408174D01*
X19613039Y-24608174D02*
X19622563Y-24598650D01*
X19622563Y-24598650D02*
X19641611Y-24570079D01*
X19641611Y-24570079D02*
X19651134Y-24551031D01*
X19651134Y-24551031D02*
X19660658Y-24522460D01*
X19660658Y-24522460D02*
X19670182Y-24474841D01*
X19670182Y-24474841D02*
X19670182Y-24436746D01*
X19670182Y-24436746D02*
X19660658Y-24389127D01*
X19660658Y-24389127D02*
X19651134Y-24360555D01*
X19651134Y-24360555D02*
X19641611Y-24341508D01*
X19641611Y-24341508D02*
X19622563Y-24312936D01*
X19622563Y-24312936D02*
X19613039Y-24303412D01*
X14618211Y-24775211D02*
X14618211Y-24633789D01*
X14476789Y-24633789D01*
X14476789Y-24775211D01*
X14618211Y-24775211D01*
X14898753Y-24615031D02*
X14908277Y-24605508D01*
X14908277Y-24605508D02*
X14927324Y-24595984D01*
X14927324Y-24595984D02*
X14974943Y-24595984D01*
X14974943Y-24595984D02*
X14993991Y-24605508D01*
X14993991Y-24605508D02*
X15003515Y-24615031D01*
X15003515Y-24615031D02*
X15013039Y-24634079D01*
X15013039Y-24634079D02*
X15013039Y-24653127D01*
X15013039Y-24653127D02*
X15003515Y-24681698D01*
X15003515Y-24681698D02*
X14889229Y-24795984D01*
X14889229Y-24795984D02*
X15013039Y-24795984D01*
X15098753Y-24776936D02*
X15108277Y-24786460D01*
X15108277Y-24786460D02*
X15098753Y-24795984D01*
X15098753Y-24795984D02*
X15089229Y-24786460D01*
X15089229Y-24786460D02*
X15098753Y-24776936D01*
X15098753Y-24776936D02*
X15098753Y-24795984D01*
X15232086Y-24595984D02*
X15251134Y-24595984D01*
X15251134Y-24595984D02*
X15270182Y-24605508D01*
X15270182Y-24605508D02*
X15279705Y-24615031D01*
X15279705Y-24615031D02*
X15289229Y-24634079D01*
X15289229Y-24634079D02*
X15298753Y-24672174D01*
X15298753Y-24672174D02*
X15298753Y-24719793D01*
X15298753Y-24719793D02*
X15289229Y-24757888D01*
X15289229Y-24757888D02*
X15279705Y-24776936D01*
X15279705Y-24776936D02*
X15270182Y-24786460D01*
X15270182Y-24786460D02*
X15251134Y-24795984D01*
X15251134Y-24795984D02*
X15232086Y-24795984D01*
X15232086Y-24795984D02*
X15213039Y-24786460D01*
X15213039Y-24786460D02*
X15203515Y-24776936D01*
X15203515Y-24776936D02*
X15193991Y-24757888D01*
X15193991Y-24757888D02*
X15184467Y-24719793D01*
X15184467Y-24719793D02*
X15184467Y-24672174D01*
X15184467Y-24672174D02*
X15193991Y-24634079D01*
X15193991Y-24634079D02*
X15203515Y-24615031D01*
X15203515Y-24615031D02*
X15213039Y-24605508D01*
X15213039Y-24605508D02*
X15232086Y-24595984D01*
X15422562Y-24595984D02*
X15441610Y-24595984D01*
X15441610Y-24595984D02*
X15460658Y-24605508D01*
X15460658Y-24605508D02*
X15470182Y-24615031D01*
X15470182Y-24615031D02*
X15479705Y-24634079D01*
X15479705Y-24634079D02*
X15489229Y-24672174D01*
X15489229Y-24672174D02*
X15489229Y-24719793D01*
X15489229Y-24719793D02*
X15479705Y-24757888D01*
X15479705Y-24757888D02*
X15470182Y-24776936D01*
X15470182Y-24776936D02*
X15460658Y-24786460D01*
X15460658Y-24786460D02*
X15441610Y-24795984D01*
X15441610Y-24795984D02*
X15422562Y-24795984D01*
X15422562Y-24795984D02*
X15403515Y-24786460D01*
X15403515Y-24786460D02*
X15393991Y-24776936D01*
X15393991Y-24776936D02*
X15384467Y-24757888D01*
X15384467Y-24757888D02*
X15374943Y-24719793D01*
X15374943Y-24719793D02*
X15374943Y-24672174D01*
X15374943Y-24672174D02*
X15384467Y-24634079D01*
X15384467Y-24634079D02*
X15393991Y-24615031D01*
X15393991Y-24615031D02*
X15403515Y-24605508D01*
X15403515Y-24605508D02*
X15422562Y-24595984D01*
X15613039Y-24595984D02*
X15632086Y-24595984D01*
X15632086Y-24595984D02*
X15651134Y-24605508D01*
X15651134Y-24605508D02*
X15660658Y-24615031D01*
X15660658Y-24615031D02*
X15670182Y-24634079D01*
X15670182Y-24634079D02*
X15679705Y-24672174D01*
X15679705Y-24672174D02*
X15679705Y-24719793D01*
X15679705Y-24719793D02*
X15670182Y-24757888D01*
X15670182Y-24757888D02*
X15660658Y-24776936D01*
X15660658Y-24776936D02*
X15651134Y-24786460D01*
X15651134Y-24786460D02*
X15632086Y-24795984D01*
X15632086Y-24795984D02*
X15613039Y-24795984D01*
X15613039Y-24795984D02*
X15593991Y-24786460D01*
X15593991Y-24786460D02*
X15584467Y-24776936D01*
X15584467Y-24776936D02*
X15574943Y-24757888D01*
X15574943Y-24757888D02*
X15565420Y-24719793D01*
X15565420Y-24719793D02*
X15565420Y-24672174D01*
X15565420Y-24672174D02*
X15574943Y-24634079D01*
X15574943Y-24634079D02*
X15584467Y-24615031D01*
X15584467Y-24615031D02*
X15593991Y-24605508D01*
X15593991Y-24605508D02*
X15613039Y-24595984D01*
X15765420Y-24795984D02*
X15765420Y-24662650D01*
X15765420Y-24681698D02*
X15774943Y-24672174D01*
X15774943Y-24672174D02*
X15793991Y-24662650D01*
X15793991Y-24662650D02*
X15822563Y-24662650D01*
X15822563Y-24662650D02*
X15841610Y-24672174D01*
X15841610Y-24672174D02*
X15851134Y-24691222D01*
X15851134Y-24691222D02*
X15851134Y-24795984D01*
X15851134Y-24691222D02*
X15860658Y-24672174D01*
X15860658Y-24672174D02*
X15879705Y-24662650D01*
X15879705Y-24662650D02*
X15908277Y-24662650D01*
X15908277Y-24662650D02*
X15927324Y-24672174D01*
X15927324Y-24672174D02*
X15936848Y-24691222D01*
X15936848Y-24691222D02*
X15936848Y-24795984D01*
X16032086Y-24795984D02*
X16032086Y-24662650D01*
X16032086Y-24681698D02*
X16041610Y-24672174D01*
X16041610Y-24672174D02*
X16060658Y-24662650D01*
X16060658Y-24662650D02*
X16089229Y-24662650D01*
X16089229Y-24662650D02*
X16108277Y-24672174D01*
X16108277Y-24672174D02*
X16117801Y-24691222D01*
X16117801Y-24691222D02*
X16117801Y-24795984D01*
X16117801Y-24691222D02*
X16127324Y-24672174D01*
X16127324Y-24672174D02*
X16146372Y-24662650D01*
X16146372Y-24662650D02*
X16174943Y-24662650D01*
X16174943Y-24662650D02*
X16193991Y-24672174D01*
X16193991Y-24672174D02*
X16203515Y-24691222D01*
X16203515Y-24691222D02*
X16203515Y-24795984D01*
X16593991Y-24586460D02*
X16422563Y-24843603D01*
X16851134Y-24595984D02*
X16870182Y-24595984D01*
X16870182Y-24595984D02*
X16889229Y-24605508D01*
X16889229Y-24605508D02*
X16898753Y-24615031D01*
X16898753Y-24615031D02*
X16908277Y-24634079D01*
X16908277Y-24634079D02*
X16917801Y-24672174D01*
X16917801Y-24672174D02*
X16917801Y-24719793D01*
X16917801Y-24719793D02*
X16908277Y-24757888D01*
X16908277Y-24757888D02*
X16898753Y-24776936D01*
X16898753Y-24776936D02*
X16889229Y-24786460D01*
X16889229Y-24786460D02*
X16870182Y-24795984D01*
X16870182Y-24795984D02*
X16851134Y-24795984D01*
X16851134Y-24795984D02*
X16832087Y-24786460D01*
X16832087Y-24786460D02*
X16822563Y-24776936D01*
X16822563Y-24776936D02*
X16813039Y-24757888D01*
X16813039Y-24757888D02*
X16803515Y-24719793D01*
X16803515Y-24719793D02*
X16803515Y-24672174D01*
X16803515Y-24672174D02*
X16813039Y-24634079D01*
X16813039Y-24634079D02*
X16822563Y-24615031D01*
X16822563Y-24615031D02*
X16832087Y-24605508D01*
X16832087Y-24605508D02*
X16851134Y-24595984D01*
X17003515Y-24776936D02*
X17013039Y-24786460D01*
X17013039Y-24786460D02*
X17003515Y-24795984D01*
X17003515Y-24795984D02*
X16993991Y-24786460D01*
X16993991Y-24786460D02*
X17003515Y-24776936D01*
X17003515Y-24776936D02*
X17003515Y-24795984D01*
X17136848Y-24595984D02*
X17155896Y-24595984D01*
X17155896Y-24595984D02*
X17174944Y-24605508D01*
X17174944Y-24605508D02*
X17184468Y-24615031D01*
X17184468Y-24615031D02*
X17193991Y-24634079D01*
X17193991Y-24634079D02*
X17203515Y-24672174D01*
X17203515Y-24672174D02*
X17203515Y-24719793D01*
X17203515Y-24719793D02*
X17193991Y-24757888D01*
X17193991Y-24757888D02*
X17184468Y-24776936D01*
X17184468Y-24776936D02*
X17174944Y-24786460D01*
X17174944Y-24786460D02*
X17155896Y-24795984D01*
X17155896Y-24795984D02*
X17136848Y-24795984D01*
X17136848Y-24795984D02*
X17117801Y-24786460D01*
X17117801Y-24786460D02*
X17108277Y-24776936D01*
X17108277Y-24776936D02*
X17098753Y-24757888D01*
X17098753Y-24757888D02*
X17089229Y-24719793D01*
X17089229Y-24719793D02*
X17089229Y-24672174D01*
X17089229Y-24672174D02*
X17098753Y-24634079D01*
X17098753Y-24634079D02*
X17108277Y-24615031D01*
X17108277Y-24615031D02*
X17117801Y-24605508D01*
X17117801Y-24605508D02*
X17136848Y-24595984D01*
X17270182Y-24595984D02*
X17403515Y-24595984D01*
X17403515Y-24595984D02*
X17317801Y-24795984D01*
X17508277Y-24681698D02*
X17489229Y-24672174D01*
X17489229Y-24672174D02*
X17479706Y-24662650D01*
X17479706Y-24662650D02*
X17470182Y-24643603D01*
X17470182Y-24643603D02*
X17470182Y-24634079D01*
X17470182Y-24634079D02*
X17479706Y-24615031D01*
X17479706Y-24615031D02*
X17489229Y-24605508D01*
X17489229Y-24605508D02*
X17508277Y-24595984D01*
X17508277Y-24595984D02*
X17546372Y-24595984D01*
X17546372Y-24595984D02*
X17565420Y-24605508D01*
X17565420Y-24605508D02*
X17574944Y-24615031D01*
X17574944Y-24615031D02*
X17584468Y-24634079D01*
X17584468Y-24634079D02*
X17584468Y-24643603D01*
X17584468Y-24643603D02*
X17574944Y-24662650D01*
X17574944Y-24662650D02*
X17565420Y-24672174D01*
X17565420Y-24672174D02*
X17546372Y-24681698D01*
X17546372Y-24681698D02*
X17508277Y-24681698D01*
X17508277Y-24681698D02*
X17489229Y-24691222D01*
X17489229Y-24691222D02*
X17479706Y-24700746D01*
X17479706Y-24700746D02*
X17470182Y-24719793D01*
X17470182Y-24719793D02*
X17470182Y-24757888D01*
X17470182Y-24757888D02*
X17479706Y-24776936D01*
X17479706Y-24776936D02*
X17489229Y-24786460D01*
X17489229Y-24786460D02*
X17508277Y-24795984D01*
X17508277Y-24795984D02*
X17546372Y-24795984D01*
X17546372Y-24795984D02*
X17565420Y-24786460D01*
X17565420Y-24786460D02*
X17574944Y-24776936D01*
X17574944Y-24776936D02*
X17584468Y-24757888D01*
X17584468Y-24757888D02*
X17584468Y-24719793D01*
X17584468Y-24719793D02*
X17574944Y-24700746D01*
X17574944Y-24700746D02*
X17565420Y-24691222D01*
X17565420Y-24691222D02*
X17546372Y-24681698D01*
X17651134Y-24595984D02*
X17784468Y-24595984D01*
X17784468Y-24595984D02*
X17698753Y-24795984D01*
X17851134Y-24595984D02*
X17851134Y-24634079D01*
X17927325Y-24595984D02*
X17927325Y-24634079D01*
X18222563Y-24872174D02*
X18213039Y-24862650D01*
X18213039Y-24862650D02*
X18193991Y-24834079D01*
X18193991Y-24834079D02*
X18184468Y-24815031D01*
X18184468Y-24815031D02*
X18174944Y-24786460D01*
X18174944Y-24786460D02*
X18165420Y-24738841D01*
X18165420Y-24738841D02*
X18165420Y-24700746D01*
X18165420Y-24700746D02*
X18174944Y-24653127D01*
X18174944Y-24653127D02*
X18184468Y-24624555D01*
X18184468Y-24624555D02*
X18193991Y-24605508D01*
X18193991Y-24605508D02*
X18213039Y-24576936D01*
X18213039Y-24576936D02*
X18222563Y-24567412D01*
X18279706Y-24595984D02*
X18403515Y-24595984D01*
X18403515Y-24595984D02*
X18336849Y-24672174D01*
X18336849Y-24672174D02*
X18365420Y-24672174D01*
X18365420Y-24672174D02*
X18384468Y-24681698D01*
X18384468Y-24681698D02*
X18393991Y-24691222D01*
X18393991Y-24691222D02*
X18403515Y-24710269D01*
X18403515Y-24710269D02*
X18403515Y-24757888D01*
X18403515Y-24757888D02*
X18393991Y-24776936D01*
X18393991Y-24776936D02*
X18384468Y-24786460D01*
X18384468Y-24786460D02*
X18365420Y-24795984D01*
X18365420Y-24795984D02*
X18308277Y-24795984D01*
X18308277Y-24795984D02*
X18289230Y-24786460D01*
X18289230Y-24786460D02*
X18279706Y-24776936D01*
X18479706Y-24615031D02*
X18489230Y-24605508D01*
X18489230Y-24605508D02*
X18508277Y-24595984D01*
X18508277Y-24595984D02*
X18555896Y-24595984D01*
X18555896Y-24595984D02*
X18574944Y-24605508D01*
X18574944Y-24605508D02*
X18584468Y-24615031D01*
X18584468Y-24615031D02*
X18593991Y-24634079D01*
X18593991Y-24634079D02*
X18593991Y-24653127D01*
X18593991Y-24653127D02*
X18584468Y-24681698D01*
X18584468Y-24681698D02*
X18470182Y-24795984D01*
X18470182Y-24795984D02*
X18593991Y-24795984D01*
X18832087Y-24795984D02*
X18832087Y-24595984D01*
X18917801Y-24795984D02*
X18917801Y-24691222D01*
X18917801Y-24691222D02*
X18908277Y-24672174D01*
X18908277Y-24672174D02*
X18889230Y-24662650D01*
X18889230Y-24662650D02*
X18860658Y-24662650D01*
X18860658Y-24662650D02*
X18841611Y-24672174D01*
X18841611Y-24672174D02*
X18832087Y-24681698D01*
X19041611Y-24795984D02*
X19022563Y-24786460D01*
X19022563Y-24786460D02*
X19013039Y-24776936D01*
X19013039Y-24776936D02*
X19003515Y-24757888D01*
X19003515Y-24757888D02*
X19003515Y-24700746D01*
X19003515Y-24700746D02*
X19013039Y-24681698D01*
X19013039Y-24681698D02*
X19022563Y-24672174D01*
X19022563Y-24672174D02*
X19041611Y-24662650D01*
X19041611Y-24662650D02*
X19070182Y-24662650D01*
X19070182Y-24662650D02*
X19089230Y-24672174D01*
X19089230Y-24672174D02*
X19098753Y-24681698D01*
X19098753Y-24681698D02*
X19108277Y-24700746D01*
X19108277Y-24700746D02*
X19108277Y-24757888D01*
X19108277Y-24757888D02*
X19098753Y-24776936D01*
X19098753Y-24776936D02*
X19089230Y-24786460D01*
X19089230Y-24786460D02*
X19070182Y-24795984D01*
X19070182Y-24795984D02*
X19041611Y-24795984D01*
X19222563Y-24795984D02*
X19203515Y-24786460D01*
X19203515Y-24786460D02*
X19193992Y-24767412D01*
X19193992Y-24767412D02*
X19193992Y-24595984D01*
X19374944Y-24786460D02*
X19355896Y-24795984D01*
X19355896Y-24795984D02*
X19317801Y-24795984D01*
X19317801Y-24795984D02*
X19298753Y-24786460D01*
X19298753Y-24786460D02*
X19289230Y-24767412D01*
X19289230Y-24767412D02*
X19289230Y-24691222D01*
X19289230Y-24691222D02*
X19298753Y-24672174D01*
X19298753Y-24672174D02*
X19317801Y-24662650D01*
X19317801Y-24662650D02*
X19355896Y-24662650D01*
X19355896Y-24662650D02*
X19374944Y-24672174D01*
X19374944Y-24672174D02*
X19384468Y-24691222D01*
X19384468Y-24691222D02*
X19384468Y-24710269D01*
X19384468Y-24710269D02*
X19289230Y-24729317D01*
X19460658Y-24786460D02*
X19479706Y-24795984D01*
X19479706Y-24795984D02*
X19517801Y-24795984D01*
X19517801Y-24795984D02*
X19536849Y-24786460D01*
X19536849Y-24786460D02*
X19546373Y-24767412D01*
X19546373Y-24767412D02*
X19546373Y-24757888D01*
X19546373Y-24757888D02*
X19536849Y-24738841D01*
X19536849Y-24738841D02*
X19517801Y-24729317D01*
X19517801Y-24729317D02*
X19489230Y-24729317D01*
X19489230Y-24729317D02*
X19470182Y-24719793D01*
X19470182Y-24719793D02*
X19460658Y-24700746D01*
X19460658Y-24700746D02*
X19460658Y-24691222D01*
X19460658Y-24691222D02*
X19470182Y-24672174D01*
X19470182Y-24672174D02*
X19489230Y-24662650D01*
X19489230Y-24662650D02*
X19517801Y-24662650D01*
X19517801Y-24662650D02*
X19536849Y-24672174D01*
X19613039Y-24872174D02*
X19622563Y-24862650D01*
X19622563Y-24862650D02*
X19641611Y-24834079D01*
X19641611Y-24834079D02*
X19651134Y-24815031D01*
X19651134Y-24815031D02*
X19660658Y-24786460D01*
X19660658Y-24786460D02*
X19670182Y-24738841D01*
X19670182Y-24738841D02*
X19670182Y-24700746D01*
X19670182Y-24700746D02*
X19660658Y-24653127D01*
X19660658Y-24653127D02*
X19651134Y-24624555D01*
X19651134Y-24624555D02*
X19641611Y-24605508D01*
X19641611Y-24605508D02*
X19622563Y-24576936D01*
X19622563Y-24576936D02*
X19613039Y-24567412D01*
M02*
