G04 #@! TF.GenerationSoftware,KiCad,Pcbnew,9.0.6*
G04 #@! TF.CreationDate,2025-12-16T13:31:05+01:00*
G04 #@! TF.ProjectId,MBO,4d424f2e-6b69-4636-9164-5f7063625858,rev?*
G04 #@! TF.SameCoordinates,Original*
G04 #@! TF.FileFunction,Soldermask,Bot*
G04 #@! TF.FilePolarity,Negative*
%FSLAX46Y46*%
G04 Gerber Fmt 4.6, Leading zero omitted, Abs format (unit mm)*
G04 Created by KiCad (PCBNEW 9.0.6) date 2025-12-16 13:31:05*
%MOMM*%
%LPD*%
G01*
G04 APERTURE LIST*
G04 Aperture macros list*
%AMRoundRect*
0 Rectangle with rounded corners*
0 $1 Rounding radius*
0 $2 $3 $4 $5 $6 $7 $8 $9 X,Y pos of 4 corners*
0 Add a 4 corners polygon primitive as box body*
4,1,4,$2,$3,$4,$5,$6,$7,$8,$9,$2,$3,0*
0 Add four circle primitives for the rounded corners*
1,1,$1+$1,$2,$3*
1,1,$1+$1,$4,$5*
1,1,$1+$1,$6,$7*
1,1,$1+$1,$8,$9*
0 Add four rect primitives between the rounded corners*
20,1,$1+$1,$2,$3,$4,$5,0*
20,1,$1+$1,$4,$5,$6,$7,0*
20,1,$1+$1,$6,$7,$8,$9,0*
20,1,$1+$1,$8,$9,$2,$3,0*%
G04 Aperture macros list end*
%ADD10C,1.962000*%
%ADD11C,2.801600*%
%ADD12C,2.000000*%
%ADD13RoundRect,0.140000X-0.170000X0.140000X-0.170000X-0.140000X0.170000X-0.140000X0.170000X0.140000X0*%
%ADD14RoundRect,0.140000X0.140000X0.170000X-0.140000X0.170000X-0.140000X-0.170000X0.140000X-0.170000X0*%
%ADD15RoundRect,0.140000X0.170000X-0.140000X0.170000X0.140000X-0.170000X0.140000X-0.170000X-0.140000X0*%
%ADD16RoundRect,0.250000X0.450000X-0.262500X0.450000X0.262500X-0.450000X0.262500X-0.450000X-0.262500X0*%
%ADD17RoundRect,0.135000X0.185000X-0.135000X0.185000X0.135000X-0.185000X0.135000X-0.185000X-0.135000X0*%
%ADD18RoundRect,0.102000X0.330200X0.774700X-0.330200X0.774700X-0.330200X-0.774700X0.330200X-0.774700X0*%
%ADD19RoundRect,0.102000X0.647700X0.952500X-0.647700X0.952500X-0.647700X-0.952500X0.647700X-0.952500X0*%
%ADD20RoundRect,0.075000X-0.700000X-0.075000X0.700000X-0.075000X0.700000X0.075000X-0.700000X0.075000X0*%
%ADD21RoundRect,0.075000X-0.075000X-0.700000X0.075000X-0.700000X0.075000X0.700000X-0.075000X0.700000X0*%
%ADD22RoundRect,0.140000X-0.140000X-0.170000X0.140000X-0.170000X0.140000X0.170000X-0.140000X0.170000X0*%
%ADD23RoundRect,0.250000X0.262500X0.450000X-0.262500X0.450000X-0.262500X-0.450000X0.262500X-0.450000X0*%
%ADD24RoundRect,0.102000X0.370000X1.395000X-0.370000X1.395000X-0.370000X-1.395000X0.370000X-1.395000X0*%
%ADD25RoundRect,0.150000X0.875000X0.150000X-0.875000X0.150000X-0.875000X-0.150000X0.875000X-0.150000X0*%
%ADD26RoundRect,0.250000X0.400000X-0.550000X0.400000X0.550000X-0.400000X0.550000X-0.400000X-0.550000X0*%
%ADD27RoundRect,0.375000X0.375000X-0.625000X0.375000X0.625000X-0.375000X0.625000X-0.375000X-0.625000X0*%
%ADD28RoundRect,0.500000X1.400000X-0.500000X1.400000X0.500000X-1.400000X0.500000X-1.400000X-0.500000X0*%
%ADD29RoundRect,0.102000X0.774700X-0.330200X0.774700X0.330200X-0.774700X0.330200X-0.774700X-0.330200X0*%
%ADD30RoundRect,0.102000X0.952500X-0.647700X0.952500X0.647700X-0.952500X0.647700X-0.952500X-0.647700X0*%
G04 APERTURE END LIST*
D10*
X252750000Y-228600000D03*
X250250000Y-228600000D03*
X252750000Y-158600000D03*
X255250000Y-228600000D03*
X257750000Y-228600000D03*
D11*
X254000000Y-218600000D03*
X254000000Y-171100000D03*
D10*
X257750000Y-158600000D03*
D12*
X338250000Y-191350000D03*
X344750000Y-191350000D03*
X338250000Y-195850000D03*
X344750000Y-195850000D03*
D10*
X177750000Y-228600000D03*
X175250000Y-228600000D03*
X177750000Y-158600000D03*
X180250000Y-228600000D03*
X182750000Y-228600000D03*
D11*
X179000000Y-218600000D03*
X179000000Y-171100000D03*
D10*
X182750000Y-158600000D03*
X352750000Y-228600000D03*
X350250000Y-228600000D03*
X352750000Y-158600000D03*
X355250000Y-228600000D03*
X357750000Y-228600000D03*
D11*
X354000000Y-218600000D03*
X354000000Y-171100000D03*
D10*
X357750000Y-158600000D03*
X502750000Y-228600000D03*
X500250000Y-228600000D03*
X502750000Y-158600000D03*
X505250000Y-228600000D03*
X507750000Y-228600000D03*
D11*
X504000000Y-218600000D03*
X504000000Y-171100000D03*
D10*
X507750000Y-158600000D03*
X377750000Y-228600000D03*
X375250000Y-228600000D03*
X377750000Y-158600000D03*
X380250000Y-228600000D03*
X382750000Y-228600000D03*
D11*
X379000000Y-218600000D03*
X379000000Y-171100000D03*
D10*
X382750000Y-158600000D03*
X527750000Y-228600000D03*
X525250000Y-228600000D03*
X527750000Y-158600000D03*
X530250000Y-228600000D03*
X532750000Y-228600000D03*
D11*
X529000000Y-218600000D03*
X529000000Y-171100000D03*
D10*
X532750000Y-158600000D03*
X327750000Y-228600000D03*
X325250000Y-228600000D03*
X327750000Y-158600000D03*
X330250000Y-228600000D03*
X332750000Y-228600000D03*
D11*
X329000000Y-218600000D03*
X329000000Y-171100000D03*
D10*
X332750000Y-158600000D03*
X427750000Y-228600000D03*
X425250000Y-228600000D03*
X427750000Y-158600000D03*
X430250000Y-228600000D03*
X432750000Y-228600000D03*
D11*
X429000000Y-218600000D03*
X429000000Y-171100000D03*
D10*
X432750000Y-158600000D03*
X452750000Y-228600000D03*
X450250000Y-228600000D03*
X452750000Y-158600000D03*
X455250000Y-228600000D03*
X457750000Y-228600000D03*
D11*
X454000000Y-218600000D03*
X454000000Y-171100000D03*
D10*
X457750000Y-158600000D03*
X227750000Y-228600000D03*
X225250000Y-228600000D03*
X227750000Y-158600000D03*
X230250000Y-228600000D03*
X232750000Y-228600000D03*
D11*
X229000000Y-218600000D03*
X229000000Y-171100000D03*
D10*
X232750000Y-158600000D03*
X202750000Y-228600000D03*
X200250000Y-228600000D03*
X202750000Y-158600000D03*
X205250000Y-228600000D03*
X207750000Y-228600000D03*
D11*
X204000000Y-218600000D03*
X204000000Y-171100000D03*
D10*
X207750000Y-158600000D03*
X277750000Y-228600000D03*
X275250000Y-228600000D03*
X277750000Y-158600000D03*
X280250000Y-228600000D03*
X282750000Y-228600000D03*
D11*
X279000000Y-218600000D03*
X279000000Y-171100000D03*
D10*
X282750000Y-158600000D03*
X152750000Y-228600000D03*
X150250000Y-228600000D03*
X152750000Y-158600000D03*
X155250000Y-228600000D03*
X157750000Y-228600000D03*
D11*
X154000000Y-218600000D03*
X154000000Y-171100000D03*
D10*
X157750000Y-158600000D03*
X477750000Y-228600000D03*
X475250000Y-228600000D03*
X477750000Y-158600000D03*
X480250000Y-228600000D03*
X482750000Y-228600000D03*
D11*
X479000000Y-218600000D03*
X479000000Y-171100000D03*
D10*
X482750000Y-158600000D03*
X302750000Y-228600000D03*
X300250000Y-228600000D03*
X302750000Y-158600000D03*
X305250000Y-228600000D03*
X307750000Y-228600000D03*
D11*
X304000000Y-218600000D03*
X304000000Y-171100000D03*
D10*
X307750000Y-158600000D03*
X402750000Y-228600000D03*
X400250000Y-228600000D03*
X402750000Y-158600000D03*
X405250000Y-228600000D03*
X407750000Y-228600000D03*
D11*
X404000000Y-218600000D03*
X404000000Y-171100000D03*
D10*
X407750000Y-158600000D03*
D13*
X504150000Y-184620000D03*
X504150000Y-185580000D03*
D14*
X524780000Y-187800000D03*
X523820000Y-187800000D03*
D15*
X512800000Y-192930000D03*
X512800000Y-191970000D03*
D16*
X512750000Y-163882500D03*
X512750000Y-162057500D03*
D17*
X514800000Y-192960000D03*
X514800000Y-191940000D03*
D15*
X521800000Y-169730000D03*
X521800000Y-168770000D03*
D14*
X509200000Y-182950000D03*
X508240000Y-182950000D03*
D18*
X487400000Y-202600000D03*
X488400000Y-202600000D03*
X489400000Y-202600000D03*
X490400000Y-202600000D03*
X491400000Y-202600000D03*
X492400000Y-202600000D03*
X493400000Y-202598500D03*
X494400000Y-202598500D03*
X495400000Y-202598500D03*
X496400000Y-202598500D03*
D19*
X497700000Y-198723500D03*
X486100000Y-198725000D03*
D13*
X520300000Y-176470000D03*
X520300000Y-177430000D03*
D20*
X510875000Y-188450000D03*
X510875000Y-187950000D03*
X510875000Y-187450000D03*
X510875000Y-186950000D03*
X510875000Y-186450000D03*
X510875000Y-185950000D03*
X510875000Y-185450000D03*
X510875000Y-184950000D03*
X510875000Y-184450000D03*
X510875000Y-183950000D03*
X510875000Y-183450000D03*
X510875000Y-182950000D03*
X510875000Y-182450000D03*
X510875000Y-181950000D03*
X510875000Y-181450000D03*
X510875000Y-180950000D03*
D21*
X512800000Y-179025000D03*
X513300000Y-179025000D03*
X513800000Y-179025000D03*
X514300000Y-179025000D03*
X514800000Y-179025000D03*
X515300000Y-179025000D03*
X515800000Y-179025000D03*
X516300000Y-179025000D03*
X516800000Y-179025000D03*
X517300000Y-179025000D03*
X517800000Y-179025000D03*
X518300000Y-179025000D03*
X518800000Y-179025000D03*
X519300000Y-179025000D03*
X519800000Y-179025000D03*
X520300000Y-179025000D03*
D20*
X522225000Y-180950000D03*
X522225000Y-181450000D03*
X522225000Y-181950000D03*
X522225000Y-182450000D03*
X522225000Y-182950000D03*
X522225000Y-183450000D03*
X522225000Y-183950000D03*
X522225000Y-184450000D03*
X522225000Y-184950000D03*
X522225000Y-185450000D03*
X522225000Y-185950000D03*
X522225000Y-186450000D03*
X522225000Y-186950000D03*
X522225000Y-187450000D03*
X522225000Y-187950000D03*
X522225000Y-188450000D03*
D21*
X520300000Y-190375000D03*
X519800000Y-190375000D03*
X519300000Y-190375000D03*
X518800000Y-190375000D03*
X518300000Y-190375000D03*
X517800000Y-190375000D03*
X517300000Y-190375000D03*
X516800000Y-190375000D03*
X516300000Y-190375000D03*
X515800000Y-190375000D03*
X515300000Y-190375000D03*
X514800000Y-190375000D03*
X514300000Y-190375000D03*
X513800000Y-190375000D03*
X513300000Y-190375000D03*
X512800000Y-190375000D03*
D15*
X510150000Y-190830000D03*
X510150000Y-189870000D03*
D22*
X505820000Y-190300000D03*
X506780000Y-190300000D03*
X503970000Y-183050000D03*
X504930000Y-183050000D03*
D14*
X509200000Y-181550000D03*
X508240000Y-181550000D03*
D23*
X484962500Y-189600000D03*
X483137500Y-189600000D03*
D24*
X520590000Y-203135000D03*
X520590000Y-199065000D03*
X519320000Y-203135000D03*
X519320000Y-199065000D03*
X518050000Y-203135000D03*
X518050000Y-199065000D03*
X516780000Y-203135000D03*
X516780000Y-199065000D03*
X515510000Y-203135000D03*
X515510000Y-199065000D03*
X514240000Y-203135000D03*
X514240000Y-199065000D03*
X512970000Y-203135000D03*
X512970000Y-199065000D03*
D15*
X513250000Y-169700000D03*
X513250000Y-168740000D03*
D25*
X346150000Y-206615000D03*
X346150000Y-207885000D03*
X346150000Y-209155000D03*
X346150000Y-210425000D03*
X346150000Y-211695000D03*
X346150000Y-212965000D03*
X346150000Y-214235000D03*
X346150000Y-215505000D03*
X346150000Y-216775000D03*
X346150000Y-218045000D03*
X346150000Y-219315000D03*
X346150000Y-220585000D03*
X336850000Y-220585000D03*
X336850000Y-219315000D03*
X336850000Y-218045000D03*
X336850000Y-216775000D03*
X336850000Y-215505000D03*
X336850000Y-214235000D03*
X336850000Y-212965000D03*
X336850000Y-211695000D03*
X336850000Y-210425000D03*
X336850000Y-209155000D03*
X336850000Y-207885000D03*
X336850000Y-206615000D03*
D13*
X519250000Y-176470000D03*
X519250000Y-177430000D03*
D17*
X516300000Y-172560000D03*
X516300000Y-171540000D03*
D14*
X524780000Y-188850000D03*
X523820000Y-188850000D03*
D26*
X505850000Y-188400000D03*
X505850000Y-185100000D03*
X507850000Y-185100000D03*
X507850000Y-188400000D03*
D27*
X519750000Y-168850000D03*
X517450000Y-168850000D03*
X515150000Y-168850000D03*
D28*
X517450000Y-162550000D03*
D18*
X487400000Y-187600000D03*
X488400000Y-187600000D03*
X489400000Y-187600000D03*
X490400000Y-187600000D03*
X491400000Y-187600000D03*
X492400000Y-187600000D03*
X493400000Y-187598500D03*
X494400000Y-187598500D03*
X495400000Y-187598500D03*
X496400000Y-187598500D03*
D19*
X497700000Y-183723500D03*
X486100000Y-183725000D03*
D14*
X336980000Y-205350000D03*
X336020000Y-205350000D03*
D13*
X513650000Y-176470000D03*
X513650000Y-177430000D03*
D17*
X508100000Y-193860000D03*
X508100000Y-192840000D03*
D29*
X528751500Y-176350000D03*
X528751500Y-177350000D03*
X528751500Y-178350000D03*
X528751500Y-179350000D03*
D30*
X532626500Y-180650000D03*
X532626500Y-175050000D03*
M02*
