G04 #@! TF.GenerationSoftware,KiCad,Pcbnew,9.0.6*
G04 #@! TF.CreationDate,2025-12-16T13:31:05+01:00*
G04 #@! TF.ProjectId,MBO,4d424f2e-6b69-4636-9164-5f7063625858,rev?*
G04 #@! TF.SameCoordinates,Original*
G04 #@! TF.FileFunction,Legend,Top*
G04 #@! TF.FilePolarity,Positive*
%FSLAX46Y46*%
G04 Gerber Fmt 4.6, Leading zero omitted, Abs format (unit mm)*
G04 Created by KiCad (PCBNEW 9.0.6) date 2025-12-16 13:31:05*
%MOMM*%
%LPD*%
G01*
G04 APERTURE LIST*
%ADD10C,0.150000*%
%ADD11C,0.304800*%
%ADD12C,0.120000*%
%ADD13C,1.962000*%
%ADD14C,2.801600*%
%ADD15C,2.000000*%
G04 APERTURE END LIST*
D10*
X340128571Y-198243247D02*
X340242857Y-198281342D01*
X340242857Y-198281342D02*
X340280952Y-198319438D01*
X340280952Y-198319438D02*
X340319048Y-198395628D01*
X340319048Y-198395628D02*
X340319048Y-198509914D01*
X340319048Y-198509914D02*
X340280952Y-198586104D01*
X340280952Y-198586104D02*
X340242857Y-198624200D01*
X340242857Y-198624200D02*
X340166667Y-198662295D01*
X340166667Y-198662295D02*
X339861905Y-198662295D01*
X339861905Y-198662295D02*
X339861905Y-197862295D01*
X339861905Y-197862295D02*
X340128571Y-197862295D01*
X340128571Y-197862295D02*
X340204762Y-197900390D01*
X340204762Y-197900390D02*
X340242857Y-197938485D01*
X340242857Y-197938485D02*
X340280952Y-198014676D01*
X340280952Y-198014676D02*
X340280952Y-198090866D01*
X340280952Y-198090866D02*
X340242857Y-198167057D01*
X340242857Y-198167057D02*
X340204762Y-198205152D01*
X340204762Y-198205152D02*
X340128571Y-198243247D01*
X340128571Y-198243247D02*
X339861905Y-198243247D01*
X340547619Y-197862295D02*
X341004762Y-197862295D01*
X340776190Y-198662295D02*
X340776190Y-197862295D01*
X341652381Y-198662295D02*
X341271429Y-198662295D01*
X341271429Y-198662295D02*
X341271429Y-197862295D01*
X341919048Y-198662295D02*
X341919048Y-197862295D01*
X341919048Y-197862295D02*
X342109524Y-197862295D01*
X342109524Y-197862295D02*
X342223810Y-197900390D01*
X342223810Y-197900390D02*
X342300000Y-197976580D01*
X342300000Y-197976580D02*
X342338095Y-198052771D01*
X342338095Y-198052771D02*
X342376191Y-198205152D01*
X342376191Y-198205152D02*
X342376191Y-198319438D01*
X342376191Y-198319438D02*
X342338095Y-198471819D01*
X342338095Y-198471819D02*
X342300000Y-198548009D01*
X342300000Y-198548009D02*
X342223810Y-198624200D01*
X342223810Y-198624200D02*
X342109524Y-198662295D01*
X342109524Y-198662295D02*
X341919048Y-198662295D01*
X343176191Y-198662295D02*
X342909524Y-198281342D01*
X342719048Y-198662295D02*
X342719048Y-197862295D01*
X342719048Y-197862295D02*
X343023810Y-197862295D01*
X343023810Y-197862295D02*
X343100000Y-197900390D01*
X343100000Y-197900390D02*
X343138095Y-197938485D01*
X343138095Y-197938485D02*
X343176191Y-198014676D01*
X343176191Y-198014676D02*
X343176191Y-198128961D01*
X343176191Y-198128961D02*
X343138095Y-198205152D01*
X343138095Y-198205152D02*
X343100000Y-198243247D01*
X343100000Y-198243247D02*
X343023810Y-198281342D01*
X343023810Y-198281342D02*
X342719048Y-198281342D01*
X247743247Y-231344173D02*
X247743247Y-231610839D01*
X248162295Y-231610839D02*
X247362295Y-231610839D01*
X247362295Y-231610839D02*
X247362295Y-231229887D01*
X247933723Y-230963221D02*
X247933723Y-230582268D01*
X248162295Y-231039411D02*
X247362295Y-230772744D01*
X247362295Y-230772744D02*
X248162295Y-230506078D01*
X248162295Y-230239411D02*
X247362295Y-230239411D01*
X247362295Y-230239411D02*
X247362295Y-230048935D01*
X247362295Y-230048935D02*
X247400390Y-229934649D01*
X247400390Y-229934649D02*
X247476580Y-229858459D01*
X247476580Y-229858459D02*
X247552771Y-229820364D01*
X247552771Y-229820364D02*
X247705152Y-229782268D01*
X247705152Y-229782268D02*
X247819438Y-229782268D01*
X247819438Y-229782268D02*
X247971819Y-229820364D01*
X247971819Y-229820364D02*
X248048009Y-229858459D01*
X248048009Y-229858459D02*
X248124200Y-229934649D01*
X248124200Y-229934649D02*
X248162295Y-230048935D01*
X248162295Y-230048935D02*
X248162295Y-230239411D01*
X247743247Y-229439411D02*
X247743247Y-229172745D01*
X248162295Y-229058459D02*
X248162295Y-229439411D01*
X248162295Y-229439411D02*
X247362295Y-229439411D01*
X247362295Y-229439411D02*
X247362295Y-229058459D01*
X248162295Y-228258458D02*
X247781342Y-228525125D01*
X248162295Y-228715601D02*
X247362295Y-228715601D01*
X247362295Y-228715601D02*
X247362295Y-228410839D01*
X247362295Y-228410839D02*
X247400390Y-228334649D01*
X247400390Y-228334649D02*
X247438485Y-228296554D01*
X247438485Y-228296554D02*
X247514676Y-228258458D01*
X247514676Y-228258458D02*
X247628961Y-228258458D01*
X247628961Y-228258458D02*
X247705152Y-228296554D01*
X247705152Y-228296554D02*
X247743247Y-228334649D01*
X247743247Y-228334649D02*
X247781342Y-228410839D01*
X247781342Y-228410839D02*
X247781342Y-228715601D01*
X247362295Y-227534649D02*
X247362295Y-227915601D01*
X247362295Y-227915601D02*
X247743247Y-227953697D01*
X247743247Y-227953697D02*
X247705152Y-227915601D01*
X247705152Y-227915601D02*
X247667057Y-227839411D01*
X247667057Y-227839411D02*
X247667057Y-227648935D01*
X247667057Y-227648935D02*
X247705152Y-227572744D01*
X247705152Y-227572744D02*
X247743247Y-227534649D01*
X247743247Y-227534649D02*
X247819438Y-227496554D01*
X247819438Y-227496554D02*
X248009914Y-227496554D01*
X248009914Y-227496554D02*
X248086104Y-227534649D01*
X248086104Y-227534649D02*
X248124200Y-227572744D01*
X248124200Y-227572744D02*
X248162295Y-227648935D01*
X248162295Y-227648935D02*
X248162295Y-227839411D01*
X248162295Y-227839411D02*
X248124200Y-227915601D01*
X248124200Y-227915601D02*
X248086104Y-227953697D01*
X340433332Y-189524200D02*
X340547618Y-189562295D01*
X340547618Y-189562295D02*
X340738094Y-189562295D01*
X340738094Y-189562295D02*
X340814285Y-189524200D01*
X340814285Y-189524200D02*
X340852380Y-189486104D01*
X340852380Y-189486104D02*
X340890475Y-189409914D01*
X340890475Y-189409914D02*
X340890475Y-189333723D01*
X340890475Y-189333723D02*
X340852380Y-189257533D01*
X340852380Y-189257533D02*
X340814285Y-189219438D01*
X340814285Y-189219438D02*
X340738094Y-189181342D01*
X340738094Y-189181342D02*
X340585713Y-189143247D01*
X340585713Y-189143247D02*
X340509523Y-189105152D01*
X340509523Y-189105152D02*
X340471428Y-189067057D01*
X340471428Y-189067057D02*
X340433332Y-188990866D01*
X340433332Y-188990866D02*
X340433332Y-188914676D01*
X340433332Y-188914676D02*
X340471428Y-188838485D01*
X340471428Y-188838485D02*
X340509523Y-188800390D01*
X340509523Y-188800390D02*
X340585713Y-188762295D01*
X340585713Y-188762295D02*
X340776190Y-188762295D01*
X340776190Y-188762295D02*
X340890475Y-188800390D01*
X341157142Y-188762295D02*
X341347618Y-189562295D01*
X341347618Y-189562295D02*
X341499999Y-188990866D01*
X341499999Y-188990866D02*
X341652380Y-189562295D01*
X341652380Y-189562295D02*
X341842857Y-188762295D01*
X342566666Y-189562295D02*
X342109523Y-189562295D01*
X342338095Y-189562295D02*
X342338095Y-188762295D01*
X342338095Y-188762295D02*
X342261904Y-188876580D01*
X342261904Y-188876580D02*
X342185714Y-188952771D01*
X342185714Y-188952771D02*
X342109523Y-188990866D01*
X172743247Y-231344173D02*
X172743247Y-231610839D01*
X173162295Y-231610839D02*
X172362295Y-231610839D01*
X172362295Y-231610839D02*
X172362295Y-231229887D01*
X172933723Y-230963221D02*
X172933723Y-230582268D01*
X173162295Y-231039411D02*
X172362295Y-230772744D01*
X172362295Y-230772744D02*
X173162295Y-230506078D01*
X173162295Y-230239411D02*
X172362295Y-230239411D01*
X172362295Y-230239411D02*
X172362295Y-230048935D01*
X172362295Y-230048935D02*
X172400390Y-229934649D01*
X172400390Y-229934649D02*
X172476580Y-229858459D01*
X172476580Y-229858459D02*
X172552771Y-229820364D01*
X172552771Y-229820364D02*
X172705152Y-229782268D01*
X172705152Y-229782268D02*
X172819438Y-229782268D01*
X172819438Y-229782268D02*
X172971819Y-229820364D01*
X172971819Y-229820364D02*
X173048009Y-229858459D01*
X173048009Y-229858459D02*
X173124200Y-229934649D01*
X173124200Y-229934649D02*
X173162295Y-230048935D01*
X173162295Y-230048935D02*
X173162295Y-230239411D01*
X172743247Y-229439411D02*
X172743247Y-229172745D01*
X173162295Y-229058459D02*
X173162295Y-229439411D01*
X173162295Y-229439411D02*
X172362295Y-229439411D01*
X172362295Y-229439411D02*
X172362295Y-229058459D01*
X173162295Y-228258458D02*
X172781342Y-228525125D01*
X173162295Y-228715601D02*
X172362295Y-228715601D01*
X172362295Y-228715601D02*
X172362295Y-228410839D01*
X172362295Y-228410839D02*
X172400390Y-228334649D01*
X172400390Y-228334649D02*
X172438485Y-228296554D01*
X172438485Y-228296554D02*
X172514676Y-228258458D01*
X172514676Y-228258458D02*
X172628961Y-228258458D01*
X172628961Y-228258458D02*
X172705152Y-228296554D01*
X172705152Y-228296554D02*
X172743247Y-228334649D01*
X172743247Y-228334649D02*
X172781342Y-228410839D01*
X172781342Y-228410839D02*
X172781342Y-228715601D01*
X172438485Y-227953697D02*
X172400390Y-227915601D01*
X172400390Y-227915601D02*
X172362295Y-227839411D01*
X172362295Y-227839411D02*
X172362295Y-227648935D01*
X172362295Y-227648935D02*
X172400390Y-227572744D01*
X172400390Y-227572744D02*
X172438485Y-227534649D01*
X172438485Y-227534649D02*
X172514676Y-227496554D01*
X172514676Y-227496554D02*
X172590866Y-227496554D01*
X172590866Y-227496554D02*
X172705152Y-227534649D01*
X172705152Y-227534649D02*
X173162295Y-227991792D01*
X173162295Y-227991792D02*
X173162295Y-227496554D01*
X347743247Y-231344173D02*
X347743247Y-231610839D01*
X348162295Y-231610839D02*
X347362295Y-231610839D01*
X347362295Y-231610839D02*
X347362295Y-231229887D01*
X347933723Y-230963221D02*
X347933723Y-230582268D01*
X348162295Y-231039411D02*
X347362295Y-230772744D01*
X347362295Y-230772744D02*
X348162295Y-230506078D01*
X348162295Y-230239411D02*
X347362295Y-230239411D01*
X347362295Y-230239411D02*
X347362295Y-230048935D01*
X347362295Y-230048935D02*
X347400390Y-229934649D01*
X347400390Y-229934649D02*
X347476580Y-229858459D01*
X347476580Y-229858459D02*
X347552771Y-229820364D01*
X347552771Y-229820364D02*
X347705152Y-229782268D01*
X347705152Y-229782268D02*
X347819438Y-229782268D01*
X347819438Y-229782268D02*
X347971819Y-229820364D01*
X347971819Y-229820364D02*
X348048009Y-229858459D01*
X348048009Y-229858459D02*
X348124200Y-229934649D01*
X348124200Y-229934649D02*
X348162295Y-230048935D01*
X348162295Y-230048935D02*
X348162295Y-230239411D01*
X347743247Y-229439411D02*
X347743247Y-229172745D01*
X348162295Y-229058459D02*
X348162295Y-229439411D01*
X348162295Y-229439411D02*
X347362295Y-229439411D01*
X347362295Y-229439411D02*
X347362295Y-229058459D01*
X348162295Y-228258458D02*
X347781342Y-228525125D01*
X348162295Y-228715601D02*
X347362295Y-228715601D01*
X347362295Y-228715601D02*
X347362295Y-228410839D01*
X347362295Y-228410839D02*
X347400390Y-228334649D01*
X347400390Y-228334649D02*
X347438485Y-228296554D01*
X347438485Y-228296554D02*
X347514676Y-228258458D01*
X347514676Y-228258458D02*
X347628961Y-228258458D01*
X347628961Y-228258458D02*
X347705152Y-228296554D01*
X347705152Y-228296554D02*
X347743247Y-228334649D01*
X347743247Y-228334649D02*
X347781342Y-228410839D01*
X347781342Y-228410839D02*
X347781342Y-228715601D01*
X348162295Y-227877506D02*
X348162295Y-227725125D01*
X348162295Y-227725125D02*
X348124200Y-227648935D01*
X348124200Y-227648935D02*
X348086104Y-227610839D01*
X348086104Y-227610839D02*
X347971819Y-227534649D01*
X347971819Y-227534649D02*
X347819438Y-227496554D01*
X347819438Y-227496554D02*
X347514676Y-227496554D01*
X347514676Y-227496554D02*
X347438485Y-227534649D01*
X347438485Y-227534649D02*
X347400390Y-227572744D01*
X347400390Y-227572744D02*
X347362295Y-227648935D01*
X347362295Y-227648935D02*
X347362295Y-227801316D01*
X347362295Y-227801316D02*
X347400390Y-227877506D01*
X347400390Y-227877506D02*
X347438485Y-227915601D01*
X347438485Y-227915601D02*
X347514676Y-227953697D01*
X347514676Y-227953697D02*
X347705152Y-227953697D01*
X347705152Y-227953697D02*
X347781342Y-227915601D01*
X347781342Y-227915601D02*
X347819438Y-227877506D01*
X347819438Y-227877506D02*
X347857533Y-227801316D01*
X347857533Y-227801316D02*
X347857533Y-227648935D01*
X347857533Y-227648935D02*
X347819438Y-227572744D01*
X347819438Y-227572744D02*
X347781342Y-227534649D01*
X347781342Y-227534649D02*
X347705152Y-227496554D01*
X497743247Y-231344173D02*
X497743247Y-231610839D01*
X498162295Y-231610839D02*
X497362295Y-231610839D01*
X497362295Y-231610839D02*
X497362295Y-231229887D01*
X497933723Y-230963221D02*
X497933723Y-230582268D01*
X498162295Y-231039411D02*
X497362295Y-230772744D01*
X497362295Y-230772744D02*
X498162295Y-230506078D01*
X498162295Y-230239411D02*
X497362295Y-230239411D01*
X497362295Y-230239411D02*
X497362295Y-230048935D01*
X497362295Y-230048935D02*
X497400390Y-229934649D01*
X497400390Y-229934649D02*
X497476580Y-229858459D01*
X497476580Y-229858459D02*
X497552771Y-229820364D01*
X497552771Y-229820364D02*
X497705152Y-229782268D01*
X497705152Y-229782268D02*
X497819438Y-229782268D01*
X497819438Y-229782268D02*
X497971819Y-229820364D01*
X497971819Y-229820364D02*
X498048009Y-229858459D01*
X498048009Y-229858459D02*
X498124200Y-229934649D01*
X498124200Y-229934649D02*
X498162295Y-230048935D01*
X498162295Y-230048935D02*
X498162295Y-230239411D01*
X497743247Y-229439411D02*
X497743247Y-229172745D01*
X498162295Y-229058459D02*
X498162295Y-229439411D01*
X498162295Y-229439411D02*
X497362295Y-229439411D01*
X497362295Y-229439411D02*
X497362295Y-229058459D01*
X498162295Y-228258458D02*
X497781342Y-228525125D01*
X498162295Y-228715601D02*
X497362295Y-228715601D01*
X497362295Y-228715601D02*
X497362295Y-228410839D01*
X497362295Y-228410839D02*
X497400390Y-228334649D01*
X497400390Y-228334649D02*
X497438485Y-228296554D01*
X497438485Y-228296554D02*
X497514676Y-228258458D01*
X497514676Y-228258458D02*
X497628961Y-228258458D01*
X497628961Y-228258458D02*
X497705152Y-228296554D01*
X497705152Y-228296554D02*
X497743247Y-228334649D01*
X497743247Y-228334649D02*
X497781342Y-228410839D01*
X497781342Y-228410839D02*
X497781342Y-228715601D01*
X498162295Y-227496554D02*
X498162295Y-227953697D01*
X498162295Y-227725125D02*
X497362295Y-227725125D01*
X497362295Y-227725125D02*
X497476580Y-227801316D01*
X497476580Y-227801316D02*
X497552771Y-227877506D01*
X497552771Y-227877506D02*
X497590866Y-227953697D01*
X497362295Y-226772744D02*
X497362295Y-227153696D01*
X497362295Y-227153696D02*
X497743247Y-227191792D01*
X497743247Y-227191792D02*
X497705152Y-227153696D01*
X497705152Y-227153696D02*
X497667057Y-227077506D01*
X497667057Y-227077506D02*
X497667057Y-226887030D01*
X497667057Y-226887030D02*
X497705152Y-226810839D01*
X497705152Y-226810839D02*
X497743247Y-226772744D01*
X497743247Y-226772744D02*
X497819438Y-226734649D01*
X497819438Y-226734649D02*
X498009914Y-226734649D01*
X498009914Y-226734649D02*
X498086104Y-226772744D01*
X498086104Y-226772744D02*
X498124200Y-226810839D01*
X498124200Y-226810839D02*
X498162295Y-226887030D01*
X498162295Y-226887030D02*
X498162295Y-227077506D01*
X498162295Y-227077506D02*
X498124200Y-227153696D01*
X498124200Y-227153696D02*
X498086104Y-227191792D01*
X372743247Y-231344173D02*
X372743247Y-231610839D01*
X373162295Y-231610839D02*
X372362295Y-231610839D01*
X372362295Y-231610839D02*
X372362295Y-231229887D01*
X372933723Y-230963221D02*
X372933723Y-230582268D01*
X373162295Y-231039411D02*
X372362295Y-230772744D01*
X372362295Y-230772744D02*
X373162295Y-230506078D01*
X373162295Y-230239411D02*
X372362295Y-230239411D01*
X372362295Y-230239411D02*
X372362295Y-230048935D01*
X372362295Y-230048935D02*
X372400390Y-229934649D01*
X372400390Y-229934649D02*
X372476580Y-229858459D01*
X372476580Y-229858459D02*
X372552771Y-229820364D01*
X372552771Y-229820364D02*
X372705152Y-229782268D01*
X372705152Y-229782268D02*
X372819438Y-229782268D01*
X372819438Y-229782268D02*
X372971819Y-229820364D01*
X372971819Y-229820364D02*
X373048009Y-229858459D01*
X373048009Y-229858459D02*
X373124200Y-229934649D01*
X373124200Y-229934649D02*
X373162295Y-230048935D01*
X373162295Y-230048935D02*
X373162295Y-230239411D01*
X372743247Y-229439411D02*
X372743247Y-229172745D01*
X373162295Y-229058459D02*
X373162295Y-229439411D01*
X373162295Y-229439411D02*
X372362295Y-229439411D01*
X372362295Y-229439411D02*
X372362295Y-229058459D01*
X373162295Y-228258458D02*
X372781342Y-228525125D01*
X373162295Y-228715601D02*
X372362295Y-228715601D01*
X372362295Y-228715601D02*
X372362295Y-228410839D01*
X372362295Y-228410839D02*
X372400390Y-228334649D01*
X372400390Y-228334649D02*
X372438485Y-228296554D01*
X372438485Y-228296554D02*
X372514676Y-228258458D01*
X372514676Y-228258458D02*
X372628961Y-228258458D01*
X372628961Y-228258458D02*
X372705152Y-228296554D01*
X372705152Y-228296554D02*
X372743247Y-228334649D01*
X372743247Y-228334649D02*
X372781342Y-228410839D01*
X372781342Y-228410839D02*
X372781342Y-228715601D01*
X373162295Y-227496554D02*
X373162295Y-227953697D01*
X373162295Y-227725125D02*
X372362295Y-227725125D01*
X372362295Y-227725125D02*
X372476580Y-227801316D01*
X372476580Y-227801316D02*
X372552771Y-227877506D01*
X372552771Y-227877506D02*
X372590866Y-227953697D01*
X372362295Y-227001315D02*
X372362295Y-226925125D01*
X372362295Y-226925125D02*
X372400390Y-226848934D01*
X372400390Y-226848934D02*
X372438485Y-226810839D01*
X372438485Y-226810839D02*
X372514676Y-226772744D01*
X372514676Y-226772744D02*
X372667057Y-226734649D01*
X372667057Y-226734649D02*
X372857533Y-226734649D01*
X372857533Y-226734649D02*
X373009914Y-226772744D01*
X373009914Y-226772744D02*
X373086104Y-226810839D01*
X373086104Y-226810839D02*
X373124200Y-226848934D01*
X373124200Y-226848934D02*
X373162295Y-226925125D01*
X373162295Y-226925125D02*
X373162295Y-227001315D01*
X373162295Y-227001315D02*
X373124200Y-227077506D01*
X373124200Y-227077506D02*
X373086104Y-227115601D01*
X373086104Y-227115601D02*
X373009914Y-227153696D01*
X373009914Y-227153696D02*
X372857533Y-227191792D01*
X372857533Y-227191792D02*
X372667057Y-227191792D01*
X372667057Y-227191792D02*
X372514676Y-227153696D01*
X372514676Y-227153696D02*
X372438485Y-227115601D01*
X372438485Y-227115601D02*
X372400390Y-227077506D01*
X372400390Y-227077506D02*
X372362295Y-227001315D01*
X522743247Y-231344173D02*
X522743247Y-231610839D01*
X523162295Y-231610839D02*
X522362295Y-231610839D01*
X522362295Y-231610839D02*
X522362295Y-231229887D01*
X522933723Y-230963221D02*
X522933723Y-230582268D01*
X523162295Y-231039411D02*
X522362295Y-230772744D01*
X522362295Y-230772744D02*
X523162295Y-230506078D01*
X523162295Y-230239411D02*
X522362295Y-230239411D01*
X522362295Y-230239411D02*
X522362295Y-230048935D01*
X522362295Y-230048935D02*
X522400390Y-229934649D01*
X522400390Y-229934649D02*
X522476580Y-229858459D01*
X522476580Y-229858459D02*
X522552771Y-229820364D01*
X522552771Y-229820364D02*
X522705152Y-229782268D01*
X522705152Y-229782268D02*
X522819438Y-229782268D01*
X522819438Y-229782268D02*
X522971819Y-229820364D01*
X522971819Y-229820364D02*
X523048009Y-229858459D01*
X523048009Y-229858459D02*
X523124200Y-229934649D01*
X523124200Y-229934649D02*
X523162295Y-230048935D01*
X523162295Y-230048935D02*
X523162295Y-230239411D01*
X522743247Y-229439411D02*
X522743247Y-229172745D01*
X523162295Y-229058459D02*
X523162295Y-229439411D01*
X523162295Y-229439411D02*
X522362295Y-229439411D01*
X522362295Y-229439411D02*
X522362295Y-229058459D01*
X523162295Y-228258458D02*
X522781342Y-228525125D01*
X523162295Y-228715601D02*
X522362295Y-228715601D01*
X522362295Y-228715601D02*
X522362295Y-228410839D01*
X522362295Y-228410839D02*
X522400390Y-228334649D01*
X522400390Y-228334649D02*
X522438485Y-228296554D01*
X522438485Y-228296554D02*
X522514676Y-228258458D01*
X522514676Y-228258458D02*
X522628961Y-228258458D01*
X522628961Y-228258458D02*
X522705152Y-228296554D01*
X522705152Y-228296554D02*
X522743247Y-228334649D01*
X522743247Y-228334649D02*
X522781342Y-228410839D01*
X522781342Y-228410839D02*
X522781342Y-228715601D01*
X523162295Y-227496554D02*
X523162295Y-227953697D01*
X523162295Y-227725125D02*
X522362295Y-227725125D01*
X522362295Y-227725125D02*
X522476580Y-227801316D01*
X522476580Y-227801316D02*
X522552771Y-227877506D01*
X522552771Y-227877506D02*
X522590866Y-227953697D01*
X522362295Y-226810839D02*
X522362295Y-226963220D01*
X522362295Y-226963220D02*
X522400390Y-227039411D01*
X522400390Y-227039411D02*
X522438485Y-227077506D01*
X522438485Y-227077506D02*
X522552771Y-227153696D01*
X522552771Y-227153696D02*
X522705152Y-227191792D01*
X522705152Y-227191792D02*
X523009914Y-227191792D01*
X523009914Y-227191792D02*
X523086104Y-227153696D01*
X523086104Y-227153696D02*
X523124200Y-227115601D01*
X523124200Y-227115601D02*
X523162295Y-227039411D01*
X523162295Y-227039411D02*
X523162295Y-226887030D01*
X523162295Y-226887030D02*
X523124200Y-226810839D01*
X523124200Y-226810839D02*
X523086104Y-226772744D01*
X523086104Y-226772744D02*
X523009914Y-226734649D01*
X523009914Y-226734649D02*
X522819438Y-226734649D01*
X522819438Y-226734649D02*
X522743247Y-226772744D01*
X522743247Y-226772744D02*
X522705152Y-226810839D01*
X522705152Y-226810839D02*
X522667057Y-226887030D01*
X522667057Y-226887030D02*
X522667057Y-227039411D01*
X522667057Y-227039411D02*
X522705152Y-227115601D01*
X522705152Y-227115601D02*
X522743247Y-227153696D01*
X522743247Y-227153696D02*
X522819438Y-227191792D01*
X322743247Y-231344173D02*
X322743247Y-231610839D01*
X323162295Y-231610839D02*
X322362295Y-231610839D01*
X322362295Y-231610839D02*
X322362295Y-231229887D01*
X322933723Y-230963221D02*
X322933723Y-230582268D01*
X323162295Y-231039411D02*
X322362295Y-230772744D01*
X322362295Y-230772744D02*
X323162295Y-230506078D01*
X323162295Y-230239411D02*
X322362295Y-230239411D01*
X322362295Y-230239411D02*
X322362295Y-230048935D01*
X322362295Y-230048935D02*
X322400390Y-229934649D01*
X322400390Y-229934649D02*
X322476580Y-229858459D01*
X322476580Y-229858459D02*
X322552771Y-229820364D01*
X322552771Y-229820364D02*
X322705152Y-229782268D01*
X322705152Y-229782268D02*
X322819438Y-229782268D01*
X322819438Y-229782268D02*
X322971819Y-229820364D01*
X322971819Y-229820364D02*
X323048009Y-229858459D01*
X323048009Y-229858459D02*
X323124200Y-229934649D01*
X323124200Y-229934649D02*
X323162295Y-230048935D01*
X323162295Y-230048935D02*
X323162295Y-230239411D01*
X322743247Y-229439411D02*
X322743247Y-229172745D01*
X323162295Y-229058459D02*
X323162295Y-229439411D01*
X323162295Y-229439411D02*
X322362295Y-229439411D01*
X322362295Y-229439411D02*
X322362295Y-229058459D01*
X323162295Y-228258458D02*
X322781342Y-228525125D01*
X323162295Y-228715601D02*
X322362295Y-228715601D01*
X322362295Y-228715601D02*
X322362295Y-228410839D01*
X322362295Y-228410839D02*
X322400390Y-228334649D01*
X322400390Y-228334649D02*
X322438485Y-228296554D01*
X322438485Y-228296554D02*
X322514676Y-228258458D01*
X322514676Y-228258458D02*
X322628961Y-228258458D01*
X322628961Y-228258458D02*
X322705152Y-228296554D01*
X322705152Y-228296554D02*
X322743247Y-228334649D01*
X322743247Y-228334649D02*
X322781342Y-228410839D01*
X322781342Y-228410839D02*
X322781342Y-228715601D01*
X322705152Y-227801316D02*
X322667057Y-227877506D01*
X322667057Y-227877506D02*
X322628961Y-227915601D01*
X322628961Y-227915601D02*
X322552771Y-227953697D01*
X322552771Y-227953697D02*
X322514676Y-227953697D01*
X322514676Y-227953697D02*
X322438485Y-227915601D01*
X322438485Y-227915601D02*
X322400390Y-227877506D01*
X322400390Y-227877506D02*
X322362295Y-227801316D01*
X322362295Y-227801316D02*
X322362295Y-227648935D01*
X322362295Y-227648935D02*
X322400390Y-227572744D01*
X322400390Y-227572744D02*
X322438485Y-227534649D01*
X322438485Y-227534649D02*
X322514676Y-227496554D01*
X322514676Y-227496554D02*
X322552771Y-227496554D01*
X322552771Y-227496554D02*
X322628961Y-227534649D01*
X322628961Y-227534649D02*
X322667057Y-227572744D01*
X322667057Y-227572744D02*
X322705152Y-227648935D01*
X322705152Y-227648935D02*
X322705152Y-227801316D01*
X322705152Y-227801316D02*
X322743247Y-227877506D01*
X322743247Y-227877506D02*
X322781342Y-227915601D01*
X322781342Y-227915601D02*
X322857533Y-227953697D01*
X322857533Y-227953697D02*
X323009914Y-227953697D01*
X323009914Y-227953697D02*
X323086104Y-227915601D01*
X323086104Y-227915601D02*
X323124200Y-227877506D01*
X323124200Y-227877506D02*
X323162295Y-227801316D01*
X323162295Y-227801316D02*
X323162295Y-227648935D01*
X323162295Y-227648935D02*
X323124200Y-227572744D01*
X323124200Y-227572744D02*
X323086104Y-227534649D01*
X323086104Y-227534649D02*
X323009914Y-227496554D01*
X323009914Y-227496554D02*
X322857533Y-227496554D01*
X322857533Y-227496554D02*
X322781342Y-227534649D01*
X322781342Y-227534649D02*
X322743247Y-227572744D01*
X322743247Y-227572744D02*
X322705152Y-227648935D01*
X422743247Y-231344173D02*
X422743247Y-231610839D01*
X423162295Y-231610839D02*
X422362295Y-231610839D01*
X422362295Y-231610839D02*
X422362295Y-231229887D01*
X422933723Y-230963221D02*
X422933723Y-230582268D01*
X423162295Y-231039411D02*
X422362295Y-230772744D01*
X422362295Y-230772744D02*
X423162295Y-230506078D01*
X423162295Y-230239411D02*
X422362295Y-230239411D01*
X422362295Y-230239411D02*
X422362295Y-230048935D01*
X422362295Y-230048935D02*
X422400390Y-229934649D01*
X422400390Y-229934649D02*
X422476580Y-229858459D01*
X422476580Y-229858459D02*
X422552771Y-229820364D01*
X422552771Y-229820364D02*
X422705152Y-229782268D01*
X422705152Y-229782268D02*
X422819438Y-229782268D01*
X422819438Y-229782268D02*
X422971819Y-229820364D01*
X422971819Y-229820364D02*
X423048009Y-229858459D01*
X423048009Y-229858459D02*
X423124200Y-229934649D01*
X423124200Y-229934649D02*
X423162295Y-230048935D01*
X423162295Y-230048935D02*
X423162295Y-230239411D01*
X422743247Y-229439411D02*
X422743247Y-229172745D01*
X423162295Y-229058459D02*
X423162295Y-229439411D01*
X423162295Y-229439411D02*
X422362295Y-229439411D01*
X422362295Y-229439411D02*
X422362295Y-229058459D01*
X423162295Y-228258458D02*
X422781342Y-228525125D01*
X423162295Y-228715601D02*
X422362295Y-228715601D01*
X422362295Y-228715601D02*
X422362295Y-228410839D01*
X422362295Y-228410839D02*
X422400390Y-228334649D01*
X422400390Y-228334649D02*
X422438485Y-228296554D01*
X422438485Y-228296554D02*
X422514676Y-228258458D01*
X422514676Y-228258458D02*
X422628961Y-228258458D01*
X422628961Y-228258458D02*
X422705152Y-228296554D01*
X422705152Y-228296554D02*
X422743247Y-228334649D01*
X422743247Y-228334649D02*
X422781342Y-228410839D01*
X422781342Y-228410839D02*
X422781342Y-228715601D01*
X423162295Y-227496554D02*
X423162295Y-227953697D01*
X423162295Y-227725125D02*
X422362295Y-227725125D01*
X422362295Y-227725125D02*
X422476580Y-227801316D01*
X422476580Y-227801316D02*
X422552771Y-227877506D01*
X422552771Y-227877506D02*
X422590866Y-227953697D01*
X422438485Y-227191792D02*
X422400390Y-227153696D01*
X422400390Y-227153696D02*
X422362295Y-227077506D01*
X422362295Y-227077506D02*
X422362295Y-226887030D01*
X422362295Y-226887030D02*
X422400390Y-226810839D01*
X422400390Y-226810839D02*
X422438485Y-226772744D01*
X422438485Y-226772744D02*
X422514676Y-226734649D01*
X422514676Y-226734649D02*
X422590866Y-226734649D01*
X422590866Y-226734649D02*
X422705152Y-226772744D01*
X422705152Y-226772744D02*
X423162295Y-227229887D01*
X423162295Y-227229887D02*
X423162295Y-226734649D01*
X447743247Y-231344173D02*
X447743247Y-231610839D01*
X448162295Y-231610839D02*
X447362295Y-231610839D01*
X447362295Y-231610839D02*
X447362295Y-231229887D01*
X447933723Y-230963221D02*
X447933723Y-230582268D01*
X448162295Y-231039411D02*
X447362295Y-230772744D01*
X447362295Y-230772744D02*
X448162295Y-230506078D01*
X448162295Y-230239411D02*
X447362295Y-230239411D01*
X447362295Y-230239411D02*
X447362295Y-230048935D01*
X447362295Y-230048935D02*
X447400390Y-229934649D01*
X447400390Y-229934649D02*
X447476580Y-229858459D01*
X447476580Y-229858459D02*
X447552771Y-229820364D01*
X447552771Y-229820364D02*
X447705152Y-229782268D01*
X447705152Y-229782268D02*
X447819438Y-229782268D01*
X447819438Y-229782268D02*
X447971819Y-229820364D01*
X447971819Y-229820364D02*
X448048009Y-229858459D01*
X448048009Y-229858459D02*
X448124200Y-229934649D01*
X448124200Y-229934649D02*
X448162295Y-230048935D01*
X448162295Y-230048935D02*
X448162295Y-230239411D01*
X447743247Y-229439411D02*
X447743247Y-229172745D01*
X448162295Y-229058459D02*
X448162295Y-229439411D01*
X448162295Y-229439411D02*
X447362295Y-229439411D01*
X447362295Y-229439411D02*
X447362295Y-229058459D01*
X448162295Y-228258458D02*
X447781342Y-228525125D01*
X448162295Y-228715601D02*
X447362295Y-228715601D01*
X447362295Y-228715601D02*
X447362295Y-228410839D01*
X447362295Y-228410839D02*
X447400390Y-228334649D01*
X447400390Y-228334649D02*
X447438485Y-228296554D01*
X447438485Y-228296554D02*
X447514676Y-228258458D01*
X447514676Y-228258458D02*
X447628961Y-228258458D01*
X447628961Y-228258458D02*
X447705152Y-228296554D01*
X447705152Y-228296554D02*
X447743247Y-228334649D01*
X447743247Y-228334649D02*
X447781342Y-228410839D01*
X447781342Y-228410839D02*
X447781342Y-228715601D01*
X448162295Y-227496554D02*
X448162295Y-227953697D01*
X448162295Y-227725125D02*
X447362295Y-227725125D01*
X447362295Y-227725125D02*
X447476580Y-227801316D01*
X447476580Y-227801316D02*
X447552771Y-227877506D01*
X447552771Y-227877506D02*
X447590866Y-227953697D01*
X447362295Y-227229887D02*
X447362295Y-226734649D01*
X447362295Y-226734649D02*
X447667057Y-227001315D01*
X447667057Y-227001315D02*
X447667057Y-226887030D01*
X447667057Y-226887030D02*
X447705152Y-226810839D01*
X447705152Y-226810839D02*
X447743247Y-226772744D01*
X447743247Y-226772744D02*
X447819438Y-226734649D01*
X447819438Y-226734649D02*
X448009914Y-226734649D01*
X448009914Y-226734649D02*
X448086104Y-226772744D01*
X448086104Y-226772744D02*
X448124200Y-226810839D01*
X448124200Y-226810839D02*
X448162295Y-226887030D01*
X448162295Y-226887030D02*
X448162295Y-227115601D01*
X448162295Y-227115601D02*
X448124200Y-227191792D01*
X448124200Y-227191792D02*
X448086104Y-227229887D01*
X222743247Y-231344173D02*
X222743247Y-231610839D01*
X223162295Y-231610839D02*
X222362295Y-231610839D01*
X222362295Y-231610839D02*
X222362295Y-231229887D01*
X222933723Y-230963221D02*
X222933723Y-230582268D01*
X223162295Y-231039411D02*
X222362295Y-230772744D01*
X222362295Y-230772744D02*
X223162295Y-230506078D01*
X223162295Y-230239411D02*
X222362295Y-230239411D01*
X222362295Y-230239411D02*
X222362295Y-230048935D01*
X222362295Y-230048935D02*
X222400390Y-229934649D01*
X222400390Y-229934649D02*
X222476580Y-229858459D01*
X222476580Y-229858459D02*
X222552771Y-229820364D01*
X222552771Y-229820364D02*
X222705152Y-229782268D01*
X222705152Y-229782268D02*
X222819438Y-229782268D01*
X222819438Y-229782268D02*
X222971819Y-229820364D01*
X222971819Y-229820364D02*
X223048009Y-229858459D01*
X223048009Y-229858459D02*
X223124200Y-229934649D01*
X223124200Y-229934649D02*
X223162295Y-230048935D01*
X223162295Y-230048935D02*
X223162295Y-230239411D01*
X222743247Y-229439411D02*
X222743247Y-229172745D01*
X223162295Y-229058459D02*
X223162295Y-229439411D01*
X223162295Y-229439411D02*
X222362295Y-229439411D01*
X222362295Y-229439411D02*
X222362295Y-229058459D01*
X223162295Y-228258458D02*
X222781342Y-228525125D01*
X223162295Y-228715601D02*
X222362295Y-228715601D01*
X222362295Y-228715601D02*
X222362295Y-228410839D01*
X222362295Y-228410839D02*
X222400390Y-228334649D01*
X222400390Y-228334649D02*
X222438485Y-228296554D01*
X222438485Y-228296554D02*
X222514676Y-228258458D01*
X222514676Y-228258458D02*
X222628961Y-228258458D01*
X222628961Y-228258458D02*
X222705152Y-228296554D01*
X222705152Y-228296554D02*
X222743247Y-228334649D01*
X222743247Y-228334649D02*
X222781342Y-228410839D01*
X222781342Y-228410839D02*
X222781342Y-228715601D01*
X222628961Y-227572744D02*
X223162295Y-227572744D01*
X222324200Y-227763220D02*
X222895628Y-227953697D01*
X222895628Y-227953697D02*
X222895628Y-227458458D01*
X197743247Y-231344173D02*
X197743247Y-231610839D01*
X198162295Y-231610839D02*
X197362295Y-231610839D01*
X197362295Y-231610839D02*
X197362295Y-231229887D01*
X197933723Y-230963221D02*
X197933723Y-230582268D01*
X198162295Y-231039411D02*
X197362295Y-230772744D01*
X197362295Y-230772744D02*
X198162295Y-230506078D01*
X198162295Y-230239411D02*
X197362295Y-230239411D01*
X197362295Y-230239411D02*
X197362295Y-230048935D01*
X197362295Y-230048935D02*
X197400390Y-229934649D01*
X197400390Y-229934649D02*
X197476580Y-229858459D01*
X197476580Y-229858459D02*
X197552771Y-229820364D01*
X197552771Y-229820364D02*
X197705152Y-229782268D01*
X197705152Y-229782268D02*
X197819438Y-229782268D01*
X197819438Y-229782268D02*
X197971819Y-229820364D01*
X197971819Y-229820364D02*
X198048009Y-229858459D01*
X198048009Y-229858459D02*
X198124200Y-229934649D01*
X198124200Y-229934649D02*
X198162295Y-230048935D01*
X198162295Y-230048935D02*
X198162295Y-230239411D01*
X197743247Y-229439411D02*
X197743247Y-229172745D01*
X198162295Y-229058459D02*
X198162295Y-229439411D01*
X198162295Y-229439411D02*
X197362295Y-229439411D01*
X197362295Y-229439411D02*
X197362295Y-229058459D01*
X198162295Y-228258458D02*
X197781342Y-228525125D01*
X198162295Y-228715601D02*
X197362295Y-228715601D01*
X197362295Y-228715601D02*
X197362295Y-228410839D01*
X197362295Y-228410839D02*
X197400390Y-228334649D01*
X197400390Y-228334649D02*
X197438485Y-228296554D01*
X197438485Y-228296554D02*
X197514676Y-228258458D01*
X197514676Y-228258458D02*
X197628961Y-228258458D01*
X197628961Y-228258458D02*
X197705152Y-228296554D01*
X197705152Y-228296554D02*
X197743247Y-228334649D01*
X197743247Y-228334649D02*
X197781342Y-228410839D01*
X197781342Y-228410839D02*
X197781342Y-228715601D01*
X197362295Y-227991792D02*
X197362295Y-227496554D01*
X197362295Y-227496554D02*
X197667057Y-227763220D01*
X197667057Y-227763220D02*
X197667057Y-227648935D01*
X197667057Y-227648935D02*
X197705152Y-227572744D01*
X197705152Y-227572744D02*
X197743247Y-227534649D01*
X197743247Y-227534649D02*
X197819438Y-227496554D01*
X197819438Y-227496554D02*
X198009914Y-227496554D01*
X198009914Y-227496554D02*
X198086104Y-227534649D01*
X198086104Y-227534649D02*
X198124200Y-227572744D01*
X198124200Y-227572744D02*
X198162295Y-227648935D01*
X198162295Y-227648935D02*
X198162295Y-227877506D01*
X198162295Y-227877506D02*
X198124200Y-227953697D01*
X198124200Y-227953697D02*
X198086104Y-227991792D01*
X272743247Y-231344173D02*
X272743247Y-231610839D01*
X273162295Y-231610839D02*
X272362295Y-231610839D01*
X272362295Y-231610839D02*
X272362295Y-231229887D01*
X272933723Y-230963221D02*
X272933723Y-230582268D01*
X273162295Y-231039411D02*
X272362295Y-230772744D01*
X272362295Y-230772744D02*
X273162295Y-230506078D01*
X273162295Y-230239411D02*
X272362295Y-230239411D01*
X272362295Y-230239411D02*
X272362295Y-230048935D01*
X272362295Y-230048935D02*
X272400390Y-229934649D01*
X272400390Y-229934649D02*
X272476580Y-229858459D01*
X272476580Y-229858459D02*
X272552771Y-229820364D01*
X272552771Y-229820364D02*
X272705152Y-229782268D01*
X272705152Y-229782268D02*
X272819438Y-229782268D01*
X272819438Y-229782268D02*
X272971819Y-229820364D01*
X272971819Y-229820364D02*
X273048009Y-229858459D01*
X273048009Y-229858459D02*
X273124200Y-229934649D01*
X273124200Y-229934649D02*
X273162295Y-230048935D01*
X273162295Y-230048935D02*
X273162295Y-230239411D01*
X272743247Y-229439411D02*
X272743247Y-229172745D01*
X273162295Y-229058459D02*
X273162295Y-229439411D01*
X273162295Y-229439411D02*
X272362295Y-229439411D01*
X272362295Y-229439411D02*
X272362295Y-229058459D01*
X273162295Y-228258458D02*
X272781342Y-228525125D01*
X273162295Y-228715601D02*
X272362295Y-228715601D01*
X272362295Y-228715601D02*
X272362295Y-228410839D01*
X272362295Y-228410839D02*
X272400390Y-228334649D01*
X272400390Y-228334649D02*
X272438485Y-228296554D01*
X272438485Y-228296554D02*
X272514676Y-228258458D01*
X272514676Y-228258458D02*
X272628961Y-228258458D01*
X272628961Y-228258458D02*
X272705152Y-228296554D01*
X272705152Y-228296554D02*
X272743247Y-228334649D01*
X272743247Y-228334649D02*
X272781342Y-228410839D01*
X272781342Y-228410839D02*
X272781342Y-228715601D01*
X272362295Y-227572744D02*
X272362295Y-227725125D01*
X272362295Y-227725125D02*
X272400390Y-227801316D01*
X272400390Y-227801316D02*
X272438485Y-227839411D01*
X272438485Y-227839411D02*
X272552771Y-227915601D01*
X272552771Y-227915601D02*
X272705152Y-227953697D01*
X272705152Y-227953697D02*
X273009914Y-227953697D01*
X273009914Y-227953697D02*
X273086104Y-227915601D01*
X273086104Y-227915601D02*
X273124200Y-227877506D01*
X273124200Y-227877506D02*
X273162295Y-227801316D01*
X273162295Y-227801316D02*
X273162295Y-227648935D01*
X273162295Y-227648935D02*
X273124200Y-227572744D01*
X273124200Y-227572744D02*
X273086104Y-227534649D01*
X273086104Y-227534649D02*
X273009914Y-227496554D01*
X273009914Y-227496554D02*
X272819438Y-227496554D01*
X272819438Y-227496554D02*
X272743247Y-227534649D01*
X272743247Y-227534649D02*
X272705152Y-227572744D01*
X272705152Y-227572744D02*
X272667057Y-227648935D01*
X272667057Y-227648935D02*
X272667057Y-227801316D01*
X272667057Y-227801316D02*
X272705152Y-227877506D01*
X272705152Y-227877506D02*
X272743247Y-227915601D01*
X272743247Y-227915601D02*
X272819438Y-227953697D01*
X147743247Y-231344173D02*
X147743247Y-231610839D01*
X148162295Y-231610839D02*
X147362295Y-231610839D01*
X147362295Y-231610839D02*
X147362295Y-231229887D01*
X147933723Y-230963221D02*
X147933723Y-230582268D01*
X148162295Y-231039411D02*
X147362295Y-230772744D01*
X147362295Y-230772744D02*
X148162295Y-230506078D01*
X148162295Y-230239411D02*
X147362295Y-230239411D01*
X147362295Y-230239411D02*
X147362295Y-230048935D01*
X147362295Y-230048935D02*
X147400390Y-229934649D01*
X147400390Y-229934649D02*
X147476580Y-229858459D01*
X147476580Y-229858459D02*
X147552771Y-229820364D01*
X147552771Y-229820364D02*
X147705152Y-229782268D01*
X147705152Y-229782268D02*
X147819438Y-229782268D01*
X147819438Y-229782268D02*
X147971819Y-229820364D01*
X147971819Y-229820364D02*
X148048009Y-229858459D01*
X148048009Y-229858459D02*
X148124200Y-229934649D01*
X148124200Y-229934649D02*
X148162295Y-230048935D01*
X148162295Y-230048935D02*
X148162295Y-230239411D01*
X147743247Y-229439411D02*
X147743247Y-229172745D01*
X148162295Y-229058459D02*
X148162295Y-229439411D01*
X148162295Y-229439411D02*
X147362295Y-229439411D01*
X147362295Y-229439411D02*
X147362295Y-229058459D01*
X148162295Y-228258458D02*
X147781342Y-228525125D01*
X148162295Y-228715601D02*
X147362295Y-228715601D01*
X147362295Y-228715601D02*
X147362295Y-228410839D01*
X147362295Y-228410839D02*
X147400390Y-228334649D01*
X147400390Y-228334649D02*
X147438485Y-228296554D01*
X147438485Y-228296554D02*
X147514676Y-228258458D01*
X147514676Y-228258458D02*
X147628961Y-228258458D01*
X147628961Y-228258458D02*
X147705152Y-228296554D01*
X147705152Y-228296554D02*
X147743247Y-228334649D01*
X147743247Y-228334649D02*
X147781342Y-228410839D01*
X147781342Y-228410839D02*
X147781342Y-228715601D01*
X148162295Y-227496554D02*
X148162295Y-227953697D01*
X148162295Y-227725125D02*
X147362295Y-227725125D01*
X147362295Y-227725125D02*
X147476580Y-227801316D01*
X147476580Y-227801316D02*
X147552771Y-227877506D01*
X147552771Y-227877506D02*
X147590866Y-227953697D01*
X472743247Y-231344173D02*
X472743247Y-231610839D01*
X473162295Y-231610839D02*
X472362295Y-231610839D01*
X472362295Y-231610839D02*
X472362295Y-231229887D01*
X472933723Y-230963221D02*
X472933723Y-230582268D01*
X473162295Y-231039411D02*
X472362295Y-230772744D01*
X472362295Y-230772744D02*
X473162295Y-230506078D01*
X473162295Y-230239411D02*
X472362295Y-230239411D01*
X472362295Y-230239411D02*
X472362295Y-230048935D01*
X472362295Y-230048935D02*
X472400390Y-229934649D01*
X472400390Y-229934649D02*
X472476580Y-229858459D01*
X472476580Y-229858459D02*
X472552771Y-229820364D01*
X472552771Y-229820364D02*
X472705152Y-229782268D01*
X472705152Y-229782268D02*
X472819438Y-229782268D01*
X472819438Y-229782268D02*
X472971819Y-229820364D01*
X472971819Y-229820364D02*
X473048009Y-229858459D01*
X473048009Y-229858459D02*
X473124200Y-229934649D01*
X473124200Y-229934649D02*
X473162295Y-230048935D01*
X473162295Y-230048935D02*
X473162295Y-230239411D01*
X472743247Y-229439411D02*
X472743247Y-229172745D01*
X473162295Y-229058459D02*
X473162295Y-229439411D01*
X473162295Y-229439411D02*
X472362295Y-229439411D01*
X472362295Y-229439411D02*
X472362295Y-229058459D01*
X473162295Y-228258458D02*
X472781342Y-228525125D01*
X473162295Y-228715601D02*
X472362295Y-228715601D01*
X472362295Y-228715601D02*
X472362295Y-228410839D01*
X472362295Y-228410839D02*
X472400390Y-228334649D01*
X472400390Y-228334649D02*
X472438485Y-228296554D01*
X472438485Y-228296554D02*
X472514676Y-228258458D01*
X472514676Y-228258458D02*
X472628961Y-228258458D01*
X472628961Y-228258458D02*
X472705152Y-228296554D01*
X472705152Y-228296554D02*
X472743247Y-228334649D01*
X472743247Y-228334649D02*
X472781342Y-228410839D01*
X472781342Y-228410839D02*
X472781342Y-228715601D01*
X473162295Y-227496554D02*
X473162295Y-227953697D01*
X473162295Y-227725125D02*
X472362295Y-227725125D01*
X472362295Y-227725125D02*
X472476580Y-227801316D01*
X472476580Y-227801316D02*
X472552771Y-227877506D01*
X472552771Y-227877506D02*
X472590866Y-227953697D01*
X472628961Y-226810839D02*
X473162295Y-226810839D01*
X472324200Y-227001315D02*
X472895628Y-227191792D01*
X472895628Y-227191792D02*
X472895628Y-226696553D01*
X297743247Y-231344173D02*
X297743247Y-231610839D01*
X298162295Y-231610839D02*
X297362295Y-231610839D01*
X297362295Y-231610839D02*
X297362295Y-231229887D01*
X297933723Y-230963221D02*
X297933723Y-230582268D01*
X298162295Y-231039411D02*
X297362295Y-230772744D01*
X297362295Y-230772744D02*
X298162295Y-230506078D01*
X298162295Y-230239411D02*
X297362295Y-230239411D01*
X297362295Y-230239411D02*
X297362295Y-230048935D01*
X297362295Y-230048935D02*
X297400390Y-229934649D01*
X297400390Y-229934649D02*
X297476580Y-229858459D01*
X297476580Y-229858459D02*
X297552771Y-229820364D01*
X297552771Y-229820364D02*
X297705152Y-229782268D01*
X297705152Y-229782268D02*
X297819438Y-229782268D01*
X297819438Y-229782268D02*
X297971819Y-229820364D01*
X297971819Y-229820364D02*
X298048009Y-229858459D01*
X298048009Y-229858459D02*
X298124200Y-229934649D01*
X298124200Y-229934649D02*
X298162295Y-230048935D01*
X298162295Y-230048935D02*
X298162295Y-230239411D01*
X297743247Y-229439411D02*
X297743247Y-229172745D01*
X298162295Y-229058459D02*
X298162295Y-229439411D01*
X298162295Y-229439411D02*
X297362295Y-229439411D01*
X297362295Y-229439411D02*
X297362295Y-229058459D01*
X298162295Y-228258458D02*
X297781342Y-228525125D01*
X298162295Y-228715601D02*
X297362295Y-228715601D01*
X297362295Y-228715601D02*
X297362295Y-228410839D01*
X297362295Y-228410839D02*
X297400390Y-228334649D01*
X297400390Y-228334649D02*
X297438485Y-228296554D01*
X297438485Y-228296554D02*
X297514676Y-228258458D01*
X297514676Y-228258458D02*
X297628961Y-228258458D01*
X297628961Y-228258458D02*
X297705152Y-228296554D01*
X297705152Y-228296554D02*
X297743247Y-228334649D01*
X297743247Y-228334649D02*
X297781342Y-228410839D01*
X297781342Y-228410839D02*
X297781342Y-228715601D01*
X297362295Y-227991792D02*
X297362295Y-227458458D01*
X297362295Y-227458458D02*
X298162295Y-227801316D01*
X397743247Y-231344173D02*
X397743247Y-231610839D01*
X398162295Y-231610839D02*
X397362295Y-231610839D01*
X397362295Y-231610839D02*
X397362295Y-231229887D01*
X397933723Y-230963221D02*
X397933723Y-230582268D01*
X398162295Y-231039411D02*
X397362295Y-230772744D01*
X397362295Y-230772744D02*
X398162295Y-230506078D01*
X398162295Y-230239411D02*
X397362295Y-230239411D01*
X397362295Y-230239411D02*
X397362295Y-230048935D01*
X397362295Y-230048935D02*
X397400390Y-229934649D01*
X397400390Y-229934649D02*
X397476580Y-229858459D01*
X397476580Y-229858459D02*
X397552771Y-229820364D01*
X397552771Y-229820364D02*
X397705152Y-229782268D01*
X397705152Y-229782268D02*
X397819438Y-229782268D01*
X397819438Y-229782268D02*
X397971819Y-229820364D01*
X397971819Y-229820364D02*
X398048009Y-229858459D01*
X398048009Y-229858459D02*
X398124200Y-229934649D01*
X398124200Y-229934649D02*
X398162295Y-230048935D01*
X398162295Y-230048935D02*
X398162295Y-230239411D01*
X397743247Y-229439411D02*
X397743247Y-229172745D01*
X398162295Y-229058459D02*
X398162295Y-229439411D01*
X398162295Y-229439411D02*
X397362295Y-229439411D01*
X397362295Y-229439411D02*
X397362295Y-229058459D01*
X398162295Y-228258458D02*
X397781342Y-228525125D01*
X398162295Y-228715601D02*
X397362295Y-228715601D01*
X397362295Y-228715601D02*
X397362295Y-228410839D01*
X397362295Y-228410839D02*
X397400390Y-228334649D01*
X397400390Y-228334649D02*
X397438485Y-228296554D01*
X397438485Y-228296554D02*
X397514676Y-228258458D01*
X397514676Y-228258458D02*
X397628961Y-228258458D01*
X397628961Y-228258458D02*
X397705152Y-228296554D01*
X397705152Y-228296554D02*
X397743247Y-228334649D01*
X397743247Y-228334649D02*
X397781342Y-228410839D01*
X397781342Y-228410839D02*
X397781342Y-228715601D01*
X398162295Y-227496554D02*
X398162295Y-227953697D01*
X398162295Y-227725125D02*
X397362295Y-227725125D01*
X397362295Y-227725125D02*
X397476580Y-227801316D01*
X397476580Y-227801316D02*
X397552771Y-227877506D01*
X397552771Y-227877506D02*
X397590866Y-227953697D01*
X398162295Y-226734649D02*
X398162295Y-227191792D01*
X398162295Y-226963220D02*
X397362295Y-226963220D01*
X397362295Y-226963220D02*
X397476580Y-227039411D01*
X397476580Y-227039411D02*
X397552771Y-227115601D01*
X397552771Y-227115601D02*
X397590866Y-227191792D01*
D11*
X248750000Y-231600000D02*
X248750000Y-155600000D01*
X259250000Y-155600000D02*
X248750000Y-155600000D01*
X259250000Y-231600000D02*
X248750000Y-231600000D01*
X259250000Y-231600000D02*
X259250000Y-155600000D01*
D12*
X338000000Y-192850000D02*
X338000000Y-194350000D01*
X339250000Y-196850000D02*
X343750000Y-196850000D01*
X343750000Y-190350000D02*
X339250000Y-190350000D01*
X345000000Y-194350000D02*
X345000000Y-192850000D01*
D11*
X173750000Y-231600000D02*
X173750000Y-155600000D01*
X184250000Y-155600000D02*
X173750000Y-155600000D01*
X184250000Y-231600000D02*
X173750000Y-231600000D01*
X184250000Y-231600000D02*
X184250000Y-155600000D01*
X348750000Y-231600000D02*
X348750000Y-155600000D01*
X359250000Y-155600000D02*
X348750000Y-155600000D01*
X359250000Y-231600000D02*
X348750000Y-231600000D01*
X359250000Y-231600000D02*
X359250000Y-155600000D01*
X498750000Y-231600000D02*
X498750000Y-155600000D01*
X509250000Y-155600000D02*
X498750000Y-155600000D01*
X509250000Y-231600000D02*
X498750000Y-231600000D01*
X509250000Y-231600000D02*
X509250000Y-155600000D01*
X373750000Y-231600000D02*
X373750000Y-155600000D01*
X384250000Y-155600000D02*
X373750000Y-155600000D01*
X384250000Y-231600000D02*
X373750000Y-231600000D01*
X384250000Y-231600000D02*
X384250000Y-155600000D01*
X523750000Y-231600000D02*
X523750000Y-155600000D01*
X534250000Y-155600000D02*
X523750000Y-155600000D01*
X534250000Y-231600000D02*
X523750000Y-231600000D01*
X534250000Y-231600000D02*
X534250000Y-155600000D01*
X323750000Y-231600000D02*
X323750000Y-155600000D01*
X334250000Y-155600000D02*
X323750000Y-155600000D01*
X334250000Y-231600000D02*
X323750000Y-231600000D01*
X334250000Y-231600000D02*
X334250000Y-155600000D01*
X423750000Y-231600000D02*
X423750000Y-155600000D01*
X434250000Y-155600000D02*
X423750000Y-155600000D01*
X434250000Y-231600000D02*
X423750000Y-231600000D01*
X434250000Y-231600000D02*
X434250000Y-155600000D01*
X448750000Y-231600000D02*
X448750000Y-155600000D01*
X459250000Y-155600000D02*
X448750000Y-155600000D01*
X459250000Y-231600000D02*
X448750000Y-231600000D01*
X459250000Y-231600000D02*
X459250000Y-155600000D01*
X223750000Y-231600000D02*
X223750000Y-155600000D01*
X234250000Y-155600000D02*
X223750000Y-155600000D01*
X234250000Y-231600000D02*
X223750000Y-231600000D01*
X234250000Y-231600000D02*
X234250000Y-155600000D01*
X198750000Y-231600000D02*
X198750000Y-155600000D01*
X209250000Y-155600000D02*
X198750000Y-155600000D01*
X209250000Y-231600000D02*
X198750000Y-231600000D01*
X209250000Y-231600000D02*
X209250000Y-155600000D01*
X273750000Y-231600000D02*
X273750000Y-155600000D01*
X284250000Y-155600000D02*
X273750000Y-155600000D01*
X284250000Y-231600000D02*
X273750000Y-231600000D01*
X284250000Y-231600000D02*
X284250000Y-155600000D01*
X148750000Y-231600000D02*
X148750000Y-155600000D01*
X159250000Y-155600000D02*
X148750000Y-155600000D01*
X159250000Y-231600000D02*
X148750000Y-231600000D01*
X159250000Y-231600000D02*
X159250000Y-155600000D01*
X473750000Y-231600000D02*
X473750000Y-155600000D01*
X484250000Y-155600000D02*
X473750000Y-155600000D01*
X484250000Y-231600000D02*
X473750000Y-231600000D01*
X484250000Y-231600000D02*
X484250000Y-155600000D01*
X298750000Y-231600000D02*
X298750000Y-155600000D01*
X309250000Y-155600000D02*
X298750000Y-155600000D01*
X309250000Y-231600000D02*
X298750000Y-231600000D01*
X309250000Y-231600000D02*
X309250000Y-155600000D01*
X398750000Y-231600000D02*
X398750000Y-155600000D01*
X409250000Y-155600000D02*
X398750000Y-155600000D01*
X409250000Y-231600000D02*
X398750000Y-231600000D01*
X409250000Y-231600000D02*
X409250000Y-155600000D01*
%LPC*%
D13*
X252750000Y-228600000D03*
X250250000Y-228600000D03*
X252750000Y-158600000D03*
X255250000Y-228600000D03*
X257750000Y-228600000D03*
D14*
X254000000Y-218600000D03*
X254000000Y-171100000D03*
D13*
X257750000Y-158600000D03*
D15*
X338250000Y-191350000D03*
X344750000Y-191350000D03*
X338250000Y-195850000D03*
X344750000Y-195850000D03*
D13*
X177750000Y-228600000D03*
X175250000Y-228600000D03*
X177750000Y-158600000D03*
X180250000Y-228600000D03*
X182750000Y-228600000D03*
D14*
X179000000Y-218600000D03*
X179000000Y-171100000D03*
D13*
X182750000Y-158600000D03*
X352750000Y-228600000D03*
X350250000Y-228600000D03*
X352750000Y-158600000D03*
X355250000Y-228600000D03*
X357750000Y-228600000D03*
D14*
X354000000Y-218600000D03*
X354000000Y-171100000D03*
D13*
X357750000Y-158600000D03*
X502750000Y-228600000D03*
X500250000Y-228600000D03*
X502750000Y-158600000D03*
X505250000Y-228600000D03*
X507750000Y-228600000D03*
D14*
X504000000Y-218600000D03*
X504000000Y-171100000D03*
D13*
X507750000Y-158600000D03*
X377750000Y-228600000D03*
X375250000Y-228600000D03*
X377750000Y-158600000D03*
X380250000Y-228600000D03*
X382750000Y-228600000D03*
D14*
X379000000Y-218600000D03*
X379000000Y-171100000D03*
D13*
X382750000Y-158600000D03*
X527750000Y-228600000D03*
X525250000Y-228600000D03*
X527750000Y-158600000D03*
X530250000Y-228600000D03*
X532750000Y-228600000D03*
D14*
X529000000Y-218600000D03*
X529000000Y-171100000D03*
D13*
X532750000Y-158600000D03*
X327750000Y-228600000D03*
X325250000Y-228600000D03*
X327750000Y-158600000D03*
X330250000Y-228600000D03*
X332750000Y-228600000D03*
D14*
X329000000Y-218600000D03*
X329000000Y-171100000D03*
D13*
X332750000Y-158600000D03*
X427750000Y-228600000D03*
X425250000Y-228600000D03*
X427750000Y-158600000D03*
X430250000Y-228600000D03*
X432750000Y-228600000D03*
D14*
X429000000Y-218600000D03*
X429000000Y-171100000D03*
D13*
X432750000Y-158600000D03*
X452750000Y-228600000D03*
X450250000Y-228600000D03*
X452750000Y-158600000D03*
X455250000Y-228600000D03*
X457750000Y-228600000D03*
D14*
X454000000Y-218600000D03*
X454000000Y-171100000D03*
D13*
X457750000Y-158600000D03*
X227750000Y-228600000D03*
X225250000Y-228600000D03*
X227750000Y-158600000D03*
X230250000Y-228600000D03*
X232750000Y-228600000D03*
D14*
X229000000Y-218600000D03*
X229000000Y-171100000D03*
D13*
X232750000Y-158600000D03*
X202750000Y-228600000D03*
X200250000Y-228600000D03*
X202750000Y-158600000D03*
X205250000Y-228600000D03*
X207750000Y-228600000D03*
D14*
X204000000Y-218600000D03*
X204000000Y-171100000D03*
D13*
X207750000Y-158600000D03*
X277750000Y-228600000D03*
X275250000Y-228600000D03*
X277750000Y-158600000D03*
X280250000Y-228600000D03*
X282750000Y-228600000D03*
D14*
X279000000Y-218600000D03*
X279000000Y-171100000D03*
D13*
X282750000Y-158600000D03*
X152750000Y-228600000D03*
X150250000Y-228600000D03*
X152750000Y-158600000D03*
X155250000Y-228600000D03*
X157750000Y-228600000D03*
D14*
X154000000Y-218600000D03*
X154000000Y-171100000D03*
D13*
X157750000Y-158600000D03*
X477750000Y-228600000D03*
X475250000Y-228600000D03*
X477750000Y-158600000D03*
X480250000Y-228600000D03*
X482750000Y-228600000D03*
D14*
X479000000Y-218600000D03*
X479000000Y-171100000D03*
D13*
X482750000Y-158600000D03*
X302750000Y-228600000D03*
X300250000Y-228600000D03*
X302750000Y-158600000D03*
X305250000Y-228600000D03*
X307750000Y-228600000D03*
D14*
X304000000Y-218600000D03*
X304000000Y-171100000D03*
D13*
X307750000Y-158600000D03*
X402750000Y-228600000D03*
X400250000Y-228600000D03*
X402750000Y-158600000D03*
X405250000Y-228600000D03*
X407750000Y-228600000D03*
D14*
X404000000Y-218600000D03*
X404000000Y-171100000D03*
D13*
X407750000Y-158600000D03*
%LPD*%
M02*
