%TF.GenerationSoftware,KiCad,Pcbnew,9.0.6*%
%TF.CreationDate,2025-12-16T13:31:08+01:00*%
%TF.ProjectId,MBO,4d424f2e-6b69-4636-9164-5f7063625858,rev?*%
%TF.SameCoordinates,Original*%
%TF.FileFunction,Drillmap*%
%TF.FilePolarity,Positive*%
%FSLAX45Y45*%
G04 Gerber Fmt 4.5, Leading zero omitted, Abs format (unit mm)*
G04 Created by KiCad (PCBNEW 9.0.6) date 2025-12-16 13:31:08*
%MOMM*%
%LPD*%
G01*
G04 APERTURE LIST*
%ADD10C,0.050000*%
%ADD11C,0.200000*%
G04 APERTURE END LIST*
D10*
X14650000Y-15450000D02*
X53650000Y-15450000D01*
X53650000Y-23270000D01*
X14650000Y-23270000D01*
X14650000Y-15450000D01*
D11*
X14908277Y-23583984D02*
X14908277Y-23383984D01*
X14908277Y-23383984D02*
X14955896Y-23383984D01*
X14955896Y-23383984D02*
X14984467Y-23393508D01*
X14984467Y-23393508D02*
X15003515Y-23412555D01*
X15003515Y-23412555D02*
X15013039Y-23431603D01*
X15013039Y-23431603D02*
X15022562Y-23469698D01*
X15022562Y-23469698D02*
X15022562Y-23498269D01*
X15022562Y-23498269D02*
X15013039Y-23536365D01*
X15013039Y-23536365D02*
X15003515Y-23555412D01*
X15003515Y-23555412D02*
X14984467Y-23574460D01*
X14984467Y-23574460D02*
X14955896Y-23583984D01*
X14955896Y-23583984D02*
X14908277Y-23583984D01*
X15108277Y-23583984D02*
X15108277Y-23450650D01*
X15108277Y-23488746D02*
X15117801Y-23469698D01*
X15117801Y-23469698D02*
X15127324Y-23460174D01*
X15127324Y-23460174D02*
X15146372Y-23450650D01*
X15146372Y-23450650D02*
X15165420Y-23450650D01*
X15232086Y-23583984D02*
X15232086Y-23450650D01*
X15232086Y-23383984D02*
X15222562Y-23393508D01*
X15222562Y-23393508D02*
X15232086Y-23403031D01*
X15232086Y-23403031D02*
X15241610Y-23393508D01*
X15241610Y-23393508D02*
X15232086Y-23383984D01*
X15232086Y-23383984D02*
X15232086Y-23403031D01*
X15355896Y-23583984D02*
X15336848Y-23574460D01*
X15336848Y-23574460D02*
X15327324Y-23555412D01*
X15327324Y-23555412D02*
X15327324Y-23383984D01*
X15460658Y-23583984D02*
X15441610Y-23574460D01*
X15441610Y-23574460D02*
X15432086Y-23555412D01*
X15432086Y-23555412D02*
X15432086Y-23383984D01*
X15689229Y-23583984D02*
X15689229Y-23383984D01*
X15689229Y-23383984D02*
X15755896Y-23526841D01*
X15755896Y-23526841D02*
X15822562Y-23383984D01*
X15822562Y-23383984D02*
X15822562Y-23583984D01*
X16003515Y-23583984D02*
X16003515Y-23479222D01*
X16003515Y-23479222D02*
X15993991Y-23460174D01*
X15993991Y-23460174D02*
X15974943Y-23450650D01*
X15974943Y-23450650D02*
X15936848Y-23450650D01*
X15936848Y-23450650D02*
X15917801Y-23460174D01*
X16003515Y-23574460D02*
X15984467Y-23583984D01*
X15984467Y-23583984D02*
X15936848Y-23583984D01*
X15936848Y-23583984D02*
X15917801Y-23574460D01*
X15917801Y-23574460D02*
X15908277Y-23555412D01*
X15908277Y-23555412D02*
X15908277Y-23536365D01*
X15908277Y-23536365D02*
X15917801Y-23517317D01*
X15917801Y-23517317D02*
X15936848Y-23507793D01*
X15936848Y-23507793D02*
X15984467Y-23507793D01*
X15984467Y-23507793D02*
X16003515Y-23498269D01*
X16098753Y-23450650D02*
X16098753Y-23650650D01*
X16098753Y-23460174D02*
X16117801Y-23450650D01*
X16117801Y-23450650D02*
X16155896Y-23450650D01*
X16155896Y-23450650D02*
X16174943Y-23460174D01*
X16174943Y-23460174D02*
X16184467Y-23469698D01*
X16184467Y-23469698D02*
X16193991Y-23488746D01*
X16193991Y-23488746D02*
X16193991Y-23545888D01*
X16193991Y-23545888D02*
X16184467Y-23564936D01*
X16184467Y-23564936D02*
X16174943Y-23574460D01*
X16174943Y-23574460D02*
X16155896Y-23583984D01*
X16155896Y-23583984D02*
X16117801Y-23583984D01*
X16117801Y-23583984D02*
X16098753Y-23574460D01*
X16279705Y-23564936D02*
X16289229Y-23574460D01*
X16289229Y-23574460D02*
X16279705Y-23583984D01*
X16279705Y-23583984D02*
X16270182Y-23574460D01*
X16270182Y-23574460D02*
X16279705Y-23564936D01*
X16279705Y-23564936D02*
X16279705Y-23583984D01*
X16279705Y-23460174D02*
X16289229Y-23469698D01*
X16289229Y-23469698D02*
X16279705Y-23479222D01*
X16279705Y-23479222D02*
X16270182Y-23469698D01*
X16270182Y-23469698D02*
X16279705Y-23460174D01*
X16279705Y-23460174D02*
X16279705Y-23479222D01*
M02*
