%FSLAX45Y45*%
G04 Gerber Fmt 4.5, Leading zero omitted, Abs format (unit mm)*
G04 Created by KiCad (PCBNEW 6.0.4) date 2022-06-03 16:07:43*
%MOMM*%
%LPD*%
G01*
G04 APERTURE LIST*
%TA.AperFunction,Profile*%
%ADD10C,0.100000*%
%TD*%
%ADD11C,0.200000*%
%ADD12C,0.040000*%
%ADD13C,0.090000*%
%ADD14C,0.095000*%
%ADD15C,0.100000*%
%ADD16C,0.101600*%
%ADD17C,0.150000*%
%ADD18C,0.320000*%
G04 APERTURE END LIST*
D10*
X8200000Y-2600000D02*
G75*
G03*
X8100000Y-2700000I0J-100000D01*
G01*
X8100000Y-12200000D02*
G75*
G03*
X8200000Y-12300000I100000J0D01*
G01*
X26100000Y-2600000D02*
X8200000Y-2600000D01*
X8200000Y-12300000D02*
X26100000Y-12300000D01*
X26200000Y-2700000D02*
G75*
G03*
X26100000Y-2600000I-100000J0D01*
G01*
X26200000Y-12200000D02*
X26200000Y-2700000D01*
X26100000Y-12300000D02*
G75*
G03*
X26200000Y-12200000I0J100000D01*
G01*
X8100000Y-2700000D02*
X8100000Y-12200000D01*
D11*
D12*
X8603300Y-3942400D02*
X8643300Y-3982400D01*
X8643300Y-3942400D02*
X8603300Y-3982400D01*
X8654100Y-6203000D02*
X8694100Y-6243000D01*
X8694100Y-6203000D02*
X8654100Y-6243000D01*
X8654100Y-7739700D02*
X8694100Y-7779700D01*
X8694100Y-7739700D02*
X8654100Y-7779700D01*
X8768400Y-5123500D02*
X8808400Y-5163500D01*
X8808400Y-5123500D02*
X8768400Y-5163500D01*
X9797100Y-5225100D02*
X9837100Y-5265100D01*
X9837100Y-5225100D02*
X9797100Y-5265100D01*
X10635300Y-5237800D02*
X10675300Y-5277800D01*
X10675300Y-5237800D02*
X10635300Y-5277800D01*
X10724200Y-2748600D02*
X10764200Y-2788600D01*
X10764200Y-2748600D02*
X10724200Y-2788600D01*
X11562400Y-5225100D02*
X11602400Y-5265100D01*
X11602400Y-5225100D02*
X11562400Y-5265100D01*
X12502200Y-5250500D02*
X12542200Y-5290500D01*
X12542200Y-5250500D02*
X12502200Y-5290500D01*
X12565700Y-2723200D02*
X12605700Y-2763200D01*
X12605700Y-2723200D02*
X12565700Y-2763200D01*
X13188000Y-2761300D02*
X13228000Y-2801300D01*
X13228000Y-2761300D02*
X13188000Y-2801300D01*
X13391200Y-5225100D02*
X13431200Y-5265100D01*
X13431200Y-5225100D02*
X13391200Y-5265100D01*
X13566000Y-9271092D02*
X13606000Y-9311092D01*
X13606000Y-9271092D02*
X13566000Y-9311092D01*
X14191300Y-5225100D02*
X14231300Y-5265100D01*
X14231300Y-5225100D02*
X14191300Y-5265100D01*
X14216700Y-9606600D02*
X14256700Y-9646600D01*
X14256700Y-9606600D02*
X14216700Y-9646600D01*
X14416900Y-8115392D02*
X14456900Y-8155392D01*
X14456900Y-8115392D02*
X14416900Y-8155392D01*
X14455000Y-8534492D02*
X14495000Y-8574492D01*
X14495000Y-8534492D02*
X14455000Y-8574492D01*
X14874100Y-8013792D02*
X14914100Y-8053792D01*
X14914100Y-8013792D02*
X14874100Y-8053792D01*
X14899500Y-9606600D02*
X14939500Y-9646600D01*
X14939500Y-9606600D02*
X14899500Y-9646600D01*
X15029500Y-5225100D02*
X15069500Y-5265100D01*
X15069500Y-5225100D02*
X15029500Y-5265100D01*
X15816900Y-9174800D02*
X15856900Y-9214800D01*
X15856900Y-9174800D02*
X15816900Y-9214800D01*
X15829600Y-5237800D02*
X15869600Y-5277800D01*
X15869600Y-5237800D02*
X15829600Y-5277800D01*
X15842300Y-8184200D02*
X15882300Y-8224200D01*
X15882300Y-8184200D02*
X15842300Y-8224200D01*
X15864700Y-8597992D02*
X15904700Y-8637992D01*
X15904700Y-8597992D02*
X15864700Y-8637992D01*
X15931200Y-8273100D02*
X15971200Y-8313100D01*
X15971200Y-8273100D02*
X15931200Y-8313100D01*
X16020100Y-10990900D02*
X16060100Y-11030900D01*
X16060100Y-10990900D02*
X16020100Y-11030900D01*
X16210600Y-7307900D02*
X16250600Y-7347900D01*
X16250600Y-7307900D02*
X16210600Y-7347900D01*
X16223300Y-8438200D02*
X16263300Y-8478200D01*
X16263300Y-8438200D02*
X16223300Y-8478200D01*
X16401100Y-5898200D02*
X16441100Y-5938200D01*
X16441100Y-5898200D02*
X16401100Y-5938200D01*
X16451900Y-6266500D02*
X16491900Y-6306500D01*
X16491900Y-6266500D02*
X16451900Y-6306500D01*
X16528100Y-6609400D02*
X16568100Y-6649400D01*
X16568100Y-6609400D02*
X16528100Y-6649400D01*
X16578900Y-4920300D02*
X16618900Y-4960300D01*
X16618900Y-4920300D02*
X16578900Y-4960300D01*
X16585510Y-5047300D02*
X16625510Y-5087300D01*
X16625510Y-5047300D02*
X16585510Y-5087300D01*
X16655620Y-5758500D02*
X16695620Y-5798500D01*
X16695620Y-5758500D02*
X16655620Y-5798500D01*
X16667800Y-4475800D02*
X16707800Y-4515800D01*
X16707800Y-4475800D02*
X16667800Y-4515800D01*
X16736425Y-5626375D02*
X16776425Y-5666375D01*
X16776425Y-5626375D02*
X16736425Y-5666375D01*
X16756700Y-7301290D02*
X16796700Y-7341290D01*
X16796700Y-7301290D02*
X16756700Y-7341290D01*
X16756700Y-8031800D02*
X16796700Y-8071800D01*
X16796700Y-8031800D02*
X16756700Y-8071800D01*
X17010700Y-8577900D02*
X17050700Y-8617900D01*
X17050700Y-8577900D02*
X17010700Y-8617900D01*
X17099600Y-5021900D02*
X17139600Y-5061900D01*
X17139600Y-5021900D02*
X17099600Y-5061900D01*
X17150400Y-6253800D02*
X17190400Y-6293800D01*
X17190400Y-6253800D02*
X17150400Y-6293800D01*
X17162600Y-9687700D02*
X17202600Y-9727700D01*
X17202600Y-9687700D02*
X17162600Y-9727700D01*
X17340900Y-9581200D02*
X17380900Y-9621200D01*
X17380900Y-9581200D02*
X17340900Y-9621200D01*
X17353600Y-4793300D02*
X17393600Y-4833300D01*
X17393600Y-4793300D02*
X17353600Y-4833300D01*
X17518700Y-6609400D02*
X17558700Y-6649400D01*
X17558700Y-6609400D02*
X17518700Y-6649400D01*
X17556800Y-4437700D02*
X17596800Y-4477700D01*
X17596800Y-4437700D02*
X17556800Y-4477700D01*
X17658400Y-5974400D02*
X17698400Y-6014400D01*
X17698400Y-5974400D02*
X17658400Y-6014400D01*
X17680000Y-5339400D02*
X17720000Y-5379400D01*
X17720000Y-5339400D02*
X17680000Y-5379400D01*
X17772700Y-7701600D02*
X17812700Y-7741600D01*
X17812700Y-7701600D02*
X17772700Y-7741600D01*
X17798100Y-4513900D02*
X17838100Y-4553900D01*
X17838100Y-4513900D02*
X17798100Y-4553900D01*
X18128300Y-4806000D02*
X18168300Y-4846000D01*
X18168300Y-4806000D02*
X18128300Y-4846000D01*
X18128300Y-4996500D02*
X18168300Y-5036500D01*
X18168300Y-4996500D02*
X18128300Y-5036500D01*
X18153700Y-2837500D02*
X18193700Y-2877500D01*
X18193700Y-2837500D02*
X18153700Y-2877500D01*
X18191800Y-6736400D02*
X18231800Y-6776400D01*
X18231800Y-6736400D02*
X18191800Y-6776400D01*
X18242600Y-9809800D02*
X18282600Y-9849800D01*
X18282600Y-9809800D02*
X18242600Y-9849800D01*
X18255300Y-4412300D02*
X18295300Y-4452300D01*
X18295300Y-4412300D02*
X18255300Y-4452300D01*
X18318800Y-5441000D02*
X18358800Y-5481000D01*
X18358800Y-5441000D02*
X18318800Y-5481000D01*
X18382300Y-6698300D02*
X18422300Y-6738300D01*
X18422300Y-6698300D02*
X18382300Y-6738300D01*
X18471200Y-7625400D02*
X18511200Y-7665400D01*
X18511200Y-7625400D02*
X18471200Y-7665400D01*
X18496600Y-6190300D02*
X18536600Y-6230300D01*
X18536600Y-6190300D02*
X18496600Y-6230300D01*
X18534200Y-9040000D02*
X18574200Y-9080000D01*
X18574200Y-9040000D02*
X18534200Y-9080000D01*
X18635800Y-8646300D02*
X18675800Y-8686300D01*
X18675800Y-8646300D02*
X18635800Y-8686300D01*
X18648500Y-9128900D02*
X18688500Y-9168900D01*
X18688500Y-9128900D02*
X18648500Y-9168900D01*
X18724700Y-8557400D02*
X18764700Y-8597400D01*
X18764700Y-8557400D02*
X18724700Y-8597400D01*
X18725200Y-3243900D02*
X18765200Y-3283900D01*
X18765200Y-3243900D02*
X18725200Y-3283900D01*
X18737900Y-6571300D02*
X18777900Y-6611300D01*
X18777900Y-6571300D02*
X18737900Y-6611300D01*
X18877100Y-9294000D02*
X18917100Y-9334000D01*
X18917100Y-9294000D02*
X18877100Y-9334000D01*
X18991900Y-7193600D02*
X19031900Y-7233600D01*
X19031900Y-7193600D02*
X18991900Y-7233600D01*
X19067600Y-8811400D02*
X19107600Y-8851400D01*
X19107600Y-8811400D02*
X19067600Y-8851400D01*
X19233200Y-8463600D02*
X19273200Y-8503600D01*
X19273200Y-8463600D02*
X19233200Y-8503600D01*
X19245900Y-3383600D02*
X19285900Y-3423600D01*
X19285900Y-3383600D02*
X19245900Y-3423600D01*
X19372900Y-6114100D02*
X19412900Y-6154100D01*
X19412900Y-6114100D02*
X19372900Y-6154100D01*
X19601500Y-9835200D02*
X19641500Y-9875200D01*
X19641500Y-9835200D02*
X19601500Y-9875200D01*
X19626900Y-9606600D02*
X19666900Y-9646600D01*
X19666900Y-9606600D02*
X19626900Y-9646600D01*
X19665000Y-7092000D02*
X19705000Y-7132000D01*
X19705000Y-7092000D02*
X19665000Y-7132000D01*
X19969800Y-3307400D02*
X20009800Y-3347400D01*
X20009800Y-3307400D02*
X19969800Y-3347400D01*
X20566700Y-9797100D02*
X20606700Y-9837100D01*
X20606700Y-9797100D02*
X20566700Y-9837100D01*
X20667800Y-8989200D02*
X20707800Y-9029200D01*
X20707800Y-8989200D02*
X20667800Y-9029200D01*
X20794800Y-8646300D02*
X20834800Y-8686300D01*
X20834800Y-8646300D02*
X20794800Y-8686300D01*
X20858300Y-9078100D02*
X20898300Y-9118100D01*
X20898300Y-9078100D02*
X20858300Y-9118100D01*
X20972600Y-8557400D02*
X21012600Y-8597400D01*
X21012600Y-8557400D02*
X20972600Y-8597400D01*
X21011200Y-9149400D02*
X21051200Y-9189400D01*
X21051200Y-9149400D02*
X21011200Y-9189400D01*
X21227100Y-3320100D02*
X21267100Y-3360100D01*
X21267100Y-3320100D02*
X21227100Y-3360100D01*
X21227100Y-5656900D02*
X21267100Y-5696900D01*
X21267100Y-5656900D02*
X21227100Y-5696900D01*
X21366300Y-8824100D02*
X21406300Y-8864100D01*
X21406300Y-8824100D02*
X21366300Y-8864100D01*
X21493800Y-8463600D02*
X21533800Y-8503600D01*
X21533800Y-8463600D02*
X21493800Y-8503600D01*
X21862100Y-9797100D02*
X21902100Y-9837100D01*
X21902100Y-9797100D02*
X21862100Y-9837100D01*
X21912900Y-9581200D02*
X21952900Y-9621200D01*
X21952900Y-9581200D02*
X21912900Y-9621200D01*
X22039900Y-3269300D02*
X22079900Y-3309300D01*
X22079900Y-3269300D02*
X22039900Y-3309300D01*
X22991900Y-8989200D02*
X23031900Y-9029200D01*
X23031900Y-8989200D02*
X22991900Y-9029200D01*
X23005100Y-9797100D02*
X23045100Y-9837100D01*
X23045100Y-9797100D02*
X23005100Y-9837100D01*
X23030500Y-3370900D02*
X23070500Y-3410900D01*
X23070500Y-3370900D02*
X23030500Y-3410900D01*
X23131600Y-8646300D02*
X23171600Y-8686300D01*
X23171600Y-8646300D02*
X23131600Y-8686300D01*
X23131600Y-9078100D02*
X23171600Y-9118100D01*
X23171600Y-9078100D02*
X23131600Y-9118100D01*
X23271300Y-8557400D02*
X23311300Y-8597400D01*
X23311300Y-8557400D02*
X23271300Y-8597400D01*
X23296700Y-9149400D02*
X23336700Y-9189400D01*
X23336700Y-9149400D02*
X23296700Y-9189400D01*
X23665000Y-8798700D02*
X23705000Y-8838700D01*
X23705000Y-8798700D02*
X23665000Y-8838700D01*
X23690900Y-4234500D02*
X23730900Y-4274500D01*
X23730900Y-4234500D02*
X23690900Y-4274500D01*
X23792500Y-8476300D02*
X23832500Y-8516300D01*
X23832500Y-8476300D02*
X23792500Y-8516300D01*
X23843300Y-4374200D02*
X23883300Y-4414200D01*
X23883300Y-4374200D02*
X23843300Y-4414200D01*
X23881400Y-3155000D02*
X23921400Y-3195000D01*
X23921400Y-3155000D02*
X23881400Y-3195000D01*
X23881400Y-3409000D02*
X23921400Y-3449000D01*
X23921400Y-3409000D02*
X23881400Y-3449000D01*
X23906800Y-5009200D02*
X23946800Y-5049200D01*
X23946800Y-5009200D02*
X23906800Y-5049200D01*
X23906800Y-5263200D02*
X23946800Y-5303200D01*
X23946800Y-5263200D02*
X23906800Y-5303200D01*
X23983000Y-3155000D02*
X24023000Y-3195000D01*
X24023000Y-3155000D02*
X23983000Y-3195000D01*
X23983000Y-3409000D02*
X24023000Y-3449000D01*
X24023000Y-3409000D02*
X23983000Y-3449000D01*
X24135400Y-9809800D02*
X24175400Y-9849800D01*
X24175400Y-9809800D02*
X24135400Y-9849800D01*
X24198900Y-9530400D02*
X24238900Y-9570400D01*
X24238900Y-9530400D02*
X24198900Y-9570400D01*
X25151400Y-9809800D02*
X25191400Y-9849800D01*
X25191400Y-9809800D02*
X25151400Y-9849800D01*
X25202200Y-3599500D02*
X25242200Y-3639500D01*
X25242200Y-3599500D02*
X25202200Y-3639500D01*
X25240300Y-7155500D02*
X25280300Y-7195500D01*
X25280300Y-7155500D02*
X25240300Y-7195500D01*
X25316000Y-9065400D02*
X25356000Y-9105400D01*
X25356000Y-9065400D02*
X25316000Y-9105400D01*
X25380000Y-3815400D02*
X25420000Y-3855400D01*
X25420000Y-3815400D02*
X25380000Y-3855400D01*
X25380000Y-4298000D02*
X25420000Y-4338000D01*
X25420000Y-4298000D02*
X25380000Y-4338000D01*
X25443000Y-8633600D02*
X25483000Y-8673600D01*
X25483000Y-8633600D02*
X25443000Y-8673600D01*
X25443500Y-8920800D02*
X25483500Y-8960800D01*
X25483500Y-8920800D02*
X25443500Y-8960800D01*
X25455700Y-9141600D02*
X25495700Y-9181600D01*
X25495700Y-9141600D02*
X25455700Y-9181600D01*
X25456200Y-6571300D02*
X25496200Y-6611300D01*
X25496200Y-6571300D02*
X25456200Y-6611300D01*
X25570000Y-8557400D02*
X25610000Y-8597400D01*
X25610000Y-8557400D02*
X25570000Y-8597400D01*
X25773700Y-6482400D02*
X25813700Y-6522400D01*
X25813700Y-6482400D02*
X25773700Y-6522400D01*
X25799100Y-5161600D02*
X25839100Y-5201600D01*
X25839100Y-5161600D02*
X25799100Y-5201600D01*
X25888000Y-6952300D02*
X25928000Y-6992300D01*
X25928000Y-6952300D02*
X25888000Y-6992300D01*
X25926100Y-5161600D02*
X25966100Y-5201600D01*
X25966100Y-5161600D02*
X25926100Y-5201600D01*
X25964200Y-4463100D02*
X26004200Y-4503100D01*
X26004200Y-4463100D02*
X25964200Y-4503100D01*
X25964200Y-4793300D02*
X26004200Y-4833300D01*
X26004200Y-4793300D02*
X25964200Y-4833300D01*
X26053100Y-5466400D02*
X26093100Y-5506400D01*
X26093100Y-5466400D02*
X26053100Y-5506400D01*
D13*
X17101100Y-4127500D02*
G75*
G03*
X17101100Y-4127500I-45000J0D01*
G01*
X17355100Y-4127500D02*
G75*
G03*
X17355100Y-4127500I-45000J0D01*
G01*
X17609100Y-4127500D02*
G75*
G03*
X17609100Y-4127500I-45000J0D01*
G01*
X17863100Y-4127500D02*
G75*
G03*
X17863100Y-4127500I-45000J0D01*
G01*
D14*
X20097400Y-6240700D02*
X20097400Y-6335700D01*
X20049900Y-6288200D02*
X20144900Y-6288200D01*
X20097400Y-7293100D02*
X20097400Y-7388100D01*
X20049900Y-7340600D02*
X20144900Y-7340600D01*
X20347400Y-6240700D02*
X20347400Y-6335700D01*
X20299900Y-6288200D02*
X20394900Y-6288200D01*
X20347400Y-7293100D02*
X20347400Y-7388100D01*
X20299900Y-7340600D02*
X20394900Y-7340600D01*
X20597400Y-6240700D02*
X20597400Y-6335700D01*
X20549900Y-6288200D02*
X20644900Y-6288200D01*
X20597400Y-7293100D02*
X20597400Y-7388100D01*
X20549900Y-7340600D02*
X20644900Y-7340600D01*
X20847400Y-6240700D02*
X20847400Y-6335700D01*
X20799900Y-6288200D02*
X20894900Y-6288200D01*
X20847400Y-7293100D02*
X20847400Y-7388100D01*
X20799900Y-7340600D02*
X20894900Y-7340600D01*
X21562300Y-6240700D02*
X21562300Y-6335700D01*
X21514800Y-6288200D02*
X21609800Y-6288200D01*
X21563900Y-7293100D02*
X21563900Y-7388100D01*
X21516400Y-7340600D02*
X21611400Y-7340600D01*
X21812300Y-6240700D02*
X21812300Y-6335700D01*
X21764800Y-6288200D02*
X21859800Y-6288200D01*
X21813900Y-7293100D02*
X21813900Y-7388100D01*
X21766400Y-7340600D02*
X21861400Y-7340600D01*
X22062300Y-6240700D02*
X22062300Y-6335700D01*
X22014800Y-6288200D02*
X22109800Y-6288200D01*
X22063900Y-7293100D02*
X22063900Y-7388100D01*
X22016400Y-7340600D02*
X22111400Y-7340600D01*
X22312300Y-6240700D02*
X22312300Y-6335700D01*
X22264800Y-6288200D02*
X22359800Y-6288200D01*
X22313900Y-7293100D02*
X22313900Y-7388100D01*
X22266400Y-7340600D02*
X22361400Y-7340600D01*
D15*
X9239415Y-10088447D02*
X9239415Y-10017736D01*
X9168704Y-10017736D01*
X9168704Y-10088447D01*
X9239415Y-10088447D01*
X9239415Y-10342447D02*
X9239415Y-10271736D01*
X9168704Y-10271736D01*
X9168704Y-10342447D01*
X9239415Y-10342447D01*
X9239415Y-10596447D02*
X9239415Y-10525736D01*
X9168704Y-10525736D01*
X9168704Y-10596447D01*
X9239415Y-10596447D01*
X9239415Y-10850447D02*
X9239415Y-10779736D01*
X9168704Y-10779736D01*
X9168704Y-10850447D01*
X9239415Y-10850447D01*
X9239415Y-11104447D02*
X9239415Y-11033736D01*
X9168704Y-11033736D01*
X9168704Y-11104447D01*
X9239415Y-11104447D01*
X9239415Y-11358447D02*
X9239415Y-11287736D01*
X9168704Y-11287736D01*
X9168704Y-11358447D01*
X9239415Y-11358447D01*
X9239415Y-11612447D02*
X9239415Y-11541736D01*
X9168704Y-11541736D01*
X9168704Y-11612447D01*
X9239415Y-11612447D01*
X9239415Y-11866447D02*
X9239415Y-11795736D01*
X9168704Y-11795736D01*
X9168704Y-11866447D01*
X9239415Y-11866447D01*
X9242856Y-3159556D02*
X9242856Y-3088844D01*
X9172144Y-3088844D01*
X9172144Y-3159556D01*
X9242856Y-3159556D01*
X9242856Y-3413556D02*
X9242856Y-3342844D01*
X9172144Y-3342844D01*
X9172144Y-3413556D01*
X9242856Y-3413556D01*
X9242856Y-3667556D02*
X9242856Y-3596844D01*
X9172144Y-3596844D01*
X9172144Y-3667556D01*
X9242856Y-3667556D01*
X9242856Y-3921556D02*
X9242856Y-3850844D01*
X9172144Y-3850844D01*
X9172144Y-3921556D01*
X9242856Y-3921556D01*
X9242856Y-4175556D02*
X9242856Y-4104844D01*
X9172144Y-4104844D01*
X9172144Y-4175556D01*
X9242856Y-4175556D01*
X9242856Y-4429556D02*
X9242856Y-4358844D01*
X9172144Y-4358844D01*
X9172144Y-4429556D01*
X9242856Y-4429556D01*
X9242856Y-4683556D02*
X9242856Y-4612844D01*
X9172144Y-4612844D01*
X9172144Y-4683556D01*
X9242856Y-4683556D01*
X9242856Y-4937556D02*
X9242856Y-4866844D01*
X9172144Y-4866844D01*
X9172144Y-4937556D01*
X9242856Y-4937556D01*
X9242856Y-5610656D02*
X9242856Y-5539944D01*
X9172144Y-5539944D01*
X9172144Y-5610656D01*
X9242856Y-5610656D01*
X9242856Y-5864656D02*
X9242856Y-5793944D01*
X9172144Y-5793944D01*
X9172144Y-5864656D01*
X9242856Y-5864656D01*
X9242856Y-6118656D02*
X9242856Y-6047944D01*
X9172144Y-6047944D01*
X9172144Y-6118656D01*
X9242856Y-6118656D01*
X9242856Y-6372656D02*
X9242856Y-6301944D01*
X9172144Y-6301944D01*
X9172144Y-6372656D01*
X9242856Y-6372656D01*
X9242856Y-6626656D02*
X9242856Y-6555944D01*
X9172144Y-6555944D01*
X9172144Y-6626656D01*
X9242856Y-6626656D01*
X9242856Y-6880656D02*
X9242856Y-6809944D01*
X9172144Y-6809944D01*
X9172144Y-6880656D01*
X9242856Y-6880656D01*
X9242856Y-7134656D02*
X9242856Y-7063944D01*
X9172144Y-7063944D01*
X9172144Y-7134656D01*
X9242856Y-7134656D01*
X9242856Y-7388656D02*
X9242856Y-7317944D01*
X9172144Y-7317944D01*
X9172144Y-7388656D01*
X9242856Y-7388656D01*
X9493415Y-10088447D02*
X9493415Y-10017736D01*
X9422704Y-10017736D01*
X9422704Y-10088447D01*
X9493415Y-10088447D01*
X9493415Y-10342447D02*
X9493415Y-10271736D01*
X9422704Y-10271736D01*
X9422704Y-10342447D01*
X9493415Y-10342447D01*
X9493415Y-10596447D02*
X9493415Y-10525736D01*
X9422704Y-10525736D01*
X9422704Y-10596447D01*
X9493415Y-10596447D01*
X9493415Y-10850447D02*
X9493415Y-10779736D01*
X9422704Y-10779736D01*
X9422704Y-10850447D01*
X9493415Y-10850447D01*
X9493415Y-11104447D02*
X9493415Y-11033736D01*
X9422704Y-11033736D01*
X9422704Y-11104447D01*
X9493415Y-11104447D01*
X9493415Y-11358447D02*
X9493415Y-11287736D01*
X9422704Y-11287736D01*
X9422704Y-11358447D01*
X9493415Y-11358447D01*
X9493415Y-11612447D02*
X9493415Y-11541736D01*
X9422704Y-11541736D01*
X9422704Y-11612447D01*
X9493415Y-11612447D01*
X9493415Y-11866447D02*
X9493415Y-11795736D01*
X9422704Y-11795736D01*
X9422704Y-11866447D01*
X9493415Y-11866447D01*
X9496856Y-3159556D02*
X9496856Y-3088844D01*
X9426144Y-3088844D01*
X9426144Y-3159556D01*
X9496856Y-3159556D01*
X9496856Y-3413556D02*
X9496856Y-3342844D01*
X9426144Y-3342844D01*
X9426144Y-3413556D01*
X9496856Y-3413556D01*
X9496856Y-3667556D02*
X9496856Y-3596844D01*
X9426144Y-3596844D01*
X9426144Y-3667556D01*
X9496856Y-3667556D01*
X9496856Y-3921556D02*
X9496856Y-3850844D01*
X9426144Y-3850844D01*
X9426144Y-3921556D01*
X9496856Y-3921556D01*
X9496856Y-4175556D02*
X9496856Y-4104844D01*
X9426144Y-4104844D01*
X9426144Y-4175556D01*
X9496856Y-4175556D01*
X9496856Y-4429556D02*
X9496856Y-4358844D01*
X9426144Y-4358844D01*
X9426144Y-4429556D01*
X9496856Y-4429556D01*
X9496856Y-4683556D02*
X9496856Y-4612844D01*
X9426144Y-4612844D01*
X9426144Y-4683556D01*
X9496856Y-4683556D01*
X9496856Y-4937556D02*
X9496856Y-4866844D01*
X9426144Y-4866844D01*
X9426144Y-4937556D01*
X9496856Y-4937556D01*
X9496856Y-5610656D02*
X9496856Y-5539944D01*
X9426144Y-5539944D01*
X9426144Y-5610656D01*
X9496856Y-5610656D01*
X9496856Y-5864656D02*
X9496856Y-5793944D01*
X9426144Y-5793944D01*
X9426144Y-5864656D01*
X9496856Y-5864656D01*
X9496856Y-6118656D02*
X9496856Y-6047944D01*
X9426144Y-6047944D01*
X9426144Y-6118656D01*
X9496856Y-6118656D01*
X9496856Y-6372656D02*
X9496856Y-6301944D01*
X9426144Y-6301944D01*
X9426144Y-6372656D01*
X9496856Y-6372656D01*
X9496856Y-6626656D02*
X9496856Y-6555944D01*
X9426144Y-6555944D01*
X9426144Y-6626656D01*
X9496856Y-6626656D01*
X9496856Y-6880656D02*
X9496856Y-6809944D01*
X9426144Y-6809944D01*
X9426144Y-6880656D01*
X9496856Y-6880656D01*
X9496856Y-7134656D02*
X9496856Y-7063944D01*
X9426144Y-7063944D01*
X9426144Y-7134656D01*
X9496856Y-7134656D01*
X9496856Y-7388656D02*
X9496856Y-7317944D01*
X9426144Y-7317944D01*
X9426144Y-7388656D01*
X9496856Y-7388656D01*
X10128415Y-10089947D02*
X10128415Y-10019236D01*
X10057704Y-10019236D01*
X10057704Y-10089947D01*
X10128415Y-10089947D01*
X10128415Y-10343947D02*
X10128415Y-10273236D01*
X10057704Y-10273236D01*
X10057704Y-10343947D01*
X10128415Y-10343947D01*
X10128415Y-10597947D02*
X10128415Y-10527236D01*
X10057704Y-10527236D01*
X10057704Y-10597947D01*
X10128415Y-10597947D01*
X10128415Y-10851947D02*
X10128415Y-10781236D01*
X10057704Y-10781236D01*
X10057704Y-10851947D01*
X10128415Y-10851947D01*
X10128415Y-11105947D02*
X10128415Y-11035236D01*
X10057704Y-11035236D01*
X10057704Y-11105947D01*
X10128415Y-11105947D01*
X10128415Y-11359947D02*
X10128415Y-11289236D01*
X10057704Y-11289236D01*
X10057704Y-11359947D01*
X10128415Y-11359947D01*
X10128415Y-11613947D02*
X10128415Y-11543236D01*
X10057704Y-11543236D01*
X10057704Y-11613947D01*
X10128415Y-11613947D01*
X10128415Y-11867947D02*
X10128415Y-11797236D01*
X10057704Y-11797236D01*
X10057704Y-11867947D01*
X10128415Y-11867947D01*
X10131856Y-3159556D02*
X10131856Y-3088844D01*
X10061144Y-3088844D01*
X10061144Y-3159556D01*
X10131856Y-3159556D01*
X10131856Y-3413556D02*
X10131856Y-3342844D01*
X10061144Y-3342844D01*
X10061144Y-3413556D01*
X10131856Y-3413556D01*
X10131856Y-3667556D02*
X10131856Y-3596844D01*
X10061144Y-3596844D01*
X10061144Y-3667556D01*
X10131856Y-3667556D01*
X10131856Y-3921556D02*
X10131856Y-3850844D01*
X10061144Y-3850844D01*
X10061144Y-3921556D01*
X10131856Y-3921556D01*
X10131856Y-4175556D02*
X10131856Y-4104844D01*
X10061144Y-4104844D01*
X10061144Y-4175556D01*
X10131856Y-4175556D01*
X10131856Y-4429556D02*
X10131856Y-4358844D01*
X10061144Y-4358844D01*
X10061144Y-4429556D01*
X10131856Y-4429556D01*
X10131856Y-4683556D02*
X10131856Y-4612844D01*
X10061144Y-4612844D01*
X10061144Y-4683556D01*
X10131856Y-4683556D01*
X10131856Y-4937556D02*
X10131856Y-4866844D01*
X10061144Y-4866844D01*
X10061144Y-4937556D01*
X10131856Y-4937556D01*
X10131856Y-5610656D02*
X10131856Y-5539944D01*
X10061144Y-5539944D01*
X10061144Y-5610656D01*
X10131856Y-5610656D01*
X10131856Y-5864656D02*
X10131856Y-5793944D01*
X10061144Y-5793944D01*
X10061144Y-5864656D01*
X10131856Y-5864656D01*
X10131856Y-6118656D02*
X10131856Y-6047944D01*
X10061144Y-6047944D01*
X10061144Y-6118656D01*
X10131856Y-6118656D01*
X10131856Y-6372656D02*
X10131856Y-6301944D01*
X10061144Y-6301944D01*
X10061144Y-6372656D01*
X10131856Y-6372656D01*
X10131856Y-6626656D02*
X10131856Y-6555944D01*
X10061144Y-6555944D01*
X10061144Y-6626656D01*
X10131856Y-6626656D01*
X10131856Y-6880656D02*
X10131856Y-6809944D01*
X10061144Y-6809944D01*
X10061144Y-6880656D01*
X10131856Y-6880656D01*
X10131856Y-7134656D02*
X10131856Y-7063944D01*
X10061144Y-7063944D01*
X10061144Y-7134656D01*
X10131856Y-7134656D01*
X10131856Y-7388656D02*
X10131856Y-7317944D01*
X10061144Y-7317944D01*
X10061144Y-7388656D01*
X10131856Y-7388656D01*
X10382415Y-10089947D02*
X10382415Y-10019236D01*
X10311704Y-10019236D01*
X10311704Y-10089947D01*
X10382415Y-10089947D01*
X10382415Y-10343947D02*
X10382415Y-10273236D01*
X10311704Y-10273236D01*
X10311704Y-10343947D01*
X10382415Y-10343947D01*
X10382415Y-10597947D02*
X10382415Y-10527236D01*
X10311704Y-10527236D01*
X10311704Y-10597947D01*
X10382415Y-10597947D01*
X10382415Y-10851947D02*
X10382415Y-10781236D01*
X10311704Y-10781236D01*
X10311704Y-10851947D01*
X10382415Y-10851947D01*
X10382415Y-11105947D02*
X10382415Y-11035236D01*
X10311704Y-11035236D01*
X10311704Y-11105947D01*
X10382415Y-11105947D01*
X10382415Y-11359947D02*
X10382415Y-11289236D01*
X10311704Y-11289236D01*
X10311704Y-11359947D01*
X10382415Y-11359947D01*
X10382415Y-11613947D02*
X10382415Y-11543236D01*
X10311704Y-11543236D01*
X10311704Y-11613947D01*
X10382415Y-11613947D01*
X10382415Y-11867947D02*
X10382415Y-11797236D01*
X10311704Y-11797236D01*
X10311704Y-11867947D01*
X10382415Y-11867947D01*
X10385856Y-3159556D02*
X10385856Y-3088844D01*
X10315144Y-3088844D01*
X10315144Y-3159556D01*
X10385856Y-3159556D01*
X10385856Y-3413556D02*
X10385856Y-3342844D01*
X10315144Y-3342844D01*
X10315144Y-3413556D01*
X10385856Y-3413556D01*
X10385856Y-3667556D02*
X10385856Y-3596844D01*
X10315144Y-3596844D01*
X10315144Y-3667556D01*
X10385856Y-3667556D01*
X10385856Y-3921556D02*
X10385856Y-3850844D01*
X10315144Y-3850844D01*
X10315144Y-3921556D01*
X10385856Y-3921556D01*
X10385856Y-4175556D02*
X10385856Y-4104844D01*
X10315144Y-4104844D01*
X10315144Y-4175556D01*
X10385856Y-4175556D01*
X10385856Y-4429556D02*
X10385856Y-4358844D01*
X10315144Y-4358844D01*
X10315144Y-4429556D01*
X10385856Y-4429556D01*
X10385856Y-4683556D02*
X10385856Y-4612844D01*
X10315144Y-4612844D01*
X10315144Y-4683556D01*
X10385856Y-4683556D01*
X10385856Y-4937556D02*
X10385856Y-4866844D01*
X10315144Y-4866844D01*
X10315144Y-4937556D01*
X10385856Y-4937556D01*
X10385856Y-5610656D02*
X10385856Y-5539944D01*
X10315144Y-5539944D01*
X10315144Y-5610656D01*
X10385856Y-5610656D01*
X10385856Y-5864656D02*
X10385856Y-5793944D01*
X10315144Y-5793944D01*
X10315144Y-5864656D01*
X10385856Y-5864656D01*
X10385856Y-6118656D02*
X10385856Y-6047944D01*
X10315144Y-6047944D01*
X10315144Y-6118656D01*
X10385856Y-6118656D01*
X10385856Y-6372656D02*
X10385856Y-6301944D01*
X10315144Y-6301944D01*
X10315144Y-6372656D01*
X10385856Y-6372656D01*
X10385856Y-6626656D02*
X10385856Y-6555944D01*
X10315144Y-6555944D01*
X10315144Y-6626656D01*
X10385856Y-6626656D01*
X10385856Y-6880656D02*
X10385856Y-6809944D01*
X10315144Y-6809944D01*
X10315144Y-6880656D01*
X10385856Y-6880656D01*
X10385856Y-7134656D02*
X10385856Y-7063944D01*
X10315144Y-7063944D01*
X10315144Y-7134656D01*
X10385856Y-7134656D01*
X10385856Y-7388656D02*
X10385856Y-7317944D01*
X10315144Y-7317944D01*
X10315144Y-7388656D01*
X10385856Y-7388656D01*
X11017415Y-10089947D02*
X11017415Y-10019236D01*
X10946704Y-10019236D01*
X10946704Y-10089947D01*
X11017415Y-10089947D01*
X11017415Y-10343947D02*
X11017415Y-10273236D01*
X10946704Y-10273236D01*
X10946704Y-10343947D01*
X11017415Y-10343947D01*
X11017415Y-10597947D02*
X11017415Y-10527236D01*
X10946704Y-10527236D01*
X10946704Y-10597947D01*
X11017415Y-10597947D01*
X11017415Y-10851947D02*
X11017415Y-10781236D01*
X10946704Y-10781236D01*
X10946704Y-10851947D01*
X11017415Y-10851947D01*
X11017415Y-11105947D02*
X11017415Y-11035236D01*
X10946704Y-11035236D01*
X10946704Y-11105947D01*
X11017415Y-11105947D01*
X11017415Y-11359947D02*
X11017415Y-11289236D01*
X10946704Y-11289236D01*
X10946704Y-11359947D01*
X11017415Y-11359947D01*
X11017415Y-11613947D02*
X11017415Y-11543236D01*
X10946704Y-11543236D01*
X10946704Y-11613947D01*
X11017415Y-11613947D01*
X11017415Y-11867947D02*
X11017415Y-11797236D01*
X10946704Y-11797236D01*
X10946704Y-11867947D01*
X11017415Y-11867947D01*
X11020856Y-3159556D02*
X11020856Y-3088844D01*
X10950144Y-3088844D01*
X10950144Y-3159556D01*
X11020856Y-3159556D01*
X11020856Y-3413556D02*
X11020856Y-3342844D01*
X10950144Y-3342844D01*
X10950144Y-3413556D01*
X11020856Y-3413556D01*
X11020856Y-3667556D02*
X11020856Y-3596844D01*
X10950144Y-3596844D01*
X10950144Y-3667556D01*
X11020856Y-3667556D01*
X11020856Y-3921556D02*
X11020856Y-3850844D01*
X10950144Y-3850844D01*
X10950144Y-3921556D01*
X11020856Y-3921556D01*
X11020856Y-4175556D02*
X11020856Y-4104844D01*
X10950144Y-4104844D01*
X10950144Y-4175556D01*
X11020856Y-4175556D01*
X11020856Y-4429556D02*
X11020856Y-4358844D01*
X10950144Y-4358844D01*
X10950144Y-4429556D01*
X11020856Y-4429556D01*
X11020856Y-4683556D02*
X11020856Y-4612844D01*
X10950144Y-4612844D01*
X10950144Y-4683556D01*
X11020856Y-4683556D01*
X11020856Y-4937556D02*
X11020856Y-4866844D01*
X10950144Y-4866844D01*
X10950144Y-4937556D01*
X11020856Y-4937556D01*
X11020856Y-5610656D02*
X11020856Y-5539944D01*
X10950144Y-5539944D01*
X10950144Y-5610656D01*
X11020856Y-5610656D01*
X11020856Y-5864656D02*
X11020856Y-5793944D01*
X10950144Y-5793944D01*
X10950144Y-5864656D01*
X11020856Y-5864656D01*
X11020856Y-6118656D02*
X11020856Y-6047944D01*
X10950144Y-6047944D01*
X10950144Y-6118656D01*
X11020856Y-6118656D01*
X11020856Y-6372656D02*
X11020856Y-6301944D01*
X10950144Y-6301944D01*
X10950144Y-6372656D01*
X11020856Y-6372656D01*
X11020856Y-6626656D02*
X11020856Y-6555944D01*
X10950144Y-6555944D01*
X10950144Y-6626656D01*
X11020856Y-6626656D01*
X11020856Y-6880656D02*
X11020856Y-6809944D01*
X10950144Y-6809944D01*
X10950144Y-6880656D01*
X11020856Y-6880656D01*
X11020856Y-7134656D02*
X11020856Y-7063944D01*
X10950144Y-7063944D01*
X10950144Y-7134656D01*
X11020856Y-7134656D01*
X11020856Y-7388656D02*
X11020856Y-7317944D01*
X10950144Y-7317944D01*
X10950144Y-7388656D01*
X11020856Y-7388656D01*
X11271415Y-10089947D02*
X11271415Y-10019236D01*
X11200704Y-10019236D01*
X11200704Y-10089947D01*
X11271415Y-10089947D01*
X11271415Y-10343947D02*
X11271415Y-10273236D01*
X11200704Y-10273236D01*
X11200704Y-10343947D01*
X11271415Y-10343947D01*
X11271415Y-10597947D02*
X11271415Y-10527236D01*
X11200704Y-10527236D01*
X11200704Y-10597947D01*
X11271415Y-10597947D01*
X11271415Y-10851947D02*
X11271415Y-10781236D01*
X11200704Y-10781236D01*
X11200704Y-10851947D01*
X11271415Y-10851947D01*
X11271415Y-11105947D02*
X11271415Y-11035236D01*
X11200704Y-11035236D01*
X11200704Y-11105947D01*
X11271415Y-11105947D01*
X11271415Y-11359947D02*
X11271415Y-11289236D01*
X11200704Y-11289236D01*
X11200704Y-11359947D01*
X11271415Y-11359947D01*
X11271415Y-11613947D02*
X11271415Y-11543236D01*
X11200704Y-11543236D01*
X11200704Y-11613947D01*
X11271415Y-11613947D01*
X11271415Y-11867947D02*
X11271415Y-11797236D01*
X11200704Y-11797236D01*
X11200704Y-11867947D01*
X11271415Y-11867947D01*
X11274856Y-3159556D02*
X11274856Y-3088844D01*
X11204144Y-3088844D01*
X11204144Y-3159556D01*
X11274856Y-3159556D01*
X11274856Y-3413556D02*
X11274856Y-3342844D01*
X11204144Y-3342844D01*
X11204144Y-3413556D01*
X11274856Y-3413556D01*
X11274856Y-3667556D02*
X11274856Y-3596844D01*
X11204144Y-3596844D01*
X11204144Y-3667556D01*
X11274856Y-3667556D01*
X11274856Y-3921556D02*
X11274856Y-3850844D01*
X11204144Y-3850844D01*
X11204144Y-3921556D01*
X11274856Y-3921556D01*
X11274856Y-4175556D02*
X11274856Y-4104844D01*
X11204144Y-4104844D01*
X11204144Y-4175556D01*
X11274856Y-4175556D01*
X11274856Y-4429556D02*
X11274856Y-4358844D01*
X11204144Y-4358844D01*
X11204144Y-4429556D01*
X11274856Y-4429556D01*
X11274856Y-4683556D02*
X11274856Y-4612844D01*
X11204144Y-4612844D01*
X11204144Y-4683556D01*
X11274856Y-4683556D01*
X11274856Y-4937556D02*
X11274856Y-4866844D01*
X11204144Y-4866844D01*
X11204144Y-4937556D01*
X11274856Y-4937556D01*
X11274856Y-5610656D02*
X11274856Y-5539944D01*
X11204144Y-5539944D01*
X11204144Y-5610656D01*
X11274856Y-5610656D01*
X11274856Y-5864656D02*
X11274856Y-5793944D01*
X11204144Y-5793944D01*
X11204144Y-5864656D01*
X11274856Y-5864656D01*
X11274856Y-6118656D02*
X11274856Y-6047944D01*
X11204144Y-6047944D01*
X11204144Y-6118656D01*
X11274856Y-6118656D01*
X11274856Y-6372656D02*
X11274856Y-6301944D01*
X11204144Y-6301944D01*
X11204144Y-6372656D01*
X11274856Y-6372656D01*
X11274856Y-6626656D02*
X11274856Y-6555944D01*
X11204144Y-6555944D01*
X11204144Y-6626656D01*
X11274856Y-6626656D01*
X11274856Y-6880656D02*
X11274856Y-6809944D01*
X11204144Y-6809944D01*
X11204144Y-6880656D01*
X11274856Y-6880656D01*
X11274856Y-7134656D02*
X11274856Y-7063944D01*
X11204144Y-7063944D01*
X11204144Y-7134656D01*
X11274856Y-7134656D01*
X11274856Y-7388656D02*
X11274856Y-7317944D01*
X11204144Y-7317944D01*
X11204144Y-7388656D01*
X11274856Y-7388656D01*
X11906415Y-10089947D02*
X11906415Y-10019236D01*
X11835704Y-10019236D01*
X11835704Y-10089947D01*
X11906415Y-10089947D01*
X11906415Y-10343947D02*
X11906415Y-10273236D01*
X11835704Y-10273236D01*
X11835704Y-10343947D01*
X11906415Y-10343947D01*
X11906415Y-10597947D02*
X11906415Y-10527236D01*
X11835704Y-10527236D01*
X11835704Y-10597947D01*
X11906415Y-10597947D01*
X11906415Y-10851947D02*
X11906415Y-10781236D01*
X11835704Y-10781236D01*
X11835704Y-10851947D01*
X11906415Y-10851947D01*
X11906415Y-11105947D02*
X11906415Y-11035236D01*
X11835704Y-11035236D01*
X11835704Y-11105947D01*
X11906415Y-11105947D01*
X11906415Y-11359947D02*
X11906415Y-11289236D01*
X11835704Y-11289236D01*
X11835704Y-11359947D01*
X11906415Y-11359947D01*
X11906415Y-11613947D02*
X11906415Y-11543236D01*
X11835704Y-11543236D01*
X11835704Y-11613947D01*
X11906415Y-11613947D01*
X11906415Y-11867947D02*
X11906415Y-11797236D01*
X11835704Y-11797236D01*
X11835704Y-11867947D01*
X11906415Y-11867947D01*
X11909856Y-3159556D02*
X11909856Y-3088844D01*
X11839144Y-3088844D01*
X11839144Y-3159556D01*
X11909856Y-3159556D01*
X11909856Y-3413556D02*
X11909856Y-3342844D01*
X11839144Y-3342844D01*
X11839144Y-3413556D01*
X11909856Y-3413556D01*
X11909856Y-3667556D02*
X11909856Y-3596844D01*
X11839144Y-3596844D01*
X11839144Y-3667556D01*
X11909856Y-3667556D01*
X11909856Y-3921556D02*
X11909856Y-3850844D01*
X11839144Y-3850844D01*
X11839144Y-3921556D01*
X11909856Y-3921556D01*
X11909856Y-4175556D02*
X11909856Y-4104844D01*
X11839144Y-4104844D01*
X11839144Y-4175556D01*
X11909856Y-4175556D01*
X11909856Y-4429556D02*
X11909856Y-4358844D01*
X11839144Y-4358844D01*
X11839144Y-4429556D01*
X11909856Y-4429556D01*
X11909856Y-4683556D02*
X11909856Y-4612844D01*
X11839144Y-4612844D01*
X11839144Y-4683556D01*
X11909856Y-4683556D01*
X11909856Y-4937556D02*
X11909856Y-4866844D01*
X11839144Y-4866844D01*
X11839144Y-4937556D01*
X11909856Y-4937556D01*
X11909856Y-5610656D02*
X11909856Y-5539944D01*
X11839144Y-5539944D01*
X11839144Y-5610656D01*
X11909856Y-5610656D01*
X11909856Y-5864656D02*
X11909856Y-5793944D01*
X11839144Y-5793944D01*
X11839144Y-5864656D01*
X11909856Y-5864656D01*
X11909856Y-6118656D02*
X11909856Y-6047944D01*
X11839144Y-6047944D01*
X11839144Y-6118656D01*
X11909856Y-6118656D01*
X11909856Y-6372656D02*
X11909856Y-6301944D01*
X11839144Y-6301944D01*
X11839144Y-6372656D01*
X11909856Y-6372656D01*
X11909856Y-6626656D02*
X11909856Y-6555944D01*
X11839144Y-6555944D01*
X11839144Y-6626656D01*
X11909856Y-6626656D01*
X11909856Y-6880656D02*
X11909856Y-6809944D01*
X11839144Y-6809944D01*
X11839144Y-6880656D01*
X11909856Y-6880656D01*
X11909856Y-7134656D02*
X11909856Y-7063944D01*
X11839144Y-7063944D01*
X11839144Y-7134656D01*
X11909856Y-7134656D01*
X11909856Y-7388656D02*
X11909856Y-7317944D01*
X11839144Y-7317944D01*
X11839144Y-7388656D01*
X11909856Y-7388656D01*
X12160415Y-10089947D02*
X12160415Y-10019236D01*
X12089704Y-10019236D01*
X12089704Y-10089947D01*
X12160415Y-10089947D01*
X12160415Y-10343947D02*
X12160415Y-10273236D01*
X12089704Y-10273236D01*
X12089704Y-10343947D01*
X12160415Y-10343947D01*
X12160415Y-10597947D02*
X12160415Y-10527236D01*
X12089704Y-10527236D01*
X12089704Y-10597947D01*
X12160415Y-10597947D01*
X12160415Y-10851947D02*
X12160415Y-10781236D01*
X12089704Y-10781236D01*
X12089704Y-10851947D01*
X12160415Y-10851947D01*
X12160415Y-11105947D02*
X12160415Y-11035236D01*
X12089704Y-11035236D01*
X12089704Y-11105947D01*
X12160415Y-11105947D01*
X12160415Y-11359947D02*
X12160415Y-11289236D01*
X12089704Y-11289236D01*
X12089704Y-11359947D01*
X12160415Y-11359947D01*
X12160415Y-11613947D02*
X12160415Y-11543236D01*
X12089704Y-11543236D01*
X12089704Y-11613947D01*
X12160415Y-11613947D01*
X12160415Y-11867947D02*
X12160415Y-11797236D01*
X12089704Y-11797236D01*
X12089704Y-11867947D01*
X12160415Y-11867947D01*
X12163856Y-3159556D02*
X12163856Y-3088844D01*
X12093144Y-3088844D01*
X12093144Y-3159556D01*
X12163856Y-3159556D01*
X12163856Y-3413556D02*
X12163856Y-3342844D01*
X12093144Y-3342844D01*
X12093144Y-3413556D01*
X12163856Y-3413556D01*
X12163856Y-3667556D02*
X12163856Y-3596844D01*
X12093144Y-3596844D01*
X12093144Y-3667556D01*
X12163856Y-3667556D01*
X12163856Y-3921556D02*
X12163856Y-3850844D01*
X12093144Y-3850844D01*
X12093144Y-3921556D01*
X12163856Y-3921556D01*
X12163856Y-4175556D02*
X12163856Y-4104844D01*
X12093144Y-4104844D01*
X12093144Y-4175556D01*
X12163856Y-4175556D01*
X12163856Y-4429556D02*
X12163856Y-4358844D01*
X12093144Y-4358844D01*
X12093144Y-4429556D01*
X12163856Y-4429556D01*
X12163856Y-4683556D02*
X12163856Y-4612844D01*
X12093144Y-4612844D01*
X12093144Y-4683556D01*
X12163856Y-4683556D01*
X12163856Y-4937556D02*
X12163856Y-4866844D01*
X12093144Y-4866844D01*
X12093144Y-4937556D01*
X12163856Y-4937556D01*
X12163856Y-5610656D02*
X12163856Y-5539944D01*
X12093144Y-5539944D01*
X12093144Y-5610656D01*
X12163856Y-5610656D01*
X12163856Y-5864656D02*
X12163856Y-5793944D01*
X12093144Y-5793944D01*
X12093144Y-5864656D01*
X12163856Y-5864656D01*
X12163856Y-6118656D02*
X12163856Y-6047944D01*
X12093144Y-6047944D01*
X12093144Y-6118656D01*
X12163856Y-6118656D01*
X12163856Y-6372656D02*
X12163856Y-6301944D01*
X12093144Y-6301944D01*
X12093144Y-6372656D01*
X12163856Y-6372656D01*
X12163856Y-6626656D02*
X12163856Y-6555944D01*
X12093144Y-6555944D01*
X12093144Y-6626656D01*
X12163856Y-6626656D01*
X12163856Y-6880656D02*
X12163856Y-6809944D01*
X12093144Y-6809944D01*
X12093144Y-6880656D01*
X12163856Y-6880656D01*
X12163856Y-7134656D02*
X12163856Y-7063944D01*
X12093144Y-7063944D01*
X12093144Y-7134656D01*
X12163856Y-7134656D01*
X12163856Y-7388656D02*
X12163856Y-7317944D01*
X12093144Y-7317944D01*
X12093144Y-7388656D01*
X12163856Y-7388656D01*
X12795415Y-10089947D02*
X12795415Y-10019236D01*
X12724704Y-10019236D01*
X12724704Y-10089947D01*
X12795415Y-10089947D01*
X12795415Y-10343947D02*
X12795415Y-10273236D01*
X12724704Y-10273236D01*
X12724704Y-10343947D01*
X12795415Y-10343947D01*
X12795415Y-10597947D02*
X12795415Y-10527236D01*
X12724704Y-10527236D01*
X12724704Y-10597947D01*
X12795415Y-10597947D01*
X12795415Y-10851947D02*
X12795415Y-10781236D01*
X12724704Y-10781236D01*
X12724704Y-10851947D01*
X12795415Y-10851947D01*
X12795415Y-11105947D02*
X12795415Y-11035236D01*
X12724704Y-11035236D01*
X12724704Y-11105947D01*
X12795415Y-11105947D01*
X12795415Y-11359947D02*
X12795415Y-11289236D01*
X12724704Y-11289236D01*
X12724704Y-11359947D01*
X12795415Y-11359947D01*
X12795415Y-11613947D02*
X12795415Y-11543236D01*
X12724704Y-11543236D01*
X12724704Y-11613947D01*
X12795415Y-11613947D01*
X12795415Y-11867947D02*
X12795415Y-11797236D01*
X12724704Y-11797236D01*
X12724704Y-11867947D01*
X12795415Y-11867947D01*
X12798856Y-3159556D02*
X12798856Y-3088844D01*
X12728144Y-3088844D01*
X12728144Y-3159556D01*
X12798856Y-3159556D01*
X12798856Y-3413556D02*
X12798856Y-3342844D01*
X12728144Y-3342844D01*
X12728144Y-3413556D01*
X12798856Y-3413556D01*
X12798856Y-3667556D02*
X12798856Y-3596844D01*
X12728144Y-3596844D01*
X12728144Y-3667556D01*
X12798856Y-3667556D01*
X12798856Y-3921556D02*
X12798856Y-3850844D01*
X12728144Y-3850844D01*
X12728144Y-3921556D01*
X12798856Y-3921556D01*
X12798856Y-4175556D02*
X12798856Y-4104844D01*
X12728144Y-4104844D01*
X12728144Y-4175556D01*
X12798856Y-4175556D01*
X12798856Y-4429556D02*
X12798856Y-4358844D01*
X12728144Y-4358844D01*
X12728144Y-4429556D01*
X12798856Y-4429556D01*
X12798856Y-4683556D02*
X12798856Y-4612844D01*
X12728144Y-4612844D01*
X12728144Y-4683556D01*
X12798856Y-4683556D01*
X12798856Y-4937556D02*
X12798856Y-4866844D01*
X12728144Y-4866844D01*
X12728144Y-4937556D01*
X12798856Y-4937556D01*
X12798856Y-5610656D02*
X12798856Y-5539944D01*
X12728144Y-5539944D01*
X12728144Y-5610656D01*
X12798856Y-5610656D01*
X12798856Y-5864656D02*
X12798856Y-5793944D01*
X12728144Y-5793944D01*
X12728144Y-5864656D01*
X12798856Y-5864656D01*
X12798856Y-6118656D02*
X12798856Y-6047944D01*
X12728144Y-6047944D01*
X12728144Y-6118656D01*
X12798856Y-6118656D01*
X12798856Y-6372656D02*
X12798856Y-6301944D01*
X12728144Y-6301944D01*
X12728144Y-6372656D01*
X12798856Y-6372656D01*
X12798856Y-6626656D02*
X12798856Y-6555944D01*
X12728144Y-6555944D01*
X12728144Y-6626656D01*
X12798856Y-6626656D01*
X12798856Y-6880656D02*
X12798856Y-6809944D01*
X12728144Y-6809944D01*
X12728144Y-6880656D01*
X12798856Y-6880656D01*
X12798856Y-7134656D02*
X12798856Y-7063944D01*
X12728144Y-7063944D01*
X12728144Y-7134656D01*
X12798856Y-7134656D01*
X12798856Y-7388656D02*
X12798856Y-7317944D01*
X12728144Y-7317944D01*
X12728144Y-7388656D01*
X12798856Y-7388656D01*
X13049415Y-10089947D02*
X13049415Y-10019236D01*
X12978704Y-10019236D01*
X12978704Y-10089947D01*
X13049415Y-10089947D01*
X13049415Y-10343947D02*
X13049415Y-10273236D01*
X12978704Y-10273236D01*
X12978704Y-10343947D01*
X13049415Y-10343947D01*
X13049415Y-10597947D02*
X13049415Y-10527236D01*
X12978704Y-10527236D01*
X12978704Y-10597947D01*
X13049415Y-10597947D01*
X13049415Y-10851947D02*
X13049415Y-10781236D01*
X12978704Y-10781236D01*
X12978704Y-10851947D01*
X13049415Y-10851947D01*
X13049415Y-11105947D02*
X13049415Y-11035236D01*
X12978704Y-11035236D01*
X12978704Y-11105947D01*
X13049415Y-11105947D01*
X13049415Y-11359947D02*
X13049415Y-11289236D01*
X12978704Y-11289236D01*
X12978704Y-11359947D01*
X13049415Y-11359947D01*
X13049415Y-11613947D02*
X13049415Y-11543236D01*
X12978704Y-11543236D01*
X12978704Y-11613947D01*
X13049415Y-11613947D01*
X13049415Y-11867947D02*
X13049415Y-11797236D01*
X12978704Y-11797236D01*
X12978704Y-11867947D01*
X13049415Y-11867947D01*
X13052856Y-3159556D02*
X13052856Y-3088844D01*
X12982144Y-3088844D01*
X12982144Y-3159556D01*
X13052856Y-3159556D01*
X13052856Y-3413556D02*
X13052856Y-3342844D01*
X12982144Y-3342844D01*
X12982144Y-3413556D01*
X13052856Y-3413556D01*
X13052856Y-3667556D02*
X13052856Y-3596844D01*
X12982144Y-3596844D01*
X12982144Y-3667556D01*
X13052856Y-3667556D01*
X13052856Y-3921556D02*
X13052856Y-3850844D01*
X12982144Y-3850844D01*
X12982144Y-3921556D01*
X13052856Y-3921556D01*
X13052856Y-4175556D02*
X13052856Y-4104844D01*
X12982144Y-4104844D01*
X12982144Y-4175556D01*
X13052856Y-4175556D01*
X13052856Y-4429556D02*
X13052856Y-4358844D01*
X12982144Y-4358844D01*
X12982144Y-4429556D01*
X13052856Y-4429556D01*
X13052856Y-4683556D02*
X13052856Y-4612844D01*
X12982144Y-4612844D01*
X12982144Y-4683556D01*
X13052856Y-4683556D01*
X13052856Y-4937556D02*
X13052856Y-4866844D01*
X12982144Y-4866844D01*
X12982144Y-4937556D01*
X13052856Y-4937556D01*
X13052856Y-5610656D02*
X13052856Y-5539944D01*
X12982144Y-5539944D01*
X12982144Y-5610656D01*
X13052856Y-5610656D01*
X13052856Y-5864656D02*
X13052856Y-5793944D01*
X12982144Y-5793944D01*
X12982144Y-5864656D01*
X13052856Y-5864656D01*
X13052856Y-6118656D02*
X13052856Y-6047944D01*
X12982144Y-6047944D01*
X12982144Y-6118656D01*
X13052856Y-6118656D01*
X13052856Y-6372656D02*
X13052856Y-6301944D01*
X12982144Y-6301944D01*
X12982144Y-6372656D01*
X13052856Y-6372656D01*
X13052856Y-6626656D02*
X13052856Y-6555944D01*
X12982144Y-6555944D01*
X12982144Y-6626656D01*
X13052856Y-6626656D01*
X13052856Y-6880656D02*
X13052856Y-6809944D01*
X12982144Y-6809944D01*
X12982144Y-6880656D01*
X13052856Y-6880656D01*
X13052856Y-7134656D02*
X13052856Y-7063944D01*
X12982144Y-7063944D01*
X12982144Y-7134656D01*
X13052856Y-7134656D01*
X13052856Y-7388656D02*
X13052856Y-7317944D01*
X12982144Y-7317944D01*
X12982144Y-7388656D01*
X13052856Y-7388656D01*
X13684415Y-10089947D02*
X13684415Y-10019236D01*
X13613704Y-10019236D01*
X13613704Y-10089947D01*
X13684415Y-10089947D01*
X13684415Y-10343947D02*
X13684415Y-10273236D01*
X13613704Y-10273236D01*
X13613704Y-10343947D01*
X13684415Y-10343947D01*
X13684415Y-10597947D02*
X13684415Y-10527236D01*
X13613704Y-10527236D01*
X13613704Y-10597947D01*
X13684415Y-10597947D01*
X13684415Y-10851947D02*
X13684415Y-10781236D01*
X13613704Y-10781236D01*
X13613704Y-10851947D01*
X13684415Y-10851947D01*
X13684415Y-11105947D02*
X13684415Y-11035236D01*
X13613704Y-11035236D01*
X13613704Y-11105947D01*
X13684415Y-11105947D01*
X13684415Y-11359947D02*
X13684415Y-11289236D01*
X13613704Y-11289236D01*
X13613704Y-11359947D01*
X13684415Y-11359947D01*
X13684415Y-11613947D02*
X13684415Y-11543236D01*
X13613704Y-11543236D01*
X13613704Y-11613947D01*
X13684415Y-11613947D01*
X13684415Y-11867947D02*
X13684415Y-11797236D01*
X13613704Y-11797236D01*
X13613704Y-11867947D01*
X13684415Y-11867947D01*
X13687856Y-3159556D02*
X13687856Y-3088844D01*
X13617144Y-3088844D01*
X13617144Y-3159556D01*
X13687856Y-3159556D01*
X13687856Y-3413556D02*
X13687856Y-3342844D01*
X13617144Y-3342844D01*
X13617144Y-3413556D01*
X13687856Y-3413556D01*
X13687856Y-3667556D02*
X13687856Y-3596844D01*
X13617144Y-3596844D01*
X13617144Y-3667556D01*
X13687856Y-3667556D01*
X13687856Y-3921556D02*
X13687856Y-3850844D01*
X13617144Y-3850844D01*
X13617144Y-3921556D01*
X13687856Y-3921556D01*
X13687856Y-4175556D02*
X13687856Y-4104844D01*
X13617144Y-4104844D01*
X13617144Y-4175556D01*
X13687856Y-4175556D01*
X13687856Y-4429556D02*
X13687856Y-4358844D01*
X13617144Y-4358844D01*
X13617144Y-4429556D01*
X13687856Y-4429556D01*
X13687856Y-4683556D02*
X13687856Y-4612844D01*
X13617144Y-4612844D01*
X13617144Y-4683556D01*
X13687856Y-4683556D01*
X13687856Y-4937556D02*
X13687856Y-4866844D01*
X13617144Y-4866844D01*
X13617144Y-4937556D01*
X13687856Y-4937556D01*
X13687856Y-5610656D02*
X13687856Y-5539944D01*
X13617144Y-5539944D01*
X13617144Y-5610656D01*
X13687856Y-5610656D01*
X13687856Y-5864656D02*
X13687856Y-5793944D01*
X13617144Y-5793944D01*
X13617144Y-5864656D01*
X13687856Y-5864656D01*
X13687856Y-6118656D02*
X13687856Y-6047944D01*
X13617144Y-6047944D01*
X13617144Y-6118656D01*
X13687856Y-6118656D01*
X13687856Y-6372656D02*
X13687856Y-6301944D01*
X13617144Y-6301944D01*
X13617144Y-6372656D01*
X13687856Y-6372656D01*
X13687856Y-6626656D02*
X13687856Y-6555944D01*
X13617144Y-6555944D01*
X13617144Y-6626656D01*
X13687856Y-6626656D01*
X13687856Y-6880656D02*
X13687856Y-6809944D01*
X13617144Y-6809944D01*
X13617144Y-6880656D01*
X13687856Y-6880656D01*
X13687856Y-7134656D02*
X13687856Y-7063944D01*
X13617144Y-7063944D01*
X13617144Y-7134656D01*
X13687856Y-7134656D01*
X13687856Y-7388656D02*
X13687856Y-7317944D01*
X13617144Y-7317944D01*
X13617144Y-7388656D01*
X13687856Y-7388656D01*
X13938415Y-10089947D02*
X13938415Y-10019236D01*
X13867704Y-10019236D01*
X13867704Y-10089947D01*
X13938415Y-10089947D01*
X13938415Y-10343947D02*
X13938415Y-10273236D01*
X13867704Y-10273236D01*
X13867704Y-10343947D01*
X13938415Y-10343947D01*
X13938415Y-10597947D02*
X13938415Y-10527236D01*
X13867704Y-10527236D01*
X13867704Y-10597947D01*
X13938415Y-10597947D01*
X13938415Y-10851947D02*
X13938415Y-10781236D01*
X13867704Y-10781236D01*
X13867704Y-10851947D01*
X13938415Y-10851947D01*
X13938415Y-11105947D02*
X13938415Y-11035236D01*
X13867704Y-11035236D01*
X13867704Y-11105947D01*
X13938415Y-11105947D01*
X13938415Y-11359947D02*
X13938415Y-11289236D01*
X13867704Y-11289236D01*
X13867704Y-11359947D01*
X13938415Y-11359947D01*
X13938415Y-11613947D02*
X13938415Y-11543236D01*
X13867704Y-11543236D01*
X13867704Y-11613947D01*
X13938415Y-11613947D01*
X13938415Y-11867947D02*
X13938415Y-11797236D01*
X13867704Y-11797236D01*
X13867704Y-11867947D01*
X13938415Y-11867947D01*
X13941856Y-3159556D02*
X13941856Y-3088844D01*
X13871144Y-3088844D01*
X13871144Y-3159556D01*
X13941856Y-3159556D01*
X13941856Y-3413556D02*
X13941856Y-3342844D01*
X13871144Y-3342844D01*
X13871144Y-3413556D01*
X13941856Y-3413556D01*
X13941856Y-3667556D02*
X13941856Y-3596844D01*
X13871144Y-3596844D01*
X13871144Y-3667556D01*
X13941856Y-3667556D01*
X13941856Y-3921556D02*
X13941856Y-3850844D01*
X13871144Y-3850844D01*
X13871144Y-3921556D01*
X13941856Y-3921556D01*
X13941856Y-4175556D02*
X13941856Y-4104844D01*
X13871144Y-4104844D01*
X13871144Y-4175556D01*
X13941856Y-4175556D01*
X13941856Y-4429556D02*
X13941856Y-4358844D01*
X13871144Y-4358844D01*
X13871144Y-4429556D01*
X13941856Y-4429556D01*
X13941856Y-4683556D02*
X13941856Y-4612844D01*
X13871144Y-4612844D01*
X13871144Y-4683556D01*
X13941856Y-4683556D01*
X13941856Y-4937556D02*
X13941856Y-4866844D01*
X13871144Y-4866844D01*
X13871144Y-4937556D01*
X13941856Y-4937556D01*
X13941856Y-5610656D02*
X13941856Y-5539944D01*
X13871144Y-5539944D01*
X13871144Y-5610656D01*
X13941856Y-5610656D01*
X13941856Y-5864656D02*
X13941856Y-5793944D01*
X13871144Y-5793944D01*
X13871144Y-5864656D01*
X13941856Y-5864656D01*
X13941856Y-6118656D02*
X13941856Y-6047944D01*
X13871144Y-6047944D01*
X13871144Y-6118656D01*
X13941856Y-6118656D01*
X13941856Y-6372656D02*
X13941856Y-6301944D01*
X13871144Y-6301944D01*
X13871144Y-6372656D01*
X13941856Y-6372656D01*
X13941856Y-6626656D02*
X13941856Y-6555944D01*
X13871144Y-6555944D01*
X13871144Y-6626656D01*
X13941856Y-6626656D01*
X13941856Y-6880656D02*
X13941856Y-6809944D01*
X13871144Y-6809944D01*
X13871144Y-6880656D01*
X13941856Y-6880656D01*
X13941856Y-7134656D02*
X13941856Y-7063944D01*
X13871144Y-7063944D01*
X13871144Y-7134656D01*
X13941856Y-7134656D01*
X13941856Y-7388656D02*
X13941856Y-7317944D01*
X13871144Y-7317944D01*
X13871144Y-7388656D01*
X13941856Y-7388656D01*
X14573415Y-10091447D02*
X14573415Y-10020736D01*
X14502704Y-10020736D01*
X14502704Y-10091447D01*
X14573415Y-10091447D01*
X14573415Y-10345447D02*
X14573415Y-10274736D01*
X14502704Y-10274736D01*
X14502704Y-10345447D01*
X14573415Y-10345447D01*
X14573415Y-10599447D02*
X14573415Y-10528736D01*
X14502704Y-10528736D01*
X14502704Y-10599447D01*
X14573415Y-10599447D01*
X14573415Y-10853447D02*
X14573415Y-10782736D01*
X14502704Y-10782736D01*
X14502704Y-10853447D01*
X14573415Y-10853447D01*
X14573415Y-11107447D02*
X14573415Y-11036736D01*
X14502704Y-11036736D01*
X14502704Y-11107447D01*
X14573415Y-11107447D01*
X14573415Y-11361447D02*
X14573415Y-11290736D01*
X14502704Y-11290736D01*
X14502704Y-11361447D01*
X14573415Y-11361447D01*
X14573415Y-11615447D02*
X14573415Y-11544736D01*
X14502704Y-11544736D01*
X14502704Y-11615447D01*
X14573415Y-11615447D01*
X14573415Y-11869447D02*
X14573415Y-11798736D01*
X14502704Y-11798736D01*
X14502704Y-11869447D01*
X14573415Y-11869447D01*
X14576856Y-3159556D02*
X14576856Y-3088844D01*
X14506144Y-3088844D01*
X14506144Y-3159556D01*
X14576856Y-3159556D01*
X14576856Y-3413556D02*
X14576856Y-3342844D01*
X14506144Y-3342844D01*
X14506144Y-3413556D01*
X14576856Y-3413556D01*
X14576856Y-3667556D02*
X14576856Y-3596844D01*
X14506144Y-3596844D01*
X14506144Y-3667556D01*
X14576856Y-3667556D01*
X14576856Y-3921556D02*
X14576856Y-3850844D01*
X14506144Y-3850844D01*
X14506144Y-3921556D01*
X14576856Y-3921556D01*
X14576856Y-4175556D02*
X14576856Y-4104844D01*
X14506144Y-4104844D01*
X14506144Y-4175556D01*
X14576856Y-4175556D01*
X14576856Y-4429556D02*
X14576856Y-4358844D01*
X14506144Y-4358844D01*
X14506144Y-4429556D01*
X14576856Y-4429556D01*
X14576856Y-4683556D02*
X14576856Y-4612844D01*
X14506144Y-4612844D01*
X14506144Y-4683556D01*
X14576856Y-4683556D01*
X14576856Y-4937556D02*
X14576856Y-4866844D01*
X14506144Y-4866844D01*
X14506144Y-4937556D01*
X14576856Y-4937556D01*
X14576856Y-5610656D02*
X14576856Y-5539944D01*
X14506144Y-5539944D01*
X14506144Y-5610656D01*
X14576856Y-5610656D01*
X14576856Y-5864656D02*
X14576856Y-5793944D01*
X14506144Y-5793944D01*
X14506144Y-5864656D01*
X14576856Y-5864656D01*
X14576856Y-6118656D02*
X14576856Y-6047944D01*
X14506144Y-6047944D01*
X14506144Y-6118656D01*
X14576856Y-6118656D01*
X14576856Y-6372656D02*
X14576856Y-6301944D01*
X14506144Y-6301944D01*
X14506144Y-6372656D01*
X14576856Y-6372656D01*
X14576856Y-6626656D02*
X14576856Y-6555944D01*
X14506144Y-6555944D01*
X14506144Y-6626656D01*
X14576856Y-6626656D01*
X14576856Y-6880656D02*
X14576856Y-6809944D01*
X14506144Y-6809944D01*
X14506144Y-6880656D01*
X14576856Y-6880656D01*
X14576856Y-7134656D02*
X14576856Y-7063944D01*
X14506144Y-7063944D01*
X14506144Y-7134656D01*
X14576856Y-7134656D01*
X14576856Y-7388656D02*
X14576856Y-7317944D01*
X14506144Y-7317944D01*
X14506144Y-7388656D01*
X14576856Y-7388656D01*
X14827415Y-10091447D02*
X14827415Y-10020736D01*
X14756704Y-10020736D01*
X14756704Y-10091447D01*
X14827415Y-10091447D01*
X14827415Y-10345447D02*
X14827415Y-10274736D01*
X14756704Y-10274736D01*
X14756704Y-10345447D01*
X14827415Y-10345447D01*
X14827415Y-10599447D02*
X14827415Y-10528736D01*
X14756704Y-10528736D01*
X14756704Y-10599447D01*
X14827415Y-10599447D01*
X14827415Y-10853447D02*
X14827415Y-10782736D01*
X14756704Y-10782736D01*
X14756704Y-10853447D01*
X14827415Y-10853447D01*
X14827415Y-11107447D02*
X14827415Y-11036736D01*
X14756704Y-11036736D01*
X14756704Y-11107447D01*
X14827415Y-11107447D01*
X14827415Y-11361447D02*
X14827415Y-11290736D01*
X14756704Y-11290736D01*
X14756704Y-11361447D01*
X14827415Y-11361447D01*
X14827415Y-11615447D02*
X14827415Y-11544736D01*
X14756704Y-11544736D01*
X14756704Y-11615447D01*
X14827415Y-11615447D01*
X14827415Y-11869447D02*
X14827415Y-11798736D01*
X14756704Y-11798736D01*
X14756704Y-11869447D01*
X14827415Y-11869447D01*
X14830856Y-3159556D02*
X14830856Y-3088844D01*
X14760144Y-3088844D01*
X14760144Y-3159556D01*
X14830856Y-3159556D01*
X14830856Y-3413556D02*
X14830856Y-3342844D01*
X14760144Y-3342844D01*
X14760144Y-3413556D01*
X14830856Y-3413556D01*
X14830856Y-3667556D02*
X14830856Y-3596844D01*
X14760144Y-3596844D01*
X14760144Y-3667556D01*
X14830856Y-3667556D01*
X14830856Y-3921556D02*
X14830856Y-3850844D01*
X14760144Y-3850844D01*
X14760144Y-3921556D01*
X14830856Y-3921556D01*
X14830856Y-4175556D02*
X14830856Y-4104844D01*
X14760144Y-4104844D01*
X14760144Y-4175556D01*
X14830856Y-4175556D01*
X14830856Y-4429556D02*
X14830856Y-4358844D01*
X14760144Y-4358844D01*
X14760144Y-4429556D01*
X14830856Y-4429556D01*
X14830856Y-4683556D02*
X14830856Y-4612844D01*
X14760144Y-4612844D01*
X14760144Y-4683556D01*
X14830856Y-4683556D01*
X14830856Y-4937556D02*
X14830856Y-4866844D01*
X14760144Y-4866844D01*
X14760144Y-4937556D01*
X14830856Y-4937556D01*
X14830856Y-5610656D02*
X14830856Y-5539944D01*
X14760144Y-5539944D01*
X14760144Y-5610656D01*
X14830856Y-5610656D01*
X14830856Y-5864656D02*
X14830856Y-5793944D01*
X14760144Y-5793944D01*
X14760144Y-5864656D01*
X14830856Y-5864656D01*
X14830856Y-6118656D02*
X14830856Y-6047944D01*
X14760144Y-6047944D01*
X14760144Y-6118656D01*
X14830856Y-6118656D01*
X14830856Y-6372656D02*
X14830856Y-6301944D01*
X14760144Y-6301944D01*
X14760144Y-6372656D01*
X14830856Y-6372656D01*
X14830856Y-6626656D02*
X14830856Y-6555944D01*
X14760144Y-6555944D01*
X14760144Y-6626656D01*
X14830856Y-6626656D01*
X14830856Y-6880656D02*
X14830856Y-6809944D01*
X14760144Y-6809944D01*
X14760144Y-6880656D01*
X14830856Y-6880656D01*
X14830856Y-7134656D02*
X14830856Y-7063944D01*
X14760144Y-7063944D01*
X14760144Y-7134656D01*
X14830856Y-7134656D01*
X14830856Y-7388656D02*
X14830856Y-7317944D01*
X14760144Y-7317944D01*
X14760144Y-7388656D01*
X14830856Y-7388656D01*
X15461915Y-10091447D02*
X15461915Y-10020736D01*
X15391204Y-10020736D01*
X15391204Y-10091447D01*
X15461915Y-10091447D01*
X15461915Y-10345447D02*
X15461915Y-10274736D01*
X15391204Y-10274736D01*
X15391204Y-10345447D01*
X15461915Y-10345447D01*
X15461915Y-10599447D02*
X15461915Y-10528736D01*
X15391204Y-10528736D01*
X15391204Y-10599447D01*
X15461915Y-10599447D01*
X15461915Y-10853447D02*
X15461915Y-10782736D01*
X15391204Y-10782736D01*
X15391204Y-10853447D01*
X15461915Y-10853447D01*
X15461915Y-11107447D02*
X15461915Y-11036736D01*
X15391204Y-11036736D01*
X15391204Y-11107447D01*
X15461915Y-11107447D01*
X15461915Y-11361447D02*
X15461915Y-11290736D01*
X15391204Y-11290736D01*
X15391204Y-11361447D01*
X15461915Y-11361447D01*
X15461915Y-11615447D02*
X15461915Y-11544736D01*
X15391204Y-11544736D01*
X15391204Y-11615447D01*
X15461915Y-11615447D01*
X15461915Y-11869447D02*
X15461915Y-11798736D01*
X15391204Y-11798736D01*
X15391204Y-11869447D01*
X15461915Y-11869447D01*
X15465856Y-3159556D02*
X15465856Y-3088844D01*
X15395144Y-3088844D01*
X15395144Y-3159556D01*
X15465856Y-3159556D01*
X15465856Y-3413556D02*
X15465856Y-3342844D01*
X15395144Y-3342844D01*
X15395144Y-3413556D01*
X15465856Y-3413556D01*
X15465856Y-3667556D02*
X15465856Y-3596844D01*
X15395144Y-3596844D01*
X15395144Y-3667556D01*
X15465856Y-3667556D01*
X15465856Y-3921556D02*
X15465856Y-3850844D01*
X15395144Y-3850844D01*
X15395144Y-3921556D01*
X15465856Y-3921556D01*
X15465856Y-4175556D02*
X15465856Y-4104844D01*
X15395144Y-4104844D01*
X15395144Y-4175556D01*
X15465856Y-4175556D01*
X15465856Y-4429556D02*
X15465856Y-4358844D01*
X15395144Y-4358844D01*
X15395144Y-4429556D01*
X15465856Y-4429556D01*
X15465856Y-4683556D02*
X15465856Y-4612844D01*
X15395144Y-4612844D01*
X15395144Y-4683556D01*
X15465856Y-4683556D01*
X15465856Y-4937556D02*
X15465856Y-4866844D01*
X15395144Y-4866844D01*
X15395144Y-4937556D01*
X15465856Y-4937556D01*
X15465856Y-5610656D02*
X15465856Y-5539944D01*
X15395144Y-5539944D01*
X15395144Y-5610656D01*
X15465856Y-5610656D01*
X15465856Y-5864656D02*
X15465856Y-5793944D01*
X15395144Y-5793944D01*
X15395144Y-5864656D01*
X15465856Y-5864656D01*
X15465856Y-6118656D02*
X15465856Y-6047944D01*
X15395144Y-6047944D01*
X15395144Y-6118656D01*
X15465856Y-6118656D01*
X15465856Y-6372656D02*
X15465856Y-6301944D01*
X15395144Y-6301944D01*
X15395144Y-6372656D01*
X15465856Y-6372656D01*
X15465856Y-6626656D02*
X15465856Y-6555944D01*
X15395144Y-6555944D01*
X15395144Y-6626656D01*
X15465856Y-6626656D01*
X15465856Y-6880656D02*
X15465856Y-6809944D01*
X15395144Y-6809944D01*
X15395144Y-6880656D01*
X15465856Y-6880656D01*
X15465856Y-7134656D02*
X15465856Y-7063944D01*
X15395144Y-7063944D01*
X15395144Y-7134656D01*
X15465856Y-7134656D01*
X15465856Y-7388656D02*
X15465856Y-7317944D01*
X15395144Y-7317944D01*
X15395144Y-7388656D01*
X15465856Y-7388656D01*
X15715915Y-10091447D02*
X15715915Y-10020736D01*
X15645204Y-10020736D01*
X15645204Y-10091447D01*
X15715915Y-10091447D01*
X15715915Y-10345447D02*
X15715915Y-10274736D01*
X15645204Y-10274736D01*
X15645204Y-10345447D01*
X15715915Y-10345447D01*
X15715915Y-10599447D02*
X15715915Y-10528736D01*
X15645204Y-10528736D01*
X15645204Y-10599447D01*
X15715915Y-10599447D01*
X15715915Y-10853447D02*
X15715915Y-10782736D01*
X15645204Y-10782736D01*
X15645204Y-10853447D01*
X15715915Y-10853447D01*
X15715915Y-11107447D02*
X15715915Y-11036736D01*
X15645204Y-11036736D01*
X15645204Y-11107447D01*
X15715915Y-11107447D01*
X15715915Y-11361447D02*
X15715915Y-11290736D01*
X15645204Y-11290736D01*
X15645204Y-11361447D01*
X15715915Y-11361447D01*
X15715915Y-11615447D02*
X15715915Y-11544736D01*
X15645204Y-11544736D01*
X15645204Y-11615447D01*
X15715915Y-11615447D01*
X15715915Y-11869447D02*
X15715915Y-11798736D01*
X15645204Y-11798736D01*
X15645204Y-11869447D01*
X15715915Y-11869447D01*
X15719856Y-3159556D02*
X15719856Y-3088844D01*
X15649144Y-3088844D01*
X15649144Y-3159556D01*
X15719856Y-3159556D01*
X15719856Y-3413556D02*
X15719856Y-3342844D01*
X15649144Y-3342844D01*
X15649144Y-3413556D01*
X15719856Y-3413556D01*
X15719856Y-3667556D02*
X15719856Y-3596844D01*
X15649144Y-3596844D01*
X15649144Y-3667556D01*
X15719856Y-3667556D01*
X15719856Y-3921556D02*
X15719856Y-3850844D01*
X15649144Y-3850844D01*
X15649144Y-3921556D01*
X15719856Y-3921556D01*
X15719856Y-4175556D02*
X15719856Y-4104844D01*
X15649144Y-4104844D01*
X15649144Y-4175556D01*
X15719856Y-4175556D01*
X15719856Y-4429556D02*
X15719856Y-4358844D01*
X15649144Y-4358844D01*
X15649144Y-4429556D01*
X15719856Y-4429556D01*
X15719856Y-4683556D02*
X15719856Y-4612844D01*
X15649144Y-4612844D01*
X15649144Y-4683556D01*
X15719856Y-4683556D01*
X15719856Y-4937556D02*
X15719856Y-4866844D01*
X15649144Y-4866844D01*
X15649144Y-4937556D01*
X15719856Y-4937556D01*
X15719856Y-5610656D02*
X15719856Y-5539944D01*
X15649144Y-5539944D01*
X15649144Y-5610656D01*
X15719856Y-5610656D01*
X15719856Y-5864656D02*
X15719856Y-5793944D01*
X15649144Y-5793944D01*
X15649144Y-5864656D01*
X15719856Y-5864656D01*
X15719856Y-6118656D02*
X15719856Y-6047944D01*
X15649144Y-6047944D01*
X15649144Y-6118656D01*
X15719856Y-6118656D01*
X15719856Y-6372656D02*
X15719856Y-6301944D01*
X15649144Y-6301944D01*
X15649144Y-6372656D01*
X15719856Y-6372656D01*
X15719856Y-6626656D02*
X15719856Y-6555944D01*
X15649144Y-6555944D01*
X15649144Y-6626656D01*
X15719856Y-6626656D01*
X15719856Y-6880656D02*
X15719856Y-6809944D01*
X15649144Y-6809944D01*
X15649144Y-6880656D01*
X15719856Y-6880656D01*
X15719856Y-7134656D02*
X15719856Y-7063944D01*
X15649144Y-7063944D01*
X15649144Y-7134656D01*
X15719856Y-7134656D01*
X15719856Y-7388656D02*
X15719856Y-7317944D01*
X15649144Y-7317944D01*
X15649144Y-7388656D01*
X15719856Y-7388656D01*
X16671856Y-10112856D02*
X16671856Y-10042144D01*
X16601144Y-10042144D01*
X16601144Y-10112856D01*
X16671856Y-10112856D01*
X16671856Y-10366856D02*
X16671856Y-10296144D01*
X16601144Y-10296144D01*
X16601144Y-10366856D01*
X16671856Y-10366856D01*
X16671856Y-10620856D02*
X16671856Y-10550144D01*
X16601144Y-10550144D01*
X16601144Y-10620856D01*
X16671856Y-10620856D01*
X16671856Y-10874856D02*
X16671856Y-10804144D01*
X16601144Y-10804144D01*
X16601144Y-10874856D01*
X16671856Y-10874856D01*
X16671856Y-11128856D02*
X16671856Y-11058144D01*
X16601144Y-11058144D01*
X16601144Y-11128856D01*
X16671856Y-11128856D01*
X16671856Y-11382856D02*
X16671856Y-11312144D01*
X16601144Y-11312144D01*
X16601144Y-11382856D01*
X16671856Y-11382856D01*
X16671856Y-11636856D02*
X16671856Y-11566144D01*
X16601144Y-11566144D01*
X16601144Y-11636856D01*
X16671856Y-11636856D01*
X16671856Y-11890856D02*
X16671856Y-11820144D01*
X16601144Y-11820144D01*
X16601144Y-11890856D01*
X16671856Y-11890856D01*
X16925856Y-10112856D02*
X16925856Y-10042144D01*
X16855144Y-10042144D01*
X16855144Y-10112856D01*
X16925856Y-10112856D01*
X16925856Y-10366856D02*
X16925856Y-10296144D01*
X16855144Y-10296144D01*
X16855144Y-10366856D01*
X16925856Y-10366856D01*
X16925856Y-10620856D02*
X16925856Y-10550144D01*
X16855144Y-10550144D01*
X16855144Y-10620856D01*
X16925856Y-10620856D01*
X16925856Y-10874856D02*
X16925856Y-10804144D01*
X16855144Y-10804144D01*
X16855144Y-10874856D01*
X16925856Y-10874856D01*
X16925856Y-11128856D02*
X16925856Y-11058144D01*
X16855144Y-11058144D01*
X16855144Y-11128856D01*
X16925856Y-11128856D01*
X16925856Y-11382856D02*
X16925856Y-11312144D01*
X16855144Y-11312144D01*
X16855144Y-11382856D01*
X16925856Y-11382856D01*
X16925856Y-11636856D02*
X16925856Y-11566144D01*
X16855144Y-11566144D01*
X16855144Y-11636856D01*
X16925856Y-11636856D01*
X16925856Y-11890856D02*
X16925856Y-11820144D01*
X16855144Y-11820144D01*
X16855144Y-11890856D01*
X16925856Y-11890856D01*
X17179856Y-10112856D02*
X17179856Y-10042144D01*
X17109144Y-10042144D01*
X17109144Y-10112856D01*
X17179856Y-10112856D01*
X17179856Y-10366856D02*
X17179856Y-10296144D01*
X17109144Y-10296144D01*
X17109144Y-10366856D01*
X17179856Y-10366856D01*
X17179856Y-10620856D02*
X17179856Y-10550144D01*
X17109144Y-10550144D01*
X17109144Y-10620856D01*
X17179856Y-10620856D01*
X17179856Y-10874856D02*
X17179856Y-10804144D01*
X17109144Y-10804144D01*
X17109144Y-10874856D01*
X17179856Y-10874856D01*
X17179856Y-11128856D02*
X17179856Y-11058144D01*
X17109144Y-11058144D01*
X17109144Y-11128856D01*
X17179856Y-11128856D01*
X17179856Y-11382856D02*
X17179856Y-11312144D01*
X17109144Y-11312144D01*
X17109144Y-11382856D01*
X17179856Y-11382856D01*
X17179856Y-11636856D02*
X17179856Y-11566144D01*
X17109144Y-11566144D01*
X17109144Y-11636856D01*
X17179856Y-11636856D01*
X17179856Y-11890856D02*
X17179856Y-11820144D01*
X17109144Y-11820144D01*
X17109144Y-11890856D01*
X17179856Y-11890856D01*
X17815356Y-10111356D02*
X17815356Y-10040644D01*
X17744644Y-10040644D01*
X17744644Y-10111356D01*
X17815356Y-10111356D01*
X17815356Y-10365356D02*
X17815356Y-10294644D01*
X17744644Y-10294644D01*
X17744644Y-10365356D01*
X17815356Y-10365356D01*
X17815356Y-10619356D02*
X17815356Y-10548644D01*
X17744644Y-10548644D01*
X17744644Y-10619356D01*
X17815356Y-10619356D01*
X17815356Y-10873356D02*
X17815356Y-10802644D01*
X17744644Y-10802644D01*
X17744644Y-10873356D01*
X17815356Y-10873356D01*
X17815356Y-11127356D02*
X17815356Y-11056644D01*
X17744644Y-11056644D01*
X17744644Y-11127356D01*
X17815356Y-11127356D01*
X17815356Y-11381356D02*
X17815356Y-11310644D01*
X17744644Y-11310644D01*
X17744644Y-11381356D01*
X17815356Y-11381356D01*
X17815356Y-11635356D02*
X17815356Y-11564644D01*
X17744644Y-11564644D01*
X17744644Y-11635356D01*
X17815356Y-11635356D01*
X17815356Y-11889356D02*
X17815356Y-11818644D01*
X17744644Y-11818644D01*
X17744644Y-11889356D01*
X17815356Y-11889356D01*
X18069356Y-10111356D02*
X18069356Y-10040644D01*
X17998644Y-10040644D01*
X17998644Y-10111356D01*
X18069356Y-10111356D01*
X18069356Y-10365356D02*
X18069356Y-10294644D01*
X17998644Y-10294644D01*
X17998644Y-10365356D01*
X18069356Y-10365356D01*
X18069356Y-10619356D02*
X18069356Y-10548644D01*
X17998644Y-10548644D01*
X17998644Y-10619356D01*
X18069356Y-10619356D01*
X18069356Y-10873356D02*
X18069356Y-10802644D01*
X17998644Y-10802644D01*
X17998644Y-10873356D01*
X18069356Y-10873356D01*
X18069356Y-11127356D02*
X18069356Y-11056644D01*
X17998644Y-11056644D01*
X17998644Y-11127356D01*
X18069356Y-11127356D01*
X18069356Y-11381356D02*
X18069356Y-11310644D01*
X17998644Y-11310644D01*
X17998644Y-11381356D01*
X18069356Y-11381356D01*
X18069356Y-11635356D02*
X18069356Y-11564644D01*
X17998644Y-11564644D01*
X17998644Y-11635356D01*
X18069356Y-11635356D01*
X18069356Y-11889356D02*
X18069356Y-11818644D01*
X17998644Y-11818644D01*
X17998644Y-11889356D01*
X18069356Y-11889356D01*
X18323356Y-10111356D02*
X18323356Y-10040644D01*
X18252644Y-10040644D01*
X18252644Y-10111356D01*
X18323356Y-10111356D01*
X18323356Y-10365356D02*
X18323356Y-10294644D01*
X18252644Y-10294644D01*
X18252644Y-10365356D01*
X18323356Y-10365356D01*
X18323356Y-10619356D02*
X18323356Y-10548644D01*
X18252644Y-10548644D01*
X18252644Y-10619356D01*
X18323356Y-10619356D01*
X18323356Y-10873356D02*
X18323356Y-10802644D01*
X18252644Y-10802644D01*
X18252644Y-10873356D01*
X18323356Y-10873356D01*
X18323356Y-11127356D02*
X18323356Y-11056644D01*
X18252644Y-11056644D01*
X18252644Y-11127356D01*
X18323356Y-11127356D01*
X18323356Y-11381356D02*
X18323356Y-11310644D01*
X18252644Y-11310644D01*
X18252644Y-11381356D01*
X18323356Y-11381356D01*
X18323356Y-11635356D02*
X18323356Y-11564644D01*
X18252644Y-11564644D01*
X18252644Y-11635356D01*
X18323356Y-11635356D01*
X18323356Y-11889356D02*
X18323356Y-11818644D01*
X18252644Y-11818644D01*
X18252644Y-11889356D01*
X18323356Y-11889356D01*
X18958356Y-10111356D02*
X18958356Y-10040644D01*
X18887644Y-10040644D01*
X18887644Y-10111356D01*
X18958356Y-10111356D01*
X18958356Y-10365356D02*
X18958356Y-10294644D01*
X18887644Y-10294644D01*
X18887644Y-10365356D01*
X18958356Y-10365356D01*
X18958356Y-10619356D02*
X18958356Y-10548644D01*
X18887644Y-10548644D01*
X18887644Y-10619356D01*
X18958356Y-10619356D01*
X18958356Y-10873356D02*
X18958356Y-10802644D01*
X18887644Y-10802644D01*
X18887644Y-10873356D01*
X18958356Y-10873356D01*
X18958356Y-11127356D02*
X18958356Y-11056644D01*
X18887644Y-11056644D01*
X18887644Y-11127356D01*
X18958356Y-11127356D01*
X18958356Y-11381356D02*
X18958356Y-11310644D01*
X18887644Y-11310644D01*
X18887644Y-11381356D01*
X18958356Y-11381356D01*
X18958356Y-11635356D02*
X18958356Y-11564644D01*
X18887644Y-11564644D01*
X18887644Y-11635356D01*
X18958356Y-11635356D01*
X18958356Y-11889356D02*
X18958356Y-11818644D01*
X18887644Y-11818644D01*
X18887644Y-11889356D01*
X18958356Y-11889356D01*
X19212356Y-10111356D02*
X19212356Y-10040644D01*
X19141644Y-10040644D01*
X19141644Y-10111356D01*
X19212356Y-10111356D01*
X19212356Y-10365356D02*
X19212356Y-10294644D01*
X19141644Y-10294644D01*
X19141644Y-10365356D01*
X19212356Y-10365356D01*
X19212356Y-10619356D02*
X19212356Y-10548644D01*
X19141644Y-10548644D01*
X19141644Y-10619356D01*
X19212356Y-10619356D01*
X19212356Y-10873356D02*
X19212356Y-10802644D01*
X19141644Y-10802644D01*
X19141644Y-10873356D01*
X19212356Y-10873356D01*
X19212356Y-11127356D02*
X19212356Y-11056644D01*
X19141644Y-11056644D01*
X19141644Y-11127356D01*
X19212356Y-11127356D01*
X19212356Y-11381356D02*
X19212356Y-11310644D01*
X19141644Y-11310644D01*
X19141644Y-11381356D01*
X19212356Y-11381356D01*
X19212356Y-11635356D02*
X19212356Y-11564644D01*
X19141644Y-11564644D01*
X19141644Y-11635356D01*
X19212356Y-11635356D01*
X19212356Y-11889356D02*
X19212356Y-11818644D01*
X19141644Y-11818644D01*
X19141644Y-11889356D01*
X19212356Y-11889356D01*
X19466356Y-10111356D02*
X19466356Y-10040644D01*
X19395644Y-10040644D01*
X19395644Y-10111356D01*
X19466356Y-10111356D01*
X19466356Y-10365356D02*
X19466356Y-10294644D01*
X19395644Y-10294644D01*
X19395644Y-10365356D01*
X19466356Y-10365356D01*
X19466356Y-10619356D02*
X19466356Y-10548644D01*
X19395644Y-10548644D01*
X19395644Y-10619356D01*
X19466356Y-10619356D01*
X19466356Y-10873356D02*
X19466356Y-10802644D01*
X19395644Y-10802644D01*
X19395644Y-10873356D01*
X19466356Y-10873356D01*
X19466356Y-11127356D02*
X19466356Y-11056644D01*
X19395644Y-11056644D01*
X19395644Y-11127356D01*
X19466356Y-11127356D01*
X19466356Y-11381356D02*
X19466356Y-11310644D01*
X19395644Y-11310644D01*
X19395644Y-11381356D01*
X19466356Y-11381356D01*
X19466356Y-11635356D02*
X19466356Y-11564644D01*
X19395644Y-11564644D01*
X19395644Y-11635356D01*
X19466356Y-11635356D01*
X19466356Y-11889356D02*
X19466356Y-11818644D01*
X19395644Y-11818644D01*
X19395644Y-11889356D01*
X19466356Y-11889356D01*
X20114556Y-10109856D02*
X20114556Y-10039144D01*
X20043844Y-10039144D01*
X20043844Y-10109856D01*
X20114556Y-10109856D01*
X20114556Y-10363856D02*
X20114556Y-10293144D01*
X20043844Y-10293144D01*
X20043844Y-10363856D01*
X20114556Y-10363856D01*
X20114556Y-10617856D02*
X20114556Y-10547144D01*
X20043844Y-10547144D01*
X20043844Y-10617856D01*
X20114556Y-10617856D01*
X20114556Y-10871856D02*
X20114556Y-10801144D01*
X20043844Y-10801144D01*
X20043844Y-10871856D01*
X20114556Y-10871856D01*
X20114556Y-11125856D02*
X20114556Y-11055144D01*
X20043844Y-11055144D01*
X20043844Y-11125856D01*
X20114556Y-11125856D01*
X20114556Y-11379856D02*
X20114556Y-11309144D01*
X20043844Y-11309144D01*
X20043844Y-11379856D01*
X20114556Y-11379856D01*
X20114556Y-11633856D02*
X20114556Y-11563144D01*
X20043844Y-11563144D01*
X20043844Y-11633856D01*
X20114556Y-11633856D01*
X20114556Y-11887856D02*
X20114556Y-11817144D01*
X20043844Y-11817144D01*
X20043844Y-11887856D01*
X20114556Y-11887856D01*
X20368556Y-10109856D02*
X20368556Y-10039144D01*
X20297844Y-10039144D01*
X20297844Y-10109856D01*
X20368556Y-10109856D01*
X20368556Y-10363856D02*
X20368556Y-10293144D01*
X20297844Y-10293144D01*
X20297844Y-10363856D01*
X20368556Y-10363856D01*
X20368556Y-10617856D02*
X20368556Y-10547144D01*
X20297844Y-10547144D01*
X20297844Y-10617856D01*
X20368556Y-10617856D01*
X20368556Y-10871856D02*
X20368556Y-10801144D01*
X20297844Y-10801144D01*
X20297844Y-10871856D01*
X20368556Y-10871856D01*
X20368556Y-11125856D02*
X20368556Y-11055144D01*
X20297844Y-11055144D01*
X20297844Y-11125856D01*
X20368556Y-11125856D01*
X20368556Y-11379856D02*
X20368556Y-11309144D01*
X20297844Y-11309144D01*
X20297844Y-11379856D01*
X20368556Y-11379856D01*
X20368556Y-11633856D02*
X20368556Y-11563144D01*
X20297844Y-11563144D01*
X20297844Y-11633856D01*
X20368556Y-11633856D01*
X20368556Y-11887856D02*
X20368556Y-11817144D01*
X20297844Y-11817144D01*
X20297844Y-11887856D01*
X20368556Y-11887856D01*
X20622556Y-10109856D02*
X20622556Y-10039144D01*
X20551844Y-10039144D01*
X20551844Y-10109856D01*
X20622556Y-10109856D01*
X20622556Y-10363856D02*
X20622556Y-10293144D01*
X20551844Y-10293144D01*
X20551844Y-10363856D01*
X20622556Y-10363856D01*
X20622556Y-10617856D02*
X20622556Y-10547144D01*
X20551844Y-10547144D01*
X20551844Y-10617856D01*
X20622556Y-10617856D01*
X20622556Y-10871856D02*
X20622556Y-10801144D01*
X20551844Y-10801144D01*
X20551844Y-10871856D01*
X20622556Y-10871856D01*
X20622556Y-11125856D02*
X20622556Y-11055144D01*
X20551844Y-11055144D01*
X20551844Y-11125856D01*
X20622556Y-11125856D01*
X20622556Y-11379856D02*
X20622556Y-11309144D01*
X20551844Y-11309144D01*
X20551844Y-11379856D01*
X20622556Y-11379856D01*
X20622556Y-11633856D02*
X20622556Y-11563144D01*
X20551844Y-11563144D01*
X20551844Y-11633856D01*
X20622556Y-11633856D01*
X20622556Y-11887856D02*
X20622556Y-11817144D01*
X20551844Y-11817144D01*
X20551844Y-11887856D01*
X20622556Y-11887856D01*
X21257056Y-10111356D02*
X21257056Y-10040644D01*
X21186344Y-10040644D01*
X21186344Y-10111356D01*
X21257056Y-10111356D01*
X21257056Y-10365356D02*
X21257056Y-10294644D01*
X21186344Y-10294644D01*
X21186344Y-10365356D01*
X21257056Y-10365356D01*
X21257056Y-10619356D02*
X21257056Y-10548644D01*
X21186344Y-10548644D01*
X21186344Y-10619356D01*
X21257056Y-10619356D01*
X21257056Y-10873356D02*
X21257056Y-10802644D01*
X21186344Y-10802644D01*
X21186344Y-10873356D01*
X21257056Y-10873356D01*
X21257056Y-11127356D02*
X21257056Y-11056644D01*
X21186344Y-11056644D01*
X21186344Y-11127356D01*
X21257056Y-11127356D01*
X21257056Y-11381356D02*
X21257056Y-11310644D01*
X21186344Y-11310644D01*
X21186344Y-11381356D01*
X21257056Y-11381356D01*
X21257056Y-11635356D02*
X21257056Y-11564644D01*
X21186344Y-11564644D01*
X21186344Y-11635356D01*
X21257056Y-11635356D01*
X21257056Y-11889356D02*
X21257056Y-11818644D01*
X21186344Y-11818644D01*
X21186344Y-11889356D01*
X21257056Y-11889356D01*
X21511056Y-10111356D02*
X21511056Y-10040644D01*
X21440344Y-10040644D01*
X21440344Y-10111356D01*
X21511056Y-10111356D01*
X21511056Y-10365356D02*
X21511056Y-10294644D01*
X21440344Y-10294644D01*
X21440344Y-10365356D01*
X21511056Y-10365356D01*
X21511056Y-10619356D02*
X21511056Y-10548644D01*
X21440344Y-10548644D01*
X21440344Y-10619356D01*
X21511056Y-10619356D01*
X21511056Y-10873356D02*
X21511056Y-10802644D01*
X21440344Y-10802644D01*
X21440344Y-10873356D01*
X21511056Y-10873356D01*
X21511056Y-11127356D02*
X21511056Y-11056644D01*
X21440344Y-11056644D01*
X21440344Y-11127356D01*
X21511056Y-11127356D01*
X21511056Y-11381356D02*
X21511056Y-11310644D01*
X21440344Y-11310644D01*
X21440344Y-11381356D01*
X21511056Y-11381356D01*
X21511056Y-11635356D02*
X21511056Y-11564644D01*
X21440344Y-11564644D01*
X21440344Y-11635356D01*
X21511056Y-11635356D01*
X21511056Y-11889356D02*
X21511056Y-11818644D01*
X21440344Y-11818644D01*
X21440344Y-11889356D01*
X21511056Y-11889356D01*
X21765056Y-10111356D02*
X21765056Y-10040644D01*
X21694344Y-10040644D01*
X21694344Y-10111356D01*
X21765056Y-10111356D01*
X21765056Y-10365356D02*
X21765056Y-10294644D01*
X21694344Y-10294644D01*
X21694344Y-10365356D01*
X21765056Y-10365356D01*
X21765056Y-10619356D02*
X21765056Y-10548644D01*
X21694344Y-10548644D01*
X21694344Y-10619356D01*
X21765056Y-10619356D01*
X21765056Y-10873356D02*
X21765056Y-10802644D01*
X21694344Y-10802644D01*
X21694344Y-10873356D01*
X21765056Y-10873356D01*
X21765056Y-11127356D02*
X21765056Y-11056644D01*
X21694344Y-11056644D01*
X21694344Y-11127356D01*
X21765056Y-11127356D01*
X21765056Y-11381356D02*
X21765056Y-11310644D01*
X21694344Y-11310644D01*
X21694344Y-11381356D01*
X21765056Y-11381356D01*
X21765056Y-11635356D02*
X21765056Y-11564644D01*
X21694344Y-11564644D01*
X21694344Y-11635356D01*
X21765056Y-11635356D01*
X21765056Y-11889356D02*
X21765056Y-11818644D01*
X21694344Y-11818644D01*
X21694344Y-11889356D01*
X21765056Y-11889356D01*
X22400556Y-10109856D02*
X22400556Y-10039144D01*
X22329844Y-10039144D01*
X22329844Y-10109856D01*
X22400556Y-10109856D01*
X22400556Y-10363856D02*
X22400556Y-10293144D01*
X22329844Y-10293144D01*
X22329844Y-10363856D01*
X22400556Y-10363856D01*
X22400556Y-10617856D02*
X22400556Y-10547144D01*
X22329844Y-10547144D01*
X22329844Y-10617856D01*
X22400556Y-10617856D01*
X22400556Y-10871856D02*
X22400556Y-10801144D01*
X22329844Y-10801144D01*
X22329844Y-10871856D01*
X22400556Y-10871856D01*
X22400556Y-11125856D02*
X22400556Y-11055144D01*
X22329844Y-11055144D01*
X22329844Y-11125856D01*
X22400556Y-11125856D01*
X22400556Y-11379856D02*
X22400556Y-11309144D01*
X22329844Y-11309144D01*
X22329844Y-11379856D01*
X22400556Y-11379856D01*
X22400556Y-11633856D02*
X22400556Y-11563144D01*
X22329844Y-11563144D01*
X22329844Y-11633856D01*
X22400556Y-11633856D01*
X22400556Y-11887856D02*
X22400556Y-11817144D01*
X22329844Y-11817144D01*
X22329844Y-11887856D01*
X22400556Y-11887856D01*
X22654556Y-10109856D02*
X22654556Y-10039144D01*
X22583844Y-10039144D01*
X22583844Y-10109856D01*
X22654556Y-10109856D01*
X22654556Y-10363856D02*
X22654556Y-10293144D01*
X22583844Y-10293144D01*
X22583844Y-10363856D01*
X22654556Y-10363856D01*
X22654556Y-10617856D02*
X22654556Y-10547144D01*
X22583844Y-10547144D01*
X22583844Y-10617856D01*
X22654556Y-10617856D01*
X22654556Y-10871856D02*
X22654556Y-10801144D01*
X22583844Y-10801144D01*
X22583844Y-10871856D01*
X22654556Y-10871856D01*
X22654556Y-11125856D02*
X22654556Y-11055144D01*
X22583844Y-11055144D01*
X22583844Y-11125856D01*
X22654556Y-11125856D01*
X22654556Y-11379856D02*
X22654556Y-11309144D01*
X22583844Y-11309144D01*
X22583844Y-11379856D01*
X22654556Y-11379856D01*
X22654556Y-11633856D02*
X22654556Y-11563144D01*
X22583844Y-11563144D01*
X22583844Y-11633856D01*
X22654556Y-11633856D01*
X22654556Y-11887856D02*
X22654556Y-11817144D01*
X22583844Y-11817144D01*
X22583844Y-11887856D01*
X22654556Y-11887856D01*
X22908556Y-10109856D02*
X22908556Y-10039144D01*
X22837844Y-10039144D01*
X22837844Y-10109856D01*
X22908556Y-10109856D01*
X22908556Y-10363856D02*
X22908556Y-10293144D01*
X22837844Y-10293144D01*
X22837844Y-10363856D01*
X22908556Y-10363856D01*
X22908556Y-10617856D02*
X22908556Y-10547144D01*
X22837844Y-10547144D01*
X22837844Y-10617856D01*
X22908556Y-10617856D01*
X22908556Y-10871856D02*
X22908556Y-10801144D01*
X22837844Y-10801144D01*
X22837844Y-10871856D01*
X22908556Y-10871856D01*
X22908556Y-11125856D02*
X22908556Y-11055144D01*
X22837844Y-11055144D01*
X22837844Y-11125856D01*
X22908556Y-11125856D01*
X22908556Y-11379856D02*
X22908556Y-11309144D01*
X22837844Y-11309144D01*
X22837844Y-11379856D01*
X22908556Y-11379856D01*
X22908556Y-11633856D02*
X22908556Y-11563144D01*
X22837844Y-11563144D01*
X22837844Y-11633856D01*
X22908556Y-11633856D01*
X22908556Y-11887856D02*
X22908556Y-11817144D01*
X22837844Y-11817144D01*
X22837844Y-11887856D01*
X22908556Y-11887856D01*
X23289056Y-2778556D02*
X23289056Y-2707844D01*
X23218344Y-2707844D01*
X23218344Y-2778556D01*
X23289056Y-2778556D01*
X23289056Y-3032556D02*
X23289056Y-2961844D01*
X23218344Y-2961844D01*
X23218344Y-3032556D01*
X23289056Y-3032556D01*
X23289056Y-3286556D02*
X23289056Y-3215844D01*
X23218344Y-3215844D01*
X23218344Y-3286556D01*
X23289056Y-3286556D01*
X23289056Y-3540556D02*
X23289056Y-3469844D01*
X23218344Y-3469844D01*
X23218344Y-3540556D01*
X23289056Y-3540556D01*
X23289056Y-3794556D02*
X23289056Y-3723844D01*
X23218344Y-3723844D01*
X23218344Y-3794556D01*
X23289056Y-3794556D01*
X23289056Y-4048556D02*
X23289056Y-3977844D01*
X23218344Y-3977844D01*
X23218344Y-4048556D01*
X23289056Y-4048556D01*
X23289056Y-4302556D02*
X23289056Y-4231844D01*
X23218344Y-4231844D01*
X23218344Y-4302556D01*
X23289056Y-4302556D01*
X23289056Y-4556556D02*
X23289056Y-4485844D01*
X23218344Y-4485844D01*
X23218344Y-4556556D01*
X23289056Y-4556556D01*
X23289056Y-4810556D02*
X23289056Y-4739844D01*
X23218344Y-4739844D01*
X23218344Y-4810556D01*
X23289056Y-4810556D01*
X23289056Y-5064556D02*
X23289056Y-4993844D01*
X23218344Y-4993844D01*
X23218344Y-5064556D01*
X23289056Y-5064556D01*
X23289056Y-5318556D02*
X23289056Y-5247844D01*
X23218344Y-5247844D01*
X23218344Y-5318556D01*
X23289056Y-5318556D01*
X23289056Y-5572556D02*
X23289056Y-5501844D01*
X23218344Y-5501844D01*
X23218344Y-5572556D01*
X23289056Y-5572556D01*
X23289056Y-5826556D02*
X23289056Y-5755844D01*
X23218344Y-5755844D01*
X23218344Y-5826556D01*
X23289056Y-5826556D01*
X23289056Y-6080556D02*
X23289056Y-6009844D01*
X23218344Y-6009844D01*
X23218344Y-6080556D01*
X23289056Y-6080556D01*
X23289056Y-6334556D02*
X23289056Y-6263844D01*
X23218344Y-6263844D01*
X23218344Y-6334556D01*
X23289056Y-6334556D01*
X23289056Y-6588556D02*
X23289056Y-6517844D01*
X23218344Y-6517844D01*
X23218344Y-6588556D01*
X23289056Y-6588556D01*
X23289056Y-6842556D02*
X23289056Y-6771844D01*
X23218344Y-6771844D01*
X23218344Y-6842556D01*
X23289056Y-6842556D01*
X23289056Y-7096556D02*
X23289056Y-7025844D01*
X23218344Y-7025844D01*
X23218344Y-7096556D01*
X23289056Y-7096556D01*
X23289056Y-7350556D02*
X23289056Y-7279844D01*
X23218344Y-7279844D01*
X23218344Y-7350556D01*
X23289056Y-7350556D01*
X23289056Y-7604556D02*
X23289056Y-7533844D01*
X23218344Y-7533844D01*
X23218344Y-7604556D01*
X23289056Y-7604556D01*
X23542556Y-10111356D02*
X23542556Y-10040644D01*
X23471844Y-10040644D01*
X23471844Y-10111356D01*
X23542556Y-10111356D01*
X23542556Y-10365356D02*
X23542556Y-10294644D01*
X23471844Y-10294644D01*
X23471844Y-10365356D01*
X23542556Y-10365356D01*
X23542556Y-10619356D02*
X23542556Y-10548644D01*
X23471844Y-10548644D01*
X23471844Y-10619356D01*
X23542556Y-10619356D01*
X23542556Y-10873356D02*
X23542556Y-10802644D01*
X23471844Y-10802644D01*
X23471844Y-10873356D01*
X23542556Y-10873356D01*
X23542556Y-11127356D02*
X23542556Y-11056644D01*
X23471844Y-11056644D01*
X23471844Y-11127356D01*
X23542556Y-11127356D01*
X23542556Y-11381356D02*
X23542556Y-11310644D01*
X23471844Y-11310644D01*
X23471844Y-11381356D01*
X23542556Y-11381356D01*
X23542556Y-11635356D02*
X23542556Y-11564644D01*
X23471844Y-11564644D01*
X23471844Y-11635356D01*
X23542556Y-11635356D01*
X23542556Y-11889356D02*
X23542556Y-11818644D01*
X23471844Y-11818644D01*
X23471844Y-11889356D01*
X23542556Y-11889356D01*
X23568456Y-3043756D02*
X23568456Y-2973044D01*
X23497744Y-2973044D01*
X23497744Y-3043756D01*
X23568456Y-3043756D01*
X23568456Y-3297756D02*
X23568456Y-3227044D01*
X23497744Y-3227044D01*
X23497744Y-3297756D01*
X23568456Y-3297756D01*
X23568456Y-3551756D02*
X23568456Y-3481044D01*
X23497744Y-3481044D01*
X23497744Y-3551756D01*
X23568456Y-3551756D01*
X23568456Y-3805756D02*
X23568456Y-3735044D01*
X23497744Y-3735044D01*
X23497744Y-3805756D01*
X23568456Y-3805756D01*
X23568456Y-4059756D02*
X23568456Y-3989044D01*
X23497744Y-3989044D01*
X23497744Y-4059756D01*
X23568456Y-4059756D01*
X23568456Y-4313756D02*
X23568456Y-4243044D01*
X23497744Y-4243044D01*
X23497744Y-4313756D01*
X23568456Y-4313756D01*
X23568456Y-4567756D02*
X23568456Y-4497044D01*
X23497744Y-4497044D01*
X23497744Y-4567756D01*
X23568456Y-4567756D01*
X23568456Y-4821756D02*
X23568456Y-4751044D01*
X23497744Y-4751044D01*
X23497744Y-4821756D01*
X23568456Y-4821756D01*
X23568456Y-5075756D02*
X23568456Y-5005044D01*
X23497744Y-5005044D01*
X23497744Y-5075756D01*
X23568456Y-5075756D01*
X23568456Y-5329756D02*
X23568456Y-5259044D01*
X23497744Y-5259044D01*
X23497744Y-5329756D01*
X23568456Y-5329756D01*
X23568456Y-5583756D02*
X23568456Y-5513044D01*
X23497744Y-5513044D01*
X23497744Y-5583756D01*
X23568456Y-5583756D01*
X23568456Y-5837756D02*
X23568456Y-5767044D01*
X23497744Y-5767044D01*
X23497744Y-5837756D01*
X23568456Y-5837756D01*
X23568456Y-6091756D02*
X23568456Y-6021044D01*
X23497744Y-6021044D01*
X23497744Y-6091756D01*
X23568456Y-6091756D01*
X23568456Y-6345756D02*
X23568456Y-6275044D01*
X23497744Y-6275044D01*
X23497744Y-6345756D01*
X23568456Y-6345756D01*
X23568456Y-6599756D02*
X23568456Y-6529044D01*
X23497744Y-6529044D01*
X23497744Y-6599756D01*
X23568456Y-6599756D01*
X23796556Y-10111356D02*
X23796556Y-10040644D01*
X23725844Y-10040644D01*
X23725844Y-10111356D01*
X23796556Y-10111356D01*
X23796556Y-10365356D02*
X23796556Y-10294644D01*
X23725844Y-10294644D01*
X23725844Y-10365356D01*
X23796556Y-10365356D01*
X23796556Y-10619356D02*
X23796556Y-10548644D01*
X23725844Y-10548644D01*
X23725844Y-10619356D01*
X23796556Y-10619356D01*
X23796556Y-10873356D02*
X23796556Y-10802644D01*
X23725844Y-10802644D01*
X23725844Y-10873356D01*
X23796556Y-10873356D01*
X23796556Y-11127356D02*
X23796556Y-11056644D01*
X23725844Y-11056644D01*
X23725844Y-11127356D01*
X23796556Y-11127356D01*
X23796556Y-11381356D02*
X23796556Y-11310644D01*
X23725844Y-11310644D01*
X23725844Y-11381356D01*
X23796556Y-11381356D01*
X23796556Y-11635356D02*
X23796556Y-11564644D01*
X23725844Y-11564644D01*
X23725844Y-11635356D01*
X23796556Y-11635356D01*
X23796556Y-11889356D02*
X23796556Y-11818644D01*
X23725844Y-11818644D01*
X23725844Y-11889356D01*
X23796556Y-11889356D01*
X24050556Y-10111356D02*
X24050556Y-10040644D01*
X23979844Y-10040644D01*
X23979844Y-10111356D01*
X24050556Y-10111356D01*
X24050556Y-10365356D02*
X24050556Y-10294644D01*
X23979844Y-10294644D01*
X23979844Y-10365356D01*
X24050556Y-10365356D01*
X24050556Y-10619356D02*
X24050556Y-10548644D01*
X23979844Y-10548644D01*
X23979844Y-10619356D01*
X24050556Y-10619356D01*
X24050556Y-10873356D02*
X24050556Y-10802644D01*
X23979844Y-10802644D01*
X23979844Y-10873356D01*
X24050556Y-10873356D01*
X24050556Y-11127356D02*
X24050556Y-11056644D01*
X23979844Y-11056644D01*
X23979844Y-11127356D01*
X24050556Y-11127356D01*
X24050556Y-11381356D02*
X24050556Y-11310644D01*
X23979844Y-11310644D01*
X23979844Y-11381356D01*
X24050556Y-11381356D01*
X24050556Y-11635356D02*
X24050556Y-11564644D01*
X23979844Y-11564644D01*
X23979844Y-11635356D01*
X24050556Y-11635356D01*
X24050556Y-11889356D02*
X24050556Y-11818644D01*
X23979844Y-11818644D01*
X23979844Y-11889356D01*
X24050556Y-11889356D01*
X24686056Y-10109856D02*
X24686056Y-10039144D01*
X24615344Y-10039144D01*
X24615344Y-10109856D01*
X24686056Y-10109856D01*
X24686056Y-10363856D02*
X24686056Y-10293144D01*
X24615344Y-10293144D01*
X24615344Y-10363856D01*
X24686056Y-10363856D01*
X24686056Y-10617856D02*
X24686056Y-10547144D01*
X24615344Y-10547144D01*
X24615344Y-10617856D01*
X24686056Y-10617856D01*
X24686056Y-10871856D02*
X24686056Y-10801144D01*
X24615344Y-10801144D01*
X24615344Y-10871856D01*
X24686056Y-10871856D01*
X24686056Y-11125856D02*
X24686056Y-11055144D01*
X24615344Y-11055144D01*
X24615344Y-11125856D01*
X24686056Y-11125856D01*
X24686056Y-11379856D02*
X24686056Y-11309144D01*
X24615344Y-11309144D01*
X24615344Y-11379856D01*
X24686056Y-11379856D01*
X24686056Y-11633856D02*
X24686056Y-11563144D01*
X24615344Y-11563144D01*
X24615344Y-11633856D01*
X24686056Y-11633856D01*
X24686056Y-11887856D02*
X24686056Y-11817144D01*
X24615344Y-11817144D01*
X24615344Y-11887856D01*
X24686056Y-11887856D01*
X24813056Y-2778556D02*
X24813056Y-2707844D01*
X24742344Y-2707844D01*
X24742344Y-2778556D01*
X24813056Y-2778556D01*
X24813056Y-3032556D02*
X24813056Y-2961844D01*
X24742344Y-2961844D01*
X24742344Y-3032556D01*
X24813056Y-3032556D01*
X24813056Y-3286556D02*
X24813056Y-3215844D01*
X24742344Y-3215844D01*
X24742344Y-3286556D01*
X24813056Y-3286556D01*
X24813056Y-3540556D02*
X24813056Y-3469844D01*
X24742344Y-3469844D01*
X24742344Y-3540556D01*
X24813056Y-3540556D01*
X24813056Y-3794556D02*
X24813056Y-3723844D01*
X24742344Y-3723844D01*
X24742344Y-3794556D01*
X24813056Y-3794556D01*
X24813056Y-4048556D02*
X24813056Y-3977844D01*
X24742344Y-3977844D01*
X24742344Y-4048556D01*
X24813056Y-4048556D01*
X24813056Y-4302556D02*
X24813056Y-4231844D01*
X24742344Y-4231844D01*
X24742344Y-4302556D01*
X24813056Y-4302556D01*
X24813056Y-4556556D02*
X24813056Y-4485844D01*
X24742344Y-4485844D01*
X24742344Y-4556556D01*
X24813056Y-4556556D01*
X24813056Y-4810556D02*
X24813056Y-4739844D01*
X24742344Y-4739844D01*
X24742344Y-4810556D01*
X24813056Y-4810556D01*
X24813056Y-5064556D02*
X24813056Y-4993844D01*
X24742344Y-4993844D01*
X24742344Y-5064556D01*
X24813056Y-5064556D01*
X24813056Y-5318556D02*
X24813056Y-5247844D01*
X24742344Y-5247844D01*
X24742344Y-5318556D01*
X24813056Y-5318556D01*
X24813056Y-5572556D02*
X24813056Y-5501844D01*
X24742344Y-5501844D01*
X24742344Y-5572556D01*
X24813056Y-5572556D01*
X24813056Y-5826556D02*
X24813056Y-5755844D01*
X24742344Y-5755844D01*
X24742344Y-5826556D01*
X24813056Y-5826556D01*
X24813056Y-6080556D02*
X24813056Y-6009844D01*
X24742344Y-6009844D01*
X24742344Y-6080556D01*
X24813056Y-6080556D01*
X24813056Y-6334556D02*
X24813056Y-6263844D01*
X24742344Y-6263844D01*
X24742344Y-6334556D01*
X24813056Y-6334556D01*
X24813056Y-6588556D02*
X24813056Y-6517844D01*
X24742344Y-6517844D01*
X24742344Y-6588556D01*
X24813056Y-6588556D01*
X24813056Y-6842556D02*
X24813056Y-6771844D01*
X24742344Y-6771844D01*
X24742344Y-6842556D01*
X24813056Y-6842556D01*
X24813056Y-7096556D02*
X24813056Y-7025844D01*
X24742344Y-7025844D01*
X24742344Y-7096556D01*
X24813056Y-7096556D01*
X24813056Y-7350556D02*
X24813056Y-7279844D01*
X24742344Y-7279844D01*
X24742344Y-7350556D01*
X24813056Y-7350556D01*
X24813056Y-7604556D02*
X24813056Y-7533844D01*
X24742344Y-7533844D01*
X24742344Y-7604556D01*
X24813056Y-7604556D01*
X24940056Y-10109856D02*
X24940056Y-10039144D01*
X24869344Y-10039144D01*
X24869344Y-10109856D01*
X24940056Y-10109856D01*
X24940056Y-10363856D02*
X24940056Y-10293144D01*
X24869344Y-10293144D01*
X24869344Y-10363856D01*
X24940056Y-10363856D01*
X24940056Y-10617856D02*
X24940056Y-10547144D01*
X24869344Y-10547144D01*
X24869344Y-10617856D01*
X24940056Y-10617856D01*
X24940056Y-10871856D02*
X24940056Y-10801144D01*
X24869344Y-10801144D01*
X24869344Y-10871856D01*
X24940056Y-10871856D01*
X24940056Y-11125856D02*
X24940056Y-11055144D01*
X24869344Y-11055144D01*
X24869344Y-11125856D01*
X24940056Y-11125856D01*
X24940056Y-11379856D02*
X24940056Y-11309144D01*
X24869344Y-11309144D01*
X24869344Y-11379856D01*
X24940056Y-11379856D01*
X24940056Y-11633856D02*
X24940056Y-11563144D01*
X24869344Y-11563144D01*
X24869344Y-11633856D01*
X24940056Y-11633856D01*
X24940056Y-11887856D02*
X24940056Y-11817144D01*
X24869344Y-11817144D01*
X24869344Y-11887856D01*
X24940056Y-11887856D01*
X25092456Y-3043756D02*
X25092456Y-2973044D01*
X25021744Y-2973044D01*
X25021744Y-3043756D01*
X25092456Y-3043756D01*
X25092456Y-3297756D02*
X25092456Y-3227044D01*
X25021744Y-3227044D01*
X25021744Y-3297756D01*
X25092456Y-3297756D01*
X25092456Y-3551756D02*
X25092456Y-3481044D01*
X25021744Y-3481044D01*
X25021744Y-3551756D01*
X25092456Y-3551756D01*
X25092456Y-3805756D02*
X25092456Y-3735044D01*
X25021744Y-3735044D01*
X25021744Y-3805756D01*
X25092456Y-3805756D01*
X25092456Y-4059756D02*
X25092456Y-3989044D01*
X25021744Y-3989044D01*
X25021744Y-4059756D01*
X25092456Y-4059756D01*
X25092456Y-4313756D02*
X25092456Y-4243044D01*
X25021744Y-4243044D01*
X25021744Y-4313756D01*
X25092456Y-4313756D01*
X25092456Y-4567756D02*
X25092456Y-4497044D01*
X25021744Y-4497044D01*
X25021744Y-4567756D01*
X25092456Y-4567756D01*
X25092456Y-4821756D02*
X25092456Y-4751044D01*
X25021744Y-4751044D01*
X25021744Y-4821756D01*
X25092456Y-4821756D01*
X25092456Y-5075756D02*
X25092456Y-5005044D01*
X25021744Y-5005044D01*
X25021744Y-5075756D01*
X25092456Y-5075756D01*
X25092456Y-5329756D02*
X25092456Y-5259044D01*
X25021744Y-5259044D01*
X25021744Y-5329756D01*
X25092456Y-5329756D01*
X25092456Y-5583756D02*
X25092456Y-5513044D01*
X25021744Y-5513044D01*
X25021744Y-5583756D01*
X25092456Y-5583756D01*
X25092456Y-5837756D02*
X25092456Y-5767044D01*
X25021744Y-5767044D01*
X25021744Y-5837756D01*
X25092456Y-5837756D01*
X25092456Y-6091756D02*
X25092456Y-6021044D01*
X25021744Y-6021044D01*
X25021744Y-6091756D01*
X25092456Y-6091756D01*
X25092456Y-6345756D02*
X25092456Y-6275044D01*
X25021744Y-6275044D01*
X25021744Y-6345756D01*
X25092456Y-6345756D01*
X25092456Y-6599756D02*
X25092456Y-6529044D01*
X25021744Y-6529044D01*
X25021744Y-6599756D01*
X25092456Y-6599756D01*
X25194056Y-10109856D02*
X25194056Y-10039144D01*
X25123344Y-10039144D01*
X25123344Y-10109856D01*
X25194056Y-10109856D01*
X25194056Y-10363856D02*
X25194056Y-10293144D01*
X25123344Y-10293144D01*
X25123344Y-10363856D01*
X25194056Y-10363856D01*
X25194056Y-10617856D02*
X25194056Y-10547144D01*
X25123344Y-10547144D01*
X25123344Y-10617856D01*
X25194056Y-10617856D01*
X25194056Y-10871856D02*
X25194056Y-10801144D01*
X25123344Y-10801144D01*
X25123344Y-10871856D01*
X25194056Y-10871856D01*
X25194056Y-11125856D02*
X25194056Y-11055144D01*
X25123344Y-11055144D01*
X25123344Y-11125856D01*
X25194056Y-11125856D01*
X25194056Y-11379856D02*
X25194056Y-11309144D01*
X25123344Y-11309144D01*
X25123344Y-11379856D01*
X25194056Y-11379856D01*
X25194056Y-11633856D02*
X25194056Y-11563144D01*
X25123344Y-11563144D01*
X25123344Y-11633856D01*
X25194056Y-11633856D01*
X25194056Y-11887856D02*
X25194056Y-11817144D01*
X25123344Y-11817144D01*
X25123344Y-11887856D01*
X25194056Y-11887856D01*
X25663956Y-5775756D02*
X25663956Y-5705044D01*
X25593244Y-5705044D01*
X25593244Y-5775756D01*
X25663956Y-5775756D01*
X25663956Y-6029756D02*
X25663956Y-5959044D01*
X25593244Y-5959044D01*
X25593244Y-6029756D01*
X25663956Y-6029756D01*
D16*
X17106900Y-3263900D02*
X17157700Y-3213100D01*
X17106900Y-3162300D01*
X17056100Y-3213100D01*
X17106900Y-3263900D01*
X17360900Y-3263900D02*
X17411700Y-3213100D01*
X17360900Y-3162300D01*
X17310100Y-3213100D01*
X17360900Y-3263900D01*
X17614900Y-3263900D02*
X17665700Y-3213100D01*
X17614900Y-3162300D01*
X17564100Y-3213100D01*
X17614900Y-3263900D01*
D17*
X18570800Y-3756300D02*
X18720800Y-3906300D01*
X18720800Y-3756300D02*
X18570800Y-3906300D01*
X18720800Y-3831300D02*
G75*
G03*
X18720800Y-3831300I-75000J0D01*
G01*
X18815800Y-2761300D02*
X18965800Y-2911300D01*
X18965800Y-2761300D02*
X18815800Y-2911300D01*
X18965800Y-2836300D02*
G75*
G03*
X18965800Y-2836300I-75000J0D01*
G01*
X18815800Y-3976300D02*
X18965800Y-4126300D01*
X18965800Y-3976300D02*
X18815800Y-4126300D01*
X18965800Y-4051300D02*
G75*
G03*
X18965800Y-4051300I-75000J0D01*
G01*
X19065800Y-2761300D02*
X19215800Y-2911300D01*
X19215800Y-2761300D02*
X19065800Y-2911300D01*
X19215800Y-2836300D02*
G75*
G03*
X19215800Y-2836300I-75000J0D01*
G01*
X19315800Y-3756300D02*
X19465800Y-3906300D01*
X19465800Y-3756300D02*
X19315800Y-3906300D01*
X19465800Y-3831300D02*
G75*
G03*
X19465800Y-3831300I-75000J0D01*
G01*
X19565800Y-2761300D02*
X19715800Y-2911300D01*
X19715800Y-2761300D02*
X19565800Y-2911300D01*
X19715800Y-2836300D02*
G75*
G03*
X19715800Y-2836300I-75000J0D01*
G01*
X19815800Y-2761300D02*
X19965800Y-2911300D01*
X19965800Y-2761300D02*
X19815800Y-2911300D01*
X19965800Y-2836300D02*
G75*
G03*
X19965800Y-2836300I-75000J0D01*
G01*
X19815800Y-3976300D02*
X19965800Y-4126300D01*
X19965800Y-3976300D02*
X19815800Y-4126300D01*
X19965800Y-4051300D02*
G75*
G03*
X19965800Y-4051300I-75000J0D01*
G01*
X20060800Y-3756300D02*
X20210800Y-3906300D01*
X20210800Y-3756300D02*
X20060800Y-3906300D01*
X20210800Y-3831300D02*
G75*
G03*
X20210800Y-3831300I-75000J0D01*
G01*
X20815800Y-3756300D02*
X20965800Y-3906300D01*
X20965800Y-3756300D02*
X20815800Y-3906300D01*
X20965800Y-3831300D02*
G75*
G03*
X20965800Y-3831300I-75000J0D01*
G01*
X21060800Y-2761300D02*
X21210800Y-2911300D01*
X21210800Y-2761300D02*
X21060800Y-2911300D01*
X21210800Y-2836300D02*
G75*
G03*
X21210800Y-2836300I-75000J0D01*
G01*
X21060800Y-3976300D02*
X21210800Y-4126300D01*
X21210800Y-3976300D02*
X21060800Y-4126300D01*
X21210800Y-4051300D02*
G75*
G03*
X21210800Y-4051300I-75000J0D01*
G01*
X21310800Y-2761300D02*
X21460800Y-2911300D01*
X21460800Y-2761300D02*
X21310800Y-2911300D01*
X21460800Y-2836300D02*
G75*
G03*
X21460800Y-2836300I-75000J0D01*
G01*
X21560800Y-3756300D02*
X21710800Y-3906300D01*
X21710800Y-3756300D02*
X21560800Y-3906300D01*
X21710800Y-3831300D02*
G75*
G03*
X21710800Y-3831300I-75000J0D01*
G01*
X21810800Y-2761300D02*
X21960800Y-2911300D01*
X21960800Y-2761300D02*
X21810800Y-2911300D01*
X21960800Y-2836300D02*
G75*
G03*
X21960800Y-2836300I-75000J0D01*
G01*
X22060800Y-2761300D02*
X22210800Y-2911300D01*
X22210800Y-2761300D02*
X22060800Y-2911300D01*
X22210800Y-2836300D02*
G75*
G03*
X22210800Y-2836300I-75000J0D01*
G01*
X22060800Y-3976300D02*
X22210800Y-4126300D01*
X22210800Y-3976300D02*
X22060800Y-4126300D01*
X22210800Y-4051300D02*
G75*
G03*
X22210800Y-4051300I-75000J0D01*
G01*
X22305800Y-3756300D02*
X22455800Y-3906300D01*
X22455800Y-3756300D02*
X22305800Y-3906300D01*
X22455800Y-3831300D02*
G75*
G03*
X22455800Y-3831300I-75000J0D01*
G01*
D18*
X8340000Y-2840000D02*
X8660000Y-3160000D01*
X8660000Y-2840000D02*
X8340000Y-3160000D01*
X8500000Y-2840000D02*
X8500000Y-3160000D01*
X8340000Y-3000000D02*
X8660000Y-3000000D01*
X8340000Y-11740000D02*
X8660000Y-12060000D01*
X8660000Y-11740000D02*
X8340000Y-12060000D01*
X8500000Y-11740000D02*
X8500000Y-12060000D01*
X8340000Y-11900000D02*
X8660000Y-11900000D01*
X25640000Y-2840000D02*
X25960000Y-3160000D01*
X25960000Y-2840000D02*
X25640000Y-3160000D01*
X25800000Y-2840000D02*
X25800000Y-3160000D01*
X25640000Y-3000000D02*
X25960000Y-3000000D01*
X25640000Y-11740000D02*
X25960000Y-12060000D01*
X25960000Y-11740000D02*
X25640000Y-12060000D01*
X25800000Y-11740000D02*
X25800000Y-12060000D01*
X25640000Y-11900000D02*
X25960000Y-11900000D01*
D11*
X8352619Y-12615476D02*
X8352619Y-12415476D01*
X8400238Y-12415476D01*
X8428810Y-12425000D01*
X8447857Y-12444048D01*
X8457381Y-12463095D01*
X8466905Y-12501190D01*
X8466905Y-12529762D01*
X8457381Y-12567857D01*
X8447857Y-12586905D01*
X8428810Y-12605952D01*
X8400238Y-12615476D01*
X8352619Y-12615476D01*
X8552619Y-12615476D02*
X8552619Y-12482143D01*
X8552619Y-12520238D02*
X8562143Y-12501190D01*
X8571667Y-12491667D01*
X8590714Y-12482143D01*
X8609762Y-12482143D01*
X8676429Y-12615476D02*
X8676429Y-12482143D01*
X8676429Y-12415476D02*
X8666905Y-12425000D01*
X8676429Y-12434524D01*
X8685952Y-12425000D01*
X8676429Y-12415476D01*
X8676429Y-12434524D01*
X8800238Y-12615476D02*
X8781190Y-12605952D01*
X8771667Y-12586905D01*
X8771667Y-12415476D01*
X8905000Y-12615476D02*
X8885952Y-12605952D01*
X8876429Y-12586905D01*
X8876429Y-12415476D01*
X9133571Y-12615476D02*
X9133571Y-12415476D01*
X9200238Y-12558333D01*
X9266905Y-12415476D01*
X9266905Y-12615476D01*
X9447857Y-12615476D02*
X9447857Y-12510714D01*
X9438333Y-12491667D01*
X9419286Y-12482143D01*
X9381190Y-12482143D01*
X9362143Y-12491667D01*
X9447857Y-12605952D02*
X9428810Y-12615476D01*
X9381190Y-12615476D01*
X9362143Y-12605952D01*
X9352619Y-12586905D01*
X9352619Y-12567857D01*
X9362143Y-12548809D01*
X9381190Y-12539286D01*
X9428810Y-12539286D01*
X9447857Y-12529762D01*
X9543095Y-12482143D02*
X9543095Y-12682143D01*
X9543095Y-12491667D02*
X9562143Y-12482143D01*
X9600238Y-12482143D01*
X9619286Y-12491667D01*
X9628810Y-12501190D01*
X9638333Y-12520238D01*
X9638333Y-12577381D01*
X9628810Y-12596428D01*
X9619286Y-12605952D01*
X9600238Y-12615476D01*
X9562143Y-12615476D01*
X9543095Y-12605952D01*
X9724048Y-12596428D02*
X9733571Y-12605952D01*
X9724048Y-12615476D01*
X9714524Y-12605952D01*
X9724048Y-12596428D01*
X9724048Y-12615476D01*
X9724048Y-12491667D02*
X9733571Y-12501190D01*
X9724048Y-12510714D01*
X9714524Y-12501190D01*
X9724048Y-12491667D01*
X9724048Y-12510714D01*
D12*
X8055000Y-12925000D02*
X8095000Y-12965000D01*
X8095000Y-12925000D02*
X8055000Y-12965000D01*
D11*
X8390714Y-12835476D02*
X8409762Y-12835476D01*
X8428810Y-12845000D01*
X8438333Y-12854524D01*
X8447857Y-12873571D01*
X8457381Y-12911667D01*
X8457381Y-12959286D01*
X8447857Y-12997381D01*
X8438333Y-13016428D01*
X8428810Y-13025952D01*
X8409762Y-13035476D01*
X8390714Y-13035476D01*
X8371667Y-13025952D01*
X8362143Y-13016428D01*
X8352619Y-12997381D01*
X8343095Y-12959286D01*
X8343095Y-12911667D01*
X8352619Y-12873571D01*
X8362143Y-12854524D01*
X8371667Y-12845000D01*
X8390714Y-12835476D01*
X8543095Y-13016428D02*
X8552619Y-13025952D01*
X8543095Y-13035476D01*
X8533571Y-13025952D01*
X8543095Y-13016428D01*
X8543095Y-13035476D01*
X8724048Y-12902143D02*
X8724048Y-13035476D01*
X8676429Y-12825952D02*
X8628810Y-12968809D01*
X8752619Y-12968809D01*
X8866905Y-12835476D02*
X8885952Y-12835476D01*
X8905000Y-12845000D01*
X8914524Y-12854524D01*
X8924048Y-12873571D01*
X8933571Y-12911667D01*
X8933571Y-12959286D01*
X8924048Y-12997381D01*
X8914524Y-13016428D01*
X8905000Y-13025952D01*
X8885952Y-13035476D01*
X8866905Y-13035476D01*
X8847857Y-13025952D01*
X8838333Y-13016428D01*
X8828810Y-12997381D01*
X8819286Y-12959286D01*
X8819286Y-12911667D01*
X8828810Y-12873571D01*
X8838333Y-12854524D01*
X8847857Y-12845000D01*
X8866905Y-12835476D01*
X9057381Y-12835476D02*
X9076429Y-12835476D01*
X9095476Y-12845000D01*
X9105000Y-12854524D01*
X9114524Y-12873571D01*
X9124048Y-12911667D01*
X9124048Y-12959286D01*
X9114524Y-12997381D01*
X9105000Y-13016428D01*
X9095476Y-13025952D01*
X9076429Y-13035476D01*
X9057381Y-13035476D01*
X9038333Y-13025952D01*
X9028810Y-13016428D01*
X9019286Y-12997381D01*
X9009762Y-12959286D01*
X9009762Y-12911667D01*
X9019286Y-12873571D01*
X9028810Y-12854524D01*
X9038333Y-12845000D01*
X9057381Y-12835476D01*
X9209762Y-13035476D02*
X9209762Y-12902143D01*
X9209762Y-12921190D02*
X9219286Y-12911667D01*
X9238333Y-12902143D01*
X9266905Y-12902143D01*
X9285952Y-12911667D01*
X9295476Y-12930714D01*
X9295476Y-13035476D01*
X9295476Y-12930714D02*
X9305000Y-12911667D01*
X9324048Y-12902143D01*
X9352619Y-12902143D01*
X9371667Y-12911667D01*
X9381190Y-12930714D01*
X9381190Y-13035476D01*
X9476429Y-13035476D02*
X9476429Y-12902143D01*
X9476429Y-12921190D02*
X9485952Y-12911667D01*
X9505000Y-12902143D01*
X9533571Y-12902143D01*
X9552619Y-12911667D01*
X9562143Y-12930714D01*
X9562143Y-13035476D01*
X9562143Y-12930714D02*
X9571667Y-12911667D01*
X9590714Y-12902143D01*
X9619286Y-12902143D01*
X9638333Y-12911667D01*
X9647857Y-12930714D01*
X9647857Y-13035476D01*
X10038333Y-12825952D02*
X9866905Y-13083095D01*
X10295476Y-12835476D02*
X10314524Y-12835476D01*
X10333571Y-12845000D01*
X10343095Y-12854524D01*
X10352619Y-12873571D01*
X10362143Y-12911667D01*
X10362143Y-12959286D01*
X10352619Y-12997381D01*
X10343095Y-13016428D01*
X10333571Y-13025952D01*
X10314524Y-13035476D01*
X10295476Y-13035476D01*
X10276429Y-13025952D01*
X10266905Y-13016428D01*
X10257381Y-12997381D01*
X10247857Y-12959286D01*
X10247857Y-12911667D01*
X10257381Y-12873571D01*
X10266905Y-12854524D01*
X10276429Y-12845000D01*
X10295476Y-12835476D01*
X10447857Y-13016428D02*
X10457381Y-13025952D01*
X10447857Y-13035476D01*
X10438333Y-13025952D01*
X10447857Y-13016428D01*
X10447857Y-13035476D01*
X10581190Y-12835476D02*
X10600238Y-12835476D01*
X10619286Y-12845000D01*
X10628810Y-12854524D01*
X10638333Y-12873571D01*
X10647857Y-12911667D01*
X10647857Y-12959286D01*
X10638333Y-12997381D01*
X10628810Y-13016428D01*
X10619286Y-13025952D01*
X10600238Y-13035476D01*
X10581190Y-13035476D01*
X10562143Y-13025952D01*
X10552619Y-13016428D01*
X10543095Y-12997381D01*
X10533571Y-12959286D01*
X10533571Y-12911667D01*
X10543095Y-12873571D01*
X10552619Y-12854524D01*
X10562143Y-12845000D01*
X10581190Y-12835476D01*
X10838333Y-13035476D02*
X10724048Y-13035476D01*
X10781190Y-13035476D02*
X10781190Y-12835476D01*
X10762143Y-12864048D01*
X10743095Y-12883095D01*
X10724048Y-12892619D01*
X11019286Y-12835476D02*
X10924048Y-12835476D01*
X10914524Y-12930714D01*
X10924048Y-12921190D01*
X10943095Y-12911667D01*
X10990714Y-12911667D01*
X11009762Y-12921190D01*
X11019286Y-12930714D01*
X11028810Y-12949762D01*
X11028810Y-12997381D01*
X11019286Y-13016428D01*
X11009762Y-13025952D01*
X10990714Y-13035476D01*
X10943095Y-13035476D01*
X10924048Y-13025952D01*
X10914524Y-13016428D01*
X11095476Y-12835476D02*
X11228809Y-12835476D01*
X11143095Y-13035476D01*
X11295476Y-12835476D02*
X11295476Y-12873571D01*
X11371667Y-12835476D02*
X11371667Y-12873571D01*
X11666905Y-13111667D02*
X11657381Y-13102143D01*
X11638333Y-13073571D01*
X11628809Y-13054524D01*
X11619286Y-13025952D01*
X11609762Y-12978333D01*
X11609762Y-12940238D01*
X11619286Y-12892619D01*
X11628809Y-12864048D01*
X11638333Y-12845000D01*
X11657381Y-12816428D01*
X11666905Y-12806905D01*
X11847857Y-13035476D02*
X11733571Y-13035476D01*
X11790714Y-13035476D02*
X11790714Y-12835476D01*
X11771667Y-12864048D01*
X11752619Y-12883095D01*
X11733571Y-12892619D01*
X11924048Y-12854524D02*
X11933571Y-12845000D01*
X11952619Y-12835476D01*
X12000238Y-12835476D01*
X12019286Y-12845000D01*
X12028809Y-12854524D01*
X12038333Y-12873571D01*
X12038333Y-12892619D01*
X12028809Y-12921190D01*
X11914524Y-13035476D01*
X12038333Y-13035476D01*
X12209762Y-12835476D02*
X12171667Y-12835476D01*
X12152619Y-12845000D01*
X12143095Y-12854524D01*
X12124048Y-12883095D01*
X12114524Y-12921190D01*
X12114524Y-12997381D01*
X12124048Y-13016428D01*
X12133571Y-13025952D01*
X12152619Y-13035476D01*
X12190714Y-13035476D01*
X12209762Y-13025952D01*
X12219286Y-13016428D01*
X12228809Y-12997381D01*
X12228809Y-12949762D01*
X12219286Y-12930714D01*
X12209762Y-12921190D01*
X12190714Y-12911667D01*
X12152619Y-12911667D01*
X12133571Y-12921190D01*
X12124048Y-12930714D01*
X12114524Y-12949762D01*
X12466905Y-13035476D02*
X12466905Y-12835476D01*
X12552619Y-13035476D02*
X12552619Y-12930714D01*
X12543095Y-12911667D01*
X12524048Y-12902143D01*
X12495476Y-12902143D01*
X12476428Y-12911667D01*
X12466905Y-12921190D01*
X12676428Y-13035476D02*
X12657381Y-13025952D01*
X12647857Y-13016428D01*
X12638333Y-12997381D01*
X12638333Y-12940238D01*
X12647857Y-12921190D01*
X12657381Y-12911667D01*
X12676428Y-12902143D01*
X12705000Y-12902143D01*
X12724048Y-12911667D01*
X12733571Y-12921190D01*
X12743095Y-12940238D01*
X12743095Y-12997381D01*
X12733571Y-13016428D01*
X12724048Y-13025952D01*
X12705000Y-13035476D01*
X12676428Y-13035476D01*
X12857381Y-13035476D02*
X12838333Y-13025952D01*
X12828809Y-13006905D01*
X12828809Y-12835476D01*
X13009762Y-13025952D02*
X12990714Y-13035476D01*
X12952619Y-13035476D01*
X12933571Y-13025952D01*
X12924048Y-13006905D01*
X12924048Y-12930714D01*
X12933571Y-12911667D01*
X12952619Y-12902143D01*
X12990714Y-12902143D01*
X13009762Y-12911667D01*
X13019286Y-12930714D01*
X13019286Y-12949762D01*
X12924048Y-12968809D01*
X13095476Y-13025952D02*
X13114524Y-13035476D01*
X13152619Y-13035476D01*
X13171667Y-13025952D01*
X13181190Y-13006905D01*
X13181190Y-12997381D01*
X13171667Y-12978333D01*
X13152619Y-12968809D01*
X13124048Y-12968809D01*
X13105000Y-12959286D01*
X13095476Y-12940238D01*
X13095476Y-12930714D01*
X13105000Y-12911667D01*
X13124048Y-12902143D01*
X13152619Y-12902143D01*
X13171667Y-12911667D01*
X13247857Y-13111667D02*
X13257381Y-13102143D01*
X13276428Y-13073571D01*
X13285952Y-13054524D01*
X13295476Y-13025952D01*
X13305000Y-12978333D01*
X13305000Y-12940238D01*
X13295476Y-12892619D01*
X13285952Y-12864048D01*
X13276428Y-12845000D01*
X13257381Y-12816428D01*
X13247857Y-12806905D01*
D13*
X8095000Y-13209000D02*
G75*
G03*
X8095000Y-13209000I-45000J0D01*
G01*
D11*
X8390714Y-13099476D02*
X8409762Y-13099476D01*
X8428810Y-13109000D01*
X8438333Y-13118524D01*
X8447857Y-13137571D01*
X8457381Y-13175667D01*
X8457381Y-13223286D01*
X8447857Y-13261381D01*
X8438333Y-13280428D01*
X8428810Y-13289952D01*
X8409762Y-13299476D01*
X8390714Y-13299476D01*
X8371667Y-13289952D01*
X8362143Y-13280428D01*
X8352619Y-13261381D01*
X8343095Y-13223286D01*
X8343095Y-13175667D01*
X8352619Y-13137571D01*
X8362143Y-13118524D01*
X8371667Y-13109000D01*
X8390714Y-13099476D01*
X8543095Y-13280428D02*
X8552619Y-13289952D01*
X8543095Y-13299476D01*
X8533571Y-13289952D01*
X8543095Y-13280428D01*
X8543095Y-13299476D01*
X8647857Y-13299476D02*
X8685952Y-13299476D01*
X8705000Y-13289952D01*
X8714524Y-13280428D01*
X8733571Y-13251857D01*
X8743095Y-13213762D01*
X8743095Y-13137571D01*
X8733571Y-13118524D01*
X8724048Y-13109000D01*
X8705000Y-13099476D01*
X8666905Y-13099476D01*
X8647857Y-13109000D01*
X8638333Y-13118524D01*
X8628810Y-13137571D01*
X8628810Y-13185190D01*
X8638333Y-13204238D01*
X8647857Y-13213762D01*
X8666905Y-13223286D01*
X8705000Y-13223286D01*
X8724048Y-13213762D01*
X8733571Y-13204238D01*
X8743095Y-13185190D01*
X8866905Y-13099476D02*
X8885952Y-13099476D01*
X8905000Y-13109000D01*
X8914524Y-13118524D01*
X8924048Y-13137571D01*
X8933571Y-13175667D01*
X8933571Y-13223286D01*
X8924048Y-13261381D01*
X8914524Y-13280428D01*
X8905000Y-13289952D01*
X8885952Y-13299476D01*
X8866905Y-13299476D01*
X8847857Y-13289952D01*
X8838333Y-13280428D01*
X8828810Y-13261381D01*
X8819286Y-13223286D01*
X8819286Y-13175667D01*
X8828810Y-13137571D01*
X8838333Y-13118524D01*
X8847857Y-13109000D01*
X8866905Y-13099476D01*
X9057381Y-13099476D02*
X9076429Y-13099476D01*
X9095476Y-13109000D01*
X9105000Y-13118524D01*
X9114524Y-13137571D01*
X9124048Y-13175667D01*
X9124048Y-13223286D01*
X9114524Y-13261381D01*
X9105000Y-13280428D01*
X9095476Y-13289952D01*
X9076429Y-13299476D01*
X9057381Y-13299476D01*
X9038333Y-13289952D01*
X9028810Y-13280428D01*
X9019286Y-13261381D01*
X9009762Y-13223286D01*
X9009762Y-13175667D01*
X9019286Y-13137571D01*
X9028810Y-13118524D01*
X9038333Y-13109000D01*
X9057381Y-13099476D01*
X9209762Y-13299476D02*
X9209762Y-13166143D01*
X9209762Y-13185190D02*
X9219286Y-13175667D01*
X9238333Y-13166143D01*
X9266905Y-13166143D01*
X9285952Y-13175667D01*
X9295476Y-13194714D01*
X9295476Y-13299476D01*
X9295476Y-13194714D02*
X9305000Y-13175667D01*
X9324048Y-13166143D01*
X9352619Y-13166143D01*
X9371667Y-13175667D01*
X9381190Y-13194714D01*
X9381190Y-13299476D01*
X9476429Y-13299476D02*
X9476429Y-13166143D01*
X9476429Y-13185190D02*
X9485952Y-13175667D01*
X9505000Y-13166143D01*
X9533571Y-13166143D01*
X9552619Y-13175667D01*
X9562143Y-13194714D01*
X9562143Y-13299476D01*
X9562143Y-13194714D02*
X9571667Y-13175667D01*
X9590714Y-13166143D01*
X9619286Y-13166143D01*
X9638333Y-13175667D01*
X9647857Y-13194714D01*
X9647857Y-13299476D01*
X10038333Y-13089952D02*
X9866905Y-13347095D01*
X10295476Y-13099476D02*
X10314524Y-13099476D01*
X10333571Y-13109000D01*
X10343095Y-13118524D01*
X10352619Y-13137571D01*
X10362143Y-13175667D01*
X10362143Y-13223286D01*
X10352619Y-13261381D01*
X10343095Y-13280428D01*
X10333571Y-13289952D01*
X10314524Y-13299476D01*
X10295476Y-13299476D01*
X10276429Y-13289952D01*
X10266905Y-13280428D01*
X10257381Y-13261381D01*
X10247857Y-13223286D01*
X10247857Y-13175667D01*
X10257381Y-13137571D01*
X10266905Y-13118524D01*
X10276429Y-13109000D01*
X10295476Y-13099476D01*
X10447857Y-13280428D02*
X10457381Y-13289952D01*
X10447857Y-13299476D01*
X10438333Y-13289952D01*
X10447857Y-13280428D01*
X10447857Y-13299476D01*
X10581190Y-13099476D02*
X10600238Y-13099476D01*
X10619286Y-13109000D01*
X10628810Y-13118524D01*
X10638333Y-13137571D01*
X10647857Y-13175667D01*
X10647857Y-13223286D01*
X10638333Y-13261381D01*
X10628810Y-13280428D01*
X10619286Y-13289952D01*
X10600238Y-13299476D01*
X10581190Y-13299476D01*
X10562143Y-13289952D01*
X10552619Y-13280428D01*
X10543095Y-13261381D01*
X10533571Y-13223286D01*
X10533571Y-13175667D01*
X10543095Y-13137571D01*
X10552619Y-13118524D01*
X10562143Y-13109000D01*
X10581190Y-13099476D01*
X10714524Y-13099476D02*
X10838333Y-13099476D01*
X10771667Y-13175667D01*
X10800238Y-13175667D01*
X10819286Y-13185190D01*
X10828810Y-13194714D01*
X10838333Y-13213762D01*
X10838333Y-13261381D01*
X10828810Y-13280428D01*
X10819286Y-13289952D01*
X10800238Y-13299476D01*
X10743095Y-13299476D01*
X10724048Y-13289952D01*
X10714524Y-13280428D01*
X11019286Y-13099476D02*
X10924048Y-13099476D01*
X10914524Y-13194714D01*
X10924048Y-13185190D01*
X10943095Y-13175667D01*
X10990714Y-13175667D01*
X11009762Y-13185190D01*
X11019286Y-13194714D01*
X11028810Y-13213762D01*
X11028810Y-13261381D01*
X11019286Y-13280428D01*
X11009762Y-13289952D01*
X10990714Y-13299476D01*
X10943095Y-13299476D01*
X10924048Y-13289952D01*
X10914524Y-13280428D01*
X11200238Y-13166143D02*
X11200238Y-13299476D01*
X11152619Y-13089952D02*
X11105000Y-13232809D01*
X11228809Y-13232809D01*
X11295476Y-13099476D02*
X11295476Y-13137571D01*
X11371667Y-13099476D02*
X11371667Y-13137571D01*
X11666905Y-13375667D02*
X11657381Y-13366143D01*
X11638333Y-13337571D01*
X11628809Y-13318524D01*
X11619286Y-13289952D01*
X11609762Y-13242333D01*
X11609762Y-13204238D01*
X11619286Y-13156619D01*
X11628809Y-13128048D01*
X11638333Y-13109000D01*
X11657381Y-13080428D01*
X11666905Y-13070905D01*
X11828809Y-13166143D02*
X11828809Y-13299476D01*
X11781190Y-13089952D02*
X11733571Y-13232809D01*
X11857381Y-13232809D01*
X12085952Y-13299476D02*
X12085952Y-13099476D01*
X12171667Y-13299476D02*
X12171667Y-13194714D01*
X12162143Y-13175667D01*
X12143095Y-13166143D01*
X12114524Y-13166143D01*
X12095476Y-13175667D01*
X12085952Y-13185190D01*
X12295476Y-13299476D02*
X12276428Y-13289952D01*
X12266905Y-13280428D01*
X12257381Y-13261381D01*
X12257381Y-13204238D01*
X12266905Y-13185190D01*
X12276428Y-13175667D01*
X12295476Y-13166143D01*
X12324048Y-13166143D01*
X12343095Y-13175667D01*
X12352619Y-13185190D01*
X12362143Y-13204238D01*
X12362143Y-13261381D01*
X12352619Y-13280428D01*
X12343095Y-13289952D01*
X12324048Y-13299476D01*
X12295476Y-13299476D01*
X12476428Y-13299476D02*
X12457381Y-13289952D01*
X12447857Y-13270905D01*
X12447857Y-13099476D01*
X12628809Y-13289952D02*
X12609762Y-13299476D01*
X12571667Y-13299476D01*
X12552619Y-13289952D01*
X12543095Y-13270905D01*
X12543095Y-13194714D01*
X12552619Y-13175667D01*
X12571667Y-13166143D01*
X12609762Y-13166143D01*
X12628809Y-13175667D01*
X12638333Y-13194714D01*
X12638333Y-13213762D01*
X12543095Y-13232809D01*
X12714524Y-13289952D02*
X12733571Y-13299476D01*
X12771667Y-13299476D01*
X12790714Y-13289952D01*
X12800238Y-13270905D01*
X12800238Y-13261381D01*
X12790714Y-13242333D01*
X12771667Y-13232809D01*
X12743095Y-13232809D01*
X12724048Y-13223286D01*
X12714524Y-13204238D01*
X12714524Y-13194714D01*
X12724048Y-13175667D01*
X12743095Y-13166143D01*
X12771667Y-13166143D01*
X12790714Y-13175667D01*
X12866905Y-13375667D02*
X12876428Y-13366143D01*
X12895476Y-13337571D01*
X12905000Y-13318524D01*
X12914524Y-13289952D01*
X12924048Y-13242333D01*
X12924048Y-13204238D01*
X12914524Y-13156619D01*
X12905000Y-13128048D01*
X12895476Y-13109000D01*
X12876428Y-13080428D01*
X12866905Y-13070905D01*
D14*
X8047500Y-13425500D02*
X8047500Y-13520500D01*
X8000000Y-13473000D02*
X8095000Y-13473000D01*
D11*
X8390714Y-13363476D02*
X8409762Y-13363476D01*
X8428810Y-13373000D01*
X8438333Y-13382524D01*
X8447857Y-13401571D01*
X8457381Y-13439667D01*
X8457381Y-13487286D01*
X8447857Y-13525381D01*
X8438333Y-13544428D01*
X8428810Y-13553952D01*
X8409762Y-13563476D01*
X8390714Y-13563476D01*
X8371667Y-13553952D01*
X8362143Y-13544428D01*
X8352619Y-13525381D01*
X8343095Y-13487286D01*
X8343095Y-13439667D01*
X8352619Y-13401571D01*
X8362143Y-13382524D01*
X8371667Y-13373000D01*
X8390714Y-13363476D01*
X8543095Y-13544428D02*
X8552619Y-13553952D01*
X8543095Y-13563476D01*
X8533571Y-13553952D01*
X8543095Y-13544428D01*
X8543095Y-13563476D01*
X8647857Y-13563476D02*
X8685952Y-13563476D01*
X8705000Y-13553952D01*
X8714524Y-13544428D01*
X8733571Y-13515857D01*
X8743095Y-13477762D01*
X8743095Y-13401571D01*
X8733571Y-13382524D01*
X8724048Y-13373000D01*
X8705000Y-13363476D01*
X8666905Y-13363476D01*
X8647857Y-13373000D01*
X8638333Y-13382524D01*
X8628810Y-13401571D01*
X8628810Y-13449190D01*
X8638333Y-13468238D01*
X8647857Y-13477762D01*
X8666905Y-13487286D01*
X8705000Y-13487286D01*
X8724048Y-13477762D01*
X8733571Y-13468238D01*
X8743095Y-13449190D01*
X8924048Y-13363476D02*
X8828810Y-13363476D01*
X8819286Y-13458714D01*
X8828810Y-13449190D01*
X8847857Y-13439667D01*
X8895476Y-13439667D01*
X8914524Y-13449190D01*
X8924048Y-13458714D01*
X8933571Y-13477762D01*
X8933571Y-13525381D01*
X8924048Y-13544428D01*
X8914524Y-13553952D01*
X8895476Y-13563476D01*
X8847857Y-13563476D01*
X8828810Y-13553952D01*
X8819286Y-13544428D01*
X9057381Y-13363476D02*
X9076429Y-13363476D01*
X9095476Y-13373000D01*
X9105000Y-13382524D01*
X9114524Y-13401571D01*
X9124048Y-13439667D01*
X9124048Y-13487286D01*
X9114524Y-13525381D01*
X9105000Y-13544428D01*
X9095476Y-13553952D01*
X9076429Y-13563476D01*
X9057381Y-13563476D01*
X9038333Y-13553952D01*
X9028810Y-13544428D01*
X9019286Y-13525381D01*
X9009762Y-13487286D01*
X9009762Y-13439667D01*
X9019286Y-13401571D01*
X9028810Y-13382524D01*
X9038333Y-13373000D01*
X9057381Y-13363476D01*
X9209762Y-13563476D02*
X9209762Y-13430143D01*
X9209762Y-13449190D02*
X9219286Y-13439667D01*
X9238333Y-13430143D01*
X9266905Y-13430143D01*
X9285952Y-13439667D01*
X9295476Y-13458714D01*
X9295476Y-13563476D01*
X9295476Y-13458714D02*
X9305000Y-13439667D01*
X9324048Y-13430143D01*
X9352619Y-13430143D01*
X9371667Y-13439667D01*
X9381190Y-13458714D01*
X9381190Y-13563476D01*
X9476429Y-13563476D02*
X9476429Y-13430143D01*
X9476429Y-13449190D02*
X9485952Y-13439667D01*
X9505000Y-13430143D01*
X9533571Y-13430143D01*
X9552619Y-13439667D01*
X9562143Y-13458714D01*
X9562143Y-13563476D01*
X9562143Y-13458714D02*
X9571667Y-13439667D01*
X9590714Y-13430143D01*
X9619286Y-13430143D01*
X9638333Y-13439667D01*
X9647857Y-13458714D01*
X9647857Y-13563476D01*
X10038333Y-13353952D02*
X9866905Y-13611095D01*
X10295476Y-13363476D02*
X10314524Y-13363476D01*
X10333571Y-13373000D01*
X10343095Y-13382524D01*
X10352619Y-13401571D01*
X10362143Y-13439667D01*
X10362143Y-13487286D01*
X10352619Y-13525381D01*
X10343095Y-13544428D01*
X10333571Y-13553952D01*
X10314524Y-13563476D01*
X10295476Y-13563476D01*
X10276429Y-13553952D01*
X10266905Y-13544428D01*
X10257381Y-13525381D01*
X10247857Y-13487286D01*
X10247857Y-13439667D01*
X10257381Y-13401571D01*
X10266905Y-13382524D01*
X10276429Y-13373000D01*
X10295476Y-13363476D01*
X10447857Y-13544428D02*
X10457381Y-13553952D01*
X10447857Y-13563476D01*
X10438333Y-13553952D01*
X10447857Y-13544428D01*
X10447857Y-13563476D01*
X10581190Y-13363476D02*
X10600238Y-13363476D01*
X10619286Y-13373000D01*
X10628810Y-13382524D01*
X10638333Y-13401571D01*
X10647857Y-13439667D01*
X10647857Y-13487286D01*
X10638333Y-13525381D01*
X10628810Y-13544428D01*
X10619286Y-13553952D01*
X10600238Y-13563476D01*
X10581190Y-13563476D01*
X10562143Y-13553952D01*
X10552619Y-13544428D01*
X10543095Y-13525381D01*
X10533571Y-13487286D01*
X10533571Y-13439667D01*
X10543095Y-13401571D01*
X10552619Y-13382524D01*
X10562143Y-13373000D01*
X10581190Y-13363476D01*
X10714524Y-13363476D02*
X10838333Y-13363476D01*
X10771667Y-13439667D01*
X10800238Y-13439667D01*
X10819286Y-13449190D01*
X10828810Y-13458714D01*
X10838333Y-13477762D01*
X10838333Y-13525381D01*
X10828810Y-13544428D01*
X10819286Y-13553952D01*
X10800238Y-13563476D01*
X10743095Y-13563476D01*
X10724048Y-13553952D01*
X10714524Y-13544428D01*
X10905000Y-13363476D02*
X11038333Y-13363476D01*
X10952619Y-13563476D01*
X11200238Y-13430143D02*
X11200238Y-13563476D01*
X11152619Y-13353952D02*
X11105000Y-13496809D01*
X11228809Y-13496809D01*
X11295476Y-13363476D02*
X11295476Y-13401571D01*
X11371667Y-13363476D02*
X11371667Y-13401571D01*
X11666905Y-13639667D02*
X11657381Y-13630143D01*
X11638333Y-13601571D01*
X11628809Y-13582524D01*
X11619286Y-13553952D01*
X11609762Y-13506333D01*
X11609762Y-13468238D01*
X11619286Y-13420619D01*
X11628809Y-13392048D01*
X11638333Y-13373000D01*
X11657381Y-13344428D01*
X11666905Y-13334905D01*
X11847857Y-13563476D02*
X11733571Y-13563476D01*
X11790714Y-13563476D02*
X11790714Y-13363476D01*
X11771667Y-13392048D01*
X11752619Y-13411095D01*
X11733571Y-13420619D01*
X12019286Y-13363476D02*
X11981190Y-13363476D01*
X11962143Y-13373000D01*
X11952619Y-13382524D01*
X11933571Y-13411095D01*
X11924048Y-13449190D01*
X11924048Y-13525381D01*
X11933571Y-13544428D01*
X11943095Y-13553952D01*
X11962143Y-13563476D01*
X12000238Y-13563476D01*
X12019286Y-13553952D01*
X12028809Y-13544428D01*
X12038333Y-13525381D01*
X12038333Y-13477762D01*
X12028809Y-13458714D01*
X12019286Y-13449190D01*
X12000238Y-13439667D01*
X11962143Y-13439667D01*
X11943095Y-13449190D01*
X11933571Y-13458714D01*
X11924048Y-13477762D01*
X12276428Y-13563476D02*
X12276428Y-13363476D01*
X12362143Y-13563476D02*
X12362143Y-13458714D01*
X12352619Y-13439667D01*
X12333571Y-13430143D01*
X12305000Y-13430143D01*
X12285952Y-13439667D01*
X12276428Y-13449190D01*
X12485952Y-13563476D02*
X12466905Y-13553952D01*
X12457381Y-13544428D01*
X12447857Y-13525381D01*
X12447857Y-13468238D01*
X12457381Y-13449190D01*
X12466905Y-13439667D01*
X12485952Y-13430143D01*
X12514524Y-13430143D01*
X12533571Y-13439667D01*
X12543095Y-13449190D01*
X12552619Y-13468238D01*
X12552619Y-13525381D01*
X12543095Y-13544428D01*
X12533571Y-13553952D01*
X12514524Y-13563476D01*
X12485952Y-13563476D01*
X12666905Y-13563476D02*
X12647857Y-13553952D01*
X12638333Y-13534905D01*
X12638333Y-13363476D01*
X12819286Y-13553952D02*
X12800238Y-13563476D01*
X12762143Y-13563476D01*
X12743095Y-13553952D01*
X12733571Y-13534905D01*
X12733571Y-13458714D01*
X12743095Y-13439667D01*
X12762143Y-13430143D01*
X12800238Y-13430143D01*
X12819286Y-13439667D01*
X12828809Y-13458714D01*
X12828809Y-13477762D01*
X12733571Y-13496809D01*
X12905000Y-13553952D02*
X12924048Y-13563476D01*
X12962143Y-13563476D01*
X12981190Y-13553952D01*
X12990714Y-13534905D01*
X12990714Y-13525381D01*
X12981190Y-13506333D01*
X12962143Y-13496809D01*
X12933571Y-13496809D01*
X12914524Y-13487286D01*
X12905000Y-13468238D01*
X12905000Y-13458714D01*
X12914524Y-13439667D01*
X12933571Y-13430143D01*
X12962143Y-13430143D01*
X12981190Y-13439667D01*
X13057381Y-13639667D02*
X13066905Y-13630143D01*
X13085952Y-13601571D01*
X13095476Y-13582524D01*
X13105000Y-13553952D01*
X13114524Y-13506333D01*
X13114524Y-13468238D01*
X13105000Y-13420619D01*
X13095476Y-13392048D01*
X13085952Y-13373000D01*
X13066905Y-13344428D01*
X13057381Y-13334905D01*
D15*
X8080356Y-13772356D02*
X8080356Y-13701644D01*
X8009644Y-13701644D01*
X8009644Y-13772356D01*
X8080356Y-13772356D01*
D11*
X8457381Y-13827476D02*
X8343095Y-13827476D01*
X8400238Y-13827476D02*
X8400238Y-13627476D01*
X8381190Y-13656048D01*
X8362143Y-13675095D01*
X8343095Y-13684619D01*
X8543095Y-13808428D02*
X8552619Y-13817952D01*
X8543095Y-13827476D01*
X8533571Y-13817952D01*
X8543095Y-13808428D01*
X8543095Y-13827476D01*
X8676429Y-13627476D02*
X8695476Y-13627476D01*
X8714524Y-13637000D01*
X8724048Y-13646524D01*
X8733571Y-13665571D01*
X8743095Y-13703667D01*
X8743095Y-13751286D01*
X8733571Y-13789381D01*
X8724048Y-13808428D01*
X8714524Y-13817952D01*
X8695476Y-13827476D01*
X8676429Y-13827476D01*
X8657381Y-13817952D01*
X8647857Y-13808428D01*
X8638333Y-13789381D01*
X8628810Y-13751286D01*
X8628810Y-13703667D01*
X8638333Y-13665571D01*
X8647857Y-13646524D01*
X8657381Y-13637000D01*
X8676429Y-13627476D01*
X8866905Y-13627476D02*
X8885952Y-13627476D01*
X8905000Y-13637000D01*
X8914524Y-13646524D01*
X8924048Y-13665571D01*
X8933571Y-13703667D01*
X8933571Y-13751286D01*
X8924048Y-13789381D01*
X8914524Y-13808428D01*
X8905000Y-13817952D01*
X8885952Y-13827476D01*
X8866905Y-13827476D01*
X8847857Y-13817952D01*
X8838333Y-13808428D01*
X8828810Y-13789381D01*
X8819286Y-13751286D01*
X8819286Y-13703667D01*
X8828810Y-13665571D01*
X8838333Y-13646524D01*
X8847857Y-13637000D01*
X8866905Y-13627476D01*
X9057381Y-13627476D02*
X9076429Y-13627476D01*
X9095476Y-13637000D01*
X9105000Y-13646524D01*
X9114524Y-13665571D01*
X9124048Y-13703667D01*
X9124048Y-13751286D01*
X9114524Y-13789381D01*
X9105000Y-13808428D01*
X9095476Y-13817952D01*
X9076429Y-13827476D01*
X9057381Y-13827476D01*
X9038333Y-13817952D01*
X9028810Y-13808428D01*
X9019286Y-13789381D01*
X9009762Y-13751286D01*
X9009762Y-13703667D01*
X9019286Y-13665571D01*
X9028810Y-13646524D01*
X9038333Y-13637000D01*
X9057381Y-13627476D01*
X9209762Y-13827476D02*
X9209762Y-13694143D01*
X9209762Y-13713190D02*
X9219286Y-13703667D01*
X9238333Y-13694143D01*
X9266905Y-13694143D01*
X9285952Y-13703667D01*
X9295476Y-13722714D01*
X9295476Y-13827476D01*
X9295476Y-13722714D02*
X9305000Y-13703667D01*
X9324048Y-13694143D01*
X9352619Y-13694143D01*
X9371667Y-13703667D01*
X9381190Y-13722714D01*
X9381190Y-13827476D01*
X9476429Y-13827476D02*
X9476429Y-13694143D01*
X9476429Y-13713190D02*
X9485952Y-13703667D01*
X9505000Y-13694143D01*
X9533571Y-13694143D01*
X9552619Y-13703667D01*
X9562143Y-13722714D01*
X9562143Y-13827476D01*
X9562143Y-13722714D02*
X9571667Y-13703667D01*
X9590714Y-13694143D01*
X9619286Y-13694143D01*
X9638333Y-13703667D01*
X9647857Y-13722714D01*
X9647857Y-13827476D01*
X10038333Y-13617952D02*
X9866905Y-13875095D01*
X10295476Y-13627476D02*
X10314524Y-13627476D01*
X10333571Y-13637000D01*
X10343095Y-13646524D01*
X10352619Y-13665571D01*
X10362143Y-13703667D01*
X10362143Y-13751286D01*
X10352619Y-13789381D01*
X10343095Y-13808428D01*
X10333571Y-13817952D01*
X10314524Y-13827476D01*
X10295476Y-13827476D01*
X10276429Y-13817952D01*
X10266905Y-13808428D01*
X10257381Y-13789381D01*
X10247857Y-13751286D01*
X10247857Y-13703667D01*
X10257381Y-13665571D01*
X10266905Y-13646524D01*
X10276429Y-13637000D01*
X10295476Y-13627476D01*
X10447857Y-13808428D02*
X10457381Y-13817952D01*
X10447857Y-13827476D01*
X10438333Y-13817952D01*
X10447857Y-13808428D01*
X10447857Y-13827476D01*
X10581190Y-13627476D02*
X10600238Y-13627476D01*
X10619286Y-13637000D01*
X10628810Y-13646524D01*
X10638333Y-13665571D01*
X10647857Y-13703667D01*
X10647857Y-13751286D01*
X10638333Y-13789381D01*
X10628810Y-13808428D01*
X10619286Y-13817952D01*
X10600238Y-13827476D01*
X10581190Y-13827476D01*
X10562143Y-13817952D01*
X10552619Y-13808428D01*
X10543095Y-13789381D01*
X10533571Y-13751286D01*
X10533571Y-13703667D01*
X10543095Y-13665571D01*
X10552619Y-13646524D01*
X10562143Y-13637000D01*
X10581190Y-13627476D01*
X10714524Y-13627476D02*
X10838333Y-13627476D01*
X10771667Y-13703667D01*
X10800238Y-13703667D01*
X10819286Y-13713190D01*
X10828810Y-13722714D01*
X10838333Y-13741762D01*
X10838333Y-13789381D01*
X10828810Y-13808428D01*
X10819286Y-13817952D01*
X10800238Y-13827476D01*
X10743095Y-13827476D01*
X10724048Y-13817952D01*
X10714524Y-13808428D01*
X10933571Y-13827476D02*
X10971667Y-13827476D01*
X10990714Y-13817952D01*
X11000238Y-13808428D01*
X11019286Y-13779857D01*
X11028810Y-13741762D01*
X11028810Y-13665571D01*
X11019286Y-13646524D01*
X11009762Y-13637000D01*
X10990714Y-13627476D01*
X10952619Y-13627476D01*
X10933571Y-13637000D01*
X10924048Y-13646524D01*
X10914524Y-13665571D01*
X10914524Y-13713190D01*
X10924048Y-13732238D01*
X10933571Y-13741762D01*
X10952619Y-13751286D01*
X10990714Y-13751286D01*
X11009762Y-13741762D01*
X11019286Y-13732238D01*
X11028810Y-13713190D01*
X11200238Y-13694143D02*
X11200238Y-13827476D01*
X11152619Y-13617952D02*
X11105000Y-13760809D01*
X11228809Y-13760809D01*
X11295476Y-13627476D02*
X11295476Y-13665571D01*
X11371667Y-13627476D02*
X11371667Y-13665571D01*
X11666905Y-13903667D02*
X11657381Y-13894143D01*
X11638333Y-13865571D01*
X11628809Y-13846524D01*
X11619286Y-13817952D01*
X11609762Y-13770333D01*
X11609762Y-13732238D01*
X11619286Y-13684619D01*
X11628809Y-13656048D01*
X11638333Y-13637000D01*
X11657381Y-13608428D01*
X11666905Y-13598905D01*
X11828809Y-13627476D02*
X11790714Y-13627476D01*
X11771667Y-13637000D01*
X11762143Y-13646524D01*
X11743095Y-13675095D01*
X11733571Y-13713190D01*
X11733571Y-13789381D01*
X11743095Y-13808428D01*
X11752619Y-13817952D01*
X11771667Y-13827476D01*
X11809762Y-13827476D01*
X11828809Y-13817952D01*
X11838333Y-13808428D01*
X11847857Y-13789381D01*
X11847857Y-13741762D01*
X11838333Y-13722714D01*
X11828809Y-13713190D01*
X11809762Y-13703667D01*
X11771667Y-13703667D01*
X11752619Y-13713190D01*
X11743095Y-13722714D01*
X11733571Y-13741762D01*
X12019286Y-13694143D02*
X12019286Y-13827476D01*
X11971667Y-13617952D02*
X11924048Y-13760809D01*
X12047857Y-13760809D01*
X12152619Y-13713190D02*
X12133571Y-13703667D01*
X12124048Y-13694143D01*
X12114524Y-13675095D01*
X12114524Y-13665571D01*
X12124048Y-13646524D01*
X12133571Y-13637000D01*
X12152619Y-13627476D01*
X12190714Y-13627476D01*
X12209762Y-13637000D01*
X12219286Y-13646524D01*
X12228809Y-13665571D01*
X12228809Y-13675095D01*
X12219286Y-13694143D01*
X12209762Y-13703667D01*
X12190714Y-13713190D01*
X12152619Y-13713190D01*
X12133571Y-13722714D01*
X12124048Y-13732238D01*
X12114524Y-13751286D01*
X12114524Y-13789381D01*
X12124048Y-13808428D01*
X12133571Y-13817952D01*
X12152619Y-13827476D01*
X12190714Y-13827476D01*
X12209762Y-13817952D01*
X12219286Y-13808428D01*
X12228809Y-13789381D01*
X12228809Y-13751286D01*
X12219286Y-13732238D01*
X12209762Y-13722714D01*
X12190714Y-13713190D01*
X12466905Y-13827476D02*
X12466905Y-13627476D01*
X12552619Y-13827476D02*
X12552619Y-13722714D01*
X12543095Y-13703667D01*
X12524048Y-13694143D01*
X12495476Y-13694143D01*
X12476428Y-13703667D01*
X12466905Y-13713190D01*
X12676428Y-13827476D02*
X12657381Y-13817952D01*
X12647857Y-13808428D01*
X12638333Y-13789381D01*
X12638333Y-13732238D01*
X12647857Y-13713190D01*
X12657381Y-13703667D01*
X12676428Y-13694143D01*
X12705000Y-13694143D01*
X12724048Y-13703667D01*
X12733571Y-13713190D01*
X12743095Y-13732238D01*
X12743095Y-13789381D01*
X12733571Y-13808428D01*
X12724048Y-13817952D01*
X12705000Y-13827476D01*
X12676428Y-13827476D01*
X12857381Y-13827476D02*
X12838333Y-13817952D01*
X12828809Y-13798905D01*
X12828809Y-13627476D01*
X13009762Y-13817952D02*
X12990714Y-13827476D01*
X12952619Y-13827476D01*
X12933571Y-13817952D01*
X12924048Y-13798905D01*
X12924048Y-13722714D01*
X12933571Y-13703667D01*
X12952619Y-13694143D01*
X12990714Y-13694143D01*
X13009762Y-13703667D01*
X13019286Y-13722714D01*
X13019286Y-13741762D01*
X12924048Y-13760809D01*
X13095476Y-13817952D02*
X13114524Y-13827476D01*
X13152619Y-13827476D01*
X13171667Y-13817952D01*
X13181190Y-13798905D01*
X13181190Y-13789381D01*
X13171667Y-13770333D01*
X13152619Y-13760809D01*
X13124048Y-13760809D01*
X13105000Y-13751286D01*
X13095476Y-13732238D01*
X13095476Y-13722714D01*
X13105000Y-13703667D01*
X13124048Y-13694143D01*
X13152619Y-13694143D01*
X13171667Y-13703667D01*
X13247857Y-13903667D02*
X13257381Y-13894143D01*
X13276428Y-13865571D01*
X13285952Y-13846524D01*
X13295476Y-13817952D01*
X13305000Y-13770333D01*
X13305000Y-13732238D01*
X13295476Y-13684619D01*
X13285952Y-13656048D01*
X13276428Y-13637000D01*
X13257381Y-13608428D01*
X13247857Y-13598905D01*
D16*
X8044200Y-14051800D02*
X8095000Y-14001000D01*
X8044200Y-13950200D01*
X7993400Y-14001000D01*
X8044200Y-14051800D01*
D11*
X8457381Y-14091476D02*
X8343095Y-14091476D01*
X8400238Y-14091476D02*
X8400238Y-13891476D01*
X8381190Y-13920048D01*
X8362143Y-13939095D01*
X8343095Y-13948619D01*
X8543095Y-14072428D02*
X8552619Y-14081952D01*
X8543095Y-14091476D01*
X8533571Y-14081952D01*
X8543095Y-14072428D01*
X8543095Y-14091476D01*
X8676429Y-13891476D02*
X8695476Y-13891476D01*
X8714524Y-13901000D01*
X8724048Y-13910524D01*
X8733571Y-13929571D01*
X8743095Y-13967667D01*
X8743095Y-14015286D01*
X8733571Y-14053381D01*
X8724048Y-14072428D01*
X8714524Y-14081952D01*
X8695476Y-14091476D01*
X8676429Y-14091476D01*
X8657381Y-14081952D01*
X8647857Y-14072428D01*
X8638333Y-14053381D01*
X8628810Y-14015286D01*
X8628810Y-13967667D01*
X8638333Y-13929571D01*
X8647857Y-13910524D01*
X8657381Y-13901000D01*
X8676429Y-13891476D01*
X8933571Y-14091476D02*
X8819286Y-14091476D01*
X8876429Y-14091476D02*
X8876429Y-13891476D01*
X8857381Y-13920048D01*
X8838333Y-13939095D01*
X8819286Y-13948619D01*
X9105000Y-13891476D02*
X9066905Y-13891476D01*
X9047857Y-13901000D01*
X9038333Y-13910524D01*
X9019286Y-13939095D01*
X9009762Y-13977190D01*
X9009762Y-14053381D01*
X9019286Y-14072428D01*
X9028810Y-14081952D01*
X9047857Y-14091476D01*
X9085952Y-14091476D01*
X9105000Y-14081952D01*
X9114524Y-14072428D01*
X9124048Y-14053381D01*
X9124048Y-14005762D01*
X9114524Y-13986714D01*
X9105000Y-13977190D01*
X9085952Y-13967667D01*
X9047857Y-13967667D01*
X9028810Y-13977190D01*
X9019286Y-13986714D01*
X9009762Y-14005762D01*
X9209762Y-14091476D02*
X9209762Y-13958143D01*
X9209762Y-13977190D02*
X9219286Y-13967667D01*
X9238333Y-13958143D01*
X9266905Y-13958143D01*
X9285952Y-13967667D01*
X9295476Y-13986714D01*
X9295476Y-14091476D01*
X9295476Y-13986714D02*
X9305000Y-13967667D01*
X9324048Y-13958143D01*
X9352619Y-13958143D01*
X9371667Y-13967667D01*
X9381190Y-13986714D01*
X9381190Y-14091476D01*
X9476429Y-14091476D02*
X9476429Y-13958143D01*
X9476429Y-13977190D02*
X9485952Y-13967667D01*
X9505000Y-13958143D01*
X9533571Y-13958143D01*
X9552619Y-13967667D01*
X9562143Y-13986714D01*
X9562143Y-14091476D01*
X9562143Y-13986714D02*
X9571667Y-13967667D01*
X9590714Y-13958143D01*
X9619286Y-13958143D01*
X9638333Y-13967667D01*
X9647857Y-13986714D01*
X9647857Y-14091476D01*
X10038333Y-13881952D02*
X9866905Y-14139095D01*
X10295476Y-13891476D02*
X10314524Y-13891476D01*
X10333571Y-13901000D01*
X10343095Y-13910524D01*
X10352619Y-13929571D01*
X10362143Y-13967667D01*
X10362143Y-14015286D01*
X10352619Y-14053381D01*
X10343095Y-14072428D01*
X10333571Y-14081952D01*
X10314524Y-14091476D01*
X10295476Y-14091476D01*
X10276429Y-14081952D01*
X10266905Y-14072428D01*
X10257381Y-14053381D01*
X10247857Y-14015286D01*
X10247857Y-13967667D01*
X10257381Y-13929571D01*
X10266905Y-13910524D01*
X10276429Y-13901000D01*
X10295476Y-13891476D01*
X10447857Y-14072428D02*
X10457381Y-14081952D01*
X10447857Y-14091476D01*
X10438333Y-14081952D01*
X10447857Y-14072428D01*
X10447857Y-14091476D01*
X10581190Y-13891476D02*
X10600238Y-13891476D01*
X10619286Y-13901000D01*
X10628810Y-13910524D01*
X10638333Y-13929571D01*
X10647857Y-13967667D01*
X10647857Y-14015286D01*
X10638333Y-14053381D01*
X10628810Y-14072428D01*
X10619286Y-14081952D01*
X10600238Y-14091476D01*
X10581190Y-14091476D01*
X10562143Y-14081952D01*
X10552619Y-14072428D01*
X10543095Y-14053381D01*
X10533571Y-14015286D01*
X10533571Y-13967667D01*
X10543095Y-13929571D01*
X10552619Y-13910524D01*
X10562143Y-13901000D01*
X10581190Y-13891476D01*
X10819286Y-13958143D02*
X10819286Y-14091476D01*
X10771667Y-13881952D02*
X10724048Y-14024809D01*
X10847857Y-14024809D01*
X10962143Y-13891476D02*
X10981190Y-13891476D01*
X11000238Y-13901000D01*
X11009762Y-13910524D01*
X11019286Y-13929571D01*
X11028810Y-13967667D01*
X11028810Y-14015286D01*
X11019286Y-14053381D01*
X11009762Y-14072428D01*
X11000238Y-14081952D01*
X10981190Y-14091476D01*
X10962143Y-14091476D01*
X10943095Y-14081952D01*
X10933571Y-14072428D01*
X10924048Y-14053381D01*
X10914524Y-14015286D01*
X10914524Y-13967667D01*
X10924048Y-13929571D01*
X10933571Y-13910524D01*
X10943095Y-13901000D01*
X10962143Y-13891476D01*
X11152619Y-13891476D02*
X11171667Y-13891476D01*
X11190714Y-13901000D01*
X11200238Y-13910524D01*
X11209762Y-13929571D01*
X11219286Y-13967667D01*
X11219286Y-14015286D01*
X11209762Y-14053381D01*
X11200238Y-14072428D01*
X11190714Y-14081952D01*
X11171667Y-14091476D01*
X11152619Y-14091476D01*
X11133571Y-14081952D01*
X11124048Y-14072428D01*
X11114524Y-14053381D01*
X11105000Y-14015286D01*
X11105000Y-13967667D01*
X11114524Y-13929571D01*
X11124048Y-13910524D01*
X11133571Y-13901000D01*
X11152619Y-13891476D01*
X11295476Y-13891476D02*
X11295476Y-13929571D01*
X11371667Y-13891476D02*
X11371667Y-13929571D01*
X11666905Y-14167667D02*
X11657381Y-14158143D01*
X11638333Y-14129571D01*
X11628809Y-14110524D01*
X11619286Y-14081952D01*
X11609762Y-14034333D01*
X11609762Y-13996238D01*
X11619286Y-13948619D01*
X11628809Y-13920048D01*
X11638333Y-13901000D01*
X11657381Y-13872428D01*
X11666905Y-13862905D01*
X11724048Y-13891476D02*
X11847857Y-13891476D01*
X11781190Y-13967667D01*
X11809762Y-13967667D01*
X11828809Y-13977190D01*
X11838333Y-13986714D01*
X11847857Y-14005762D01*
X11847857Y-14053381D01*
X11838333Y-14072428D01*
X11828809Y-14081952D01*
X11809762Y-14091476D01*
X11752619Y-14091476D01*
X11733571Y-14081952D01*
X11724048Y-14072428D01*
X12085952Y-14091476D02*
X12085952Y-13891476D01*
X12171667Y-14091476D02*
X12171667Y-13986714D01*
X12162143Y-13967667D01*
X12143095Y-13958143D01*
X12114524Y-13958143D01*
X12095476Y-13967667D01*
X12085952Y-13977190D01*
X12295476Y-14091476D02*
X12276428Y-14081952D01*
X12266905Y-14072428D01*
X12257381Y-14053381D01*
X12257381Y-13996238D01*
X12266905Y-13977190D01*
X12276428Y-13967667D01*
X12295476Y-13958143D01*
X12324048Y-13958143D01*
X12343095Y-13967667D01*
X12352619Y-13977190D01*
X12362143Y-13996238D01*
X12362143Y-14053381D01*
X12352619Y-14072428D01*
X12343095Y-14081952D01*
X12324048Y-14091476D01*
X12295476Y-14091476D01*
X12476428Y-14091476D02*
X12457381Y-14081952D01*
X12447857Y-14062905D01*
X12447857Y-13891476D01*
X12628809Y-14081952D02*
X12609762Y-14091476D01*
X12571667Y-14091476D01*
X12552619Y-14081952D01*
X12543095Y-14062905D01*
X12543095Y-13986714D01*
X12552619Y-13967667D01*
X12571667Y-13958143D01*
X12609762Y-13958143D01*
X12628809Y-13967667D01*
X12638333Y-13986714D01*
X12638333Y-14005762D01*
X12543095Y-14024809D01*
X12714524Y-14081952D02*
X12733571Y-14091476D01*
X12771667Y-14091476D01*
X12790714Y-14081952D01*
X12800238Y-14062905D01*
X12800238Y-14053381D01*
X12790714Y-14034333D01*
X12771667Y-14024809D01*
X12743095Y-14024809D01*
X12724048Y-14015286D01*
X12714524Y-13996238D01*
X12714524Y-13986714D01*
X12724048Y-13967667D01*
X12743095Y-13958143D01*
X12771667Y-13958143D01*
X12790714Y-13967667D01*
X12866905Y-14167667D02*
X12876428Y-14158143D01*
X12895476Y-14129571D01*
X12905000Y-14110524D01*
X12914524Y-14081952D01*
X12924048Y-14034333D01*
X12924048Y-13996238D01*
X12914524Y-13948619D01*
X12905000Y-13920048D01*
X12895476Y-13901000D01*
X12876428Y-13872428D01*
X12866905Y-13862905D01*
D17*
X7945000Y-14190000D02*
X8095000Y-14340000D01*
X8095000Y-14190000D02*
X7945000Y-14340000D01*
X8095000Y-14265000D02*
G75*
G03*
X8095000Y-14265000I-75000J0D01*
G01*
D11*
X8457381Y-14355476D02*
X8343095Y-14355476D01*
X8400238Y-14355476D02*
X8400238Y-14155476D01*
X8381190Y-14184048D01*
X8362143Y-14203095D01*
X8343095Y-14212619D01*
X8543095Y-14336428D02*
X8552619Y-14345952D01*
X8543095Y-14355476D01*
X8533571Y-14345952D01*
X8543095Y-14336428D01*
X8543095Y-14355476D01*
X8733571Y-14155476D02*
X8638333Y-14155476D01*
X8628810Y-14250714D01*
X8638333Y-14241190D01*
X8657381Y-14231667D01*
X8705000Y-14231667D01*
X8724048Y-14241190D01*
X8733571Y-14250714D01*
X8743095Y-14269762D01*
X8743095Y-14317381D01*
X8733571Y-14336428D01*
X8724048Y-14345952D01*
X8705000Y-14355476D01*
X8657381Y-14355476D01*
X8638333Y-14345952D01*
X8628810Y-14336428D01*
X8866905Y-14155476D02*
X8885952Y-14155476D01*
X8905000Y-14165000D01*
X8914524Y-14174524D01*
X8924048Y-14193571D01*
X8933571Y-14231667D01*
X8933571Y-14279286D01*
X8924048Y-14317381D01*
X8914524Y-14336428D01*
X8905000Y-14345952D01*
X8885952Y-14355476D01*
X8866905Y-14355476D01*
X8847857Y-14345952D01*
X8838333Y-14336428D01*
X8828810Y-14317381D01*
X8819286Y-14279286D01*
X8819286Y-14231667D01*
X8828810Y-14193571D01*
X8838333Y-14174524D01*
X8847857Y-14165000D01*
X8866905Y-14155476D01*
X9057381Y-14155476D02*
X9076429Y-14155476D01*
X9095476Y-14165000D01*
X9105000Y-14174524D01*
X9114524Y-14193571D01*
X9124048Y-14231667D01*
X9124048Y-14279286D01*
X9114524Y-14317381D01*
X9105000Y-14336428D01*
X9095476Y-14345952D01*
X9076429Y-14355476D01*
X9057381Y-14355476D01*
X9038333Y-14345952D01*
X9028810Y-14336428D01*
X9019286Y-14317381D01*
X9009762Y-14279286D01*
X9009762Y-14231667D01*
X9019286Y-14193571D01*
X9028810Y-14174524D01*
X9038333Y-14165000D01*
X9057381Y-14155476D01*
X9209762Y-14355476D02*
X9209762Y-14222143D01*
X9209762Y-14241190D02*
X9219286Y-14231667D01*
X9238333Y-14222143D01*
X9266905Y-14222143D01*
X9285952Y-14231667D01*
X9295476Y-14250714D01*
X9295476Y-14355476D01*
X9295476Y-14250714D02*
X9305000Y-14231667D01*
X9324048Y-14222143D01*
X9352619Y-14222143D01*
X9371667Y-14231667D01*
X9381190Y-14250714D01*
X9381190Y-14355476D01*
X9476429Y-14355476D02*
X9476429Y-14222143D01*
X9476429Y-14241190D02*
X9485952Y-14231667D01*
X9505000Y-14222143D01*
X9533571Y-14222143D01*
X9552619Y-14231667D01*
X9562143Y-14250714D01*
X9562143Y-14355476D01*
X9562143Y-14250714D02*
X9571667Y-14231667D01*
X9590714Y-14222143D01*
X9619286Y-14222143D01*
X9638333Y-14231667D01*
X9647857Y-14250714D01*
X9647857Y-14355476D01*
X10038333Y-14145952D02*
X9866905Y-14403095D01*
X10295476Y-14155476D02*
X10314524Y-14155476D01*
X10333571Y-14165000D01*
X10343095Y-14174524D01*
X10352619Y-14193571D01*
X10362143Y-14231667D01*
X10362143Y-14279286D01*
X10352619Y-14317381D01*
X10343095Y-14336428D01*
X10333571Y-14345952D01*
X10314524Y-14355476D01*
X10295476Y-14355476D01*
X10276429Y-14345952D01*
X10266905Y-14336428D01*
X10257381Y-14317381D01*
X10247857Y-14279286D01*
X10247857Y-14231667D01*
X10257381Y-14193571D01*
X10266905Y-14174524D01*
X10276429Y-14165000D01*
X10295476Y-14155476D01*
X10447857Y-14336428D02*
X10457381Y-14345952D01*
X10447857Y-14355476D01*
X10438333Y-14345952D01*
X10447857Y-14336428D01*
X10447857Y-14355476D01*
X10581190Y-14155476D02*
X10600238Y-14155476D01*
X10619286Y-14165000D01*
X10628810Y-14174524D01*
X10638333Y-14193571D01*
X10647857Y-14231667D01*
X10647857Y-14279286D01*
X10638333Y-14317381D01*
X10628810Y-14336428D01*
X10619286Y-14345952D01*
X10600238Y-14355476D01*
X10581190Y-14355476D01*
X10562143Y-14345952D01*
X10552619Y-14336428D01*
X10543095Y-14317381D01*
X10533571Y-14279286D01*
X10533571Y-14231667D01*
X10543095Y-14193571D01*
X10552619Y-14174524D01*
X10562143Y-14165000D01*
X10581190Y-14155476D01*
X10828810Y-14155476D02*
X10733571Y-14155476D01*
X10724048Y-14250714D01*
X10733571Y-14241190D01*
X10752619Y-14231667D01*
X10800238Y-14231667D01*
X10819286Y-14241190D01*
X10828810Y-14250714D01*
X10838333Y-14269762D01*
X10838333Y-14317381D01*
X10828810Y-14336428D01*
X10819286Y-14345952D01*
X10800238Y-14355476D01*
X10752619Y-14355476D01*
X10733571Y-14345952D01*
X10724048Y-14336428D01*
X10933571Y-14355476D02*
X10971667Y-14355476D01*
X10990714Y-14345952D01*
X11000238Y-14336428D01*
X11019286Y-14307857D01*
X11028810Y-14269762D01*
X11028810Y-14193571D01*
X11019286Y-14174524D01*
X11009762Y-14165000D01*
X10990714Y-14155476D01*
X10952619Y-14155476D01*
X10933571Y-14165000D01*
X10924048Y-14174524D01*
X10914524Y-14193571D01*
X10914524Y-14241190D01*
X10924048Y-14260238D01*
X10933571Y-14269762D01*
X10952619Y-14279286D01*
X10990714Y-14279286D01*
X11009762Y-14269762D01*
X11019286Y-14260238D01*
X11028810Y-14241190D01*
X11219286Y-14355476D02*
X11105000Y-14355476D01*
X11162143Y-14355476D02*
X11162143Y-14155476D01*
X11143095Y-14184048D01*
X11124048Y-14203095D01*
X11105000Y-14212619D01*
X11295476Y-14155476D02*
X11295476Y-14193571D01*
X11371667Y-14155476D02*
X11371667Y-14193571D01*
X11666905Y-14431667D02*
X11657381Y-14422143D01*
X11638333Y-14393571D01*
X11628809Y-14374524D01*
X11619286Y-14345952D01*
X11609762Y-14298333D01*
X11609762Y-14260238D01*
X11619286Y-14212619D01*
X11628809Y-14184048D01*
X11638333Y-14165000D01*
X11657381Y-14136428D01*
X11666905Y-14126905D01*
X11847857Y-14355476D02*
X11733571Y-14355476D01*
X11790714Y-14355476D02*
X11790714Y-14155476D01*
X11771667Y-14184048D01*
X11752619Y-14203095D01*
X11733571Y-14212619D01*
X11962143Y-14241190D02*
X11943095Y-14231667D01*
X11933571Y-14222143D01*
X11924048Y-14203095D01*
X11924048Y-14193571D01*
X11933571Y-14174524D01*
X11943095Y-14165000D01*
X11962143Y-14155476D01*
X12000238Y-14155476D01*
X12019286Y-14165000D01*
X12028809Y-14174524D01*
X12038333Y-14193571D01*
X12038333Y-14203095D01*
X12028809Y-14222143D01*
X12019286Y-14231667D01*
X12000238Y-14241190D01*
X11962143Y-14241190D01*
X11943095Y-14250714D01*
X11933571Y-14260238D01*
X11924048Y-14279286D01*
X11924048Y-14317381D01*
X11933571Y-14336428D01*
X11943095Y-14345952D01*
X11962143Y-14355476D01*
X12000238Y-14355476D01*
X12019286Y-14345952D01*
X12028809Y-14336428D01*
X12038333Y-14317381D01*
X12038333Y-14279286D01*
X12028809Y-14260238D01*
X12019286Y-14250714D01*
X12000238Y-14241190D01*
X12276428Y-14355476D02*
X12276428Y-14155476D01*
X12362143Y-14355476D02*
X12362143Y-14250714D01*
X12352619Y-14231667D01*
X12333571Y-14222143D01*
X12305000Y-14222143D01*
X12285952Y-14231667D01*
X12276428Y-14241190D01*
X12485952Y-14355476D02*
X12466905Y-14345952D01*
X12457381Y-14336428D01*
X12447857Y-14317381D01*
X12447857Y-14260238D01*
X12457381Y-14241190D01*
X12466905Y-14231667D01*
X12485952Y-14222143D01*
X12514524Y-14222143D01*
X12533571Y-14231667D01*
X12543095Y-14241190D01*
X12552619Y-14260238D01*
X12552619Y-14317381D01*
X12543095Y-14336428D01*
X12533571Y-14345952D01*
X12514524Y-14355476D01*
X12485952Y-14355476D01*
X12666905Y-14355476D02*
X12647857Y-14345952D01*
X12638333Y-14326905D01*
X12638333Y-14155476D01*
X12819286Y-14345952D02*
X12800238Y-14355476D01*
X12762143Y-14355476D01*
X12743095Y-14345952D01*
X12733571Y-14326905D01*
X12733571Y-14250714D01*
X12743095Y-14231667D01*
X12762143Y-14222143D01*
X12800238Y-14222143D01*
X12819286Y-14231667D01*
X12828809Y-14250714D01*
X12828809Y-14269762D01*
X12733571Y-14288809D01*
X12905000Y-14345952D02*
X12924048Y-14355476D01*
X12962143Y-14355476D01*
X12981190Y-14345952D01*
X12990714Y-14326905D01*
X12990714Y-14317381D01*
X12981190Y-14298333D01*
X12962143Y-14288809D01*
X12933571Y-14288809D01*
X12914524Y-14279286D01*
X12905000Y-14260238D01*
X12905000Y-14250714D01*
X12914524Y-14231667D01*
X12933571Y-14222143D01*
X12962143Y-14222143D01*
X12981190Y-14231667D01*
X13057381Y-14431667D02*
X13066905Y-14422143D01*
X13085952Y-14393571D01*
X13095476Y-14374524D01*
X13105000Y-14345952D01*
X13114524Y-14298333D01*
X13114524Y-14260238D01*
X13105000Y-14212619D01*
X13095476Y-14184048D01*
X13085952Y-14165000D01*
X13066905Y-14136428D01*
X13057381Y-14126905D01*
X7895000Y-14435000D02*
X8095000Y-14635000D01*
X8095000Y-14435000D02*
X7895000Y-14635000D01*
X7995000Y-14435000D02*
X7995000Y-14635000D01*
X7895000Y-14535000D02*
X8095000Y-14535000D01*
X8333571Y-14425476D02*
X8457381Y-14425476D01*
X8390714Y-14501667D01*
X8419286Y-14501667D01*
X8438333Y-14511190D01*
X8447857Y-14520714D01*
X8457381Y-14539762D01*
X8457381Y-14587381D01*
X8447857Y-14606428D01*
X8438333Y-14615952D01*
X8419286Y-14625476D01*
X8362143Y-14625476D01*
X8343095Y-14615952D01*
X8333571Y-14606428D01*
X8543095Y-14606428D02*
X8552619Y-14615952D01*
X8543095Y-14625476D01*
X8533571Y-14615952D01*
X8543095Y-14606428D01*
X8543095Y-14625476D01*
X8628810Y-14444524D02*
X8638333Y-14435000D01*
X8657381Y-14425476D01*
X8705000Y-14425476D01*
X8724048Y-14435000D01*
X8733571Y-14444524D01*
X8743095Y-14463571D01*
X8743095Y-14482619D01*
X8733571Y-14511190D01*
X8619286Y-14625476D01*
X8743095Y-14625476D01*
X8866905Y-14425476D02*
X8885952Y-14425476D01*
X8905000Y-14435000D01*
X8914524Y-14444524D01*
X8924048Y-14463571D01*
X8933571Y-14501667D01*
X8933571Y-14549286D01*
X8924048Y-14587381D01*
X8914524Y-14606428D01*
X8905000Y-14615952D01*
X8885952Y-14625476D01*
X8866905Y-14625476D01*
X8847857Y-14615952D01*
X8838333Y-14606428D01*
X8828810Y-14587381D01*
X8819286Y-14549286D01*
X8819286Y-14501667D01*
X8828810Y-14463571D01*
X8838333Y-14444524D01*
X8847857Y-14435000D01*
X8866905Y-14425476D01*
X9057381Y-14425476D02*
X9076429Y-14425476D01*
X9095476Y-14435000D01*
X9105000Y-14444524D01*
X9114524Y-14463571D01*
X9124048Y-14501667D01*
X9124048Y-14549286D01*
X9114524Y-14587381D01*
X9105000Y-14606428D01*
X9095476Y-14615952D01*
X9076429Y-14625476D01*
X9057381Y-14625476D01*
X9038333Y-14615952D01*
X9028810Y-14606428D01*
X9019286Y-14587381D01*
X9009762Y-14549286D01*
X9009762Y-14501667D01*
X9019286Y-14463571D01*
X9028810Y-14444524D01*
X9038333Y-14435000D01*
X9057381Y-14425476D01*
X9209762Y-14625476D02*
X9209762Y-14492143D01*
X9209762Y-14511190D02*
X9219286Y-14501667D01*
X9238333Y-14492143D01*
X9266905Y-14492143D01*
X9285952Y-14501667D01*
X9295476Y-14520714D01*
X9295476Y-14625476D01*
X9295476Y-14520714D02*
X9305000Y-14501667D01*
X9324048Y-14492143D01*
X9352619Y-14492143D01*
X9371667Y-14501667D01*
X9381190Y-14520714D01*
X9381190Y-14625476D01*
X9476429Y-14625476D02*
X9476429Y-14492143D01*
X9476429Y-14511190D02*
X9485952Y-14501667D01*
X9505000Y-14492143D01*
X9533571Y-14492143D01*
X9552619Y-14501667D01*
X9562143Y-14520714D01*
X9562143Y-14625476D01*
X9562143Y-14520714D02*
X9571667Y-14501667D01*
X9590714Y-14492143D01*
X9619286Y-14492143D01*
X9638333Y-14501667D01*
X9647857Y-14520714D01*
X9647857Y-14625476D01*
X10038333Y-14415952D02*
X9866905Y-14673095D01*
X10295476Y-14425476D02*
X10314524Y-14425476D01*
X10333571Y-14435000D01*
X10343095Y-14444524D01*
X10352619Y-14463571D01*
X10362143Y-14501667D01*
X10362143Y-14549286D01*
X10352619Y-14587381D01*
X10343095Y-14606428D01*
X10333571Y-14615952D01*
X10314524Y-14625476D01*
X10295476Y-14625476D01*
X10276429Y-14615952D01*
X10266905Y-14606428D01*
X10257381Y-14587381D01*
X10247857Y-14549286D01*
X10247857Y-14501667D01*
X10257381Y-14463571D01*
X10266905Y-14444524D01*
X10276429Y-14435000D01*
X10295476Y-14425476D01*
X10447857Y-14606428D02*
X10457381Y-14615952D01*
X10447857Y-14625476D01*
X10438333Y-14615952D01*
X10447857Y-14606428D01*
X10447857Y-14625476D01*
X10647857Y-14625476D02*
X10533571Y-14625476D01*
X10590714Y-14625476D02*
X10590714Y-14425476D01*
X10571667Y-14454048D01*
X10552619Y-14473095D01*
X10533571Y-14482619D01*
X10724048Y-14444524D02*
X10733571Y-14435000D01*
X10752619Y-14425476D01*
X10800238Y-14425476D01*
X10819286Y-14435000D01*
X10828810Y-14444524D01*
X10838333Y-14463571D01*
X10838333Y-14482619D01*
X10828810Y-14511190D01*
X10714524Y-14625476D01*
X10838333Y-14625476D01*
X11009762Y-14425476D02*
X10971667Y-14425476D01*
X10952619Y-14435000D01*
X10943095Y-14444524D01*
X10924048Y-14473095D01*
X10914524Y-14511190D01*
X10914524Y-14587381D01*
X10924048Y-14606428D01*
X10933571Y-14615952D01*
X10952619Y-14625476D01*
X10990714Y-14625476D01*
X11009762Y-14615952D01*
X11019286Y-14606428D01*
X11028810Y-14587381D01*
X11028810Y-14539762D01*
X11019286Y-14520714D01*
X11009762Y-14511190D01*
X10990714Y-14501667D01*
X10952619Y-14501667D01*
X10933571Y-14511190D01*
X10924048Y-14520714D01*
X10914524Y-14539762D01*
X11152619Y-14425476D02*
X11171667Y-14425476D01*
X11190714Y-14435000D01*
X11200238Y-14444524D01*
X11209762Y-14463571D01*
X11219286Y-14501667D01*
X11219286Y-14549286D01*
X11209762Y-14587381D01*
X11200238Y-14606428D01*
X11190714Y-14615952D01*
X11171667Y-14625476D01*
X11152619Y-14625476D01*
X11133571Y-14615952D01*
X11124048Y-14606428D01*
X11114524Y-14587381D01*
X11105000Y-14549286D01*
X11105000Y-14501667D01*
X11114524Y-14463571D01*
X11124048Y-14444524D01*
X11133571Y-14435000D01*
X11152619Y-14425476D01*
X11295476Y-14425476D02*
X11295476Y-14463571D01*
X11371667Y-14425476D02*
X11371667Y-14463571D01*
X11666905Y-14701667D02*
X11657381Y-14692143D01*
X11638333Y-14663571D01*
X11628809Y-14644524D01*
X11619286Y-14615952D01*
X11609762Y-14568333D01*
X11609762Y-14530238D01*
X11619286Y-14482619D01*
X11628809Y-14454048D01*
X11638333Y-14435000D01*
X11657381Y-14406428D01*
X11666905Y-14396905D01*
X11828809Y-14492143D02*
X11828809Y-14625476D01*
X11781190Y-14415952D02*
X11733571Y-14558809D01*
X11857381Y-14558809D01*
X12085952Y-14625476D02*
X12085952Y-14425476D01*
X12171667Y-14625476D02*
X12171667Y-14520714D01*
X12162143Y-14501667D01*
X12143095Y-14492143D01*
X12114524Y-14492143D01*
X12095476Y-14501667D01*
X12085952Y-14511190D01*
X12295476Y-14625476D02*
X12276428Y-14615952D01*
X12266905Y-14606428D01*
X12257381Y-14587381D01*
X12257381Y-14530238D01*
X12266905Y-14511190D01*
X12276428Y-14501667D01*
X12295476Y-14492143D01*
X12324048Y-14492143D01*
X12343095Y-14501667D01*
X12352619Y-14511190D01*
X12362143Y-14530238D01*
X12362143Y-14587381D01*
X12352619Y-14606428D01*
X12343095Y-14615952D01*
X12324048Y-14625476D01*
X12295476Y-14625476D01*
X12476428Y-14625476D02*
X12457381Y-14615952D01*
X12447857Y-14596905D01*
X12447857Y-14425476D01*
X12628809Y-14615952D02*
X12609762Y-14625476D01*
X12571667Y-14625476D01*
X12552619Y-14615952D01*
X12543095Y-14596905D01*
X12543095Y-14520714D01*
X12552619Y-14501667D01*
X12571667Y-14492143D01*
X12609762Y-14492143D01*
X12628809Y-14501667D01*
X12638333Y-14520714D01*
X12638333Y-14539762D01*
X12543095Y-14558809D01*
X12714524Y-14615952D02*
X12733571Y-14625476D01*
X12771667Y-14625476D01*
X12790714Y-14615952D01*
X12800238Y-14596905D01*
X12800238Y-14587381D01*
X12790714Y-14568333D01*
X12771667Y-14558809D01*
X12743095Y-14558809D01*
X12724048Y-14549286D01*
X12714524Y-14530238D01*
X12714524Y-14520714D01*
X12724048Y-14501667D01*
X12743095Y-14492143D01*
X12771667Y-14492143D01*
X12790714Y-14501667D01*
X12866905Y-14701667D02*
X12876428Y-14692143D01*
X12895476Y-14663571D01*
X12905000Y-14644524D01*
X12914524Y-14615952D01*
X12924048Y-14568333D01*
X12924048Y-14530238D01*
X12914524Y-14482619D01*
X12905000Y-14454048D01*
X12895476Y-14435000D01*
X12876428Y-14406428D01*
X12866905Y-14396905D01*
M02*
