%FSLAX45Y45*%
G04 Gerber Fmt 4.5, Leading zero omitted, Abs format (unit mm)*
G04 Created by KiCad (PCBNEW 6.0.4) date 2022-06-03 16:07:43*
%MOMM*%
%LPD*%
G01*
G04 APERTURE LIST*
%TA.AperFunction,Profile*%
%ADD10C,0.100000*%
%TD*%
%ADD11C,0.200000*%
%ADD12C,0.177800*%
G04 APERTURE END LIST*
D10*
X8200000Y-2600000D02*
G75*
G03*
X8100000Y-2700000I0J-100000D01*
G01*
X8100000Y-12200000D02*
G75*
G03*
X8200000Y-12300000I100000J0D01*
G01*
X26100000Y-2600000D02*
X8200000Y-2600000D01*
X8200000Y-12300000D02*
X26100000Y-12300000D01*
X26200000Y-2700000D02*
G75*
G03*
X26100000Y-2600000I-100000J0D01*
G01*
X26200000Y-12200000D02*
X26200000Y-2700000D01*
X26100000Y-12300000D02*
G75*
G03*
X26200000Y-12200000I0J100000D01*
G01*
X8100000Y-2700000D02*
X8100000Y-12200000D01*
D11*
D12*
X16675100Y-2844800D02*
X16852900Y-3022600D01*
X16852900Y-2844800D02*
X16675100Y-3022600D01*
X17868900Y-2844800D02*
X18046700Y-3022600D01*
X18046700Y-2844800D02*
X17868900Y-3022600D01*
D11*
X8352619Y-12615476D02*
X8352619Y-12415476D01*
X8400238Y-12415476D01*
X8428810Y-12425000D01*
X8447857Y-12444048D01*
X8457381Y-12463095D01*
X8466905Y-12501190D01*
X8466905Y-12529762D01*
X8457381Y-12567857D01*
X8447857Y-12586905D01*
X8428810Y-12605952D01*
X8400238Y-12615476D01*
X8352619Y-12615476D01*
X8552619Y-12615476D02*
X8552619Y-12482143D01*
X8552619Y-12520238D02*
X8562143Y-12501190D01*
X8571667Y-12491667D01*
X8590714Y-12482143D01*
X8609762Y-12482143D01*
X8676429Y-12615476D02*
X8676429Y-12482143D01*
X8676429Y-12415476D02*
X8666905Y-12425000D01*
X8676429Y-12434524D01*
X8685952Y-12425000D01*
X8676429Y-12415476D01*
X8676429Y-12434524D01*
X8800238Y-12615476D02*
X8781190Y-12605952D01*
X8771667Y-12586905D01*
X8771667Y-12415476D01*
X8905000Y-12615476D02*
X8885952Y-12605952D01*
X8876429Y-12586905D01*
X8876429Y-12415476D01*
X9133571Y-12615476D02*
X9133571Y-12415476D01*
X9200238Y-12558333D01*
X9266905Y-12415476D01*
X9266905Y-12615476D01*
X9447857Y-12615476D02*
X9447857Y-12510714D01*
X9438333Y-12491667D01*
X9419286Y-12482143D01*
X9381190Y-12482143D01*
X9362143Y-12491667D01*
X9447857Y-12605952D02*
X9428810Y-12615476D01*
X9381190Y-12615476D01*
X9362143Y-12605952D01*
X9352619Y-12586905D01*
X9352619Y-12567857D01*
X9362143Y-12548809D01*
X9381190Y-12539286D01*
X9428810Y-12539286D01*
X9447857Y-12529762D01*
X9543095Y-12482143D02*
X9543095Y-12682143D01*
X9543095Y-12491667D02*
X9562143Y-12482143D01*
X9600238Y-12482143D01*
X9619286Y-12491667D01*
X9628810Y-12501190D01*
X9638333Y-12520238D01*
X9638333Y-12577381D01*
X9628810Y-12596428D01*
X9619286Y-12605952D01*
X9600238Y-12615476D01*
X9562143Y-12615476D01*
X9543095Y-12605952D01*
X9724048Y-12596428D02*
X9733571Y-12605952D01*
X9724048Y-12615476D01*
X9714524Y-12605952D01*
X9724048Y-12596428D01*
X9724048Y-12615476D01*
X9724048Y-12491667D02*
X9733571Y-12501190D01*
X9724048Y-12510714D01*
X9714524Y-12501190D01*
X9724048Y-12491667D01*
X9724048Y-12510714D01*
D12*
X7917200Y-12856100D02*
X8095000Y-13033900D01*
X8095000Y-12856100D02*
X7917200Y-13033900D01*
D11*
X8457381Y-13035476D02*
X8343095Y-13035476D01*
X8400238Y-13035476D02*
X8400238Y-12835476D01*
X8381190Y-12864048D01*
X8362143Y-12883095D01*
X8343095Y-12892619D01*
X8543095Y-13016428D02*
X8552619Y-13025952D01*
X8543095Y-13035476D01*
X8533571Y-13025952D01*
X8543095Y-13016428D01*
X8543095Y-13035476D01*
X8619286Y-12835476D02*
X8752619Y-12835476D01*
X8666905Y-13035476D01*
X8809762Y-12835476D02*
X8943095Y-12835476D01*
X8857381Y-13035476D01*
X9047857Y-12921190D02*
X9028810Y-12911667D01*
X9019286Y-12902143D01*
X9009762Y-12883095D01*
X9009762Y-12873571D01*
X9019286Y-12854524D01*
X9028810Y-12845000D01*
X9047857Y-12835476D01*
X9085952Y-12835476D01*
X9105000Y-12845000D01*
X9114524Y-12854524D01*
X9124048Y-12873571D01*
X9124048Y-12883095D01*
X9114524Y-12902143D01*
X9105000Y-12911667D01*
X9085952Y-12921190D01*
X9047857Y-12921190D01*
X9028810Y-12930714D01*
X9019286Y-12940238D01*
X9009762Y-12959286D01*
X9009762Y-12997381D01*
X9019286Y-13016428D01*
X9028810Y-13025952D01*
X9047857Y-13035476D01*
X9085952Y-13035476D01*
X9105000Y-13025952D01*
X9114524Y-13016428D01*
X9124048Y-12997381D01*
X9124048Y-12959286D01*
X9114524Y-12940238D01*
X9105000Y-12930714D01*
X9085952Y-12921190D01*
X9209762Y-13035476D02*
X9209762Y-12902143D01*
X9209762Y-12921190D02*
X9219286Y-12911667D01*
X9238333Y-12902143D01*
X9266905Y-12902143D01*
X9285952Y-12911667D01*
X9295476Y-12930714D01*
X9295476Y-13035476D01*
X9295476Y-12930714D02*
X9305000Y-12911667D01*
X9324048Y-12902143D01*
X9352619Y-12902143D01*
X9371667Y-12911667D01*
X9381190Y-12930714D01*
X9381190Y-13035476D01*
X9476429Y-13035476D02*
X9476429Y-12902143D01*
X9476429Y-12921190D02*
X9485952Y-12911667D01*
X9505000Y-12902143D01*
X9533571Y-12902143D01*
X9552619Y-12911667D01*
X9562143Y-12930714D01*
X9562143Y-13035476D01*
X9562143Y-12930714D02*
X9571667Y-12911667D01*
X9590714Y-12902143D01*
X9619286Y-12902143D01*
X9638333Y-12911667D01*
X9647857Y-12930714D01*
X9647857Y-13035476D01*
X10038333Y-12825952D02*
X9866905Y-13083095D01*
X10295476Y-12835476D02*
X10314524Y-12835476D01*
X10333571Y-12845000D01*
X10343095Y-12854524D01*
X10352619Y-12873571D01*
X10362143Y-12911667D01*
X10362143Y-12959286D01*
X10352619Y-12997381D01*
X10343095Y-13016428D01*
X10333571Y-13025952D01*
X10314524Y-13035476D01*
X10295476Y-13035476D01*
X10276429Y-13025952D01*
X10266905Y-13016428D01*
X10257381Y-12997381D01*
X10247857Y-12959286D01*
X10247857Y-12911667D01*
X10257381Y-12873571D01*
X10266905Y-12854524D01*
X10276429Y-12845000D01*
X10295476Y-12835476D01*
X10447857Y-13016428D02*
X10457381Y-13025952D01*
X10447857Y-13035476D01*
X10438333Y-13025952D01*
X10447857Y-13016428D01*
X10447857Y-13035476D01*
X10581190Y-12835476D02*
X10600238Y-12835476D01*
X10619286Y-12845000D01*
X10628810Y-12854524D01*
X10638333Y-12873571D01*
X10647857Y-12911667D01*
X10647857Y-12959286D01*
X10638333Y-12997381D01*
X10628810Y-13016428D01*
X10619286Y-13025952D01*
X10600238Y-13035476D01*
X10581190Y-13035476D01*
X10562143Y-13025952D01*
X10552619Y-13016428D01*
X10543095Y-12997381D01*
X10533571Y-12959286D01*
X10533571Y-12911667D01*
X10543095Y-12873571D01*
X10552619Y-12854524D01*
X10562143Y-12845000D01*
X10581190Y-12835476D01*
X10714524Y-12835476D02*
X10847857Y-12835476D01*
X10762143Y-13035476D01*
X10962143Y-12835476D02*
X10981190Y-12835476D01*
X11000238Y-12845000D01*
X11009762Y-12854524D01*
X11019286Y-12873571D01*
X11028810Y-12911667D01*
X11028810Y-12959286D01*
X11019286Y-12997381D01*
X11009762Y-13016428D01*
X11000238Y-13025952D01*
X10981190Y-13035476D01*
X10962143Y-13035476D01*
X10943095Y-13025952D01*
X10933571Y-13016428D01*
X10924048Y-12997381D01*
X10914524Y-12959286D01*
X10914524Y-12911667D01*
X10924048Y-12873571D01*
X10933571Y-12854524D01*
X10943095Y-12845000D01*
X10962143Y-12835476D01*
X11152619Y-12835476D02*
X11171667Y-12835476D01*
X11190714Y-12845000D01*
X11200238Y-12854524D01*
X11209762Y-12873571D01*
X11219286Y-12911667D01*
X11219286Y-12959286D01*
X11209762Y-12997381D01*
X11200238Y-13016428D01*
X11190714Y-13025952D01*
X11171667Y-13035476D01*
X11152619Y-13035476D01*
X11133571Y-13025952D01*
X11124048Y-13016428D01*
X11114524Y-12997381D01*
X11105000Y-12959286D01*
X11105000Y-12911667D01*
X11114524Y-12873571D01*
X11124048Y-12854524D01*
X11133571Y-12845000D01*
X11152619Y-12835476D01*
X11295476Y-12835476D02*
X11295476Y-12873571D01*
X11371667Y-12835476D02*
X11371667Y-12873571D01*
X11666905Y-13111667D02*
X11657381Y-13102143D01*
X11638333Y-13073571D01*
X11628809Y-13054524D01*
X11619286Y-13025952D01*
X11609762Y-12978333D01*
X11609762Y-12940238D01*
X11619286Y-12892619D01*
X11628809Y-12864048D01*
X11638333Y-12845000D01*
X11657381Y-12816428D01*
X11666905Y-12806905D01*
X11733571Y-12854524D02*
X11743095Y-12845000D01*
X11762143Y-12835476D01*
X11809762Y-12835476D01*
X11828809Y-12845000D01*
X11838333Y-12854524D01*
X11847857Y-12873571D01*
X11847857Y-12892619D01*
X11838333Y-12921190D01*
X11724048Y-13035476D01*
X11847857Y-13035476D01*
X12085952Y-13035476D02*
X12085952Y-12835476D01*
X12171667Y-13035476D02*
X12171667Y-12930714D01*
X12162143Y-12911667D01*
X12143095Y-12902143D01*
X12114524Y-12902143D01*
X12095476Y-12911667D01*
X12085952Y-12921190D01*
X12295476Y-13035476D02*
X12276428Y-13025952D01*
X12266905Y-13016428D01*
X12257381Y-12997381D01*
X12257381Y-12940238D01*
X12266905Y-12921190D01*
X12276428Y-12911667D01*
X12295476Y-12902143D01*
X12324048Y-12902143D01*
X12343095Y-12911667D01*
X12352619Y-12921190D01*
X12362143Y-12940238D01*
X12362143Y-12997381D01*
X12352619Y-13016428D01*
X12343095Y-13025952D01*
X12324048Y-13035476D01*
X12295476Y-13035476D01*
X12476428Y-13035476D02*
X12457381Y-13025952D01*
X12447857Y-13006905D01*
X12447857Y-12835476D01*
X12628809Y-13025952D02*
X12609762Y-13035476D01*
X12571667Y-13035476D01*
X12552619Y-13025952D01*
X12543095Y-13006905D01*
X12543095Y-12930714D01*
X12552619Y-12911667D01*
X12571667Y-12902143D01*
X12609762Y-12902143D01*
X12628809Y-12911667D01*
X12638333Y-12930714D01*
X12638333Y-12949762D01*
X12543095Y-12968809D01*
X12714524Y-13025952D02*
X12733571Y-13035476D01*
X12771667Y-13035476D01*
X12790714Y-13025952D01*
X12800238Y-13006905D01*
X12800238Y-12997381D01*
X12790714Y-12978333D01*
X12771667Y-12968809D01*
X12743095Y-12968809D01*
X12724048Y-12959286D01*
X12714524Y-12940238D01*
X12714524Y-12930714D01*
X12724048Y-12911667D01*
X12743095Y-12902143D01*
X12771667Y-12902143D01*
X12790714Y-12911667D01*
X12866905Y-13111667D02*
X12876428Y-13102143D01*
X12895476Y-13073571D01*
X12905000Y-13054524D01*
X12914524Y-13025952D01*
X12924048Y-12978333D01*
X12924048Y-12940238D01*
X12914524Y-12892619D01*
X12905000Y-12864048D01*
X12895476Y-12845000D01*
X12876428Y-12816428D01*
X12866905Y-12806905D01*
X13228809Y-13111667D02*
X13219286Y-13102143D01*
X13200238Y-13073571D01*
X13190714Y-13054524D01*
X13181190Y-13025952D01*
X13171667Y-12978333D01*
X13171667Y-12940238D01*
X13181190Y-12892619D01*
X13190714Y-12864048D01*
X13200238Y-12845000D01*
X13219286Y-12816428D01*
X13228809Y-12806905D01*
X13305000Y-12902143D02*
X13305000Y-13035476D01*
X13305000Y-12921190D02*
X13314524Y-12911667D01*
X13333571Y-12902143D01*
X13362143Y-12902143D01*
X13381190Y-12911667D01*
X13390714Y-12930714D01*
X13390714Y-13035476D01*
X13514524Y-13035476D02*
X13495476Y-13025952D01*
X13485952Y-13016428D01*
X13476428Y-12997381D01*
X13476428Y-12940238D01*
X13485952Y-12921190D01*
X13495476Y-12911667D01*
X13514524Y-12902143D01*
X13543095Y-12902143D01*
X13562143Y-12911667D01*
X13571667Y-12921190D01*
X13581190Y-12940238D01*
X13581190Y-12997381D01*
X13571667Y-13016428D01*
X13562143Y-13025952D01*
X13543095Y-13035476D01*
X13514524Y-13035476D01*
X13638333Y-12902143D02*
X13714524Y-12902143D01*
X13666905Y-12835476D02*
X13666905Y-13006905D01*
X13676428Y-13025952D01*
X13695476Y-13035476D01*
X13714524Y-13035476D01*
X13933571Y-12902143D02*
X13933571Y-13102143D01*
X13933571Y-12911667D02*
X13952619Y-12902143D01*
X13990714Y-12902143D01*
X14009762Y-12911667D01*
X14019286Y-12921190D01*
X14028809Y-12940238D01*
X14028809Y-12997381D01*
X14019286Y-13016428D01*
X14009762Y-13025952D01*
X13990714Y-13035476D01*
X13952619Y-13035476D01*
X13933571Y-13025952D01*
X14143095Y-13035476D02*
X14124048Y-13025952D01*
X14114524Y-13006905D01*
X14114524Y-12835476D01*
X14305000Y-13035476D02*
X14305000Y-12930714D01*
X14295476Y-12911667D01*
X14276428Y-12902143D01*
X14238333Y-12902143D01*
X14219286Y-12911667D01*
X14305000Y-13025952D02*
X14285952Y-13035476D01*
X14238333Y-13035476D01*
X14219286Y-13025952D01*
X14209762Y-13006905D01*
X14209762Y-12987857D01*
X14219286Y-12968809D01*
X14238333Y-12959286D01*
X14285952Y-12959286D01*
X14305000Y-12949762D01*
X14371667Y-12902143D02*
X14447857Y-12902143D01*
X14400238Y-12835476D02*
X14400238Y-13006905D01*
X14409762Y-13025952D01*
X14428809Y-13035476D01*
X14447857Y-13035476D01*
X14590714Y-13025952D02*
X14571667Y-13035476D01*
X14533571Y-13035476D01*
X14514524Y-13025952D01*
X14505000Y-13006905D01*
X14505000Y-12930714D01*
X14514524Y-12911667D01*
X14533571Y-12902143D01*
X14571667Y-12902143D01*
X14590714Y-12911667D01*
X14600238Y-12930714D01*
X14600238Y-12949762D01*
X14505000Y-12968809D01*
X14771667Y-13035476D02*
X14771667Y-12835476D01*
X14771667Y-13025952D02*
X14752619Y-13035476D01*
X14714524Y-13035476D01*
X14695476Y-13025952D01*
X14685952Y-13016428D01*
X14676428Y-12997381D01*
X14676428Y-12940238D01*
X14685952Y-12921190D01*
X14695476Y-12911667D01*
X14714524Y-12902143D01*
X14752619Y-12902143D01*
X14771667Y-12911667D01*
X14847857Y-13111667D02*
X14857381Y-13102143D01*
X14876428Y-13073571D01*
X14885952Y-13054524D01*
X14895476Y-13025952D01*
X14905000Y-12978333D01*
X14905000Y-12940238D01*
X14895476Y-12892619D01*
X14885952Y-12864048D01*
X14876428Y-12845000D01*
X14857381Y-12816428D01*
X14847857Y-12806905D01*
M02*
