G04 #@! TF.GenerationSoftware,KiCad,Pcbnew,6.0.4*
G04 #@! TF.CreationDate,2022-06-03T16:07:39+02:00*
G04 #@! TF.ProjectId,OpenDeck-r3.0.1,4f70656e-4465-4636-9b2d-72332e302e31,rev?*
G04 #@! TF.SameCoordinates,Original*
G04 #@! TF.FileFunction,Soldermask,Top*
G04 #@! TF.FilePolarity,Negative*
%FSLAX46Y46*%
G04 Gerber Fmt 4.6, Leading zero omitted, Abs format (unit mm)*
G04 Created by KiCad (PCBNEW 6.0.4) date 2022-06-03 16:07:39*
%MOMM*%
%LPD*%
G01*
G04 APERTURE LIST*
G04 Aperture macros list*
%AMRoundRect*
0 Rectangle with rounded corners*
0 $1 Rounding radius*
0 $2 $3 $4 $5 $6 $7 $8 $9 X,Y pos of 4 corners*
0 Add a 4 corners polygon primitive as box body*
4,1,4,$2,$3,$4,$5,$6,$7,$8,$9,$2,$3,0*
0 Add four circle primitives for the rounded corners*
1,1,$1+$1,$2,$3*
1,1,$1+$1,$4,$5*
1,1,$1+$1,$6,$7*
1,1,$1+$1,$8,$9*
0 Add four rect primitives between the rounded corners*
20,1,$1+$1,$2,$3,$4,$5,0*
20,1,$1+$1,$4,$5,$6,$7,0*
20,1,$1+$1,$6,$7,$8,$9,0*
20,1,$1+$1,$8,$9,$2,$3,0*%
G04 Aperture macros list end*
%ADD10R,0.600000X0.700000*%
%ADD11R,1.700000X1.700000*%
%ADD12O,1.700000X1.700000*%
%ADD13RoundRect,0.243750X0.243750X0.456250X-0.243750X0.456250X-0.243750X-0.456250X0.243750X-0.456250X0*%
%ADD14RoundRect,0.135000X-0.135000X-0.185000X0.135000X-0.185000X0.135000X0.185000X-0.135000X0.185000X0*%
%ADD15C,5.600000*%
%ADD16RoundRect,0.135000X-0.185000X0.135000X-0.185000X-0.135000X0.185000X-0.135000X0.185000X0.135000X0*%
%ADD17RoundRect,0.250000X0.600000X0.725000X-0.600000X0.725000X-0.600000X-0.725000X0.600000X-0.725000X0*%
%ADD18O,1.700000X1.950000*%
%ADD19C,2.300000*%
%ADD20RoundRect,0.140000X0.170000X-0.140000X0.170000X0.140000X-0.170000X0.140000X-0.170000X-0.140000X0*%
%ADD21R,1.600000X1.600000*%
%ADD22O,1.600000X1.600000*%
%ADD23RoundRect,0.150000X-0.725000X-0.150000X0.725000X-0.150000X0.725000X0.150000X-0.725000X0.150000X0*%
%ADD24RoundRect,0.140000X0.140000X0.170000X-0.140000X0.170000X-0.140000X-0.170000X0.140000X-0.170000X0*%
%ADD25R,1.750000X2.250000*%
%ADD26O,1.750000X2.250000*%
%ADD27R,1.520000X1.780000*%
%ADD28R,1.520000X1.750000*%
%ADD29RoundRect,0.140000X-0.170000X0.140000X-0.170000X-0.140000X0.170000X-0.140000X0.170000X0.140000X0*%
%ADD30RoundRect,0.150000X-0.150000X0.512500X-0.150000X-0.512500X0.150000X-0.512500X0.150000X0.512500X0*%
%ADD31R,0.700000X0.600000*%
%ADD32RoundRect,0.100000X0.100000X-0.637500X0.100000X0.637500X-0.100000X0.637500X-0.100000X-0.637500X0*%
%ADD33RoundRect,0.150000X0.150000X-0.875000X0.150000X0.875000X-0.150000X0.875000X-0.150000X-0.875000X0*%
%ADD34RoundRect,0.135000X0.185000X-0.135000X0.185000X0.135000X-0.185000X0.135000X-0.185000X-0.135000X0*%
%ADD35RoundRect,0.150000X0.725000X0.150000X-0.725000X0.150000X-0.725000X-0.150000X0.725000X-0.150000X0*%
%ADD36C,1.778000*%
%ADD37R,1.800000X1.800000*%
%ADD38C,1.800000*%
%ADD39RoundRect,0.135000X0.135000X0.185000X-0.135000X0.185000X-0.135000X-0.185000X0.135000X-0.185000X0*%
%ADD40RoundRect,0.140000X-0.140000X-0.170000X0.140000X-0.170000X0.140000X0.170000X-0.140000X0.170000X0*%
G04 APERTURE END LIST*
D10*
X141540000Y-36322000D03*
X142940000Y-36322000D03*
X132650000Y-36322000D03*
X134050000Y-36322000D03*
X123760000Y-46482000D03*
X125160000Y-46482000D03*
X114870000Y-46482000D03*
X116270000Y-46482000D03*
D11*
X166365000Y-100775000D03*
D12*
X166365000Y-103315000D03*
X166365000Y-105855000D03*
X166365000Y-108395000D03*
X166365000Y-110935000D03*
X166365000Y-113475000D03*
X166365000Y-116015000D03*
X166365000Y-118555000D03*
X168905000Y-100775000D03*
X168905000Y-103315000D03*
X168905000Y-105855000D03*
X168905000Y-108395000D03*
X168905000Y-110935000D03*
X168905000Y-113475000D03*
X168905000Y-116015000D03*
X168905000Y-118555000D03*
X171445000Y-100775000D03*
X171445000Y-103315000D03*
X171445000Y-105855000D03*
X171445000Y-108395000D03*
X171445000Y-110935000D03*
X171445000Y-113475000D03*
X171445000Y-116015000D03*
X171445000Y-118555000D03*
D10*
X132650000Y-65913000D03*
X134050000Y-65913000D03*
D13*
X259382500Y-43180000D03*
X257507500Y-43180000D03*
D14*
X171194000Y-68834000D03*
X172214000Y-68834000D03*
D15*
X258000000Y-30000000D03*
D10*
X141540000Y-31242000D03*
X142940000Y-31242000D03*
X105980000Y-46482000D03*
X107380000Y-46482000D03*
X159320000Y-33782000D03*
X160720000Y-33782000D03*
D16*
X185166000Y-50544000D03*
X185166000Y-51564000D03*
D17*
X208474000Y-73406000D03*
D18*
X205974000Y-73406000D03*
X203474000Y-73406000D03*
X200974000Y-73406000D03*
D14*
X171194000Y-67564000D03*
X172214000Y-67564000D03*
D11*
X256286000Y-59944000D03*
D12*
X256286000Y-57404000D03*
D14*
X171067000Y-59065640D03*
X172087000Y-59065640D03*
D10*
X159320000Y-38862000D03*
X160720000Y-38862000D03*
X123760000Y-36322000D03*
X125160000Y-36322000D03*
D14*
X171067000Y-57795640D03*
X172087000Y-57795640D03*
D10*
X97090000Y-73533000D03*
X98490000Y-73533000D03*
D16*
X208534000Y-48398000D03*
X208534000Y-49418000D03*
D10*
X105980000Y-31242000D03*
X107380000Y-31242000D03*
D17*
X223123000Y-62882000D03*
D18*
X220623000Y-62882000D03*
X218123000Y-62882000D03*
X215623000Y-62882000D03*
D10*
X105980000Y-70993000D03*
X107380000Y-70993000D03*
D19*
X208908000Y-38313000D03*
X216358000Y-38313000D03*
X223808000Y-38313000D03*
X211358000Y-40513000D03*
X221358000Y-40513000D03*
X221358000Y-28363000D03*
X211358000Y-28363000D03*
X213858000Y-28363000D03*
X218858000Y-28363000D03*
D10*
X97090000Y-70993000D03*
X98490000Y-70993000D03*
X159320000Y-65913000D03*
X160720000Y-65913000D03*
X105980000Y-43942000D03*
X107380000Y-43942000D03*
X105980000Y-36322000D03*
X107380000Y-36322000D03*
D20*
X243586000Y-28674000D03*
X243586000Y-27714000D03*
D10*
X132650000Y-41402000D03*
X134050000Y-41402000D03*
D21*
X235331000Y-30084000D03*
D22*
X235331000Y-32624000D03*
X235331000Y-35164000D03*
X235331000Y-37704000D03*
X235331000Y-40244000D03*
X235331000Y-42784000D03*
X235331000Y-45324000D03*
X235331000Y-47864000D03*
X235331000Y-50404000D03*
X235331000Y-52944000D03*
X235331000Y-55484000D03*
X235331000Y-58024000D03*
X235331000Y-60564000D03*
X235331000Y-63104000D03*
X235331000Y-65644000D03*
X250571000Y-65644000D03*
X250571000Y-63104000D03*
X250571000Y-60564000D03*
X250571000Y-58024000D03*
X250571000Y-55484000D03*
X250571000Y-52944000D03*
X250571000Y-50404000D03*
X250571000Y-47864000D03*
X250571000Y-45324000D03*
X250571000Y-42784000D03*
X250571000Y-40244000D03*
X250571000Y-37704000D03*
X250571000Y-35164000D03*
X250571000Y-32624000D03*
X250571000Y-30084000D03*
D11*
X223652000Y-100745000D03*
D12*
X223652000Y-103285000D03*
X223652000Y-105825000D03*
X223652000Y-108365000D03*
X223652000Y-110905000D03*
X223652000Y-113445000D03*
X223652000Y-115985000D03*
X223652000Y-118525000D03*
X226192000Y-100745000D03*
X226192000Y-103285000D03*
X226192000Y-105825000D03*
X226192000Y-108365000D03*
X226192000Y-110905000D03*
X226192000Y-113445000D03*
X226192000Y-115985000D03*
X226192000Y-118525000D03*
X228732000Y-100745000D03*
X228732000Y-103285000D03*
X228732000Y-105825000D03*
X228732000Y-108365000D03*
X228732000Y-110905000D03*
X228732000Y-113445000D03*
X228732000Y-115985000D03*
X228732000Y-118525000D03*
D11*
X100930596Y-100545916D03*
D12*
X103470596Y-100545916D03*
X100930596Y-103085916D03*
X103470596Y-103085916D03*
X100930596Y-105625916D03*
X103470596Y-105625916D03*
X100930596Y-108165916D03*
X103470596Y-108165916D03*
X100930596Y-110705916D03*
X103470596Y-110705916D03*
X100930596Y-113245916D03*
X103470596Y-113245916D03*
X100930596Y-115785916D03*
X103470596Y-115785916D03*
X100930596Y-118325916D03*
X103470596Y-118325916D03*
D14*
X171067000Y-53985640D03*
X172087000Y-53985640D03*
D10*
X123760000Y-33782000D03*
X125160000Y-33782000D03*
D17*
X223139000Y-73406000D03*
D18*
X220639000Y-73406000D03*
X218139000Y-73406000D03*
X215639000Y-73406000D03*
D23*
X178019000Y-47625000D03*
X178019000Y-48895000D03*
X178019000Y-50165000D03*
X178019000Y-51435000D03*
X183169000Y-51435000D03*
X183169000Y-50165000D03*
X183169000Y-48895000D03*
X183169000Y-47625000D03*
D10*
X150430000Y-68453000D03*
X151830000Y-68453000D03*
D24*
X173073000Y-49159640D03*
X172113000Y-49159640D03*
D25*
X178181000Y-41275000D03*
D26*
X175641000Y-41275000D03*
X173101000Y-41275000D03*
X170561000Y-41275000D03*
D11*
X92075000Y-55753000D03*
D12*
X94615000Y-55753000D03*
X92075000Y-58293000D03*
X94615000Y-58293000D03*
X92075000Y-60833000D03*
X94615000Y-60833000D03*
X92075000Y-63373000D03*
X94615000Y-63373000D03*
X92075000Y-65913000D03*
X94615000Y-65913000D03*
X92075000Y-68453000D03*
X94615000Y-68453000D03*
X92075000Y-70993000D03*
X94615000Y-70993000D03*
X92075000Y-73533000D03*
X94615000Y-73533000D03*
D10*
X132650000Y-58293000D03*
X134050000Y-58293000D03*
D14*
X171067000Y-55255640D03*
X172087000Y-55255640D03*
D11*
X109855000Y-55753000D03*
D12*
X112395000Y-55753000D03*
X109855000Y-58293000D03*
X112395000Y-58293000D03*
X109855000Y-60833000D03*
X112395000Y-60833000D03*
X109855000Y-63373000D03*
X112395000Y-63373000D03*
X109855000Y-65913000D03*
X112395000Y-65913000D03*
X109855000Y-68453000D03*
X112395000Y-68453000D03*
X109855000Y-70993000D03*
X112395000Y-70993000D03*
X109855000Y-73533000D03*
X112395000Y-73533000D03*
D10*
X132650000Y-55753000D03*
X134050000Y-55753000D03*
D14*
X171067000Y-52715640D03*
X172087000Y-52715640D03*
D10*
X150430000Y-36322000D03*
X151830000Y-36322000D03*
X97090000Y-49022000D03*
X98490000Y-49022000D03*
X97090000Y-31242000D03*
X98490000Y-31242000D03*
D27*
X188340989Y-62103000D03*
D28*
X188340989Y-59563000D03*
D27*
X188340989Y-57023000D03*
X188340989Y-54483000D03*
X178820989Y-54483000D03*
X178820989Y-57023000D03*
X178820989Y-59563000D03*
X178820989Y-62103000D03*
D10*
X114870000Y-70993000D03*
X116270000Y-70993000D03*
D11*
X136525000Y-31242000D03*
D12*
X139065000Y-31242000D03*
X136525000Y-33782000D03*
X139065000Y-33782000D03*
X136525000Y-36322000D03*
X139065000Y-36322000D03*
X136525000Y-38862000D03*
X139065000Y-38862000D03*
X136525000Y-41402000D03*
X139065000Y-41402000D03*
X136525000Y-43942000D03*
X139065000Y-43942000D03*
X136525000Y-46482000D03*
X139065000Y-46482000D03*
X136525000Y-49022000D03*
X139065000Y-49022000D03*
D14*
X171194000Y-70104000D03*
X172214000Y-70104000D03*
D29*
X176911000Y-61496000D03*
X176911000Y-62456000D03*
D11*
X109855000Y-31242000D03*
D12*
X112395000Y-31242000D03*
X109855000Y-33782000D03*
X112395000Y-33782000D03*
X109855000Y-36322000D03*
X112395000Y-36322000D03*
X109855000Y-38862000D03*
X112395000Y-38862000D03*
X109855000Y-41402000D03*
X112395000Y-41402000D03*
X109855000Y-43942000D03*
X112395000Y-43942000D03*
X109855000Y-46482000D03*
X112395000Y-46482000D03*
X109855000Y-49022000D03*
X112395000Y-49022000D03*
D15*
X258000000Y-119000000D03*
D10*
X97090000Y-41402000D03*
X98490000Y-41402000D03*
X159320000Y-63373000D03*
X160720000Y-63373000D03*
D13*
X259382500Y-49784000D03*
X257507500Y-49784000D03*
D10*
X105980000Y-73533000D03*
X107380000Y-73533000D03*
X114870000Y-73533000D03*
X116270000Y-73533000D03*
X123760000Y-60833000D03*
X125160000Y-60833000D03*
X159320000Y-60833000D03*
X160720000Y-60833000D03*
D11*
X100965000Y-55753000D03*
D12*
X103505000Y-55753000D03*
X100965000Y-58293000D03*
X103505000Y-58293000D03*
X100965000Y-60833000D03*
X103505000Y-60833000D03*
X100965000Y-63373000D03*
X103505000Y-63373000D03*
X100965000Y-65913000D03*
X103505000Y-65913000D03*
X100965000Y-68453000D03*
X103505000Y-68453000D03*
X100965000Y-70993000D03*
X103505000Y-70993000D03*
X100965000Y-73533000D03*
X103505000Y-73533000D03*
D23*
X164176000Y-64389000D03*
X164176000Y-65659000D03*
X164176000Y-66929000D03*
X164176000Y-68199000D03*
X164176000Y-69469000D03*
X164176000Y-70739000D03*
X164176000Y-72009000D03*
X164176000Y-73279000D03*
X169326000Y-73279000D03*
X169326000Y-72009000D03*
X169326000Y-70739000D03*
X169326000Y-69469000D03*
X169326000Y-68199000D03*
X169326000Y-66929000D03*
X169326000Y-65659000D03*
X169326000Y-64389000D03*
D14*
X171067000Y-51445640D03*
X172087000Y-51445640D03*
D10*
X150430000Y-41402000D03*
X151830000Y-41402000D03*
X123760000Y-55753000D03*
X125160000Y-55753000D03*
D30*
X255699000Y-67564000D03*
X254749000Y-67564000D03*
X253799000Y-67564000D03*
X253799000Y-69839000D03*
X255699000Y-69839000D03*
D24*
X182598000Y-76454000D03*
X181638000Y-76454000D03*
D10*
X105980000Y-33782000D03*
X107380000Y-33782000D03*
D11*
X136490596Y-100545916D03*
D12*
X139030596Y-100545916D03*
X136490596Y-103085916D03*
X139030596Y-103085916D03*
X136490596Y-105625916D03*
X139030596Y-105625916D03*
X136490596Y-108165916D03*
X139030596Y-108165916D03*
X136490596Y-110705916D03*
X139030596Y-110705916D03*
X136490596Y-113245916D03*
X139030596Y-113245916D03*
X136490596Y-115785916D03*
X139030596Y-115785916D03*
X136490596Y-118325916D03*
X139030596Y-118325916D03*
D24*
X157676000Y-82765916D03*
X156716000Y-82765916D03*
D10*
X123760000Y-41402000D03*
X125160000Y-41402000D03*
D11*
X92075000Y-31242000D03*
D12*
X94615000Y-31242000D03*
X92075000Y-33782000D03*
X94615000Y-33782000D03*
X92075000Y-36322000D03*
X94615000Y-36322000D03*
X92075000Y-38862000D03*
X94615000Y-38862000D03*
X92075000Y-41402000D03*
X94615000Y-41402000D03*
X92075000Y-43942000D03*
X94615000Y-43942000D03*
X92075000Y-46482000D03*
X94615000Y-46482000D03*
X92075000Y-49022000D03*
X94615000Y-49022000D03*
D11*
X92040596Y-100530916D03*
D12*
X94580596Y-100530916D03*
X92040596Y-103070916D03*
X94580596Y-103070916D03*
X92040596Y-105610916D03*
X94580596Y-105610916D03*
X92040596Y-108150916D03*
X94580596Y-108150916D03*
X92040596Y-110690916D03*
X94580596Y-110690916D03*
X92040596Y-113230916D03*
X94580596Y-113230916D03*
X92040596Y-115770916D03*
X94580596Y-115770916D03*
X92040596Y-118310916D03*
X94580596Y-118310916D03*
D14*
X171194000Y-66294000D03*
X172214000Y-66294000D03*
D10*
X132650000Y-73533000D03*
X134050000Y-73533000D03*
D14*
X171194000Y-73914000D03*
X172214000Y-73914000D03*
D13*
X259382500Y-46482000D03*
X257507500Y-46482000D03*
D10*
X114870000Y-65913000D03*
X116270000Y-65913000D03*
X159320000Y-41402000D03*
X160720000Y-41402000D03*
D31*
X193929000Y-47687000D03*
X193929000Y-49087000D03*
D14*
X171194000Y-71374000D03*
X172214000Y-71374000D03*
D32*
X156262000Y-90327416D03*
X156912000Y-90327416D03*
X157562000Y-90327416D03*
X158212000Y-90327416D03*
X158862000Y-90327416D03*
X159512000Y-90327416D03*
X160162000Y-90327416D03*
X160162000Y-84602416D03*
X159512000Y-84602416D03*
X158862000Y-84602416D03*
X158212000Y-84602416D03*
X157562000Y-84602416D03*
X156912000Y-84602416D03*
X156262000Y-84602416D03*
D10*
X97090000Y-63373000D03*
X98490000Y-63373000D03*
X150430000Y-60833000D03*
X151830000Y-60833000D03*
X105980000Y-38862000D03*
X107380000Y-38862000D03*
X150430000Y-58293000D03*
X151830000Y-58293000D03*
X159320000Y-58293000D03*
X160720000Y-58293000D03*
X114870000Y-33782000D03*
X116270000Y-33782000D03*
X159320000Y-36322000D03*
X160720000Y-36322000D03*
D21*
X232537000Y-27432000D03*
D22*
X232537000Y-29972000D03*
X232537000Y-32512000D03*
X232537000Y-35052000D03*
X232537000Y-37592000D03*
X232537000Y-40132000D03*
X232537000Y-42672000D03*
X232537000Y-45212000D03*
X232537000Y-47752000D03*
X232537000Y-50292000D03*
X232537000Y-52832000D03*
X232537000Y-55372000D03*
X232537000Y-57912000D03*
X232537000Y-60452000D03*
X232537000Y-62992000D03*
X232537000Y-65532000D03*
X232537000Y-68072000D03*
X232537000Y-70612000D03*
X232537000Y-73152000D03*
X232537000Y-75692000D03*
X247777000Y-75692000D03*
X247777000Y-73152000D03*
X247777000Y-70612000D03*
X247777000Y-68072000D03*
X247777000Y-65532000D03*
X247777000Y-62992000D03*
X247777000Y-60452000D03*
X247777000Y-57912000D03*
X247777000Y-55372000D03*
X247777000Y-52832000D03*
X247777000Y-50292000D03*
X247777000Y-47752000D03*
X247777000Y-45212000D03*
X247777000Y-42672000D03*
X247777000Y-40132000D03*
X247777000Y-37592000D03*
X247777000Y-35052000D03*
X247777000Y-32512000D03*
X247777000Y-29972000D03*
X247777000Y-27432000D03*
D10*
X123760000Y-43942000D03*
X125160000Y-43942000D03*
X105980000Y-63373000D03*
X107380000Y-63373000D03*
D20*
X185166000Y-48867000D03*
X185166000Y-47907000D03*
D10*
X132650000Y-43942000D03*
X134050000Y-43942000D03*
X159320000Y-55753000D03*
X160720000Y-55753000D03*
D33*
X242062000Y-93330000D03*
X243332000Y-93330000D03*
X244602000Y-93330000D03*
X245872000Y-93330000D03*
X247142000Y-93330000D03*
X248412000Y-93330000D03*
X249682000Y-93330000D03*
X250952000Y-93330000D03*
X252222000Y-93330000D03*
X253492000Y-93330000D03*
X254762000Y-93330000D03*
X256032000Y-93330000D03*
X256032000Y-84030000D03*
X254762000Y-84030000D03*
X253492000Y-84030000D03*
X252222000Y-84030000D03*
X250952000Y-84030000D03*
X249682000Y-84030000D03*
X248412000Y-84030000D03*
X247142000Y-84030000D03*
X245872000Y-84030000D03*
X244602000Y-84030000D03*
X243332000Y-84030000D03*
X242062000Y-84030000D03*
X139035000Y-92495916D03*
X140305000Y-92495916D03*
X141575000Y-92495916D03*
X142845000Y-92495916D03*
X144115000Y-92495916D03*
X145385000Y-92495916D03*
X146655000Y-92495916D03*
X147925000Y-92495916D03*
X149195000Y-92495916D03*
X150465000Y-92495916D03*
X151735000Y-92495916D03*
X153005000Y-92495916D03*
X153005000Y-83195916D03*
X151735000Y-83195916D03*
X150465000Y-83195916D03*
X149195000Y-83195916D03*
X147925000Y-83195916D03*
X146655000Y-83195916D03*
X145385000Y-83195916D03*
X144115000Y-83195916D03*
X142845000Y-83195916D03*
X141575000Y-83195916D03*
X140305000Y-83195916D03*
X139035000Y-83195916D03*
D10*
X141540000Y-38862000D03*
X142940000Y-38862000D03*
D17*
X208474000Y-62882000D03*
D18*
X205974000Y-62882000D03*
X203474000Y-62882000D03*
X200974000Y-62882000D03*
D10*
X114870000Y-68453000D03*
X116270000Y-68453000D03*
D14*
X221352000Y-43520000D03*
X222372000Y-43520000D03*
D20*
X240157000Y-84715000D03*
X240157000Y-83755000D03*
D11*
X246507000Y-100745000D03*
D12*
X246507000Y-103285000D03*
X246507000Y-105825000D03*
X246507000Y-108365000D03*
X246507000Y-110905000D03*
X246507000Y-113445000D03*
X246507000Y-115985000D03*
X246507000Y-118525000D03*
X249047000Y-100745000D03*
X249047000Y-103285000D03*
X249047000Y-105825000D03*
X249047000Y-108365000D03*
X249047000Y-110905000D03*
X249047000Y-113445000D03*
X249047000Y-115985000D03*
X249047000Y-118525000D03*
X251587000Y-100745000D03*
X251587000Y-103285000D03*
X251587000Y-105825000D03*
X251587000Y-108365000D03*
X251587000Y-110905000D03*
X251587000Y-113445000D03*
X251587000Y-115985000D03*
X251587000Y-118525000D03*
D10*
X114870000Y-31242000D03*
X116270000Y-31242000D03*
X150430000Y-31242000D03*
X151830000Y-31242000D03*
X114870000Y-55753000D03*
X116270000Y-55753000D03*
X105980000Y-55753000D03*
X107380000Y-55753000D03*
X132650000Y-70993000D03*
X134050000Y-70993000D03*
D33*
X196347000Y-93330000D03*
X197617000Y-93330000D03*
X198887000Y-93330000D03*
X200157000Y-93330000D03*
X201427000Y-93330000D03*
X202697000Y-93330000D03*
X203967000Y-93330000D03*
X205237000Y-93330000D03*
X206507000Y-93330000D03*
X207777000Y-93330000D03*
X209047000Y-93330000D03*
X210317000Y-93330000D03*
X210317000Y-84030000D03*
X209047000Y-84030000D03*
X207777000Y-84030000D03*
X206507000Y-84030000D03*
X205237000Y-84030000D03*
X203967000Y-84030000D03*
X202697000Y-84030000D03*
X201427000Y-84030000D03*
X200157000Y-84030000D03*
X198887000Y-84030000D03*
X197617000Y-84030000D03*
X196347000Y-84030000D03*
D11*
X136525000Y-55753000D03*
D12*
X139065000Y-55753000D03*
X136525000Y-58293000D03*
X139065000Y-58293000D03*
X136525000Y-60833000D03*
X139065000Y-60833000D03*
X136525000Y-63373000D03*
X139065000Y-63373000D03*
X136525000Y-65913000D03*
X139065000Y-65913000D03*
X136525000Y-68453000D03*
X139065000Y-68453000D03*
X136525000Y-70993000D03*
X139065000Y-70993000D03*
X136525000Y-73533000D03*
X139065000Y-73533000D03*
D10*
X150430000Y-38862000D03*
X151830000Y-38862000D03*
X114870000Y-38862000D03*
X116270000Y-38862000D03*
X141540000Y-49022000D03*
X142940000Y-49022000D03*
X141540000Y-41402000D03*
X142940000Y-41402000D03*
X132650000Y-60833000D03*
X134050000Y-60833000D03*
X150430000Y-73533000D03*
X151830000Y-73533000D03*
X123760000Y-31242000D03*
X125160000Y-31242000D03*
D11*
X145415000Y-31242000D03*
D12*
X147955000Y-31242000D03*
X145415000Y-33782000D03*
X147955000Y-33782000D03*
X145415000Y-36322000D03*
X147955000Y-36322000D03*
X145415000Y-38862000D03*
X147955000Y-38862000D03*
X145415000Y-41402000D03*
X147955000Y-41402000D03*
X145415000Y-43942000D03*
X147955000Y-43942000D03*
X145415000Y-46482000D03*
X147955000Y-46482000D03*
X145415000Y-49022000D03*
X147955000Y-49022000D03*
D33*
X219207000Y-93330000D03*
X220477000Y-93330000D03*
X221747000Y-93330000D03*
X223017000Y-93330000D03*
X224287000Y-93330000D03*
X225557000Y-93330000D03*
X226827000Y-93330000D03*
X228097000Y-93330000D03*
X229367000Y-93330000D03*
X230637000Y-93330000D03*
X231907000Y-93330000D03*
X233177000Y-93330000D03*
X233177000Y-84030000D03*
X231907000Y-84030000D03*
X230637000Y-84030000D03*
X229367000Y-84030000D03*
X228097000Y-84030000D03*
X226827000Y-84030000D03*
X225557000Y-84030000D03*
X224287000Y-84030000D03*
X223017000Y-84030000D03*
X221747000Y-84030000D03*
X220477000Y-84030000D03*
X219207000Y-84030000D03*
D10*
X159320000Y-46482000D03*
X160720000Y-46482000D03*
X141540000Y-70993000D03*
X142940000Y-70993000D03*
X114870000Y-49022000D03*
X116270000Y-49022000D03*
X97090000Y-46482000D03*
X98490000Y-46482000D03*
D20*
X208534000Y-44943000D03*
X208534000Y-43983000D03*
D34*
X176850000Y-58041000D03*
X176850000Y-57021000D03*
D11*
X127635000Y-31242000D03*
D12*
X130175000Y-31242000D03*
X127635000Y-33782000D03*
X130175000Y-33782000D03*
X127635000Y-36322000D03*
X130175000Y-36322000D03*
X127635000Y-38862000D03*
X130175000Y-38862000D03*
X127635000Y-41402000D03*
X130175000Y-41402000D03*
X127635000Y-43942000D03*
X130175000Y-43942000D03*
X127635000Y-46482000D03*
X130175000Y-46482000D03*
X127635000Y-49022000D03*
X130175000Y-49022000D03*
D19*
X186458000Y-38313000D03*
X193908000Y-38313000D03*
X201358000Y-38313000D03*
X188908000Y-40513000D03*
X198908000Y-40513000D03*
X198908000Y-28363000D03*
X188908000Y-28363000D03*
X191408000Y-28363000D03*
X196408000Y-28363000D03*
D23*
X164176000Y-48905640D03*
X164176000Y-50175640D03*
X164176000Y-51445640D03*
X164176000Y-52715640D03*
X164176000Y-53985640D03*
X164176000Y-55255640D03*
X164176000Y-56525640D03*
X164176000Y-57795640D03*
X169326000Y-57795640D03*
X169326000Y-56525640D03*
X169326000Y-55255640D03*
X169326000Y-53985640D03*
X169326000Y-52715640D03*
X169326000Y-51445640D03*
X169326000Y-50175640D03*
X169326000Y-48905640D03*
D10*
X132650000Y-68453000D03*
X134050000Y-68453000D03*
X97090000Y-60833000D03*
X98490000Y-60833000D03*
D16*
X190312000Y-56386000D03*
X190312000Y-57406000D03*
D10*
X132650000Y-38862000D03*
X134050000Y-38862000D03*
X141540000Y-33782000D03*
X142940000Y-33782000D03*
D11*
X145415000Y-55753000D03*
D12*
X147955000Y-55753000D03*
X145415000Y-58293000D03*
X147955000Y-58293000D03*
X145415000Y-60833000D03*
X147955000Y-60833000D03*
X145415000Y-63373000D03*
X147955000Y-63373000D03*
X145415000Y-65913000D03*
X147955000Y-65913000D03*
X145415000Y-68453000D03*
X147955000Y-68453000D03*
X145415000Y-70993000D03*
X147955000Y-70993000D03*
X145415000Y-73533000D03*
X147955000Y-73533000D03*
D10*
X123760000Y-49022000D03*
X125160000Y-49022000D03*
X141540000Y-46482000D03*
X142940000Y-46482000D03*
D11*
X109820596Y-100545916D03*
D12*
X112360596Y-100545916D03*
X109820596Y-103085916D03*
X112360596Y-103085916D03*
X109820596Y-105625916D03*
X112360596Y-105625916D03*
X109820596Y-108165916D03*
X112360596Y-108165916D03*
X109820596Y-110705916D03*
X112360596Y-110705916D03*
X109820596Y-113245916D03*
X112360596Y-113245916D03*
X109820596Y-115785916D03*
X112360596Y-115785916D03*
X109820596Y-118325916D03*
X112360596Y-118325916D03*
D33*
X173355000Y-93345000D03*
X174625000Y-93345000D03*
X175895000Y-93345000D03*
X177165000Y-93345000D03*
X178435000Y-93345000D03*
X179705000Y-93345000D03*
X180975000Y-93345000D03*
X182245000Y-93345000D03*
X183515000Y-93345000D03*
X184785000Y-93345000D03*
X186055000Y-93345000D03*
X187325000Y-93345000D03*
X187325000Y-84045000D03*
X186055000Y-84045000D03*
X184785000Y-84045000D03*
X183515000Y-84045000D03*
X182245000Y-84045000D03*
X180975000Y-84045000D03*
X179705000Y-84045000D03*
X178435000Y-84045000D03*
X177165000Y-84045000D03*
X175895000Y-84045000D03*
X174625000Y-84045000D03*
X173355000Y-84045000D03*
D10*
X150430000Y-49022000D03*
X151830000Y-49022000D03*
D14*
X142464000Y-81353916D03*
X143484000Y-81353916D03*
D11*
X118745000Y-31242000D03*
D12*
X121285000Y-31242000D03*
X118745000Y-33782000D03*
X121285000Y-33782000D03*
X118745000Y-36322000D03*
X121285000Y-36322000D03*
X118745000Y-38862000D03*
X121285000Y-38862000D03*
X118745000Y-41402000D03*
X121285000Y-41402000D03*
X118745000Y-43942000D03*
X121285000Y-43942000D03*
X118745000Y-46482000D03*
X121285000Y-46482000D03*
X118745000Y-49022000D03*
X121285000Y-49022000D03*
D10*
X141540000Y-68453000D03*
X142940000Y-68453000D03*
D14*
X255141000Y-49784000D03*
X256161000Y-49784000D03*
D10*
X123760000Y-70993000D03*
X125160000Y-70993000D03*
X97090000Y-33782000D03*
X98490000Y-33782000D03*
X132650000Y-33782000D03*
X134050000Y-33782000D03*
X150430000Y-33782000D03*
X151830000Y-33782000D03*
D14*
X255141000Y-46482000D03*
X256161000Y-46482000D03*
D10*
X150430000Y-65913000D03*
X151830000Y-65913000D03*
X105980000Y-60833000D03*
X107380000Y-60833000D03*
X114870000Y-60833000D03*
X116270000Y-60833000D03*
X97090000Y-38862000D03*
X98490000Y-38862000D03*
D14*
X255141000Y-43180000D03*
X256161000Y-43180000D03*
D35*
X185582000Y-74803000D03*
X185582000Y-73533000D03*
X185582000Y-72263000D03*
X185582000Y-70993000D03*
X185582000Y-69723000D03*
X185582000Y-68453000D03*
X185582000Y-67183000D03*
X185582000Y-65913000D03*
X180432000Y-65913000D03*
X180432000Y-67183000D03*
X180432000Y-68453000D03*
X180432000Y-69723000D03*
X180432000Y-70993000D03*
X180432000Y-72263000D03*
X180432000Y-73533000D03*
X180432000Y-74803000D03*
D10*
X132650000Y-31242000D03*
X134050000Y-31242000D03*
X150430000Y-46482000D03*
X151830000Y-46482000D03*
D11*
X127635000Y-55753000D03*
D12*
X130175000Y-55753000D03*
X127635000Y-58293000D03*
X130175000Y-58293000D03*
X127635000Y-60833000D03*
X130175000Y-60833000D03*
X127635000Y-63373000D03*
X130175000Y-63373000D03*
X127635000Y-65913000D03*
X130175000Y-65913000D03*
X127635000Y-68453000D03*
X130175000Y-68453000D03*
X127635000Y-70993000D03*
X130175000Y-70993000D03*
X127635000Y-73533000D03*
X130175000Y-73533000D03*
D11*
X127600596Y-100545916D03*
D12*
X130140596Y-100545916D03*
X127600596Y-103085916D03*
X130140596Y-103085916D03*
X127600596Y-105625916D03*
X130140596Y-105625916D03*
X127600596Y-108165916D03*
X130140596Y-108165916D03*
X127600596Y-110705916D03*
X130140596Y-110705916D03*
X127600596Y-113245916D03*
X130140596Y-113245916D03*
X127600596Y-115785916D03*
X130140596Y-115785916D03*
X127600596Y-118325916D03*
X130140596Y-118325916D03*
D10*
X141540000Y-63373000D03*
X142940000Y-63373000D03*
X159320000Y-70993000D03*
X160720000Y-70993000D03*
D11*
X200792000Y-100745000D03*
D12*
X200792000Y-103285000D03*
X200792000Y-105825000D03*
X200792000Y-108365000D03*
X200792000Y-110905000D03*
X200792000Y-113445000D03*
X200792000Y-115985000D03*
X200792000Y-118525000D03*
X203332000Y-100745000D03*
X203332000Y-103285000D03*
X203332000Y-105825000D03*
X203332000Y-108365000D03*
X203332000Y-110905000D03*
X203332000Y-113445000D03*
X203332000Y-115985000D03*
X203332000Y-118525000D03*
X205872000Y-100745000D03*
X205872000Y-103285000D03*
X205872000Y-105825000D03*
X205872000Y-108365000D03*
X205872000Y-110905000D03*
X205872000Y-113445000D03*
X205872000Y-115985000D03*
X205872000Y-118525000D03*
D10*
X150430000Y-63373000D03*
X151830000Y-63373000D03*
D15*
X85000000Y-119000000D03*
D10*
X141540000Y-43942000D03*
X142940000Y-43942000D03*
D14*
X171194000Y-72644000D03*
X172214000Y-72644000D03*
D11*
X177800000Y-100760000D03*
D12*
X177800000Y-103300000D03*
X177800000Y-105840000D03*
X177800000Y-108380000D03*
X177800000Y-110920000D03*
X177800000Y-113460000D03*
X177800000Y-116000000D03*
X177800000Y-118540000D03*
X180340000Y-100760000D03*
X180340000Y-103300000D03*
X180340000Y-105840000D03*
X180340000Y-108380000D03*
X180340000Y-110920000D03*
X180340000Y-113460000D03*
X180340000Y-116000000D03*
X180340000Y-118540000D03*
X182880000Y-100760000D03*
X182880000Y-103300000D03*
X182880000Y-105840000D03*
X182880000Y-108380000D03*
X182880000Y-110920000D03*
X182880000Y-113460000D03*
X182880000Y-116000000D03*
X182880000Y-118540000D03*
D10*
X141540000Y-65913000D03*
X142940000Y-65913000D03*
X132650000Y-49022000D03*
X134050000Y-49022000D03*
X123760000Y-73533000D03*
X125160000Y-73533000D03*
X123760000Y-38862000D03*
X125160000Y-38862000D03*
X150430000Y-43942000D03*
X151830000Y-43942000D03*
D15*
X85000000Y-30000000D03*
D10*
X97090000Y-58293000D03*
X98490000Y-58293000D03*
X105980000Y-58293000D03*
X107380000Y-58293000D03*
X97090000Y-43942000D03*
X98490000Y-43942000D03*
X150430000Y-55753000D03*
X151830000Y-55753000D03*
D14*
X171067000Y-56525640D03*
X172087000Y-56525640D03*
D10*
X159320000Y-43942000D03*
X160720000Y-43942000D03*
X150430000Y-70993000D03*
X151830000Y-70993000D03*
X114870000Y-41402000D03*
X116270000Y-41402000D03*
D11*
X154305000Y-55753000D03*
D12*
X156845000Y-55753000D03*
X154305000Y-58293000D03*
X156845000Y-58293000D03*
X154305000Y-60833000D03*
X156845000Y-60833000D03*
X154305000Y-63373000D03*
X156845000Y-63373000D03*
X154305000Y-65913000D03*
X156845000Y-65913000D03*
X154305000Y-68453000D03*
X156845000Y-68453000D03*
X154305000Y-70993000D03*
X156845000Y-70993000D03*
X154305000Y-73533000D03*
X156845000Y-73533000D03*
D16*
X194056000Y-42810000D03*
X194056000Y-43830000D03*
D11*
X189230000Y-100760000D03*
D12*
X189230000Y-103300000D03*
X189230000Y-105840000D03*
X189230000Y-108380000D03*
X189230000Y-110920000D03*
X189230000Y-113460000D03*
X189230000Y-116000000D03*
X189230000Y-118540000D03*
X191770000Y-100760000D03*
X191770000Y-103300000D03*
X191770000Y-105840000D03*
X191770000Y-108380000D03*
X191770000Y-110920000D03*
X191770000Y-113460000D03*
X191770000Y-116000000D03*
X191770000Y-118540000D03*
X194310000Y-100760000D03*
X194310000Y-103300000D03*
X194310000Y-105840000D03*
X194310000Y-108380000D03*
X194310000Y-110920000D03*
X194310000Y-113460000D03*
X194310000Y-116000000D03*
X194310000Y-118540000D03*
D14*
X171067000Y-60335640D03*
X172087000Y-60335640D03*
D10*
X123760000Y-63373000D03*
X125160000Y-63373000D03*
D36*
X179578000Y-29337000D03*
X167640000Y-29337000D03*
D37*
X176149000Y-32131000D03*
D38*
X173609000Y-32131000D03*
X171069000Y-32131000D03*
D10*
X141540000Y-73533000D03*
X142940000Y-73533000D03*
D20*
X217302000Y-84715000D03*
X217302000Y-83755000D03*
D29*
X181229000Y-40922000D03*
X181229000Y-41882000D03*
D10*
X105980000Y-49022000D03*
X107380000Y-49022000D03*
D20*
X245364000Y-28674000D03*
X245364000Y-27714000D03*
D10*
X123760000Y-65913000D03*
X125160000Y-65913000D03*
X132650000Y-46482000D03*
X134050000Y-46482000D03*
D11*
X154265596Y-100560916D03*
D12*
X156805596Y-100560916D03*
X154265596Y-103100916D03*
X156805596Y-103100916D03*
X154265596Y-105640916D03*
X156805596Y-105640916D03*
X154265596Y-108180916D03*
X156805596Y-108180916D03*
X154265596Y-110720916D03*
X156805596Y-110720916D03*
X154265596Y-113260916D03*
X156805596Y-113260916D03*
X154265596Y-115800916D03*
X156805596Y-115800916D03*
X154265596Y-118340916D03*
X156805596Y-118340916D03*
D10*
X123760000Y-58293000D03*
X125160000Y-58293000D03*
D20*
X194442000Y-84715000D03*
X194442000Y-83755000D03*
D11*
X154305000Y-31242000D03*
D12*
X156845000Y-31242000D03*
X154305000Y-33782000D03*
X156845000Y-33782000D03*
X154305000Y-36322000D03*
X156845000Y-36322000D03*
X154305000Y-38862000D03*
X156845000Y-38862000D03*
X154305000Y-41402000D03*
X156845000Y-41402000D03*
X154305000Y-43942000D03*
X156845000Y-43942000D03*
X154305000Y-46482000D03*
X156845000Y-46482000D03*
X154305000Y-49022000D03*
X156845000Y-49022000D03*
D10*
X105980000Y-41402000D03*
X107380000Y-41402000D03*
D11*
X212217000Y-100760000D03*
D12*
X212217000Y-103300000D03*
X212217000Y-105840000D03*
X212217000Y-108380000D03*
X212217000Y-110920000D03*
X212217000Y-113460000D03*
X212217000Y-116000000D03*
X212217000Y-118540000D03*
X214757000Y-100760000D03*
X214757000Y-103300000D03*
X214757000Y-105840000D03*
X214757000Y-108380000D03*
X214757000Y-110920000D03*
X214757000Y-113460000D03*
X214757000Y-116000000D03*
X214757000Y-118540000D03*
X217297000Y-100760000D03*
X217297000Y-103300000D03*
X217297000Y-105840000D03*
X217297000Y-108380000D03*
X217297000Y-110920000D03*
X217297000Y-113460000D03*
X217297000Y-116000000D03*
X217297000Y-118540000D03*
D10*
X141540000Y-55753000D03*
X142940000Y-55753000D03*
D24*
X170660000Y-62738000D03*
X169700000Y-62738000D03*
D11*
X145380596Y-100560916D03*
D12*
X147920596Y-100560916D03*
X145380596Y-103100916D03*
X147920596Y-103100916D03*
X145380596Y-105640916D03*
X147920596Y-105640916D03*
X145380596Y-108180916D03*
X147920596Y-108180916D03*
X145380596Y-110720916D03*
X147920596Y-110720916D03*
X145380596Y-113260916D03*
X147920596Y-113260916D03*
X145380596Y-115800916D03*
X147920596Y-115800916D03*
X145380596Y-118340916D03*
X147920596Y-118340916D03*
D10*
X97090000Y-65913000D03*
X98490000Y-65913000D03*
X114870000Y-58293000D03*
X116270000Y-58293000D03*
X132650000Y-63373000D03*
X134050000Y-63373000D03*
X114870000Y-43942000D03*
X116270000Y-43942000D03*
D20*
X171450000Y-84730000D03*
X171450000Y-83770000D03*
D11*
X118710596Y-100545916D03*
D12*
X121250596Y-100545916D03*
X118710596Y-103085916D03*
X121250596Y-103085916D03*
X118710596Y-105625916D03*
X121250596Y-105625916D03*
X118710596Y-108165916D03*
X121250596Y-108165916D03*
X118710596Y-110705916D03*
X121250596Y-110705916D03*
X118710596Y-113245916D03*
X121250596Y-113245916D03*
X118710596Y-115785916D03*
X121250596Y-115785916D03*
X118710596Y-118325916D03*
X121250596Y-118325916D03*
D24*
X147135000Y-80337916D03*
X146175000Y-80337916D03*
D10*
X159320000Y-73533000D03*
X160720000Y-73533000D03*
D11*
X100965000Y-31242000D03*
D12*
X103505000Y-31242000D03*
X100965000Y-33782000D03*
X103505000Y-33782000D03*
X100965000Y-36322000D03*
X103505000Y-36322000D03*
X100965000Y-38862000D03*
X103505000Y-38862000D03*
X100965000Y-41402000D03*
X103505000Y-41402000D03*
X100965000Y-43942000D03*
X103505000Y-43942000D03*
X100965000Y-46482000D03*
X103505000Y-46482000D03*
X100965000Y-49022000D03*
X103505000Y-49022000D03*
D10*
X114870000Y-63373000D03*
X116270000Y-63373000D03*
D39*
X211838000Y-43434000D03*
X210818000Y-43434000D03*
D10*
X105980000Y-68453000D03*
X107380000Y-68453000D03*
D11*
X235072000Y-100760000D03*
D12*
X235072000Y-103300000D03*
X235072000Y-105840000D03*
X235072000Y-108380000D03*
X235072000Y-110920000D03*
X235072000Y-113460000D03*
X235072000Y-116000000D03*
X235072000Y-118540000D03*
X237612000Y-100760000D03*
X237612000Y-103300000D03*
X237612000Y-105840000D03*
X237612000Y-108380000D03*
X237612000Y-110920000D03*
X237612000Y-113460000D03*
X237612000Y-116000000D03*
X237612000Y-118540000D03*
X240152000Y-100760000D03*
X240152000Y-103300000D03*
X240152000Y-105840000D03*
X240152000Y-108380000D03*
X240152000Y-110920000D03*
X240152000Y-113460000D03*
X240152000Y-116000000D03*
X240152000Y-118540000D03*
D10*
X97090000Y-36322000D03*
X98490000Y-36322000D03*
X114870000Y-36322000D03*
X116270000Y-36322000D03*
X97090000Y-55753000D03*
X98490000Y-55753000D03*
X105980000Y-65913000D03*
X107380000Y-65913000D03*
X141540000Y-60833000D03*
X142940000Y-60833000D03*
X141540000Y-58293000D03*
X142940000Y-58293000D03*
X97090000Y-68453000D03*
X98490000Y-68453000D03*
D11*
X118745000Y-55753000D03*
D12*
X121285000Y-55753000D03*
X118745000Y-58293000D03*
X121285000Y-58293000D03*
X118745000Y-60833000D03*
X121285000Y-60833000D03*
X118745000Y-63373000D03*
X121285000Y-63373000D03*
X118745000Y-65913000D03*
X121285000Y-65913000D03*
X118745000Y-68453000D03*
X121285000Y-68453000D03*
X118745000Y-70993000D03*
X121285000Y-70993000D03*
X118745000Y-73533000D03*
X121285000Y-73533000D03*
D40*
X254409000Y-71755000D03*
X255369000Y-71755000D03*
D14*
X171194000Y-65024000D03*
X172214000Y-65024000D03*
D10*
X159320000Y-49022000D03*
X160720000Y-49022000D03*
D27*
X196662000Y-44336000D03*
D28*
X196662000Y-46876000D03*
D27*
X196662000Y-49416000D03*
X196662000Y-51956000D03*
X206182000Y-51956000D03*
X206182000Y-49416000D03*
X206182000Y-46876000D03*
X206182000Y-44336000D03*
D10*
X159320000Y-31242000D03*
X160720000Y-31242000D03*
X123760000Y-68453000D03*
X125160000Y-68453000D03*
X159320000Y-68453000D03*
X160720000Y-68453000D03*
M02*
