G75*
%MOIN*%
%OFA0B0*%
%FSLAX25Y25*%
%IPPOS*%
%LPD*%
%AMOC8*
5,1,8,0,0,1.08239X$1,22.5*
%
%ADD10C,0.00000*%
%ADD11C,0.07000*%
%ADD12C,0.13400*%
%ADD13C,0.09400*%
%ADD14C,0.08668*%
%ADD15C,0.07400*%
%ADD16C,0.24022*%
D10*
X0001500Y0001500D02*
X0001500Y0394500D01*
X0394500Y0394500D01*
X0394500Y0001500D01*
X0001500Y0001500D01*
D11*
X0013500Y0036500D03*
X0013500Y0046500D03*
X0023500Y0046500D03*
X0023500Y0036500D03*
X0036500Y0036500D03*
X0036500Y0046500D03*
X0046500Y0046500D03*
X0046500Y0036500D03*
X0059500Y0036500D03*
X0059500Y0046500D03*
X0069500Y0046500D03*
X0069500Y0036500D03*
X0082500Y0036500D03*
X0082500Y0046500D03*
X0082500Y0056500D03*
X0082500Y0066500D03*
X0082500Y0076500D03*
X0082500Y0086500D03*
X0092500Y0086500D03*
X0092500Y0076500D03*
X0092500Y0066500D03*
X0092500Y0056500D03*
X0092500Y0046500D03*
X0092500Y0036500D03*
X0105500Y0036500D03*
X0105500Y0046500D03*
X0105500Y0056500D03*
X0105500Y0066500D03*
X0105500Y0076500D03*
X0105500Y0086500D03*
X0115500Y0086500D03*
X0115500Y0076500D03*
X0115500Y0066500D03*
X0115500Y0056500D03*
X0115500Y0046500D03*
X0115500Y0036500D03*
X0128500Y0036500D03*
X0128500Y0046500D03*
X0138500Y0046500D03*
X0138500Y0036500D03*
X0151500Y0036500D03*
X0151500Y0046500D03*
X0161500Y0046500D03*
X0161500Y0036500D03*
X0174500Y0036500D03*
X0174500Y0046500D03*
X0184500Y0046500D03*
X0184500Y0036500D03*
X0184500Y0056500D03*
X0184500Y0066500D03*
X0174500Y0066500D03*
X0174500Y0056500D03*
X0161500Y0056500D03*
X0161500Y0066500D03*
X0151500Y0066500D03*
X0151500Y0056500D03*
X0138500Y0056500D03*
X0138500Y0066500D03*
X0128500Y0066500D03*
X0128500Y0056500D03*
X0128500Y0076500D03*
X0128500Y0086500D03*
X0138500Y0086500D03*
X0138500Y0076500D03*
X0151500Y0076500D03*
X0151500Y0086500D03*
X0161500Y0086500D03*
X0161500Y0076500D03*
X0174500Y0076500D03*
X0174500Y0086500D03*
X0184500Y0086500D03*
X0184500Y0076500D03*
X0069500Y0076500D03*
X0069500Y0086500D03*
X0059500Y0086500D03*
X0059500Y0076500D03*
X0059500Y0066500D03*
X0059500Y0056500D03*
X0069500Y0056500D03*
X0069500Y0066500D03*
X0046500Y0066500D03*
X0046500Y0056500D03*
X0036500Y0056500D03*
X0036500Y0066500D03*
X0036500Y0076500D03*
X0036500Y0086500D03*
X0046500Y0086500D03*
X0046500Y0076500D03*
X0023500Y0076500D03*
X0023500Y0086500D03*
X0013500Y0086500D03*
X0013500Y0076500D03*
X0013500Y0066500D03*
X0013500Y0056500D03*
X0023500Y0056500D03*
X0023500Y0066500D03*
X0240579Y0333700D03*
X0240579Y0341500D03*
X0250421Y0341500D03*
X0250421Y0333700D03*
X0305500Y0270500D03*
X0315500Y0270500D03*
X0325500Y0270500D03*
X0320500Y0246500D03*
X0320500Y0236500D03*
X0320500Y0226500D03*
X0320500Y0216500D03*
X0320500Y0206500D03*
X0320500Y0196500D03*
X0320500Y0186500D03*
X0320500Y0176500D03*
X0330500Y0176500D03*
X0340500Y0176500D03*
X0340500Y0186500D03*
X0340500Y0196500D03*
X0330500Y0196500D03*
X0330500Y0186500D03*
X0330500Y0206500D03*
X0330500Y0216500D03*
X0340500Y0216500D03*
X0340500Y0206500D03*
X0340500Y0226500D03*
X0340500Y0236500D03*
X0330500Y0236500D03*
X0330500Y0226500D03*
X0330500Y0246500D03*
X0340500Y0246500D03*
X0352500Y0266500D03*
X0352500Y0276500D03*
X0352500Y0286500D03*
X0381500Y0286500D03*
X0381500Y0276500D03*
X0381500Y0266500D03*
X0381500Y0246500D03*
X0381500Y0236500D03*
X0381500Y0226500D03*
X0381500Y0216500D03*
X0381500Y0206500D03*
X0381500Y0196500D03*
X0381500Y0186500D03*
X0381500Y0176500D03*
X0371500Y0176500D03*
X0361500Y0176500D03*
X0361500Y0186500D03*
X0361500Y0196500D03*
X0371500Y0196500D03*
X0371500Y0186500D03*
X0371500Y0206500D03*
X0371500Y0216500D03*
X0361500Y0216500D03*
X0361500Y0206500D03*
X0361500Y0226500D03*
X0361500Y0236500D03*
X0371500Y0236500D03*
X0371500Y0226500D03*
X0371500Y0246500D03*
X0361500Y0246500D03*
X0361500Y0153500D03*
X0361500Y0143500D03*
X0371500Y0143500D03*
X0371500Y0153500D03*
X0381500Y0153500D03*
X0381500Y0143500D03*
X0381500Y0133500D03*
X0381500Y0123500D03*
X0381500Y0113500D03*
X0381500Y0103500D03*
X0381500Y0093500D03*
X0381500Y0083500D03*
X0371500Y0083500D03*
X0371500Y0093500D03*
X0361500Y0093500D03*
X0361500Y0083500D03*
X0361500Y0103500D03*
X0361500Y0113500D03*
X0371500Y0113500D03*
X0371500Y0103500D03*
X0371500Y0123500D03*
X0371500Y0133500D03*
X0361500Y0133500D03*
X0361500Y0123500D03*
X0340500Y0123500D03*
X0340500Y0133500D03*
X0330500Y0133500D03*
X0330500Y0123500D03*
X0330500Y0113500D03*
X0330500Y0103500D03*
X0340500Y0103500D03*
X0340500Y0113500D03*
X0340500Y0093500D03*
X0340500Y0083500D03*
X0330500Y0083500D03*
X0330500Y0093500D03*
X0320500Y0093500D03*
X0320500Y0083500D03*
X0320500Y0103500D03*
X0320500Y0113500D03*
X0320500Y0123500D03*
X0320500Y0133500D03*
X0320500Y0143500D03*
X0320500Y0153500D03*
X0330500Y0153500D03*
X0330500Y0143500D03*
X0340500Y0143500D03*
X0340500Y0153500D03*
D12*
X0269200Y0352200D03*
X0221800Y0352200D03*
D13*
X0194635Y0342227D03*
X0184635Y0332306D03*
X0164989Y0342187D03*
X0145265Y0332266D03*
X0135540Y0342227D03*
X0103135Y0342227D03*
X0093135Y0332306D03*
X0073489Y0342187D03*
X0053765Y0332266D03*
X0044040Y0342227D03*
D14*
X0053735Y0382027D03*
X0063335Y0382027D03*
X0083435Y0382027D03*
X0093135Y0382027D03*
X0145235Y0382027D03*
X0154835Y0382027D03*
X0174935Y0382027D03*
X0184635Y0382027D03*
D15*
X0158500Y0259500D03*
X0158500Y0249500D03*
X0158500Y0239500D03*
X0158500Y0229500D03*
X0158500Y0219500D03*
X0158500Y0209500D03*
X0158500Y0199500D03*
X0158500Y0189500D03*
X0148500Y0189500D03*
X0148500Y0199500D03*
X0148500Y0209500D03*
X0148500Y0219500D03*
X0148500Y0229500D03*
X0148500Y0239500D03*
X0148500Y0249500D03*
X0148500Y0259500D03*
X0113500Y0259500D03*
X0113500Y0249500D03*
X0103500Y0249500D03*
X0103500Y0259500D03*
X0103500Y0239500D03*
X0113500Y0239500D03*
X0113500Y0229500D03*
X0113500Y0219500D03*
X0103500Y0219500D03*
X0103500Y0229500D03*
X0103500Y0209500D03*
X0103500Y0199500D03*
X0113500Y0199500D03*
X0113500Y0209500D03*
X0113500Y0189500D03*
X0103500Y0189500D03*
X0103500Y0173500D03*
X0103500Y0163500D03*
X0113500Y0163500D03*
X0113500Y0173500D03*
X0113500Y0153500D03*
X0113500Y0143500D03*
X0103500Y0143500D03*
X0103500Y0153500D03*
X0103500Y0133500D03*
X0103500Y0123500D03*
X0113500Y0123500D03*
X0113500Y0133500D03*
X0113500Y0113500D03*
X0113500Y0103500D03*
X0103500Y0103500D03*
X0103500Y0113500D03*
X0068500Y0113500D03*
X0068500Y0103500D03*
X0058500Y0103500D03*
X0058500Y0113500D03*
X0058500Y0123500D03*
X0058500Y0133500D03*
X0058500Y0143500D03*
X0058500Y0153500D03*
X0058500Y0163500D03*
X0058500Y0173500D03*
X0068500Y0173500D03*
X0068500Y0163500D03*
X0068500Y0153500D03*
X0068500Y0143500D03*
X0068500Y0133500D03*
X0068500Y0123500D03*
X0023500Y0123500D03*
X0023500Y0133500D03*
X0013500Y0133500D03*
X0013500Y0123500D03*
X0013500Y0113500D03*
X0013500Y0103500D03*
X0023500Y0103500D03*
X0023500Y0113500D03*
X0023500Y0143500D03*
X0023500Y0153500D03*
X0013500Y0153500D03*
X0013500Y0143500D03*
X0013500Y0163500D03*
X0013500Y0173500D03*
X0023500Y0173500D03*
X0023500Y0163500D03*
X0023500Y0189500D03*
X0013500Y0189500D03*
X0013500Y0199500D03*
X0013500Y0209500D03*
X0023500Y0209500D03*
X0023500Y0199500D03*
X0023500Y0219500D03*
X0023500Y0229500D03*
X0013500Y0229500D03*
X0013500Y0219500D03*
X0013500Y0239500D03*
X0023500Y0239500D03*
X0023500Y0249500D03*
X0023500Y0259500D03*
X0013500Y0259500D03*
X0013500Y0249500D03*
X0058500Y0249500D03*
X0058500Y0259500D03*
X0068500Y0259500D03*
X0068500Y0249500D03*
X0068500Y0239500D03*
X0068500Y0229500D03*
X0068500Y0219500D03*
X0068500Y0209500D03*
X0068500Y0199500D03*
X0068500Y0189500D03*
X0058500Y0189500D03*
X0058500Y0199500D03*
X0058500Y0209500D03*
X0058500Y0219500D03*
X0058500Y0229500D03*
X0058500Y0239500D03*
X0148500Y0173500D03*
X0148500Y0163500D03*
X0148500Y0153500D03*
X0148500Y0143500D03*
X0148500Y0133500D03*
X0148500Y0123500D03*
X0148500Y0113500D03*
X0148500Y0103500D03*
X0158500Y0103500D03*
X0158500Y0113500D03*
X0158500Y0123500D03*
X0158500Y0133500D03*
X0158500Y0143500D03*
X0158500Y0153500D03*
X0158500Y0163500D03*
X0158500Y0173500D03*
X0385500Y0352500D03*
X0385500Y0362500D03*
D16*
X0380500Y0380500D03*
X0380500Y0015500D03*
X0015500Y0015500D03*
X0015500Y0380500D03*
M02*
