G75*
%MOIN*%
%OFA0B0*%
%FSLAX25Y25*%
%IPPOS*%
%LPD*%
%AMOC8*
5,1,8,0,0,1.08239X$1,22.5*
%
%ADD10C,0.00000*%
%ADD11C,0.00600*%
%ADD12C,0.03000*%
%ADD13C,0.00800*%
%ADD14C,0.00500*%
%ADD15C,0.01000*%
%ADD16C,0.01200*%
D10*
X0001500Y0001500D02*
X0001500Y0394500D01*
X0394500Y0394500D01*
X0394500Y0001500D01*
X0001500Y0001500D01*
D11*
X0024367Y0026800D02*
X0025501Y0026800D01*
X0026069Y0027367D01*
X0027483Y0026800D02*
X0029752Y0026800D01*
X0028617Y0026800D02*
X0028617Y0030203D01*
X0027483Y0029069D01*
X0026069Y0029636D02*
X0025501Y0030203D01*
X0024367Y0030203D01*
X0023800Y0029636D01*
X0023800Y0027367D01*
X0024367Y0026800D01*
X0026000Y0031500D02*
X0011000Y0031500D01*
X0008500Y0034000D01*
X0008500Y0039000D01*
X0011000Y0041500D01*
X0026000Y0041500D01*
X0028500Y0039000D01*
X0028500Y0034000D01*
X0026000Y0031500D01*
X0031500Y0034000D02*
X0031500Y0039000D01*
X0034000Y0041500D01*
X0049000Y0041500D01*
X0051500Y0039000D01*
X0051500Y0034000D01*
X0049000Y0031500D01*
X0034000Y0031500D01*
X0031500Y0034000D01*
X0034000Y0041500D02*
X0031500Y0044000D01*
X0031500Y0049000D01*
X0034000Y0051500D01*
X0049000Y0051500D01*
X0051500Y0049000D01*
X0051500Y0044000D01*
X0049000Y0041500D01*
X0054500Y0039000D02*
X0054500Y0034000D01*
X0057000Y0031500D01*
X0072000Y0031500D01*
X0074500Y0034000D01*
X0074500Y0039000D01*
X0072000Y0041500D01*
X0057000Y0041500D01*
X0054500Y0039000D01*
X0057000Y0041500D02*
X0054500Y0044000D01*
X0054500Y0049000D01*
X0057000Y0051500D01*
X0072000Y0051500D01*
X0074500Y0049000D01*
X0074500Y0044000D01*
X0072000Y0041500D01*
X0077500Y0039000D02*
X0077500Y0034000D01*
X0080000Y0031500D01*
X0095000Y0031500D01*
X0097500Y0034000D01*
X0097500Y0039000D01*
X0095000Y0041500D01*
X0080000Y0041500D01*
X0077500Y0039000D01*
X0080000Y0041500D02*
X0077500Y0044000D01*
X0077500Y0049000D01*
X0080000Y0051500D01*
X0095000Y0051500D01*
X0097500Y0049000D01*
X0097500Y0044000D01*
X0095000Y0041500D01*
X0100500Y0039000D02*
X0100500Y0034000D01*
X0103000Y0031500D01*
X0118000Y0031500D01*
X0120500Y0034000D01*
X0120500Y0039000D01*
X0118000Y0041500D01*
X0103000Y0041500D01*
X0100500Y0039000D01*
X0103000Y0041500D02*
X0100500Y0044000D01*
X0100500Y0049000D01*
X0103000Y0051500D01*
X0118000Y0051500D01*
X0120500Y0049000D01*
X0120500Y0044000D01*
X0118000Y0041500D01*
X0123500Y0039000D02*
X0123500Y0034000D01*
X0126000Y0031500D01*
X0141000Y0031500D01*
X0143500Y0034000D01*
X0143500Y0039000D01*
X0141000Y0041500D01*
X0126000Y0041500D01*
X0123500Y0039000D01*
X0126000Y0041500D02*
X0123500Y0044000D01*
X0123500Y0049000D01*
X0126000Y0051500D01*
X0141000Y0051500D01*
X0143500Y0049000D01*
X0143500Y0044000D01*
X0141000Y0041500D01*
X0146500Y0039000D02*
X0146500Y0034000D01*
X0149000Y0031500D01*
X0164000Y0031500D01*
X0166500Y0034000D01*
X0166500Y0039000D01*
X0164000Y0041500D01*
X0149000Y0041500D01*
X0146500Y0039000D01*
X0149000Y0041500D02*
X0146500Y0044000D01*
X0146500Y0049000D01*
X0149000Y0051500D01*
X0164000Y0051500D01*
X0166500Y0049000D01*
X0166500Y0044000D01*
X0164000Y0041500D01*
X0169500Y0039000D02*
X0169500Y0034000D01*
X0172000Y0031500D01*
X0187000Y0031500D01*
X0189500Y0034000D01*
X0189500Y0039000D01*
X0187000Y0041500D01*
X0172000Y0041500D01*
X0169500Y0039000D01*
X0172000Y0041500D02*
X0169500Y0044000D01*
X0169500Y0049000D01*
X0172000Y0051500D01*
X0187000Y0051500D01*
X0189500Y0049000D01*
X0189500Y0044000D01*
X0187000Y0041500D01*
X0187000Y0051500D02*
X0189500Y0054000D01*
X0189500Y0059000D01*
X0187000Y0061500D01*
X0172000Y0061500D01*
X0169500Y0059000D01*
X0169500Y0054000D01*
X0172000Y0051500D01*
X0166500Y0054000D02*
X0166500Y0059000D01*
X0164000Y0061500D01*
X0149000Y0061500D01*
X0146500Y0059000D01*
X0146500Y0054000D01*
X0149000Y0051500D01*
X0143500Y0054000D02*
X0143500Y0059000D01*
X0141000Y0061500D01*
X0126000Y0061500D01*
X0123500Y0059000D01*
X0123500Y0054000D01*
X0126000Y0051500D01*
X0120500Y0054000D02*
X0120500Y0059000D01*
X0118000Y0061500D01*
X0103000Y0061500D01*
X0100500Y0059000D01*
X0100500Y0054000D01*
X0103000Y0051500D01*
X0097500Y0054000D02*
X0095000Y0051500D01*
X0097500Y0054000D02*
X0097500Y0059000D01*
X0095000Y0061500D01*
X0080000Y0061500D01*
X0077500Y0059000D01*
X0077500Y0054000D01*
X0080000Y0051500D01*
X0074500Y0054000D02*
X0072000Y0051500D01*
X0074500Y0054000D02*
X0074500Y0059000D01*
X0072000Y0061500D01*
X0057000Y0061500D01*
X0054500Y0059000D01*
X0054500Y0054000D01*
X0057000Y0051500D01*
X0051500Y0054000D02*
X0051500Y0059000D01*
X0049000Y0061500D01*
X0034000Y0061500D01*
X0031500Y0059000D01*
X0031500Y0054000D01*
X0034000Y0051500D01*
X0028500Y0049000D02*
X0028500Y0044000D01*
X0026000Y0041500D01*
X0028500Y0049000D02*
X0026000Y0051500D01*
X0011000Y0051500D01*
X0008500Y0049000D01*
X0008500Y0044000D01*
X0011000Y0041500D01*
X0007200Y0043800D02*
X0003797Y0043800D01*
X0003797Y0045501D01*
X0004364Y0046069D01*
X0005499Y0046069D01*
X0006066Y0045501D01*
X0006066Y0043800D01*
X0006066Y0044934D02*
X0007200Y0046069D01*
X0006633Y0047483D02*
X0007200Y0048050D01*
X0007200Y0049185D01*
X0006633Y0049752D01*
X0005499Y0049752D01*
X0004931Y0049185D01*
X0004931Y0048617D01*
X0005499Y0047483D01*
X0003797Y0047483D01*
X0003797Y0049752D01*
X0003797Y0053800D02*
X0003797Y0055501D01*
X0004364Y0056069D01*
X0005499Y0056069D01*
X0006066Y0055501D01*
X0006066Y0053800D01*
X0007200Y0053800D02*
X0003797Y0053800D01*
X0006066Y0054934D02*
X0007200Y0056069D01*
X0005499Y0057483D02*
X0005499Y0059752D01*
X0007200Y0059185D02*
X0003797Y0059185D01*
X0005499Y0057483D01*
X0008500Y0059000D02*
X0008500Y0054000D01*
X0011000Y0051500D01*
X0008500Y0059000D02*
X0011000Y0061500D01*
X0026000Y0061500D01*
X0028500Y0059000D01*
X0028500Y0054000D01*
X0026000Y0051500D01*
X0026000Y0061500D02*
X0028500Y0064000D01*
X0028500Y0069000D01*
X0026000Y0071500D01*
X0011000Y0071500D01*
X0008500Y0069000D01*
X0008500Y0064000D01*
X0011000Y0061500D01*
X0007200Y0063800D02*
X0003797Y0063800D01*
X0003797Y0065501D01*
X0004364Y0066069D01*
X0005499Y0066069D01*
X0006066Y0065501D01*
X0006066Y0063800D01*
X0006066Y0064934D02*
X0007200Y0066069D01*
X0006633Y0067483D02*
X0007200Y0068050D01*
X0007200Y0069185D01*
X0006633Y0069752D01*
X0006066Y0069752D01*
X0005499Y0069185D01*
X0005499Y0068617D01*
X0005499Y0069185D02*
X0004931Y0069752D01*
X0004364Y0069752D01*
X0003797Y0069185D01*
X0003797Y0068050D01*
X0004364Y0067483D01*
X0003797Y0073800D02*
X0003797Y0075501D01*
X0004364Y0076069D01*
X0005499Y0076069D01*
X0006066Y0075501D01*
X0006066Y0073800D01*
X0007200Y0073800D02*
X0003797Y0073800D01*
X0006066Y0074934D02*
X0007200Y0076069D01*
X0007200Y0077483D02*
X0004931Y0079752D01*
X0004364Y0079752D01*
X0003797Y0079185D01*
X0003797Y0078050D01*
X0004364Y0077483D01*
X0007200Y0077483D02*
X0007200Y0079752D01*
X0008500Y0079000D02*
X0008500Y0074000D01*
X0011000Y0071500D01*
X0008500Y0079000D02*
X0011000Y0081500D01*
X0026000Y0081500D01*
X0028500Y0079000D01*
X0028500Y0074000D01*
X0026000Y0071500D01*
X0031500Y0069000D02*
X0031500Y0064000D01*
X0034000Y0061500D01*
X0031500Y0069000D02*
X0034000Y0071500D01*
X0049000Y0071500D01*
X0051500Y0069000D01*
X0051500Y0064000D01*
X0049000Y0061500D01*
X0054500Y0064000D02*
X0054500Y0069000D01*
X0057000Y0071500D01*
X0072000Y0071500D01*
X0074500Y0069000D01*
X0074500Y0064000D01*
X0072000Y0061500D01*
X0077500Y0064000D02*
X0077500Y0069000D01*
X0080000Y0071500D01*
X0095000Y0071500D01*
X0097500Y0069000D01*
X0097500Y0064000D01*
X0095000Y0061500D01*
X0100500Y0064000D02*
X0100500Y0069000D01*
X0103000Y0071500D01*
X0118000Y0071500D01*
X0120500Y0069000D01*
X0120500Y0064000D01*
X0118000Y0061500D01*
X0123500Y0064000D02*
X0123500Y0069000D01*
X0126000Y0071500D01*
X0141000Y0071500D01*
X0143500Y0069000D01*
X0143500Y0064000D01*
X0141000Y0061500D01*
X0146500Y0064000D02*
X0146500Y0069000D01*
X0149000Y0071500D01*
X0164000Y0071500D01*
X0166500Y0069000D01*
X0166500Y0064000D01*
X0164000Y0061500D01*
X0169500Y0064000D02*
X0169500Y0069000D01*
X0172000Y0071500D01*
X0187000Y0071500D01*
X0189500Y0069000D01*
X0189500Y0064000D01*
X0187000Y0061500D01*
X0187000Y0071500D02*
X0189500Y0074000D01*
X0189500Y0079000D01*
X0187000Y0081500D01*
X0172000Y0081500D01*
X0169500Y0079000D01*
X0169500Y0074000D01*
X0172000Y0071500D01*
X0166500Y0074000D02*
X0166500Y0079000D01*
X0164000Y0081500D01*
X0149000Y0081500D01*
X0146500Y0079000D01*
X0146500Y0074000D01*
X0149000Y0071500D01*
X0143500Y0074000D02*
X0143500Y0079000D01*
X0141000Y0081500D01*
X0126000Y0081500D01*
X0123500Y0079000D01*
X0123500Y0074000D01*
X0126000Y0071500D01*
X0120500Y0074000D02*
X0120500Y0079000D01*
X0118000Y0081500D01*
X0103000Y0081500D01*
X0100500Y0079000D01*
X0100500Y0074000D01*
X0103000Y0071500D01*
X0097500Y0074000D02*
X0095000Y0071500D01*
X0097500Y0074000D02*
X0097500Y0079000D01*
X0095000Y0081500D01*
X0080000Y0081500D01*
X0077500Y0079000D01*
X0077500Y0074000D01*
X0080000Y0071500D01*
X0074500Y0074000D02*
X0072000Y0071500D01*
X0074500Y0074000D02*
X0074500Y0079000D01*
X0072000Y0081500D01*
X0057000Y0081500D01*
X0054500Y0079000D01*
X0054500Y0074000D01*
X0057000Y0071500D01*
X0051500Y0074000D02*
X0051500Y0079000D01*
X0049000Y0081500D01*
X0034000Y0081500D01*
X0031500Y0079000D01*
X0031500Y0074000D01*
X0034000Y0071500D01*
X0034000Y0081500D02*
X0031500Y0084000D01*
X0031500Y0089000D01*
X0034000Y0091500D01*
X0049000Y0091500D01*
X0051500Y0089000D01*
X0051500Y0084000D01*
X0049000Y0081500D01*
X0054500Y0084000D02*
X0054500Y0089000D01*
X0057000Y0091500D01*
X0072000Y0091500D01*
X0074500Y0089000D01*
X0074500Y0084000D01*
X0072000Y0081500D01*
X0077500Y0084000D02*
X0077500Y0089000D01*
X0080000Y0091500D01*
X0095000Y0091500D01*
X0097500Y0089000D01*
X0097500Y0084000D01*
X0095000Y0081500D01*
X0100500Y0084000D02*
X0100500Y0089000D01*
X0103000Y0091500D01*
X0118000Y0091500D01*
X0120500Y0089000D01*
X0120500Y0084000D01*
X0118000Y0081500D01*
X0123500Y0084000D02*
X0123500Y0089000D01*
X0126000Y0091500D01*
X0141000Y0091500D01*
X0143500Y0089000D01*
X0143500Y0084000D01*
X0141000Y0081500D01*
X0146500Y0084000D02*
X0146500Y0089000D01*
X0149000Y0091500D01*
X0164000Y0091500D01*
X0166500Y0089000D01*
X0166500Y0084000D01*
X0164000Y0081500D01*
X0169500Y0084000D02*
X0169500Y0089000D01*
X0172000Y0091500D01*
X0187000Y0091500D01*
X0189500Y0089000D01*
X0189500Y0084000D01*
X0187000Y0081500D01*
X0180868Y0092800D02*
X0179733Y0092800D01*
X0179166Y0093367D01*
X0179166Y0093934D01*
X0179733Y0094501D01*
X0180868Y0094501D01*
X0181435Y0093934D01*
X0181435Y0093367D01*
X0180868Y0092800D01*
X0180868Y0094501D02*
X0181435Y0095069D01*
X0181435Y0095636D01*
X0180868Y0096203D01*
X0179733Y0096203D01*
X0179166Y0095636D01*
X0179166Y0095069D01*
X0179733Y0094501D01*
X0177752Y0094501D02*
X0175483Y0094501D01*
X0175483Y0092800D02*
X0175483Y0096203D01*
X0174069Y0095636D02*
X0174069Y0093367D01*
X0173501Y0092800D01*
X0172367Y0092800D01*
X0171800Y0093367D01*
X0171800Y0095636D01*
X0172367Y0096203D01*
X0173501Y0096203D01*
X0174069Y0095636D01*
X0177752Y0096203D02*
X0177752Y0092800D01*
X0176900Y0102900D02*
X0180100Y0102900D01*
X0180100Y0105100D01*
X0180100Y0111900D02*
X0180100Y0114100D01*
X0176900Y0114100D01*
X0176185Y0115300D02*
X0175050Y0115300D01*
X0174483Y0115867D01*
X0173069Y0115867D02*
X0173069Y0118136D01*
X0172501Y0118703D01*
X0170800Y0118703D01*
X0170800Y0115300D01*
X0172501Y0115300D01*
X0173069Y0115867D01*
X0174483Y0118136D02*
X0175050Y0118703D01*
X0176185Y0118703D01*
X0176752Y0118136D01*
X0176752Y0117569D01*
X0176185Y0117001D01*
X0176752Y0116434D01*
X0176752Y0115867D01*
X0176185Y0115300D01*
X0176185Y0117001D02*
X0175617Y0117001D01*
X0178166Y0115867D02*
X0178733Y0115300D01*
X0179868Y0115300D01*
X0180435Y0115867D01*
X0180435Y0116434D01*
X0179868Y0117001D01*
X0179301Y0117001D01*
X0179868Y0117001D02*
X0180435Y0117569D01*
X0180435Y0118136D01*
X0179868Y0118703D01*
X0178733Y0118703D01*
X0178166Y0118136D01*
X0176900Y0122900D02*
X0180100Y0122900D01*
X0180100Y0125100D01*
X0180100Y0131900D02*
X0180100Y0134100D01*
X0176900Y0134100D01*
X0176752Y0135300D02*
X0174483Y0135300D01*
X0176752Y0137569D01*
X0176752Y0138136D01*
X0176185Y0138703D01*
X0175050Y0138703D01*
X0174483Y0138136D01*
X0173069Y0138136D02*
X0172501Y0138703D01*
X0170800Y0138703D01*
X0170800Y0135300D01*
X0172501Y0135300D01*
X0173069Y0135867D01*
X0173069Y0138136D01*
X0178166Y0138136D02*
X0178166Y0137569D01*
X0178733Y0137001D01*
X0180435Y0137001D01*
X0180435Y0135867D02*
X0180435Y0138136D01*
X0179868Y0138703D01*
X0178733Y0138703D01*
X0178166Y0138136D01*
X0178166Y0135867D02*
X0178733Y0135300D01*
X0179868Y0135300D01*
X0180435Y0135867D01*
X0180100Y0142900D02*
X0176900Y0142900D01*
X0180100Y0142900D02*
X0180100Y0145100D01*
X0180100Y0151900D02*
X0180100Y0154100D01*
X0176900Y0154100D01*
X0176752Y0155300D02*
X0174483Y0155300D01*
X0176752Y0157569D01*
X0176752Y0158136D01*
X0176185Y0158703D01*
X0175050Y0158703D01*
X0174483Y0158136D01*
X0173069Y0158136D02*
X0172501Y0158703D01*
X0170800Y0158703D01*
X0170800Y0155300D01*
X0172501Y0155300D01*
X0173069Y0155867D01*
X0173069Y0158136D01*
X0178166Y0158703D02*
X0178166Y0157001D01*
X0179301Y0157569D01*
X0179868Y0157569D01*
X0180435Y0157001D01*
X0180435Y0155867D01*
X0179868Y0155300D01*
X0178733Y0155300D01*
X0178166Y0155867D01*
X0178166Y0158703D02*
X0180435Y0158703D01*
X0180100Y0162900D02*
X0176900Y0162900D01*
X0180100Y0162900D02*
X0180100Y0165100D01*
X0180100Y0171900D02*
X0180100Y0174100D01*
X0176900Y0174100D01*
X0176752Y0175300D02*
X0174483Y0175300D01*
X0176752Y0177569D01*
X0176752Y0178136D01*
X0176185Y0178703D01*
X0175050Y0178703D01*
X0174483Y0178136D01*
X0173069Y0178136D02*
X0172501Y0178703D01*
X0170800Y0178703D01*
X0170800Y0175300D01*
X0172501Y0175300D01*
X0173069Y0175867D01*
X0173069Y0178136D01*
X0178166Y0177569D02*
X0179301Y0178703D01*
X0179301Y0175300D01*
X0180435Y0175300D02*
X0178166Y0175300D01*
X0167700Y0175050D02*
X0167133Y0174483D01*
X0167700Y0175050D02*
X0167700Y0176185D01*
X0167133Y0176752D01*
X0165999Y0176752D01*
X0165431Y0176185D01*
X0165431Y0175617D01*
X0165999Y0174483D01*
X0164297Y0174483D01*
X0164297Y0176752D01*
X0163500Y0176000D02*
X0163500Y0171000D01*
X0161000Y0168500D01*
X0146000Y0168500D01*
X0143500Y0166000D01*
X0143500Y0161000D01*
X0146000Y0158500D01*
X0161000Y0158500D01*
X0163500Y0156000D01*
X0163500Y0151000D01*
X0161000Y0148500D01*
X0146000Y0148500D01*
X0143500Y0146000D01*
X0143500Y0141000D01*
X0146000Y0138500D01*
X0161000Y0138500D01*
X0163500Y0136000D01*
X0163500Y0131000D01*
X0161000Y0128500D01*
X0146000Y0128500D01*
X0143500Y0126000D01*
X0143500Y0121000D01*
X0146000Y0118500D01*
X0161000Y0118500D01*
X0163500Y0116000D01*
X0163500Y0111000D01*
X0161000Y0108500D01*
X0163500Y0106000D01*
X0163500Y0101000D01*
X0161000Y0098500D01*
X0146000Y0098500D01*
X0143500Y0101000D01*
X0143500Y0106000D01*
X0146000Y0108500D01*
X0161000Y0108500D01*
X0164297Y0106752D02*
X0164864Y0106752D01*
X0167133Y0104483D01*
X0167700Y0104483D01*
X0167700Y0103069D02*
X0166566Y0101934D01*
X0166566Y0102501D02*
X0166566Y0100800D01*
X0167700Y0100800D02*
X0164297Y0100800D01*
X0164297Y0102501D01*
X0164864Y0103069D01*
X0165999Y0103069D01*
X0166566Y0102501D01*
X0164297Y0104483D02*
X0164297Y0106752D01*
X0164297Y0110800D02*
X0164297Y0112501D01*
X0164864Y0113069D01*
X0165999Y0113069D01*
X0166566Y0112501D01*
X0166566Y0110800D01*
X0167700Y0110800D02*
X0164297Y0110800D01*
X0166566Y0111934D02*
X0167700Y0113069D01*
X0167133Y0114483D02*
X0166566Y0114483D01*
X0165999Y0115050D01*
X0165999Y0116185D01*
X0166566Y0116752D01*
X0167133Y0116752D01*
X0167700Y0116185D01*
X0167700Y0115050D01*
X0167133Y0114483D01*
X0165999Y0115050D02*
X0165431Y0114483D01*
X0164864Y0114483D01*
X0164297Y0115050D01*
X0164297Y0116185D01*
X0164864Y0116752D01*
X0165431Y0116752D01*
X0165999Y0116185D01*
X0166566Y0120800D02*
X0166566Y0122501D01*
X0165999Y0123069D01*
X0164864Y0123069D01*
X0164297Y0122501D01*
X0164297Y0120800D01*
X0167700Y0120800D01*
X0166566Y0121934D02*
X0167700Y0123069D01*
X0167133Y0124483D02*
X0166566Y0124483D01*
X0165999Y0125050D01*
X0165999Y0126185D01*
X0166566Y0126752D01*
X0167133Y0126752D01*
X0167700Y0126185D01*
X0167700Y0125050D01*
X0167133Y0124483D01*
X0165999Y0125050D02*
X0165431Y0124483D01*
X0164864Y0124483D01*
X0164297Y0125050D01*
X0164297Y0126185D01*
X0164864Y0126752D01*
X0165431Y0126752D01*
X0165999Y0126185D01*
X0163500Y0126000D02*
X0163500Y0121000D01*
X0161000Y0118500D01*
X0163500Y0126000D02*
X0161000Y0128500D01*
X0164297Y0130800D02*
X0164297Y0132501D01*
X0164864Y0133069D01*
X0165999Y0133069D01*
X0166566Y0132501D01*
X0166566Y0130800D01*
X0167700Y0130800D02*
X0164297Y0130800D01*
X0166566Y0131934D02*
X0167700Y0133069D01*
X0167700Y0134483D02*
X0167133Y0134483D01*
X0164864Y0136752D01*
X0164297Y0136752D01*
X0164297Y0134483D01*
X0161000Y0138500D02*
X0163500Y0141000D01*
X0163500Y0146000D01*
X0161000Y0148500D01*
X0164297Y0146752D02*
X0164297Y0144483D01*
X0165999Y0144483D01*
X0165431Y0145617D01*
X0165431Y0146185D01*
X0165999Y0146752D01*
X0167133Y0146752D01*
X0167700Y0146185D01*
X0167700Y0145050D01*
X0167133Y0144483D01*
X0167700Y0143069D02*
X0166566Y0141934D01*
X0166566Y0142501D02*
X0166566Y0140800D01*
X0167700Y0140800D02*
X0164297Y0140800D01*
X0164297Y0142501D01*
X0164864Y0143069D01*
X0165999Y0143069D01*
X0166566Y0142501D01*
X0166566Y0150800D02*
X0166566Y0152501D01*
X0165999Y0153069D01*
X0164864Y0153069D01*
X0164297Y0152501D01*
X0164297Y0150800D01*
X0167700Y0150800D01*
X0166566Y0151934D02*
X0167700Y0153069D01*
X0167133Y0154483D02*
X0165999Y0154483D01*
X0165999Y0156185D01*
X0166566Y0156752D01*
X0167133Y0156752D01*
X0167700Y0156185D01*
X0167700Y0155050D01*
X0167133Y0154483D01*
X0165999Y0154483D02*
X0164864Y0155617D01*
X0164297Y0156752D01*
X0161000Y0158500D02*
X0163500Y0161000D01*
X0163500Y0166000D01*
X0161000Y0168500D01*
X0164297Y0166752D02*
X0164864Y0165617D01*
X0165999Y0164483D01*
X0165999Y0166185D01*
X0166566Y0166752D01*
X0167133Y0166752D01*
X0167700Y0166185D01*
X0167700Y0165050D01*
X0167133Y0164483D01*
X0165999Y0164483D01*
X0165999Y0163069D02*
X0166566Y0162501D01*
X0166566Y0160800D01*
X0167700Y0160800D02*
X0164297Y0160800D01*
X0164297Y0162501D01*
X0164864Y0163069D01*
X0165999Y0163069D01*
X0166566Y0161934D02*
X0167700Y0163069D01*
X0167700Y0170800D02*
X0164297Y0170800D01*
X0164297Y0172501D01*
X0164864Y0173069D01*
X0165999Y0173069D01*
X0166566Y0172501D01*
X0166566Y0170800D01*
X0166566Y0171934D02*
X0167700Y0173069D01*
X0163500Y0176000D02*
X0161000Y0178500D01*
X0146000Y0178500D01*
X0143500Y0176000D01*
X0143500Y0171000D01*
X0146000Y0168500D01*
X0142700Y0166185D02*
X0142700Y0165050D01*
X0142133Y0164483D01*
X0141566Y0164483D01*
X0140999Y0165050D01*
X0140999Y0166185D01*
X0141566Y0166752D01*
X0142133Y0166752D01*
X0142700Y0166185D01*
X0140999Y0166185D02*
X0140431Y0166752D01*
X0139864Y0166752D01*
X0139297Y0166185D01*
X0139297Y0165050D01*
X0139864Y0164483D01*
X0140431Y0164483D01*
X0140999Y0165050D01*
X0142133Y0163069D02*
X0142700Y0162501D01*
X0142700Y0161367D01*
X0142133Y0160800D01*
X0139864Y0160800D01*
X0139297Y0161367D01*
X0139297Y0162501D01*
X0139864Y0163069D01*
X0146000Y0158500D02*
X0143500Y0156000D01*
X0143500Y0151000D01*
X0146000Y0148500D01*
X0142700Y0146185D02*
X0142700Y0145050D01*
X0142133Y0144483D01*
X0141566Y0144483D01*
X0140999Y0145050D01*
X0140999Y0146185D01*
X0141566Y0146752D01*
X0142133Y0146752D01*
X0142700Y0146185D01*
X0140999Y0146185D02*
X0140431Y0146752D01*
X0139864Y0146752D01*
X0139297Y0146185D01*
X0139297Y0145050D01*
X0139864Y0144483D01*
X0140431Y0144483D01*
X0140999Y0145050D01*
X0142133Y0143069D02*
X0142700Y0142501D01*
X0142700Y0141367D01*
X0142133Y0140800D01*
X0139864Y0140800D01*
X0139297Y0141367D01*
X0139297Y0142501D01*
X0139864Y0143069D01*
X0139864Y0137752D02*
X0142133Y0135483D01*
X0142700Y0135483D01*
X0143500Y0136000D02*
X0143500Y0131000D01*
X0146000Y0128500D01*
X0142700Y0126185D02*
X0142700Y0125050D01*
X0142133Y0124483D01*
X0141566Y0124483D01*
X0140999Y0125050D01*
X0140999Y0126185D01*
X0141566Y0126752D01*
X0142133Y0126752D01*
X0142700Y0126185D01*
X0140999Y0126185D02*
X0140431Y0126752D01*
X0139864Y0126752D01*
X0139297Y0126185D01*
X0139297Y0125050D01*
X0139864Y0124483D01*
X0140431Y0124483D01*
X0140999Y0125050D01*
X0142133Y0123069D02*
X0142700Y0122501D01*
X0142700Y0121367D01*
X0142133Y0120800D01*
X0139864Y0120800D01*
X0139297Y0121367D01*
X0139297Y0122501D01*
X0139864Y0123069D01*
X0139864Y0117752D02*
X0142133Y0115483D01*
X0142700Y0115483D01*
X0143500Y0116000D02*
X0143500Y0111000D01*
X0146000Y0108500D01*
X0142700Y0106185D02*
X0142133Y0106752D01*
X0141566Y0106752D01*
X0140999Y0106185D01*
X0140999Y0105050D01*
X0140431Y0104483D01*
X0139864Y0104483D01*
X0139297Y0105050D01*
X0139297Y0106185D01*
X0139864Y0106752D01*
X0140431Y0106752D01*
X0140999Y0106185D01*
X0140999Y0105050D02*
X0141566Y0104483D01*
X0142133Y0104483D01*
X0142700Y0105050D01*
X0142700Y0106185D01*
X0142133Y0103069D02*
X0142700Y0102501D01*
X0142700Y0101367D01*
X0142133Y0100800D01*
X0139864Y0100800D01*
X0139297Y0101367D01*
X0139297Y0102501D01*
X0139864Y0103069D01*
X0134100Y0102900D02*
X0134100Y0105100D01*
X0134100Y0102900D02*
X0130900Y0102900D01*
X0131752Y0096203D02*
X0131752Y0092800D01*
X0133166Y0093367D02*
X0133733Y0092800D01*
X0134868Y0092800D01*
X0135435Y0093367D01*
X0135435Y0093934D01*
X0134868Y0094501D01*
X0133166Y0094501D01*
X0133166Y0093367D01*
X0133166Y0094501D02*
X0134301Y0095636D01*
X0135435Y0096203D01*
X0131752Y0094501D02*
X0129483Y0094501D01*
X0129483Y0092800D02*
X0129483Y0096203D01*
X0128069Y0095636D02*
X0127501Y0096203D01*
X0126367Y0096203D01*
X0125800Y0095636D01*
X0125800Y0093367D01*
X0126367Y0092800D01*
X0127501Y0092800D01*
X0128069Y0093367D01*
X0128069Y0095636D01*
X0122700Y0100800D02*
X0119297Y0100800D01*
X0119297Y0102501D01*
X0119864Y0103069D01*
X0120999Y0103069D01*
X0121566Y0102501D01*
X0121566Y0100800D01*
X0121566Y0101934D02*
X0122700Y0103069D01*
X0122700Y0104483D02*
X0122133Y0104483D01*
X0119864Y0106752D01*
X0119297Y0106752D01*
X0119297Y0104483D01*
X0118500Y0106000D02*
X0118500Y0101000D01*
X0116000Y0098500D01*
X0101000Y0098500D01*
X0098500Y0101000D01*
X0098500Y0106000D01*
X0101000Y0108500D01*
X0116000Y0108500D01*
X0118500Y0106000D01*
X0116000Y0108500D02*
X0118500Y0111000D01*
X0118500Y0116000D01*
X0116000Y0118500D01*
X0101000Y0118500D01*
X0098500Y0116000D01*
X0098500Y0111000D01*
X0101000Y0108500D01*
X0097700Y0106185D02*
X0097133Y0106752D01*
X0096566Y0106752D01*
X0095999Y0106185D01*
X0095999Y0104483D01*
X0097133Y0104483D01*
X0097700Y0105050D01*
X0097700Y0106185D01*
X0095999Y0104483D02*
X0094864Y0105617D01*
X0094297Y0106752D01*
X0094864Y0103069D02*
X0094297Y0102501D01*
X0094297Y0101367D01*
X0094864Y0100800D01*
X0097133Y0100800D01*
X0097700Y0101367D01*
X0097700Y0102501D01*
X0097133Y0103069D01*
X0097133Y0110800D02*
X0094864Y0110800D01*
X0094297Y0111367D01*
X0094297Y0112501D01*
X0094864Y0113069D01*
X0094297Y0114483D02*
X0095999Y0114483D01*
X0095431Y0115617D01*
X0095431Y0116185D01*
X0095999Y0116752D01*
X0097133Y0116752D01*
X0097700Y0116185D01*
X0097700Y0115050D01*
X0097133Y0114483D01*
X0097133Y0113069D02*
X0097700Y0112501D01*
X0097700Y0111367D01*
X0097133Y0110800D01*
X0094297Y0114483D02*
X0094297Y0116752D01*
X0094864Y0120800D02*
X0097133Y0120800D01*
X0097700Y0121367D01*
X0097700Y0122501D01*
X0097133Y0123069D01*
X0097133Y0124483D02*
X0097700Y0125050D01*
X0097700Y0126185D01*
X0097133Y0126752D01*
X0096566Y0126752D01*
X0095999Y0126185D01*
X0095999Y0124483D01*
X0097133Y0124483D01*
X0095999Y0124483D02*
X0094864Y0125617D01*
X0094297Y0126752D01*
X0094864Y0123069D02*
X0094297Y0122501D01*
X0094297Y0121367D01*
X0094864Y0120800D01*
X0098500Y0121000D02*
X0098500Y0126000D01*
X0101000Y0128500D01*
X0116000Y0128500D01*
X0118500Y0126000D01*
X0118500Y0121000D01*
X0116000Y0118500D01*
X0119297Y0120800D02*
X0119297Y0122501D01*
X0119864Y0123069D01*
X0120999Y0123069D01*
X0121566Y0122501D01*
X0121566Y0120800D01*
X0122700Y0120800D02*
X0119297Y0120800D01*
X0121566Y0121934D02*
X0122700Y0123069D01*
X0122133Y0124483D02*
X0121566Y0124483D01*
X0120999Y0125050D01*
X0120999Y0126185D01*
X0121566Y0126752D01*
X0122133Y0126752D01*
X0122700Y0126185D01*
X0122700Y0125050D01*
X0122133Y0124483D01*
X0120999Y0125050D02*
X0120431Y0124483D01*
X0119864Y0124483D01*
X0119297Y0125050D01*
X0119297Y0126185D01*
X0119864Y0126752D01*
X0120431Y0126752D01*
X0120999Y0126185D01*
X0118500Y0131000D02*
X0116000Y0128500D01*
X0118500Y0131000D02*
X0118500Y0136000D01*
X0116000Y0138500D01*
X0101000Y0138500D01*
X0098500Y0136000D01*
X0098500Y0131000D01*
X0101000Y0128500D01*
X0097700Y0131367D02*
X0097700Y0132501D01*
X0097133Y0133069D01*
X0097133Y0134483D02*
X0097700Y0135050D01*
X0097700Y0136185D01*
X0097133Y0136752D01*
X0095999Y0136752D01*
X0095431Y0136185D01*
X0095431Y0135617D01*
X0095999Y0134483D01*
X0094297Y0134483D01*
X0094297Y0136752D01*
X0094864Y0133069D02*
X0094297Y0132501D01*
X0094297Y0131367D01*
X0094864Y0130800D01*
X0097133Y0130800D01*
X0097700Y0131367D01*
X0101000Y0138500D02*
X0098500Y0141000D01*
X0098500Y0146000D01*
X0101000Y0148500D01*
X0116000Y0148500D01*
X0118500Y0146000D01*
X0118500Y0141000D01*
X0116000Y0138500D01*
X0119297Y0136752D02*
X0119297Y0134483D01*
X0119864Y0133069D02*
X0120999Y0133069D01*
X0121566Y0132501D01*
X0121566Y0130800D01*
X0122700Y0130800D02*
X0119297Y0130800D01*
X0119297Y0132501D01*
X0119864Y0133069D01*
X0121566Y0131934D02*
X0122700Y0133069D01*
X0122700Y0134483D02*
X0122133Y0134483D01*
X0119864Y0136752D01*
X0119297Y0136752D01*
X0119297Y0140800D02*
X0119297Y0142501D01*
X0119864Y0143069D01*
X0120999Y0143069D01*
X0121566Y0142501D01*
X0121566Y0140800D01*
X0122700Y0140800D02*
X0119297Y0140800D01*
X0121566Y0141934D02*
X0122700Y0143069D01*
X0122133Y0144483D02*
X0122700Y0145050D01*
X0122700Y0146185D01*
X0122133Y0146752D01*
X0120999Y0146752D01*
X0120431Y0146185D01*
X0120431Y0145617D01*
X0120999Y0144483D01*
X0119297Y0144483D01*
X0119297Y0146752D01*
X0116000Y0148500D02*
X0118500Y0151000D01*
X0118500Y0156000D01*
X0116000Y0158500D01*
X0101000Y0158500D01*
X0098500Y0156000D01*
X0098500Y0151000D01*
X0101000Y0148500D01*
X0097700Y0146185D02*
X0097133Y0146752D01*
X0096566Y0146752D01*
X0095999Y0146185D01*
X0095999Y0144483D01*
X0097133Y0144483D01*
X0097700Y0145050D01*
X0097700Y0146185D01*
X0095999Y0144483D02*
X0094864Y0145617D01*
X0094297Y0146752D01*
X0094864Y0143069D02*
X0094297Y0142501D01*
X0094297Y0141367D01*
X0094864Y0140800D01*
X0097133Y0140800D01*
X0097700Y0141367D01*
X0097700Y0142501D01*
X0097133Y0143069D01*
X0097133Y0150800D02*
X0094864Y0150800D01*
X0094297Y0151367D01*
X0094297Y0152501D01*
X0094864Y0153069D01*
X0094297Y0154483D02*
X0095999Y0154483D01*
X0095431Y0155617D01*
X0095431Y0156185D01*
X0095999Y0156752D01*
X0097133Y0156752D01*
X0097700Y0156185D01*
X0097700Y0155050D01*
X0097133Y0154483D01*
X0097133Y0153069D02*
X0097700Y0152501D01*
X0097700Y0151367D01*
X0097133Y0150800D01*
X0094297Y0154483D02*
X0094297Y0156752D01*
X0094864Y0160800D02*
X0097133Y0160800D01*
X0097700Y0161367D01*
X0097700Y0162501D01*
X0097133Y0163069D01*
X0097133Y0164483D02*
X0097700Y0165050D01*
X0097700Y0166185D01*
X0097133Y0166752D01*
X0096566Y0166752D01*
X0095999Y0166185D01*
X0095999Y0164483D01*
X0097133Y0164483D01*
X0095999Y0164483D02*
X0094864Y0165617D01*
X0094297Y0166752D01*
X0094864Y0163069D02*
X0094297Y0162501D01*
X0094297Y0161367D01*
X0094864Y0160800D01*
X0098500Y0161000D02*
X0098500Y0166000D01*
X0101000Y0168500D01*
X0116000Y0168500D01*
X0118500Y0166000D01*
X0118500Y0161000D01*
X0116000Y0158500D01*
X0119297Y0156752D02*
X0119864Y0155617D01*
X0120999Y0154483D01*
X0120999Y0156185D01*
X0121566Y0156752D01*
X0122133Y0156752D01*
X0122700Y0156185D01*
X0122700Y0155050D01*
X0122133Y0154483D01*
X0120999Y0154483D01*
X0120999Y0153069D02*
X0121566Y0152501D01*
X0121566Y0150800D01*
X0122700Y0150800D02*
X0119297Y0150800D01*
X0119297Y0152501D01*
X0119864Y0153069D01*
X0120999Y0153069D01*
X0121566Y0151934D02*
X0122700Y0153069D01*
X0124800Y0155300D02*
X0126501Y0155300D01*
X0127069Y0155867D01*
X0127069Y0158136D01*
X0126501Y0158703D01*
X0124800Y0158703D01*
X0124800Y0155300D01*
X0128483Y0155300D02*
X0130752Y0157569D01*
X0130752Y0158136D01*
X0130185Y0158703D01*
X0129050Y0158703D01*
X0128483Y0158136D01*
X0128483Y0155300D02*
X0130752Y0155300D01*
X0130900Y0154100D02*
X0134100Y0154100D01*
X0134100Y0151900D01*
X0133868Y0155300D02*
X0133868Y0158703D01*
X0132166Y0157001D01*
X0134435Y0157001D01*
X0139297Y0157752D02*
X0139864Y0157752D01*
X0142133Y0155483D01*
X0142700Y0155483D01*
X0142133Y0154069D02*
X0142700Y0153501D01*
X0142700Y0152367D01*
X0142133Y0151800D01*
X0139864Y0151800D01*
X0139297Y0152367D01*
X0139297Y0153501D01*
X0139864Y0154069D01*
X0139297Y0155483D02*
X0139297Y0157752D01*
X0134100Y0162900D02*
X0134100Y0165100D01*
X0134100Y0162900D02*
X0130900Y0162900D01*
X0134100Y0171900D02*
X0134100Y0174100D01*
X0130900Y0174100D01*
X0130752Y0175300D02*
X0128483Y0175300D01*
X0130752Y0177569D01*
X0130752Y0178136D01*
X0130185Y0178703D01*
X0129050Y0178703D01*
X0128483Y0178136D01*
X0127069Y0178136D02*
X0126501Y0178703D01*
X0124800Y0178703D01*
X0124800Y0175300D01*
X0126501Y0175300D01*
X0127069Y0175867D01*
X0127069Y0178136D01*
X0132166Y0178136D02*
X0132733Y0178703D01*
X0133868Y0178703D01*
X0134435Y0178136D01*
X0132166Y0175867D01*
X0132733Y0175300D01*
X0133868Y0175300D01*
X0134435Y0175867D01*
X0134435Y0178136D01*
X0132166Y0178136D02*
X0132166Y0175867D01*
X0139297Y0175483D02*
X0139297Y0177752D01*
X0139864Y0177752D01*
X0142133Y0175483D01*
X0142700Y0175483D01*
X0142133Y0174069D02*
X0142700Y0173501D01*
X0142700Y0172367D01*
X0142133Y0171800D01*
X0139864Y0171800D01*
X0139297Y0172367D01*
X0139297Y0173501D01*
X0139864Y0174069D01*
X0146300Y0179300D02*
X0147434Y0179300D01*
X0146867Y0179300D02*
X0146867Y0182703D01*
X0146300Y0182703D02*
X0147434Y0182703D01*
X0148755Y0182703D02*
X0148755Y0179300D01*
X0148755Y0181001D02*
X0151024Y0181001D01*
X0152439Y0180434D02*
X0153006Y0181001D01*
X0154140Y0181001D01*
X0154707Y0180434D01*
X0154707Y0179867D01*
X0154140Y0179300D01*
X0153006Y0179300D01*
X0152439Y0179867D01*
X0152439Y0180434D01*
X0153006Y0181001D02*
X0152439Y0181569D01*
X0152439Y0182136D01*
X0153006Y0182703D01*
X0154140Y0182703D01*
X0154707Y0182136D01*
X0154707Y0181569D01*
X0154140Y0181001D01*
X0151024Y0182703D02*
X0151024Y0179300D01*
X0146000Y0184500D02*
X0143500Y0187000D01*
X0143500Y0192000D01*
X0146000Y0194500D01*
X0161000Y0194500D01*
X0163500Y0192000D01*
X0163500Y0187000D01*
X0161000Y0184500D01*
X0146000Y0184500D01*
X0142700Y0186367D02*
X0142700Y0187501D01*
X0142133Y0188069D01*
X0142133Y0189483D02*
X0141566Y0189483D01*
X0140999Y0190050D01*
X0140999Y0191185D01*
X0141566Y0191752D01*
X0142133Y0191752D01*
X0142700Y0191185D01*
X0142700Y0190050D01*
X0142133Y0189483D01*
X0140999Y0190050D02*
X0140431Y0189483D01*
X0139864Y0189483D01*
X0139297Y0190050D01*
X0139297Y0191185D01*
X0139864Y0191752D01*
X0140431Y0191752D01*
X0140999Y0191185D01*
X0139864Y0188069D02*
X0139297Y0187501D01*
X0139297Y0186367D01*
X0139864Y0185800D01*
X0142133Y0185800D01*
X0142700Y0186367D01*
X0146000Y0194500D02*
X0143500Y0197000D01*
X0143500Y0202000D01*
X0146000Y0204500D01*
X0161000Y0204500D01*
X0163500Y0202000D01*
X0163500Y0197000D01*
X0161000Y0194500D01*
X0164297Y0196800D02*
X0164297Y0198501D01*
X0164864Y0199069D01*
X0165999Y0199069D01*
X0166566Y0198501D01*
X0166566Y0196800D01*
X0167700Y0196800D02*
X0164297Y0196800D01*
X0166566Y0197934D02*
X0167700Y0199069D01*
X0165999Y0200483D02*
X0165999Y0202752D01*
X0167700Y0202185D02*
X0164297Y0202185D01*
X0165999Y0200483D01*
X0161000Y0204500D02*
X0163500Y0207000D01*
X0163500Y0212000D01*
X0161000Y0214500D01*
X0146000Y0214500D01*
X0143500Y0212000D01*
X0143500Y0207000D01*
X0146000Y0204500D01*
X0142700Y0207367D02*
X0142133Y0206800D01*
X0139864Y0206800D01*
X0139297Y0207367D01*
X0139297Y0208501D01*
X0139864Y0209069D01*
X0139864Y0210483D02*
X0140431Y0210483D01*
X0140999Y0211050D01*
X0140999Y0212185D01*
X0141566Y0212752D01*
X0142133Y0212752D01*
X0142700Y0212185D01*
X0142700Y0211050D01*
X0142133Y0210483D01*
X0141566Y0210483D01*
X0140999Y0211050D01*
X0140999Y0212185D02*
X0140431Y0212752D01*
X0139864Y0212752D01*
X0139297Y0212185D01*
X0139297Y0211050D01*
X0139864Y0210483D01*
X0142133Y0209069D02*
X0142700Y0208501D01*
X0142700Y0207367D01*
X0139864Y0202752D02*
X0142133Y0200483D01*
X0142700Y0200483D01*
X0142133Y0199069D02*
X0142700Y0198501D01*
X0142700Y0197367D01*
X0142133Y0196800D01*
X0139864Y0196800D01*
X0139297Y0197367D01*
X0139297Y0198501D01*
X0139864Y0199069D01*
X0139297Y0200483D02*
X0139297Y0202752D01*
X0139864Y0202752D01*
X0133935Y0203001D02*
X0133935Y0201867D01*
X0133368Y0201300D01*
X0132233Y0201300D01*
X0131666Y0201867D01*
X0131666Y0203001D02*
X0132801Y0203569D01*
X0133368Y0203569D01*
X0133935Y0203001D01*
X0133935Y0204703D02*
X0131666Y0204703D01*
X0131666Y0203001D01*
X0130252Y0201300D02*
X0127983Y0201300D01*
X0129117Y0201300D02*
X0129117Y0204703D01*
X0127983Y0203569D01*
X0126569Y0204136D02*
X0126569Y0201867D01*
X0126001Y0201300D01*
X0124300Y0201300D01*
X0124300Y0204703D01*
X0126001Y0204703D01*
X0126569Y0204136D01*
X0122700Y0202185D02*
X0119297Y0202185D01*
X0120999Y0200483D01*
X0120999Y0202752D01*
X0118500Y0202000D02*
X0118500Y0197000D01*
X0116000Y0194500D01*
X0118500Y0192000D01*
X0118500Y0187000D01*
X0116000Y0184500D01*
X0101000Y0184500D01*
X0098500Y0187000D01*
X0098500Y0192000D01*
X0101000Y0194500D01*
X0116000Y0194500D01*
X0119297Y0196800D02*
X0119297Y0198501D01*
X0119864Y0199069D01*
X0120999Y0199069D01*
X0121566Y0198501D01*
X0121566Y0196800D01*
X0122700Y0196800D02*
X0119297Y0196800D01*
X0121566Y0197934D02*
X0122700Y0199069D01*
X0118500Y0202000D02*
X0116000Y0204500D01*
X0101000Y0204500D01*
X0098500Y0202000D01*
X0098500Y0197000D01*
X0101000Y0194500D01*
X0097700Y0192185D02*
X0097133Y0192752D01*
X0096566Y0192752D01*
X0095999Y0192185D01*
X0095999Y0190483D01*
X0097133Y0190483D01*
X0097700Y0191050D01*
X0097700Y0192185D01*
X0095999Y0190483D02*
X0094864Y0191617D01*
X0094297Y0192752D01*
X0094864Y0189069D02*
X0094297Y0188501D01*
X0094297Y0187367D01*
X0094864Y0186800D01*
X0097133Y0186800D01*
X0097700Y0187367D01*
X0097700Y0188501D01*
X0097133Y0189069D01*
X0100800Y0182703D02*
X0101934Y0182703D01*
X0101367Y0182703D02*
X0101367Y0179300D01*
X0100800Y0179300D02*
X0101934Y0179300D01*
X0101000Y0178500D02*
X0116000Y0178500D01*
X0118500Y0176000D01*
X0118500Y0171000D01*
X0116000Y0168500D01*
X0119297Y0166752D02*
X0119864Y0165617D01*
X0120999Y0164483D01*
X0120999Y0166185D01*
X0121566Y0166752D01*
X0122133Y0166752D01*
X0122700Y0166185D01*
X0122700Y0165050D01*
X0122133Y0164483D01*
X0120999Y0164483D01*
X0120999Y0163069D02*
X0121566Y0162501D01*
X0121566Y0160800D01*
X0122700Y0160800D02*
X0119297Y0160800D01*
X0119297Y0162501D01*
X0119864Y0163069D01*
X0120999Y0163069D01*
X0121566Y0161934D02*
X0122700Y0163069D01*
X0122700Y0170800D02*
X0119297Y0170800D01*
X0119297Y0172501D01*
X0119864Y0173069D01*
X0120999Y0173069D01*
X0121566Y0172501D01*
X0121566Y0170800D01*
X0121566Y0171934D02*
X0122700Y0173069D01*
X0122133Y0174483D02*
X0122700Y0175050D01*
X0122700Y0176185D01*
X0122133Y0176752D01*
X0120999Y0176752D01*
X0120431Y0176185D01*
X0120431Y0175617D01*
X0120999Y0174483D01*
X0119297Y0174483D01*
X0119297Y0176752D01*
X0119297Y0186800D02*
X0119297Y0188501D01*
X0119864Y0189069D01*
X0120999Y0189069D01*
X0121566Y0188501D01*
X0121566Y0186800D01*
X0122700Y0186800D02*
X0119297Y0186800D01*
X0121566Y0187934D02*
X0122700Y0189069D01*
X0122133Y0190483D02*
X0122700Y0191050D01*
X0122700Y0192185D01*
X0122133Y0192752D01*
X0121566Y0192752D01*
X0120999Y0192185D01*
X0120999Y0191617D01*
X0120999Y0192185D02*
X0120431Y0192752D01*
X0119864Y0192752D01*
X0119297Y0192185D01*
X0119297Y0191050D01*
X0119864Y0190483D01*
X0130900Y0188900D02*
X0134100Y0188900D01*
X0134100Y0191100D01*
X0134100Y0197900D02*
X0134100Y0200100D01*
X0130900Y0200100D01*
X0130900Y0208900D02*
X0134100Y0208900D01*
X0134100Y0211100D01*
X0134100Y0217900D02*
X0134100Y0220100D01*
X0130900Y0220100D01*
X0130752Y0221300D02*
X0128483Y0221300D01*
X0129617Y0221300D02*
X0129617Y0224703D01*
X0128483Y0223569D01*
X0127069Y0224136D02*
X0126501Y0224703D01*
X0124800Y0224703D01*
X0124800Y0221300D01*
X0126501Y0221300D01*
X0127069Y0221867D01*
X0127069Y0224136D01*
X0132166Y0223569D02*
X0133301Y0224703D01*
X0133301Y0221300D01*
X0134435Y0221300D02*
X0132166Y0221300D01*
X0139297Y0220483D02*
X0139297Y0222752D01*
X0139864Y0222752D01*
X0142133Y0220483D01*
X0142700Y0220483D01*
X0142133Y0219069D02*
X0142700Y0218501D01*
X0142700Y0217367D01*
X0142133Y0216800D01*
X0139864Y0216800D01*
X0139297Y0217367D01*
X0139297Y0218501D01*
X0139864Y0219069D01*
X0143500Y0217000D02*
X0143500Y0222000D01*
X0146000Y0224500D01*
X0161000Y0224500D01*
X0163500Y0222000D01*
X0163500Y0217000D01*
X0161000Y0214500D01*
X0164297Y0216800D02*
X0164297Y0218501D01*
X0164864Y0219069D01*
X0165999Y0219069D01*
X0166566Y0218501D01*
X0166566Y0216800D01*
X0167700Y0216800D02*
X0164297Y0216800D01*
X0166566Y0217934D02*
X0167700Y0219069D01*
X0167133Y0220483D02*
X0167700Y0221050D01*
X0167700Y0222185D01*
X0167133Y0222752D01*
X0166566Y0222752D01*
X0165999Y0222185D01*
X0165999Y0221617D01*
X0165999Y0222185D02*
X0165431Y0222752D01*
X0164864Y0222752D01*
X0164297Y0222185D01*
X0164297Y0221050D01*
X0164864Y0220483D01*
X0161000Y0224500D02*
X0163500Y0227000D01*
X0163500Y0232000D01*
X0161000Y0234500D01*
X0146000Y0234500D01*
X0143500Y0232000D01*
X0143500Y0227000D01*
X0146000Y0224500D01*
X0142700Y0227367D02*
X0142133Y0226800D01*
X0139864Y0226800D01*
X0139297Y0227367D01*
X0139297Y0228501D01*
X0139864Y0229069D01*
X0139864Y0230483D02*
X0140431Y0230483D01*
X0140999Y0231050D01*
X0140999Y0232185D01*
X0141566Y0232752D01*
X0142133Y0232752D01*
X0142700Y0232185D01*
X0142700Y0231050D01*
X0142133Y0230483D01*
X0141566Y0230483D01*
X0140999Y0231050D01*
X0140999Y0232185D02*
X0140431Y0232752D01*
X0139864Y0232752D01*
X0139297Y0232185D01*
X0139297Y0231050D01*
X0139864Y0230483D01*
X0142133Y0229069D02*
X0142700Y0228501D01*
X0142700Y0227367D01*
X0146000Y0234500D02*
X0143500Y0237000D01*
X0143500Y0242000D01*
X0146000Y0244500D01*
X0161000Y0244500D01*
X0163500Y0242000D01*
X0163500Y0237000D01*
X0161000Y0234500D01*
X0164297Y0236800D02*
X0164297Y0238501D01*
X0164864Y0239069D01*
X0165999Y0239069D01*
X0166566Y0238501D01*
X0166566Y0236800D01*
X0167700Y0236800D02*
X0164297Y0236800D01*
X0166566Y0237934D02*
X0167700Y0239069D01*
X0167700Y0240483D02*
X0165431Y0242752D01*
X0164864Y0242752D01*
X0164297Y0242185D01*
X0164297Y0241050D01*
X0164864Y0240483D01*
X0167700Y0240483D02*
X0167700Y0242752D01*
X0170800Y0241300D02*
X0172501Y0241300D01*
X0173069Y0241867D01*
X0173069Y0244136D01*
X0172501Y0244703D01*
X0170800Y0244703D01*
X0170800Y0241300D01*
X0174483Y0241867D02*
X0174483Y0242434D01*
X0175050Y0243001D01*
X0176185Y0243001D01*
X0176752Y0242434D01*
X0176752Y0241867D01*
X0176185Y0241300D01*
X0175050Y0241300D01*
X0174483Y0241867D01*
X0175050Y0243001D02*
X0174483Y0243569D01*
X0174483Y0244136D01*
X0175050Y0244703D01*
X0176185Y0244703D01*
X0176752Y0244136D01*
X0176752Y0243569D01*
X0176185Y0243001D01*
X0176900Y0240100D02*
X0180100Y0240100D01*
X0180100Y0237900D01*
X0180100Y0231100D02*
X0180100Y0228900D01*
X0176900Y0228900D01*
X0175617Y0224703D02*
X0175617Y0221300D01*
X0174483Y0221300D02*
X0176752Y0221300D01*
X0176900Y0220100D02*
X0180100Y0220100D01*
X0180100Y0217900D01*
X0180435Y0221300D02*
X0178166Y0221300D01*
X0180435Y0223569D01*
X0180435Y0224136D01*
X0179868Y0224703D01*
X0178733Y0224703D01*
X0178166Y0224136D01*
X0175617Y0224703D02*
X0174483Y0223569D01*
X0173069Y0224136D02*
X0172501Y0224703D01*
X0170800Y0224703D01*
X0170800Y0221300D01*
X0172501Y0221300D01*
X0173069Y0221867D01*
X0173069Y0224136D01*
X0167700Y0226800D02*
X0164297Y0226800D01*
X0164297Y0228501D01*
X0164864Y0229069D01*
X0165999Y0229069D01*
X0166566Y0228501D01*
X0166566Y0226800D01*
X0166566Y0227934D02*
X0167700Y0229069D01*
X0167700Y0230483D02*
X0167700Y0232752D01*
X0167700Y0231617D02*
X0164297Y0231617D01*
X0165431Y0230483D01*
X0161000Y0244500D02*
X0163500Y0247000D01*
X0163500Y0252000D01*
X0161000Y0254500D01*
X0146000Y0254500D01*
X0143500Y0252000D01*
X0143500Y0247000D01*
X0146000Y0244500D01*
X0142700Y0247367D02*
X0142133Y0246800D01*
X0139864Y0246800D01*
X0139297Y0247367D01*
X0139297Y0248501D01*
X0139864Y0249069D01*
X0139864Y0250483D02*
X0140431Y0250483D01*
X0140999Y0251050D01*
X0140999Y0252185D01*
X0141566Y0252752D01*
X0142133Y0252752D01*
X0142700Y0252185D01*
X0142700Y0251050D01*
X0142133Y0250483D01*
X0141566Y0250483D01*
X0140999Y0251050D01*
X0140999Y0252185D02*
X0140431Y0252752D01*
X0139864Y0252752D01*
X0139297Y0252185D01*
X0139297Y0251050D01*
X0139864Y0250483D01*
X0142133Y0249069D02*
X0142700Y0248501D01*
X0142700Y0247367D01*
X0139864Y0242752D02*
X0142133Y0240483D01*
X0142700Y0240483D01*
X0142133Y0239069D02*
X0142700Y0238501D01*
X0142700Y0237367D01*
X0142133Y0236800D01*
X0139864Y0236800D01*
X0139297Y0237367D01*
X0139297Y0238501D01*
X0139864Y0239069D01*
X0139297Y0240483D02*
X0139297Y0242752D01*
X0139864Y0242752D01*
X0134100Y0240100D02*
X0134100Y0237900D01*
X0134100Y0240100D02*
X0130900Y0240100D01*
X0128483Y0241300D02*
X0128483Y0241867D01*
X0130752Y0244136D01*
X0130752Y0244703D01*
X0128483Y0244703D01*
X0127069Y0244136D02*
X0126501Y0244703D01*
X0124800Y0244703D01*
X0124800Y0241300D01*
X0126501Y0241300D01*
X0127069Y0241867D01*
X0127069Y0244136D01*
X0130900Y0248900D02*
X0134100Y0248900D01*
X0134100Y0251100D01*
X0134100Y0257900D02*
X0134100Y0260100D01*
X0130900Y0260100D01*
X0130185Y0261300D02*
X0130752Y0261867D01*
X0130752Y0262434D01*
X0130185Y0263001D01*
X0129617Y0263001D01*
X0130185Y0263001D02*
X0130752Y0263569D01*
X0130752Y0264136D01*
X0130185Y0264703D01*
X0129050Y0264703D01*
X0128483Y0264136D01*
X0127069Y0264136D02*
X0126501Y0264703D01*
X0124800Y0264703D01*
X0124800Y0261300D01*
X0126501Y0261300D01*
X0127069Y0261867D01*
X0127069Y0264136D01*
X0128483Y0261867D02*
X0129050Y0261300D01*
X0130185Y0261300D01*
X0122700Y0261617D02*
X0119297Y0261617D01*
X0120431Y0260483D01*
X0119864Y0259069D02*
X0120999Y0259069D01*
X0121566Y0258501D01*
X0121566Y0256800D01*
X0122700Y0256800D02*
X0119297Y0256800D01*
X0119297Y0258501D01*
X0119864Y0259069D01*
X0121566Y0257934D02*
X0122700Y0259069D01*
X0122700Y0260483D02*
X0122700Y0262752D01*
X0118500Y0262000D02*
X0118500Y0257000D01*
X0116000Y0254500D01*
X0101000Y0254500D01*
X0098500Y0252000D01*
X0098500Y0247000D01*
X0101000Y0244500D01*
X0116000Y0244500D01*
X0118500Y0242000D01*
X0118500Y0237000D01*
X0116000Y0234500D01*
X0101000Y0234500D01*
X0098500Y0232000D01*
X0098500Y0227000D01*
X0101000Y0224500D01*
X0116000Y0224500D01*
X0118500Y0222000D01*
X0118500Y0217000D01*
X0116000Y0214500D01*
X0101000Y0214500D01*
X0098500Y0212000D01*
X0098500Y0207000D01*
X0101000Y0204500D01*
X0097700Y0202185D02*
X0097700Y0201050D01*
X0097133Y0200483D01*
X0095999Y0200483D02*
X0095431Y0201617D01*
X0095431Y0202185D01*
X0095999Y0202752D01*
X0097133Y0202752D01*
X0097700Y0202185D01*
X0095999Y0200483D02*
X0094297Y0200483D01*
X0094297Y0202752D01*
X0094864Y0199069D02*
X0094297Y0198501D01*
X0094297Y0197367D01*
X0094864Y0196800D01*
X0097133Y0196800D01*
X0097700Y0197367D01*
X0097700Y0198501D01*
X0097133Y0199069D01*
X0097133Y0206800D02*
X0094864Y0206800D01*
X0094297Y0207367D01*
X0094297Y0208501D01*
X0094864Y0209069D01*
X0095999Y0210483D02*
X0094864Y0211617D01*
X0094297Y0212752D01*
X0095999Y0212185D02*
X0095999Y0210483D01*
X0097133Y0210483D01*
X0097700Y0211050D01*
X0097700Y0212185D01*
X0097133Y0212752D01*
X0096566Y0212752D01*
X0095999Y0212185D01*
X0097133Y0209069D02*
X0097700Y0208501D01*
X0097700Y0207367D01*
X0097133Y0206800D01*
X0089100Y0208900D02*
X0089100Y0211100D01*
X0089100Y0208900D02*
X0085900Y0208900D01*
X0084617Y0204703D02*
X0084617Y0201300D01*
X0083483Y0201300D02*
X0085752Y0201300D01*
X0085900Y0200100D02*
X0089100Y0200100D01*
X0089100Y0197900D01*
X0088868Y0201300D02*
X0088868Y0204703D01*
X0087166Y0203001D01*
X0089435Y0203001D01*
X0084617Y0204703D02*
X0083483Y0203569D01*
X0082069Y0204136D02*
X0082069Y0201867D01*
X0081501Y0201300D01*
X0079800Y0201300D01*
X0079800Y0204703D01*
X0081501Y0204703D01*
X0082069Y0204136D01*
X0077700Y0202185D02*
X0074297Y0202185D01*
X0075999Y0200483D01*
X0075999Y0202752D01*
X0073500Y0202000D02*
X0073500Y0197000D01*
X0071000Y0194500D01*
X0073500Y0192000D01*
X0073500Y0187000D01*
X0071000Y0184500D01*
X0056000Y0184500D01*
X0053500Y0187000D01*
X0053500Y0192000D01*
X0056000Y0194500D01*
X0071000Y0194500D01*
X0074297Y0196800D02*
X0074297Y0198501D01*
X0074864Y0199069D01*
X0075999Y0199069D01*
X0076566Y0198501D01*
X0076566Y0196800D01*
X0077700Y0196800D02*
X0074297Y0196800D01*
X0076566Y0197934D02*
X0077700Y0199069D01*
X0073500Y0202000D02*
X0071000Y0204500D01*
X0056000Y0204500D01*
X0053500Y0202000D01*
X0053500Y0197000D01*
X0056000Y0194500D01*
X0052700Y0192185D02*
X0049297Y0192185D01*
X0050999Y0190483D01*
X0050999Y0192752D01*
X0052133Y0189069D02*
X0052700Y0188501D01*
X0052700Y0187367D01*
X0052133Y0186800D01*
X0049864Y0186800D01*
X0049297Y0187367D01*
X0049297Y0188501D01*
X0049864Y0189069D01*
X0044100Y0188900D02*
X0044100Y0191100D01*
X0044100Y0188900D02*
X0040900Y0188900D01*
X0032700Y0189069D02*
X0031566Y0187934D01*
X0031566Y0188501D02*
X0031566Y0186800D01*
X0032700Y0186800D02*
X0029297Y0186800D01*
X0029297Y0188501D01*
X0029864Y0189069D01*
X0030999Y0189069D01*
X0031566Y0188501D01*
X0032133Y0190483D02*
X0032700Y0191050D01*
X0032700Y0192185D01*
X0032133Y0192752D01*
X0031566Y0192752D01*
X0030999Y0192185D01*
X0030999Y0191617D01*
X0030999Y0192185D02*
X0030431Y0192752D01*
X0029864Y0192752D01*
X0029297Y0192185D01*
X0029297Y0191050D01*
X0029864Y0190483D01*
X0028500Y0192000D02*
X0028500Y0187000D01*
X0026000Y0184500D01*
X0011000Y0184500D01*
X0008500Y0187000D01*
X0008500Y0192000D01*
X0011000Y0194500D01*
X0026000Y0194500D01*
X0028500Y0192000D01*
X0026000Y0194500D02*
X0028500Y0197000D01*
X0028500Y0202000D01*
X0026000Y0204500D01*
X0011000Y0204500D01*
X0008500Y0202000D01*
X0008500Y0197000D01*
X0011000Y0194500D01*
X0007700Y0192752D02*
X0007700Y0190483D01*
X0005431Y0192752D01*
X0004864Y0192752D01*
X0004297Y0192185D01*
X0004297Y0191050D01*
X0004864Y0190483D01*
X0004864Y0189069D02*
X0004297Y0188501D01*
X0004297Y0187367D01*
X0004864Y0186800D01*
X0007133Y0186800D01*
X0007700Y0187367D01*
X0007700Y0188501D01*
X0007133Y0189069D01*
X0011300Y0182703D02*
X0012434Y0182703D01*
X0011867Y0182703D02*
X0011867Y0179300D01*
X0011300Y0179300D02*
X0012434Y0179300D01*
X0013755Y0179300D02*
X0013755Y0182703D01*
X0013755Y0181001D02*
X0016024Y0181001D01*
X0017439Y0181001D02*
X0018573Y0181569D01*
X0019140Y0181569D01*
X0019707Y0181001D01*
X0019707Y0179867D01*
X0019140Y0179300D01*
X0018006Y0179300D01*
X0017439Y0179867D01*
X0017439Y0181001D02*
X0017439Y0182703D01*
X0019707Y0182703D01*
X0016024Y0182703D02*
X0016024Y0179300D01*
X0011000Y0178500D02*
X0008500Y0176000D01*
X0008500Y0171000D01*
X0011000Y0168500D01*
X0026000Y0168500D01*
X0028500Y0166000D01*
X0028500Y0161000D01*
X0026000Y0158500D01*
X0011000Y0158500D01*
X0008500Y0156000D01*
X0008500Y0151000D01*
X0011000Y0148500D01*
X0026000Y0148500D01*
X0028500Y0146000D01*
X0028500Y0141000D01*
X0026000Y0138500D01*
X0011000Y0138500D01*
X0008500Y0136000D01*
X0008500Y0131000D01*
X0011000Y0128500D01*
X0026000Y0128500D01*
X0028500Y0126000D01*
X0028500Y0121000D01*
X0026000Y0118500D01*
X0011000Y0118500D01*
X0008500Y0116000D01*
X0008500Y0111000D01*
X0011000Y0108500D01*
X0008500Y0106000D01*
X0008500Y0101000D01*
X0011000Y0098500D01*
X0026000Y0098500D01*
X0028500Y0101000D01*
X0028500Y0106000D01*
X0026000Y0108500D01*
X0011000Y0108500D01*
X0007700Y0106752D02*
X0007700Y0104483D01*
X0005431Y0106752D01*
X0004864Y0106752D01*
X0004297Y0106185D01*
X0004297Y0105050D01*
X0004864Y0104483D01*
X0004864Y0103069D02*
X0004297Y0102501D01*
X0004297Y0101367D01*
X0004864Y0100800D01*
X0007133Y0100800D01*
X0007700Y0101367D01*
X0007700Y0102501D01*
X0007133Y0103069D01*
X0007133Y0110800D02*
X0007700Y0111367D01*
X0007700Y0112501D01*
X0007133Y0113069D01*
X0007700Y0114483D02*
X0007700Y0116752D01*
X0007700Y0115617D02*
X0004297Y0115617D01*
X0005431Y0114483D01*
X0004864Y0113069D02*
X0004297Y0112501D01*
X0004297Y0111367D01*
X0004864Y0110800D01*
X0007133Y0110800D01*
X0011000Y0118500D02*
X0008500Y0121000D01*
X0008500Y0126000D01*
X0011000Y0128500D01*
X0007700Y0126752D02*
X0007700Y0124483D01*
X0005431Y0126752D01*
X0004864Y0126752D01*
X0004297Y0126185D01*
X0004297Y0125050D01*
X0004864Y0124483D01*
X0004864Y0123069D02*
X0004297Y0122501D01*
X0004297Y0121367D01*
X0004864Y0120800D01*
X0007133Y0120800D01*
X0007700Y0121367D01*
X0007700Y0122501D01*
X0007133Y0123069D01*
X0007133Y0130800D02*
X0007700Y0131367D01*
X0007700Y0132501D01*
X0007133Y0133069D01*
X0007700Y0134483D02*
X0007700Y0136752D01*
X0007700Y0135617D02*
X0004297Y0135617D01*
X0005431Y0134483D01*
X0004864Y0133069D02*
X0004297Y0132501D01*
X0004297Y0131367D01*
X0004864Y0130800D01*
X0007133Y0130800D01*
X0011000Y0138500D02*
X0008500Y0141000D01*
X0008500Y0146000D01*
X0011000Y0148500D01*
X0007700Y0146752D02*
X0007700Y0144483D01*
X0005431Y0146752D01*
X0004864Y0146752D01*
X0004297Y0146185D01*
X0004297Y0145050D01*
X0004864Y0144483D01*
X0004864Y0143069D02*
X0004297Y0142501D01*
X0004297Y0141367D01*
X0004864Y0140800D01*
X0007133Y0140800D01*
X0007700Y0141367D01*
X0007700Y0142501D01*
X0007133Y0143069D01*
X0007133Y0150800D02*
X0007700Y0151367D01*
X0007700Y0152501D01*
X0007133Y0153069D01*
X0007700Y0154483D02*
X0007700Y0156752D01*
X0007700Y0155617D02*
X0004297Y0155617D01*
X0005431Y0154483D01*
X0004864Y0153069D02*
X0004297Y0152501D01*
X0004297Y0151367D01*
X0004864Y0150800D01*
X0007133Y0150800D01*
X0011000Y0158500D02*
X0008500Y0161000D01*
X0008500Y0166000D01*
X0011000Y0168500D01*
X0007700Y0166752D02*
X0007700Y0164483D01*
X0005431Y0166752D01*
X0004864Y0166752D01*
X0004297Y0166185D01*
X0004297Y0165050D01*
X0004864Y0164483D01*
X0004864Y0163069D02*
X0004297Y0162501D01*
X0004297Y0161367D01*
X0004864Y0160800D01*
X0007133Y0160800D01*
X0007700Y0161367D01*
X0007700Y0162501D01*
X0007133Y0163069D01*
X0007133Y0170800D02*
X0007700Y0171367D01*
X0007700Y0172501D01*
X0007133Y0173069D01*
X0007700Y0174483D02*
X0007700Y0176752D01*
X0007700Y0175617D02*
X0004297Y0175617D01*
X0005431Y0174483D01*
X0004864Y0173069D02*
X0004297Y0172501D01*
X0004297Y0171367D01*
X0004864Y0170800D01*
X0007133Y0170800D01*
X0011000Y0178500D02*
X0026000Y0178500D01*
X0028500Y0176000D01*
X0028500Y0171000D01*
X0026000Y0168500D01*
X0029297Y0166752D02*
X0029864Y0165617D01*
X0030999Y0164483D01*
X0030999Y0166185D01*
X0031566Y0166752D01*
X0032133Y0166752D01*
X0032700Y0166185D01*
X0032700Y0165050D01*
X0032133Y0164483D01*
X0030999Y0164483D01*
X0030999Y0163069D02*
X0031566Y0162501D01*
X0031566Y0160800D01*
X0032700Y0160800D02*
X0029297Y0160800D01*
X0029297Y0162501D01*
X0029864Y0163069D01*
X0030999Y0163069D01*
X0031566Y0161934D02*
X0032700Y0163069D01*
X0034800Y0158703D02*
X0036501Y0158703D01*
X0037069Y0158136D01*
X0037069Y0155867D01*
X0036501Y0155300D01*
X0034800Y0155300D01*
X0034800Y0158703D01*
X0032700Y0156185D02*
X0032133Y0156752D01*
X0031566Y0156752D01*
X0030999Y0156185D01*
X0030999Y0154483D01*
X0032133Y0154483D01*
X0032700Y0155050D01*
X0032700Y0156185D01*
X0030999Y0154483D02*
X0029864Y0155617D01*
X0029297Y0156752D01*
X0028500Y0156000D02*
X0028500Y0151000D01*
X0026000Y0148500D01*
X0029297Y0146752D02*
X0029297Y0144483D01*
X0030999Y0144483D01*
X0030431Y0145617D01*
X0030431Y0146185D01*
X0030999Y0146752D01*
X0032133Y0146752D01*
X0032700Y0146185D01*
X0032700Y0145050D01*
X0032133Y0144483D01*
X0032700Y0143069D02*
X0031566Y0141934D01*
X0031566Y0142501D02*
X0031566Y0140800D01*
X0032700Y0140800D02*
X0029297Y0140800D01*
X0029297Y0142501D01*
X0029864Y0143069D01*
X0030999Y0143069D01*
X0031566Y0142501D01*
X0034800Y0138703D02*
X0034800Y0135300D01*
X0036501Y0135300D01*
X0037069Y0135867D01*
X0037069Y0138136D01*
X0036501Y0138703D01*
X0034800Y0138703D01*
X0038483Y0138136D02*
X0039050Y0138703D01*
X0040185Y0138703D01*
X0040752Y0138136D01*
X0040752Y0137569D01*
X0038483Y0135300D01*
X0040752Y0135300D01*
X0040900Y0134100D02*
X0044100Y0134100D01*
X0044100Y0131900D01*
X0043868Y0135300D02*
X0042733Y0135300D01*
X0042166Y0135867D01*
X0042166Y0137001D01*
X0043868Y0137001D01*
X0044435Y0136434D01*
X0044435Y0135867D01*
X0043868Y0135300D01*
X0042166Y0137001D02*
X0043301Y0138136D01*
X0044435Y0138703D01*
X0044100Y0142900D02*
X0040900Y0142900D01*
X0044100Y0142900D02*
X0044100Y0145100D01*
X0049297Y0146185D02*
X0050999Y0144483D01*
X0050999Y0146752D01*
X0052700Y0146185D02*
X0049297Y0146185D01*
X0049864Y0143069D02*
X0049297Y0142501D01*
X0049297Y0141367D01*
X0049864Y0140800D01*
X0052133Y0140800D01*
X0052700Y0141367D01*
X0052700Y0142501D01*
X0052133Y0143069D01*
X0053500Y0141000D02*
X0053500Y0146000D01*
X0056000Y0148500D01*
X0071000Y0148500D01*
X0073500Y0146000D01*
X0073500Y0141000D01*
X0071000Y0138500D01*
X0056000Y0138500D01*
X0053500Y0136000D01*
X0053500Y0131000D01*
X0056000Y0128500D01*
X0071000Y0128500D01*
X0073500Y0126000D01*
X0073500Y0121000D01*
X0071000Y0118500D01*
X0056000Y0118500D01*
X0053500Y0116000D01*
X0053500Y0111000D01*
X0056000Y0108500D01*
X0053500Y0106000D01*
X0053500Y0101000D01*
X0056000Y0098500D01*
X0071000Y0098500D01*
X0073500Y0101000D01*
X0073500Y0106000D01*
X0071000Y0108500D01*
X0056000Y0108500D01*
X0052700Y0106185D02*
X0049297Y0106185D01*
X0050999Y0104483D01*
X0050999Y0106752D01*
X0052133Y0103069D02*
X0052700Y0102501D01*
X0052700Y0101367D01*
X0052133Y0100800D01*
X0049864Y0100800D01*
X0049297Y0101367D01*
X0049297Y0102501D01*
X0049864Y0103069D01*
X0044100Y0102900D02*
X0044100Y0105100D01*
X0044100Y0102900D02*
X0040900Y0102900D01*
X0041733Y0096203D02*
X0041166Y0095636D01*
X0041733Y0096203D02*
X0042868Y0096203D01*
X0043435Y0095636D01*
X0043435Y0095069D01*
X0041166Y0092800D01*
X0043435Y0092800D01*
X0039752Y0092800D02*
X0039752Y0096203D01*
X0039752Y0094501D02*
X0037483Y0094501D01*
X0037483Y0092800D02*
X0037483Y0096203D01*
X0036069Y0095636D02*
X0035501Y0096203D01*
X0034367Y0096203D01*
X0033800Y0095636D01*
X0033800Y0093367D01*
X0034367Y0092800D01*
X0035501Y0092800D01*
X0036069Y0093367D01*
X0036069Y0095636D01*
X0032700Y0100800D02*
X0029297Y0100800D01*
X0029297Y0102501D01*
X0029864Y0103069D01*
X0030999Y0103069D01*
X0031566Y0102501D01*
X0031566Y0100800D01*
X0031566Y0101934D02*
X0032700Y0103069D01*
X0032700Y0104483D02*
X0032133Y0104483D01*
X0029864Y0106752D01*
X0029297Y0106752D01*
X0029297Y0104483D01*
X0026000Y0108500D02*
X0028500Y0111000D01*
X0028500Y0116000D01*
X0026000Y0118500D01*
X0029297Y0120800D02*
X0029297Y0122501D01*
X0029864Y0123069D01*
X0030999Y0123069D01*
X0031566Y0122501D01*
X0031566Y0120800D01*
X0032700Y0120800D02*
X0029297Y0120800D01*
X0031566Y0121934D02*
X0032700Y0123069D01*
X0032133Y0124483D02*
X0031566Y0124483D01*
X0030999Y0125050D01*
X0030999Y0126185D01*
X0031566Y0126752D01*
X0032133Y0126752D01*
X0032700Y0126185D01*
X0032700Y0125050D01*
X0032133Y0124483D01*
X0030999Y0125050D02*
X0030431Y0124483D01*
X0029864Y0124483D01*
X0029297Y0125050D01*
X0029297Y0126185D01*
X0029864Y0126752D01*
X0030431Y0126752D01*
X0030999Y0126185D01*
X0028500Y0131000D02*
X0026000Y0128500D01*
X0028500Y0131000D02*
X0028500Y0136000D01*
X0026000Y0138500D01*
X0029297Y0136752D02*
X0029297Y0134483D01*
X0029864Y0133069D02*
X0030999Y0133069D01*
X0031566Y0132501D01*
X0031566Y0130800D01*
X0032700Y0130800D02*
X0029297Y0130800D01*
X0029297Y0132501D01*
X0029864Y0133069D01*
X0031566Y0131934D02*
X0032700Y0133069D01*
X0032700Y0134483D02*
X0032133Y0134483D01*
X0029864Y0136752D01*
X0029297Y0136752D01*
X0040900Y0122900D02*
X0044100Y0122900D01*
X0044100Y0125100D01*
X0049297Y0126185D02*
X0050999Y0124483D01*
X0050999Y0126752D01*
X0052700Y0126185D02*
X0049297Y0126185D01*
X0049864Y0123069D02*
X0049297Y0122501D01*
X0049297Y0121367D01*
X0049864Y0120800D01*
X0052133Y0120800D01*
X0052700Y0121367D01*
X0052700Y0122501D01*
X0052133Y0123069D01*
X0053500Y0121000D02*
X0053500Y0126000D01*
X0056000Y0128500D01*
X0052700Y0131367D02*
X0052700Y0132501D01*
X0052133Y0133069D01*
X0052133Y0134483D02*
X0052700Y0135050D01*
X0052700Y0136185D01*
X0052133Y0136752D01*
X0051566Y0136752D01*
X0050999Y0136185D01*
X0050999Y0135617D01*
X0050999Y0136185D02*
X0050431Y0136752D01*
X0049864Y0136752D01*
X0049297Y0136185D01*
X0049297Y0135050D01*
X0049864Y0134483D01*
X0049864Y0133069D02*
X0049297Y0132501D01*
X0049297Y0131367D01*
X0049864Y0130800D01*
X0052133Y0130800D01*
X0052700Y0131367D01*
X0056000Y0138500D02*
X0053500Y0141000D01*
X0056000Y0148500D02*
X0053500Y0151000D01*
X0053500Y0156000D01*
X0056000Y0158500D01*
X0071000Y0158500D01*
X0073500Y0156000D01*
X0073500Y0151000D01*
X0071000Y0148500D01*
X0074297Y0146752D02*
X0074297Y0144483D01*
X0075999Y0144483D01*
X0075431Y0145617D01*
X0075431Y0146185D01*
X0075999Y0146752D01*
X0077133Y0146752D01*
X0077700Y0146185D01*
X0077700Y0145050D01*
X0077133Y0144483D01*
X0077700Y0143069D02*
X0076566Y0141934D01*
X0076566Y0142501D02*
X0076566Y0140800D01*
X0077700Y0140800D02*
X0074297Y0140800D01*
X0074297Y0142501D01*
X0074864Y0143069D01*
X0075999Y0143069D01*
X0076566Y0142501D01*
X0079800Y0138703D02*
X0079800Y0135300D01*
X0081501Y0135300D01*
X0082069Y0135867D01*
X0082069Y0138136D01*
X0081501Y0138703D01*
X0079800Y0138703D01*
X0083483Y0138136D02*
X0084050Y0138703D01*
X0085185Y0138703D01*
X0085752Y0138136D01*
X0085752Y0137569D01*
X0083483Y0135300D01*
X0085752Y0135300D01*
X0085900Y0134100D02*
X0089100Y0134100D01*
X0089100Y0131900D01*
X0087166Y0135300D02*
X0087166Y0135867D01*
X0089435Y0138136D01*
X0089435Y0138703D01*
X0087166Y0138703D01*
X0085900Y0142900D02*
X0089100Y0142900D01*
X0089100Y0145100D01*
X0089100Y0151900D02*
X0089100Y0154100D01*
X0085900Y0154100D01*
X0085752Y0155300D02*
X0083483Y0155300D01*
X0085752Y0157569D01*
X0085752Y0158136D01*
X0085185Y0158703D01*
X0084050Y0158703D01*
X0083483Y0158136D01*
X0082069Y0158136D02*
X0081501Y0158703D01*
X0079800Y0158703D01*
X0079800Y0155300D01*
X0081501Y0155300D01*
X0082069Y0155867D01*
X0082069Y0158136D01*
X0077700Y0156185D02*
X0077133Y0156752D01*
X0076566Y0156752D01*
X0075999Y0156185D01*
X0075999Y0154483D01*
X0077133Y0154483D01*
X0077700Y0155050D01*
X0077700Y0156185D01*
X0075999Y0154483D02*
X0074864Y0155617D01*
X0074297Y0156752D01*
X0074864Y0153069D02*
X0075999Y0153069D01*
X0076566Y0152501D01*
X0076566Y0150800D01*
X0077700Y0150800D02*
X0074297Y0150800D01*
X0074297Y0152501D01*
X0074864Y0153069D01*
X0076566Y0151934D02*
X0077700Y0153069D01*
X0077700Y0160800D02*
X0074297Y0160800D01*
X0074297Y0162501D01*
X0074864Y0163069D01*
X0075999Y0163069D01*
X0076566Y0162501D01*
X0076566Y0160800D01*
X0076566Y0161934D02*
X0077700Y0163069D01*
X0077133Y0164483D02*
X0077700Y0165050D01*
X0077700Y0166185D01*
X0077133Y0166752D01*
X0076566Y0166752D01*
X0075999Y0166185D01*
X0075999Y0164483D01*
X0077133Y0164483D01*
X0075999Y0164483D02*
X0074864Y0165617D01*
X0074297Y0166752D01*
X0073500Y0166000D02*
X0073500Y0161000D01*
X0071000Y0158500D01*
X0073500Y0166000D02*
X0071000Y0168500D01*
X0056000Y0168500D01*
X0053500Y0166000D01*
X0053500Y0161000D01*
X0056000Y0158500D01*
X0052700Y0156185D02*
X0052700Y0155050D01*
X0052133Y0154483D01*
X0052133Y0153069D02*
X0052700Y0152501D01*
X0052700Y0151367D01*
X0052133Y0150800D01*
X0049864Y0150800D01*
X0049297Y0151367D01*
X0049297Y0152501D01*
X0049864Y0153069D01*
X0049864Y0154483D02*
X0049297Y0155050D01*
X0049297Y0156185D01*
X0049864Y0156752D01*
X0050431Y0156752D01*
X0050999Y0156185D01*
X0051566Y0156752D01*
X0052133Y0156752D01*
X0052700Y0156185D01*
X0050999Y0156185D02*
X0050999Y0155617D01*
X0049864Y0160800D02*
X0052133Y0160800D01*
X0052700Y0161367D01*
X0052700Y0162501D01*
X0052133Y0163069D01*
X0050999Y0164483D02*
X0050999Y0166752D01*
X0052700Y0166185D02*
X0049297Y0166185D01*
X0050999Y0164483D01*
X0049864Y0163069D02*
X0049297Y0162501D01*
X0049297Y0161367D01*
X0049864Y0160800D01*
X0044435Y0158136D02*
X0043868Y0158703D01*
X0042733Y0158703D01*
X0042166Y0158136D01*
X0040752Y0158136D02*
X0040185Y0158703D01*
X0039050Y0158703D01*
X0038483Y0158136D01*
X0040752Y0158136D02*
X0040752Y0157569D01*
X0038483Y0155300D01*
X0040752Y0155300D01*
X0040900Y0154100D02*
X0044100Y0154100D01*
X0044100Y0151900D01*
X0044435Y0155300D02*
X0042166Y0155300D01*
X0044435Y0157569D01*
X0044435Y0158136D01*
X0044100Y0162900D02*
X0040900Y0162900D01*
X0044100Y0162900D02*
X0044100Y0165100D01*
X0044100Y0171900D02*
X0044100Y0174100D01*
X0040900Y0174100D01*
X0040752Y0175300D02*
X0038483Y0175300D01*
X0039617Y0175300D02*
X0039617Y0178703D01*
X0038483Y0177569D01*
X0037069Y0178136D02*
X0036501Y0178703D01*
X0034800Y0178703D01*
X0034800Y0175300D01*
X0036501Y0175300D01*
X0037069Y0175867D01*
X0037069Y0178136D01*
X0032700Y0176185D02*
X0032700Y0175050D01*
X0032133Y0174483D01*
X0030999Y0174483D02*
X0030431Y0175617D01*
X0030431Y0176185D01*
X0030999Y0176752D01*
X0032133Y0176752D01*
X0032700Y0176185D01*
X0030999Y0174483D02*
X0029297Y0174483D01*
X0029297Y0176752D01*
X0029864Y0173069D02*
X0030999Y0173069D01*
X0031566Y0172501D01*
X0031566Y0170800D01*
X0032700Y0170800D02*
X0029297Y0170800D01*
X0029297Y0172501D01*
X0029864Y0173069D01*
X0031566Y0171934D02*
X0032700Y0173069D01*
X0042166Y0175867D02*
X0042166Y0176434D01*
X0042733Y0177001D01*
X0043868Y0177001D01*
X0044435Y0176434D01*
X0044435Y0175867D01*
X0043868Y0175300D01*
X0042733Y0175300D01*
X0042166Y0175867D01*
X0042733Y0177001D02*
X0042166Y0177569D01*
X0042166Y0178136D01*
X0042733Y0178703D01*
X0043868Y0178703D01*
X0044435Y0178136D01*
X0044435Y0177569D01*
X0043868Y0177001D01*
X0049297Y0176185D02*
X0049864Y0176752D01*
X0050431Y0176752D01*
X0050999Y0176185D01*
X0051566Y0176752D01*
X0052133Y0176752D01*
X0052700Y0176185D01*
X0052700Y0175050D01*
X0052133Y0174483D01*
X0052133Y0173069D02*
X0052700Y0172501D01*
X0052700Y0171367D01*
X0052133Y0170800D01*
X0049864Y0170800D01*
X0049297Y0171367D01*
X0049297Y0172501D01*
X0049864Y0173069D01*
X0049864Y0174483D02*
X0049297Y0175050D01*
X0049297Y0176185D01*
X0050999Y0176185D02*
X0050999Y0175617D01*
X0053500Y0176000D02*
X0053500Y0171000D01*
X0056000Y0168500D01*
X0053500Y0176000D02*
X0056000Y0178500D01*
X0071000Y0178500D01*
X0073500Y0176000D01*
X0073500Y0171000D01*
X0071000Y0168500D01*
X0074297Y0170800D02*
X0074297Y0172501D01*
X0074864Y0173069D01*
X0075999Y0173069D01*
X0076566Y0172501D01*
X0076566Y0170800D01*
X0077700Y0170800D02*
X0074297Y0170800D01*
X0076566Y0171934D02*
X0077700Y0173069D01*
X0077133Y0174483D02*
X0077700Y0175050D01*
X0077700Y0176185D01*
X0077133Y0176752D01*
X0075999Y0176752D01*
X0075431Y0176185D01*
X0075431Y0175617D01*
X0075999Y0174483D01*
X0074297Y0174483D01*
X0074297Y0176752D01*
X0079800Y0175300D02*
X0081501Y0175300D01*
X0082069Y0175867D01*
X0082069Y0178136D01*
X0081501Y0178703D01*
X0079800Y0178703D01*
X0079800Y0175300D01*
X0083483Y0175300D02*
X0085752Y0175300D01*
X0084617Y0175300D02*
X0084617Y0178703D01*
X0083483Y0177569D01*
X0087166Y0177569D02*
X0087733Y0177001D01*
X0089435Y0177001D01*
X0089435Y0175867D02*
X0089435Y0178136D01*
X0088868Y0178703D01*
X0087733Y0178703D01*
X0087166Y0178136D01*
X0087166Y0177569D01*
X0087166Y0175867D02*
X0087733Y0175300D01*
X0088868Y0175300D01*
X0089435Y0175867D01*
X0089100Y0174100D02*
X0085900Y0174100D01*
X0089100Y0174100D02*
X0089100Y0171900D01*
X0094297Y0171367D02*
X0094864Y0170800D01*
X0097133Y0170800D01*
X0097700Y0171367D01*
X0097700Y0172501D01*
X0097133Y0173069D01*
X0097133Y0174483D02*
X0097700Y0175050D01*
X0097700Y0176185D01*
X0097133Y0176752D01*
X0095999Y0176752D01*
X0095431Y0176185D01*
X0095431Y0175617D01*
X0095999Y0174483D01*
X0094297Y0174483D01*
X0094297Y0176752D01*
X0094864Y0173069D02*
X0094297Y0172501D01*
X0094297Y0171367D01*
X0098500Y0171000D02*
X0098500Y0176000D01*
X0101000Y0178500D01*
X0103255Y0179300D02*
X0103255Y0182703D01*
X0103255Y0181001D02*
X0105524Y0181001D01*
X0105524Y0179300D02*
X0105524Y0182703D01*
X0106939Y0182703D02*
X0109207Y0182703D01*
X0109207Y0182136D01*
X0106939Y0179867D01*
X0106939Y0179300D01*
X0098500Y0171000D02*
X0101000Y0168500D01*
X0098500Y0161000D02*
X0101000Y0158500D01*
X0089435Y0158136D02*
X0089435Y0157569D01*
X0088868Y0157001D01*
X0089435Y0156434D01*
X0089435Y0155867D01*
X0088868Y0155300D01*
X0087733Y0155300D01*
X0087166Y0155867D01*
X0088301Y0157001D02*
X0088868Y0157001D01*
X0089435Y0158136D02*
X0088868Y0158703D01*
X0087733Y0158703D01*
X0087166Y0158136D01*
X0085900Y0162900D02*
X0089100Y0162900D01*
X0089100Y0165100D01*
X0089100Y0188900D02*
X0085900Y0188900D01*
X0089100Y0188900D02*
X0089100Y0191100D01*
X0077700Y0191050D02*
X0077133Y0190483D01*
X0077700Y0191050D02*
X0077700Y0192185D01*
X0077133Y0192752D01*
X0076566Y0192752D01*
X0075999Y0192185D01*
X0075999Y0191617D01*
X0075999Y0192185D02*
X0075431Y0192752D01*
X0074864Y0192752D01*
X0074297Y0192185D01*
X0074297Y0191050D01*
X0074864Y0190483D01*
X0074864Y0189069D02*
X0075999Y0189069D01*
X0076566Y0188501D01*
X0076566Y0186800D01*
X0077700Y0186800D02*
X0074297Y0186800D01*
X0074297Y0188501D01*
X0074864Y0189069D01*
X0076566Y0187934D02*
X0077700Y0189069D01*
X0064707Y0182703D02*
X0063573Y0182136D01*
X0062439Y0181001D01*
X0064140Y0181001D01*
X0064707Y0180434D01*
X0064707Y0179867D01*
X0064140Y0179300D01*
X0063006Y0179300D01*
X0062439Y0179867D01*
X0062439Y0181001D01*
X0061024Y0181001D02*
X0058755Y0181001D01*
X0058755Y0179300D02*
X0058755Y0182703D01*
X0057434Y0182703D02*
X0056300Y0182703D01*
X0056867Y0182703D02*
X0056867Y0179300D01*
X0056300Y0179300D02*
X0057434Y0179300D01*
X0061024Y0179300D02*
X0061024Y0182703D01*
X0052133Y0196800D02*
X0049864Y0196800D01*
X0049297Y0197367D01*
X0049297Y0198501D01*
X0049864Y0199069D01*
X0049864Y0200483D02*
X0049297Y0201050D01*
X0049297Y0202185D01*
X0049864Y0202752D01*
X0050431Y0202752D01*
X0050999Y0202185D01*
X0051566Y0202752D01*
X0052133Y0202752D01*
X0052700Y0202185D01*
X0052700Y0201050D01*
X0052133Y0200483D01*
X0052133Y0199069D02*
X0052700Y0198501D01*
X0052700Y0197367D01*
X0052133Y0196800D01*
X0050999Y0201617D02*
X0050999Y0202185D01*
X0049864Y0206800D02*
X0052133Y0206800D01*
X0052700Y0207367D01*
X0052700Y0208501D01*
X0052133Y0209069D01*
X0050999Y0210483D02*
X0050999Y0212752D01*
X0052700Y0212185D02*
X0049297Y0212185D01*
X0050999Y0210483D01*
X0049864Y0209069D02*
X0049297Y0208501D01*
X0049297Y0207367D01*
X0049864Y0206800D01*
X0053500Y0207000D02*
X0053500Y0212000D01*
X0056000Y0214500D01*
X0071000Y0214500D01*
X0073500Y0212000D01*
X0073500Y0207000D01*
X0071000Y0204500D01*
X0074297Y0206800D02*
X0074297Y0208501D01*
X0074864Y0209069D01*
X0075999Y0209069D01*
X0076566Y0208501D01*
X0076566Y0206800D01*
X0077700Y0206800D02*
X0074297Y0206800D01*
X0076566Y0207934D02*
X0077700Y0209069D01*
X0075999Y0210483D02*
X0074297Y0212185D01*
X0077700Y0212185D01*
X0075999Y0212752D02*
X0075999Y0210483D01*
X0076566Y0216800D02*
X0076566Y0218501D01*
X0075999Y0219069D01*
X0074864Y0219069D01*
X0074297Y0218501D01*
X0074297Y0216800D01*
X0077700Y0216800D01*
X0076566Y0217934D02*
X0077700Y0219069D01*
X0077133Y0220483D02*
X0077700Y0221050D01*
X0077700Y0222185D01*
X0077133Y0222752D01*
X0076566Y0222752D01*
X0075999Y0222185D01*
X0075999Y0221617D01*
X0075999Y0222185D02*
X0075431Y0222752D01*
X0074864Y0222752D01*
X0074297Y0222185D01*
X0074297Y0221050D01*
X0074864Y0220483D01*
X0073500Y0222000D02*
X0071000Y0224500D01*
X0056000Y0224500D01*
X0053500Y0222000D01*
X0053500Y0217000D01*
X0056000Y0214500D01*
X0052700Y0217367D02*
X0052700Y0218501D01*
X0052133Y0219069D01*
X0052133Y0220483D02*
X0052700Y0221050D01*
X0052700Y0222185D01*
X0052133Y0222752D01*
X0051566Y0222752D01*
X0050999Y0222185D01*
X0050999Y0221617D01*
X0050999Y0222185D02*
X0050431Y0222752D01*
X0049864Y0222752D01*
X0049297Y0222185D01*
X0049297Y0221050D01*
X0049864Y0220483D01*
X0049864Y0219069D02*
X0049297Y0218501D01*
X0049297Y0217367D01*
X0049864Y0216800D01*
X0052133Y0216800D01*
X0052700Y0217367D01*
X0056000Y0224500D02*
X0053500Y0227000D01*
X0053500Y0232000D01*
X0056000Y0234500D01*
X0071000Y0234500D01*
X0073500Y0232000D01*
X0073500Y0227000D01*
X0071000Y0224500D01*
X0073500Y0222000D02*
X0073500Y0217000D01*
X0071000Y0214500D01*
X0079800Y0221300D02*
X0081501Y0221300D01*
X0082069Y0221867D01*
X0082069Y0224136D01*
X0081501Y0224703D01*
X0079800Y0224703D01*
X0079800Y0221300D01*
X0083483Y0221300D02*
X0085752Y0221300D01*
X0084617Y0221300D02*
X0084617Y0224703D01*
X0083483Y0223569D01*
X0087166Y0224136D02*
X0087733Y0224703D01*
X0088868Y0224703D01*
X0089435Y0224136D01*
X0087166Y0221867D01*
X0087733Y0221300D01*
X0088868Y0221300D01*
X0089435Y0221867D01*
X0089435Y0224136D01*
X0087166Y0224136D02*
X0087166Y0221867D01*
X0085900Y0220100D02*
X0089100Y0220100D01*
X0089100Y0217900D01*
X0094297Y0217367D02*
X0094864Y0216800D01*
X0097133Y0216800D01*
X0097700Y0217367D01*
X0097700Y0218501D01*
X0097133Y0219069D01*
X0097133Y0220483D02*
X0097700Y0221050D01*
X0097700Y0222185D01*
X0097133Y0222752D01*
X0095999Y0222752D01*
X0095431Y0222185D01*
X0095431Y0221617D01*
X0095999Y0220483D01*
X0094297Y0220483D01*
X0094297Y0222752D01*
X0094864Y0219069D02*
X0094297Y0218501D01*
X0094297Y0217367D01*
X0098500Y0217000D02*
X0098500Y0222000D01*
X0101000Y0224500D01*
X0097700Y0227367D02*
X0097700Y0228501D01*
X0097133Y0229069D01*
X0097133Y0230483D02*
X0097700Y0231050D01*
X0097700Y0232185D01*
X0097133Y0232752D01*
X0096566Y0232752D01*
X0095999Y0232185D01*
X0095999Y0230483D01*
X0097133Y0230483D01*
X0095999Y0230483D02*
X0094864Y0231617D01*
X0094297Y0232752D01*
X0094864Y0229069D02*
X0094297Y0228501D01*
X0094297Y0227367D01*
X0094864Y0226800D01*
X0097133Y0226800D01*
X0097700Y0227367D01*
X0101000Y0234500D02*
X0098500Y0237000D01*
X0098500Y0242000D01*
X0101000Y0244500D01*
X0097700Y0242185D02*
X0097700Y0241050D01*
X0097133Y0240483D01*
X0095999Y0240483D02*
X0095431Y0241617D01*
X0095431Y0242185D01*
X0095999Y0242752D01*
X0097133Y0242752D01*
X0097700Y0242185D01*
X0095999Y0240483D02*
X0094297Y0240483D01*
X0094297Y0242752D01*
X0094864Y0239069D02*
X0094297Y0238501D01*
X0094297Y0237367D01*
X0094864Y0236800D01*
X0097133Y0236800D01*
X0097700Y0237367D01*
X0097700Y0238501D01*
X0097133Y0239069D01*
X0097133Y0246800D02*
X0094864Y0246800D01*
X0094297Y0247367D01*
X0094297Y0248501D01*
X0094864Y0249069D01*
X0095999Y0250483D02*
X0094864Y0251617D01*
X0094297Y0252752D01*
X0095999Y0252185D02*
X0095999Y0250483D01*
X0097133Y0250483D01*
X0097700Y0251050D01*
X0097700Y0252185D01*
X0097133Y0252752D01*
X0096566Y0252752D01*
X0095999Y0252185D01*
X0097133Y0249069D02*
X0097700Y0248501D01*
X0097700Y0247367D01*
X0097133Y0246800D01*
X0089100Y0248900D02*
X0089100Y0251100D01*
X0089100Y0248900D02*
X0085900Y0248900D01*
X0085752Y0244703D02*
X0084617Y0244136D01*
X0083483Y0243001D01*
X0085185Y0243001D01*
X0085752Y0242434D01*
X0085752Y0241867D01*
X0085185Y0241300D01*
X0084050Y0241300D01*
X0083483Y0241867D01*
X0083483Y0243001D01*
X0082069Y0241867D02*
X0081501Y0241300D01*
X0079800Y0241300D01*
X0079800Y0244703D01*
X0081501Y0244703D01*
X0082069Y0244136D01*
X0082069Y0241867D01*
X0085900Y0240100D02*
X0089100Y0240100D01*
X0089100Y0237900D01*
X0089100Y0231100D02*
X0089100Y0228900D01*
X0085900Y0228900D01*
X0077700Y0229069D02*
X0076566Y0227934D01*
X0076566Y0228501D02*
X0076566Y0226800D01*
X0077700Y0226800D02*
X0074297Y0226800D01*
X0074297Y0228501D01*
X0074864Y0229069D01*
X0075999Y0229069D01*
X0076566Y0228501D01*
X0077700Y0230483D02*
X0077700Y0232752D01*
X0077700Y0231617D02*
X0074297Y0231617D01*
X0075431Y0230483D01*
X0071000Y0234500D02*
X0073500Y0237000D01*
X0073500Y0242000D01*
X0071000Y0244500D01*
X0056000Y0244500D01*
X0053500Y0242000D01*
X0053500Y0237000D01*
X0056000Y0234500D01*
X0052700Y0232185D02*
X0049297Y0232185D01*
X0050999Y0230483D01*
X0050999Y0232752D01*
X0052133Y0229069D02*
X0052700Y0228501D01*
X0052700Y0227367D01*
X0052133Y0226800D01*
X0049864Y0226800D01*
X0049297Y0227367D01*
X0049297Y0228501D01*
X0049864Y0229069D01*
X0044100Y0228900D02*
X0044100Y0231100D01*
X0044100Y0228900D02*
X0040900Y0228900D01*
X0039685Y0224703D02*
X0038550Y0224703D01*
X0037983Y0224136D01*
X0037983Y0223569D01*
X0038550Y0223001D01*
X0040252Y0223001D01*
X0040252Y0221867D02*
X0040252Y0224136D01*
X0039685Y0224703D01*
X0040252Y0221867D02*
X0039685Y0221300D01*
X0038550Y0221300D01*
X0037983Y0221867D01*
X0036569Y0221867D02*
X0036569Y0224136D01*
X0036001Y0224703D01*
X0034300Y0224703D01*
X0034300Y0221300D01*
X0036001Y0221300D01*
X0036569Y0221867D01*
X0032700Y0222185D02*
X0032700Y0221050D01*
X0032133Y0220483D01*
X0032700Y0219069D02*
X0031566Y0217934D01*
X0031566Y0218501D02*
X0031566Y0216800D01*
X0032700Y0216800D02*
X0029297Y0216800D01*
X0029297Y0218501D01*
X0029864Y0219069D01*
X0030999Y0219069D01*
X0031566Y0218501D01*
X0029864Y0220483D02*
X0029297Y0221050D01*
X0029297Y0222185D01*
X0029864Y0222752D01*
X0030431Y0222752D01*
X0030999Y0222185D01*
X0031566Y0222752D01*
X0032133Y0222752D01*
X0032700Y0222185D01*
X0030999Y0222185D02*
X0030999Y0221617D01*
X0028500Y0222000D02*
X0026000Y0224500D01*
X0011000Y0224500D01*
X0008500Y0222000D01*
X0008500Y0217000D01*
X0011000Y0214500D01*
X0026000Y0214500D01*
X0028500Y0212000D01*
X0028500Y0207000D01*
X0026000Y0204500D01*
X0029297Y0206800D02*
X0029297Y0208501D01*
X0029864Y0209069D01*
X0030999Y0209069D01*
X0031566Y0208501D01*
X0031566Y0206800D01*
X0032700Y0206800D02*
X0029297Y0206800D01*
X0031566Y0207934D02*
X0032700Y0209069D01*
X0030999Y0210483D02*
X0030999Y0212752D01*
X0032700Y0212185D02*
X0029297Y0212185D01*
X0030999Y0210483D01*
X0026000Y0214500D02*
X0028500Y0217000D01*
X0028500Y0222000D01*
X0026000Y0224500D02*
X0028500Y0227000D01*
X0028500Y0232000D01*
X0026000Y0234500D01*
X0011000Y0234500D01*
X0008500Y0232000D01*
X0008500Y0227000D01*
X0011000Y0224500D01*
X0007700Y0222752D02*
X0007700Y0220483D01*
X0007700Y0221617D02*
X0004297Y0221617D01*
X0005431Y0220483D01*
X0004864Y0219069D02*
X0004297Y0218501D01*
X0004297Y0217367D01*
X0004864Y0216800D01*
X0007133Y0216800D01*
X0007700Y0217367D01*
X0007700Y0218501D01*
X0007133Y0219069D01*
X0011000Y0214500D02*
X0008500Y0212000D01*
X0008500Y0207000D01*
X0011000Y0204500D01*
X0007700Y0202752D02*
X0007700Y0200483D01*
X0007700Y0201617D02*
X0004297Y0201617D01*
X0005431Y0200483D01*
X0004864Y0199069D02*
X0004297Y0198501D01*
X0004297Y0197367D01*
X0004864Y0196800D01*
X0007133Y0196800D01*
X0007700Y0197367D01*
X0007700Y0198501D01*
X0007133Y0199069D01*
X0007133Y0206800D02*
X0007700Y0207367D01*
X0007700Y0208501D01*
X0007133Y0209069D01*
X0007700Y0210483D02*
X0005431Y0212752D01*
X0004864Y0212752D01*
X0004297Y0212185D01*
X0004297Y0211050D01*
X0004864Y0210483D01*
X0004864Y0209069D02*
X0004297Y0208501D01*
X0004297Y0207367D01*
X0004864Y0206800D01*
X0007133Y0206800D01*
X0007700Y0210483D02*
X0007700Y0212752D01*
X0007133Y0226800D02*
X0007700Y0227367D01*
X0007700Y0228501D01*
X0007133Y0229069D01*
X0007700Y0230483D02*
X0005431Y0232752D01*
X0004864Y0232752D01*
X0004297Y0232185D01*
X0004297Y0231050D01*
X0004864Y0230483D01*
X0004864Y0229069D02*
X0004297Y0228501D01*
X0004297Y0227367D01*
X0004864Y0226800D01*
X0007133Y0226800D01*
X0007700Y0230483D02*
X0007700Y0232752D01*
X0011000Y0234500D02*
X0008500Y0237000D01*
X0008500Y0242000D01*
X0011000Y0244500D01*
X0026000Y0244500D01*
X0028500Y0242000D01*
X0028500Y0237000D01*
X0026000Y0234500D01*
X0029297Y0236800D02*
X0029297Y0238501D01*
X0029864Y0239069D01*
X0030999Y0239069D01*
X0031566Y0238501D01*
X0031566Y0236800D01*
X0032700Y0236800D02*
X0029297Y0236800D01*
X0031566Y0237934D02*
X0032700Y0239069D01*
X0032700Y0240483D02*
X0030431Y0242752D01*
X0029864Y0242752D01*
X0029297Y0242185D01*
X0029297Y0241050D01*
X0029864Y0240483D01*
X0032700Y0240483D02*
X0032700Y0242752D01*
X0034800Y0241300D02*
X0034800Y0244703D01*
X0036501Y0244703D01*
X0037069Y0244136D01*
X0037069Y0241867D01*
X0036501Y0241300D01*
X0034800Y0241300D01*
X0038483Y0241867D02*
X0039050Y0241300D01*
X0040185Y0241300D01*
X0040752Y0241867D01*
X0040752Y0243001D01*
X0040185Y0243569D01*
X0039617Y0243569D01*
X0038483Y0243001D01*
X0038483Y0244703D01*
X0040752Y0244703D01*
X0040900Y0248900D02*
X0044100Y0248900D01*
X0044100Y0251100D01*
X0049297Y0252185D02*
X0050999Y0250483D01*
X0050999Y0252752D01*
X0052700Y0252185D02*
X0049297Y0252185D01*
X0049864Y0249069D02*
X0049297Y0248501D01*
X0049297Y0247367D01*
X0049864Y0246800D01*
X0052133Y0246800D01*
X0052700Y0247367D01*
X0052700Y0248501D01*
X0052133Y0249069D01*
X0053500Y0247000D02*
X0053500Y0252000D01*
X0056000Y0254500D01*
X0071000Y0254500D01*
X0073500Y0252000D01*
X0073500Y0247000D01*
X0071000Y0244500D01*
X0074297Y0246800D02*
X0074297Y0248501D01*
X0074864Y0249069D01*
X0075999Y0249069D01*
X0076566Y0248501D01*
X0076566Y0246800D01*
X0077700Y0246800D02*
X0074297Y0246800D01*
X0076566Y0247934D02*
X0077700Y0249069D01*
X0077700Y0250483D02*
X0075431Y0252752D01*
X0074864Y0252752D01*
X0074297Y0252185D01*
X0074297Y0251050D01*
X0074864Y0250483D01*
X0077700Y0250483D02*
X0077700Y0252752D01*
X0077700Y0256800D02*
X0074297Y0256800D01*
X0074297Y0258501D01*
X0074864Y0259069D01*
X0075999Y0259069D01*
X0076566Y0258501D01*
X0076566Y0256800D01*
X0076566Y0257934D02*
X0077700Y0259069D01*
X0077700Y0260483D02*
X0077700Y0262752D01*
X0077700Y0261617D02*
X0074297Y0261617D01*
X0075431Y0260483D01*
X0073500Y0262000D02*
X0073500Y0257000D01*
X0071000Y0254500D01*
X0073500Y0262000D02*
X0071000Y0264500D01*
X0056000Y0264500D01*
X0053500Y0262000D01*
X0053500Y0257000D01*
X0056000Y0254500D01*
X0052700Y0257367D02*
X0052700Y0258501D01*
X0052133Y0259069D01*
X0052133Y0260483D02*
X0052700Y0261050D01*
X0052700Y0262185D01*
X0052133Y0262752D01*
X0051566Y0262752D01*
X0050999Y0262185D01*
X0050999Y0261617D01*
X0050999Y0262185D02*
X0050431Y0262752D01*
X0049864Y0262752D01*
X0049297Y0262185D01*
X0049297Y0261050D01*
X0049864Y0260483D01*
X0049864Y0259069D02*
X0049297Y0258501D01*
X0049297Y0257367D01*
X0049864Y0256800D01*
X0052133Y0256800D01*
X0052700Y0257367D01*
X0044100Y0257900D02*
X0044100Y0260100D01*
X0040900Y0260100D01*
X0040752Y0261300D02*
X0038483Y0261300D01*
X0039617Y0261300D02*
X0039617Y0264703D01*
X0038483Y0263569D01*
X0037069Y0264136D02*
X0036501Y0264703D01*
X0034800Y0264703D01*
X0034800Y0261300D01*
X0036501Y0261300D01*
X0037069Y0261867D01*
X0037069Y0264136D01*
X0032700Y0262752D02*
X0032700Y0260483D01*
X0032700Y0261617D02*
X0029297Y0261617D01*
X0030431Y0260483D01*
X0029864Y0259069D02*
X0030999Y0259069D01*
X0031566Y0258501D01*
X0031566Y0256800D01*
X0032700Y0256800D02*
X0029297Y0256800D01*
X0029297Y0258501D01*
X0029864Y0259069D01*
X0031566Y0257934D02*
X0032700Y0259069D01*
X0028500Y0257000D02*
X0026000Y0254500D01*
X0011000Y0254500D01*
X0008500Y0252000D01*
X0008500Y0247000D01*
X0011000Y0244500D01*
X0007700Y0242752D02*
X0007700Y0240483D01*
X0007700Y0241617D02*
X0004297Y0241617D01*
X0005431Y0240483D01*
X0004864Y0239069D02*
X0004297Y0238501D01*
X0004297Y0237367D01*
X0004864Y0236800D01*
X0007133Y0236800D01*
X0007700Y0237367D01*
X0007700Y0238501D01*
X0007133Y0239069D01*
X0007133Y0246800D02*
X0007700Y0247367D01*
X0007700Y0248501D01*
X0007133Y0249069D01*
X0007700Y0250483D02*
X0005431Y0252752D01*
X0004864Y0252752D01*
X0004297Y0252185D01*
X0004297Y0251050D01*
X0004864Y0250483D01*
X0004864Y0249069D02*
X0004297Y0248501D01*
X0004297Y0247367D01*
X0004864Y0246800D01*
X0007133Y0246800D01*
X0007700Y0250483D02*
X0007700Y0252752D01*
X0011000Y0254500D02*
X0008500Y0257000D01*
X0008500Y0262000D01*
X0011000Y0264500D01*
X0026000Y0264500D01*
X0028500Y0262000D01*
X0028500Y0257000D01*
X0026000Y0254500D02*
X0028500Y0252000D01*
X0028500Y0247000D01*
X0026000Y0244500D01*
X0029297Y0246800D02*
X0029297Y0248501D01*
X0029864Y0249069D01*
X0030999Y0249069D01*
X0031566Y0248501D01*
X0031566Y0246800D01*
X0032700Y0246800D02*
X0029297Y0246800D01*
X0031566Y0247934D02*
X0032700Y0249069D01*
X0032700Y0250483D02*
X0030431Y0252752D01*
X0029864Y0252752D01*
X0029297Y0252185D01*
X0029297Y0251050D01*
X0029864Y0250483D01*
X0032700Y0250483D02*
X0032700Y0252752D01*
X0040900Y0240100D02*
X0044100Y0240100D01*
X0044100Y0237900D01*
X0049297Y0237367D02*
X0049864Y0236800D01*
X0052133Y0236800D01*
X0052700Y0237367D01*
X0052700Y0238501D01*
X0052133Y0239069D01*
X0052133Y0240483D02*
X0052700Y0241050D01*
X0052700Y0242185D01*
X0052133Y0242752D01*
X0051566Y0242752D01*
X0050999Y0242185D01*
X0050999Y0241617D01*
X0050999Y0242185D02*
X0050431Y0242752D01*
X0049864Y0242752D01*
X0049297Y0242185D01*
X0049297Y0241050D01*
X0049864Y0240483D01*
X0049864Y0239069D02*
X0049297Y0238501D01*
X0049297Y0237367D01*
X0056000Y0244500D02*
X0053500Y0247000D01*
X0056300Y0265300D02*
X0057434Y0265300D01*
X0056867Y0265300D02*
X0056867Y0268703D01*
X0056300Y0268703D02*
X0057434Y0268703D01*
X0058755Y0268703D02*
X0058755Y0265300D01*
X0058755Y0267001D02*
X0061024Y0267001D01*
X0061024Y0265300D02*
X0061024Y0268703D01*
X0062439Y0268136D02*
X0063006Y0268703D01*
X0064140Y0268703D01*
X0064707Y0268136D01*
X0064707Y0267569D01*
X0062439Y0265300D01*
X0064707Y0265300D01*
X0065020Y0275386D02*
X0065020Y0313614D01*
X0039980Y0313614D01*
X0039980Y0275386D01*
X0065020Y0275386D01*
X0079800Y0265203D02*
X0081501Y0265203D01*
X0082069Y0264636D01*
X0082069Y0262367D01*
X0081501Y0261800D01*
X0079800Y0261800D01*
X0079800Y0265203D01*
X0083483Y0264636D02*
X0084050Y0265203D01*
X0085185Y0265203D01*
X0085752Y0264636D01*
X0085752Y0264069D01*
X0083483Y0261800D01*
X0085752Y0261800D01*
X0085900Y0260100D02*
X0089100Y0260100D01*
X0089100Y0257900D01*
X0094297Y0257367D02*
X0094864Y0256800D01*
X0097133Y0256800D01*
X0097700Y0257367D01*
X0097700Y0258501D01*
X0097133Y0259069D01*
X0097133Y0260483D02*
X0097700Y0261050D01*
X0097700Y0262185D01*
X0097133Y0262752D01*
X0095999Y0262752D01*
X0095431Y0262185D01*
X0095431Y0261617D01*
X0095999Y0260483D01*
X0094297Y0260483D01*
X0094297Y0262752D01*
X0094864Y0259069D02*
X0094297Y0258501D01*
X0094297Y0257367D01*
X0098500Y0257000D02*
X0098500Y0262000D01*
X0101000Y0264500D01*
X0116000Y0264500D01*
X0118500Y0262000D01*
X0116000Y0254500D02*
X0118500Y0252000D01*
X0118500Y0247000D01*
X0116000Y0244500D01*
X0119297Y0246800D02*
X0119297Y0248501D01*
X0119864Y0249069D01*
X0120999Y0249069D01*
X0121566Y0248501D01*
X0121566Y0246800D01*
X0122700Y0246800D02*
X0119297Y0246800D01*
X0121566Y0247934D02*
X0122700Y0249069D01*
X0122700Y0250483D02*
X0120431Y0252752D01*
X0119864Y0252752D01*
X0119297Y0252185D01*
X0119297Y0251050D01*
X0119864Y0250483D01*
X0122700Y0250483D02*
X0122700Y0252752D01*
X0122700Y0242752D02*
X0122700Y0240483D01*
X0120431Y0242752D01*
X0119864Y0242752D01*
X0119297Y0242185D01*
X0119297Y0241050D01*
X0119864Y0240483D01*
X0119864Y0239069D02*
X0120999Y0239069D01*
X0121566Y0238501D01*
X0121566Y0236800D01*
X0122700Y0236800D02*
X0119297Y0236800D01*
X0119297Y0238501D01*
X0119864Y0239069D01*
X0121566Y0237934D02*
X0122700Y0239069D01*
X0116000Y0234500D02*
X0118500Y0232000D01*
X0118500Y0227000D01*
X0116000Y0224500D01*
X0119297Y0226800D02*
X0119297Y0228501D01*
X0119864Y0229069D01*
X0120999Y0229069D01*
X0121566Y0228501D01*
X0121566Y0226800D01*
X0122700Y0226800D02*
X0119297Y0226800D01*
X0121566Y0227934D02*
X0122700Y0229069D01*
X0122700Y0230483D02*
X0122700Y0232752D01*
X0122700Y0231617D02*
X0119297Y0231617D01*
X0120431Y0230483D01*
X0120431Y0222752D02*
X0120999Y0222185D01*
X0121566Y0222752D01*
X0122133Y0222752D01*
X0122700Y0222185D01*
X0122700Y0221050D01*
X0122133Y0220483D01*
X0122700Y0219069D02*
X0121566Y0217934D01*
X0121566Y0218501D02*
X0121566Y0216800D01*
X0122700Y0216800D02*
X0119297Y0216800D01*
X0119297Y0218501D01*
X0119864Y0219069D01*
X0120999Y0219069D01*
X0121566Y0218501D01*
X0119864Y0220483D02*
X0119297Y0221050D01*
X0119297Y0222185D01*
X0119864Y0222752D01*
X0120431Y0222752D01*
X0120999Y0222185D02*
X0120999Y0221617D01*
X0116000Y0214500D02*
X0118500Y0212000D01*
X0118500Y0207000D01*
X0116000Y0204500D01*
X0119297Y0206800D02*
X0119297Y0208501D01*
X0119864Y0209069D01*
X0120999Y0209069D01*
X0121566Y0208501D01*
X0121566Y0206800D01*
X0122700Y0206800D02*
X0119297Y0206800D01*
X0121566Y0207934D02*
X0122700Y0209069D01*
X0120999Y0210483D02*
X0120999Y0212752D01*
X0122700Y0212185D02*
X0119297Y0212185D01*
X0120999Y0210483D01*
X0130900Y0228900D02*
X0134100Y0228900D01*
X0134100Y0231100D01*
X0143500Y0217000D02*
X0146000Y0214500D01*
X0164297Y0212185D02*
X0165999Y0210483D01*
X0165999Y0212752D01*
X0167700Y0212185D02*
X0164297Y0212185D01*
X0164864Y0209069D02*
X0165999Y0209069D01*
X0166566Y0208501D01*
X0166566Y0206800D01*
X0167700Y0206800D02*
X0164297Y0206800D01*
X0164297Y0208501D01*
X0164864Y0209069D01*
X0166566Y0207934D02*
X0167700Y0209069D01*
X0170800Y0204703D02*
X0172501Y0204703D01*
X0173069Y0204136D01*
X0173069Y0201867D01*
X0172501Y0201300D01*
X0170800Y0201300D01*
X0170800Y0204703D01*
X0174483Y0203569D02*
X0175617Y0204703D01*
X0175617Y0201300D01*
X0174483Y0201300D02*
X0176752Y0201300D01*
X0176900Y0200100D02*
X0180100Y0200100D01*
X0180100Y0197900D01*
X0179868Y0201300D02*
X0180435Y0201867D01*
X0180435Y0202434D01*
X0179868Y0203001D01*
X0178166Y0203001D01*
X0178166Y0201867D01*
X0178733Y0201300D01*
X0179868Y0201300D01*
X0178166Y0203001D02*
X0179301Y0204136D01*
X0180435Y0204703D01*
X0180100Y0208900D02*
X0176900Y0208900D01*
X0180100Y0208900D02*
X0180100Y0211100D01*
X0180100Y0191100D02*
X0180100Y0188900D01*
X0176900Y0188900D01*
X0167700Y0189069D02*
X0166566Y0187934D01*
X0166566Y0188501D02*
X0166566Y0186800D01*
X0167700Y0186800D02*
X0164297Y0186800D01*
X0164297Y0188501D01*
X0164864Y0189069D01*
X0165999Y0189069D01*
X0166566Y0188501D01*
X0167133Y0190483D02*
X0167700Y0191050D01*
X0167700Y0192185D01*
X0167133Y0192752D01*
X0166566Y0192752D01*
X0165999Y0192185D01*
X0165999Y0191617D01*
X0165999Y0192185D02*
X0165431Y0192752D01*
X0164864Y0192752D01*
X0164297Y0192185D01*
X0164297Y0191050D01*
X0164864Y0190483D01*
X0134100Y0145100D02*
X0134100Y0142900D01*
X0130900Y0142900D01*
X0130185Y0138703D02*
X0129050Y0138703D01*
X0128483Y0138136D01*
X0127069Y0138136D02*
X0126501Y0138703D01*
X0124800Y0138703D01*
X0124800Y0135300D01*
X0126501Y0135300D01*
X0127069Y0135867D01*
X0127069Y0138136D01*
X0130185Y0138703D02*
X0130752Y0138136D01*
X0130752Y0137569D01*
X0128483Y0135300D01*
X0130752Y0135300D01*
X0130900Y0134100D02*
X0134100Y0134100D01*
X0134100Y0131900D01*
X0133868Y0135300D02*
X0132733Y0135300D01*
X0132166Y0135867D01*
X0132166Y0136434D01*
X0132733Y0137001D01*
X0133868Y0137001D01*
X0134435Y0136434D01*
X0134435Y0135867D01*
X0133868Y0135300D01*
X0133868Y0137001D02*
X0134435Y0137569D01*
X0134435Y0138136D01*
X0133868Y0138703D01*
X0132733Y0138703D01*
X0132166Y0138136D01*
X0132166Y0137569D01*
X0132733Y0137001D01*
X0139297Y0137752D02*
X0139864Y0137752D01*
X0139297Y0137752D02*
X0139297Y0135483D01*
X0139864Y0134069D02*
X0139297Y0133501D01*
X0139297Y0132367D01*
X0139864Y0131800D01*
X0142133Y0131800D01*
X0142700Y0132367D01*
X0142700Y0133501D01*
X0142133Y0134069D01*
X0143500Y0136000D02*
X0146000Y0138500D01*
X0134100Y0125100D02*
X0134100Y0122900D01*
X0130900Y0122900D01*
X0130185Y0118703D02*
X0130752Y0118136D01*
X0130752Y0117569D01*
X0130185Y0117001D01*
X0130752Y0116434D01*
X0130752Y0115867D01*
X0130185Y0115300D01*
X0129050Y0115300D01*
X0128483Y0115867D01*
X0127069Y0115867D02*
X0127069Y0118136D01*
X0126501Y0118703D01*
X0124800Y0118703D01*
X0124800Y0115300D01*
X0126501Y0115300D01*
X0127069Y0115867D01*
X0128483Y0118136D02*
X0129050Y0118703D01*
X0130185Y0118703D01*
X0130185Y0117001D02*
X0129617Y0117001D01*
X0132166Y0118136D02*
X0132733Y0118703D01*
X0133868Y0118703D01*
X0134435Y0118136D01*
X0134435Y0117569D01*
X0132166Y0115300D01*
X0134435Y0115300D01*
X0134100Y0114100D02*
X0134100Y0111900D01*
X0134100Y0114100D02*
X0130900Y0114100D01*
X0139297Y0113501D02*
X0139297Y0112367D01*
X0139864Y0111800D01*
X0142133Y0111800D01*
X0142700Y0112367D01*
X0142700Y0113501D01*
X0142133Y0114069D01*
X0139864Y0114069D02*
X0139297Y0113501D01*
X0139297Y0115483D02*
X0139297Y0117752D01*
X0139864Y0117752D01*
X0143500Y0116000D02*
X0146000Y0118500D01*
X0149367Y0096203D02*
X0148800Y0095636D01*
X0148800Y0093367D01*
X0149367Y0092800D01*
X0150501Y0092800D01*
X0151069Y0093367D01*
X0151069Y0095636D01*
X0150501Y0096203D01*
X0149367Y0096203D01*
X0152483Y0096203D02*
X0152483Y0092800D01*
X0152483Y0094501D02*
X0154752Y0094501D01*
X0154752Y0092800D02*
X0154752Y0096203D01*
X0156166Y0096203D02*
X0158435Y0096203D01*
X0158435Y0095636D01*
X0156166Y0093367D01*
X0156166Y0092800D01*
X0146500Y0084000D02*
X0149000Y0081500D01*
X0143500Y0074000D02*
X0141000Y0071500D01*
X0146500Y0064000D02*
X0149000Y0061500D01*
X0143500Y0054000D02*
X0141000Y0051500D01*
X0126000Y0061500D02*
X0123500Y0064000D01*
X0118000Y0071500D02*
X0120500Y0074000D01*
X0126000Y0081500D02*
X0123500Y0084000D01*
X0112435Y0093367D02*
X0111868Y0092800D01*
X0110733Y0092800D01*
X0110166Y0093367D01*
X0110166Y0094501D02*
X0111301Y0095069D01*
X0111868Y0095069D01*
X0112435Y0094501D01*
X0112435Y0093367D01*
X0110166Y0094501D02*
X0110166Y0096203D01*
X0112435Y0096203D01*
X0108752Y0096203D02*
X0108752Y0092800D01*
X0108752Y0094501D02*
X0106483Y0094501D01*
X0106483Y0092800D02*
X0106483Y0096203D01*
X0105069Y0095636D02*
X0104501Y0096203D01*
X0103367Y0096203D01*
X0102800Y0095636D01*
X0102800Y0093367D01*
X0103367Y0092800D01*
X0104501Y0092800D01*
X0105069Y0093367D01*
X0105069Y0095636D01*
X0100500Y0084000D02*
X0103000Y0081500D01*
X0100500Y0064000D02*
X0103000Y0061500D01*
X0118000Y0051500D02*
X0120500Y0054000D01*
X0119483Y0030203D02*
X0119483Y0028501D01*
X0120617Y0029069D01*
X0121185Y0029069D01*
X0121752Y0028501D01*
X0121752Y0027367D01*
X0121185Y0026800D01*
X0120050Y0026800D01*
X0119483Y0027367D01*
X0118069Y0027367D02*
X0117501Y0026800D01*
X0116367Y0026800D01*
X0115800Y0027367D01*
X0115800Y0029636D01*
X0116367Y0030203D01*
X0117501Y0030203D01*
X0118069Y0029636D01*
X0119483Y0030203D02*
X0121752Y0030203D01*
X0138800Y0029636D02*
X0138800Y0027367D01*
X0139367Y0026800D01*
X0140501Y0026800D01*
X0141069Y0027367D01*
X0142483Y0027367D02*
X0143050Y0026800D01*
X0144185Y0026800D01*
X0144752Y0027367D01*
X0144752Y0027934D01*
X0144185Y0028501D01*
X0142483Y0028501D01*
X0142483Y0027367D01*
X0142483Y0028501D02*
X0143617Y0029636D01*
X0144752Y0030203D01*
X0141069Y0029636D02*
X0140501Y0030203D01*
X0139367Y0030203D01*
X0138800Y0029636D01*
X0161800Y0029636D02*
X0161800Y0027367D01*
X0162367Y0026800D01*
X0163501Y0026800D01*
X0164069Y0027367D01*
X0165483Y0027367D02*
X0165483Y0026800D01*
X0165483Y0027367D02*
X0167752Y0029636D01*
X0167752Y0030203D01*
X0165483Y0030203D01*
X0164069Y0029636D02*
X0163501Y0030203D01*
X0162367Y0030203D01*
X0161800Y0029636D01*
X0164000Y0051500D02*
X0166500Y0054000D01*
X0172000Y0061500D02*
X0169500Y0064000D01*
X0164000Y0071500D02*
X0166500Y0074000D01*
X0172000Y0081500D02*
X0169500Y0084000D01*
X0122700Y0110800D02*
X0119297Y0110800D01*
X0119297Y0112501D01*
X0119864Y0113069D01*
X0120999Y0113069D01*
X0121566Y0112501D01*
X0121566Y0110800D01*
X0121566Y0111934D02*
X0122700Y0113069D01*
X0122133Y0114483D02*
X0121566Y0114483D01*
X0120999Y0115050D01*
X0120999Y0116185D01*
X0121566Y0116752D01*
X0122133Y0116752D01*
X0122700Y0116185D01*
X0122700Y0115050D01*
X0122133Y0114483D01*
X0120999Y0115050D02*
X0120431Y0114483D01*
X0119864Y0114483D01*
X0119297Y0115050D01*
X0119297Y0116185D01*
X0119864Y0116752D01*
X0120431Y0116752D01*
X0120999Y0116185D01*
X0101000Y0118500D02*
X0098500Y0121000D01*
X0089100Y0122900D02*
X0089100Y0125100D01*
X0089100Y0122900D02*
X0085900Y0122900D01*
X0085185Y0118703D02*
X0085752Y0118136D01*
X0085752Y0117569D01*
X0085185Y0117001D01*
X0085752Y0116434D01*
X0085752Y0115867D01*
X0085185Y0115300D01*
X0084050Y0115300D01*
X0083483Y0115867D01*
X0082069Y0115867D02*
X0082069Y0118136D01*
X0081501Y0118703D01*
X0079800Y0118703D01*
X0079800Y0115300D01*
X0081501Y0115300D01*
X0082069Y0115867D01*
X0083483Y0118136D02*
X0084050Y0118703D01*
X0085185Y0118703D01*
X0085185Y0117001D02*
X0084617Y0117001D01*
X0087166Y0117569D02*
X0088301Y0118703D01*
X0088301Y0115300D01*
X0089435Y0115300D02*
X0087166Y0115300D01*
X0085900Y0114100D02*
X0089100Y0114100D01*
X0089100Y0111900D01*
X0089100Y0105100D02*
X0089100Y0102900D01*
X0085900Y0102900D01*
X0085752Y0096203D02*
X0085752Y0092800D01*
X0085752Y0094501D02*
X0083483Y0094501D01*
X0083483Y0092800D02*
X0083483Y0096203D01*
X0082069Y0095636D02*
X0082069Y0093367D01*
X0081501Y0092800D01*
X0080367Y0092800D01*
X0079800Y0093367D01*
X0079800Y0095636D01*
X0080367Y0096203D01*
X0081501Y0096203D01*
X0082069Y0095636D01*
X0077700Y0100800D02*
X0074297Y0100800D01*
X0074297Y0102501D01*
X0074864Y0103069D01*
X0075999Y0103069D01*
X0076566Y0102501D01*
X0076566Y0100800D01*
X0076566Y0101934D02*
X0077700Y0103069D01*
X0077700Y0104483D02*
X0077133Y0104483D01*
X0074864Y0106752D01*
X0074297Y0106752D01*
X0074297Y0104483D01*
X0071000Y0108500D02*
X0073500Y0111000D01*
X0073500Y0116000D01*
X0071000Y0118500D01*
X0074297Y0120800D02*
X0074297Y0122501D01*
X0074864Y0123069D01*
X0075999Y0123069D01*
X0076566Y0122501D01*
X0076566Y0120800D01*
X0077700Y0120800D02*
X0074297Y0120800D01*
X0076566Y0121934D02*
X0077700Y0123069D01*
X0077133Y0124483D02*
X0076566Y0124483D01*
X0075999Y0125050D01*
X0075999Y0126185D01*
X0076566Y0126752D01*
X0077133Y0126752D01*
X0077700Y0126185D01*
X0077700Y0125050D01*
X0077133Y0124483D01*
X0075999Y0125050D02*
X0075431Y0124483D01*
X0074864Y0124483D01*
X0074297Y0125050D01*
X0074297Y0126185D01*
X0074864Y0126752D01*
X0075431Y0126752D01*
X0075999Y0126185D01*
X0076566Y0130800D02*
X0076566Y0132501D01*
X0075999Y0133069D01*
X0074864Y0133069D01*
X0074297Y0132501D01*
X0074297Y0130800D01*
X0077700Y0130800D01*
X0076566Y0131934D02*
X0077700Y0133069D01*
X0077700Y0134483D02*
X0077133Y0134483D01*
X0074864Y0136752D01*
X0074297Y0136752D01*
X0074297Y0134483D01*
X0073500Y0136000D02*
X0073500Y0131000D01*
X0071000Y0128500D01*
X0073500Y0136000D02*
X0071000Y0138500D01*
X0053500Y0121000D02*
X0056000Y0118500D01*
X0052700Y0116185D02*
X0052700Y0115050D01*
X0052133Y0114483D01*
X0052133Y0113069D02*
X0052700Y0112501D01*
X0052700Y0111367D01*
X0052133Y0110800D01*
X0049864Y0110800D01*
X0049297Y0111367D01*
X0049297Y0112501D01*
X0049864Y0113069D01*
X0049864Y0114483D02*
X0049297Y0115050D01*
X0049297Y0116185D01*
X0049864Y0116752D01*
X0050431Y0116752D01*
X0050999Y0116185D01*
X0051566Y0116752D01*
X0052133Y0116752D01*
X0052700Y0116185D01*
X0050999Y0116185D02*
X0050999Y0115617D01*
X0044435Y0115867D02*
X0043868Y0115300D01*
X0042733Y0115300D01*
X0042166Y0115867D01*
X0044435Y0118136D01*
X0044435Y0115867D01*
X0044100Y0114100D02*
X0040900Y0114100D01*
X0040185Y0115300D02*
X0039050Y0115300D01*
X0038483Y0115867D01*
X0037069Y0115867D02*
X0037069Y0118136D01*
X0036501Y0118703D01*
X0034800Y0118703D01*
X0034800Y0115300D01*
X0036501Y0115300D01*
X0037069Y0115867D01*
X0038483Y0118136D02*
X0039050Y0118703D01*
X0040185Y0118703D01*
X0040752Y0118136D01*
X0040752Y0117569D01*
X0040185Y0117001D01*
X0040752Y0116434D01*
X0040752Y0115867D01*
X0040185Y0115300D01*
X0040185Y0117001D02*
X0039617Y0117001D01*
X0042166Y0115867D02*
X0042166Y0118136D01*
X0042733Y0118703D01*
X0043868Y0118703D01*
X0044435Y0118136D01*
X0044100Y0114100D02*
X0044100Y0111900D01*
X0032700Y0110800D02*
X0029297Y0110800D01*
X0029297Y0112501D01*
X0029864Y0113069D01*
X0030999Y0113069D01*
X0031566Y0112501D01*
X0031566Y0110800D01*
X0031566Y0111934D02*
X0032700Y0113069D01*
X0032133Y0114483D02*
X0031566Y0114483D01*
X0030999Y0115050D01*
X0030999Y0116185D01*
X0031566Y0116752D01*
X0032133Y0116752D01*
X0032700Y0116185D01*
X0032700Y0115050D01*
X0032133Y0114483D01*
X0030999Y0115050D02*
X0030431Y0114483D01*
X0029864Y0114483D01*
X0029297Y0115050D01*
X0029297Y0116185D01*
X0029864Y0116752D01*
X0030431Y0116752D01*
X0030999Y0116185D01*
X0019301Y0096203D02*
X0019301Y0092800D01*
X0020435Y0092800D02*
X0018166Y0092800D01*
X0016752Y0092800D02*
X0016752Y0096203D01*
X0016752Y0094501D02*
X0014483Y0094501D01*
X0014483Y0092800D02*
X0014483Y0096203D01*
X0013069Y0095636D02*
X0012501Y0096203D01*
X0011367Y0096203D01*
X0010800Y0095636D01*
X0010800Y0093367D01*
X0011367Y0092800D01*
X0012501Y0092800D01*
X0013069Y0093367D01*
X0013069Y0095636D01*
X0011000Y0091500D02*
X0026000Y0091500D01*
X0028500Y0089000D01*
X0028500Y0084000D01*
X0026000Y0081500D01*
X0011000Y0081500D02*
X0008500Y0084000D01*
X0008500Y0089000D01*
X0011000Y0091500D01*
X0007200Y0089752D02*
X0007200Y0087483D01*
X0007200Y0088617D02*
X0003797Y0088617D01*
X0004931Y0087483D01*
X0004364Y0086069D02*
X0003797Y0085501D01*
X0003797Y0083800D01*
X0007200Y0083800D01*
X0006066Y0083800D02*
X0006066Y0085501D01*
X0005499Y0086069D01*
X0004364Y0086069D01*
X0006066Y0084934D02*
X0007200Y0086069D01*
X0018166Y0095069D02*
X0019301Y0096203D01*
X0049000Y0071500D02*
X0051500Y0074000D01*
X0057000Y0081500D02*
X0054500Y0084000D01*
X0057367Y0092800D02*
X0058501Y0092800D01*
X0059069Y0093367D01*
X0059069Y0095636D01*
X0058501Y0096203D01*
X0057367Y0096203D01*
X0056800Y0095636D01*
X0056800Y0093367D01*
X0057367Y0092800D01*
X0060483Y0092800D02*
X0060483Y0096203D01*
X0060483Y0094501D02*
X0062752Y0094501D01*
X0062752Y0092800D02*
X0062752Y0096203D01*
X0064166Y0095636D02*
X0064733Y0096203D01*
X0065868Y0096203D01*
X0066435Y0095636D01*
X0066435Y0095069D01*
X0065868Y0094501D01*
X0066435Y0093934D01*
X0066435Y0093367D01*
X0065868Y0092800D01*
X0064733Y0092800D01*
X0064166Y0093367D01*
X0065301Y0094501D02*
X0065868Y0094501D01*
X0077500Y0084000D02*
X0080000Y0081500D01*
X0088868Y0092800D02*
X0088868Y0096203D01*
X0087166Y0094501D01*
X0089435Y0094501D01*
X0077700Y0110800D02*
X0074297Y0110800D01*
X0074297Y0112501D01*
X0074864Y0113069D01*
X0075999Y0113069D01*
X0076566Y0112501D01*
X0076566Y0110800D01*
X0076566Y0111934D02*
X0077700Y0113069D01*
X0077133Y0114483D02*
X0076566Y0114483D01*
X0075999Y0115050D01*
X0075999Y0116185D01*
X0076566Y0116752D01*
X0077133Y0116752D01*
X0077700Y0116185D01*
X0077700Y0115050D01*
X0077133Y0114483D01*
X0075999Y0115050D02*
X0075431Y0114483D01*
X0074864Y0114483D01*
X0074297Y0115050D01*
X0074297Y0116185D01*
X0074864Y0116752D01*
X0075431Y0116752D01*
X0075999Y0116185D01*
X0032700Y0150800D02*
X0029297Y0150800D01*
X0029297Y0152501D01*
X0029864Y0153069D01*
X0030999Y0153069D01*
X0031566Y0152501D01*
X0031566Y0150800D01*
X0031566Y0151934D02*
X0032700Y0153069D01*
X0028500Y0156000D02*
X0026000Y0158500D01*
X0029297Y0196800D02*
X0029297Y0198501D01*
X0029864Y0199069D01*
X0030999Y0199069D01*
X0031566Y0198501D01*
X0031566Y0196800D01*
X0032700Y0196800D02*
X0029297Y0196800D01*
X0031566Y0197934D02*
X0032700Y0199069D01*
X0030999Y0200483D02*
X0030999Y0202752D01*
X0032700Y0202185D02*
X0029297Y0202185D01*
X0030999Y0200483D01*
X0034800Y0201300D02*
X0034800Y0204703D01*
X0036501Y0204703D01*
X0037069Y0204136D01*
X0037069Y0201867D01*
X0036501Y0201300D01*
X0034800Y0201300D01*
X0038483Y0201300D02*
X0040752Y0201300D01*
X0039617Y0201300D02*
X0039617Y0204703D01*
X0038483Y0203569D01*
X0042166Y0204136D02*
X0042733Y0204703D01*
X0043868Y0204703D01*
X0044435Y0204136D01*
X0044435Y0203569D01*
X0043868Y0203001D01*
X0044435Y0202434D01*
X0044435Y0201867D01*
X0043868Y0201300D01*
X0042733Y0201300D01*
X0042166Y0201867D01*
X0043301Y0203001D02*
X0043868Y0203001D01*
X0044100Y0200100D02*
X0040900Y0200100D01*
X0044100Y0200100D02*
X0044100Y0197900D01*
X0044100Y0208900D02*
X0040900Y0208900D01*
X0044100Y0208900D02*
X0044100Y0211100D01*
X0044100Y0217900D02*
X0044100Y0220100D01*
X0040900Y0220100D01*
X0032700Y0226800D02*
X0029297Y0226800D01*
X0029297Y0228501D01*
X0029864Y0229069D01*
X0030999Y0229069D01*
X0031566Y0228501D01*
X0031566Y0226800D01*
X0031566Y0227934D02*
X0032700Y0229069D01*
X0032700Y0230483D02*
X0032700Y0232752D01*
X0032700Y0231617D02*
X0029297Y0231617D01*
X0030431Y0230483D01*
X0053500Y0207000D02*
X0056000Y0204500D01*
X0074297Y0236800D02*
X0074297Y0238501D01*
X0074864Y0239069D01*
X0075999Y0239069D01*
X0076566Y0238501D01*
X0076566Y0236800D01*
X0077700Y0236800D02*
X0074297Y0236800D01*
X0076566Y0237934D02*
X0077700Y0239069D01*
X0077700Y0240483D02*
X0075431Y0242752D01*
X0074864Y0242752D01*
X0074297Y0242185D01*
X0074297Y0241050D01*
X0074864Y0240483D01*
X0077700Y0240483D02*
X0077700Y0242752D01*
X0098500Y0257000D02*
X0101000Y0254500D01*
X0100800Y0265300D02*
X0101934Y0265300D01*
X0101367Y0265300D02*
X0101367Y0268703D01*
X0100800Y0268703D02*
X0101934Y0268703D01*
X0103255Y0268703D02*
X0103255Y0265300D01*
X0103255Y0267001D02*
X0105524Y0267001D01*
X0105524Y0265300D02*
X0105524Y0268703D01*
X0106939Y0268136D02*
X0107506Y0268703D01*
X0108640Y0268703D01*
X0109207Y0268136D01*
X0109207Y0267569D01*
X0108640Y0267001D01*
X0109207Y0266434D01*
X0109207Y0265867D01*
X0108640Y0265300D01*
X0107506Y0265300D01*
X0106939Y0265867D01*
X0108073Y0267001D02*
X0108640Y0267001D01*
X0139297Y0262752D02*
X0139297Y0260483D01*
X0139864Y0259069D02*
X0139297Y0258501D01*
X0139297Y0257367D01*
X0139864Y0256800D01*
X0142133Y0256800D01*
X0142700Y0257367D01*
X0142700Y0258501D01*
X0142133Y0259069D01*
X0142133Y0260483D02*
X0142700Y0260483D01*
X0142133Y0260483D02*
X0139864Y0262752D01*
X0139297Y0262752D01*
X0143500Y0262000D02*
X0143500Y0257000D01*
X0146000Y0254500D01*
X0143500Y0262000D02*
X0146000Y0264500D01*
X0161000Y0264500D01*
X0163500Y0262000D01*
X0163500Y0257000D01*
X0161000Y0254500D01*
X0164297Y0256800D02*
X0164297Y0258501D01*
X0164864Y0259069D01*
X0165999Y0259069D01*
X0166566Y0258501D01*
X0166566Y0256800D01*
X0167700Y0256800D02*
X0164297Y0256800D01*
X0166566Y0257934D02*
X0167700Y0259069D01*
X0167700Y0260483D02*
X0167700Y0262752D01*
X0167700Y0261617D02*
X0164297Y0261617D01*
X0165431Y0260483D01*
X0170800Y0261300D02*
X0172501Y0261300D01*
X0173069Y0261867D01*
X0173069Y0264136D01*
X0172501Y0264703D01*
X0170800Y0264703D01*
X0170800Y0261300D01*
X0174483Y0263001D02*
X0176752Y0263001D01*
X0176185Y0261300D02*
X0176185Y0264703D01*
X0174483Y0263001D01*
X0176900Y0260100D02*
X0180100Y0260100D01*
X0180100Y0257900D01*
X0180100Y0251100D02*
X0180100Y0248900D01*
X0176900Y0248900D01*
X0167700Y0249069D02*
X0166566Y0247934D01*
X0166566Y0248501D02*
X0166566Y0246800D01*
X0167700Y0246800D02*
X0164297Y0246800D01*
X0164297Y0248501D01*
X0164864Y0249069D01*
X0165999Y0249069D01*
X0166566Y0248501D01*
X0167700Y0250483D02*
X0165431Y0252752D01*
X0164864Y0252752D01*
X0164297Y0252185D01*
X0164297Y0251050D01*
X0164864Y0250483D01*
X0167700Y0250483D02*
X0167700Y0252752D01*
X0153640Y0265300D02*
X0153640Y0268703D01*
X0151939Y0267001D01*
X0154207Y0267001D01*
X0150524Y0267001D02*
X0148255Y0267001D01*
X0148255Y0265300D02*
X0148255Y0268703D01*
X0146934Y0268703D02*
X0145800Y0268703D01*
X0146367Y0268703D02*
X0146367Y0265300D01*
X0145800Y0265300D02*
X0146934Y0265300D01*
X0150524Y0265300D02*
X0150524Y0268703D01*
X0151797Y0310800D02*
X0151797Y0312501D01*
X0152364Y0313069D01*
X0153499Y0313069D01*
X0154066Y0312501D01*
X0154066Y0310800D01*
X0155200Y0310800D02*
X0151797Y0310800D01*
X0154066Y0311934D02*
X0155200Y0313069D01*
X0155200Y0314483D02*
X0155200Y0316752D01*
X0155200Y0315617D02*
X0151797Y0315617D01*
X0152931Y0314483D01*
X0149200Y0314483D02*
X0149200Y0316752D01*
X0149200Y0315617D02*
X0145797Y0315617D01*
X0146931Y0314483D01*
X0146364Y0313069D02*
X0147499Y0313069D01*
X0148066Y0312501D01*
X0148066Y0310800D01*
X0149200Y0310800D02*
X0145797Y0310800D01*
X0145797Y0312501D01*
X0146364Y0313069D01*
X0148066Y0311934D02*
X0149200Y0313069D01*
X0148633Y0318166D02*
X0148066Y0318166D01*
X0147499Y0318733D01*
X0147499Y0319868D01*
X0148066Y0320435D01*
X0148633Y0320435D01*
X0149200Y0319868D01*
X0149200Y0318733D01*
X0148633Y0318166D01*
X0147499Y0318733D02*
X0146931Y0318166D01*
X0146364Y0318166D01*
X0145797Y0318733D01*
X0145797Y0319868D01*
X0146364Y0320435D01*
X0146931Y0320435D01*
X0147499Y0319868D01*
X0143200Y0319868D02*
X0139797Y0319868D01*
X0141499Y0318166D01*
X0141499Y0320435D01*
X0143200Y0316752D02*
X0143200Y0314483D01*
X0143200Y0315617D02*
X0139797Y0315617D01*
X0140931Y0314483D01*
X0140364Y0313069D02*
X0141499Y0313069D01*
X0142066Y0312501D01*
X0142066Y0310800D01*
X0143200Y0310800D02*
X0139797Y0310800D01*
X0139797Y0312501D01*
X0140364Y0313069D01*
X0142066Y0311934D02*
X0143200Y0313069D01*
X0137200Y0313069D02*
X0136066Y0311934D01*
X0136066Y0312501D02*
X0136066Y0310800D01*
X0137200Y0310800D02*
X0133797Y0310800D01*
X0133797Y0312501D01*
X0134364Y0313069D01*
X0135499Y0313069D01*
X0136066Y0312501D01*
X0137200Y0314483D02*
X0137200Y0316752D01*
X0137200Y0315617D02*
X0133797Y0315617D01*
X0134931Y0314483D01*
X0134364Y0318166D02*
X0133797Y0318733D01*
X0133797Y0319868D01*
X0134364Y0320435D01*
X0134931Y0320435D01*
X0135499Y0319868D01*
X0136066Y0320435D01*
X0136633Y0320435D01*
X0137200Y0319868D01*
X0137200Y0318733D01*
X0136633Y0318166D01*
X0135499Y0319301D02*
X0135499Y0319868D01*
X0131200Y0320435D02*
X0131200Y0318166D01*
X0131200Y0319301D02*
X0127797Y0319301D01*
X0128931Y0318166D01*
X0131200Y0316752D02*
X0131200Y0314483D01*
X0131200Y0315617D02*
X0127797Y0315617D01*
X0128931Y0314483D01*
X0128364Y0313069D02*
X0129499Y0313069D01*
X0130066Y0312501D01*
X0130066Y0310800D01*
X0131200Y0310800D02*
X0127797Y0310800D01*
X0127797Y0312501D01*
X0128364Y0313069D01*
X0130066Y0311934D02*
X0131200Y0313069D01*
X0125200Y0313069D02*
X0124066Y0311934D01*
X0124066Y0312501D02*
X0124066Y0310800D01*
X0125200Y0310800D02*
X0121797Y0310800D01*
X0121797Y0312501D01*
X0122364Y0313069D01*
X0123499Y0313069D01*
X0124066Y0312501D01*
X0124633Y0314483D02*
X0125200Y0315050D01*
X0125200Y0316185D01*
X0124633Y0316752D01*
X0122364Y0316752D01*
X0121797Y0316185D01*
X0121797Y0315050D01*
X0122364Y0314483D01*
X0122931Y0314483D01*
X0123499Y0315050D01*
X0123499Y0316752D01*
X0116435Y0319367D02*
X0115868Y0318800D01*
X0114733Y0318800D01*
X0114166Y0319367D01*
X0114166Y0319934D01*
X0114733Y0320501D01*
X0115868Y0320501D01*
X0116435Y0319934D01*
X0116435Y0319367D01*
X0115868Y0320501D02*
X0116435Y0321069D01*
X0116435Y0321636D01*
X0115868Y0322203D01*
X0114733Y0322203D01*
X0114166Y0321636D01*
X0114166Y0321069D01*
X0114733Y0320501D01*
X0112752Y0318800D02*
X0110483Y0318800D01*
X0111617Y0318800D02*
X0111617Y0322203D01*
X0110483Y0321069D01*
X0109069Y0321636D02*
X0108501Y0322203D01*
X0107367Y0322203D01*
X0106800Y0321636D01*
X0106800Y0319367D01*
X0107367Y0318800D01*
X0108501Y0318800D01*
X0109069Y0319367D01*
X0118797Y0326367D02*
X0119364Y0325800D01*
X0121633Y0325800D01*
X0122200Y0326367D01*
X0122200Y0327501D01*
X0121633Y0328069D01*
X0119364Y0328069D01*
X0118797Y0327501D01*
X0118797Y0326367D01*
X0118797Y0329483D02*
X0121633Y0329483D01*
X0122200Y0330050D01*
X0122200Y0331185D01*
X0121633Y0331752D01*
X0118797Y0331752D01*
X0118797Y0333166D02*
X0118797Y0335435D01*
X0118797Y0334301D02*
X0122200Y0334301D01*
X0095450Y0306400D02*
X0095452Y0306493D01*
X0095458Y0306587D01*
X0095468Y0306679D01*
X0095482Y0306772D01*
X0095499Y0306863D01*
X0095521Y0306954D01*
X0095546Y0307044D01*
X0095576Y0307133D01*
X0095609Y0307220D01*
X0095645Y0307306D01*
X0095686Y0307390D01*
X0095729Y0307473D01*
X0095777Y0307553D01*
X0095827Y0307632D01*
X0095881Y0307708D01*
X0095938Y0307782D01*
X0095999Y0307853D01*
X0096062Y0307922D01*
X0096128Y0307988D01*
X0096197Y0308051D01*
X0096268Y0308112D01*
X0096342Y0308169D01*
X0096418Y0308223D01*
X0096497Y0308273D01*
X0096577Y0308321D01*
X0096660Y0308364D01*
X0096744Y0308405D01*
X0096830Y0308441D01*
X0096917Y0308474D01*
X0097006Y0308504D01*
X0097096Y0308529D01*
X0097187Y0308551D01*
X0097278Y0308568D01*
X0097371Y0308582D01*
X0097463Y0308592D01*
X0097557Y0308598D01*
X0097650Y0308600D01*
X0097743Y0308598D01*
X0097837Y0308592D01*
X0097929Y0308582D01*
X0098022Y0308568D01*
X0098113Y0308551D01*
X0098204Y0308529D01*
X0098294Y0308504D01*
X0098383Y0308474D01*
X0098470Y0308441D01*
X0098556Y0308405D01*
X0098640Y0308364D01*
X0098723Y0308321D01*
X0098803Y0308273D01*
X0098882Y0308223D01*
X0098958Y0308169D01*
X0099032Y0308112D01*
X0099103Y0308051D01*
X0099172Y0307988D01*
X0099238Y0307922D01*
X0099301Y0307853D01*
X0099362Y0307782D01*
X0099419Y0307708D01*
X0099473Y0307632D01*
X0099523Y0307553D01*
X0099571Y0307473D01*
X0099614Y0307390D01*
X0099655Y0307306D01*
X0099691Y0307220D01*
X0099724Y0307133D01*
X0099754Y0307044D01*
X0099779Y0306954D01*
X0099801Y0306863D01*
X0099818Y0306772D01*
X0099832Y0306679D01*
X0099842Y0306587D01*
X0099848Y0306493D01*
X0099850Y0306400D01*
X0099848Y0306307D01*
X0099842Y0306213D01*
X0099832Y0306121D01*
X0099818Y0306028D01*
X0099801Y0305937D01*
X0099779Y0305846D01*
X0099754Y0305756D01*
X0099724Y0305667D01*
X0099691Y0305580D01*
X0099655Y0305494D01*
X0099614Y0305410D01*
X0099571Y0305327D01*
X0099523Y0305247D01*
X0099473Y0305168D01*
X0099419Y0305092D01*
X0099362Y0305018D01*
X0099301Y0304947D01*
X0099238Y0304878D01*
X0099172Y0304812D01*
X0099103Y0304749D01*
X0099032Y0304688D01*
X0098958Y0304631D01*
X0098882Y0304577D01*
X0098803Y0304527D01*
X0098723Y0304479D01*
X0098640Y0304436D01*
X0098556Y0304395D01*
X0098470Y0304359D01*
X0098383Y0304326D01*
X0098294Y0304296D01*
X0098204Y0304271D01*
X0098113Y0304249D01*
X0098022Y0304232D01*
X0097929Y0304218D01*
X0097837Y0304208D01*
X0097743Y0304202D01*
X0097650Y0304200D01*
X0097557Y0304202D01*
X0097463Y0304208D01*
X0097371Y0304218D01*
X0097278Y0304232D01*
X0097187Y0304249D01*
X0097096Y0304271D01*
X0097006Y0304296D01*
X0096917Y0304326D01*
X0096830Y0304359D01*
X0096744Y0304395D01*
X0096660Y0304436D01*
X0096577Y0304479D01*
X0096497Y0304527D01*
X0096418Y0304577D01*
X0096342Y0304631D01*
X0096268Y0304688D01*
X0096197Y0304749D01*
X0096128Y0304812D01*
X0096062Y0304878D01*
X0095999Y0304947D01*
X0095938Y0305018D01*
X0095881Y0305092D01*
X0095827Y0305168D01*
X0095777Y0305247D01*
X0095729Y0305327D01*
X0095686Y0305410D01*
X0095645Y0305494D01*
X0095609Y0305580D01*
X0095576Y0305667D01*
X0095546Y0305756D01*
X0095521Y0305846D01*
X0095499Y0305937D01*
X0095482Y0306028D01*
X0095468Y0306121D01*
X0095458Y0306213D01*
X0095452Y0306307D01*
X0095450Y0306400D01*
X0089185Y0310800D02*
X0089185Y0314203D01*
X0087483Y0312501D01*
X0089752Y0312501D01*
X0086069Y0311367D02*
X0086069Y0314203D01*
X0083800Y0314203D02*
X0083800Y0311367D01*
X0084367Y0310800D01*
X0085501Y0310800D01*
X0086069Y0311367D01*
X0073435Y0315367D02*
X0072868Y0314800D01*
X0071733Y0314800D01*
X0071166Y0315367D01*
X0071166Y0316501D02*
X0072301Y0317069D01*
X0072868Y0317069D01*
X0073435Y0316501D01*
X0073435Y0315367D01*
X0071166Y0316501D02*
X0071166Y0318203D01*
X0073435Y0318203D01*
X0068617Y0318203D02*
X0068617Y0314800D01*
X0067483Y0314800D02*
X0069752Y0314800D01*
X0067483Y0317069D02*
X0068617Y0318203D01*
X0066069Y0317636D02*
X0065501Y0318203D01*
X0064367Y0318203D01*
X0063800Y0317636D01*
X0063800Y0315367D01*
X0064367Y0314800D01*
X0065501Y0314800D01*
X0066069Y0315367D01*
X0046752Y0315800D02*
X0044483Y0315800D01*
X0046752Y0318069D01*
X0046752Y0318636D01*
X0046185Y0319203D01*
X0045050Y0319203D01*
X0044483Y0318636D01*
X0043069Y0319203D02*
X0043069Y0316367D01*
X0042501Y0315800D01*
X0041367Y0315800D01*
X0040800Y0316367D01*
X0040800Y0319203D01*
X0030200Y0325800D02*
X0030200Y0326934D01*
X0030200Y0326367D02*
X0026797Y0326367D01*
X0026797Y0325800D02*
X0026797Y0326934D01*
X0026797Y0328255D02*
X0030200Y0330524D01*
X0026797Y0330524D01*
X0026797Y0328255D02*
X0030200Y0328255D01*
X0028100Y0322600D02*
X0024900Y0322600D01*
X0028100Y0322600D02*
X0028100Y0320400D01*
X0028100Y0313600D02*
X0028100Y0311400D01*
X0024900Y0311400D01*
X0024185Y0310203D02*
X0024752Y0309636D01*
X0024752Y0309069D01*
X0024185Y0308501D01*
X0024752Y0307934D01*
X0024752Y0307367D01*
X0024185Y0306800D01*
X0023050Y0306800D01*
X0022483Y0307367D01*
X0021069Y0307367D02*
X0021069Y0309636D01*
X0020501Y0310203D01*
X0018800Y0310203D01*
X0018800Y0306800D01*
X0020501Y0306800D01*
X0021069Y0307367D01*
X0022483Y0309636D02*
X0023050Y0310203D01*
X0024185Y0310203D01*
X0024185Y0308501D02*
X0023617Y0308501D01*
X0026166Y0308501D02*
X0028435Y0308501D01*
X0027868Y0306800D02*
X0027868Y0310203D01*
X0026166Y0308501D01*
X0021200Y0293185D02*
X0017797Y0293185D01*
X0019499Y0291483D01*
X0019499Y0293752D01*
X0019499Y0290069D02*
X0020066Y0289501D01*
X0020066Y0287800D01*
X0021200Y0287800D02*
X0017797Y0287800D01*
X0017797Y0289501D01*
X0018364Y0290069D01*
X0019499Y0290069D01*
X0020066Y0288934D02*
X0021200Y0290069D01*
X0018573Y0268703D02*
X0018573Y0265300D01*
X0017439Y0265300D02*
X0019707Y0265300D01*
X0017439Y0267569D02*
X0018573Y0268703D01*
X0016024Y0268703D02*
X0016024Y0265300D01*
X0016024Y0267001D02*
X0013755Y0267001D01*
X0013755Y0265300D02*
X0013755Y0268703D01*
X0012434Y0268703D02*
X0011300Y0268703D01*
X0011867Y0268703D02*
X0011867Y0265300D01*
X0011300Y0265300D02*
X0012434Y0265300D01*
X0007700Y0262752D02*
X0007700Y0260483D01*
X0007700Y0261617D02*
X0004297Y0261617D01*
X0005431Y0260483D01*
X0004864Y0259069D02*
X0004297Y0258501D01*
X0004297Y0257367D01*
X0004864Y0256800D01*
X0007133Y0256800D01*
X0007700Y0257367D01*
X0007700Y0258501D01*
X0007133Y0259069D01*
X0009797Y0329800D02*
X0009797Y0331501D01*
X0010364Y0332069D01*
X0011499Y0332069D01*
X0012066Y0331501D01*
X0012066Y0329800D01*
X0013200Y0329800D02*
X0009797Y0329800D01*
X0012066Y0330934D02*
X0013200Y0332069D01*
X0012633Y0333483D02*
X0013200Y0334050D01*
X0013200Y0335185D01*
X0012633Y0335752D01*
X0011499Y0335752D01*
X0010931Y0335185D01*
X0010931Y0334617D01*
X0011499Y0333483D01*
X0009797Y0333483D01*
X0009797Y0335752D01*
X0009797Y0340800D02*
X0009797Y0342501D01*
X0010364Y0343069D01*
X0011499Y0343069D01*
X0012066Y0342501D01*
X0012066Y0340800D01*
X0013200Y0340800D02*
X0009797Y0340800D01*
X0012066Y0341934D02*
X0013200Y0343069D01*
X0013200Y0344483D02*
X0013200Y0346752D01*
X0013200Y0345617D02*
X0009797Y0345617D01*
X0010931Y0344483D01*
X0010364Y0348166D02*
X0009797Y0348733D01*
X0009797Y0349868D01*
X0010364Y0350435D01*
X0010931Y0350435D01*
X0013200Y0348166D01*
X0013200Y0350435D01*
X0013200Y0353800D02*
X0009797Y0353800D01*
X0009797Y0355501D01*
X0010364Y0356069D01*
X0011499Y0356069D01*
X0012066Y0355501D01*
X0012066Y0353800D01*
X0012066Y0354934D02*
X0013200Y0356069D01*
X0013200Y0357483D02*
X0013200Y0359752D01*
X0013200Y0358617D02*
X0009797Y0358617D01*
X0010931Y0357483D01*
X0010364Y0361166D02*
X0009797Y0361733D01*
X0009797Y0362868D01*
X0010364Y0363435D01*
X0012633Y0361166D01*
X0013200Y0361733D01*
X0013200Y0362868D01*
X0012633Y0363435D01*
X0010364Y0363435D01*
X0010364Y0361166D02*
X0012633Y0361166D01*
X0151797Y0320435D02*
X0152364Y0320435D01*
X0154633Y0318166D01*
X0155200Y0318166D01*
X0158364Y0319301D02*
X0159499Y0318166D01*
X0159499Y0319868D01*
X0160066Y0320435D01*
X0160633Y0320435D01*
X0161200Y0319868D01*
X0161200Y0318733D01*
X0160633Y0318166D01*
X0159499Y0318166D01*
X0158364Y0319301D02*
X0157797Y0320435D01*
X0157797Y0315617D02*
X0161200Y0315617D01*
X0161200Y0314483D02*
X0161200Y0316752D01*
X0163797Y0315617D02*
X0167200Y0315617D01*
X0167200Y0314483D02*
X0167200Y0316752D01*
X0166633Y0318166D02*
X0167200Y0318733D01*
X0167200Y0319868D01*
X0166633Y0320435D01*
X0165499Y0320435D01*
X0164931Y0319868D01*
X0164931Y0319301D01*
X0165499Y0318166D01*
X0163797Y0318166D01*
X0163797Y0320435D01*
X0163797Y0315617D02*
X0164931Y0314483D01*
X0164364Y0313069D02*
X0165499Y0313069D01*
X0166066Y0312501D01*
X0166066Y0310800D01*
X0167200Y0310800D02*
X0163797Y0310800D01*
X0163797Y0312501D01*
X0164364Y0313069D01*
X0166066Y0311934D02*
X0167200Y0313069D01*
X0161200Y0313069D02*
X0160066Y0311934D01*
X0160066Y0312501D02*
X0160066Y0310800D01*
X0161200Y0310800D02*
X0157797Y0310800D01*
X0157797Y0312501D01*
X0158364Y0313069D01*
X0159499Y0313069D01*
X0160066Y0312501D01*
X0158931Y0314483D02*
X0157797Y0315617D01*
X0151797Y0318166D02*
X0151797Y0320435D01*
X0208797Y0365800D02*
X0212200Y0365800D01*
X0212200Y0368069D01*
X0212200Y0369483D02*
X0212200Y0371752D01*
X0212200Y0370617D02*
X0208797Y0370617D01*
X0209931Y0369483D01*
X0243797Y0322435D02*
X0244364Y0322435D01*
X0246633Y0320166D01*
X0247200Y0320166D01*
X0247200Y0318752D02*
X0247200Y0316483D01*
X0247200Y0317617D02*
X0243797Y0317617D01*
X0244931Y0316483D01*
X0244364Y0315069D02*
X0243797Y0314501D01*
X0243797Y0312800D01*
X0247200Y0312800D01*
X0247200Y0314501D01*
X0246633Y0315069D01*
X0244364Y0315069D01*
X0243797Y0320166D02*
X0243797Y0322435D01*
X0279797Y0335367D02*
X0280364Y0334800D01*
X0282633Y0334800D01*
X0283200Y0335367D01*
X0283200Y0336501D01*
X0282633Y0337069D01*
X0282633Y0338483D02*
X0283200Y0339050D01*
X0283200Y0340185D01*
X0282633Y0340752D01*
X0282066Y0340752D01*
X0281499Y0340185D01*
X0281499Y0338483D01*
X0282633Y0338483D01*
X0281499Y0338483D02*
X0280364Y0339617D01*
X0279797Y0340752D01*
X0280364Y0337069D02*
X0279797Y0336501D01*
X0279797Y0335367D01*
X0285797Y0335367D02*
X0286364Y0334800D01*
X0288633Y0334800D01*
X0289200Y0335367D01*
X0289200Y0336501D01*
X0288633Y0337069D01*
X0287499Y0338483D02*
X0287499Y0340752D01*
X0289200Y0340185D02*
X0285797Y0340185D01*
X0287499Y0338483D01*
X0286364Y0337069D02*
X0285797Y0336501D01*
X0285797Y0335367D01*
X0297800Y0336800D02*
X0297800Y0340203D01*
X0299501Y0340203D01*
X0300069Y0339636D01*
X0300069Y0338501D01*
X0299501Y0337934D01*
X0297800Y0337934D01*
X0298934Y0337934D02*
X0300069Y0336800D01*
X0301483Y0336800D02*
X0303752Y0339069D01*
X0303752Y0339636D01*
X0303185Y0340203D01*
X0302050Y0340203D01*
X0301483Y0339636D01*
X0301483Y0336800D02*
X0303752Y0336800D01*
X0300200Y0325752D02*
X0300200Y0323483D01*
X0300200Y0324617D02*
X0296797Y0324617D01*
X0297931Y0323483D01*
X0297364Y0322069D02*
X0298499Y0322069D01*
X0299066Y0321501D01*
X0299066Y0319800D01*
X0300200Y0319800D02*
X0296797Y0319800D01*
X0296797Y0321501D01*
X0297364Y0322069D01*
X0299066Y0320934D02*
X0300200Y0322069D01*
X0308364Y0312752D02*
X0307797Y0312185D01*
X0307797Y0311050D01*
X0308364Y0310483D01*
X0308364Y0309069D02*
X0307797Y0308501D01*
X0307797Y0307367D01*
X0308364Y0306800D01*
X0310633Y0306800D01*
X0311200Y0307367D01*
X0311200Y0308501D01*
X0310633Y0309069D01*
X0311200Y0310483D02*
X0308931Y0312752D01*
X0308364Y0312752D01*
X0311200Y0312752D02*
X0311200Y0310483D01*
X0313797Y0307385D02*
X0313797Y0305117D01*
X0315499Y0305117D01*
X0314931Y0306251D01*
X0314931Y0306818D01*
X0315499Y0307385D01*
X0316633Y0307385D01*
X0317200Y0306818D01*
X0317200Y0305684D01*
X0316633Y0305117D01*
X0316633Y0303702D02*
X0317200Y0303135D01*
X0317200Y0302001D01*
X0316633Y0301434D01*
X0314364Y0301434D01*
X0313797Y0302001D01*
X0313797Y0303135D01*
X0314364Y0303702D01*
X0323434Y0309367D02*
X0324001Y0308800D01*
X0325135Y0308800D01*
X0325702Y0309367D01*
X0325702Y0312203D01*
X0327117Y0311069D02*
X0328251Y0312203D01*
X0328251Y0308800D01*
X0327117Y0308800D02*
X0329385Y0308800D01*
X0323434Y0309367D02*
X0323434Y0312203D01*
X0323797Y0293801D02*
X0326066Y0291533D01*
X0325499Y0292100D02*
X0327200Y0293801D01*
X0327200Y0291533D02*
X0323797Y0291533D01*
X0323797Y0287849D02*
X0327200Y0287849D01*
X0327200Y0290118D01*
X0326633Y0286435D02*
X0327200Y0285868D01*
X0327200Y0284733D01*
X0326633Y0284166D01*
X0324364Y0284166D01*
X0323797Y0284733D01*
X0323797Y0285868D01*
X0324364Y0286435D01*
X0323797Y0282752D02*
X0327200Y0282752D01*
X0326066Y0281617D01*
X0327200Y0280483D01*
X0323797Y0280483D01*
X0324364Y0279069D02*
X0323797Y0278501D01*
X0323797Y0277367D01*
X0324364Y0276800D01*
X0324931Y0276800D01*
X0325499Y0277367D01*
X0325499Y0278501D01*
X0326066Y0279069D01*
X0326633Y0279069D01*
X0327200Y0278501D01*
X0327200Y0277367D01*
X0326633Y0276800D01*
X0328000Y0275500D02*
X0330500Y0273000D01*
X0330500Y0268000D01*
X0328000Y0265500D01*
X0323000Y0265500D01*
X0320500Y0268000D01*
X0318000Y0265500D01*
X0313000Y0265500D01*
X0310500Y0268000D01*
X0308000Y0265500D01*
X0303000Y0265500D01*
X0300500Y0268000D01*
X0300500Y0273000D01*
X0303000Y0275500D01*
X0308000Y0275500D01*
X0310500Y0273000D01*
X0313000Y0275500D01*
X0318000Y0275500D01*
X0320500Y0273000D01*
X0320500Y0268000D01*
X0321118Y0264203D02*
X0321118Y0260800D01*
X0318849Y0264203D01*
X0318849Y0260800D01*
X0317435Y0260800D02*
X0317435Y0264203D01*
X0315166Y0264203D02*
X0315166Y0260800D01*
X0313752Y0261367D02*
X0313185Y0260800D01*
X0312050Y0260800D01*
X0311483Y0261367D01*
X0311483Y0263636D01*
X0312050Y0264203D01*
X0313185Y0264203D01*
X0313752Y0263636D01*
X0313752Y0261367D01*
X0315166Y0264203D02*
X0317435Y0260800D01*
X0322533Y0261367D02*
X0322533Y0261934D01*
X0323100Y0262501D01*
X0324234Y0262501D01*
X0324801Y0261934D01*
X0324801Y0261367D01*
X0324234Y0260800D01*
X0323100Y0260800D01*
X0322533Y0261367D01*
X0323100Y0262501D02*
X0322533Y0263069D01*
X0322533Y0263636D01*
X0323100Y0264203D01*
X0324234Y0264203D01*
X0324801Y0263636D01*
X0324801Y0263069D01*
X0324234Y0262501D01*
X0324752Y0256203D02*
X0324752Y0252800D01*
X0326166Y0252800D02*
X0328435Y0252800D01*
X0327301Y0252800D02*
X0327301Y0256203D01*
X0326166Y0255069D01*
X0324752Y0254501D02*
X0322483Y0254501D01*
X0321069Y0254501D02*
X0318800Y0254501D01*
X0318800Y0255069D02*
X0319934Y0256203D01*
X0321069Y0255069D01*
X0321069Y0252800D01*
X0322483Y0252800D02*
X0322483Y0256203D01*
X0318800Y0255069D02*
X0318800Y0252800D01*
X0318000Y0251500D02*
X0343000Y0251500D01*
X0345500Y0249000D01*
X0345500Y0244000D01*
X0343000Y0241500D01*
X0345500Y0239000D01*
X0345500Y0234000D01*
X0343000Y0231500D01*
X0345500Y0229000D01*
X0345500Y0224000D01*
X0343000Y0221500D01*
X0345500Y0219000D01*
X0345500Y0214000D01*
X0343000Y0211500D01*
X0345500Y0209000D01*
X0345500Y0204000D01*
X0343000Y0201500D01*
X0345500Y0199000D01*
X0345500Y0194000D01*
X0343000Y0191500D01*
X0345500Y0189000D01*
X0345500Y0184000D01*
X0343000Y0181500D01*
X0345500Y0179000D01*
X0345500Y0174000D01*
X0343000Y0171500D01*
X0318000Y0171500D01*
X0315500Y0174000D01*
X0315500Y0179000D01*
X0318000Y0181500D01*
X0343000Y0181500D01*
X0349800Y0184800D02*
X0352069Y0184800D01*
X0350934Y0184800D02*
X0350934Y0188203D01*
X0349800Y0187069D01*
X0353483Y0186501D02*
X0355752Y0186501D01*
X0355185Y0184800D02*
X0355185Y0188203D01*
X0353483Y0186501D01*
X0356500Y0189000D02*
X0356500Y0184000D01*
X0359000Y0181500D01*
X0356500Y0179000D01*
X0356500Y0174000D01*
X0359000Y0171500D01*
X0384000Y0171500D01*
X0386500Y0174000D01*
X0386500Y0179000D01*
X0384000Y0181500D01*
X0386500Y0184000D01*
X0386500Y0189000D01*
X0384000Y0191500D01*
X0386500Y0194000D01*
X0386500Y0199000D01*
X0384000Y0201500D01*
X0386500Y0204000D01*
X0386500Y0209000D01*
X0384000Y0211500D01*
X0386500Y0214000D01*
X0386500Y0219000D01*
X0384000Y0221500D01*
X0386500Y0224000D01*
X0386500Y0229000D01*
X0384000Y0231500D01*
X0386500Y0234000D01*
X0386500Y0239000D01*
X0384000Y0241500D01*
X0386500Y0244000D01*
X0386500Y0249000D01*
X0384000Y0251500D01*
X0359000Y0251500D01*
X0356500Y0249000D01*
X0356500Y0244000D01*
X0359000Y0241500D01*
X0384000Y0241500D01*
X0384000Y0231500D02*
X0359000Y0231500D01*
X0356500Y0229000D01*
X0356500Y0224000D01*
X0359000Y0221500D01*
X0384000Y0221500D01*
X0384000Y0211500D02*
X0359000Y0211500D01*
X0356500Y0209000D01*
X0356500Y0204000D01*
X0359000Y0201500D01*
X0384000Y0201500D01*
X0384000Y0191500D02*
X0359000Y0191500D01*
X0356500Y0189000D01*
X0359000Y0191500D02*
X0356500Y0194000D01*
X0356500Y0199000D01*
X0359000Y0201500D01*
X0355752Y0204800D02*
X0353483Y0204800D01*
X0355752Y0207069D01*
X0355752Y0207636D01*
X0355185Y0208203D01*
X0354050Y0208203D01*
X0353483Y0207636D01*
X0350934Y0208203D02*
X0350934Y0204800D01*
X0349800Y0204800D02*
X0352069Y0204800D01*
X0349800Y0207069D02*
X0350934Y0208203D01*
X0350934Y0214800D02*
X0350934Y0218203D01*
X0349800Y0217069D01*
X0349800Y0214800D02*
X0352069Y0214800D01*
X0353483Y0214800D02*
X0355752Y0214800D01*
X0356500Y0214000D02*
X0359000Y0211500D01*
X0356500Y0214000D02*
X0356500Y0219000D01*
X0359000Y0221500D01*
X0355185Y0224800D02*
X0354050Y0224800D01*
X0353483Y0225367D01*
X0355752Y0227636D01*
X0355752Y0225367D01*
X0355185Y0224800D01*
X0353483Y0225367D02*
X0353483Y0227636D01*
X0354050Y0228203D01*
X0355185Y0228203D01*
X0355752Y0227636D01*
X0352069Y0224800D02*
X0349800Y0224800D01*
X0350934Y0224800D02*
X0350934Y0228203D01*
X0349800Y0227069D01*
X0343000Y0231500D02*
X0318000Y0231500D01*
X0315500Y0229000D01*
X0315500Y0224000D01*
X0318000Y0221500D01*
X0343000Y0221500D01*
X0343000Y0211500D02*
X0318000Y0211500D01*
X0315500Y0209000D01*
X0315500Y0204000D01*
X0318000Y0201500D01*
X0343000Y0201500D01*
X0349800Y0197069D02*
X0350934Y0198203D01*
X0350934Y0194800D01*
X0349800Y0194800D02*
X0352069Y0194800D01*
X0353483Y0195367D02*
X0354050Y0194800D01*
X0355185Y0194800D01*
X0355752Y0195367D01*
X0355752Y0195934D01*
X0355185Y0196501D01*
X0354617Y0196501D01*
X0355185Y0196501D02*
X0355752Y0197069D01*
X0355752Y0197636D01*
X0355185Y0198203D01*
X0354050Y0198203D01*
X0353483Y0197636D01*
X0343000Y0191500D02*
X0318000Y0191500D01*
X0315500Y0189000D01*
X0315500Y0184000D01*
X0318000Y0181500D01*
X0314069Y0178203D02*
X0314069Y0177636D01*
X0311800Y0175367D01*
X0311800Y0174800D01*
X0311800Y0178203D02*
X0314069Y0178203D01*
X0313501Y0184800D02*
X0312367Y0184800D01*
X0311800Y0185367D01*
X0311800Y0186501D01*
X0313501Y0186501D01*
X0314069Y0185934D01*
X0314069Y0185367D01*
X0313501Y0184800D01*
X0311800Y0186501D02*
X0312934Y0187636D01*
X0314069Y0188203D01*
X0318000Y0191500D02*
X0315500Y0194000D01*
X0315500Y0199000D01*
X0318000Y0201500D01*
X0314069Y0198203D02*
X0311800Y0198203D01*
X0311800Y0196501D01*
X0312934Y0197069D01*
X0313501Y0197069D01*
X0314069Y0196501D01*
X0314069Y0195367D01*
X0313501Y0194800D01*
X0312367Y0194800D01*
X0311800Y0195367D01*
X0313501Y0204800D02*
X0313501Y0208203D01*
X0311800Y0206501D01*
X0314069Y0206501D01*
X0318000Y0211500D02*
X0315500Y0214000D01*
X0315500Y0219000D01*
X0318000Y0221500D01*
X0314069Y0224800D02*
X0311800Y0224800D01*
X0314069Y0227069D01*
X0314069Y0227636D01*
X0313501Y0228203D01*
X0312367Y0228203D01*
X0311800Y0227636D01*
X0311800Y0234800D02*
X0314069Y0234800D01*
X0312934Y0234800D02*
X0312934Y0238203D01*
X0311800Y0237069D01*
X0315500Y0239000D02*
X0315500Y0234000D01*
X0318000Y0231500D01*
X0315500Y0239000D02*
X0318000Y0241500D01*
X0343000Y0241500D01*
X0352800Y0237636D02*
X0352800Y0237069D01*
X0353367Y0236501D01*
X0355069Y0236501D01*
X0355069Y0235367D02*
X0355069Y0237636D01*
X0354501Y0238203D01*
X0353367Y0238203D01*
X0352800Y0237636D01*
X0352800Y0235367D02*
X0353367Y0234800D01*
X0354501Y0234800D01*
X0355069Y0235367D01*
X0356500Y0234000D02*
X0359000Y0231500D01*
X0356500Y0234000D02*
X0356500Y0239000D01*
X0359000Y0241500D01*
X0355069Y0245367D02*
X0354501Y0244800D01*
X0353367Y0244800D01*
X0352800Y0245367D01*
X0352800Y0245934D01*
X0353367Y0246501D01*
X0354501Y0246501D01*
X0355069Y0245934D01*
X0355069Y0245367D01*
X0354501Y0246501D02*
X0355069Y0247069D01*
X0355069Y0247636D01*
X0354501Y0248203D01*
X0353367Y0248203D01*
X0352800Y0247636D01*
X0352800Y0247069D01*
X0353367Y0246501D01*
X0359800Y0252800D02*
X0359800Y0255069D01*
X0360934Y0256203D01*
X0362069Y0255069D01*
X0362069Y0252800D01*
X0363483Y0252800D02*
X0363483Y0256203D01*
X0363483Y0254501D02*
X0365752Y0254501D01*
X0365752Y0252800D02*
X0365752Y0256203D01*
X0367166Y0255636D02*
X0367733Y0256203D01*
X0368868Y0256203D01*
X0369435Y0255636D01*
X0369435Y0255069D01*
X0367166Y0252800D01*
X0369435Y0252800D01*
X0362069Y0254501D02*
X0359800Y0254501D01*
X0355000Y0261500D02*
X0350000Y0261500D01*
X0347500Y0264000D01*
X0347500Y0269000D01*
X0350000Y0271500D01*
X0347500Y0274000D01*
X0347500Y0279000D01*
X0350000Y0281500D01*
X0347500Y0284000D01*
X0347500Y0289000D01*
X0350000Y0291500D01*
X0355000Y0291500D01*
X0357500Y0289000D01*
X0357500Y0284000D01*
X0355000Y0281500D01*
X0357500Y0279000D01*
X0357500Y0274000D01*
X0355000Y0271500D01*
X0350000Y0271500D01*
X0346069Y0268636D02*
X0345501Y0269203D01*
X0344367Y0269203D01*
X0343800Y0268636D01*
X0343800Y0266367D01*
X0344367Y0265800D01*
X0345501Y0265800D01*
X0346069Y0266367D01*
X0346069Y0267501D01*
X0344934Y0267501D01*
X0345752Y0274800D02*
X0343483Y0278203D01*
X0342069Y0278203D02*
X0339800Y0278203D01*
X0340934Y0278203D02*
X0340934Y0274800D01*
X0343483Y0274800D02*
X0345752Y0278203D01*
X0350000Y0281500D02*
X0355000Y0281500D01*
X0358797Y0280801D02*
X0359364Y0280801D01*
X0361633Y0278533D01*
X0362200Y0278533D01*
X0362200Y0277118D02*
X0358797Y0277118D01*
X0358797Y0278533D02*
X0358797Y0280801D01*
X0362200Y0277118D02*
X0358797Y0274849D01*
X0362200Y0274849D01*
X0362200Y0273435D02*
X0358797Y0273435D01*
X0358797Y0271166D02*
X0362200Y0273435D01*
X0362200Y0271166D02*
X0358797Y0271166D01*
X0359364Y0269752D02*
X0358797Y0269185D01*
X0358797Y0268050D01*
X0359364Y0267483D01*
X0361633Y0267483D01*
X0362200Y0268050D01*
X0362200Y0269185D01*
X0361633Y0269752D01*
X0359364Y0269752D01*
X0357500Y0269000D02*
X0357500Y0264000D01*
X0355000Y0261500D01*
X0358797Y0264367D02*
X0358797Y0265501D01*
X0359364Y0266069D01*
X0358797Y0264367D02*
X0359364Y0263800D01*
X0361633Y0263800D01*
X0362200Y0264367D01*
X0362200Y0265501D01*
X0361633Y0266069D01*
X0357500Y0269000D02*
X0355000Y0271500D01*
X0365800Y0275367D02*
X0366367Y0274800D01*
X0367501Y0274800D01*
X0368069Y0275367D01*
X0368069Y0275934D01*
X0367501Y0276501D01*
X0366367Y0276501D01*
X0365800Y0277069D01*
X0365800Y0277636D01*
X0366367Y0278203D01*
X0367501Y0278203D01*
X0368069Y0277636D01*
X0369483Y0277636D02*
X0369483Y0275367D01*
X0370050Y0274800D01*
X0371185Y0274800D01*
X0371752Y0275367D01*
X0373166Y0274800D02*
X0373166Y0278203D01*
X0371752Y0277636D02*
X0371185Y0278203D01*
X0370050Y0278203D01*
X0369483Y0277636D01*
X0373166Y0274800D02*
X0375435Y0274800D01*
X0376500Y0274000D02*
X0379000Y0271500D01*
X0384000Y0271500D01*
X0386500Y0274000D01*
X0386500Y0279000D01*
X0384000Y0281500D01*
X0379000Y0281500D01*
X0376500Y0279000D01*
X0376500Y0274000D01*
X0379000Y0271500D02*
X0376500Y0269000D01*
X0376500Y0264000D01*
X0379000Y0261500D01*
X0384000Y0261500D01*
X0386500Y0264000D01*
X0386500Y0269000D01*
X0384000Y0271500D01*
X0387797Y0271166D02*
X0391200Y0273435D01*
X0387797Y0273435D01*
X0387797Y0274849D02*
X0391200Y0277118D01*
X0387797Y0277118D01*
X0389499Y0278533D02*
X0389499Y0280234D01*
X0390066Y0280801D01*
X0390633Y0280801D01*
X0391200Y0280234D01*
X0391200Y0279100D01*
X0390633Y0278533D01*
X0389499Y0278533D01*
X0388364Y0279667D01*
X0387797Y0280801D01*
X0386500Y0284000D02*
X0384000Y0281500D01*
X0386500Y0284000D02*
X0386500Y0289000D01*
X0384000Y0291500D01*
X0379000Y0291500D01*
X0376500Y0289000D01*
X0376500Y0284000D01*
X0379000Y0281500D01*
X0375435Y0284800D02*
X0375435Y0287069D01*
X0374301Y0288203D01*
X0373166Y0287069D01*
X0373166Y0284800D01*
X0371752Y0285367D02*
X0371752Y0287636D01*
X0371185Y0288203D01*
X0369483Y0288203D01*
X0369483Y0284800D01*
X0371185Y0284800D01*
X0371752Y0285367D01*
X0373166Y0286501D02*
X0375435Y0286501D01*
X0368069Y0285934D02*
X0368069Y0285367D01*
X0367501Y0284800D01*
X0366367Y0284800D01*
X0365800Y0285367D01*
X0366367Y0286501D02*
X0367501Y0286501D01*
X0368069Y0285934D01*
X0368069Y0287636D02*
X0367501Y0288203D01*
X0366367Y0288203D01*
X0365800Y0287636D01*
X0365800Y0287069D01*
X0366367Y0286501D01*
X0363983Y0304300D02*
X0363983Y0304867D01*
X0366252Y0307136D01*
X0366252Y0307703D01*
X0363983Y0307703D01*
X0362569Y0307136D02*
X0362001Y0307703D01*
X0360867Y0307703D01*
X0360300Y0307136D01*
X0360300Y0304867D01*
X0360867Y0304300D01*
X0362001Y0304300D01*
X0362569Y0304867D01*
X0375800Y0309367D02*
X0376367Y0308800D01*
X0377501Y0308800D01*
X0378069Y0309367D01*
X0379483Y0308800D02*
X0381752Y0311069D01*
X0381752Y0311636D01*
X0381185Y0312203D01*
X0380050Y0312203D01*
X0379483Y0311636D01*
X0378069Y0311636D02*
X0377501Y0312203D01*
X0376367Y0312203D01*
X0375800Y0311636D01*
X0375800Y0309367D01*
X0379483Y0308800D02*
X0381752Y0308800D01*
X0383166Y0309367D02*
X0383733Y0308800D01*
X0384868Y0308800D01*
X0385435Y0309367D01*
X0385435Y0309934D01*
X0384868Y0310501D01*
X0384301Y0310501D01*
X0384868Y0310501D02*
X0385435Y0311069D01*
X0385435Y0311636D01*
X0384868Y0312203D01*
X0383733Y0312203D01*
X0383166Y0311636D01*
X0384800Y0307203D02*
X0386501Y0307203D01*
X0387069Y0306636D01*
X0387069Y0305501D01*
X0386501Y0304934D01*
X0384800Y0304934D01*
X0384800Y0303800D02*
X0384800Y0307203D01*
X0385934Y0304934D02*
X0387069Y0303800D01*
X0388483Y0304367D02*
X0389050Y0303800D01*
X0390185Y0303800D01*
X0390752Y0304367D01*
X0390752Y0304934D01*
X0390185Y0305501D01*
X0389617Y0305501D01*
X0390185Y0305501D02*
X0390752Y0306069D01*
X0390752Y0306636D01*
X0390185Y0307203D01*
X0389050Y0307203D01*
X0388483Y0306636D01*
X0386364Y0322434D02*
X0387499Y0323568D01*
X0389200Y0323568D01*
X0387499Y0323568D02*
X0386364Y0324702D01*
X0385797Y0324702D01*
X0386931Y0326117D02*
X0385797Y0327251D01*
X0389200Y0327251D01*
X0389200Y0326117D02*
X0389200Y0328385D01*
X0386364Y0322434D02*
X0385797Y0322434D01*
X0385868Y0334800D02*
X0385868Y0338203D01*
X0384166Y0336501D01*
X0386435Y0336501D01*
X0382752Y0337069D02*
X0382752Y0337636D01*
X0382185Y0338203D01*
X0381050Y0338203D01*
X0380483Y0337636D01*
X0379069Y0337636D02*
X0378501Y0338203D01*
X0377367Y0338203D01*
X0376800Y0337636D01*
X0376800Y0335367D01*
X0377367Y0334800D01*
X0378501Y0334800D01*
X0379069Y0335367D01*
X0380483Y0334800D02*
X0382752Y0337069D01*
X0382752Y0334800D02*
X0380483Y0334800D01*
X0374435Y0340636D02*
X0372166Y0338367D01*
X0372166Y0337800D01*
X0370752Y0337800D02*
X0368483Y0337800D01*
X0369617Y0337800D02*
X0369617Y0341203D01*
X0368483Y0340069D01*
X0367069Y0340636D02*
X0366501Y0341203D01*
X0365367Y0341203D01*
X0364800Y0340636D01*
X0364800Y0338367D01*
X0365367Y0337800D01*
X0366501Y0337800D01*
X0367069Y0338367D01*
X0372166Y0341203D02*
X0374435Y0341203D01*
X0374435Y0340636D01*
X0378800Y0343867D02*
X0378800Y0346136D01*
X0379367Y0346703D01*
X0380501Y0346703D01*
X0381069Y0346136D01*
X0382483Y0346136D02*
X0382483Y0345569D01*
X0383050Y0345001D01*
X0384185Y0345001D01*
X0384752Y0344434D01*
X0384752Y0343867D01*
X0384185Y0343300D01*
X0383050Y0343300D01*
X0382483Y0343867D01*
X0382483Y0344434D01*
X0383050Y0345001D01*
X0384185Y0345001D02*
X0384752Y0345569D01*
X0384752Y0346136D01*
X0384185Y0346703D01*
X0383050Y0346703D01*
X0382483Y0346136D01*
X0383000Y0347500D02*
X0380500Y0350000D01*
X0380500Y0355000D01*
X0383000Y0357500D01*
X0380500Y0360000D01*
X0380500Y0365000D01*
X0383000Y0367500D01*
X0388000Y0367500D01*
X0390500Y0365000D01*
X0390500Y0360000D01*
X0388000Y0357500D01*
X0390500Y0355000D01*
X0390500Y0350000D01*
X0388000Y0347500D01*
X0383000Y0347500D01*
X0381069Y0343867D02*
X0380501Y0343300D01*
X0379367Y0343300D01*
X0378800Y0343867D01*
X0376868Y0353300D02*
X0375733Y0353300D01*
X0375166Y0353867D01*
X0377435Y0356136D01*
X0377435Y0353867D01*
X0376868Y0353300D01*
X0375166Y0353867D02*
X0375166Y0356136D01*
X0375733Y0356703D01*
X0376868Y0356703D01*
X0377435Y0356136D01*
X0373752Y0353300D02*
X0371483Y0353300D01*
X0372617Y0353300D02*
X0372617Y0356703D01*
X0371483Y0355569D01*
X0370069Y0356136D02*
X0369501Y0356703D01*
X0368367Y0356703D01*
X0367800Y0356136D01*
X0367800Y0353867D01*
X0368367Y0353300D01*
X0369501Y0353300D01*
X0370069Y0353867D01*
X0368435Y0363800D02*
X0366166Y0363800D01*
X0367301Y0363800D02*
X0367301Y0367203D01*
X0366166Y0366069D01*
X0364752Y0363800D02*
X0362483Y0363800D01*
X0363617Y0363800D02*
X0363617Y0367203D01*
X0362483Y0366069D01*
X0361069Y0366636D02*
X0360501Y0367203D01*
X0359367Y0367203D01*
X0358800Y0366636D01*
X0358800Y0364367D01*
X0359367Y0363800D01*
X0360501Y0363800D01*
X0361069Y0364367D01*
X0359685Y0370800D02*
X0360252Y0371367D01*
X0360252Y0374203D01*
X0361666Y0374203D02*
X0363935Y0374203D01*
X0362801Y0374203D02*
X0362801Y0370800D01*
X0359685Y0370800D02*
X0358550Y0370800D01*
X0357983Y0371367D01*
X0357983Y0374203D01*
X0356569Y0373636D02*
X0356001Y0374203D01*
X0354867Y0374203D01*
X0354300Y0373636D01*
X0354300Y0371367D01*
X0354867Y0370800D01*
X0356001Y0370800D01*
X0356569Y0371367D01*
X0356569Y0373636D01*
X0353200Y0377800D02*
X0353200Y0379501D01*
X0352633Y0380069D01*
X0350364Y0380069D01*
X0349797Y0379501D01*
X0349797Y0377800D01*
X0353200Y0377800D01*
X0352633Y0381483D02*
X0353200Y0382050D01*
X0353200Y0383185D01*
X0352633Y0383752D01*
X0352066Y0383752D01*
X0351499Y0383185D01*
X0351499Y0382617D01*
X0351499Y0383185D02*
X0350931Y0383752D01*
X0350364Y0383752D01*
X0349797Y0383185D01*
X0349797Y0382050D01*
X0350364Y0381483D01*
X0351499Y0385166D02*
X0351499Y0386868D01*
X0352066Y0387435D01*
X0352633Y0387435D01*
X0353200Y0386868D01*
X0353200Y0385733D01*
X0352633Y0385166D01*
X0351499Y0385166D01*
X0350364Y0386301D01*
X0349797Y0387435D01*
X0341200Y0385166D02*
X0340633Y0385166D01*
X0338364Y0387435D01*
X0337797Y0387435D01*
X0337797Y0385166D01*
X0338364Y0383752D02*
X0338931Y0383752D01*
X0339499Y0383185D01*
X0340066Y0383752D01*
X0340633Y0383752D01*
X0341200Y0383185D01*
X0341200Y0382050D01*
X0340633Y0381483D01*
X0340633Y0380069D02*
X0338364Y0380069D01*
X0337797Y0379501D01*
X0337797Y0377800D01*
X0341200Y0377800D01*
X0341200Y0379501D01*
X0340633Y0380069D01*
X0338364Y0381483D02*
X0337797Y0382050D01*
X0337797Y0383185D01*
X0338364Y0383752D01*
X0339499Y0383185D02*
X0339499Y0382617D01*
X0338868Y0374203D02*
X0339435Y0373636D01*
X0339435Y0372501D01*
X0338868Y0371934D01*
X0337166Y0371934D01*
X0337166Y0370800D02*
X0337166Y0374203D01*
X0338868Y0374203D01*
X0338301Y0371934D02*
X0339435Y0370800D01*
X0335752Y0370800D02*
X0335752Y0374203D01*
X0333483Y0374203D02*
X0333483Y0370800D01*
X0334617Y0371934D01*
X0335752Y0370800D01*
X0332069Y0372501D02*
X0331501Y0371934D01*
X0329800Y0371934D01*
X0329800Y0370800D02*
X0329800Y0374203D01*
X0331501Y0374203D01*
X0332069Y0373636D01*
X0332069Y0372501D01*
X0321200Y0368752D02*
X0321200Y0366483D01*
X0321200Y0367617D02*
X0317797Y0367617D01*
X0318931Y0366483D01*
X0318364Y0365069D02*
X0317797Y0364501D01*
X0317797Y0363367D01*
X0318364Y0362800D01*
X0320633Y0362800D01*
X0321200Y0363367D01*
X0321200Y0364501D01*
X0320633Y0365069D01*
X0319185Y0371800D02*
X0319752Y0372367D01*
X0319752Y0372934D01*
X0319185Y0373501D01*
X0317483Y0373501D01*
X0317483Y0372367D01*
X0318050Y0371800D01*
X0319185Y0371800D01*
X0317483Y0373501D02*
X0318617Y0374636D01*
X0319752Y0375203D01*
X0316069Y0374636D02*
X0316069Y0373501D01*
X0315501Y0372934D01*
X0313800Y0372934D01*
X0313800Y0371800D02*
X0313800Y0375203D01*
X0315501Y0375203D01*
X0316069Y0374636D01*
X0314934Y0372934D02*
X0316069Y0371800D01*
X0308200Y0371367D02*
X0308200Y0372501D01*
X0307633Y0373069D01*
X0308200Y0374483D02*
X0308200Y0376752D01*
X0308200Y0375617D02*
X0304797Y0375617D01*
X0305931Y0374483D01*
X0305364Y0373069D02*
X0304797Y0372501D01*
X0304797Y0371367D01*
X0305364Y0370800D01*
X0307633Y0370800D01*
X0308200Y0371367D01*
X0307633Y0378166D02*
X0308200Y0378733D01*
X0308200Y0379868D01*
X0307633Y0380435D01*
X0307066Y0380435D01*
X0306499Y0379868D01*
X0306499Y0378166D01*
X0307633Y0378166D01*
X0306499Y0378166D02*
X0305364Y0379301D01*
X0304797Y0380435D01*
X0313800Y0380800D02*
X0313800Y0384203D01*
X0315501Y0384203D01*
X0316069Y0383636D01*
X0316069Y0382501D01*
X0315501Y0381934D01*
X0313800Y0381934D01*
X0314934Y0381934D02*
X0316069Y0380800D01*
X0317483Y0380800D02*
X0317483Y0381367D01*
X0319752Y0383636D01*
X0319752Y0384203D01*
X0317483Y0384203D01*
X0318050Y0385800D02*
X0317483Y0386367D01*
X0317483Y0386934D01*
X0318050Y0387501D01*
X0319185Y0387501D01*
X0319752Y0386934D01*
X0319752Y0386367D01*
X0319185Y0385800D01*
X0318050Y0385800D01*
X0318050Y0387501D02*
X0317483Y0388069D01*
X0317483Y0388636D01*
X0318050Y0389203D01*
X0319185Y0389203D01*
X0319752Y0388636D01*
X0319752Y0388069D01*
X0319185Y0387501D01*
X0316069Y0387501D02*
X0316069Y0388636D01*
X0315501Y0389203D01*
X0313800Y0389203D01*
X0313800Y0385800D01*
X0313800Y0386934D02*
X0315501Y0386934D01*
X0316069Y0387501D01*
X0314934Y0386934D02*
X0316069Y0385800D01*
X0311133Y0362752D02*
X0311700Y0362185D01*
X0311700Y0361050D01*
X0311133Y0360483D01*
X0311133Y0359069D02*
X0311700Y0358501D01*
X0311700Y0357367D01*
X0311133Y0356800D01*
X0308864Y0356800D01*
X0308297Y0357367D01*
X0308297Y0358501D01*
X0308864Y0359069D01*
X0308864Y0360483D02*
X0308297Y0361050D01*
X0308297Y0362185D01*
X0308864Y0362752D01*
X0309431Y0362752D01*
X0309999Y0362185D01*
X0310566Y0362752D01*
X0311133Y0362752D01*
X0309999Y0362185D02*
X0309999Y0361617D01*
X0287200Y0376434D02*
X0286066Y0375300D01*
X0283797Y0375300D01*
X0283797Y0377569D02*
X0286066Y0377569D01*
X0287200Y0376434D01*
X0287200Y0378983D02*
X0283797Y0378983D01*
X0283797Y0380685D01*
X0284364Y0381252D01*
X0285499Y0381252D01*
X0286066Y0380685D01*
X0286066Y0378983D01*
X0286066Y0380117D02*
X0287200Y0381252D01*
X0287200Y0382666D02*
X0284931Y0384935D01*
X0284364Y0384935D01*
X0283797Y0384368D01*
X0283797Y0383233D01*
X0284364Y0382666D01*
X0287200Y0382666D02*
X0287200Y0384935D01*
X0344300Y0374203D02*
X0345434Y0374203D01*
X0344867Y0374203D02*
X0344867Y0370800D01*
X0344300Y0370800D02*
X0345434Y0370800D01*
X0346755Y0370800D02*
X0346755Y0374203D01*
X0349024Y0370800D01*
X0349024Y0374203D01*
X0361797Y0377800D02*
X0361797Y0379501D01*
X0362364Y0380069D01*
X0364633Y0380069D01*
X0365200Y0379501D01*
X0365200Y0377800D01*
X0361797Y0377800D01*
X0362364Y0381483D02*
X0361797Y0382050D01*
X0361797Y0383185D01*
X0362364Y0383752D01*
X0362931Y0383752D01*
X0363499Y0383185D01*
X0364066Y0383752D01*
X0364633Y0383752D01*
X0365200Y0383185D01*
X0365200Y0382050D01*
X0364633Y0381483D01*
X0363499Y0382617D02*
X0363499Y0383185D01*
X0363499Y0385166D02*
X0362931Y0386301D01*
X0362931Y0386868D01*
X0363499Y0387435D01*
X0364633Y0387435D01*
X0365200Y0386868D01*
X0365200Y0385733D01*
X0364633Y0385166D01*
X0363499Y0385166D02*
X0361797Y0385166D01*
X0361797Y0387435D01*
X0383000Y0357500D02*
X0388000Y0357500D01*
X0367185Y0321703D02*
X0366050Y0321703D01*
X0365483Y0321136D01*
X0365483Y0320569D01*
X0366050Y0320001D01*
X0367752Y0320001D01*
X0367752Y0318867D02*
X0367752Y0321136D01*
X0367185Y0321703D01*
X0367752Y0318867D02*
X0367185Y0318300D01*
X0366050Y0318300D01*
X0365483Y0318867D01*
X0364069Y0318867D02*
X0363501Y0318300D01*
X0362367Y0318300D01*
X0361800Y0318867D01*
X0361800Y0321136D01*
X0362367Y0321703D01*
X0363501Y0321703D01*
X0364069Y0321136D01*
X0345752Y0288203D02*
X0343483Y0284800D01*
X0342069Y0284800D02*
X0340934Y0285934D01*
X0341501Y0285934D02*
X0339800Y0285934D01*
X0339800Y0284800D02*
X0339800Y0288203D01*
X0341501Y0288203D01*
X0342069Y0287636D01*
X0342069Y0286501D01*
X0341501Y0285934D01*
X0343483Y0288203D02*
X0345752Y0284800D01*
X0328000Y0275500D02*
X0323000Y0275500D01*
X0320500Y0273000D01*
X0316633Y0276800D02*
X0317200Y0277367D01*
X0317200Y0278501D01*
X0316633Y0279069D01*
X0315499Y0279069D01*
X0315499Y0277934D01*
X0316633Y0276800D02*
X0314364Y0276800D01*
X0313797Y0277367D01*
X0313797Y0278501D01*
X0314364Y0279069D01*
X0307200Y0278501D02*
X0307200Y0277367D01*
X0306633Y0276800D01*
X0305499Y0277367D02*
X0304931Y0276800D01*
X0304364Y0276800D01*
X0303797Y0277367D01*
X0303797Y0278501D01*
X0304364Y0279069D01*
X0305499Y0278501D02*
X0306066Y0279069D01*
X0306633Y0279069D01*
X0307200Y0278501D01*
X0305499Y0278501D02*
X0305499Y0277367D01*
X0307200Y0280483D02*
X0306066Y0281617D01*
X0307200Y0282752D01*
X0303797Y0282752D01*
X0303797Y0284166D02*
X0303797Y0285301D01*
X0303797Y0284733D02*
X0307200Y0284733D01*
X0307200Y0284166D02*
X0307200Y0285301D01*
X0306633Y0286622D02*
X0307200Y0287189D01*
X0307200Y0288323D01*
X0306633Y0288890D01*
X0304364Y0288890D01*
X0303797Y0288323D01*
X0303797Y0287189D01*
X0304364Y0286622D01*
X0306633Y0286622D01*
X0307200Y0280483D02*
X0303797Y0280483D01*
X0310500Y0273000D02*
X0310500Y0268000D01*
X0309501Y0264203D02*
X0308367Y0264203D01*
X0307800Y0263636D01*
X0307800Y0261367D01*
X0308367Y0260800D01*
X0309501Y0260800D01*
X0310069Y0261367D01*
X0310069Y0263636D02*
X0309501Y0264203D01*
X0318000Y0251500D02*
X0315500Y0249000D01*
X0315500Y0244000D01*
X0318000Y0241500D01*
X0314069Y0245367D02*
X0313501Y0244800D01*
X0312367Y0244800D01*
X0311800Y0245367D01*
X0314069Y0247636D01*
X0314069Y0245367D01*
X0314069Y0247636D02*
X0313501Y0248203D01*
X0312367Y0248203D01*
X0311800Y0247636D01*
X0311800Y0245367D01*
X0304435Y0245501D02*
X0302733Y0245501D01*
X0302166Y0246069D01*
X0302166Y0246636D01*
X0302733Y0247203D01*
X0303868Y0247203D01*
X0304435Y0246636D01*
X0304435Y0244367D01*
X0303868Y0243800D01*
X0302733Y0243800D01*
X0302166Y0244367D01*
X0300752Y0243800D02*
X0298483Y0243800D01*
X0299617Y0243800D02*
X0299617Y0247203D01*
X0298483Y0246069D01*
X0297069Y0246636D02*
X0296501Y0247203D01*
X0295367Y0247203D01*
X0294800Y0246636D01*
X0294800Y0244367D01*
X0295367Y0243800D01*
X0296501Y0243800D01*
X0297069Y0244367D01*
X0276240Y0241223D02*
X0273971Y0241223D01*
X0273971Y0239521D01*
X0275106Y0240088D01*
X0275673Y0240088D01*
X0276240Y0239521D01*
X0276240Y0238387D01*
X0275673Y0237820D01*
X0274538Y0237820D01*
X0273971Y0238387D01*
X0272557Y0238387D02*
X0272557Y0241223D01*
X0270288Y0241223D02*
X0270288Y0238387D01*
X0270855Y0237820D01*
X0271990Y0237820D01*
X0272557Y0238387D01*
X0311800Y0217636D02*
X0312367Y0218203D01*
X0313501Y0218203D01*
X0314069Y0217636D01*
X0314069Y0217069D01*
X0313501Y0216501D01*
X0314069Y0215934D01*
X0314069Y0215367D01*
X0313501Y0214800D01*
X0312367Y0214800D01*
X0311800Y0215367D01*
X0312934Y0216501D02*
X0313501Y0216501D01*
X0350934Y0178203D02*
X0350934Y0174800D01*
X0349800Y0174800D02*
X0352069Y0174800D01*
X0353483Y0175367D02*
X0354050Y0174800D01*
X0355185Y0174800D01*
X0355752Y0175367D01*
X0355752Y0176501D01*
X0355185Y0177069D01*
X0354617Y0177069D01*
X0353483Y0176501D01*
X0353483Y0178203D01*
X0355752Y0178203D01*
X0359000Y0181500D02*
X0384000Y0181500D01*
X0380934Y0168636D02*
X0380934Y0166367D01*
X0379800Y0167501D02*
X0382069Y0167501D01*
X0373069Y0166934D02*
X0373069Y0166367D01*
X0372501Y0165800D01*
X0371367Y0165800D01*
X0370800Y0166367D01*
X0371367Y0167501D02*
X0372501Y0167501D01*
X0373069Y0166934D01*
X0373069Y0168636D02*
X0372501Y0169203D01*
X0371367Y0169203D01*
X0370800Y0168636D01*
X0370800Y0168069D01*
X0371367Y0167501D01*
X0368868Y0163203D02*
X0367166Y0161501D01*
X0369435Y0161501D01*
X0368868Y0159800D02*
X0368868Y0163203D01*
X0365752Y0163203D02*
X0365752Y0159800D01*
X0365752Y0161501D02*
X0363483Y0161501D01*
X0362069Y0161501D02*
X0359800Y0161501D01*
X0359800Y0162069D02*
X0360934Y0163203D01*
X0362069Y0162069D01*
X0362069Y0159800D01*
X0363483Y0159800D02*
X0363483Y0163203D01*
X0362501Y0165800D02*
X0363069Y0166367D01*
X0363069Y0167501D01*
X0361934Y0167501D01*
X0360800Y0166367D02*
X0361367Y0165800D01*
X0362501Y0165800D01*
X0360800Y0166367D02*
X0360800Y0168636D01*
X0361367Y0169203D01*
X0362501Y0169203D01*
X0363069Y0168636D01*
X0359800Y0162069D02*
X0359800Y0159800D01*
X0359000Y0158500D02*
X0384000Y0158500D01*
X0386500Y0156000D01*
X0386500Y0151000D01*
X0384000Y0148500D01*
X0386500Y0146000D01*
X0386500Y0141000D01*
X0384000Y0138500D01*
X0386500Y0136000D01*
X0386500Y0131000D01*
X0384000Y0128500D01*
X0386500Y0126000D01*
X0386500Y0121000D01*
X0384000Y0118500D01*
X0386500Y0116000D01*
X0386500Y0111000D01*
X0384000Y0108500D01*
X0386500Y0106000D01*
X0386500Y0101000D01*
X0384000Y0098500D01*
X0386500Y0096000D01*
X0386500Y0091000D01*
X0384000Y0088500D01*
X0386500Y0086000D01*
X0386500Y0081000D01*
X0384000Y0078500D01*
X0359000Y0078500D01*
X0356500Y0081000D01*
X0356500Y0086000D01*
X0359000Y0088500D01*
X0384000Y0088500D01*
X0384000Y0098500D02*
X0359000Y0098500D01*
X0356500Y0096000D01*
X0356500Y0091000D01*
X0359000Y0088500D01*
X0355185Y0091800D02*
X0354050Y0091800D01*
X0353483Y0092367D01*
X0355752Y0094636D01*
X0355752Y0092367D01*
X0355185Y0091800D01*
X0353483Y0092367D02*
X0353483Y0094636D01*
X0354050Y0095203D01*
X0355185Y0095203D01*
X0355752Y0094636D01*
X0352069Y0094636D02*
X0351501Y0095203D01*
X0350367Y0095203D01*
X0349800Y0094636D01*
X0350934Y0093501D02*
X0351501Y0093501D01*
X0352069Y0092934D01*
X0352069Y0092367D01*
X0351501Y0091800D01*
X0350367Y0091800D01*
X0349800Y0092367D01*
X0351501Y0093501D02*
X0352069Y0094069D01*
X0352069Y0094636D01*
X0345500Y0096000D02*
X0345500Y0091000D01*
X0343000Y0088500D01*
X0345500Y0086000D01*
X0345500Y0081000D01*
X0343000Y0078500D01*
X0318000Y0078500D01*
X0315500Y0081000D01*
X0315500Y0086000D01*
X0318000Y0088500D01*
X0343000Y0088500D01*
X0349800Y0084636D02*
X0350367Y0085203D01*
X0351501Y0085203D01*
X0352069Y0084636D01*
X0352069Y0084069D01*
X0351501Y0083501D01*
X0352069Y0082934D01*
X0352069Y0082367D01*
X0351501Y0081800D01*
X0350367Y0081800D01*
X0349800Y0082367D01*
X0350934Y0083501D02*
X0351501Y0083501D01*
X0353483Y0084069D02*
X0354617Y0085203D01*
X0354617Y0081800D01*
X0353483Y0081800D02*
X0355752Y0081800D01*
X0359000Y0098500D02*
X0356500Y0101000D01*
X0356500Y0106000D01*
X0359000Y0108500D01*
X0384000Y0108500D01*
X0384000Y0118500D02*
X0359000Y0118500D01*
X0356500Y0116000D01*
X0356500Y0111000D01*
X0359000Y0108500D01*
X0355185Y0105203D02*
X0354050Y0105203D01*
X0353483Y0104636D01*
X0353483Y0104069D01*
X0354050Y0103501D01*
X0355752Y0103501D01*
X0355752Y0102367D02*
X0355752Y0104636D01*
X0355185Y0105203D01*
X0355752Y0102367D02*
X0355185Y0101800D01*
X0354050Y0101800D01*
X0353483Y0102367D01*
X0352069Y0101800D02*
X0349800Y0101800D01*
X0352069Y0104069D01*
X0352069Y0104636D01*
X0351501Y0105203D01*
X0350367Y0105203D01*
X0349800Y0104636D01*
X0345500Y0106000D02*
X0345500Y0101000D01*
X0343000Y0098500D01*
X0345500Y0096000D01*
X0343000Y0098500D02*
X0318000Y0098500D01*
X0315500Y0096000D01*
X0315500Y0091000D01*
X0318000Y0088500D01*
X0314752Y0091800D02*
X0312483Y0091800D01*
X0314752Y0094069D01*
X0314752Y0094636D01*
X0314185Y0095203D01*
X0313050Y0095203D01*
X0312483Y0094636D01*
X0311069Y0094636D02*
X0310501Y0095203D01*
X0309367Y0095203D01*
X0308800Y0094636D01*
X0311069Y0094636D02*
X0311069Y0094069D01*
X0308800Y0091800D01*
X0311069Y0091800D01*
X0310501Y0085203D02*
X0309367Y0085203D01*
X0308800Y0084636D01*
X0310501Y0085203D02*
X0311069Y0084636D01*
X0311069Y0084069D01*
X0308800Y0081800D01*
X0311069Y0081800D01*
X0312483Y0082367D02*
X0313050Y0081800D01*
X0314185Y0081800D01*
X0314752Y0082367D01*
X0314752Y0082934D01*
X0314185Y0083501D01*
X0313617Y0083501D01*
X0314185Y0083501D02*
X0314752Y0084069D01*
X0314752Y0084636D01*
X0314185Y0085203D01*
X0313050Y0085203D01*
X0312483Y0084636D01*
X0318000Y0098500D02*
X0315500Y0101000D01*
X0315500Y0106000D01*
X0318000Y0108500D01*
X0343000Y0108500D01*
X0345500Y0106000D01*
X0343000Y0108500D02*
X0345500Y0111000D01*
X0345500Y0116000D01*
X0343000Y0118500D01*
X0345500Y0121000D01*
X0345500Y0126000D01*
X0343000Y0128500D01*
X0345500Y0131000D01*
X0345500Y0136000D01*
X0343000Y0138500D01*
X0345500Y0141000D01*
X0345500Y0146000D01*
X0343000Y0148500D01*
X0345500Y0151000D01*
X0345500Y0156000D01*
X0343000Y0158500D01*
X0318000Y0158500D01*
X0315500Y0156000D01*
X0315500Y0151000D01*
X0318000Y0148500D01*
X0343000Y0148500D01*
X0349800Y0151800D02*
X0352069Y0154069D01*
X0352069Y0154636D01*
X0351501Y0155203D01*
X0350367Y0155203D01*
X0349800Y0154636D01*
X0349800Y0151800D02*
X0352069Y0151800D01*
X0353483Y0153501D02*
X0355185Y0155203D01*
X0355185Y0151800D01*
X0356500Y0151000D02*
X0359000Y0148500D01*
X0384000Y0148500D01*
X0384000Y0138500D02*
X0359000Y0138500D01*
X0356500Y0136000D01*
X0356500Y0131000D01*
X0359000Y0128500D01*
X0384000Y0128500D01*
X0359000Y0128500D02*
X0356500Y0126000D01*
X0356500Y0121000D01*
X0359000Y0118500D01*
X0355185Y0115203D02*
X0355752Y0114636D01*
X0355752Y0114069D01*
X0355185Y0113501D01*
X0354050Y0113501D01*
X0353483Y0114069D01*
X0353483Y0114636D01*
X0354050Y0115203D01*
X0355185Y0115203D01*
X0355185Y0113501D02*
X0355752Y0112934D01*
X0355752Y0112367D01*
X0355185Y0111800D01*
X0354050Y0111800D01*
X0353483Y0112367D01*
X0353483Y0112934D01*
X0354050Y0113501D01*
X0352069Y0114069D02*
X0352069Y0114636D01*
X0351501Y0115203D01*
X0350367Y0115203D01*
X0349800Y0114636D01*
X0352069Y0114069D02*
X0349800Y0111800D01*
X0352069Y0111800D01*
X0352069Y0121800D02*
X0349800Y0121800D01*
X0352069Y0124069D01*
X0352069Y0124636D01*
X0351501Y0125203D01*
X0350367Y0125203D01*
X0349800Y0124636D01*
X0353483Y0125203D02*
X0355752Y0125203D01*
X0355752Y0124636D01*
X0353483Y0122367D01*
X0353483Y0121800D01*
X0354050Y0131800D02*
X0355185Y0131800D01*
X0355752Y0132367D01*
X0355752Y0132934D01*
X0355185Y0133501D01*
X0353483Y0133501D01*
X0353483Y0132367D01*
X0354050Y0131800D01*
X0353483Y0133501D02*
X0354617Y0134636D01*
X0355752Y0135203D01*
X0352069Y0134636D02*
X0351501Y0135203D01*
X0350367Y0135203D01*
X0349800Y0134636D01*
X0352069Y0134636D02*
X0352069Y0134069D01*
X0349800Y0131800D01*
X0352069Y0131800D01*
X0359000Y0138500D02*
X0356500Y0141000D01*
X0356500Y0146000D01*
X0359000Y0148500D01*
X0356500Y0151000D02*
X0356500Y0156000D01*
X0359000Y0158500D01*
X0355752Y0153501D02*
X0353483Y0153501D01*
X0353483Y0145203D02*
X0353483Y0143501D01*
X0354617Y0144069D01*
X0355185Y0144069D01*
X0355752Y0143501D01*
X0355752Y0142367D01*
X0355185Y0141800D01*
X0354050Y0141800D01*
X0353483Y0142367D01*
X0352069Y0141800D02*
X0349800Y0141800D01*
X0352069Y0144069D01*
X0352069Y0144636D01*
X0351501Y0145203D01*
X0350367Y0145203D01*
X0349800Y0144636D01*
X0353483Y0145203D02*
X0355752Y0145203D01*
X0343000Y0138500D02*
X0318000Y0138500D01*
X0315500Y0136000D01*
X0315500Y0131000D01*
X0318000Y0128500D01*
X0343000Y0128500D01*
X0343000Y0118500D02*
X0318000Y0118500D01*
X0315500Y0116000D01*
X0315500Y0111000D01*
X0318000Y0108500D01*
X0314185Y0111800D02*
X0313050Y0111800D01*
X0312483Y0112367D01*
X0314752Y0114636D01*
X0314752Y0112367D01*
X0314185Y0111800D01*
X0312483Y0112367D02*
X0312483Y0114636D01*
X0313050Y0115203D01*
X0314185Y0115203D01*
X0314752Y0114636D01*
X0311069Y0114636D02*
X0310501Y0115203D01*
X0309367Y0115203D01*
X0308800Y0114636D01*
X0311069Y0114636D02*
X0311069Y0114069D01*
X0308800Y0111800D01*
X0311069Y0111800D01*
X0310501Y0105203D02*
X0309367Y0105203D01*
X0308800Y0104636D01*
X0310501Y0105203D02*
X0311069Y0104636D01*
X0311069Y0104069D01*
X0308800Y0101800D01*
X0311069Y0101800D01*
X0312483Y0101800D02*
X0314752Y0101800D01*
X0313617Y0101800D02*
X0313617Y0105203D01*
X0312483Y0104069D01*
X0318000Y0118500D02*
X0315500Y0121000D01*
X0315500Y0126000D01*
X0318000Y0128500D01*
X0314185Y0125203D02*
X0313050Y0125203D01*
X0312483Y0124636D01*
X0312483Y0124069D01*
X0313050Y0123501D01*
X0314752Y0123501D01*
X0314752Y0122367D02*
X0314752Y0124636D01*
X0314185Y0125203D01*
X0314752Y0122367D02*
X0314185Y0121800D01*
X0313050Y0121800D01*
X0312483Y0122367D01*
X0311069Y0121800D02*
X0308800Y0121800D01*
X0309934Y0121800D02*
X0309934Y0125203D01*
X0308800Y0124069D01*
X0308800Y0131800D02*
X0311069Y0131800D01*
X0309934Y0131800D02*
X0309934Y0135203D01*
X0308800Y0134069D01*
X0312483Y0134069D02*
X0312483Y0134636D01*
X0313050Y0135203D01*
X0314185Y0135203D01*
X0314752Y0134636D01*
X0314752Y0134069D01*
X0314185Y0133501D01*
X0313050Y0133501D01*
X0312483Y0134069D01*
X0313050Y0133501D02*
X0312483Y0132934D01*
X0312483Y0132367D01*
X0313050Y0131800D01*
X0314185Y0131800D01*
X0314752Y0132367D01*
X0314752Y0132934D01*
X0314185Y0133501D01*
X0318000Y0138500D02*
X0315500Y0141000D01*
X0315500Y0146000D01*
X0318000Y0148500D01*
X0314752Y0145203D02*
X0314752Y0144636D01*
X0312483Y0142367D01*
X0312483Y0141800D01*
X0311069Y0141800D02*
X0308800Y0141800D01*
X0309934Y0141800D02*
X0309934Y0145203D01*
X0308800Y0144069D01*
X0312483Y0145203D02*
X0314752Y0145203D01*
X0314185Y0151800D02*
X0314752Y0152367D01*
X0314752Y0152934D01*
X0314185Y0153501D01*
X0312483Y0153501D01*
X0312483Y0152367D01*
X0313050Y0151800D01*
X0314185Y0151800D01*
X0312483Y0153501D02*
X0313617Y0154636D01*
X0314752Y0155203D01*
X0309934Y0155203D02*
X0309934Y0151800D01*
X0308800Y0151800D02*
X0311069Y0151800D01*
X0308800Y0154069D02*
X0309934Y0155203D01*
X0304435Y0153636D02*
X0302166Y0151367D01*
X0302733Y0150800D01*
X0303868Y0150800D01*
X0304435Y0151367D01*
X0304435Y0153636D01*
X0303868Y0154203D01*
X0302733Y0154203D01*
X0302166Y0153636D01*
X0302166Y0151367D01*
X0300752Y0150800D02*
X0298483Y0150800D01*
X0300752Y0153069D01*
X0300752Y0153636D01*
X0300185Y0154203D01*
X0299050Y0154203D01*
X0298483Y0153636D01*
X0297069Y0153636D02*
X0296501Y0154203D01*
X0295367Y0154203D01*
X0294800Y0153636D01*
X0294800Y0151367D01*
X0295367Y0150800D01*
X0296501Y0150800D01*
X0297069Y0151367D01*
X0318800Y0159800D02*
X0318800Y0162069D01*
X0319934Y0163203D01*
X0321069Y0162069D01*
X0321069Y0159800D01*
X0322483Y0159800D02*
X0322483Y0163203D01*
X0322483Y0161501D02*
X0324752Y0161501D01*
X0324752Y0159800D02*
X0324752Y0163203D01*
X0326166Y0162636D02*
X0326733Y0163203D01*
X0327868Y0163203D01*
X0328435Y0162636D01*
X0328435Y0162069D01*
X0327868Y0161501D01*
X0328435Y0160934D01*
X0328435Y0160367D01*
X0327868Y0159800D01*
X0326733Y0159800D01*
X0326166Y0160367D01*
X0327301Y0161501D02*
X0327868Y0161501D01*
X0329367Y0165800D02*
X0328800Y0166367D01*
X0329367Y0165800D02*
X0330501Y0165800D01*
X0331069Y0166367D01*
X0331069Y0166934D01*
X0330501Y0167501D01*
X0329367Y0167501D01*
X0328800Y0168069D01*
X0328800Y0168636D01*
X0329367Y0169203D01*
X0330501Y0169203D01*
X0331069Y0168636D01*
X0338800Y0167501D02*
X0341069Y0167501D01*
X0339934Y0166367D02*
X0339934Y0168636D01*
X0349800Y0177069D02*
X0350934Y0178203D01*
X0322069Y0168636D02*
X0321501Y0169203D01*
X0320367Y0169203D01*
X0319800Y0168636D01*
X0319800Y0166367D01*
X0320367Y0165800D01*
X0321501Y0165800D01*
X0322069Y0166367D01*
X0322069Y0167501D01*
X0320934Y0167501D01*
X0321069Y0161501D02*
X0318800Y0161501D01*
X0276740Y0148223D02*
X0275606Y0147655D01*
X0274471Y0146521D01*
X0276173Y0146521D01*
X0276740Y0145954D01*
X0276740Y0145387D01*
X0276173Y0144820D01*
X0275038Y0144820D01*
X0274471Y0145387D01*
X0274471Y0146521D01*
X0273057Y0145387D02*
X0273057Y0148223D01*
X0270788Y0148223D02*
X0270788Y0145387D01*
X0271355Y0144820D01*
X0272490Y0144820D01*
X0273057Y0145387D01*
X0240818Y0072203D02*
X0239684Y0072203D01*
X0239117Y0071636D01*
X0237702Y0071636D02*
X0237135Y0072203D01*
X0236001Y0072203D01*
X0235434Y0071636D01*
X0234019Y0071636D02*
X0233452Y0072203D01*
X0232318Y0072203D01*
X0231751Y0071636D01*
X0231751Y0069367D01*
X0232318Y0068800D01*
X0233452Y0068800D01*
X0234019Y0069367D01*
X0235434Y0068800D02*
X0237702Y0071069D01*
X0237702Y0071636D01*
X0237702Y0068800D02*
X0235434Y0068800D01*
X0239117Y0068800D02*
X0241385Y0071069D01*
X0241385Y0071636D01*
X0240818Y0072203D01*
X0241385Y0068800D02*
X0239117Y0068800D01*
X0254800Y0064203D02*
X0254800Y0060800D01*
X0254800Y0061934D02*
X0256501Y0061934D01*
X0257069Y0062501D01*
X0257069Y0063636D01*
X0256501Y0064203D01*
X0254800Y0064203D01*
X0255934Y0061934D02*
X0257069Y0060800D01*
X0258483Y0060800D02*
X0260752Y0060800D01*
X0259617Y0060800D02*
X0259617Y0064203D01*
X0258483Y0063069D01*
X0262166Y0063069D02*
X0262166Y0063636D01*
X0262733Y0064203D01*
X0263868Y0064203D01*
X0264435Y0063636D01*
X0264435Y0061367D01*
X0263868Y0060800D01*
X0262733Y0060800D01*
X0262166Y0061367D01*
X0262733Y0062501D02*
X0264435Y0062501D01*
X0262733Y0062501D02*
X0262166Y0063069D01*
X0274797Y0058301D02*
X0278200Y0058301D01*
X0278200Y0059435D02*
X0278200Y0057166D01*
X0278200Y0055752D02*
X0278200Y0053483D01*
X0275931Y0055752D01*
X0275364Y0055752D01*
X0274797Y0055185D01*
X0274797Y0054050D01*
X0275364Y0053483D01*
X0275364Y0052069D02*
X0274797Y0051501D01*
X0274797Y0050367D01*
X0275364Y0049800D01*
X0277633Y0049800D01*
X0278200Y0050367D01*
X0278200Y0051501D01*
X0277633Y0052069D01*
X0275931Y0057166D02*
X0274797Y0058301D01*
X0279600Y0044487D02*
X0279600Y0026513D01*
X0299400Y0026513D01*
X0299400Y0044487D01*
X0279600Y0044487D01*
X0275364Y0032752D02*
X0277633Y0030483D01*
X0278200Y0030483D01*
X0277633Y0029069D02*
X0274797Y0029069D01*
X0274797Y0030483D02*
X0274797Y0032752D01*
X0275364Y0032752D01*
X0277633Y0029069D02*
X0278200Y0028501D01*
X0278200Y0027367D01*
X0277633Y0026800D01*
X0274797Y0026800D01*
X0281300Y0030700D02*
X0281302Y0030784D01*
X0281308Y0030869D01*
X0281318Y0030952D01*
X0281332Y0031036D01*
X0281349Y0031118D01*
X0281371Y0031200D01*
X0281396Y0031280D01*
X0281425Y0031359D01*
X0281458Y0031437D01*
X0281494Y0031513D01*
X0281534Y0031588D01*
X0281578Y0031660D01*
X0281624Y0031731D01*
X0281674Y0031799D01*
X0281727Y0031864D01*
X0281783Y0031927D01*
X0281842Y0031988D01*
X0281904Y0032045D01*
X0281968Y0032100D01*
X0282035Y0032151D01*
X0282104Y0032200D01*
X0282176Y0032245D01*
X0282249Y0032286D01*
X0282324Y0032324D01*
X0282401Y0032359D01*
X0282480Y0032390D01*
X0282560Y0032417D01*
X0282641Y0032440D01*
X0282723Y0032460D01*
X0282806Y0032476D01*
X0282889Y0032488D01*
X0282974Y0032496D01*
X0283058Y0032500D01*
X0283142Y0032500D01*
X0283226Y0032496D01*
X0283311Y0032488D01*
X0283394Y0032476D01*
X0283477Y0032460D01*
X0283559Y0032440D01*
X0283640Y0032417D01*
X0283720Y0032390D01*
X0283799Y0032359D01*
X0283876Y0032324D01*
X0283951Y0032286D01*
X0284024Y0032245D01*
X0284096Y0032200D01*
X0284165Y0032151D01*
X0284232Y0032100D01*
X0284296Y0032045D01*
X0284358Y0031988D01*
X0284417Y0031927D01*
X0284473Y0031864D01*
X0284526Y0031799D01*
X0284576Y0031731D01*
X0284622Y0031660D01*
X0284666Y0031588D01*
X0284706Y0031513D01*
X0284742Y0031437D01*
X0284775Y0031359D01*
X0284804Y0031280D01*
X0284829Y0031200D01*
X0284851Y0031118D01*
X0284868Y0031036D01*
X0284882Y0030952D01*
X0284892Y0030869D01*
X0284898Y0030784D01*
X0284900Y0030700D01*
X0284898Y0030616D01*
X0284892Y0030531D01*
X0284882Y0030448D01*
X0284868Y0030364D01*
X0284851Y0030282D01*
X0284829Y0030200D01*
X0284804Y0030120D01*
X0284775Y0030041D01*
X0284742Y0029963D01*
X0284706Y0029887D01*
X0284666Y0029812D01*
X0284622Y0029740D01*
X0284576Y0029669D01*
X0284526Y0029601D01*
X0284473Y0029536D01*
X0284417Y0029473D01*
X0284358Y0029412D01*
X0284296Y0029355D01*
X0284232Y0029300D01*
X0284165Y0029249D01*
X0284096Y0029200D01*
X0284024Y0029155D01*
X0283951Y0029114D01*
X0283876Y0029076D01*
X0283799Y0029041D01*
X0283720Y0029010D01*
X0283640Y0028983D01*
X0283559Y0028960D01*
X0283477Y0028940D01*
X0283394Y0028924D01*
X0283311Y0028912D01*
X0283226Y0028904D01*
X0283142Y0028900D01*
X0283058Y0028900D01*
X0282974Y0028904D01*
X0282889Y0028912D01*
X0282806Y0028924D01*
X0282723Y0028940D01*
X0282641Y0028960D01*
X0282560Y0028983D01*
X0282480Y0029010D01*
X0282401Y0029041D01*
X0282324Y0029076D01*
X0282249Y0029114D01*
X0282176Y0029155D01*
X0282104Y0029200D01*
X0282035Y0029249D01*
X0281968Y0029300D01*
X0281904Y0029355D01*
X0281842Y0029412D01*
X0281783Y0029473D01*
X0281727Y0029536D01*
X0281674Y0029601D01*
X0281624Y0029669D01*
X0281578Y0029740D01*
X0281534Y0029812D01*
X0281494Y0029887D01*
X0281458Y0029963D01*
X0281425Y0030041D01*
X0281396Y0030120D01*
X0281371Y0030200D01*
X0281349Y0030282D01*
X0281332Y0030364D01*
X0281318Y0030448D01*
X0281308Y0030531D01*
X0281302Y0030616D01*
X0281300Y0030700D01*
X0211200Y0027185D02*
X0211200Y0026050D01*
X0210633Y0025483D01*
X0210633Y0024069D02*
X0207797Y0024069D01*
X0208364Y0025483D02*
X0207797Y0026050D01*
X0207797Y0027185D01*
X0208364Y0027752D01*
X0208931Y0027752D01*
X0209499Y0027185D01*
X0210066Y0027752D01*
X0210633Y0027752D01*
X0211200Y0027185D01*
X0209499Y0027185D02*
X0209499Y0026617D01*
X0210633Y0024069D02*
X0211200Y0023501D01*
X0211200Y0022367D01*
X0210633Y0021800D01*
X0207797Y0021800D01*
X0190752Y0027367D02*
X0190185Y0026800D01*
X0189050Y0026800D01*
X0188483Y0027367D01*
X0188483Y0027934D01*
X0189050Y0028501D01*
X0190185Y0028501D01*
X0190752Y0027934D01*
X0190752Y0027367D01*
X0190185Y0028501D02*
X0190752Y0029069D01*
X0190752Y0029636D01*
X0190185Y0030203D01*
X0189050Y0030203D01*
X0188483Y0029636D01*
X0188483Y0029069D01*
X0189050Y0028501D01*
X0187069Y0027367D02*
X0186501Y0026800D01*
X0185367Y0026800D01*
X0184800Y0027367D01*
X0184800Y0029636D01*
X0185367Y0030203D01*
X0186501Y0030203D01*
X0187069Y0029636D01*
X0098752Y0028501D02*
X0096483Y0028501D01*
X0098185Y0030203D01*
X0098185Y0026800D01*
X0095069Y0027367D02*
X0094501Y0026800D01*
X0093367Y0026800D01*
X0092800Y0027367D01*
X0092800Y0029636D01*
X0093367Y0030203D01*
X0094501Y0030203D01*
X0095069Y0029636D01*
X0075752Y0029636D02*
X0075752Y0029069D01*
X0075185Y0028501D01*
X0075752Y0027934D01*
X0075752Y0027367D01*
X0075185Y0026800D01*
X0074050Y0026800D01*
X0073483Y0027367D01*
X0072069Y0027367D02*
X0071501Y0026800D01*
X0070367Y0026800D01*
X0069800Y0027367D01*
X0069800Y0029636D01*
X0070367Y0030203D01*
X0071501Y0030203D01*
X0072069Y0029636D01*
X0073483Y0029636D02*
X0074050Y0030203D01*
X0075185Y0030203D01*
X0075752Y0029636D01*
X0075185Y0028501D02*
X0074617Y0028501D01*
X0052752Y0029069D02*
X0052752Y0029636D01*
X0052185Y0030203D01*
X0051050Y0030203D01*
X0050483Y0029636D01*
X0049069Y0029636D02*
X0048501Y0030203D01*
X0047367Y0030203D01*
X0046800Y0029636D01*
X0046800Y0027367D01*
X0047367Y0026800D01*
X0048501Y0026800D01*
X0049069Y0027367D01*
X0050483Y0026800D02*
X0052752Y0029069D01*
X0052752Y0026800D02*
X0050483Y0026800D01*
X0049000Y0051500D02*
X0051500Y0054000D01*
X0057000Y0061500D02*
X0054500Y0064000D01*
X0077500Y0064000D02*
X0080000Y0061500D01*
X0007200Y0039185D02*
X0006633Y0039752D01*
X0006066Y0039752D01*
X0005499Y0039185D01*
X0005499Y0037483D01*
X0006633Y0037483D01*
X0007200Y0038050D01*
X0007200Y0039185D01*
X0005499Y0037483D02*
X0004364Y0038617D01*
X0003797Y0039752D01*
X0004364Y0036069D02*
X0005499Y0036069D01*
X0006066Y0035501D01*
X0006066Y0033800D01*
X0007200Y0033800D02*
X0003797Y0033800D01*
X0003797Y0035501D01*
X0004364Y0036069D01*
X0006066Y0034934D02*
X0007200Y0036069D01*
X0101000Y0214500D02*
X0098500Y0217000D01*
X0353483Y0217069D02*
X0354617Y0218203D01*
X0354617Y0214800D01*
X0388364Y0263800D02*
X0387797Y0264367D01*
X0387797Y0265501D01*
X0388364Y0266069D01*
X0388364Y0267483D02*
X0390633Y0267483D01*
X0391200Y0268050D01*
X0391200Y0269185D01*
X0390633Y0269752D01*
X0388364Y0269752D01*
X0387797Y0269185D01*
X0387797Y0268050D01*
X0388364Y0267483D01*
X0390633Y0266069D02*
X0391200Y0265501D01*
X0391200Y0264367D01*
X0390633Y0263800D01*
X0388364Y0263800D01*
X0387797Y0271166D02*
X0391200Y0271166D01*
X0391200Y0274849D02*
X0387797Y0274849D01*
X0375069Y0268636D02*
X0374501Y0269203D01*
X0373367Y0269203D01*
X0372800Y0268636D01*
X0372800Y0266367D01*
X0373367Y0265800D01*
X0374501Y0265800D01*
X0375069Y0266367D01*
X0375069Y0267501D01*
X0373934Y0267501D01*
D12*
X0210566Y0145126D02*
X0193867Y0145126D01*
X0193867Y0153475D01*
X0196650Y0156259D01*
X0202217Y0156259D01*
X0205000Y0153475D01*
X0205000Y0145126D01*
X0202217Y0138133D02*
X0191084Y0138133D01*
X0188301Y0135350D01*
X0188301Y0129783D01*
X0191084Y0127000D01*
X0202217Y0127000D01*
X0205000Y0129783D01*
X0205000Y0135350D01*
X0202217Y0138133D01*
X0202217Y0163251D02*
X0196650Y0163251D01*
X0193867Y0166035D01*
X0193867Y0171601D01*
X0196650Y0174384D01*
X0199434Y0174384D01*
X0199434Y0163251D01*
X0202217Y0163251D02*
X0205000Y0166035D01*
X0205000Y0171601D01*
X0205000Y0181377D02*
X0193867Y0181377D01*
X0193867Y0189727D01*
X0196650Y0192510D01*
X0205000Y0192510D01*
X0205000Y0199503D02*
X0205000Y0207853D01*
X0202217Y0210636D01*
X0191084Y0210636D01*
X0188301Y0207853D01*
X0188301Y0199503D01*
X0205000Y0199503D01*
X0202217Y0217629D02*
X0196650Y0217629D01*
X0193867Y0220412D01*
X0193867Y0225978D01*
X0196650Y0228762D01*
X0199434Y0228762D01*
X0199434Y0217629D01*
X0202217Y0217629D02*
X0205000Y0220412D01*
X0205000Y0225978D01*
X0202217Y0235754D02*
X0196650Y0235754D01*
X0193867Y0238538D01*
X0193867Y0246887D01*
X0188301Y0253880D02*
X0205000Y0253880D01*
X0199434Y0253880D02*
X0193867Y0262230D01*
X0199434Y0253880D02*
X0205000Y0262230D01*
X0205000Y0246887D02*
X0205000Y0238538D01*
X0202217Y0235754D01*
D13*
X0270189Y0236303D02*
X0298811Y0236303D01*
X0272915Y0231815D02*
X0272917Y0231915D01*
X0272923Y0232015D01*
X0272933Y0232114D01*
X0272947Y0232213D01*
X0272964Y0232312D01*
X0272986Y0232409D01*
X0273011Y0232506D01*
X0273040Y0232602D01*
X0273073Y0232696D01*
X0273110Y0232789D01*
X0273150Y0232880D01*
X0273194Y0232970D01*
X0273242Y0233058D01*
X0273292Y0233144D01*
X0273347Y0233228D01*
X0273404Y0233310D01*
X0273465Y0233390D01*
X0273528Y0233467D01*
X0273595Y0233541D01*
X0273665Y0233613D01*
X0273737Y0233682D01*
X0273812Y0233748D01*
X0273890Y0233811D01*
X0273970Y0233871D01*
X0274052Y0233927D01*
X0274137Y0233981D01*
X0274224Y0234031D01*
X0274312Y0234077D01*
X0274402Y0234120D01*
X0274494Y0234160D01*
X0274588Y0234195D01*
X0274682Y0234227D01*
X0274778Y0234256D01*
X0274875Y0234280D01*
X0274973Y0234301D01*
X0275071Y0234317D01*
X0275171Y0234330D01*
X0275270Y0234339D01*
X0275370Y0234344D01*
X0275470Y0234345D01*
X0275570Y0234342D01*
X0275670Y0234335D01*
X0275769Y0234324D01*
X0275868Y0234309D01*
X0275966Y0234291D01*
X0276064Y0234268D01*
X0276160Y0234242D01*
X0276255Y0234212D01*
X0276349Y0234178D01*
X0276442Y0234140D01*
X0276533Y0234099D01*
X0276622Y0234054D01*
X0276710Y0234006D01*
X0276796Y0233954D01*
X0276879Y0233899D01*
X0276960Y0233841D01*
X0277039Y0233780D01*
X0277115Y0233715D01*
X0277189Y0233648D01*
X0277260Y0233577D01*
X0277328Y0233504D01*
X0277394Y0233428D01*
X0277456Y0233350D01*
X0277515Y0233270D01*
X0277571Y0233187D01*
X0277623Y0233102D01*
X0277673Y0233015D01*
X0277718Y0232926D01*
X0277760Y0232835D01*
X0277799Y0232743D01*
X0277834Y0232649D01*
X0277865Y0232554D01*
X0277892Y0232458D01*
X0277915Y0232361D01*
X0277935Y0232263D01*
X0277951Y0232164D01*
X0277963Y0232065D01*
X0277971Y0231965D01*
X0277975Y0231865D01*
X0277975Y0231765D01*
X0277971Y0231665D01*
X0277963Y0231565D01*
X0277951Y0231466D01*
X0277935Y0231367D01*
X0277915Y0231269D01*
X0277892Y0231172D01*
X0277865Y0231076D01*
X0277834Y0230981D01*
X0277799Y0230887D01*
X0277760Y0230795D01*
X0277718Y0230704D01*
X0277673Y0230615D01*
X0277623Y0230528D01*
X0277571Y0230443D01*
X0277515Y0230360D01*
X0277456Y0230280D01*
X0277394Y0230202D01*
X0277328Y0230126D01*
X0277260Y0230053D01*
X0277189Y0229982D01*
X0277115Y0229915D01*
X0277039Y0229850D01*
X0276960Y0229789D01*
X0276879Y0229731D01*
X0276796Y0229676D01*
X0276710Y0229624D01*
X0276622Y0229576D01*
X0276533Y0229531D01*
X0276442Y0229490D01*
X0276349Y0229452D01*
X0276255Y0229418D01*
X0276160Y0229388D01*
X0276064Y0229362D01*
X0275966Y0229339D01*
X0275868Y0229321D01*
X0275769Y0229306D01*
X0275670Y0229295D01*
X0275570Y0229288D01*
X0275470Y0229285D01*
X0275370Y0229286D01*
X0275270Y0229291D01*
X0275171Y0229300D01*
X0275071Y0229313D01*
X0274973Y0229329D01*
X0274875Y0229350D01*
X0274778Y0229374D01*
X0274682Y0229403D01*
X0274588Y0229435D01*
X0274494Y0229470D01*
X0274402Y0229510D01*
X0274312Y0229553D01*
X0274224Y0229599D01*
X0274137Y0229649D01*
X0274052Y0229703D01*
X0273970Y0229759D01*
X0273890Y0229819D01*
X0273812Y0229882D01*
X0273737Y0229948D01*
X0273665Y0230017D01*
X0273595Y0230089D01*
X0273528Y0230163D01*
X0273465Y0230240D01*
X0273404Y0230320D01*
X0273347Y0230402D01*
X0273292Y0230486D01*
X0273242Y0230572D01*
X0273194Y0230660D01*
X0273150Y0230750D01*
X0273110Y0230841D01*
X0273073Y0230934D01*
X0273040Y0231028D01*
X0273011Y0231124D01*
X0272986Y0231221D01*
X0272964Y0231318D01*
X0272947Y0231417D01*
X0272933Y0231516D01*
X0272923Y0231615D01*
X0272917Y0231715D01*
X0272915Y0231815D01*
X0270189Y0176598D02*
X0298811Y0176598D01*
X0298811Y0143303D02*
X0270189Y0143303D01*
X0272915Y0138815D02*
X0272917Y0138915D01*
X0272923Y0139015D01*
X0272933Y0139114D01*
X0272947Y0139213D01*
X0272964Y0139312D01*
X0272986Y0139409D01*
X0273011Y0139506D01*
X0273040Y0139602D01*
X0273073Y0139696D01*
X0273110Y0139789D01*
X0273150Y0139880D01*
X0273194Y0139970D01*
X0273242Y0140058D01*
X0273292Y0140144D01*
X0273347Y0140228D01*
X0273404Y0140310D01*
X0273465Y0140390D01*
X0273528Y0140467D01*
X0273595Y0140541D01*
X0273665Y0140613D01*
X0273737Y0140682D01*
X0273812Y0140748D01*
X0273890Y0140811D01*
X0273970Y0140871D01*
X0274052Y0140927D01*
X0274137Y0140981D01*
X0274224Y0141031D01*
X0274312Y0141077D01*
X0274402Y0141120D01*
X0274494Y0141160D01*
X0274588Y0141195D01*
X0274682Y0141227D01*
X0274778Y0141256D01*
X0274875Y0141280D01*
X0274973Y0141301D01*
X0275071Y0141317D01*
X0275171Y0141330D01*
X0275270Y0141339D01*
X0275370Y0141344D01*
X0275470Y0141345D01*
X0275570Y0141342D01*
X0275670Y0141335D01*
X0275769Y0141324D01*
X0275868Y0141309D01*
X0275966Y0141291D01*
X0276064Y0141268D01*
X0276160Y0141242D01*
X0276255Y0141212D01*
X0276349Y0141178D01*
X0276442Y0141140D01*
X0276533Y0141099D01*
X0276622Y0141054D01*
X0276710Y0141006D01*
X0276796Y0140954D01*
X0276879Y0140899D01*
X0276960Y0140841D01*
X0277039Y0140780D01*
X0277115Y0140715D01*
X0277189Y0140648D01*
X0277260Y0140577D01*
X0277328Y0140504D01*
X0277394Y0140428D01*
X0277456Y0140350D01*
X0277515Y0140270D01*
X0277571Y0140187D01*
X0277623Y0140102D01*
X0277673Y0140015D01*
X0277718Y0139926D01*
X0277760Y0139835D01*
X0277799Y0139743D01*
X0277834Y0139649D01*
X0277865Y0139554D01*
X0277892Y0139458D01*
X0277915Y0139361D01*
X0277935Y0139263D01*
X0277951Y0139164D01*
X0277963Y0139065D01*
X0277971Y0138965D01*
X0277975Y0138865D01*
X0277975Y0138765D01*
X0277971Y0138665D01*
X0277963Y0138565D01*
X0277951Y0138466D01*
X0277935Y0138367D01*
X0277915Y0138269D01*
X0277892Y0138172D01*
X0277865Y0138076D01*
X0277834Y0137981D01*
X0277799Y0137887D01*
X0277760Y0137795D01*
X0277718Y0137704D01*
X0277673Y0137615D01*
X0277623Y0137528D01*
X0277571Y0137443D01*
X0277515Y0137360D01*
X0277456Y0137280D01*
X0277394Y0137202D01*
X0277328Y0137126D01*
X0277260Y0137053D01*
X0277189Y0136982D01*
X0277115Y0136915D01*
X0277039Y0136850D01*
X0276960Y0136789D01*
X0276879Y0136731D01*
X0276796Y0136676D01*
X0276710Y0136624D01*
X0276622Y0136576D01*
X0276533Y0136531D01*
X0276442Y0136490D01*
X0276349Y0136452D01*
X0276255Y0136418D01*
X0276160Y0136388D01*
X0276064Y0136362D01*
X0275966Y0136339D01*
X0275868Y0136321D01*
X0275769Y0136306D01*
X0275670Y0136295D01*
X0275570Y0136288D01*
X0275470Y0136285D01*
X0275370Y0136286D01*
X0275270Y0136291D01*
X0275171Y0136300D01*
X0275071Y0136313D01*
X0274973Y0136329D01*
X0274875Y0136350D01*
X0274778Y0136374D01*
X0274682Y0136403D01*
X0274588Y0136435D01*
X0274494Y0136470D01*
X0274402Y0136510D01*
X0274312Y0136553D01*
X0274224Y0136599D01*
X0274137Y0136649D01*
X0274052Y0136703D01*
X0273970Y0136759D01*
X0273890Y0136819D01*
X0273812Y0136882D01*
X0273737Y0136948D01*
X0273665Y0137017D01*
X0273595Y0137089D01*
X0273528Y0137163D01*
X0273465Y0137240D01*
X0273404Y0137320D01*
X0273347Y0137402D01*
X0273292Y0137486D01*
X0273242Y0137572D01*
X0273194Y0137660D01*
X0273150Y0137750D01*
X0273110Y0137841D01*
X0273073Y0137934D01*
X0273040Y0138028D01*
X0273011Y0138124D01*
X0272986Y0138221D01*
X0272964Y0138318D01*
X0272947Y0138417D01*
X0272933Y0138516D01*
X0272923Y0138615D01*
X0272917Y0138715D01*
X0272915Y0138815D01*
X0270189Y0083598D02*
X0298811Y0083598D01*
X0272402Y0049811D02*
X0272402Y0021189D01*
X0214655Y0026445D02*
X0214657Y0026545D01*
X0214663Y0026645D01*
X0214673Y0026744D01*
X0214687Y0026843D01*
X0214704Y0026942D01*
X0214726Y0027039D01*
X0214751Y0027136D01*
X0214780Y0027232D01*
X0214813Y0027326D01*
X0214850Y0027419D01*
X0214890Y0027510D01*
X0214934Y0027600D01*
X0214982Y0027688D01*
X0215032Y0027774D01*
X0215087Y0027858D01*
X0215144Y0027940D01*
X0215205Y0028020D01*
X0215268Y0028097D01*
X0215335Y0028171D01*
X0215405Y0028243D01*
X0215477Y0028312D01*
X0215552Y0028378D01*
X0215630Y0028441D01*
X0215710Y0028501D01*
X0215792Y0028557D01*
X0215877Y0028611D01*
X0215964Y0028661D01*
X0216052Y0028707D01*
X0216142Y0028750D01*
X0216234Y0028790D01*
X0216328Y0028825D01*
X0216422Y0028857D01*
X0216518Y0028886D01*
X0216615Y0028910D01*
X0216713Y0028931D01*
X0216811Y0028947D01*
X0216911Y0028960D01*
X0217010Y0028969D01*
X0217110Y0028974D01*
X0217210Y0028975D01*
X0217310Y0028972D01*
X0217410Y0028965D01*
X0217509Y0028954D01*
X0217608Y0028939D01*
X0217706Y0028921D01*
X0217804Y0028898D01*
X0217900Y0028872D01*
X0217995Y0028842D01*
X0218089Y0028808D01*
X0218182Y0028770D01*
X0218273Y0028729D01*
X0218362Y0028684D01*
X0218450Y0028636D01*
X0218536Y0028584D01*
X0218619Y0028529D01*
X0218700Y0028471D01*
X0218779Y0028410D01*
X0218855Y0028345D01*
X0218929Y0028278D01*
X0219000Y0028207D01*
X0219068Y0028134D01*
X0219134Y0028058D01*
X0219196Y0027980D01*
X0219255Y0027900D01*
X0219311Y0027817D01*
X0219363Y0027732D01*
X0219413Y0027645D01*
X0219458Y0027556D01*
X0219500Y0027465D01*
X0219539Y0027373D01*
X0219574Y0027279D01*
X0219605Y0027184D01*
X0219632Y0027088D01*
X0219655Y0026991D01*
X0219675Y0026893D01*
X0219691Y0026794D01*
X0219703Y0026695D01*
X0219711Y0026595D01*
X0219715Y0026495D01*
X0219715Y0026395D01*
X0219711Y0026295D01*
X0219703Y0026195D01*
X0219691Y0026096D01*
X0219675Y0025997D01*
X0219655Y0025899D01*
X0219632Y0025802D01*
X0219605Y0025706D01*
X0219574Y0025611D01*
X0219539Y0025517D01*
X0219500Y0025425D01*
X0219458Y0025334D01*
X0219413Y0025245D01*
X0219363Y0025158D01*
X0219311Y0025073D01*
X0219255Y0024990D01*
X0219196Y0024910D01*
X0219134Y0024832D01*
X0219068Y0024756D01*
X0219000Y0024683D01*
X0218929Y0024612D01*
X0218855Y0024545D01*
X0218779Y0024480D01*
X0218700Y0024419D01*
X0218619Y0024361D01*
X0218536Y0024306D01*
X0218450Y0024254D01*
X0218362Y0024206D01*
X0218273Y0024161D01*
X0218182Y0024120D01*
X0218089Y0024082D01*
X0217995Y0024048D01*
X0217900Y0024018D01*
X0217804Y0023992D01*
X0217706Y0023969D01*
X0217608Y0023951D01*
X0217509Y0023936D01*
X0217410Y0023925D01*
X0217310Y0023918D01*
X0217210Y0023915D01*
X0217110Y0023916D01*
X0217010Y0023921D01*
X0216911Y0023930D01*
X0216811Y0023943D01*
X0216713Y0023959D01*
X0216615Y0023980D01*
X0216518Y0024004D01*
X0216422Y0024033D01*
X0216328Y0024065D01*
X0216234Y0024100D01*
X0216142Y0024140D01*
X0216052Y0024183D01*
X0215964Y0024229D01*
X0215877Y0024279D01*
X0215792Y0024333D01*
X0215710Y0024389D01*
X0215630Y0024449D01*
X0215552Y0024512D01*
X0215477Y0024578D01*
X0215405Y0024647D01*
X0215335Y0024719D01*
X0215268Y0024793D01*
X0215205Y0024870D01*
X0215144Y0024950D01*
X0215087Y0025032D01*
X0215032Y0025116D01*
X0214982Y0025202D01*
X0214934Y0025290D01*
X0214890Y0025380D01*
X0214850Y0025471D01*
X0214813Y0025564D01*
X0214780Y0025658D01*
X0214751Y0025754D01*
X0214726Y0025851D01*
X0214704Y0025948D01*
X0214687Y0026047D01*
X0214673Y0026146D01*
X0214663Y0026245D01*
X0214657Y0026345D01*
X0214655Y0026445D01*
X0212697Y0021189D02*
X0212697Y0049811D01*
X0319783Y0318209D02*
X0318209Y0319783D01*
X0318209Y0355217D01*
X0319783Y0356791D01*
X0355217Y0356791D01*
X0356791Y0355217D01*
X0356791Y0319783D01*
X0355217Y0318209D01*
X0319783Y0318209D01*
X0269122Y0328508D02*
X0269122Y0343862D01*
X0269122Y0328508D02*
X0221878Y0328508D01*
X0221878Y0343862D01*
X0206800Y0325518D02*
X0206800Y0392416D01*
X0123335Y0392416D01*
X0123335Y0325518D01*
X0206800Y0325518D01*
X0115300Y0325518D02*
X0115300Y0392416D01*
X0031835Y0392416D01*
X0031835Y0325518D01*
X0115300Y0325518D01*
D14*
X0041000Y0309500D02*
X0041002Y0309577D01*
X0041008Y0309654D01*
X0041018Y0309731D01*
X0041032Y0309807D01*
X0041049Y0309882D01*
X0041071Y0309956D01*
X0041096Y0310029D01*
X0041126Y0310101D01*
X0041158Y0310171D01*
X0041195Y0310239D01*
X0041234Y0310305D01*
X0041277Y0310369D01*
X0041324Y0310431D01*
X0041373Y0310490D01*
X0041426Y0310547D01*
X0041481Y0310601D01*
X0041539Y0310652D01*
X0041600Y0310700D01*
X0041663Y0310745D01*
X0041728Y0310786D01*
X0041795Y0310824D01*
X0041864Y0310859D01*
X0041935Y0310889D01*
X0042007Y0310917D01*
X0042081Y0310940D01*
X0042155Y0310960D01*
X0042231Y0310976D01*
X0042307Y0310988D01*
X0042384Y0310996D01*
X0042461Y0311000D01*
X0042539Y0311000D01*
X0042616Y0310996D01*
X0042693Y0310988D01*
X0042769Y0310976D01*
X0042845Y0310960D01*
X0042919Y0310940D01*
X0042993Y0310917D01*
X0043065Y0310889D01*
X0043136Y0310859D01*
X0043205Y0310824D01*
X0043272Y0310786D01*
X0043337Y0310745D01*
X0043400Y0310700D01*
X0043461Y0310652D01*
X0043519Y0310601D01*
X0043574Y0310547D01*
X0043627Y0310490D01*
X0043676Y0310431D01*
X0043723Y0310369D01*
X0043766Y0310305D01*
X0043805Y0310239D01*
X0043842Y0310171D01*
X0043874Y0310101D01*
X0043904Y0310029D01*
X0043929Y0309956D01*
X0043951Y0309882D01*
X0043968Y0309807D01*
X0043982Y0309731D01*
X0043992Y0309654D01*
X0043998Y0309577D01*
X0044000Y0309500D01*
X0043998Y0309423D01*
X0043992Y0309346D01*
X0043982Y0309269D01*
X0043968Y0309193D01*
X0043951Y0309118D01*
X0043929Y0309044D01*
X0043904Y0308971D01*
X0043874Y0308899D01*
X0043842Y0308829D01*
X0043805Y0308761D01*
X0043766Y0308695D01*
X0043723Y0308631D01*
X0043676Y0308569D01*
X0043627Y0308510D01*
X0043574Y0308453D01*
X0043519Y0308399D01*
X0043461Y0308348D01*
X0043400Y0308300D01*
X0043337Y0308255D01*
X0043272Y0308214D01*
X0043205Y0308176D01*
X0043136Y0308141D01*
X0043065Y0308111D01*
X0042993Y0308083D01*
X0042919Y0308060D01*
X0042845Y0308040D01*
X0042769Y0308024D01*
X0042693Y0308012D01*
X0042616Y0308004D01*
X0042539Y0308000D01*
X0042461Y0308000D01*
X0042384Y0308004D01*
X0042307Y0308012D01*
X0042231Y0308024D01*
X0042155Y0308040D01*
X0042081Y0308060D01*
X0042007Y0308083D01*
X0041935Y0308111D01*
X0041864Y0308141D01*
X0041795Y0308176D01*
X0041728Y0308214D01*
X0041663Y0308255D01*
X0041600Y0308300D01*
X0041539Y0308348D01*
X0041481Y0308399D01*
X0041426Y0308453D01*
X0041373Y0308510D01*
X0041324Y0308569D01*
X0041277Y0308631D01*
X0041234Y0308695D01*
X0041195Y0308761D01*
X0041158Y0308829D01*
X0041126Y0308899D01*
X0041096Y0308971D01*
X0041071Y0309044D01*
X0041049Y0309118D01*
X0041032Y0309193D01*
X0041018Y0309269D01*
X0041008Y0309346D01*
X0041002Y0309423D01*
X0041000Y0309500D01*
X0264110Y0315469D02*
X0264112Y0315534D01*
X0264118Y0315599D01*
X0264128Y0315663D01*
X0264141Y0315726D01*
X0264159Y0315789D01*
X0264180Y0315850D01*
X0264205Y0315910D01*
X0264233Y0315969D01*
X0264265Y0316025D01*
X0264300Y0316080D01*
X0264339Y0316132D01*
X0264380Y0316182D01*
X0264425Y0316229D01*
X0264472Y0316274D01*
X0264522Y0316315D01*
X0264574Y0316354D01*
X0264629Y0316389D01*
X0264685Y0316421D01*
X0264744Y0316449D01*
X0264804Y0316474D01*
X0264865Y0316495D01*
X0264928Y0316513D01*
X0264991Y0316526D01*
X0265055Y0316536D01*
X0265120Y0316542D01*
X0265185Y0316544D01*
X0265250Y0316542D01*
X0265315Y0316536D01*
X0265379Y0316526D01*
X0265442Y0316513D01*
X0265505Y0316495D01*
X0265566Y0316474D01*
X0265626Y0316449D01*
X0265685Y0316421D01*
X0265741Y0316389D01*
X0265796Y0316354D01*
X0265848Y0316315D01*
X0265898Y0316274D01*
X0265945Y0316229D01*
X0265990Y0316182D01*
X0266031Y0316132D01*
X0266070Y0316080D01*
X0266105Y0316025D01*
X0266137Y0315969D01*
X0266165Y0315910D01*
X0266190Y0315850D01*
X0266211Y0315789D01*
X0266229Y0315726D01*
X0266242Y0315663D01*
X0266252Y0315599D01*
X0266258Y0315534D01*
X0266260Y0315469D01*
X0266258Y0315404D01*
X0266252Y0315339D01*
X0266242Y0315275D01*
X0266229Y0315212D01*
X0266211Y0315149D01*
X0266190Y0315088D01*
X0266165Y0315028D01*
X0266137Y0314969D01*
X0266105Y0314913D01*
X0266070Y0314858D01*
X0266031Y0314806D01*
X0265990Y0314756D01*
X0265945Y0314709D01*
X0265898Y0314664D01*
X0265848Y0314623D01*
X0265796Y0314584D01*
X0265741Y0314549D01*
X0265685Y0314517D01*
X0265626Y0314489D01*
X0265566Y0314464D01*
X0265505Y0314443D01*
X0265442Y0314425D01*
X0265379Y0314412D01*
X0265315Y0314402D01*
X0265250Y0314396D01*
X0265185Y0314394D01*
X0265120Y0314396D01*
X0265055Y0314402D01*
X0264991Y0314412D01*
X0264928Y0314425D01*
X0264865Y0314443D01*
X0264804Y0314464D01*
X0264744Y0314489D01*
X0264685Y0314517D01*
X0264629Y0314549D01*
X0264574Y0314584D01*
X0264522Y0314623D01*
X0264472Y0314664D01*
X0264425Y0314709D01*
X0264380Y0314756D01*
X0264339Y0314806D01*
X0264300Y0314858D01*
X0264265Y0314913D01*
X0264233Y0314969D01*
X0264205Y0315028D01*
X0264180Y0315088D01*
X0264159Y0315149D01*
X0264141Y0315212D01*
X0264128Y0315275D01*
X0264118Y0315339D01*
X0264112Y0315404D01*
X0264110Y0315469D01*
X0288098Y0376606D02*
X0288098Y0382394D01*
X0291445Y0376606D02*
X0295555Y0376606D01*
X0298902Y0376606D02*
X0298902Y0382394D01*
X0331500Y0375500D02*
X0337500Y0375500D01*
X0343500Y0375500D02*
X0349500Y0375500D01*
X0355500Y0375500D02*
X0361500Y0375500D01*
X0369807Y0329406D02*
X0383193Y0329406D01*
X0383193Y0317594D01*
X0369807Y0317594D01*
X0369807Y0329406D01*
X0375319Y0324780D02*
X0375319Y0322220D01*
X0377681Y0322220D02*
X0377681Y0324780D01*
D15*
X0352430Y0321752D02*
X0352432Y0321819D01*
X0352438Y0321885D01*
X0352448Y0321951D01*
X0352462Y0322016D01*
X0352479Y0322080D01*
X0352501Y0322143D01*
X0352526Y0322205D01*
X0352555Y0322265D01*
X0352588Y0322323D01*
X0352623Y0322379D01*
X0352663Y0322433D01*
X0352705Y0322484D01*
X0352750Y0322533D01*
X0352798Y0322579D01*
X0352849Y0322622D01*
X0352902Y0322662D01*
X0352958Y0322699D01*
X0353016Y0322732D01*
X0353075Y0322762D01*
X0353136Y0322788D01*
X0353199Y0322811D01*
X0353263Y0322829D01*
X0353328Y0322844D01*
X0353394Y0322855D01*
X0353460Y0322862D01*
X0353526Y0322865D01*
X0353593Y0322864D01*
X0353659Y0322859D01*
X0353725Y0322850D01*
X0353791Y0322837D01*
X0353855Y0322820D01*
X0353918Y0322800D01*
X0353980Y0322775D01*
X0354041Y0322747D01*
X0354100Y0322716D01*
X0354156Y0322681D01*
X0354211Y0322643D01*
X0354263Y0322601D01*
X0354312Y0322556D01*
X0354359Y0322509D01*
X0354403Y0322459D01*
X0354443Y0322406D01*
X0354481Y0322351D01*
X0354515Y0322294D01*
X0354546Y0322235D01*
X0354573Y0322174D01*
X0354596Y0322112D01*
X0354616Y0322048D01*
X0354632Y0321983D01*
X0354644Y0321918D01*
X0354652Y0321852D01*
X0354656Y0321785D01*
X0354656Y0321719D01*
X0354652Y0321652D01*
X0354644Y0321586D01*
X0354632Y0321521D01*
X0354616Y0321456D01*
X0354596Y0321392D01*
X0354573Y0321330D01*
X0354546Y0321269D01*
X0354515Y0321210D01*
X0354481Y0321153D01*
X0354443Y0321098D01*
X0354403Y0321045D01*
X0354359Y0320995D01*
X0354312Y0320948D01*
X0354263Y0320903D01*
X0354211Y0320861D01*
X0354156Y0320823D01*
X0354099Y0320788D01*
X0354041Y0320757D01*
X0353980Y0320729D01*
X0353918Y0320704D01*
X0353855Y0320684D01*
X0353791Y0320667D01*
X0353725Y0320654D01*
X0353659Y0320645D01*
X0353593Y0320640D01*
X0353526Y0320639D01*
X0353460Y0320642D01*
X0353394Y0320649D01*
X0353328Y0320660D01*
X0353263Y0320675D01*
X0353199Y0320693D01*
X0353136Y0320716D01*
X0353075Y0320742D01*
X0353016Y0320772D01*
X0352958Y0320805D01*
X0352902Y0320842D01*
X0352849Y0320882D01*
X0352798Y0320925D01*
X0352750Y0320971D01*
X0352705Y0321020D01*
X0352663Y0321071D01*
X0352623Y0321125D01*
X0352588Y0321181D01*
X0352555Y0321239D01*
X0352526Y0321299D01*
X0352501Y0321361D01*
X0352479Y0321424D01*
X0352462Y0321488D01*
X0352448Y0321553D01*
X0352438Y0321619D01*
X0352432Y0321685D01*
X0352430Y0321752D01*
D16*
X0376500Y0321433D02*
X0376500Y0325370D01*
M02*
