G75*
%MOIN*%
%OFA0B0*%
%FSLAX25Y25*%
%IPPOS*%
%LPD*%
%AMOC8*
5,1,8,0,0,1.08239X$1,22.5*
%
%ADD10C,0.00000*%
%ADD11C,0.07000*%
%ADD12C,0.13400*%
%ADD13R,0.09061X0.02762*%
%ADD14C,0.09400*%
%ADD15C,0.08668*%
%ADD16R,0.05912X0.04337*%
%ADD17R,0.02565X0.05124*%
%ADD18R,0.03156X0.03943*%
%ADD19R,0.03943X0.03156*%
%ADD20R,0.08400X0.02762*%
%ADD21R,0.05124X0.04250*%
%ADD22R,0.09455X0.06699*%
%ADD23R,0.06069X0.04337*%
%ADD24R,0.06069X0.05124*%
%ADD25C,0.07400*%
%ADD26R,0.06306X0.05518*%
%ADD27R,0.04337X0.01581*%
%ADD28R,0.01581X0.04337*%
%ADD29R,0.04337X0.03943*%
%ADD30R,0.02762X0.08400*%
%ADD31R,0.01600X0.04300*%
%ADD32C,0.24022*%
D10*
X0001500Y0001500D02*
X0001500Y0394500D01*
X0394500Y0394500D01*
X0394500Y0001500D01*
X0001500Y0001500D01*
D11*
X0013500Y0036500D03*
X0013500Y0046500D03*
X0023500Y0046500D03*
X0023500Y0036500D03*
X0036500Y0036500D03*
X0036500Y0046500D03*
X0046500Y0046500D03*
X0046500Y0036500D03*
X0059500Y0036500D03*
X0059500Y0046500D03*
X0069500Y0046500D03*
X0069500Y0036500D03*
X0082500Y0036500D03*
X0082500Y0046500D03*
X0082500Y0056500D03*
X0082500Y0066500D03*
X0082500Y0076500D03*
X0082500Y0086500D03*
X0092500Y0086500D03*
X0092500Y0076500D03*
X0092500Y0066500D03*
X0092500Y0056500D03*
X0092500Y0046500D03*
X0092500Y0036500D03*
X0105500Y0036500D03*
X0105500Y0046500D03*
X0105500Y0056500D03*
X0105500Y0066500D03*
X0105500Y0076500D03*
X0105500Y0086500D03*
X0115500Y0086500D03*
X0115500Y0076500D03*
X0115500Y0066500D03*
X0115500Y0056500D03*
X0115500Y0046500D03*
X0115500Y0036500D03*
X0128500Y0036500D03*
X0128500Y0046500D03*
X0138500Y0046500D03*
X0138500Y0036500D03*
X0151500Y0036500D03*
X0151500Y0046500D03*
X0161500Y0046500D03*
X0161500Y0036500D03*
X0174500Y0036500D03*
X0174500Y0046500D03*
X0184500Y0046500D03*
X0184500Y0036500D03*
X0184500Y0056500D03*
X0184500Y0066500D03*
X0174500Y0066500D03*
X0174500Y0056500D03*
X0161500Y0056500D03*
X0161500Y0066500D03*
X0151500Y0066500D03*
X0151500Y0056500D03*
X0138500Y0056500D03*
X0138500Y0066500D03*
X0128500Y0066500D03*
X0128500Y0056500D03*
X0128500Y0076500D03*
X0128500Y0086500D03*
X0138500Y0086500D03*
X0138500Y0076500D03*
X0151500Y0076500D03*
X0151500Y0086500D03*
X0161500Y0086500D03*
X0161500Y0076500D03*
X0174500Y0076500D03*
X0174500Y0086500D03*
X0184500Y0086500D03*
X0184500Y0076500D03*
X0069500Y0076500D03*
X0069500Y0086500D03*
X0059500Y0086500D03*
X0059500Y0076500D03*
X0059500Y0066500D03*
X0059500Y0056500D03*
X0069500Y0056500D03*
X0069500Y0066500D03*
X0046500Y0066500D03*
X0046500Y0056500D03*
X0036500Y0056500D03*
X0036500Y0066500D03*
X0036500Y0076500D03*
X0036500Y0086500D03*
X0046500Y0086500D03*
X0046500Y0076500D03*
X0023500Y0076500D03*
X0023500Y0086500D03*
X0013500Y0086500D03*
X0013500Y0076500D03*
X0013500Y0066500D03*
X0013500Y0056500D03*
X0023500Y0056500D03*
X0023500Y0066500D03*
X0240579Y0333700D03*
X0240579Y0341500D03*
X0250421Y0341500D03*
X0250421Y0333700D03*
X0305500Y0270500D03*
X0315500Y0270500D03*
X0325500Y0270500D03*
X0320500Y0246500D03*
X0320500Y0236500D03*
X0320500Y0226500D03*
X0320500Y0216500D03*
X0320500Y0206500D03*
X0320500Y0196500D03*
X0320500Y0186500D03*
X0320500Y0176500D03*
X0330500Y0176500D03*
X0340500Y0176500D03*
X0340500Y0186500D03*
X0340500Y0196500D03*
X0330500Y0196500D03*
X0330500Y0186500D03*
X0330500Y0206500D03*
X0330500Y0216500D03*
X0340500Y0216500D03*
X0340500Y0206500D03*
X0340500Y0226500D03*
X0340500Y0236500D03*
X0330500Y0236500D03*
X0330500Y0226500D03*
X0330500Y0246500D03*
X0340500Y0246500D03*
X0352500Y0266500D03*
X0352500Y0276500D03*
X0352500Y0286500D03*
X0381500Y0286500D03*
X0381500Y0276500D03*
X0381500Y0266500D03*
X0381500Y0246500D03*
X0381500Y0236500D03*
X0381500Y0226500D03*
X0381500Y0216500D03*
X0381500Y0206500D03*
X0381500Y0196500D03*
X0381500Y0186500D03*
X0381500Y0176500D03*
X0371500Y0176500D03*
X0361500Y0176500D03*
X0361500Y0186500D03*
X0361500Y0196500D03*
X0371500Y0196500D03*
X0371500Y0186500D03*
X0371500Y0206500D03*
X0371500Y0216500D03*
X0361500Y0216500D03*
X0361500Y0206500D03*
X0361500Y0226500D03*
X0361500Y0236500D03*
X0371500Y0236500D03*
X0371500Y0226500D03*
X0371500Y0246500D03*
X0361500Y0246500D03*
X0361500Y0153500D03*
X0361500Y0143500D03*
X0371500Y0143500D03*
X0371500Y0153500D03*
X0381500Y0153500D03*
X0381500Y0143500D03*
X0381500Y0133500D03*
X0381500Y0123500D03*
X0381500Y0113500D03*
X0381500Y0103500D03*
X0381500Y0093500D03*
X0381500Y0083500D03*
X0371500Y0083500D03*
X0371500Y0093500D03*
X0361500Y0093500D03*
X0361500Y0083500D03*
X0361500Y0103500D03*
X0361500Y0113500D03*
X0371500Y0113500D03*
X0371500Y0103500D03*
X0371500Y0123500D03*
X0371500Y0133500D03*
X0361500Y0133500D03*
X0361500Y0123500D03*
X0340500Y0123500D03*
X0340500Y0133500D03*
X0330500Y0133500D03*
X0330500Y0123500D03*
X0330500Y0113500D03*
X0330500Y0103500D03*
X0340500Y0103500D03*
X0340500Y0113500D03*
X0340500Y0093500D03*
X0340500Y0083500D03*
X0330500Y0083500D03*
X0330500Y0093500D03*
X0320500Y0093500D03*
X0320500Y0083500D03*
X0320500Y0103500D03*
X0320500Y0113500D03*
X0320500Y0123500D03*
X0320500Y0133500D03*
X0320500Y0143500D03*
X0320500Y0153500D03*
X0330500Y0153500D03*
X0330500Y0143500D03*
X0340500Y0143500D03*
X0340500Y0153500D03*
D12*
X0269200Y0352200D03*
X0221800Y0352200D03*
D13*
X0109736Y0308000D03*
X0109736Y0303000D03*
X0109736Y0298000D03*
X0109736Y0293000D03*
X0109736Y0288000D03*
X0109736Y0283000D03*
X0109736Y0278000D03*
X0109736Y0273000D03*
X0089264Y0273000D03*
X0089264Y0278000D03*
X0089264Y0283000D03*
X0089264Y0288000D03*
X0089264Y0293000D03*
X0089264Y0298000D03*
X0089264Y0303000D03*
X0089264Y0308000D03*
D14*
X0093135Y0332306D03*
X0103135Y0342227D03*
X0073489Y0342187D03*
X0053765Y0332266D03*
X0044040Y0342227D03*
X0135540Y0342227D03*
X0145265Y0332266D03*
X0164989Y0342187D03*
X0184635Y0332306D03*
X0194635Y0342227D03*
D15*
X0184635Y0382027D03*
X0174935Y0382027D03*
X0154835Y0382027D03*
X0145235Y0382027D03*
X0093135Y0382027D03*
X0083435Y0382027D03*
X0063335Y0382027D03*
X0053735Y0382027D03*
D16*
X0029831Y0317000D03*
X0021169Y0313260D03*
X0021169Y0320740D03*
X0037169Y0258240D03*
X0037169Y0250760D03*
X0045831Y0254500D03*
X0037169Y0238240D03*
X0037169Y0230760D03*
X0045831Y0234500D03*
X0037169Y0218240D03*
X0037169Y0210760D03*
X0045831Y0214500D03*
X0037169Y0198240D03*
X0037169Y0190760D03*
X0045831Y0194500D03*
X0037169Y0172240D03*
X0037169Y0164760D03*
X0045831Y0168500D03*
X0037169Y0152240D03*
X0037169Y0144760D03*
X0045831Y0148500D03*
X0037169Y0132240D03*
X0037169Y0124760D03*
X0045831Y0128500D03*
X0037169Y0112240D03*
X0037169Y0104760D03*
X0045831Y0108500D03*
X0082169Y0104760D03*
X0082169Y0112240D03*
X0090831Y0108500D03*
X0082169Y0124760D03*
X0082169Y0132240D03*
X0090831Y0128500D03*
X0082169Y0144760D03*
X0082169Y0152240D03*
X0090831Y0148500D03*
X0082169Y0164760D03*
X0082169Y0172240D03*
X0090831Y0168500D03*
X0082169Y0190760D03*
X0082169Y0198240D03*
X0090831Y0194500D03*
X0082169Y0210760D03*
X0082169Y0218240D03*
X0090831Y0214500D03*
X0082169Y0230760D03*
X0082169Y0238240D03*
X0090831Y0234500D03*
X0082169Y0250760D03*
X0082169Y0258240D03*
X0090831Y0254500D03*
X0127169Y0250760D03*
X0127169Y0258240D03*
X0135831Y0254500D03*
X0127169Y0238240D03*
X0127169Y0230760D03*
X0135831Y0234500D03*
X0127169Y0218240D03*
X0127169Y0210760D03*
X0135831Y0214500D03*
X0127169Y0198240D03*
X0127169Y0190760D03*
X0135831Y0194500D03*
X0127169Y0172240D03*
X0127169Y0164760D03*
X0135831Y0168500D03*
X0127169Y0152240D03*
X0127169Y0144760D03*
X0135831Y0148500D03*
X0127169Y0132240D03*
X0127169Y0124760D03*
X0135831Y0128500D03*
X0127169Y0112240D03*
X0127169Y0104760D03*
X0135831Y0108500D03*
X0173169Y0104760D03*
X0173169Y0112240D03*
X0181831Y0108500D03*
X0173169Y0124760D03*
X0173169Y0132240D03*
X0181831Y0128500D03*
X0173169Y0144760D03*
X0173169Y0152240D03*
X0181831Y0148500D03*
X0173169Y0164760D03*
X0173169Y0172240D03*
X0181831Y0168500D03*
X0173169Y0190760D03*
X0173169Y0198240D03*
X0181831Y0194500D03*
X0173169Y0210760D03*
X0173169Y0218240D03*
X0181831Y0214500D03*
X0173169Y0230760D03*
X0173169Y0238240D03*
X0181831Y0234500D03*
X0173169Y0250760D03*
X0173169Y0258240D03*
X0181831Y0254500D03*
D17*
X0289760Y0374382D03*
X0297240Y0374382D03*
X0297240Y0384618D03*
X0293500Y0384618D03*
X0289760Y0384618D03*
D18*
X0322441Y0382000D03*
X0327559Y0382000D03*
X0327559Y0387500D03*
X0322441Y0387500D03*
X0322441Y0373000D03*
X0327559Y0373000D03*
X0330059Y0365500D03*
X0324941Y0365500D03*
X0349941Y0365500D03*
X0355059Y0365500D03*
X0369941Y0351000D03*
X0375059Y0351000D03*
X0375059Y0345000D03*
X0369941Y0345000D03*
X0371059Y0335500D03*
X0365941Y0335500D03*
X0377941Y0332500D03*
X0383059Y0332500D03*
X0383059Y0314500D03*
X0377941Y0314500D03*
X0376941Y0305500D03*
X0382059Y0305500D03*
X0363059Y0310500D03*
X0363059Y0315500D03*
X0357941Y0315500D03*
X0357941Y0310500D03*
X0304059Y0328500D03*
X0298941Y0328500D03*
X0298941Y0333500D03*
X0304059Y0333500D03*
X0302059Y0240500D03*
X0296941Y0240500D03*
X0296941Y0147500D03*
X0302059Y0147500D03*
X0252059Y0062500D03*
X0246941Y0062500D03*
X0240059Y0062500D03*
X0234941Y0062500D03*
X0114059Y0315500D03*
X0108941Y0315500D03*
X0071059Y0321500D03*
X0065941Y0321500D03*
D19*
X0024000Y0293059D03*
X0024000Y0287941D03*
X0016500Y0329941D03*
X0016500Y0335059D03*
X0016500Y0342941D03*
X0016500Y0348059D03*
X0016500Y0355941D03*
X0016500Y0361059D03*
X0123500Y0308059D03*
X0123500Y0302941D03*
X0129500Y0302941D03*
X0129500Y0308059D03*
X0135500Y0308059D03*
X0135500Y0302941D03*
X0141500Y0302941D03*
X0141500Y0308059D03*
X0147500Y0308059D03*
X0147500Y0302941D03*
X0153500Y0302941D03*
X0153500Y0308059D03*
X0159500Y0308059D03*
X0159500Y0302941D03*
X0165500Y0302941D03*
X0165500Y0308059D03*
X0281500Y0325941D03*
X0281500Y0331059D03*
X0287500Y0331059D03*
X0287500Y0325941D03*
X0309500Y0322059D03*
X0309500Y0316941D03*
X0315500Y0317059D03*
X0315500Y0311941D03*
X0315000Y0359941D03*
X0315000Y0365059D03*
X0302500Y0372941D03*
X0302500Y0378059D03*
X0276500Y0046059D03*
X0276500Y0040941D03*
D20*
X0264913Y0086000D03*
X0264913Y0091000D03*
X0264913Y0096000D03*
X0264913Y0101000D03*
X0264913Y0106000D03*
X0264913Y0111000D03*
X0264913Y0116000D03*
X0264913Y0121000D03*
X0264913Y0126000D03*
X0264913Y0131000D03*
X0264913Y0136000D03*
X0264913Y0141000D03*
X0264913Y0179000D03*
X0264913Y0184000D03*
X0264913Y0189000D03*
X0264913Y0194000D03*
X0264913Y0199000D03*
X0264913Y0204000D03*
X0264913Y0209000D03*
X0264913Y0214000D03*
X0264913Y0219000D03*
X0264913Y0224000D03*
X0264913Y0229000D03*
X0264913Y0234000D03*
X0304087Y0234000D03*
X0304087Y0229000D03*
X0304087Y0224000D03*
X0304087Y0219000D03*
X0304087Y0214000D03*
X0304087Y0209000D03*
X0304087Y0204000D03*
X0304087Y0199000D03*
X0304087Y0194000D03*
X0304087Y0189000D03*
X0304087Y0184000D03*
X0304087Y0179000D03*
X0304087Y0141000D03*
X0304087Y0136000D03*
X0304087Y0131000D03*
X0304087Y0126000D03*
X0304087Y0121000D03*
X0304087Y0116000D03*
X0304087Y0111000D03*
X0304087Y0106000D03*
X0304087Y0101000D03*
X0304087Y0096000D03*
X0304087Y0091000D03*
X0304087Y0086000D03*
D21*
X0334500Y0378856D03*
X0334500Y0388126D03*
X0346500Y0388126D03*
X0346500Y0378856D03*
X0358500Y0378856D03*
X0358500Y0388126D03*
D22*
X0071280Y0309500D03*
X0071280Y0299500D03*
X0071280Y0289500D03*
X0071280Y0279500D03*
X0033720Y0279500D03*
X0033720Y0289500D03*
X0033720Y0299500D03*
X0033720Y0309500D03*
D23*
X0251169Y0314760D03*
X0251169Y0322240D03*
X0259831Y0322240D03*
D24*
X0259831Y0315547D03*
D25*
X0158500Y0259500D03*
X0158500Y0249500D03*
X0158500Y0239500D03*
X0158500Y0229500D03*
X0158500Y0219500D03*
X0158500Y0209500D03*
X0158500Y0199500D03*
X0158500Y0189500D03*
X0148500Y0189500D03*
X0148500Y0199500D03*
X0148500Y0209500D03*
X0148500Y0219500D03*
X0148500Y0229500D03*
X0148500Y0239500D03*
X0148500Y0249500D03*
X0148500Y0259500D03*
X0113500Y0259500D03*
X0113500Y0249500D03*
X0103500Y0249500D03*
X0103500Y0259500D03*
X0103500Y0239500D03*
X0113500Y0239500D03*
X0113500Y0229500D03*
X0113500Y0219500D03*
X0103500Y0219500D03*
X0103500Y0229500D03*
X0103500Y0209500D03*
X0103500Y0199500D03*
X0113500Y0199500D03*
X0113500Y0209500D03*
X0113500Y0189500D03*
X0103500Y0189500D03*
X0103500Y0173500D03*
X0103500Y0163500D03*
X0113500Y0163500D03*
X0113500Y0173500D03*
X0113500Y0153500D03*
X0113500Y0143500D03*
X0103500Y0143500D03*
X0103500Y0153500D03*
X0103500Y0133500D03*
X0103500Y0123500D03*
X0113500Y0123500D03*
X0113500Y0133500D03*
X0113500Y0113500D03*
X0113500Y0103500D03*
X0103500Y0103500D03*
X0103500Y0113500D03*
X0068500Y0113500D03*
X0068500Y0103500D03*
X0058500Y0103500D03*
X0058500Y0113500D03*
X0058500Y0123500D03*
X0058500Y0133500D03*
X0058500Y0143500D03*
X0058500Y0153500D03*
X0058500Y0163500D03*
X0058500Y0173500D03*
X0068500Y0173500D03*
X0068500Y0163500D03*
X0068500Y0153500D03*
X0068500Y0143500D03*
X0068500Y0133500D03*
X0068500Y0123500D03*
X0023500Y0123500D03*
X0023500Y0133500D03*
X0013500Y0133500D03*
X0013500Y0123500D03*
X0013500Y0113500D03*
X0013500Y0103500D03*
X0023500Y0103500D03*
X0023500Y0113500D03*
X0023500Y0143500D03*
X0023500Y0153500D03*
X0013500Y0153500D03*
X0013500Y0143500D03*
X0013500Y0163500D03*
X0013500Y0173500D03*
X0023500Y0173500D03*
X0023500Y0163500D03*
X0023500Y0189500D03*
X0013500Y0189500D03*
X0013500Y0199500D03*
X0013500Y0209500D03*
X0023500Y0209500D03*
X0023500Y0199500D03*
X0023500Y0219500D03*
X0023500Y0229500D03*
X0013500Y0229500D03*
X0013500Y0219500D03*
X0013500Y0239500D03*
X0023500Y0239500D03*
X0023500Y0249500D03*
X0023500Y0259500D03*
X0013500Y0259500D03*
X0013500Y0249500D03*
X0058500Y0249500D03*
X0058500Y0259500D03*
X0068500Y0259500D03*
X0068500Y0249500D03*
X0068500Y0239500D03*
X0068500Y0229500D03*
X0068500Y0219500D03*
X0068500Y0209500D03*
X0068500Y0199500D03*
X0068500Y0189500D03*
X0058500Y0189500D03*
X0058500Y0199500D03*
X0058500Y0209500D03*
X0058500Y0219500D03*
X0058500Y0229500D03*
X0058500Y0239500D03*
X0148500Y0173500D03*
X0148500Y0163500D03*
X0148500Y0153500D03*
X0148500Y0143500D03*
X0148500Y0133500D03*
X0148500Y0123500D03*
X0148500Y0113500D03*
X0148500Y0103500D03*
X0158500Y0103500D03*
X0158500Y0113500D03*
X0158500Y0123500D03*
X0158500Y0133500D03*
X0158500Y0143500D03*
X0158500Y0153500D03*
X0158500Y0163500D03*
X0158500Y0173500D03*
X0385500Y0352500D03*
X0385500Y0362500D03*
D26*
X0216500Y0365154D03*
X0216500Y0371846D03*
D27*
X0315354Y0352264D03*
X0315354Y0350295D03*
X0315354Y0348327D03*
X0315354Y0346358D03*
X0315354Y0344390D03*
X0315354Y0342421D03*
X0315354Y0340453D03*
X0315354Y0338484D03*
X0315354Y0336516D03*
X0315354Y0334547D03*
X0315354Y0332579D03*
X0315354Y0330610D03*
X0315354Y0328642D03*
X0315354Y0326673D03*
X0315354Y0324705D03*
X0315354Y0322736D03*
X0359646Y0322736D03*
X0359646Y0324705D03*
X0359646Y0326673D03*
X0359646Y0328642D03*
X0359646Y0330610D03*
X0359646Y0332579D03*
X0359646Y0334547D03*
X0359646Y0336516D03*
X0359646Y0338484D03*
X0359646Y0340453D03*
X0359646Y0342421D03*
X0359646Y0344390D03*
X0359646Y0346358D03*
X0359646Y0348327D03*
X0359646Y0350295D03*
X0359646Y0352264D03*
D28*
X0352264Y0359646D03*
X0350295Y0359646D03*
X0348327Y0359646D03*
X0346358Y0359646D03*
X0344390Y0359646D03*
X0342421Y0359646D03*
X0340453Y0359646D03*
X0338484Y0359646D03*
X0336516Y0359646D03*
X0334547Y0359646D03*
X0332579Y0359646D03*
X0330610Y0359646D03*
X0328642Y0359646D03*
X0326673Y0359646D03*
X0324705Y0359646D03*
X0322736Y0359646D03*
X0322736Y0315354D03*
X0324705Y0315354D03*
X0326673Y0315354D03*
X0328642Y0315354D03*
X0330610Y0315354D03*
X0332579Y0315354D03*
X0334547Y0315354D03*
X0336516Y0315354D03*
X0338484Y0315354D03*
X0340453Y0315354D03*
X0342421Y0315354D03*
X0344390Y0315354D03*
X0346358Y0315354D03*
X0348327Y0315354D03*
X0350295Y0315354D03*
X0352264Y0315354D03*
D29*
X0372465Y0320055D03*
X0372465Y0326945D03*
X0380535Y0326945D03*
X0380535Y0320055D03*
D30*
X0270000Y0055087D03*
X0265000Y0055087D03*
X0260000Y0055087D03*
X0255000Y0055087D03*
X0250000Y0055087D03*
X0245000Y0055087D03*
X0240000Y0055087D03*
X0235000Y0055087D03*
X0230000Y0055087D03*
X0225000Y0055087D03*
X0220000Y0055087D03*
X0215000Y0055087D03*
X0215000Y0015913D03*
X0220000Y0015913D03*
X0225000Y0015913D03*
X0230000Y0015913D03*
X0235000Y0015913D03*
X0240000Y0015913D03*
X0245000Y0015913D03*
X0250000Y0015913D03*
X0255000Y0015913D03*
X0260000Y0015913D03*
X0265000Y0015913D03*
X0270000Y0015913D03*
D31*
X0281823Y0024013D03*
X0284382Y0024013D03*
X0286941Y0024013D03*
X0289500Y0024013D03*
X0292059Y0024013D03*
X0294618Y0024013D03*
X0297177Y0024013D03*
X0297177Y0046987D03*
X0294618Y0046987D03*
X0292059Y0046987D03*
X0289500Y0046987D03*
X0286941Y0046987D03*
X0284382Y0046987D03*
X0281823Y0046987D03*
D32*
X0380500Y0015500D03*
X0380500Y0380500D03*
X0015500Y0380500D03*
X0015500Y0015500D03*
M02*
