%
M48
M72
T01C0.01575
T02C0.03600
T03C0.04000
T04C0.05512
T05C0.09000
T06C0.12598
%
T01
X123500Y296500
X351500Y342500
X129500Y296500
X347500Y345500
X135500Y296500
X343500Y342500
X141500Y296500
X339500Y345500
X147500Y296500
X331579Y348579
X153500Y296500
X331500Y343500
X159500Y296500
X323500Y348500
X165500Y296500
X323500Y353500
X282500Y202500
X287500Y215500
X280500Y220500
X273500Y223500
X273500Y228500
X285500Y251500
X218500Y47500
X363500Y359500
X138500Y385500
X230500Y272500
X284500Y18500
X368500Y359500
X225500Y272500
X132500Y385500
X293500Y19500
X224500Y47500
X229500Y47500
X234500Y47500
X249500Y47500
X254500Y47500
X285500Y92500
X285500Y98500
X285500Y104500
X285500Y110500
X277500Y121500
X277500Y126500
X277500Y131500
X277500Y136500
X323500Y334500
X326500Y377500
X126500Y328500
X323500Y341500
X321500Y377500
X91500Y313500
X242500Y368500
X195500Y329500
X218500Y329500
X96500Y313500
X242500Y363500
X195500Y324500
X218500Y324500
X101500Y313500
X242500Y358500
X195500Y319500
X218500Y319500
X20500Y352500
X232500Y376500
X232500Y371500
X62500Y284500
X53500Y317500
X11500Y315500
X27500Y299500
X54500Y279500
X83500Y341500
X165500Y382500
X217500Y226500
X231500Y316500
X120500Y345500
X289500Y119500
X389500Y78000
X11500Y282500
X307500Y247500
X6500Y365500
X73500Y382500
X55500Y300500
X26500Y269500
X357500Y360500
X387500Y342500
X266500Y384500
X284500Y342500
X304500Y316500
X351500Y310500
X306500Y81500
X302500Y156500
X308500Y174500
X267500Y165500
X353500Y353500
X367500Y331000
X334500Y365500
X217500Y181500
X217500Y135500
X199500Y310500
X182500Y310500
X334500Y281500
X382500Y294500
X374500Y281500
X371500Y310500
X271500Y299500
X268500Y312500
X258500Y260500
X274500Y251500
X262500Y244500
X315500Y355500
X258500Y85500
X216500Y379500
X224500Y371500
X224500Y364500
X282500Y13500
X117500Y301500
X126500Y273500
X118500Y312500
X388500Y148500
X295500Y107500
X295500Y101500
X295500Y95500
X347500Y123500
X347500Y103500
X389500Y98500
X347500Y83500
X283500Y162500
X261500Y152500
X347500Y93500
X347500Y113500
X301500Y81500
X384500Y166500
X347500Y191500
X347500Y231500
X387500Y231500
X387500Y201500
X70500Y328500
X314500Y378500
X78500Y271500
X82500Y290500
X229500Y9500
X282500Y40500
X229500Y62500
X275500Y22500
X296500Y35500
X288500Y29500
X293500Y370500
X302500Y383500
X185500Y341500
X273500Y140500
X276500Y163500
X205500Y358500
X251500Y299500
X255500Y140500
X273500Y181500
X210500Y358500
X257500Y299500
X295500Y90500
X195500Y358500
X241500Y299500
X289500Y86500
X292500Y127500
X292500Y140500
X277500Y87500
X200500Y358500
X246500Y299500
X304500Y322500
X294500Y299500
X373500Y359500
X220500Y272500
X126500Y385500
X293500Y54500
X345500Y297500
T02
X240579Y333700
X250421Y333700
X250421Y341500
X240579Y341500
T03
X13500Y259500
X23500Y259500
X13500Y249500
X23500Y249500
X13500Y239500
X23500Y239500
X13500Y229500
X23500Y229500
X13500Y219500
X23500Y219500
X13500Y209500
X23500Y209500
X13500Y199500
X23500Y199500
X13500Y189500
X23500Y189500
X58500Y259500
X68500Y259500
X58500Y249500
X68500Y249500
X58500Y239500
X68500Y239500
X58500Y229500
X68500Y229500
X58500Y219500
X68500Y219500
X58500Y209500
X68500Y209500
X58500Y199500
X68500Y199500
X58500Y189500
X68500Y189500
X103500Y259500
X113500Y259500
X103500Y249500
X113500Y249500
X103500Y239500
X113500Y239500
X103500Y229500
X113500Y229500
X103500Y219500
X113500Y219500
X103500Y209500
X113500Y209500
X103500Y199500
X113500Y199500
X103500Y189500
X113500Y189500
X148500Y259500
X158500Y259500
X148500Y249500
X158500Y249500
X148500Y239500
X158500Y239500
X148500Y229500
X158500Y229500
X148500Y219500
X158500Y219500
X148500Y209500
X158500Y209500
X148500Y199500
X158500Y199500
X148500Y189500
X158500Y189500
X13500Y173500
X23500Y173500
X13500Y163500
X23500Y163500
X13500Y153500
X23500Y153500
X13500Y143500
X23500Y143500
X13500Y133500
X23500Y133500
X13500Y123500
X23500Y123500
X13500Y113500
X23500Y113500
X13500Y103500
X23500Y103500
X58500Y173500
X68500Y173500
X58500Y163500
X68500Y163500
X58500Y153500
X68500Y153500
X58500Y143500
X68500Y143500
X58500Y133500
X68500Y133500
X58500Y123500
X68500Y123500
X58500Y113500
X68500Y113500
X58500Y103500
X68500Y103500
X103500Y173500
X113500Y173500
X103500Y163500
X113500Y163500
X103500Y153500
X113500Y153500
X103500Y143500
X113500Y143500
X103500Y133500
X113500Y133500
X103500Y123500
X113500Y123500
X103500Y113500
X113500Y113500
X103500Y103500
X113500Y103500
X148500Y173500
X158500Y173500
X148500Y163500
X158500Y163500
X148500Y153500
X158500Y153500
X148500Y143500
X158500Y143500
X148500Y133500
X158500Y133500
X148500Y123500
X158500Y123500
X148500Y113500
X158500Y113500
X148500Y103500
X158500Y103500
X13500Y86500
X23500Y86500
X13500Y76500
X23500Y76500
X13500Y66500
X23500Y66500
X13500Y56500
X23500Y56500
X13500Y46500
X23500Y46500
X13500Y36500
X23500Y36500
X36500Y86500
X46500Y86500
X36500Y76500
X46500Y76500
X36500Y66500
X46500Y66500
X36500Y56500
X46500Y56500
X36500Y46500
X46500Y46500
X36500Y36500
X46500Y36500
X59500Y86500
X69500Y86500
X59500Y76500
X69500Y76500
X59500Y66500
X69500Y66500
X59500Y56500
X69500Y56500
X59500Y46500
X69500Y46500
X59500Y36500
X69500Y36500
X82500Y86500
X92500Y86500
X82500Y76500
X92500Y76500
X82500Y66500
X92500Y66500
X82500Y56500
X92500Y56500
X82500Y46500
X92500Y46500
X82500Y36500
X92500Y36500
X105500Y86500
X115500Y86500
X105500Y76500
X115500Y76500
X105500Y66500
X115500Y66500
X105500Y56500
X115500Y56500
X105500Y46500
X115500Y46500
X105500Y36500
X115500Y36500
X128500Y86500
X138500Y86500
X128500Y76500
X138500Y76500
X128500Y66500
X138500Y66500
X128500Y56500
X138500Y56500
X128500Y46500
X138500Y46500
X128500Y36500
X138500Y36500
X151500Y86500
X161500Y86500
X151500Y76500
X161500Y76500
X151500Y66500
X161500Y66500
X151500Y56500
X161500Y56500
X151500Y46500
X161500Y46500
X151500Y36500
X161500Y36500
X174500Y86500
X184500Y86500
X174500Y76500
X184500Y76500
X174500Y66500
X184500Y66500
X174500Y56500
X184500Y56500
X174500Y46500
X184500Y46500
X174500Y36500
X184500Y36500
X381500Y286500
X381500Y276500
X381500Y266500
X352500Y286500
X352500Y276500
X352500Y266500
X305500Y270500
X315500Y270500
X325500Y270500
X385500Y352500
X385500Y362500
X320500Y246500
X330500Y246500
X320500Y236500
X330500Y236500
X320500Y226500
X330500Y226500
X320500Y216500
X330500Y216500
X320500Y206500
X330500Y206500
X320500Y196500
X330500Y196500
X320500Y186500
X330500Y186500
X320500Y176500
X330500Y176500
X340500Y246500
X340500Y236500
X340500Y226500
X340500Y216500
X340500Y206500
X340500Y196500
X340500Y186500
X340500Y176500
X361500Y246500
X371500Y246500
X361500Y236500
X371500Y236500
X361500Y226500
X371500Y226500
X361500Y216500
X371500Y216500
X361500Y206500
X371500Y206500
X361500Y196500
X371500Y196500
X361500Y186500
X371500Y186500
X361500Y176500
X371500Y176500
X381500Y246500
X381500Y236500
X381500Y226500
X381500Y216500
X381500Y206500
X381500Y196500
X381500Y186500
X381500Y176500
X320500Y153500
X330500Y153500
X320500Y143500
X330500Y143500
X320500Y133500
X330500Y133500
X320500Y123500
X330500Y123500
X320500Y113500
X330500Y113500
X320500Y103500
X330500Y103500
X320500Y93500
X330500Y93500
X320500Y83500
X330500Y83500
X340500Y153500
X340500Y143500
X340500Y133500
X340500Y123500
X340500Y113500
X340500Y103500
X340500Y93500
X340500Y83500
X361500Y153500
X371500Y153500
X361500Y143500
X371500Y143500
X361500Y133500
X371500Y133500
X361500Y123500
X371500Y123500
X361500Y113500
X371500Y113500
X361500Y103500
X371500Y103500
X361500Y93500
X371500Y93500
X361500Y83500
X371500Y83500
X381500Y153500
X381500Y143500
X381500Y133500
X381500Y123500
X381500Y113500
X381500Y103500
X381500Y93500
X381500Y83500
T04
X164989Y342187
X135540Y342227
X194635Y342227
X184635Y332306
X145265Y332266
X184635Y382027
X145235Y382027
X154835Y382027
X174935Y382027
X73489Y342187
X44040Y342227
X103135Y342227
X93135Y332306
X53765Y332266
X93135Y382027
X53735Y382027
X63335Y382027
X83435Y382027
T05
X221800Y352200
X269200Y352200
T06
X15500Y380500
X380500Y380500
X380500Y15500
X15500Y15500
M30
