M48
; DRILL file {KiCad 6.0.9} date Mon Nov 14 17:03:28 2022
; FORMAT={-:-/ absolute / metric / decimal}
; #@! TF.CreationDate,2022-11-14T17:03:28+01:00
; #@! TF.GenerationSoftware,Kicad,Pcbnew,6.0.9
; #@! TF.FileFunction,Plated,1,2,PTH
FMAT,2
METRIC
; #@! TA.AperFunction,Plated,PTH,ViaDrill
T1C0.400
; #@! TA.AperFunction,Plated,PTH,ComponentDrill
T2C0.650
; #@! TA.AperFunction,Plated,PTH,ComponentDrill
T3C0.950
; #@! TA.AperFunction,Plated,PTH,ComponentDrill
T4C1.000
; #@! TA.AperFunction,Plated,PTH,ComponentDrill
T5C1.500
; #@! TA.AperFunction,Plated,PTH,ComponentDrill
T6C3.200
%
G90
G05
T1
X86.233Y-39.624
X86.741Y-62.23
X86.741Y-77.597
X87.884Y-51.435
X98.171Y-52.451
X106.553Y-52.578
X107.442Y-27.686
X115.824Y-52.451
X125.222Y-52.705
X125.857Y-27.432
X132.08Y-27.813
X134.112Y-52.451
X135.86Y-92.911
X142.113Y-52.451
X142.367Y-96.266
X144.369Y-81.354
X144.75Y-85.545
X148.941Y-80.338
X149.195Y-96.266
X150.495Y-52.451
X158.369Y-91.948
X158.496Y-52.578
X158.623Y-82.042
X158.847Y-86.18
X159.512Y-82.931
X160.401Y-110.109
X162.306Y-73.279
X163.195Y-92.075
X164.211Y-59.182
X164.719Y-62.865
X164.719Y-93.726
X165.481Y-66.294
X165.5Y-81.925
X165.989Y-49.403
X166.055Y-50.673
X166.37Y-83.16
X166.37Y-84.328
X166.37Y-85.649
X166.37Y-87.224
X166.756Y-57.785
X167.564Y-56.464
X167.767Y-73.213
X169.062Y-30.937
X170.129Y-88.583
X170.129Y-89.51
X170.18Y-40.081
X170.307Y-85.979
X171.196Y-50.419
X171.577Y-97.79
X171.7Y-94.875
X171.704Y-62.738
X172.15Y-81.025
X173.736Y-48.133
X174.388Y-36.164
X175.387Y-66.294
X177.927Y-77.216
X180.492Y-47.955
X182.118Y-67.564
X182.626Y-98.298
X182.677Y-58.471
X184.023Y-67.183
X184.912Y-76.454
X185.542Y-90.6
X186.558Y-86.663
X186.685Y-91.489
X187.447Y-85.774
X187.452Y-32.639
X187.579Y-65.913
X187.96Y-47.752
X188.971Y-93.14
X190.119Y-72.136
X190.876Y-88.314
X192.532Y-84.836
X192.659Y-34.036
X193.929Y-61.341
X194.31Y-95.375
X196.215Y-98.552
X196.85Y-71.12
X199.898Y-33.274
X205.867Y-98.171
X206.878Y-90.092
X208.148Y-86.663
X208.783Y-90.981
X209.926Y-85.774
X210.312Y-91.694
X212.471Y-33.401
X212.471Y-56.769
X213.863Y-88.441
X215.138Y-84.836
X218.123Y-31.992
X218.5Y-95.225
X218.821Y-98.171
X220.599Y-32.893
X225.044Y-54.254
X226.466Y-48.819
X228.956Y-31.801
X228.975Y-44.8
X229.525Y-35.95
X230.119Y-90.092
X230.251Y-98.171
X230.988Y-72.796
X231.516Y-86.663
X231.516Y-90.981
X231.59Y-50.401
X232.329Y-49.841
X232.4Y-53.575
X232.419Y-51.349
X232.766Y-36.779
X232.913Y-85.774
X233.167Y-91.694
X233.223Y-50.19
X235.509Y-79.654
X235.625Y-53.05
X235.661Y-77.368
X236.068Y-80.467
X236.588Y-77.368
X236.779Y-40.488
X236.85Y-88.187
X238.1Y-34.773
X238.125Y-84.963
X238.15Y-42.393
X238.4Y-58.0
X239.1Y-47.85
X239.1Y-50.25
X239.925Y-39.65
X240.03Y-74.117
X240.075Y-46.775
X240.64Y-35.306
X240.944Y-31.648
X241.046Y-67.869
X241.047Y-55.477
X241.097Y-77.622
X241.121Y-46.57
X241.5Y-47.85
X241.5Y-50.25
X241.554Y-98.298
X241.757Y-72.187
X242.011Y-77.165
X242.062Y-95.631
X242.214Y-74.117
X242.4Y-47.2
X242.761Y-51.536
X243.027Y-77.622
X243.3Y-57.1
X243.519Y-52.457
X243.637Y-72.187
X244.653Y-67.361
X244.875Y-43.475
X245.2Y-59.7
X245.85Y-52.07
X246.228Y-35.382
X246.902Y-52.07
X246.913Y-43.713
X247.829Y-52.07
X248.006Y-34.95
X248.158Y-77.318
X248.755Y-52.07
X249.428Y-65.227
X249.682Y-52.07
X250.444Y-70.917
X250.546Y-72.441
X250.609Y-52.07
X251.237Y-75.788
X251.511Y-70.917
X251.535Y-52.07
X251.714Y-98.298
X251.917Y-49.124
X252.162Y-75.741
X252.171Y-72.39
X252.462Y-52.07
X252.7Y-39.575
X253.36Y-90.854
X254.0Y-43.18
X254.203Y-63.297
X254.254Y-73.863
X254.63Y-86.536
X254.635Y-89.408
X254.757Y-91.616
X255.9Y-85.774
X258.013Y-73.914
X258.42Y-37.592
X259.842Y-44.831
X259.842Y-48.133
X259.842Y-53.188
T3
X200.974Y-62.882
X200.974Y-73.406
X203.474Y-62.882
X203.474Y-73.406
X205.974Y-62.882
X205.974Y-73.406
X208.474Y-62.882
X208.474Y-73.406
X215.623Y-62.882
X215.639Y-73.406
X218.123Y-62.882
X218.139Y-73.406
X220.623Y-62.882
X220.639Y-73.406
X223.123Y-62.882
X223.139Y-73.406
T4
X92.041Y-100.531
X92.041Y-103.071
X92.041Y-105.611
X92.041Y-108.151
X92.041Y-110.691
X92.041Y-113.231
X92.041Y-115.771
X92.041Y-118.311
X92.075Y-31.242
X92.075Y-33.782
X92.075Y-36.322
X92.075Y-38.862
X92.075Y-41.402
X92.075Y-43.942
X92.075Y-46.482
X92.075Y-49.022
X92.075Y-55.753
X92.075Y-58.293
X92.075Y-60.833
X92.075Y-63.373
X92.075Y-65.913
X92.075Y-68.453
X92.075Y-70.993
X92.075Y-73.533
X94.581Y-100.531
X94.581Y-103.071
X94.581Y-105.611
X94.581Y-108.151
X94.581Y-110.691
X94.581Y-113.231
X94.581Y-115.771
X94.581Y-118.311
X94.615Y-31.242
X94.615Y-33.782
X94.615Y-36.322
X94.615Y-38.862
X94.615Y-41.402
X94.615Y-43.942
X94.615Y-46.482
X94.615Y-49.022
X94.615Y-55.753
X94.615Y-58.293
X94.615Y-60.833
X94.615Y-63.373
X94.615Y-65.913
X94.615Y-68.453
X94.615Y-70.993
X94.615Y-73.533
X100.931Y-100.546
X100.931Y-103.086
X100.931Y-105.626
X100.931Y-108.166
X100.931Y-110.706
X100.931Y-113.246
X100.931Y-115.786
X100.931Y-118.326
X100.965Y-31.242
X100.965Y-33.782
X100.965Y-36.322
X100.965Y-38.862
X100.965Y-41.402
X100.965Y-43.942
X100.965Y-46.482
X100.965Y-49.022
X100.965Y-55.753
X100.965Y-58.293
X100.965Y-60.833
X100.965Y-63.373
X100.965Y-65.913
X100.965Y-68.453
X100.965Y-70.993
X100.965Y-73.533
X103.471Y-100.546
X103.471Y-103.086
X103.471Y-105.626
X103.471Y-108.166
X103.471Y-110.706
X103.471Y-113.246
X103.471Y-115.786
X103.471Y-118.326
X103.505Y-31.242
X103.505Y-33.782
X103.505Y-36.322
X103.505Y-38.862
X103.505Y-41.402
X103.505Y-43.942
X103.505Y-46.482
X103.505Y-49.022
X103.505Y-55.753
X103.505Y-58.293
X103.505Y-60.833
X103.505Y-63.373
X103.505Y-65.913
X103.505Y-68.453
X103.505Y-70.993
X103.505Y-73.533
X109.821Y-100.546
X109.821Y-103.086
X109.821Y-105.626
X109.821Y-108.166
X109.821Y-110.706
X109.821Y-113.246
X109.821Y-115.786
X109.821Y-118.326
X109.855Y-31.242
X109.855Y-33.782
X109.855Y-36.322
X109.855Y-38.862
X109.855Y-41.402
X109.855Y-43.942
X109.855Y-46.482
X109.855Y-49.022
X109.855Y-55.753
X109.855Y-58.293
X109.855Y-60.833
X109.855Y-63.373
X109.855Y-65.913
X109.855Y-68.453
X109.855Y-70.993
X109.855Y-73.533
X112.361Y-100.546
X112.361Y-103.086
X112.361Y-105.626
X112.361Y-108.166
X112.361Y-110.706
X112.361Y-113.246
X112.361Y-115.786
X112.361Y-118.326
X112.395Y-31.242
X112.395Y-33.782
X112.395Y-36.322
X112.395Y-38.862
X112.395Y-41.402
X112.395Y-43.942
X112.395Y-46.482
X112.395Y-49.022
X112.395Y-55.753
X112.395Y-58.293
X112.395Y-60.833
X112.395Y-63.373
X112.395Y-65.913
X112.395Y-68.453
X112.395Y-70.993
X112.395Y-73.533
X118.711Y-100.546
X118.711Y-103.086
X118.711Y-105.626
X118.711Y-108.166
X118.711Y-110.706
X118.711Y-113.246
X118.711Y-115.786
X118.711Y-118.326
X118.745Y-31.242
X118.745Y-33.782
X118.745Y-36.322
X118.745Y-38.862
X118.745Y-41.402
X118.745Y-43.942
X118.745Y-46.482
X118.745Y-49.022
X118.745Y-55.753
X118.745Y-58.293
X118.745Y-60.833
X118.745Y-63.373
X118.745Y-65.913
X118.745Y-68.453
X118.745Y-70.993
X118.745Y-73.533
X121.251Y-100.546
X121.251Y-103.086
X121.251Y-105.626
X121.251Y-108.166
X121.251Y-110.706
X121.251Y-113.246
X121.251Y-115.786
X121.251Y-118.326
X121.285Y-31.242
X121.285Y-33.782
X121.285Y-36.322
X121.285Y-38.862
X121.285Y-41.402
X121.285Y-43.942
X121.285Y-46.482
X121.285Y-49.022
X121.285Y-55.753
X121.285Y-58.293
X121.285Y-60.833
X121.285Y-63.373
X121.285Y-65.913
X121.285Y-68.453
X121.285Y-70.993
X121.285Y-73.533
X127.601Y-100.546
X127.601Y-103.086
X127.601Y-105.626
X127.601Y-108.166
X127.601Y-110.706
X127.601Y-113.246
X127.601Y-115.786
X127.601Y-118.326
X127.635Y-31.242
X127.635Y-33.782
X127.635Y-36.322
X127.635Y-38.862
X127.635Y-41.402
X127.635Y-43.942
X127.635Y-46.482
X127.635Y-49.022
X127.635Y-55.753
X127.635Y-58.293
X127.635Y-60.833
X127.635Y-63.373
X127.635Y-65.913
X127.635Y-68.453
X127.635Y-70.993
X127.635Y-73.533
X130.141Y-100.546
X130.141Y-103.086
X130.141Y-105.626
X130.141Y-108.166
X130.141Y-110.706
X130.141Y-113.246
X130.141Y-115.786
X130.141Y-118.326
X130.175Y-31.242
X130.175Y-33.782
X130.175Y-36.322
X130.175Y-38.862
X130.175Y-41.402
X130.175Y-43.942
X130.175Y-46.482
X130.175Y-49.022
X130.175Y-55.753
X130.175Y-58.293
X130.175Y-60.833
X130.175Y-63.373
X130.175Y-65.913
X130.175Y-68.453
X130.175Y-70.993
X130.175Y-73.533
X136.491Y-100.546
X136.491Y-103.086
X136.491Y-105.626
X136.491Y-108.166
X136.491Y-110.706
X136.491Y-113.246
X136.491Y-115.786
X136.491Y-118.326
X136.525Y-31.242
X136.525Y-33.782
X136.525Y-36.322
X136.525Y-38.862
X136.525Y-41.402
X136.525Y-43.942
X136.525Y-46.482
X136.525Y-49.022
X136.525Y-55.753
X136.525Y-58.293
X136.525Y-60.833
X136.525Y-63.373
X136.525Y-65.913
X136.525Y-68.453
X136.525Y-70.993
X136.525Y-73.533
X139.031Y-100.546
X139.031Y-103.086
X139.031Y-105.626
X139.031Y-108.166
X139.031Y-110.706
X139.031Y-113.246
X139.031Y-115.786
X139.031Y-118.326
X139.065Y-31.242
X139.065Y-33.782
X139.065Y-36.322
X139.065Y-38.862
X139.065Y-41.402
X139.065Y-43.942
X139.065Y-46.482
X139.065Y-49.022
X139.065Y-55.753
X139.065Y-58.293
X139.065Y-60.833
X139.065Y-63.373
X139.065Y-65.913
X139.065Y-68.453
X139.065Y-70.993
X139.065Y-73.533
X145.381Y-100.561
X145.381Y-103.101
X145.381Y-105.641
X145.381Y-108.181
X145.381Y-110.721
X145.381Y-113.261
X145.381Y-115.801
X145.381Y-118.341
X145.415Y-31.242
X145.415Y-33.782
X145.415Y-36.322
X145.415Y-38.862
X145.415Y-41.402
X145.415Y-43.942
X145.415Y-46.482
X145.415Y-49.022
X145.415Y-55.753
X145.415Y-58.293
X145.415Y-60.833
X145.415Y-63.373
X145.415Y-65.913
X145.415Y-68.453
X145.415Y-70.993
X145.415Y-73.533
X147.921Y-100.561
X147.921Y-103.101
X147.921Y-105.641
X147.921Y-108.181
X147.921Y-110.721
X147.921Y-113.261
X147.921Y-115.801
X147.921Y-118.341
X147.955Y-31.242
X147.955Y-33.782
X147.955Y-36.322
X147.955Y-38.862
X147.955Y-41.402
X147.955Y-43.942
X147.955Y-46.482
X147.955Y-49.022
X147.955Y-55.753
X147.955Y-58.293
X147.955Y-60.833
X147.955Y-63.373
X147.955Y-65.913
X147.955Y-68.453
X147.955Y-70.993
X147.955Y-73.533
X154.266Y-100.561
X154.266Y-103.101
X154.266Y-105.641
X154.266Y-108.181
X154.266Y-110.721
X154.266Y-113.261
X154.266Y-115.801
X154.266Y-118.341
X154.305Y-31.242
X154.305Y-33.782
X154.305Y-36.322
X154.305Y-38.862
X154.305Y-41.402
X154.305Y-43.942
X154.305Y-46.482
X154.305Y-49.022
X154.305Y-55.753
X154.305Y-58.293
X154.305Y-60.833
X154.305Y-63.373
X154.305Y-65.913
X154.305Y-68.453
X154.305Y-70.993
X154.305Y-73.533
X156.806Y-100.561
X156.806Y-103.101
X156.806Y-105.641
X156.806Y-108.181
X156.806Y-110.721
X156.806Y-113.261
X156.806Y-115.801
X156.806Y-118.341
X156.845Y-31.242
X156.845Y-33.782
X156.845Y-36.322
X156.845Y-38.862
X156.845Y-41.402
X156.845Y-43.942
X156.845Y-46.482
X156.845Y-49.022
X156.845Y-55.753
X156.845Y-58.293
X156.845Y-60.833
X156.845Y-63.373
X156.845Y-65.913
X156.845Y-68.453
X156.845Y-70.993
X156.845Y-73.533
X166.365Y-100.775
X166.365Y-103.315
X166.365Y-105.855
X166.365Y-108.395
X166.365Y-110.935
X166.365Y-113.475
X166.365Y-116.015
X166.365Y-118.555
X168.905Y-100.775
X168.905Y-103.315
X168.905Y-105.855
X168.905Y-108.395
X168.905Y-110.935
X168.905Y-113.475
X168.905Y-116.015
X168.905Y-118.555
X171.445Y-100.775
X171.445Y-103.315
X171.445Y-105.855
X171.445Y-108.395
X171.445Y-110.935
X171.445Y-113.475
X171.445Y-116.015
X171.445Y-118.555
X177.8Y-100.76
X177.8Y-103.3
X177.8Y-105.84
X177.8Y-108.38
X177.8Y-110.92
X177.8Y-113.46
X177.8Y-116.0
X177.8Y-118.54
X180.34Y-100.76
X180.34Y-103.3
X180.34Y-105.84
X180.34Y-108.38
X180.34Y-110.92
X180.34Y-113.46
X180.34Y-116.0
X180.34Y-118.54
X182.88Y-100.76
X182.88Y-103.3
X182.88Y-105.84
X182.88Y-108.38
X182.88Y-110.92
X182.88Y-113.46
X182.88Y-116.0
X182.88Y-118.54
X189.23Y-100.76
X189.23Y-103.3
X189.23Y-105.84
X189.23Y-108.38
X189.23Y-110.92
X189.23Y-113.46
X189.23Y-116.0
X189.23Y-118.54
X191.77Y-100.76
X191.77Y-103.3
X191.77Y-105.84
X191.77Y-108.38
X191.77Y-110.92
X191.77Y-113.46
X191.77Y-116.0
X191.77Y-118.54
X194.31Y-100.76
X194.31Y-103.3
X194.31Y-105.84
X194.31Y-108.38
X194.31Y-110.92
X194.31Y-113.46
X194.31Y-116.0
X194.31Y-118.54
X200.792Y-100.745
X200.792Y-103.285
X200.792Y-105.825
X200.792Y-108.365
X200.792Y-110.905
X200.792Y-113.445
X200.792Y-115.985
X200.792Y-118.525
X203.332Y-100.745
X203.332Y-103.285
X203.332Y-105.825
X203.332Y-108.365
X203.332Y-110.905
X203.332Y-113.445
X203.332Y-115.985
X203.332Y-118.525
X205.872Y-100.745
X205.872Y-103.285
X205.872Y-105.825
X205.872Y-108.365
X205.872Y-110.905
X205.872Y-113.445
X205.872Y-115.985
X205.872Y-118.525
X212.217Y-100.76
X212.217Y-103.3
X212.217Y-105.84
X212.217Y-108.38
X212.217Y-110.92
X212.217Y-113.46
X212.217Y-116.0
X212.217Y-118.54
X214.757Y-100.76
X214.757Y-103.3
X214.757Y-105.84
X214.757Y-108.38
X214.757Y-110.92
X214.757Y-113.46
X214.757Y-116.0
X214.757Y-118.54
X217.297Y-100.76
X217.297Y-103.3
X217.297Y-105.84
X217.297Y-108.38
X217.297Y-110.92
X217.297Y-113.46
X217.297Y-116.0
X217.297Y-118.54
X223.652Y-100.745
X223.652Y-103.285
X223.652Y-105.825
X223.652Y-108.365
X223.652Y-110.905
X223.652Y-113.445
X223.652Y-115.985
X223.652Y-118.525
X226.192Y-100.745
X226.192Y-103.285
X226.192Y-105.825
X226.192Y-108.365
X226.192Y-110.905
X226.192Y-113.445
X226.192Y-115.985
X226.192Y-118.525
X228.732Y-100.745
X228.732Y-103.285
X228.732Y-105.825
X228.732Y-108.365
X228.732Y-110.905
X228.732Y-113.445
X228.732Y-115.985
X228.732Y-118.525
X231.75Y-29.266
X231.75Y-31.806
X235.072Y-100.76
X235.072Y-103.3
X235.072Y-105.84
X235.072Y-108.38
X235.072Y-110.92
X235.072Y-113.46
X235.072Y-116.0
X235.072Y-118.54
X237.612Y-100.76
X237.612Y-103.3
X237.612Y-105.84
X237.612Y-108.38
X237.612Y-110.92
X237.612Y-113.46
X237.612Y-116.0
X237.612Y-118.54
X238.389Y-63.043
X240.152Y-100.76
X240.152Y-103.3
X240.152Y-105.84
X240.152Y-108.38
X240.152Y-110.92
X240.152Y-113.46
X240.152Y-116.0
X240.152Y-118.54
X240.929Y-63.043
X243.469Y-63.043
X246.507Y-100.745
X246.507Y-103.285
X246.507Y-105.825
X246.507Y-108.365
X246.507Y-110.905
X246.507Y-113.445
X246.507Y-115.985
X246.507Y-118.525
X249.047Y-100.745
X249.047Y-103.285
X249.047Y-105.825
X249.047Y-108.365
X249.047Y-110.905
X249.047Y-113.445
X249.047Y-115.985
X249.047Y-118.525
X251.587Y-100.745
X251.587Y-103.285
X251.587Y-105.825
X251.587Y-108.365
X251.587Y-110.905
X251.587Y-113.445
X251.587Y-115.985
X251.587Y-118.525
X256.286Y-57.404
X256.286Y-59.944
T5
X186.458Y-38.313
X188.908Y-28.363
X188.908Y-40.513
X191.408Y-28.363
X193.908Y-38.313
X196.408Y-28.363
X198.908Y-28.363
X198.908Y-40.513
X201.358Y-38.313
X208.908Y-38.313
X211.358Y-28.363
X211.358Y-40.513
X213.858Y-28.363
X216.358Y-38.313
X218.858Y-28.363
X221.358Y-28.363
X221.358Y-40.513
X223.808Y-38.313
T6
X85.0Y-30.0
X85.0Y-119.0
X258.0Y-30.0
X258.0Y-119.0
T2
X240.023Y-29.254G85X240.023Y-28.454
G05
X240.023Y-33.574G85X240.023Y-32.474
G05
X248.673Y-29.254G85X248.673Y-28.454
G05
X248.673Y-33.574G85X248.673Y-32.474
G05
T0
M30
