M48
; DRILL file {KiCad 7.0.8} date subota, 07. listopada 2023. 11:33:41 CEST
; FORMAT={-:-/ absolute / inch / decimal}
; #@! TF.CreationDate,2023-10-07T11:33:41+02:00
; #@! TF.GenerationSoftware,Kicad,Pcbnew,7.0.8
; #@! TF.FileFunction,Plated,1,2,PTH
FMAT,2
INCH
; #@! TA.AperFunction,Plated,PTH,ViaDrill
T1C0.0157
; #@! TA.AperFunction,Plated,PTH,ComponentDrill
T2C0.0256
; #@! TA.AperFunction,Plated,PTH,ComponentDrill
T3C0.0374
; #@! TA.AperFunction,Plated,PTH,ComponentDrill
T4C0.0394
; #@! TA.AperFunction,Plated,PTH,ComponentDrill
T5C0.0591
; #@! TA.AperFunction,Plated,PTH,ComponentDrill
T6C0.1260
%
G90
G05
T1
X3.395Y-1.56
X3.415Y-2.45
X3.415Y-3.055
X3.46Y-2.025
X3.865Y-2.065
X4.195Y-2.07
X4.23Y-1.09
X4.56Y-2.065
X4.93Y-2.075
X4.955Y-1.08
X5.2Y-1.095
X5.28Y-2.065
X5.3488Y-3.6579
X5.595Y-2.065
X5.605Y-3.79
X5.6838Y-3.2029
X5.6988Y-3.3679
X5.8638Y-3.1629
X5.8738Y-3.79
X5.925Y-2.065
X6.235Y-3.62
X6.24Y-2.07
X6.245Y-3.23
X6.2538Y-3.3929
X6.28Y-3.265
X6.315Y-4.335
X6.39Y-2.885
X6.425Y-3.625
X6.465Y-2.33
X6.485Y-2.475
X6.485Y-3.69
X6.515Y-2.61
X6.5157Y-3.2254
X6.535Y-1.945
X6.5376Y-1.995
X6.55Y-3.274
X6.55Y-3.32
X6.55Y-3.372
X6.55Y-3.434
X6.5652Y-2.275
X6.597Y-2.223
X6.605Y-2.8824
X6.656Y-1.218
X6.698Y-3.4875
X6.698Y-3.524
X6.7Y-1.578
X6.705Y-3.385
X6.74Y-1.985
X6.755Y-3.85
X6.7598Y-3.7352
X6.76Y-2.47
X6.7776Y-3.19
X6.84Y-1.895
X6.8657Y-1.4238
X6.905Y-2.61
X7.005Y-3.04
X7.106Y-1.888
X7.17Y-2.66
X7.19Y-3.87
X7.192Y-2.302
X7.245Y-2.645
X7.28Y-3.01
X7.285Y-3.3792
X7.285Y-3.435
X7.285Y-3.53
X7.285Y-3.5666
X7.38Y-1.285
X7.385Y-2.595
X7.4Y-1.88
X7.4398Y-3.6669
X7.485Y-2.84
X7.5148Y-3.4769
X7.58Y-3.34
X7.585Y-1.34
X7.635Y-2.415
X7.65Y-3.7549
X7.725Y-3.88
X7.75Y-2.8
X7.87Y-1.31
X8.105Y-3.865
X8.19Y-3.3769
X8.19Y-3.435
X8.19Y-3.53
X8.19Y-3.57
X8.28Y-3.61
X8.365Y-1.315
X8.365Y-2.235
X8.4198Y-3.4819
X8.47Y-3.34
X8.5875Y-1.2595
X8.6024Y-3.749
X8.615Y-3.865
X8.685Y-1.295
X8.86Y-2.136
X8.916Y-1.922
X9.014Y-1.252
X9.0148Y-1.7638
X9.0364Y-1.4154
X9.065Y-3.865
X9.09Y-3.3769
X9.09Y-3.435
X9.09Y-3.53
X9.09Y-3.572
X9.094Y-2.866
X9.1177Y-1.9843
X9.1468Y-1.9622
X9.1496Y-2.1093
X9.1504Y-2.0216
X9.164Y-1.448
X9.1798Y-3.61
X9.182Y-1.976
X9.272Y-3.136
X9.2766Y-2.0886
X9.278Y-3.046
X9.294Y-3.168
X9.3145Y-3.046
X9.322Y-1.594
X9.3248Y-3.4719
X9.374Y-1.369
X9.375Y-3.345
X9.376Y-1.669
X9.3858Y-2.2835
X9.4134Y-1.8839
X9.4134Y-1.9783
X9.4459Y-1.561
X9.45Y-2.918
X9.4518Y-1.8415
X9.474Y-1.39
X9.486Y-1.246
X9.49Y-2.672
X9.49Y-2.1841
X9.492Y-3.056
X9.4929Y-1.8335
X9.5079Y-1.8839
X9.5079Y-1.9783
X9.51Y-3.87
X9.518Y-2.842
X9.528Y-3.038
X9.53Y-3.765
X9.536Y-2.918
X9.5433Y-1.8583
X9.5575Y-2.029
X9.568Y-3.056
X9.5787Y-2.248
X9.5874Y-2.0652
X9.592Y-2.842
X9.632Y-2.652
X9.6407Y-1.7116
X9.6535Y-2.3504
X9.6791Y-2.05
X9.694Y-1.393
X9.7206Y-2.05
X9.721Y-1.721
X9.757Y-2.05
X9.764Y-1.376
X9.77Y-3.044
X9.7935Y-2.05
X9.82Y-2.568
X9.83Y-2.05
X9.86Y-2.792
X9.864Y-2.852
X9.8665Y-2.05
X9.8912Y-2.9838
X9.902Y-2.792
X9.903Y-2.05
X9.91Y-3.87
X9.918Y-1.934
X9.9276Y-2.9819
X9.928Y-2.85
X9.9394Y-2.05
X9.9488Y-1.5581
X9.99Y-3.3769
X9.99Y-3.435
X9.99Y-3.535
X10.0Y-1.7
X10.008Y-2.492
X10.01Y-2.908
X10.0298Y-3.6069
X10.06Y-3.505
X10.158Y-2.91
X10.174Y-1.48
X10.23Y-1.765
X10.23Y-1.895
X10.23Y-2.094
T3
X7.9124Y-2.4757
X7.9124Y-2.89
X8.0108Y-2.4757
X8.0108Y-2.89
X8.1092Y-2.4757
X8.1092Y-2.89
X8.2076Y-2.4757
X8.2076Y-2.89
X8.4891Y-2.4757
X8.4897Y-2.89
X8.5875Y-2.4757
X8.5881Y-2.89
X8.6859Y-2.4757
X8.6866Y-2.89
X8.7844Y-2.4757
X8.785Y-2.89
T4
X3.6236Y-3.9579
X3.6236Y-4.0579
X3.6236Y-4.1579
X3.6236Y-4.2579
X3.6236Y-4.3579
X3.6236Y-4.4579
X3.6236Y-4.5579
X3.6236Y-4.6579
X3.625Y-1.23
X3.625Y-1.33
X3.625Y-1.43
X3.625Y-1.53
X3.625Y-1.63
X3.625Y-1.73
X3.625Y-1.83
X3.625Y-1.93
X3.625Y-2.195
X3.625Y-2.295
X3.625Y-2.395
X3.625Y-2.495
X3.625Y-2.595
X3.625Y-2.695
X3.625Y-2.795
X3.625Y-2.895
X3.7236Y-3.9579
X3.7236Y-4.0579
X3.7236Y-4.1579
X3.7236Y-4.2579
X3.7236Y-4.3579
X3.7236Y-4.4579
X3.7236Y-4.5579
X3.7236Y-4.6579
X3.725Y-1.23
X3.725Y-1.33
X3.725Y-1.43
X3.725Y-1.53
X3.725Y-1.63
X3.725Y-1.73
X3.725Y-1.83
X3.725Y-1.93
X3.725Y-2.195
X3.725Y-2.295
X3.725Y-2.395
X3.725Y-2.495
X3.725Y-2.595
X3.725Y-2.695
X3.725Y-2.795
X3.725Y-2.895
X3.9736Y-3.9585
X3.9736Y-4.0585
X3.9736Y-4.1585
X3.9736Y-4.2585
X3.9736Y-4.3585
X3.9736Y-4.4585
X3.9736Y-4.5585
X3.9736Y-4.6585
X3.975Y-1.23
X3.975Y-1.33
X3.975Y-1.43
X3.975Y-1.53
X3.975Y-1.63
X3.975Y-1.73
X3.975Y-1.83
X3.975Y-1.93
X3.975Y-2.195
X3.975Y-2.295
X3.975Y-2.395
X3.975Y-2.495
X3.975Y-2.595
X3.975Y-2.695
X3.975Y-2.795
X3.975Y-2.895
X4.0736Y-3.9585
X4.0736Y-4.0585
X4.0736Y-4.1585
X4.0736Y-4.2585
X4.0736Y-4.3585
X4.0736Y-4.4585
X4.0736Y-4.5585
X4.0736Y-4.6585
X4.075Y-1.23
X4.075Y-1.33
X4.075Y-1.43
X4.075Y-1.53
X4.075Y-1.63
X4.075Y-1.73
X4.075Y-1.83
X4.075Y-1.93
X4.075Y-2.195
X4.075Y-2.295
X4.075Y-2.395
X4.075Y-2.495
X4.075Y-2.595
X4.075Y-2.695
X4.075Y-2.795
X4.075Y-2.895
X4.3236Y-3.9585
X4.3236Y-4.0585
X4.3236Y-4.1585
X4.3236Y-4.2585
X4.3236Y-4.3585
X4.3236Y-4.4585
X4.3236Y-4.5585
X4.3236Y-4.6585
X4.325Y-1.23
X4.325Y-1.33
X4.325Y-1.43
X4.325Y-1.53
X4.325Y-1.63
X4.325Y-1.73
X4.325Y-1.83
X4.325Y-1.93
X4.325Y-2.195
X4.325Y-2.295
X4.325Y-2.395
X4.325Y-2.495
X4.325Y-2.595
X4.325Y-2.695
X4.325Y-2.795
X4.325Y-2.895
X4.4236Y-3.9585
X4.4236Y-4.0585
X4.4236Y-4.1585
X4.4236Y-4.2585
X4.4236Y-4.3585
X4.4236Y-4.4585
X4.4236Y-4.5585
X4.4236Y-4.6585
X4.425Y-1.23
X4.425Y-1.33
X4.425Y-1.43
X4.425Y-1.53
X4.425Y-1.63
X4.425Y-1.73
X4.425Y-1.83
X4.425Y-1.93
X4.425Y-2.195
X4.425Y-2.295
X4.425Y-2.395
X4.425Y-2.495
X4.425Y-2.595
X4.425Y-2.695
X4.425Y-2.795
X4.425Y-2.895
X4.6736Y-3.9585
X4.6736Y-4.0585
X4.6736Y-4.1585
X4.6736Y-4.2585
X4.6736Y-4.3585
X4.6736Y-4.4585
X4.6736Y-4.5585
X4.6736Y-4.6585
X4.675Y-1.23
X4.675Y-1.33
X4.675Y-1.43
X4.675Y-1.53
X4.675Y-1.63
X4.675Y-1.73
X4.675Y-1.83
X4.675Y-1.93
X4.675Y-2.195
X4.675Y-2.295
X4.675Y-2.395
X4.675Y-2.495
X4.675Y-2.595
X4.675Y-2.695
X4.675Y-2.795
X4.675Y-2.895
X4.7736Y-3.9585
X4.7736Y-4.0585
X4.7736Y-4.1585
X4.7736Y-4.2585
X4.7736Y-4.3585
X4.7736Y-4.4585
X4.7736Y-4.5585
X4.7736Y-4.6585
X4.775Y-1.23
X4.775Y-1.33
X4.775Y-1.43
X4.775Y-1.53
X4.775Y-1.63
X4.775Y-1.73
X4.775Y-1.83
X4.775Y-1.93
X4.775Y-2.195
X4.775Y-2.295
X4.775Y-2.395
X4.775Y-2.495
X4.775Y-2.595
X4.775Y-2.695
X4.775Y-2.795
X4.775Y-2.895
X5.0236Y-3.9585
X5.0236Y-4.0585
X5.0236Y-4.1585
X5.0236Y-4.2585
X5.0236Y-4.3585
X5.0236Y-4.4585
X5.0236Y-4.5585
X5.0236Y-4.6585
X5.025Y-1.23
X5.025Y-1.33
X5.025Y-1.43
X5.025Y-1.53
X5.025Y-1.63
X5.025Y-1.73
X5.025Y-1.83
X5.025Y-1.93
X5.025Y-2.195
X5.025Y-2.295
X5.025Y-2.395
X5.025Y-2.495
X5.025Y-2.595
X5.025Y-2.695
X5.025Y-2.795
X5.025Y-2.895
X5.1236Y-3.9585
X5.1236Y-4.0585
X5.1236Y-4.1585
X5.1236Y-4.2585
X5.1236Y-4.3585
X5.1236Y-4.4585
X5.1236Y-4.5585
X5.1236Y-4.6585
X5.125Y-1.23
X5.125Y-1.33
X5.125Y-1.43
X5.125Y-1.53
X5.125Y-1.63
X5.125Y-1.73
X5.125Y-1.83
X5.125Y-1.93
X5.125Y-2.195
X5.125Y-2.295
X5.125Y-2.395
X5.125Y-2.495
X5.125Y-2.595
X5.125Y-2.695
X5.125Y-2.795
X5.125Y-2.895
X5.3736Y-3.9585
X5.3736Y-4.0585
X5.3736Y-4.1585
X5.3736Y-4.2585
X5.3736Y-4.3585
X5.3736Y-4.4585
X5.3736Y-4.5585
X5.3736Y-4.6585
X5.375Y-1.23
X5.375Y-1.33
X5.375Y-1.43
X5.375Y-1.53
X5.375Y-1.63
X5.375Y-1.73
X5.375Y-1.83
X5.375Y-1.93
X5.375Y-2.195
X5.375Y-2.295
X5.375Y-2.395
X5.375Y-2.495
X5.375Y-2.595
X5.375Y-2.695
X5.375Y-2.795
X5.375Y-2.895
X5.4736Y-3.9585
X5.4736Y-4.0585
X5.4736Y-4.1585
X5.4736Y-4.2585
X5.4736Y-4.3585
X5.4736Y-4.4585
X5.4736Y-4.5585
X5.4736Y-4.6585
X5.475Y-1.23
X5.475Y-1.33
X5.475Y-1.43
X5.475Y-1.53
X5.475Y-1.63
X5.475Y-1.73
X5.475Y-1.83
X5.475Y-1.93
X5.475Y-2.195
X5.475Y-2.295
X5.475Y-2.395
X5.475Y-2.495
X5.475Y-2.595
X5.475Y-2.695
X5.475Y-2.795
X5.475Y-2.895
X5.7236Y-3.9591
X5.7236Y-4.0591
X5.7236Y-4.1591
X5.7236Y-4.2591
X5.7236Y-4.3591
X5.7236Y-4.4591
X5.7236Y-4.5591
X5.7236Y-4.6591
X5.725Y-1.23
X5.725Y-1.33
X5.725Y-1.43
X5.725Y-1.53
X5.725Y-1.63
X5.725Y-1.73
X5.725Y-1.83
X5.725Y-1.93
X5.725Y-2.195
X5.725Y-2.295
X5.725Y-2.395
X5.725Y-2.495
X5.725Y-2.595
X5.725Y-2.695
X5.725Y-2.795
X5.725Y-2.895
X5.8236Y-3.9591
X5.8236Y-4.0591
X5.8236Y-4.1591
X5.8236Y-4.2591
X5.8236Y-4.3591
X5.8236Y-4.4591
X5.8236Y-4.5591
X5.8236Y-4.6591
X5.825Y-1.23
X5.825Y-1.33
X5.825Y-1.43
X5.825Y-1.53
X5.825Y-1.63
X5.825Y-1.73
X5.825Y-1.83
X5.825Y-1.93
X5.825Y-2.195
X5.825Y-2.295
X5.825Y-2.395
X5.825Y-2.495
X5.825Y-2.595
X5.825Y-2.695
X5.825Y-2.795
X5.825Y-2.895
X6.0734Y-3.9591
X6.0734Y-4.0591
X6.0734Y-4.1591
X6.0734Y-4.2591
X6.0734Y-4.3591
X6.0734Y-4.4591
X6.0734Y-4.5591
X6.0734Y-4.6591
X6.075Y-1.23
X6.075Y-1.33
X6.075Y-1.43
X6.075Y-1.53
X6.075Y-1.63
X6.075Y-1.73
X6.075Y-1.83
X6.075Y-1.93
X6.075Y-2.195
X6.075Y-2.295
X6.075Y-2.395
X6.075Y-2.495
X6.075Y-2.595
X6.075Y-2.695
X6.075Y-2.795
X6.075Y-2.895
X6.1734Y-3.9591
X6.1734Y-4.0591
X6.1734Y-4.1591
X6.1734Y-4.2591
X6.1734Y-4.3591
X6.1734Y-4.4591
X6.1734Y-4.5591
X6.1734Y-4.6591
X6.175Y-1.23
X6.175Y-1.33
X6.175Y-1.43
X6.175Y-1.53
X6.175Y-1.63
X6.175Y-1.73
X6.175Y-1.83
X6.175Y-1.93
X6.175Y-2.195
X6.175Y-2.295
X6.175Y-2.395
X6.175Y-2.495
X6.175Y-2.595
X6.175Y-2.695
X6.175Y-2.795
X6.175Y-2.895
X6.5498Y-3.9675
X6.5498Y-4.0675
X6.5498Y-4.1675
X6.5498Y-4.2675
X6.5498Y-4.3675
X6.5498Y-4.4675
X6.5498Y-4.5675
X6.5498Y-4.6675
X6.6498Y-3.9675
X6.6498Y-4.0675
X6.6498Y-4.1675
X6.6498Y-4.2675
X6.6498Y-4.3675
X6.6498Y-4.4675
X6.6498Y-4.5675
X6.6498Y-4.6675
X6.7498Y-3.9675
X6.7498Y-4.0675
X6.7498Y-4.1675
X6.7498Y-4.2675
X6.7498Y-4.3675
X6.7498Y-4.4675
X6.7498Y-4.5675
X6.7498Y-4.6675
X7.0Y-3.9669
X7.0Y-4.0669
X7.0Y-4.1669
X7.0Y-4.2669
X7.0Y-4.3669
X7.0Y-4.4669
X7.0Y-4.5669
X7.0Y-4.6669
X7.1Y-3.9669
X7.1Y-4.0669
X7.1Y-4.1669
X7.1Y-4.2669
X7.1Y-4.3669
X7.1Y-4.4669
X7.1Y-4.5669
X7.1Y-4.6669
X7.2Y-3.9669
X7.2Y-4.0669
X7.2Y-4.1669
X7.2Y-4.2669
X7.2Y-4.3669
X7.2Y-4.4669
X7.2Y-4.5669
X7.2Y-4.6669
X7.45Y-3.9669
X7.45Y-4.0669
X7.45Y-4.1669
X7.45Y-4.2669
X7.45Y-4.3669
X7.45Y-4.4669
X7.45Y-4.5669
X7.45Y-4.6669
X7.55Y-3.9669
X7.55Y-4.0669
X7.55Y-4.1669
X7.55Y-4.2669
X7.55Y-4.3669
X7.55Y-4.4669
X7.55Y-4.5669
X7.55Y-4.6669
X7.65Y-3.9669
X7.65Y-4.0669
X7.65Y-4.1669
X7.65Y-4.2669
X7.65Y-4.3669
X7.65Y-4.4669
X7.65Y-4.5669
X7.65Y-4.6669
X7.9052Y-3.9663
X7.9052Y-4.0663
X7.9052Y-4.1663
X7.9052Y-4.2663
X7.9052Y-4.3663
X7.9052Y-4.4663
X7.9052Y-4.5663
X7.9052Y-4.6663
X8.0052Y-3.9663
X8.0052Y-4.0663
X8.0052Y-4.1663
X8.0052Y-4.2663
X8.0052Y-4.3663
X8.0052Y-4.4663
X8.0052Y-4.5663
X8.0052Y-4.6663
X8.1052Y-3.9663
X8.1052Y-4.0663
X8.1052Y-4.1663
X8.1052Y-4.2663
X8.1052Y-4.3663
X8.1052Y-4.4663
X8.1052Y-4.5663
X8.1052Y-4.6663
X8.355Y-3.9669
X8.355Y-4.0669
X8.355Y-4.1669
X8.355Y-4.2669
X8.355Y-4.3669
X8.355Y-4.4669
X8.355Y-4.5669
X8.355Y-4.6669
X8.455Y-3.9669
X8.455Y-4.0669
X8.455Y-4.1669
X8.455Y-4.2669
X8.455Y-4.3669
X8.455Y-4.4669
X8.455Y-4.5669
X8.455Y-4.6669
X8.555Y-3.9669
X8.555Y-4.0669
X8.555Y-4.1669
X8.555Y-4.2669
X8.555Y-4.3669
X8.555Y-4.4669
X8.555Y-4.5669
X8.555Y-4.6669
X8.8052Y-3.9663
X8.8052Y-4.0663
X8.8052Y-4.1663
X8.8052Y-4.2663
X8.8052Y-4.3663
X8.8052Y-4.4663
X8.8052Y-4.5663
X8.8052Y-4.6663
X8.9052Y-3.9663
X8.9052Y-4.0663
X8.9052Y-4.1663
X8.9052Y-4.2663
X8.9052Y-4.3663
X8.9052Y-4.4663
X8.9052Y-4.5663
X8.9052Y-4.6663
X9.0052Y-3.9663
X9.0052Y-4.0663
X9.0052Y-4.1663
X9.0052Y-4.2663
X9.0052Y-4.3663
X9.0052Y-4.4663
X9.0052Y-4.5663
X9.0052Y-4.6663
X9.124Y-1.1522
X9.124Y-1.2522
X9.2548Y-3.9669
X9.2548Y-4.0669
X9.2548Y-4.1669
X9.2548Y-4.2669
X9.2548Y-4.3669
X9.2548Y-4.4669
X9.2548Y-4.5669
X9.2548Y-4.6669
X9.3548Y-3.9669
X9.3548Y-4.0669
X9.3548Y-4.1669
X9.3548Y-4.2669
X9.3548Y-4.3669
X9.3548Y-4.4669
X9.3548Y-4.5669
X9.3548Y-4.6669
X9.3854Y-2.482
X9.4548Y-3.9669
X9.4548Y-4.0669
X9.4548Y-4.1669
X9.4548Y-4.2669
X9.4548Y-4.3669
X9.4548Y-4.4669
X9.4548Y-4.5669
X9.4548Y-4.6669
X9.4854Y-2.482
X9.5854Y-2.482
X9.705Y-3.9663
X9.705Y-4.0663
X9.705Y-4.1663
X9.705Y-4.2663
X9.705Y-4.3663
X9.705Y-4.4663
X9.705Y-4.5663
X9.705Y-4.6663
X9.805Y-3.9663
X9.805Y-4.0663
X9.805Y-4.1663
X9.805Y-4.2663
X9.805Y-4.3663
X9.805Y-4.4663
X9.805Y-4.5663
X9.805Y-4.6663
X9.905Y-3.9663
X9.905Y-4.0663
X9.905Y-4.1663
X9.905Y-4.2663
X9.905Y-4.3663
X9.905Y-4.4663
X9.905Y-4.5663
X9.905Y-4.6663
X10.09Y-2.26
X10.09Y-2.36
T5
X7.3409Y-1.5084
X7.4373Y-1.1167
X7.4373Y-1.595
X7.5357Y-1.1167
X7.6342Y-1.5084
X7.7326Y-1.1167
X7.831Y-1.1167
X7.831Y-1.595
X7.9275Y-1.5084
X8.2247Y-1.5084
X8.3212Y-1.1167
X8.3212Y-1.595
X8.4196Y-1.1167
X8.518Y-1.5084
X8.6165Y-1.1167
X8.7149Y-1.1167
X8.7149Y-1.595
X8.8113Y-1.5084
T6
X3.3465Y-1.1811
X3.3465Y-4.685
X10.1575Y-1.1811
X10.1575Y-4.685
T2
X9.4497Y-1.1517G85X9.4497Y-1.1203
G05
X9.4497Y-1.3218G85X9.4497Y-1.2785
G05
X9.7903Y-1.1517G85X9.7903Y-1.1203
G05
X9.7903Y-1.3218G85X9.7903Y-1.2785
G05
T0
M30
