G04 #@! TF.GenerationSoftware,KiCad,Pcbnew,7.0.8*
G04 #@! TF.CreationDate,2023-10-07T11:33:10+02:00*
G04 #@! TF.ProjectId,OpenDeck-r3.1.2,4f70656e-4465-4636-9b2d-72332e312e32,rev?*
G04 #@! TF.SameCoordinates,Original*
G04 #@! TF.FileFunction,Legend,Bot*
G04 #@! TF.FilePolarity,Positive*
%FSLAX46Y46*%
G04 Gerber Fmt 4.6, Leading zero omitted, Abs format (unit mm)*
G04 Created by KiCad (PCBNEW 7.0.8) date 2023-10-07 11:33:10*
%MOMM*%
%LPD*%
G01*
G04 APERTURE LIST*
G04 Aperture macros list*
%AMRoundRect*
0 Rectangle with rounded corners*
0 $1 Rounding radius*
0 $2 $3 $4 $5 $6 $7 $8 $9 X,Y pos of 4 corners*
0 Add a 4 corners polygon primitive as box body*
4,1,4,$2,$3,$4,$5,$6,$7,$8,$9,$2,$3,0*
0 Add four circle primitives for the rounded corners*
1,1,$1+$1,$2,$3*
1,1,$1+$1,$4,$5*
1,1,$1+$1,$6,$7*
1,1,$1+$1,$8,$9*
0 Add four rect primitives between the rounded corners*
20,1,$1+$1,$2,$3,$4,$5,0*
20,1,$1+$1,$4,$5,$6,$7,0*
20,1,$1+$1,$6,$7,$8,$9,0*
20,1,$1+$1,$8,$9,$2,$3,0*%
G04 Aperture macros list end*
%ADD10C,0.060000*%
%ADD11C,0.300000*%
%ADD12R,1.700000X1.700000*%
%ADD13O,1.700000X1.700000*%
%ADD14C,5.600000*%
%ADD15RoundRect,0.250000X0.600000X0.725000X-0.600000X0.725000X-0.600000X-0.725000X0.600000X-0.725000X0*%
%ADD16O,1.700000X1.950000*%
%ADD17C,2.300000*%
%ADD18C,0.600000*%
%ADD19O,0.950000X2.050000*%
%ADD20O,0.950000X1.750000*%
G04 APERTURE END LIST*
D10*
X146789896Y-88138000D02*
X147370176Y-88138000D01*
X147370176Y-88716986D01*
X146789896Y-88716986D01*
X146789896Y-90454165D01*
X146209693Y-91033151D01*
X143888651Y-91033151D01*
X143888651Y-90454165D01*
X146209693Y-90454165D01*
X146209693Y-88716986D01*
X144468930Y-88716986D01*
X144468930Y-88138000D01*
X146209693Y-88138000D01*
X146209693Y-87559015D01*
X146789896Y-87559015D01*
X146789896Y-88138000D01*
G36*
X146789896Y-88138000D02*
G01*
X147370176Y-88138000D01*
X147370176Y-88716986D01*
X146789896Y-88716986D01*
X146789896Y-90454165D01*
X146209693Y-91033151D01*
X143888651Y-91033151D01*
X143888651Y-90454165D01*
X146209693Y-90454165D01*
X146209693Y-88716986D01*
X144468930Y-88716986D01*
X144468930Y-88138000D01*
X146209693Y-88138000D01*
X146209693Y-87559015D01*
X146789896Y-87559015D01*
X146789896Y-88138000D01*
G37*
X122597862Y-86621721D02*
X122651400Y-86642310D01*
X122705512Y-86662185D01*
X122760149Y-86681353D01*
X122705509Y-86662195D01*
X122651396Y-86642338D01*
X122597860Y-86621752D01*
X122544951Y-86600412D01*
X122597862Y-86621721D01*
G36*
X122597862Y-86621721D02*
G01*
X122651400Y-86642310D01*
X122705512Y-86662185D01*
X122760149Y-86681353D01*
X122705509Y-86662195D01*
X122651396Y-86642338D01*
X122597860Y-86621752D01*
X122544951Y-86600412D01*
X122597862Y-86621721D01*
G37*
X161296114Y-91033150D02*
X160715835Y-91033150D01*
X160715835Y-88716985D01*
X157814667Y-88716985D01*
X157814667Y-91033150D01*
X157234388Y-91033150D01*
X157234388Y-88716985D01*
X157814667Y-88138000D01*
X160715835Y-88138000D01*
X160715835Y-86979955D01*
X161296114Y-86979955D01*
X161296114Y-91033150D01*
G36*
X161296114Y-91033150D02*
G01*
X160715835Y-91033150D01*
X160715835Y-88716985D01*
X157814667Y-88716985D01*
X157814667Y-91033150D01*
X157234388Y-91033150D01*
X157234388Y-88716985D01*
X157814667Y-88138000D01*
X160715835Y-88138000D01*
X160715835Y-86979955D01*
X161296114Y-86979955D01*
X161296114Y-91033150D01*
G37*
X111757310Y-91033151D02*
X111177030Y-91033151D01*
X111177030Y-88716986D01*
X108275861Y-88716986D01*
X108275861Y-91033151D01*
X107695582Y-91033151D01*
X107695582Y-88716986D01*
X108275861Y-88138000D01*
X111757310Y-88138000D01*
X111757310Y-91033151D01*
G36*
X111757310Y-91033151D02*
G01*
X111177030Y-91033151D01*
X111177030Y-88716986D01*
X108275861Y-88716986D01*
X108275861Y-91033151D01*
X107695582Y-91033151D01*
X107695582Y-88716986D01*
X108275861Y-88138000D01*
X111757310Y-88138000D01*
X111757310Y-91033151D01*
G37*
X143308449Y-90454165D02*
X142728169Y-91033151D01*
X142728169Y-91033150D01*
X140407280Y-91033150D01*
X140407280Y-90454165D01*
X142728169Y-90454165D01*
X142728169Y-89875030D01*
X139827000Y-89875030D01*
X139246721Y-89296045D01*
X139827000Y-89296045D01*
X142728169Y-89296045D01*
X142728169Y-88716986D01*
X139827000Y-88716986D01*
X139827000Y-89296045D01*
X139246721Y-89296045D01*
X139246721Y-88716986D01*
X139827000Y-88138000D01*
X142728169Y-88138000D01*
X143308449Y-88716986D01*
X143308449Y-89296045D01*
X143308449Y-90454165D01*
G36*
X143308449Y-90454165D02*
G01*
X142728169Y-91033151D01*
X142728169Y-91033150D01*
X140407280Y-91033150D01*
X140407280Y-90454165D01*
X142728169Y-90454165D01*
X142728169Y-89875030D01*
X139827000Y-89875030D01*
X139246721Y-89296045D01*
X139827000Y-89296045D01*
X142728169Y-89296045D01*
X142728169Y-88716986D01*
X139827000Y-88716986D01*
X139827000Y-89296045D01*
X139246721Y-89296045D01*
X139246721Y-88716986D01*
X139827000Y-88138000D01*
X142728169Y-88138000D01*
X143308449Y-88716986D01*
X143308449Y-89296045D01*
X143308449Y-90454165D01*
G37*
X120461036Y-88716986D02*
X120461036Y-90454165D01*
X119880756Y-91033151D01*
X116979514Y-91033151D01*
X116979514Y-90454165D01*
X119880756Y-90454165D01*
X119880756Y-88716986D01*
X116979514Y-88716986D01*
X116979514Y-88138000D01*
X119880756Y-88138000D01*
X120461036Y-88716986D01*
G36*
X120461036Y-88716986D02*
G01*
X120461036Y-90454165D01*
X119880756Y-91033151D01*
X116979514Y-91033151D01*
X116979514Y-90454165D01*
X119880756Y-90454165D01*
X119880756Y-88716986D01*
X116979514Y-88716986D01*
X116979514Y-88138000D01*
X119880756Y-88138000D01*
X120461036Y-88716986D01*
G37*
X156073831Y-91033151D02*
X152592382Y-91033151D01*
X152592382Y-90454165D01*
X153172662Y-90454165D01*
X156073831Y-90454165D01*
X156073831Y-89875031D01*
X153172662Y-89875031D01*
X153172662Y-90454165D01*
X152592382Y-90454165D01*
X152592382Y-88716986D01*
X153172662Y-88138001D01*
X155493627Y-88138001D01*
X155493627Y-88716986D01*
X153172662Y-88716986D01*
X153172662Y-89296046D01*
X156073831Y-89296046D01*
X156654184Y-89875031D01*
X156654184Y-90454165D01*
X156073831Y-91033151D01*
G36*
X156073831Y-91033151D02*
G01*
X152592382Y-91033151D01*
X152592382Y-90454165D01*
X153172662Y-90454165D01*
X156073831Y-90454165D01*
X156073831Y-89875031D01*
X153172662Y-89875031D01*
X153172662Y-90454165D01*
X152592382Y-90454165D01*
X152592382Y-88716986D01*
X153172662Y-88138001D01*
X155493627Y-88138001D01*
X155493627Y-88716986D01*
X153172662Y-88716986D01*
X153172662Y-89296046D01*
X156073831Y-89296046D01*
X156654184Y-89875031D01*
X156654184Y-90454165D01*
X156073831Y-91033151D01*
G37*
X130734312Y-84120840D02*
X130676827Y-84139378D01*
X130619806Y-84158238D01*
X130563269Y-84177469D01*
X130619796Y-84158217D01*
X130676800Y-84139322D01*
X130734281Y-84120777D01*
X130792237Y-84102575D01*
X130734312Y-84120840D01*
G36*
X130734312Y-84120840D02*
G01*
X130676827Y-84139378D01*
X130619806Y-84158238D01*
X130563269Y-84177469D01*
X130619796Y-84158217D01*
X130676800Y-84139322D01*
X130734281Y-84120777D01*
X130792237Y-84102575D01*
X130734312Y-84120840D01*
G37*
X122341644Y-86891012D02*
X122397450Y-86914700D01*
X122453888Y-86937710D01*
X122510925Y-86960009D01*
X122568530Y-86981562D01*
X122626672Y-87002336D01*
X122685318Y-87022295D01*
X122744439Y-87041407D01*
X122740975Y-87124729D01*
X122739700Y-87166498D01*
X122739331Y-87187444D01*
X122739198Y-87208442D01*
X122743960Y-87416440D01*
X122758110Y-87622028D01*
X122781437Y-87825002D01*
X122813735Y-88025153D01*
X122854796Y-88222274D01*
X122904410Y-88416158D01*
X122962371Y-88606599D01*
X123028469Y-88793388D01*
X123102497Y-88976319D01*
X123184247Y-89155185D01*
X123273510Y-89329778D01*
X123370079Y-89499892D01*
X123473745Y-89665319D01*
X123584300Y-89825852D01*
X123701537Y-89981284D01*
X123825246Y-90131408D01*
X123955220Y-90276016D01*
X124091251Y-90414902D01*
X124233130Y-90547858D01*
X124380650Y-90674678D01*
X124533602Y-90795154D01*
X124691778Y-90909079D01*
X124854971Y-91016245D01*
X125022971Y-91116447D01*
X125195572Y-91209476D01*
X125372564Y-91295125D01*
X125553739Y-91373188D01*
X125738891Y-91443457D01*
X125927809Y-91505725D01*
X126120287Y-91559785D01*
X126316117Y-91605430D01*
X126515089Y-91642452D01*
X126543876Y-91884305D01*
X126570982Y-92119887D01*
X126345486Y-92084025D01*
X126123450Y-92038160D01*
X125905116Y-91982534D01*
X125690727Y-91917387D01*
X125480526Y-91842962D01*
X125274755Y-91759500D01*
X125073657Y-91667242D01*
X124877473Y-91566429D01*
X124686448Y-91457304D01*
X124500823Y-91340108D01*
X124320840Y-91215081D01*
X124146744Y-91082467D01*
X123978775Y-90942505D01*
X123817177Y-90795438D01*
X123662191Y-90641507D01*
X123514062Y-90480953D01*
X123373031Y-90314018D01*
X123239341Y-90140943D01*
X123113234Y-89961970D01*
X122994953Y-89777340D01*
X122884741Y-89587295D01*
X122782840Y-89392076D01*
X122689492Y-89191925D01*
X122604941Y-88987083D01*
X122529428Y-88777791D01*
X122463197Y-88564291D01*
X122406490Y-88346824D01*
X122359549Y-88125632D01*
X122322617Y-87900957D01*
X122295937Y-87673039D01*
X122279751Y-87442120D01*
X122274302Y-87208442D01*
X122275092Y-87122470D01*
X122277427Y-87036834D01*
X122281248Y-86951562D01*
X122286501Y-86866681D01*
X122341644Y-86891012D01*
G36*
X122341644Y-86891012D02*
G01*
X122397450Y-86914700D01*
X122453888Y-86937710D01*
X122510925Y-86960009D01*
X122568530Y-86981562D01*
X122626672Y-87002336D01*
X122685318Y-87022295D01*
X122744439Y-87041407D01*
X122740975Y-87124729D01*
X122739700Y-87166498D01*
X122739331Y-87187444D01*
X122739198Y-87208442D01*
X122743960Y-87416440D01*
X122758110Y-87622028D01*
X122781437Y-87825002D01*
X122813735Y-88025153D01*
X122854796Y-88222274D01*
X122904410Y-88416158D01*
X122962371Y-88606599D01*
X123028469Y-88793388D01*
X123102497Y-88976319D01*
X123184247Y-89155185D01*
X123273510Y-89329778D01*
X123370079Y-89499892D01*
X123473745Y-89665319D01*
X123584300Y-89825852D01*
X123701537Y-89981284D01*
X123825246Y-90131408D01*
X123955220Y-90276016D01*
X124091251Y-90414902D01*
X124233130Y-90547858D01*
X124380650Y-90674678D01*
X124533602Y-90795154D01*
X124691778Y-90909079D01*
X124854971Y-91016245D01*
X125022971Y-91116447D01*
X125195572Y-91209476D01*
X125372564Y-91295125D01*
X125553739Y-91373188D01*
X125738891Y-91443457D01*
X125927809Y-91505725D01*
X126120287Y-91559785D01*
X126316117Y-91605430D01*
X126515089Y-91642452D01*
X126543876Y-91884305D01*
X126570982Y-92119887D01*
X126345486Y-92084025D01*
X126123450Y-92038160D01*
X125905116Y-91982534D01*
X125690727Y-91917387D01*
X125480526Y-91842962D01*
X125274755Y-91759500D01*
X125073657Y-91667242D01*
X124877473Y-91566429D01*
X124686448Y-91457304D01*
X124500823Y-91340108D01*
X124320840Y-91215081D01*
X124146744Y-91082467D01*
X123978775Y-90942505D01*
X123817177Y-90795438D01*
X123662191Y-90641507D01*
X123514062Y-90480953D01*
X123373031Y-90314018D01*
X123239341Y-90140943D01*
X123113234Y-89961970D01*
X122994953Y-89777340D01*
X122884741Y-89587295D01*
X122782840Y-89392076D01*
X122689492Y-89191925D01*
X122604941Y-88987083D01*
X122529428Y-88777791D01*
X122463197Y-88564291D01*
X122406490Y-88346824D01*
X122359549Y-88125632D01*
X122322617Y-87900957D01*
X122295937Y-87673039D01*
X122279751Y-87442120D01*
X122274302Y-87208442D01*
X122275092Y-87122470D01*
X122277427Y-87036834D01*
X122281248Y-86951562D01*
X122286501Y-86866681D01*
X122341644Y-86891012D01*
G37*
X122540498Y-86598572D02*
X122542717Y-86599502D01*
X122544950Y-86600411D01*
X122542714Y-86599502D01*
X122540494Y-86598572D01*
X122536043Y-86596678D01*
X122540498Y-86598572D01*
G36*
X122540498Y-86598572D02*
G01*
X122542717Y-86599502D01*
X122544950Y-86600411D01*
X122542714Y-86599502D01*
X122540494Y-86598572D01*
X122536043Y-86596678D01*
X122540498Y-86598572D01*
G37*
X138086240Y-91033151D02*
X134604718Y-91033151D01*
X134604718Y-90454165D01*
X135184995Y-90454165D01*
X138086240Y-90454165D01*
X138086240Y-89875031D01*
X135184995Y-89875031D01*
X135184995Y-90454165D01*
X134604718Y-90454165D01*
X134604718Y-88716986D01*
X135184995Y-88138001D01*
X137505962Y-88138001D01*
X137505962Y-88716986D01*
X135184995Y-88716986D01*
X135184995Y-89296046D01*
X138086240Y-89296046D01*
X138666444Y-89875031D01*
X138666444Y-90454165D01*
X138086240Y-91033151D01*
G36*
X138086240Y-91033151D02*
G01*
X134604718Y-91033151D01*
X134604718Y-90454165D01*
X135184995Y-90454165D01*
X138086240Y-90454165D01*
X138086240Y-89875031D01*
X135184995Y-89875031D01*
X135184995Y-90454165D01*
X134604718Y-90454165D01*
X134604718Y-88716986D01*
X135184995Y-88138001D01*
X137505962Y-88138001D01*
X137505962Y-88716986D01*
X135184995Y-88716986D01*
X135184995Y-89296046D01*
X138086240Y-89296046D01*
X138666444Y-89875031D01*
X138666444Y-90454165D01*
X138086240Y-91033151D01*
G37*
X127889972Y-82292772D02*
X128113917Y-82327281D01*
X128334454Y-82371688D01*
X128551352Y-82425753D01*
X128764379Y-82489235D01*
X128973303Y-82561894D01*
X129177894Y-82643491D01*
X129377918Y-82733785D01*
X129573145Y-82832537D01*
X129763343Y-82939505D01*
X129948281Y-83054451D01*
X130127727Y-83177133D01*
X130301448Y-83307312D01*
X130469215Y-83444748D01*
X130630794Y-83589201D01*
X130785955Y-83740430D01*
X130658438Y-83779416D01*
X130533537Y-83820027D01*
X130411007Y-83862150D01*
X130290604Y-83905673D01*
X130155876Y-83786528D01*
X130016460Y-83672730D01*
X129872518Y-83564445D01*
X129724211Y-83461840D01*
X129571701Y-83365080D01*
X129415149Y-83274332D01*
X129254717Y-83189762D01*
X129090566Y-83111537D01*
X128922857Y-83039823D01*
X128751753Y-82974787D01*
X128577414Y-82916594D01*
X128400001Y-82865412D01*
X128219678Y-82821406D01*
X128036604Y-82784744D01*
X127850941Y-82755590D01*
X127662851Y-82734112D01*
X127662851Y-82268400D01*
X127889972Y-82292772D01*
G36*
X127889972Y-82292772D02*
G01*
X128113917Y-82327281D01*
X128334454Y-82371688D01*
X128551352Y-82425753D01*
X128764379Y-82489235D01*
X128973303Y-82561894D01*
X129177894Y-82643491D01*
X129377918Y-82733785D01*
X129573145Y-82832537D01*
X129763343Y-82939505D01*
X129948281Y-83054451D01*
X130127727Y-83177133D01*
X130301448Y-83307312D01*
X130469215Y-83444748D01*
X130630794Y-83589201D01*
X130785955Y-83740430D01*
X130658438Y-83779416D01*
X130533537Y-83820027D01*
X130411007Y-83862150D01*
X130290604Y-83905673D01*
X130155876Y-83786528D01*
X130016460Y-83672730D01*
X129872518Y-83564445D01*
X129724211Y-83461840D01*
X129571701Y-83365080D01*
X129415149Y-83274332D01*
X129254717Y-83189762D01*
X129090566Y-83111537D01*
X128922857Y-83039823D01*
X128751753Y-82974787D01*
X128577414Y-82916594D01*
X128400001Y-82865412D01*
X128219678Y-82821406D01*
X128036604Y-82784744D01*
X127850941Y-82755590D01*
X127662851Y-82734112D01*
X127662851Y-82268400D01*
X127889972Y-82292772D01*
G37*
X115819033Y-91033151D02*
X112917786Y-91033151D01*
X112337580Y-90454165D01*
X112917786Y-90454165D01*
X115819033Y-90454165D01*
X115819033Y-88716986D01*
X112917786Y-88716986D01*
X112917786Y-90454165D01*
X112337580Y-90454165D01*
X112337580Y-88716986D01*
X112917786Y-88138000D01*
X115819033Y-88138000D01*
X116399313Y-88716986D01*
X116399313Y-90454165D01*
X115819033Y-91033151D01*
G36*
X115819033Y-91033151D02*
G01*
X112917786Y-91033151D01*
X112337580Y-90454165D01*
X112917786Y-90454165D01*
X115819033Y-90454165D01*
X115819033Y-88716986D01*
X112917786Y-88716986D01*
X112917786Y-90454165D01*
X112337580Y-90454165D01*
X112337580Y-88716986D01*
X112917786Y-88138000D01*
X115819033Y-88138000D01*
X116399313Y-88716986D01*
X116399313Y-90454165D01*
X115819033Y-91033151D01*
G37*
X165938044Y-88716986D02*
X165938044Y-89296046D01*
X165357840Y-89875031D01*
X162456597Y-89875031D01*
X162456597Y-90454165D01*
X165938044Y-90454165D01*
X165938044Y-91033151D01*
X162456597Y-91033151D01*
X161876318Y-90454165D01*
X161876318Y-89875031D01*
X162456597Y-89296046D01*
X165357840Y-89296046D01*
X165357840Y-88716986D01*
X163036800Y-88716986D01*
X163036800Y-88138001D01*
X165357840Y-88138001D01*
X165938044Y-88716986D01*
G36*
X165938044Y-88716986D02*
G01*
X165938044Y-89296046D01*
X165357840Y-89875031D01*
X162456597Y-89875031D01*
X162456597Y-90454165D01*
X165938044Y-90454165D01*
X165938044Y-91033151D01*
X162456597Y-91033151D01*
X161876318Y-90454165D01*
X161876318Y-89875031D01*
X162456597Y-89296046D01*
X165357840Y-89296046D01*
X165357840Y-88716986D01*
X163036800Y-88716986D01*
X163036800Y-88138001D01*
X165357840Y-88138001D01*
X165938044Y-88716986D01*
G37*
X132047735Y-88463512D02*
X131993381Y-88654718D01*
X131931624Y-88842720D01*
X131862633Y-89027348D01*
X131786575Y-89208435D01*
X131703619Y-89385812D01*
X131613935Y-89559312D01*
X131517691Y-89728766D01*
X131415055Y-89894007D01*
X131306197Y-90054865D01*
X131191285Y-90211174D01*
X131070488Y-90362764D01*
X130943975Y-90509468D01*
X130811913Y-90651117D01*
X130674473Y-90787544D01*
X130531823Y-90918580D01*
X130384131Y-91044057D01*
X130231566Y-91163807D01*
X130074297Y-91277663D01*
X129912492Y-91385455D01*
X129746321Y-91487015D01*
X129575952Y-91582176D01*
X129401553Y-91670770D01*
X129223294Y-91752627D01*
X129041344Y-91827581D01*
X128855870Y-91895463D01*
X128667041Y-91956105D01*
X128475027Y-92009338D01*
X128279996Y-92054995D01*
X128082117Y-92092907D01*
X127881558Y-92122907D01*
X127678488Y-92144826D01*
X127668581Y-92027137D01*
X127659500Y-91911177D01*
X127651234Y-91796603D01*
X127643769Y-91683072D01*
X127978456Y-91640771D01*
X128305088Y-91574412D01*
X128622734Y-91484927D01*
X128930459Y-91373248D01*
X129227329Y-91240310D01*
X129512411Y-91087043D01*
X129784773Y-90914380D01*
X130043479Y-90723255D01*
X130287596Y-90514599D01*
X130516192Y-90289346D01*
X130728332Y-90048427D01*
X130923083Y-89792776D01*
X131099511Y-89523324D01*
X131256683Y-89241005D01*
X131393665Y-88946751D01*
X131509524Y-88641495D01*
X131585235Y-88598822D01*
X131660265Y-88554952D01*
X131734585Y-88509932D01*
X131808165Y-88463810D01*
X131880978Y-88416635D01*
X131952993Y-88368454D01*
X132024182Y-88319316D01*
X132094516Y-88269269D01*
X132047735Y-88463512D01*
G36*
X132047735Y-88463512D02*
G01*
X131993381Y-88654718D01*
X131931624Y-88842720D01*
X131862633Y-89027348D01*
X131786575Y-89208435D01*
X131703619Y-89385812D01*
X131613935Y-89559312D01*
X131517691Y-89728766D01*
X131415055Y-89894007D01*
X131306197Y-90054865D01*
X131191285Y-90211174D01*
X131070488Y-90362764D01*
X130943975Y-90509468D01*
X130811913Y-90651117D01*
X130674473Y-90787544D01*
X130531823Y-90918580D01*
X130384131Y-91044057D01*
X130231566Y-91163807D01*
X130074297Y-91277663D01*
X129912492Y-91385455D01*
X129746321Y-91487015D01*
X129575952Y-91582176D01*
X129401553Y-91670770D01*
X129223294Y-91752627D01*
X129041344Y-91827581D01*
X128855870Y-91895463D01*
X128667041Y-91956105D01*
X128475027Y-92009338D01*
X128279996Y-92054995D01*
X128082117Y-92092907D01*
X127881558Y-92122907D01*
X127678488Y-92144826D01*
X127668581Y-92027137D01*
X127659500Y-91911177D01*
X127651234Y-91796603D01*
X127643769Y-91683072D01*
X127978456Y-91640771D01*
X128305088Y-91574412D01*
X128622734Y-91484927D01*
X128930459Y-91373248D01*
X129227329Y-91240310D01*
X129512411Y-91087043D01*
X129784773Y-90914380D01*
X130043479Y-90723255D01*
X130287596Y-90514599D01*
X130516192Y-90289346D01*
X130728332Y-90048427D01*
X130923083Y-89792776D01*
X131099511Y-89523324D01*
X131256683Y-89241005D01*
X131393665Y-88946751D01*
X131509524Y-88641495D01*
X131585235Y-88598822D01*
X131660265Y-88554952D01*
X131734585Y-88509932D01*
X131808165Y-88463810D01*
X131880978Y-88416635D01*
X131952993Y-88368454D01*
X132024182Y-88319316D01*
X132094516Y-88269269D01*
X132047735Y-88463512D01*
G37*
X123930263Y-84325651D02*
X124031112Y-84372422D01*
X124131344Y-84421650D01*
X124231012Y-84473343D01*
X124330168Y-84527506D01*
X124428865Y-84584146D01*
X124527156Y-84643267D01*
X124625093Y-84704876D01*
X124722730Y-84768979D01*
X124820119Y-84835582D01*
X124917312Y-84904691D01*
X125014363Y-84976311D01*
X125208249Y-85127109D01*
X125402197Y-85288025D01*
X125427758Y-84909931D01*
X125434972Y-84828326D01*
X125444227Y-84751027D01*
X125456381Y-84677605D01*
X125472289Y-84607629D01*
X125492808Y-84540670D01*
X125518794Y-84476296D01*
X125534104Y-84444945D01*
X125551102Y-84414079D01*
X125569896Y-84383644D01*
X125590591Y-84353587D01*
X125613294Y-84323854D01*
X125638114Y-84294390D01*
X125665157Y-84265144D01*
X125694530Y-84236059D01*
X125726340Y-84207084D01*
X125760693Y-84178163D01*
X125837461Y-84120272D01*
X126097182Y-84970755D01*
X126211958Y-84826889D01*
X126336556Y-84678352D01*
X126402609Y-84603736D01*
X126471203Y-84529637D01*
X126542365Y-84456617D01*
X126616124Y-84385236D01*
X126692508Y-84316057D01*
X126771547Y-84249641D01*
X126853267Y-84186550D01*
X126937697Y-84127345D01*
X127024866Y-84072587D01*
X127114802Y-84022840D01*
X127207533Y-83978663D01*
X127254956Y-83958839D01*
X127303088Y-83940618D01*
X127297415Y-84142033D01*
X127284553Y-84329396D01*
X127265077Y-84503482D01*
X127239561Y-84665061D01*
X127208580Y-84814909D01*
X127172708Y-84953797D01*
X127132520Y-85082498D01*
X127088590Y-85201786D01*
X127041493Y-85312434D01*
X126991803Y-85415214D01*
X126886944Y-85600263D01*
X126778609Y-85763118D01*
X126671394Y-85909963D01*
X126569896Y-86046981D01*
X126478710Y-86180357D01*
X126402432Y-86316273D01*
X126371321Y-86387117D01*
X126345660Y-86460915D01*
X126326025Y-86538440D01*
X126312989Y-86620465D01*
X126307128Y-86707763D01*
X126309015Y-86801108D01*
X126319227Y-86901272D01*
X126338336Y-87009027D01*
X126366917Y-87125148D01*
X126405546Y-87250407D01*
X126452734Y-87400411D01*
X126494174Y-87550822D01*
X126531370Y-87702078D01*
X126565826Y-87854612D01*
X126632539Y-88165262D01*
X126667806Y-88324249D01*
X126706351Y-88486258D01*
X126860054Y-88062583D01*
X127021628Y-87662050D01*
X127191882Y-87284111D01*
X127371626Y-86928218D01*
X127561668Y-86593821D01*
X127762819Y-86280374D01*
X127975887Y-85987328D01*
X128201681Y-85714134D01*
X128441010Y-85460244D01*
X128694684Y-85225110D01*
X128963512Y-85008183D01*
X129248302Y-84808915D01*
X129549864Y-84626758D01*
X129869007Y-84461164D01*
X130206541Y-84311583D01*
X130563274Y-84177469D01*
X130619811Y-84158238D01*
X130676832Y-84139378D01*
X130734316Y-84120840D01*
X130792242Y-84102575D01*
X130816412Y-84095183D01*
X130873577Y-84077832D01*
X130931169Y-84060761D01*
X130989223Y-84044025D01*
X131047775Y-84027682D01*
X131428393Y-83931951D01*
X131828427Y-83848421D01*
X132248590Y-83776654D01*
X132689597Y-83716209D01*
X133152161Y-83666645D01*
X133636995Y-83627524D01*
X134144815Y-83598404D01*
X134676333Y-83578845D01*
X134674695Y-83581645D01*
X134672985Y-83584324D01*
X134671207Y-83586895D01*
X134669369Y-83589369D01*
X134665532Y-83594074D01*
X134661520Y-83598534D01*
X134644653Y-83615779D01*
X134640462Y-83620410D01*
X134636376Y-83625355D01*
X134634385Y-83627976D01*
X134632438Y-83630710D01*
X134630541Y-83633569D01*
X134628697Y-83636566D01*
X134626915Y-83639711D01*
X134625199Y-83643018D01*
X134623555Y-83646496D01*
X134621989Y-83650158D01*
X134620507Y-83654016D01*
X134619115Y-83658081D01*
X134617818Y-83662366D01*
X134616622Y-83666880D01*
X134108175Y-84251391D01*
X134038610Y-84342610D01*
X133974713Y-84431613D01*
X133862637Y-84603482D01*
X133769368Y-84768016D01*
X133692329Y-84926235D01*
X133628941Y-85079154D01*
X133576627Y-85227793D01*
X133532808Y-85373168D01*
X133494908Y-85516298D01*
X133426549Y-85799892D01*
X133390935Y-85942393D01*
X133350927Y-86086718D01*
X133303947Y-86233888D01*
X133247418Y-86384918D01*
X133178762Y-86540827D01*
X133095400Y-86702633D01*
X133055529Y-86772030D01*
X133013013Y-86841296D01*
X132967922Y-86910377D01*
X132920325Y-86979217D01*
X132870290Y-87047758D01*
X132817886Y-87115945D01*
X132763182Y-87183722D01*
X132706246Y-87251032D01*
X132647149Y-87317821D01*
X132585958Y-87384030D01*
X132522742Y-87449606D01*
X132457570Y-87514490D01*
X132390511Y-87578628D01*
X132321634Y-87641962D01*
X132251008Y-87704438D01*
X132178701Y-87765998D01*
X132115629Y-87817809D01*
X132051416Y-87868838D01*
X131986099Y-87919059D01*
X131919717Y-87968445D01*
X131852308Y-88016970D01*
X131783908Y-88064607D01*
X131714557Y-88111331D01*
X131644292Y-88157115D01*
X131483723Y-88256150D01*
X131319331Y-88349796D01*
X131151560Y-88437626D01*
X130980853Y-88519215D01*
X130894536Y-88557535D01*
X130807651Y-88594135D01*
X130720254Y-88628962D01*
X130632399Y-88661963D01*
X130544142Y-88693083D01*
X130455538Y-88722270D01*
X130366643Y-88749470D01*
X130277512Y-88774631D01*
X130144416Y-88809031D01*
X130018492Y-88838403D01*
X129899583Y-88862881D01*
X129787532Y-88882602D01*
X129682179Y-88897703D01*
X129583368Y-88908321D01*
X129490940Y-88914591D01*
X129404738Y-88916651D01*
X129287977Y-88912231D01*
X129184117Y-88899265D01*
X129092656Y-88878196D01*
X129013092Y-88849469D01*
X128944923Y-88813526D01*
X128887646Y-88770810D01*
X128840758Y-88721766D01*
X128803757Y-88666835D01*
X128776142Y-88606461D01*
X128757409Y-88541088D01*
X128747056Y-88471158D01*
X128744582Y-88397116D01*
X128749482Y-88319403D01*
X128761256Y-88238464D01*
X128779401Y-88154742D01*
X128803413Y-88068679D01*
X128832792Y-87980720D01*
X128867035Y-87891307D01*
X128905639Y-87800884D01*
X128948102Y-87709893D01*
X129042595Y-87527984D01*
X129146495Y-87349126D01*
X129255784Y-87176863D01*
X129366442Y-87014744D01*
X129474450Y-86866312D01*
X129575790Y-86735115D01*
X129753669Y-86524080D01*
X129936001Y-86330360D01*
X130121790Y-86152601D01*
X130310036Y-85989448D01*
X130499742Y-85839545D01*
X130689909Y-85701539D01*
X130879539Y-85574074D01*
X131067634Y-85455797D01*
X131435226Y-85241385D01*
X131784699Y-85047465D01*
X132108067Y-84863200D01*
X132257466Y-84771302D01*
X132397345Y-84677753D01*
X132172378Y-84711393D01*
X131946165Y-84758785D01*
X131719246Y-84819547D01*
X131492162Y-84893293D01*
X131265455Y-84979640D01*
X131039666Y-85078205D01*
X130815334Y-85188604D01*
X130593003Y-85310454D01*
X130373211Y-85443369D01*
X130156501Y-85586968D01*
X129943414Y-85740866D01*
X129734490Y-85904679D01*
X129530270Y-86078023D01*
X129331295Y-86260516D01*
X129138107Y-86451773D01*
X128951246Y-86651411D01*
X128771253Y-86859045D01*
X128598670Y-87074293D01*
X128434037Y-87296770D01*
X128277895Y-87526093D01*
X128130786Y-87761878D01*
X127993250Y-88003742D01*
X127865827Y-88251300D01*
X127749061Y-88504169D01*
X127643490Y-88761966D01*
X127549656Y-89024306D01*
X127468101Y-89290806D01*
X127399365Y-89561082D01*
X127343989Y-89834751D01*
X127302514Y-90111428D01*
X127275481Y-90390731D01*
X127263432Y-90672275D01*
X127268164Y-90876137D01*
X127284654Y-91190359D01*
X127341401Y-92011813D01*
X127353822Y-92164017D01*
X127410662Y-92860498D01*
X127469430Y-93460275D01*
X127035213Y-93158537D01*
X126873196Y-91701292D01*
X127290215Y-91701292D01*
X127301823Y-91929892D01*
X127315731Y-92164540D01*
X127330096Y-92164017D01*
X127320103Y-92045428D01*
X127310987Y-91928996D01*
X127302726Y-91814355D01*
X127295301Y-91701142D01*
X127290215Y-91701292D01*
X126873196Y-91701292D01*
X126870384Y-91676000D01*
X126760200Y-90824093D01*
X126624707Y-89946508D01*
X126458808Y-89079305D01*
X126362863Y-88660865D01*
X126257405Y-88258542D01*
X126141796Y-87876845D01*
X126015401Y-87520281D01*
X125877580Y-87193358D01*
X125727699Y-86900582D01*
X125678711Y-86819524D01*
X125622469Y-86735620D01*
X125489317Y-86560609D01*
X125330437Y-86378225D01*
X125148024Y-86191145D01*
X124944276Y-86002042D01*
X124721387Y-85813595D01*
X124481552Y-85628477D01*
X124226968Y-85449366D01*
X123959829Y-85278937D01*
X123682333Y-85119866D01*
X123396673Y-84974829D01*
X123251468Y-84908409D01*
X123105046Y-84846501D01*
X122957681Y-84789439D01*
X122809647Y-84737558D01*
X122661219Y-84691193D01*
X122512672Y-84650677D01*
X122364280Y-84616346D01*
X122216317Y-84588533D01*
X122069057Y-84567574D01*
X121922776Y-84553802D01*
X123473113Y-85254059D01*
X123711571Y-85386701D01*
X123937645Y-85530148D01*
X124144640Y-85684636D01*
X124238891Y-85766092D01*
X124325863Y-85850397D01*
X124404719Y-85937579D01*
X124474622Y-86027668D01*
X124534736Y-86120692D01*
X124584223Y-86216681D01*
X124622247Y-86315665D01*
X124647972Y-86417673D01*
X124660561Y-86522733D01*
X124659177Y-86630876D01*
X124604693Y-86659660D01*
X124549546Y-86686286D01*
X124493776Y-86710795D01*
X124437420Y-86733229D01*
X124380516Y-86753630D01*
X124323103Y-86772038D01*
X124265218Y-86788496D01*
X124206900Y-86803045D01*
X124148186Y-86815727D01*
X124089115Y-86826583D01*
X124029725Y-86835655D01*
X123970053Y-86842984D01*
X123910138Y-86848612D01*
X123850017Y-86852581D01*
X123789730Y-86854931D01*
X123729313Y-86855706D01*
X123667686Y-86854909D01*
X123606016Y-86852550D01*
X123544343Y-86848676D01*
X123482705Y-86843331D01*
X123421142Y-86836563D01*
X123359694Y-86828418D01*
X123237298Y-86808179D01*
X123115831Y-86782983D01*
X122995609Y-86753201D01*
X122876947Y-86719201D01*
X122760159Y-86681353D01*
X122705518Y-86662185D01*
X122651405Y-86642310D01*
X122597869Y-86621721D01*
X122544959Y-86600412D01*
X122542726Y-86599503D01*
X122540507Y-86598573D01*
X122536051Y-86596678D01*
X122483281Y-86574309D01*
X122431183Y-86551345D01*
X122379815Y-86527806D01*
X122329234Y-86503715D01*
X122233083Y-86455334D01*
X122140220Y-86405358D01*
X122050918Y-86354068D01*
X121965447Y-86301744D01*
X121884080Y-86248668D01*
X121807089Y-86195120D01*
X121734746Y-86141381D01*
X121667321Y-86087733D01*
X121585382Y-86018733D01*
X121512899Y-85954647D01*
X121448707Y-85894504D01*
X121391640Y-85837332D01*
X121340533Y-85782159D01*
X121294219Y-85728014D01*
X121251533Y-85673926D01*
X121211308Y-85618922D01*
X121172380Y-85562032D01*
X121133582Y-85502284D01*
X121051713Y-85370327D01*
X120956375Y-85215280D01*
X120900741Y-85126669D01*
X120838242Y-85029371D01*
X120804598Y-84978956D01*
X120771591Y-84932014D01*
X120739165Y-84888351D01*
X120707268Y-84847773D01*
X120675845Y-84810088D01*
X120644842Y-84775101D01*
X120614206Y-84742619D01*
X120583881Y-84712450D01*
X120553813Y-84684399D01*
X120523950Y-84658274D01*
X120464618Y-84611027D01*
X120405451Y-84569162D01*
X120346018Y-84531131D01*
X120096958Y-84386423D01*
X120029698Y-84344366D01*
X119959575Y-84296864D01*
X119886155Y-84242369D01*
X119809007Y-84179336D01*
X120095404Y-84114761D01*
X120373324Y-84058754D01*
X120643130Y-84011326D01*
X120905183Y-83972493D01*
X121159846Y-83942266D01*
X121407481Y-83920660D01*
X121648450Y-83907686D01*
X121883115Y-83903359D01*
X122081540Y-83906650D01*
X122275715Y-83916516D01*
X122465883Y-83932942D01*
X122652284Y-83955917D01*
X122835161Y-83985426D01*
X123014753Y-84021456D01*
X123191303Y-84063995D01*
X123365052Y-84113030D01*
X123423964Y-84131345D01*
X123482588Y-84150447D01*
X123540931Y-84170331D01*
X123599001Y-84190993D01*
X123656808Y-84212429D01*
X123714362Y-84234634D01*
X123771672Y-84257603D01*
X123828748Y-84281334D01*
X123828747Y-84281335D01*
X123828744Y-84281334D01*
X123827994Y-84282080D01*
X123770920Y-84258407D01*
X123713602Y-84235491D01*
X123656035Y-84213337D01*
X123598210Y-84191946D01*
X123540118Y-84171322D01*
X123481751Y-84151467D01*
X123423100Y-84132384D01*
X123364155Y-84114075D01*
X123364266Y-84113960D01*
X123364378Y-84113839D01*
X123364490Y-84113712D01*
X123364602Y-84113581D01*
X123364826Y-84113309D01*
X123365052Y-84113030D01*
X123365047Y-84113029D01*
X123364822Y-84113308D01*
X123364709Y-84113445D01*
X123364597Y-84113580D01*
X123364485Y-84113711D01*
X123364373Y-84113838D01*
X123364262Y-84113959D01*
X123364150Y-84114074D01*
X123423094Y-84132383D01*
X123481744Y-84151466D01*
X123540111Y-84171321D01*
X123598202Y-84191945D01*
X123656027Y-84213336D01*
X123713595Y-84235490D01*
X123770914Y-84258406D01*
X123827993Y-84282080D01*
X123827998Y-84282081D01*
X123827996Y-84282080D01*
X123827998Y-84282080D01*
X123828747Y-84281335D01*
X123830456Y-84282081D01*
X123930263Y-84325651D01*
G36*
X123930263Y-84325651D02*
G01*
X124031112Y-84372422D01*
X124131344Y-84421650D01*
X124231012Y-84473343D01*
X124330168Y-84527506D01*
X124428865Y-84584146D01*
X124527156Y-84643267D01*
X124625093Y-84704876D01*
X124722730Y-84768979D01*
X124820119Y-84835582D01*
X124917312Y-84904691D01*
X125014363Y-84976311D01*
X125208249Y-85127109D01*
X125402197Y-85288025D01*
X125427758Y-84909931D01*
X125434972Y-84828326D01*
X125444227Y-84751027D01*
X125456381Y-84677605D01*
X125472289Y-84607629D01*
X125492808Y-84540670D01*
X125518794Y-84476296D01*
X125534104Y-84444945D01*
X125551102Y-84414079D01*
X125569896Y-84383644D01*
X125590591Y-84353587D01*
X125613294Y-84323854D01*
X125638114Y-84294390D01*
X125665157Y-84265144D01*
X125694530Y-84236059D01*
X125726340Y-84207084D01*
X125760693Y-84178163D01*
X125837461Y-84120272D01*
X126097182Y-84970755D01*
X126211958Y-84826889D01*
X126336556Y-84678352D01*
X126402609Y-84603736D01*
X126471203Y-84529637D01*
X126542365Y-84456617D01*
X126616124Y-84385236D01*
X126692508Y-84316057D01*
X126771547Y-84249641D01*
X126853267Y-84186550D01*
X126937697Y-84127345D01*
X127024866Y-84072587D01*
X127114802Y-84022840D01*
X127207533Y-83978663D01*
X127254956Y-83958839D01*
X127303088Y-83940618D01*
X127297415Y-84142033D01*
X127284553Y-84329396D01*
X127265077Y-84503482D01*
X127239561Y-84665061D01*
X127208580Y-84814909D01*
X127172708Y-84953797D01*
X127132520Y-85082498D01*
X127088590Y-85201786D01*
X127041493Y-85312434D01*
X126991803Y-85415214D01*
X126886944Y-85600263D01*
X126778609Y-85763118D01*
X126671394Y-85909963D01*
X126569896Y-86046981D01*
X126478710Y-86180357D01*
X126402432Y-86316273D01*
X126371321Y-86387117D01*
X126345660Y-86460915D01*
X126326025Y-86538440D01*
X126312989Y-86620465D01*
X126307128Y-86707763D01*
X126309015Y-86801108D01*
X126319227Y-86901272D01*
X126338336Y-87009027D01*
X126366917Y-87125148D01*
X126405546Y-87250407D01*
X126452734Y-87400411D01*
X126494174Y-87550822D01*
X126531370Y-87702078D01*
X126565826Y-87854612D01*
X126632539Y-88165262D01*
X126667806Y-88324249D01*
X126706351Y-88486258D01*
X126860054Y-88062583D01*
X127021628Y-87662050D01*
X127191882Y-87284111D01*
X127371626Y-86928218D01*
X127561668Y-86593821D01*
X127762819Y-86280374D01*
X127975887Y-85987328D01*
X128201681Y-85714134D01*
X128441010Y-85460244D01*
X128694684Y-85225110D01*
X128963512Y-85008183D01*
X129248302Y-84808915D01*
X129549864Y-84626758D01*
X129869007Y-84461164D01*
X130206541Y-84311583D01*
X130563274Y-84177469D01*
X130619811Y-84158238D01*
X130676832Y-84139378D01*
X130734316Y-84120840D01*
X130792242Y-84102575D01*
X130816412Y-84095183D01*
X130873577Y-84077832D01*
X130931169Y-84060761D01*
X130989223Y-84044025D01*
X131047775Y-84027682D01*
X131428393Y-83931951D01*
X131828427Y-83848421D01*
X132248590Y-83776654D01*
X132689597Y-83716209D01*
X133152161Y-83666645D01*
X133636995Y-83627524D01*
X134144815Y-83598404D01*
X134676333Y-83578845D01*
X134674695Y-83581645D01*
X134672985Y-83584324D01*
X134671207Y-83586895D01*
X134669369Y-83589369D01*
X134665532Y-83594074D01*
X134661520Y-83598534D01*
X134644653Y-83615779D01*
X134640462Y-83620410D01*
X134636376Y-83625355D01*
X134634385Y-83627976D01*
X134632438Y-83630710D01*
X134630541Y-83633569D01*
X134628697Y-83636566D01*
X134626915Y-83639711D01*
X134625199Y-83643018D01*
X134623555Y-83646496D01*
X134621989Y-83650158D01*
X134620507Y-83654016D01*
X134619115Y-83658081D01*
X134617818Y-83662366D01*
X134616622Y-83666880D01*
X134108175Y-84251391D01*
X134038610Y-84342610D01*
X133974713Y-84431613D01*
X133862637Y-84603482D01*
X133769368Y-84768016D01*
X133692329Y-84926235D01*
X133628941Y-85079154D01*
X133576627Y-85227793D01*
X133532808Y-85373168D01*
X133494908Y-85516298D01*
X133426549Y-85799892D01*
X133390935Y-85942393D01*
X133350927Y-86086718D01*
X133303947Y-86233888D01*
X133247418Y-86384918D01*
X133178762Y-86540827D01*
X133095400Y-86702633D01*
X133055529Y-86772030D01*
X133013013Y-86841296D01*
X132967922Y-86910377D01*
X132920325Y-86979217D01*
X132870290Y-87047758D01*
X132817886Y-87115945D01*
X132763182Y-87183722D01*
X132706246Y-87251032D01*
X132647149Y-87317821D01*
X132585958Y-87384030D01*
X132522742Y-87449606D01*
X132457570Y-87514490D01*
X132390511Y-87578628D01*
X132321634Y-87641962D01*
X132251008Y-87704438D01*
X132178701Y-87765998D01*
X132115629Y-87817809D01*
X132051416Y-87868838D01*
X131986099Y-87919059D01*
X131919717Y-87968445D01*
X131852308Y-88016970D01*
X131783908Y-88064607D01*
X131714557Y-88111331D01*
X131644292Y-88157115D01*
X131483723Y-88256150D01*
X131319331Y-88349796D01*
X131151560Y-88437626D01*
X130980853Y-88519215D01*
X130894536Y-88557535D01*
X130807651Y-88594135D01*
X130720254Y-88628962D01*
X130632399Y-88661963D01*
X130544142Y-88693083D01*
X130455538Y-88722270D01*
X130366643Y-88749470D01*
X130277512Y-88774631D01*
X130144416Y-88809031D01*
X130018492Y-88838403D01*
X129899583Y-88862881D01*
X129787532Y-88882602D01*
X129682179Y-88897703D01*
X129583368Y-88908321D01*
X129490940Y-88914591D01*
X129404738Y-88916651D01*
X129287977Y-88912231D01*
X129184117Y-88899265D01*
X129092656Y-88878196D01*
X129013092Y-88849469D01*
X128944923Y-88813526D01*
X128887646Y-88770810D01*
X128840758Y-88721766D01*
X128803757Y-88666835D01*
X128776142Y-88606461D01*
X128757409Y-88541088D01*
X128747056Y-88471158D01*
X128744582Y-88397116D01*
X128749482Y-88319403D01*
X128761256Y-88238464D01*
X128779401Y-88154742D01*
X128803413Y-88068679D01*
X128832792Y-87980720D01*
X128867035Y-87891307D01*
X128905639Y-87800884D01*
X128948102Y-87709893D01*
X129042595Y-87527984D01*
X129146495Y-87349126D01*
X129255784Y-87176863D01*
X129366442Y-87014744D01*
X129474450Y-86866312D01*
X129575790Y-86735115D01*
X129753669Y-86524080D01*
X129936001Y-86330360D01*
X130121790Y-86152601D01*
X130310036Y-85989448D01*
X130499742Y-85839545D01*
X130689909Y-85701539D01*
X130879539Y-85574074D01*
X131067634Y-85455797D01*
X131435226Y-85241385D01*
X131784699Y-85047465D01*
X132108067Y-84863200D01*
X132257466Y-84771302D01*
X132397345Y-84677753D01*
X132172378Y-84711393D01*
X131946165Y-84758785D01*
X131719246Y-84819547D01*
X131492162Y-84893293D01*
X131265455Y-84979640D01*
X131039666Y-85078205D01*
X130815334Y-85188604D01*
X130593003Y-85310454D01*
X130373211Y-85443369D01*
X130156501Y-85586968D01*
X129943414Y-85740866D01*
X129734490Y-85904679D01*
X129530270Y-86078023D01*
X129331295Y-86260516D01*
X129138107Y-86451773D01*
X128951246Y-86651411D01*
X128771253Y-86859045D01*
X128598670Y-87074293D01*
X128434037Y-87296770D01*
X128277895Y-87526093D01*
X128130786Y-87761878D01*
X127993250Y-88003742D01*
X127865827Y-88251300D01*
X127749061Y-88504169D01*
X127643490Y-88761966D01*
X127549656Y-89024306D01*
X127468101Y-89290806D01*
X127399365Y-89561082D01*
X127343989Y-89834751D01*
X127302514Y-90111428D01*
X127275481Y-90390731D01*
X127263432Y-90672275D01*
X127268164Y-90876137D01*
X127284654Y-91190359D01*
X127341401Y-92011813D01*
X127353822Y-92164017D01*
X127410662Y-92860498D01*
X127469430Y-93460275D01*
X127035213Y-93158537D01*
X126873196Y-91701292D01*
X127290215Y-91701292D01*
X127301823Y-91929892D01*
X127315731Y-92164540D01*
X127330096Y-92164017D01*
X127320103Y-92045428D01*
X127310987Y-91928996D01*
X127302726Y-91814355D01*
X127295301Y-91701142D01*
X127290215Y-91701292D01*
X126873196Y-91701292D01*
X126870384Y-91676000D01*
X126760200Y-90824093D01*
X126624707Y-89946508D01*
X126458808Y-89079305D01*
X126362863Y-88660865D01*
X126257405Y-88258542D01*
X126141796Y-87876845D01*
X126015401Y-87520281D01*
X125877580Y-87193358D01*
X125727699Y-86900582D01*
X125678711Y-86819524D01*
X125622469Y-86735620D01*
X125489317Y-86560609D01*
X125330437Y-86378225D01*
X125148024Y-86191145D01*
X124944276Y-86002042D01*
X124721387Y-85813595D01*
X124481552Y-85628477D01*
X124226968Y-85449366D01*
X123959829Y-85278937D01*
X123682333Y-85119866D01*
X123396673Y-84974829D01*
X123251468Y-84908409D01*
X123105046Y-84846501D01*
X122957681Y-84789439D01*
X122809647Y-84737558D01*
X122661219Y-84691193D01*
X122512672Y-84650677D01*
X122364280Y-84616346D01*
X122216317Y-84588533D01*
X122069057Y-84567574D01*
X121922776Y-84553802D01*
X123473113Y-85254059D01*
X123711571Y-85386701D01*
X123937645Y-85530148D01*
X124144640Y-85684636D01*
X124238891Y-85766092D01*
X124325863Y-85850397D01*
X124404719Y-85937579D01*
X124474622Y-86027668D01*
X124534736Y-86120692D01*
X124584223Y-86216681D01*
X124622247Y-86315665D01*
X124647972Y-86417673D01*
X124660561Y-86522733D01*
X124659177Y-86630876D01*
X124604693Y-86659660D01*
X124549546Y-86686286D01*
X124493776Y-86710795D01*
X124437420Y-86733229D01*
X124380516Y-86753630D01*
X124323103Y-86772038D01*
X124265218Y-86788496D01*
X124206900Y-86803045D01*
X124148186Y-86815727D01*
X124089115Y-86826583D01*
X124029725Y-86835655D01*
X123970053Y-86842984D01*
X123910138Y-86848612D01*
X123850017Y-86852581D01*
X123789730Y-86854931D01*
X123729313Y-86855706D01*
X123667686Y-86854909D01*
X123606016Y-86852550D01*
X123544343Y-86848676D01*
X123482705Y-86843331D01*
X123421142Y-86836563D01*
X123359694Y-86828418D01*
X123237298Y-86808179D01*
X123115831Y-86782983D01*
X122995609Y-86753201D01*
X122876947Y-86719201D01*
X122760159Y-86681353D01*
X122705518Y-86662185D01*
X122651405Y-86642310D01*
X122597869Y-86621721D01*
X122544959Y-86600412D01*
X122542726Y-86599503D01*
X122540507Y-86598573D01*
X122536051Y-86596678D01*
X122483281Y-86574309D01*
X122431183Y-86551345D01*
X122379815Y-86527806D01*
X122329234Y-86503715D01*
X122233083Y-86455334D01*
X122140220Y-86405358D01*
X122050918Y-86354068D01*
X121965447Y-86301744D01*
X121884080Y-86248668D01*
X121807089Y-86195120D01*
X121734746Y-86141381D01*
X121667321Y-86087733D01*
X121585382Y-86018733D01*
X121512899Y-85954647D01*
X121448707Y-85894504D01*
X121391640Y-85837332D01*
X121340533Y-85782159D01*
X121294219Y-85728014D01*
X121251533Y-85673926D01*
X121211308Y-85618922D01*
X121172380Y-85562032D01*
X121133582Y-85502284D01*
X121051713Y-85370327D01*
X120956375Y-85215280D01*
X120900741Y-85126669D01*
X120838242Y-85029371D01*
X120804598Y-84978956D01*
X120771591Y-84932014D01*
X120739165Y-84888351D01*
X120707268Y-84847773D01*
X120675845Y-84810088D01*
X120644842Y-84775101D01*
X120614206Y-84742619D01*
X120583881Y-84712450D01*
X120553813Y-84684399D01*
X120523950Y-84658274D01*
X120464618Y-84611027D01*
X120405451Y-84569162D01*
X120346018Y-84531131D01*
X120096958Y-84386423D01*
X120029698Y-84344366D01*
X119959575Y-84296864D01*
X119886155Y-84242369D01*
X119809007Y-84179336D01*
X120095404Y-84114761D01*
X120373324Y-84058754D01*
X120643130Y-84011326D01*
X120905183Y-83972493D01*
X121159846Y-83942266D01*
X121407481Y-83920660D01*
X121648450Y-83907686D01*
X121883115Y-83903359D01*
X122081540Y-83906650D01*
X122275715Y-83916516D01*
X122465883Y-83932942D01*
X122652284Y-83955917D01*
X122835161Y-83985426D01*
X123014753Y-84021456D01*
X123191303Y-84063995D01*
X123365052Y-84113030D01*
X123423964Y-84131345D01*
X123482588Y-84150447D01*
X123540931Y-84170331D01*
X123599001Y-84190993D01*
X123656808Y-84212429D01*
X123714362Y-84234634D01*
X123771672Y-84257603D01*
X123828748Y-84281334D01*
X123828747Y-84281335D01*
X123828744Y-84281334D01*
X123827994Y-84282080D01*
X123770920Y-84258407D01*
X123713602Y-84235491D01*
X123656035Y-84213337D01*
X123598210Y-84191946D01*
X123540118Y-84171322D01*
X123481751Y-84151467D01*
X123423100Y-84132384D01*
X123364155Y-84114075D01*
X123364266Y-84113960D01*
X123364378Y-84113839D01*
X123364490Y-84113712D01*
X123364602Y-84113581D01*
X123364826Y-84113309D01*
X123365052Y-84113030D01*
X123365047Y-84113029D01*
X123364822Y-84113308D01*
X123364709Y-84113445D01*
X123364597Y-84113580D01*
X123364485Y-84113711D01*
X123364373Y-84113838D01*
X123364262Y-84113959D01*
X123364150Y-84114074D01*
X123423094Y-84132383D01*
X123481744Y-84151466D01*
X123540111Y-84171321D01*
X123598202Y-84191945D01*
X123656027Y-84213336D01*
X123713595Y-84235490D01*
X123770914Y-84258406D01*
X123827993Y-84282080D01*
X123827998Y-84282081D01*
X123827996Y-84282080D01*
X123827998Y-84282080D01*
X123828747Y-84281335D01*
X123830456Y-84282081D01*
X123930263Y-84325651D01*
G37*
X92609165Y-88716986D02*
X92609165Y-89296046D01*
X92028959Y-89875031D01*
X89127717Y-89875031D01*
X89127717Y-90454165D01*
X92609161Y-90454165D01*
X92609161Y-91033151D01*
X89127717Y-91033151D01*
X88547437Y-90454165D01*
X88547437Y-89875031D01*
X89127717Y-89296046D01*
X92028959Y-89296046D01*
X92028959Y-88716986D01*
X89707919Y-88716986D01*
X89707919Y-88138001D01*
X92028959Y-88138001D01*
X92609165Y-88716986D01*
G36*
X92609165Y-88716986D02*
G01*
X92609165Y-89296046D01*
X92028959Y-89875031D01*
X89127717Y-89875031D01*
X89127717Y-90454165D01*
X92609161Y-90454165D01*
X92609161Y-91033151D01*
X89127717Y-91033151D01*
X88547437Y-90454165D01*
X88547437Y-89875031D01*
X89127717Y-89296046D01*
X92028959Y-89296046D01*
X92028959Y-88716986D01*
X89707919Y-88716986D01*
X89707919Y-88138001D01*
X92028959Y-88138001D01*
X92609165Y-88716986D01*
G37*
X130792238Y-84102575D02*
X130798266Y-84100696D01*
X130804323Y-84098851D01*
X130816408Y-84095183D01*
X130792238Y-84102575D01*
G36*
X130792238Y-84102575D02*
G01*
X130798266Y-84100696D01*
X130804323Y-84098851D01*
X130816408Y-84095183D01*
X130792238Y-84102575D01*
G37*
X152012178Y-91033151D02*
X151431900Y-91033151D01*
X151431900Y-88716986D01*
X148530731Y-88716986D01*
X148530731Y-91033151D01*
X147950377Y-91033151D01*
X147950377Y-88716986D01*
X148530731Y-88138000D01*
X152012178Y-88138000D01*
X152012178Y-91033151D01*
G36*
X152012178Y-91033151D02*
G01*
X151431900Y-91033151D01*
X151431900Y-88716986D01*
X148530731Y-88716986D01*
X148530731Y-91033151D01*
X147950377Y-91033151D01*
X147950377Y-88716986D01*
X148530731Y-88138000D01*
X152012178Y-88138000D01*
X152012178Y-91033151D01*
G37*
X98411645Y-91033151D02*
X95510476Y-91033151D01*
X94930196Y-90454165D01*
X95510476Y-90454165D01*
X98411645Y-90454165D01*
X98411645Y-88716986D01*
X95510476Y-88716986D01*
X95510476Y-90454165D01*
X94930196Y-90454165D01*
X94930196Y-88716986D01*
X95510476Y-88138000D01*
X98411645Y-88138000D01*
X98991851Y-88716986D01*
X98991851Y-90454165D01*
X98411645Y-91033151D01*
G36*
X98411645Y-91033151D02*
G01*
X95510476Y-91033151D01*
X94930196Y-90454165D01*
X95510476Y-90454165D01*
X98411645Y-90454165D01*
X98411645Y-88716986D01*
X95510476Y-88716986D01*
X95510476Y-90454165D01*
X94930196Y-90454165D01*
X94930196Y-88716986D01*
X95510476Y-88138000D01*
X98411645Y-88138000D01*
X98991851Y-88716986D01*
X98991851Y-90454165D01*
X98411645Y-91033151D01*
G37*
X103053652Y-88716986D02*
X103053652Y-91033151D01*
X102473373Y-91033151D01*
X102473373Y-88716986D01*
X99572131Y-88716986D01*
X99572131Y-88138000D01*
X102473373Y-88138000D01*
X103053652Y-88716986D01*
G36*
X103053652Y-88716986D02*
G01*
X103053652Y-91033151D01*
X102473373Y-91033151D01*
X102473373Y-88716986D01*
X99572131Y-88716986D01*
X99572131Y-88138000D01*
X102473373Y-88138000D01*
X103053652Y-88716986D01*
G37*
X106535096Y-88138000D02*
X107115376Y-88138000D01*
X107115376Y-88716986D01*
X106535096Y-88716986D01*
X106535096Y-90454165D01*
X105954821Y-91033151D01*
X103633854Y-91033151D01*
X103633854Y-90454165D01*
X105954821Y-90454165D01*
X105954821Y-88716986D01*
X104214133Y-88716986D01*
X104214133Y-88138000D01*
X105954821Y-88138000D01*
X105954821Y-87559015D01*
X106535096Y-87559015D01*
X106535096Y-88138000D01*
G36*
X106535096Y-88138000D02*
G01*
X107115376Y-88138000D01*
X107115376Y-88716986D01*
X106535096Y-88716986D01*
X106535096Y-90454165D01*
X105954821Y-91033151D01*
X103633854Y-91033151D01*
X103633854Y-90454165D01*
X105954821Y-90454165D01*
X105954821Y-88716986D01*
X104214133Y-88716986D01*
X104214133Y-88138000D01*
X105954821Y-88138000D01*
X105954821Y-87559015D01*
X106535096Y-87559015D01*
X106535096Y-88138000D01*
G37*
X126822477Y-82734112D02*
X126624244Y-82756961D01*
X126428712Y-82788331D01*
X126236072Y-82828029D01*
X126046513Y-82875859D01*
X125860225Y-82931626D01*
X125677399Y-82995134D01*
X125498223Y-83066190D01*
X125322889Y-83144597D01*
X125151586Y-83230161D01*
X124984503Y-83322687D01*
X124821832Y-83421980D01*
X124663761Y-83527845D01*
X124510482Y-83640087D01*
X124362183Y-83758510D01*
X124219055Y-83882920D01*
X124081287Y-84013122D01*
X124023441Y-83987347D01*
X123965450Y-83962332D01*
X123907310Y-83938081D01*
X123849016Y-83914595D01*
X123790565Y-83891880D01*
X123731952Y-83869939D01*
X123673173Y-83848774D01*
X123614222Y-83828390D01*
X123771112Y-83668092D01*
X123935026Y-83514930D01*
X124105706Y-83369169D01*
X124282893Y-83231074D01*
X124466328Y-83100912D01*
X124655752Y-82978946D01*
X124850907Y-82865442D01*
X125051534Y-82760666D01*
X125257374Y-82664883D01*
X125468168Y-82578357D01*
X125683657Y-82501355D01*
X125903583Y-82434141D01*
X126127687Y-82376981D01*
X126355710Y-82330140D01*
X126587393Y-82293882D01*
X126822477Y-82268474D01*
X126822477Y-82734112D01*
G36*
X126822477Y-82734112D02*
G01*
X126624244Y-82756961D01*
X126428712Y-82788331D01*
X126236072Y-82828029D01*
X126046513Y-82875859D01*
X125860225Y-82931626D01*
X125677399Y-82995134D01*
X125498223Y-83066190D01*
X125322889Y-83144597D01*
X125151586Y-83230161D01*
X124984503Y-83322687D01*
X124821832Y-83421980D01*
X124663761Y-83527845D01*
X124510482Y-83640087D01*
X124362183Y-83758510D01*
X124219055Y-83882920D01*
X124081287Y-84013122D01*
X124023441Y-83987347D01*
X123965450Y-83962332D01*
X123907310Y-83938081D01*
X123849016Y-83914595D01*
X123790565Y-83891880D01*
X123731952Y-83869939D01*
X123673173Y-83848774D01*
X123614222Y-83828390D01*
X123771112Y-83668092D01*
X123935026Y-83514930D01*
X124105706Y-83369169D01*
X124282893Y-83231074D01*
X124466328Y-83100912D01*
X124655752Y-82978946D01*
X124850907Y-82865442D01*
X125051534Y-82760666D01*
X125257374Y-82664883D01*
X125468168Y-82578357D01*
X125683657Y-82501355D01*
X125903583Y-82434141D01*
X126127687Y-82376981D01*
X126355710Y-82330140D01*
X126587393Y-82293882D01*
X126822477Y-82268474D01*
X126822477Y-82734112D01*
G37*
X94349917Y-90454165D02*
X93769642Y-91033151D01*
X93189436Y-91033151D01*
X93189436Y-90454165D01*
X93769642Y-90454165D01*
X93769642Y-86979955D01*
X94349917Y-86979955D01*
X94349917Y-90454165D01*
G36*
X94349917Y-90454165D02*
G01*
X93769642Y-91033151D01*
X93189436Y-91033151D01*
X93189436Y-90454165D01*
X93769642Y-90454165D01*
X93769642Y-86979955D01*
X94349917Y-86979955D01*
X94349917Y-90454165D01*
G37*
D11*
X165823441Y-95524638D02*
X165823441Y-93524638D01*
X164966298Y-95524638D02*
X164966298Y-94477019D01*
X164966298Y-94477019D02*
X165061536Y-94286542D01*
X165061536Y-94286542D02*
X165252012Y-94191304D01*
X165252012Y-94191304D02*
X165537727Y-94191304D01*
X165537727Y-94191304D02*
X165728203Y-94286542D01*
X165728203Y-94286542D02*
X165823441Y-94381780D01*
X164299631Y-94191304D02*
X163537727Y-94191304D01*
X164013917Y-93524638D02*
X164013917Y-95238923D01*
X164013917Y-95238923D02*
X163918679Y-95429400D01*
X163918679Y-95429400D02*
X163728203Y-95524638D01*
X163728203Y-95524638D02*
X163537727Y-95524638D01*
X163156774Y-94191304D02*
X162394870Y-94191304D01*
X162871060Y-93524638D02*
X162871060Y-95238923D01*
X162871060Y-95238923D02*
X162775822Y-95429400D01*
X162775822Y-95429400D02*
X162585346Y-95524638D01*
X162585346Y-95524638D02*
X162394870Y-95524638D01*
X161728203Y-94191304D02*
X161728203Y-96191304D01*
X161728203Y-94286542D02*
X161537727Y-94191304D01*
X161537727Y-94191304D02*
X161156774Y-94191304D01*
X161156774Y-94191304D02*
X160966298Y-94286542D01*
X160966298Y-94286542D02*
X160871060Y-94381780D01*
X160871060Y-94381780D02*
X160775822Y-94572257D01*
X160775822Y-94572257D02*
X160775822Y-95143685D01*
X160775822Y-95143685D02*
X160871060Y-95334161D01*
X160871060Y-95334161D02*
X160966298Y-95429400D01*
X160966298Y-95429400D02*
X161156774Y-95524638D01*
X161156774Y-95524638D02*
X161537727Y-95524638D01*
X161537727Y-95524638D02*
X161728203Y-95429400D01*
X160013917Y-95429400D02*
X159823441Y-95524638D01*
X159823441Y-95524638D02*
X159442489Y-95524638D01*
X159442489Y-95524638D02*
X159252012Y-95429400D01*
X159252012Y-95429400D02*
X159156774Y-95238923D01*
X159156774Y-95238923D02*
X159156774Y-95143685D01*
X159156774Y-95143685D02*
X159252012Y-94953209D01*
X159252012Y-94953209D02*
X159442489Y-94857971D01*
X159442489Y-94857971D02*
X159728203Y-94857971D01*
X159728203Y-94857971D02*
X159918679Y-94762733D01*
X159918679Y-94762733D02*
X160013917Y-94572257D01*
X160013917Y-94572257D02*
X160013917Y-94477019D01*
X160013917Y-94477019D02*
X159918679Y-94286542D01*
X159918679Y-94286542D02*
X159728203Y-94191304D01*
X159728203Y-94191304D02*
X159442489Y-94191304D01*
X159442489Y-94191304D02*
X159252012Y-94286542D01*
X158299631Y-95334161D02*
X158204393Y-95429400D01*
X158204393Y-95429400D02*
X158299631Y-95524638D01*
X158299631Y-95524638D02*
X158394869Y-95429400D01*
X158394869Y-95429400D02*
X158299631Y-95334161D01*
X158299631Y-95334161D02*
X158299631Y-95524638D01*
X158299631Y-94286542D02*
X158204393Y-94381780D01*
X158204393Y-94381780D02*
X158299631Y-94477019D01*
X158299631Y-94477019D02*
X158394869Y-94381780D01*
X158394869Y-94381780D02*
X158299631Y-94286542D01*
X158299631Y-94286542D02*
X158299631Y-94477019D01*
X155918679Y-93429400D02*
X157632964Y-96000828D01*
X153823441Y-93429400D02*
X155537726Y-96000828D01*
X153252012Y-95429400D02*
X153061536Y-95524638D01*
X153061536Y-95524638D02*
X152680584Y-95524638D01*
X152680584Y-95524638D02*
X152490107Y-95429400D01*
X152490107Y-95429400D02*
X152394869Y-95238923D01*
X152394869Y-95238923D02*
X152394869Y-95143685D01*
X152394869Y-95143685D02*
X152490107Y-94953209D01*
X152490107Y-94953209D02*
X152680584Y-94857971D01*
X152680584Y-94857971D02*
X152966298Y-94857971D01*
X152966298Y-94857971D02*
X153156774Y-94762733D01*
X153156774Y-94762733D02*
X153252012Y-94572257D01*
X153252012Y-94572257D02*
X153252012Y-94477019D01*
X153252012Y-94477019D02*
X153156774Y-94286542D01*
X153156774Y-94286542D02*
X152966298Y-94191304D01*
X152966298Y-94191304D02*
X152680584Y-94191304D01*
X152680584Y-94191304D02*
X152490107Y-94286542D01*
X151537726Y-95524638D02*
X151537726Y-93524638D01*
X150680583Y-95524638D02*
X150680583Y-94477019D01*
X150680583Y-94477019D02*
X150775821Y-94286542D01*
X150775821Y-94286542D02*
X150966297Y-94191304D01*
X150966297Y-94191304D02*
X151252012Y-94191304D01*
X151252012Y-94191304D02*
X151442488Y-94286542D01*
X151442488Y-94286542D02*
X151537726Y-94381780D01*
X148871059Y-95524638D02*
X148871059Y-94477019D01*
X148871059Y-94477019D02*
X148966297Y-94286542D01*
X148966297Y-94286542D02*
X149156773Y-94191304D01*
X149156773Y-94191304D02*
X149537726Y-94191304D01*
X149537726Y-94191304D02*
X149728202Y-94286542D01*
X148871059Y-95429400D02*
X149061535Y-95524638D01*
X149061535Y-95524638D02*
X149537726Y-95524638D01*
X149537726Y-95524638D02*
X149728202Y-95429400D01*
X149728202Y-95429400D02*
X149823440Y-95238923D01*
X149823440Y-95238923D02*
X149823440Y-95048447D01*
X149823440Y-95048447D02*
X149728202Y-94857971D01*
X149728202Y-94857971D02*
X149537726Y-94762733D01*
X149537726Y-94762733D02*
X149061535Y-94762733D01*
X149061535Y-94762733D02*
X148871059Y-94667495D01*
X147918678Y-94191304D02*
X147918678Y-95524638D01*
X147918678Y-94381780D02*
X147823440Y-94286542D01*
X147823440Y-94286542D02*
X147632964Y-94191304D01*
X147632964Y-94191304D02*
X147347249Y-94191304D01*
X147347249Y-94191304D02*
X147156773Y-94286542D01*
X147156773Y-94286542D02*
X147061535Y-94477019D01*
X147061535Y-94477019D02*
X147061535Y-95524638D01*
X146394868Y-94191304D02*
X145632964Y-94191304D01*
X146109154Y-93524638D02*
X146109154Y-95238923D01*
X146109154Y-95238923D02*
X146013916Y-95429400D01*
X146013916Y-95429400D02*
X145823440Y-95524638D01*
X145823440Y-95524638D02*
X145632964Y-95524638D01*
X144204392Y-95429400D02*
X144394868Y-95524638D01*
X144394868Y-95524638D02*
X144775821Y-95524638D01*
X144775821Y-95524638D02*
X144966297Y-95429400D01*
X144966297Y-95429400D02*
X145061535Y-95238923D01*
X145061535Y-95238923D02*
X145061535Y-94477019D01*
X145061535Y-94477019D02*
X144966297Y-94286542D01*
X144966297Y-94286542D02*
X144775821Y-94191304D01*
X144775821Y-94191304D02*
X144394868Y-94191304D01*
X144394868Y-94191304D02*
X144204392Y-94286542D01*
X144204392Y-94286542D02*
X144109154Y-94477019D01*
X144109154Y-94477019D02*
X144109154Y-94667495D01*
X144109154Y-94667495D02*
X145061535Y-94857971D01*
X142394868Y-95524638D02*
X142394868Y-94477019D01*
X142394868Y-94477019D02*
X142490106Y-94286542D01*
X142490106Y-94286542D02*
X142680582Y-94191304D01*
X142680582Y-94191304D02*
X143061535Y-94191304D01*
X143061535Y-94191304D02*
X143252011Y-94286542D01*
X142394868Y-95429400D02*
X142585344Y-95524638D01*
X142585344Y-95524638D02*
X143061535Y-95524638D01*
X143061535Y-95524638D02*
X143252011Y-95429400D01*
X143252011Y-95429400D02*
X143347249Y-95238923D01*
X143347249Y-95238923D02*
X143347249Y-95048447D01*
X143347249Y-95048447D02*
X143252011Y-94857971D01*
X143252011Y-94857971D02*
X143061535Y-94762733D01*
X143061535Y-94762733D02*
X142585344Y-94762733D01*
X142585344Y-94762733D02*
X142394868Y-94667495D01*
X140585344Y-95429400D02*
X140775820Y-95524638D01*
X140775820Y-95524638D02*
X141156773Y-95524638D01*
X141156773Y-95524638D02*
X141347249Y-95429400D01*
X141347249Y-95429400D02*
X141442487Y-95334161D01*
X141442487Y-95334161D02*
X141537725Y-95143685D01*
X141537725Y-95143685D02*
X141537725Y-94572257D01*
X141537725Y-94572257D02*
X141442487Y-94381780D01*
X141442487Y-94381780D02*
X141347249Y-94286542D01*
X141347249Y-94286542D02*
X141156773Y-94191304D01*
X141156773Y-94191304D02*
X140775820Y-94191304D01*
X140775820Y-94191304D02*
X140585344Y-94286542D01*
X139442487Y-95524638D02*
X139632963Y-95429400D01*
X139632963Y-95429400D02*
X139728201Y-95334161D01*
X139728201Y-95334161D02*
X139823439Y-95143685D01*
X139823439Y-95143685D02*
X139823439Y-94572257D01*
X139823439Y-94572257D02*
X139728201Y-94381780D01*
X139728201Y-94381780D02*
X139632963Y-94286542D01*
X139632963Y-94286542D02*
X139442487Y-94191304D01*
X139442487Y-94191304D02*
X139156772Y-94191304D01*
X139156772Y-94191304D02*
X138966296Y-94286542D01*
X138966296Y-94286542D02*
X138871058Y-94381780D01*
X138871058Y-94381780D02*
X138775820Y-94572257D01*
X138775820Y-94572257D02*
X138775820Y-95143685D01*
X138775820Y-95143685D02*
X138871058Y-95334161D01*
X138871058Y-95334161D02*
X138966296Y-95429400D01*
X138966296Y-95429400D02*
X139156772Y-95524638D01*
X139156772Y-95524638D02*
X139442487Y-95524638D01*
X137918677Y-94191304D02*
X137918677Y-95524638D01*
X137918677Y-94381780D02*
X137823439Y-94286542D01*
X137823439Y-94286542D02*
X137632963Y-94191304D01*
X137632963Y-94191304D02*
X137347248Y-94191304D01*
X137347248Y-94191304D02*
X137156772Y-94286542D01*
X137156772Y-94286542D02*
X137061534Y-94477019D01*
X137061534Y-94477019D02*
X137061534Y-95524638D01*
X136394867Y-94191304D02*
X135632963Y-94191304D01*
X136109153Y-93524638D02*
X136109153Y-95238923D01*
X136109153Y-95238923D02*
X136013915Y-95429400D01*
X136013915Y-95429400D02*
X135823439Y-95524638D01*
X135823439Y-95524638D02*
X135632963Y-95524638D01*
X134966296Y-95524638D02*
X134966296Y-94191304D01*
X134966296Y-94572257D02*
X134871058Y-94381780D01*
X134871058Y-94381780D02*
X134775820Y-94286542D01*
X134775820Y-94286542D02*
X134585344Y-94191304D01*
X134585344Y-94191304D02*
X134394867Y-94191304D01*
X133442487Y-95524638D02*
X133632963Y-95429400D01*
X133632963Y-95429400D02*
X133728201Y-95334161D01*
X133728201Y-95334161D02*
X133823439Y-95143685D01*
X133823439Y-95143685D02*
X133823439Y-94572257D01*
X133823439Y-94572257D02*
X133728201Y-94381780D01*
X133728201Y-94381780D02*
X133632963Y-94286542D01*
X133632963Y-94286542D02*
X133442487Y-94191304D01*
X133442487Y-94191304D02*
X133156772Y-94191304D01*
X133156772Y-94191304D02*
X132966296Y-94286542D01*
X132966296Y-94286542D02*
X132871058Y-94381780D01*
X132871058Y-94381780D02*
X132775820Y-94572257D01*
X132775820Y-94572257D02*
X132775820Y-95143685D01*
X132775820Y-95143685D02*
X132871058Y-95334161D01*
X132871058Y-95334161D02*
X132966296Y-95429400D01*
X132966296Y-95429400D02*
X133156772Y-95524638D01*
X133156772Y-95524638D02*
X133442487Y-95524638D01*
X131632963Y-95524638D02*
X131823439Y-95429400D01*
X131823439Y-95429400D02*
X131918677Y-95238923D01*
X131918677Y-95238923D02*
X131918677Y-93524638D01*
X130966296Y-95429400D02*
X130775820Y-95524638D01*
X130775820Y-95524638D02*
X130394868Y-95524638D01*
X130394868Y-95524638D02*
X130204391Y-95429400D01*
X130204391Y-95429400D02*
X130109153Y-95238923D01*
X130109153Y-95238923D02*
X130109153Y-95143685D01*
X130109153Y-95143685D02*
X130204391Y-94953209D01*
X130204391Y-94953209D02*
X130394868Y-94857971D01*
X130394868Y-94857971D02*
X130680582Y-94857971D01*
X130680582Y-94857971D02*
X130871058Y-94762733D01*
X130871058Y-94762733D02*
X130966296Y-94572257D01*
X130966296Y-94572257D02*
X130966296Y-94477019D01*
X130966296Y-94477019D02*
X130871058Y-94286542D01*
X130871058Y-94286542D02*
X130680582Y-94191304D01*
X130680582Y-94191304D02*
X130394868Y-94191304D01*
X130394868Y-94191304D02*
X130204391Y-94286542D01*
X129252010Y-95334161D02*
X129156772Y-95429400D01*
X129156772Y-95429400D02*
X129252010Y-95524638D01*
X129252010Y-95524638D02*
X129347248Y-95429400D01*
X129347248Y-95429400D02*
X129252010Y-95334161D01*
X129252010Y-95334161D02*
X129252010Y-95524638D01*
X127442486Y-95429400D02*
X127632962Y-95524638D01*
X127632962Y-95524638D02*
X128013915Y-95524638D01*
X128013915Y-95524638D02*
X128204391Y-95429400D01*
X128204391Y-95429400D02*
X128299629Y-95334161D01*
X128299629Y-95334161D02*
X128394867Y-95143685D01*
X128394867Y-95143685D02*
X128394867Y-94572257D01*
X128394867Y-94572257D02*
X128299629Y-94381780D01*
X128299629Y-94381780D02*
X128204391Y-94286542D01*
X128204391Y-94286542D02*
X128013915Y-94191304D01*
X128013915Y-94191304D02*
X127632962Y-94191304D01*
X127632962Y-94191304D02*
X127442486Y-94286542D01*
X126299629Y-95524638D02*
X126490105Y-95429400D01*
X126490105Y-95429400D02*
X126585343Y-95334161D01*
X126585343Y-95334161D02*
X126680581Y-95143685D01*
X126680581Y-95143685D02*
X126680581Y-94572257D01*
X126680581Y-94572257D02*
X126585343Y-94381780D01*
X126585343Y-94381780D02*
X126490105Y-94286542D01*
X126490105Y-94286542D02*
X126299629Y-94191304D01*
X126299629Y-94191304D02*
X126013914Y-94191304D01*
X126013914Y-94191304D02*
X125823438Y-94286542D01*
X125823438Y-94286542D02*
X125728200Y-94381780D01*
X125728200Y-94381780D02*
X125632962Y-94572257D01*
X125632962Y-94572257D02*
X125632962Y-95143685D01*
X125632962Y-95143685D02*
X125728200Y-95334161D01*
X125728200Y-95334161D02*
X125823438Y-95429400D01*
X125823438Y-95429400D02*
X126013914Y-95524638D01*
X126013914Y-95524638D02*
X126299629Y-95524638D01*
X124775819Y-95524638D02*
X124775819Y-94191304D01*
X124775819Y-94381780D02*
X124680581Y-94286542D01*
X124680581Y-94286542D02*
X124490105Y-94191304D01*
X124490105Y-94191304D02*
X124204390Y-94191304D01*
X124204390Y-94191304D02*
X124013914Y-94286542D01*
X124013914Y-94286542D02*
X123918676Y-94477019D01*
X123918676Y-94477019D02*
X123918676Y-95524638D01*
X123918676Y-94477019D02*
X123823438Y-94286542D01*
X123823438Y-94286542D02*
X123632962Y-94191304D01*
X123632962Y-94191304D02*
X123347248Y-94191304D01*
X123347248Y-94191304D02*
X123156771Y-94286542D01*
X123156771Y-94286542D02*
X123061533Y-94477019D01*
X123061533Y-94477019D02*
X123061533Y-95524638D01*
X215607489Y-46235638D02*
X215226536Y-46235638D01*
X215226536Y-46235638D02*
X215036060Y-46330876D01*
X215036060Y-46330876D02*
X214845584Y-46521352D01*
X214845584Y-46521352D02*
X214750346Y-46902304D01*
X214750346Y-46902304D02*
X214750346Y-47568971D01*
X214750346Y-47568971D02*
X214845584Y-47949923D01*
X214845584Y-47949923D02*
X215036060Y-48140400D01*
X215036060Y-48140400D02*
X215226536Y-48235638D01*
X215226536Y-48235638D02*
X215607489Y-48235638D01*
X215607489Y-48235638D02*
X215797965Y-48140400D01*
X215797965Y-48140400D02*
X215988441Y-47949923D01*
X215988441Y-47949923D02*
X216083679Y-47568971D01*
X216083679Y-47568971D02*
X216083679Y-46902304D01*
X216083679Y-46902304D02*
X215988441Y-46521352D01*
X215988441Y-46521352D02*
X215797965Y-46330876D01*
X215797965Y-46330876D02*
X215607489Y-46235638D01*
X213893203Y-46902304D02*
X213893203Y-48902304D01*
X213893203Y-46997542D02*
X213702727Y-46902304D01*
X213702727Y-46902304D02*
X213321774Y-46902304D01*
X213321774Y-46902304D02*
X213131298Y-46997542D01*
X213131298Y-46997542D02*
X213036060Y-47092780D01*
X213036060Y-47092780D02*
X212940822Y-47283257D01*
X212940822Y-47283257D02*
X212940822Y-47854685D01*
X212940822Y-47854685D02*
X213036060Y-48045161D01*
X213036060Y-48045161D02*
X213131298Y-48140400D01*
X213131298Y-48140400D02*
X213321774Y-48235638D01*
X213321774Y-48235638D02*
X213702727Y-48235638D01*
X213702727Y-48235638D02*
X213893203Y-48140400D01*
X211321774Y-48140400D02*
X211512250Y-48235638D01*
X211512250Y-48235638D02*
X211893203Y-48235638D01*
X211893203Y-48235638D02*
X212083679Y-48140400D01*
X212083679Y-48140400D02*
X212178917Y-47949923D01*
X212178917Y-47949923D02*
X212178917Y-47188019D01*
X212178917Y-47188019D02*
X212083679Y-46997542D01*
X212083679Y-46997542D02*
X211893203Y-46902304D01*
X211893203Y-46902304D02*
X211512250Y-46902304D01*
X211512250Y-46902304D02*
X211321774Y-46997542D01*
X211321774Y-46997542D02*
X211226536Y-47188019D01*
X211226536Y-47188019D02*
X211226536Y-47378495D01*
X211226536Y-47378495D02*
X212178917Y-47568971D01*
X210369393Y-46902304D02*
X210369393Y-48235638D01*
X210369393Y-47092780D02*
X210274155Y-46997542D01*
X210274155Y-46997542D02*
X210083679Y-46902304D01*
X210083679Y-46902304D02*
X209797964Y-46902304D01*
X209797964Y-46902304D02*
X209607488Y-46997542D01*
X209607488Y-46997542D02*
X209512250Y-47188019D01*
X209512250Y-47188019D02*
X209512250Y-48235638D01*
X208559869Y-48235638D02*
X208559869Y-46235638D01*
X208559869Y-46235638D02*
X208083679Y-46235638D01*
X208083679Y-46235638D02*
X207797964Y-46330876D01*
X207797964Y-46330876D02*
X207607488Y-46521352D01*
X207607488Y-46521352D02*
X207512250Y-46711828D01*
X207512250Y-46711828D02*
X207417012Y-47092780D01*
X207417012Y-47092780D02*
X207417012Y-47378495D01*
X207417012Y-47378495D02*
X207512250Y-47759447D01*
X207512250Y-47759447D02*
X207607488Y-47949923D01*
X207607488Y-47949923D02*
X207797964Y-48140400D01*
X207797964Y-48140400D02*
X208083679Y-48235638D01*
X208083679Y-48235638D02*
X208559869Y-48235638D01*
X205797964Y-48140400D02*
X205988440Y-48235638D01*
X205988440Y-48235638D02*
X206369393Y-48235638D01*
X206369393Y-48235638D02*
X206559869Y-48140400D01*
X206559869Y-48140400D02*
X206655107Y-47949923D01*
X206655107Y-47949923D02*
X206655107Y-47188019D01*
X206655107Y-47188019D02*
X206559869Y-46997542D01*
X206559869Y-46997542D02*
X206369393Y-46902304D01*
X206369393Y-46902304D02*
X205988440Y-46902304D01*
X205988440Y-46902304D02*
X205797964Y-46997542D01*
X205797964Y-46997542D02*
X205702726Y-47188019D01*
X205702726Y-47188019D02*
X205702726Y-47378495D01*
X205702726Y-47378495D02*
X206655107Y-47568971D01*
X203988440Y-48140400D02*
X204178916Y-48235638D01*
X204178916Y-48235638D02*
X204559869Y-48235638D01*
X204559869Y-48235638D02*
X204750345Y-48140400D01*
X204750345Y-48140400D02*
X204845583Y-48045161D01*
X204845583Y-48045161D02*
X204940821Y-47854685D01*
X204940821Y-47854685D02*
X204940821Y-47283257D01*
X204940821Y-47283257D02*
X204845583Y-47092780D01*
X204845583Y-47092780D02*
X204750345Y-46997542D01*
X204750345Y-46997542D02*
X204559869Y-46902304D01*
X204559869Y-46902304D02*
X204178916Y-46902304D01*
X204178916Y-46902304D02*
X203988440Y-46997542D01*
X203131297Y-48235638D02*
X203131297Y-46235638D01*
X202940821Y-47473733D02*
X202369392Y-48235638D01*
X202369392Y-46902304D02*
X203131297Y-47664209D01*
X199988439Y-48235638D02*
X199988439Y-46235638D01*
X199988439Y-46997542D02*
X199797963Y-46902304D01*
X199797963Y-46902304D02*
X199417010Y-46902304D01*
X199417010Y-46902304D02*
X199226534Y-46997542D01*
X199226534Y-46997542D02*
X199131296Y-47092780D01*
X199131296Y-47092780D02*
X199036058Y-47283257D01*
X199036058Y-47283257D02*
X199036058Y-47854685D01*
X199036058Y-47854685D02*
X199131296Y-48045161D01*
X199131296Y-48045161D02*
X199226534Y-48140400D01*
X199226534Y-48140400D02*
X199417010Y-48235638D01*
X199417010Y-48235638D02*
X199797963Y-48235638D01*
X199797963Y-48235638D02*
X199988439Y-48140400D01*
X197893201Y-48235638D02*
X198083677Y-48140400D01*
X198083677Y-48140400D02*
X198178915Y-48045161D01*
X198178915Y-48045161D02*
X198274153Y-47854685D01*
X198274153Y-47854685D02*
X198274153Y-47283257D01*
X198274153Y-47283257D02*
X198178915Y-47092780D01*
X198178915Y-47092780D02*
X198083677Y-46997542D01*
X198083677Y-46997542D02*
X197893201Y-46902304D01*
X197893201Y-46902304D02*
X197607486Y-46902304D01*
X197607486Y-46902304D02*
X197417010Y-46997542D01*
X197417010Y-46997542D02*
X197321772Y-47092780D01*
X197321772Y-47092780D02*
X197226534Y-47283257D01*
X197226534Y-47283257D02*
X197226534Y-47854685D01*
X197226534Y-47854685D02*
X197321772Y-48045161D01*
X197321772Y-48045161D02*
X197417010Y-48140400D01*
X197417010Y-48140400D02*
X197607486Y-48235638D01*
X197607486Y-48235638D02*
X197893201Y-48235638D01*
X195512248Y-48235638D02*
X195512248Y-47188019D01*
X195512248Y-47188019D02*
X195607486Y-46997542D01*
X195607486Y-46997542D02*
X195797962Y-46902304D01*
X195797962Y-46902304D02*
X196178915Y-46902304D01*
X196178915Y-46902304D02*
X196369391Y-46997542D01*
X195512248Y-48140400D02*
X195702724Y-48235638D01*
X195702724Y-48235638D02*
X196178915Y-48235638D01*
X196178915Y-48235638D02*
X196369391Y-48140400D01*
X196369391Y-48140400D02*
X196464629Y-47949923D01*
X196464629Y-47949923D02*
X196464629Y-47759447D01*
X196464629Y-47759447D02*
X196369391Y-47568971D01*
X196369391Y-47568971D02*
X196178915Y-47473733D01*
X196178915Y-47473733D02*
X195702724Y-47473733D01*
X195702724Y-47473733D02*
X195512248Y-47378495D01*
X194559867Y-48235638D02*
X194559867Y-46902304D01*
X194559867Y-47283257D02*
X194464629Y-47092780D01*
X194464629Y-47092780D02*
X194369391Y-46997542D01*
X194369391Y-46997542D02*
X194178915Y-46902304D01*
X194178915Y-46902304D02*
X193988438Y-46902304D01*
X192464629Y-48235638D02*
X192464629Y-46235638D01*
X192464629Y-48140400D02*
X192655105Y-48235638D01*
X192655105Y-48235638D02*
X193036058Y-48235638D01*
X193036058Y-48235638D02*
X193226534Y-48140400D01*
X193226534Y-48140400D02*
X193321772Y-48045161D01*
X193321772Y-48045161D02*
X193417010Y-47854685D01*
X193417010Y-47854685D02*
X193417010Y-47283257D01*
X193417010Y-47283257D02*
X193321772Y-47092780D01*
X193321772Y-47092780D02*
X193226534Y-46997542D01*
X193226534Y-46997542D02*
X193036058Y-46902304D01*
X193036058Y-46902304D02*
X192655105Y-46902304D01*
X192655105Y-46902304D02*
X192464629Y-46997542D01*
X214845584Y-51455638D02*
X215512251Y-50503257D01*
X215988441Y-51455638D02*
X215988441Y-49455638D01*
X215988441Y-49455638D02*
X215226536Y-49455638D01*
X215226536Y-49455638D02*
X215036060Y-49550876D01*
X215036060Y-49550876D02*
X214940822Y-49646114D01*
X214940822Y-49646114D02*
X214845584Y-49836590D01*
X214845584Y-49836590D02*
X214845584Y-50122304D01*
X214845584Y-50122304D02*
X214940822Y-50312780D01*
X214940822Y-50312780D02*
X215036060Y-50408019D01*
X215036060Y-50408019D02*
X215226536Y-50503257D01*
X215226536Y-50503257D02*
X215988441Y-50503257D01*
X213226536Y-51360400D02*
X213417012Y-51455638D01*
X213417012Y-51455638D02*
X213797965Y-51455638D01*
X213797965Y-51455638D02*
X213988441Y-51360400D01*
X213988441Y-51360400D02*
X214083679Y-51169923D01*
X214083679Y-51169923D02*
X214083679Y-50408019D01*
X214083679Y-50408019D02*
X213988441Y-50217542D01*
X213988441Y-50217542D02*
X213797965Y-50122304D01*
X213797965Y-50122304D02*
X213417012Y-50122304D01*
X213417012Y-50122304D02*
X213226536Y-50217542D01*
X213226536Y-50217542D02*
X213131298Y-50408019D01*
X213131298Y-50408019D02*
X213131298Y-50598495D01*
X213131298Y-50598495D02*
X214083679Y-50788971D01*
X212464631Y-50122304D02*
X211988441Y-51455638D01*
X211988441Y-51455638D02*
X211512250Y-50122304D01*
X210750345Y-51455638D02*
X210750345Y-50122304D01*
X210750345Y-49455638D02*
X210845583Y-49550876D01*
X210845583Y-49550876D02*
X210750345Y-49646114D01*
X210750345Y-49646114D02*
X210655107Y-49550876D01*
X210655107Y-49550876D02*
X210750345Y-49455638D01*
X210750345Y-49455638D02*
X210750345Y-49646114D01*
X209893202Y-51360400D02*
X209702726Y-51455638D01*
X209702726Y-51455638D02*
X209321774Y-51455638D01*
X209321774Y-51455638D02*
X209131297Y-51360400D01*
X209131297Y-51360400D02*
X209036059Y-51169923D01*
X209036059Y-51169923D02*
X209036059Y-51074685D01*
X209036059Y-51074685D02*
X209131297Y-50884209D01*
X209131297Y-50884209D02*
X209321774Y-50788971D01*
X209321774Y-50788971D02*
X209607488Y-50788971D01*
X209607488Y-50788971D02*
X209797964Y-50693733D01*
X209797964Y-50693733D02*
X209893202Y-50503257D01*
X209893202Y-50503257D02*
X209893202Y-50408019D01*
X209893202Y-50408019D02*
X209797964Y-50217542D01*
X209797964Y-50217542D02*
X209607488Y-50122304D01*
X209607488Y-50122304D02*
X209321774Y-50122304D01*
X209321774Y-50122304D02*
X209131297Y-50217542D01*
X208178916Y-51455638D02*
X208178916Y-50122304D01*
X208178916Y-49455638D02*
X208274154Y-49550876D01*
X208274154Y-49550876D02*
X208178916Y-49646114D01*
X208178916Y-49646114D02*
X208083678Y-49550876D01*
X208083678Y-49550876D02*
X208178916Y-49455638D01*
X208178916Y-49455638D02*
X208178916Y-49646114D01*
X206940821Y-51455638D02*
X207131297Y-51360400D01*
X207131297Y-51360400D02*
X207226535Y-51265161D01*
X207226535Y-51265161D02*
X207321773Y-51074685D01*
X207321773Y-51074685D02*
X207321773Y-50503257D01*
X207321773Y-50503257D02*
X207226535Y-50312780D01*
X207226535Y-50312780D02*
X207131297Y-50217542D01*
X207131297Y-50217542D02*
X206940821Y-50122304D01*
X206940821Y-50122304D02*
X206655106Y-50122304D01*
X206655106Y-50122304D02*
X206464630Y-50217542D01*
X206464630Y-50217542D02*
X206369392Y-50312780D01*
X206369392Y-50312780D02*
X206274154Y-50503257D01*
X206274154Y-50503257D02*
X206274154Y-51074685D01*
X206274154Y-51074685D02*
X206369392Y-51265161D01*
X206369392Y-51265161D02*
X206464630Y-51360400D01*
X206464630Y-51360400D02*
X206655106Y-51455638D01*
X206655106Y-51455638D02*
X206940821Y-51455638D01*
X205417011Y-50122304D02*
X205417011Y-51455638D01*
X205417011Y-50312780D02*
X205321773Y-50217542D01*
X205321773Y-50217542D02*
X205131297Y-50122304D01*
X205131297Y-50122304D02*
X204845582Y-50122304D01*
X204845582Y-50122304D02*
X204655106Y-50217542D01*
X204655106Y-50217542D02*
X204559868Y-50408019D01*
X204559868Y-50408019D02*
X204559868Y-51455638D01*
X203607487Y-51265161D02*
X203512249Y-51360400D01*
X203512249Y-51360400D02*
X203607487Y-51455638D01*
X203607487Y-51455638D02*
X203702725Y-51360400D01*
X203702725Y-51360400D02*
X203607487Y-51265161D01*
X203607487Y-51265161D02*
X203607487Y-51455638D01*
X203607487Y-50217542D02*
X203512249Y-50312780D01*
X203512249Y-50312780D02*
X203607487Y-50408019D01*
X203607487Y-50408019D02*
X203702725Y-50312780D01*
X203702725Y-50312780D02*
X203607487Y-50217542D01*
X203607487Y-50217542D02*
X203607487Y-50408019D01*
X201321772Y-49455638D02*
X200083677Y-49455638D01*
X200083677Y-49455638D02*
X200750344Y-50217542D01*
X200750344Y-50217542D02*
X200464629Y-50217542D01*
X200464629Y-50217542D02*
X200274153Y-50312780D01*
X200274153Y-50312780D02*
X200178915Y-50408019D01*
X200178915Y-50408019D02*
X200083677Y-50598495D01*
X200083677Y-50598495D02*
X200083677Y-51074685D01*
X200083677Y-51074685D02*
X200178915Y-51265161D01*
X200178915Y-51265161D02*
X200274153Y-51360400D01*
X200274153Y-51360400D02*
X200464629Y-51455638D01*
X200464629Y-51455638D02*
X201036058Y-51455638D01*
X201036058Y-51455638D02*
X201226534Y-51360400D01*
X201226534Y-51360400D02*
X201321772Y-51265161D01*
X199226534Y-51265161D02*
X199131296Y-51360400D01*
X199131296Y-51360400D02*
X199226534Y-51455638D01*
X199226534Y-51455638D02*
X199321772Y-51360400D01*
X199321772Y-51360400D02*
X199226534Y-51265161D01*
X199226534Y-51265161D02*
X199226534Y-51455638D01*
X197226534Y-51455638D02*
X198369391Y-51455638D01*
X197797963Y-51455638D02*
X197797963Y-49455638D01*
X197797963Y-49455638D02*
X197988439Y-49741352D01*
X197988439Y-49741352D02*
X198178915Y-49931828D01*
X198178915Y-49931828D02*
X198369391Y-50027066D01*
X196369391Y-51265161D02*
X196274153Y-51360400D01*
X196274153Y-51360400D02*
X196369391Y-51455638D01*
X196369391Y-51455638D02*
X196464629Y-51360400D01*
X196464629Y-51360400D02*
X196369391Y-51265161D01*
X196369391Y-51265161D02*
X196369391Y-51455638D01*
X195512248Y-49646114D02*
X195417010Y-49550876D01*
X195417010Y-49550876D02*
X195226534Y-49455638D01*
X195226534Y-49455638D02*
X194750343Y-49455638D01*
X194750343Y-49455638D02*
X194559867Y-49550876D01*
X194559867Y-49550876D02*
X194464629Y-49646114D01*
X194464629Y-49646114D02*
X194369391Y-49836590D01*
X194369391Y-49836590D02*
X194369391Y-50027066D01*
X194369391Y-50027066D02*
X194464629Y-50312780D01*
X194464629Y-50312780D02*
X195607486Y-51455638D01*
X195607486Y-51455638D02*
X194369391Y-51455638D01*
X216083679Y-52866114D02*
X215988441Y-52770876D01*
X215988441Y-52770876D02*
X215797965Y-52675638D01*
X215797965Y-52675638D02*
X215321774Y-52675638D01*
X215321774Y-52675638D02*
X215131298Y-52770876D01*
X215131298Y-52770876D02*
X215036060Y-52866114D01*
X215036060Y-52866114D02*
X214940822Y-53056590D01*
X214940822Y-53056590D02*
X214940822Y-53247066D01*
X214940822Y-53247066D02*
X215036060Y-53532780D01*
X215036060Y-53532780D02*
X216178917Y-54675638D01*
X216178917Y-54675638D02*
X214940822Y-54675638D01*
X213702727Y-52675638D02*
X213512250Y-52675638D01*
X213512250Y-52675638D02*
X213321774Y-52770876D01*
X213321774Y-52770876D02*
X213226536Y-52866114D01*
X213226536Y-52866114D02*
X213131298Y-53056590D01*
X213131298Y-53056590D02*
X213036060Y-53437542D01*
X213036060Y-53437542D02*
X213036060Y-53913733D01*
X213036060Y-53913733D02*
X213131298Y-54294685D01*
X213131298Y-54294685D02*
X213226536Y-54485161D01*
X213226536Y-54485161D02*
X213321774Y-54580400D01*
X213321774Y-54580400D02*
X213512250Y-54675638D01*
X213512250Y-54675638D02*
X213702727Y-54675638D01*
X213702727Y-54675638D02*
X213893203Y-54580400D01*
X213893203Y-54580400D02*
X213988441Y-54485161D01*
X213988441Y-54485161D02*
X214083679Y-54294685D01*
X214083679Y-54294685D02*
X214178917Y-53913733D01*
X214178917Y-53913733D02*
X214178917Y-53437542D01*
X214178917Y-53437542D02*
X214083679Y-53056590D01*
X214083679Y-53056590D02*
X213988441Y-52866114D01*
X213988441Y-52866114D02*
X213893203Y-52770876D01*
X213893203Y-52770876D02*
X213702727Y-52675638D01*
X212274155Y-52866114D02*
X212178917Y-52770876D01*
X212178917Y-52770876D02*
X211988441Y-52675638D01*
X211988441Y-52675638D02*
X211512250Y-52675638D01*
X211512250Y-52675638D02*
X211321774Y-52770876D01*
X211321774Y-52770876D02*
X211226536Y-52866114D01*
X211226536Y-52866114D02*
X211131298Y-53056590D01*
X211131298Y-53056590D02*
X211131298Y-53247066D01*
X211131298Y-53247066D02*
X211226536Y-53532780D01*
X211226536Y-53532780D02*
X212369393Y-54675638D01*
X212369393Y-54675638D02*
X211131298Y-54675638D01*
X210464631Y-52675638D02*
X209226536Y-52675638D01*
X209226536Y-52675638D02*
X209893203Y-53437542D01*
X209893203Y-53437542D02*
X209607488Y-53437542D01*
X209607488Y-53437542D02*
X209417012Y-53532780D01*
X209417012Y-53532780D02*
X209321774Y-53628019D01*
X209321774Y-53628019D02*
X209226536Y-53818495D01*
X209226536Y-53818495D02*
X209226536Y-54294685D01*
X209226536Y-54294685D02*
X209321774Y-54485161D01*
X209321774Y-54485161D02*
X209417012Y-54580400D01*
X209417012Y-54580400D02*
X209607488Y-54675638D01*
X209607488Y-54675638D02*
X210178917Y-54675638D01*
X210178917Y-54675638D02*
X210369393Y-54580400D01*
X210369393Y-54580400D02*
X210464631Y-54485161D01*
X208369393Y-54485161D02*
X208274155Y-54580400D01*
X208274155Y-54580400D02*
X208369393Y-54675638D01*
X208369393Y-54675638D02*
X208464631Y-54580400D01*
X208464631Y-54580400D02*
X208369393Y-54485161D01*
X208369393Y-54485161D02*
X208369393Y-54675638D01*
X206369393Y-54675638D02*
X207512250Y-54675638D01*
X206940822Y-54675638D02*
X206940822Y-52675638D01*
X206940822Y-52675638D02*
X207131298Y-52961352D01*
X207131298Y-52961352D02*
X207321774Y-53151828D01*
X207321774Y-53151828D02*
X207512250Y-53247066D01*
X205131298Y-52675638D02*
X204940821Y-52675638D01*
X204940821Y-52675638D02*
X204750345Y-52770876D01*
X204750345Y-52770876D02*
X204655107Y-52866114D01*
X204655107Y-52866114D02*
X204559869Y-53056590D01*
X204559869Y-53056590D02*
X204464631Y-53437542D01*
X204464631Y-53437542D02*
X204464631Y-53913733D01*
X204464631Y-53913733D02*
X204559869Y-54294685D01*
X204559869Y-54294685D02*
X204655107Y-54485161D01*
X204655107Y-54485161D02*
X204750345Y-54580400D01*
X204750345Y-54580400D02*
X204940821Y-54675638D01*
X204940821Y-54675638D02*
X205131298Y-54675638D01*
X205131298Y-54675638D02*
X205321774Y-54580400D01*
X205321774Y-54580400D02*
X205417012Y-54485161D01*
X205417012Y-54485161D02*
X205512250Y-54294685D01*
X205512250Y-54294685D02*
X205607488Y-53913733D01*
X205607488Y-53913733D02*
X205607488Y-53437542D01*
X205607488Y-53437542D02*
X205512250Y-53056590D01*
X205512250Y-53056590D02*
X205417012Y-52866114D01*
X205417012Y-52866114D02*
X205321774Y-52770876D01*
X205321774Y-52770876D02*
X205131298Y-52675638D01*
%LPC*%
D12*
X166365000Y-100775000D03*
D13*
X166365000Y-103315000D03*
X166365000Y-105855000D03*
X166365000Y-108395000D03*
X166365000Y-110935000D03*
X166365000Y-113475000D03*
X166365000Y-116015000D03*
X166365000Y-118555000D03*
X168905000Y-100775000D03*
X168905000Y-103315000D03*
X168905000Y-105855000D03*
X168905000Y-108395000D03*
X168905000Y-110935000D03*
X168905000Y-113475000D03*
X168905000Y-116015000D03*
X168905000Y-118555000D03*
X171445000Y-100775000D03*
X171445000Y-103315000D03*
X171445000Y-105855000D03*
X171445000Y-108395000D03*
X171445000Y-110935000D03*
X171445000Y-113475000D03*
X171445000Y-116015000D03*
X171445000Y-118555000D03*
D14*
X258000000Y-30000000D03*
D15*
X208474000Y-73406000D03*
D16*
X205974000Y-73406000D03*
X203474000Y-73406000D03*
X200974000Y-73406000D03*
D12*
X256286000Y-59944000D03*
D13*
X256286000Y-57404000D03*
D15*
X223123000Y-62882000D03*
D16*
X220623000Y-62882000D03*
X218123000Y-62882000D03*
X215623000Y-62882000D03*
D17*
X208908000Y-38313000D03*
X216358000Y-38313000D03*
X223808000Y-38313000D03*
X211358000Y-40513000D03*
X221358000Y-40513000D03*
X221358000Y-28363000D03*
X211358000Y-28363000D03*
X213858000Y-28363000D03*
X218858000Y-28363000D03*
D12*
X223652000Y-100745000D03*
D13*
X223652000Y-103285000D03*
X223652000Y-105825000D03*
X223652000Y-108365000D03*
X223652000Y-110905000D03*
X223652000Y-113445000D03*
X223652000Y-115985000D03*
X223652000Y-118525000D03*
X226192000Y-100745000D03*
X226192000Y-103285000D03*
X226192000Y-105825000D03*
X226192000Y-108365000D03*
X226192000Y-110905000D03*
X226192000Y-113445000D03*
X226192000Y-115985000D03*
X226192000Y-118525000D03*
X228732000Y-100745000D03*
X228732000Y-103285000D03*
X228732000Y-105825000D03*
X228732000Y-108365000D03*
X228732000Y-110905000D03*
X228732000Y-113445000D03*
X228732000Y-115985000D03*
X228732000Y-118525000D03*
D12*
X100930596Y-100545916D03*
D13*
X103470596Y-100545916D03*
X100930596Y-103085916D03*
X103470596Y-103085916D03*
X100930596Y-105625916D03*
X103470596Y-105625916D03*
X100930596Y-108165916D03*
X103470596Y-108165916D03*
X100930596Y-110705916D03*
X103470596Y-110705916D03*
X100930596Y-113245916D03*
X103470596Y-113245916D03*
X100930596Y-115785916D03*
X103470596Y-115785916D03*
X100930596Y-118325916D03*
X103470596Y-118325916D03*
D15*
X223139000Y-73406000D03*
D16*
X220639000Y-73406000D03*
X218139000Y-73406000D03*
X215639000Y-73406000D03*
D12*
X92075000Y-55753000D03*
D13*
X94615000Y-55753000D03*
X92075000Y-58293000D03*
X94615000Y-58293000D03*
X92075000Y-60833000D03*
X94615000Y-60833000D03*
X92075000Y-63373000D03*
X94615000Y-63373000D03*
X92075000Y-65913000D03*
X94615000Y-65913000D03*
X92075000Y-68453000D03*
X94615000Y-68453000D03*
X92075000Y-70993000D03*
X94615000Y-70993000D03*
X92075000Y-73533000D03*
X94615000Y-73533000D03*
D12*
X109855000Y-55753000D03*
D13*
X112395000Y-55753000D03*
X109855000Y-58293000D03*
X112395000Y-58293000D03*
X109855000Y-60833000D03*
X112395000Y-60833000D03*
X109855000Y-63373000D03*
X112395000Y-63373000D03*
X109855000Y-65913000D03*
X112395000Y-65913000D03*
X109855000Y-68453000D03*
X112395000Y-68453000D03*
X109855000Y-70993000D03*
X112395000Y-70993000D03*
X109855000Y-73533000D03*
X112395000Y-73533000D03*
D12*
X243469400Y-63042800D03*
D13*
X240929400Y-63042800D03*
X238389400Y-63042800D03*
D12*
X136525000Y-31242000D03*
D13*
X139065000Y-31242000D03*
X136525000Y-33782000D03*
X139065000Y-33782000D03*
X136525000Y-36322000D03*
X139065000Y-36322000D03*
X136525000Y-38862000D03*
X139065000Y-38862000D03*
X136525000Y-41402000D03*
X139065000Y-41402000D03*
X136525000Y-43942000D03*
X139065000Y-43942000D03*
X136525000Y-46482000D03*
X139065000Y-46482000D03*
X136525000Y-49022000D03*
X139065000Y-49022000D03*
D12*
X109855000Y-31242000D03*
D13*
X112395000Y-31242000D03*
X109855000Y-33782000D03*
X112395000Y-33782000D03*
X109855000Y-36322000D03*
X112395000Y-36322000D03*
X109855000Y-38862000D03*
X112395000Y-38862000D03*
X109855000Y-41402000D03*
X112395000Y-41402000D03*
X109855000Y-43942000D03*
X112395000Y-43942000D03*
X109855000Y-46482000D03*
X112395000Y-46482000D03*
X109855000Y-49022000D03*
X112395000Y-49022000D03*
D14*
X258000000Y-119000000D03*
D12*
X100965000Y-55753000D03*
D13*
X103505000Y-55753000D03*
X100965000Y-58293000D03*
X103505000Y-58293000D03*
X100965000Y-60833000D03*
X103505000Y-60833000D03*
X100965000Y-63373000D03*
X103505000Y-63373000D03*
X100965000Y-65913000D03*
X103505000Y-65913000D03*
X100965000Y-68453000D03*
X103505000Y-68453000D03*
X100965000Y-70993000D03*
X103505000Y-70993000D03*
X100965000Y-73533000D03*
X103505000Y-73533000D03*
D12*
X136490596Y-100545916D03*
D13*
X139030596Y-100545916D03*
X136490596Y-103085916D03*
X139030596Y-103085916D03*
X136490596Y-105625916D03*
X139030596Y-105625916D03*
X136490596Y-108165916D03*
X139030596Y-108165916D03*
X136490596Y-110705916D03*
X139030596Y-110705916D03*
X136490596Y-113245916D03*
X139030596Y-113245916D03*
X136490596Y-115785916D03*
X139030596Y-115785916D03*
X136490596Y-118325916D03*
X139030596Y-118325916D03*
D12*
X92075000Y-31242000D03*
D13*
X94615000Y-31242000D03*
X92075000Y-33782000D03*
X94615000Y-33782000D03*
X92075000Y-36322000D03*
X94615000Y-36322000D03*
X92075000Y-38862000D03*
X94615000Y-38862000D03*
X92075000Y-41402000D03*
X94615000Y-41402000D03*
X92075000Y-43942000D03*
X94615000Y-43942000D03*
X92075000Y-46482000D03*
X94615000Y-46482000D03*
X92075000Y-49022000D03*
X94615000Y-49022000D03*
D12*
X92040596Y-100530916D03*
D13*
X94580596Y-100530916D03*
X92040596Y-103070916D03*
X94580596Y-103070916D03*
X92040596Y-105610916D03*
X94580596Y-105610916D03*
X92040596Y-108150916D03*
X94580596Y-108150916D03*
X92040596Y-110690916D03*
X94580596Y-110690916D03*
X92040596Y-113230916D03*
X94580596Y-113230916D03*
X92040596Y-115770916D03*
X94580596Y-115770916D03*
X92040596Y-118310916D03*
X94580596Y-118310916D03*
D15*
X208474000Y-62882000D03*
D16*
X205974000Y-62882000D03*
X203474000Y-62882000D03*
X200974000Y-62882000D03*
D12*
X246507000Y-100745000D03*
D13*
X246507000Y-103285000D03*
X246507000Y-105825000D03*
X246507000Y-108365000D03*
X246507000Y-110905000D03*
X246507000Y-113445000D03*
X246507000Y-115985000D03*
X246507000Y-118525000D03*
X249047000Y-100745000D03*
X249047000Y-103285000D03*
X249047000Y-105825000D03*
X249047000Y-108365000D03*
X249047000Y-110905000D03*
X249047000Y-113445000D03*
X249047000Y-115985000D03*
X249047000Y-118525000D03*
X251587000Y-100745000D03*
X251587000Y-103285000D03*
X251587000Y-105825000D03*
X251587000Y-108365000D03*
X251587000Y-110905000D03*
X251587000Y-113445000D03*
X251587000Y-115985000D03*
X251587000Y-118525000D03*
D12*
X136525000Y-55753000D03*
D13*
X139065000Y-55753000D03*
X136525000Y-58293000D03*
X139065000Y-58293000D03*
X136525000Y-60833000D03*
X139065000Y-60833000D03*
X136525000Y-63373000D03*
X139065000Y-63373000D03*
X136525000Y-65913000D03*
X139065000Y-65913000D03*
X136525000Y-68453000D03*
X139065000Y-68453000D03*
X136525000Y-70993000D03*
X139065000Y-70993000D03*
X136525000Y-73533000D03*
X139065000Y-73533000D03*
D12*
X145415000Y-31242000D03*
D13*
X147955000Y-31242000D03*
X145415000Y-33782000D03*
X147955000Y-33782000D03*
X145415000Y-36322000D03*
X147955000Y-36322000D03*
X145415000Y-38862000D03*
X147955000Y-38862000D03*
X145415000Y-41402000D03*
X147955000Y-41402000D03*
X145415000Y-43942000D03*
X147955000Y-43942000D03*
X145415000Y-46482000D03*
X147955000Y-46482000D03*
X145415000Y-49022000D03*
X147955000Y-49022000D03*
D12*
X127635000Y-31242000D03*
D13*
X130175000Y-31242000D03*
X127635000Y-33782000D03*
X130175000Y-33782000D03*
X127635000Y-36322000D03*
X130175000Y-36322000D03*
X127635000Y-38862000D03*
X130175000Y-38862000D03*
X127635000Y-41402000D03*
X130175000Y-41402000D03*
X127635000Y-43942000D03*
X130175000Y-43942000D03*
X127635000Y-46482000D03*
X130175000Y-46482000D03*
X127635000Y-49022000D03*
X130175000Y-49022000D03*
D17*
X186458000Y-38313000D03*
X193908000Y-38313000D03*
X201358000Y-38313000D03*
X188908000Y-40513000D03*
X198908000Y-40513000D03*
X198908000Y-28363000D03*
X188908000Y-28363000D03*
X191408000Y-28363000D03*
X196408000Y-28363000D03*
D12*
X145415000Y-55753000D03*
D13*
X147955000Y-55753000D03*
X145415000Y-58293000D03*
X147955000Y-58293000D03*
X145415000Y-60833000D03*
X147955000Y-60833000D03*
X145415000Y-63373000D03*
X147955000Y-63373000D03*
X145415000Y-65913000D03*
X147955000Y-65913000D03*
X145415000Y-68453000D03*
X147955000Y-68453000D03*
X145415000Y-70993000D03*
X147955000Y-70993000D03*
X145415000Y-73533000D03*
X147955000Y-73533000D03*
D12*
X109820596Y-100545916D03*
D13*
X112360596Y-100545916D03*
X109820596Y-103085916D03*
X112360596Y-103085916D03*
X109820596Y-105625916D03*
X112360596Y-105625916D03*
X109820596Y-108165916D03*
X112360596Y-108165916D03*
X109820596Y-110705916D03*
X112360596Y-110705916D03*
X109820596Y-113245916D03*
X112360596Y-113245916D03*
X109820596Y-115785916D03*
X112360596Y-115785916D03*
X109820596Y-118325916D03*
X112360596Y-118325916D03*
D12*
X118745000Y-31242000D03*
D13*
X121285000Y-31242000D03*
X118745000Y-33782000D03*
X121285000Y-33782000D03*
X118745000Y-36322000D03*
X121285000Y-36322000D03*
X118745000Y-38862000D03*
X121285000Y-38862000D03*
X118745000Y-41402000D03*
X121285000Y-41402000D03*
X118745000Y-43942000D03*
X121285000Y-43942000D03*
X118745000Y-46482000D03*
X121285000Y-46482000D03*
X118745000Y-49022000D03*
X121285000Y-49022000D03*
D12*
X231749600Y-31805800D03*
D13*
X231749600Y-29265800D03*
D12*
X127635000Y-55753000D03*
D13*
X130175000Y-55753000D03*
X127635000Y-58293000D03*
X130175000Y-58293000D03*
X127635000Y-60833000D03*
X130175000Y-60833000D03*
X127635000Y-63373000D03*
X130175000Y-63373000D03*
X127635000Y-65913000D03*
X130175000Y-65913000D03*
X127635000Y-68453000D03*
X130175000Y-68453000D03*
X127635000Y-70993000D03*
X130175000Y-70993000D03*
X127635000Y-73533000D03*
X130175000Y-73533000D03*
D12*
X127600596Y-100545916D03*
D13*
X130140596Y-100545916D03*
X127600596Y-103085916D03*
X130140596Y-103085916D03*
X127600596Y-105625916D03*
X130140596Y-105625916D03*
X127600596Y-108165916D03*
X130140596Y-108165916D03*
X127600596Y-110705916D03*
X130140596Y-110705916D03*
X127600596Y-113245916D03*
X130140596Y-113245916D03*
X127600596Y-115785916D03*
X130140596Y-115785916D03*
X127600596Y-118325916D03*
X130140596Y-118325916D03*
D12*
X200792000Y-100745000D03*
D13*
X200792000Y-103285000D03*
X200792000Y-105825000D03*
X200792000Y-108365000D03*
X200792000Y-110905000D03*
X200792000Y-113445000D03*
X200792000Y-115985000D03*
X200792000Y-118525000D03*
X203332000Y-100745000D03*
X203332000Y-103285000D03*
X203332000Y-105825000D03*
X203332000Y-108365000D03*
X203332000Y-110905000D03*
X203332000Y-113445000D03*
X203332000Y-115985000D03*
X203332000Y-118525000D03*
X205872000Y-100745000D03*
X205872000Y-103285000D03*
X205872000Y-105825000D03*
X205872000Y-108365000D03*
X205872000Y-110905000D03*
X205872000Y-113445000D03*
X205872000Y-115985000D03*
X205872000Y-118525000D03*
D14*
X85000000Y-119000000D03*
D12*
X177800000Y-100760000D03*
D13*
X177800000Y-103300000D03*
X177800000Y-105840000D03*
X177800000Y-108380000D03*
X177800000Y-110920000D03*
X177800000Y-113460000D03*
X177800000Y-116000000D03*
X177800000Y-118540000D03*
X180340000Y-100760000D03*
X180340000Y-103300000D03*
X180340000Y-105840000D03*
X180340000Y-108380000D03*
X180340000Y-110920000D03*
X180340000Y-113460000D03*
X180340000Y-116000000D03*
X180340000Y-118540000D03*
X182880000Y-100760000D03*
X182880000Y-103300000D03*
X182880000Y-105840000D03*
X182880000Y-108380000D03*
X182880000Y-110920000D03*
X182880000Y-113460000D03*
X182880000Y-116000000D03*
X182880000Y-118540000D03*
D14*
X85000000Y-30000000D03*
D12*
X154305000Y-55753000D03*
D13*
X156845000Y-55753000D03*
X154305000Y-58293000D03*
X156845000Y-58293000D03*
X154305000Y-60833000D03*
X156845000Y-60833000D03*
X154305000Y-63373000D03*
X156845000Y-63373000D03*
X154305000Y-65913000D03*
X156845000Y-65913000D03*
X154305000Y-68453000D03*
X156845000Y-68453000D03*
X154305000Y-70993000D03*
X156845000Y-70993000D03*
X154305000Y-73533000D03*
X156845000Y-73533000D03*
D12*
X189230000Y-100760000D03*
D13*
X189230000Y-103300000D03*
X189230000Y-105840000D03*
X189230000Y-108380000D03*
X189230000Y-110920000D03*
X189230000Y-113460000D03*
X189230000Y-116000000D03*
X189230000Y-118540000D03*
X191770000Y-100760000D03*
X191770000Y-103300000D03*
X191770000Y-105840000D03*
X191770000Y-108380000D03*
X191770000Y-110920000D03*
X191770000Y-113460000D03*
X191770000Y-116000000D03*
X191770000Y-118540000D03*
X194310000Y-100760000D03*
X194310000Y-103300000D03*
X194310000Y-105840000D03*
X194310000Y-108380000D03*
X194310000Y-110920000D03*
X194310000Y-113460000D03*
X194310000Y-116000000D03*
X194310000Y-118540000D03*
D12*
X154265596Y-100560916D03*
D13*
X156805596Y-100560916D03*
X154265596Y-103100916D03*
X156805596Y-103100916D03*
X154265596Y-105640916D03*
X156805596Y-105640916D03*
X154265596Y-108180916D03*
X156805596Y-108180916D03*
X154265596Y-110720916D03*
X156805596Y-110720916D03*
X154265596Y-113260916D03*
X156805596Y-113260916D03*
X154265596Y-115800916D03*
X156805596Y-115800916D03*
X154265596Y-118340916D03*
X156805596Y-118340916D03*
D12*
X154305000Y-31242000D03*
D13*
X156845000Y-31242000D03*
X154305000Y-33782000D03*
X156845000Y-33782000D03*
X154305000Y-36322000D03*
X156845000Y-36322000D03*
X154305000Y-38862000D03*
X156845000Y-38862000D03*
X154305000Y-41402000D03*
X156845000Y-41402000D03*
X154305000Y-43942000D03*
X156845000Y-43942000D03*
X154305000Y-46482000D03*
X156845000Y-46482000D03*
X154305000Y-49022000D03*
X156845000Y-49022000D03*
D12*
X212217000Y-100760000D03*
D13*
X212217000Y-103300000D03*
X212217000Y-105840000D03*
X212217000Y-108380000D03*
X212217000Y-110920000D03*
X212217000Y-113460000D03*
X212217000Y-116000000D03*
X212217000Y-118540000D03*
X214757000Y-100760000D03*
X214757000Y-103300000D03*
X214757000Y-105840000D03*
X214757000Y-108380000D03*
X214757000Y-110920000D03*
X214757000Y-113460000D03*
X214757000Y-116000000D03*
X214757000Y-118540000D03*
X217297000Y-100760000D03*
X217297000Y-103300000D03*
X217297000Y-105840000D03*
X217297000Y-108380000D03*
X217297000Y-110920000D03*
X217297000Y-113460000D03*
X217297000Y-116000000D03*
X217297000Y-118540000D03*
D12*
X145380596Y-100560916D03*
D13*
X147920596Y-100560916D03*
X145380596Y-103100916D03*
X147920596Y-103100916D03*
X145380596Y-105640916D03*
X147920596Y-105640916D03*
X145380596Y-108180916D03*
X147920596Y-108180916D03*
X145380596Y-110720916D03*
X147920596Y-110720916D03*
X145380596Y-113260916D03*
X147920596Y-113260916D03*
X145380596Y-115800916D03*
X147920596Y-115800916D03*
X145380596Y-118340916D03*
X147920596Y-118340916D03*
D18*
X247238000Y-32534400D03*
X241458000Y-32534400D03*
D19*
X248673000Y-33024400D03*
X240023000Y-33024400D03*
D20*
X248673000Y-28854400D03*
X240023000Y-28854400D03*
D12*
X118710596Y-100545916D03*
D13*
X121250596Y-100545916D03*
X118710596Y-103085916D03*
X121250596Y-103085916D03*
X118710596Y-105625916D03*
X121250596Y-105625916D03*
X118710596Y-108165916D03*
X121250596Y-108165916D03*
X118710596Y-110705916D03*
X121250596Y-110705916D03*
X118710596Y-113245916D03*
X121250596Y-113245916D03*
X118710596Y-115785916D03*
X121250596Y-115785916D03*
X118710596Y-118325916D03*
X121250596Y-118325916D03*
D12*
X100965000Y-31242000D03*
D13*
X103505000Y-31242000D03*
X100965000Y-33782000D03*
X103505000Y-33782000D03*
X100965000Y-36322000D03*
X103505000Y-36322000D03*
X100965000Y-38862000D03*
X103505000Y-38862000D03*
X100965000Y-41402000D03*
X103505000Y-41402000D03*
X100965000Y-43942000D03*
X103505000Y-43942000D03*
X100965000Y-46482000D03*
X103505000Y-46482000D03*
X100965000Y-49022000D03*
X103505000Y-49022000D03*
D12*
X235072000Y-100760000D03*
D13*
X235072000Y-103300000D03*
X235072000Y-105840000D03*
X235072000Y-108380000D03*
X235072000Y-110920000D03*
X235072000Y-113460000D03*
X235072000Y-116000000D03*
X235072000Y-118540000D03*
X237612000Y-100760000D03*
X237612000Y-103300000D03*
X237612000Y-105840000D03*
X237612000Y-108380000D03*
X237612000Y-110920000D03*
X237612000Y-113460000D03*
X237612000Y-116000000D03*
X237612000Y-118540000D03*
X240152000Y-100760000D03*
X240152000Y-103300000D03*
X240152000Y-105840000D03*
X240152000Y-108380000D03*
X240152000Y-110920000D03*
X240152000Y-113460000D03*
X240152000Y-116000000D03*
X240152000Y-118540000D03*
D12*
X118745000Y-55753000D03*
D13*
X121285000Y-55753000D03*
X118745000Y-58293000D03*
X121285000Y-58293000D03*
X118745000Y-60833000D03*
X121285000Y-60833000D03*
X118745000Y-63373000D03*
X121285000Y-63373000D03*
X118745000Y-65913000D03*
X121285000Y-65913000D03*
X118745000Y-68453000D03*
X121285000Y-68453000D03*
X118745000Y-70993000D03*
X121285000Y-70993000D03*
X118745000Y-73533000D03*
X121285000Y-73533000D03*
%LPD*%
M02*
