G04 #@! TF.GenerationSoftware,KiCad,Pcbnew,7.0.8*
G04 #@! TF.CreationDate,2023-10-07T11:33:10+02:00*
G04 #@! TF.ProjectId,OpenDeck-r3.1.2,4f70656e-4465-4636-9b2d-72332e312e32,rev?*
G04 #@! TF.SameCoordinates,Original*
G04 #@! TF.FileFunction,Soldermask,Top*
G04 #@! TF.FilePolarity,Negative*
%FSLAX46Y46*%
G04 Gerber Fmt 4.6, Leading zero omitted, Abs format (unit mm)*
G04 Created by KiCad (PCBNEW 7.0.8) date 2023-10-07 11:33:10*
%MOMM*%
%LPD*%
G01*
G04 APERTURE LIST*
G04 Aperture macros list*
%AMRoundRect*
0 Rectangle with rounded corners*
0 $1 Rounding radius*
0 $2 $3 $4 $5 $6 $7 $8 $9 X,Y pos of 4 corners*
0 Add a 4 corners polygon primitive as box body*
4,1,4,$2,$3,$4,$5,$6,$7,$8,$9,$2,$3,0*
0 Add four circle primitives for the rounded corners*
1,1,$1+$1,$2,$3*
1,1,$1+$1,$4,$5*
1,1,$1+$1,$6,$7*
1,1,$1+$1,$8,$9*
0 Add four rect primitives between the rounded corners*
20,1,$1+$1,$2,$3,$4,$5,0*
20,1,$1+$1,$4,$5,$6,$7,0*
20,1,$1+$1,$6,$7,$8,$9,0*
20,1,$1+$1,$8,$9,$2,$3,0*%
G04 Aperture macros list end*
%ADD10C,0.010000*%
%ADD11R,0.600000X0.700000*%
%ADD12RoundRect,0.140000X0.170000X-0.140000X0.170000X0.140000X-0.170000X0.140000X-0.170000X-0.140000X0*%
%ADD13R,1.700000X1.700000*%
%ADD14O,1.700000X1.700000*%
%ADD15RoundRect,0.243750X0.243750X0.456250X-0.243750X0.456250X-0.243750X-0.456250X0.243750X-0.456250X0*%
%ADD16RoundRect,0.135000X-0.135000X-0.185000X0.135000X-0.185000X0.135000X0.185000X-0.135000X0.185000X0*%
%ADD17C,5.600000*%
%ADD18RoundRect,0.250000X0.600000X0.725000X-0.600000X0.725000X-0.600000X-0.725000X0.600000X-0.725000X0*%
%ADD19O,1.700000X1.950000*%
%ADD20RoundRect,0.140000X0.140000X0.170000X-0.140000X0.170000X-0.140000X-0.170000X0.140000X-0.170000X0*%
%ADD21RoundRect,0.135000X-0.185000X0.135000X-0.185000X-0.135000X0.185000X-0.135000X0.185000X0.135000X0*%
%ADD22C,2.300000*%
%ADD23RoundRect,0.140000X-0.140000X-0.170000X0.140000X-0.170000X0.140000X0.170000X-0.140000X0.170000X0*%
%ADD24RoundRect,0.140000X-0.170000X0.140000X-0.170000X-0.140000X0.170000X-0.140000X0.170000X0.140000X0*%
%ADD25RoundRect,0.150000X-0.150000X0.650000X-0.150000X-0.650000X0.150000X-0.650000X0.150000X0.650000X0*%
%ADD26RoundRect,0.150000X-0.725000X-0.150000X0.725000X-0.150000X0.725000X0.150000X-0.725000X0.150000X0*%
%ADD27R,1.000000X1.150000*%
%ADD28RoundRect,0.150000X-0.150000X0.512500X-0.150000X-0.512500X0.150000X-0.512500X0.150000X0.512500X0*%
%ADD29RoundRect,0.100000X0.100000X-0.637500X0.100000X0.637500X-0.100000X0.637500X-0.100000X-0.637500X0*%
%ADD30R,0.700000X0.600000*%
%ADD31RoundRect,0.135000X0.185000X-0.135000X0.185000X0.135000X-0.185000X0.135000X-0.185000X-0.135000X0*%
%ADD32RoundRect,0.150000X-0.825000X-0.150000X0.825000X-0.150000X0.825000X0.150000X-0.825000X0.150000X0*%
%ADD33RoundRect,0.150000X0.150000X-0.875000X0.150000X0.875000X-0.150000X0.875000X-0.150000X-0.875000X0*%
%ADD34RoundRect,0.135000X0.135000X0.185000X-0.135000X0.185000X-0.135000X-0.185000X0.135000X-0.185000X0*%
%ADD35RoundRect,0.050000X-0.387500X-0.050000X0.387500X-0.050000X0.387500X0.050000X-0.387500X0.050000X0*%
%ADD36RoundRect,0.050000X-0.050000X-0.387500X0.050000X-0.387500X0.050000X0.387500X-0.050000X0.387500X0*%
%ADD37R,3.200000X3.200000*%
%ADD38R,1.000000X0.700000*%
%ADD39RoundRect,0.150000X0.725000X0.150000X-0.725000X0.150000X-0.725000X-0.150000X0.725000X-0.150000X0*%
%ADD40C,0.600000*%
%ADD41O,0.950000X2.050000*%
%ADD42O,0.950000X1.750000*%
%ADD43RoundRect,0.250000X-0.262500X-0.450000X0.262500X-0.450000X0.262500X0.450000X-0.262500X0.450000X0*%
%ADD44R,2.000000X0.640000*%
G04 APERTURE END LIST*
D10*
X247898000Y-34224400D02*
X247198000Y-34224400D01*
X247198000Y-32984400D01*
X247898000Y-32984400D01*
X247898000Y-34224400D01*
G36*
X247898000Y-34224400D02*
G01*
X247198000Y-34224400D01*
X247198000Y-32984400D01*
X247898000Y-32984400D01*
X247898000Y-34224400D01*
G37*
X247098000Y-34224400D02*
X246398000Y-34224400D01*
X246398000Y-32984400D01*
X247098000Y-32984400D01*
X247098000Y-34224400D01*
G36*
X247098000Y-34224400D02*
G01*
X246398000Y-34224400D01*
X246398000Y-32984400D01*
X247098000Y-32984400D01*
X247098000Y-34224400D01*
G37*
X246298000Y-34224400D02*
X245898000Y-34224400D01*
X245898000Y-32984400D01*
X246298000Y-32984400D01*
X246298000Y-34224400D01*
G36*
X246298000Y-34224400D02*
G01*
X245898000Y-34224400D01*
X245898000Y-32984400D01*
X246298000Y-32984400D01*
X246298000Y-34224400D01*
G37*
X245798000Y-34224400D02*
X245398000Y-34224400D01*
X245398000Y-32984400D01*
X245798000Y-32984400D01*
X245798000Y-34224400D01*
G36*
X245798000Y-34224400D02*
G01*
X245398000Y-34224400D01*
X245398000Y-32984400D01*
X245798000Y-32984400D01*
X245798000Y-34224400D01*
G37*
X245298000Y-34224400D02*
X244898000Y-34224400D01*
X244898000Y-32984400D01*
X245298000Y-32984400D01*
X245298000Y-34224400D01*
G36*
X245298000Y-34224400D02*
G01*
X244898000Y-34224400D01*
X244898000Y-32984400D01*
X245298000Y-32984400D01*
X245298000Y-34224400D01*
G37*
X244798000Y-34224400D02*
X244398000Y-34224400D01*
X244398000Y-32984400D01*
X244798000Y-32984400D01*
X244798000Y-34224400D01*
G36*
X244798000Y-34224400D02*
G01*
X244398000Y-34224400D01*
X244398000Y-32984400D01*
X244798000Y-32984400D01*
X244798000Y-34224400D01*
G37*
X244298000Y-34224400D02*
X243898000Y-34224400D01*
X243898000Y-32984400D01*
X244298000Y-32984400D01*
X244298000Y-34224400D01*
G36*
X244298000Y-34224400D02*
G01*
X243898000Y-34224400D01*
X243898000Y-32984400D01*
X244298000Y-32984400D01*
X244298000Y-34224400D01*
G37*
X243798000Y-34224400D02*
X243398000Y-34224400D01*
X243398000Y-32984400D01*
X243798000Y-32984400D01*
X243798000Y-34224400D01*
G36*
X243798000Y-34224400D02*
G01*
X243398000Y-34224400D01*
X243398000Y-32984400D01*
X243798000Y-32984400D01*
X243798000Y-34224400D01*
G37*
X243298000Y-34224400D02*
X242898000Y-34224400D01*
X242898000Y-32984400D01*
X243298000Y-32984400D01*
X243298000Y-34224400D01*
G36*
X243298000Y-34224400D02*
G01*
X242898000Y-34224400D01*
X242898000Y-32984400D01*
X243298000Y-32984400D01*
X243298000Y-34224400D01*
G37*
X242798000Y-34224400D02*
X242398000Y-34224400D01*
X242398000Y-32984400D01*
X242798000Y-32984400D01*
X242798000Y-34224400D01*
G36*
X242798000Y-34224400D02*
G01*
X242398000Y-34224400D01*
X242398000Y-32984400D01*
X242798000Y-32984400D01*
X242798000Y-34224400D01*
G37*
X242298000Y-34224400D02*
X241598000Y-34224400D01*
X241598000Y-32984400D01*
X242298000Y-32984400D01*
X242298000Y-34224400D01*
G36*
X242298000Y-34224400D02*
G01*
X241598000Y-34224400D01*
X241598000Y-32984400D01*
X242298000Y-32984400D01*
X242298000Y-34224400D01*
G37*
X241498000Y-34224400D02*
X240798000Y-34224400D01*
X240798000Y-32984400D01*
X241498000Y-32984400D01*
X241498000Y-34224400D01*
G36*
X241498000Y-34224400D02*
G01*
X240798000Y-34224400D01*
X240798000Y-32984400D01*
X241498000Y-32984400D01*
X241498000Y-34224400D01*
G37*
D11*
X141540000Y-36322000D03*
X142940000Y-36322000D03*
X132650000Y-36322000D03*
X134050000Y-36322000D03*
X123760000Y-46482000D03*
X125160000Y-46482000D03*
X114870000Y-46482000D03*
X116270000Y-46482000D03*
D12*
X241401600Y-43329800D03*
X241401600Y-42369800D03*
D13*
X166365000Y-100775000D03*
D14*
X166365000Y-103315000D03*
X166365000Y-105855000D03*
X166365000Y-108395000D03*
X166365000Y-110935000D03*
X166365000Y-113475000D03*
X166365000Y-116015000D03*
X166365000Y-118555000D03*
X168905000Y-100775000D03*
X168905000Y-103315000D03*
X168905000Y-105855000D03*
X168905000Y-108395000D03*
X168905000Y-110935000D03*
X168905000Y-113475000D03*
X168905000Y-116015000D03*
X168905000Y-118555000D03*
X171445000Y-100775000D03*
X171445000Y-103315000D03*
X171445000Y-105855000D03*
X171445000Y-108395000D03*
X171445000Y-110935000D03*
X171445000Y-113475000D03*
X171445000Y-116015000D03*
X171445000Y-118555000D03*
D11*
X132650000Y-65913000D03*
X134050000Y-65913000D03*
D15*
X259382500Y-43180000D03*
X257507500Y-43180000D03*
D16*
X171194000Y-68834000D03*
X172214000Y-68834000D03*
D17*
X258000000Y-30000000D03*
D11*
X141540000Y-31242000D03*
X142940000Y-31242000D03*
X105980000Y-46482000D03*
X107380000Y-46482000D03*
X159320000Y-33782000D03*
X160720000Y-33782000D03*
D18*
X208474000Y-73406000D03*
D19*
X205974000Y-73406000D03*
X203474000Y-73406000D03*
X200974000Y-73406000D03*
D16*
X171194000Y-67564000D03*
X172214000Y-67564000D03*
D13*
X256286000Y-59944000D03*
D14*
X256286000Y-57404000D03*
D16*
X171067000Y-59065640D03*
X172087000Y-59065640D03*
D12*
X243225000Y-55630000D03*
X243225000Y-54670000D03*
D11*
X159320000Y-38862000D03*
X160720000Y-38862000D03*
D20*
X235633200Y-46228000D03*
X234673200Y-46228000D03*
D11*
X123760000Y-36322000D03*
X125160000Y-36322000D03*
D16*
X171067000Y-57795640D03*
X172087000Y-57795640D03*
D11*
X97090000Y-73533000D03*
X98490000Y-73533000D03*
D21*
X204700000Y-46890000D03*
X204700000Y-47910000D03*
D11*
X105980000Y-31242000D03*
X107380000Y-31242000D03*
D18*
X223123000Y-62882000D03*
D19*
X220623000Y-62882000D03*
X218123000Y-62882000D03*
X215623000Y-62882000D03*
D11*
X105980000Y-70993000D03*
X107380000Y-70993000D03*
D22*
X208908000Y-38313000D03*
X216358000Y-38313000D03*
X223808000Y-38313000D03*
X211358000Y-40513000D03*
X221358000Y-40513000D03*
X221358000Y-28363000D03*
X211358000Y-28363000D03*
X213858000Y-28363000D03*
X218858000Y-28363000D03*
D11*
X97090000Y-70993000D03*
X98490000Y-70993000D03*
X159320000Y-65913000D03*
X160720000Y-65913000D03*
X105980000Y-43942000D03*
X107380000Y-43942000D03*
X105980000Y-36322000D03*
X107380000Y-36322000D03*
D12*
X250190000Y-35836800D03*
X250190000Y-34876800D03*
D11*
X132650000Y-41402000D03*
X134050000Y-41402000D03*
D13*
X223652000Y-100745000D03*
D14*
X223652000Y-103285000D03*
X223652000Y-105825000D03*
X223652000Y-108365000D03*
X223652000Y-110905000D03*
X223652000Y-113445000D03*
X223652000Y-115985000D03*
X223652000Y-118525000D03*
X226192000Y-100745000D03*
X226192000Y-103285000D03*
X226192000Y-105825000D03*
X226192000Y-108365000D03*
X226192000Y-110905000D03*
X226192000Y-113445000D03*
X226192000Y-115985000D03*
X226192000Y-118525000D03*
X228732000Y-100745000D03*
X228732000Y-103285000D03*
X228732000Y-105825000D03*
X228732000Y-108365000D03*
X228732000Y-110905000D03*
X228732000Y-113445000D03*
X228732000Y-115985000D03*
X228732000Y-118525000D03*
D13*
X100930596Y-100545916D03*
D14*
X103470596Y-100545916D03*
X100930596Y-103085916D03*
X103470596Y-103085916D03*
X100930596Y-105625916D03*
X103470596Y-105625916D03*
X100930596Y-108165916D03*
X103470596Y-108165916D03*
X100930596Y-110705916D03*
X103470596Y-110705916D03*
X100930596Y-113245916D03*
X103470596Y-113245916D03*
X100930596Y-115785916D03*
X103470596Y-115785916D03*
X100930596Y-118325916D03*
X103470596Y-118325916D03*
D16*
X171067000Y-53985640D03*
X172087000Y-53985640D03*
D11*
X123760000Y-33782000D03*
X125160000Y-33782000D03*
D18*
X223139000Y-73406000D03*
D19*
X220639000Y-73406000D03*
X218139000Y-73406000D03*
X215639000Y-73406000D03*
D12*
X238201200Y-41272400D03*
X238201200Y-40312400D03*
D23*
X243029800Y-44475400D03*
X243989800Y-44475400D03*
D11*
X150430000Y-68453000D03*
X151830000Y-68453000D03*
D20*
X173073000Y-49159640D03*
X172113000Y-49159640D03*
D24*
X249250000Y-42495000D03*
X249250000Y-43455000D03*
D13*
X92075000Y-55753000D03*
D14*
X94615000Y-55753000D03*
X92075000Y-58293000D03*
X94615000Y-58293000D03*
X92075000Y-60833000D03*
X94615000Y-60833000D03*
X92075000Y-63373000D03*
X94615000Y-63373000D03*
X92075000Y-65913000D03*
X94615000Y-65913000D03*
X92075000Y-68453000D03*
X94615000Y-68453000D03*
X92075000Y-70993000D03*
X94615000Y-70993000D03*
X92075000Y-73533000D03*
X94615000Y-73533000D03*
D16*
X247775000Y-37592000D03*
X248795000Y-37592000D03*
D11*
X132650000Y-58293000D03*
X134050000Y-58293000D03*
D16*
X171067000Y-55255640D03*
X172087000Y-55255640D03*
D13*
X109855000Y-55753000D03*
D14*
X112395000Y-55753000D03*
X109855000Y-58293000D03*
X112395000Y-58293000D03*
X109855000Y-60833000D03*
X112395000Y-60833000D03*
X109855000Y-63373000D03*
X112395000Y-63373000D03*
X109855000Y-65913000D03*
X112395000Y-65913000D03*
X109855000Y-68453000D03*
X112395000Y-68453000D03*
X109855000Y-70993000D03*
X112395000Y-70993000D03*
X109855000Y-73533000D03*
X112395000Y-73533000D03*
D11*
X132650000Y-55753000D03*
X134050000Y-55753000D03*
D13*
X243469400Y-63042800D03*
D14*
X240929400Y-63042800D03*
X238389400Y-63042800D03*
D16*
X171067000Y-52715640D03*
X172087000Y-52715640D03*
D11*
X150430000Y-36322000D03*
X151830000Y-36322000D03*
X97090000Y-49022000D03*
X98490000Y-49022000D03*
X97090000Y-31242000D03*
X98490000Y-31242000D03*
D20*
X235074400Y-50190400D03*
X234114400Y-50190400D03*
D11*
X114870000Y-70993000D03*
X116270000Y-70993000D03*
D13*
X136525000Y-31242000D03*
D14*
X139065000Y-31242000D03*
X136525000Y-33782000D03*
X139065000Y-33782000D03*
X136525000Y-36322000D03*
X139065000Y-36322000D03*
X136525000Y-38862000D03*
X139065000Y-38862000D03*
X136525000Y-41402000D03*
X139065000Y-41402000D03*
X136525000Y-43942000D03*
X139065000Y-43942000D03*
X136525000Y-46482000D03*
X139065000Y-46482000D03*
X136525000Y-49022000D03*
X139065000Y-49022000D03*
D16*
X171194000Y-70104000D03*
X172214000Y-70104000D03*
D25*
X236728000Y-34881000D03*
X235458000Y-34881000D03*
X234188000Y-34881000D03*
X232918000Y-34881000D03*
X232918000Y-42081000D03*
X234188000Y-42081000D03*
X235458000Y-42081000D03*
X236728000Y-42081000D03*
D13*
X109855000Y-31242000D03*
D14*
X112395000Y-31242000D03*
X109855000Y-33782000D03*
X112395000Y-33782000D03*
X109855000Y-36322000D03*
X112395000Y-36322000D03*
X109855000Y-38862000D03*
X112395000Y-38862000D03*
X109855000Y-41402000D03*
X112395000Y-41402000D03*
X109855000Y-43942000D03*
X112395000Y-43942000D03*
X109855000Y-46482000D03*
X112395000Y-46482000D03*
X109855000Y-49022000D03*
X112395000Y-49022000D03*
D17*
X258000000Y-119000000D03*
D20*
X243989800Y-43484800D03*
X243029800Y-43484800D03*
D11*
X97090000Y-41402000D03*
X98490000Y-41402000D03*
X159320000Y-63373000D03*
X160720000Y-63373000D03*
D15*
X259382500Y-49784000D03*
X257507500Y-49784000D03*
D11*
X105980000Y-73533000D03*
X107380000Y-73533000D03*
X114870000Y-73533000D03*
X116270000Y-73533000D03*
X123760000Y-60833000D03*
X125160000Y-60833000D03*
X159320000Y-60833000D03*
X160720000Y-60833000D03*
D13*
X100965000Y-55753000D03*
D14*
X103505000Y-55753000D03*
X100965000Y-58293000D03*
X103505000Y-58293000D03*
X100965000Y-60833000D03*
X103505000Y-60833000D03*
X100965000Y-63373000D03*
X103505000Y-63373000D03*
X100965000Y-65913000D03*
X103505000Y-65913000D03*
X100965000Y-68453000D03*
X103505000Y-68453000D03*
X100965000Y-70993000D03*
X103505000Y-70993000D03*
X100965000Y-73533000D03*
X103505000Y-73533000D03*
D26*
X164176000Y-64389000D03*
X164176000Y-65659000D03*
X164176000Y-66929000D03*
X164176000Y-68199000D03*
X164176000Y-69469000D03*
X164176000Y-70739000D03*
X164176000Y-72009000D03*
X164176000Y-73279000D03*
X169326000Y-73279000D03*
X169326000Y-72009000D03*
X169326000Y-70739000D03*
X169326000Y-69469000D03*
X169326000Y-68199000D03*
X169326000Y-66929000D03*
X169326000Y-65659000D03*
X169326000Y-64389000D03*
D16*
X171067000Y-51445640D03*
X172087000Y-51445640D03*
D27*
X238415600Y-54775000D03*
X238415600Y-56525000D03*
X239815600Y-56525000D03*
X239815600Y-54775000D03*
D11*
X150430000Y-41402000D03*
X151830000Y-41402000D03*
X123760000Y-55753000D03*
X125160000Y-55753000D03*
D28*
X258699000Y-63825250D03*
X257749000Y-63825250D03*
X256799000Y-63825250D03*
X256799000Y-66100250D03*
X258699000Y-66100250D03*
D24*
X245313200Y-50167600D03*
X245313200Y-51127600D03*
D20*
X182598000Y-76454000D03*
X181638000Y-76454000D03*
D12*
X238404400Y-70380800D03*
X238404400Y-69420800D03*
D29*
X248875000Y-73855500D03*
X249525000Y-73855500D03*
X250175000Y-73855500D03*
X250825000Y-73855500D03*
X251475000Y-73855500D03*
X252125000Y-73855500D03*
X252775000Y-73855500D03*
X252775000Y-68130500D03*
X252125000Y-68130500D03*
X251475000Y-68130500D03*
X250825000Y-68130500D03*
X250175000Y-68130500D03*
X249525000Y-68130500D03*
X248875000Y-68130500D03*
D11*
X105980000Y-33782000D03*
X107380000Y-33782000D03*
D13*
X136490596Y-100545916D03*
D14*
X139030596Y-100545916D03*
X136490596Y-103085916D03*
X139030596Y-103085916D03*
X136490596Y-105625916D03*
X139030596Y-105625916D03*
X136490596Y-108165916D03*
X139030596Y-108165916D03*
X136490596Y-110705916D03*
X139030596Y-110705916D03*
X136490596Y-113245916D03*
X139030596Y-113245916D03*
X136490596Y-115785916D03*
X139030596Y-115785916D03*
X136490596Y-118325916D03*
X139030596Y-118325916D03*
D20*
X157676000Y-82765916D03*
X156716000Y-82765916D03*
D11*
X123760000Y-41402000D03*
X125160000Y-41402000D03*
D13*
X92075000Y-31242000D03*
D14*
X94615000Y-31242000D03*
X92075000Y-33782000D03*
X94615000Y-33782000D03*
X92075000Y-36322000D03*
X94615000Y-36322000D03*
X92075000Y-38862000D03*
X94615000Y-38862000D03*
X92075000Y-41402000D03*
X94615000Y-41402000D03*
X92075000Y-43942000D03*
X94615000Y-43942000D03*
X92075000Y-46482000D03*
X94615000Y-46482000D03*
X92075000Y-49022000D03*
X94615000Y-49022000D03*
D13*
X92040596Y-100530916D03*
D14*
X94580596Y-100530916D03*
X92040596Y-103070916D03*
X94580596Y-103070916D03*
X92040596Y-105610916D03*
X94580596Y-105610916D03*
X92040596Y-108150916D03*
X94580596Y-108150916D03*
X92040596Y-110690916D03*
X94580596Y-110690916D03*
X92040596Y-113230916D03*
X94580596Y-113230916D03*
X92040596Y-115770916D03*
X94580596Y-115770916D03*
X92040596Y-118310916D03*
X94580596Y-118310916D03*
D16*
X171194000Y-66294000D03*
X172214000Y-66294000D03*
D11*
X132650000Y-73533000D03*
X134050000Y-73533000D03*
D29*
X239756400Y-75658900D03*
X240406400Y-75658900D03*
X241056400Y-75658900D03*
X241706400Y-75658900D03*
X242356400Y-75658900D03*
X243006400Y-75658900D03*
X243656400Y-75658900D03*
X243656400Y-69933900D03*
X243006400Y-69933900D03*
X242356400Y-69933900D03*
X241706400Y-69933900D03*
X241056400Y-69933900D03*
X240406400Y-69933900D03*
X239756400Y-69933900D03*
D16*
X171194000Y-73914000D03*
X172214000Y-73914000D03*
D15*
X259382500Y-46482000D03*
X257507500Y-46482000D03*
D11*
X114870000Y-65913000D03*
X116270000Y-65913000D03*
X159320000Y-41402000D03*
X160720000Y-41402000D03*
D30*
X193929000Y-47687000D03*
X193929000Y-49087000D03*
D16*
X171194000Y-71374000D03*
X172214000Y-71374000D03*
D29*
X156262000Y-90327416D03*
X156912000Y-90327416D03*
X157562000Y-90327416D03*
X158212000Y-90327416D03*
X158862000Y-90327416D03*
X159512000Y-90327416D03*
X160162000Y-90327416D03*
X160162000Y-84602416D03*
X159512000Y-84602416D03*
X158862000Y-84602416D03*
X158212000Y-84602416D03*
X157562000Y-84602416D03*
X156912000Y-84602416D03*
X156262000Y-84602416D03*
D11*
X97090000Y-63373000D03*
X98490000Y-63373000D03*
D31*
X242150000Y-57710800D03*
X242150000Y-56690800D03*
D11*
X150430000Y-60833000D03*
X151830000Y-60833000D03*
X105980000Y-38862000D03*
X107380000Y-38862000D03*
X150430000Y-58293000D03*
X151830000Y-58293000D03*
X159320000Y-58293000D03*
X160720000Y-58293000D03*
X114870000Y-33782000D03*
X116270000Y-33782000D03*
X159320000Y-36322000D03*
X160720000Y-36322000D03*
X123760000Y-43942000D03*
X125160000Y-43942000D03*
D32*
X163250000Y-81805000D03*
X163250000Y-83075000D03*
X163250000Y-84345000D03*
X163250000Y-85615000D03*
X163250000Y-86885000D03*
X163250000Y-88155000D03*
X163250000Y-89425000D03*
X163250000Y-90695000D03*
X168200000Y-90695000D03*
X168200000Y-89425000D03*
X168200000Y-88155000D03*
X168200000Y-86885000D03*
X168200000Y-85615000D03*
X168200000Y-84345000D03*
X168200000Y-83075000D03*
X168200000Y-81805000D03*
D11*
X105980000Y-63373000D03*
X107380000Y-63373000D03*
X132650000Y-43942000D03*
X134050000Y-43942000D03*
X159320000Y-55753000D03*
X160720000Y-55753000D03*
D29*
X245472000Y-91542500D03*
X246122000Y-91542500D03*
X246772000Y-91542500D03*
X247422000Y-91542500D03*
X248072000Y-91542500D03*
X248722000Y-91542500D03*
X249372000Y-91542500D03*
X250022000Y-91542500D03*
X250672000Y-91542500D03*
X251322000Y-91542500D03*
X251972000Y-91542500D03*
X252622000Y-91542500D03*
X252622000Y-85817500D03*
X251972000Y-85817500D03*
X251322000Y-85817500D03*
X250672000Y-85817500D03*
X250022000Y-85817500D03*
X249372000Y-85817500D03*
X248722000Y-85817500D03*
X248072000Y-85817500D03*
X247422000Y-85817500D03*
X246772000Y-85817500D03*
X246122000Y-85817500D03*
X245472000Y-85817500D03*
D33*
X139035000Y-92495916D03*
X140305000Y-92495916D03*
X141575000Y-92495916D03*
X142845000Y-92495916D03*
X144115000Y-92495916D03*
X145385000Y-92495916D03*
X146655000Y-92495916D03*
X147925000Y-92495916D03*
X149195000Y-92495916D03*
X150465000Y-92495916D03*
X151735000Y-92495916D03*
X153005000Y-92495916D03*
X153005000Y-83195916D03*
X151735000Y-83195916D03*
X150465000Y-83195916D03*
X149195000Y-83195916D03*
X147925000Y-83195916D03*
X146655000Y-83195916D03*
X145385000Y-83195916D03*
X144115000Y-83195916D03*
X142845000Y-83195916D03*
X141575000Y-83195916D03*
X140305000Y-83195916D03*
X139035000Y-83195916D03*
D11*
X141540000Y-38862000D03*
X142940000Y-38862000D03*
D18*
X208474000Y-62882000D03*
D19*
X205974000Y-62882000D03*
X203474000Y-62882000D03*
X200974000Y-62882000D03*
D11*
X114870000Y-68453000D03*
X116270000Y-68453000D03*
D16*
X221352000Y-43520000D03*
X222372000Y-43520000D03*
D34*
X246260000Y-56775000D03*
X245240000Y-56775000D03*
D12*
X244348000Y-86205000D03*
X244348000Y-85245000D03*
D13*
X246507000Y-100745000D03*
D14*
X246507000Y-103285000D03*
X246507000Y-105825000D03*
X246507000Y-108365000D03*
X246507000Y-110905000D03*
X246507000Y-113445000D03*
X246507000Y-115985000D03*
X246507000Y-118525000D03*
X249047000Y-100745000D03*
X249047000Y-103285000D03*
X249047000Y-105825000D03*
X249047000Y-108365000D03*
X249047000Y-110905000D03*
X249047000Y-113445000D03*
X249047000Y-115985000D03*
X249047000Y-118525000D03*
X251587000Y-100745000D03*
X251587000Y-103285000D03*
X251587000Y-105825000D03*
X251587000Y-108365000D03*
X251587000Y-110905000D03*
X251587000Y-113445000D03*
X251587000Y-115985000D03*
X251587000Y-118525000D03*
D11*
X114870000Y-31242000D03*
X116270000Y-31242000D03*
X150430000Y-31242000D03*
X151830000Y-31242000D03*
X114870000Y-55753000D03*
X116270000Y-55753000D03*
X105980000Y-55753000D03*
X107380000Y-55753000D03*
D12*
X247446800Y-68501200D03*
X247446800Y-67541200D03*
D11*
X132650000Y-70993000D03*
X134050000Y-70993000D03*
D29*
X199757000Y-91542500D03*
X200407000Y-91542500D03*
X201057000Y-91542500D03*
X201707000Y-91542500D03*
X202357000Y-91542500D03*
X203007000Y-91542500D03*
X203657000Y-91542500D03*
X204307000Y-91542500D03*
X204957000Y-91542500D03*
X205607000Y-91542500D03*
X206257000Y-91542500D03*
X206907000Y-91542500D03*
X206907000Y-85817500D03*
X206257000Y-85817500D03*
X205607000Y-85817500D03*
X204957000Y-85817500D03*
X204307000Y-85817500D03*
X203657000Y-85817500D03*
X203007000Y-85817500D03*
X202357000Y-85817500D03*
X201707000Y-85817500D03*
X201057000Y-85817500D03*
X200407000Y-85817500D03*
X199757000Y-85817500D03*
D13*
X136525000Y-55753000D03*
D14*
X139065000Y-55753000D03*
X136525000Y-58293000D03*
X139065000Y-58293000D03*
X136525000Y-60833000D03*
X139065000Y-60833000D03*
X136525000Y-63373000D03*
X139065000Y-63373000D03*
X136525000Y-65913000D03*
X139065000Y-65913000D03*
X136525000Y-68453000D03*
X139065000Y-68453000D03*
X136525000Y-70993000D03*
X139065000Y-70993000D03*
X136525000Y-73533000D03*
X139065000Y-73533000D03*
D11*
X150430000Y-38862000D03*
X151830000Y-38862000D03*
X114870000Y-38862000D03*
X116270000Y-38862000D03*
D35*
X236855000Y-46457000D03*
X236855000Y-46857000D03*
X236855000Y-47257000D03*
X236855000Y-47657000D03*
X236855000Y-48057000D03*
X236855000Y-48457000D03*
X236855000Y-48857000D03*
X236855000Y-49257000D03*
X236855000Y-49657000D03*
X236855000Y-50057000D03*
X236855000Y-50457000D03*
X236855000Y-50857000D03*
X236855000Y-51257000D03*
X236855000Y-51657000D03*
D36*
X237692500Y-52494500D03*
X238092500Y-52494500D03*
X238492500Y-52494500D03*
X238892500Y-52494500D03*
X239292500Y-52494500D03*
X239692500Y-52494500D03*
X240092500Y-52494500D03*
X240492500Y-52494500D03*
X240892500Y-52494500D03*
X241292500Y-52494500D03*
X241692500Y-52494500D03*
X242092500Y-52494500D03*
X242492500Y-52494500D03*
X242892500Y-52494500D03*
D35*
X243730000Y-51657000D03*
X243730000Y-51257000D03*
X243730000Y-50857000D03*
X243730000Y-50457000D03*
X243730000Y-50057000D03*
X243730000Y-49657000D03*
X243730000Y-49257000D03*
X243730000Y-48857000D03*
X243730000Y-48457000D03*
X243730000Y-48057000D03*
X243730000Y-47657000D03*
X243730000Y-47257000D03*
X243730000Y-46857000D03*
X243730000Y-46457000D03*
D36*
X242892500Y-45619500D03*
X242492500Y-45619500D03*
X242092500Y-45619500D03*
X241692500Y-45619500D03*
X241292500Y-45619500D03*
X240892500Y-45619500D03*
X240492500Y-45619500D03*
X240092500Y-45619500D03*
X239692500Y-45619500D03*
X239292500Y-45619500D03*
X238892500Y-45619500D03*
X238492500Y-45619500D03*
X238092500Y-45619500D03*
X237692500Y-45619500D03*
D37*
X240292500Y-49057000D03*
D11*
X141540000Y-49022000D03*
X142940000Y-49022000D03*
D24*
X241150000Y-56746200D03*
X241150000Y-57706200D03*
D11*
X141540000Y-41402000D03*
X142940000Y-41402000D03*
D38*
X240550000Y-38592000D03*
D11*
X242250000Y-38592000D03*
X242250000Y-36592000D03*
X240350000Y-36592000D03*
X132650000Y-60833000D03*
X134050000Y-60833000D03*
X150430000Y-73533000D03*
X151830000Y-73533000D03*
X123760000Y-31242000D03*
X125160000Y-31242000D03*
D13*
X145415000Y-31242000D03*
D14*
X147955000Y-31242000D03*
X145415000Y-33782000D03*
X147955000Y-33782000D03*
X145415000Y-36322000D03*
X147955000Y-36322000D03*
X145415000Y-38862000D03*
X147955000Y-38862000D03*
X145415000Y-41402000D03*
X147955000Y-41402000D03*
X145415000Y-43942000D03*
X147955000Y-43942000D03*
X145415000Y-46482000D03*
X147955000Y-46482000D03*
X145415000Y-49022000D03*
X147955000Y-49022000D03*
D29*
X222617000Y-91542500D03*
X223267000Y-91542500D03*
X223917000Y-91542500D03*
X224567000Y-91542500D03*
X225217000Y-91542500D03*
X225867000Y-91542500D03*
X226517000Y-91542500D03*
X227167000Y-91542500D03*
X227817000Y-91542500D03*
X228467000Y-91542500D03*
X229117000Y-91542500D03*
X229767000Y-91542500D03*
X229767000Y-85817500D03*
X229117000Y-85817500D03*
X228467000Y-85817500D03*
X227817000Y-85817500D03*
X227167000Y-85817500D03*
X226517000Y-85817500D03*
X225867000Y-85817500D03*
X225217000Y-85817500D03*
X224567000Y-85817500D03*
X223917000Y-85817500D03*
X223267000Y-85817500D03*
X222617000Y-85817500D03*
D28*
X247975000Y-41178900D03*
X247025000Y-41178900D03*
X246075000Y-41178900D03*
X246075000Y-43453900D03*
X247975000Y-43453900D03*
D11*
X159320000Y-46482000D03*
X160720000Y-46482000D03*
X141540000Y-70993000D03*
X142940000Y-70993000D03*
X114870000Y-49022000D03*
X116270000Y-49022000D03*
X97090000Y-46482000D03*
X98490000Y-46482000D03*
D20*
X204080000Y-45300000D03*
X203120000Y-45300000D03*
D12*
X240411000Y-43533000D03*
X240411000Y-42573000D03*
D13*
X127635000Y-31242000D03*
D14*
X130175000Y-31242000D03*
X127635000Y-33782000D03*
X130175000Y-33782000D03*
X127635000Y-36322000D03*
X130175000Y-36322000D03*
X127635000Y-38862000D03*
X130175000Y-38862000D03*
X127635000Y-41402000D03*
X130175000Y-41402000D03*
X127635000Y-43942000D03*
X130175000Y-43942000D03*
X127635000Y-46482000D03*
X130175000Y-46482000D03*
X127635000Y-49022000D03*
X130175000Y-49022000D03*
D24*
X242225000Y-54670000D03*
X242225000Y-55630000D03*
D22*
X186458000Y-38313000D03*
X193908000Y-38313000D03*
X201358000Y-38313000D03*
X188908000Y-40513000D03*
X198908000Y-40513000D03*
X198908000Y-28363000D03*
X188908000Y-28363000D03*
X191408000Y-28363000D03*
X196408000Y-28363000D03*
D26*
X164176000Y-48905640D03*
X164176000Y-50175640D03*
X164176000Y-51445640D03*
X164176000Y-52715640D03*
X164176000Y-53985640D03*
X164176000Y-55255640D03*
X164176000Y-56525640D03*
X164176000Y-57795640D03*
X169326000Y-57795640D03*
X169326000Y-56525640D03*
X169326000Y-55255640D03*
X169326000Y-53985640D03*
X169326000Y-52715640D03*
X169326000Y-51445640D03*
X169326000Y-50175640D03*
X169326000Y-48905640D03*
D11*
X132650000Y-68453000D03*
X134050000Y-68453000D03*
X97090000Y-60833000D03*
X98490000Y-60833000D03*
X132650000Y-38862000D03*
X134050000Y-38862000D03*
D23*
X244934800Y-46228000D03*
X245894800Y-46228000D03*
D11*
X141540000Y-33782000D03*
X142940000Y-33782000D03*
D13*
X145415000Y-55753000D03*
D14*
X147955000Y-55753000D03*
X145415000Y-58293000D03*
X147955000Y-58293000D03*
X145415000Y-60833000D03*
X147955000Y-60833000D03*
X145415000Y-63373000D03*
X147955000Y-63373000D03*
X145415000Y-65913000D03*
X147955000Y-65913000D03*
X145415000Y-68453000D03*
X147955000Y-68453000D03*
X145415000Y-70993000D03*
X147955000Y-70993000D03*
X145415000Y-73533000D03*
X147955000Y-73533000D03*
D11*
X123760000Y-49022000D03*
X125160000Y-49022000D03*
X141540000Y-46482000D03*
X142940000Y-46482000D03*
D16*
X243584000Y-36322000D03*
X244604000Y-36322000D03*
D13*
X109820596Y-100545916D03*
D14*
X112360596Y-100545916D03*
X109820596Y-103085916D03*
X112360596Y-103085916D03*
X109820596Y-105625916D03*
X112360596Y-105625916D03*
X109820596Y-108165916D03*
X112360596Y-108165916D03*
X109820596Y-110705916D03*
X112360596Y-110705916D03*
X109820596Y-113245916D03*
X112360596Y-113245916D03*
X109820596Y-115785916D03*
X112360596Y-115785916D03*
X109820596Y-118325916D03*
X112360596Y-118325916D03*
D29*
X176765000Y-91557500D03*
X177415000Y-91557500D03*
X178065000Y-91557500D03*
X178715000Y-91557500D03*
X179365000Y-91557500D03*
X180015000Y-91557500D03*
X180665000Y-91557500D03*
X181315000Y-91557500D03*
X181965000Y-91557500D03*
X182615000Y-91557500D03*
X183265000Y-91557500D03*
X183915000Y-91557500D03*
X183915000Y-85832500D03*
X183265000Y-85832500D03*
X182615000Y-85832500D03*
X181965000Y-85832500D03*
X181315000Y-85832500D03*
X180665000Y-85832500D03*
X180015000Y-85832500D03*
X179365000Y-85832500D03*
X178715000Y-85832500D03*
X178065000Y-85832500D03*
X177415000Y-85832500D03*
X176765000Y-85832500D03*
D23*
X245112600Y-44881800D03*
X246072600Y-44881800D03*
D11*
X150430000Y-49022000D03*
X151830000Y-49022000D03*
D16*
X142464000Y-81353916D03*
X143484000Y-81353916D03*
D13*
X118745000Y-31242000D03*
D14*
X121285000Y-31242000D03*
X118745000Y-33782000D03*
X121285000Y-33782000D03*
X118745000Y-36322000D03*
X121285000Y-36322000D03*
X118745000Y-38862000D03*
X121285000Y-38862000D03*
X118745000Y-41402000D03*
X121285000Y-41402000D03*
X118745000Y-43942000D03*
X121285000Y-43942000D03*
X118745000Y-46482000D03*
X121285000Y-46482000D03*
X118745000Y-49022000D03*
X121285000Y-49022000D03*
D11*
X141540000Y-68453000D03*
X142940000Y-68453000D03*
D16*
X255141000Y-49784000D03*
X256161000Y-49784000D03*
D11*
X123760000Y-70993000D03*
X125160000Y-70993000D03*
X97090000Y-33782000D03*
X98490000Y-33782000D03*
X132650000Y-33782000D03*
X134050000Y-33782000D03*
X150430000Y-33782000D03*
X151830000Y-33782000D03*
D20*
X170930000Y-81800000D03*
X169970000Y-81800000D03*
D16*
X255141000Y-46482000D03*
X256161000Y-46482000D03*
D11*
X150430000Y-65913000D03*
X151830000Y-65913000D03*
X105980000Y-60833000D03*
X107380000Y-60833000D03*
X114870000Y-60833000D03*
X116270000Y-60833000D03*
X97090000Y-38862000D03*
X98490000Y-38862000D03*
D16*
X255141000Y-43180000D03*
X256161000Y-43180000D03*
D39*
X185582000Y-74803000D03*
X185582000Y-73533000D03*
X185582000Y-72263000D03*
X185582000Y-70993000D03*
X185582000Y-69723000D03*
X185582000Y-68453000D03*
X185582000Y-67183000D03*
X185582000Y-65913000D03*
X180432000Y-65913000D03*
X180432000Y-67183000D03*
X180432000Y-68453000D03*
X180432000Y-69723000D03*
X180432000Y-70993000D03*
X180432000Y-72263000D03*
X180432000Y-73533000D03*
X180432000Y-74803000D03*
D11*
X132650000Y-31242000D03*
X134050000Y-31242000D03*
X150430000Y-46482000D03*
X151830000Y-46482000D03*
D13*
X231749600Y-31805800D03*
D14*
X231749600Y-29265800D03*
D34*
X242597400Y-35306000D03*
X241577400Y-35306000D03*
D13*
X127635000Y-55753000D03*
D14*
X130175000Y-55753000D03*
X127635000Y-58293000D03*
X130175000Y-58293000D03*
X127635000Y-60833000D03*
X130175000Y-60833000D03*
X127635000Y-63373000D03*
X130175000Y-63373000D03*
X127635000Y-65913000D03*
X130175000Y-65913000D03*
X127635000Y-68453000D03*
X130175000Y-68453000D03*
X127635000Y-70993000D03*
X130175000Y-70993000D03*
X127635000Y-73533000D03*
X130175000Y-73533000D03*
D13*
X127600596Y-100545916D03*
D14*
X130140596Y-100545916D03*
X127600596Y-103085916D03*
X130140596Y-103085916D03*
X127600596Y-105625916D03*
X130140596Y-105625916D03*
X127600596Y-108165916D03*
X130140596Y-108165916D03*
X127600596Y-110705916D03*
X130140596Y-110705916D03*
X127600596Y-113245916D03*
X130140596Y-113245916D03*
X127600596Y-115785916D03*
X130140596Y-115785916D03*
X127600596Y-118325916D03*
X130140596Y-118325916D03*
D11*
X141540000Y-63373000D03*
X142940000Y-63373000D03*
D24*
X237100000Y-54370000D03*
X237100000Y-55330000D03*
D11*
X159320000Y-70993000D03*
X160720000Y-70993000D03*
D13*
X200792000Y-100745000D03*
D14*
X200792000Y-103285000D03*
X200792000Y-105825000D03*
X200792000Y-108365000D03*
X200792000Y-110905000D03*
X200792000Y-113445000D03*
X200792000Y-115985000D03*
X200792000Y-118525000D03*
X203332000Y-100745000D03*
X203332000Y-103285000D03*
X203332000Y-105825000D03*
X203332000Y-108365000D03*
X203332000Y-110905000D03*
X203332000Y-113445000D03*
X203332000Y-115985000D03*
X203332000Y-118525000D03*
X205872000Y-100745000D03*
X205872000Y-103285000D03*
X205872000Y-105825000D03*
X205872000Y-108365000D03*
X205872000Y-110905000D03*
X205872000Y-113445000D03*
X205872000Y-115985000D03*
X205872000Y-118525000D03*
D11*
X150430000Y-63373000D03*
X151830000Y-63373000D03*
D17*
X85000000Y-119000000D03*
D11*
X141540000Y-43942000D03*
X142940000Y-43942000D03*
D16*
X171194000Y-72644000D03*
X172214000Y-72644000D03*
D13*
X177800000Y-100760000D03*
D14*
X177800000Y-103300000D03*
X177800000Y-105840000D03*
X177800000Y-108380000D03*
X177800000Y-110920000D03*
X177800000Y-113460000D03*
X177800000Y-116000000D03*
X177800000Y-118540000D03*
X180340000Y-100760000D03*
X180340000Y-103300000D03*
X180340000Y-105840000D03*
X180340000Y-108380000D03*
X180340000Y-110920000D03*
X180340000Y-113460000D03*
X180340000Y-116000000D03*
X180340000Y-118540000D03*
X182880000Y-100760000D03*
X182880000Y-103300000D03*
X182880000Y-105840000D03*
X182880000Y-108380000D03*
X182880000Y-110920000D03*
X182880000Y-113460000D03*
X182880000Y-116000000D03*
X182880000Y-118540000D03*
D11*
X141540000Y-65913000D03*
X142940000Y-65913000D03*
X132650000Y-49022000D03*
X134050000Y-49022000D03*
X123760000Y-73533000D03*
X125160000Y-73533000D03*
X123760000Y-38862000D03*
X125160000Y-38862000D03*
X150430000Y-43942000D03*
X151830000Y-43942000D03*
D17*
X85000000Y-30000000D03*
D11*
X97090000Y-58293000D03*
X98490000Y-58293000D03*
X105980000Y-58293000D03*
X107380000Y-58293000D03*
X97090000Y-43942000D03*
X98490000Y-43942000D03*
X150430000Y-55753000D03*
X151830000Y-55753000D03*
D16*
X171067000Y-56525640D03*
X172087000Y-56525640D03*
D11*
X159320000Y-43942000D03*
X160720000Y-43942000D03*
X150430000Y-70993000D03*
X151830000Y-70993000D03*
X114870000Y-41402000D03*
X116270000Y-41402000D03*
D16*
X229715000Y-38400000D03*
X230735000Y-38400000D03*
D13*
X154305000Y-55753000D03*
D14*
X156845000Y-55753000D03*
X154305000Y-58293000D03*
X156845000Y-58293000D03*
X154305000Y-60833000D03*
X156845000Y-60833000D03*
X154305000Y-63373000D03*
X156845000Y-63373000D03*
X154305000Y-65913000D03*
X156845000Y-65913000D03*
X154305000Y-68453000D03*
X156845000Y-68453000D03*
X154305000Y-70993000D03*
X156845000Y-70993000D03*
X154305000Y-73533000D03*
X156845000Y-73533000D03*
D21*
X194056000Y-42810000D03*
X194056000Y-43830000D03*
D13*
X189230000Y-100760000D03*
D14*
X189230000Y-103300000D03*
X189230000Y-105840000D03*
X189230000Y-108380000D03*
X189230000Y-110920000D03*
X189230000Y-113460000D03*
X189230000Y-116000000D03*
X189230000Y-118540000D03*
X191770000Y-100760000D03*
X191770000Y-103300000D03*
X191770000Y-105840000D03*
X191770000Y-108380000D03*
X191770000Y-110920000D03*
X191770000Y-113460000D03*
X191770000Y-116000000D03*
X191770000Y-118540000D03*
X194310000Y-100760000D03*
X194310000Y-103300000D03*
X194310000Y-105840000D03*
X194310000Y-108380000D03*
X194310000Y-110920000D03*
X194310000Y-113460000D03*
X194310000Y-116000000D03*
X194310000Y-118540000D03*
D16*
X171067000Y-60335640D03*
X172087000Y-60335640D03*
D11*
X123760000Y-63373000D03*
X125160000Y-63373000D03*
X141540000Y-73533000D03*
X142940000Y-73533000D03*
D12*
X221488000Y-86205000D03*
X221488000Y-85245000D03*
D11*
X105980000Y-49022000D03*
X107380000Y-49022000D03*
D16*
X243584000Y-37592000D03*
X244604000Y-37592000D03*
D12*
X251307600Y-35836800D03*
X251307600Y-34876800D03*
D11*
X123760000Y-65913000D03*
X125160000Y-65913000D03*
X132650000Y-46482000D03*
X134050000Y-46482000D03*
D13*
X154265596Y-100560916D03*
D14*
X156805596Y-100560916D03*
X154265596Y-103100916D03*
X156805596Y-103100916D03*
X154265596Y-105640916D03*
X156805596Y-105640916D03*
X154265596Y-108180916D03*
X156805596Y-108180916D03*
X154265596Y-110720916D03*
X156805596Y-110720916D03*
X154265596Y-113260916D03*
X156805596Y-113260916D03*
X154265596Y-115800916D03*
X156805596Y-115800916D03*
X154265596Y-118340916D03*
X156805596Y-118340916D03*
D11*
X123760000Y-58293000D03*
X125160000Y-58293000D03*
D12*
X198628000Y-86205000D03*
X198628000Y-85245000D03*
D13*
X154305000Y-31242000D03*
D14*
X156845000Y-31242000D03*
X154305000Y-33782000D03*
X156845000Y-33782000D03*
X154305000Y-36322000D03*
X156845000Y-36322000D03*
X154305000Y-38862000D03*
X156845000Y-38862000D03*
X154305000Y-41402000D03*
X156845000Y-41402000D03*
X154305000Y-43942000D03*
X156845000Y-43942000D03*
X154305000Y-46482000D03*
X156845000Y-46482000D03*
X154305000Y-49022000D03*
X156845000Y-49022000D03*
D24*
X239100000Y-42495000D03*
X239100000Y-43455000D03*
D11*
X105980000Y-41402000D03*
X107380000Y-41402000D03*
D13*
X212217000Y-100760000D03*
D14*
X212217000Y-103300000D03*
X212217000Y-105840000D03*
X212217000Y-108380000D03*
X212217000Y-110920000D03*
X212217000Y-113460000D03*
X212217000Y-116000000D03*
X212217000Y-118540000D03*
X214757000Y-100760000D03*
X214757000Y-103300000D03*
X214757000Y-105840000D03*
X214757000Y-108380000D03*
X214757000Y-110920000D03*
X214757000Y-113460000D03*
X214757000Y-116000000D03*
X214757000Y-118540000D03*
X217297000Y-100760000D03*
X217297000Y-103300000D03*
X217297000Y-105840000D03*
X217297000Y-108380000D03*
X217297000Y-110920000D03*
X217297000Y-113460000D03*
X217297000Y-116000000D03*
X217297000Y-118540000D03*
D11*
X141540000Y-55753000D03*
X142940000Y-55753000D03*
D20*
X170660000Y-62738000D03*
X169700000Y-62738000D03*
D13*
X145380596Y-100560916D03*
D14*
X147920596Y-100560916D03*
X145380596Y-103100916D03*
X147920596Y-103100916D03*
X145380596Y-105640916D03*
X147920596Y-105640916D03*
X145380596Y-108180916D03*
X147920596Y-108180916D03*
X145380596Y-110720916D03*
X147920596Y-110720916D03*
X145380596Y-113260916D03*
X147920596Y-113260916D03*
X145380596Y-115800916D03*
X147920596Y-115800916D03*
X145380596Y-118340916D03*
X147920596Y-118340916D03*
D11*
X97090000Y-65913000D03*
X98490000Y-65913000D03*
X114870000Y-58293000D03*
X116270000Y-58293000D03*
X132650000Y-63373000D03*
X134050000Y-63373000D03*
D40*
X247238000Y-32534400D03*
X241458000Y-32534400D03*
D41*
X248673000Y-33024400D03*
X240023000Y-33024400D03*
D42*
X248673000Y-28854400D03*
X240023000Y-28854400D03*
D11*
X114870000Y-43942000D03*
X116270000Y-43942000D03*
D43*
X236562500Y-28875000D03*
X238387500Y-28875000D03*
D12*
X175641000Y-86205000D03*
X175641000Y-85245000D03*
D13*
X118710596Y-100545916D03*
D14*
X121250596Y-100545916D03*
X118710596Y-103085916D03*
X121250596Y-103085916D03*
X118710596Y-105625916D03*
X121250596Y-105625916D03*
X118710596Y-108165916D03*
X121250596Y-108165916D03*
X118710596Y-110705916D03*
X121250596Y-110705916D03*
X118710596Y-113245916D03*
X121250596Y-113245916D03*
X118710596Y-115785916D03*
X121250596Y-115785916D03*
X118710596Y-118325916D03*
X121250596Y-118325916D03*
D20*
X147135000Y-80337916D03*
X146175000Y-80337916D03*
D11*
X159320000Y-73533000D03*
X160720000Y-73533000D03*
D13*
X100965000Y-31242000D03*
D14*
X103505000Y-31242000D03*
X100965000Y-33782000D03*
X103505000Y-33782000D03*
X100965000Y-36322000D03*
X103505000Y-36322000D03*
X100965000Y-38862000D03*
X103505000Y-38862000D03*
X100965000Y-41402000D03*
X103505000Y-41402000D03*
X100965000Y-43942000D03*
X103505000Y-43942000D03*
X100965000Y-46482000D03*
X103505000Y-46482000D03*
X100965000Y-49022000D03*
X103505000Y-49022000D03*
D11*
X114870000Y-63373000D03*
X116270000Y-63373000D03*
D34*
X211838000Y-43434000D03*
X210818000Y-43434000D03*
D11*
X105980000Y-68453000D03*
X107380000Y-68453000D03*
D13*
X235072000Y-100760000D03*
D14*
X235072000Y-103300000D03*
X235072000Y-105840000D03*
X235072000Y-108380000D03*
X235072000Y-110920000D03*
X235072000Y-113460000D03*
X235072000Y-116000000D03*
X235072000Y-118540000D03*
X237612000Y-100760000D03*
X237612000Y-103300000D03*
X237612000Y-105840000D03*
X237612000Y-108380000D03*
X237612000Y-110920000D03*
X237612000Y-113460000D03*
X237612000Y-116000000D03*
X237612000Y-118540000D03*
X240152000Y-100760000D03*
X240152000Y-103300000D03*
X240152000Y-105840000D03*
X240152000Y-108380000D03*
X240152000Y-110920000D03*
X240152000Y-113460000D03*
X240152000Y-116000000D03*
X240152000Y-118540000D03*
D11*
X97090000Y-36322000D03*
X98490000Y-36322000D03*
X114870000Y-36322000D03*
X116270000Y-36322000D03*
X97090000Y-55753000D03*
X98490000Y-55753000D03*
D34*
X237110000Y-32275000D03*
X236090000Y-32275000D03*
D11*
X105980000Y-65913000D03*
X107380000Y-65913000D03*
X141540000Y-60833000D03*
X142940000Y-60833000D03*
X141540000Y-58293000D03*
X142940000Y-58293000D03*
X97090000Y-68453000D03*
X98490000Y-68453000D03*
D13*
X118745000Y-55753000D03*
D14*
X121285000Y-55753000D03*
X118745000Y-58293000D03*
X121285000Y-58293000D03*
X118745000Y-60833000D03*
X121285000Y-60833000D03*
X118745000Y-63373000D03*
X121285000Y-63373000D03*
X118745000Y-65913000D03*
X121285000Y-65913000D03*
X118745000Y-68453000D03*
X121285000Y-68453000D03*
X118745000Y-70993000D03*
X121285000Y-70993000D03*
X118745000Y-73533000D03*
X121285000Y-73533000D03*
D23*
X257409000Y-68016250D03*
X258369000Y-68016250D03*
D16*
X171194000Y-65024000D03*
X172214000Y-65024000D03*
D11*
X159320000Y-49022000D03*
X160720000Y-49022000D03*
X159320000Y-31242000D03*
X160720000Y-31242000D03*
D44*
X196150000Y-46830000D03*
X196150000Y-49370000D03*
X202450000Y-49370000D03*
X202450000Y-48100000D03*
X202450000Y-46830000D03*
D11*
X123760000Y-68453000D03*
X125160000Y-68453000D03*
X159320000Y-68453000D03*
X160720000Y-68453000D03*
M02*
